  0
SECTION
  2
HEADER
  9
$ACADVER
  1
AC1003
  9
$EXTMIN
 10
-0.9842519685
 20
2.788110236
  9
$EXTMAX
 10
3.728503937
 20
-0.9842519685
  9
$INSUNITS
 70
1
  9
$INSBASE
 10
1.37212598425
 20
0.90192913375
999
Created with OMAX LAYOUT for Windows. (www.omax.com) 1/22/2024
  0
ENDSEC
  0
SECTION
  2
TABLES
  0
TABLE
  2
LAYER
 70
    10
  0
LAYER
  2
0
 70
     0
 62
     7
  6
CONTINUOUS
  0
LAYER
  2
1
 70
     0
 62
     7
  6
CONTINUOUS
  0
LAYER
  2
2
 70
     0
 62
     7
  6
CONTINUOUS
  0
LAYER
  2
3
 70
     0
 62
     7
  6
CONTINUOUS
  0
LAYER
  2
4
 70
     0
 62
     7
  6
CONTINUOUS
  0
LAYER
  2
5
 70
     0
 62
     7
  6
CONTINUOUS
  0
LAYER
  2
6
 70
     0
 62
     7
  6
CONTINUOUS
  0
LAYER
  2
7
 70
     0
 62
     7
  6
CONTINUOUS
  0
LAYER
  2
8
 70
     0
 62
     7
  6
CONTINUOUS
  0
LAYER
  2
9
 70
     0
 62
     7
  6
CONTINUOUS
  0
LAYER
  2
10
 70
     0
 62
     7
  6
CONTINUOUS
  0
LAYER
  2
11
 70
     0
 62
     7
  6
CONTINUOUS
  0
LAYER
  2
12
 70
     0
 62
     7
  6
CONTINUOUS
  0
LAYER
  2
13
 70
     0
 62
     7
  6
CONTINUOUS
  0
LAYER
  2
14
 70
     0
 62
     7
  6
CONTINUOUS
  0
LAYER
  2
15
 70
     0
 62
     7
  6
CONTINUOUS
  0
LAYER
  2
16
 70
     0
 62
     7
  6
CONTINUOUS
  0
LAYER
  2
17
 70
     0
 62
     7
  6
CONTINUOUS
  0
LAYER
  2
18
 70
     0
 62
     7
  6
CONTINUOUS
  0
LAYER
  2
19
 70
     0
 62
     7
  6
CONTINUOUS
  0
LAYER
  2
20
 70
     0
 62
     7
  6
CONTINUOUS
  0
LAYER
  2
21
 70
     0
 62
     7
  6
CONTINUOUS
  0
LAYER
  2
22
 70
     0
 62
     7
  6
CONTINUOUS
  0
LAYER
  2
23
 70
     0
 62
     7
  6
CONTINUOUS
  0
LAYER
  2
24
 70
     0
 62
     7
  6
CONTINUOUS
  0
LAYER
  2
25
 70
     0
 62
     7
  6
CONTINUOUS
  0
LAYER
  2
26
 70
     0
 62
     7
  6
CONTINUOUS
  0
LAYER
  2
27
 70
     0
 62
     7
  6
CONTINUOUS
  0
LAYER
  2
28
 70
     0
 62
     7
  6
CONTINUOUS
  0
LAYER
  2
29
 70
     0
 62
     7
  6
CONTINUOUS
  0
LAYER
  2
30
 70
     0
 62
     7
  6
CONTINUOUS
  0
LAYER
  2
31
 70
     0
 62
     7
  6
CONTINUOUS
  0
ENDTAB
  0
ENDSEC
  0
SECTION
  2
ENTITIES
  0
LINE
  8
0
  6
CONTINUOUS
 62
0
 10
-0.9842519685
 20
-0.9842519685
 30
0.0
 11
0.9842519685
 21
-0.9842519685
 31
0.0
  0
LINE
  8
0
  6
CONTINUOUS
 62
0
 10
-0.9842519685
 20
0.9842519685
 30
0.0
 11
0.9842519685
 21
0.9842519685
 31
0.0
  0
LINE
  8
0
  6
CONTINUOUS
 62
0
 10
-0.9842519685
 20
-0.9842519685
 30
0.0
 11
-0.9842519685
 21
0.9842519685
 31
0.0
  0
LINE
  8
0
  6
CONTINUOUS
 62
0
 10
0.9842519685
 20
-0.9842519685
 30
0.0
 11
0.9842519685
 21
0.9842519685
 31
0.0
  0
LINE
  8
0
  6
CONTINUOUS
 62
0
 10
0.6496062995
 20
-0.8661417325
 30
0.0
 11
0.8661417325
 21
-0.8661417325
 31
0.0
  0
LINE
  8
0
  6
CONTINUOUS
 62
0
 10
0.6496062995
 20
-0.6496062995
 30
0.0
 11
0.8661417325
 21
-0.6496062995
 31
0.0
  0
LINE
  8
0
  6
CONTINUOUS
 62
0
 10
0.6496062995
 20
-0.8661417325
 30
0.0
 11
0.6496062995
 21
-0.6496062995
 31
0.0
  0
LINE
  8
0
  6
CONTINUOUS
 62
0
 10
0.8661417325
 20
-0.8661417325
 30
0.0
 11
0.8661417325
 21
-0.6496062995
 31
0.0
  0
ARC
  8
0
  6
CONTINUOUS
 62
0
 10
0.757874016
 20
-0.757874015999999
 30
0.0
 40
0.066929134
 50
359.999999999999
 51
180
  0
ARC
  8
0
  6
CONTINUOUS
 62
0
 10
0.757874016
 20
-0.757874016000001
 30
0.0
 40
0.066929134
 50
179.999999999999
 51
359.999999999999
  0
LINE
  8
0
  6
CONTINUOUS
 62
0
 10
-0.6496062995
 20
-0.8661417325
 30
0.0
 11
-0.8661417325
 21
-0.8661417325
 31
0.0
  0
LINE
  8
0
  6
CONTINUOUS
 62
0
 10
-0.6496062995
 20
-0.6496062995
 30
0.0
 11
-0.8661417325
 21
-0.6496062995
 31
0.0
  0
LINE
  8
0
  6
CONTINUOUS
 62
0
 10
-0.6496062995
 20
-0.8661417325
 30
0.0
 11
-0.6496062995
 21
-0.6496062995
 31
0.0
  0
LINE
  8
0
  6
CONTINUOUS
 62
0
 10
-0.8661417325
 20
-0.8661417325
 30
0.0
 11
-0.8661417325
 21
-0.6496062995
 31
0.0
  0
ARC
  8
0
  6
CONTINUOUS
 62
0
 10
-0.757874016
 20
-0.757874016000001
 30
0.0
 40
0.066929134
 50
359.999999999999
 51
180
  0
ARC
  8
0
  6
CONTINUOUS
 62
0
 10
-0.757874016
 20
-0.757874016
 30
0.0
 40
0.066929134
 50
180
 51
1.52666624710249E-13
  0
LINE
  8
0
  6
CONTINUOUS
 62
0
 10
0.6496062995
 20
0.8661417325
 30
0.0
 11
0.8661417325
 21
0.8661417325
 31
0.0
  0
LINE
  8
0
  6
CONTINUOUS
 62
0
 10
0.6496062995
 20
0.6496062995
 30
0.0
 11
0.8661417325
 21
0.6496062995
 31
0.0
  0
LINE
  8
0
  6
CONTINUOUS
 62
0
 10
0.6496062995
 20
0.8661417325
 30
0.0
 11
0.6496062995
 21
0.6496062995
 31
0.0
  0
LINE
  8
0
  6
CONTINUOUS
 62
0
 10
0.8661417325
 20
0.8661417325
 30
0.0
 11
0.8661417325
 21
0.6496062995
 31
0.0
  0
ARC
  8
0
  6
CONTINUOUS
 62
0
 10
0.757874016
 20
0.757874016
 30
0.0
 40
0.066929134
 50
180
 51
1.52666624710249E-13
  0
ARC
  8
0
  6
CONTINUOUS
 62
0
 10
0.757874016
 20
0.757874015999999
 30
0.0
 40
0.066929134
 50
359.999999999999
 51
180
  0
LINE
  8
0
  6
CONTINUOUS
 62
0
 10
-0.6496062995
 20
0.8661417325
 30
0.0
 11
-0.8661417325
 21
0.8661417325
 31
0.0
  0
LINE
  8
0
  6
CONTINUOUS
 62
0
 10
-0.6496062995
 20
0.6496062995
 30
0.0
 11
-0.8661417325
 21
0.6496062995
 31
0.0
  0
LINE
  8
0
  6
CONTINUOUS
 62
0
 10
-0.6496062995
 20
0.8661417325
 30
0.0
 11
-0.6496062995
 21
0.6496062995
 31
0.0
  0
LINE
  8
0
  6
CONTINUOUS
 62
0
 10
-0.8661417325
 20
0.8661417325
 30
0.0
 11
-0.8661417325
 21
0.6496062995
 31
0.0
  0
ARC
  8
0
  6
CONTINUOUS
 62
0
 10
-0.757874016
 20
0.757874015999999
 30
0.0
 40
0.066929134
 50
179.999999999999
 51
359.999999999999
  0
ARC
  8
0
  6
CONTINUOUS
 62
0
 10
-0.757874016
 20
0.757874016000001
 30
0.0
 40
0.066929134
 50
359.999999999999
 51
180
  0
LINE
  8
0
  6
CONTINUOUS
 62
0
 10
1.76
 20
-0.06
 30
0.0
 11
3.728503937
 21
-0.06
 31
0.0
  0
LINE
  8
0
  6
CONTINUOUS
 62
0
 10
1.76
 20
1.514803149
 30
0.0
 11
3.728503937
 21
1.514803149
 31
0.0
  0
LINE
  8
0
  6
CONTINUOUS
 62
0
 10
1.76
 20
1.908503937
 30
0.0
 11
3.728503937
 21
1.908503937
 31
0.0
  0
LINE
  8
0
  6
CONTINUOUS
 62
0
 10
1.76
 20
-0.06
 30
0.0
 11
1.76
 21
1.908503937
 31
0.0
  0
LINE
  8
0
  6
CONTINUOUS
 62
0
 10
3.728503937
 20
-0.06
 30
0.0
 11
3.728503937
 21
1.908503937
 31
0.0
  0
LINE
  8
0
  6
CONTINUOUS
 62
0
 10
2.32
 20
2.67
 30
0.0
 11
2.552283465
 21
2.67
 31
0.0
  0
LINE
  8
0
  6
CONTINUOUS
 62
0
 10
2.32
 20
2.788110236
 30
0.0
 11
2.552283465
 21
2.788110236
 31
0.0
  0
LINE
  8
0
  6
CONTINUOUS
 62
0
 10
2.32
 20
2.67
 30
0.0
 11
2.32
 21
2.788110236
 31
0.0
  0
LINE
  8
0
  6
CONTINUOUS
 62
0
 10
2.552283465
 20
2.67
 30
0.0
 11
2.552283465
 21
2.788110236
 31
0.0
  0
ENDSEC
  0
EOF
