  0
SECTION
  2
HEADER
  9
$ACADVER
  1
AC1003
  9
$EXTMIN
 10
-0.787401574500001
 20
0.7874015745
  9
$EXTMAX
 10
0.787401574500001
 20
-0.7874015745
  9
$INSUNITS
 70
1
  9
$INSBASE
 10
0
 20
5.55111512312578E-17
999
Created with OMAX LAYOUT for Windows. (www.omax.com) 1/22/2024
  0
ENDSEC
  0
SECTION
  2
TABLES
  0
TABLE
  2
LAYER
 70
    10
  0
LAYER
  2
0
 70
     0
 62
     7
  6
CONTINUOUS
  0
LAYER
  2
1
 70
     0
 62
     7
  6
CONTINUOUS
  0
LAYER
  2
2
 70
     0
 62
     7
  6
CONTINUOUS
  0
LAYER
  2
3
 70
     0
 62
     7
  6
CONTINUOUS
  0
LAYER
  2
4
 70
     0
 62
     7
  6
CONTINUOUS
  0
LAYER
  2
5
 70
     0
 62
     7
  6
CONTINUOUS
  0
LAYER
  2
6
 70
     0
 62
     7
  6
CONTINUOUS
  0
LAYER
  2
7
 70
     0
 62
     7
  6
CONTINUOUS
  0
LAYER
  2
8
 70
     0
 62
     7
  6
CONTINUOUS
  0
LAYER
  2
9
 70
     0
 62
     7
  6
CONTINUOUS
  0
LAYER
  2
10
 70
     0
 62
     7
  6
CONTINUOUS
  0
LAYER
  2
11
 70
     0
 62
     7
  6
CONTINUOUS
  0
LAYER
  2
12
 70
     0
 62
     7
  6
CONTINUOUS
  0
LAYER
  2
13
 70
     0
 62
     7
  6
CONTINUOUS
  0
LAYER
  2
14
 70
     0
 62
     7
  6
CONTINUOUS
  0
LAYER
  2
15
 70
     0
 62
     7
  6
CONTINUOUS
  0
LAYER
  2
16
 70
     0
 62
     7
  6
CONTINUOUS
  0
LAYER
  2
17
 70
     0
 62
     7
  6
CONTINUOUS
  0
LAYER
  2
18
 70
     0
 62
     7
  6
CONTINUOUS
  0
LAYER
  2
19
 70
     0
 62
     7
  6
CONTINUOUS
  0
LAYER
  2
20
 70
     0
 62
     7
  6
CONTINUOUS
  0
LAYER
  2
21
 70
     0
 62
     7
  6
CONTINUOUS
  0
LAYER
  2
22
 70
     0
 62
     7
  6
CONTINUOUS
  0
LAYER
  2
23
 70
     0
 62
     7
  6
CONTINUOUS
  0
LAYER
  2
24
 70
     0
 62
     7
  6
CONTINUOUS
  0
LAYER
  2
25
 70
     0
 62
     7
  6
CONTINUOUS
  0
LAYER
  2
26
 70
     0
 62
     7
  6
CONTINUOUS
  0
LAYER
  2
27
 70
     0
 62
     7
  6
CONTINUOUS
  0
LAYER
  2
28
 70
     0
 62
     7
  6
CONTINUOUS
  0
LAYER
  2
29
 70
     0
 62
     7
  6
CONTINUOUS
  0
LAYER
  2
30
 70
     0
 62
     7
  6
CONTINUOUS
  0
LAYER
  2
31
 70
     0
 62
     7
  6
CONTINUOUS
  0
ENDTAB
  0
ENDSEC
  0
SECTION
  2
ENTITIES
  0
ARC
  8
0
  6
CONTINUOUS
 62
0
 10
-0.5905511805
 20
0.590551180500003
 30
0.0
 40
0.118110236
 50
359.999999999998
 51
180.000000000002
  0
ARC
  8
0
  6
CONTINUOUS
 62
0
 10
-0.5905511805
 20
0.590551180499997
 30
0.0
 40
0.118110236
 50
180.000000000001
 51
1.95922168378153E-12
  0
ARC
  8
0
  6
CONTINUOUS
 62
0
 10
0.5905511805
 20
0.590551180500001
 30
0.0
 40
0.118110236
 50
359.999999999997
 51
180.000000000001
  0
ARC
  8
0
  6
CONTINUOUS
 62
0
 10
0.5905511805
 20
0.590551180499998
 30
0.0
 40
0.118110236
 50
179.999999999998
 51
359.999999999998
  0
ARC
  8
0
  6
CONTINUOUS
 62
0
 10
0.5905511805
 20
-0.590551180500003
 30
0.0
 40
0.118110236
 50
179.999999999998
 51
1.79383284034542E-12
  0
ARC
  8
0
  6
CONTINUOUS
 62
0
 10
0.5905511805
 20
-0.590551180499998
 30
0.0
 40
0.118110236
 50
1.76838840289372E-12
 51
180.000000000002
  0
ARC
  8
0
  6
CONTINUOUS
 62
0
 10
-0.5905511805
 20
-0.590551180500002
 30
0.0
 40
0.118110236
 50
179.999999999998
 51
1.17044412277857E-12
  0
ARC
  8
0
  6
CONTINUOUS
 62
0
 10
-0.5905511805
 20
-0.590551180499999
 30
0.0
 40
0.118110236
 50
359.999999999997
 51
179.999999999998
  0
ARC
  8
1
  6
CONTINUOUS
 62
1
 10
-0.590551180499998
 20
0.590551180500002
 30
0.0
 40
0.196850394000001
 50
250.528779279753
 51
360
  0
ARC
  8
1
  6
CONTINUOUS
 62
1
 10
-0.590551180499999
 20
0.590551180500004
 30
0.0
 40
0.196850394
 50
6.83819256514656E-14
 51
19.4712207202452
  0
ARC
  8
1
  6
CONTINUOUS
 62
1
 10
-0.367840382866658
 20
0.6692913385
 30
0.0
 40
0.039370079
 50
89.9999999999995
 51
199.471220720245
  0
ARC
  8
1
  6
CONTINUOUS
 62
1
 10
-0.669291338499999
 20
0.367840382866661
 30
0.0
 40
0.039370079
 50
70.5287792797542
 51
180
  0
LINE
  8
1
  6
CONTINUOUS
 62
1
 10
-0.708661417499999
 20
0.367840382866661
 30
0.0
 11
-0.708661417499999
 21
-0.367840382866661
 31
0.0
  0
LINE
  8
1
  6
CONTINUOUS
 62
1
 10
-0.367840382866658
 20
0.7086614175
 30
0.0
 11
0.367840382866658
 21
0.7086614175
 31
0.0
  0
ARC
  8
1
  6
CONTINUOUS
 62
1
 10
0.590551180500001
 20
0.590551180500003
 30
0.0
 40
0.196850394000001
 50
180
 51
289.471220720246
  0
ARC
  8
1
  6
CONTINUOUS
 62
1
 10
0.590551180499999
 20
0.590551180500001
 30
0.0
 40
0.196850394
 50
160.528779279754
 51
180
  0
ARC
  8
1
  6
CONTINUOUS
 62
1
 10
0.367840382866658
 20
0.6692913385
 30
0.0
 40
0.039370079
 50
340.528779279754
 51
90.0000000000001
  0
ARC
  8
1
  6
CONTINUOUS
 62
1
 10
0.669291338499999
 20
0.367840382866661
 30
0.0
 40
0.039370079
 50
359.999999999999
 51
109.471220720245
  0
LINE
  8
1
  6
CONTINUOUS
 62
1
 10
0.708661417499999
 20
0.367840382866661
 30
0.0
 11
0.708661417499999
 21
-0.367840382866661
 31
0.0
  0
ARC
  8
1
  6
CONTINUOUS
 62
1
 10
0.590551180499999
 20
-0.590551180500003
 30
0.0
 40
0.196850394000001
 50
70.5287792797538
 51
180
  0
ARC
  8
1
  6
CONTINUOUS
 62
1
 10
0.590551180499999
 20
-0.590551180500005
 30
0.0
 40
0.196850394
 50
180
 51
199.471220720245
  0
ARC
  8
1
  6
CONTINUOUS
 62
1
 10
0.367840382866658
 20
-0.6692913385
 30
0.0
 40
0.039370079
 50
269.999999999999
 51
19.4712207202448
  0
ARC
  8
1
  6
CONTINUOUS
 62
1
 10
0.669291338499999
 20
-0.367840382866661
 30
0.0
 40
0.039370079
 50
250.528779279754
 51
359.999999999999
  0
LINE
  8
1
  6
CONTINUOUS
 62
1
 10
0.367840382866658
 20
-0.7086614175
 30
0.0
 11
-0.367840382866658
 21
-0.7086614175
 31
0.0
  0
ARC
  8
1
  6
CONTINUOUS
 62
1
 10
-0.590551180500002
 20
-0.590551180500004
 30
0.0
 40
0.196850394000001
 50
359.999999999999
 51
109.471220720246
  0
ARC
  8
1
  6
CONTINUOUS
 62
1
 10
-0.590551180499999
 20
-0.590551180500002
 30
0.0
 40
0.196850394
 50
340.528779279754
 51
359.999999999999
  0
ARC
  8
1
  6
CONTINUOUS
 62
1
 10
-0.367840382866658
 20
-0.6692913385
 30
0.0
 40
0.039370079
 50
160.528779279755
 51
270
  0
ARC
  8
1
  6
CONTINUOUS
 62
1
 10
-0.669291338499999
 20
-0.367840382866661
 30
0.0
 40
0.039370079
 50
180
 51
289.471220720245
  0
LINE
  8
2
  6
CONTINUOUS
 62
2
 10
-0.471989814168236
 20
0.558782758137873
 30
0.0
 11
-0.558782758137874
 21
0.471989814168235
 31
0.0
  0
LINE
  8
2
  6
CONTINUOUS
 62
2
 10
-0.558782758137874
 20
0.471989814168235
 30
0.0
 11
-0.677344124469638
 21
0.503758236530362
 31
0.0
  0
LINE
  8
2
  6
CONTINUOUS
 62
2
 10
-0.677344124469638
 20
0.503758236530362
 30
0.0
 11
-0.709112546831765
 21
0.622319602862127
 31
0.0
  0
LINE
  8
2
  6
CONTINUOUS
 62
2
 10
-0.709112546831765
 20
0.622319602862127
 30
0.0
 11
-0.622319602862127
 21
0.709112546831764
 31
0.0
  0
LINE
  8
2
  6
CONTINUOUS
 62
2
 10
-0.622319602862127
 20
0.709112546831764
 30
0.0
 11
-0.503758236530363
 21
0.677344124469637
 31
0.0
  0
LINE
  8
2
  6
CONTINUOUS
 62
2
 10
-0.503758236530363
 20
0.677344124469637
 30
0.0
 11
-0.471989814168236
 21
0.558782758137873
 31
0.0
  0
LINE
  8
2
  6
CONTINUOUS
 62
2
 10
0.471989814168236
 20
0.558782758137873
 30
0.0
 11
0.558782758137874
 21
0.471989814168235
 31
0.0
  0
LINE
  8
2
  6
CONTINUOUS
 62
2
 10
0.558782758137874
 20
0.471989814168235
 30
0.0
 11
0.677344124469638
 21
0.503758236530362
 31
0.0
  0
LINE
  8
2
  6
CONTINUOUS
 62
2
 10
0.677344124469638
 20
0.503758236530362
 30
0.0
 11
0.709112546831765
 21
0.622319602862127
 31
0.0
  0
LINE
  8
2
  6
CONTINUOUS
 62
2
 10
0.709112546831765
 20
0.622319602862127
 30
0.0
 11
0.622319602862127
 21
0.709112546831764
 31
0.0
  0
LINE
  8
2
  6
CONTINUOUS
 62
2
 10
0.622319602862127
 20
0.709112546831764
 30
0.0
 11
0.503758236530363
 21
0.677344124469637
 31
0.0
  0
LINE
  8
2
  6
CONTINUOUS
 62
2
 10
0.503758236530363
 20
0.677344124469637
 30
0.0
 11
0.471989814168236
 21
0.558782758137873
 31
0.0
  0
LINE
  8
2
  6
CONTINUOUS
 62
2
 10
0.471989814168236
 20
-0.558782758137873
 30
0.0
 11
0.558782758137874
 21
-0.471989814168235
 31
0.0
  0
LINE
  8
2
  6
CONTINUOUS
 62
2
 10
0.558782758137874
 20
-0.471989814168235
 30
0.0
 11
0.677344124469638
 21
-0.503758236530362
 31
0.0
  0
LINE
  8
2
  6
CONTINUOUS
 62
2
 10
0.677344124469638
 20
-0.503758236530362
 30
0.0
 11
0.709112546831765
 21
-0.622319602862127
 31
0.0
  0
LINE
  8
2
  6
CONTINUOUS
 62
2
 10
0.709112546831765
 20
-0.622319602862127
 30
0.0
 11
0.622319602862127
 21
-0.709112546831764
 31
0.0
  0
LINE
  8
2
  6
CONTINUOUS
 62
2
 10
0.622319602862127
 20
-0.709112546831764
 30
0.0
 11
0.503758236530363
 21
-0.677344124469637
 31
0.0
  0
LINE
  8
2
  6
CONTINUOUS
 62
2
 10
0.503758236530363
 20
-0.677344124469637
 30
0.0
 11
0.471989814168236
 21
-0.558782758137873
 31
0.0
  0
LINE
  8
2
  6
CONTINUOUS
 62
2
 10
-0.471989814168236
 20
-0.558782758137873
 30
0.0
 11
-0.558782758137874
 21
-0.471989814168235
 31
0.0
  0
LINE
  8
2
  6
CONTINUOUS
 62
2
 10
-0.558782758137874
 20
-0.471989814168235
 30
0.0
 11
-0.677344124469638
 21
-0.503758236530362
 31
0.0
  0
LINE
  8
2
  6
CONTINUOUS
 62
2
 10
-0.677344124469638
 20
-0.503758236530362
 30
0.0
 11
-0.709112546831765
 21
-0.622319602862127
 31
0.0
  0
LINE
  8
2
  6
CONTINUOUS
 62
2
 10
-0.709112546831765
 20
-0.622319602862127
 30
0.0
 11
-0.622319602862127
 21
-0.709112546831764
 31
0.0
  0
LINE
  8
2
  6
CONTINUOUS
 62
2
 10
-0.622319602862127
 20
-0.709112546831764
 30
0.0
 11
-0.503758236530363
 21
-0.677344124469637
 31
0.0
  0
LINE
  8
2
  6
CONTINUOUS
 62
2
 10
-0.503758236530363
 20
-0.677344124469637
 30
0.0
 11
-0.471989814168236
 21
-0.558782758137873
 31
0.0
  0
ARC
  8
3
  6
CONTINUOUS
 62
3
 10
-0.5905511805
 20
0.590551180500004
 30
0.0
 40
0.0669291340000001
 50
359.999999999997
 51
180.000000000004
  0
ARC
  8
3
  6
CONTINUOUS
 62
3
 10
-0.5905511805
 20
0.590551180499996
 30
0.0
 40
0.0669291340000001
 50
180.000000000002
 51
3.05333249420498E-12
  0
ARC
  8
3
  6
CONTINUOUS
 62
3
 10
0.5905511805
 20
0.590551180500002
 30
0.0
 40
0.0669291340000001
 50
359.999999999995
 51
180.000000000002
  0
ARC
  8
3
  6
CONTINUOUS
 62
3
 10
0.5905511805
 20
0.590551180499997
 30
0.0
 40
0.0669291340000001
 50
179.999999999996
 51
359.999999999997
  0
ARC
  8
3
  6
CONTINUOUS
 62
3
 10
0.5905511805
 20
-0.590551180500004
 30
0.0
 40
0.0669291340000001
 50
179.999999999997
 51
3.79122118030451E-12
  0
ARC
  8
3
  6
CONTINUOUS
 62
3
 10
0.5905511805
 20
-0.590551180499997
 30
0.0
 40
0.0669291340000001
 50
2.81161033841375E-12
 51
180.000000000003
  0
ARC
  8
3
  6
CONTINUOUS
 62
3
 10
-0.5905511805
 20
-0.590551180500003
 30
0.0
 40
0.0669291340000001
 50
179.999999999996
 51
2.23911049575032E-12
  0
ARC
  8
3
  6
CONTINUOUS
 62
3
 10
-0.5905511805
 20
-0.590551180499998
 30
0.0
 40
0.0669291340000001
 50
359.999999999996
 51
179.999999999997
  0
LINE
  8
3
  6
CONTINUOUS
 62
3
 10
-0.704724409499999
 20
0.362340522487842
 30
0.0
 11
-0.704724409499999
 21
-0.362340522487842
 31
0.0
  0
ARC
  8
3
  6
CONTINUOUS
 62
3
 10
-0.590551180499998
 20
0.590551180500003
 30
0.0
 40
0.200787402000001
 50
251.851831904598
 51
18.1481680954009
  0
LINE
  8
3
  6
CONTINUOUS
 62
3
 10
-0.362340522487838
 20
0.7047244095
 30
0.0
 11
0.362340522487839
 21
0.7047244095
 31
0.0
  0
ARC
  8
3
  6
CONTINUOUS
 62
3
 10
0.590551180500001
 20
0.590551180500003
 30
0.0
 40
0.200787402000001
 50
161.851831904599
 51
288.148168095401
  0
LINE
  8
3
  6
CONTINUOUS
 62
3
 10
0.704724409499999
 20
0.362340522487842
 30
0.0
 11
0.704724409499999
 21
-0.362340522487842
 31
0.0
  0
ARC
  8
3
  6
CONTINUOUS
 62
3
 10
0.590551180499999
 20
-0.590551180500003
 30
0.0
 40
0.200787402000001
 50
71.8518319045982
 51
198.148168095401
  0
LINE
  8
3
  6
CONTINUOUS
 62
3
 10
0.362340522487839
 20
-0.7047244095
 30
0.0
 11
-0.362340522487839
 21
-0.7047244095
 31
0.0
  0
ARC
  8
3
  6
CONTINUOUS
 62
3
 10
-0.590551180500002
 20
-0.590551180500004
 30
0.0
 40
0.200787402000001
 50
341.851831904598
 51
108.148168095401
  0
ARC
  8
3
  6
CONTINUOUS
 62
3
 10
-0.665354330499999
 20
-0.362340522487842
 30
0.0
 40
0.039370079
 50
180
 51
288.148168095401
  0
ARC
  8
3
  6
CONTINUOUS
 62
3
 10
-0.665354330499999
 20
0.362340522487842
 30
0.0
 40
0.039370079
 50
71.8518319045982
 51
180
  0
ARC
  8
3
  6
CONTINUOUS
 62
3
 10
-0.362340522487838
 20
0.6653543305
 30
0.0
 40
0.039370079
 50
89.9999999999998
 51
198.148168095401
  0
ARC
  8
3
  6
CONTINUOUS
 62
3
 10
0.362340522487839
 20
0.6653543305
 30
0.0
 40
0.039370079
 50
341.851831904598
 51
89.9999999999998
  0
ARC
  8
3
  6
CONTINUOUS
 62
3
 10
0.665354330499999
 20
0.362340522487842
 30
0.0
 40
0.039370079
 50
359.999999999999
 51
108.148168095401
  0
ARC
  8
3
  6
CONTINUOUS
 62
3
 10
0.665354330499999
 20
-0.362340522487842
 30
0.0
 40
0.039370079
 50
251.851831904598
 51
359.999999999999
  0
ARC
  8
3
  6
CONTINUOUS
 62
3
 10
-0.362340522487839
 20
-0.6653543305
 30
0.0
 40
0.039370079
 50
161.851831904598
 51
270
  0
ARC
  8
3
  6
CONTINUOUS
 62
3
 10
0.362340522487838
 20
-0.6653543305
 30
0.0
 40
0.039370079
 50
270
 51
18.1481680954012
  0
ARC
  8
4
  6
CONTINUOUS
 62
4
 10
-0.590551180500003
 20
0.590551180499999
 30
0.0
 40
0.196850393999999
 50
89.999999999999
 51
179.999999999999
  0
LINE
  8
4
  6
CONTINUOUS
 62
4
 10
-0.787401574500001
 20
0.590551180500003
 30
0.0
 11
-0.787401574500001
 21
-0.590551180500003
 31
0.0
  0
ARC
  8
4
  6
CONTINUOUS
 62
4
 10
0.5905511805
 20
0.590551180499999
 30
0.0
 40
0.196850393999999
 50
8.1422199845466E-13
 51
90.0000000000006
  0
LINE
  8
4
  6
CONTINUOUS
 62
4
 10
0.5905511805
 20
0.7874015745
 30
0.0
 11
-0.5905511805
 21
0.7874015745
 31
0.0
  0
ARC
  8
4
  6
CONTINUOUS
 62
4
 10
0.590551180500004
 20
-0.590551180499999
 30
0.0
 40
0.196850393999999
 50
269.999999999999
 51
359.999999999998
  0
LINE
  8
4
  6
CONTINUOUS
 62
4
 10
0.787401574500001
 20
-0.590551180500003
 30
0.0
 11
0.787401574500001
 21
0.590551180500003
 31
0.0
  0
LINE
  8
4
  6
CONTINUOUS
 62
4
 10
0.5905511805
 20
-0.7874015745
 30
0.0
 11
-0.5905511805
 21
-0.7874015745
 31
0.0
  0
ARC
  8
4
  6
CONTINUOUS
 62
4
 10
-0.590551180500001
 20
-0.590551180499999
 30
0.0
 40
0.196850393999999
 50
180.000000000001
 51
270.000000000001
  0
ARC
  8
5
  6
CONTINUOUS
 62
5
 10
-0.5905511805
 20
0.590551180500003
 30
0.0
 40
0.049212598
 50
359.999999999999
 51
180
  0
ARC
  8
5
  6
CONTINUOUS
 62
5
 10
-0.5905511805
 20
0.590551180500002
 30
0.0
 40
0.049212598
 50
179.999999999999
 51
359.999999999999
  0
ARC
  8
5
  6
CONTINUOUS
 62
5
 10
0.5905511805
 20
0.590551180500002
 30
0.0
 40
0.049212598
 50
359.999999999999
 51
180
  0
ARC
  8
5
  6
CONTINUOUS
 62
5
 10
0.5905511805
 20
0.590551180500003
 30
0.0
 40
0.049212598
 50
180
 51
1.52666624710249E-13
  0
ARC
  8
5
  6
CONTINUOUS
 62
5
 10
0.5905511805
 20
-0.590551180500003
 30
0.0
 40
0.049212598
 50
179.999999999999
 51
359.999999999999
  0
ARC
  8
5
  6
CONTINUOUS
 62
5
 10
0.5905511805
 20
-0.590551180500002
 30
0.0
 40
0.049212598
 50
359.999999999999
 51
180
  0
ARC
  8
5
  6
CONTINUOUS
 62
5
 10
-0.5905511805
 20
-0.590551180500003
 30
0.0
 40
0.049212598
 50
180
 51
1.52666624710249E-13
  0
ARC
  8
5
  6
CONTINUOUS
 62
5
 10
-0.5905511805
 20
-0.590551180500003
 30
0.0
 40
0.049212598
 50
359.999999999999
 51
180
  0
ENDSEC
  0
EOF
