  0
SECTION
  2
HEADER
  9
$ACADVER
  1
AC1003
  9
$EXTMIN
 10
-0.984251968500001
 20
0.9842519685
  9
$EXTMAX
 10
0.984251968500001
 20
-0.9842519685
  9
$INSUNITS
 70
1
  9
$INSBASE
 10
0
 20
0
999
Created with OMAX LAYOUT for Windows. (www.omax.com) 1/22/2024
  0
ENDSEC
  0
SECTION
  2
TABLES
  0
TABLE
  2
LAYER
 70
    10
  0
LAYER
  2
0
 70
     0
 62
     7
  6
CONTINUOUS
  0
LAYER
  2
1
 70
     0
 62
     7
  6
CONTINUOUS
  0
LAYER
  2
2
 70
     0
 62
     7
  6
CONTINUOUS
  0
LAYER
  2
3
 70
     0
 62
     7
  6
CONTINUOUS
  0
LAYER
  2
4
 70
     0
 62
     7
  6
CONTINUOUS
  0
LAYER
  2
5
 70
     0
 62
     7
  6
CONTINUOUS
  0
LAYER
  2
6
 70
     0
 62
     7
  6
CONTINUOUS
  0
LAYER
  2
7
 70
     0
 62
     7
  6
CONTINUOUS
  0
LAYER
  2
8
 70
     0
 62
     7
  6
CONTINUOUS
  0
LAYER
  2
9
 70
     0
 62
     7
  6
CONTINUOUS
  0
LAYER
  2
10
 70
     0
 62
     7
  6
CONTINUOUS
  0
LAYER
  2
11
 70
     0
 62
     7
  6
CONTINUOUS
  0
LAYER
  2
12
 70
     0
 62
     7
  6
CONTINUOUS
  0
LAYER
  2
13
 70
     0
 62
     7
  6
CONTINUOUS
  0
LAYER
  2
14
 70
     0
 62
     7
  6
CONTINUOUS
  0
LAYER
  2
15
 70
     0
 62
     7
  6
CONTINUOUS
  0
LAYER
  2
16
 70
     0
 62
     7
  6
CONTINUOUS
  0
LAYER
  2
17
 70
     0
 62
     7
  6
CONTINUOUS
  0
LAYER
  2
18
 70
     0
 62
     7
  6
CONTINUOUS
  0
LAYER
  2
19
 70
     0
 62
     7
  6
CONTINUOUS
  0
LAYER
  2
20
 70
     0
 62
     7
  6
CONTINUOUS
  0
LAYER
  2
21
 70
     0
 62
     7
  6
CONTINUOUS
  0
LAYER
  2
22
 70
     0
 62
     7
  6
CONTINUOUS
  0
LAYER
  2
23
 70
     0
 62
     7
  6
CONTINUOUS
  0
LAYER
  2
24
 70
     0
 62
     7
  6
CONTINUOUS
  0
LAYER
  2
25
 70
     0
 62
     7
  6
CONTINUOUS
  0
LAYER
  2
26
 70
     0
 62
     7
  6
CONTINUOUS
  0
LAYER
  2
27
 70
     0
 62
     7
  6
CONTINUOUS
  0
LAYER
  2
28
 70
     0
 62
     7
  6
CONTINUOUS
  0
LAYER
  2
29
 70
     0
 62
     7
  6
CONTINUOUS
  0
LAYER
  2
30
 70
     0
 62
     7
  6
CONTINUOUS
  0
LAYER
  2
31
 70
     0
 62
     7
  6
CONTINUOUS
  0
ENDTAB
  0
ENDSEC
  0
SECTION
  2
ENTITIES
  0
LINE
  8
0
  6
CONTINUOUS
 62
0
 10
-0.787401574500001
 20
-0.9842519685
 30
0.0
 11
0.787401574499999
 21
-0.9842519685
 31
0.0
  0
LINE
  8
0
  6
CONTINUOUS
 62
0
 10
-0.984251968500001
 20
-0.787401574500001
 30
0.0
 11
-0.984251968499999
 21
0.787401574499999
 31
0.0
  0
LINE
  8
0
  6
CONTINUOUS
 62
0
 10
0.984251968500001
 20
0.787401574500001
 30
0.0
 11
0.984251968499999
 21
-0.787401574499999
 31
0.0
  0
LINE
  8
0
  6
CONTINUOUS
 62
0
 10
-0.787401574499999
 20
0.9842519685
 30
0.0
 11
0.787401574500001
 21
0.9842519685
 31
0.0
  0
ARC
  8
0
  6
CONTINUOUS
 62
0
 10
0.8070866135
 20
0.807086613500002
 30
0.0
 40
0.0669291340000001
 50
359.999999999998
 51
180
  0
ARC
  8
0
  6
CONTINUOUS
 62
0
 10
0.8070866135
 20
0.807086613499998
 30
0.0
 40
0.0669291340000001
 50
179.999999999998
 51
359.999999999998
  0
ARC
  8
0
  6
CONTINUOUS
 62
0
 10
-0.8070866135
 20
0.807086613500001
 30
0.0
 40
0.0669291340000001
 50
359.999999999999
 51
180.000000000001
  0
ARC
  8
0
  6
CONTINUOUS
 62
0
 10
-0.8070866135
 20
0.807086613499999
 30
0.0
 40
0.0669291340000001
 50
180.000000000001
 51
1.17128895761584E-12
  0
ARC
  8
0
  6
CONTINUOUS
 62
0
 10
0.8070866135
 20
-0.807086613500001
 30
0.0
 40
0.0669291340000001
 50
180
 51
1.22217783251925E-12
  0
ARC
  8
0
  6
CONTINUOUS
 62
0
 10
0.8070866135
 20
-0.807086613499999
 30
0.0
 40
0.0669291340000001
 50
8.6595570819534E-13
 51
180.000000000001
  0
ARC
  8
0
  6
CONTINUOUS
 62
0
 10
-0.8070866135
 20
-0.807086613500002
 30
0.0
 40
0.0669291340000001
 50
179.999999999998
 51
359.999999999999
  0
ARC
  8
0
  6
CONTINUOUS
 62
0
 10
-0.8070866135
 20
-0.807086613499998
 30
0.0
 40
0.0669291340000001
 50
359.999999999998
 51
179.999999999999
  0
LINE
  8
0
  6
CONTINUOUS
 62
0
 10
0.9055118115
 20
0.479013122640312
 30
0.0
 11
0.9055118115
 21
-0.479013122640312
 31
0.0
  0
LINE
  8
0
  6
CONTINUOUS
 62
0
 10
0.479013122640313
 20
0.9055118115
 30
0.0
 11
-0.479013122640313
 21
0.9055118115
 31
0.0
  0
LINE
  8
0
  6
CONTINUOUS
 62
0
 10
-0.9055118115
 20
0.479013122640312
 30
0.0
 11
-0.9055118115
 21
-0.479013122640312
 31
0.0
  0
LINE
  8
0
  6
CONTINUOUS
 62
0
 10
0.479013122640313
 20
-0.9055118115
 30
0.0
 11
-0.479013122640313
 21
-0.9055118115
 31
0.0
  0
ARC
  8
0
  6
CONTINUOUS
 62
0
 10
-0.8070866135
 20
-0.807086613499999
 30
0.0
 40
0.145669291
 50
16.6997487337226
 51
73.3002512662768
  0
ARC
  8
0
  6
CONTINUOUS
 62
0
 10
-0.8070866135
 20
0.8070866135
 30
0.0
 40
0.145669291
 50
286.699748733723
 51
343.300251266277
  0
ARC
  8
0
  6
CONTINUOUS
 62
0
 10
0.8070866135
 20
0.807086613499998
 30
0.0
 40
0.145669291
 50
196.699748733722
 51
253.300251266276
  0
ARC
  8
0
  6
CONTINUOUS
 62
0
 10
0.8070866135
 20
-0.807086613500001
 30
0.0
 40
0.145669291
 50
106.699748733723
 51
163.300251266277
  0
ARC
  8
0
  6
CONTINUOUS
 62
0
 10
-0.479013122640312
 20
-0.708661417500002
 30
0.0
 40
0.196850394
 50
196.699748733722
 51
269.999999999999
  0
ARC
  8
0
  6
CONTINUOUS
 62
0
 10
-0.708661417499999
 20
-0.479013122640313
 30
0.0
 40
0.196850394
 50
180
 51
253.300251266277
  0
ARC
  8
0
  6
CONTINUOUS
 62
0
 10
-0.7086614175
 20
0.479013122640312
 30
0.0
 40
0.196850394
 50
106.699748733723
 51
180
  0
ARC
  8
0
  6
CONTINUOUS
 62
0
 10
-0.479013122640314
 20
0.708661417499998
 30
0.0
 40
0.196850394
 50
89.9999999999998
 51
163.300251266277
  0
ARC
  8
0
  6
CONTINUOUS
 62
0
 10
0.479013122640313
 20
0.708661417500001
 30
0.0
 40
0.196850394
 50
16.6997487337226
 51
89.9999999999998
  0
ARC
  8
0
  6
CONTINUOUS
 62
0
 10
0.708661417499998
 20
0.479013122640313
 30
0.0
 40
0.196850394
 50
359.999999999999
 51
73.3002512662769
  0
ARC
  8
0
  6
CONTINUOUS
 62
0
 10
0.708661417500002
 20
-0.479013122640312
 30
0.0
 40
0.196850394
 50
286.699748733722
 51
359.999999999999
  0
ARC
  8
0
  6
CONTINUOUS
 62
0
 10
0.479013122640313
 20
-0.708661417499999
 30
0.0
 40
0.196850394
 50
270
 51
343.300251266277
  0
ARC
  8
0
  6
CONTINUOUS
 62
0
 10
0.787401574499999
 20
-0.787401574499999
 30
0.0
 40
0.196850394
 50
270
 51
3.57066959161178E-13
  0
ARC
  8
0
  6
CONTINUOUS
 62
0
 10
0.787401574499999
 20
0.7874015745
 30
0.0
 40
0.196850394
 50
8.44834837263747E-16
 51
89.9999999999998
  0
ARC
  8
0
  6
CONTINUOUS
 62
0
 10
-0.787401574499999
 20
0.787401574499999
 30
0.0
 40
0.196850394
 50
89.9999999999998
 51
180
  0
ARC
  8
0
  6
CONTINUOUS
 62
0
 10
-0.7874015745
 20
-0.7874015745
 30
0.0
 40
0.196850394
 50
180
 51
270
  0
ENDSEC
  0
EOF
