  0
SECTION
  2
HEADER
  9
$ACADVER
  1
AC1003
  9
$EXTMIN
 10
-1.594488189
 20
1.594488189
  9
$EXTMAX
 10
1.594488189
 20
-1.594488189
  9
$INSUNITS
 70
1
  9
$INSBASE
 10
0
 20
0
999
Created with OMAX LAYOUT for Windows. (www.omax.com) 2/2/2024
  0
ENDSEC
  0
SECTION
  2
TABLES
  0
TABLE
  2
LAYER
 70
    10
  0
LAYER
  2
0
 70
     0
 62
     7
  6
CONTINUOUS
  0
LAYER
  2
1
 70
     0
 62
     7
  6
CONTINUOUS
  0
LAYER
  2
2
 70
     0
 62
     7
  6
CONTINUOUS
  0
LAYER
  2
3
 70
     0
 62
     7
  6
CONTINUOUS
  0
LAYER
  2
4
 70
     0
 62
     7
  6
CONTINUOUS
  0
LAYER
  2
5
 70
     0
 62
     7
  6
CONTINUOUS
  0
LAYER
  2
6
 70
     0
 62
     7
  6
CONTINUOUS
  0
LAYER
  2
7
 70
     0
 62
     7
  6
CONTINUOUS
  0
LAYER
  2
8
 70
     0
 62
     7
  6
CONTINUOUS
  0
LAYER
  2
9
 70
     0
 62
     7
  6
CONTINUOUS
  0
LAYER
  2
10
 70
     0
 62
     7
  6
CONTINUOUS
  0
LAYER
  2
11
 70
     0
 62
     7
  6
CONTINUOUS
  0
LAYER
  2
12
 70
     0
 62
     7
  6
CONTINUOUS
  0
LAYER
  2
13
 70
     0
 62
     7
  6
CONTINUOUS
  0
LAYER
  2
14
 70
     0
 62
     7
  6
CONTINUOUS
  0
LAYER
  2
15
 70
     0
 62
     7
  6
CONTINUOUS
  0
LAYER
  2
16
 70
     0
 62
     7
  6
CONTINUOUS
  0
LAYER
  2
17
 70
     0
 62
     7
  6
CONTINUOUS
  0
LAYER
  2
18
 70
     0
 62
     7
  6
CONTINUOUS
  0
LAYER
  2
19
 70
     0
 62
     7
  6
CONTINUOUS
  0
LAYER
  2
20
 70
     0
 62
     7
  6
CONTINUOUS
  0
LAYER
  2
21
 70
     0
 62
     7
  6
CONTINUOUS
  0
LAYER
  2
22
 70
     0
 62
     7
  6
CONTINUOUS
  0
LAYER
  2
23
 70
     0
 62
     7
  6
CONTINUOUS
  0
LAYER
  2
24
 70
     0
 62
     7
  6
CONTINUOUS
  0
LAYER
  2
25
 70
     0
 62
     7
  6
CONTINUOUS
  0
LAYER
  2
26
 70
     0
 62
     7
  6
CONTINUOUS
  0
LAYER
  2
27
 70
     0
 62
     7
  6
CONTINUOUS
  0
LAYER
  2
28
 70
     0
 62
     7
  6
CONTINUOUS
  0
LAYER
  2
29
 70
     0
 62
     7
  6
CONTINUOUS
  0
LAYER
  2
30
 70
     0
 62
     7
  6
CONTINUOUS
  0
LAYER
  2
31
 70
     0
 62
     7
  6
CONTINUOUS
  0
ENDTAB
  0
ENDSEC
  0
SECTION
  2
ENTITIES
  0
LINE
  8
1
  6
CONTINUOUS
 62
1
 10
1.594488189
 20
1.594488189
 30
0.0
 11
1.594488189
 21
-1.594488189
 31
0.0
  0
LINE
  8
1
  6
CONTINUOUS
 62
1
 10
1.594488189
 20
1.594488189
 30
0.0
 11
-1.594488189
 21
1.594488189
 31
0.0
  0
LINE
  8
1
  6
CONTINUOUS
 62
1
 10
-1.594488189
 20
-1.594488189
 30
0.0
 11
-1.594488189
 21
1.594488189
 31
0.0
  0
LINE
  8
1
  6
CONTINUOUS
 62
1
 10
-1.594488189
 20
-1.594488189
 30
0.0
 11
1.594488189
 21
-1.594488189
 31
0.0
  0
LINE
  8
2
  6
CONTINUOUS
 62
2
 10
0.53149606406298
 20
-1.594488189
 30
0.0
 11
1.594488189
 21
-1.594488189
 31
0.0
  0
LINE
  8
2
  6
CONTINUOUS
 62
2
 10
1.594488189
 20
1.59448818581102
 30
0.0
 11
0.53149606406298
 21
1.59448818581102
 31
0.0
  0
LINE
  8
2
  6
CONTINUOUS
 62
2
 10
1.594488189
 20
-0.53149606406298
 30
0.0
 11
1.594488189
 21
-1.594488189
 31
0.0
  0
LINE
  8
2
  6
CONTINUOUS
 62
2
 10
-1.59448818581102
 20
-0.53149606406298
 30
0.0
 11
-1.59448818581102
 21
-1.594488189
 31
0.0
  0
LINE
  8
2
  6
CONTINUOUS
 62
2
 10
-1.59448818581102
 20
-0.53149606406298
 30
0.0
 11
-0.531496060874016
 21
-0.53149606406298
 31
0.0
  0
LINE
  8
2
  6
CONTINUOUS
 62
2
 10
-1.59448818581102
 20
0.531496060874016
 30
0.0
 11
-0.531496060874016
 21
0.531496060874016
 31
0.0
  0
LINE
  8
2
  6
CONTINUOUS
 62
2
 10
0.53149606406298
 20
-1.594488189
 30
0.0
 11
0.53149606406298
 21
-0.53149606406298
 31
0.0
  0
LINE
  8
2
  6
CONTINUOUS
 62
2
 10
-0.531496060874016
 20
-1.594488189
 30
0.0
 11
-0.531496060874016
 21
-0.53149606406298
 31
0.0
  0
LINE
  8
2
  6
CONTINUOUS
 62
2
 10
-0.531496060874016
 20
1.59448818581102
 30
0.0
 11
-1.59448818581102
 21
1.59448818581102
 31
0.0
  0
LINE
  8
2
  6
CONTINUOUS
 62
2
 10
-1.59448818581102
 20
0.531496060874016
 30
0.0
 11
-1.59448818581102
 21
1.59448818581102
 31
0.0
  0
LINE
  8
2
  6
CONTINUOUS
 62
2
 10
-0.531496060874016
 20
-1.594488189
 30
0.0
 11
-1.59448818581102
 21
-1.594488189
 31
0.0
  0
LINE
  8
2
  6
CONTINUOUS
 62
2
 10
1.594488189
 20
0.531496060874016
 30
0.0
 11
1.594488189
 21
1.59448818581102
 31
0.0
  0
LINE
  8
2
  6
CONTINUOUS
 62
2
 10
0.53149606406298
 20
0.531496060874016
 30
0.0
 11
0.53149606406298
 21
1.59448818581102
 31
0.0
  0
LINE
  8
2
  6
CONTINUOUS
 62
2
 10
0.53149606406298
 20
0.531496060874016
 30
0.0
 11
1.594488189
 21
0.531496060874016
 31
0.0
  0
LINE
  8
2
  6
CONTINUOUS
 62
2
 10
0.53149606406298
 20
-0.53149606406298
 30
0.0
 11
1.594488189
 21
-0.53149606406298
 31
0.0
  0
LINE
  8
2
  6
CONTINUOUS
 62
2
 10
-0.531496060874016
 20
0.531496060874016
 30
0.0
 11
-0.531496060874016
 21
1.59448818581103
 31
0.0
  0
LINE
  8
3
  6
CONTINUOUS
 62
3
 10
1.240157481042
 20
-1.594488189
 30
0.0
 11
1.594488189
 21
-1.594488189
 31
0.0
  0
LINE
  8
3
  6
CONTINUOUS
 62
3
 10
1.594488189
 20
-0.53149606512597
 30
0.0
 11
1.240157481042
 21
-0.53149606512597
 31
0.0
  0
LINE
  8
3
  6
CONTINUOUS
 62
3
 10
1.594488189
 20
-1.240157481042
 30
0.0
 11
1.594488189
 21
-1.594488189
 31
0.0
  0
LINE
  8
3
  6
CONTINUOUS
 62
3
 10
0.53149606512597
 20
-1.240157481042
 30
0.0
 11
0.53149606512597
 21
-1.594488189
 31
0.0
  0
LINE
  8
3
  6
CONTINUOUS
 62
3
 10
0.53149606512597
 20
-1.240157481042
 30
0.0
 11
0.885826773084
 21
-1.240157481042
 31
0.0
  0
LINE
  8
3
  6
CONTINUOUS
 62
3
 10
0.53149606512597
 20
-0.885826773084
 30
0.0
 11
0.885826773084
 21
-0.885826773084
 31
0.0
  0
LINE
  8
3
  6
CONTINUOUS
 62
3
 10
1.240157481042
 20
-1.594488189
 30
0.0
 11
1.240157481042
 21
-1.240157481042
 31
0.0
  0
LINE
  8
3
  6
CONTINUOUS
 62
3
 10
0.885826773084
 20
-1.594488189
 30
0.0
 11
0.885826773084
 21
-1.240157481042
 31
0.0
  0
LINE
  8
3
  6
CONTINUOUS
 62
3
 10
0.885826773084
 20
-0.53149606512597
 30
0.0
 11
0.53149606512597
 21
-0.53149606512597
 31
0.0
  0
LINE
  8
3
  6
CONTINUOUS
 62
3
 10
0.53149606512597
 20
-0.885826773084
 30
0.0
 11
0.53149606512597
 21
-0.53149606512597
 31
0.0
  0
LINE
  8
3
  6
CONTINUOUS
 62
3
 10
0.885826773084
 20
-1.594488189
 30
0.0
 11
0.53149606512597
 21
-1.594488189
 31
0.0
  0
LINE
  8
3
  6
CONTINUOUS
 62
3
 10
1.594488189
 20
-0.885826773084
 30
0.0
 11
1.594488189
 21
-0.53149606512597
 31
0.0
  0
LINE
  8
3
  6
CONTINUOUS
 62
3
 10
1.240157481042
 20
-0.885826773084
 30
0.0
 11
1.240157481042
 21
-0.53149606512597
 31
0.0
  0
LINE
  8
3
  6
CONTINUOUS
 62
3
 10
1.240157481042
 20
-0.885826773084
 30
0.0
 11
1.594488189
 21
-0.885826773084
 31
0.0
  0
LINE
  8
3
  6
CONTINUOUS
 62
3
 10
1.240157481042
 20
-1.240157481042
 30
0.0
 11
1.594488189
 21
-1.240157481042
 31
0.0
  0
LINE
  8
3
  6
CONTINUOUS
 62
3
 10
0.885826773084
 20
-0.885826773084
 30
0.0
 11
0.885826773084
 21
-0.53149606512597
 31
0.0
  0
LINE
  8
3
  6
CONTINUOUS
 62
3
 10
-1.24015747785302
 20
-1.594488189
 30
0.0
 11
-1.59448818581102
 21
-1.594488189
 31
0.0
  0
LINE
  8
3
  6
CONTINUOUS
 62
3
 10
-1.59448818581102
 20
-0.53149606512597
 30
0.0
 11
-1.24015747785302
 21
-0.53149606512597
 31
0.0
  0
LINE
  8
3
  6
CONTINUOUS
 62
3
 10
-1.59448818581102
 20
-1.240157481042
 30
0.0
 11
-1.59448818581102
 21
-1.594488189
 31
0.0
  0
LINE
  8
3
  6
CONTINUOUS
 62
3
 10
-0.531496061937006
 20
-1.240157481042
 30
0.0
 11
-0.531496061937006
 21
-1.594488189
 31
0.0
  0
LINE
  8
3
  6
CONTINUOUS
 62
3
 10
-0.531496061937006
 20
-1.240157481042
 30
0.0
 11
-0.885826769895012
 21
-1.240157481042
 31
0.0
  0
LINE
  8
3
  6
CONTINUOUS
 62
3
 10
-0.531496061937006
 20
-0.885826773084
 30
0.0
 11
-0.885826769895012
 21
-0.885826773084
 31
0.0
  0
LINE
  8
3
  6
CONTINUOUS
 62
3
 10
-1.24015747785302
 20
-1.594488189
 30
0.0
 11
-1.24015747785302
 21
-1.240157481042
 31
0.0
  0
LINE
  8
3
  6
CONTINUOUS
 62
3
 10
-0.885826769895012
 20
-1.594488189
 30
0.0
 11
-0.885826769895012
 21
-1.240157481042
 31
0.0
  0
LINE
  8
3
  6
CONTINUOUS
 62
3
 10
-0.885826769895012
 20
-0.53149606512597
 30
0.0
 11
-0.531496061937006
 21
-0.53149606512597
 31
0.0
  0
LINE
  8
3
  6
CONTINUOUS
 62
3
 10
-0.531496061937006
 20
-0.885826773084
 30
0.0
 11
-0.531496061937006
 21
-0.53149606512597
 31
0.0
  0
LINE
  8
3
  6
CONTINUOUS
 62
3
 10
-0.885826769895012
 20
-1.594488189
 30
0.0
 11
-0.531496061937006
 21
-1.594488189
 31
0.0
  0
LINE
  8
3
  6
CONTINUOUS
 62
3
 10
-1.59448818581102
 20
-0.885826773084
 30
0.0
 11
-1.59448818581102
 21
-0.53149606512597
 31
0.0
  0
LINE
  8
3
  6
CONTINUOUS
 62
3
 10
-1.24015747785302
 20
-0.885826773084
 30
0.0
 11
-1.24015747785302
 21
-0.53149606512597
 31
0.0
  0
LINE
  8
3
  6
CONTINUOUS
 62
3
 10
-1.24015747785302
 20
-0.885826773084
 30
0.0
 11
-1.59448818581102
 21
-0.885826773084
 31
0.0
  0
LINE
  8
3
  6
CONTINUOUS
 62
3
 10
-1.24015747785302
 20
-1.240157481042
 30
0.0
 11
-1.59448818581102
 21
-1.240157481042
 31
0.0
  0
LINE
  8
3
  6
CONTINUOUS
 62
3
 10
-0.885826769895012
 20
-0.885826773084
 30
0.0
 11
-0.885826769895012
 21
-0.53149606512597
 31
0.0
  0
LINE
  8
3
  6
CONTINUOUS
 62
3
 10
1.240157481042
 20
1.59448818581102
 30
0.0
 11
1.594488189
 21
1.59448818581102
 31
0.0
  0
LINE
  8
3
  6
CONTINUOUS
 62
3
 10
1.594488189
 20
0.531496061937006
 30
0.0
 11
1.240157481042
 21
0.531496061937006
 31
0.0
  0
LINE
  8
3
  6
CONTINUOUS
 62
3
 10
1.594488189
 20
1.24015747785302
 30
0.0
 11
1.594488189
 21
1.59448818581102
 31
0.0
  0
LINE
  8
3
  6
CONTINUOUS
 62
3
 10
0.53149606512597
 20
1.24015747785302
 30
0.0
 11
0.53149606512597
 21
1.59448818581102
 31
0.0
  0
LINE
  8
3
  6
CONTINUOUS
 62
3
 10
0.53149606512597
 20
1.24015747785302
 30
0.0
 11
0.885826773084
 21
1.24015747785302
 31
0.0
  0
LINE
  8
3
  6
CONTINUOUS
 62
3
 10
0.53149606512597
 20
0.885826769895012
 30
0.0
 11
0.885826773084
 21
0.885826769895012
 31
0.0
  0
LINE
  8
3
  6
CONTINUOUS
 62
3
 10
1.240157481042
 20
1.59448818581102
 30
0.0
 11
1.240157481042
 21
1.24015747785302
 31
0.0
  0
LINE
  8
3
  6
CONTINUOUS
 62
3
 10
0.885826773084
 20
1.59448818581102
 30
0.0
 11
0.885826773084
 21
1.24015747785302
 31
0.0
  0
LINE
  8
3
  6
CONTINUOUS
 62
3
 10
0.885826773084
 20
0.531496061937006
 30
0.0
 11
0.53149606512597
 21
0.531496061937006
 31
0.0
  0
LINE
  8
3
  6
CONTINUOUS
 62
3
 10
0.53149606512597
 20
0.885826769895012
 30
0.0
 11
0.53149606512597
 21
0.531496061937006
 31
0.0
  0
LINE
  8
3
  6
CONTINUOUS
 62
3
 10
0.885826773084
 20
1.59448818581102
 30
0.0
 11
0.53149606512597
 21
1.59448818581102
 31
0.0
  0
LINE
  8
3
  6
CONTINUOUS
 62
3
 10
1.594488189
 20
0.885826769895012
 30
0.0
 11
1.594488189
 21
0.531496061937006
 31
0.0
  0
LINE
  8
3
  6
CONTINUOUS
 62
3
 10
1.240157481042
 20
0.885826769895012
 30
0.0
 11
1.240157481042
 21
0.531496061937006
 31
0.0
  0
LINE
  8
3
  6
CONTINUOUS
 62
3
 10
1.240157481042
 20
0.885826769895012
 30
0.0
 11
1.594488189
 21
0.885826769895012
 31
0.0
  0
LINE
  8
3
  6
CONTINUOUS
 62
3
 10
1.240157481042
 20
1.24015747785302
 30
0.0
 11
1.594488189
 21
1.24015747785302
 31
0.0
  0
LINE
  8
3
  6
CONTINUOUS
 62
3
 10
0.885826773084
 20
0.885826769895012
 30
0.0
 11
0.885826773084
 21
0.531496061937006
 31
0.0
  0
LINE
  8
3
  6
CONTINUOUS
 62
3
 10
-1.24015747785302
 20
1.59448818581102
 30
0.0
 11
-1.59448818581102
 21
1.59448818581102
 31
0.0
  0
LINE
  8
3
  6
CONTINUOUS
 62
3
 10
-1.59448818581102
 20
0.531496061937006
 30
0.0
 11
-1.24015747785302
 21
0.531496061937006
 31
0.0
  0
LINE
  8
3
  6
CONTINUOUS
 62
3
 10
-1.59448818581102
 20
1.24015747785302
 30
0.0
 11
-1.59448818581102
 21
1.59448818581102
 31
0.0
  0
LINE
  8
3
  6
CONTINUOUS
 62
3
 10
-0.531496061937006
 20
1.24015747785302
 30
0.0
 11
-0.531496061937006
 21
1.59448818581102
 31
0.0
  0
LINE
  8
3
  6
CONTINUOUS
 62
3
 10
-0.531496061937006
 20
1.24015747785302
 30
0.0
 11
-0.885826769895012
 21
1.24015747785302
 31
0.0
  0
LINE
  8
3
  6
CONTINUOUS
 62
3
 10
-0.531496061937006
 20
0.885826769895012
 30
0.0
 11
-0.885826769895012
 21
0.885826769895012
 31
0.0
  0
LINE
  8
3
  6
CONTINUOUS
 62
3
 10
-1.24015747785302
 20
1.59448818581102
 30
0.0
 11
-1.24015747785302
 21
1.24015747785302
 31
0.0
  0
LINE
  8
3
  6
CONTINUOUS
 62
3
 10
-0.885826769895012
 20
1.59448818581102
 30
0.0
 11
-0.885826769895012
 21
1.24015747785302
 31
0.0
  0
LINE
  8
3
  6
CONTINUOUS
 62
3
 10
-0.885826769895012
 20
0.531496061937006
 30
0.0
 11
-0.531496061937006
 21
0.531496061937006
 31
0.0
  0
LINE
  8
3
  6
CONTINUOUS
 62
3
 10
-0.531496061937006
 20
0.885826769895012
 30
0.0
 11
-0.531496061937006
 21
0.531496061937006
 31
0.0
  0
LINE
  8
3
  6
CONTINUOUS
 62
3
 10
-0.885826769895012
 20
1.59448818581102
 30
0.0
 11
-0.531496061937006
 21
1.59448818581102
 31
0.0
  0
LINE
  8
3
  6
CONTINUOUS
 62
3
 10
-1.59448818581102
 20
0.885826769895012
 30
0.0
 11
-1.59448818581102
 21
0.531496061937006
 31
0.0
  0
LINE
  8
3
  6
CONTINUOUS
 62
3
 10
-1.24015747785302
 20
0.885826769895012
 30
0.0
 11
-1.24015747785302
 21
0.531496061937006
 31
0.0
  0
LINE
  8
3
  6
CONTINUOUS
 62
3
 10
-1.24015747785302
 20
0.885826769895012
 30
0.0
 11
-1.59448818581102
 21
0.885826769895012
 31
0.0
  0
LINE
  8
3
  6
CONTINUOUS
 62
3
 10
-1.24015747785302
 20
1.24015747785302
 30
0.0
 11
-1.59448818581102
 21
1.24015747785302
 31
0.0
  0
LINE
  8
3
  6
CONTINUOUS
 62
3
 10
-0.885826769895012
 20
0.885826769895012
 30
0.0
 11
-0.885826769895012
 21
0.531496061937006
 31
0.0
  0
LINE
  8
4
  6
CONTINUOUS
 62
4
 10
1.47637795313211
 20
1.59448818581102
 30
0.0
 11
1.594488189
 21
1.59448818581102
 31
0.0
  0
LINE
  8
4
  6
CONTINUOUS
 62
4
 10
1.594488189
 20
1.24015747820735
 30
0.0
 11
1.47637795313211
 21
1.24015747820735
 31
0.0
  0
LINE
  8
4
  6
CONTINUOUS
 62
4
 10
1.594488189
 20
1.47637794994313
 30
0.0
 11
1.594488189
 21
1.59448818581102
 31
0.0
  0
LINE
  8
4
  6
CONTINUOUS
 62
4
 10
1.24015748139633
 20
1.47637794994313
 30
0.0
 11
1.24015748139633
 21
1.59448818581102
 31
0.0
  0
LINE
  8
4
  6
CONTINUOUS
 62
4
 10
1.24015748139633
 20
1.47637794994313
 30
0.0
 11
1.35826771726422
 21
1.47637794994313
 31
0.0
  0
LINE
  8
4
  6
CONTINUOUS
 62
4
 10
1.24015748139633
 20
1.35826771407524
 30
0.0
 11
1.35826771726422
 21
1.35826771407524
 31
0.0
  0
LINE
  8
4
  6
CONTINUOUS
 62
4
 10
1.47637795313211
 20
1.59448818581102
 30
0.0
 11
1.47637795313211
 21
1.47637794994313
 31
0.0
  0
LINE
  8
4
  6
CONTINUOUS
 62
4
 10
1.35826771726422
 20
1.59448818581102
 30
0.0
 11
1.35826771726422
 21
1.47637794994313
 31
0.0
  0
LINE
  8
4
  6
CONTINUOUS
 62
4
 10
1.35826771726422
 20
1.24015747820735
 30
0.0
 11
1.24015748139633
 21
1.24015747820735
 31
0.0
  0
LINE
  8
4
  6
CONTINUOUS
 62
4
 10
1.24015748139633
 20
1.35826771407524
 30
0.0
 11
1.24015748139633
 21
1.24015747820735
 31
0.0
  0
LINE
  8
4
  6
CONTINUOUS
 62
4
 10
1.35826771726422
 20
1.59448818581102
 30
0.0
 11
1.24015748139633
 21
1.59448818581102
 31
0.0
  0
LINE
  8
4
  6
CONTINUOUS
 62
4
 10
1.594488189
 20
1.35826771407524
 30
0.0
 11
1.594488189
 21
1.24015747820735
 31
0.0
  0
LINE
  8
4
  6
CONTINUOUS
 62
4
 10
1.47637795313211
 20
1.35826771407524
 30
0.0
 11
1.47637795313211
 21
1.24015747820735
 31
0.0
  0
LINE
  8
4
  6
CONTINUOUS
 62
4
 10
1.47637795313211
 20
1.35826771407524
 30
0.0
 11
1.594488189
 21
1.35826771407524
 31
0.0
  0
LINE
  8
4
  6
CONTINUOUS
 62
4
 10
1.47637795313211
 20
1.47637794994313
 30
0.0
 11
1.594488189
 21
1.47637794994313
 31
0.0
  0
LINE
  8
4
  6
CONTINUOUS
 62
4
 10
1.35826771726422
 20
1.35826771407524
 30
0.0
 11
1.35826771726422
 21
1.24015747820735
 31
0.0
  0
LINE
  8
4
  6
CONTINUOUS
 62
4
 10
0.64960630099389
 20
1.59448818581102
 30
0.0
 11
0.53149606512597
 21
1.59448818581102
 31
0.0
  0
LINE
  8
4
  6
CONTINUOUS
 62
4
 10
0.53149606512597
 20
1.24015747820735
 30
0.0
 11
0.64960630099389
 21
1.24015747820735
 31
0.0
  0
LINE
  8
4
  6
CONTINUOUS
 62
4
 10
0.53149606512597
 20
1.47637794994313
 30
0.0
 11
0.53149606512597
 21
1.59448818581102
 31
0.0
  0
LINE
  8
4
  6
CONTINUOUS
 62
4
 10
0.88582677272967
 20
1.47637794994313
 30
0.0
 11
0.88582677272967
 21
1.59448818581102
 31
0.0
  0
LINE
  8
4
  6
CONTINUOUS
 62
4
 10
0.88582677272967
 20
1.47637794994313
 30
0.0
 11
0.76771653686175
 21
1.47637794994313
 31
0.0
  0
LINE
  8
4
  6
CONTINUOUS
 62
4
 10
0.88582677272967
 20
1.35826771407524
 30
0.0
 11
0.76771653686175
 21
1.35826771407524
 31
0.0
  0
LINE
  8
4
  6
CONTINUOUS
 62
4
 10
0.64960630099389
 20
1.59448818581102
 30
0.0
 11
0.64960630099389
 21
1.47637794994313
 31
0.0
  0
LINE
  8
4
  6
CONTINUOUS
 62
4
 10
0.76771653686175
 20
1.59448818581102
 30
0.0
 11
0.76771653686175
 21
1.47637794994313
 31
0.0
  0
LINE
  8
4
  6
CONTINUOUS
 62
4
 10
0.76771653686175
 20
1.24015747820735
 30
0.0
 11
0.88582677272967
 21
1.24015747820735
 31
0.0
  0
LINE
  8
4
  6
CONTINUOUS
 62
4
 10
0.88582677272967
 20
1.35826771407524
 30
0.0
 11
0.88582677272967
 21
1.24015747820735
 31
0.0
  0
LINE
  8
4
  6
CONTINUOUS
 62
4
 10
0.76771653686175
 20
1.59448818581102
 30
0.0
 11
0.88582677272967
 21
1.59448818581102
 31
0.0
  0
LINE
  8
4
  6
CONTINUOUS
 62
4
 10
0.53149606512597
 20
1.35826771407524
 30
0.0
 11
0.53149606512597
 21
1.24015747820735
 31
0.0
  0
LINE
  8
4
  6
CONTINUOUS
 62
4
 10
0.64960630099389
 20
1.35826771407524
 30
0.0
 11
0.64960630099389
 21
1.24015747820735
 31
0.0
  0
LINE
  8
4
  6
CONTINUOUS
 62
4
 10
0.64960630099389
 20
1.35826771407524
 30
0.0
 11
0.53149606512597
 21
1.35826771407524
 31
0.0
  0
LINE
  8
4
  6
CONTINUOUS
 62
4
 10
0.64960630099389
 20
1.47637794994313
 30
0.0
 11
0.53149606512597
 21
1.47637794994313
 31
0.0
  0
LINE
  8
4
  6
CONTINUOUS
 62
4
 10
0.76771653686175
 20
1.35826771407524
 30
0.0
 11
0.76771653686175
 21
1.24015747820735
 31
0.0
  0
LINE
  8
4
  6
CONTINUOUS
 62
4
 10
1.47637795313211
 20
0.531496061937009
 30
0.0
 11
1.594488189
 21
0.531496061937009
 31
0.0
  0
LINE
  8
4
  6
CONTINUOUS
 62
4
 10
1.594488189
 20
0.885826769540685
 30
0.0
 11
1.47637795313211
 21
0.885826769540685
 31
0.0
  0
LINE
  8
4
  6
CONTINUOUS
 62
4
 10
1.594488189
 20
0.649606297804902
 30
0.0
 11
1.594488189
 21
0.531496061937009
 31
0.0
  0
LINE
  8
4
  6
CONTINUOUS
 62
4
 10
1.24015748139633
 20
0.649606297804902
 30
0.0
 11
1.24015748139633
 21
0.531496061937009
 31
0.0
  0
LINE
  8
4
  6
CONTINUOUS
 62
4
 10
1.24015748139633
 20
0.649606297804902
 30
0.0
 11
1.35826771726422
 21
0.649606297804902
 31
0.0
  0
LINE
  8
4
  6
CONTINUOUS
 62
4
 10
1.24015748139633
 20
0.767716533672792
 30
0.0
 11
1.35826771726422
 21
0.767716533672792
 31
0.0
  0
LINE
  8
4
  6
CONTINUOUS
 62
4
 10
1.47637795313211
 20
0.531496061937009
 30
0.0
 11
1.47637795313211
 21
0.649606297804902
 31
0.0
  0
LINE
  8
4
  6
CONTINUOUS
 62
4
 10
1.35826771726422
 20
0.531496061937009
 30
0.0
 11
1.35826771726422
 21
0.649606297804902
 31
0.0
  0
LINE
  8
4
  6
CONTINUOUS
 62
4
 10
1.35826771726422
 20
0.885826769540685
 30
0.0
 11
1.24015748139633
 21
0.885826769540685
 31
0.0
  0
LINE
  8
4
  6
CONTINUOUS
 62
4
 10
1.24015748139633
 20
0.767716533672792
 30
0.0
 11
1.24015748139633
 21
0.885826769540685
 31
0.0
  0
LINE
  8
4
  6
CONTINUOUS
 62
4
 10
1.35826771726422
 20
0.531496061937009
 30
0.0
 11
1.24015748139633
 21
0.531496061937009
 31
0.0
  0
LINE
  8
4
  6
CONTINUOUS
 62
4
 10
1.594488189
 20
0.767716533672792
 30
0.0
 11
1.594488189
 21
0.885826769540685
 31
0.0
  0
LINE
  8
4
  6
CONTINUOUS
 62
4
 10
1.47637795313211
 20
0.767716533672792
 30
0.0
 11
1.47637795313211
 21
0.885826769540685
 31
0.0
  0
LINE
  8
4
  6
CONTINUOUS
 62
4
 10
1.47637795313211
 20
0.767716533672792
 30
0.0
 11
1.594488189
 21
0.767716533672792
 31
0.0
  0
LINE
  8
4
  6
CONTINUOUS
 62
4
 10
1.47637795313211
 20
0.649606297804902
 30
0.0
 11
1.594488189
 21
0.649606297804902
 31
0.0
  0
LINE
  8
4
  6
CONTINUOUS
 62
4
 10
1.35826771726422
 20
0.767716533672792
 30
0.0
 11
1.35826771726422
 21
0.885826769540685
 31
0.0
  0
LINE
  8
4
  6
CONTINUOUS
 62
4
 10
0.64960630099389
 20
0.531496061937009
 30
0.0
 11
0.53149606512597
 21
0.531496061937009
 31
0.0
  0
LINE
  8
4
  6
CONTINUOUS
 62
4
 10
0.53149606512597
 20
0.885826769540685
 30
0.0
 11
0.64960630099389
 21
0.885826769540685
 31
0.0
  0
LINE
  8
4
  6
CONTINUOUS
 62
4
 10
0.53149606512597
 20
0.649606297804902
 30
0.0
 11
0.53149606512597
 21
0.531496061937009
 31
0.0
  0
LINE
  8
4
  6
CONTINUOUS
 62
4
 10
0.88582677272967
 20
0.649606297804902
 30
0.0
 11
0.88582677272967
 21
0.531496061937009
 31
0.0
  0
LINE
  8
4
  6
CONTINUOUS
 62
4
 10
0.88582677272967
 20
0.649606297804902
 30
0.0
 11
0.76771653686175
 21
0.649606297804902
 31
0.0
  0
LINE
  8
4
  6
CONTINUOUS
 62
4
 10
0.88582677272967
 20
0.767716533672792
 30
0.0
 11
0.76771653686175
 21
0.767716533672792
 31
0.0
  0
LINE
  8
4
  6
CONTINUOUS
 62
4
 10
0.64960630099389
 20
0.531496061937009
 30
0.0
 11
0.64960630099389
 21
0.649606297804902
 31
0.0
  0
LINE
  8
4
  6
CONTINUOUS
 62
4
 10
0.76771653686175
 20
0.531496061937009
 30
0.0
 11
0.76771653686175
 21
0.649606297804902
 31
0.0
  0
LINE
  8
4
  6
CONTINUOUS
 62
4
 10
0.76771653686175
 20
0.885826769540685
 30
0.0
 11
0.88582677272967
 21
0.885826769540685
 31
0.0
  0
LINE
  8
4
  6
CONTINUOUS
 62
4
 10
0.88582677272967
 20
0.767716533672792
 30
0.0
 11
0.88582677272967
 21
0.885826769540685
 31
0.0
  0
LINE
  8
4
  6
CONTINUOUS
 62
4
 10
0.76771653686175
 20
0.531496061937009
 30
0.0
 11
0.88582677272967
 21
0.531496061937009
 31
0.0
  0
LINE
  8
4
  6
CONTINUOUS
 62
4
 10
0.53149606512597
 20
0.767716533672792
 30
0.0
 11
0.53149606512597
 21
0.885826769540685
 31
0.0
  0
LINE
  8
4
  6
CONTINUOUS
 62
4
 10
0.64960630099389
 20
0.767716533672792
 30
0.0
 11
0.64960630099389
 21
0.885826769540685
 31
0.0
  0
LINE
  8
4
  6
CONTINUOUS
 62
4
 10
0.64960630099389
 20
0.767716533672792
 30
0.0
 11
0.53149606512597
 21
0.767716533672792
 31
0.0
  0
LINE
  8
4
  6
CONTINUOUS
 62
4
 10
0.64960630099389
 20
0.649606297804902
 30
0.0
 11
0.53149606512597
 21
0.649606297804902
 31
0.0
  0
LINE
  8
4
  6
CONTINUOUS
 62
4
 10
0.76771653686175
 20
0.767716533672792
 30
0.0
 11
0.76771653686175
 21
0.885826769540685
 31
0.0
  0
LINE
  8
4
  6
CONTINUOUS
 62
4
 10
-1.47637794994313
 20
1.59448818581102
 30
0.0
 11
-1.59448818581102
 21
1.59448818581102
 31
0.0
  0
LINE
  8
4
  6
CONTINUOUS
 62
4
 10
-1.59448818581102
 20
1.24015747820735
 30
0.0
 11
-1.47637794994313
 21
1.24015747820735
 31
0.0
  0
LINE
  8
4
  6
CONTINUOUS
 62
4
 10
-1.59448818581102
 20
1.47637794994313
 30
0.0
 11
-1.59448818581102
 21
1.59448818581102
 31
0.0
  0
LINE
  8
4
  6
CONTINUOUS
 62
4
 10
-1.24015747820736
 20
1.47637794994313
 30
0.0
 11
-1.24015747820736
 21
1.59448818581102
 31
0.0
  0
LINE
  8
4
  6
CONTINUOUS
 62
4
 10
-1.24015747820736
 20
1.47637794994313
 30
0.0
 11
-1.35826771407523
 21
1.47637794994313
 31
0.0
  0
LINE
  8
4
  6
CONTINUOUS
 62
4
 10
-1.24015747820736
 20
1.35826771407524
 30
0.0
 11
-1.35826771407523
 21
1.35826771407524
 31
0.0
  0
LINE
  8
4
  6
CONTINUOUS
 62
4
 10
-1.47637794994313
 20
1.59448818581102
 30
0.0
 11
-1.47637794994313
 21
1.47637794994313
 31
0.0
  0
LINE
  8
4
  6
CONTINUOUS
 62
4
 10
-1.35826771407523
 20
1.59448818581102
 30
0.0
 11
-1.35826771407523
 21
1.47637794994313
 31
0.0
  0
LINE
  8
4
  6
CONTINUOUS
 62
4
 10
-1.35826771407523
 20
1.24015747820735
 30
0.0
 11
-1.24015747820736
 21
1.24015747820735
 31
0.0
  0
LINE
  8
4
  6
CONTINUOUS
 62
4
 10
-1.24015747820736
 20
1.35826771407524
 30
0.0
 11
-1.24015747820736
 21
1.24015747820735
 31
0.0
  0
LINE
  8
4
  6
CONTINUOUS
 62
4
 10
-1.35826771407523
 20
1.59448818581102
 30
0.0
 11
-1.24015747820736
 21
1.59448818581102
 31
0.0
  0
LINE
  8
4
  6
CONTINUOUS
 62
4
 10
-1.59448818581102
 20
1.35826771407524
 30
0.0
 11
-1.59448818581102
 21
1.24015747820735
 31
0.0
  0
LINE
  8
4
  6
CONTINUOUS
 62
4
 10
-1.47637794994313
 20
1.35826771407524
 30
0.0
 11
-1.47637794994313
 21
1.24015747820735
 31
0.0
  0
LINE
  8
4
  6
CONTINUOUS
 62
4
 10
-1.47637794994313
 20
1.35826771407524
 30
0.0
 11
-1.59448818581102
 21
1.35826771407524
 31
0.0
  0
LINE
  8
4
  6
CONTINUOUS
 62
4
 10
-1.47637794994313
 20
1.47637794994313
 30
0.0
 11
-1.59448818581102
 21
1.47637794994313
 31
0.0
  0
LINE
  8
4
  6
CONTINUOUS
 62
4
 10
-1.35826771407523
 20
1.35826771407524
 30
0.0
 11
-1.35826771407523
 21
1.24015747820735
 31
0.0
  0
LINE
  8
4
  6
CONTINUOUS
 62
4
 10
-0.649606297804902
 20
1.59448818581102
 30
0.0
 11
-0.531496061937006
 21
1.59448818581102
 31
0.0
  0
LINE
  8
4
  6
CONTINUOUS
 62
4
 10
-0.531496061937006
 20
1.24015747820735
 30
0.0
 11
-0.649606297804902
 21
1.24015747820735
 31
0.0
  0
LINE
  8
4
  6
CONTINUOUS
 62
4
 10
-0.531496061937006
 20
1.47637794994313
 30
0.0
 11
-0.531496061937006
 21
1.59448818581102
 31
0.0
  0
LINE
  8
4
  6
CONTINUOUS
 62
4
 10
-0.885826769540694
 20
1.47637794994313
 30
0.0
 11
-0.885826769540694
 21
1.59448818581102
 31
0.0
  0
LINE
  8
4
  6
CONTINUOUS
 62
4
 10
-0.885826769540694
 20
1.47637794994313
 30
0.0
 11
-0.767716533672798
 21
1.47637794994313
 31
0.0
  0
LINE
  8
4
  6
CONTINUOUS
 62
4
 10
-0.885826769540694
 20
1.35826771407524
 30
0.0
 11
-0.767716533672798
 21
1.35826771407524
 31
0.0
  0
LINE
  8
4
  6
CONTINUOUS
 62
4
 10
-0.649606297804902
 20
1.59448818581102
 30
0.0
 11
-0.649606297804902
 21
1.47637794994313
 31
0.0
  0
LINE
  8
4
  6
CONTINUOUS
 62
4
 10
-0.767716533672798
 20
1.59448818581102
 30
0.0
 11
-0.767716533672798
 21
1.47637794994313
 31
0.0
  0
LINE
  8
4
  6
CONTINUOUS
 62
4
 10
-0.767716533672798
 20
1.24015747820735
 30
0.0
 11
-0.885826769540694
 21
1.24015747820735
 31
0.0
  0
LINE
  8
4
  6
CONTINUOUS
 62
4
 10
-0.885826769540694
 20
1.35826771407524
 30
0.0
 11
-0.885826769540694
 21
1.24015747820735
 31
0.0
  0
LINE
  8
4
  6
CONTINUOUS
 62
4
 10
-0.767716533672798
 20
1.59448818581102
 30
0.0
 11
-0.885826769540694
 21
1.59448818581102
 31
0.0
  0
LINE
  8
4
  6
CONTINUOUS
 62
4
 10
-0.531496061937006
 20
1.35826771407524
 30
0.0
 11
-0.531496061937006
 21
1.24015747820735
 31
0.0
  0
LINE
  8
4
  6
CONTINUOUS
 62
4
 10
-0.649606297804902
 20
1.35826771407524
 30
0.0
 11
-0.649606297804902
 21
1.24015747820735
 31
0.0
  0
LINE
  8
4
  6
CONTINUOUS
 62
4
 10
-0.649606297804902
 20
1.35826771407524
 30
0.0
 11
-0.531496061937006
 21
1.35826771407524
 31
0.0
  0
LINE
  8
4
  6
CONTINUOUS
 62
4
 10
-0.649606297804902
 20
1.47637794994313
 30
0.0
 11
-0.531496061937006
 21
1.47637794994313
 31
0.0
  0
LINE
  8
4
  6
CONTINUOUS
 62
4
 10
-0.767716533672798
 20
1.35826771407524
 30
0.0
 11
-0.767716533672798
 21
1.24015747820735
 31
0.0
  0
LINE
  8
4
  6
CONTINUOUS
 62
4
 10
-1.47637794994313
 20
0.531496061937009
 30
0.0
 11
-1.59448818581102
 21
0.531496061937009
 31
0.0
  0
LINE
  8
4
  6
CONTINUOUS
 62
4
 10
-1.59448818581102
 20
0.885826769540685
 30
0.0
 11
-1.47637794994313
 21
0.885826769540685
 31
0.0
  0
LINE
  8
4
  6
CONTINUOUS
 62
4
 10
-1.59448818581102
 20
0.649606297804902
 30
0.0
 11
-1.59448818581102
 21
0.531496061937009
 31
0.0
  0
LINE
  8
4
  6
CONTINUOUS
 62
4
 10
-1.24015747820736
 20
0.649606297804902
 30
0.0
 11
-1.24015747820736
 21
0.531496061937009
 31
0.0
  0
LINE
  8
4
  6
CONTINUOUS
 62
4
 10
-1.24015747820736
 20
0.649606297804902
 30
0.0
 11
-1.35826771407523
 21
0.649606297804902
 31
0.0
  0
LINE
  8
4
  6
CONTINUOUS
 62
4
 10
-1.24015747820736
 20
0.767716533672792
 30
0.0
 11
-1.35826771407523
 21
0.767716533672792
 31
0.0
  0
LINE
  8
4
  6
CONTINUOUS
 62
4
 10
-1.47637794994313
 20
0.531496061937009
 30
0.0
 11
-1.47637794994313
 21
0.649606297804902
 31
0.0
  0
LINE
  8
4
  6
CONTINUOUS
 62
4
 10
-1.35826771407523
 20
0.531496061937009
 30
0.0
 11
-1.35826771407523
 21
0.649606297804902
 31
0.0
  0
LINE
  8
4
  6
CONTINUOUS
 62
4
 10
-1.35826771407523
 20
0.885826769540685
 30
0.0
 11
-1.24015747820736
 21
0.885826769540685
 31
0.0
  0
LINE
  8
4
  6
CONTINUOUS
 62
4
 10
-1.24015747820736
 20
0.767716533672792
 30
0.0
 11
-1.24015747820736
 21
0.885826769540685
 31
0.0
  0
LINE
  8
4
  6
CONTINUOUS
 62
4
 10
-1.35826771407523
 20
0.531496061937009
 30
0.0
 11
-1.24015747820736
 21
0.531496061937009
 31
0.0
  0
LINE
  8
4
  6
CONTINUOUS
 62
4
 10
-1.59448818581102
 20
0.767716533672792
 30
0.0
 11
-1.59448818581102
 21
0.885826769540685
 31
0.0
  0
LINE
  8
4
  6
CONTINUOUS
 62
4
 10
-1.47637794994313
 20
0.767716533672792
 30
0.0
 11
-1.47637794994313
 21
0.885826769540685
 31
0.0
  0
LINE
  8
4
  6
CONTINUOUS
 62
4
 10
-1.47637794994313
 20
0.767716533672792
 30
0.0
 11
-1.59448818581102
 21
0.767716533672792
 31
0.0
  0
LINE
  8
4
  6
CONTINUOUS
 62
4
 10
-1.47637794994313
 20
0.649606297804902
 30
0.0
 11
-1.59448818581102
 21
0.649606297804902
 31
0.0
  0
LINE
  8
4
  6
CONTINUOUS
 62
4
 10
-1.35826771407523
 20
0.767716533672792
 30
0.0
 11
-1.35826771407523
 21
0.885826769540685
 31
0.0
  0
LINE
  8
4
  6
CONTINUOUS
 62
4
 10
-0.649606297804902
 20
0.531496061937009
 30
0.0
 11
-0.531496061937006
 21
0.531496061937009
 31
0.0
  0
LINE
  8
4
  6
CONTINUOUS
 62
4
 10
-0.531496061937006
 20
0.885826769540685
 30
0.0
 11
-0.649606297804902
 21
0.885826769540685
 31
0.0
  0
LINE
  8
4
  6
CONTINUOUS
 62
4
 10
-0.531496061937006
 20
0.649606297804902
 30
0.0
 11
-0.531496061937006
 21
0.531496061937009
 31
0.0
  0
LINE
  8
4
  6
CONTINUOUS
 62
4
 10
-0.885826769540694
 20
0.649606297804902
 30
0.0
 11
-0.885826769540694
 21
0.531496061937009
 31
0.0
  0
LINE
  8
4
  6
CONTINUOUS
 62
4
 10
-0.885826769540694
 20
0.649606297804902
 30
0.0
 11
-0.767716533672798
 21
0.649606297804902
 31
0.0
  0
LINE
  8
4
  6
CONTINUOUS
 62
4
 10
-0.885826769540694
 20
0.767716533672792
 30
0.0
 11
-0.767716533672798
 21
0.767716533672792
 31
0.0
  0
LINE
  8
4
  6
CONTINUOUS
 62
4
 10
-0.649606297804902
 20
0.531496061937009
 30
0.0
 11
-0.649606297804902
 21
0.649606297804902
 31
0.0
  0
LINE
  8
4
  6
CONTINUOUS
 62
4
 10
-0.767716533672798
 20
0.531496061937009
 30
0.0
 11
-0.767716533672798
 21
0.649606297804902
 31
0.0
  0
LINE
  8
4
  6
CONTINUOUS
 62
4
 10
-0.767716533672798
 20
0.885826769540685
 30
0.0
 11
-0.885826769540694
 21
0.885826769540685
 31
0.0
  0
LINE
  8
4
  6
CONTINUOUS
 62
4
 10
-0.885826769540694
 20
0.767716533672792
 30
0.0
 11
-0.885826769540694
 21
0.885826769540685
 31
0.0
  0
LINE
  8
4
  6
CONTINUOUS
 62
4
 10
-0.767716533672798
 20
0.531496061937009
 30
0.0
 11
-0.885826769540694
 21
0.531496061937009
 31
0.0
  0
LINE
  8
4
  6
CONTINUOUS
 62
4
 10
-0.531496061937006
 20
0.767716533672792
 30
0.0
 11
-0.531496061937006
 21
0.885826769540685
 31
0.0
  0
LINE
  8
4
  6
CONTINUOUS
 62
4
 10
-0.649606297804902
 20
0.767716533672792
 30
0.0
 11
-0.649606297804902
 21
0.885826769540685
 31
0.0
  0
LINE
  8
4
  6
CONTINUOUS
 62
4
 10
-0.649606297804902
 20
0.767716533672792
 30
0.0
 11
-0.531496061937006
 21
0.767716533672792
 31
0.0
  0
LINE
  8
4
  6
CONTINUOUS
 62
4
 10
-0.649606297804902
 20
0.649606297804902
 30
0.0
 11
-0.531496061937006
 21
0.649606297804902
 31
0.0
  0
LINE
  8
4
  6
CONTINUOUS
 62
4
 10
-0.767716533672798
 20
0.767716533672792
 30
0.0
 11
-0.767716533672798
 21
0.885826769540685
 31
0.0
  0
LINE
  8
4
  6
CONTINUOUS
 62
4
 10
-1.47637794994313
 20
-1.594488189
 30
0.0
 11
-1.59448818581102
 21
-1.594488189
 31
0.0
  0
LINE
  8
4
  6
CONTINUOUS
 62
4
 10
-1.59448818581102
 20
-1.24015748139633
 30
0.0
 11
-1.47637794994313
 21
-1.24015748139633
 31
0.0
  0
LINE
  8
4
  6
CONTINUOUS
 62
4
 10
-1.59448818581102
 20
-1.47637795313211
 30
0.0
 11
-1.59448818581102
 21
-1.594488189
 31
0.0
  0
LINE
  8
4
  6
CONTINUOUS
 62
4
 10
-1.24015747820736
 20
-1.47637795313211
 30
0.0
 11
-1.24015747820736
 21
-1.594488189
 31
0.0
  0
LINE
  8
4
  6
CONTINUOUS
 62
4
 10
-1.24015747820736
 20
-1.47637795313211
 30
0.0
 11
-1.35826771407523
 21
-1.47637795313211
 31
0.0
  0
LINE
  8
4
  6
CONTINUOUS
 62
4
 10
-1.24015747820736
 20
-1.35826771726422
 30
0.0
 11
-1.35826771407523
 21
-1.35826771726422
 31
0.0
  0
LINE
  8
4
  6
CONTINUOUS
 62
4
 10
-1.47637794994313
 20
-1.594488189
 30
0.0
 11
-1.47637794994313
 21
-1.47637795313211
 31
0.0
  0
LINE
  8
4
  6
CONTINUOUS
 62
4
 10
-1.35826771407523
 20
-1.594488189
 30
0.0
 11
-1.35826771407523
 21
-1.47637795313211
 31
0.0
  0
LINE
  8
4
  6
CONTINUOUS
 62
4
 10
-1.35826771407523
 20
-1.24015748139633
 30
0.0
 11
-1.24015747820736
 21
-1.24015748139633
 31
0.0
  0
LINE
  8
4
  6
CONTINUOUS
 62
4
 10
-1.24015747820736
 20
-1.35826771726422
 30
0.0
 11
-1.24015747820736
 21
-1.24015748139633
 31
0.0
  0
LINE
  8
4
  6
CONTINUOUS
 62
4
 10
-1.35826771407523
 20
-1.594488189
 30
0.0
 11
-1.24015747820736
 21
-1.594488189
 31
0.0
  0
LINE
  8
4
  6
CONTINUOUS
 62
4
 10
-1.59448818581102
 20
-1.35826771726422
 30
0.0
 11
-1.59448818581102
 21
-1.24015748139633
 31
0.0
  0
LINE
  8
4
  6
CONTINUOUS
 62
4
 10
-1.47637794994313
 20
-1.35826771726422
 30
0.0
 11
-1.47637794994313
 21
-1.24015748139633
 31
0.0
  0
LINE
  8
4
  6
CONTINUOUS
 62
4
 10
-1.47637794994313
 20
-1.35826771726422
 30
0.0
 11
-1.59448818581102
 21
-1.35826771726422
 31
0.0
  0
LINE
  8
4
  6
CONTINUOUS
 62
4
 10
-1.47637794994313
 20
-1.47637795313211
 30
0.0
 11
-1.59448818581102
 21
-1.47637795313211
 31
0.0
  0
LINE
  8
4
  6
CONTINUOUS
 62
4
 10
-1.35826771407523
 20
-1.35826771726422
 30
0.0
 11
-1.35826771407523
 21
-1.24015748139633
 31
0.0
  0
LINE
  8
4
  6
CONTINUOUS
 62
4
 10
-0.649606297804902
 20
-1.594488189
 30
0.0
 11
-0.531496061937006
 21
-1.594488189
 31
0.0
  0
LINE
  8
4
  6
CONTINUOUS
 62
4
 10
-0.531496061937006
 20
-1.24015748139633
 30
0.0
 11
-0.649606297804902
 21
-1.24015748139633
 31
0.0
  0
LINE
  8
4
  6
CONTINUOUS
 62
4
 10
-0.531496061937006
 20
-1.47637795313211
 30
0.0
 11
-0.531496061937006
 21
-1.594488189
 31
0.0
  0
LINE
  8
4
  6
CONTINUOUS
 62
4
 10
-0.885826769540694
 20
-1.47637795313211
 30
0.0
 11
-0.885826769540694
 21
-1.594488189
 31
0.0
  0
LINE
  8
4
  6
CONTINUOUS
 62
4
 10
-0.885826769540694
 20
-1.47637795313211
 30
0.0
 11
-0.767716533672798
 21
-1.47637795313211
 31
0.0
  0
LINE
  8
4
  6
CONTINUOUS
 62
4
 10
-0.885826769540694
 20
-1.35826771726422
 30
0.0
 11
-0.767716533672798
 21
-1.35826771726422
 31
0.0
  0
LINE
  8
4
  6
CONTINUOUS
 62
4
 10
-0.649606297804902
 20
-1.594488189
 30
0.0
 11
-0.649606297804902
 21
-1.47637795313211
 31
0.0
  0
LINE
  8
4
  6
CONTINUOUS
 62
4
 10
-0.767716533672798
 20
-1.594488189
 30
0.0
 11
-0.767716533672798
 21
-1.47637795313211
 31
0.0
  0
LINE
  8
4
  6
CONTINUOUS
 62
4
 10
-0.767716533672798
 20
-1.24015748139633
 30
0.0
 11
-0.885826769540694
 21
-1.24015748139633
 31
0.0
  0
LINE
  8
4
  6
CONTINUOUS
 62
4
 10
-0.885826769540694
 20
-1.35826771726422
 30
0.0
 11
-0.885826769540694
 21
-1.24015748139633
 31
0.0
  0
LINE
  8
4
  6
CONTINUOUS
 62
4
 10
-0.767716533672798
 20
-1.594488189
 30
0.0
 11
-0.885826769540694
 21
-1.594488189
 31
0.0
  0
LINE
  8
4
  6
CONTINUOUS
 62
4
 10
-0.531496061937006
 20
-1.35826771726422
 30
0.0
 11
-0.531496061937006
 21
-1.24015748139633
 31
0.0
  0
LINE
  8
4
  6
CONTINUOUS
 62
4
 10
-0.649606297804902
 20
-1.35826771726422
 30
0.0
 11
-0.649606297804902
 21
-1.24015748139633
 31
0.0
  0
LINE
  8
4
  6
CONTINUOUS
 62
4
 10
-0.649606297804902
 20
-1.35826771726422
 30
0.0
 11
-0.531496061937006
 21
-1.35826771726422
 31
0.0
  0
LINE
  8
4
  6
CONTINUOUS
 62
4
 10
-0.649606297804902
 20
-1.47637795313211
 30
0.0
 11
-0.531496061937006
 21
-1.47637795313211
 31
0.0
  0
LINE
  8
4
  6
CONTINUOUS
 62
4
 10
-0.767716533672798
 20
-1.35826771726422
 30
0.0
 11
-0.767716533672798
 21
-1.24015748139633
 31
0.0
  0
LINE
  8
4
  6
CONTINUOUS
 62
4
 10
-1.47637794994313
 20
-0.53149606512597
 30
0.0
 11
-1.59448818581102
 21
-0.53149606512597
 31
0.0
  0
LINE
  8
4
  6
CONTINUOUS
 62
4
 10
-1.59448818581102
 20
-0.88582677272967
 30
0.0
 11
-1.47637794994313
 21
-0.88582677272967
 31
0.0
  0
LINE
  8
4
  6
CONTINUOUS
 62
4
 10
-1.59448818581102
 20
-0.64960630099386
 30
0.0
 11
-1.59448818581102
 21
-0.53149606512597
 31
0.0
  0
LINE
  8
4
  6
CONTINUOUS
 62
4
 10
-1.24015747820736
 20
-0.64960630099386
 30
0.0
 11
-1.24015747820736
 21
-0.53149606512597
 31
0.0
  0
LINE
  8
4
  6
CONTINUOUS
 62
4
 10
-1.24015747820736
 20
-0.64960630099386
 30
0.0
 11
-1.35826771407523
 21
-0.64960630099386
 31
0.0
  0
LINE
  8
4
  6
CONTINUOUS
 62
4
 10
-1.24015747820736
 20
-0.76771653686178
 30
0.0
 11
-1.35826771407523
 21
-0.76771653686178
 31
0.0
  0
LINE
  8
4
  6
CONTINUOUS
 62
4
 10
-1.47637794994313
 20
-0.53149606512597
 30
0.0
 11
-1.47637794994313
 21
-0.64960630099386
 31
0.0
  0
LINE
  8
4
  6
CONTINUOUS
 62
4
 10
-1.35826771407523
 20
-0.53149606512597
 30
0.0
 11
-1.35826771407523
 21
-0.64960630099386
 31
0.0
  0
LINE
  8
4
  6
CONTINUOUS
 62
4
 10
-1.35826771407523
 20
-0.88582677272967
 30
0.0
 11
-1.24015747820736
 21
-0.88582677272967
 31
0.0
  0
LINE
  8
4
  6
CONTINUOUS
 62
4
 10
-1.24015747820736
 20
-0.76771653686178
 30
0.0
 11
-1.24015747820736
 21
-0.88582677272967
 31
0.0
  0
LINE
  8
4
  6
CONTINUOUS
 62
4
 10
-1.35826771407523
 20
-0.53149606512597
 30
0.0
 11
-1.24015747820736
 21
-0.53149606512597
 31
0.0
  0
LINE
  8
4
  6
CONTINUOUS
 62
4
 10
-1.59448818581102
 20
-0.76771653686178
 30
0.0
 11
-1.59448818581102
 21
-0.88582677272967
 31
0.0
  0
LINE
  8
4
  6
CONTINUOUS
 62
4
 10
-1.47637794994313
 20
-0.76771653686178
 30
0.0
 11
-1.47637794994313
 21
-0.88582677272967
 31
0.0
  0
LINE
  8
4
  6
CONTINUOUS
 62
4
 10
-1.47637794994313
 20
-0.76771653686178
 30
0.0
 11
-1.59448818581102
 21
-0.76771653686178
 31
0.0
  0
LINE
  8
4
  6
CONTINUOUS
 62
4
 10
-1.47637794994313
 20
-0.64960630099386
 30
0.0
 11
-1.59448818581102
 21
-0.64960630099386
 31
0.0
  0
LINE
  8
4
  6
CONTINUOUS
 62
4
 10
-1.35826771407523
 20
-0.76771653686178
 30
0.0
 11
-1.35826771407523
 21
-0.88582677272967
 31
0.0
  0
LINE
  8
4
  6
CONTINUOUS
 62
4
 10
-0.649606297804902
 20
-0.53149606512597
 30
0.0
 11
-0.531496061937006
 21
-0.53149606512597
 31
0.0
  0
LINE
  8
4
  6
CONTINUOUS
 62
4
 10
-0.531496061937006
 20
-0.88582677272967
 30
0.0
 11
-0.649606297804902
 21
-0.88582677272967
 31
0.0
  0
LINE
  8
4
  6
CONTINUOUS
 62
4
 10
-0.531496061937006
 20
-0.64960630099386
 30
0.0
 11
-0.531496061937006
 21
-0.53149606512597
 31
0.0
  0
LINE
  8
4
  6
CONTINUOUS
 62
4
 10
-0.885826769540694
 20
-0.64960630099386
 30
0.0
 11
-0.885826769540694
 21
-0.53149606512597
 31
0.0
  0
LINE
  8
4
  6
CONTINUOUS
 62
4
 10
-0.885826769540694
 20
-0.64960630099386
 30
0.0
 11
-0.767716533672798
 21
-0.64960630099386
 31
0.0
  0
LINE
  8
4
  6
CONTINUOUS
 62
4
 10
-0.885826769540694
 20
-0.76771653686178
 30
0.0
 11
-0.767716533672798
 21
-0.76771653686178
 31
0.0
  0
LINE
  8
4
  6
CONTINUOUS
 62
4
 10
-0.649606297804902
 20
-0.53149606512597
 30
0.0
 11
-0.649606297804902
 21
-0.64960630099386
 31
0.0
  0
LINE
  8
4
  6
CONTINUOUS
 62
4
 10
-0.767716533672798
 20
-0.53149606512597
 30
0.0
 11
-0.767716533672798
 21
-0.64960630099386
 31
0.0
  0
LINE
  8
4
  6
CONTINUOUS
 62
4
 10
-0.767716533672798
 20
-0.88582677272967
 30
0.0
 11
-0.885826769540694
 21
-0.88582677272967
 31
0.0
  0
LINE
  8
4
  6
CONTINUOUS
 62
4
 10
-0.885826769540694
 20
-0.76771653686178
 30
0.0
 11
-0.885826769540694
 21
-0.88582677272967
 31
0.0
  0
LINE
  8
4
  6
CONTINUOUS
 62
4
 10
-0.767716533672798
 20
-0.53149606512597
 30
0.0
 11
-0.885826769540694
 21
-0.53149606512597
 31
0.0
  0
LINE
  8
4
  6
CONTINUOUS
 62
4
 10
-0.531496061937006
 20
-0.76771653686178
 30
0.0
 11
-0.531496061937006
 21
-0.88582677272967
 31
0.0
  0
LINE
  8
4
  6
CONTINUOUS
 62
4
 10
-0.649606297804902
 20
-0.76771653686178
 30
0.0
 11
-0.649606297804902
 21
-0.88582677272967
 31
0.0
  0
LINE
  8
4
  6
CONTINUOUS
 62
4
 10
-0.649606297804902
 20
-0.76771653686178
 30
0.0
 11
-0.531496061937006
 21
-0.76771653686178
 31
0.0
  0
LINE
  8
4
  6
CONTINUOUS
 62
4
 10
-0.649606297804902
 20
-0.64960630099386
 30
0.0
 11
-0.531496061937006
 21
-0.64960630099386
 31
0.0
  0
LINE
  8
4
  6
CONTINUOUS
 62
4
 10
-0.767716533672798
 20
-0.76771653686178
 30
0.0
 11
-0.767716533672798
 21
-0.88582677272967
 31
0.0
  0
LINE
  8
4
  6
CONTINUOUS
 62
4
 10
1.47637795313211
 20
-1.594488189
 30
0.0
 11
1.594488189
 21
-1.594488189
 31
0.0
  0
LINE
  8
4
  6
CONTINUOUS
 62
4
 10
1.594488189
 20
-1.24015748139633
 30
0.0
 11
1.47637795313211
 21
-1.24015748139633
 31
0.0
  0
LINE
  8
4
  6
CONTINUOUS
 62
4
 10
1.594488189
 20
-1.47637795313211
 30
0.0
 11
1.594488189
 21
-1.594488189
 31
0.0
  0
LINE
  8
4
  6
CONTINUOUS
 62
4
 10
1.24015748139633
 20
-1.47637795313211
 30
0.0
 11
1.24015748139633
 21
-1.594488189
 31
0.0
  0
LINE
  8
4
  6
CONTINUOUS
 62
4
 10
1.24015748139633
 20
-1.47637795313211
 30
0.0
 11
1.35826771726422
 21
-1.47637795313211
 31
0.0
  0
LINE
  8
4
  6
CONTINUOUS
 62
4
 10
1.24015748139633
 20
-1.35826771726422
 30
0.0
 11
1.35826771726422
 21
-1.35826771726422
 31
0.0
  0
LINE
  8
4
  6
CONTINUOUS
 62
4
 10
1.47637795313211
 20
-1.594488189
 30
0.0
 11
1.47637795313211
 21
-1.47637795313211
 31
0.0
  0
LINE
  8
4
  6
CONTINUOUS
 62
4
 10
1.35826771726422
 20
-1.594488189
 30
0.0
 11
1.35826771726422
 21
-1.47637795313211
 31
0.0
  0
LINE
  8
4
  6
CONTINUOUS
 62
4
 10
1.35826771726422
 20
-1.24015748139633
 30
0.0
 11
1.24015748139633
 21
-1.24015748139633
 31
0.0
  0
LINE
  8
4
  6
CONTINUOUS
 62
4
 10
1.24015748139633
 20
-1.35826771726422
 30
0.0
 11
1.24015748139633
 21
-1.24015748139633
 31
0.0
  0
LINE
  8
4
  6
CONTINUOUS
 62
4
 10
1.35826771726422
 20
-1.594488189
 30
0.0
 11
1.24015748139633
 21
-1.594488189
 31
0.0
  0
LINE
  8
4
  6
CONTINUOUS
 62
4
 10
1.594488189
 20
-1.35826771726422
 30
0.0
 11
1.594488189
 21
-1.24015748139633
 31
0.0
  0
LINE
  8
4
  6
CONTINUOUS
 62
4
 10
1.47637795313211
 20
-1.35826771726422
 30
0.0
 11
1.47637795313211
 21
-1.24015748139633
 31
0.0
  0
LINE
  8
4
  6
CONTINUOUS
 62
4
 10
1.47637795313211
 20
-1.35826771726422
 30
0.0
 11
1.594488189
 21
-1.35826771726422
 31
0.0
  0
LINE
  8
4
  6
CONTINUOUS
 62
4
 10
1.47637795313211
 20
-1.47637795313211
 30
0.0
 11
1.594488189
 21
-1.47637795313211
 31
0.0
  0
LINE
  8
4
  6
CONTINUOUS
 62
4
 10
1.35826771726422
 20
-1.35826771726422
 30
0.0
 11
1.35826771726422
 21
-1.24015748139633
 31
0.0
  0
LINE
  8
4
  6
CONTINUOUS
 62
4
 10
0.64960630099389
 20
-1.594488189
 30
0.0
 11
0.53149606512597
 21
-1.594488189
 31
0.0
  0
LINE
  8
4
  6
CONTINUOUS
 62
4
 10
0.53149606512597
 20
-1.24015748139633
 30
0.0
 11
0.64960630099389
 21
-1.24015748139633
 31
0.0
  0
LINE
  8
4
  6
CONTINUOUS
 62
4
 10
0.53149606512597
 20
-1.47637795313211
 30
0.0
 11
0.53149606512597
 21
-1.594488189
 31
0.0
  0
LINE
  8
4
  6
CONTINUOUS
 62
4
 10
0.88582677272967
 20
-1.47637795313211
 30
0.0
 11
0.88582677272967
 21
-1.594488189
 31
0.0
  0
LINE
  8
4
  6
CONTINUOUS
 62
4
 10
0.88582677272967
 20
-1.47637795313211
 30
0.0
 11
0.76771653686175
 21
-1.47637795313211
 31
0.0
  0
LINE
  8
4
  6
CONTINUOUS
 62
4
 10
0.88582677272967
 20
-1.35826771726422
 30
0.0
 11
0.76771653686175
 21
-1.35826771726422
 31
0.0
  0
LINE
  8
4
  6
CONTINUOUS
 62
4
 10
0.64960630099389
 20
-1.594488189
 30
0.0
 11
0.64960630099389
 21
-1.47637795313211
 31
0.0
  0
LINE
  8
4
  6
CONTINUOUS
 62
4
 10
0.76771653686175
 20
-1.594488189
 30
0.0
 11
0.76771653686175
 21
-1.47637795313211
 31
0.0
  0
LINE
  8
4
  6
CONTINUOUS
 62
4
 10
0.76771653686175
 20
-1.24015748139633
 30
0.0
 11
0.88582677272967
 21
-1.24015748139633
 31
0.0
  0
LINE
  8
4
  6
CONTINUOUS
 62
4
 10
0.88582677272967
 20
-1.35826771726422
 30
0.0
 11
0.88582677272967
 21
-1.24015748139633
 31
0.0
  0
LINE
  8
4
  6
CONTINUOUS
 62
4
 10
0.76771653686175
 20
-1.594488189
 30
0.0
 11
0.88582677272967
 21
-1.594488189
 31
0.0
  0
LINE
  8
4
  6
CONTINUOUS
 62
4
 10
0.53149606512597
 20
-1.35826771726422
 30
0.0
 11
0.53149606512597
 21
-1.24015748139633
 31
0.0
  0
LINE
  8
4
  6
CONTINUOUS
 62
4
 10
0.64960630099389
 20
-1.35826771726422
 30
0.0
 11
0.64960630099389
 21
-1.24015748139633
 31
0.0
  0
LINE
  8
4
  6
CONTINUOUS
 62
4
 10
0.64960630099389
 20
-1.35826771726422
 30
0.0
 11
0.53149606512597
 21
-1.35826771726422
 31
0.0
  0
LINE
  8
4
  6
CONTINUOUS
 62
4
 10
0.64960630099389
 20
-1.47637795313211
 30
0.0
 11
0.53149606512597
 21
-1.47637795313211
 31
0.0
  0
LINE
  8
4
  6
CONTINUOUS
 62
4
 10
0.76771653686175
 20
-1.35826771726422
 30
0.0
 11
0.76771653686175
 21
-1.24015748139633
 31
0.0
  0
LINE
  8
4
  6
CONTINUOUS
 62
4
 10
1.47637795313211
 20
-0.53149606512597
 30
0.0
 11
1.594488189
 21
-0.53149606512597
 31
0.0
  0
LINE
  8
4
  6
CONTINUOUS
 62
4
 10
1.594488189
 20
-0.88582677272967
 30
0.0
 11
1.47637795313211
 21
-0.88582677272967
 31
0.0
  0
LINE
  8
4
  6
CONTINUOUS
 62
4
 10
1.594488189
 20
-0.64960630099386
 30
0.0
 11
1.594488189
 21
-0.53149606512597
 31
0.0
  0
LINE
  8
4
  6
CONTINUOUS
 62
4
 10
1.24015748139633
 20
-0.64960630099386
 30
0.0
 11
1.24015748139633
 21
-0.53149606512597
 31
0.0
  0
LINE
  8
4
  6
CONTINUOUS
 62
4
 10
1.24015748139633
 20
-0.64960630099386
 30
0.0
 11
1.35826771726422
 21
-0.64960630099386
 31
0.0
  0
LINE
  8
4
  6
CONTINUOUS
 62
4
 10
1.24015748139633
 20
-0.76771653686178
 30
0.0
 11
1.35826771726422
 21
-0.76771653686178
 31
0.0
  0
LINE
  8
4
  6
CONTINUOUS
 62
4
 10
1.47637795313211
 20
-0.53149606512597
 30
0.0
 11
1.47637795313211
 21
-0.64960630099386
 31
0.0
  0
LINE
  8
4
  6
CONTINUOUS
 62
4
 10
1.35826771726422
 20
-0.53149606512597
 30
0.0
 11
1.35826771726422
 21
-0.64960630099386
 31
0.0
  0
LINE
  8
4
  6
CONTINUOUS
 62
4
 10
1.35826771726422
 20
-0.88582677272967
 30
0.0
 11
1.24015748139633
 21
-0.88582677272967
 31
0.0
  0
LINE
  8
4
  6
CONTINUOUS
 62
4
 10
1.24015748139633
 20
-0.76771653686178
 30
0.0
 11
1.24015748139633
 21
-0.88582677272967
 31
0.0
  0
LINE
  8
4
  6
CONTINUOUS
 62
4
 10
1.35826771726422
 20
-0.53149606512597
 30
0.0
 11
1.24015748139633
 21
-0.53149606512597
 31
0.0
  0
LINE
  8
4
  6
CONTINUOUS
 62
4
 10
1.594488189
 20
-0.76771653686178
 30
0.0
 11
1.594488189
 21
-0.88582677272967
 31
0.0
  0
LINE
  8
4
  6
CONTINUOUS
 62
4
 10
1.47637795313211
 20
-0.76771653686178
 30
0.0
 11
1.47637795313211
 21
-0.88582677272967
 31
0.0
  0
LINE
  8
4
  6
CONTINUOUS
 62
4
 10
1.47637795313211
 20
-0.76771653686178
 30
0.0
 11
1.594488189
 21
-0.76771653686178
 31
0.0
  0
LINE
  8
4
  6
CONTINUOUS
 62
4
 10
1.47637795313211
 20
-0.64960630099386
 30
0.0
 11
1.594488189
 21
-0.64960630099386
 31
0.0
  0
LINE
  8
4
  6
CONTINUOUS
 62
4
 10
1.35826771726422
 20
-0.76771653686178
 30
0.0
 11
1.35826771726422
 21
-0.88582677272967
 31
0.0
  0
LINE
  8
4
  6
CONTINUOUS
 62
4
 10
0.64960630099389
 20
-0.53149606512597
 30
0.0
 11
0.53149606512597
 21
-0.53149606512597
 31
0.0
  0
LINE
  8
4
  6
CONTINUOUS
 62
4
 10
0.53149606512597
 20
-0.88582677272967
 30
0.0
 11
0.64960630099389
 21
-0.88582677272967
 31
0.0
  0
LINE
  8
4
  6
CONTINUOUS
 62
4
 10
0.53149606512597
 20
-0.64960630099386
 30
0.0
 11
0.53149606512597
 21
-0.53149606512597
 31
0.0
  0
LINE
  8
4
  6
CONTINUOUS
 62
4
 10
0.88582677272967
 20
-0.64960630099386
 30
0.0
 11
0.88582677272967
 21
-0.53149606512597
 31
0.0
  0
LINE
  8
4
  6
CONTINUOUS
 62
4
 10
0.88582677272967
 20
-0.64960630099386
 30
0.0
 11
0.76771653686175
 21
-0.64960630099386
 31
0.0
  0
LINE
  8
4
  6
CONTINUOUS
 62
4
 10
0.88582677272967
 20
-0.76771653686178
 30
0.0
 11
0.76771653686175
 21
-0.76771653686178
 31
0.0
  0
LINE
  8
4
  6
CONTINUOUS
 62
4
 10
0.64960630099389
 20
-0.53149606512597
 30
0.0
 11
0.64960630099389
 21
-0.64960630099386
 31
0.0
  0
LINE
  8
4
  6
CONTINUOUS
 62
4
 10
0.76771653686175
 20
-0.53149606512597
 30
0.0
 11
0.76771653686175
 21
-0.64960630099386
 31
0.0
  0
LINE
  8
4
  6
CONTINUOUS
 62
4
 10
0.76771653686175
 20
-0.88582677272967
 30
0.0
 11
0.88582677272967
 21
-0.88582677272967
 31
0.0
  0
LINE
  8
4
  6
CONTINUOUS
 62
4
 10
0.88582677272967
 20
-0.76771653686178
 30
0.0
 11
0.88582677272967
 21
-0.88582677272967
 31
0.0
  0
LINE
  8
4
  6
CONTINUOUS
 62
4
 10
0.76771653686175
 20
-0.53149606512597
 30
0.0
 11
0.88582677272967
 21
-0.53149606512597
 31
0.0
  0
LINE
  8
4
  6
CONTINUOUS
 62
4
 10
0.53149606512597
 20
-0.76771653686178
 30
0.0
 11
0.53149606512597
 21
-0.88582677272967
 31
0.0
  0
LINE
  8
4
  6
CONTINUOUS
 62
4
 10
0.64960630099389
 20
-0.76771653686178
 30
0.0
 11
0.64960630099389
 21
-0.88582677272967
 31
0.0
  0
LINE
  8
4
  6
CONTINUOUS
 62
4
 10
0.64960630099389
 20
-0.76771653686178
 30
0.0
 11
0.53149606512597
 21
-0.76771653686178
 31
0.0
  0
LINE
  8
4
  6
CONTINUOUS
 62
4
 10
0.64960630099389
 20
-0.64960630099386
 30
0.0
 11
0.53149606512597
 21
-0.64960630099386
 31
0.0
  0
LINE
  8
4
  6
CONTINUOUS
 62
4
 10
0.76771653686175
 20
-0.76771653686178
 30
0.0
 11
0.76771653686175
 21
-0.88582677272967
 31
0.0
  0
ENDSEC
  0
EOF
