  0
SECTION
  2
HEADER
  9
$ACADVER
  1
AC1003
  9
$EXTMIN
 10
-0.3937007875
 20
0.590551181
  9
$EXTMAX
 10
1.64082697050897
 20
-0.756834026430795
  9
$INSUNITS
 70
1
  9
$INSBASE
 10
0.623563091504485
 20
-0.0831414227153975
999
Created with OMAX LAYOUT for Windows. (www.omax.com) 4/2/2024
  0
ENDSEC
  0
SECTION
  2
TABLES
  0
TABLE
  2
LAYER
 70
    10
  0
LAYER
  2
0
 70
     0
 62
     7
  6
CONTINUOUS
  0
LAYER
  2
1
 70
     0
 62
     7
  6
CONTINUOUS
  0
LAYER
  2
2
 70
     0
 62
     7
  6
CONTINUOUS
  0
LAYER
  2
3
 70
     0
 62
     7
  6
CONTINUOUS
  0
LAYER
  2
4
 70
     0
 62
     7
  6
CONTINUOUS
  0
LAYER
  2
5
 70
     0
 62
     7
  6
CONTINUOUS
  0
LAYER
  2
6
 70
     0
 62
     7
  6
CONTINUOUS
  0
LAYER
  2
7
 70
     0
 62
     7
  6
CONTINUOUS
  0
LAYER
  2
8
 70
     0
 62
     7
  6
CONTINUOUS
  0
LAYER
  2
9
 70
     0
 62
     7
  6
CONTINUOUS
  0
LAYER
  2
10
 70
     0
 62
     7
  6
CONTINUOUS
  0
LAYER
  2
11
 70
     0
 62
     7
  6
CONTINUOUS
  0
LAYER
  2
12
 70
     0
 62
     7
  6
CONTINUOUS
  0
LAYER
  2
13
 70
     0
 62
     7
  6
CONTINUOUS
  0
LAYER
  2
14
 70
     0
 62
     7
  6
CONTINUOUS
  0
LAYER
  2
15
 70
     0
 62
     7
  6
CONTINUOUS
  0
LAYER
  2
16
 70
     0
 62
     7
  6
CONTINUOUS
  0
LAYER
  2
17
 70
     0
 62
     7
  6
CONTINUOUS
  0
LAYER
  2
18
 70
     0
 62
     7
  6
CONTINUOUS
  0
LAYER
  2
19
 70
     0
 62
     7
  6
CONTINUOUS
  0
LAYER
  2
20
 70
     0
 62
     7
  6
CONTINUOUS
  0
LAYER
  2
21
 70
     0
 62
     7
  6
CONTINUOUS
  0
LAYER
  2
22
 70
     0
 62
     7
  6
CONTINUOUS
  0
LAYER
  2
23
 70
     0
 62
     7
  6
CONTINUOUS
  0
LAYER
  2
24
 70
     0
 62
     7
  6
CONTINUOUS
  0
LAYER
  2
25
 70
     0
 62
     7
  6
CONTINUOUS
  0
LAYER
  2
26
 70
     0
 62
     7
  6
CONTINUOUS
  0
LAYER
  2
27
 70
     0
 62
     7
  6
CONTINUOUS
  0
LAYER
  2
28
 70
     0
 62
     7
  6
CONTINUOUS
  0
LAYER
  2
29
 70
     0
 62
     7
  6
CONTINUOUS
  0
LAYER
  2
30
 70
     0
 62
     7
  6
CONTINUOUS
  0
LAYER
  2
31
 70
     0
 62
     7
  6
CONTINUOUS
  0
ENDTAB
  0
ENDSEC
  0
SECTION
  2
ENTITIES
  0
LINE
  8
0
  6
CONTINUOUS
 62
0
 10
1.04043326950897
 20
-0.630849774430794
 30
0.0
 11
1.45381909650897
 21
-0.630849774430796
 31
0.0
  0
LINE
  8
0
  6
CONTINUOUS
 62
0
 10
-0.3937007875
 20
-0.590551181
 30
0.0
 11
0.3937007875
 21
0.590551181
 31
0.0
  0
LINE
  8
3
  6
CONTINUOUS
 62
3
 10
-0.31496063
 20
-0.472440945
 30
0.0
 11
-0.098425197
 21
-0.472440945
 31
0.0
  0
LINE
  8
3
  6
CONTINUOUS
 62
3
 10
-0.31496063
 20
-0.381889764
 30
0.0
 11
-0.098425197
 21
-0.381889764
 31
0.0
  0
LINE
  8
3
  6
CONTINUOUS
 62
3
 10
-0.31496063
 20
-0.472440945
 30
0.0
 11
-0.31496063
 21
-0.381889764
 31
0.0
  0
LINE
  8
3
  6
CONTINUOUS
 62
3
 10
-0.098425197
 20
-0.472440945
 30
0.0
 11
-0.098425197
 21
-0.381889764
 31
0.0
  0
LINE
  8
3
  6
CONTINUOUS
 62
3
 10
0.31496063
 20
-0.472440945
 30
0.0
 11
0.098425197
 21
-0.472440945
 31
0.0
  0
LINE
  8
3
  6
CONTINUOUS
 62
3
 10
0.31496063
 20
-0.381889764
 30
0.0
 11
0.098425197
 21
-0.381889764
 31
0.0
  0
LINE
  8
3
  6
CONTINUOUS
 62
3
 10
0.31496063
 20
-0.472440945
 30
0.0
 11
0.31496063
 21
-0.381889764
 31
0.0
  0
LINE
  8
3
  6
CONTINUOUS
 62
3
 10
0.098425197
 20
-0.472440945
 30
0.0
 11
0.098425197
 21
-0.381889764
 31
0.0
  0
LINE
  8
3
  6
CONTINUOUS
 62
3
 10
0.31496063
 20
0.472440945
 30
0.0
 11
0.098425197
 21
0.472440945
 31
0.0
  0
LINE
  8
3
  6
CONTINUOUS
 62
3
 10
0.31496063
 20
0.381889764
 30
0.0
 11
0.098425197
 21
0.381889764
 31
0.0
  0
LINE
  8
3
  6
CONTINUOUS
 62
3
 10
0.31496063
 20
0.472440945
 30
0.0
 11
0.31496063
 21
0.381889764
 31
0.0
  0
LINE
  8
3
  6
CONTINUOUS
 62
3
 10
0.098425197
 20
0.472440945
 30
0.0
 11
0.098425197
 21
0.381889764
 31
0.0
  0
LINE
  8
3
  6
CONTINUOUS
 62
3
 10
-0.31496063
 20
0.472440945
 30
0.0
 11
-0.098425197
 21
0.472440945
 31
0.0
  0
LINE
  8
3
  6
CONTINUOUS
 62
3
 10
-0.31496063
 20
0.381889764
 30
0.0
 11
-0.098425197
 21
0.381889764
 31
0.0
  0
LINE
  8
3
  6
CONTINUOUS
 62
3
 10
-0.31496063
 20
0.472440945
 30
0.0
 11
-0.31496063
 21
0.381889764
 31
0.0
  0
LINE
  8
3
  6
CONTINUOUS
 62
3
 10
-0.098425197
 20
0.472440945
 30
0.0
 11
-0.098425197
 21
0.381889764
 31
0.0
  0
ARC
  8
3
  6
CONTINUOUS
 62
3
 10
1.45381909650897
 20
-0.630849774430794
 30
0.0
 40
0.066929133999999
 50
359.999999999999
 51
45.0000000000004
  0
ARC
  8
3
  6
CONTINUOUS
 62
3
 10
1.45381909650897
 20
-0.630849774430795
 30
0.0
 40
0.066929134
 50
180
 51
1.52666624710249E-13
  0
LINE
  8
3
  6
CONTINUOUS
 62
3
 10
1.45381909650897
 20
-0.536197685410109
 30
0.0
 11
1.40649305199863
 21
-0.583523729920452
 31
0.0
  0
LINE
  8
3
  6
CONTINUOUS
 62
3
 10
1.45381909650897
 20
-0.536197685410109
 30
0.0
 11
1.50114514101931
 21
-0.583523729920452
 31
0.0
  0
ARC
  8
3
  6
CONTINUOUS
 62
3
 10
1.45381909650897
 20
-0.630849774430795
 30
0.0
 40
0.0669291339999997
 50
135
 51
180
  0
ARC
  8
3
  6
CONTINUOUS
 62
3
 10
1.04043326950897
 20
-0.630849774430795
 30
0.0
 40
0.0669291339999994
 50
135
 51
180
  0
ARC
  8
3
  6
CONTINUOUS
 62
3
 10
1.04043326950897
 20
-0.630849774430794
 30
0.0
 40
0.0669291339999991
 50
359.999999999999
 51
45.0000000000003
  0
ARC
  8
3
  6
CONTINUOUS
 62
3
 10
1.04043326950897
 20
-0.630849774430796
 30
0.0
 40
0.066929134
 50
179.999999999999
 51
359.999999999999
  0
LINE
  8
3
  6
CONTINUOUS
 62
3
 10
1.04043326950897
 20
-0.536197685410109
 30
0.0
 11
0.993107224998627
 21
-0.583523729920452
 31
0.0
  0
LINE
  8
3
  6
CONTINUOUS
 62
3
 10
1.04043326950897
 20
-0.536197685410109
 30
0.0
 11
1.08775931401931
 21
-0.583523729920452
 31
0.0
  0
LINE
  8
4
  6
CONTINUOUS
 62
4
 10
-0.3937007875
 20
-0.590551181
 30
0.0
 11
0.3937007875
 21
-0.590551181
 31
0.0
  0
LINE
  8
4
  6
CONTINUOUS
 62
4
 10
-0.3937007875
 20
0.590551181
 30
0.0
 11
0.3937007875
 21
0.590551181
 31
0.0
  0
LINE
  8
4
  6
CONTINUOUS
 62
4
 10
-0.3937007875
 20
-0.590551181
 30
0.0
 11
-0.3937007875
 21
0.590551181
 31
0.0
  0
LINE
  8
4
  6
CONTINUOUS
 62
4
 10
0.3937007875
 20
-0.590551181
 30
0.0
 11
0.3937007875
 21
0.590551181
 31
0.0
  0
LINE
  8
4
  6
CONTINUOUS
 62
4
 10
0.85342539550897
 20
-0.504865522430795
 30
0.0
 11
1.64082697050897
 21
-0.504865522430795
 31
0.0
  0
LINE
  8
4
  6
CONTINUOUS
 62
4
 10
0.85342539550897
 20
-0.504865522430795
 30
0.0
 11
0.85342539550897
 21
-0.756834026430795
 31
0.0
  0
LINE
  8
4
  6
CONTINUOUS
 62
4
 10
1.64082697050897
 20
-0.756834026430795
 30
0.0
 11
0.85342539550897
 21
-0.756834026430795
 31
0.0
  0
LINE
  8
4
  6
CONTINUOUS
 62
4
 10
1.64082697050897
 20
-0.756834026430795
 30
0.0
 11
1.64082697050897
 21
-0.504865522430795
 31
0.0
  0
ENDSEC
  0
EOF
