  0
SECTION
  2
HEADER
  9
$ACADVER
  1
AC1003
  9
$EXTMIN
 10
1.25757460297356
 20
0.667268188485899
  9
$EXTMAX
 10
3.77117139375834
 20
-0.520208331342651
  9
$INSUNITS
 70
1
  9
$INSBASE
 10
2.51437299836595
 20
0.0735299285716239
999
Created with OMAX LAYOUT for Windows. (www.omax.com) 3/8/2024
  0
ENDSEC
  0
SECTION
  2
TABLES
  0
TABLE
  2
LAYER
 70
    10
  0
LAYER
  2
0
 70
     0
 62
     7
  6
CONTINUOUS
  0
LAYER
  2
1
 70
     0
 62
     7
  6
CONTINUOUS
  0
LAYER
  2
2
 70
     0
 62
     7
  6
CONTINUOUS
  0
LAYER
  2
3
 70
     0
 62
     7
  6
CONTINUOUS
  0
LAYER
  2
4
 70
     0
 62
     7
  6
CONTINUOUS
  0
LAYER
  2
5
 70
     0
 62
     7
  6
CONTINUOUS
  0
LAYER
  2
6
 70
     0
 62
     7
  6
CONTINUOUS
  0
LAYER
  2
7
 70
     0
 62
     7
  6
CONTINUOUS
  0
LAYER
  2
8
 70
     0
 62
     7
  6
CONTINUOUS
  0
LAYER
  2
9
 70
     0
 62
     7
  6
CONTINUOUS
  0
LAYER
  2
10
 70
     0
 62
     7
  6
CONTINUOUS
  0
LAYER
  2
11
 70
     0
 62
     7
  6
CONTINUOUS
  0
LAYER
  2
12
 70
     0
 62
     7
  6
CONTINUOUS
  0
LAYER
  2
13
 70
     0
 62
     7
  6
CONTINUOUS
  0
LAYER
  2
14
 70
     0
 62
     7
  6
CONTINUOUS
  0
LAYER
  2
15
 70
     0
 62
     7
  6
CONTINUOUS
  0
LAYER
  2
16
 70
     0
 62
     7
  6
CONTINUOUS
  0
LAYER
  2
17
 70
     0
 62
     7
  6
CONTINUOUS
  0
LAYER
  2
18
 70
     0
 62
     7
  6
CONTINUOUS
  0
LAYER
  2
19
 70
     0
 62
     7
  6
CONTINUOUS
  0
LAYER
  2
20
 70
     0
 62
     7
  6
CONTINUOUS
  0
LAYER
  2
21
 70
     0
 62
     7
  6
CONTINUOUS
  0
LAYER
  2
22
 70
     0
 62
     7
  6
CONTINUOUS
  0
LAYER
  2
23
 70
     0
 62
     7
  6
CONTINUOUS
  0
LAYER
  2
24
 70
     0
 62
     7
  6
CONTINUOUS
  0
LAYER
  2
25
 70
     0
 62
     7
  6
CONTINUOUS
  0
LAYER
  2
26
 70
     0
 62
     7
  6
CONTINUOUS
  0
LAYER
  2
27
 70
     0
 62
     7
  6
CONTINUOUS
  0
LAYER
  2
28
 70
     0
 62
     7
  6
CONTINUOUS
  0
LAYER
  2
29
 70
     0
 62
     7
  6
CONTINUOUS
  0
LAYER
  2
30
 70
     0
 62
     7
  6
CONTINUOUS
  0
LAYER
  2
31
 70
     0
 62
     7
  6
CONTINUOUS
  0
ENDTAB
  0
ENDSEC
  0
SECTION
  2
ENTITIES
  0
ARC
  8
6
  6
CONTINUOUS
 62
6
 10
1.66473223757992
 20
0.258361171118911
 30
0.0
 40
0.459595606028884
 50
291.509260502616
 51
303.462532137865
  0
ARC
  8
6
  6
CONTINUOUS
 62
6
 10
1.29349537464542
 20
-0.0939931103788071
 30
0.0
 40
0.544966475767752
 50
344.332146917888
 51
352.064796538297
  0
ARC
  8
6
  6
CONTINUOUS
 62
6
 10
1.49214465228115
 20
-0.155628969456137
 30
0.0
 40
0.337101096034421
 50
322.533530209788
 51
345.300729001437
  0
ARC
  8
6
  6
CONTINUOUS
 62
6
 10
1.42126216018277
 20
-0.114122193930821
 30
0.0
 40
0.418733249682508
 50
300.602518337295
 51
323.925690838569
  0
ARC
  8
6
  6
CONTINUOUS
 62
6
 10
1.47533911165541
 20
-0.220299150746335
 30
0.0
 40
0.299909180596315
 50
267.258620393269
 51
302.036908311754
  0
ARC
  8
6
  6
CONTINUOUS
 62
6
 10
1.46099510125237
 20
-0.296057658294186
 30
0.0
 40
0.223807455090615
 50
230.249027827634
 51
269.999999999995
  0
ARC
  8
6
  6
CONTINUOUS
 62
6
 10
1.42203503717396
 20
-0.340851827941069
 30
0.0
 40
0.164460434200397
 50
178.980191038707
 51
230.705412171477
  0
ARC
  8
6
  6
CONTINUOUS
 62
6
 10
1.4753691813812
 20
-0.344364194254264
 30
0.0
 40
0.217863715018105
 50
142.85975009936
 51
178.306249035584
  0
ARC
  8
6
  6
CONTINUOUS
 62
6
 10
1.5099552654112
 20
-0.36842188766663
 30
0.0
 40
0.259965211506116
 50
119.445650305835
 51
143.235342729203
  0
ARC
  8
6
  6
CONTINUOUS
 62
6
 10
1.50380461127539
 20
-0.352789330800941
 30
0.0
 40
0.243339526825392
 50
89.8601092892924
 51
119.993989373552
  0
ARC
  8
6
  6
CONTINUOUS
 62
6
 10
1.51022505456255
 20
-0.271985097639794
 30
0.0
 40
0.162638961781448
 50
61.1463798591857
 51
92.0529818690968
  0
ARC
  8
6
  6
CONTINUOUS
 62
6
 10
1.69920962946205
 20
0.0365050806242286
 30
0.0
 40
0.199449316586406
 50
236.356619657339
 51
273.179346895853
  0
ARC
  8
6
  6
CONTINUOUS
 62
6
 10
1.59716175293527
 20
-0.167896554761977
 30
0.0
 40
0.113231860579034
 50
345.263651590681
 51
2.66218841367677
  0
ARC
  8
6
  6
CONTINUOUS
 62
6
 10
1.70308787618535
 20
0.168163256704223
 30
0.0
 40
0.364880347025007
 50
240.429781327592
 51
270.562344009516
  0
ARC
  8
6
  6
CONTINUOUS
 62
6
 10
1.46679930469878
 20
-0.261740514198714
 30
0.0
 40
0.12581052451584
 50
63.4554938952273
 51
105.04748111104
  0
ARC
  8
6
  6
CONTINUOUS
 62
6
 10
1.4861547144124
 20
-0.327405916641103
 30
0.0
 40
0.194256321306345
 50
105.53230064636
 51
120.423843819531
  0
ARC
  8
6
  6
CONTINUOUS
 62
6
 10
1.49947710982477
 20
-0.317140190623844
 30
0.0
 40
0.192873685493941
 50
125.386981735159
 51
179.620546200157
  0
ARC
  8
6
  6
CONTINUOUS
 62
6
 10
1.48527740355398
 20
-0.324640827827435
 30
0.0
 40
0.17888524880716
 50
177.187341970154
 51
225.129331670967
  0
ARC
  8
6
  6
CONTINUOUS
 62
6
 10
1.49879315339586
 20
-0.277553539938153
 30
0.0
 40
0.22304803657443
 50
231.213800350071
 51
267.336432393114
  0
ARC
  8
6
  6
CONTINUOUS
 62
6
 10
1.48720413516891
 20
-0.269457780870255
 30
0.0
 40
0.230906062930966
 50
270.30364123867
 51
324.383980280846
  0
ARC
  8
6
  6
CONTINUOUS
 62
6
 10
1.27625169869733
 20
-0.158770212721625
 30
0.0
 40
0.468011680933354
 50
328.410886544491
 51
345.096639814964
  0
ARC
  8
6
  6
CONTINUOUS
 62
6
 10
1.22946734739009
 20
-0.150820853212119
 30
0.0
 40
0.515285110548852
 50
345.580387068674
 51
7.29643484676933
  0
ARC
  8
6
  6
CONTINUOUS
 62
6
 10
0.363576057789864
 20
-0.195791198221666
 30
0.0
 40
1.38142336222721
 50
4.58437044219516
 51
9.50326659727403
  0
ARC
  8
6
  6
CONTINUOUS
 62
6
 10
2.79211180876309
 20
0.231076621044382
 30
0.0
 40
1.08444648687769
 50
181.50927372029
 51
190.562598116122
  0
ARC
  8
6
  6
CONTINUOUS
 62
6
 10
2.28697719717647
 20
0.204284911197845
 30
0.0
 40
0.578938363221839
 50
156.458976738207
 51
180.175295973014
  0
ARC
  8
6
  6
CONTINUOUS
 62
6
 10
2.26490629462013
 20
0.2484006601894
 30
0.0
 40
0.542007892822242
 50
140.427201209746
 51
159.804380361254
  0
ARC
  8
6
  6
CONTINUOUS
 62
6
 10
2.13466703822745
 20
-0.375128395091352
 30
0.0
 40
1.01059180552202
 50
106.53106934798
 51
123.79533115566
  0
ARC
  8
6
  6
CONTINUOUS
 62
6
 10
1.72767989937733
 20
0.234751453789982
 30
0.0
 40
0.277387729469294
 50
124.004726142344
 51
177.285010035863
  0
ARC
  8
6
  6
CONTINUOUS
 62
6
 10
1.60351844958279
 20
0.242333811498957
 30
0.0
 40
0.153015851020654
 50
177.918803673205
 51
217.951903671218
  0
ARC
  8
6
  6
CONTINUOUS
 62
6
 10
1.56786355238438
 20
0.230864809017271
 30
0.0
 40
0.118549769037563
 50
224.191202301535
 51
272.262854514683
  0
ARC
  8
6
  6
CONTINUOUS
 62
6
 10
1.57098870199294
 20
0.232694805165136
 30
0.0
 40
0.120297379699893
 50
270.740961678544
 51
292.593137529155
  0
ARC
  8
6
  6
CONTINUOUS
 62
6
 10
1.52036418743603
 20
0.346255719232512
 30
0.0
 40
0.244612152413855
 50
293.321856793063
 51
306.369160365018
  0
LINE
  8
6
  6
CONTINUOUS
 62
6
 10
1.66541566260244
 20
0.149290812052102
 30
0.0
 11
1.64623921561786
 21
0.0925163096196031
 31
0.0
  0
ARC
  8
6
  6
CONTINUOUS
 62
6
 10
1.58390517859733
 20
0.113781883971347
 30
0.0
 40
0.06586164911226
 50
298.557830534719
 51
341.162663458902
  0
ARC
  8
6
  6
CONTINUOUS
 62
6
 10
1.56200704660972
 20
0.157599681499539
 30
0.0
 40
0.114829438744589
 50
268.85675220936
 51
297.703070351296
  0
ARC
  8
6
  6
CONTINUOUS
 62
6
 10
1.55775063547631
 20
0.178863492340438
 30
0.0
 40
0.136084583498532
 50
219.417233445987
 51
270.827489157604
  0
ARC
  8
6
  6
CONTINUOUS
 62
6
 10
1.60023189605582
 20
0.212442598197434
 30
0.0
 40
0.190227458057704
 50
178.531937746345
 51
219.106176349917
  0
ARC
  8
6
  6
CONTINUOUS
 62
6
 10
1.7514139130135
 20
0.196685581419584
 30
0.0
 40
0.341969910295535
 50
128.147112405579
 51
176.541321578262
  0
ARC
  8
6
  6
CONTINUOUS
 62
6
 10
2.12541233928787
 20
-0.285562634446532
 30
0.0
 40
0.95224288543952
 50
103.558268352181
 51
127.921248796684
  0
LINE
  8
6
  6
CONTINUOUS
 62
6
 10
1.90217411786791
 20
0.640143155406509
 30
0.0
 11
1.9099638108999
 21
0.64510885532773
 31
0.0
  0
ARC
  8
6
  6
CONTINUOUS
 62
6
 10
1.9871920688685
 20
0.558557113889327
 30
0.0
 40
0.115997447277447
 50
110.970861403462
 51
131.741846846659
  0
ARC
  8
6
  6
CONTINUOUS
 62
6
 10
1.94794435783307
 20
0.660597185786714
 30
0.0
 40
0.00667100269918416
 50
354.915377919538
 51
109.866244355335
  0
ARC
  8
6
  6
CONTINUOUS
 62
6
 10
1.93492868168309
 20
0.662842026756892
 30
0.0
 40
0.0198639301293077
 50
302.960604945961
 51
351.791547275285
  0
ARC
  8
6
  6
CONTINUOUS
 62
6
 10
1.89743606251254
 20
0.718474840803981
 30
0.0
 40
0.0869488226975693
 50
284.959392248743
 51
303.744972514271
  0
ARC
  8
6
  6
CONTINUOUS
 62
6
 10
2.23720086564623
 20
0.337976604981639
 30
0.0
 40
0.434283524524869
 50
136.943051659284
 51
160.635983602446
  0
ARC
  8
6
  6
CONTINUOUS
 62
6
 10
2.36462864794613
 20
0.291022830075146
 30
0.0
 40
0.570074930186722
 50
160.430289457676
 51
180.270604583973
  0
ARC
  8
6
  6
CONTINUOUS
 62
6
 10
3.11479350732647
 20
0.344800092171526
 30
0.0
 40
1.32144055433111
 50
182.449190777823
 51
190.73802475686
  0
ARC
  8
6
  6
CONTINUOUS
 62
6
 10
0.79186999438451
 20
-0.116490137883606
 30
0.0
 40
1.04695301256829
 50
1.58116935974075
 51
11.8549849346828
  0
ARC
  8
6
  6
CONTINUOUS
 62
6
 10
1.29349537464543
 20
-0.0939931103793267
 30
0.0
 40
0.544966475767716
 50
355.7485258776
 51
0.672011212688726
  0
ARC
  8
6
  6
CONTINUOUS
 62
6
 10
1.6475562651215
 20
0.420738869720564
 30
0.0
 40
0.586555059808673
 50
288.839155227276
 51
297.472706134502
  0
ARC
  8
6
  6
CONTINUOUS
 62
6
 10
2.08468943794546
 20
-0.123190420962089
 30
0.0
 40
0.168192645365556
 50
114.598224104838
 51
171.961557352042
  0
ARC
  8
6
  6
CONTINUOUS
 62
6
 10
2.06820559038041
 20
-0.0984116187776347
 30
0.0
 40
0.138879762708927
 50
76.682418701708
 51
112.669701462316
  0
ARC
  8
6
  6
CONTINUOUS
 62
6
 10
2.08300725048597
 20
-0.0391433871658296
 30
0.0
 40
0.0777994479342334
 50
50.4218916205334
 51
77.2357097075648
  0
ARC
  8
6
  6
CONTINUOUS
 62
6
 10
2.09724808729957
 20
-0.0229495723648028
 30
0.0
 40
0.0562485548090119
 50
359.062151652697
 51
51.0928328335121
  0
ARC
  8
6
  6
CONTINUOUS
 62
6
 10
2.04134092945004
 20
-0.0121140233037811
 30
0.0
 40
0.112762681348131
 50
313.098013363415
 51
354.015682123606
  0
ARC
  8
6
  6
CONTINUOUS
 62
6
 10
1.76131986380298
 20
0.2862861899909
 30
0.0
 40
0.521974619498036
 50
301.664729299695
 51
313.16233351135
  0
ARC
  8
6
  6
CONTINUOUS
 62
6
 10
1.92881260463572
 20
0.176392942791062
 30
0.0
 40
0.490935990134271
 50
309.137264865579
 51
322.118763515489
  0
ARC
  8
6
  6
CONTINUOUS
 62
6
 10
2.07836595492676
 20
-0.00471253859547177
 30
0.0
 40
0.256074472469521
 50
269.851063984792
 51
308.759412706627
  0
ARC
  8
6
  6
CONTINUOUS
 62
6
 10
2.06834603607603
 20
-0.0999474955981638
 30
0.0
 40
0.161110439976503
 50
228.742542915454
 51
273.328536503117
  0
ARC
  8
6
  6
CONTINUOUS
 62
6
 10
2.05454444016838
 20
-0.120677064545148
 30
0.0
 40
0.136465303973503
 50
181.838371615773
 51
227.359160054067
  0
ARC
  8
6
  6
CONTINUOUS
 62
6
 10
2.15360179785359
 20
-0.0735803488186946
 30
0.0
 40
0.145301154389695
 50
210.515466118767
 51
215.513184401819
  0
ARC
  8
6
  6
CONTINUOUS
 62
6
 10
1.87260290345717
 20
0.082957633128667
 30
0.0
 40
0.278077457066238
 50
304.080600784333
 51
318.811506333857
  0
ARC
  8
6
  6
CONTINUOUS
 62
6
 10
2.01385356598201
 20
-0.0348588051187972
 30
0.0
 40
0.0942937222019584
 50
316.163389370685
 51
358.438098926191
  0
ARC
  8
6
  6
CONTINUOUS
 62
6
 10
2.05120383150732
 20
-0.0341578203894744
 30
0.0
 40
0.0570023593143567
 50
356.710211363808
 51
43.0426897705475
  0
ARC
  8
6
  6
CONTINUOUS
 62
6
 10
2.05542890212728
 20
-0.0402863933247447
 30
0.0
 40
0.0585621971245541
 50
50.2654135103045
 51
102.804169710633
  0
ARC
  8
6
  6
CONTINUOUS
 62
6
 10
2.06010130627583
 20
-0.0628711449430755
 30
0.0
 40
0.0816220695839976
 50
102.488983339752
 51
130.187890339367
  0
ARC
  8
6
  6
CONTINUOUS
 62
6
 10
2.04622325842839
 20
-0.047427433327773
 30
0.0
 40
0.0608719891705539
 50
129.589129628714
 51
158.624777146263
  0
ARC
  8
6
  6
CONTINUOUS
 62
6
 10
2.09358479062989
 20
-0.0698228018999206
 30
0.0
 40
0.113195252813561
 50
156.805903745731
 51
181.904141430753
  0
ARC
  8
6
  6
CONTINUOUS
 62
6
 10
2.15856825176198
 20
-0.07476034857362
 30
0.0
 40
0.178120093998486
 50
179.621598117833
 51
194.954651765226
  0
ARC
  8
6
  6
CONTINUOUS
 62
6
 10
2.14131469617179
 20
-0.0802354223688735
 30
0.0
 40
0.160040232906742
 50
194.654897614305
 51
240.591916617188
  0
ARC
  8
6
  6
CONTINUOUS
 62
6
 10
2.11203804754469
 20
-0.1365997307386
 30
0.0
 40
0.096587586653446
 50
239.303267080478
 51
265.254343448777
  0
ARC
  8
6
  6
CONTINUOUS
 62
6
 10
2.11264266699753
 20
-0.0630071009940752
 30
0.0
 40
0.1700664518487
 50
267.102899173168
 51
294.61460326274
  0
ARC
  8
6
  6
CONTINUOUS
 62
6
 10
2.08353907376285
 20
-0.000205880866930241
 30
0.0
 40
0.23928312470133
 50
294.686785888823
 51
311.458316500475
  0
ARC
  8
6
  6
CONTINUOUS
 62
6
 10
1.82601547406502
 20
0.28217160199347
 30
0.0
 40
0.621436741351744
 50
312.015464229354
 51
322.087965075568
  0
LINE
  8
6
  6
CONTINUOUS
 62
6
 10
2.31630112158083
 20
-0.0996707834770688
 30
0.0
 11
2.31630112158083
 21
0.034294660352979
 31
0.0
  0
LINE
  8
6
  6
CONTINUOUS
 62
6
 10
2.31630112158083
 20
0.034294660352979
 30
0.0
 11
2.40281965389689
 21
0.0591373476730745
 31
0.0
  0
ARC
  8
6
  6
CONTINUOUS
 62
6
 10
2.50786326862753
 20
0.0560288868134939
 30
0.0
 40
0.333708820213335
 50
298.87050136288
 51
327.136458899689
  0
ARC
  8
6
  6
CONTINUOUS
 62
6
 10
2.5725835841161
 20
-0.0615450205801986
 30
0.0
 40
0.199498802736858
 50
272.912409268934
 51
298.896912144452
  0
ARC
  8
6
  6
CONTINUOUS
 62
6
 10
2.58226973794718
 20
-0.220099796023562
 30
0.0
 40
0.0406888409065123
 50
219.353773524033
 51
270.634001320677
  0
ARC
  8
6
  6
CONTINUOUS
 62
6
 10
2.5980680235791
 20
-0.20884435423109
 30
0.0
 40
0.0600563351461749
 50
178.159391539409
 51
218.099517129625
  0
LINE
  8
6
  6
CONTINUOUS
 62
6
 10
2.53804267468464
 20
-0.206915395629223
 30
0.0
 11
2.53804267468464
 21
-0.0416691179156159
 31
0.0
  0
ARC
  8
6
  6
CONTINUOUS
 62
6
 10
2.48993239737546
 20
-0.0416691179156148
 30
0.0
 40
0.0481102773091748
 50
359.999999999999
 51
35.3279514031514
  0
ARC
  8
6
  6
CONTINUOUS
 62
6
 10
2.50381694622889
 20
-0.0397740299551756
 30
0.0
 40
0.0362706776538029
 50
45.6238154690334
 51
93.5970268799726
  0
ARC
  8
6
  6
CONTINUOUS
 62
6
 10
2.51587638833993
 20
-0.092277747892767
 30
0.0
 40
0.0898537959182569
 50
99.1800317086295
 51
131.027205709742
  0
ARC
  8
6
  6
CONTINUOUS
 62
6
 10
2.90988127663684
 20
-0.564030625395742
 30
0.0
 40
0.704484514856953
 50
130.016198856842
 51
137.909921105124
  0
LINE
  8
6
  6
CONTINUOUS
 62
6
 10
2.3870890116576
 20
-0.0918159715029311
 30
0.0
 11
2.3870890116576
 21
-0.25228770519502
 31
0.0
  0
LINE
  8
6
  6
CONTINUOUS
 62
6
 10
2.3870890116576
 20
-0.25228770519502
 30
0.0
 11
2.29300767057264
 21
-0.278643748681581
 31
0.0
  0
LINE
  8
6
  6
CONTINUOUS
 62
6
 10
2.29300767057264
 20
-0.278643748681581
 30
0.0
 11
2.29300767057264
 21
-0.266499065445708
 31
0.0
  0
ARC
  8
6
  6
CONTINUOUS
 62
6
 10
2.25240115907428
 20
-0.221963416871544
 30
0.0
 40
0.0602686715465631
 50
312.357791188227
 51
345.143135575884
  0
ARC
  8
6
  6
CONTINUOUS
 62
6
 10
2.11055883291711
 20
-0.189400028583957
 30
0.0
 40
0.20577675679605
 50
346.506025326721
 51
1.0487075853013
  0
LINE
  8
6
  6
CONTINUOUS
 62
6
 10
2.31630112158083
 20
-0.185633824538343
 30
0.0
 11
2.31630112158083
 21
-0.125054889585933
 31
0.0
  0
LINE
  8
6
  6
CONTINUOUS
 62
6
 10
2.40281965389689
 20
0.0591373476730745
 30
0.0
 11
2.40281965389688
 21
0.0484918328896186
 31
0.0
  0
ARC
  8
6
  6
CONTINUOUS
 62
6
 10
2.43544601791445
 20
0.0105581372017464
 30
0.0
 40
0.0500344371163207
 50
130.698470588623
 51
152.607472482267
  0
ARC
  8
6
  6
CONTINUOUS
 62
6
 10
2.42910734220495
 20
0.0158154268295685
 30
0.0
 40
0.0420242035827035
 50
154.996151683708
 51
180.957908991322
  0
LINE
  8
6
  6
CONTINUOUS
 62
6
 10
2.3870890116576
 20
0.0151128709430467
 30
0.0
 11
2.3870890116576
 21
-0.0678568808833084
 31
0.0
  0
ARC
  8
6
  6
CONTINUOUS
 62
6
 10
2.72441737088654
 20
-0.352176016079171
 30
0.0
 40
0.441166400101608
 50
124.536390024819
 51
139.873944274072
  0
ARC
  8
6
  6
CONTINUOUS
 62
6
 10
2.55295225801718
 20
-0.08759343587586
 30
0.0
 40
0.126307171680291
 50
92.86643058146
 51
128.509907210363
  0
ARC
  8
6
  6
CONTINUOUS
 62
6
 10
2.54961115570014
 20
-0.0217695145034491
 30
0.0
 40
0.0603985431517562
 50
47.2602041547008
 51
92.823539739785
  0
ARC
  8
6
  6
CONTINUOUS
 62
6
 10
2.55334280072637
 20
-0.0169012897217492
 30
0.0
 40
0.0542934738397821
 50
358.619483787636
 51
46.6658119590857
  0
LINE
  8
6
  6
CONTINUOUS
 62
6
 10
2.6076205153584
 20
-0.0182093401472897
 30
0.0
 11
2.6076205153584
 21
-0.177339182304716
 31
0.0
  0
ARC
  8
6
  6
CONTINUOUS
 62
6
 10
2.68766818689777
 20
-0.177339182304727
 30
0.0
 40
0.0800476715393687
 50
179.999999999992
 51
200.26606422528
  0
ARC
  8
6
  6
CONTINUOUS
 62
6
 10
2.6373900463866
 20
-0.194992915433208
 30
0.0
 40
0.0267807702758379
 50
202.094483199597
 51
286.625300943743
  0
ARC
  8
6
  6
CONTINUOUS
 62
6
 10
2.60079362523329
 20
-0.0567358378204661
 30
0.0
 40
0.169788240663258
 50
285.109823849473
 51
310.530797840451
  0
ARC
  8
6
  6
CONTINUOUS
 62
6
 10
2.38047172074518
 20
0.1875305008844
 30
0.0
 40
0.498698412756417
 50
311.532584825008
 51
324.837193814577
  0
LINE
  8
6
  6
CONTINUOUS
 62
6
 10
2.7881671084391
 20
-0.0996707834770688
 30
0.0
 11
2.7881671084391
 21
0.034294660352979
 31
0.0
  0
LINE
  8
6
  6
CONTINUOUS
 62
6
 10
2.7881671084391
 20
0.034294660352979
 30
0.0
 11
2.87468564075517
 21
0.0591373476730745
 31
0.0
  0
ARC
  8
6
  6
CONTINUOUS
 62
6
 10
2.9797292554858
 20
0.0560288868134939
 30
0.0
 40
0.333708820213335
 50
298.87050136288
 51
327.136458899689
  0
ARC
  8
6
  6
CONTINUOUS
 62
6
 10
3.04444957097438
 20
-0.0615450205801986
 30
0.0
 40
0.199498802736858
 50
272.912409268934
 51
298.896912144452
  0
ARC
  8
6
  6
CONTINUOUS
 62
6
 10
3.05413572480545
 20
-0.220099796023562
 30
0.0
 40
0.0406888409065123
 50
219.353773524033
 51
270.634001320677
  0
ARC
  8
6
  6
CONTINUOUS
 62
6
 10
3.06993401043737
 20
-0.208844354231089
 30
0.0
 40
0.0600563351461751
 50
178.159391539409
 51
218.099517129625
  0
LINE
  8
6
  6
CONTINUOUS
 62
6
 10
3.00990866154291
 20
-0.206915395629223
 30
0.0
 11
3.00990866154291
 21
-0.0416691179156159
 31
0.0
  0
ARC
  8
6
  6
CONTINUOUS
 62
6
 10
2.96179838423374
 20
-0.0416691179156141
 30
0.0
 40
0.0481102773091746
 50
359.999999999998
 51
35.3279514031506
  0
ARC
  8
6
  6
CONTINUOUS
 62
6
 10
2.97568293308716
 20
-0.0397740299551756
 30
0.0
 40
0.0362706776538029
 50
45.6238154690334
 51
93.5970268799726
  0
ARC
  8
6
  6
CONTINUOUS
 62
6
 10
2.9877423751982
 20
-0.092277747892767
 30
0.0
 40
0.0898537959182569
 50
99.1800317086295
 51
131.027205709742
  0
ARC
  8
6
  6
CONTINUOUS
 62
6
 10
3.38174726349512
 20
-0.564030625395745
 30
0.0
 40
0.704484514856956
 50
130.016198856842
 51
137.909921105124
  0
LINE
  8
6
  6
CONTINUOUS
 62
6
 10
2.85895499851587
 20
-0.0918159715029311
 30
0.0
 11
2.85895499851587
 21
-0.25228770519502
 31
0.0
  0
LINE
  8
6
  6
CONTINUOUS
 62
6
 10
2.85895499851587
 20
-0.25228770519502
 30
0.0
 11
2.76487365743091
 21
-0.278643748681581
 31
0.0
  0
LINE
  8
6
  6
CONTINUOUS
 62
6
 10
2.76487365743091
 20
-0.278643748681581
 30
0.0
 11
2.76487365743091
 21
-0.266499065445708
 31
0.0
  0
ARC
  8
6
  6
CONTINUOUS
 62
6
 10
2.72426714593256
 20
-0.221963416871544
 30
0.0
 40
0.0602686715465631
 50
312.357791188227
 51
345.143135575884
  0
ARC
  8
6
  6
CONTINUOUS
 62
6
 10
2.58242481977538
 20
-0.189400028583959
 30
0.0
 40
0.20577675679605
 50
346.506025326722
 51
1.04870758530179
  0
LINE
  8
6
  6
CONTINUOUS
 62
6
 10
2.78816710843911
 20
-0.185633824538343
 30
0.0
 11
2.7881671084391
 21
-0.125054889585933
 31
0.0
  0
LINE
  8
6
  6
CONTINUOUS
 62
6
 10
2.87468564075517
 20
0.0591373476730745
 30
0.0
 11
2.87468564075515
 21
0.0484918328896186
 31
0.0
  0
ARC
  8
6
  6
CONTINUOUS
 62
6
 10
2.90731200477272
 20
0.0105581372017464
 30
0.0
 40
0.0500344371163207
 50
130.698470588623
 51
152.607472482267
  0
ARC
  8
6
  6
CONTINUOUS
 62
6
 10
2.90097332906323
 20
0.0158154268295675
 30
0.0
 40
0.0420242035827037
 50
154.996151683707
 51
180.957908991321
  0
LINE
  8
6
  6
CONTINUOUS
 62
6
 10
2.85895499851587
 20
0.0151128709430467
 30
0.0
 11
2.85895499851587
 21
-0.0678568808833084
 31
0.0
  0
ARC
  8
6
  6
CONTINUOUS
 62
6
 10
3.19628335774481
 20
-0.352176016079173
 30
0.0
 40
0.44116640010161
 50
124.536390024819
 51
139.873944274072
  0
ARC
  8
6
  6
CONTINUOUS
 62
6
 10
3.02481824487545
 20
-0.08759343587586
 30
0.0
 40
0.126307171680291
 50
92.86643058146
 51
128.509907210363
  0
ARC
  8
6
  6
CONTINUOUS
 62
6
 10
3.02147714255841
 20
-0.0217695145034491
 30
0.0
 40
0.0603985431517562
 50
47.2602041547008
 51
92.823539739785
  0
ARC
  8
6
  6
CONTINUOUS
 62
6
 10
3.02520878758465
 20
-0.0169012897217487
 30
0.0
 40
0.0542934738397818
 50
358.619483787636
 51
46.6658119590852
  0
LINE
  8
6
  6
CONTINUOUS
 62
6
 10
3.07948650221667
 20
-0.0182093401472897
 30
0.0
 11
3.07948650221667
 21
-0.177339182304716
 31
0.0
  0
ARC
  8
6
  6
CONTINUOUS
 62
6
 10
3.15953417375604
 20
-0.177339182304727
 30
0.0
 40
0.0800476715393687
 50
179.999999999992
 51
200.26606422528
  0
ARC
  8
6
  6
CONTINUOUS
 62
6
 10
3.10925603324487
 20
-0.194992915433207
 30
0.0
 40
0.0267807702758382
 50
202.094483199597
 51
286.625300943743
  0
ARC
  8
6
  6
CONTINUOUS
 62
6
 10
3.07265961209156
 20
-0.0567358378204661
 30
0.0
 40
0.169788240663258
 50
285.109823849473
 51
310.530797840451
  0
ARC
  8
6
  6
CONTINUOUS
 62
6
 10
2.85233770760345
 20
0.187530500884398
 30
0.0
 40
0.498698412756415
 50
311.532584825008
 51
324.837193814578
  0
ARC
  8
6
  6
CONTINUOUS
 62
6
 10
3.42428296673666
 20
-0.124167116142844
 30
0.0
 40
0.166066524567394
 50
90.8107019118409
 51
171.517394094312
  0
ARC
  8
6
  6
CONTINUOUS
 62
6
 10
3.42284599331257
 20
-0.100819506392302
 30
0.0
 40
0.14270520999761
 50
52.3706000479467
 51
90.3664463318467
  0
LINE
  8
6
  6
CONTINUOUS
 62
6
 10
3.75197139375834
 20
-0.125054889585934
 30
0.0
 11
3.6747374925914
 21
-0.204194828762253
 31
0.0
  0
ARC
  8
6
  6
CONTINUOUS
 62
6
 10
3.53919989323292
 20
-0.0719215712615786
 30
0.0
 40
0.189384939975966
 50
274.248333223188
 51
315.698342672812
  0
ARC
  8
6
  6
CONTINUOUS
 62
6
 10
3.55181157783729
 20
-0.211998999900105
 30
0.0
 40
0.0488077445092206
 50
214.834235423507
 51
271.664662706976
  0
ARC
  8
6
  6
CONTINUOUS
 62
6
 10
3.60679267051707
 20
-0.181180926579781
 30
0.0
 40
0.111707285202681
 50
180.115383876746
 51
211.698942886347
  0
LINE
  8
6
  6
CONTINUOUS
 62
6
 10
3.49508561182907
 20
-0.181405885748238
 30
0.0
 11
3.49508561182906
 21
-0.0404020478359171
 31
0.0
  0
ARC
  8
6
  6
CONTINUOUS
 62
6
 10
3.41724946499058
 20
-0.0468580656147921
 30
0.0
 40
0.0781034309119828
 50
4.7414704215426
 51
31.5485096478276
  0
ARC
  8
6
  6
CONTINUOUS
 62
6
 10
3.42840777502522
 20
-0.045813718241783
 30
0.0
 40
0.0682275985370323
 50
35.7075856426845
 51
92.3804616104787
  0
ARC
  8
6
  6
CONTINUOUS
 62
6
 10
3.42723151410833
 20
-0.0644579712204188
 30
0.0
 40
0.0868287976404604
 50
91.0938472509352
 51
144.238554474515
  0
ARC
  8
6
  6
CONTINUOUS
 62
6
 10
3.49486730606805
 20
-0.106777839875837
 30
0.0
 40
0.166525365255852
 50
146.023305116455
 51
179.069435622353
  0
LINE
  8
6
  6
CONTINUOUS
 62
6
 10
3.32836390364902
 20
-0.104073351665229
 30
0.0
 11
3.32814841112058
 21
-0.117340275528846
 31
0.0
  0
ARC
  8
6
  6
CONTINUOUS
 62
6
 10
3.45017038195703
 20
-0.11932225894042
 30
0.0
 40
0.122038066295136
 50
179.069435622345
 51
215.153201033567
  0
ARC
  8
6
  6
CONTINUOUS
 62
6
 10
3.40663441769606
 20
-0.150582697825541
 30
0.0
 40
0.068445504702934
 50
214.740885839331
 51
271.012499390218
  0
ARC
  8
6
  6
CONTINUOUS
 62
6
 10
3.40578541823801
 20
-0.133514844568804
 30
0.0
 40
0.0855274462596685
 50
271.379123373668
 51
306.015327997166
  0
ARC
  8
6
  6
CONTINUOUS
 62
6
 10
3.37865585911616
 20
-0.0957687269061609
 30
0.0
 40
0.132011224436697
 50
305.906487191791
 51
311.548938534417
  0
LINE
  8
6
  6
CONTINUOUS
 62
6
 10
3.46621356025788
 20
-0.194564538295373
 30
0.0
 11
3.46621356025789
 21
-0.216073645245453
 31
0.0
  0
ARC
  8
6
  6
CONTINUOUS
 62
6
 10
3.33329166128747
 20
-0.0760169341204227
 30
0.0
 40
0.193090946336337
 50
301.337276739399
 51
313.502807328074
  0
ARC
  8
6
  6
CONTINUOUS
 62
6
 10
3.36203356430436
 20
-0.121420638740159
 30
0.0
 40
0.139365903258346
 50
269.86339971539
 51
300.952580777122
  0
ARC
  8
6
  6
CONTINUOUS
 62
6
 10
3.3628092595764
 20
-0.167877501168388
 30
0.0
 40
0.0929152508788602
 50
204.347535441156
 51
269.316764759162
  0
ARC
  8
6
  6
CONTINUOUS
 62
6
 10
3.43964027999861
 20
-0.127518578863675
 30
0.0
 40
0.17962408123957
 50
179.214117489531
 51
205.972716122472
  0
LINE
  8
6
  6
CONTINUOUS
 62
6
 10
3.50997489159281
 20
0.0121996603226109
 30
0.0
 11
3.58795690351101
 21
0.0591373476730739
 31
0.0
  0
LINE
  8
6
  6
CONTINUOUS
 62
6
 10
3.58795690351101
 20
0.0591373476730739
 30
0.0
 11
3.58795690351102
 21
0.0470730614835703
 31
0.0
  0
ARC
  8
6
  6
CONTINUOUS
 62
6
 10
3.61971728137971
 20
0.00631873229858997
 30
0.0
 40
0.051668529586969
 50
127.929749240496
 51
163.286232937729
  0
ARC
  8
6
  6
CONTINUOUS
 62
6
 10
3.79465046586007
 20
-0.0266275295960941
 30
0.0
 40
0.2294541797886
 50
167.974612977175
 51
181.437285219029
  0
LINE
  8
6
  6
CONTINUOUS
 62
6
 10
3.56526847720435
 20
-0.0323828664937735
 30
0.0
 11
3.56526847720435
 21
-0.167922828152653
 31
0.0
  0
ARC
  8
6
  6
CONTINUOUS
 62
6
 10
3.69845856003143
 20
-0.170729986673878
 30
0.0
 40
0.133219661846323
 50
178.792593838872
 51
195.742215393581
  0
ARC
  8
6
  6
CONTINUOUS
 62
6
 10
3.59469039831311
 20
-0.199980415517895
 30
0.0
 40
0.0254077006640895
 50
195.742215393514
 51
285.166724656414
  0
ARC
  8
6
  6
CONTINUOUS
 62
6
 10
3.56080970267293
 20
-0.0749918908463595
 30
0.0
 40
0.154906862192764
 50
285.166724656475
 51
303.839570742074
  0
ARC
  8
6
  6
CONTINUOUS
 62
6
 10
3.28890219658543
 20
0.262557080461271
 30
0.0
 40
0.587913349724039
 50
307.533349588971
 51
321.966320421708
  0
LINE
  8
6
  6
CONTINUOUS
 62
6
 10
3.75197139375834
 20
-0.0996707834770688
 30
0.0
 11
3.77117139375834
 21
-0.0996707834770688
 31
0.0
  0
LINE
  8
6
  6
CONTINUOUS
 62
6
 10
3.75197139375834
 20
-0.125054889585952
 30
0.0
 11
3.77117139375834
 21
-0.125054889585948
 31
0.0
  0
LINE
  8
6
  6
CONTINUOUS
 62
6
 10
3.77117139375834
 20
-0.125054889585948
 30
0.0
 11
3.77117139375834
 21
-0.0996707834770688
 31
0.0
  0
ENDSEC
  0
EOF
