  0
SECTION
  2
HEADER
  9
$ACADVER
  1
AC1003
  9
$EXTMIN
 10
-0.650353751595983
 20
0.384231993797991
  9
$EXTMAX
 10
2.007874014
 20
-0.787401575000002
  9
$INSUNITS
 70
1
  9
$INSBASE
 10
0.678760131202008
 20
-0.201584790601006
999
Created with OMAX LAYOUT for Windows. (www.omax.com) 2/5/2024
  0
ENDSEC
  0
SECTION
  2
TABLES
  0
TABLE
  2
LAYER
 70
    10
  0
LAYER
  2
0
 70
     0
 62
     7
  6
CONTINUOUS
  0
LAYER
  2
1
 70
     0
 62
     7
  6
CONTINUOUS
  0
LAYER
  2
2
 70
     0
 62
     7
  6
CONTINUOUS
  0
LAYER
  2
3
 70
     0
 62
     7
  6
CONTINUOUS
  0
LAYER
  2
4
 70
     0
 62
     7
  6
CONTINUOUS
  0
LAYER
  2
5
 70
     0
 62
     7
  6
CONTINUOUS
  0
LAYER
  2
6
 70
     0
 62
     7
  6
CONTINUOUS
  0
LAYER
  2
7
 70
     0
 62
     7
  6
CONTINUOUS
  0
LAYER
  2
8
 70
     0
 62
     7
  6
CONTINUOUS
  0
LAYER
  2
9
 70
     0
 62
     7
  6
CONTINUOUS
  0
LAYER
  2
10
 70
     0
 62
     7
  6
CONTINUOUS
  0
LAYER
  2
11
 70
     0
 62
     7
  6
CONTINUOUS
  0
LAYER
  2
12
 70
     0
 62
     7
  6
CONTINUOUS
  0
LAYER
  2
13
 70
     0
 62
     7
  6
CONTINUOUS
  0
LAYER
  2
14
 70
     0
 62
     7
  6
CONTINUOUS
  0
LAYER
  2
15
 70
     0
 62
     7
  6
CONTINUOUS
  0
LAYER
  2
16
 70
     0
 62
     7
  6
CONTINUOUS
  0
LAYER
  2
17
 70
     0
 62
     7
  6
CONTINUOUS
  0
LAYER
  2
18
 70
     0
 62
     7
  6
CONTINUOUS
  0
LAYER
  2
19
 70
     0
 62
     7
  6
CONTINUOUS
  0
LAYER
  2
20
 70
     0
 62
     7
  6
CONTINUOUS
  0
LAYER
  2
21
 70
     0
 62
     7
  6
CONTINUOUS
  0
LAYER
  2
22
 70
     0
 62
     7
  6
CONTINUOUS
  0
LAYER
  2
23
 70
     0
 62
     7
  6
CONTINUOUS
  0
LAYER
  2
24
 70
     0
 62
     7
  6
CONTINUOUS
  0
LAYER
  2
25
 70
     0
 62
     7
  6
CONTINUOUS
  0
LAYER
  2
26
 70
     0
 62
     7
  6
CONTINUOUS
  0
LAYER
  2
27
 70
     0
 62
     7
  6
CONTINUOUS
  0
LAYER
  2
28
 70
     0
 62
     7
  6
CONTINUOUS
  0
LAYER
  2
29
 70
     0
 62
     7
  6
CONTINUOUS
  0
LAYER
  2
30
 70
     0
 62
     7
  6
CONTINUOUS
  0
LAYER
  2
31
 70
     0
 62
     7
  6
CONTINUOUS
  0
ENDTAB
  0
ENDSEC
  0
SECTION
  2
ENTITIES
  0
ARC
  8
0
  6
CONTINUOUS
 62
0
 10
-0.266121757797991
 20
-0.403169581202014
 30
0.0
 40
0.384231993797991
 50
179.999999999999
 51
350.588189071767
  0
LINE
  8
0
  6
CONTINUOUS
 62
0
 10
0.118110236
 20
-0.314960630500001
 30
0.0
 11
0.118110235999999
 21
0.266121757797989
 31
0.0
  0
ARC
  8
0
  6
CONTINUOUS
 62
0
 10
-0.266121757797991
 20
-0.403169581202011
 30
0.0
 40
0.148011521797991
 50
179.999999999999
 51
359.999999999999
  0
LINE
  8
0
  6
CONTINUOUS
 62
0
 10
-0.118110236
 20
0.26612175779799
 30
0.0
 11
-0.118110236
 21
-0.40316958120201
 31
0.0
  0
LINE
  8
0
  6
CONTINUOUS
 62
0
 10
-0.650353751595983
 20
-0.308355226580207
 30
0.0
 11
-0.650353751595982
 21
-0.40316958120201
 31
0.0
  0
LINE
  8
0
  6
CONTINUOUS
 62
0
 10
-0.414133279595981
 20
-0.308355226580207
 30
0.0
 11
-0.414133279595982
 21
-0.40316958120201
 31
0.0
  0
LINE
  8
0
  6
CONTINUOUS
 62
0
 10
0.354330708
 20
-0.472440944500001
 30
0.0
 11
0.354330708
 21
-0.669291339000001
 31
0.0
  0
LINE
  8
0
  6
CONTINUOUS
 62
0
 10
0.59055118
 20
-0.472440944500001
 30
0.0
 11
0.59055118
 21
-0.669291339
 31
0.0
  0
ARC
  8
0
  6
CONTINUOUS
 62
0
 10
0.472440944000001
 20
0.236220471999999
 30
0.0
 40
0.118110236000001
 50
180
 51
239.999999789943
  0
ARC
  8
0
  6
CONTINUOUS
 62
0
 10
0.472440944
 20
0.236220472000001
 30
0.0
 40
0.118110236
 50
359.999999999999
 51
180
  0
LINE
  8
0
  6
CONTINUOUS
 62
0
 10
0.826771652
 20
-0.472440944500001
 30
0.0
 11
0.826771652
 21
-0.669291339000002
 31
0.0
  0
LINE
  8
0
  6
CONTINUOUS
 62
0
 10
1.062992124
 20
-0.669291339
 30
0.0
 11
1.062992124
 21
-0.354330707998794
 31
0.0
  0
ARC
  8
0
  6
CONTINUOUS
 62
0
 10
-0.532243515595983
 20
-0.308355226580208
 30
0.0
 40
0.118110236
 50
89.9999999999998
 51
179.999999999999
  0
ARC
  8
0
  6
CONTINUOUS
 62
0
 10
-0.532243515595981
 20
-0.308355226580207
 30
0.0
 40
0.118110236
 50
0
 51
89.9999999999998
  0
ARC
  8
0
  6
CONTINUOUS
 62
0
 10
1.72451926833103E-17
 20
0.266121757797991
 30
0.0
 40
0.118110236
 50
89.9999999999998
 51
180
  0
ARC
  8
0
  6
CONTINUOUS
 62
0
 10
-1.20736753927986E-15
 20
0.266121757797992
 30
0.0
 40
0.118110236
 50
359.999999999999
 51
89.9999999999997
  0
ARC
  8
0
  6
CONTINUOUS
 62
0
 10
0.472440944
 20
-0.118110236
 30
0.0
 40
0.118110236
 50
120.000000210056
 51
180
  0
ARC
  8
0
  6
CONTINUOUS
 62
0
 10
0.472440944000001
 20
-0.118110235999999
 30
0.0
 40
0.118110236
 50
360
 51
59.9999997899435
  0
ARC
  8
0
  6
CONTINUOUS
 62
0
 10
0.472440944
 20
-0.669291339000002
 30
0.0
 40
0.118110236
 50
180
 51
269.999999999999
  0
ARC
  8
0
  6
CONTINUOUS
 62
0
 10
0.472440944
 20
-0.669291339
 30
0.0
 40
0.118110236
 50
270
 51
3.56222124323914E-13
  0
ARC
  8
0
  6
CONTINUOUS
 62
0
 10
0.944881888
 20
-0.118110236
 30
0.0
 40
0.118110236
 50
89.9999999999998
 51
180
  0
ARC
  8
0
  6
CONTINUOUS
 62
0
 10
0.944881888000001
 20
-0.669291339
 30
0.0
 40
0.118110236
 50
269.999999999999
 51
3.18055468146352E-14
  0
ARC
  8
0
  6
CONTINUOUS
 62
0
 10
0.944881888
 20
-0.669291339000002
 30
0.0
 40
0.118110236
 50
180
 51
269.999999999999
  0
LINE
  8
0
  6
CONTINUOUS
 62
0
 10
1.299212597
 20
-0.669291339000002
 30
0.0
 11
1.299212597
 21
-0.354330707998794
 31
0.0
  0
ARC
  8
0
  6
CONTINUOUS
 62
0
 10
1.417322833
 20
-0.669291339000002
 30
0.0
 40
0.118110236
 50
180
 51
269.999999999999
  0
LINE
  8
0
  6
CONTINUOUS
 62
0
 10
0.944881888000001
 20
2.77555756156289E-17
 30
0.0
 11
1.417322833
 21
6.93889390390723E-17
 31
0.0
  0
ARC
  8
0
  6
CONTINUOUS
 62
0
 10
1.18110236
 20
-0.354330707998794
 30
0.0
 40
0.118110236
 50
89.9999999999995
 51
180
  0
ARC
  8
0
  6
CONTINUOUS
 62
0
 10
1.181102361
 20
-0.354330707998794
 30
0.0
 40
0.118110236
 50
359.999999999999
 51
90.0000002426979
  0
LINE
  8
0
  6
CONTINUOUS
 62
0
 10
2.007874014
 20
-0.669291339000002
 30
0.0
 11
2.007874014
 21
-0.118110236
 31
0.0
  0
LINE
  8
0
  6
CONTINUOUS
 62
0
 10
1.771653542
 20
-0.669291339
 30
0.0
 11
1.771653542
 21
-0.354330707998794
 31
0.0
  0
ARC
  8
0
  6
CONTINUOUS
 62
0
 10
1.889763778
 20
-0.118110236
 30
0.0
 40
0.118110236
 50
359.999999999999
 51
89.9999999999998
  0
ARC
  8
0
  6
CONTINUOUS
 62
0
 10
1.889763778
 20
-0.669291339
 30
0.0
 40
0.118110236
 50
180
 51
270
  0
ARC
  8
0
  6
CONTINUOUS
 62
0
 10
1.889763778
 20
-0.669291339000001
 30
0.0
 40
0.118110236
 50
270
 51
360
  0
LINE
  8
0
  6
CONTINUOUS
 62
0
 10
1.535433069
 20
-0.669291339000002
 30
0.0
 11
1.535433069
 21
-0.354330707998794
 31
0.0
  0
ARC
  8
0
  6
CONTINUOUS
 62
0
 10
1.417322833
 20
-0.669291339000001
 30
0.0
 40
0.118110236
 50
270
 51
360
  0
LINE
  8
0
  6
CONTINUOUS
 62
0
 10
1.889763778
 20
2.77555756156289E-17
 30
0.0
 11
1.417322833
 21
6.93889390390723E-17
 31
0.0
  0
ARC
  8
0
  6
CONTINUOUS
 62
0
 10
1.653543306
 20
-0.354330707998794
 30
0.0
 40
0.118110236
 50
359.999999999999
 51
90.0000000000001
  0
ARC
  8
0
  6
CONTINUOUS
 62
0
 10
1.653543305
 20
-0.354330707998794
 30
0.0
 40
0.118110236
 50
89.9999997573017
 51
180
  0
LINE
  8
0
  6
CONTINUOUS
 62
0
 10
0.354330708
 20
-0.314960630500001
 30
0.0
 11
0.354330708000001
 21
-0.118110236
 31
0.0
  0
LINE
  8
0
  6
CONTINUOUS
 62
0
 10
0.826771652
 20
-0.314960630500001
 30
0.0
 11
0.826771652000001
 21
-0.118110236
 31
0.0
  0
LINE
  8
0
  6
CONTINUOUS
 62
0
 10
0.59055118
 20
-0.314960630500001
 30
0.0
 11
0.590551180000001
 21
-0.118110236
 31
0.0
  0
ARC
  8
0
  6
CONTINUOUS
 62
0
 10
0.472440944000002
 20
0.236220472
 30
0.0
 40
0.118110235999999
 50
300.000000210056
 51
2.09916608976592E-13
  0
LINE
  8
0
  6
CONTINUOUS
 62
0
 10
0.433070865000001
 20
0.0182717170973005
 30
0.0
 11
0.433070865000001
 21
0.0998385189026994
 31
0.0
  0
LINE
  8
0
  6
CONTINUOUS
 62
0
 10
0.511811023000001
 20
0.0182717170973005
 30
0.0
 11
0.511811023000001
 21
0.0998385189026994
 31
0.0
  0
ARC
  8
0
  6
CONTINUOUS
 62
0
 10
0.393700786
 20
0.0998385189026996
 30
0.0
 40
0.039370079
 50
359.999999999999
 51
59.9999997899436
  0
ARC
  8
0
  6
CONTINUOUS
 62
0
 10
0.393700786000001
 20
0.0182717170973007
 30
0.0
 40
0.039370079
 50
300.000000210056
 51
359.999999999999
  0
ARC
  8
0
  6
CONTINUOUS
 62
0
 10
0.551181102000001
 20
0.0182717170973004
 30
0.0
 40
0.039370079
 50
180
 51
239.999999789943
  0
ARC
  8
0
  6
CONTINUOUS
 62
0
 10
0.551181102
 20
0.0998385189026993
 30
0.0
 40
0.039370079
 50
120.000000210056
 51
180
  0
LINE
  8
0
  6
CONTINUOUS
 62
0
 10
0.314960629
 20
-0.354330709500001
 30
0.0
 11
0.157480315
 21
-0.354330709500001
 31
0.0
  0
LINE
  8
0
  6
CONTINUOUS
 62
0
 10
0.314960629
 20
-0.433070865500001
 30
0.0
 11
0.151777984132525
 21
-0.433070865500001
 31
0.0
  0
LINE
  8
0
  6
CONTINUOUS
 62
0
 10
0.787401573
 20
-0.354330709500001
 30
0.0
 11
0.629921259
 21
-0.354330709500001
 31
0.0
  0
LINE
  8
0
  6
CONTINUOUS
 62
0
 10
0.787401573
 20
-0.433070865500001
 30
0.0
 11
0.629921259
 21
-0.433070865500001
 31
0.0
  0
ARC
  8
0
  6
CONTINUOUS
 62
0
 10
0.157480315
 20
-0.314960630500001
 30
0.0
 40
0.039370079
 50
179.999999999999
 51
269.999999999999
  0
ARC
  8
0
  6
CONTINUOUS
 62
0
 10
0.151777984132525
 20
-0.472440944500001
 30
0.0
 40
0.039370079
 50
89.9999999999998
 51
170.588189071767
  0
ARC
  8
0
  6
CONTINUOUS
 62
0
 10
0.314960629
 20
-0.4724409445
 30
0.0
 40
0.039370079
 50
360
 51
89.9999999999998
  0
ARC
  8
0
  6
CONTINUOUS
 62
0
 10
0.314960629
 20
-0.314960630500001
 30
0.0
 40
0.039370079
 50
270
 51
3.05333249420498E-13
  0
ARC
  8
0
  6
CONTINUOUS
 62
0
 10
0.629921259
 20
-0.314960630500001
 30
0.0
 40
0.039370079
 50
180
 51
269.999999999999
  0
ARC
  8
0
  6
CONTINUOUS
 62
0
 10
0.629921259
 20
-0.472440944500002
 30
0.0
 40
0.039370079
 50
89.9999999999998
 51
180
  0
ARC
  8
0
  6
CONTINUOUS
 62
0
 10
0.787401573
 20
-0.314960630500001
 30
0.0
 40
0.039370079
 50
270
 51
3.56222124323914E-13
  0
ARC
  8
0
  6
CONTINUOUS
 62
0
 10
0.787401573
 20
-0.472440944500001
 30
0.0
 40
0.039370079
 50
0
 51
89.9999999999998
  0
ENDSEC
  0
EOF
