  0
SECTION
  2
HEADER
  9
$ACADVER
  1
AC1003
  9
$EXTMIN
 10
2.87031855009567
 20
0.92626238014579
  9
$EXTMAX
 10
3.87119249892795
 20
-0.502599468437652
  9
$INSUNITS
 70
1
  9
$INSBASE
 10
3.37075552451181
 20
0.211831455854069
999
Created with OMAX LAYOUT for Windows. (www.omax.com) 3/8/2024
  0
ENDSEC
  0
SECTION
  2
TABLES
  0
TABLE
  2
LAYER
 70
    10
  0
LAYER
  2
0
 70
     0
 62
     7
  6
CONTINUOUS
  0
LAYER
  2
1
 70
     0
 62
     7
  6
CONTINUOUS
  0
LAYER
  2
2
 70
     0
 62
     7
  6
CONTINUOUS
  0
LAYER
  2
3
 70
     0
 62
     7
  6
CONTINUOUS
  0
LAYER
  2
4
 70
     0
 62
     7
  6
CONTINUOUS
  0
LAYER
  2
5
 70
     0
 62
     7
  6
CONTINUOUS
  0
LAYER
  2
6
 70
     0
 62
     7
  6
CONTINUOUS
  0
LAYER
  2
7
 70
     0
 62
     7
  6
CONTINUOUS
  0
LAYER
  2
8
 70
     0
 62
     7
  6
CONTINUOUS
  0
LAYER
  2
9
 70
     0
 62
     7
  6
CONTINUOUS
  0
LAYER
  2
10
 70
     0
 62
     7
  6
CONTINUOUS
  0
LAYER
  2
11
 70
     0
 62
     7
  6
CONTINUOUS
  0
LAYER
  2
12
 70
     0
 62
     7
  6
CONTINUOUS
  0
LAYER
  2
13
 70
     0
 62
     7
  6
CONTINUOUS
  0
LAYER
  2
14
 70
     0
 62
     7
  6
CONTINUOUS
  0
LAYER
  2
15
 70
     0
 62
     7
  6
CONTINUOUS
  0
LAYER
  2
16
 70
     0
 62
     7
  6
CONTINUOUS
  0
LAYER
  2
17
 70
     0
 62
     7
  6
CONTINUOUS
  0
LAYER
  2
18
 70
     0
 62
     7
  6
CONTINUOUS
  0
LAYER
  2
19
 70
     0
 62
     7
  6
CONTINUOUS
  0
LAYER
  2
20
 70
     0
 62
     7
  6
CONTINUOUS
  0
LAYER
  2
21
 70
     0
 62
     7
  6
CONTINUOUS
  0
LAYER
  2
22
 70
     0
 62
     7
  6
CONTINUOUS
  0
LAYER
  2
23
 70
     0
 62
     7
  6
CONTINUOUS
  0
LAYER
  2
24
 70
     0
 62
     7
  6
CONTINUOUS
  0
LAYER
  2
25
 70
     0
 62
     7
  6
CONTINUOUS
  0
LAYER
  2
26
 70
     0
 62
     7
  6
CONTINUOUS
  0
LAYER
  2
27
 70
     0
 62
     7
  6
CONTINUOUS
  0
LAYER
  2
28
 70
     0
 62
     7
  6
CONTINUOUS
  0
LAYER
  2
29
 70
     0
 62
     7
  6
CONTINUOUS
  0
LAYER
  2
30
 70
     0
 62
     7
  6
CONTINUOUS
  0
LAYER
  2
31
 70
     0
 62
     7
  6
CONTINUOUS
  0
ENDTAB
  0
ENDSEC
  0
SECTION
  2
ENTITIES
  0
ARC
  8
6
  6
CONTINUOUS
 62
6
 10
3.54300260022247
 20
0.574478183845891
 30
0.0
 40
0.397090603608962
 50
202.378753088922
 51
210.726750672585
  0
ARC
  8
6
  6
CONTINUOUS
 62
6
 10
3.23856850100844
 20
0.895226833421304
 30
0.0
 40
0.470851035063341
 50
254.332146917887
 51
261.330012924433
  0
ARC
  8
6
  6
CONTINUOUS
 62
6
 10
3.18531511876562
 20
0.723593857544029
 30
0.0
 40
0.29125534697374
 50
232.533530209788
 51
255.300729001437
  0
ARC
  8
6
  6
CONTINUOUS
 62
6
 10
3.22117697281949
 20
0.784836330717029
 30
0.0
 40
0.361785527725687
 50
210.602518337295
 51
233.925690838569
  0
ARC
  8
6
  6
CONTINUOUS
 62
6
 10
3.12944008213089
 20
0.738113844644669
 30
0.0
 40
0.259121532035216
 50
177.258620393269
 51
212.036908311754
  0
ARC
  8
6
  6
CONTINUOUS
 62
6
 10
3.06398473160954
 20
0.750507069632893
 30
0.0
 40
0.193369641198288
 50
140.249027827633
 51
179.999999999995
  0
ARC
  8
6
  6
CONTINUOUS
 62
6
 10
3.02528256903464
 20
0.784168564996644
 30
0.0
 40
0.142093815149144
 50
88.9801910387076
 51
140.705412171478
  0
ARC
  8
6
  6
CONTINUOUS
 62
6
 10
3.02224788454004
 20
0.738087864401591
 30
0.0
 40
0.188234249775643
 50
52.8597500993599
 51
88.3062490355842
  0
ARC
  8
6
  6
CONTINUOUS
 62
6
 10
3.00146203743175
 20
0.708205487799662
 30
0.0
 40
0.224609942741289
 50
29.4456503058338
 51
53.2353427292019
  0
ARC
  8
6
  6
CONTINUOUS
 62
6
 10
3.01496856656371
 20
0.713519652973008
 30
0.0
 40
0.210245351177136
 50
359.860109289292
 51
29.9939893735521
  0
ARC
  8
6
  6
CONTINUOUS
 62
6
 10
3.08478342401494
 20
0.707972389972897
 30
0.0
 40
0.140520062979171
 50
331.146379859186
 51
2.05298186909713
  0
ARC
  8
6
  6
CONTINUOUS
 62
6
 10
3.17471592506137
 20
0.632859082578879
 30
0.0
 40
0.097832327540294
 50
260.613842255893
 51
265.825925769008
  0
ARC
  8
6
  6
CONTINUOUS
 62
6
 10
3.35131893803506
 20
0.544689717259735
 30
0.0
 40
0.172324209530655
 50
146.356619657339
 51
179.624737231594
  0
ARC
  8
6
  6
CONTINUOUS
 62
6
 10
3.46507160216817
 20
0.541338912090797
 30
0.0
 40
0.315256619829603
 50
150.429781327592
 51
178.968246777171
  0
ARC
  8
6
  6
CONTINUOUS
 62
6
 10
3.09363474410803
 20
0.745492237855194
 30
0.0
 40
0.10870029318169
 50
333.455493895227
 51
15.0474811110404
  0
ARC
  8
6
  6
CONTINUOUS
 62
6
 10
3.03689983639781
 20
0.728769163862633
 30
0.0
 40
0.167837461608677
 50
15.5323006463616
 51
30.4238438195322
  0
ARC
  8
6
  6
CONTINUOUS
 62
6
 10
3.04576942367672
 20
0.717258614226342
 30
0.0
 40
0.166642864266765
 50
35.3869817351593
 51
89.620546200157
  0
ARC
  8
6
  6
CONTINUOUS
 62
6
 10
3.03928887313282
 20
0.729527160444304
 30
0.0
 40
0.154556854969387
 50
87.1873419701552
 51
135.129331670968
  0
ARC
  8
6
  6
CONTINUOUS
 62
6
 10
3.07997228986916
 20
0.717849552580923
 30
0.0
 40
0.192713503600304
 50
141.213800350071
 51
177.336432393114
  0
ARC
  8
6
  6
CONTINUOUS
 62
6
 10
3.08696702570382
 20
0.727862464329005
 30
0.0
 40
0.199502838372355
 50
180.30364123867
 51
234.383980280846
  0
ARC
  8
6
  6
CONTINUOUS
 62
6
 10
3.18260108458424
 20
0.910125369440445
 30
0.0
 40
0.404362092326418
 50
238.41088654449
 51
255.096639814963
  0
ARC
  8
6
  6
CONTINUOUS
 62
6
 10
3.18946933120045
 20
0.950547048969906
 30
0.0
 40
0.445206335514208
 50
255.580387068674
 51
277.296434846769
  0
ARC
  8
6
  6
CONTINUOUS
 62
6
 10
3.15061495311221
 20
1.6986771231845
 30
0.0
 40
1.19354978496431
 50
274.584370442195
 51
279.503266597274
  0
ARC
  8
6
  6
CONTINUOUS
 62
6
 10
3.51942874895806
 20
-0.399577765656365
 30
0.0
 40
0.936961764662328
 50
91.5092737202904
 51
100.562598116122
  0
ARC
  8
6
  6
CONTINUOUS
 62
6
 10
3.49628071165066
 20
0.0368585387544772
 30
0.0
 40
0.500202745823669
 50
66.458976738207
 51
90.175295973014
  0
ARC
  8
6
  6
CONTINUOUS
 62
6
 10
3.53439671877937
 20
0.0559277985631543
 30
0.0
 40
0.468294819398415
 50
54.5265688823556
 51
69.8043803612537
  0
ARC
  8
6
  6
CONTINUOUS
 62
6
 10
2.99566761501679
 20
0.168454516086421
 30
0.0
 40
0.873151319971031
 50
18.7678089679401
 51
33.7953311556599
  0
ARC
  8
6
  6
CONTINUOUS
 62
6
 10
3.52260380445027
 20
0.520091404052934
 30
0.0
 40
0.23966299826147
 50
34.0047261423437
 51
87.2850100358626
  0
ARC
  8
6
  6
CONTINUOUS
 62
6
 10
3.52915496151082
 20
0.627366896675413
 30
0.0
 40
0.132205695281844
 50
87.9188036732041
 51
127.951903671218
  0
ARC
  8
6
  6
CONTINUOUS
 62
6
 10
3.51924574336665
 20
0.658172727854844
 30
0.0
 40
0.102427000448456
 50
134.191202301535
 51
182.262854514683
  0
ARC
  8
6
  6
CONTINUOUS
 62
6
 10
3.5208268600384
 20
0.655472598593044
 30
0.0
 40
0.103936936060708
 50
180.740961678544
 51
202.593137529155
  0
ARC
  8
6
  6
CONTINUOUS
 62
6
 10
3.6189434897926
 20
0.699212179170204
 30
0.0
 40
0.211344899685555
 50
203.321856793062
 51
208.420140259963
  0
LINE
  8
6
  6
CONTINUOUS
 62
6
 10
3.4203191598766
 20
0.583495990994299
 30
0.0
 11
3.39971263988706
 21
0.590456154821116
 31
0.0
  0
ARC
  8
6
  6
CONTINUOUS
 62
6
 10
3.41808609612697
 20
0.644312762806854
 30
0.0
 40
0.0569044648329921
 50
208.55783053472
 51
251.162663458903
  0
ARC
  8
6
  6
CONTINUOUS
 62
6
 10
3.45594467319132
 20
0.663232748844145
 30
0.0
 40
0.0992126350753255
 50
178.85675220936
 51
207.703070351296
  0
ARC
  8
6
  6
CONTINUOUS
 62
6
 10
3.47431660575786
 20
0.666910288063408
 30
0.0
 40
0.117577080142732
 50
129.417233445987
 51
180.827489157604
  0
ARC
  8
6
  6
CONTINUOUS
 62
6
 10
3.5033289532183
 20
0.630206478922712
 30
0.0
 40
0.164356523761856
 50
88.5319377463447
 51
129.106176349917
  0
ARC
  8
6
  6
CONTINUOUS
 62
6
 10
3.48971489072224
 20
0.499585216271282
 30
0.0
 40
0.295462002495343
 50
38.1471124055793
 51
86.5413215782624
  0
ARC
  8
6
  6
CONTINUOUS
 62
6
 10
3.07305243221392
 20
0.176450575970221
 30
0.0
 40
0.822737853019746
 50
14.1377759057955
 51
37.9212487966839
  0
ARC
  8
6
  6
CONTINUOUS
 62
6
 10
3.61179033507986
 20
0.0798652891966015
 30
0.0
 40
0.375220965189487
 50
49.8540601128843
 51
70.6359836024462
  0
ARC
  8
6
  6
CONTINUOUS
 62
6
 10
3.57122227356065
 20
-0.0302323147105099
 30
0.0
 40
0.492544739681328
 50
70.430289457676
 51
90.270604583973
  0
ARC
  8
6
  6
CONTINUOUS
 62
6
 10
3.61768582801193
 20
-0.67837475321513
 30
0.0
 40
1.14172463894208
 50
92.4491907778232
 51
100.73802475686
  0
ARC
  8
6
  6
CONTINUOUS
 62
6
 10
3.21913106924428
 20
1.32863116196673
 30
0.0
 40
0.904567402859002
 50
271.581169359741
 51
281.854984934683
  0
ARC
  8
6
  6
CONTINUOUS
 62
6
 10
3.68329693181432
 20
0.589318224049979
 30
0.0
 40
0.506783571674723
 50
200.675393353353
 51
206.729897816865
  0
ARC
  8
6
  6
CONTINUOUS
 62
6
 10
3.23856850100798
 20
0.895226833421325
 30
0.0
 40
0.470851035063338
 50
267.682359318032
 51
270.672011212688
  0
LINE
  8
6
  6
CONTINUOUS
 62
6
 10
3.24016384591697
 20
0.355525777223265
 30
0.0
 11
3.31648422433944
 21
0.355525777223265
 31
0.0
  0
ARC
  8
6
  6
CONTINUOUS
 62
6
 10
3.37026899435882
 20
0.355995537161613
 30
0.0
 40
0.0248831999999925
 50
221.172462474211
 51
322.556585800944
  0
ARC
  8
6
  6
CONTINUOUS
 62
6
 10
3.41904738214632
 20
0.318643044176336
 30
0.0
 40
0.0365540838540636
 50
133.457419473187
 51
142.556585801055
  0
ARC
  8
6
  6
CONTINUOUS
 62
6
 10
3.41920650311954
 20
0.323551041246223
 30
0.0
 40
0.0332844968919746
 50
90.757328169316
 51
139.478401320628
  0
ARC
  8
6
  6
CONTINUOUS
 62
6
 10
3.41822648420863
 20
0.321399734588726
 30
0.0
 40
0.0354370118142423
 50
43.492769460847
 51
89.1267437399859
  0
ARC
  8
6
  6
CONTINUOUS
 62
6
 10
3.42080414385103
 20
0.320623498961395
 30
0.0
 40
0.0341812750023418
 50
0.0224239629127639
 51
47.4135819779449
  0
ARC
  8
6
  6
CONTINUOUS
 62
6
 10
3.41716533547921
 20
0.320357637855393
 30
0.0
 40
0.0378211116001044
 50
315.720674951468
 51
0.423026812686508
  0
ARC
  8
6
  6
CONTINUOUS
 62
6
 10
3.41900578570724
 20
0.316335780674408
 30
0.0
 40
0.0337332689011971
 50
269.593682799467
 51
318.429941410327
  0
ARC
  8
6
  6
CONTINUOUS
 62
6
 10
3.41958022999624
 20
0.317361225753215
 30
0.0
 40
0.0347673881851054
 50
221.642738705916
 51
268.658979436477
  0
ARC
  8
6
  6
CONTINUOUS
 62
6
 10
3.4194841649205
 20
0.320607158908674
 30
0.0
 40
0.0369364615612545
 50
196.030491552906
 51
225.507420532976
  0
ARC
  8
6
  6
CONTINUOUS
 62
6
 10
3.37174144063274
 20
0.30688965209999
 30
0.0
 40
0.0127378548956792
 50
16.0304915530461
 51
106.030491553046
  0
ARC
  8
6
  6
CONTINUOUS
 62
6
 10
3.31151414044966
 20
0.202640551696594
 30
0.0
 40
0.0917340886206019
 50
83.8760940918393
 51
90.8289233620892
  0
ARC
  8
6
  6
CONTINUOUS
 62
6
 10
3.66072604715806
 20
0.640695867364053
 30
0.0
 40
0.692477913495125
 50
220.263103269196
 51
227.280272494485
  0
ARC
  8
6
  6
CONTINUOUS
 62
6
 10
3.27315183687245
 20
0.303401402629215
 30
0.0
 40
0.178866027849654
 50
182.523888512115
 51
218.053700937551
  0
ARC
  8
6
  6
CONTINUOUS
 62
6
 10
3.14915870150811
 20
0.2969757970391
 30
0.0
 40
0.0547186230169447
 50
130.332641497151
 51
181.519438718462
  0
ARC
  8
6
  6
CONTINUOUS
 62
6
 10
3.16221802803443
 20
0.277538207740035
 30
0.0
 40
0.0780323806539385
 50
88.0581569171626
 51
128.40459267745
  0
LINE
  8
6
  6
CONTINUOUS
 62
6
 10
3.16486216052318
 20
0.355525777223275
 30
0.0
 11
3.19252040536705
 21
0.355525777223275
 31
0.0
  0
ARC
  8
6
  6
CONTINUOUS
 62
6
 10
3.3717414406327
 20
0.306889652099995
 30
0.0
 40
0.012737854895665
 50
106.030491552904
 51
148.905944951469
  0
LINE
  8
6
  6
CONTINUOUS
 62
6
 10
3.31018702914762
 20
0.294365040196909
 30
0.0
 11
3.19613687638814
 21
0.294365040196909
 31
0.0
  0
LINE
  8
6
  6
CONTINUOUS
 62
6
 10
3.19613687638814
 20
0.294365040196909
 30
0.0
 11
3.17383551452538
 21
0.294365040196909
 31
0.0
  0
ARC
  8
6
  6
CONTINUOUS
 62
6
 10
3.17620131800311
 20
0.175003992621443
 30
0.0
 40
0.119384491054777
 50
91.1354860802946
 51
98.0075063157673
  0
ARC
  8
6
  6
CONTINUOUS
 62
6
 10
3.16480356911412
 20
0.243131191567786
 30
0.0
 40
0.0503658483379427
 50
95.9636086908659
 51
118.534695146607
  0
ARC
  8
6
  6
CONTINUOUS
 62
6
 10
3.17084793801036
 20
0.232969904127342
 30
0.0
 40
0.0621818370491527
 50
118.955046129078
 51
125.539726892394
  0
ARC
  8
6
  6
CONTINUOUS
 62
6
 10
3.15236908934409
 20
0.259657382855937
 30
0.0
 40
0.0297285590831736
 50
126.457323660467
 51
199.382478915441
  0
ARC
  8
6
  6
CONTINUOUS
 62
6
 10
3.29214142800138
 20
0.296560518328016
 30
0.0
 40
0.174211289671411
 50
195.572808596326
 51
219.869300687825
  0
ARC
  8
6
  6
CONTINUOUS
 62
6
 10
3.49744785632768
 20
0.466859674872896
 30
0.0
 40
0.440955005466182
 50
219.751938457882
 51
232.79053361186
  0
LINE
  8
6
  6
CONTINUOUS
 62
6
 10
3.34140193049977
 20
0.113505940057549
 30
0.0
 11
3.23721706326205
 21
0.113505940057549
 31
0.0
  0
LINE
  8
6
  6
CONTINUOUS
 62
6
 10
3.36307603576816
 20
0.0659088267744373
 30
0.0
 11
3.35161900566622
 21
0.105809720600793
 31
0.0
  0
ARC
  8
6
  6
CONTINUOUS
 62
6
 10
3.37132285179873
 20
-0.242305994458416
 30
0.0
 40
0.291309951380684
 50
206.043389032857
 51
235.683766100603
  0
ARC
  8
6
  6
CONTINUOUS
 62
6
 10
3.26703093146689
 20
-0.298975294235765
 30
0.0
 40
0.172802927933528
 50
182.9649148238
 51
204.343638674768
  0
ARC
  8
6
  6
CONTINUOUS
 62
6
 10
3.12865927902542
 20
-0.307378543947294
 30
0.0
 40
0.0342041432313634
 50
128.599602605081
 51
180.89602709941
  0
ARC
  8
6
  6
CONTINUOUS
 62
6
 10
3.13930148383487
 20
-0.322845899401334
 30
0.0
 40
0.0529484322831013
 50
88.1577632845783
 51
127.157505357888
  0
LINE
  8
6
  6
CONTINUOUS
 62
6
 10
3.14100364655207
 20
-0.269924834376881
 30
0.0
 11
3.28567888759483
 21
-0.269924834376881
 31
0.0
  0
ARC
  8
6
  6
CONTINUOUS
 62
6
 10
3.28567890455193
 20
-0.228380928872161
 30
0.0
 40
0.0415439055047236
 50
269.999976613407
 51
305.352819939007
  0
ARC
  8
6
  6
CONTINUOUS
 62
6
 10
3.28729182072022
 20
-0.240337313504612
 30
0.0
 40
0.0313634378385355
 50
315.643029363807
 51
3.59380495328617
  0
ARC
  8
6
  6
CONTINUOUS
 62
6
 10
3.23793418047906
 20
-0.251848937009081
 30
0.0
 40
0.0817776494252768
 50
9.48604884400788
 51
40.3962333621593
  0
ARC
  8
6
  6
CONTINUOUS
 62
6
 10
2.86701061770986
 20
-0.554158427255187
 30
0.0
 40
0.560275585977788
 50
39.3580750893362
 51
47.5143820881569
  0
LINE
  8
6
  6
CONTINUOUS
 62
6
 10
3.23824411296595
 20
-0.138194016166269
 30
0.0
 11
3.10180197108722
 21
-0.138194016166269
 31
0.0
  0
LINE
  8
6
  6
CONTINUOUS
 62
6
 10
3.10180197108722
 20
-0.138194016166269
 30
0.0
 11
3.08574690329385
 21
-0.0806990751565078
 31
0.0
  0
ARC
  8
6
  6
CONTINUOUS
 62
6
 10
3.15655241537123
 20
0.0850924282010371
 30
0.0
 40
0.163195877353947
 50
249.608279554571
 51
270.996610741786
  0
LINE
  8
6
  6
CONTINUOUS
 62
6
 10
3.15939092397459
 20
-0.0780787618241417
 30
0.0
 11
3.285680097291
 21
-0.0780787618241418
 31
0.0
  0
ARC
  8
6
  6
CONTINUOUS
 62
6
 10
3.285680097291
 20
-0.0365114822292545
 30
0.0
 40
0.0415672795948873
 50
270.000000000002
 51
305.327951403192
  0
ARC
  8
6
  6
CONTINUOUS
 62
6
 10
3.28731745328877
 20
-0.048507732438398
 30
0.0
 40
0.0313378654928421
 50
315.623815468951
 51
3.59702688004535
  0
ARC
  8
6
  6
CONTINUOUS
 62
6
 10
3.24195424099047
 20
-0.0589270904223498
 30
0.0
 40
0.0776336796735551
 50
9.18003170864373
 51
41.0272057096729
  0
ARC
  8
6
  6
CONTINUOUS
 62
6
 10
2.83435975482684
 20
-0.399347313912443
 30
0.0
 40
0.608674620838407
 50
40.0161988568813
 51
47.5195438945617
  0
LINE
  8
6
  6
CONTINUOUS
 62
6
 10
3.23824247205535
 20
0.0523452030311958
 30
0.0
 11
3.10180197108722
 21
0.0523452030311958
 31
0.0
  0
LINE
  8
6
  6
CONTINUOUS
 62
6
 10
3.10180197108722
 20
0.0523452030311958
 30
0.0
 11
3.08497750705714
 21
0.11240232578538
 31
0.0
  0
ARC
  8
6
  6
CONTINUOUS
 62
6
 10
3.12800215619916
 20
0.168715507663899
 30
0.0
 40
0.0520721322170288
 50
238.470996379552
 51
255.143135575584
  0
ARC
  8
6
  6
CONTINUOUS
 62
6
 10
3.15613692367936
 20
0.291267277465098
 30
0.0
 40
0.177791117873878
 50
256.506025326819
 51
271.048707585232
  0
LINE
  8
6
  6
CONTINUOUS
 62
6
 10
3.15939092397459
 20
0.113505940057546
 30
0.0
 11
3.18372878482142
 21
0.113505940057546
 31
0.0
  0
LINE
  8
6
  6
CONTINUOUS
 62
6
 10
3.35285896060171
 20
0.0523452030311933
 30
0.0
 11
3.28871003382111
 21
0.0523452030311926
 31
0.0
  0
ARC
  8
6
  6
CONTINUOUS
 62
6
 10
3.01549847048376
 20
-0.239106499342261
 30
0.0
 40
0.38116776968724
 50
34.5363900248171
 51
45.7869669301283
  0
ARC
  8
6
  6
CONTINUOUS
 62
6
 10
3.2440978197792
 20
-0.0909606418233987
 30
0.0
 40
0.109129396331561
 50
2.8664305814399
 51
38.5099072104136
  0
ARC
  8
6
  6
CONTINUOUS
 62
6
 10
3.30096968784541
 20
-0.088073929421779
 30
0.0
 40
0.0521843412824735
 50
317.260204154403
 51
2.82353974009559
  0
ARC
  8
6
  6
CONTINUOUS
 62
6
 10
3.30517583405578
 20
-0.0912980707233332
 30
0.0
 40
0.0469095613984308
 50
268.619483788091
 51
316.665811958609
  0
LINE
  8
6
  6
CONTINUOUS
 62
6
 10
3.30404567848847
 20
-0.138194016166269
 30
0.0
 11
3.28867549472075
 21
-0.138194016166269
 31
0.0
  0
ARC
  8
6
  6
CONTINUOUS
 62
6
 10
3.02157688140739
 20
-0.422443156283603
 30
0.0
 40
0.371743123966703
 50
34.0755221040169
 51
45.6909057320241
  0
ARC
  8
6
  6
CONTINUOUS
 62
6
 10
3.24070242178938
 20
-0.283274981616679
 30
0.0
 40
0.112517849311237
 50
2.75018634347691
 51
37.8973792056613
  0
ARC
  8
6
  6
CONTINUOUS
 62
6
 10
3.30097346228568
 20
-0.280444390299908
 30
0.0
 40
0.0521804514292083
 50
317.25871963423
 51
2.82107131520942
  0
ARC
  8
6
  6
CONTINUOUS
 62
6
 10
3.30517583405558
 20
-0.283666884617797
 30
0.0
 40
0.0469095613988338
 50
268.619483788347
 51
316.665811958434
  0
LINE
  8
6
  6
CONTINUOUS
 62
6
 10
3.30404567848847
 20
-0.330562830061141
 30
0.0
 11
3.16731920438993
 21
-0.330562830061136
 31
0.0
  0
ARC
  8
6
  6
CONTINUOUS
 62
6
 10
3.16731920438993
 20
-0.399703533500344
 30
0.0
 40
0.0691407034392077
 50
90.0000000000011
 51
114.208839071164
  0
ARC
  8
6
  6
CONTINUOUS
 62
6
 10
3.14655084078006
 20
-0.353652965511968
 30
0.0
 40
0.0186237049358765
 50
114.029600894522
 51
165.89876238469
  0
ARC
  8
6
  6
CONTINUOUS
 62
6
 10
3.15550883909388
 20
-0.35256213837833
 30
0.0
 40
0.0272394361918014
 50
172.730940998122
 51
194.594288433087
  0
ARC
  8
6
  6
CONTINUOUS
 62
6
 10
3.2715965308309
 20
-0.324064262538634
 30
0.0
 40
0.14677169915776
 50
193.941343624135
 51
219.046388167296
  0
ARC
  8
6
  6
CONTINUOUS
 62
6
 10
3.4240393555365
 20
-0.201277587324826
 30
0.0
 40
0.342514360986822
 50
218.9341955583
 51
235.306220662351
  0
LINE
  8
6
  6
CONTINUOUS
 62
6
 10
3.23366299145153
 20
-0.491969546837644
 30
0.0
 11
3.23366299145153
 21
-0.49163488005035
 31
0.0
  0
LINE
  8
6
  6
CONTINUOUS
 62
6
 10
3.21173112377346
 20
-0.491969546837634
 30
0.0
 11
3.21173112377346
 21
-0.491689788828546
 31
0.0
  0
LINE
  8
6
  6
CONTINUOUS
 62
6
 10
3.22236104537346
 20
-0.502599468437632
 30
0.0
 11
3.22303306985153
 21
-0.502599468437652
 31
0.0
  0
ARC
  8
6
  6
CONTINUOUS
 62
6
 10
3.16049429321178
 20
0.546824178096394
 30
0.0
 40
0.0106299215999999
 50
178.968246777171
 51
260.613842255891
  0
ARC
  8
6
  6
CONTINUOUS
 62
6
 10
3.16836873097095
 20
0.545887979740326
 30
0.0
 40
0.0106299216
 50
265.825925769006
 51
359.624737231591
  0
ARC
  8
6
  6
CONTINUOUS
 62
6
 10
3.22303306985153
 20
-0.491634880050349
 30
0.0
 40
0.0106299216000003
 50
359.999999999997
 51
55.3062206623492
  0
ARC
  8
6
  6
CONTINUOUS
 62
6
 10
3.22303306985153
 20
-0.491969546837651
 30
0.0
 40
0.0106299216000006
 50
270.000000000002
 51
3.96106280029466E-11
  0
ARC
  8
6
  6
CONTINUOUS
 62
6
 10
3.22236104537346
 20
-0.491969546837632
 30
0.0
 40
0.0106299216000005
 50
180.000000000011
 51
269.999999999998
  0
ARC
  8
6
  6
CONTINUOUS
 62
6
 10
3.20110120217346
 20
-0.491689788828546
 30
0.0
 40
0.0106299216000001
 50
4.0711099922733E-13
 51
55.6837661006041
  0
ARC
  8
6
  6
CONTINUOUS
 62
6
 10
3.21909768528919
 20
0.414139732196725
 30
0.0
 40
0.0106299215999999
 50
87.6823593180311
 51
200.675393353354
  0
ARC
  8
6
  6
CONTINUOUS
 62
6
 10
3.24016384591697
 20
0.366155698823265
 30
0.0
 40
0.0106299216000003
 50
206.729897816864
 51
269.999999999999
  0
ARC
  8
6
  6
CONTINUOUS
 62
6
 10
3.16598861602605
 20
0.419247766733085
 30
0.0
 40
0.0106299216000002
 50
22.3787530889208
 51
81.3300129244339
  0
ARC
  8
6
  6
CONTINUOUS
 62
6
 10
3.19252040536705
 20
0.366155698823275
 30
0.0
 40
0.0106299216
 50
269.999999999999
 51
30.7267506725853
  0
ARC
  8
6
  6
CONTINUOUS
 62
6
 10
3.23721706326205
 20
0.124135861657549
 30
0.0
 40
0.0106299216000005
 50
232.790533611862
 51
270.000000000001
  0
ARC
  8
6
  6
CONTINUOUS
 62
6
 10
3.18372878482142
 20
0.124135861657546
 30
0.0
 40
0.0106299215999999
 50
269.999999999999
 51
47.2802724944846
  0
ARC
  8
6
  6
CONTINUOUS
 62
6
 10
3.23824247205535
 20
0.0417152814311957
 30
0.0
 40
0.0106299216000001
 50
47.5195438945561
 51
89.9999999999945
  0
ARC
  8
6
  6
CONTINUOUS
 62
6
 10
3.28871003382111
 20
0.0417152814311926
 30
0.0
 40
0.0106299216
 50
89.9999999999988
 51
225.786966930128
  0
ARC
  8
6
  6
CONTINUOUS
 62
6
 10
3.23824411296595
 20
-0.14882393776627
 30
0.0
 40
0.0106299216000004
 50
47.5143820881579
 51
90.0000000000005
  0
ARC
  8
6
  6
CONTINUOUS
 62
6
 10
3.28867549472075
 20
-0.148823937766269
 30
0.0
 40
0.0106299215999999
 50
90.0000000000002
 51
225.690905732026
  0
ARC
  8
6
  6
CONTINUOUS
 62
6
 10
3.81232889924161
 20
0.445956785439647
 30
0.0
 40
0.0106299216000003
 50
234.526568882353
 51
18.7678089679399
  0
ARC
  8
6
  6
CONTINUOUS
 62
6
 10
3.42372077873559
 20
0.593566950350803
 30
0.0
 40
0.0106299215999998
 50
251.336825091721
 51
28.4201402599646
  0
ARC
  8
6
  6
CONTINUOUS
 62
6
 10
3.34140193049977
 20
0.102876018457549
 30
0.0
 40
0.0106299216000004
 50
16.0207404415164
 51
89.9999999999997
  0
ARC
  8
6
  6
CONTINUOUS
 62
6
 10
3.35285896060171
 20
0.0629751246311932
 30
0.0
 40
0.0106299215999998
 50
269.999999999999
 51
16.0207404415158
  0
ARC
  8
6
  6
CONTINUOUS
 62
6
 10
3.0959851447669
 20
-0.0778401164716585
 30
0.0
 40
0.0106299216000001
 50
69.6082795545734
 51
195.602026253074
  0
ARC
  8
6
  6
CONTINUOUS
 62
6
 10
3.09521336419918
 20
0.115269809314492
 30
0.0
 40
0.0106299216000001
 50
58.4709963795568
 51
195.649738983019
  0
ARC
  8
6
  6
CONTINUOUS
 62
6
 10
3.86056257732795
 20
0.374811518742071
 30
0.0
 40
0.0106299216000002
 50
229.854060112883
 51
14.1377759057948
  0
ARC
  8
6
  6
CONTINUOUS
 62
6
 10
3.3256796697445
 20
0.334669370658222
 30
0.0
 40
0.0410524741657167
 50
263.876094091839
 51
328.905944951469
  0
ARC
  8
6
  6
CONTINUOUS
 62
6
 10
3.31648422433944
 20
0.308956172275019
 30
0.0
 40
0.0465696049482453
 50
41.1724624742107
 51
89.9999999999996
  0
ENDSEC
  0
EOF
