  0
SECTION
  2
HEADER
  9
$ACADVER
  1
AC1003
  9
$EXTMIN
 10
-0.826771653000002
 20
2.08661417100003
  9
$EXTMAX
 10
5.31496063
 20
-0.984251969000006
  9
$INSUNITS
 70
1
  9
$INSBASE
 10
2.2440944885
 20
0.55118110100001
999
Created with OMAX LAYOUT for Windows. (www.omax.com) 2/8/2024
  0
ENDSEC
  0
SECTION
  2
TABLES
  0
TABLE
  2
LAYER
 70
    10
  0
LAYER
  2
0
 70
     0
 62
     7
  6
CONTINUOUS
  0
LAYER
  2
1
 70
     0
 62
     7
  6
CONTINUOUS
  0
LAYER
  2
2
 70
     0
 62
     7
  6
CONTINUOUS
  0
LAYER
  2
3
 70
     0
 62
     7
  6
CONTINUOUS
  0
LAYER
  2
4
 70
     0
 62
     7
  6
CONTINUOUS
  0
LAYER
  2
5
 70
     0
 62
     7
  6
CONTINUOUS
  0
LAYER
  2
6
 70
     0
 62
     7
  6
CONTINUOUS
  0
LAYER
  2
7
 70
     0
 62
     7
  6
CONTINUOUS
  0
LAYER
  2
8
 70
     0
 62
     7
  6
CONTINUOUS
  0
LAYER
  2
9
 70
     0
 62
     7
  6
CONTINUOUS
  0
LAYER
  2
10
 70
     0
 62
     7
  6
CONTINUOUS
  0
LAYER
  2
11
 70
     0
 62
     7
  6
CONTINUOUS
  0
LAYER
  2
12
 70
     0
 62
     7
  6
CONTINUOUS
  0
LAYER
  2
13
 70
     0
 62
     7
  6
CONTINUOUS
  0
LAYER
  2
14
 70
     0
 62
     7
  6
CONTINUOUS
  0
LAYER
  2
15
 70
     0
 62
     7
  6
CONTINUOUS
  0
LAYER
  2
16
 70
     0
 62
     7
  6
CONTINUOUS
  0
LAYER
  2
17
 70
     0
 62
     7
  6
CONTINUOUS
  0
LAYER
  2
18
 70
     0
 62
     7
  6
CONTINUOUS
  0
LAYER
  2
19
 70
     0
 62
     7
  6
CONTINUOUS
  0
LAYER
  2
20
 70
     0
 62
     7
  6
CONTINUOUS
  0
LAYER
  2
21
 70
     0
 62
     7
  6
CONTINUOUS
  0
LAYER
  2
22
 70
     0
 62
     7
  6
CONTINUOUS
  0
LAYER
  2
23
 70
     0
 62
     7
  6
CONTINUOUS
  0
LAYER
  2
24
 70
     0
 62
     7
  6
CONTINUOUS
  0
LAYER
  2
25
 70
     0
 62
     7
  6
CONTINUOUS
  0
LAYER
  2
26
 70
     0
 62
     7
  6
CONTINUOUS
  0
LAYER
  2
27
 70
     0
 62
     7
  6
CONTINUOUS
  0
LAYER
  2
28
 70
     0
 62
     7
  6
CONTINUOUS
  0
LAYER
  2
29
 70
     0
 62
     7
  6
CONTINUOUS
  0
LAYER
  2
30
 70
     0
 62
     7
  6
CONTINUOUS
  0
LAYER
  2
31
 70
     0
 62
     7
  6
CONTINUOUS
  0
ENDTAB
  0
ENDSEC
  0
SECTION
  2
ENTITIES
  0
LINE
  8
0
  6
CONTINUOUS
 62
0
 10
4.37007874
 20
0.393700787
 30
0.0
 11
4.37007874
 21
-0.393700788
 31
0.0
  0
LINE
  8
0
  6
CONTINUOUS
 62
0
 10
4.37007874
 20
-0.984251969
 30
0.0
 11
4.133858268
 21
-0.984251969
 31
0.0
  0
LINE
  8
0
  6
CONTINUOUS
 62
0
 10
4.133858268
 20
0.393700787
 30
0.0
 11
4.133858268
 21
-0.984251969
 31
0.0
  0
ARC
  8
0
  6
CONTINUOUS
 62
0
 10
0
 20
1.25984251800002
 30
0.0
 40
0.590551181
 50
359.999999999998
 51
180
  0
ARC
  8
0
  6
CONTINUOUS
 62
0
 10
2.44249065417534E-15
 20
1.259842518
 30
0.0
 40
0.590551181000002
 50
179.999999999999
 51
269.999999999998
  0
ARC
  8
0
  6
CONTINUOUS
 62
0
 10
-7.7715611723761E-16
 20
1.25984251799999
 30
0.0
 40
0.826771652999999
 50
179.999999999998
 51
238.997280885345
  0
ARC
  8
0
  6
CONTINUOUS
 62
0
 10
0
 20
1.25984251800003
 30
0.0
 40
0.826771653
 50
359.999999999998
 51
180
  0
ARC
  8
0
  6
CONTINUOUS
 62
0
 10
4.32986979603811E-15
 20
-0.157480315999974
 30
0.0
 40
0.590551180999996
 50
359.999999999998
 51
90
  0
ARC
  8
0
  6
CONTINUOUS
 62
0
 10
0
 20
-0.157480316000006
 30
0.0
 40
0.590551181
 50
179.999999999998
 51
359.999999999998
  0
ARC
  8
0
  6
CONTINUOUS
 62
0
 10
0
 20
-0.157480316000008
 30
0.0
 40
0.826771653
 50
179.999999999998
 51
359.999999999998
  0
ARC
  8
0
  6
CONTINUOUS
 62
0
 10
7.99360577730113E-15
 20
-0.157480315999971
 30
0.0
 40
0.826771652999992
 50
359.999999999998
 51
58.9972808853465
  0
LINE
  8
0
  6
CONTINUOUS
 62
0
 10
0.826771653
 20
1.25984251800001
 30
0.0
 11
0.590551181
 21
1.25984251800001
 31
0.0
  0
LINE
  8
0
  6
CONTINUOUS
 62
0
 10
-0.590551181
 20
-0.15748031599999
 30
0.0
 11
-0.826771653
 21
-0.15748031599999
 31
0.0
  0
ARC
  8
0
  6
CONTINUOUS
 62
0
 10
1.7430501486615E-14
 20
1.25984251800001
 30
0.0
 40
0.826771653000008
 50
238.997280885345
 51
269.999999999998
  0
ARC
  8
0
  6
CONTINUOUS
 62
0
 10
-6.77236045021346E-15
 20
-0.157480315999989
 30
0.0
 40
0.826771653000007
 50
58.9972808853463
 51
89.9999999999995
  0
ARC
  8
0
  6
CONTINUOUS
 62
0
 10
1.968503937
 20
0.393700787000012
 30
0.0
 40
0.590551181
 50
359.999999999998
 51
180
  0
ARC
  8
0
  6
CONTINUOUS
 62
0
 10
1.968503937
 20
-0.39370078800001
 30
0.0
 40
0.590551181000002
 50
179.999999999999
 51
269.999999999998
  0
ARC
  8
0
  6
CONTINUOUS
 62
0
 10
1.968503937
 20
0.393700787000007
 30
0.0
 40
0.354330709
 50
359.999999999998
 51
180
  0
LINE
  8
0
  6
CONTINUOUS
 62
0
 10
1.614173228
 20
0.393700787
 30
0.0
 11
1.377952756
 21
0.393700787
 31
0.0
  0
ARC
  8
0
  6
CONTINUOUS
 62
0
 10
1.968503937
 20
-0.393700788000004
 30
0.0
 40
0.590551181
 50
53.1301023056451
 51
180
  0
LINE
  8
0
  6
CONTINUOUS
 62
0
 10
2.559055118
 20
-0.393700788
 30
0.0
 11
2.559055118
 21
0.393700787
 31
0.0
  0
LINE
  8
0
  6
CONTINUOUS
 62
0
 10
2.322834646
 20
0.0787401564999999
 30
0.0
 11
2.322834646
 21
0.393700787
 31
0.0
  0
ARC
  8
0
  6
CONTINUOUS
 62
0
 10
1.968503937
 20
-0.393700788000003
 30
0.0
 40
0.354330709
 50
179.999999999999
 51
2.16277718339519E-13
  0
ARC
  8
0
  6
CONTINUOUS
 62
0
 10
1.968503937
 20
-0.393700787999994
 30
0.0
 40
0.354330709
 50
2.03555499613665E-13
 51
180
  0
LINE
  8
0
  6
CONTINUOUS
 62
0
 10
2.559055118
 20
-0.393700788
 30
0.0
 11
2.559055118
 21
-0.984251969
 31
0.0
  0
ARC
  8
0
  6
CONTINUOUS
 62
0
 10
1.96850393700002
 20
-0.393700788000004
 30
0.0
 40
0.590551180999997
 50
269.999999999998
 51
306.869897694353
  0
LINE
  8
0
  6
CONTINUOUS
 62
0
 10
2.322834646
 20
-0.984251969
 30
0.0
 11
2.559055118
 21
-0.984251969
 31
0.0
  0
LINE
  8
0
  6
CONTINUOUS
 62
0
 10
2.322834646
 20
-0.984251969
 30
0.0
 11
2.322834646
 21
-0.866141732500002
 31
0.0
  0
ARC
  8
0
  6
CONTINUOUS
 62
0
 10
4.724409449
 20
0.393700787000011
 30
0.0
 40
0.590551180999999
 50
359.999999999998
 51
143.130102386497
  0
ARC
  8
0
  6
CONTINUOUS
 62
0
 10
4.724409449
 20
0.393700787000007
 30
0.0
 40
0.354330709
 50
359.999999999998
 51
180
  0
LINE
  8
0
  6
CONTINUOUS
 62
0
 10
5.31496063
 20
-0.984251969
 30
0.0
 11
5.31496063
 21
0.393700787
 31
0.0
  0
LINE
  8
0
  6
CONTINUOUS
 62
0
 10
5.078740158
 20
-0.984251969
 30
0.0
 11
5.078740158
 21
0.393700787
 31
0.0
  0
ARC
  8
0
  6
CONTINUOUS
 62
0
 10
3.779527559
 20
0.393700786999999
 30
0.0
 40
0.354330709
 50
359.999999999998
 51
180
  0
LINE
  8
0
  6
CONTINUOUS
 62
0
 10
3.188976378
 20
-0.984251969
 30
0.0
 11
3.188976378
 21
0.393700787
 31
0.0
  0
LINE
  8
0
  6
CONTINUOUS
 62
0
 10
3.42519685
 20
-0.984251969
 30
0.0
 11
3.188976378
 21
-0.984251969
 31
0.0
  0
LINE
  8
0
  6
CONTINUOUS
 62
0
 10
3.42519685
 20
-0.984251969
 30
0.0
 11
3.42519685
 21
0.393700787
 31
0.0
  0
LINE
  8
0
  6
CONTINUOUS
 62
0
 10
4.37007874
 20
-0.984251969
 30
0.0
 11
4.37007874
 21
-0.393700788
 31
0.0
  0
ARC
  8
0
  6
CONTINUOUS
 62
0
 10
3.779527559
 20
0.393700786999994
 30
0.0
 40
0.590551180999999
 50
36.869897613504
 51
180
  0
ENDSEC
  0
EOF
