  0
SECTION
  2
HEADER
  9
$ACADVER
  1
AC1003
  9
$EXTMIN
 10
0.170416901692846
 20
2.34867074645932
  9
$EXTMAX
 10
5.75108086285607
 20
-0.191269937992169
  9
$INSUNITS
 70
1
  9
$INSBASE
 10
2.96074888227446
 20
1.07870040423358
999
Created with OMAX LAYOUT for Windows. (www.omax.com) 3/5/2024
  0
ENDSEC
  0
SECTION
  2
TABLES
  0
TABLE
  2
LAYER
 70
    10
  0
LAYER
  2
0
 70
     0
 62
     7
  6
CONTINUOUS
  0
LAYER
  2
1
 70
     0
 62
     7
  6
CONTINUOUS
  0
LAYER
  2
2
 70
     0
 62
     7
  6
CONTINUOUS
  0
LAYER
  2
3
 70
     0
 62
     7
  6
CONTINUOUS
  0
LAYER
  2
4
 70
     0
 62
     7
  6
CONTINUOUS
  0
LAYER
  2
5
 70
     0
 62
     7
  6
CONTINUOUS
  0
LAYER
  2
6
 70
     0
 62
     7
  6
CONTINUOUS
  0
LAYER
  2
7
 70
     0
 62
     7
  6
CONTINUOUS
  0
LAYER
  2
8
 70
     0
 62
     7
  6
CONTINUOUS
  0
LAYER
  2
9
 70
     0
 62
     7
  6
CONTINUOUS
  0
LAYER
  2
10
 70
     0
 62
     7
  6
CONTINUOUS
  0
LAYER
  2
11
 70
     0
 62
     7
  6
CONTINUOUS
  0
LAYER
  2
12
 70
     0
 62
     7
  6
CONTINUOUS
  0
LAYER
  2
13
 70
     0
 62
     7
  6
CONTINUOUS
  0
LAYER
  2
14
 70
     0
 62
     7
  6
CONTINUOUS
  0
LAYER
  2
15
 70
     0
 62
     7
  6
CONTINUOUS
  0
LAYER
  2
16
 70
     0
 62
     7
  6
CONTINUOUS
  0
LAYER
  2
17
 70
     0
 62
     7
  6
CONTINUOUS
  0
LAYER
  2
18
 70
     0
 62
     7
  6
CONTINUOUS
  0
LAYER
  2
19
 70
     0
 62
     7
  6
CONTINUOUS
  0
LAYER
  2
20
 70
     0
 62
     7
  6
CONTINUOUS
  0
LAYER
  2
21
 70
     0
 62
     7
  6
CONTINUOUS
  0
LAYER
  2
22
 70
     0
 62
     7
  6
CONTINUOUS
  0
LAYER
  2
23
 70
     0
 62
     7
  6
CONTINUOUS
  0
LAYER
  2
24
 70
     0
 62
     7
  6
CONTINUOUS
  0
LAYER
  2
25
 70
     0
 62
     7
  6
CONTINUOUS
  0
LAYER
  2
26
 70
     0
 62
     7
  6
CONTINUOUS
  0
LAYER
  2
27
 70
     0
 62
     7
  6
CONTINUOUS
  0
LAYER
  2
28
 70
     0
 62
     7
  6
CONTINUOUS
  0
LAYER
  2
29
 70
     0
 62
     7
  6
CONTINUOUS
  0
LAYER
  2
30
 70
     0
 62
     7
  6
CONTINUOUS
  0
LAYER
  2
31
 70
     0
 62
     7
  6
CONTINUOUS
  0
ENDTAB
  0
ENDSEC
  0
SECTION
  2
ENTITIES
  0
LINE
  8
0
  6
CONTINUOUS
 62
0
 10
0.170416901692846
 20
-0.191269937992169
 30
0.0
 11
0.958943736958212
 21
1.71555709447279
 31
0.0
  0
LINE
  8
0
  6
CONTINUOUS
 62
0
 10
0.859038914800026
 20
1.70683321699973
 30
0.0
 11
0.170416901692846
 21
2.29867074645932
 31
0.0
  0
LINE
  8
0
  6
CONTINUOUS
 62
0
 10
0.320416901692846
 20
2.34867074645932
 30
0.0
 11
0.170416901692846
 21
2.34867074645932
 31
0.0
  0
LINE
  8
0
  6
CONTINUOUS
 62
0
 10
4.19338487228708
 20
1.35466922406332
 30
0.0
 11
5.75108086285607
 21
1.35466922406332
 31
0.0
  0
LINE
  8
0
  6
CONTINUOUS
 62
0
 10
4.19338487228708
 20
-0.0703523445960113
 30
0.0
 11
5.75108086285607
 21
-0.0703523445960113
 31
0.0
  0
LINE
  8
0
  6
CONTINUOUS
 62
0
 10
4.19338487228708
 20
1.35466922406332
 30
0.0
 11
4.19338487228708
 21
-0.0703523445960113
 31
0.0
  0
LINE
  8
0
  6
CONTINUOUS
 62
0
 10
5.75108086285607
 20
1.35466922406332
 30
0.0
 11
5.75108086285607
 21
-0.0703523445960113
 31
0.0
  0
ARC
  8
0
  6
CONTINUOUS
 62
0
 10
4.89115405418234
 20
0.745349656774502
 30
0.0
 40
0.152646586325851
 50
213.178511659392
 51
359.999999999999
  0
ARC
  8
0
  6
CONTINUOUS
 62
0
 10
4.89115405418234
 20
0.745349656774502
 30
0.0
 40
0.152646586325847
 50
33.1785116593933
 51
45.0000000000007
  0
ARC
  8
0
  6
CONTINUOUS
 62
0
 10
4.89115405418233
 20
0.745349656774501
 30
0.0
 40
0.152646586325849
 50
179.999999999999
 51
213.178511659392
  0
ARC
  8
0
  6
CONTINUOUS
 62
0
 10
4.89115405418234
 20
0.745349656774504
 30
0.0
 40
0.152646586325846
 50
359.999999999999
 51
33.1785116593931
  0
ARC
  8
0
  6
CONTINUOUS
 62
0
 10
4.89115405418233
 20
0.745349656774501
 30
0.0
 40
0.152646586325849
 50
134.999999999999
 51
180
  0
LINE
  8
0
  6
CONTINUOUS
 62
0
 10
4.89115405418234
 20
0.961224529406475
 30
0.0
 11
4.78321661786635
 21
0.853287093090488
 31
0.0
  0
LINE
  8
0
  6
CONTINUOUS
 62
0
 10
4.89115405418234
 20
0.961224529406475
 30
0.0
 11
4.99909149049832
 21
0.853287093090488
 31
0.0
  0
ARC
  8
3
  6
CONTINUOUS
 62
3
 10
1.28887635046326
 20
1.78581911450039
 30
0.0
 40
0.0196850399999999
 50
44.9999999999998
 51
115.528779585301
  0
ARC
  8
3
  6
CONTINUOUS
 62
3
 10
1.28887635046326
 20
1.78581911450039
 30
0.0
 40
0.0196850399999999
 50
334.471220414698
 51
44.9999999999998
  0
ARC
  8
3
  6
CONTINUOUS
 62
3
 10
1.34216585473518
 20
1.76036845999886
 30
0.0
 40
0.0393700789999999
 50
154.471220414699
 51
180
  0
LINE
  8
3
  6
CONTINUOUS
 62
3
 10
0.809086503720933
 20
1.70901418636799
 30
0.0
 11
0.809086503720933
 21
1.25539241934635
 31
0.0
  0
LINE
  8
3
  6
CONTINUOUS
 62
3
 10
0.809086503720933
 20
1.25539241934635
 30
0.0
 11
1.30279577573518
 21
1.25539241934635
 31
0.0
  0
LINE
  8
3
  6
CONTINUOUS
 62
3
 10
1.30279577573518
 20
1.25539241934635
 30
0.0
 11
1.30279577573518
 21
1.76036845999886
 31
0.0
  0
LINE
  8
3
  6
CONTINUOUS
 62
3
 10
1.26342569596172
 20
1.79973853977232
 30
0.0
 11
0.809086503720933
 21
1.79973853977232
 31
0.0
  0
LINE
  8
3
  6
CONTINUOUS
 62
3
 10
0.809086503720933
 20
1.79973853977232
 30
0.0
 11
0.809086503720933
 21
1.70901418636799
 31
0.0
  0
LINE
  8
3
  6
CONTINUOUS
 62
3
 10
0.320416901692846
 20
2.29867074645932
 30
0.0
 11
1.78698390677431
 21
2.29867074645932
 31
0.0
  0
LINE
  8
3
  6
CONTINUOUS
 62
3
 10
1.78698390677431
 20
2.29867074645932
 30
0.0
 11
1.78698390677431
 21
0.872394043715262
 31
0.0
  0
LINE
  8
3
  6
CONTINUOUS
 62
3
 10
1.78698390677431
 20
0.872394043715262
 30
0.0
 11
1.28335512755677
 21
0.872394043715262
 31
0.0
  0
LINE
  8
3
  6
CONTINUOUS
 62
3
 10
1.28335512755677
 20
0.872394043715262
 30
0.0
 11
1.28335512755677
 21
-0.191269937992169
 31
0.0
  0
LINE
  8
3
  6
CONTINUOUS
 62
3
 10
1.28335512755677
 20
-0.191269937992169
 30
0.0
 11
0.844190832079076
 21
-0.191269937992169
 31
0.0
  0
LINE
  8
3
  6
CONTINUOUS
 62
3
 10
0.844190832079076
 20
-0.191269937992169
 30
0.0
 11
0.844190832079076
 21
0.872394043715262
 31
0.0
  0
LINE
  8
3
  6
CONTINUOUS
 62
3
 10
0.844190832079076
 20
0.872394043715262
 30
0.0
 11
0.320416901692846
 21
0.872394043715262
 31
0.0
  0
LINE
  8
3
  6
CONTINUOUS
 62
3
 10
0.320416901692846
 20
0.872394043715262
 30
0.0
 11
0.320416901692846
 21
2.29867074645932
 31
0.0
  0
ARC
  8
3
  6
CONTINUOUS
 62
3
 10
1.26342569596172
 20
1.83910861877232
 30
0.0
 40
0.0393700789999999
 50
270
 51
295.528779585301
  0
LINE
  8
9
  6
CONTINUOUS
 62
9
 10
0.958943736958212
 20
1.71555709447279
 30
0.0
 11
0.809086503720933
 21
1.70901418636799
 31
0.0
  0
LINE
  8
9
  6
CONTINUOUS
 62
9
 10
0.809086503720933
 20
1.70901418636799
 30
0.0
 11
0.859038914800026
 21
1.70683321699973
 31
0.0
  0
LINE
  8
9
  6
CONTINUOUS
 62
9
 10
0.170416901692846
 20
2.29867074645932
 30
0.0
 11
0.320416901692846
 21
2.29867074645932
 31
0.0
  0
LINE
  8
9
  6
CONTINUOUS
 62
9
 10
0.320416901692846
 20
2.29867074645932
 30
0.0
 11
0.320416901692846
 21
2.34867074645932
 31
0.0
  0
ENDSEC
  0
EOF
