999
File generated by Conversation
0
SECTION
2
HEADER
0
SECTION
2
HEADER
9
$ACADVER
1
AC1021
9
$INSBASE
10
0.0
20
0.0
30
0.0
9
$INSUNITS
70
4
9
$EXTMIN
10
0.0
20
0.0
30
0.0
9
$EXTMAX
10
1000.0
20
1000.0
30
0.0
0
ENDSEC
0
SECTION
2
TABLES
0
TABLE
2
LTYPE
70
1
0
LTYPE
2
CONTINUOUS
70
64
3
Solid line
72
65
73
0
40
0.0
0
ENDTAB
0
TABLE
2
LAYER
70
1
0
LAYER
2
0
70
64
62
7
6
CONTINUOUS
0
ENDTAB
0
TABLE
2
STYLE
70
1
0
STYLE
2
STANDARD
70
0
40
0.0
41
1.0
50
0.0
71
0
42
0.2
3
txt
4

0
ENDTAB
0
ENDSEC
0
SECTION
2
ENTITIES
0
LINE
8
0
62
0
10
40.000000
20
80.000000
30
0.0
11
40.000000
21
60.000000
31
0.0
0
LINE
8
0
62
0
10
5.000000
20
60.000000
30
0.0
11
5.000000
21
65.000000
31
0.0
0
LINE
8
0
62
0
10
5.000000
20
75.000000
30
0.0
11
5.000000
21
80.000000
31
0.0
0
LINE
8
0
62
0
10
5.000000
20
40.000000
30
0.0
11
0.000000
21
40.000000
31
0.0
0
LINE
8
0
62
0
10
0.000000
20
80.000000
30
0.0
11
40.000000
21
80.000000
31
0.0
0
LINE
8
0
62
0
10
0.000000
20
60.000000
30
0.0
11
40.000000
21
60.000000
31
0.0
0
LINE
8
0
62
0
10
0.000000
20
69.000000
30
0.0
11
0.000000
21
60.000000
31
0.0
0
LINE
8
0
62
0
10
5.000000
20
72.500000
30
0.0
11
5.000000
21
75.000000
31
0.0
0
LINE
8
0
62
0
10
0.000000
20
0.000000
30
0.0
11
0.000000
21
40.000000
31
0.0
0
LINE
8
0
62
0
10
40.000000
20
0.000000
30
0.0
11
0.000000
21
0.000000
31
0.0
0
LINE
8
0
62
0
10
40.000000
20
5.000000
30
0.0
11
40.000000
21
0.000000
31
0.0
0
LINE
8
0
62
0
10
5.000000
20
40.000000
30
0.0
11
4.999999
21
5.000000
31
0.0
0
LINE
8
0
62
0
10
40.000000
20
5.000000
30
0.0
11
4.999999
21
5.000000
31
0.0
0
LINE
8
0
62
0
10
0.000000
20
80.000000
30
0.0
11
0.000000
21
71.000000
31
0.0
0
LINE
8
0
62
1
10
0.000000
20
71.000000
30
0.0
11
0.000000
21
69.000000
31
0.0
0
LINE
8
0
62
1
10
0.000000
20
71.000000
30
0.0
11
2.000000
21
71.000000
31
0.0
0
LINE
8
0
62
1
10
0.000000
20
69.000000
30
0.0
11
2.000000
21
69.000000
31
0.0
0
LINE
8
0
62
3
10
2.000000
20
69.000000
30
0.0
11
2.000000
21
67.500000
31
0.0
0
LINE
8
0
62
0
10
5.000000
20
65.000000
30
0.0
11
5.000000
21
67.500000
31
0.0
0
LINE
8
0
62
3
10
2.000000
20
67.500000
30
0.0
11
5.000000
21
67.500000
31
0.0
0
LINE
8
0
62
3
10
2.000000
20
71.000000
30
0.0
11
2.000000
21
72.500000
31
0.0
0
LINE
8
0
62
3
10
2.000000
20
72.500000
30
0.0
11
5.000000
21
72.500000
31
0.0
0
LINE
8
0
62
0
10
5.000000
20
72.500000
30
0.0
11
5.000000
21
70.000000
31
0.0
0
LINE
8
0
62
0
10
5.000000
20
70.000000
30
0.0
11
5.000000
21
67.500000
31
0.0
0
LINE
8
0
62
3
10
10.000000
20
72.500000
30
0.0
11
35.000000
21
72.500000
31
0.0
0
ARC
8
0
62
3
10
35.000000
20
70.000000
30
0.0
40
2.500000
50
270.000000
51
90.000000
0
ARC
8
0
62
3
10
10.000000
20
70.000000
30
0.0
40
2.500000
50
90.000000
51
270.000000
0
LINE
8
0
62
3
10
35.000000
20
67.500000
30
0.0
11
10.000000
21
67.500000
31
0.0
0
LINE
8
0
62
1
10
10.000000
20
71.000000
30
0.0
11
35.000000
21
71.000000
31
0.0
0
LINE
8
0
62
1
10
35.000000
20
69.000000
30
0.0
11
10.000000
21
69.000000
31
0.0
0
ARC
8
0
62
1
10
10.000000
20
70.000000
30
0.0
40
1.000000
50
90.000000
51
270.000000
0
ARC
8
0
62
1
10
35.000000
20
70.000000
30
0.0
40
1.000000
50
270.000000
51
90.000000
0
LINE
8
0
62
0
10
60.000000
20
40.000000
30
0.0
11
80.000000
21
40.000000
31
0.0
0
LINE
8
0
62
0
10
80.000000
20
5.000000
30
0.0
11
75.000000
21
5.000000
31
0.0
0
LINE
8
0
62
0
10
65.000000
20
5.000000
30
0.0
11
60.000000
21
5.000000
31
0.0
0
LINE
8
0
62
0
10
60.000000
20
0.000000
30
0.0
11
60.000000
21
40.000000
31
0.0
0
LINE
8
0
62
0
10
80.000000
20
0.000001
30
0.0
11
80.000000
21
40.000000
31
0.0
0
LINE
8
0
62
0
10
71.000000
20
0.000000
30
0.0
11
80.000000
21
0.000001
31
0.0
0
LINE
8
0
62
0
10
67.500000
20
5.000000
30
0.0
11
65.000000
21
5.000000
31
0.0
0
LINE
8
0
62
0
10
60.000000
20
0.000000
30
0.0
11
69.000000
21
0.000000
31
0.0
0
LINE
8
0
62
1
10
69.000000
20
0.000000
30
0.0
11
71.000000
21
0.000000
31
0.0
0
LINE
8
0
62
1
10
69.000000
20
0.000000
30
0.0
11
69.000000
21
2.000000
31
0.0
0
LINE
8
0
62
1
10
71.000000
20
0.000000
30
0.0
11
71.000000
21
2.000000
31
0.0
0
LINE
8
0
62
3
10
71.000000
20
2.000000
30
0.0
11
72.500000
21
2.000000
31
0.0
0
LINE
8
0
62
0
10
75.000000
20
5.000000
30
0.0
11
72.500000
21
5.000000
31
0.0
0
LINE
8
0
62
3
10
72.500000
20
2.000000
30
0.0
11
72.500000
21
5.000000
31
0.0
0
LINE
8
0
62
3
10
69.000000
20
2.000000
30
0.0
11
67.500000
21
2.000000
31
0.0
0
LINE
8
0
62
3
10
67.500000
20
2.000000
30
0.0
11
67.500000
21
5.000000
31
0.0
0
LINE
8
0
62
0
10
67.500000
20
5.000000
30
0.0
11
70.000000
21
5.000000
31
0.0
0
LINE
8
0
62
0
10
70.000000
20
5.000000
30
0.0
11
72.500000
21
5.000000
31
0.0
0
LINE
8
0
62
3
10
67.500000
20
10.000001
30
0.0
11
67.500000
21
35.000000
31
0.0
0
ARC
8
0
62
3
10
70.000000
20
35.000000
30
0.0
40
2.500000
50
0.000000
51
180.000000
0
ARC
8
0
62
3
10
70.000000
20
10.000001
30
0.0
40
2.500000
50
180.000000
51
0.000000
0
LINE
8
0
62
3
10
72.500000
20
35.000000
30
0.0
11
72.500000
21
10.000001
31
0.0
0
LINE
8
0
62
1
10
69.000000
20
10.000001
30
0.0
11
69.000000
21
35.000000
31
0.0
0
LINE
8
0
62
1
10
71.000000
20
35.000000
30
0.0
11
71.000000
21
10.000001
31
0.0
0
ARC
8
0
62
1
10
70.000000
20
10.000001
30
0.0
40
1.000000
50
180.000000
51
0.000000
0
ARC
8
0
62
1
10
70.000000
20
35.000000
30
0.0
40
1.000000
50
0.000000
51
180.000000
0
ENDSEC
0
EOF
