  0
SECTION
  2
HEADER
  9
$ACADVER
  1
AC1003
  9
$EXTMIN
 10
-0.745416078794851
 20
2.54877104138697
  9
$EXTMAX
 10
6.685039369
 20
-0.464566929036226
  9
$INSUNITS
 70
1
  9
$INSBASE
 10
2.96981164510258
 20
1.04210205617537
999
Created with OMAX LAYOUT for Windows. (www.omax.com) 3/13/2024
  0
ENDSEC
  0
SECTION
  2
TABLES
  0
TABLE
  2
LAYER
 70
    10
  0
LAYER
  2
0
 70
     0
 62
     7
  6
CONTINUOUS
  0
LAYER
  2
1
 70
     0
 62
     7
  6
CONTINUOUS
  0
LAYER
  2
2
 70
     0
 62
     7
  6
CONTINUOUS
  0
LAYER
  2
3
 70
     0
 62
     7
  6
CONTINUOUS
  0
LAYER
  2
4
 70
     0
 62
     7
  6
CONTINUOUS
  0
LAYER
  2
5
 70
     0
 62
     7
  6
CONTINUOUS
  0
LAYER
  2
6
 70
     0
 62
     7
  6
CONTINUOUS
  0
LAYER
  2
7
 70
     0
 62
     7
  6
CONTINUOUS
  0
LAYER
  2
8
 70
     0
 62
     7
  6
CONTINUOUS
  0
LAYER
  2
9
 70
     0
 62
     7
  6
CONTINUOUS
  0
LAYER
  2
10
 70
     0
 62
     7
  6
CONTINUOUS
  0
LAYER
  2
11
 70
     0
 62
     7
  6
CONTINUOUS
  0
LAYER
  2
12
 70
     0
 62
     7
  6
CONTINUOUS
  0
LAYER
  2
13
 70
     0
 62
     7
  6
CONTINUOUS
  0
LAYER
  2
14
 70
     0
 62
     7
  6
CONTINUOUS
  0
LAYER
  2
15
 70
     0
 62
     7
  6
CONTINUOUS
  0
LAYER
  2
16
 70
     0
 62
     7
  6
CONTINUOUS
  0
LAYER
  2
17
 70
     0
 62
     7
  6
CONTINUOUS
  0
LAYER
  2
18
 70
     0
 62
     7
  6
CONTINUOUS
  0
LAYER
  2
19
 70
     0
 62
     7
  6
CONTINUOUS
  0
LAYER
  2
20
 70
     0
 62
     7
  6
CONTINUOUS
  0
LAYER
  2
21
 70
     0
 62
     7
  6
CONTINUOUS
  0
LAYER
  2
22
 70
     0
 62
     7
  6
CONTINUOUS
  0
LAYER
  2
23
 70
     0
 62
     7
  6
CONTINUOUS
  0
LAYER
  2
24
 70
     0
 62
     7
  6
CONTINUOUS
  0
LAYER
  2
25
 70
     0
 62
     7
  6
CONTINUOUS
  0
LAYER
  2
26
 70
     0
 62
     7
  6
CONTINUOUS
  0
LAYER
  2
27
 70
     0
 62
     7
  6
CONTINUOUS
  0
LAYER
  2
28
 70
     0
 62
     7
  6
CONTINUOUS
  0
LAYER
  2
29
 70
     0
 62
     7
  6
CONTINUOUS
  0
LAYER
  2
30
 70
     0
 62
     7
  6
CONTINUOUS
  0
LAYER
  2
31
 70
     0
 62
     7
  6
CONTINUOUS
  0
ENDTAB
  0
ENDSEC
  0
SECTION
  2
ENTITIES
  0
LINE
  8
0
  6
CONTINUOUS
 62
0
 10
0.40105134722349
 20
-0.105203478974777
 30
0.0
 11
1.54638728169291
 21
-0.087772826859275
 31
0.0
  0
LINE
  8
0
  6
CONTINUOUS
 62
0
 10
1.64514583522349
 20
-0.105203478974777
 30
0.0
 11
2.79048176969291
 21
-0.0877728268592752
 31
0.0
  0
LINE
  8
0
  6
CONTINUOUS
 62
0
 10
2.88924032322349
 20
-0.105203478974777
 30
0.0
 11
4.03457625769291
 21
-0.0877728268592753
 31
0.0
  0
LINE
  8
0
  6
CONTINUOUS
 62
0
 10
4.13333481122349
 20
-0.105203478974777
 30
0.0
 11
5.27867074569291
 21
-0.0877728268592755
 31
0.0
  0
LINE
  8
0
  6
CONTINUOUS
 62
0
 10
5.37742929922349
 20
-0.105203478974777
 30
0.0
 11
6.43837926528939
 21
-0.227159894668561
 31
0.0
  0
LINE
  8
0
  6
CONTINUOUS
 62
0
 10
-0.745416078794851
 20
3.46499981907564E-16
 30
0.0
 11
0.302292793692912
 21
-0.0877728268592749
 31
0.0
  0
LINE
  8
0
  6
CONTINUOUS
 62
0
 10
6.51519135543013
 20
-0.291634558970404
 30
0.0
 11
6.51519135543013
 21
2.54877104138697
 31
0.0
  0
ARC
  8
5
  6
CONTINUOUS
 62
5
 10
1.58434376729133E-10
 20
-2.08544015389833E-11
 30
0.0
 40
0.464566928841568
 50
344.999999997427
 51
2.57237696666077E-9
  0
ARC
  8
5
  6
CONTINUOUS
 62
5
 10
8.88178419700125E-16
 20
4.97658865268624E-15
 30
0.0
 40
0.464566929
 50
359.999999999999
 51
180
  0
ARC
  8
5
  6
CONTINUOUS
 62
5
 10
-5.49105205749356E-12
 20
-4.17203396556586E-11
 30
0.0
 40
0.464566928994508
 50
179.999999994855
 51
345.000000005144
  0
ARC
  8
5
  6
CONTINUOUS
 62
5
 10
1.24409448815843
 20
-2.08545541946492E-11
 30
0.0
 40
0.464566928841567
 50
344.999999997427
 51
2.57237696666077E-9
  0
ARC
  8
5
  6
CONTINUOUS
 62
5
 10
1.244094488
 20
4.82423101942963E-15
 30
0.0
 40
0.464566929
 50
359.999999999999
 51
180
  0
ARC
  8
5
  6
CONTINUOUS
 62
5
 10
1.24409448799451
 20
-4.17203782272114E-11
 30
0.0
 40
0.464566928994508
 50
179.999999994855
 51
345.000000005144
  0
ARC
  8
5
  6
CONTINUOUS
 62
5
 10
2.48818897615843
 20
-2.08531109047172E-11
 30
0.0
 40
0.464566928841568
 50
344.999999997427
 51
2.57217341116115E-9
  0
ARC
  8
5
  6
CONTINUOUS
 62
5
 10
2.488188976
 20
4.61498034591407E-15
 30
0.0
 40
0.464566929
 50
359.999999999999
 51
180
  0
ARC
  8
5
  6
CONTINUOUS
 62
5
 10
2.48818897599451
 20
-4.17205874778849E-11
 30
0.0
 40
0.464566928994508
 50
179.999999994855
 51
345.000000005144
  0
ARC
  8
5
  6
CONTINUOUS
 62
5
 10
3.73228346415844
 20
-2.08511680144241E-11
 30
0.0
 40
0.464566928841568
 50
344.999999997427
 51
2.57195713344281E-9
  0
ARC
  8
5
  6
CONTINUOUS
 62
5
 10
3.732283464
 20
4.51951575291642E-15
 30
0.0
 40
0.464566929
 50
359.999999999999
 51
180
  0
ARC
  8
5
  6
CONTINUOUS
 62
5
 10
3.73228346399451
 20
-4.17206829424779E-11
 30
0.0
 40
0.464566928994508
 50
179.999999994855
 51
345.000000005144
  0
ARC
  8
5
  6
CONTINUOUS
 62
5
 10
4.97637795215844
 20
-2.08550121616469E-11
 30
0.0
 40
0.464566928841568
 50
344.999999997427
 51
2.57237696666077E-9
  0
ARC
  8
5
  6
CONTINUOUS
 62
5
 10
4.976377952
 20
4.36715811965981E-15
 30
0.0
 40
0.464566929
 50
359.999999999999
 51
180
  0
ARC
  8
5
  6
CONTINUOUS
 62
5
 10
4.97637795199451
 20
-4.17209490861917E-11
 30
0.0
 40
0.464566928994508
 50
179.999999994855
 51
345.000000005144
  0
ARC
  8
5
  6
CONTINUOUS
 62
5
 10
6.22047244005036
 20
-2.0855872584491E-11
 30
0.0
 40
0.464566928949644
 50
314.999999997427
 51
2.57232448750852E-9
  0
ARC
  8
5
  6
CONTINUOUS
 62
5
 10
6.22047244
 20
4.27169352666216E-15
 30
0.0
 40
0.464566929
 50
359.999999999999
 51
180
  0
ARC
  8
5
  6
CONTINUOUS
 62
5
 10
6.22047243998272
 20
-4.17210445497261E-11
 30
0.0
 40
0.464566928982721
 50
179.999999994855
 51
315.000000005144
  0
LINE
  8
9
  6
CONTINUOUS
 62
9
 10
0.302292793692912
 20
-0.0877728268592749
 30
0.0
 11
0.448737194760901
 21
-0.12023876894999
 31
0.0
  0
LINE
  8
9
  6
CONTINUOUS
 62
9
 10
0.448737194760901
 20
-0.12023876894999
 30
0.0
 11
0.40105134722349
 21
-0.105203478974777
 31
0.0
  0
LINE
  8
9
  6
CONTINUOUS
 62
9
 10
1.54638728169291
 20
-0.087772826859275
 30
0.0
 11
1.6928316827609
 21
-0.12023876894999
 31
0.0
  0
LINE
  8
9
  6
CONTINUOUS
 62
9
 10
1.6928316827609
 20
-0.12023876894999
 30
0.0
 11
1.64514583522349
 21
-0.105203478974777
 31
0.0
  0
LINE
  8
9
  6
CONTINUOUS
 62
9
 10
2.79048176969291
 20
-0.0877728268592752
 30
0.0
 11
2.9369261707609
 21
-0.120238768949991
 31
0.0
  0
LINE
  8
9
  6
CONTINUOUS
 62
9
 10
2.9369261707609
 20
-0.120238768949991
 30
0.0
 11
2.88924032322349
 21
-0.105203478974777
 31
0.0
  0
LINE
  8
9
  6
CONTINUOUS
 62
9
 10
4.03457625769291
 20
-0.0877728268592753
 30
0.0
 11
4.1810206587609
 21
-0.120238768949991
 31
0.0
  0
LINE
  8
9
  6
CONTINUOUS
 62
9
 10
4.1810206587609
 20
-0.120238768949991
 30
0.0
 11
4.13333481122349
 21
-0.105203478974777
 31
0.0
  0
LINE
  8
9
  6
CONTINUOUS
 62
9
 10
5.27867074569291
 20
-0.0877728268592755
 30
0.0
 11
5.4251151467609
 21
-0.120238768949991
 31
0.0
  0
LINE
  8
9
  6
CONTINUOUS
 62
9
 10
5.4251151467609
 20
-0.120238768949991
 30
0.0
 11
5.37742929922349
 21
-0.105203478974777
 31
0.0
  0
LINE
  8
9
  6
CONTINUOUS
 62
9
 10
6.43837926528939
 20
-0.227159894668561
 30
0.0
 11
6.54897086581091
 21
-0.32849842581091
 31
0.0
  0
LINE
  8
9
  6
CONTINUOUS
 62
9
 10
6.54897086581091
 20
-0.32849842581091
 30
0.0
 11
6.51519135543013
 21
-0.291634558970404
 31
0.0
  0
ENDSEC
  0
EOF
