999
File generated by Conversation
0
SECTION
2
HEADER
0
SECTION
2
HEADER
9
$ACADVER
1
AC1021
9
$INSBASE
10
0.0
20
0.0
30
0.0
9
$INSUNITS
70
4
9
$EXTMIN
10
0.0
20
0.0
30
0.0
9
$EXTMAX
10
1000.0
20
1000.0
30
0.0
0
ENDSEC
0
SECTION
2
TABLES
0
TABLE
2
LTYPE
70
1
0
LTYPE
2
CONTINUOUS
70
64
3
Solid line
72
65
73
0
40
0.0
0
ENDTAB
0
TABLE
2
LAYER
70
1
0
LAYER
2
0
70
64
62
7
6
CONTINUOUS
0
ENDTAB
0
TABLE
2
STYLE
70
1
0
STYLE
2
STANDARD
70
0
40
0.0
41
1.0
50
0.0
71
0
42
0.2
3
txt
4

0
ENDTAB
0
ENDSEC
0
SECTION
2
ENTITIES
0
CIRCLE
8
0
62
1
10
8.000000
20
0.000000
30
0.0
40
1.700000
0
CIRCLE
8
0
62
1
10
-0.000000
20
8.000000
30
0.0
40
1.700000
0
CIRCLE
8
0
62
1
10
-8.000000
20
-0.000001
30
0.0
40
1.700000
0
CIRCLE
8
0
62
1
10
0.000000
20
-8.000000
30
0.0
40
1.700000
0
LINE
8
0
62
3
10
11.117691
20
0.000000
30
0.0
11
9.558846
21
2.700000
31
0.0
0
LINE
8
0
62
3
10
9.558846
20
2.700000
30
0.0
11
6.441154
21
2.700000
31
0.0
0
LINE
8
0
62
3
10
6.441154
20
2.700000
30
0.0
11
4.882309
21
-0.000000
31
0.0
0
LINE
8
0
62
3
10
4.882309
20
-0.000000
30
0.0
11
6.441154
21
-2.700000
31
0.0
0
LINE
8
0
62
3
10
6.441154
20
-2.700000
30
0.0
11
9.558846
21
-2.700000
31
0.0
0
LINE
8
0
62
3
10
9.558846
20
-2.700000
30
0.0
11
11.117691
21
0.000001
31
0.0
0
LINE
8
0
62
3
10
-0.000000
20
11.117691
30
0.0
11
-2.700001
21
9.558846
31
0.0
0
LINE
8
0
62
3
10
-11.117691
20
-0.000001
30
0.0
11
-9.558846
21
-2.700001
31
0.0
0
LINE
8
0
62
3
10
0.000000
20
-11.117691
30
0.0
11
2.700000
21
-9.558846
31
0.0
0
LINE
8
0
62
3
10
-2.700001
20
9.558846
30
0.0
11
-2.700000
21
6.441154
31
0.0
0
LINE
8
0
62
3
10
-9.558846
20
-2.700001
30
0.0
11
-6.441154
21
-2.700001
31
0.0
0
LINE
8
0
62
3
10
2.700000
20
-9.558846
30
0.0
11
2.700000
21
-6.441154
31
0.0
0
LINE
8
0
62
3
10
-2.700000
20
6.441154
30
0.0
11
-0.000000
21
4.882309
31
0.0
0
LINE
8
0
62
3
10
-6.441154
20
-2.700001
30
0.0
11
-4.882309
21
-0.000000
31
0.0
0
LINE
8
0
62
3
10
2.700000
20
-6.441154
30
0.0
11
0.000000
21
-4.882309
31
0.0
0
LINE
8
0
62
3
10
-0.000000
20
4.882309
30
0.0
11
2.700000
21
6.441154
31
0.0
0
LINE
8
0
62
3
10
-4.882309
20
-0.000000
30
0.0
11
-6.441154
21
2.700000
31
0.0
0
LINE
8
0
62
3
10
0.000000
20
-4.882309
30
0.0
11
-2.700000
21
-6.441154
31
0.0
0
LINE
8
0
62
3
10
2.700000
20
6.441154
30
0.0
11
2.700000
21
9.558846
31
0.0
0
LINE
8
0
62
3
10
-6.441154
20
2.700000
30
0.0
11
-9.558846
21
2.699999
31
0.0
0
LINE
8
0
62
3
10
-2.700000
20
-6.441154
30
0.0
11
-2.700000
21
-9.558846
31
0.0
0
LINE
8
0
62
3
10
2.700000
20
9.558846
30
0.0
11
-0.000001
21
11.117691
31
0.0
0
LINE
8
0
62
3
10
-9.558846
20
2.699999
30
0.0
11
-11.117691
21
-0.000002
31
0.0
0
LINE
8
0
62
3
10
-2.700000
20
-9.558846
30
0.0
11
0.000001
21
-11.117691
31
0.0
0
CIRCLE
8
0
62
2
10
0.000000
20
0.000000
30
0.0
40
33.000000
0
CIRCLE
8
0
62
2
10
0.000000
20
0.000000
30
0.0
40
32.000000
0
CIRCLE
8
0
62
1
10
0.000000
20
0.000000
30
0.0
40
34.000000
0
ENDSEC
0
EOF
