  0
SECTION
  2
HEADER
  9
$ACADVER
  1
AC1003
  9
$EXTMIN
 10
-0.984251968500001
 20
0.9842519685
  9
$EXTMAX
 10
0.984251968500001
 20
-0.984251968500001
  9
$INSUNITS
 70
1
  9
$INSBASE
 10
0
 20
-3.88578058618805E-16
999
Created with OMAX LAYOUT for Windows. (www.omax.com) 1/22/2024
  0
ENDSEC
  0
SECTION
  2
TABLES
  0
TABLE
  2
LAYER
 70
    10
  0
LAYER
  2
0
 70
     0
 62
     7
  6
CONTINUOUS
  0
LAYER
  2
1
 70
     0
 62
     7
  6
CONTINUOUS
  0
LAYER
  2
2
 70
     0
 62
     7
  6
CONTINUOUS
  0
LAYER
  2
3
 70
     0
 62
     7
  6
CONTINUOUS
  0
LAYER
  2
4
 70
     0
 62
     7
  6
CONTINUOUS
  0
LAYER
  2
5
 70
     0
 62
     7
  6
CONTINUOUS
  0
LAYER
  2
6
 70
     0
 62
     7
  6
CONTINUOUS
  0
LAYER
  2
7
 70
     0
 62
     7
  6
CONTINUOUS
  0
LAYER
  2
8
 70
     0
 62
     7
  6
CONTINUOUS
  0
LAYER
  2
9
 70
     0
 62
     7
  6
CONTINUOUS
  0
LAYER
  2
10
 70
     0
 62
     7
  6
CONTINUOUS
  0
LAYER
  2
11
 70
     0
 62
     7
  6
CONTINUOUS
  0
LAYER
  2
12
 70
     0
 62
     7
  6
CONTINUOUS
  0
LAYER
  2
13
 70
     0
 62
     7
  6
CONTINUOUS
  0
LAYER
  2
14
 70
     0
 62
     7
  6
CONTINUOUS
  0
LAYER
  2
15
 70
     0
 62
     7
  6
CONTINUOUS
  0
LAYER
  2
16
 70
     0
 62
     7
  6
CONTINUOUS
  0
LAYER
  2
17
 70
     0
 62
     7
  6
CONTINUOUS
  0
LAYER
  2
18
 70
     0
 62
     7
  6
CONTINUOUS
  0
LAYER
  2
19
 70
     0
 62
     7
  6
CONTINUOUS
  0
LAYER
  2
20
 70
     0
 62
     7
  6
CONTINUOUS
  0
LAYER
  2
21
 70
     0
 62
     7
  6
CONTINUOUS
  0
LAYER
  2
22
 70
     0
 62
     7
  6
CONTINUOUS
  0
LAYER
  2
23
 70
     0
 62
     7
  6
CONTINUOUS
  0
LAYER
  2
24
 70
     0
 62
     7
  6
CONTINUOUS
  0
LAYER
  2
25
 70
     0
 62
     7
  6
CONTINUOUS
  0
LAYER
  2
26
 70
     0
 62
     7
  6
CONTINUOUS
  0
LAYER
  2
27
 70
     0
 62
     7
  6
CONTINUOUS
  0
LAYER
  2
28
 70
     0
 62
     7
  6
CONTINUOUS
  0
LAYER
  2
29
 70
     0
 62
     7
  6
CONTINUOUS
  0
LAYER
  2
30
 70
     0
 62
     7
  6
CONTINUOUS
  0
LAYER
  2
31
 70
     0
 62
     7
  6
CONTINUOUS
  0
ENDTAB
  0
ENDSEC
  0
SECTION
  2
ENTITIES
  0
ARC
  8
0
  6
CONTINUOUS
 62
0
 10
0.7874015745
 20
0.787401574500004
 30
0.0
 40
0.118110236
 50
359.999999999997
 51
180
  0
ARC
  8
0
  6
CONTINUOUS
 62
0
 10
0.7874015745
 20
0.787401574499997
 30
0.0
 40
0.118110236
 50
179.999999999997
 51
359.999999999997
  0
ARC
  8
0
  6
CONTINUOUS
 62
0
 10
-0.7874015745
 20
0.787401574500002
 30
0.0
 40
0.118110236
 50
359.999999999999
 51
180.000000000002
  0
ARC
  8
0
  6
CONTINUOUS
 62
0
 10
-0.7874015745
 20
0.787401574499998
 30
0.0
 40
0.118110236
 50
180.000000000002
 51
2.13733274594348E-12
  0
ARC
  8
0
  6
CONTINUOUS
 62
0
 10
-0.7874015745
 20
-0.787401574500004
 30
0.0
 40
0.118110236
 50
179.999999999997
 51
359.999999999999
  0
ARC
  8
0
  6
CONTINUOUS
 62
0
 10
-0.7874015745
 20
-0.787401574499997
 30
0.0
 40
0.118110236
 50
359.999999999997
 51
179.999999999998
  0
ARC
  8
0
  6
CONTINUOUS
 62
0
 10
0.7874015745
 20
-0.787401574500002
 30
0.0
 40
0.118110236
 50
180
 51
2.1882216208469E-12
  0
ARC
  8
0
  6
CONTINUOUS
 62
0
 10
0.7874015745
 20
-0.787401574499998
 30
0.0
 40
0.118110236
 50
1.83199949652299E-12
 51
180.000000000002
  0
LINE
  8
2
  6
CONTINUOUS
 62
2
 10
0.755633152137874
 20
0.668840208168235
 30
0.0
 11
0.668840208168236
 21
0.755633152137873
 31
0.0
  0
LINE
  8
2
  6
CONTINUOUS
 62
2
 10
0.874194518469638
 20
0.700608630530362
 30
0.0
 11
0.755633152137874
 21
0.668840208168235
 31
0.0
  0
LINE
  8
2
  6
CONTINUOUS
 62
2
 10
0.905962940831765
 20
0.819169996862127
 30
0.0
 11
0.874194518469638
 21
0.700608630530362
 31
0.0
  0
LINE
  8
2
  6
CONTINUOUS
 62
2
 10
0.819169996862127
 20
0.905962940831764
 30
0.0
 11
0.905962940831765
 21
0.819169996862127
 31
0.0
  0
LINE
  8
2
  6
CONTINUOUS
 62
2
 10
0.700608630530363
 20
0.874194518469637
 30
0.0
 11
0.819169996862127
 21
0.905962940831764
 31
0.0
  0
LINE
  8
2
  6
CONTINUOUS
 62
2
 10
0.668840208168236
 20
0.755633152137873
 30
0.0
 11
0.700608630530363
 21
0.874194518469637
 31
0.0
  0
LINE
  8
2
  6
CONTINUOUS
 62
2
 10
-0.755633152137874
 20
0.668840208168235
 30
0.0
 11
-0.668840208168236
 21
0.755633152137873
 31
0.0
  0
LINE
  8
2
  6
CONTINUOUS
 62
2
 10
-0.874194518469638
 20
0.700608630530362
 30
0.0
 11
-0.755633152137874
 21
0.668840208168235
 31
0.0
  0
LINE
  8
2
  6
CONTINUOUS
 62
2
 10
-0.905962940831765
 20
0.819169996862127
 30
0.0
 11
-0.874194518469638
 21
0.700608630530362
 31
0.0
  0
LINE
  8
2
  6
CONTINUOUS
 62
2
 10
-0.819169996862127
 20
0.905962940831764
 30
0.0
 11
-0.905962940831765
 21
0.819169996862127
 31
0.0
  0
LINE
  8
2
  6
CONTINUOUS
 62
2
 10
-0.700608630530363
 20
0.874194518469637
 30
0.0
 11
-0.819169996862127
 21
0.905962940831764
 31
0.0
  0
LINE
  8
2
  6
CONTINUOUS
 62
2
 10
-0.668840208168236
 20
0.755633152137873
 30
0.0
 11
-0.700608630530363
 21
0.874194518469637
 31
0.0
  0
LINE
  8
2
  6
CONTINUOUS
 62
2
 10
-0.755633152137874
 20
-0.668840208168235
 30
0.0
 11
-0.668840208168236
 21
-0.755633152137873
 31
0.0
  0
LINE
  8
2
  6
CONTINUOUS
 62
2
 10
-0.874194518469638
 20
-0.700608630530362
 30
0.0
 11
-0.755633152137874
 21
-0.668840208168235
 31
0.0
  0
LINE
  8
2
  6
CONTINUOUS
 62
2
 10
-0.905962940831765
 20
-0.819169996862127
 30
0.0
 11
-0.874194518469638
 21
-0.700608630530362
 31
0.0
  0
LINE
  8
2
  6
CONTINUOUS
 62
2
 10
-0.819169996862127
 20
-0.905962940831764
 30
0.0
 11
-0.905962940831765
 21
-0.819169996862127
 31
0.0
  0
LINE
  8
2
  6
CONTINUOUS
 62
2
 10
-0.700608630530363
 20
-0.874194518469637
 30
0.0
 11
-0.819169996862127
 21
-0.905962940831764
 31
0.0
  0
LINE
  8
2
  6
CONTINUOUS
 62
2
 10
-0.668840208168236
 20
-0.755633152137873
 30
0.0
 11
-0.700608630530363
 21
-0.874194518469637
 31
0.0
  0
LINE
  8
2
  6
CONTINUOUS
 62
2
 10
0.755633152137874
 20
-0.668840208168235
 30
0.0
 11
0.668840208168236
 21
-0.755633152137873
 31
0.0
  0
LINE
  8
2
  6
CONTINUOUS
 62
2
 10
0.874194518469638
 20
-0.700608630530362
 30
0.0
 11
0.755633152137874
 21
-0.668840208168235
 31
0.0
  0
LINE
  8
2
  6
CONTINUOUS
 62
2
 10
0.905962940831765
 20
-0.819169996862127
 30
0.0
 11
0.874194518469638
 21
-0.700608630530362
 31
0.0
  0
LINE
  8
2
  6
CONTINUOUS
 62
2
 10
0.819169996862127
 20
-0.905962940831764
 30
0.0
 11
0.905962940831765
 21
-0.819169996862127
 31
0.0
  0
LINE
  8
2
  6
CONTINUOUS
 62
2
 10
0.700608630530363
 20
-0.874194518469637
 30
0.0
 11
0.819169996862127
 21
-0.905962940831764
 31
0.0
  0
LINE
  8
2
  6
CONTINUOUS
 62
2
 10
0.668840208168236
 20
-0.755633152137873
 30
0.0
 11
0.700608630530363
 21
-0.874194518469637
 31
0.0
  0
ARC
  8
3
  6
CONTINUOUS
 62
3
 10
0.7874015745
 20
0.787401574500001
 30
0.0
 40
0.196850394000001
 50
179.999999999999
 51
289.471220720245
  0
ARC
  8
3
  6
CONTINUOUS
 62
3
 10
0.787401574499998
 20
0.787401574500001
 30
0.0
 40
0.196850394
 50
160.528779279754
 51
179.999999999999
  0
ARC
  8
3
  6
CONTINUOUS
 62
3
 10
0.564690776866658
 20
0.8661417325
 30
0.0
 40
0.039370079
 50
340.528779279754
 51
89.9999999999998
  0
ARC
  8
3
  6
CONTINUOUS
 62
3
 10
0.866141732499999
 20
0.56469077686666
 30
0.0
 40
0.039370079
 50
359.999999999999
 51
109.471220720245
  0
ARC
  8
3
  6
CONTINUOUS
 62
3
 10
-0.7874015745
 20
0.787401574500003
 30
0.0
 40
0.196850394000001
 50
250.528779279754
 51
1.52666624710249E-13
  0
ARC
  8
3
  6
CONTINUOUS
 62
3
 10
-0.787401574499999
 20
0.787401574500003
 30
0.0
 40
0.196850394
 50
2.54444374517081E-13
 51
19.4712207202454
  0
LINE
  8
3
  6
CONTINUOUS
 62
3
 10
-0.564690776866658
 20
0.9055118115
 30
0.0
 11
0.564690776866658
 21
0.9055118115
 31
0.0
  0
ARC
  8
3
  6
CONTINUOUS
 62
3
 10
-0.564690776866658
 20
0.8661417325
 30
0.0
 40
0.039370079
 50
89.9999999999997
 51
199.471220720245
  0
ARC
  8
3
  6
CONTINUOUS
 62
3
 10
-0.866141732499999
 20
0.564690776866661
 30
0.0
 40
0.039370079
 50
70.5287792797543
 51
180
  0
ARC
  8
3
  6
CONTINUOUS
 62
3
 10
-0.7874015745
 20
-0.787401574500001
 30
0.0
 40
0.196850394000001
 50
359.999999999999
 51
109.471220720245
  0
ARC
  8
3
  6
CONTINUOUS
 62
3
 10
-0.787401574499998
 20
-0.787401574499999
 30
0.0
 40
0.196850394
 50
340.528779279754
 51
359.999999999999
  0
LINE
  8
3
  6
CONTINUOUS
 62
3
 10
-0.905511811499999
 20
-0.564690776866661
 30
0.0
 11
-0.905511811499999
 21
0.564690776866661
 31
0.0
  0
ARC
  8
3
  6
CONTINUOUS
 62
3
 10
-0.564690776866658
 20
-0.8661417325
 30
0.0
 40
0.039370079
 50
160.528779279754
 51
269.999999999999
  0
ARC
  8
3
  6
CONTINUOUS
 62
3
 10
-0.866141732499999
 20
-0.564690776866661
 30
0.0
 40
0.039370079
 50
180
 51
289.471220720245
  0
ARC
  8
3
  6
CONTINUOUS
 62
3
 10
0.7874015745
 20
-0.787401574500005
 30
0.0
 40
0.196850394000001
 50
70.5287792797543
 51
180
  0
ARC
  8
3
  6
CONTINUOUS
 62
3
 10
0.787401574499999
 20
-0.787401574500002
 30
0.0
 40
0.196850394
 50
180
 51
199.471220720245
  0
LINE
  8
3
  6
CONTINUOUS
 62
3
 10
0.905511811499999
 20
-0.564690776866661
 30
0.0
 11
0.905511811499999
 21
0.564690776866661
 31
0.0
  0
LINE
  8
3
  6
CONTINUOUS
 62
3
 10
0.564690776866658
 20
-0.9055118115
 30
0.0
 11
-0.564690776866658
 21
-0.9055118115
 31
0.0
  0
ARC
  8
3
  6
CONTINUOUS
 62
3
 10
0.564690776866658
 20
-0.8661417325
 30
0.0
 40
0.039370079
 50
270
 51
19.4712207202458
  0
ARC
  8
3
  6
CONTINUOUS
 62
3
 10
0.866141732499999
 20
-0.564690776866661
 30
0.0
 40
0.039370079
 50
250.528779279754
 51
359.999999999999
  0
ARC
  8
3
  6
CONTINUOUS
 62
3
 10
0.7874015745
 20
0.787401574500004
 30
0.0
 40
0.0669291340000001
 50
359.999999999995
 51
180.000000000001
  0
ARC
  8
3
  6
CONTINUOUS
 62
3
 10
0.7874015745
 20
0.787401574499996
 30
0.0
 40
0.0669291340000001
 50
179.999999999996
 51
359.999999999996
  0
ARC
  8
3
  6
CONTINUOUS
 62
3
 10
-0.7874015745
 20
0.787401574500003
 30
0.0
 40
0.0669291340000001
 50
359.999999999998
 51
180.000000000004
  0
ARC
  8
3
  6
CONTINUOUS
 62
3
 10
-0.7874015745
 20
0.787401574499997
 30
0.0
 40
0.0669291340000001
 50
180.000000000003
 51
3.20599911891522E-12
  0
ARC
  8
3
  6
CONTINUOUS
 62
3
 10
-0.7874015745
 20
-0.787401574500004
 30
0.0
 40
0.0669291340000001
 50
179.999999999995
 51
360
  0
ARC
  8
3
  6
CONTINUOUS
 62
3
 10
-0.7874015745
 20
-0.787401574499996
 30
0.0
 40
0.0669291340000001
 50
359.999999999996
 51
179.999999999997
  0
ARC
  8
3
  6
CONTINUOUS
 62
3
 10
0.7874015745
 20
-0.787401574500003
 30
0.0
 40
0.0669291340000001
 50
179.999999999999
 51
4.17288774208013E-12
  0
ARC
  8
3
  6
CONTINUOUS
 62
3
 10
0.7874015745
 20
-0.787401574499997
 30
0.0
 40
0.0669291340000001
 50
2.84977699459131E-12
 51
180.000000000003
  0
ARC
  8
4
  6
CONTINUOUS
 62
4
 10
0.787401574500002
 20
0.787401574500001
 30
0.0
 40
0.196850393999999
 50
4.00749889864403E-13
 51
90.0000000000004
  0
ARC
  8
4
  6
CONTINUOUS
 62
4
 10
-0.787401574500002
 20
0.787401574499999
 30
0.0
 40
0.196850393999999
 50
89.9999999999992
 51
179.999999999999
  0
LINE
  8
4
  6
CONTINUOUS
 62
4
 10
-0.7874015745
 20
0.9842519685
 30
0.0
 11
0.7874015745
 21
0.9842519685
 31
0.0
  0
ARC
  8
4
  6
CONTINUOUS
 62
4
 10
-0.787401574500002
 20
-0.787401574500003
 30
0.0
 40
0.196850393999999
 50
180
 51
270
  0
LINE
  8
4
  6
CONTINUOUS
 62
4
 10
-0.984251968500001
 20
-0.787401574500003
 30
0.0
 11
-0.984251968500001
 21
0.787401574500003
 31
0.0
  0
ARC
  8
4
  6
CONTINUOUS
 62
4
 10
0.787401574500002
 20
-0.7874015745
 30
0.0
 40
0.196850393999999
 50
269.999999999999
 51
359.999999999999
  0
LINE
  8
4
  6
CONTINUOUS
 62
4
 10
0.984251968500001
 20
-0.787401574500003
 30
0.0
 11
0.984251968500001
 21
0.787401574500003
 31
0.0
  0
LINE
  8
4
  6
CONTINUOUS
 62
4
 10
0.7874015745
 20
-0.9842519685
 30
0.0
 11
-0.7874015745
 21
-0.9842519685
 31
0.0
  0
ENDSEC
  0
EOF
