  0
SECTION
  2
HEADER
  9
$ACADVER
  1
AC1003
  9
$EXTMIN
 10
-0.984251968500001
 20
0.984251968500002
  9
$EXTMAX
 10
0.984251968500001
 20
-0.984251968500002
  9
$INSUNITS
 70
1
  9
$INSBASE
 10
5.55111512312578E-17
 20
5.55111512312578E-17
999
Created with OMAX LAYOUT for Windows. (www.omax.com) 1/22/2024
  0
ENDSEC
  0
SECTION
  2
TABLES
  0
TABLE
  2
LAYER
 70
    10
  0
LAYER
  2
0
 70
     0
 62
     7
  6
CONTINUOUS
  0
LAYER
  2
1
 70
     0
 62
     7
  6
CONTINUOUS
  0
LAYER
  2
2
 70
     0
 62
     7
  6
CONTINUOUS
  0
LAYER
  2
3
 70
     0
 62
     7
  6
CONTINUOUS
  0
LAYER
  2
4
 70
     0
 62
     7
  6
CONTINUOUS
  0
LAYER
  2
5
 70
     0
 62
     7
  6
CONTINUOUS
  0
LAYER
  2
6
 70
     0
 62
     7
  6
CONTINUOUS
  0
LAYER
  2
7
 70
     0
 62
     7
  6
CONTINUOUS
  0
LAYER
  2
8
 70
     0
 62
     7
  6
CONTINUOUS
  0
LAYER
  2
9
 70
     0
 62
     7
  6
CONTINUOUS
  0
LAYER
  2
10
 70
     0
 62
     7
  6
CONTINUOUS
  0
LAYER
  2
11
 70
     0
 62
     7
  6
CONTINUOUS
  0
LAYER
  2
12
 70
     0
 62
     7
  6
CONTINUOUS
  0
LAYER
  2
13
 70
     0
 62
     7
  6
CONTINUOUS
  0
LAYER
  2
14
 70
     0
 62
     7
  6
CONTINUOUS
  0
LAYER
  2
15
 70
     0
 62
     7
  6
CONTINUOUS
  0
LAYER
  2
16
 70
     0
 62
     7
  6
CONTINUOUS
  0
LAYER
  2
17
 70
     0
 62
     7
  6
CONTINUOUS
  0
LAYER
  2
18
 70
     0
 62
     7
  6
CONTINUOUS
  0
LAYER
  2
19
 70
     0
 62
     7
  6
CONTINUOUS
  0
LAYER
  2
20
 70
     0
 62
     7
  6
CONTINUOUS
  0
LAYER
  2
21
 70
     0
 62
     7
  6
CONTINUOUS
  0
LAYER
  2
22
 70
     0
 62
     7
  6
CONTINUOUS
  0
LAYER
  2
23
 70
     0
 62
     7
  6
CONTINUOUS
  0
LAYER
  2
24
 70
     0
 62
     7
  6
CONTINUOUS
  0
LAYER
  2
25
 70
     0
 62
     7
  6
CONTINUOUS
  0
LAYER
  2
26
 70
     0
 62
     7
  6
CONTINUOUS
  0
LAYER
  2
27
 70
     0
 62
     7
  6
CONTINUOUS
  0
LAYER
  2
28
 70
     0
 62
     7
  6
CONTINUOUS
  0
LAYER
  2
29
 70
     0
 62
     7
  6
CONTINUOUS
  0
LAYER
  2
30
 70
     0
 62
     7
  6
CONTINUOUS
  0
LAYER
  2
31
 70
     0
 62
     7
  6
CONTINUOUS
  0
ENDTAB
  0
ENDSEC
  0
SECTION
  2
ENTITIES
  0
ARC
  8
0
  6
CONTINUOUS
 62
0
 10
-0.7677165355
 20
-0.767716535499999
 30
0.0
 40
0.118110236
 50
359.999999999999
 51
180
  0
ARC
  8
0
  6
CONTINUOUS
 62
0
 10
-0.7677165355
 20
-0.767716535500001
 30
0.0
 40
0.118110236
 50
179.999999999999
 51
359.999999999999
  0
ARC
  8
0
  6
CONTINUOUS
 62
0
 10
-0.7677165355
 20
0.7677165355
 30
0.0
 40
0.118110236
 50
359.999999999999
 51
180
  0
ARC
  8
0
  6
CONTINUOUS
 62
0
 10
-0.7677165355
 20
0.767716535499997
 30
0.0
 40
0.118110236
 50
179.999999999999
 51
359.999999999999
  0
ARC
  8
0
  6
CONTINUOUS
 62
0
 10
0.7677165355
 20
0.767716535500002
 30
0.0
 40
0.118110236
 50
359.999999999999
 51
180
  0
ARC
  8
0
  6
CONTINUOUS
 62
0
 10
0.7677165355
 20
0.767716535499999
 30
0.0
 40
0.118110236
 50
179.999999999999
 51
359.999999999999
  0
ARC
  8
0
  6
CONTINUOUS
 62
0
 10
0.7677165355
 20
-0.767716535500001
 30
0.0
 40
0.118110236
 50
359.999999999999
 51
180
  0
ARC
  8
0
  6
CONTINUOUS
 62
0
 10
0.7677165355
 20
-0.767716535500003
 30
0.0
 40
0.118110236
 50
179.999999999999
 51
359.999999999999
  0
LINE
  8
1
  6
CONTINUOUS
 62
1
 10
-0.905511811499999
 20
0.51045564576225
 30
0.0
 11
-0.905511811499999
 21
-0.51045564576225
 31
0.0
  0
LINE
  8
1
  6
CONTINUOUS
 62
1
 10
0.510455645762253
 20
-0.9055118115
 30
0.0
 11
-0.510455645762253
 21
-0.9055118115
 31
0.0
  0
LINE
  8
1
  6
CONTINUOUS
 62
1
 10
-0.593477470201843
 20
-0.68027041417148
 30
0.0
 11
-0.68027041417148
 21
-0.593477470201842
 31
0.0
  0
LINE
  8
1
  6
CONTINUOUS
 62
1
 10
-0.756327565383836
 20
-0.573098017955879
 30
0.0
 11
-0.806392202254036
 21
-0.586512796974606
 31
0.0
  0
LINE
  8
1
  6
CONTINUOUS
 62
1
 10
-0.57309801795588
 20
-0.756327565383835
 30
0.0
 11
-0.586512796974609
 21
-0.806392202254038
 31
0.0
  0
ARC
  8
1
  6
CONTINUOUS
 62
1
 10
-0.649155169168237
 20
-0.735948113137871
 30
0.0
 40
0.078740157
 50
344.999999999998
 51
44.9999999999995
  0
ARC
  8
1
  6
CONTINUOUS
 62
1
 10
-0.735948113137874
 20
-0.649155169168236
 30
0.0
 40
0.0787401570000001
 50
44.9999999999996
 51
105
  0
ARC
  8
1
  6
CONTINUOUS
 62
1
 10
-0.826771654499999
 20
-0.510455645762252
 30
0.0
 40
0.078740157
 50
179.999999999998
 51
285
  0
ARC
  8
1
  6
CONTINUOUS
 62
1
 10
-0.510455645762252
 20
-0.826771654500001
 30
0.0
 40
0.0787401570000001
 50
164.999999999999
 51
269.999999999999
  0
LINE
  8
1
  6
CONTINUOUS
 62
1
 10
0.905511811499999
 20
0.51045564576225
 30
0.0
 11
0.905511811499999
 21
-0.51045564576225
 31
0.0
  0
LINE
  8
1
  6
CONTINUOUS
 62
1
 10
0.593477470201843
 20
-0.68027041417148
 30
0.0
 11
0.68027041417148
 21
-0.593477470201842
 31
0.0
  0
LINE
  8
1
  6
CONTINUOUS
 62
1
 10
0.756327565383836
 20
-0.573098017955879
 30
0.0
 11
0.806392202254036
 21
-0.586512796974606
 31
0.0
  0
LINE
  8
1
  6
CONTINUOUS
 62
1
 10
0.57309801795588
 20
-0.756327565383835
 30
0.0
 11
0.586512796974609
 21
-0.806392202254038
 31
0.0
  0
ARC
  8
1
  6
CONTINUOUS
 62
1
 10
0.649155169168236
 20
-0.735948113137873
 30
0.0
 40
0.078740157
 50
135
 51
195
  0
ARC
  8
1
  6
CONTINUOUS
 62
1
 10
0.735948113137873
 20
-0.649155169168235
 30
0.0
 40
0.078740157
 50
74.9999999999997
 51
135
  0
ARC
  8
1
  6
CONTINUOUS
 62
1
 10
0.8267716545
 20
-0.51045564576225
 30
0.0
 40
0.078740157
 50
254.999999999998
 51
1.0813885916976E-13
  0
ARC
  8
1
  6
CONTINUOUS
 62
1
 10
0.510455645762254
 20
-0.8267716545
 30
0.0
 40
0.078740157
 50
269.999999999998
 51
14.9999999999992
  0
LINE
  8
1
  6
CONTINUOUS
 62
1
 10
0.510455645762253
 20
0.9055118115
 30
0.0
 11
-0.510455645762253
 21
0.9055118115
 31
0.0
  0
LINE
  8
1
  6
CONTINUOUS
 62
1
 10
-0.593477470201843
 20
0.68027041417148
 30
0.0
 11
-0.68027041417148
 21
0.593477470201842
 31
0.0
  0
LINE
  8
1
  6
CONTINUOUS
 62
1
 10
-0.756327565383836
 20
0.573098017955879
 30
0.0
 11
-0.806392202254036
 21
0.586512796974606
 31
0.0
  0
LINE
  8
1
  6
CONTINUOUS
 62
1
 10
-0.57309801795588
 20
0.756327565383835
 30
0.0
 11
-0.586512796974609
 21
0.806392202254038
 31
0.0
  0
ARC
  8
1
  6
CONTINUOUS
 62
1
 10
-0.649155169168234
 20
0.735948113137875
 30
0.0
 40
0.078740157
 50
314.999999999998
 51
14.9999999999996
  0
ARC
  8
1
  6
CONTINUOUS
 62
1
 10
-0.735948113137872
 20
0.649155169168235
 30
0.0
 40
0.078740157
 50
254.999999999998
 51
314.999999999998
  0
ARC
  8
1
  6
CONTINUOUS
 62
1
 10
-0.826771654499999
 20
0.510455645762249
 30
0.0
 40
0.0787401570000001
 50
74.9999999999992
 51
180
  0
ARC
  8
1
  6
CONTINUOUS
 62
1
 10
-0.510455645762253
 20
0.8267716545
 30
0.0
 40
0.078740157
 50
89.9999999999996
 51
194.999999999999
  0
LINE
  8
1
  6
CONTINUOUS
 62
1
 10
0.593477470201843
 20
0.68027041417148
 30
0.0
 11
0.68027041417148
 21
0.593477470201842
 31
0.0
  0
LINE
  8
1
  6
CONTINUOUS
 62
1
 10
0.756327565383836
 20
0.573098017955879
 30
0.0
 11
0.806392202254036
 21
0.586512796974606
 31
0.0
  0
LINE
  8
1
  6
CONTINUOUS
 62
1
 10
0.57309801795588
 20
0.756327565383835
 30
0.0
 11
0.586512796974609
 21
0.806392202254038
 31
0.0
  0
ARC
  8
1
  6
CONTINUOUS
 62
1
 10
0.649155169168236
 20
0.735948113137872
 30
0.0
 40
0.0787401570000001
 50
164.999999999999
 51
224.999999999999
  0
ARC
  8
1
  6
CONTINUOUS
 62
1
 10
0.735948113137874
 20
0.649155169168234
 30
0.0
 40
0.078740157
 50
224.999999999999
 51
285
  0
ARC
  8
1
  6
CONTINUOUS
 62
1
 10
0.826771654499999
 20
0.510455645762252
 30
0.0
 40
0.0787401570000001
 50
359.999999999998
 51
105
  0
ARC
  8
1
  6
CONTINUOUS
 62
1
 10
0.510455645762252
 20
0.826771654500001
 30
0.0
 40
0.0787401570000001
 50
344.999999999999
 51
89.9999999999996
  0
LINE
  8
2
  6
CONTINUOUS
 62
2
 10
-0.735948113137874
 20
0.649155169168235
 30
0.0
 11
-0.649155169168236
 21
0.735948113137873
 31
0.0
  0
LINE
  8
2
  6
CONTINUOUS
 62
2
 10
-0.854509479469638
 20
0.680923591530362
 30
0.0
 11
-0.735948113137874
 21
0.649155169168235
 31
0.0
  0
LINE
  8
2
  6
CONTINUOUS
 62
2
 10
-0.886277901831765
 20
0.799484957862127
 30
0.0
 11
-0.854509479469638
 21
0.680923591530362
 31
0.0
  0
LINE
  8
2
  6
CONTINUOUS
 62
2
 10
-0.799484957862127
 20
0.886277901831764
 30
0.0
 11
-0.886277901831765
 21
0.799484957862127
 31
0.0
  0
LINE
  8
2
  6
CONTINUOUS
 62
2
 10
-0.680923591530363
 20
0.854509479469637
 30
0.0
 11
-0.799484957862127
 21
0.886277901831764
 31
0.0
  0
LINE
  8
2
  6
CONTINUOUS
 62
2
 10
-0.649155169168236
 20
0.735948113137873
 30
0.0
 11
-0.680923591530363
 21
0.854509479469637
 31
0.0
  0
LINE
  8
2
  6
CONTINUOUS
 62
2
 10
0.735948113137874
 20
0.649155169168235
 30
0.0
 11
0.649155169168236
 21
0.735948113137873
 31
0.0
  0
LINE
  8
2
  6
CONTINUOUS
 62
2
 10
0.854509479469638
 20
0.680923591530362
 30
0.0
 11
0.735948113137874
 21
0.649155169168235
 31
0.0
  0
LINE
  8
2
  6
CONTINUOUS
 62
2
 10
0.886277901831765
 20
0.799484957862127
 30
0.0
 11
0.854509479469638
 21
0.680923591530362
 31
0.0
  0
LINE
  8
2
  6
CONTINUOUS
 62
2
 10
0.799484957862127
 20
0.886277901831764
 30
0.0
 11
0.886277901831765
 21
0.799484957862127
 31
0.0
  0
LINE
  8
2
  6
CONTINUOUS
 62
2
 10
0.680923591530363
 20
0.854509479469637
 30
0.0
 11
0.799484957862127
 21
0.886277901831764
 31
0.0
  0
LINE
  8
2
  6
CONTINUOUS
 62
2
 10
0.649155169168236
 20
0.735948113137873
 30
0.0
 11
0.680923591530363
 21
0.854509479469637
 31
0.0
  0
LINE
  8
2
  6
CONTINUOUS
 62
2
 10
-0.854509479469638
 20
-0.680923591530362
 30
0.0
 11
-0.735948113137874
 21
-0.649155169168235
 31
0.0
  0
LINE
  8
2
  6
CONTINUOUS
 62
2
 10
-0.886277901831765
 20
-0.799484957862127
 30
0.0
 11
-0.854509479469638
 21
-0.680923591530362
 31
0.0
  0
LINE
  8
2
  6
CONTINUOUS
 62
2
 10
-0.799484957862127
 20
-0.886277901831764
 30
0.0
 11
-0.886277901831765
 21
-0.799484957862127
 31
0.0
  0
LINE
  8
2
  6
CONTINUOUS
 62
2
 10
-0.680923591530363
 20
-0.854509479469637
 30
0.0
 11
-0.799484957862127
 21
-0.886277901831764
 31
0.0
  0
LINE
  8
2
  6
CONTINUOUS
 62
2
 10
-0.649155169168236
 20
-0.735948113137873
 30
0.0
 11
-0.680923591530363
 21
-0.854509479469637
 31
0.0
  0
LINE
  8
2
  6
CONTINUOUS
 62
2
 10
0.735948113137874
 20
-0.649155169168235
 30
0.0
 11
0.649155169168236
 21
-0.735948113137873
 31
0.0
  0
LINE
  8
2
  6
CONTINUOUS
 62
2
 10
0.854509479469638
 20
-0.680923591530362
 30
0.0
 11
0.735948113137874
 21
-0.649155169168235
 31
0.0
  0
LINE
  8
2
  6
CONTINUOUS
 62
2
 10
0.886277901831765
 20
-0.799484957862127
 30
0.0
 11
0.854509479469638
 21
-0.680923591530362
 31
0.0
  0
LINE
  8
2
  6
CONTINUOUS
 62
2
 10
0.799484957862127
 20
-0.886277901831764
 30
0.0
 11
0.886277901831765
 21
-0.799484957862127
 31
0.0
  0
LINE
  8
2
  6
CONTINUOUS
 62
2
 10
0.680923591530363
 20
-0.854509479469637
 30
0.0
 11
0.799484957862127
 21
-0.886277901831764
 31
0.0
  0
LINE
  8
2
  6
CONTINUOUS
 62
2
 10
0.649155169168236
 20
-0.735948113137873
 30
0.0
 11
0.680923591530363
 21
-0.854509479469637
 31
0.0
  0
LINE
  8
2
  6
CONTINUOUS
 62
2
 10
-0.735948113137874
 20
-0.649155169168235
 30
0.0
 11
-0.649155169168236
 21
-0.735948113137873
 31
0.0
  0
ARC
  8
3
  6
CONTINUOUS
 62
3
 10
-0.7677165355
 20
0.767716535500003
 30
0.0
 40
0.0669291340000001
 50
359.999999999997
 51
180.000000000001
  0
ARC
  8
3
  6
CONTINUOUS
 62
3
 10
-0.7677165355
 20
0.767716535499997
 30
0.0
 40
0.0669291340000001
 50
179.999999999999
 51
7.5061090482539E-13
  0
ARC
  8
3
  6
CONTINUOUS
 62
3
 10
0.7677165355
 20
0.767716535500002
 30
0.0
 40
0.0669291340000001
 50
359.999999999997
 51
180.000000000001
  0
ARC
  8
3
  6
CONTINUOUS
 62
3
 10
0.7677165355
 20
0.767716535499998
 30
0.0
 40
0.0669291340000001
 50
179.999999999998
 51
359.999999999998
  0
ARC
  8
3
  6
CONTINUOUS
 62
3
 10
-0.7677165355
 20
-0.767716535500002
 30
0.0
 40
0.0669291340000001
 50
179.999999999998
 51
1.01777749806833E-12
  0
ARC
  8
3
  6
CONTINUOUS
 62
3
 10
-0.7677165355
 20
-0.767716535499999
 30
0.0
 40
0.0669291340000001
 50
359.999999999997
 51
179.999999999999
  0
ARC
  8
3
  6
CONTINUOUS
 62
3
 10
0.7677165355
 20
-0.767716535500003
 30
0.0
 40
0.0669291340000001
 50
179.999999999997
 51
359.999999999999
  0
ARC
  8
3
  6
CONTINUOUS
 62
3
 10
0.7677165355
 20
-0.767716535499999
 30
0.0
 40
0.0669291340000001
 50
5.34333186485871E-13
 51
180.000000000001
  0
LINE
  8
4
  6
CONTINUOUS
 62
4
 10
-0.787401574500001
 20
-0.9842519685
 30
0.0
 11
0.787401574499999
 21
-0.9842519685
 31
0.0
  0
LINE
  8
4
  6
CONTINUOUS
 62
4
 10
-0.984251968500001
 20
-0.787401574500001
 30
0.0
 11
-0.984251968499999
 21
0.787401574499999
 31
0.0
  0
LINE
  8
4
  6
CONTINUOUS
 62
4
 10
0.984251968500001
 20
0.787401574500001
 30
0.0
 11
0.984251968499999
 21
-0.787401574499999
 31
0.0
  0
LINE
  8
4
  6
CONTINUOUS
 62
4
 10
-0.787401574499999
 20
0.9842519685
 30
0.0
 11
0.787401574500001
 21
0.9842519685
 31
0.0
  0
ARC
  8
4
  6
CONTINUOUS
 62
4
 10
0.787401574500003
 20
-0.787401574499999
 30
0.0
 40
0.196850394
 50
269.999999999998
 51
360
  0
ARC
  8
4
  6
CONTINUOUS
 62
4
 10
0.787401574499999
 20
0.787401574500004
 30
0.0
 40
0.196850394
 50
359.999999999998
 51
89.9999999999994
  0
ARC
  8
4
  6
CONTINUOUS
 62
4
 10
-0.787401574500001
 20
0.787401574499999
 30
0.0
 40
0.196850394
 50
89.9999999999994
 51
180
  0
ARC
  8
4
  6
CONTINUOUS
 62
4
 10
-0.7874015745
 20
-0.787401574500004
 30
0.0
 40
0.196850394
 50
179.999999999998
 51
269.999999999998
  0
ENDSEC
  0
EOF
