  0
SECTION
  2
HEADER
  9
$ACADVER
  1
AC1003
  9
$EXTMIN
 10
-0.984251968500001
 20
0.9842519685
  9
$EXTMAX
 10
0.984251968500001
 20
-0.9842519685
  9
$INSUNITS
 70
1
  9
$INSBASE
 10
0
 20
0
999
Created with OMAX LAYOUT for Windows. (www.omax.com) 1/22/2024
  0
ENDSEC
  0
SECTION
  2
TABLES
  0
TABLE
  2
LAYER
 70
    10
  0
LAYER
  2
0
 70
     0
 62
     7
  6
CONTINUOUS
  0
LAYER
  2
1
 70
     0
 62
     7
  6
CONTINUOUS
  0
LAYER
  2
2
 70
     0
 62
     7
  6
CONTINUOUS
  0
LAYER
  2
3
 70
     0
 62
     7
  6
CONTINUOUS
  0
LAYER
  2
4
 70
     0
 62
     7
  6
CONTINUOUS
  0
LAYER
  2
5
 70
     0
 62
     7
  6
CONTINUOUS
  0
LAYER
  2
6
 70
     0
 62
     7
  6
CONTINUOUS
  0
LAYER
  2
7
 70
     0
 62
     7
  6
CONTINUOUS
  0
LAYER
  2
8
 70
     0
 62
     7
  6
CONTINUOUS
  0
LAYER
  2
9
 70
     0
 62
     7
  6
CONTINUOUS
  0
LAYER
  2
10
 70
     0
 62
     7
  6
CONTINUOUS
  0
LAYER
  2
11
 70
     0
 62
     7
  6
CONTINUOUS
  0
LAYER
  2
12
 70
     0
 62
     7
  6
CONTINUOUS
  0
LAYER
  2
13
 70
     0
 62
     7
  6
CONTINUOUS
  0
LAYER
  2
14
 70
     0
 62
     7
  6
CONTINUOUS
  0
LAYER
  2
15
 70
     0
 62
     7
  6
CONTINUOUS
  0
LAYER
  2
16
 70
     0
 62
     7
  6
CONTINUOUS
  0
LAYER
  2
17
 70
     0
 62
     7
  6
CONTINUOUS
  0
LAYER
  2
18
 70
     0
 62
     7
  6
CONTINUOUS
  0
LAYER
  2
19
 70
     0
 62
     7
  6
CONTINUOUS
  0
LAYER
  2
20
 70
     0
 62
     7
  6
CONTINUOUS
  0
LAYER
  2
21
 70
     0
 62
     7
  6
CONTINUOUS
  0
LAYER
  2
22
 70
     0
 62
     7
  6
CONTINUOUS
  0
LAYER
  2
23
 70
     0
 62
     7
  6
CONTINUOUS
  0
LAYER
  2
24
 70
     0
 62
     7
  6
CONTINUOUS
  0
LAYER
  2
25
 70
     0
 62
     7
  6
CONTINUOUS
  0
LAYER
  2
26
 70
     0
 62
     7
  6
CONTINUOUS
  0
LAYER
  2
27
 70
     0
 62
     7
  6
CONTINUOUS
  0
LAYER
  2
28
 70
     0
 62
     7
  6
CONTINUOUS
  0
LAYER
  2
29
 70
     0
 62
     7
  6
CONTINUOUS
  0
LAYER
  2
30
 70
     0
 62
     7
  6
CONTINUOUS
  0
LAYER
  2
31
 70
     0
 62
     7
  6
CONTINUOUS
  0
ENDTAB
  0
ENDSEC
  0
SECTION
  2
ENTITIES
  0
LINE
  8
1
  6
CONTINUOUS
 62
1
 10
-0.905511811499999
 20
-0.51045564576225
 30
0.0
 11
-0.905511811499999
 21
0.51045564576225
 31
0.0
  0
LINE
  8
1
  6
CONTINUOUS
 62
1
 10
-0.510455645762253
 20
-0.9055118115
 30
0.0
 11
0.510455645762253
 21
-0.9055118115
 31
0.0
  0
LINE
  8
1
  6
CONTINUOUS
 62
1
 10
-0.68027041417148
 20
-0.593477470201842
 30
0.0
 11
-0.593477470201843
 21
-0.68027041417148
 31
0.0
  0
LINE
  8
1
  6
CONTINUOUS
 62
1
 10
-0.806392202254036
 20
-0.586512796974606
 30
0.0
 11
-0.756327565383836
 21
-0.573098017955879
 31
0.0
  0
LINE
  8
1
  6
CONTINUOUS
 62
1
 10
-0.586512796974609
 20
-0.806392202254038
 30
0.0
 11
-0.57309801795588
 21
-0.756327565383835
 31
0.0
  0
ARC
  8
1
  6
CONTINUOUS
 62
1
 10
-0.649155169168237
 20
-0.735948113137872
 30
0.0
 40
0.078740157
 50
344.999999999999
 51
44.9999999999998
  0
ARC
  8
1
  6
CONTINUOUS
 62
1
 10
-0.735948113137874
 20
-0.649155169168236
 30
0.0
 40
0.078740157
 50
44.9999999999998
 51
105
  0
ARC
  8
1
  6
CONTINUOUS
 62
1
 10
-0.826771654499999
 20
-0.510455645762251
 30
0.0
 40
0.078740157
 50
179.999999999999
 51
285
  0
ARC
  8
1
  6
CONTINUOUS
 62
1
 10
-0.510455645762252
 20
-0.8267716545
 30
0.0
 40
0.078740157
 50
165
 51
270
  0
LINE
  8
1
  6
CONTINUOUS
 62
1
 10
0.905511811499999
 20
-0.51045564576225
 30
0.0
 11
0.905511811499999
 21
0.51045564576225
 31
0.0
  0
LINE
  8
1
  6
CONTINUOUS
 62
1
 10
0.68027041417148
 20
-0.593477470201842
 30
0.0
 11
0.593477470201843
 21
-0.68027041417148
 31
0.0
  0
LINE
  8
1
  6
CONTINUOUS
 62
1
 10
0.806392202254036
 20
-0.586512796974606
 30
0.0
 11
0.756327565383836
 21
-0.573098017955879
 31
0.0
  0
LINE
  8
1
  6
CONTINUOUS
 62
1
 10
0.586512796974609
 20
-0.806392202254038
 30
0.0
 11
0.57309801795588
 21
-0.756327565383835
 31
0.0
  0
ARC
  8
1
  6
CONTINUOUS
 62
1
 10
0.649155169168236
 20
-0.735948113137873
 30
0.0
 40
0.078740157
 50
135
 51
195
  0
ARC
  8
1
  6
CONTINUOUS
 62
1
 10
0.735948113137873
 20
-0.649155169168235
 30
0.0
 40
0.078740157
 50
74.9999999999999
 51
135
  0
ARC
  8
1
  6
CONTINUOUS
 62
1
 10
0.826771654499999
 20
-0.51045564576225
 30
0.0
 40
0.078740157
 50
254.999999999999
 51
3.57066959161178E-13
  0
ARC
  8
1
  6
CONTINUOUS
 62
1
 10
0.510455645762253
 20
-0.8267716545
 30
0.0
 40
0.078740157
 50
269.999999999999
 51
14.9999999999994
  0
LINE
  8
1
  6
CONTINUOUS
 62
1
 10
-0.510455645762253
 20
0.9055118115
 30
0.0
 11
0.510455645762253
 21
0.9055118115
 31
0.0
  0
LINE
  8
1
  6
CONTINUOUS
 62
1
 10
-0.68027041417148
 20
0.593477470201842
 30
0.0
 11
-0.593477470201843
 21
0.68027041417148
 31
0.0
  0
LINE
  8
1
  6
CONTINUOUS
 62
1
 10
-0.806392202254036
 20
0.586512796974606
 30
0.0
 11
-0.756327565383836
 21
0.573098017955879
 31
0.0
  0
LINE
  8
1
  6
CONTINUOUS
 62
1
 10
-0.586512796974609
 20
0.806392202254038
 30
0.0
 11
-0.57309801795588
 21
0.756327565383835
 31
0.0
  0
ARC
  8
1
  6
CONTINUOUS
 62
1
 10
-0.649155169168235
 20
0.735948113137874
 30
0.0
 40
0.078740157
 50
314.999999999999
 51
14.9999999999998
  0
ARC
  8
1
  6
CONTINUOUS
 62
1
 10
-0.735948113137873
 20
0.649155169168235
 30
0.0
 40
0.078740157
 50
254.999999999999
 51
314.999999999999
  0
ARC
  8
1
  6
CONTINUOUS
 62
1
 10
-0.826771654499999
 20
0.510455645762249
 30
0.0
 40
0.078740157
 50
74.9999999999994
 51
180
  0
ARC
  8
1
  6
CONTINUOUS
 62
1
 10
-0.510455645762253
 20
0.8267716545
 30
0.0
 40
0.078740157
 50
89.9999999999998
 51
194.999999999999
  0
LINE
  8
1
  6
CONTINUOUS
 62
1
 10
0.68027041417148
 20
0.593477470201842
 30
0.0
 11
0.593477470201843
 21
0.68027041417148
 31
0.0
  0
LINE
  8
1
  6
CONTINUOUS
 62
1
 10
0.806392202254036
 20
0.586512796974606
 30
0.0
 11
0.756327565383836
 21
0.573098017955879
 31
0.0
  0
LINE
  8
1
  6
CONTINUOUS
 62
1
 10
0.586512796974609
 20
0.806392202254038
 30
0.0
 11
0.57309801795588
 21
0.756327565383835
 31
0.0
  0
ARC
  8
1
  6
CONTINUOUS
 62
1
 10
0.649155169168236
 20
0.735948113137873
 30
0.0
 40
0.078740157
 50
165
 51
225
  0
ARC
  8
1
  6
CONTINUOUS
 62
1
 10
0.735948113137874
 20
0.649155169168235
 30
0.0
 40
0.078740157
 50
225
 51
285
  0
ARC
  8
1
  6
CONTINUOUS
 62
1
 10
0.826771654499999
 20
0.510455645762251
 30
0.0
 40
0.078740157
 50
359.999999999999
 51
105
  0
ARC
  8
1
  6
CONTINUOUS
 62
1
 10
0.510455645762252
 20
0.8267716545
 30
0.0
 40
0.078740157
 50
345
 51
89.9999999999998
  0
LINE
  8
2
  6
CONTINUOUS
 62
2
 10
-0.649155169168236
 20
0.735948113137873
 30
0.0
 11
-0.735948113137874
 21
0.649155169168235
 31
0.0
  0
LINE
  8
2
  6
CONTINUOUS
 62
2
 10
-0.735948113137874
 20
0.649155169168235
 30
0.0
 11
-0.854509479469638
 21
0.680923591530362
 31
0.0
  0
LINE
  8
2
  6
CONTINUOUS
 62
2
 10
-0.854509479469638
 20
0.680923591530362
 30
0.0
 11
-0.886277901831765
 21
0.799484957862127
 31
0.0
  0
LINE
  8
2
  6
CONTINUOUS
 62
2
 10
-0.886277901831765
 20
0.799484957862127
 30
0.0
 11
-0.799484957862127
 21
0.886277901831764
 31
0.0
  0
LINE
  8
2
  6
CONTINUOUS
 62
2
 10
-0.799484957862127
 20
0.886277901831764
 30
0.0
 11
-0.680923591530363
 21
0.854509479469637
 31
0.0
  0
LINE
  8
2
  6
CONTINUOUS
 62
2
 10
-0.680923591530363
 20
0.854509479469637
 30
0.0
 11
-0.649155169168236
 21
0.735948113137873
 31
0.0
  0
LINE
  8
2
  6
CONTINUOUS
 62
2
 10
0.649155169168236
 20
0.735948113137873
 30
0.0
 11
0.735948113137874
 21
0.649155169168235
 31
0.0
  0
LINE
  8
2
  6
CONTINUOUS
 62
2
 10
0.735948113137874
 20
0.649155169168235
 30
0.0
 11
0.854509479469638
 21
0.680923591530362
 31
0.0
  0
LINE
  8
2
  6
CONTINUOUS
 62
2
 10
0.854509479469638
 20
0.680923591530362
 30
0.0
 11
0.886277901831765
 21
0.799484957862127
 31
0.0
  0
LINE
  8
2
  6
CONTINUOUS
 62
2
 10
0.886277901831765
 20
0.799484957862127
 30
0.0
 11
0.799484957862127
 21
0.886277901831764
 31
0.0
  0
LINE
  8
2
  6
CONTINUOUS
 62
2
 10
0.799484957862127
 20
0.886277901831764
 30
0.0
 11
0.680923591530363
 21
0.854509479469637
 31
0.0
  0
LINE
  8
2
  6
CONTINUOUS
 62
2
 10
0.680923591530363
 20
0.854509479469637
 30
0.0
 11
0.649155169168236
 21
0.735948113137873
 31
0.0
  0
LINE
  8
2
  6
CONTINUOUS
 62
2
 10
-0.735948113137874
 20
-0.649155169168235
 30
0.0
 11
-0.854509479469638
 21
-0.680923591530362
 31
0.0
  0
LINE
  8
2
  6
CONTINUOUS
 62
2
 10
-0.854509479469638
 20
-0.680923591530362
 30
0.0
 11
-0.886277901831765
 21
-0.799484957862127
 31
0.0
  0
LINE
  8
2
  6
CONTINUOUS
 62
2
 10
-0.886277901831765
 20
-0.799484957862127
 30
0.0
 11
-0.799484957862127
 21
-0.886277901831764
 31
0.0
  0
LINE
  8
2
  6
CONTINUOUS
 62
2
 10
-0.799484957862127
 20
-0.886277901831764
 30
0.0
 11
-0.680923591530363
 21
-0.854509479469637
 31
0.0
  0
LINE
  8
2
  6
CONTINUOUS
 62
2
 10
-0.680923591530363
 20
-0.854509479469637
 30
0.0
 11
-0.649155169168236
 21
-0.735948113137873
 31
0.0
  0
LINE
  8
2
  6
CONTINUOUS
 62
2
 10
0.649155169168236
 20
-0.735948113137873
 30
0.0
 11
0.735948113137874
 21
-0.649155169168235
 31
0.0
  0
LINE
  8
2
  6
CONTINUOUS
 62
2
 10
0.735948113137874
 20
-0.649155169168235
 30
0.0
 11
0.854509479469638
 21
-0.680923591530362
 31
0.0
  0
LINE
  8
2
  6
CONTINUOUS
 62
2
 10
0.854509479469638
 20
-0.680923591530362
 30
0.0
 11
0.886277901831765
 21
-0.799484957862127
 31
0.0
  0
LINE
  8
2
  6
CONTINUOUS
 62
2
 10
0.886277901831765
 20
-0.799484957862127
 30
0.0
 11
0.799484957862127
 21
-0.886277901831764
 31
0.0
  0
LINE
  8
2
  6
CONTINUOUS
 62
2
 10
0.799484957862127
 20
-0.886277901831764
 30
0.0
 11
0.680923591530363
 21
-0.854509479469637
 31
0.0
  0
LINE
  8
2
  6
CONTINUOUS
 62
2
 10
0.680923591530363
 20
-0.854509479469637
 30
0.0
 11
0.649155169168236
 21
-0.735948113137873
 31
0.0
  0
LINE
  8
2
  6
CONTINUOUS
 62
2
 10
-0.649155169168236
 20
-0.735948113137873
 30
0.0
 11
-0.735948113137874
 21
-0.649155169168235
 31
0.0
  0
ARC
  8
3
  6
CONTINUOUS
 62
3
 10
-0.7677165355
 20
0.767716535500002
 30
0.0
 40
0.0669291340000001
 50
359.999999999998
 51
180.000000000001
  0
ARC
  8
3
  6
CONTINUOUS
 62
3
 10
-0.7677165355
 20
0.767716535499998
 30
0.0
 40
0.0669291340000001
 50
180
 51
9.54166404439055E-13
  0
ARC
  8
3
  6
CONTINUOUS
 62
3
 10
0.7677165355
 20
0.767716535500001
 30
0.0
 40
0.0669291340000001
 50
359.999999999998
 51
180.000000000001
  0
ARC
  8
3
  6
CONTINUOUS
 62
3
 10
0.7677165355
 20
0.767716535499999
 30
0.0
 40
0.0669291340000001
 50
179.999999999999
 51
359.999999999999
  0
ARC
  8
3
  6
CONTINUOUS
 62
3
 10
-0.7677165355
 20
-0.767716535500001
 30
0.0
 40
0.0669291340000001
 50
179.999999999999
 51
1.22217783251925E-12
  0
ARC
  8
3
  6
CONTINUOUS
 62
3
 10
-0.7677165355
 20
-0.7677165355
 30
0.0
 40
0.0669291340000001
 50
359.999999999998
 51
179.999999999999
  0
ARC
  8
3
  6
CONTINUOUS
 62
3
 10
0.7677165355
 20
-0.767716535500002
 30
0.0
 40
0.0669291340000001
 50
179.999999999998
 51
360
  0
ARC
  8
3
  6
CONTINUOUS
 62
3
 10
0.7677165355
 20
-0.767716535499999
 30
0.0
 40
0.0669291340000001
 50
7.37888686099536E-13
 51
180.000000000001
  0
LINE
  8
4
  6
CONTINUOUS
 62
4
 10
0.787401574499999
 20
-0.9842519685
 30
0.0
 11
-0.787401574500001
 21
-0.9842519685
 31
0.0
  0
LINE
  8
4
  6
CONTINUOUS
 62
4
 10
-0.984251968499999
 20
0.787401574499999
 30
0.0
 11
-0.984251968500001
 21
-0.787401574500001
 31
0.0
  0
LINE
  8
4
  6
CONTINUOUS
 62
4
 10
0.984251968499999
 20
-0.787401574499999
 30
0.0
 11
0.984251968500001
 21
0.787401574500001
 31
0.0
  0
LINE
  8
4
  6
CONTINUOUS
 62
4
 10
0.787401574500001
 20
0.9842519685
 30
0.0
 11
-0.787401574499999
 21
0.9842519685
 31
0.0
  0
ARC
  8
4
  6
CONTINUOUS
 62
4
 10
0.787401574500001
 20
-0.787401574499999
 30
0.0
 40
0.196850394
 50
269.999999999999
 51
1.65388843436103E-13
  0
ARC
  8
4
  6
CONTINUOUS
 62
4
 10
0.787401574499999
 20
0.787401574500002
 30
0.0
 40
0.196850394
 50
359.999999999999
 51
89.9999999999996
  0
ARC
  8
4
  6
CONTINUOUS
 62
4
 10
-0.7874015745
 20
0.787401574499999
 30
0.0
 40
0.196850394
 50
89.9999999999996
 51
180
  0
ARC
  8
4
  6
CONTINUOUS
 62
4
 10
-0.7874015745
 20
-0.787401574500002
 30
0.0
 40
0.196850394
 50
179.999999999999
 51
269.999999999999
  0
ENDSEC
  0
EOF
