999
File generated by Conversation
0
SECTION
2
HEADER
0
SECTION
2
HEADER
9
$ACADVER
1
AC1021
9
$INSBASE
10
0.0
20
0.0
30
0.0
9
$INSUNITS
70
4
9
$EXTMIN
10
0.0
20
0.0
30
0.0
9
$EXTMAX
10
1000.0
20
1000.0
30
0.0
0
ENDSEC
0
SECTION
2
TABLES
0
TABLE
2
LTYPE
70
1
0
LTYPE
2
CONTINUOUS
70
64
3
Solid line
72
65
73
0
40
0.0
0
ENDTAB
0
TABLE
2
LAYER
70
1
0
LAYER
2
0
70
64
62
7
6
CONTINUOUS
0
ENDTAB
0
TABLE
2
STYLE
70
1
0
STYLE
2
STANDARD
70
0
40
0.0
41
1.0
50
0.0
71
0
42
0.2
3
txt
4

0
ENDTAB
0
ENDSEC
0
SECTION
2
ENTITIES
0
LINE
8
0
62
1
10
181.299515
20
246.422455
30
0.0
11
160.048615
21
246.422455
31
0.0
0
LINE
8
0
62
1
10
150.299515
20
244.422455
30
0.0
11
150.299515
21
264.922455
31
0.0
0
LINE
8
0
62
1
10
158.299515
20
248.171570
30
0.0
11
158.299515
21
258.922455
31
0.0
0
LINE
8
0
62
2
10
230.299515
20
242.422455
30
0.0
11
201.299515
21
242.422455
31
0.0
0
LINE
8
0
62
1
10
181.299515
20
242.422455
30
0.0
11
152.299515
21
242.422455
31
0.0
0
ARC
8
0
62
1
10
181.299515
20
244.422455
30
0.0
40
2.000000
50
0.000000
51
90.000000
0
ARC
8
0
62
1
10
181.299515
20
244.422455
30
0.0
40
2.000000
50
270.000000
51
0.000000
0
LINE
8
0
62
2
10
224.299515
20
248.171570
30
0.0
11
224.299515
21
255.424225
31
0.0
0
LINE
8
0
62
2
10
222.550400
20
246.422455
30
0.0
11
201.299515
21
246.422455
31
0.0
0
ARC
8
0
62
2
10
201.299515
20
244.422455
30
0.0
40
2.000000
50
90.000000
51
179.999985
0
ARC
8
0
62
2
10
201.299515
20
244.422455
30
0.0
40
2.000000
50
179.999985
51
270.000000
0
ARC
8
0
62
2
10
230.299515
20
244.422455
30
0.0
40
2.000000
50
270.000000
51
0.000000
0
ARC
8
0
62
1
10
152.299515
20
244.422455
30
0.0
40
2.000000
50
179.999985
51
270.000000
0
ARC
8
0
62
1
10
152.299515
20
264.922455
30
0.0
40
2.000000
50
90.000000
51
179.999985
0
LINE
8
0
62
1
10
230.299484
20
266.922455
30
0.0
11
152.299515
21
266.922455
31
0.0
0
LINE
8
0
62
2
10
232.299515
20
244.422455
30
0.0
11
232.299515
21
260.922455
31
0.0
0
ARC
8
0
62
1
10
230.299484
20
264.922455
30
0.0
40
2.000000
50
0.000000
51
90.000000
0
ARC
8
0
62
2
10
162.299515
20
260.922455
30
0.0
40
2.000000
50
179.999939
51
270.000000
0
LINE
8
0
62
1
10
158.299515
20
260.922455
30
0.0
11
158.299515
21
258.922455
31
0.0
0
ARC
8
0
62
2
10
230.299515
20
260.922455
30
0.0
40
2.000000
50
359.999939
51
90.000000
0
ARC
8
0
62
1
10
230.299484
20
264.922455
30
0.0
40
2.000000
50
270.000000
51
270.000000
0
ARC
8
0
62
1
10
230.299484
20
264.922455
30
0.0
40
2.000000
50
270.000000
51
0.000109
0
LINE
8
0
62
4
10
216.299515
20
229.540146
30
0.0
11
210.899506
21
226.422455
31
0.0
0
LINE
8
0
62
4
10
210.899506
20
226.422455
30
0.0
11
216.299515
21
223.304764
31
0.0
0
LINE
8
0
62
4
10
216.299515
20
223.304764
30
0.0
11
218.999512
21
224.863617
31
0.0
0
LINE
8
0
62
4
10
218.999512
20
224.863617
30
0.0
11
218.999512
21
227.981293
31
0.0
0
LINE
8
0
62
4
10
218.999512
20
227.981293
30
0.0
11
216.299515
21
229.540146
31
0.0
0
ARC
8
0
62
2
10
226.299515
20
255.424225
30
0.0
40
2.000000
50
148.600281
51
179.999985
0
ARC
8
0
62
2
10
222.885300
20
257.508240
30
0.0
40
2.000000
50
328.600281
51
45.000000
0
ARC
8
0
62
2
10
222.885300
20
257.508240
30
0.0
40
2.000000
50
45.000000
51
121.399719
0
ARC
8
0
62
2
10
222.550400
20
245.422455
30
0.0
40
1.000000
50
58.600266
51
90.000000
0
ARC
8
0
62
2
10
225.299515
20
248.171570
30
0.0
40
1.000000
50
179.999985
51
211.399673
0
ARC
8
0
62
2
10
223.592407
20
247.129562
30
0.0
40
1.000000
50
238.600281
51
314.999969
0
ARC
8
0
62
2
10
223.592407
20
247.129562
30
0.0
40
1.000000
50
314.999969
51
31.399672
0
ARC
8
0
62
1
10
160.048615
20
245.422455
30
0.0
40
1.000000
50
90.000000
51
121.399353
0
ARC
8
0
62
1
10
157.299515
20
248.171570
30
0.0
40
1.000000
50
328.600342
51
0.000000
0
ARC
8
0
62
1
10
159.006622
20
247.129562
30
0.0
40
1.000000
50
148.600327
51
224.999878
0
ARC
8
0
62
1
10
159.006622
20
247.129562
30
0.0
40
1.000000
50
224.999878
51
301.399414
0
ARC
8
0
62
2
10
220.801285
20
260.922455
30
0.0
40
2.000000
50
270.000000
51
270.000000
0
ARC
8
0
62
2
10
220.801285
20
260.922455
30
0.0
40
2.000000
50
270.000000
51
301.399719
0
LINE
8
0
62
2
10
162.299515
20
258.922455
30
0.0
11
220.801285
21
258.922455
31
0.0
0
ARC
8
0
62
1
10
160.299515
20
260.922455
30
0.0
40
2.000000
50
90.000000
51
179.999939
0
LINE
8
0
62
1
10
160.299515
20
262.922455
30
0.0
11
230.299484
21
262.922455
31
0.0
0
ARC
8
0
62
2
10
162.299515
20
260.922455
30
0.0
40
2.000000
50
90.000000
51
180.000061
0
LINE
8
0
62
2
10
162.299515
20
262.922455
30
0.0
11
230.299484
21
262.922455
31
0.0
0
ARC
8
0
62
3
10
164.299515
20
226.422455
30
0.0
40
1.700000
50
90.000000
51
270.000000
0
LINE
8
0
62
3
10
164.299515
20
228.122452
30
0.0
11
168.299515
21
228.122452
31
0.0
0
ARC
8
0
62
3
10
168.299515
20
226.422455
30
0.0
40
1.700000
50
270.000000
51
270.000000
0
LINE
8
0
62
3
10
168.299515
20
224.722458
30
0.0
11
164.299515
21
224.722458
31
0.0
0
LINE
8
0
62
3
10
170.703674
20
226.422455
30
0.0
11
169.501602
21
227.624542
31
0.0
0
LINE
8
0
62
3
10
170.703674
20
226.422455
30
0.0
11
169.501602
21
225.220367
31
0.0
0
ARC
8
0
62
3
10
168.299515
20
226.422455
30
0.0
40
1.700000
50
45.000000
51
90.000000
0
ARC
8
0
62
3
10
168.299515
20
226.422455
30
0.0
40
1.700000
50
270.000000
51
315.000000
0
ARC
8
0
62
3
10
164.299515
20
246.422455
30
0.0
40
1.700000
50
90.000000
51
270.000000
0
LINE
8
0
62
3
10
164.299515
20
248.122452
30
0.0
11
168.299515
21
248.122452
31
0.0
0
ARC
8
0
62
3
10
168.299515
20
246.422455
30
0.0
40
1.700000
50
270.000000
51
270.000000
0
LINE
8
0
62
3
10
168.299515
20
244.722458
30
0.0
11
164.299515
21
244.722458
31
0.0
0
LINE
8
0
62
3
10
170.703674
20
246.422455
30
0.0
11
169.501602
21
247.624542
31
0.0
0
LINE
8
0
62
3
10
170.703674
20
246.422455
30
0.0
11
169.501602
21
245.220367
31
0.0
0
ARC
8
0
62
3
10
168.299515
20
246.422455
30
0.0
40
1.700000
50
45.000000
51
90.000000
0
ARC
8
0
62
3
10
168.299515
20
246.422455
30
0.0
40
1.700000
50
270.000000
51
315.000000
0
ARC
8
0
62
3
10
164.299515
20
266.422455
30
0.0
40
1.700000
50
90.000000
51
270.000000
0
LINE
8
0
62
3
10
164.299515
20
268.122467
30
0.0
11
168.299515
21
268.122467
31
0.0
0
ARC
8
0
62
3
10
168.299515
20
266.422455
30
0.0
40
1.700000
50
270.000000
51
270.000000
0
LINE
8
0
62
3
10
168.299515
20
264.722443
30
0.0
11
164.299515
21
264.722443
31
0.0
0
LINE
8
0
62
3
10
170.703674
20
266.422455
30
0.0
11
169.501602
21
267.624542
31
0.0
0
LINE
8
0
62
3
10
170.703674
20
266.422455
30
0.0
11
169.501602
21
265.220367
31
0.0
0
ARC
8
0
62
3
10
168.299515
20
266.422455
30
0.0
40
1.700000
50
45.000000
51
90.000000
0
ARC
8
0
62
3
10
168.299515
20
266.422455
30
0.0
40
1.700000
50
270.000000
51
315.000000
0
LINE
8
0
62
4
10
216.299515
20
249.540146
30
0.0
11
210.899506
21
246.422455
31
0.0
0
LINE
8
0
62
4
10
210.899506
20
246.422455
30
0.0
11
216.299515
21
243.304764
31
0.0
0
LINE
8
0
62
4
10
216.299515
20
243.304764
30
0.0
11
218.999512
21
244.863602
31
0.0
0
LINE
8
0
62
4
10
218.999512
20
244.863602
30
0.0
11
218.999512
21
247.981308
31
0.0
0
LINE
8
0
62
4
10
218.999512
20
247.981308
30
0.0
11
216.299515
21
249.540146
31
0.0
0
LINE
8
0
62
4
10
210.899506
20
266.422455
30
0.0
11
216.299515
21
263.304749
31
0.0
0
LINE
8
0
62
4
10
216.299515
20
263.304749
30
0.0
11
218.999512
21
264.863617
31
0.0
0
LINE
8
0
62
4
10
218.999512
20
264.863617
30
0.0
11
218.999512
21
267.981293
31
0.0
0
LINE
8
0
62
4
10
218.999512
20
267.981293
30
0.0
11
216.299515
21
269.540161
31
0.0
0
ARC
8
0
62
5
10
166.299515
20
266.422455
30
0.0
40
1.700000
50
270.000000
51
90.000000
0
LINE
8
0
62
5
10
163.895355
20
266.422455
30
0.0
11
165.097427
21
267.624542
31
0.0
0
LINE
8
0
62
5
10
163.895355
20
266.422455
30
0.0
11
165.097427
21
265.220367
31
0.0
0
ARC
8
0
62
5
10
166.299515
20
266.422455
30
0.0
40
1.700000
50
90.000000
51
135.000000
0
ARC
8
0
62
5
10
166.299515
20
266.422455
30
0.0
40
1.700000
50
225.000000
51
270.000000
0
ARC
8
0
62
5
10
166.299515
20
246.422455
30
0.0
40
1.700000
50
270.000000
51
90.000000
0
LINE
8
0
62
5
10
163.895355
20
246.422455
30
0.0
11
165.097427
21
247.624542
31
0.0
0
LINE
8
0
62
5
10
163.895355
20
246.422455
30
0.0
11
165.097427
21
245.220367
31
0.0
0
ARC
8
0
62
5
10
166.299515
20
246.422455
30
0.0
40
1.700000
50
90.000000
51
135.000000
0
ARC
8
0
62
5
10
166.299515
20
246.422455
30
0.0
40
1.700000
50
225.000000
51
270.000000
0
ARC
8
0
62
5
10
166.299515
20
226.422455
30
0.0
40
1.700000
50
270.000000
51
90.000000
0
LINE
8
0
62
5
10
163.895355
20
226.422455
30
0.0
11
165.097427
21
227.624542
31
0.0
0
LINE
8
0
62
5
10
163.895355
20
226.422455
30
0.0
11
165.097427
21
225.220367
31
0.0
0
ARC
8
0
62
5
10
166.299515
20
226.422455
30
0.0
40
1.700000
50
90.000000
51
135.000000
0
ARC
8
0
62
5
10
166.299515
20
226.422455
30
0.0
40
1.700000
50
225.000000
51
270.000000
0
LINE
8
0
62
4
10
216.299515
20
269.540161
30
0.0
11
210.899506
21
266.422455
31
0.0
0
ARC
8
0
62
5
10
216.299515
20
266.422455
30
0.0
40
1.700000
50
270.000000
51
90.000000
0
LINE
8
0
62
5
10
213.895355
20
266.422455
30
0.0
11
215.097427
21
267.624542
31
0.0
0
LINE
8
0
62
5
10
213.895355
20
266.422455
30
0.0
11
215.097427
21
265.220367
31
0.0
0
ARC
8
0
62
5
10
216.299515
20
266.422455
30
0.0
40
1.700000
50
90.000000
51
135.000000
0
ARC
8
0
62
5
10
216.299515
20
266.422455
30
0.0
40
1.700000
50
225.000000
51
270.000000
0
ARC
8
0
62
5
10
216.299515
20
246.422455
30
0.0
40
1.700000
50
270.000000
51
90.000000
0
LINE
8
0
62
5
10
213.895355
20
246.422455
30
0.0
11
215.097427
21
247.624542
31
0.0
0
LINE
8
0
62
5
10
213.895355
20
246.422455
30
0.0
11
215.097427
21
245.220367
31
0.0
0
ARC
8
0
62
5
10
216.299515
20
246.422455
30
0.0
40
1.700000
50
90.000000
51
135.000000
0
ARC
8
0
62
5
10
216.299515
20
246.422455
30
0.0
40
1.700000
50
225.000000
51
270.000000
0
ARC
8
0
62
5
10
216.299515
20
226.422455
30
0.0
40
1.700000
50
270.000000
51
90.000000
0
LINE
8
0
62
5
10
213.895355
20
226.422455
30
0.0
11
215.097427
21
227.624542
31
0.0
0
LINE
8
0
62
5
10
213.895355
20
226.422455
30
0.0
11
215.097427
21
225.220367
31
0.0
0
ARC
8
0
62
5
10
216.299515
20
226.422455
30
0.0
40
1.700000
50
90.000000
51
135.000000
0
ARC
8
0
62
5
10
216.299515
20
226.422455
30
0.0
40
1.700000
50
225.000000
51
270.000000
0
LINE
8
0
62
4
10
166.299515
20
229.540146
30
0.0
11
160.899506
21
226.422455
31
0.0
0
LINE
8
0
62
4
10
160.899506
20
226.422455
30
0.0
11
166.299515
21
223.304764
31
0.0
0
LINE
8
0
62
4
10
166.299515
20
223.304764
30
0.0
11
168.999512
21
224.863617
31
0.0
0
LINE
8
0
62
4
10
168.999512
20
224.863617
30
0.0
11
168.999512
21
227.981293
31
0.0
0
LINE
8
0
62
4
10
168.999512
20
227.981293
30
0.0
11
166.299515
21
229.540146
31
0.0
0
LINE
8
0
62
4
10
166.299515
20
249.540146
30
0.0
11
160.899506
21
246.422455
31
0.0
0
LINE
8
0
62
4
10
160.899506
20
246.422455
30
0.0
11
166.299515
21
243.304764
31
0.0
0
LINE
8
0
62
4
10
166.299515
20
243.304764
30
0.0
11
168.999512
21
244.863602
31
0.0
0
LINE
8
0
62
4
10
168.999512
20
244.863602
30
0.0
11
168.999512
21
247.981308
31
0.0
0
LINE
8
0
62
4
10
168.999512
20
247.981308
30
0.0
11
166.299515
21
249.540146
31
0.0
0
LINE
8
0
62
4
10
160.899506
20
266.422455
30
0.0
11
166.299515
21
263.304749
31
0.0
0
LINE
8
0
62
4
10
166.299515
20
263.304749
30
0.0
11
168.999512
21
264.863617
31
0.0
0
LINE
8
0
62
4
10
168.999512
20
264.863617
30
0.0
11
168.999512
21
267.981293
31
0.0
0
LINE
8
0
62
4
10
168.999512
20
267.981293
30
0.0
11
166.299515
21
269.540161
31
0.0
0
LINE
8
0
62
4
10
166.299515
20
269.540161
30
0.0
11
160.899506
21
266.422455
31
0.0
0
ARC
8
0
62
3
10
164.299515
20
226.422455
30
0.0
40
1.700000
50
270.000000
51
270.000000
0
ARC
8
0
62
3
10
214.299515
20
226.422455
30
0.0
40
1.700000
50
90.000000
51
270.000000
0
LINE
8
0
62
3
10
214.299515
20
228.122452
30
0.0
11
218.299515
21
228.122452
31
0.0
0
ARC
8
0
62
3
10
218.299515
20
226.422455
30
0.0
40
1.700000
50
270.000000
51
270.000000
0
LINE
8
0
62
3
10
218.299515
20
224.722458
30
0.0
11
214.299515
21
224.722458
31
0.0
0
LINE
8
0
62
3
10
220.703674
20
226.422455
30
0.0
11
219.501602
21
227.624542
31
0.0
0
LINE
8
0
62
3
10
220.703674
20
226.422455
30
0.0
11
219.501602
21
225.220367
31
0.0
0
ARC
8
0
62
3
10
218.299515
20
226.422455
30
0.0
40
1.700000
50
45.000000
51
90.000000
0
ARC
8
0
62
3
10
218.299515
20
226.422455
30
0.0
40
1.700000
50
270.000000
51
315.000000
0
ARC
8
0
62
3
10
214.299515
20
246.422455
30
0.0
40
1.700000
50
90.000000
51
270.000000
0
LINE
8
0
62
3
10
214.299515
20
248.122452
30
0.0
11
218.299515
21
248.122452
31
0.0
0
ARC
8
0
62
3
10
218.299515
20
246.422455
30
0.0
40
1.700000
50
270.000000
51
270.000000
0
LINE
8
0
62
3
10
218.299515
20
244.722458
30
0.0
11
214.299515
21
244.722458
31
0.0
0
LINE
8
0
62
3
10
220.703674
20
246.422455
30
0.0
11
219.501602
21
247.624542
31
0.0
0
LINE
8
0
62
3
10
220.703674
20
246.422455
30
0.0
11
219.501602
21
245.220367
31
0.0
0
ARC
8
0
62
3
10
218.299515
20
246.422455
30
0.0
40
1.700000
50
45.000000
51
90.000000
0
ARC
8
0
62
3
10
218.299515
20
246.422455
30
0.0
40
1.700000
50
270.000000
51
315.000000
0
ARC
8
0
62
3
10
214.299515
20
266.422455
30
0.0
40
1.700000
50
90.000000
51
270.000000
0
LINE
8
0
62
3
10
214.299515
20
268.122467
30
0.0
11
218.299515
21
268.122467
31
0.0
0
ARC
8
0
62
3
10
218.299515
20
266.422455
30
0.0
40
1.700000
50
270.000000
51
270.000000
0
LINE
8
0
62
3
10
218.299515
20
264.722443
30
0.0
11
214.299515
21
264.722443
31
0.0
0
LINE
8
0
62
3
10
220.703674
20
266.422455
30
0.0
11
219.501602
21
267.624542
31
0.0
0
LINE
8
0
62
3
10
220.703674
20
266.422455
30
0.0
11
219.501602
21
265.220367
31
0.0
0
ARC
8
0
62
3
10
218.299515
20
266.422455
30
0.0
40
1.700000
50
45.000000
51
90.000000
0
ARC
8
0
62
3
10
218.299515
20
266.422455
30
0.0
40
1.700000
50
270.000000
51
315.000000
0
LINE
8
0
62
0
10
145.000320
20
-13.000000
30
0.0
11
145.000320
21
13.000008
31
0.0
0
ARC
8
0
62
0
10
125.000328
20
13.000008
30
0.0
40
20.000000
50
0.000000
51
90.000000
0
ARC
8
0
62
0
10
128.500305
20
-16.499992
30
0.0
40
2.250000
50
90.000000
51
270.000000
0
ARC
8
0
62
0
10
128.500305
20
-16.499992
30
0.0
40
2.250000
50
270.000000
51
90.000000
0
ARC
8
0
62
0
10
128.500305
20
16.500008
30
0.0
40
2.250000
50
90.000000
51
270.000000
0
ARC
8
0
62
0
10
128.500305
20
16.500008
30
0.0
40
2.250000
50
270.000000
51
90.000000
0
ARC
8
0
62
0
10
95.500298
20
-16.499966
30
0.0
40
2.250000
50
90.000000
51
270.000000
0
ARC
8
0
62
0
10
95.500298
20
-16.499966
30
0.0
40
2.250000
50
270.000000
51
90.000000
0
ARC
8
0
62
0
10
95.500298
20
16.500038
30
0.0
40
2.250000
50
90.000000
51
270.000000
0
ARC
8
0
62
0
10
95.500298
20
16.500038
30
0.0
40
2.250000
50
270.000000
51
90.000000
0
ARC
8
0
62
0
10
125.000328
20
-13.000000
30
0.0
40
20.000000
50
270.000000
51
270.000000
0
ARC
8
0
62
0
10
125.000328
20
-13.000000
30
0.0
40
20.000000
50
270.000000
51
0.000000
0
LINE
8
0
62
0
10
125.000328
20
33.000008
30
0.0
11
52.999985
21
33.000008
31
0.0
0
LINE
8
0
62
0
10
125.000328
20
-33.000000
30
0.0
11
53.000015
21
-32.999989
31
0.0
0
LINE
8
0
62
0
10
12.999993
20
145.000320
30
0.0
11
-13.000014
21
145.000320
31
0.0
0
LINE
8
0
62
0
10
-145.000320
20
12.999987
30
0.0
11
-145.000320
21
-13.000021
31
0.0
0
LINE
8
0
62
0
10
-12.999980
20
-145.000320
30
0.0
11
13.000028
21
-145.000320
31
0.0
0
ARC
8
0
62
0
10
-13.000013
20
125.000328
30
0.0
40
20.000000
50
90.000000
51
180.000000
0
ARC
8
0
62
0
10
-125.000328
20
-13.000019
30
0.0
40
20.000000
50
180.000000
51
270.000000
0
ARC
8
0
62
0
10
13.000025
20
-125.000328
30
0.0
40
20.000000
50
270.000000
51
0.000000
0
ARC
8
0
62
0
10
16.499987
20
128.500305
30
0.0
40
2.250000
50
180.000000
51
0.000000
0
ARC
8
0
62
0
10
-128.500305
20
16.499981
30
0.0
40
2.250000
50
270.000000
51
90.000000
0
ARC
8
0
62
0
10
-16.499975
20
-128.500305
30
0.0
40
2.250000
50
0.000000
51
180.000000
0
ARC
8
0
62
0
10
16.499987
20
128.500305
30
0.0
40
2.250000
50
0.000000
51
180.000000
0
ARC
8
0
62
0
10
-128.500305
20
16.499981
30
0.0
40
2.250000
50
90.000000
51
270.000000
0
ARC
8
0
62
0
10
-16.499975
20
-128.500305
30
0.0
40
2.250000
50
180.000000
51
0.000000
0
ARC
8
0
62
0
10
-16.500013
20
128.500305
30
0.0
40
2.250000
50
180.000000
51
0.000000
0
ARC
8
0
62
0
10
-128.500305
20
-16.500019
30
0.0
40
2.250000
50
270.000000
51
90.000000
0
ARC
8
0
62
0
10
16.500025
20
-128.500305
30
0.0
40
2.250000
50
0.000000
51
180.000000
0
ARC
8
0
62
0
10
-16.500013
20
128.500305
30
0.0
40
2.250000
50
0.000000
51
180.000000
0
ARC
8
0
62
0
10
-128.500305
20
-16.500019
30
0.0
40
2.250000
50
90.000000
51
270.000000
0
ARC
8
0
62
0
10
16.500025
20
-128.500305
30
0.0
40
2.250000
50
180.000000
51
0.000000
0
ARC
8
0
62
0
10
16.499962
20
95.500298
30
0.0
40
2.250000
50
180.000000
51
0.000000
0
ARC
8
0
62
0
10
-95.500298
20
16.499958
30
0.0
40
2.250000
50
270.000000
51
90.000000
0
ARC
8
0
62
0
10
-16.499954
20
-95.500298
30
0.0
40
2.250000
50
0.000000
51
180.000000
0
ARC
8
0
62
0
10
16.499962
20
95.500298
30
0.0
40
2.250000
50
0.000000
51
180.000000
0
ARC
8
0
62
0
10
-95.500298
20
16.499958
30
0.0
40
2.250000
50
90.000000
51
270.000000
0
ARC
8
0
62
0
10
-16.499954
20
-95.500298
30
0.0
40
2.250000
50
180.000000
51
0.000000
0
ARC
8
0
62
0
10
-16.500042
20
95.500298
30
0.0
40
2.250000
50
180.000000
51
0.000000
0
ARC
8
0
62
0
10
-95.500298
20
-16.500046
30
0.0
40
2.250000
50
270.000000
51
90.000000
0
ARC
8
0
62
0
10
16.500050
20
-95.500298
30
0.0
40
2.250000
50
0.000000
51
180.000000
0
ARC
8
0
62
0
10
-16.500042
20
95.500298
30
0.0
40
2.250000
50
0.000000
51
180.000000
0
ARC
8
0
62
0
10
-95.500298
20
-16.500046
30
0.0
40
2.250000
50
90.000000
51
270.000000
0
ARC
8
0
62
0
10
16.500050
20
-95.500298
30
0.0
40
2.250000
50
180.000000
51
0.000000
0
ARC
8
0
62
0
10
12.999994
20
125.000328
30
0.0
40
20.000000
50
0.000000
51
0.000000
0
ARC
8
0
62
0
10
-125.000328
20
12.999989
30
0.0
40
20.000000
50
90.000000
51
90.000000
0
ARC
8
0
62
0
10
-12.999983
20
-125.000328
30
0.0
40
20.000000
50
180.000000
51
180.000000
0
ARC
8
0
62
0
10
12.999994
20
125.000328
30
0.0
40
20.000000
50
0.000000
51
90.000000
0
ARC
8
0
62
0
10
-125.000328
20
12.999989
30
0.0
40
20.000000
50
90.000000
51
180.000000
0
ARC
8
0
62
0
10
-12.999983
20
-125.000328
30
0.0
40
20.000000
50
180.000000
51
270.000000
0
LINE
8
0
62
0
10
-33.000011
20
125.000328
30
0.0
11
-33.000011
21
52.999989
31
0.0
0
LINE
8
0
62
0
10
-125.000328
20
-33.000015
30
0.0
11
-52.999985
21
-33.000015
31
0.0
0
LINE
8
0
62
0
10
33.000019
20
-125.000328
30
0.0
11
33.000019
21
-52.999985
31
0.0
0
LINE
8
0
62
0
10
32.999996
20
125.000328
30
0.0
11
32.999989
21
53.000008
31
0.0
0
LINE
8
0
62
0
10
-125.000328
20
32.999992
30
0.0
11
-53.000015
21
32.999989
31
0.0
0
LINE
8
0
62
0
10
-32.999989
20
-125.000328
30
0.0
11
-32.999989
21
-53.000015
31
0.0
0
ARC
8
0
62
0
10
53.000015
20
-52.999985
30
0.0
40
20.000000
50
90.000000
51
179.999985
0
ARC
8
0
62
0
10
52.999985
20
53.000008
30
0.0
40
20.000000
50
179.999985
51
270.000000
0
ARC
8
0
62
0
10
-53.000015
20
52.999989
30
0.0
40
20.000000
50
270.000000
51
0.000000
0
ARC
8
0
62
0
10
-52.999985
20
-53.000015
30
0.0
40
20.000000
50
0.000000
51
90.000000
0
ENDSEC
0
EOF
