999
File generated by Conversation
0
SECTION
2
HEADER
0
SECTION
2
HEADER
9
$ACADVER
1
AC1021
9
$INSBASE
10
0.0
20
0.0
30
0.0
9
$INSUNITS
70
4
9
$EXTMIN
10
0.0
20
0.0
30
0.0
9
$EXTMAX
10
1000.0
20
1000.0
30
0.0
0
ENDSEC
0
SECTION
2
TABLES
0
TABLE
2
LTYPE
70
1
0
LTYPE
2
CONTINUOUS
70
64
3
Solid line
72
65
73
0
40
0.0
0
ENDTAB
0
TABLE
2
LAYER
70
1
0
LAYER
2
0
70
64
62
7
6
CONTINUOUS
0
ENDTAB
0
TABLE
2
STYLE
70
1
0
STYLE
2
STANDARD
70
0
40
0.0
41
1.0
50
0.0
71
0
42
0.2
3
txt
4

0
ENDTAB
0
ENDSEC
0
SECTION
2
ENTITIES
0
LINE
8
0
62
8
10
-229.063065
20
-36.949345
30
0.0
11
-229.063065
21
-23.947571
31
0.0
0
LINE
8
0
62
8
10
-206.063065
20
-42.698460
30
0.0
11
-226.352295
21
-42.698460
31
0.0
0
LINE
8
0
62
8
10
-204.063065
20
-40.698460
30
0.0
11
-204.063065
21
-40.698460
31
0.0
0
LINE
8
0
62
8
10
-206.063065
20
-38.698460
30
0.0
11
-227.313965
21
-38.698460
31
0.0
0
ARC
8
0
62
8
10
-206.063065
20
-40.698460
30
0.0
40
2.000000
50
0.000000
51
90.000000
0
ARC
8
0
62
8
10
-206.063065
20
-40.698460
30
0.0
40
2.000000
50
270.000000
51
0.000000
0
ARC
8
0
62
8
10
-162.063065
20
-27.947578
30
0.0
40
1.000000
50
148.600281
51
179.999985
0
ARC
8
0
62
8
10
-163.770172
20
-26.905567
30
0.0
40
1.000000
50
328.600281
51
44.999474
0
ARC
8
0
62
8
10
-163.770172
20
-26.905567
30
0.0
40
1.000000
50
44.999474
51
121.398659
0
ARC
8
0
62
8
10
-227.313965
20
-39.698460
30
0.0
40
1.000000
50
90.000000
51
121.399094
0
ARC
8
0
62
8
10
-230.063065
20
-36.949345
30
0.0
40
1.000000
50
328.600342
51
0.000000
0
ARC
8
0
62
8
10
-228.355957
20
-37.991352
30
0.0
40
1.000000
50
148.600327
51
224.999725
0
ARC
8
0
62
8
10
-228.355957
20
-37.991352
30
0.0
40
1.000000
50
224.999725
51
301.399109
0
LINE
8
0
62
8
10
-233.063065
20
-35.987679
30
0.0
11
-233.063065
21
-24.909235
31
0.0
0
ARC
8
0
62
8
10
-228.355957
20
-37.991352
30
0.0
40
5.000000
50
224.999725
51
286.632904
0
ARC
8
0
62
8
10
-228.355957
20
-37.991352
30
0.0
40
5.000000
50
163.367065
51
224.999725
0
ARC
8
0
62
8
10
-226.352295
20
-44.698460
30
0.0
40
2.000000
50
90.000000
51
106.632896
0
ARC
8
0
62
8
10
-235.063065
20
-35.987679
30
0.0
40
2.000000
50
343.367065
51
0.000000
0
ARC
8
0
62
8
10
-157.063065
20
-35.987679
30
0.0
40
2.000000
50
179.999985
51
196.632935
0
ARC
8
0
62
8
10
-163.770172
20
-26.905567
30
0.0
40
9.000000
50
44.999474
51
103.251633
0
LINE
8
0
62
8
10
-157.342651
20
-28.825714
30
0.0
11
-157.342651
21
-28.825714
31
0.0
0
ARC
8
0
62
8
10
-163.770172
20
-26.905567
30
0.0
40
5.000000
50
44.999474
51
106.633286
0
LINE
8
0
62
0
10
33.128258
20
-13.873951
30
0.0
11
-32.871742
21
-13.873951
31
0.0
0
LINE
8
0
62
8
10
-186.063065
20
-42.698460
30
0.0
11
-165.773834
21
-42.698460
31
0.0
0
LINE
8
0
62
8
10
-188.063065
20
-40.698460
30
0.0
11
-188.063065
21
-40.698460
31
0.0
0
LINE
8
0
62
8
10
-186.063065
20
-38.698460
30
0.0
11
-164.812164
21
-38.698460
31
0.0
0
ARC
8
0
62
8
10
-186.063065
20
-40.698460
30
0.0
40
2.000000
50
90.000000
51
180.000000
0
ARC
8
0
62
8
10
-186.063065
20
-40.698460
30
0.0
40
2.000000
50
180.000000
51
270.000000
0
ARC
8
0
62
8
10
-164.812164
20
-39.698460
30
0.0
40
1.000000
50
58.600906
51
90.000000
0
ARC
8
0
62
8
10
-163.770172
20
-37.991352
30
0.0
40
1.000000
50
315.000275
51
31.399673
0
ARC
8
0
62
8
10
-163.770172
20
-37.991352
30
0.0
40
1.000000
50
238.600876
51
315.000275
0
ARC
8
0
62
8
10
-163.770172
20
-37.991352
30
0.0
40
5.000000
50
253.367096
51
315.000275
0
ARC
8
0
62
8
10
-163.770172
20
-37.991352
30
0.0
40
5.000000
50
315.000275
51
16.632935
0
ARC
8
0
62
8
10
-165.773834
20
-44.698460
30
0.0
40
2.000000
50
73.367104
51
90.000000
0
ARC
8
0
62
8
10
-157.063065
20
-35.987679
30
0.0
40
2.000000
50
180.000000
51
196.632919
0
ARC
8
0
62
8
10
-162.063065
20
-36.949345
30
0.0
40
1.000000
50
180.000000
51
180.000015
0
ARC
8
0
62
8
10
-162.063065
20
-36.949345
30
0.0
40
1.000000
50
180.000015
51
211.399658
0
LINE
8
0
62
8
10
-163.063065
20
-27.947578
30
0.0
11
-163.063065
21
-36.949345
31
0.0
0
ARC
8
0
62
8
10
-157.063065
20
-28.909239
30
0.0
40
2.000000
50
163.367065
51
179.999969
0
ARC
8
0
62
8
10
-157.063065
20
-28.909239
30
0.0
40
2.000000
50
179.999969
51
179.999985
0
LINE
8
0
62
8
10
-159.063065
20
-28.909241
30
0.0
11
-159.063065
21
-35.987679
31
0.0
0
LINE
8
0
62
8
10
-164.812134
20
-26.198460
30
0.0
11
-225.063065
21
-26.198454
31
0.0
0
ARC
8
0
62
8
10
-225.063065
20
-24.198456
30
0.0
40
2.000000
50
179.999985
51
270.000000
0
ARC
8
0
62
8
10
-166.291687
20
-16.198460
30
0.0
40
2.000000
50
270.000000
51
270.000000
0
ARC
8
0
62
8
10
-166.291687
20
-16.198460
30
0.0
40
2.000000
50
270.000000
51
283.251648
0
LINE
8
0
62
8
10
-226.352264
20
-18.198460
30
0.0
11
-166.291687
21
-18.198460
31
0.0
0
LINE
8
0
62
0
10
-32.871742
20
-26.373953
30
0.0
11
-32.871742
21
-13.873951
31
0.0
0
ARC
8
0
62
8
10
-163.770172
20
6.256531
30
0.0
40
5.000000
50
44.999474
51
106.633286
0
ARC
8
0
62
8
10
-163.770172
20
6.256531
30
0.0
40
5.000000
50
343.367065
51
359.968628
0
ARC
8
0
62
8
10
-163.770172
20
6.256531
30
0.0
40
5.000000
50
359.968628
51
44.999474
0
LINE
8
0
62
8
10
-186.063065
20
-9.536362
30
0.0
11
-165.773849
21
-9.536362
31
0.0
0
LINE
8
0
62
8
10
-188.063065
20
-7.536362
30
0.0
11
-188.063065
21
-7.536362
31
0.0
0
LINE
8
0
62
8
10
-186.063065
20
-5.536362
30
0.0
11
-164.812164
21
-5.536362
31
0.0
0
ARC
8
0
62
8
10
-186.063065
20
-7.536362
30
0.0
40
2.000000
50
90.000000
51
180.000000
0
ARC
8
0
62
8
10
-186.063065
20
-7.536362
30
0.0
40
2.000000
50
180.000000
51
270.000000
0
ARC
8
0
62
8
10
-164.812164
20
-6.536362
30
0.0
40
1.000000
50
58.600906
51
90.000000
0
ARC
8
0
62
8
10
-163.770172
20
-4.829254
30
0.0
40
1.000000
50
315.000275
51
31.399673
0
ARC
8
0
62
8
10
-163.770172
20
-4.829254
30
0.0
40
1.000000
50
238.600876
51
315.000275
0
ARC
8
0
62
8
10
-163.770172
20
-4.829254
30
0.0
40
5.000000
50
253.367096
51
315.000275
0
ARC
8
0
62
8
10
-163.770172
20
-4.829254
30
0.0
40
5.000000
50
315.000275
51
16.632935
0
ARC
8
0
62
8
10
-165.773849
20
-11.536362
30
0.0
40
2.000000
50
73.367104
51
90.000000
0
ARC
8
0
62
8
10
-157.063065
20
-2.825581
30
0.0
40
2.000000
50
180.000000
51
196.632919
0
ARC
8
0
62
8
10
-162.063065
20
-3.787247
30
0.0
40
1.000000
50
180.000000
51
180.000015
0
ARC
8
0
62
8
10
-162.063065
20
-3.787247
30
0.0
40
1.000000
50
180.000015
51
211.399658
0
LINE
8
0
62
8
10
-163.063065
20
5.214520
30
0.0
11
-163.063065
21
-3.787247
31
0.0
0
ARC
8
0
62
8
10
-157.063065
20
4.252857
30
0.0
40
2.000000
50
179.999969
51
179.999985
0
LINE
8
0
62
8
10
-159.063065
20
4.252857
30
0.0
11
-159.063065
21
-2.825581
31
0.0
0
LINE
8
0
62
8
10
-164.812180
20
6.963638
30
0.0
11
-225.063065
21
6.963642
31
0.0
0
ARC
8
0
62
8
10
-225.063065
20
8.963642
30
0.0
40
2.000000
50
179.999985
51
270.000000
0
ARC
8
0
62
8
10
-225.063065
20
8.963642
30
0.0
40
2.000000
50
90.000000
51
180.000015
0
ARC
8
0
62
8
10
-165.773895
20
12.963638
30
0.0
40
2.000000
50
270.000000
51
286.633301
0
LINE
8
0
62
8
10
-225.063065
20
10.963642
30
0.0
11
-165.773895
21
10.963638
31
0.0
0
LINE
8
0
62
8
10
-229.063065
20
27.224194
30
0.0
11
-229.063065
21
40.225964
31
0.0
0
LINE
8
0
62
8
10
-206.063065
20
21.475079
30
0.0
11
-226.352295
21
21.475079
31
0.0
0
LINE
8
0
62
8
10
-204.063065
20
23.475079
30
0.0
11
-204.063065
21
23.475079
31
0.0
0
LINE
8
0
62
8
10
-206.063065
20
25.475079
30
0.0
11
-227.313980
21
25.475079
31
0.0
0
ARC
8
0
62
8
10
-206.063065
20
23.475079
30
0.0
40
2.000000
50
0.000000
51
90.000000
0
ARC
8
0
62
8
10
-206.063065
20
23.475079
30
0.0
40
2.000000
50
270.000000
51
0.000000
0
ARC
8
0
62
8
10
-227.313980
20
24.475079
30
0.0
40
1.000000
50
90.000000
51
121.399094
0
ARC
8
0
62
8
10
-230.063065
20
27.224194
30
0.0
40
1.000000
50
328.600342
51
0.000000
0
ARC
8
0
62
8
10
-228.355957
20
26.182186
30
0.0
40
1.000000
50
148.600327
51
224.999725
0
ARC
8
0
62
8
10
-228.355957
20
26.182186
30
0.0
40
1.000000
50
224.999725
51
301.399109
0
LINE
8
0
62
8
10
-233.063065
20
28.185856
30
0.0
11
-233.063065
21
39.264301
31
0.0
0
ARC
8
0
62
8
10
-228.355957
20
26.182186
30
0.0
40
5.000000
50
224.999725
51
286.632904
0
ARC
8
0
62
8
10
-228.355957
20
26.182186
30
0.0
40
5.000000
50
163.367065
51
224.999725
0
ARC
8
0
62
8
10
-226.352295
20
19.475079
30
0.0
40
2.000000
50
90.000000
51
106.632896
0
ARC
8
0
62
8
10
-235.063065
20
28.185856
30
0.0
40
2.000000
50
343.367065
51
0.000000
0
ARC
8
0
62
8
10
-163.770172
20
37.267971
30
0.0
40
9.000000
50
44.999474
51
103.251633
0
ARC
8
0
62
8
10
-163.770172
20
37.267971
30
0.0
40
9.000000
50
359.968628
51
44.999474
0
LINE
8
0
62
8
10
-157.342651
20
35.347820
30
0.0
11
-157.342651
21
35.347820
31
0.0
0
ARC
8
0
62
8
10
-156.770172
20
37.264141
30
0.0
40
2.000000
50
253.367050
51
359.968628
0
ARC
8
0
62
8
10
-163.770172
20
37.267971
30
0.0
40
5.000000
50
44.999474
51
106.633286
0
ARC
8
0
62
8
10
-156.770172
20
37.264141
30
0.0
40
2.000000
50
179.968628
51
253.367050
0
ARC
8
0
62
8
10
-163.770172
20
37.267971
30
0.0
40
5.000000
50
359.968628
51
44.999474
0
LINE
8
0
62
8
10
-227.063065
20
41.975079
30
0.0
11
-225.063065
21
41.975079
31
0.0
0
ARC
8
0
62
8
10
-165.773895
20
43.975079
30
0.0
40
2.000000
50
270.000000
51
286.633301
0
LINE
8
0
62
8
10
-227.313950
20
41.975079
30
0.0
11
-165.773895
21
41.975079
31
0.0
0
ARC
8
0
62
8
10
-166.291687
20
47.975079
30
0.0
40
2.000000
50
270.000000
51
270.000000
0
ARC
8
0
62
8
10
-166.291687
20
47.975079
30
0.0
40
2.000000
50
270.000000
51
283.251648
0
LINE
8
0
62
8
10
-226.352295
20
45.975079
30
0.0
11
-166.291687
21
45.975079
31
0.0
0
ARC
8
0
62
8
10
-157.063065
20
4.252857
30
0.0
40
2.000000
50
163.367035
51
179.999985
0
ARC
8
0
62
8
10
-164.812180
20
7.963638
30
0.0
40
1.000000
50
270.000000
51
301.399719
0
ARC
8
0
62
8
10
-162.063065
20
5.214520
30
0.0
40
1.000000
50
148.600372
51
179.999985
0
ARC
8
0
62
8
10
-163.770172
20
6.256531
30
0.0
40
1.000000
50
328.600281
51
44.999977
0
ARC
8
0
62
8
10
-163.770172
20
6.256531
30
0.0
40
1.000000
50
44.999977
51
121.399666
0
ARC
8
0
62
8
10
-230.063065
20
-23.947571
30
0.0
40
1.000000
50
0.000000
51
31.399666
0
ARC
8
0
62
8
10
-227.313950
20
-21.198456
30
0.0
40
1.000000
50
238.600296
51
270.000000
0
ARC
8
0
62
8
10
-228.355957
20
-22.905563
30
0.0
40
1.000000
50
58.600266
51
134.999969
0
ARC
8
0
62
8
10
-228.355957
20
-22.905563
30
0.0
40
1.000000
50
134.999969
51
211.399673
0
ARC
8
0
62
8
10
-228.355957
20
-22.905563
30
0.0
40
5.000000
50
73.366936
51
134.999969
0
ARC
8
0
62
8
10
-228.355957
20
-22.905563
30
0.0
40
5.000000
50
134.999969
51
196.632935
0
ARC
8
0
62
8
10
-235.063065
20
-24.909235
30
0.0
40
2.000000
50
0.000000
51
16.632927
0
ARC
8
0
62
8
10
-226.352264
20
-16.198460
30
0.0
40
2.000000
50
253.366928
51
270.000000
0
LINE
8
0
62
8
10
-225.063065
20
-22.198456
30
0.0
11
-227.313950
21
-22.198456
31
0.0
0
ARC
8
0
62
8
10
-225.063065
20
-24.198456
30
0.0
40
2.000000
50
90.000000
51
180.000015
0
ARC
8
0
62
8
10
-165.773895
20
-20.198460
30
0.0
40
2.000000
50
270.000000
51
270.000000
0
ARC
8
0
62
8
10
-165.773895
20
-20.198460
30
0.0
40
2.000000
50
270.000000
51
286.633301
0
LINE
8
0
62
8
10
-225.063065
20
-22.198456
30
0.0
11
-165.773895
21
-22.198460
31
0.0
0
ARC
8
0
62
8
10
-230.063065
20
40.225964
30
0.0
40
1.000000
50
0.000000
51
31.399620
0
ARC
8
0
62
8
10
-227.313950
20
42.975079
30
0.0
40
1.000000
50
238.600296
51
270.000000
0
ARC
8
0
62
8
10
-228.355957
20
41.267971
30
0.0
40
1.000000
50
58.600330
51
134.999969
0
ARC
8
0
62
8
10
-228.355957
20
41.267971
30
0.0
40
1.000000
50
134.999969
51
211.399628
0
ARC
8
0
62
8
10
-228.355957
20
41.267971
30
0.0
40
5.000000
50
134.999969
51
196.632904
0
ARC
8
0
62
8
10
-228.355957
20
41.267971
30
0.0
40
5.000000
50
73.367065
51
134.999969
0
ARC
8
0
62
8
10
-226.352295
20
47.975079
30
0.0
40
2.000000
50
253.367065
51
270.000000
0
ARC
8
0
62
8
10
-235.063065
20
39.264301
30
0.0
40
2.000000
50
0.000000
51
16.632952
0
ARC
8
0
62
8
10
-164.812134
20
-25.198460
30
0.0
40
1.000000
50
270.000000
51
270.000000
0
ARC
8
0
62
8
10
-164.812134
20
-25.198460
30
0.0
40
1.000000
50
270.000000
51
301.398682
0
LINE
8
0
62
8
10
-157.262375
20
-26.642052
30
0.0
11
-157.262375
21
-26.642052
31
0.0
0
ARC
8
0
62
8
10
-157.063065
20
-28.909237
30
0.0
40
2.000000
50
163.367096
51
179.999985
0
ARC
8
0
62
8
10
-156.770172
20
-26.909397
30
0.0
40
2.000000
50
253.367050
51
359.968628
0
ARC
8
0
62
8
10
-163.770172
20
-26.905567
30
0.0
40
9.000000
50
359.983215
51
44.999474
0
ARC
8
0
62
8
10
-156.770172
20
-26.909397
30
0.0
40
2.000000
50
179.968628
51
253.367050
0
ARC
8
0
62
8
10
-163.770172
20
-26.905567
30
0.0
40
5.000000
50
359.968628
51
44.999474
0
ARC
8
0
62
8
10
-163.770172
20
-26.905567
30
0.0
40
5.000000
50
343.367065
51
44.999474
0
ARC
8
0
62
8
10
-157.063065
20
-28.909241
30
0.0
40
2.000000
50
163.367065
51
179.999985
0
LINE
8
0
62
1
10
30.128242
20
-10.373955
30
0.0
11
35.128242
21
-10.373955
31
0.0
0
ARC
8
0
62
1
10
30.128242
20
-8.373955
30
0.0
40
2.000000
50
90.000000
51
180.000000
0
ARC
8
0
62
1
10
30.128242
20
-8.373955
30
0.0
40
2.000000
50
180.000000
51
270.000000
0
ARC
8
0
62
1
10
31.379150
20
-7.373955
30
0.0
40
1.000000
50
58.600906
51
90.000000
0
ARC
8
0
62
1
10
32.421135
20
-5.666847
30
0.0
40
1.000000
50
315.000275
51
31.399673
0
ARC
8
0
62
1
10
32.421135
20
-5.666847
30
0.0
40
1.000000
50
238.600876
51
315.000275
0
ARC
8
0
62
1
10
34.128242
20
-4.624840
30
0.0
40
1.000000
50
180.000000
51
180.000015
0
ARC
8
0
62
1
10
34.128242
20
-4.624840
30
0.0
40
1.000000
50
180.000015
51
211.399658
0
ARC
8
0
62
1
10
32.421135
20
5.418938
30
0.0
40
1.000000
50
328.600281
51
44.999977
0
ARC
8
0
62
1
10
32.421135
20
5.418938
30
0.0
40
1.000000
50
44.999977
51
121.399666
0
ARC
8
0
62
1
10
35.128242
20
-8.373955
30
0.0
40
2.000000
50
270.000000
51
0.000000
0
LINE
8
0
62
1
10
30.128242
20
-6.373955
30
0.0
11
31.379150
21
-6.373955
31
0.0
0
LINE
8
0
62
0
10
-32.871742
20
-26.373953
30
0.0
11
33.128258
21
-26.373953
31
0.0
0
LINE
8
0
62
3
10
-68.044342
20
-72.049408
30
0.0
11
-93.044327
21
-72.049408
31
0.0
0
LINE
8
0
62
3
10
-66.044342
20
-70.049408
30
0.0
11
-66.044342
21
-70.049408
31
0.0
0
ARC
8
0
62
3
10
-68.044342
20
-70.049408
30
0.0
40
2.000000
50
0.000000
51
90.000000
0
ARC
8
0
62
3
10
-68.044342
20
-70.049408
30
0.0
40
2.000000
50
270.000000
51
0.000000
0
ARC
8
0
62
3
10
-89.295258
20
-69.049408
30
0.0
40
1.000000
50
90.000000
51
121.399094
0
ARC
8
0
62
3
10
-92.044342
20
-66.300293
30
0.0
40
1.000000
50
328.600342
51
0.000000
0
ARC
8
0
62
3
10
-90.337234
20
-67.342300
30
0.0
40
1.000000
50
148.600327
51
224.999725
0
ARC
8
0
62
3
10
-90.337234
20
-67.342300
30
0.0
40
1.000000
50
224.999725
51
301.399109
0
LINE
8
0
62
3
10
-95.044327
20
-70.049408
30
0.0
11
-95.044327
21
-59.074516
31
0.0
0
LINE
8
0
62
3
10
-68.044342
20
-68.049408
30
0.0
11
-89.295258
21
-68.049408
31
0.0
0
ARC
8
0
62
3
10
-93.044327
20
-70.049408
30
0.0
40
2.000000
50
179.999985
51
270.000000
0
LINE
8
0
62
3
10
-83.519226
20
-47.549408
30
0.0
11
-28.569462
21
-47.549408
31
0.0
0
ARC
8
0
62
3
10
-28.040840
20
-47.549408
30
0.0
40
4.000000
50
270.000000
51
301.399780
0
ARC
8
0
62
3
10
-17.044346
20
-58.545868
30
0.0
40
4.000000
50
148.600403
51
180.000061
0
ARC
8
0
62
3
10
-23.872780
20
-54.377838
30
0.0
40
4.000000
50
328.600403
51
45.000099
0
ARC
8
0
62
3
10
-23.872780
20
-54.377838
30
0.0
40
4.000000
50
45.000099
51
121.399803
0
ARC
8
0
62
3
10
-23.872780
20
-54.377838
30
0.0
40
8.000000
50
45.000099
51
118.012756
0
ARC
8
0
62
3
10
-28.569462
20
-45.549408
30
0.0
40
2.000000
50
270.000000
51
298.012726
0
ARC
8
0
62
3
10
-23.872780
20
-54.377838
30
0.0
40
8.000000
50
331.987366
51
45.000099
0
ARC
8
0
62
3
10
-95.044327
20
-58.545876
30
0.0
40
4.000000
50
359.999939
51
31.399666
0
ARC
8
0
62
3
10
-84.047867
20
-47.549408
30
0.0
40
4.000000
50
238.600296
51
270.000000
0
ARC
8
0
62
3
10
-88.215897
20
-54.377838
30
0.0
40
4.000000
50
58.600330
51
135.000000
0
ARC
8
0
62
3
10
-88.215897
20
-54.377838
30
0.0
40
4.000000
50
135.000000
51
211.399673
0
ARC
8
0
62
3
10
-88.215897
20
-54.377838
30
0.0
40
8.000000
50
135.000000
51
208.012772
0
ARC
8
0
62
3
10
-83.519226
20
-45.549408
30
0.0
40
2.000000
50
241.987183
51
270.000000
0
ARC
8
0
62
3
10
-97.044327
20
-59.074516
30
0.0
40
2.000000
50
0.000000
51
28.012720
0
ARC
8
0
62
3
10
-88.215897
20
-54.377838
30
0.0
40
8.000000
50
61.987228
51
135.000000
0
LINE
8
0
62
3
10
-84.047867
20
-51.549408
30
0.0
11
-28.040840
21
-51.549408
31
0.0
0
LINE
8
0
62
3
10
-21.044346
20
-58.545868
30
0.0
11
-21.044338
21
-70.049408
31
0.0
0
LINE
8
0
62
3
10
-17.044338
20
-59.074497
30
0.0
11
-17.044338
21
-70.049408
31
0.0
0
ARC
8
0
62
3
10
-19.044338
20
-70.049408
30
0.0
40
2.000000
50
179.999985
51
0.000000
0
LINE
8
0
62
3
10
-91.044342
20
-66.300293
30
0.0
11
-91.044327
21
-58.545876
31
0.0
0
LINE
8
0
62
4
10
-34.498970
20
-83.658150
30
0.0
11
-34.498970
21
-58.658150
31
0.0
0
LINE
8
0
62
4
10
-36.498970
20
-85.658150
30
0.0
11
-36.498970
21
-85.658150
31
0.0
0
ARC
8
0
62
4
10
-36.498970
20
-83.658150
30
0.0
40
2.000000
50
180.000000
51
270.000000
0
ARC
8
0
62
4
10
-36.498970
20
-83.658150
30
0.0
40
2.000000
50
270.000000
51
0.000000
0
ARC
8
0
62
4
10
-37.498970
20
-62.407242
30
0.0
40
1.000000
50
148.600906
51
180.000000
0
ARC
8
0
62
4
10
-39.206078
20
-61.365257
30
0.0
40
1.000000
50
45.000275
51
121.399673
0
ARC
8
0
62
4
10
-39.206078
20
-61.365257
30
0.0
40
1.000000
50
328.600891
51
45.000275
0
ARC
8
0
62
4
10
-40.248085
20
-59.658150
30
0.0
40
1.000000
50
270.000000
51
270.000000
0
ARC
8
0
62
4
10
-40.248085
20
-59.658150
30
0.0
40
1.000000
50
270.000000
51
301.399658
0
ARC
8
0
62
4
10
-52.998970
20
-122.658150
30
0.0
40
2.000000
50
270.000000
51
0.000000
0
ARC
8
0
62
4
10
-49.249855
20
-59.658150
30
0.0
40
1.000000
50
238.600372
51
270.000000
0
ARC
8
0
62
4
10
-50.291862
20
-61.365257
30
0.0
40
1.000000
50
58.600281
51
134.999969
0
ARC
8
0
62
4
10
-50.291862
20
-61.365257
30
0.0
40
1.000000
50
134.999969
51
211.399658
0
ARC
8
0
62
4
10
-52.998970
20
-122.658150
30
0.0
40
2.000000
50
180.000000
51
270.000000
0
ARC
8
0
62
4
10
-36.498970
20
-58.658150
30
0.0
40
2.000000
50
0.000000
51
90.000000
0
LINE
8
0
62
4
10
-49.249855
20
-60.658150
30
0.0
11
-40.248085
21
-60.658150
31
0.0
0
LINE
8
0
62
4
10
-38.498970
20
-83.658150
30
0.0
11
-38.498970
21
-62.407242
31
0.0
0
LINE
8
0
62
4
10
-52.998978
20
-56.658161
30
0.0
11
-48.002510
21
-56.658157
31
0.0
0
LINE
8
0
62
4
10
-36.498970
20
-56.658150
30
0.0
11
-48.002510
21
-56.658157
31
0.0
0
ARC
8
0
62
4
10
-52.998978
20
-58.658161
30
0.0
40
2.000000
50
90.000000
51
179.999985
0
ARC
8
0
62
4
10
-52.998978
20
-58.658161
30
0.0
40
2.000000
50
179.999985
51
180.000000
0
LINE
8
0
62
4
10
-54.998970
20
-122.658150
30
0.0
11
-54.998978
21
-58.658161
31
0.0
0
ARC
8
0
62
4
10
-51.998970
20
-62.407265
30
0.0
40
1.000000
50
0.000000
51
0.000000
0
ARC
8
0
62
4
10
-51.998970
20
-62.407265
30
0.0
40
1.000000
50
0.000000
51
31.399719
0
LINE
8
0
62
4
10
-50.998970
20
-62.407265
30
0.0
11
-50.998970
21
-122.658150
31
0.0
0
ARC
8
0
62
3
10
-15.044338
20
-59.074497
30
0.0
40
2.000000
50
151.987396
51
179.999985
0
LINE
8
0
62
0
10
48.571136
20
-161.460663
30
0.0
11
-17.428864
21
-161.460663
31
0.0
0
LINE
8
0
62
0
10
-17.428864
20
-173.960663
30
0.0
11
-17.428864
21
-161.460663
31
0.0
0
LINE
8
0
62
2
10
5.571121
20
-177.960663
30
0.0
11
-19.428871
21
-177.960663
31
0.0
0
LINE
8
0
62
2
10
7.571121
20
-175.960663
30
0.0
11
7.571121
21
-175.960663
31
0.0
0
ARC
8
0
62
2
10
5.571121
20
-175.960663
30
0.0
40
2.000000
50
0.000000
51
90.000000
0
ARC
8
0
62
2
10
5.571121
20
-175.960663
30
0.0
40
2.000000
50
270.000000
51
0.000000
0
ARC
8
0
62
2
10
-15.679794
20
-174.960663
30
0.0
40
1.000000
50
90.000000
51
121.399094
0
ARC
8
0
62
2
10
-18.428879
20
-172.211548
30
0.0
40
1.000000
50
328.600342
51
0.000000
0
ARC
8
0
62
2
10
-16.721771
20
-173.253571
30
0.0
40
1.000000
50
148.600327
51
224.999725
0
ARC
8
0
62
2
10
-16.721771
20
-173.253571
30
0.0
40
1.000000
50
224.999725
51
301.399109
0
LINE
8
0
62
2
10
-21.428871
20
-175.960663
30
0.0
11
-21.428871
21
-164.985779
31
0.0
0
LINE
8
0
62
2
10
5.571121
20
-173.960663
30
0.0
11
-15.679794
21
-173.960663
31
0.0
0
LINE
8
0
62
1
10
25.571121
20
-177.960663
30
0.0
11
50.571121
21
-177.960663
31
0.0
0
LINE
8
0
62
1
10
23.571121
20
-175.960663
30
0.0
11
23.571121
21
-175.960663
31
0.0
0
ARC
8
0
62
1
10
25.571121
20
-175.960663
30
0.0
40
2.000000
50
90.000000
51
180.000000
0
ARC
8
0
62
1
10
25.571121
20
-175.960663
30
0.0
40
2.000000
50
180.000000
51
270.000000
0
ARC
8
0
62
1
10
46.822029
20
-174.960663
30
0.0
40
1.000000
50
58.600906
51
90.000000
0
ARC
8
0
62
1
10
47.864014
20
-173.253571
30
0.0
40
1.000000
50
315.000275
51
31.399673
0
ARC
8
0
62
1
10
47.864014
20
-173.253571
30
0.0
40
1.000000
50
238.600876
51
315.000275
0
ARC
8
0
62
1
10
49.571121
20
-172.211548
30
0.0
40
1.000000
50
180.000000
51
180.000015
0
ARC
8
0
62
1
10
49.571121
20
-172.211548
30
0.0
40
1.000000
50
180.000015
51
211.399658
0
ARC
8
0
62
1
10
-13.428879
20
-159.460663
30
0.0
40
2.000000
50
179.999985
51
270.000000
0
ARC
8
0
62
1
10
46.822006
20
-160.460663
30
0.0
40
1.000000
50
270.000000
51
301.399719
0
ARC
8
0
62
1
10
49.571121
20
-163.209793
30
0.0
40
1.000000
50
148.600372
51
179.999985
0
ARC
8
0
62
1
10
47.864014
20
-162.167786
30
0.0
40
1.000000
50
328.600281
51
44.999977
0
ARC
8
0
62
1
10
47.864014
20
-162.167786
30
0.0
40
1.000000
50
44.999977
51
121.399666
0
ARC
8
0
62
1
10
-13.428879
20
-159.460663
30
0.0
40
2.000000
50
90.000000
51
180.000015
0
ARC
8
0
62
1
10
50.571121
20
-175.960663
30
0.0
40
2.000000
50
270.000000
51
0.000000
0
ARC
8
0
62
2
10
-19.428871
20
-175.960663
30
0.0
40
2.000000
50
179.999985
51
270.000000
0
ARC
8
0
62
2
10
55.571114
20
-162.708008
30
0.0
40
3.000000
50
179.999985
51
180.000000
0
LINE
8
0
62
1
10
48.571121
20
-163.209793
30
0.0
11
48.571121
21
-172.211548
31
0.0
0
LINE
8
0
62
2
10
-9.903763
20
-153.460663
30
0.0
11
45.045998
21
-153.460663
31
0.0
0
LINE
8
0
62
1
10
25.571121
20
-173.960663
30
0.0
11
46.822029
21
-173.960663
31
0.0
0
ARC
8
0
62
2
10
45.574619
20
-153.460663
30
0.0
40
4.000000
50
270.000000
51
301.399780
0
ARC
8
0
62
2
10
56.571114
20
-164.457123
30
0.0
40
4.000000
50
148.600403
51
180.000061
0
ARC
8
0
62
2
10
49.742680
20
-160.289093
30
0.0
40
4.000000
50
328.600403
51
45.000099
0
ARC
8
0
62
2
10
49.742680
20
-160.289093
30
0.0
40
4.000000
50
45.000099
51
121.399803
0
ARC
8
0
62
2
10
49.742680
20
-160.289093
30
0.0
40
8.000000
50
45.000099
51
118.012756
0
ARC
8
0
62
2
10
58.571121
20
-164.985748
30
0.0
40
2.000000
50
151.987427
51
179.999985
0
ARC
8
0
62
2
10
45.045998
20
-151.460663
30
0.0
40
2.000000
50
270.000000
51
298.012726
0
ARC
8
0
62
2
10
58.571121
20
-164.985748
30
0.0
40
2.000000
50
151.987427
51
179.999985
0
ARC
8
0
62
2
10
49.742680
20
-160.289093
30
0.0
40
8.000000
50
331.987366
51
45.000099
0
LINE
8
0
62
1
10
45.574619
20
-157.460663
30
0.0
11
50.571110
21
-157.460663
31
0.0
0
ARC
8
0
62
1
10
50.571110
20
-159.460663
30
0.0
40
2.000000
50
0.000000
51
90.000000
0
LINE
8
0
62
1
10
52.571110
20
-159.460663
30
0.0
11
52.571114
21
-164.457123
31
0.0
0
ARC
8
0
62
2
10
-21.428871
20
-164.457138
30
0.0
40
4.000000
50
359.999939
51
31.399666
0
ARC
8
0
62
2
10
-10.432404
20
-153.460663
30
0.0
40
4.000000
50
238.600296
51
270.000000
0
ARC
8
0
62
2
10
-14.600441
20
-160.289093
30
0.0
40
4.000000
50
58.600330
51
135.000000
0
ARC
8
0
62
2
10
-14.600441
20
-160.289093
30
0.0
40
4.000000
50
135.000000
51
211.399673
0
ARC
8
0
62
2
10
-14.600441
20
-160.289093
30
0.0
40
8.000000
50
135.000000
51
208.012772
0
ARC
8
0
62
2
10
-9.903763
20
-151.460663
30
0.0
40
2.000000
50
241.987183
51
270.000000
0
ARC
8
0
62
2
10
-23.428871
20
-164.985779
30
0.0
40
2.000000
50
0.000000
51
28.012720
0
ARC
8
0
62
2
10
-14.600441
20
-160.289093
30
0.0
40
8.000000
50
61.987228
51
135.000000
0
LINE
8
0
62
2
10
-10.432404
20
-157.460663
30
0.0
11
45.574619
21
-157.460663
31
0.0
0
LINE
8
0
62
1
10
-13.428879
20
-157.460663
30
0.0
11
-12.181511
21
-157.460663
31
0.0
0
LINE
8
0
62
1
10
-10.432404
20
-157.460663
30
0.0
11
-12.181511
21
-157.460663
31
0.0
0
LINE
8
0
62
2
10
52.571114
20
-164.457123
30
0.0
11
52.571121
21
-175.960663
31
0.0
0
LINE
8
0
62
2
10
56.571121
20
-164.985748
30
0.0
11
56.571121
21
-175.960663
31
0.0
0
ARC
8
0
62
2
10
54.571121
20
-175.960663
30
0.0
40
2.000000
50
179.999985
51
0.000000
0
LINE
8
0
62
0
10
-17.428864
20
-173.960663
30
0.0
11
48.571136
21
-173.960663
31
0.0
0
LINE
8
0
62
0
10
48.571136
20
-161.460663
30
0.0
11
48.571136
21
-173.960663
31
0.0
0
LINE
8
0
62
2
10
-17.428879
20
-172.211548
30
0.0
11
-17.428871
21
-164.457138
31
0.0
0
LINE
8
0
62
1
10
46.822006
20
-161.460663
30
0.0
11
-13.428879
21
-161.460663
31
0.0
0
ARC
8
0
62
1
10
34.128242
20
4.376926
30
0.0
40
1.000000
50
148.600372
51
179.999969
0
ARC
8
0
62
1
10
34.128242
20
4.376926
30
0.0
40
1.000000
50
179.999969
51
179.999985
0
LINE
8
0
62
0
10
33.128242
20
-15.623074
30
0.0
11
33.128242
21
-24.624840
31
0.0
0
LINE
8
0
62
0
10
37.128242
20
-8.373955
30
0.0
11
36.980427
21
8.143947
31
0.0
0
ARC
8
0
62
0
10
34.980507
20
8.126050
30
0.0
40
2.000000
50
0.512708
51
90.000000
0
LINE
8
0
62
0
10
0.086464
20
10.126049
30
0.0
11
34.980507
21
10.126049
31
0.0
0
LINE
8
0
62
1
10
-29.955315
20
-10.373955
30
0.0
11
-34.955315
21
-10.373955
31
0.0
0
ARC
8
0
62
1
10
-29.955315
20
-8.373955
30
0.0
40
2.000000
50
0.000000
51
90.000000
0
ARC
8
0
62
1
10
-29.955315
20
-8.373955
30
0.0
40
2.000000
50
270.000000
51
0.000000
0
ARC
8
0
62
1
10
-31.206223
20
-7.373955
30
0.0
40
1.000000
50
90.000000
51
121.399094
0
ARC
8
0
62
1
10
-32.248207
20
-5.666847
30
0.0
40
1.000000
50
148.600327
51
224.999725
0
ARC
8
0
62
1
10
-32.248207
20
-5.666847
30
0.0
40
1.000000
50
224.999725
51
301.399109
0
ARC
8
0
62
1
10
-33.955315
20
-4.624840
30
0.0
40
1.000000
50
360.000000
51
0.000000
0
ARC
8
0
62
1
10
-33.955315
20
-4.624840
30
0.0
40
1.000000
50
328.600342
51
360.000000
0
ARC
8
0
62
1
10
-31.206200
20
7.126045
30
0.0
40
1.000000
50
238.600281
51
270.000000
0
ARC
8
0
62
1
10
-32.248207
20
5.418938
30
0.0
40
1.000000
50
135.000031
51
211.399719
0
ARC
8
0
62
1
10
-32.248207
20
5.418938
30
0.0
40
1.000000
50
58.600334
51
135.000031
0
ARC
8
0
62
1
10
-34.955315
20
-8.373955
30
0.0
40
2.000000
50
180.000000
51
270.000000
0
LINE
8
0
62
1
10
-29.955315
20
-6.373955
30
0.0
11
-31.206223
21
-6.373955
31
0.0
0
ARC
8
0
62
1
10
-33.955315
20
4.376926
30
0.0
40
1.000000
50
0.000031
51
31.399628
0
ARC
8
0
62
1
10
-33.955315
20
4.376926
30
0.0
40
1.000000
50
0.000015
51
0.000031
0
LINE
8
0
62
0
10
-36.955315
20
-8.373955
30
0.0
11
-36.807499
21
8.143947
31
0.0
0
ARC
8
0
62
0
10
-34.807579
20
8.126050
30
0.0
40
2.000000
50
90.000000
51
179.487289
0
LINE
8
0
62
0
10
0.086464
20
10.126049
30
0.0
11
-34.807579
21
10.126049
31
0.0
0
LINE
8
0
62
0
10
-32.955315
20
-4.624840
30
0.0
11
-32.955315
21
4.376927
31
0.0
0
ARC
8
0
62
1
10
31.379128
20
7.126045
30
0.0
40
1.000000
50
270.000000
51
270.000000
0
ARC
8
0
62
1
10
31.379128
20
7.126045
30
0.0
40
1.000000
50
270.000000
51
301.399719
0
LINE
8
0
62
0
10
-31.206200
20
6.126045
30
0.0
11
31.379128
21
6.126045
31
0.0
0
LINE
8
0
62
0
10
33.128242
20
4.376927
30
0.0
11
33.128242
21
-4.624840
31
0.0
0
LINE
8
0
62
0
10
-31.206200
20
6.126045
30
0.0
11
34.980507
21
10.126050
31
0.0
0
ENDSEC
0
EOF
