999
File generated by Conversation
0
SECTION
2
HEADER
0
SECTION
2
HEADER
9
$ACADVER
1
AC1021
9
$INSBASE
10
0.0
20
0.0
30
0.0
9
$INSUNITS
70
4
9
$EXTMIN
10
0.0
20
0.0
30
0.0
9
$EXTMAX
10
1000.0
20
1000.0
30
0.0
0
ENDSEC
0
SECTION
2
TABLES
0
TABLE
2
LTYPE
70
1
0
LTYPE
2
CONTINUOUS
70
64
3
Solid line
72
65
73
0
40
0.0
0
ENDTAB
0
TABLE
2
LAYER
70
1
0
LAYER
2
0
70
64
62
7
6
CONTINUOUS
0
ENDTAB
0
TABLE
2
STYLE
70
1
0
STYLE
2
STANDARD
70
0
40
0.0
41
1.0
50
0.0
71
0
42
0.2
3
txt
4

0
ENDTAB
0
ENDSEC
0
SECTION
2
ENTITIES
0
LINE
8
0
62
3
10
-10.000000
20
0.000000
30
0.0
11
-29.501776
21
0.000000
31
0.0
0
LINE
8
0
62
3
10
-41.000000
20
-2.000000
30
0.0
11
-41.000000
21
18.500000
31
0.0
0
LINE
8
0
62
3
10
-33.000000
20
3.498235
30
0.0
11
-33.000000
21
12.500000
31
0.0
0
LINE
8
0
62
4
10
39.000000
20
-4.000000
30
0.0
11
10.000000
21
-4.000000
31
0.0
0
LINE
8
0
62
3
10
-10.000000
20
-4.000000
30
0.0
11
-39.000000
21
-4.000000
31
0.0
0
ARC
8
0
62
3
10
-10.000000
20
-2.000000
30
0.0
40
2.000000
50
0.000000
51
90.000000
0
ARC
8
0
62
3
10
-10.000000
20
-2.000000
30
0.0
40
2.000000
50
270.000000
51
0.000000
0
LINE
8
0
62
4
10
33.000000
20
3.498235
30
0.0
11
33.000000
21
9.001764
31
0.0
0
LINE
8
0
62
4
10
29.501766
20
0.000000
30
0.0
11
10.000000
21
0.000000
31
0.0
0
ARC
8
0
62
4
10
10.000000
20
-2.000000
30
0.0
40
2.000000
50
90.000000
51
179.999985
0
ARC
8
0
62
4
10
10.000000
20
-2.000000
30
0.0
40
2.000000
50
179.999985
51
270.000000
0
ARC
8
0
62
4
10
39.000000
20
-2.000000
30
0.0
40
2.000000
50
270.000000
51
0.000000
0
ARC
8
0
62
3
10
-39.000000
20
-2.000000
30
0.0
40
2.000000
50
179.999985
51
270.000000
0
ARC
8
0
62
3
10
-39.000000
20
18.500000
30
0.0
40
2.000000
50
90.000000
51
179.999985
0
LINE
8
0
62
4
10
29.501764
20
12.500000
30
0.0
11
-27.000000
21
12.500000
31
0.0
0
LINE
8
0
62
3
10
38.999969
20
20.500000
30
0.0
11
-39.000000
21
20.500000
31
0.0
0
LINE
8
0
62
4
10
41.000000
20
-2.000000
30
0.0
11
41.000000
21
14.500000
31
0.0
0
ARC
8
0
62
3
10
38.999969
20
18.500000
30
0.0
40
2.000000
50
0.000000
51
90.000000
0
ARC
8
0
62
4
10
-27.000000
20
14.500000
30
0.0
40
2.000000
50
179.999939
51
270.000000
0
LINE
8
0
62
3
10
-33.000000
20
14.500000
30
0.0
11
-33.000000
21
12.500000
31
0.0
0
LINE
8
0
62
3
10
-31.000000
20
16.500000
30
0.0
11
-27.000000
21
16.500000
31
0.0
0
ARC
8
0
62
3
10
-31.000000
20
14.500000
30
0.0
40
2.000000
50
90.000000
51
179.999939
0
ARC
8
0
62
4
10
39.000000
20
14.500003
30
0.0
40
2.000000
50
359.999939
51
90.000000
0
ARC
8
0
62
4
10
-27.000000
20
14.500004
30
0.0
40
2.000000
50
90.000000
51
180.000061
0
ARC
8
0
62
3
10
38.999969
20
18.500000
30
0.0
40
2.000000
50
270.000000
51
270.000000
0
ARC
8
0
62
3
10
38.999969
20
18.500000
30
0.0
40
2.000000
50
270.000000
51
0.000109
0
LINE
8
0
62
4
10
-27.000000
20
16.500004
30
0.0
11
38.999969
21
16.500000
31
0.0
0
ARC
8
0
62
6
10
0.000000
20
0.000000
30
0.0
40
1.700000
50
90.000000
51
270.000000
0
ARC
8
0
62
6
10
0.000000
20
0.000000
30
0.0
40
1.700000
50
270.000000
51
90.000000
0
LINE
8
0
62
7
10
3.117692
20
0.000000
30
0.0
11
1.558846
21
2.700000
31
0.0
0
LINE
8
0
62
7
10
1.558846
20
2.700000
30
0.0
11
-1.558846
21
2.700000
31
0.0
0
LINE
8
0
62
7
10
-1.558846
20
2.700000
30
0.0
11
-3.117692
21
-0.000000
31
0.0
0
LINE
8
0
62
7
10
-3.117692
20
-0.000000
30
0.0
11
-1.558846
21
-2.700000
31
0.0
0
LINE
8
0
62
7
10
-1.558846
20
-2.700000
30
0.0
11
1.558846
21
-2.700000
31
0.0
0
LINE
8
0
62
7
10
1.558846
20
-2.700000
30
0.0
11
3.117692
21
0.000001
31
0.0
0
ARC
8
0
62
5
10
-5.000000
20
0.000000
30
0.0
40
1.700000
50
90.000000
51
270.000000
0
LINE
8
0
62
5
10
-5.000000
20
1.700000
30
0.0
11
5.000000
21
1.700000
31
0.0
0
ARC
8
0
62
5
10
-5.000000
20
0.000000
30
0.0
40
1.700000
50
270.000000
51
270.000000
0
ARC
8
0
62
5
10
5.000000
20
0.000000
30
0.0
40
1.700000
50
270.000000
51
90.000000
0
LINE
8
0
62
5
10
-5.000000
20
-1.700000
30
0.0
11
5.000000
21
-1.700000
31
0.0
0
LINE
8
0
62
3
10
-27.000000
20
16.500000
30
0.0
11
38.999969
21
16.499996
31
0.0
0
ARC
8
0
62
3
10
-35.000000
20
3.498235
30
0.0
40
2.000000
50
328.600311
51
0.000000
0
ARC
8
0
62
3
10
-29.501776
20
-2.000000
30
0.0
40
2.000000
50
90.000000
51
121.399582
0
ARC
8
0
62
3
10
-31.585787
20
1.414214
30
0.0
40
2.000000
50
148.600281
51
224.999939
0
ARC
8
0
62
3
10
-31.585787
20
1.414214
30
0.0
40
2.000000
50
224.999939
51
301.399597
0
ARC
8
0
62
4
10
29.501766
20
-2.000000
30
0.0
40
2.000000
50
58.600273
51
90.000000
0
ARC
8
0
62
4
10
35.000000
20
3.498235
30
0.0
40
2.000000
50
179.999985
51
211.399704
0
ARC
8
0
62
4
10
31.585787
20
1.414214
30
0.0
40
2.000000
50
238.600311
51
315.000000
0
ARC
8
0
62
4
10
31.585787
20
1.414214
30
0.0
40
2.000000
50
315.000000
51
31.399717
0
ARC
8
0
62
4
10
35.000000
20
9.001764
30
0.0
40
2.000000
50
148.600281
51
179.999985
0
ARC
8
0
62
4
10
29.501764
20
14.500000
30
0.0
40
2.000000
50
270.000000
51
301.399719
0
ARC
8
0
62
4
10
31.585787
20
11.085787
30
0.0
40
2.000000
50
328.600281
51
45.000000
0
ARC
8
0
62
4
10
31.585787
20
11.085787
30
0.0
40
2.000000
50
45.000000
51
121.399719
0
ENDSEC
0
EOF
