999
File generated by Conversation
0
SECTION
2
HEADER
0
SECTION
2
HEADER
9
$ACADVER
1
AC1021
9
$INSBASE
10
0.0
20
0.0
30
0.0
9
$INSUNITS
70
4
9
$EXTMIN
10
0.0
20
0.0
30
0.0
9
$EXTMAX
10
1000.0
20
1000.0
30
0.0
0
ENDSEC
0
SECTION
2
TABLES
0
TABLE
2
LTYPE
70
1
0
LTYPE
2
CONTINUOUS
70
64
3
Solid line
72
65
73
0
40
0.0
0
ENDTAB
0
TABLE
2
LAYER
70
1
0
LAYER
2
0
70
64
62
7
6
CONTINUOUS
0
ENDTAB
0
TABLE
2
STYLE
70
1
0
STYLE
2
STANDARD
70
0
40
0.0
41
1.0
50
0.0
71
0
42
0.2
3
txt
4

0
ENDTAB
0
ENDSEC
0
SECTION
2
ENTITIES
0
LINE
8
0
62
0
10
-33.000000
20
1.749116
30
0.0
11
-33.000000
21
14.750888
31
0.0
0
LINE
8
0
62
0
10
-10.000000
20
-4.000000
30
0.0
11
-30.289223
21
-4.000000
31
0.0
0
LINE
8
0
62
0
10
-8.000000
20
-2.000000
30
0.0
11
-8.000000
21
-2.000000
31
0.0
0
LINE
8
0
62
0
10
-10.000000
20
0.000000
30
0.0
11
-31.250906
21
0.000000
31
0.0
0
ARC
8
0
62
0
10
-10.000000
20
-2.000000
30
0.0
40
2.000000
50
0.000000
51
90.000000
0
ARC
8
0
62
0
10
-10.000000
20
-2.000000
30
0.0
40
2.000000
50
270.000000
51
0.000000
0
ARC
8
0
62
0
10
34.000000
20
10.750882
30
0.0
40
1.000000
50
148.600281
51
179.999985
0
ARC
8
0
62
0
10
32.292892
20
11.792893
30
0.0
40
1.000000
50
328.600281
51
44.999474
0
ARC
8
0
62
0
10
32.292892
20
11.792893
30
0.0
40
1.000000
50
44.999474
51
121.398659
0
ARC
8
0
62
0
10
-31.250906
20
-1.000000
30
0.0
40
1.000000
50
90.000000
51
121.399094
0
ARC
8
0
62
0
10
-34.000000
20
1.749116
30
0.0
40
1.000000
50
328.600342
51
0.000000
0
ARC
8
0
62
0
10
-32.292892
20
0.707107
30
0.0
40
1.000000
50
148.600327
51
224.999725
0
ARC
8
0
62
0
10
-32.292892
20
0.707107
30
0.0
40
1.000000
50
224.999725
51
301.399109
0
LINE
8
0
62
0
10
-37.000000
20
2.710780
30
0.0
11
-37.000000
21
13.789225
31
0.0
0
ARC
8
0
62
0
10
-32.292892
20
0.707107
30
0.0
40
5.000000
50
224.999725
51
286.632904
0
ARC
8
0
62
0
10
-32.292892
20
0.707107
30
0.0
40
5.000000
50
163.367065
51
224.999725
0
ARC
8
0
62
0
10
-30.289223
20
-6.000000
30
0.0
40
2.000000
50
90.000000
51
106.632896
0
ARC
8
0
62
0
10
-39.000000
20
2.710780
30
0.0
40
2.000000
50
343.367065
51
0.000000
0
ARC
8
0
62
0
10
39.000000
20
2.710781
30
0.0
40
2.000000
50
179.999985
51
196.632935
0
ARC
8
0
62
0
10
32.292892
20
11.792893
30
0.0
40
9.000000
50
44.999474
51
103.251633
0
LINE
8
0
62
0
10
38.720413
20
9.872745
30
0.0
11
38.720413
21
9.872745
31
0.0
0
ARC
8
0
62
0
10
32.292892
20
11.792893
30
0.0
40
5.000000
50
44.999474
51
106.633286
0
LINE
8
0
62
0
10
33.000000
20
-19.382030
30
0.0
11
33.000000
21
-31.882032
31
0.0
0
LINE
8
0
62
0
10
33.000000
20
-19.382030
30
0.0
11
-33.000000
21
-19.382030
31
0.0
0
LINE
8
0
62
0
10
10.000000
20
-4.000000
30
0.0
11
30.289223
21
-4.000000
31
0.0
0
LINE
8
0
62
0
10
8.000000
20
-2.000000
30
0.0
11
8.000000
21
-2.000000
31
0.0
0
LINE
8
0
62
0
10
10.000000
20
0.000000
30
0.0
11
31.250906
21
0.000000
31
0.0
0
ARC
8
0
62
0
10
10.000000
20
-2.000000
30
0.0
40
2.000000
50
90.000000
51
180.000000
0
ARC
8
0
62
0
10
10.000000
20
-2.000000
30
0.0
40
2.000000
50
180.000000
51
270.000000
0
ARC
8
0
62
0
10
31.250906
20
-1.000000
30
0.0
40
1.000000
50
58.600906
51
90.000000
0
ARC
8
0
62
0
10
32.292892
20
0.707107
30
0.0
40
1.000000
50
315.000275
51
31.399673
0
ARC
8
0
62
0
10
32.292892
20
0.707107
30
0.0
40
1.000000
50
238.600876
51
315.000275
0
ARC
8
0
62
0
10
32.292892
20
0.707107
30
0.0
40
5.000000
50
253.367096
51
315.000275
0
ARC
8
0
62
0
10
32.292892
20
0.707107
30
0.0
40
5.000000
50
315.000275
51
16.632935
0
ARC
8
0
62
0
10
30.289223
20
-6.000000
30
0.0
40
2.000000
50
73.367104
51
90.000000
0
ARC
8
0
62
0
10
39.000000
20
2.710780
30
0.0
40
2.000000
50
180.000000
51
196.632919
0
ARC
8
0
62
0
10
34.000000
20
1.749116
30
0.0
40
1.000000
50
180.000000
51
180.000015
0
ARC
8
0
62
0
10
34.000000
20
1.749116
30
0.0
40
1.000000
50
180.000015
51
211.399658
0
LINE
8
0
62
0
10
33.000000
20
10.750882
30
0.0
11
33.000000
21
1.749116
31
0.0
0
ARC
8
0
62
0
10
39.000000
20
9.789221
30
0.0
40
2.000000
50
163.367065
51
179.999969
0
ARC
8
0
62
0
10
39.000000
20
9.789221
30
0.0
40
2.000000
50
179.999969
51
179.999985
0
LINE
8
0
62
0
10
37.000000
20
9.789220
30
0.0
11
37.000000
21
2.710781
31
0.0
0
LINE
8
0
62
0
10
-33.000000
20
-31.882032
30
0.0
11
33.000000
21
-31.882032
31
0.0
0
LINE
8
0
62
0
10
31.250925
20
12.500000
30
0.0
11
-29.000000
21
12.500006
31
0.0
0
ARC
8
0
62
0
10
-29.000000
20
14.500005
30
0.0
40
2.000000
50
179.999985
51
270.000000
0
ARC
8
0
62
0
10
29.771381
20
22.500000
30
0.0
40
2.000000
50
270.000000
51
270.000000
0
ARC
8
0
62
0
10
29.771381
20
22.500000
30
0.0
40
2.000000
50
270.000000
51
283.251648
0
LINE
8
0
62
0
10
-30.289204
20
20.500000
30
0.0
11
29.771381
21
20.500000
31
0.0
0
LINE
8
0
62
0
10
-33.000000
20
-31.882032
30
0.0
11
-33.000000
21
-19.382030
31
0.0
0
ARC
8
0
62
1
10
-28.732372
20
98.590294
30
0.0
40
5.000000
50
44.999474
51
106.633286
0
ARC
8
0
62
1
10
-28.732372
20
98.590294
30
0.0
40
5.000000
50
343.367065
51
359.968628
0
ARC
8
0
62
1
10
-28.732372
20
98.590294
30
0.0
40
5.000000
50
359.968628
51
44.999474
0
LINE
8
0
62
1
10
-51.025269
20
82.797401
30
0.0
11
-30.736044
21
82.797401
31
0.0
0
LINE
8
0
62
1
10
-53.025269
20
84.797401
30
0.0
11
-53.025269
21
84.797401
31
0.0
0
LINE
8
0
62
1
10
-51.025269
20
86.797401
30
0.0
11
-29.774361
21
86.797401
31
0.0
0
ARC
8
0
62
1
10
-51.025269
20
84.797401
30
0.0
40
2.000000
50
90.000000
51
180.000000
0
ARC
8
0
62
1
10
-51.025269
20
84.797401
30
0.0
40
2.000000
50
180.000000
51
270.000000
0
ARC
8
0
62
1
10
-29.774361
20
85.797401
30
0.0
40
1.000000
50
58.600906
51
90.000000
0
ARC
8
0
62
1
10
-28.732372
20
87.504509
30
0.0
40
1.000000
50
315.000275
51
31.399673
0
ARC
8
0
62
1
10
-28.732372
20
87.504509
30
0.0
40
1.000000
50
238.600876
51
315.000275
0
ARC
8
0
62
1
10
-28.732372
20
87.504509
30
0.0
40
5.000000
50
253.367096
51
315.000275
0
ARC
8
0
62
1
10
-28.732372
20
87.504509
30
0.0
40
5.000000
50
315.000275
51
16.632935
0
ARC
8
0
62
1
10
-30.736044
20
80.797401
30
0.0
40
2.000000
50
73.367104
51
90.000000
0
ARC
8
0
62
1
10
-22.025265
20
89.508179
30
0.0
40
2.000000
50
180.000000
51
196.632919
0
ARC
8
0
62
1
10
-27.025265
20
88.546516
30
0.0
40
1.000000
50
180.000000
51
180.000015
0
ARC
8
0
62
1
10
-27.025265
20
88.546516
30
0.0
40
1.000000
50
180.000015
51
211.399658
0
LINE
8
0
62
1
10
-28.025265
20
97.548279
30
0.0
11
-28.025265
21
88.546516
31
0.0
0
ARC
8
0
62
1
10
-22.025265
20
96.586624
30
0.0
40
2.000000
50
179.999969
51
179.999985
0
LINE
8
0
62
1
10
-24.025265
20
96.586624
30
0.0
11
-24.025265
21
89.508179
31
0.0
0
LINE
8
0
62
1
10
-29.774382
20
99.297401
30
0.0
11
-90.025269
21
99.297409
31
0.0
0
ARC
8
0
62
1
10
-90.025269
20
101.297409
30
0.0
40
2.000000
50
179.999985
51
270.000000
0
ARC
8
0
62
1
10
-90.025269
20
101.297409
30
0.0
40
2.000000
50
90.000000
51
180.000015
0
ARC
8
0
62
1
10
-30.736094
20
105.297401
30
0.0
40
2.000000
50
270.000000
51
286.633301
0
LINE
8
0
62
1
10
-90.025269
20
103.297409
30
0.0
11
-30.736094
21
103.297401
31
0.0
0
LINE
8
0
62
2
10
-86.077545
20
115.114838
30
0.0
11
-86.077545
21
128.116608
31
0.0
0
LINE
8
0
62
2
10
-63.077541
20
109.365723
30
0.0
11
-83.366760
21
109.365723
31
0.0
0
LINE
8
0
62
2
10
-61.077541
20
111.365723
30
0.0
11
-61.077541
21
111.365723
31
0.0
0
LINE
8
0
62
2
10
-63.077541
20
113.365723
30
0.0
11
-84.328445
21
113.365723
31
0.0
0
ARC
8
0
62
2
10
-63.077541
20
111.365723
30
0.0
40
2.000000
50
0.000000
51
90.000000
0
ARC
8
0
62
2
10
-63.077541
20
111.365723
30
0.0
40
2.000000
50
270.000000
51
0.000000
0
ARC
8
0
62
2
10
-84.328445
20
112.365723
30
0.0
40
1.000000
50
90.000000
51
121.399094
0
ARC
8
0
62
2
10
-87.077545
20
115.114838
30
0.0
40
1.000000
50
328.600342
51
0.000000
0
ARC
8
0
62
2
10
-85.370438
20
114.072830
30
0.0
40
1.000000
50
148.600327
51
224.999725
0
ARC
8
0
62
2
10
-85.370438
20
114.072830
30
0.0
40
1.000000
50
224.999725
51
301.399109
0
LINE
8
0
62
2
10
-90.077545
20
116.076508
30
0.0
11
-90.077545
21
127.154953
31
0.0
0
ARC
8
0
62
2
10
-85.370438
20
114.072830
30
0.0
40
5.000000
50
224.999725
51
286.632904
0
ARC
8
0
62
2
10
-85.370438
20
114.072830
30
0.0
40
5.000000
50
163.367065
51
224.999725
0
ARC
8
0
62
2
10
-83.366760
20
107.365723
30
0.0
40
2.000000
50
90.000000
51
106.632896
0
ARC
8
0
62
2
10
-92.077545
20
116.076508
30
0.0
40
2.000000
50
343.367065
51
0.000000
0
ARC
8
0
62
2
10
-20.784649
20
125.158615
30
0.0
40
9.000000
50
44.999474
51
103.251633
0
ARC
8
0
62
2
10
-20.784649
20
125.158615
30
0.0
40
9.000000
50
359.968628
51
44.999474
0
LINE
8
0
62
2
10
-14.357128
20
123.238464
30
0.0
11
-14.357128
21
123.238464
31
0.0
0
ARC
8
0
62
2
10
-13.784649
20
125.154785
30
0.0
40
2.000000
50
253.367050
51
359.968628
0
ARC
8
0
62
2
10
-20.784649
20
125.158615
30
0.0
40
5.000000
50
44.999474
51
106.633286
0
ARC
8
0
62
2
10
-13.784649
20
125.154785
30
0.0
40
2.000000
50
179.968628
51
253.367050
0
ARC
8
0
62
2
10
-20.784649
20
125.158615
30
0.0
40
5.000000
50
359.968628
51
44.999474
0
LINE
8
0
62
2
10
-84.077545
20
129.865723
30
0.0
11
-82.077545
21
129.865723
31
0.0
0
ARC
8
0
62
2
10
-22.788368
20
131.865723
30
0.0
40
2.000000
50
270.000000
51
286.633301
0
LINE
8
0
62
2
10
-84.328423
20
129.865723
30
0.0
11
-22.788368
21
129.865723
31
0.0
0
ARC
8
0
62
2
10
-23.306160
20
135.865723
30
0.0
40
2.000000
50
270.000000
51
270.000000
0
ARC
8
0
62
2
10
-23.306160
20
135.865723
30
0.0
40
2.000000
50
270.000000
51
283.251648
0
LINE
8
0
62
2
10
-83.366760
20
133.865723
30
0.0
11
-23.306160
21
133.865723
31
0.0
0
ARC
8
0
62
1
10
-22.025265
20
96.586624
30
0.0
40
2.000000
50
163.367035
51
179.999985
0
ARC
8
0
62
1
10
-29.774382
20
100.297401
30
0.0
40
1.000000
50
270.000000
51
301.399719
0
ARC
8
0
62
1
10
-27.025265
20
97.548279
30
0.0
40
1.000000
50
148.600372
51
179.999985
0
ARC
8
0
62
1
10
-28.732372
20
98.590294
30
0.0
40
1.000000
50
328.600281
51
44.999977
0
ARC
8
0
62
1
10
-28.732372
20
98.590294
30
0.0
40
1.000000
50
44.999977
51
121.399666
0
ARC
8
0
62
0
10
-34.000000
20
14.750888
30
0.0
40
1.000000
50
0.000000
51
31.399666
0
ARC
8
0
62
0
10
-31.250881
20
17.500004
30
0.0
40
1.000000
50
238.600296
51
270.000000
0
ARC
8
0
62
0
10
-32.292892
20
15.792897
30
0.0
40
1.000000
50
58.600266
51
134.999969
0
ARC
8
0
62
0
10
-32.292892
20
15.792897
30
0.0
40
1.000000
50
134.999969
51
211.399673
0
ARC
8
0
62
0
10
-32.292892
20
15.792897
30
0.0
40
5.000000
50
73.366936
51
134.999969
0
ARC
8
0
62
0
10
-32.292892
20
15.792897
30
0.0
40
5.000000
50
134.999969
51
196.632935
0
ARC
8
0
62
0
10
-39.000000
20
13.789225
30
0.0
40
2.000000
50
0.000000
51
16.632927
0
ARC
8
0
62
0
10
-30.289204
20
22.500000
30
0.0
40
2.000000
50
253.366928
51
270.000000
0
LINE
8
0
62
0
10
-29.000000
20
16.500004
30
0.0
11
-31.250881
21
16.500004
31
0.0
0
ARC
8
0
62
0
10
-29.000000
20
14.500005
30
0.0
40
2.000000
50
90.000000
51
180.000015
0
ARC
8
0
62
0
10
30.289173
20
18.500000
30
0.0
40
2.000000
50
270.000000
51
270.000000
0
ARC
8
0
62
0
10
30.289173
20
18.500000
30
0.0
40
2.000000
50
270.000000
51
286.633301
0
LINE
8
0
62
0
10
-29.000000
20
16.500004
30
0.0
11
30.289173
21
16.500000
31
0.0
0
ARC
8
0
62
2
10
-87.077545
20
128.116608
30
0.0
40
1.000000
50
0.000000
51
31.399620
0
ARC
8
0
62
2
10
-84.328423
20
130.865723
30
0.0
40
1.000000
50
238.600296
51
270.000000
0
ARC
8
0
62
2
10
-85.370438
20
129.158615
30
0.0
40
1.000000
50
58.600330
51
134.999969
0
ARC
8
0
62
2
10
-85.370438
20
129.158615
30
0.0
40
1.000000
50
134.999969
51
211.399628
0
ARC
8
0
62
2
10
-85.370438
20
129.158615
30
0.0
40
5.000000
50
134.999969
51
196.632904
0
ARC
8
0
62
2
10
-85.370438
20
129.158615
30
0.0
40
5.000000
50
73.367065
51
134.999969
0
ARC
8
0
62
2
10
-83.366760
20
135.865723
30
0.0
40
2.000000
50
253.367065
51
270.000000
0
ARC
8
0
62
2
10
-92.077545
20
127.154953
30
0.0
40
2.000000
50
0.000000
51
16.632952
0
ARC
8
0
62
0
10
31.250925
20
13.500000
30
0.0
40
1.000000
50
270.000000
51
270.000000
0
ARC
8
0
62
0
10
31.250925
20
13.500000
30
0.0
40
1.000000
50
270.000000
51
301.398682
0
LINE
8
0
62
0
10
38.800694
20
12.056408
30
0.0
11
38.800694
21
12.056408
31
0.0
0
ARC
8
0
62
0
10
39.000000
20
9.789222
30
0.0
40
2.000000
50
163.367096
51
179.999985
0
ARC
8
0
62
0
10
39.292892
20
11.789062
30
0.0
40
2.000000
50
253.367050
51
359.968628
0
ARC
8
0
62
0
10
32.292892
20
11.792893
30
0.0
40
9.000000
50
359.983215
51
44.999474
0
ARC
8
0
62
0
10
39.292892
20
11.789062
30
0.0
40
2.000000
50
179.968628
51
253.367050
0
ARC
8
0
62
0
10
32.292892
20
11.792893
30
0.0
40
5.000000
50
359.968628
51
44.999474
0
ARC
8
0
62
0
10
32.292892
20
11.792893
30
0.0
40
5.000000
50
343.367065
51
44.999474
0
ARC
8
0
62
0
10
39.000000
20
9.789220
30
0.0
40
2.000000
50
163.367065
51
179.999985
0
LINE
8
0
62
2
10
-82.381714
20
68.003693
30
0.0
11
-86.637901
21
68.003693
31
0.0
0
LINE
8
0
62
2
10
-76.632599
20
91.003693
30
0.0
11
-76.632599
21
70.714462
31
0.0
0
LINE
8
0
62
2
10
-78.632599
20
93.003693
30
0.0
11
-78.632599
21
93.003693
31
0.0
0
LINE
8
0
62
2
10
-80.632599
20
91.003693
30
0.0
11
-80.632599
21
69.752777
31
0.0
0
ARC
8
0
62
2
10
-78.632599
20
91.003693
30
0.0
40
2.000000
50
90.000000
51
180.000000
0
ARC
8
0
62
2
10
-78.632599
20
91.003693
30
0.0
40
2.000000
50
0.000000
51
90.000000
0
ARC
8
0
62
2
10
-79.632599
20
69.752777
30
0.0
40
1.000000
50
180.000000
51
211.399094
0
ARC
8
0
62
2
10
-82.381714
20
67.003693
30
0.0
40
1.000000
50
58.600342
51
90.000000
0
ARC
8
0
62
2
10
-81.339706
20
68.710800
30
0.0
40
1.000000
50
238.600327
51
314.999725
0
ARC
8
0
62
2
10
-81.339706
20
68.710800
30
0.0
40
1.000000
50
314.999725
51
31.399109
0
LINE
8
0
62
2
10
-83.343376
20
64.003700
30
0.0
11
-86.637901
21
64.003700
31
0.0
0
ARC
8
0
62
2
10
-81.339706
20
68.710800
30
0.0
40
5.000000
50
314.999725
51
16.632904
0
ARC
8
0
62
2
10
-81.339706
20
68.710800
30
0.0
40
5.000000
50
253.367065
51
314.999725
0
ARC
8
0
62
2
10
-74.632599
20
70.714462
30
0.0
40
2.000000
50
180.000000
51
196.632904
0
ARC
8
0
62
2
10
-83.343376
20
62.003700
30
0.0
40
2.000000
50
73.367065
51
90.000000
0
ARC
8
0
62
2
10
-92.425491
20
133.296585
30
0.0
40
9.000000
50
134.999481
51
193.251633
0
ARC
8
0
62
2
10
-92.425491
20
133.296585
30
0.0
40
9.000000
50
89.968628
51
134.999481
0
LINE
8
0
62
2
10
-90.505341
20
139.724106
30
0.0
11
-90.505341
21
139.724106
31
0.0
0
ARC
8
0
62
2
10
-92.421661
20
140.296585
30
0.0
40
2.000000
50
343.367065
51
89.968628
0
ARC
8
0
62
2
10
-92.425491
20
133.296585
30
0.0
40
5.000000
50
134.999481
51
196.633286
0
ARC
8
0
62
2
10
-92.421661
20
140.296585
30
0.0
40
2.000000
50
269.968628
51
343.367065
0
ARC
8
0
62
2
10
-92.425491
20
133.296585
30
0.0
40
5.000000
50
89.968628
51
134.999481
0
ARC
8
0
62
2
10
-99.132599
20
131.292862
30
0.0
40
2.000000
50
0.000000
51
16.633301
0
LINE
8
0
62
2
10
-97.132599
20
78.498398
30
0.0
11
-97.132599
21
131.292862
31
0.0
0
ARC
8
0
62
2
10
-103.132599
20
130.775070
30
0.0
40
2.000000
50
0.000000
51
0.000000
0
ARC
8
0
62
2
10
-103.132599
20
130.775070
30
0.0
40
2.000000
50
0.000000
51
13.251648
0
LINE
8
0
62
2
10
-101.132599
20
78.498398
30
0.0
11
-101.132599
21
130.775070
31
0.0
0
ARC
8
0
62
2
10
-86.637901
20
62.003700
30
0.0
40
6.000000
50
90.000000
51
121.399673
0
ARC
8
0
62
2
10
-103.132599
20
78.498398
30
0.0
40
6.000000
50
328.600250
51
0.000000
0
ARC
8
0
62
2
10
-92.889961
20
72.246338
30
0.0
40
6.000000
50
148.600296
51
224.999985
0
ARC
8
0
62
2
10
-92.889961
20
72.246338
30
0.0
40
6.000000
50
224.999985
51
301.399658
0
ARC
8
0
62
2
10
-92.889961
20
72.246338
30
0.0
40
10.000000
50
224.999985
51
301.399658
0
ARC
8
0
62
2
10
-92.889961
20
72.246338
30
0.0
40
10.000000
50
148.600296
51
224.999985
0
ARC
8
0
62
2
10
-86.637901
20
62.003700
30
0.0
40
2.000000
50
90.000000
51
121.399666
0
ARC
8
0
62
2
10
-103.132599
20
78.498398
30
0.0
40
2.000000
50
328.600372
51
0.000000
0
ENDSEC
0
EOF
