solid bug
 facet normal -1.5372166633605957 -6.51925802230835e-08 -0.3451906740665436
  outer loop
   vertex 23.306032180786133 20.014434814453125 4.810767650604248
   vertex 23.343629837036133 20.014434814453125 4.643336296081543
   vertex 23.335006713867188 10.833259582519531 4.68173885345459
  endloop
 endfacet
 facet normal 1.5372122526168823 6.903428584337234e-08 0.3451906740665436
  outer loop
   vertex 23.343629837036133 20.014434814453125 4.643336772918701
   vertex 23.306032180786133 20.014434814453125 4.810767650604248
   vertex 23.335006713867188 10.833259582519531 4.681739330291748
  endloop
 endfacet
 facet normal -1.1846359968185425 -0.0 -0.266020268201828
  outer loop
   vertex 23.306032180786133 20.014434814453125 4.810767650604248
   vertex 23.335006713867188 10.833259582519531 4.68173885345459
   vertex 23.306032180786133 10.833259582519531 4.810767650604248
  endloop
 endfacet
 facet normal 1.184631586074829 0.0 0.266020268201828
  outer loop
   vertex 23.335006713867188 10.833259582519531 4.681739330291748
   vertex 23.306032180786133 20.014434814453125 4.810767650604248
   vertex 23.306032180786133 10.833259582519531 4.810767650604248
  endloop
 endfacet
 facet normal 0.0 -1.3737007975578308e-08 0.0
  outer loop
   vertex 23.306032180786133 10.833259582519531 4.810767650604248
   vertex 23.335006713867188 10.833259582519531 4.68173885345459
   vertex 23.335006713867188 10.833259582519531 4.681739330291748
  endloop
 endfacet
 facet normal 0.0 5.471520125865936e-09 0.0
  outer loop
   vertex 23.3551082611084 20.014434814453125 4.577182769775391
   vertex 23.343629837036133 20.014434814453125 4.643336296081543
   vertex 23.343629837036133 20.014434814453125 4.643336772918701
  endloop
 endfacet
 facet normal 0.6073715090751648 -4.045432433485985e-08 0.105385422706604
  outer loop
   vertex 23.343629837036133 20.014434814453125 4.643336772918701
   vertex 23.346261978149414 10.833259582519531 4.6281633377075195
   vertex 23.3551082611084 20.014434814453125 4.577182769775391
  endloop
 endfacet
 facet normal -0.6073670983314514 -4.173489287495613e-08 -0.105385422706604
  outer loop
   vertex 23.343629837036133 20.014434814453125 4.643336296081543
   vertex 23.3551082611084 20.014434814453125 4.577182769775391
   vertex 23.352476119995117 10.833259582519531 4.592356204986572
  endloop
 endfacet
 facet normal -0.35258060693740845 0.0 -0.07917040586471558
  outer loop
   vertex 23.335006713867188 10.833259582519531 4.68173885345459
   vertex 23.343629837036133 20.014434814453125 4.643336296081543
   vertex 23.343629837036133 10.833259582519531 4.643336296081543
  endloop
 endfacet
 facet normal 0.35258060693740845 0.0 0.07917040586471558
  outer loop
   vertex 23.343629837036133 20.014434814453125 4.643336772918701
   vertex 23.335006713867188 10.833259582519531 4.681739330291748
   vertex 23.343629837036133 10.833259582519531 4.643336772918701
  endloop
 endfacet
 facet normal 0.0 -4.132743924856186e-09 0.0
  outer loop
   vertex 23.335006713867188 10.833259582519531 4.68173885345459
   vertex 23.343629837036133 10.833259582519531 4.643336296081543
   vertex 23.343629837036133 10.833259582519531 4.643336772918701
  endloop
 endfacet
 facet normal 0.0 -4.1118255467154086e-09 0.0
  outer loop
   vertex 23.335006713867188 10.833259582519531 4.68173885345459
   vertex 23.343629837036133 10.833259582519531 4.643336772918701
   vertex 23.335006713867188 10.833259582519531 4.681739330291748
  endloop
 endfacet
 facet normal -0.3287515640258789 3.748573362827301e-08 -0.05705312266945839
  outer loop
   vertex 23.343629837036133 20.014434814453125 4.643336296081543
   vertex 23.352476119995117 10.833259582519531 4.592356204986572
   vertex 23.346261978149414 10.833259582519531 4.6281633377075195
  endloop
 endfacet
 facet normal 0.3287515640258789 4.045432433485985e-08 0.05705312639474869
  outer loop
   vertex 23.352476119995117 10.833259582519531 4.592356204986572
   vertex 23.3551082611084 20.014434814453125 4.577182769775391
   vertex 23.346261978149414 10.833259582519531 4.6281633377075195
  endloop
 endfacet
 facet normal -0.13930559158325195 0.0 -0.024166148155927658
  outer loop
   vertex 23.343629837036133 10.833259582519531 4.643336296081543
   vertex 23.343629837036133 20.014434814453125 4.643336296081543
   vertex 23.346261978149414 10.833259582519531 4.6281633377075195
  endloop
 endfacet
 facet normal 0.13930997252464294 0.0 0.024166148155927658
  outer loop
   vertex 23.346261978149414 10.833259582519531 4.6281633377075195
   vertex 23.343629837036133 20.014434814453125 4.643336772918701
   vertex 23.343629837036133 10.833259582519531 4.643336772918701
  endloop
 endfacet
 facet normal 0.0 -1.255102688446641e-09 0.0
  outer loop
   vertex 23.346261978149414 10.833259582519531 4.6281633377075195
   vertex 23.343629837036133 10.833259582519531 4.643336772918701
   vertex 23.343629837036133 10.833259582519531 4.643336296081543
  endloop
 endfacet
 facet normal 0.0 1.792795956134796e-08 0.0
  outer loop
   vertex 23.343629837036133 20.014434814453125 4.643336772918701
   vertex 23.343629837036133 20.014434814453125 4.643336296081543
   vertex 23.306032180786133 20.014434814453125 4.810767650604248
  endloop
 endfacet
endsolid
