  0
SECTION
  2
HEADER
  9
$ACADVER
  1
AC1003
  9
$EXTMIN
 10
-5.74097180167929
 20
4.42632390944259
  9
$EXTMAX
 10
4.40459278081562
 20
-4.25460204412245
  9
$INSUNITS
 70
1
  9
$INSBASE
 10
-0.668189510431834
 20
0.0858609326600708
999
Created with OMAX LAYOUT for Windows. (www.omax.com) 3/8/2024
  0
ENDSEC
  0
SECTION
  2
TABLES
  0
TABLE
  2
LAYER
 70
    10
  0
LAYER
  2
0
 70
     0
 62
     7
  6
CONTINUOUS
  0
LAYER
  2
1
 70
     0
 62
     7
  6
CONTINUOUS
  0
LAYER
  2
2
 70
     0
 62
     7
  6
CONTINUOUS
  0
LAYER
  2
3
 70
     0
 62
     7
  6
CONTINUOUS
  0
LAYER
  2
4
 70
     0
 62
     7
  6
CONTINUOUS
  0
LAYER
  2
5
 70
     0
 62
     7
  6
CONTINUOUS
  0
LAYER
  2
6
 70
     0
 62
     7
  6
CONTINUOUS
  0
LAYER
  2
7
 70
     0
 62
     7
  6
CONTINUOUS
  0
LAYER
  2
8
 70
     0
 62
     7
  6
CONTINUOUS
  0
LAYER
  2
9
 70
     0
 62
     7
  6
CONTINUOUS
  0
LAYER
  2
10
 70
     0
 62
     7
  6
CONTINUOUS
  0
LAYER
  2
11
 70
     0
 62
     7
  6
CONTINUOUS
  0
LAYER
  2
12
 70
     0
 62
     7
  6
CONTINUOUS
  0
LAYER
  2
13
 70
     0
 62
     7
  6
CONTINUOUS
  0
LAYER
  2
14
 70
     0
 62
     7
  6
CONTINUOUS
  0
LAYER
  2
15
 70
     0
 62
     7
  6
CONTINUOUS
  0
LAYER
  2
16
 70
     0
 62
     7
  6
CONTINUOUS
  0
LAYER
  2
17
 70
     0
 62
     7
  6
CONTINUOUS
  0
LAYER
  2
18
 70
     0
 62
     7
  6
CONTINUOUS
  0
LAYER
  2
19
 70
     0
 62
     7
  6
CONTINUOUS
  0
LAYER
  2
20
 70
     0
 62
     7
  6
CONTINUOUS
  0
LAYER
  2
21
 70
     0
 62
     7
  6
CONTINUOUS
  0
LAYER
  2
22
 70
     0
 62
     7
  6
CONTINUOUS
  0
LAYER
  2
23
 70
     0
 62
     7
  6
CONTINUOUS
  0
LAYER
  2
24
 70
     0
 62
     7
  6
CONTINUOUS
  0
LAYER
  2
25
 70
     0
 62
     7
  6
CONTINUOUS
  0
LAYER
  2
26
 70
     0
 62
     7
  6
CONTINUOUS
  0
LAYER
  2
27
 70
     0
 62
     7
  6
CONTINUOUS
  0
LAYER
  2
28
 70
     0
 62
     7
  6
CONTINUOUS
  0
LAYER
  2
29
 70
     0
 62
     7
  6
CONTINUOUS
  0
LAYER
  2
30
 70
     0
 62
     7
  6
CONTINUOUS
  0
LAYER
  2
31
 70
     0
 62
     7
  6
CONTINUOUS
  0
ENDTAB
  0
ENDSEC
  0
SECTION
  2
ENTITIES
  0
LINE
  8
4
  6
CONTINUOUS
 62
4
 10
-2.59136550317929
 20
1.47356800394257
 30
0.0
 11
-4.95357022617929
 21
1.47356800394257
 31
0.0
  0
LINE
  8
4
  6
CONTINUOUS
 62
4
 10
-4.95357022617929
 20
3.44207194094257
 30
0.0
 11
-2.59136550317929
 21
3.44207194094257
 31
0.0
  0
LINE
  8
4
  6
CONTINUOUS
 62
4
 10
-5.15042062017929
 20
3.24522154694257
 30
0.0
 11
-5.15042062017929
 21
1.67041839794257
 31
0.0
  0
LINE
  8
4
  6
CONTINUOUS
 62
4
 10
-2.39451510917929
 20
3.24522154694257
 30
0.0
 11
-2.39451510917929
 21
1.67041839794257
 31
0.0
  0
ARC
  8
4
  6
CONTINUOUS
 62
4
 10
-4.95357022617929
 20
3.24522154694257
 30
0.0
 40
0.196850394
 50
89.9999999999997
 51
180
  0
ARC
  8
4
  6
CONTINUOUS
 62
4
 10
-2.59136550317929
 20
3.24522154694257
 30
0.0
 40
0.196850394
 50
359.999999999999
 51
89.9999999999997
  0
ARC
  8
4
  6
CONTINUOUS
 62
4
 10
-2.59136550317929
 20
1.67041839794257
 30
0.0
 40
0.196850394
 50
269.999999999998
 51
359.999999999999
  0
ARC
  8
4
  6
CONTINUOUS
 62
4
 10
-4.95357022617929
 20
1.67041839794256
 30
0.0
 40
0.196850394
 50
179.999999999999
 51
269.999999999998
  0
LINE
  8
4
  6
CONTINUOUS
 62
4
 10
-2.96538125067929
 20
2.53656013044257
 30
0.0
 11
-2.96538125067929
 21
2.82789871116911
 31
0.0
  0
LINE
  8
4
  6
CONTINUOUS
 62
4
 10
-2.70750723467929
 20
2.49719005144257
 30
0.0
 11
-2.92601117167929
 21
2.49719005144257
 31
0.0
  0
LINE
  8
4
  6
CONTINUOUS
 62
4
 10
-2.70750723467929
 20
2.41844989344257
 30
0.0
 11
-2.92601117167929
 21
2.41844989344257
 31
0.0
  0
ARC
  8
4
  6
CONTINUOUS
 62
4
 10
-2.70750723467929
 20
2.45781997244257
 30
0.0
 40
0.0393700790000002
 50
270
 51
90
  0
ARC
  8
4
  6
CONTINUOUS
 62
4
 10
-2.92601117167929
 20
2.37907981444257
 30
0.0
 40
0.0393700789999999
 50
90
 51
180
  0
ARC
  8
4
  6
CONTINUOUS
 62
4
 10
-2.92601117167929
 20
2.53656013044257
 30
0.0
 40
0.0393700789999999
 50
180
 51
269.999999999999
  0
ARC
  8
4
  6
CONTINUOUS
 62
4
 10
-2.97930067595122
 20
2.85334936567064
 30
0.0
 40
0.0196850399999999
 50
44.9999999999999
 51
115.528779585301
  0
ARC
  8
4
  6
CONTINUOUS
 62
4
 10
-2.97930067595122
 20
2.85334936567064
 30
0.0
 40
0.0196850400000001
 50
334.471220414697
 51
44.9999999999987
  0
ARC
  8
4
  6
CONTINUOUS
 62
4
 10
-3.00475133045275
 20
2.90663886994257
 30
0.0
 40
0.039370079
 50
269.999999999999
 51
295.528779585301
  0
ARC
  8
4
  6
CONTINUOUS
 62
4
 10
-2.92601117167929
 20
2.82789871116911
 30
0.0
 40
0.0393700790000002
 50
154.471220414697
 51
179.999999999998
  0
LINE
  8
4
  6
CONTINUOUS
 62
4
 10
-2.96538125067929
 20
2.37907981444257
 30
0.0
 11
-2.96538125067929
 21
2.08774123371603
 31
0.0
  0
ARC
  8
4
  6
CONTINUOUS
 62
4
 10
-2.97930067595122
 20
2.0622905792145
 30
0.0
 40
0.01968504
 50
244.471220414698
 51
314.999999999999
  0
ARC
  8
4
  6
CONTINUOUS
 62
4
 10
-2.97930067595122
 20
2.0622905792145
 30
0.0
 40
0.0196850400000002
 50
315
 51
25.5287795853015
  0
ARC
  8
4
  6
CONTINUOUS
 62
4
 10
-3.00475133045275
 20
2.00900107494257
 30
0.0
 40
0.0393700790000005
 50
64.4712204146989
 51
90.0000000000002
  0
ARC
  8
4
  6
CONTINUOUS
 62
4
 10
-2.92601117167929
 20
2.08774123371603
 30
0.0
 40
0.039370079
 50
180
 51
205.528779585301
  0
LINE
  8
4
  6
CONTINUOUS
 62
4
 10
-3.77246786467929
 20
2.86726879094257
 30
0.0
 11
-3.00475133045275
 21
2.86726879094257
 31
0.0
  0
LINE
  8
4
  6
CONTINUOUS
 62
4
 10
-3.77246786467929
 20
2.04837115394257
 30
0.0
 11
-3.00475133045275
 21
2.04837115394257
 31
0.0
  0
LINE
  8
4
  6
CONTINUOUS
 62
4
 10
-4.57955447867929
 20
2.53656013044257
 30
0.0
 11
-4.57955447867929
 21
2.82789871116911
 31
0.0
  0
LINE
  8
4
  6
CONTINUOUS
 62
4
 10
-4.83742849467929
 20
2.49719005144257
 30
0.0
 11
-4.61892455767929
 21
2.49719005144257
 31
0.0
  0
LINE
  8
4
  6
CONTINUOUS
 62
4
 10
-4.83742849467929
 20
2.41844989344257
 30
0.0
 11
-4.61892455767929
 21
2.41844989344257
 31
0.0
  0
ARC
  8
4
  6
CONTINUOUS
 62
4
 10
-4.83742849467929
 20
2.45781997244257
 30
0.0
 40
0.0393700790000002
 50
90
 51
270
  0
ARC
  8
4
  6
CONTINUOUS
 62
4
 10
-4.61892455767929
 20
2.37907981444257
 30
0.0
 40
0.0393700789999998
 50
359.999999999998
 51
89.9999999999992
  0
ARC
  8
4
  6
CONTINUOUS
 62
4
 10
-4.61892455767929
 20
2.53656013044257
 30
0.0
 40
0.039370079
 50
269.999999999999
 51
359.999999999999
  0
ARC
  8
4
  6
CONTINUOUS
 62
4
 10
-4.56563505340736
 20
2.85334936567064
 30
0.0
 40
0.0196850399999999
 50
64.4712204146984
 51
135
  0
ARC
  8
4
  6
CONTINUOUS
 62
4
 10
-4.56563505340736
 20
2.85334936567064
 30
0.0
 40
0.0196850399999999
 50
135.000000000001
 51
205.528779585302
  0
ARC
  8
4
  6
CONTINUOUS
 62
4
 10
-4.54018439890583
 20
2.90663886994257
 30
0.0
 40
0.0393700790000001
 50
244.471220414698
 51
269.999999999999
  0
ARC
  8
4
  6
CONTINUOUS
 62
4
 10
-4.61892455767929
 20
2.82789871116911
 30
0.0
 40
0.0393700790000007
 50
1.97194390250738E-13
 51
25.5287795853021
  0
LINE
  8
4
  6
CONTINUOUS
 62
4
 10
-4.57955447867929
 20
2.37907981444257
 30
0.0
 11
-4.57955447867929
 21
2.08774123371603
 31
0.0
  0
ARC
  8
4
  6
CONTINUOUS
 62
4
 10
-4.56563505340736
 20
2.0622905792145
 30
0.0
 40
0.0196850399999998
 50
224.999999999998
 51
295.5287795853
  0
ARC
  8
4
  6
CONTINUOUS
 62
4
 10
-4.56563505340736
 20
2.0622905792145
 30
0.0
 40
0.0196850399999999
 50
154.471220414697
 51
224.999999999998
  0
ARC
  8
4
  6
CONTINUOUS
 62
4
 10
-4.54018439890583
 20
2.00900107494257
 30
0.0
 40
0.0393700789999995
 50
89.9999999999997
 51
115.528779585301
  0
ARC
  8
4
  6
CONTINUOUS
 62
4
 10
-4.61892455767929
 20
2.08774123371603
 30
0.0
 40
0.0393700789999996
 50
334.471220414697
 51
359.999999999999
  0
LINE
  8
4
  6
CONTINUOUS
 62
4
 10
-3.77246786467929
 20
2.86726879094257
 30
0.0
 11
-4.54018439890583
 21
2.86726879094257
 31
0.0
  0
LINE
  8
4
  6
CONTINUOUS
 62
4
 10
-3.77246786467929
 20
2.04837115394257
 30
0.0
 11
-4.54018439890583
 21
2.04837115394257
 31
0.0
  0
LINE
  8
4
  6
CONTINUOUS
 62
4
 10
2.5590551185
 20
0.0835165488031435
 30
0.0
 11
2.51729684409843
 21
0.0417582744015716
 31
0.0
  0
LINE
  8
4
  6
CONTINUOUS
 62
4
 10
2.5590551185
 20
0.0835165488031435
 30
0.0
 11
2.60081339290157
 21
0.0417582744015716
 31
0.0
  0
ARC
  8
4
  6
CONTINUOUS
 62
4
 10
2.5590551185
 20
-5.84198461308088E-16
 30
0.0
 40
0.0590551180000003
 50
179.999999999999
 51
359.999999999999
  0
ARC
  8
4
  6
CONTINUOUS
 62
4
 10
2.5590551185
 20
6.43882108811718E-16
 30
0.0
 40
0.0590551179999992
 50
359.999999999999
 51
45.0000000000003
  0
ARC
  8
4
  6
CONTINUOUS
 62
4
 10
2.5590551185
 20
-2.15105711021124E-16
 30
0.0
 40
0.0590551179999995
 50
134.999999999999
 51
180
  0
LINE
  8
4
  6
CONTINUOUS
 62
4
 10
4.1338582675
 20
0.0835165488031435
 30
0.0
 11
4.17561654190157
 21
0.0417582744015716
 31
0.0
  0
LINE
  8
4
  6
CONTINUOUS
 62
4
 10
4.1338582675
 20
0.0835165488031435
 30
0.0
 11
4.09209999309843
 21
0.0417582744015716
 31
0.0
  0
ARC
  8
4
  6
CONTINUOUS
 62
4
 10
4.1338582675
 20
2.17038091644974E-16
 30
0.0
 40
0.0590551179999998
 50
180
 51
1.52666624710249E-13
  0
ARC
  8
4
  6
CONTINUOUS
 62
4
 10
4.1338582675
 20
-5.38979146050831E-16
 30
0.0
 40
0.0590551179999992
 50
134.999999999999
 51
180
  0
ARC
  8
4
  6
CONTINUOUS
 62
4
 10
4.1338582675
 20
1.40859546249317E-15
 30
0.0
 40
0.0590551179999991
 50
359.999999999998
 51
44.9999999999992
  0
LINE
  8
4
  6
CONTINUOUS
 62
4
 10
-0.984251968505023
 20
-0.9055118115
 30
0.0
 11
-0.984251968515069
 21
0.905511811500001
 31
0.0
  0
LINE
  8
4
  6
CONTINUOUS
 62
4
 10
0.984251968494977
 20
-0.905511811499999
 30
0.0
 11
0.984251968505023
 21
0.905511811500001
 31
0.0
  0
LINE
  8
4
  6
CONTINUOUS
 62
4
 10
0.905511811505023
 20
0.984251968500001
 30
0.0
 11
-0.905511811515069
 21
0.984251968500001
 31
0.0
  0
ARC
  8
4
  6
CONTINUOUS
 62
4
 10
-0.687077822141198
 20
-0.749085696135963
 30
0.0
 40
0.00984251999999994
 50
44.9999999999995
 51
115.528779805093
  0
ARC
  8
4
  6
CONTINUOUS
 62
4
 10
-0.687077822141198
 20
-0.749085696135963
 30
0.0
 40
0.00984251999999994
 50
334.471220194915
 51
44.9999999999997
  0
ARC
  8
4
  6
CONTINUOUS
 62
4
 10
-0.660433070505232
 20
-0.761811023273454
 30
0.0
 40
0.019685039
 50
154.471220194916
 51
180
  0
ARC
  8
4
  6
CONTINUOUS
 62
4
 10
-0.699803149278693
 20
-0.722440944499999
 30
0.0
 40
0.019685039
 50
270
 51
295.528779805092
  0
ARC
  8
4
  6
CONTINUOUS
 62
4
 10
-0.887725326868849
 20
-0.749085696135964
 30
0.0
 40
0.00984251999999994
 50
64.471220194907
 51
135
  0
ARC
  8
4
  6
CONTINUOUS
 62
4
 10
-0.887725326868849
 20
-0.749085696135964
 30
0.0
 40
0.00984251999999994
 50
135
 51
205.528779805084
  0
ARC
  8
4
  6
CONTINUOUS
 62
4
 10
-0.914370078504815
 20
-0.761811023273454
 30
0.0
 40
0.019685039
 50
359.999999999999
 51
25.5287798050836
  0
ARC
  8
4
  6
CONTINUOUS
 62
4
 10
-0.874999999731354
 20
-0.722440944499999
 30
0.0
 40
0.019685039
 50
244.471220194907
 51
269.999999999999
  0
ARC
  8
4
  6
CONTINUOUS
 62
4
 10
-0.887725326868848
 20
-0.825717452864035
 30
0.0
 40
0.00984251999999994
 50
224.999999999999
 51
295.528779805092
  0
ARC
  8
4
  6
CONTINUOUS
 62
4
 10
-0.887725326868849
 20
-0.825717452864035
 30
0.0
 40
0.00984251999999994
 50
154.471220194915
 51
224.999999999999
  0
ARC
  8
4
  6
CONTINUOUS
 62
4
 10
-0.914370078504815
 20
-0.812992125726544
 30
0.0
 40
0.019685039
 50
334.471220194916
 51
2.5285409717635E-13
  0
ARC
  8
4
  6
CONTINUOUS
 62
4
 10
-0.874999999731354
 20
-0.852362204499999
 30
0.0
 40
0.019685039
 50
90
 51
115.528779805093
  0
ARC
  8
4
  6
CONTINUOUS
 62
4
 10
-0.687077822141198
 20
-0.825717452864035
 30
0.0
 40
0.00984251999999994
 50
244.471220194907
 51
315
  0
ARC
  8
4
  6
CONTINUOUS
 62
4
 10
-0.687077822141198
 20
-0.825717452864035
 30
0.0
 40
0.00984251999999994
 50
315
 51
25.5287798050847
  0
ARC
  8
4
  6
CONTINUOUS
 62
4
 10
-0.660433070505232
 20
-0.812992125726545
 30
0.0
 40
0.019685039
 50
179.999999999999
 51
205.528779805083
  0
ARC
  8
4
  6
CONTINUOUS
 62
4
 10
-0.699803149278693
 20
-0.852362204499999
 30
0.0
 40
0.019685039
 50
64.471220194907
 51
89.9999999999996
  0
LINE
  8
4
  6
CONTINUOUS
 62
4
 10
-0.680118109505232
 20
-0.761811023273454
 30
0.0
 11
-0.680118109505232
 21
-0.812992125726544
 31
0.0
  0
LINE
  8
4
  6
CONTINUOUS
 62
4
 10
-0.699803149278693
 20
-0.742125983499999
 30
0.0
 11
-0.874999999731354
 21
-0.742125983499999
 31
0.0
  0
LINE
  8
4
  6
CONTINUOUS
 62
4
 10
-0.894685039504815
 20
-0.761811023273454
 30
0.0
 11
-0.894685039504815
 21
-0.812992125726544
 31
0.0
  0
LINE
  8
4
  6
CONTINUOUS
 62
4
 10
-0.874999999731354
 20
-0.832677165499999
 30
0.0
 11
-0.699803149278693
 21
-0.832677165499999
 31
0.0
  0
ARC
  8
4
  6
CONTINUOUS
 62
4
 10
0.687077822131152
 20
-0.749085696135964
 30
0.0
 40
0.00984251999999994
 50
64.471220194907
 51
135
  0
ARC
  8
4
  6
CONTINUOUS
 62
4
 10
0.687077822131152
 20
-0.749085696135964
 30
0.0
 40
0.00984251999999994
 50
135
 51
205.528779805084
  0
ARC
  8
4
  6
CONTINUOUS
 62
4
 10
0.660433070495186
 20
-0.761811023273454
 30
0.0
 40
0.019685039
 50
359.999999999999
 51
25.5287798050836
  0
ARC
  8
4
  6
CONTINUOUS
 62
4
 10
0.699803149268647
 20
-0.722440944499999
 30
0.0
 40
0.019685039
 50
244.471220194907
 51
270
  0
ARC
  8
4
  6
CONTINUOUS
 62
4
 10
0.887725326858802
 20
-0.749085696135963
 30
0.0
 40
0.00984251999999994
 50
44.9999999999995
 51
115.528779805093
  0
ARC
  8
4
  6
CONTINUOUS
 62
4
 10
0.887725326858803
 20
-0.749085696135963
 30
0.0
 40
0.00984251999999994
 50
334.471220194915
 51
44.9999999999997
  0
ARC
  8
4
  6
CONTINUOUS
 62
4
 10
0.914370078494769
 20
-0.761811023273454
 30
0.0
 40
0.019685039
 50
154.471220194916
 51
180
  0
ARC
  8
4
  6
CONTINUOUS
 62
4
 10
0.874999999721308
 20
-0.722440944499999
 30
0.0
 40
0.019685039
 50
270
 51
295.528779805093
  0
ARC
  8
4
  6
CONTINUOUS
 62
4
 10
0.887725326858803
 20
-0.825717452864035
 30
0.0
 40
0.00984251999999994
 50
244.471220194907
 51
315
  0
ARC
  8
4
  6
CONTINUOUS
 62
4
 10
0.887725326858803
 20
-0.825717452864035
 30
0.0
 40
0.00984251999999994
 50
315
 51
25.5287798050847
  0
ARC
  8
4
  6
CONTINUOUS
 62
4
 10
0.914370078494769
 20
-0.812992125726544
 30
0.0
 40
0.019685039
 50
179.999999999999
 51
205.528779805084
  0
ARC
  8
4
  6
CONTINUOUS
 62
4
 10
0.874999999721308
 20
-0.852362204499999
 30
0.0
 40
0.019685039
 50
64.471220194907
 51
89.9999999999996
  0
ARC
  8
4
  6
CONTINUOUS
 62
4
 10
0.687077822131153
 20
-0.825717452864035
 30
0.0
 40
0.00984251999999994
 50
224.999999999999
 51
295.528779805092
  0
ARC
  8
4
  6
CONTINUOUS
 62
4
 10
0.687077822131152
 20
-0.825717452864035
 30
0.0
 40
0.00984251999999994
 50
154.471220194915
 51
224.999999999999
  0
ARC
  8
4
  6
CONTINUOUS
 62
4
 10
0.660433070495186
 20
-0.812992125726544
 30
0.0
 40
0.019685039
 50
334.471220194916
 51
6.10666498840995E-13
  0
ARC
  8
4
  6
CONTINUOUS
 62
4
 10
0.699803149268647
 20
-0.852362204499999
 30
0.0
 40
0.019685039
 50
90
 51
115.528779805093
  0
LINE
  8
4
  6
CONTINUOUS
 62
4
 10
0.680118109495186
 20
-0.761811023273454
 30
0.0
 11
0.680118109495186
 21
-0.812992125726544
 31
0.0
  0
LINE
  8
4
  6
CONTINUOUS
 62
4
 10
0.699803149268647
 20
-0.742125983499999
 30
0.0
 11
0.874999999721308
 21
-0.742125983499999
 31
0.0
  0
LINE
  8
4
  6
CONTINUOUS
 62
4
 10
0.894685039494769
 20
-0.761811023273454
 30
0.0
 11
0.894685039494769
 21
-0.812992125726544
 31
0.0
  0
LINE
  8
4
  6
CONTINUOUS
 62
4
 10
0.874999999721308
 20
-0.832677165499999
 30
0.0
 11
0.699803149268647
 21
-0.832677165499999
 31
0.0
  0
LINE
  8
4
  6
CONTINUOUS
 62
4
 10
-0.905511811505023
 20
-0.9842519685
 30
0.0
 11
0.905511811494977
 21
-0.9842519685
 31
0.0
  0
ARC
  8
4
  6
CONTINUOUS
 62
4
 10
-0.90551181151507
 20
0.905511811500001
 30
0.0
 40
0.0787401570000001
 50
89.9999999999998
 51
179.999999999999
  0
ARC
  8
4
  6
CONTINUOUS
 62
4
 10
0.905511811505023
 20
0.905511811500001
 30
0.0
 40
0.078740157
 50
360
 51
89.9999999999998
  0
ARC
  8
4
  6
CONTINUOUS
 62
4
 10
0.905511811494978
 20
-0.9055118115
 30
0.0
 40
0.078740157
 50
269.999999999999
 51
360
  0
ARC
  8
4
  6
CONTINUOUS
 62
4
 10
-0.905511811505022
 20
-0.9055118115
 30
0.0
 40
0.078740157
 50
180
 51
269.999999999999
  0
ARC
  8
4
  6
CONTINUOUS
 62
4
 10
-4.85514502917929
 20
3.14679634994257
 30
0.0
 40
0.066929134
 50
359.999999999998
 51
180
  0
ARC
  8
4
  6
CONTINUOUS
 62
4
 10
-4.85514502917929
 20
3.14679634994257
 30
0.0
 40
0.066929134
 50
179.999999999998
 51
359.999999999998
  0
ARC
  8
4
  6
CONTINUOUS
 62
4
 10
-2.68979070017929
 20
3.14679634994257
 30
0.0
 40
0.066929134
 50
359.999999999998
 51
180
  0
ARC
  8
4
  6
CONTINUOUS
 62
4
 10
-2.68979070017929
 20
3.14679634994257
 30
0.0
 40
0.066929134
 50
180
 51
7.63333123551244E-14
  0
ARC
  8
4
  6
CONTINUOUS
 62
4
 10
-2.68979070017929
 20
1.76884359494257
 30
0.0
 40
0.066929134
 50
179.999999999998
 51
359.999999999998
  0
ARC
  8
4
  6
CONTINUOUS
 62
4
 10
-2.68979070017929
 20
1.76884359494257
 30
0.0
 40
0.066929134
 50
359.999999999998
 51
180
  0
ARC
  8
4
  6
CONTINUOUS
 62
4
 10
-4.85514502917929
 20
1.76884359494257
 30
0.0
 40
0.066929134
 50
179.999999999999
 51
360
  0
ARC
  8
4
  6
CONTINUOUS
 62
4
 10
-4.85514502917929
 20
1.76884359494257
 30
0.0
 40
0.066929134
 50
359.999999999998
 51
180
  0
ARC
  8
4
  6
CONTINUOUS
 62
4
 10
-2.80790093567929
 20
2.65467036594257
 30
0.0
 40
0.066929134
 50
359.999999999998
 51
180
  0
ARC
  8
4
  6
CONTINUOUS
 62
4
 10
-2.80790093567929
 20
2.65467036594257
 30
0.0
 40
0.066929134
 50
179.999999999999
 51
360
  0
ARC
  8
4
  6
CONTINUOUS
 62
4
 10
-2.80790093567929
 20
2.26096957894257
 30
0.0
 40
0.066929134
 50
179.999999999998
 51
359.999999999998
  0
ARC
  8
4
  6
CONTINUOUS
 62
4
 10
-2.80790093567929
 20
2.26096957894257
 30
0.0
 40
0.066929134
 50
359.999999999999
 51
180
  0
ARC
  8
4
  6
CONTINUOUS
 62
4
 10
-4.73703479367929
 20
2.65467036594257
 30
0.0
 40
0.066929134
 50
359.999999999998
 51
180
  0
ARC
  8
4
  6
CONTINUOUS
 62
4
 10
-4.73703479367929
 20
2.65467036594257
 30
0.0
 40
0.066929134
 50
179.999999999998
 51
359.999999999998
  0
ARC
  8
4
  6
CONTINUOUS
 62
4
 10
-4.73703479367929
 20
2.26096957894257
 30
0.0
 40
0.066929134
 50
180
 51
7.63333123551244E-14
  0
ARC
  8
4
  6
CONTINUOUS
 62
4
 10
-4.73703479367929
 20
2.26096957894257
 30
0.0
 40
0.066929134
 50
359.999999999998
 51
180
  0
LINE
  8
4
  6
CONTINUOUS
 62
4
 10
2.02270301631562
 20
-3.76247605962243
 30
0.0
 11
3.83372663931562
 21
-3.76247605962243
 31
0.0
  0
LINE
  8
4
  6
CONTINUOUS
 62
4
 10
1.94396285931562
 20
-3.68373590262243
 30
0.0
 11
1.94396285930558
 21
-1.87271227962243
 31
0.0
  0
LINE
  8
4
  6
CONTINUOUS
 62
4
 10
3.91246679631562
 20
-3.68373590262243
 30
0.0
 11
3.91246679632567
 21
-1.87271227962243
 31
0.0
  0
LINE
  8
4
  6
CONTINUOUS
 62
4
 10
3.83372663932567
 20
-1.79397212262243
 30
0.0
 11
2.02270301630558
 21
-1.79397212262243
 31
0.0
  0
ARC
  8
4
  6
CONTINUOUS
 62
4
 10
2.02270301630558
 20
-1.87271227962243
 30
0.0
 40
0.0787401569999996
 50
89.9999999999996
 51
179.999999999999
  0
ARC
  8
4
  6
CONTINUOUS
 62
4
 10
3.83372663932567
 20
-1.87271227962243
 30
0.0
 40
0.0787401570000001
 50
2.28999937065373E-13
 51
90
  0
ARC
  8
4
  6
CONTINUOUS
 62
4
 10
3.83372663931562
 20
-3.68373590262243
 30
0.0
 40
0.0787401570000002
 50
269.999999999999
 51
360
  0
ARC
  8
4
  6
CONTINUOUS
 62
4
 10
2.02270301631562
 20
-3.68373590262243
 30
0.0
 40
0.0787401570000002
 50
179.999999999999
 51
270
  0
ARC
  8
4
  6
CONTINUOUS
 62
4
 10
3.71561640231562
 20
-2.77822409112243
 30
0.0
 40
0.066929134
 50
359.999999999999
 51
180
  0
ARC
  8
4
  6
CONTINUOUS
 62
4
 10
3.71561640231562
 20
-2.77822409112243
 30
0.0
 40
0.066929134
 50
179.999999999999
 51
359.999999999999
  0
ARC
  8
4
  6
CONTINUOUS
 62
4
 10
2.14081325331562
 20
-2.77822409112243
 30
0.0
 40
0.066929134
 50
359.999999999999
 51
180
  0
ARC
  8
4
  6
CONTINUOUS
 62
4
 10
2.14081325331562
 20
-2.77822409112243
 30
0.0
 40
0.066929134
 50
179.999999999999
 51
359.999999999999
  0
ARC
  8
6
  6
CONTINUOUS
 62
6
 10
2.92821482781562
 20
-2.77822409112242
 30
0.0
 40
1.476377953
 50
359.999999999999
 51
180
  0
ARC
  8
6
  6
CONTINUOUS
 62
6
 10
2.92821482781562
 20
-2.77822409112245
 30
0.0
 40
1.476377953
 50
179.999999999999
 51
359.999999999999
  0
ARC
  8
6
  6
CONTINUOUS
 62
6
 10
-3.77246786467929
 20
2.45781997244259
 30
0.0
 40
1.968503937
 50
359.999999999999
 51
180
  0
ARC
  8
6
  6
CONTINUOUS
 62
6
 10
-3.77246786467929
 20
2.45781997244255
 30
0.0
 40
1.968503937
 50
179.999999999999
 51
359.999999999999
  0
ARC
  8
6
  6
CONTINUOUS
 62
6
 10
3.346456693
 20
9.85717714722279E-15
 30
0.0
 40
0.984251969
 50
359.999999999999
 51
180
  0
ARC
  8
6
  6
CONTINUOUS
 62
6
 10
3.346456693
 20
-9.73664104488376E-15
 30
0.0
 40
0.984251969
 50
179.999999999999
 51
359.999999999999
  0
ARC
  8
6
  6
CONTINUOUS
 62
6
 10
1.23333058561375
 20
-0.356986687074337
 30
0.0
 40
0.0422419945850778
 50
86.5204049224945
 51
166.571819992715
  0
ARC
  8
6
  6
CONTINUOUS
 62
6
 10
1.23334973895884
 20
-0.357088918723544
 30
0.0
 40
0.0423428828646224
 50
273.445329839681
 51
86.5546701603175
  0
ARC
  8
6
  6
CONTINUOUS
 62
6
 10
1.23334973895885
 20
-0.35708891872354
 30
0.0
 40
0.0423428828646265
 50
193.733975280076
 51
273.445329839679
  0
ARC
  8
6
  6
CONTINUOUS
 62
6
 10
1.31380979134134
 20
-0.330648637717259
 30
0.0
 40
0.126950501734929
 50
159.293977264153
 51
196.7059
  0
ARC
  8
6
  6
CONTINUOUS
 62
6
 10
1.235385598337
 20
-0.298789263337145
 30
0.0
 40
0.0423780749830486
 50
29.3074499999936
 51
162.097534243049
  0
ARC
  8
6
  6
CONTINUOUS
 62
6
 10
1.29760940148666
 20
-0.390657179128565
 30
0.0
 40
0.00766758659755433
 50
95.9609022281266
 51
180.813903789566
  0
ARC
  8
6
  6
CONTINUOUS
 62
6
 10
1.29808544563905
 20
-0.390766095840386
 30
0.0
 40
0.00814285713960072
 50
179.999999999989
 51
359.999999999989
  0
ARC
  8
6
  6
CONTINUOUS
 62
6
 10
1.29876111051553
 20
-0.390479869056987
 30
0.0
 40
0.00747267596420504
 50
357.804856058025
 51
85.4203379242594
  0
LINE
  8
6
  6
CONTINUOUS
 62
6
 10
1.38714796136439
 20
-0.398911098774833
 30
0.0
 11
1.38714796136439
 21
-0.256411098831833
 31
0.0
  0
LINE
  8
6
  6
CONTINUOUS
 62
6
 10
1.38714796136439
 20
-0.256411098831833
 30
0.0
 11
1.31335331853677
 21
-0.365321813073983
 31
0.0
  0
LINE
  8
6
  6
CONTINUOUS
 62
6
 10
1.31335331853677
 20
-0.365321813073983
 30
0.0
 11
1.40801403278462
 21
-0.365321813073983
 31
0.0
  0
ARC
  8
6
  6
CONTINUOUS
 62
6
 10
-3.90660069513671
 20
0.979425017987724
 30
0.0
 40
0.0422419945850778
 50
86.5204049224945
 51
166.571819992715
  0
ARC
  8
6
  6
CONTINUOUS
 62
6
 10
-3.90658154179162
 20
0.979322786338516
 30
0.0
 40
0.0423428828646224
 50
273.445329839681
 51
86.5546701603175
  0
ARC
  8
6
  6
CONTINUOUS
 62
6
 10
-3.90658154179161
 20
0.979322786338521
 30
0.0
 40
0.0423428828646264
 50
193.733975280076
 51
273.445329839679
  0
ARC
  8
6
  6
CONTINUOUS
 62
6
 10
-3.82612148940912
 20
1.0057630673448
 30
0.0
 40
0.126950501734929
 50
159.293977264153
 51
196.7059
  0
ARC
  8
6
  6
CONTINUOUS
 62
6
 10
-3.90454568241346
 20
1.03762244172492
 30
0.0
 40
0.0423780749830486
 50
29.3074499999936
 51
162.097534243049
  0
ARC
  8
6
  6
CONTINUOUS
 62
6
 10
0
 20
1.96707470241774E-14
 30
0.0
 40
1.476377953
 50
359.999999999999
 51
180
  0
ARC
  8
6
  6
CONTINUOUS
 62
6
 10
0
 20
-9.71998025402874E-15
 30
0.0
 40
1.476377953
 50
179.999999999999
 51
359.999999999999
  0
ARC
  8
24
  6
CONTINUOUS
 62
24
 10
2.14081325331562
 20
-2.77822409112243
 30
0.0
 40
0.118110236
 50
359.999999999999
 51
180
  0
ARC
  8
24
  6
CONTINUOUS
 62
24
 10
2.14081325331562
 20
-2.77822409112243
 30
0.0
 40
0.118110236
 50
179.999999999999
 51
359.999999999999
  0
ARC
  8
24
  6
CONTINUOUS
 62
24
 10
3.71561640231562
 20
-2.77822409112243
 30
0.0
 40
0.118110236
 50
359.999999999999
 51
180
  0
ARC
  8
24
  6
CONTINUOUS
 62
24
 10
3.71561640231562
 20
-2.77822409112244
 30
0.0
 40
0.118110236
 50
179.999999999999
 51
359.999999999999
  0
ARC
  8
24
  6
CONTINUOUS
 62
24
 10
-4.85514502917929
 20
3.14679634994257
 30
0.0
 40
0.118110236
 50
359.999999999999
 51
180
  0
ARC
  8
24
  6
CONTINUOUS
 62
24
 10
-4.85514502917929
 20
3.14679634994257
 30
0.0
 40
0.118110236
 50
179.999999999999
 51
359.999999999999
  0
ARC
  8
24
  6
CONTINUOUS
 62
24
 10
-4.85514502917929
 20
1.76884359494257
 30
0.0
 40
0.118110236
 50
359.999999999999
 51
180
  0
ARC
  8
24
  6
CONTINUOUS
 62
24
 10
-4.85514502917929
 20
1.76884359494257
 30
0.0
 40
0.118110236
 50
179.999999999999
 51
359.999999999999
  0
ARC
  8
24
  6
CONTINUOUS
 62
24
 10
-2.68979070017929
 20
3.14679634994257
 30
0.0
 40
0.118110236
 50
359.999999999999
 51
180
  0
ARC
  8
24
  6
CONTINUOUS
 62
24
 10
-2.68979070017929
 20
3.14679634994257
 30
0.0
 40
0.118110236
 50
179.999999999999
 51
359.999999999999
  0
LINE
  8
24
  6
CONTINUOUS
 62
24
 10
-4.70526637131717
 20
2.37953094527433
 30
0.0
 11
-4.61847342734753
 21
2.2927380013047
 31
0.0
  0
LINE
  8
24
  6
CONTINUOUS
 62
24
 10
-4.82382773764893
 20
2.34776252291221
 30
0.0
 11
-4.70526637131717
 21
2.37953094527433
 31
0.0
  0
LINE
  8
24
  6
CONTINUOUS
 62
24
 10
-4.85559616001106
 20
2.22920115658044
 30
0.0
 11
-4.82382773764893
 21
2.34776252291221
 31
0.0
  0
LINE
  8
24
  6
CONTINUOUS
 62
24
 10
-4.76880321604142
 20
2.14240821261081
 30
0.0
 11
-4.85559616001106
 21
2.22920115658044
 31
0.0
  0
LINE
  8
24
  6
CONTINUOUS
 62
24
 10
-4.65024184970966
 20
2.17417663497293
 30
0.0
 11
-4.76880321604142
 21
2.14240821261081
 31
0.0
  0
LINE
  8
24
  6
CONTINUOUS
 62
24
 10
-4.61847342734753
 20
2.2927380013047
 30
0.0
 11
-4.65024184970966
 21
2.17417663497293
 31
0.0
  0
LINE
  8
24
  6
CONTINUOUS
 62
24
 10
-4.70526637131717
 20
2.5361089996108
 30
0.0
 11
-4.61847342734753
 21
2.62290194358044
 31
0.0
  0
LINE
  8
24
  6
CONTINUOUS
 62
24
 10
-4.82382773764893
 20
2.56787742197293
 30
0.0
 11
-4.70526637131717
 21
2.5361089996108
 31
0.0
  0
LINE
  8
24
  6
CONTINUOUS
 62
24
 10
-4.85559616001106
 20
2.6864387883047
 30
0.0
 11
-4.82382773764893
 21
2.56787742197293
 31
0.0
  0
LINE
  8
24
  6
CONTINUOUS
 62
24
 10
-4.76880321604142
 20
2.77323173227433
 30
0.0
 11
-4.85559616001106
 21
2.6864387883047
 31
0.0
  0
LINE
  8
24
  6
CONTINUOUS
 62
24
 10
-4.65024184970966
 20
2.74146330991221
 30
0.0
 11
-4.76880321604142
 21
2.77323173227433
 31
0.0
  0
LINE
  8
24
  6
CONTINUOUS
 62
24
 10
-4.61847342734753
 20
2.62290194358044
 30
0.0
 11
-4.65024184970966
 21
2.74146330991221
 31
0.0
  0
LINE
  8
24
  6
CONTINUOUS
 62
24
 10
-2.83966935804142
 20
2.5361089996108
 30
0.0
 11
-2.92646230201106
 21
2.62290194358044
 31
0.0
  0
LINE
  8
24
  6
CONTINUOUS
 62
24
 10
-2.72110799170965
 20
2.56787742197293
 30
0.0
 11
-2.83966935804142
 21
2.5361089996108
 31
0.0
  0
LINE
  8
24
  6
CONTINUOUS
 62
24
 10
-2.68933956934753
 20
2.6864387883047
 30
0.0
 11
-2.72110799170965
 21
2.56787742197293
 31
0.0
  0
LINE
  8
24
  6
CONTINUOUS
 62
24
 10
-2.77613251331717
 20
2.77323173227433
 30
0.0
 11
-2.68933956934753
 21
2.6864387883047
 31
0.0
  0
LINE
  8
24
  6
CONTINUOUS
 62
24
 10
-2.89469387964893
 20
2.74146330991221
 30
0.0
 11
-2.77613251331717
 21
2.77323173227433
 31
0.0
  0
LINE
  8
24
  6
CONTINUOUS
 62
24
 10
-2.92646230201106
 20
2.62290194358044
 30
0.0
 11
-2.89469387964893
 21
2.74146330991221
 31
0.0
  0
LINE
  8
24
  6
CONTINUOUS
 62
24
 10
-2.83966935804142
 20
2.37953094527433
 30
0.0
 11
-2.92646230201106
 21
2.2927380013047
 31
0.0
  0
LINE
  8
24
  6
CONTINUOUS
 62
24
 10
-2.72110799170965
 20
2.34776252291221
 30
0.0
 11
-2.83966935804142
 21
2.37953094527433
 31
0.0
  0
LINE
  8
24
  6
CONTINUOUS
 62
24
 10
-2.68933956934753
 20
2.22920115658044
 30
0.0
 11
-2.72110799170965
 21
2.34776252291221
 31
0.0
  0
LINE
  8
24
  6
CONTINUOUS
 62
24
 10
-2.77613251331717
 20
2.14240821261081
 30
0.0
 11
-2.68933956934753
 21
2.22920115658044
 31
0.0
  0
LINE
  8
24
  6
CONTINUOUS
 62
24
 10
-2.89469387964893
 20
2.17417663497293
 30
0.0
 11
-2.77613251331717
 21
2.14240821261081
 31
0.0
  0
LINE
  8
24
  6
CONTINUOUS
 62
24
 10
-2.92646230201106
 20
2.2927380013047
 30
0.0
 11
-2.89469387964893
 21
2.17417663497293
 31
0.0
  0
ARC
  8
24
  6
CONTINUOUS
 62
24
 10
-2.68979070017929
 20
1.76884359494257
 30
0.0
 40
0.118110236
 50
359.999999999999
 51
180
  0
ARC
  8
24
  6
CONTINUOUS
 62
24
 10
-2.68979070017929
 20
1.76884359494257
 30
0.0
 40
0.118110236
 50
179.999999999999
 51
359.999999999999
  0
ENDSEC
  0
EOF
