999
File generated by Conversation
0
SECTION
2
HEADER
0
SECTION
2
HEADER
9
$ACADVER
1
AC1021
9
$INSBASE
10
0.0
20
0.0
30
0.0
9
$INSUNITS
70
4
9
$EXTMIN
10
0.0
20
0.0
30
0.0
9
$EXTMAX
10
1000.0
20
1000.0
30
0.0
0
ENDSEC
0
SECTION
2
TABLES
0
TABLE
2
LTYPE
70
1
0
LTYPE
2
CONTINUOUS
70
64
3
Solid line
72
65
73
0
40
0.0
0
ENDTAB
0
TABLE
2
LAYER
70
1
0
LAYER
2
0
70
64
62
7
6
CONTINUOUS
0
ENDTAB
0
TABLE
2
STYLE
70
1
0
STYLE
2
STANDARD
70
0
40
0.0
41
1.0
50
0.0
71
0
42
0.2
3
txt
4

0
ENDTAB
0
ENDSEC
0
SECTION
2
ENTITIES
0
LINE
8
0
62
2
10
-23.693081
20
-1.988541
30
0.0
11
-21.488541
21
-4.193082
31
0.0
0
LINE
8
0
62
2
10
-26.704540
20
-2.795459
30
0.0
11
-23.693081
21
-1.988541
31
0.0
0
LINE
8
0
62
2
10
-27.511459
20
-5.806918
30
0.0
11
-26.704540
21
-2.795459
31
0.0
0
LINE
8
0
62
2
10
-25.306917
20
-8.011458
30
0.0
11
-27.511459
21
-5.806918
31
0.0
0
LINE
8
0
62
2
10
-22.295460
20
-7.204541
30
0.0
11
-25.306917
21
-8.011458
31
0.0
0
LINE
8
0
62
2
10
-21.488541
20
-4.193082
30
0.0
11
-22.295460
21
-7.204541
31
0.0
0
LINE
8
0
62
2
10
-23.693081
20
1.988541
30
0.0
11
-21.488541
21
4.193082
31
0.0
0
LINE
8
0
62
2
10
-26.704540
20
2.795459
30
0.0
11
-23.693081
21
1.988541
31
0.0
0
LINE
8
0
62
2
10
-27.511459
20
5.806918
30
0.0
11
-26.704540
21
2.795459
31
0.0
0
LINE
8
0
62
2
10
-25.306917
20
8.011458
30
0.0
11
-27.511459
21
5.806918
31
0.0
0
LINE
8
0
62
2
10
-22.295460
20
7.204541
30
0.0
11
-25.306917
21
8.011458
31
0.0
0
LINE
8
0
62
2
10
-21.488541
20
4.193082
30
0.0
11
-22.295460
21
7.204541
31
0.0
0
LINE
8
0
62
2
10
23.693081
20
1.988541
30
0.0
11
21.488541
21
4.193082
31
0.0
0
LINE
8
0
62
2
10
26.704540
20
2.795459
30
0.0
11
23.693081
21
1.988541
31
0.0
0
LINE
8
0
62
2
10
27.511459
20
5.806918
30
0.0
11
26.704540
21
2.795459
31
0.0
0
LINE
8
0
62
2
10
25.306917
20
8.011458
30
0.0
11
27.511459
21
5.806918
31
0.0
0
LINE
8
0
62
2
10
22.295460
20
7.204541
30
0.0
11
25.306917
21
8.011458
31
0.0
0
LINE
8
0
62
2
10
21.488541
20
4.193082
30
0.0
11
22.295460
21
7.204541
31
0.0
0
LINE
8
0
62
2
10
26.704540
20
-2.795459
30
0.0
11
23.693081
21
-1.988541
31
0.0
0
LINE
8
0
62
2
10
27.511459
20
-5.806918
30
0.0
11
26.704540
21
-2.795459
31
0.0
0
LINE
8
0
62
2
10
25.306917
20
-8.011458
30
0.0
11
27.511459
21
-5.806918
31
0.0
0
LINE
8
0
62
2
10
22.295460
20
-7.204541
30
0.0
11
25.306917
21
-8.011458
31
0.0
0
LINE
8
0
62
2
10
21.488541
20
-4.193082
30
0.0
11
22.295460
21
-7.204541
31
0.0
0
LINE
8
0
62
1
10
30.000000
20
-25.000000
30
0.0
11
-30.000000
21
-25.000000
31
0.0
0
LINE
8
0
62
1
10
-30.000000
20
25.000000
30
0.0
11
30.000000
21
25.000000
31
0.0
0
LINE
8
0
62
1
10
-35.000000
20
20.000000
30
0.0
11
-35.000000
21
-20.000000
31
0.0
0
LINE
8
0
62
1
10
35.000000
20
20.000000
30
0.0
11
35.000000
21
-20.000000
31
0.0
0
ARC
8
0
62
1
10
-30.000000
20
20.000000
30
0.0
40
5.000000
50
90.000000
51
180.000000
0
ARC
8
0
62
1
10
30.000000
20
20.000000
30
0.0
40
5.000000
50
0.000000
51
90.000000
0
ARC
8
0
62
1
10
30.000000
20
-20.000000
30
0.0
40
5.000000
50
270.000000
51
0.000000
0
ARC
8
0
62
1
10
-30.000000
20
-20.000000
30
0.0
40
5.000000
50
180.000000
51
270.000000
0
LINE
8
0
62
1
10
27.049999
20
1.000000
30
0.0
11
21.500000
21
1.000000
31
0.0
0
LINE
8
0
62
1
10
27.049999
20
-1.000000
30
0.0
11
21.500000
21
-1.000000
31
0.0
0
ARC
8
0
62
1
10
27.049999
20
-0.000000
30
0.0
40
1.000000
50
270.000000
51
90.000000
0
LINE
8
0
62
1
10
-27.049999
20
1.000000
30
0.0
11
-21.500000
21
1.000000
31
0.0
0
LINE
8
0
62
1
10
-27.049999
20
-1.000000
30
0.0
11
-21.500000
21
-1.000000
31
0.0
0
ARC
8
0
62
1
10
-27.049999
20
-0.000000
30
0.0
40
1.000000
50
90.000000
51
270.000000
0
ARC
8
0
62
1
10
-21.500000
20
2.000000
30
0.0
40
1.000000
50
270.000000
51
0.000000
0
CIRCLE
8
0
62
1
10
24.500000
20
5.000000
30
0.0
40
1.700001
0
CIRCLE
8
0
62
1
10
27.499998
20
17.500000
30
0.0
40
1.700001
0
CIRCLE
8
0
62
3
10
27.499998
20
17.500000
30
0.0
40
3.000000
0
CIRCLE
8
0
62
1
10
-24.500000
20
5.000000
30
0.0
40
1.700001
0
CIRCLE
8
0
62
1
10
-27.499998
20
17.500000
30
0.0
40
1.700001
0
CIRCLE
8
0
62
3
10
-27.499998
20
17.500000
30
0.0
40
3.000000
0
CIRCLE
8
0
62
1
10
-24.500000
20
-5.000000
30
0.0
40
1.700001
0
CIRCLE
8
0
62
1
10
-27.499998
20
-17.500000
30
0.0
40
1.700001
0
CIRCLE
8
0
62
3
10
-27.499998
20
-17.500000
30
0.0
40
3.000000
0
CIRCLE
8
0
62
1
10
24.500000
20
-5.000000
30
0.0
40
1.700001
0
CIRCLE
8
0
62
1
10
27.499998
20
-17.500000
30
0.0
40
1.700001
0
CIRCLE
8
0
62
3
10
27.499998
20
-17.500000
30
0.0
40
3.000000
0
ARC
8
0
62
1
10
-18.750877
20
11.400001
30
0.0
40
1.000000
50
238.600266
51
270.000000
0
ARC
8
0
62
1
10
-19.792891
20
9.692895
30
0.0
40
1.000000
50
58.600204
51
134.999939
0
ARC
8
0
62
1
10
-19.792891
20
9.692895
30
0.0
40
1.000000
50
134.999939
51
211.399658
0
ARC
8
0
62
1
10
19.792891
20
9.692895
30
0.0
40
1.000000
50
45.000061
51
121.399796
0
ARC
8
0
62
1
10
19.792891
20
9.692895
30
0.0
40
1.000000
50
328.600342
51
45.000061
0
ARC
8
0
62
1
10
21.499998
20
-8.650887
30
0.0
40
1.000000
50
180.000000
51
211.399658
0
ARC
8
0
62
1
10
18.750877
20
-11.400001
30
0.0
40
1.000000
50
58.600281
51
90.000000
0
ARC
8
0
62
1
10
19.792891
20
-9.692895
30
0.0
40
1.000000
50
238.600204
51
314.999939
0
ARC
8
0
62
1
10
19.792891
20
-9.692895
30
0.0
40
1.000000
50
314.999939
51
31.399658
0
ARC
8
0
62
1
10
-21.499998
20
-8.650887
30
0.0
40
1.000000
50
328.600342
51
0.000000
0
ARC
8
0
62
1
10
-19.792891
20
-9.692895
30
0.0
40
1.000000
50
225.000061
51
301.399780
0
ARC
8
0
62
1
10
-19.792891
20
-9.692895
30
0.0
40
1.000000
50
148.600342
51
225.000061
0
ARC
8
0
62
1
10
-21.500000
20
-2.000000
30
0.0
40
1.000000
50
0.000000
51
90.000000
0
LINE
8
0
62
1
10
-20.500000
20
-2.000000
30
0.0
11
-20.499998
21
-8.650887
31
0.0
0
ARC
8
0
62
1
10
-21.499998
20
8.650887
30
0.0
40
1.000000
50
0.000000
51
31.399666
0
LINE
8
0
62
1
10
-20.500000
20
2.000000
30
0.0
11
-20.499998
21
8.650887
31
0.0
0
ARC
8
0
62
1
10
18.750877
20
11.400001
30
0.0
40
1.000000
50
270.000000
51
301.399719
0
LINE
8
0
62
1
10
-18.750877
20
10.400001
30
0.0
11
18.750877
21
10.400001
31
0.0
0
ARC
8
0
62
1
10
21.499998
20
8.650887
30
0.0
40
1.000000
50
148.600342
51
179.999985
0
ARC
8
0
62
1
10
21.500000
20
2.000000
30
0.0
40
1.000000
50
180.000015
51
270.000000
0
LINE
8
0
62
1
10
20.499998
20
8.650887
30
0.0
11
20.500000
21
2.000000
31
0.0
0
LINE
8
0
62
2
10
23.693081
20
-1.988541
30
0.0
11
21.488541
21
-4.193082
31
0.0
0
ARC
8
0
62
1
10
21.500000
20
-2.000000
30
0.0
40
1.000000
50
90.000000
51
179.999985
0
LINE
8
0
62
1
10
20.500000
20
-2.000000
30
0.0
11
20.499998
21
-8.650887
31
0.0
0
ARC
8
0
62
1
10
-18.750877
20
-11.400001
30
0.0
40
1.000000
50
90.000000
51
121.399719
0
LINE
8
0
62
1
10
18.750877
20
-10.400001
30
0.0
11
-18.750877
21
-10.400001
31
0.0
0
ENDSEC
0
EOF
