  0
SECTION
  2
HEADER
  9
$ACADVER
  1
AC1003
  9
$EXTMIN
 10
-4.9289741240828
 20
-1.00227477925679
  9
$EXTMAX
 10
9.704724401
 20
-12.4439646588089
  9
$INSUNITS
 70
1
  9
$INSBASE
 10
2.3878751384586
 20
-6.72311971903285
999
Created with OMAX LAYOUT for Windows. (www.omax.com) 3/8/2024
  0
ENDSEC
  0
SECTION
  2
TABLES
  0
TABLE
  2
LAYER
 70
    10
  0
LAYER
  2
0
 70
     0
 62
     7
  6
CONTINUOUS
  0
LAYER
  2
1
 70
     0
 62
     7
  6
CONTINUOUS
  0
LAYER
  2
2
 70
     0
 62
     7
  6
CONTINUOUS
  0
LAYER
  2
3
 70
     0
 62
     7
  6
CONTINUOUS
  0
LAYER
  2
4
 70
     0
 62
     7
  6
CONTINUOUS
  0
LAYER
  2
5
 70
     0
 62
     7
  6
CONTINUOUS
  0
LAYER
  2
6
 70
     0
 62
     7
  6
CONTINUOUS
  0
LAYER
  2
7
 70
     0
 62
     7
  6
CONTINUOUS
  0
LAYER
  2
8
 70
     0
 62
     7
  6
CONTINUOUS
  0
LAYER
  2
9
 70
     0
 62
     7
  6
CONTINUOUS
  0
LAYER
  2
10
 70
     0
 62
     7
  6
CONTINUOUS
  0
LAYER
  2
11
 70
     0
 62
     7
  6
CONTINUOUS
  0
LAYER
  2
12
 70
     0
 62
     7
  6
CONTINUOUS
  0
LAYER
  2
13
 70
     0
 62
     7
  6
CONTINUOUS
  0
LAYER
  2
14
 70
     0
 62
     7
  6
CONTINUOUS
  0
LAYER
  2
15
 70
     0
 62
     7
  6
CONTINUOUS
  0
LAYER
  2
16
 70
     0
 62
     7
  6
CONTINUOUS
  0
LAYER
  2
17
 70
     0
 62
     7
  6
CONTINUOUS
  0
LAYER
  2
18
 70
     0
 62
     7
  6
CONTINUOUS
  0
LAYER
  2
19
 70
     0
 62
     7
  6
CONTINUOUS
  0
LAYER
  2
20
 70
     0
 62
     7
  6
CONTINUOUS
  0
LAYER
  2
21
 70
     0
 62
     7
  6
CONTINUOUS
  0
LAYER
  2
22
 70
     0
 62
     7
  6
CONTINUOUS
  0
LAYER
  2
23
 70
     0
 62
     7
  6
CONTINUOUS
  0
LAYER
  2
24
 70
     0
 62
     7
  6
CONTINUOUS
  0
LAYER
  2
25
 70
     0
 62
     7
  6
CONTINUOUS
  0
LAYER
  2
26
 70
     0
 62
     7
  6
CONTINUOUS
  0
LAYER
  2
27
 70
     0
 62
     7
  6
CONTINUOUS
  0
LAYER
  2
28
 70
     0
 62
     7
  6
CONTINUOUS
  0
LAYER
  2
29
 70
     0
 62
     7
  6
CONTINUOUS
  0
LAYER
  2
30
 70
     0
 62
     7
  6
CONTINUOUS
  0
LAYER
  2
31
 70
     0
 62
     7
  6
CONTINUOUS
  0
ENDTAB
  0
ENDSEC
  0
SECTION
  2
ENTITIES
  0
ARC
  8
2
  6
CONTINUOUS
 62
2
 10
-2.86797644526983
 20
-10.4754607218089
 30
0.0
 40
0.118110236
 50
359.999999999998
 51
180
  0
ARC
  8
2
  6
CONTINUOUS
 62
2
 10
-2.86797644526983
 20
-10.4754607218089
 30
0.0
 40
0.118110236
 50
179.999999999998
 51
359.999999999998
  0
ARC
  8
2
  6
CONTINUOUS
 62
2
 10
-1.29317329626983
 20
-10.4754607218089
 30
0.0
 40
0.118110236000001
 50
359.999999999998
 51
180
  0
ARC
  8
2
  6
CONTINUOUS
 62
2
 10
-1.29317329626983
 20
-10.4754607218089
 30
0.0
 40
0.118110236000001
 50
179.999999999998
 51
359.999999999998
  0
ARC
  8
2
  6
CONTINUOUS
 62
2
 10
4.78766331122208
 20
-8.68616579927221
 30
0.0
 40
0.118110236
 50
359.999999999997
 51
180
  0
ARC
  8
2
  6
CONTINUOUS
 62
2
 10
4.78766331122208
 20
-8.68616579927221
 30
0.0
 40
0.118110236
 50
179.999999999996
 51
359.999999999996
  0
ARC
  8
2
  6
CONTINUOUS
 62
2
 10
4.78766331122208
 20
-10.0641185542722
 30
0.0
 40
0.118110236
 50
359.999999999996
 51
180
  0
ARC
  8
2
  6
CONTINUOUS
 62
2
 10
4.78766331122208
 20
-10.0641185542722
 30
0.0
 40
0.118110236
 50
179.999999999996
 51
359.999999999996
  0
ARC
  8
2
  6
CONTINUOUS
 62
2
 10
6.95301764022209
 20
-8.68616579927221
 30
0.0
 40
0.118110236000001
 50
359.999999999997
 51
180
  0
ARC
  8
2
  6
CONTINUOUS
 62
2
 10
6.95301764022209
 20
-8.68616579927221
 30
0.0
 40
0.118110236000001
 50
179.999999999996
 51
359.999999999996
  0
LINE
  8
2
  6
CONTINUOUS
 62
2
 10
5.02433491305385
 20
-9.54022414791008
 30
0.0
 11
4.9375419690842
 21
-9.45343120394045
 31
0.0
  0
LINE
  8
2
  6
CONTINUOUS
 62
2
 10
4.9375419690842
 20
-9.45343120394045
 30
0.0
 11
4.81898060275244
 21
-9.48519962630257
 31
0.0
  0
LINE
  8
2
  6
CONTINUOUS
 62
2
 10
4.81898060275244
 20
-9.48519962630257
 30
0.0
 11
4.78721218039032
 21
-9.60376099263434
 31
0.0
  0
LINE
  8
2
  6
CONTINUOUS
 62
2
 10
4.78721218039032
 20
-9.60376099263434
 30
0.0
 11
4.87400512435995
 21
-9.69055393660397
 31
0.0
  0
LINE
  8
2
  6
CONTINUOUS
 62
2
 10
4.87400512435995
 20
-9.69055393660397
 30
0.0
 11
4.99256649069171
 21
-9.65878551424185
 31
0.0
  0
LINE
  8
2
  6
CONTINUOUS
 62
2
 10
4.99256649069171
 20
-9.65878551424185
 30
0.0
 11
5.02433491305385
 21
-9.54022414791008
 31
0.0
  0
LINE
  8
2
  6
CONTINUOUS
 62
2
 10
5.02433491305385
 20
-9.21006020563434
 30
0.0
 11
4.9375419690842
 21
-9.29685314960398
 31
0.0
  0
LINE
  8
2
  6
CONTINUOUS
 62
2
 10
4.9375419690842
 20
-9.29685314960398
 30
0.0
 11
4.81898060275244
 21
-9.26508472724185
 31
0.0
  0
LINE
  8
2
  6
CONTINUOUS
 62
2
 10
4.81898060275244
 20
-9.26508472724185
 30
0.0
 11
4.78721218039032
 21
-9.14652336091008
 31
0.0
  0
LINE
  8
2
  6
CONTINUOUS
 62
2
 10
4.78721218039032
 20
-9.14652336091008
 30
0.0
 11
4.87400512435995
 21
-9.05973041694045
 31
0.0
  0
LINE
  8
2
  6
CONTINUOUS
 62
2
 10
4.87400512435995
 20
-9.05973041694045
 30
0.0
 11
4.99256649069171
 21
-9.09149883930257
 31
0.0
  0
LINE
  8
2
  6
CONTINUOUS
 62
2
 10
4.99256649069171
 20
-9.09149883930257
 30
0.0
 11
5.02433491305385
 21
-9.21006020563434
 31
0.0
  0
LINE
  8
2
  6
CONTINUOUS
 62
2
 10
6.71634603839031
 20
-9.21006020563434
 30
0.0
 11
6.80313898235996
 21
-9.29685314960398
 31
0.0
  0
LINE
  8
2
  6
CONTINUOUS
 62
2
 10
6.80313898235996
 20
-9.29685314960398
 30
0.0
 11
6.92170034869172
 21
-9.26508472724185
 31
0.0
  0
LINE
  8
2
  6
CONTINUOUS
 62
2
 10
6.92170034869172
 20
-9.26508472724185
 30
0.0
 11
6.95346877105385
 21
-9.14652336091008
 31
0.0
  0
LINE
  8
2
  6
CONTINUOUS
 62
2
 10
6.95346877105385
 20
-9.14652336091008
 30
0.0
 11
6.8666758270842
 21
-9.05973041694045
 31
0.0
  0
LINE
  8
2
  6
CONTINUOUS
 62
2
 10
6.8666758270842
 20
-9.05973041694045
 30
0.0
 11
6.74811446075245
 21
-9.09149883930257
 31
0.0
  0
LINE
  8
2
  6
CONTINUOUS
 62
2
 10
6.74811446075245
 20
-9.09149883930257
 30
0.0
 11
6.71634603839031
 21
-9.21006020563434
 31
0.0
  0
LINE
  8
2
  6
CONTINUOUS
 62
2
 10
6.71634603839031
 20
-9.54022414791008
 30
0.0
 11
6.80313898235996
 21
-9.45343120394045
 31
0.0
  0
LINE
  8
2
  6
CONTINUOUS
 62
2
 10
6.80313898235996
 20
-9.45343120394045
 30
0.0
 11
6.92170034869172
 21
-9.48519962630257
 31
0.0
  0
LINE
  8
2
  6
CONTINUOUS
 62
2
 10
6.92170034869172
 20
-9.48519962630257
 30
0.0
 11
6.95346877105385
 21
-9.60376099263434
 31
0.0
  0
LINE
  8
2
  6
CONTINUOUS
 62
2
 10
6.95346877105385
 20
-9.60376099263434
 30
0.0
 11
6.8666758270842
 21
-9.69055393660397
 31
0.0
  0
LINE
  8
2
  6
CONTINUOUS
 62
2
 10
6.8666758270842
 20
-9.69055393660397
 30
0.0
 11
6.74811446075245
 21
-9.65878551424185
 31
0.0
  0
LINE
  8
2
  6
CONTINUOUS
 62
2
 10
6.74811446075245
 20
-9.65878551424185
 30
0.0
 11
6.71634603839031
 21
-9.54022414791008
 31
0.0
  0
ARC
  8
2
  6
CONTINUOUS
 62
2
 10
6.95301764022209
 20
-10.0641185542722
 30
0.0
 40
0.118110236000001
 50
359.999999999996
 51
180
  0
ARC
  8
2
  6
CONTINUOUS
 62
2
 10
6.95301764022209
 20
-10.0641185542722
 30
0.0
 40
0.118110236000001
 50
179.999999999996
 51
359.999999999996
  0
LINE
  8
2
  6
CONTINUOUS
 62
2
 10
-4.09700388295138
 20
-2.93958802398113
 30
0.0
 11
-4.20330309595118
 21
-2.87821614474107
 31
0.0
  0
LINE
  8
2
  6
CONTINUOUS
 62
2
 10
-4.20330309595118
 20
-2.87821614474107
 30
0.0
 11
-4.30960230895097
 21
-2.93958802398114
 31
0.0
  0
LINE
  8
2
  6
CONTINUOUS
 62
2
 10
-4.30960230895097
 20
-2.93958802398114
 30
0.0
 11
-4.30960230895096
 21
-3.06233178246129
 31
0.0
  0
LINE
  8
2
  6
CONTINUOUS
 62
2
 10
-4.30960230895096
 20
-3.06233178246129
 30
0.0
 11
-4.20330309595118
 21
-3.12370366170136
 31
0.0
  0
LINE
  8
2
  6
CONTINUOUS
 62
2
 10
-4.20330309595118
 20
-3.12370366170136
 30
0.0
 11
-4.09700388295139
 21
-3.06233178246129
 31
0.0
  0
LINE
  8
2
  6
CONTINUOUS
 62
2
 10
-4.09700388295139
 20
-3.06233178246129
 30
0.0
 11
-4.09700388295138
 21
-2.93958802398113
 31
0.0
  0
LINE
  8
2
  6
CONTINUOUS
 62
2
 10
-2.38046845095095
 20
-2.93958802398113
 30
0.0
 11
-2.27416923795115
 21
-2.87821614474107
 31
0.0
  0
LINE
  8
2
  6
CONTINUOUS
 62
2
 10
-2.27416923795115
 20
-2.87821614474107
 30
0.0
 11
-2.16787002495136
 21
-2.93958802398114
 31
0.0
  0
LINE
  8
2
  6
CONTINUOUS
 62
2
 10
-2.16787002495136
 20
-2.93958802398114
 30
0.0
 11
-2.16787002495137
 21
-3.06233178246129
 31
0.0
  0
LINE
  8
2
  6
CONTINUOUS
 62
2
 10
-2.16787002495137
 20
-3.06233178246129
 30
0.0
 11
-2.27416923795115
 21
-3.12370366170136
 31
0.0
  0
LINE
  8
2
  6
CONTINUOUS
 62
2
 10
-2.27416923795115
 20
-3.12370366170136
 30
0.0
 11
-2.38046845095094
 21
-3.06233178246129
 31
0.0
  0
LINE
  8
2
  6
CONTINUOUS
 62
2
 10
-2.38046845095094
 20
-3.06233178246129
 30
0.0
 11
-2.38046845095095
 21
-2.93958802398113
 31
0.0
  0
LINE
  8
2
  6
CONTINUOUS
 62
2
 10
-2.38046845095095
 20
-2.6686309954613
 30
0.0
 11
-2.27416923795115
 21
-2.73000287470137
 31
0.0
  0
LINE
  8
2
  6
CONTINUOUS
 62
2
 10
-2.27416923795115
 20
-2.73000287470137
 30
0.0
 11
-2.16787002495136
 21
-2.6686309954613
 31
0.0
  0
LINE
  8
2
  6
CONTINUOUS
 62
2
 10
-2.16787002495136
 20
-2.6686309954613
 30
0.0
 11
-2.16787002495137
 21
-2.54588723698115
 31
0.0
  0
LINE
  8
2
  6
CONTINUOUS
 62
2
 10
-2.16787002495137
 20
-2.54588723698115
 30
0.0
 11
-2.27416923795115
 21
-2.48451535774108
 31
0.0
  0
LINE
  8
2
  6
CONTINUOUS
 62
2
 10
-2.27416923795115
 20
-2.48451535774108
 30
0.0
 11
-2.38046845095094
 21
-2.54588723698115
 31
0.0
  0
LINE
  8
2
  6
CONTINUOUS
 62
2
 10
-2.38046845095094
 20
-2.54588723698115
 30
0.0
 11
-2.38046845095095
 21
-2.6686309954613
 31
0.0
  0
LINE
  8
2
  6
CONTINUOUS
 62
2
 10
-4.09700388295138
 20
-2.6686309954613
 30
0.0
 11
-4.20330309595118
 21
-2.73000287470137
 31
0.0
  0
LINE
  8
2
  6
CONTINUOUS
 62
2
 10
-4.20330309595118
 20
-2.73000287470137
 30
0.0
 11
-4.30960230895097
 21
-2.6686309954613
 31
0.0
  0
LINE
  8
2
  6
CONTINUOUS
 62
2
 10
-4.30960230895097
 20
-2.6686309954613
 30
0.0
 11
-4.30960230895096
 21
-2.54588723698115
 31
0.0
  0
LINE
  8
2
  6
CONTINUOUS
 62
2
 10
-4.30960230895096
 20
-2.54588723698115
 30
0.0
 11
-4.20330309595118
 21
-2.48451535774108
 31
0.0
  0
LINE
  8
2
  6
CONTINUOUS
 62
2
 10
-4.20330309595118
 20
-2.48451535774108
 30
0.0
 11
-4.09700388295139
 21
-2.54588723698115
 31
0.0
  0
LINE
  8
2
  6
CONTINUOUS
 62
2
 10
-4.09700388295139
 20
-2.54588723698115
 30
0.0
 11
-4.09700388295138
 21
-2.6686309954613
 31
0.0
  0
ARC
  8
4
  6
CONTINUOUS
 62
4
 10
-4.03190335567924
 20
-3.19963890294929
 30
0.0
 40
0.01968504
 50
165.342634205709
 51
224.999999999999
  0
ARC
  8
4
  6
CONTINUOUS
 62
4
 10
-4.03190335567924
 20
-3.19963890294929
 30
0.0
 40
0.0196850399999999
 50
225
 51
284.65736579429
  0
ARC
  8
4
  6
CONTINUOUS
 62
4
 10
-4.20330309595117
 20
-3.15480931398182
 30
0.0
 40
0.157480315000001
 50
345.342634205709
 51
5.16840135737822E-13
  0
ARC
  8
4
  6
CONTINUOUS
 62
4
 10
-3.98707376671178
 20
-3.37103864322122
 30
0.0
 40
0.157480315000004
 50
89.9999999999993
 51
104.657365794289
  0
ARC
  8
4
  6
CONTINUOUS
 62
4
 10
-2.44556897822312
 20
-3.19963890294929
 30
0.0
 40
0.0196850399999997
 50
315
 51
14.6573657942907
  0
ARC
  8
4
  6
CONTINUOUS
 62
4
 10
-2.44556897822312
 20
-3.19963890294929
 30
0.0
 40
0.0196850399999994
 50
255.342634205708
 51
314.999999999998
  0
ARC
  8
4
  6
CONTINUOUS
 62
4
 10
-2.27416923795119
 20
-3.15480931398182
 30
0.0
 40
0.157480314999999
 50
179.999999999998
 51
194.657365794289
  0
ARC
  8
4
  6
CONTINUOUS
 62
4
 10
-2.49039856719058
 20
-3.37103864322122
 30
0.0
 40
0.157480315000002
 50
75.3426342057101
 51
89.9999999999995
  0
LINE
  8
4
  6
CONTINUOUS
 62
4
 10
-2.43164955295117
 20
-2.55214100622118
 30
0.0
 11
-2.43164955295119
 21
-3.15480931398182
 31
0.0
  0
LINE
  8
4
  6
CONTINUOUS
 62
4
 10
6.85039369248995
 20
-3.18110235600001
 30
0.0
 11
8.8188976295
 21
-3.181102356
 31
0.0
  0
LINE
  8
4
  6
CONTINUOUS
 62
4
 10
6.85039369248995
 20
-3.43307086000001
 30
0.0
 11
8.8188976295
 21
-3.43307086000001
 31
0.0
  0
LINE
  8
4
  6
CONTINUOUS
 62
4
 10
8.8188976295
 20
-3.181102356
 30
0.0
 11
8.8188976295
 21
-3.43307086000001
 31
0.0
  0
LINE
  8
4
  6
CONTINUOUS
 62
4
 10
6.85039369248995
 20
-3.18110235600001
 30
0.0
 11
6.85039369248995
 21
-3.43307086000001
 31
0.0
  0
LINE
  8
4
  6
CONTINUOUS
 62
4
 10
7.00548581209843
 20
-3.26532833359843
 30
0.0
 11
7.0472440865
 21
-3.22357005919686
 31
0.0
  0
LINE
  8
4
  6
CONTINUOUS
 62
4
 10
7.08900236090157
 20
-3.26532833359843
 30
0.0
 11
7.0472440865
 21
-3.22357005919686
 31
0.0
  0
ARC
  8
4
  6
CONTINUOUS
 62
4
 10
7.0472440865
 20
-3.307086608
 30
0.0
 40
0.0590551180000007
 50
179.999999999996
 51
359.999999999996
  0
ARC
  8
4
  6
CONTINUOUS
 62
4
 10
7.0472440865
 20
-3.307086608
 30
0.0
 40
0.0590551179999991
 50
359.999999999999
 51
45.0000000000004
  0
ARC
  8
4
  6
CONTINUOUS
 62
4
 10
7.0472440865
 20
-3.307086608
 30
0.0
 40
0.059055117999999
 50
134.999999999999
 51
180
  0
LINE
  8
4
  6
CONTINUOUS
 62
4
 10
8.66380550990157
 20
-3.26532833359843
 30
0.0
 11
8.6220472355
 21
-3.22357005919686
 31
0.0
  0
LINE
  8
4
  6
CONTINUOUS
 62
4
 10
8.58028896109843
 20
-3.26532833359843
 30
0.0
 11
8.6220472355
 21
-3.22357005919686
 31
0.0
  0
ARC
  8
4
  6
CONTINUOUS
 62
4
 10
8.6220472355
 20
-3.307086608
 30
0.0
 40
0.0590551179999998
 50
179.999999999997
 51
359.999999999998
  0
ARC
  8
4
  6
CONTINUOUS
 62
4
 10
8.6220472355
 20
-3.307086608
 30
0.0
 40
0.0590551179999976
 50
135.000000000001
 51
180.000000000002
  0
ARC
  8
4
  6
CONTINUOUS
 62
4
 10
8.6220472355
 20
-3.307086608
 30
0.0
 40
0.059055117999999
 50
359.999999999996
 51
44.999999999998
  0
LINE
  8
4
  6
CONTINUOUS
 62
4
 10
3.58267715648493
 20
-2.3228346395
 30
0.0
 11
5.39370077950502
 21
-2.3228346395
 31
0.0
  0
ARC
  8
4
  6
CONTINUOUS
 62
4
 10
3.8011111458588
 20
-4.05617230413596
 30
0.0
 40
0.00984252000000026
 50
44.999999999999
 51
115.528779805093
  0
ARC
  8
4
  6
CONTINUOUS
 62
4
 10
3.8011111458588
 20
-4.05617230413596
 30
0.0
 40
0.00984252000000054
 50
334.471220194912
 51
44.9999999999971
  0
ARC
  8
4
  6
CONTINUOUS
 62
4
 10
3.82775589749477
 20
-4.06889763127345
 30
0.0
 40
0.0196850389999996
 50
154.471220194917
 51
180.000000000001
  0
ARC
  8
4
  6
CONTINUOUS
 62
4
 10
3.78838581872131
 20
-4.0295275525
 30
0.0
 40
0.0196850389999999
 50
269.999999999996
 51
295.528779805088
  0
ARC
  8
4
  6
CONTINUOUS
 62
4
 10
3.60046364113115
 20
-4.05617230413596
 30
0.0
 40
0.00984251999999987
 50
64.4712201949073
 51
135.000000000001
  0
ARC
  8
4
  6
CONTINUOUS
 62
4
 10
3.60046364113115
 20
-4.05617230413596
 30
0.0
 40
0.00984251999999923
 50
134.999999999999
 51
205.528779805083
  0
ARC
  8
4
  6
CONTINUOUS
 62
4
 10
3.57381888949518
 20
-4.06889763127345
 30
0.0
 40
0.0196850390000004
 50
359.999999999993
 51
25.5287798050788
  0
ARC
  8
4
  6
CONTINUOUS
 62
4
 10
3.61318896826865
 20
-4.0295275525
 30
0.0
 40
0.0196850389999999
 50
244.471220194911
 51
270.000000000003
  0
ARC
  8
4
  6
CONTINUOUS
 62
4
 10
3.60046364113115
 20
-4.13280406086403
 30
0.0
 40
0.00984251999999997
 50
224.999999999999
 51
295.528779805092
  0
ARC
  8
4
  6
CONTINUOUS
 62
4
 10
3.60046364113115
 20
-4.13280406086403
 30
0.0
 40
0.00984251999999998
 50
154.471220194915
 51
224.999999999999
  0
ARC
  8
4
  6
CONTINUOUS
 62
4
 10
3.57381888949519
 20
-4.12007873372654
 30
0.0
 40
0.0196850389999996
 50
334.471220194914
 51
359.999999999998
  0
ARC
  8
4
  6
CONTINUOUS
 62
4
 10
3.61318896826865
 20
-4.1594488125
 30
0.0
 40
0.019685039000001
 50
89.9999999999998
 51
115.528779805093
  0
ARC
  8
4
  6
CONTINUOUS
 62
4
 10
3.8011111458588
 20
-4.13280406086403
 30
0.0
 40
0.00984251999999997
 50
244.471220194907
 51
315
  0
ARC
  8
4
  6
CONTINUOUS
 62
4
 10
3.8011111458588
 20
-4.13280406086403
 30
0.0
 40
0.00984251999999981
 50
314.999999999999
 51
25.5287798050848
  0
ARC
  8
4
  6
CONTINUOUS
 62
4
 10
3.82775589749477
 20
-4.12007873372655
 30
0.0
 40
0.0196850389999994
 50
179.999999999995
 51
205.528779805079
  0
ARC
  8
4
  6
CONTINUOUS
 62
4
 10
3.78838581872131
 20
-4.1594488125
 30
0.0
 40
0.0196850389999999
 50
64.4712201949054
 51
89.999999999998
  0
LINE
  8
4
  6
CONTINUOUS
 62
4
 10
3.80807085849477
 20
-4.12007873372654
 30
0.0
 11
3.80807085849477
 21
-4.06889763127345
 31
0.0
  0
LINE
  8
4
  6
CONTINUOUS
 62
4
 10
3.61318896826865
 20
-4.0492125915
 30
0.0
 11
3.78838581872131
 21
-4.0492125915
 31
0.0
  0
LINE
  8
4
  6
CONTINUOUS
 62
4
 10
3.59350392849519
 20
-4.12007873372654
 30
0.0
 11
3.59350392849519
 21
-4.06889763127345
 31
0.0
  0
LINE
  8
4
  6
CONTINUOUS
 62
4
 10
3.78838581872131
 20
-4.1397637735
 30
0.0
 11
3.61318896826865
 21
-4.1397637735
 31
0.0
  0
ARC
  8
4
  6
CONTINUOUS
 62
4
 10
5.17526679013115
 20
-4.05617230413596
 30
0.0
 40
0.00984252000000025
 50
64.4712201949069
 51
135.000000000001
  0
ARC
  8
4
  6
CONTINUOUS
 62
4
 10
5.17526679013115
 20
-4.05617230413596
 30
0.0
 40
0.00984251999999916
 50
135.000000000002
 51
205.528779805086
  0
ARC
  8
4
  6
CONTINUOUS
 62
4
 10
5.14862203849519
 20
-4.06889763127345
 30
0.0
 40
0.0196850390000007
 50
359.999999999996
 51
25.5287798050817
  0
ARC
  8
4
  6
CONTINUOUS
 62
4
 10
5.18799211726865
 20
-4.0295275525
 30
0.0
 40
0.0196850390000011
 50
244.471220194912
 51
270.000000000005
  0
ARC
  8
4
  6
CONTINUOUS
 62
4
 10
5.3759142948588
 20
-4.05617230413596
 30
0.0
 40
0.00984252000000026
 50
44.999999999999
 51
115.528779805093
  0
ARC
  8
4
  6
CONTINUOUS
 62
4
 10
5.3759142948588
 20
-4.05617230413596
 30
0.0
 40
0.00984252000000054
 50
334.471220194912
 51
44.9999999999971
  0
ARC
  8
4
  6
CONTINUOUS
 62
4
 10
5.40255904649477
 20
-4.06889763127345
 30
0.0
 40
0.0196850389999996
 50
154.471220194917
 51
180.000000000001
  0
ARC
  8
4
  6
CONTINUOUS
 62
4
 10
5.36318896772131
 20
-4.0295275525
 30
0.0
 40
0.0196850389999992
 50
269.999999999995
 51
295.528779805088
  0
ARC
  8
4
  6
CONTINUOUS
 62
4
 10
5.3759142948588
 20
-4.13280406086403
 30
0.0
 40
0.00984252000000035
 50
244.471220194907
 51
315
  0
ARC
  8
4
  6
CONTINUOUS
 62
4
 10
5.3759142948588
 20
-4.13280406086403
 30
0.0
 40
0.00984251999999975
 50
315.000000000001
 51
25.528779805087
  0
ARC
  8
4
  6
CONTINUOUS
 62
4
 10
5.40255904649477
 20
-4.12007873372654
 30
0.0
 40
0.0196850389999989
 50
179.999999999998
 51
205.528779805082
  0
ARC
  8
4
  6
CONTINUOUS
 62
4
 10
5.36318896772131
 20
-4.1594488125
 30
0.0
 40
0.0196850389999999
 50
64.4712201949054
 51
89.999999999998
  0
ARC
  8
4
  6
CONTINUOUS
 62
4
 10
5.17526679013115
 20
-4.13280406086403
 30
0.0
 40
0.00984251999999959
 50
224.999999999998
 51
295.528779805091
  0
ARC
  8
4
  6
CONTINUOUS
 62
4
 10
5.17526679013115
 20
-4.13280406086403
 30
0.0
 40
0.00984251999999992
 50
154.471220194913
 51
224.999999999997
  0
ARC
  8
4
  6
CONTINUOUS
 62
4
 10
5.14862203849519
 20
-4.12007873372654
 30
0.0
 40
0.0196850389999991
 50
334.471220194916
 51
1.55847179391712E-12
  0
ARC
  8
4
  6
CONTINUOUS
 62
4
 10
5.18799211726865
 20
-4.1594488125
 30
0.0
 40
0.019685039000001
 50
89.9999999999998
 51
115.528779805093
  0
LINE
  8
4
  6
CONTINUOUS
 62
4
 10
5.16830707749519
 20
-4.12007873372654
 30
0.0
 11
5.16830707749519
 21
-4.06889763127345
 31
0.0
  0
LINE
  8
4
  6
CONTINUOUS
 62
4
 10
5.36318896772131
 20
-4.0492125915
 30
0.0
 11
5.18799211726865
 21
-4.0492125915
 31
0.0
  0
LINE
  8
4
  6
CONTINUOUS
 62
4
 10
5.38287400749477
 20
-4.12007873372654
 30
0.0
 11
5.38287400749477
 21
-4.06889763127345
 31
0.0
  0
LINE
  8
4
  6
CONTINUOUS
 62
4
 10
5.18799211726865
 20
-4.1397637735
 30
0.0
 11
5.36318896772131
 21
-4.1397637735
 31
0.0
  0
LINE
  8
4
  6
CONTINUOUS
 62
4
 10
5.39370077949498
 20
-4.2913385765
 30
0.0
 11
3.58267715649498
 21
-4.2913385765
 31
0.0
  0
ARC
  8
4
  6
CONTINUOUS
 62
4
 10
3.58267715648493
 20
-2.4015747965
 30
0.0
 40
0.0787401570000002
 50
89.999999999999
 51
179.999999999999
  0
ARC
  8
4
  6
CONTINUOUS
 62
4
 10
5.39370077950502
 20
-2.4015747965
 30
0.0
 40
0.0787401570000003
 50
359.999999999997
 51
89.9999999999992
  0
ARC
  8
4
  6
CONTINUOUS
 62
4
 10
5.39370077949498
 20
-4.2125984195
 30
0.0
 40
0.0787401569999997
 50
269.999999999996
 51
359.999999999997
  0
ARC
  8
4
  6
CONTINUOUS
 62
4
 10
3.58267715649498
 20
-4.2125984195
 30
0.0
 40
0.0787401570000002
 50
179.999999999997
 51
269.999999999996
  0
ARC
  8
4
  6
CONTINUOUS
 62
4
 10
4.78766331122208
 20
-8.68616579927221
 30
0.0
 40
0.0669291340000004
 50
359.999999999996
 51
180
  0
ARC
  8
4
  6
CONTINUOUS
 62
4
 10
4.78766331122208
 20
-8.68616579927221
 30
0.0
 40
0.0669291340000004
 50
179.999999999996
 51
359.999999999996
  0
ARC
  8
4
  6
CONTINUOUS
 62
4
 10
6.95301764022209
 20
-8.68616579927221
 30
0.0
 40
0.0669291339999996
 50
359.999999999996
 51
180
  0
ARC
  8
4
  6
CONTINUOUS
 62
4
 10
6.95301764022209
 20
-8.68616579927221
 30
0.0
 40
0.0669291339999996
 50
179.999999999999
 51
359.999999999999
  0
ARC
  8
4
  6
CONTINUOUS
 62
4
 10
6.95301764022209
 20
-10.0641185542722
 30
0.0
 40
0.0669291339999996
 50
179.999999999996
 51
359.999999999996
  0
ARC
  8
4
  6
CONTINUOUS
 62
4
 10
6.95301764022209
 20
-10.0641185542722
 30
0.0
 40
0.0669291339999996
 50
359.999999999996
 51
180
  0
ARC
  8
4
  6
CONTINUOUS
 62
4
 10
4.78766331122208
 20
-10.0641185542722
 30
0.0
 40
0.0669291340000004
 50
179.999999999999
 51
3.05333249420498E-13
  0
ARC
  8
4
  6
CONTINUOUS
 62
4
 10
4.78766331122208
 20
-10.0641185542722
 30
0.0
 40
0.0669291340000004
 50
359.999999999996
 51
180
  0
ARC
  8
4
  6
CONTINUOUS
 62
4
 10
6.83490740472209
 20
-9.17829178327221
 30
0.0
 40
0.0669291339999996
 50
359.999999999996
 51
180
  0
ARC
  8
4
  6
CONTINUOUS
 62
4
 10
6.83490740472209
 20
-9.17829178327221
 30
0.0
 40
0.0669291339999996
 50
179.999999999997
 51
359.999999999998
  0
ARC
  8
4
  6
CONTINUOUS
 62
4
 10
6.83490740472209
 20
-9.57199257027221
 30
0.0
 40
0.0669291339999996
 50
179.999999999996
 51
359.999999999996
  0
ARC
  8
4
  6
CONTINUOUS
 62
4
 10
6.83490740472209
 20
-9.57199257027221
 30
0.0
 40
0.0669291339999996
 50
359.999999999998
 51
180
  0
ARC
  8
4
  6
CONTINUOUS
 62
4
 10
4.90577354672208
 20
-9.17829178327221
 30
0.0
 40
0.0669291340000004
 50
359.999999999996
 51
180
  0
ARC
  8
4
  6
CONTINUOUS
 62
4
 10
4.90577354672208
 20
-9.17829178327221
 30
0.0
 40
0.0669291340000004
 50
179.999999999996
 51
359.999999999996
  0
ARC
  8
4
  6
CONTINUOUS
 62
4
 10
4.90577354672208
 20
-9.57199257027221
 30
0.0
 40
0.0669291340000004
 50
179.999999999999
 51
359.999999999999
  0
ARC
  8
4
  6
CONTINUOUS
 62
4
 10
4.90577354672208
 20
-9.57199257027221
 30
0.0
 40
0.0669291340000004
 50
359.999999999996
 51
180
  0
LINE
  8
4
  6
CONTINUOUS
 62
4
 10
-1.17506305926983
 20
-11.4597126903089
 30
0.0
 11
-2.98608668226983
 21
-11.4597126903089
 31
0.0
  0
LINE
  8
4
  6
CONTINUOUS
 62
4
 10
-3.06482683927987
 20
-9.56994891030886
 30
0.0
 11
-3.06482683926983
 21
-11.3809725333089
 31
0.0
  0
LINE
  8
4
  6
CONTINUOUS
 62
4
 10
-1.09632290225978
 20
-9.56994891030886
 30
0.0
 11
-1.09632290226983
 21
-11.3809725333089
 31
0.0
  0
LINE
  8
4
  6
CONTINUOUS
 62
4
 10
-2.98608668227987
 20
-9.49120875330886
 30
0.0
 11
-1.17506305925978
 21
-9.49120875330886
 31
0.0
  0
ARC
  8
4
  6
CONTINUOUS
 62
4
 10
-2.98608668227987
 20
-9.56994891030886
 30
0.0
 40
0.0787401569999987
 50
89.9999999999986
 51
179.999999999998
  0
ARC
  8
4
  6
CONTINUOUS
 62
4
 10
-1.17506305925978
 20
-9.56994891030886
 30
0.0
 40
0.0787401570000002
 50
359.999999999999
 51
89.9999999999993
  0
ARC
  8
4
  6
CONTINUOUS
 62
4
 10
-1.17506305926983
 20
-11.3809725333089
 30
0.0
 40
0.0787401570000015
 50
269.999999999998
 51
2.28999937065373E-13
  0
ARC
  8
4
  6
CONTINUOUS
 62
4
 10
-2.98608668226983
 20
-11.3809725333089
 30
0.0
 40
0.0787401570000001
 50
179.999999999997
 51
269.999999999998
  0
ARC
  8
4
  6
CONTINUOUS
 62
4
 10
-1.29317329626983
 20
-10.4754607218089
 30
0.0
 40
0.0669291340000004
 50
359.999999999998
 51
180
  0
ARC
  8
4
  6
CONTINUOUS
 62
4
 10
-1.29317329626983
 20
-10.4754607218089
 30
0.0
 40
0.0669291340000004
 50
179.999999999998
 51
359.999999999998
  0
ARC
  8
4
  6
CONTINUOUS
 62
4
 10
-2.86797644526983
 20
-10.4754607218089
 30
0.0
 40
0.0669291339999996
 50
359.999999999998
 51
180
  0
ARC
  8
4
  6
CONTINUOUS
 62
4
 10
-2.86797644526983
 20
-10.4754607218089
 30
0.0
 40
0.0669291339999996
 50
179.999999999998
 51
359.999999999998
  0
ARC
  8
4
  6
CONTINUOUS
 62
4
 10
3.8011111458588
 20
-2.55800091186404
 30
0.0
 40
0.00984252000000016
 50
244.471220194904
 51
314.999999999998
  0
ARC
  8
4
  6
CONTINUOUS
 62
4
 10
3.8011111458588
 20
-2.55800091186404
 30
0.0
 40
0.0098425199999998
 50
314.999999999999
 51
25.5287798050849
  0
ARC
  8
4
  6
CONTINUOUS
 62
4
 10
3.82775589749477
 20
-2.54527558472654
 30
0.0
 40
0.0196850390000004
 50
179.999999999998
 51
205.528779805082
  0
ARC
  8
4
  6
CONTINUOUS
 62
4
 10
3.78838581872131
 20
-2.5846456635
 30
0.0
 40
0.0196850390000001
 50
64.4712201949085
 51
90.0000000000005
  0
ARC
  8
4
  6
CONTINUOUS
 62
4
 10
3.60046364113115
 20
-2.55800091186403
 30
0.0
 40
0.00984251999999991
 50
225.000000000001
 51
295.528779805094
  0
ARC
  8
4
  6
CONTINUOUS
 62
4
 10
3.60046364113115
 20
-2.55800091186403
 30
0.0
 40
0.00984251999999998
 50
154.471220194915
 51
224.999999999999
  0
ARC
  8
4
  6
CONTINUOUS
 62
4
 10
3.57381888949519
 20
-2.54527558472655
 30
0.0
 40
0.0196850389999998
 50
334.471220194917
 51
2.43471460866032E-12
  0
ARC
  8
4
  6
CONTINUOUS
 62
4
 10
3.61318896826865
 20
-2.5846456635
 30
0.0
 40
0.0196850390000006
 50
89.9999999999981
 51
115.528779805091
  0
ARC
  8
4
  6
CONTINUOUS
 62
4
 10
3.60046364113115
 20
-2.48136915513596
 30
0.0
 40
0.00984251999999991
 50
64.4712201949074
 51
135.000000000001
  0
ARC
  8
4
  6
CONTINUOUS
 62
4
 10
3.60046364113115
 20
-2.48136915513596
 30
0.0
 40
0.00984251999999999
 50
135
 51
205.528779805084
  0
ARC
  8
4
  6
CONTINUOUS
 62
4
 10
3.57381888949519
 20
-2.49409448227345
 30
0.0
 40
0.0196850389999999
 50
359.999999999997
 51
25.5287798050822
  0
ARC
  8
4
  6
CONTINUOUS
 62
4
 10
3.61318896826865
 20
-2.4547244035
 30
0.0
 40
0.0196850390000006
 50
244.471220194905
 51
269.999999999998
  0
ARC
  8
4
  6
CONTINUOUS
 62
4
 10
3.8011111458588
 20
-2.48136915513596
 30
0.0
 40
0.0098425200000003
 50
45.0000000000016
 51
115.528779805094
  0
ARC
  8
4
  6
CONTINUOUS
 62
4
 10
3.8011111458588
 20
-2.48136915513596
 30
0.0
 40
0.00984251999999978
 50
334.471220194912
 51
44.9999999999979
  0
ARC
  8
4
  6
CONTINUOUS
 62
4
 10
3.82775589749477
 20
-2.49409448227345
 30
0.0
 40
0.0196850390000006
 50
154.471220194918
 51
180.000000000002
  0
ARC
  8
4
  6
CONTINUOUS
 62
4
 10
3.78838581872131
 20
-2.4547244035
 30
0.0
 40
0.0196850390000006
 50
270
 51
295.528779805093
  0
LINE
  8
4
  6
CONTINUOUS
 62
4
 10
3.80807085849477
 20
-2.49409448227345
 30
0.0
 11
3.80807085849477
 21
-2.54527558472654
 31
0.0
  0
LINE
  8
4
  6
CONTINUOUS
 62
4
 10
3.61318896826865
 20
-2.5649606245
 30
0.0
 11
3.78838581872131
 21
-2.5649606245
 31
0.0
  0
LINE
  8
4
  6
CONTINUOUS
 62
4
 10
3.59350392849519
 20
-2.49409448227345
 30
0.0
 11
3.59350392849519
 21
-2.54527558472654
 31
0.0
  0
LINE
  8
4
  6
CONTINUOUS
 62
4
 10
3.78838581872131
 20
-2.4744094425
 30
0.0
 11
3.61318896826865
 21
-2.4744094425
 31
0.0
  0
ARC
  8
4
  6
CONTINUOUS
 62
4
 10
5.17526679013115
 20
-2.55800091186403
 30
0.0
 40
0.00984252000000029
 50
225.000000000001
 51
295.528779805094
  0
ARC
  8
4
  6
CONTINUOUS
 62
4
 10
5.17526679013115
 20
-2.55800091186403
 30
0.0
 40
0.00984251999999992
 50
154.471220194913
 51
224.999999999997
  0
ARC
  8
4
  6
CONTINUOUS
 62
4
 10
5.14862203849519
 20
-2.54527558472655
 30
0.0
 40
0.0196850389999998
 50
334.471220194917
 51
2.43471460866032E-12
  0
ARC
  8
4
  6
CONTINUOUS
 62
4
 10
5.18799211726865
 20
-2.5846456635
 30
0.0
 40
0.0196850390000008
 50
89.9999999999969
 51
115.528779805091
  0
ARC
  8
4
  6
CONTINUOUS
 62
4
 10
5.3759142948588
 20
-2.55800091186404
 30
0.0
 40
0.00984252000000016
 50
244.471220194904
 51
314.999999999998
  0
ARC
  8
4
  6
CONTINUOUS
 62
4
 10
5.3759142948588
 20
-2.55800091186404
 30
0.0
 40
0.00984251999999974
 50
315.000000000001
 51
25.5287798050871
  0
ARC
  8
4
  6
CONTINUOUS
 62
4
 10
5.40255904649477
 20
-2.54527558472654
 30
0.0
 40
0.0196850390000004
 50
179.999999999998
 51
205.528779805082
  0
ARC
  8
4
  6
CONTINUOUS
 62
4
 10
5.36318896772131
 20
-2.5846456635
 30
0.0
 40
0.0196850389999994
 50
64.471220194908
 51
90.000000000001
  0
ARC
  8
4
  6
CONTINUOUS
 62
4
 10
5.3759142948588
 20
-2.48136915513596
 30
0.0
 40
0.0098425200000003
 50
45.0000000000016
 51
115.528779805094
  0
ARC
  8
4
  6
CONTINUOUS
 62
4
 10
5.3759142948588
 20
-2.48136915513596
 30
0.0
 40
0.00984251999999978
 50
334.471220194912
 51
44.9999999999979
  0
ARC
  8
4
  6
CONTINUOUS
 62
4
 10
5.40255904649477
 20
-2.49409448227345
 30
0.0
 40
0.0196850389999999
 50
154.471220194917
 51
180.000000000002
  0
ARC
  8
4
  6
CONTINUOUS
 62
4
 10
5.36318896772131
 20
-2.4547244035
 30
0.0
 40
0.0196850390000015
 50
270
 51
295.528779805093
  0
ARC
  8
4
  6
CONTINUOUS
 62
4
 10
5.17526679013115
 20
-2.48136915513596
 30
0.0
 40
0.00984251999999953
 50
64.4712201949078
 51
135.000000000001
  0
ARC
  8
4
  6
CONTINUOUS
 62
4
 10
5.17526679013115
 20
-2.48136915513596
 30
0.0
 40
0.00984251999999992
 50
135.000000000002
 51
205.528779805086
  0
ARC
  8
4
  6
CONTINUOUS
 62
4
 10
5.14862203849519
 20
-2.49409448227345
 30
0.0
 40
0.0196850390000004
 50
359.999999999996
 51
25.5287798050819
  0
ARC
  8
4
  6
CONTINUOUS
 62
4
 10
5.18799211726865
 20
-2.4547244035
 30
0.0
 40
0.0196850390000015
 50
244.471220194906
 51
269.999999999999
  0
LINE
  8
4
  6
CONTINUOUS
 62
4
 10
5.16830707749519
 20
-2.49409448227345
 30
0.0
 11
5.16830707749519
 21
-2.54527558472654
 31
0.0
  0
LINE
  8
4
  6
CONTINUOUS
 62
4
 10
5.36318896772131
 20
-2.5649606245
 30
0.0
 11
5.18799211726865
 21
-2.5649606245
 31
0.0
  0
LINE
  8
4
  6
CONTINUOUS
 62
4
 10
5.38287400749477
 20
-2.49409448227345
 30
0.0
 11
5.38287400749477
 21
-2.54527558472654
 31
0.0
  0
LINE
  8
4
  6
CONTINUOUS
 62
4
 10
5.18799211726865
 20
-2.4744094425
 30
0.0
 11
5.36318896772131
 21
-2.4744094425
 31
0.0
  0
LINE
  8
4
  6
CONTINUOUS
 62
4
 10
3.50393699948493
 20
-2.4015747965
 30
0.0
 11
3.50393699949498
 21
-4.2125984195
 31
0.0
  0
LINE
  8
4
  6
CONTINUOUS
 62
4
 10
5.47244093650502
 20
-2.4015747965
 30
0.0
 11
5.47244093649498
 21
-4.2125984195
 31
0.0
  0
ARC
  8
4
  6
CONTINUOUS
 62
4
 10
-2.27416923795117
 20
-2.60725911622121
 30
0.0
 40
0.0669291339999996
 50
359.999999999996
 51
180
  0
ARC
  8
4
  6
CONTINUOUS
 62
4
 10
-2.27416923795117
 20
-2.60725911622121
 30
0.0
 40
0.0669291339999996
 50
179.999999999996
 51
359.999999999997
  0
ARC
  8
4
  6
CONTINUOUS
 62
4
 10
-2.27416923795117
 20
-3.00095990322121
 30
0.0
 40
0.0669291339999996
 50
179.999999999996
 51
359.999999999996
  0
ARC
  8
4
  6
CONTINUOUS
 62
4
 10
-2.27416923795117
 20
-3.00095990322121
 30
0.0
 40
0.0669291339999996
 50
359.999999999998
 51
180
  0
ARC
  8
4
  6
CONTINUOUS
 62
4
 10
-4.20330309595118
 20
-2.60725911622121
 30
0.0
 40
0.0669291340000004
 50
359.999999999996
 51
180
  0
ARC
  8
4
  6
CONTINUOUS
 62
4
 10
-4.20330309595118
 20
-2.60725911622121
 30
0.0
 40
0.0669291340000004
 50
179.999999999996
 51
359.999999999996
  0
ARC
  8
4
  6
CONTINUOUS
 62
4
 10
-4.20330309595118
 20
-3.00095990322121
 30
0.0
 40
0.0669291340000004
 50
179.999999999998
 51
359.999999999998
  0
ARC
  8
4
  6
CONTINUOUS
 62
4
 10
-4.20330309595118
 20
-3.00095990322121
 30
0.0
 40
0.0669291340000004
 50
359.999999999996
 51
180
  0
LINE
  8
4
  6
CONTINUOUS
 62
4
 10
-4.04582278095117
 20
-3.15480931398182
 30
0.0
 11
-4.04582278095117
 21
-2.55214100622119
 31
0.0
  0
LINE
  8
4
  6
CONTINUOUS
 62
4
 10
-4.36078341095117
 20
-2.55214100622118
 30
0.0
 11
-4.36078341095117
 21
-3.37103864322121
 31
0.0
  0
LINE
  8
4
  6
CONTINUOUS
 62
4
 10
-2.27416923795117
 20
-3.52851895822121
 30
0.0
 11
-4.20330309595117
 21
-3.52851895822121
 31
0.0
  0
LINE
  8
4
  6
CONTINUOUS
 62
4
 10
-2.11668892295117
 20
-2.55214100622119
 30
0.0
 11
-2.11668892295117
 21
-3.37103864322121
 31
0.0
  0
ARC
  8
4
  6
CONTINUOUS
 62
4
 10
-4.20330309595117
 20
-2.55214100622119
 30
0.0
 40
0.157480315
 50
90.0000000000006
 51
179.999999999999
  0
ARC
  8
4
  6
CONTINUOUS
 62
4
 10
-4.20330309595117
 20
-2.55214100622119
 30
0.0
 40
0.157480315
 50
360
 51
90.000000000003
  0
ARC
  8
4
  6
CONTINUOUS
 62
4
 10
-2.27416923795117
 20
-2.55214100622118
 30
0.0
 40
0.157480315
 50
89.9999999999996
 51
180
  0
ARC
  8
4
  6
CONTINUOUS
 62
4
 10
-2.27416923795117
 20
-2.55214100622118
 30
0.0
 40
0.157480315
 50
359.999999999998
 51
90.0000000000029
  0
ARC
  8
4
  6
CONTINUOUS
 62
4
 10
-2.27416923795117
 20
-3.37103864322121
 30
0.0
 40
0.157480315
 50
269.999999999998
 51
359.999999999998
  0
ARC
  8
4
  6
CONTINUOUS
 62
4
 10
-4.20330309595117
 20
-3.37103864322122
 30
0.0
 40
0.157480315
 50
179.999999999998
 51
269.999999999998
  0
LINE
  8
4
  6
CONTINUOUS
 62
4
 10
-2.49039856719058
 20
-3.21355832822121
 30
0.0
 11
-3.98707376671178
 21
-3.21355832822121
 31
0.0
  0
LINE
  8
4
  6
CONTINUOUS
 62
4
 10
4.68923811422209
 20
-10.3593941452723
 30
0.0
 11
7.05144283722209
 21
-10.3593941452723
 31
0.0
  0
LINE
  8
4
  6
CONTINUOUS
 62
4
 10
7.05144283722209
 20
-8.39089020827226
 30
0.0
 11
4.68923811422209
 21
-8.39089020827226
 31
0.0
  0
LINE
  8
4
  6
CONTINUOUS
 62
4
 10
4.49238772022209
 20
-10.1625437512723
 30
0.0
 11
4.49238772022209
 21
-8.58774060227226
 31
0.0
  0
LINE
  8
4
  6
CONTINUOUS
 62
4
 10
7.24829323122209
 20
-10.1625437512723
 30
0.0
 11
7.24829323122209
 21
-8.58774060227226
 31
0.0
  0
ARC
  8
4
  6
CONTINUOUS
 62
4
 10
4.68923811422207
 20
-8.58774060227226
 30
0.0
 40
0.196850393999999
 50
89.9999999999995
 51
180
  0
ARC
  8
4
  6
CONTINUOUS
 62
4
 10
7.05144283722208
 20
-8.58774060227226
 30
0.0
 40
0.196850394000001
 50
359.999999999997
 51
89.9999999999994
  0
ARC
  8
4
  6
CONTINUOUS
 62
4
 10
7.05144283722209
 20
-10.1625437512723
 30
0.0
 40
0.196850393999997
 50
269.999999999996
 51
359.999999999997
  0
ARC
  8
4
  6
CONTINUOUS
 62
4
 10
4.68923811422207
 20
-10.1625437512723
 30
0.0
 40
0.196850394
 50
179.999999999997
 51
269.999999999996
  0
LINE
  8
4
  6
CONTINUOUS
 62
4
 10
6.67742708972208
 20
-9.00506343804572
 30
0.0
 11
6.67742708972208
 21
-9.29640201877226
 31
0.0
  0
LINE
  8
4
  6
CONTINUOUS
 62
4
 10
6.71679716872208
 20
-9.33577209777226
 30
0.0
 11
6.93530110572209
 21
-9.33577209777226
 31
0.0
  0
LINE
  8
4
  6
CONTINUOUS
 62
4
 10
6.71679716872208
 20
-9.41451225577226
 30
0.0
 11
6.93530110572209
 21
-9.41451225577226
 31
0.0
  0
ARC
  8
4
  6
CONTINUOUS
 62
4
 10
6.93530110572209
 20
-9.37514217677226
 30
0.0
 40
0.0393700790000002
 50
270
 51
90
  0
ARC
  8
4
  6
CONTINUOUS
 62
4
 10
6.71679716872208
 20
-9.45388233477226
 30
0.0
 40
0.0393700790000007
 50
90.0000000000005
 51
180
  0
ARC
  8
4
  6
CONTINUOUS
 62
4
 10
6.71679716872208
 20
-9.29640201877226
 30
0.0
 40
0.0393700790000001
 50
179.999999999998
 51
269.999999999997
  0
ARC
  8
4
  6
CONTINUOUS
 62
4
 10
6.66350766445014
 20
-8.97961278354419
 30
0.0
 40
0.0196850400000008
 50
45.0000000000017
 51
115.528779585302
  0
ARC
  8
4
  6
CONTINUOUS
 62
4
 10
6.66350766445015
 20
-8.97961278354419
 30
0.0
 40
0.0196850400000003
 50
334.471220414696
 51
44.9999999999989
  0
ARC
  8
4
  6
CONTINUOUS
 62
4
 10
6.63805700994862
 20
-8.92632327927226
 30
0.0
 40
0.0393700789999975
 50
269.999999999992
 51
295.528779585294
  0
ARC
  8
4
  6
CONTINUOUS
 62
4
 10
6.71679716872208
 20
-9.00506343804572
 30
0.0
 40
0.0393700790000021
 50
154.471220414698
 51
179.999999999999
  0
LINE
  8
4
  6
CONTINUOUS
 62
4
 10
6.67742708972208
 20
-9.7452209154988
 30
0.0
 11
6.67742708972208
 21
-9.45388233477226
 31
0.0
  0
ARC
  8
4
  6
CONTINUOUS
 62
4
 10
6.66350766445015
 20
-9.77067157000033
 30
0.0
 40
0.019685040000001
 50
244.471220414701
 51
315.000000000002
  0
ARC
  8
4
  6
CONTINUOUS
 62
4
 10
6.66350766445015
 20
-9.77067157000033
 30
0.0
 40
0.0196850399999987
 50
314.999999999999
 51
25.5287795853026
  0
ARC
  8
4
  6
CONTINUOUS
 62
4
 10
6.63805700994862
 20
-9.82396107427226
 30
0.0
 40
0.0393700789999994
 50
64.4712204147
 51
90.0000000000013
  0
ARC
  8
4
  6
CONTINUOUS
 62
4
 10
6.71679716872208
 20
-9.7452209154988
 30
0.0
 40
0.0393700789999978
 50
179.999999999999
 51
205.5287795853
  0
LINE
  8
4
  6
CONTINUOUS
 62
4
 10
6.63805700994861
 20
-8.96569335827226
 30
0.0
 11
5.87034047572207
 21
-8.96569335827226
 31
0.0
  0
LINE
  8
4
  6
CONTINUOUS
 62
4
 10
6.63805700994861
 20
-9.78459099527226
 30
0.0
 11
5.87034047572207
 21
-9.78459099527226
 31
0.0
  0
LINE
  8
4
  6
CONTINUOUS
 62
4
 10
5.06325386172208
 20
-9.00506343804572
 30
0.0
 11
5.06325386172208
 21
-9.29640201877226
 31
0.0
  0
LINE
  8
4
  6
CONTINUOUS
 62
4
 10
5.02388378272207
 20
-9.33577209777226
 30
0.0
 11
4.80537984572208
 21
-9.33577209777226
 31
0.0
  0
LINE
  8
4
  6
CONTINUOUS
 62
4
 10
5.02388378272207
 20
-9.41451225577226
 30
0.0
 11
4.80537984572208
 21
-9.41451225577226
 31
0.0
  0
ARC
  8
4
  6
CONTINUOUS
 62
4
 10
4.80537984572208
 20
-9.37514217677226
 30
0.0
 40
0.0393700790000002
 50
90
 51
270
  0
ARC
  8
4
  6
CONTINUOUS
 62
4
 10
5.02388378272208
 20
-9.45388233477226
 30
0.0
 40
0.0393700789999998
 50
359.999999999997
 51
89.9999999999992
  0
ARC
  8
4
  6
CONTINUOUS
 62
4
 10
5.02388378272208
 20
-9.29640201877226
 30
0.0
 40
0.0393700789999997
 50
269.999999999997
 51
359.999999999996
  0
ARC
  8
4
  6
CONTINUOUS
 62
4
 10
5.077173286994
 20
-8.97961278354419
 30
0.0
 40
0.0196850399999977
 50
64.4712204146987
 51
135
  0
ARC
  8
4
  6
CONTINUOUS
 62
4
 10
5.077173286994
 20
-8.97961278354419
 30
0.0
 40
0.0196850399999992
 50
135.000000000001
 51
205.528779585302
  0
ARC
  8
4
  6
CONTINUOUS
 62
4
 10
5.10262394149554
 20
-8.92632327927226
 30
0.0
 40
0.0393700790000043
 50
244.471220414695
 51
269.999999999995
  0
ARC
  8
4
  6
CONTINUOUS
 62
4
 10
5.02388378272207
 20
-9.00506343804572
 30
0.0
 40
0.0393700789999993
 50
359.999999999997
 51
25.5287795852996
  0
LINE
  8
4
  6
CONTINUOUS
 62
4
 10
5.06325386172208
 20
-9.7452209154988
 30
0.0
 11
5.06325386172208
 21
-9.45388233477226
 31
0.0
  0
ARC
  8
4
  6
CONTINUOUS
 62
4
 10
5.077173286994
 20
-9.77067157000034
 30
0.0
 40
0.0196850399999974
 50
224.999999999999
 51
295.528779585301
  0
ARC
  8
4
  6
CONTINUOUS
 62
4
 10
5.077173286994
 20
-9.77067157000034
 30
0.0
 40
0.0196850400000002
 50
154.471220414688
 51
224.999999999989
  0
ARC
  8
4
  6
CONTINUOUS
 62
4
 10
5.10262394149553
 20
-9.82396107427227
 30
0.0
 40
0.039370079000002
 50
89.9999999999979
 51
115.528779585299
  0
ARC
  8
4
  6
CONTINUOUS
 62
4
 10
5.02388378272207
 20
-9.74522091549881
 30
0.0
 40
0.0393700790000003
 50
334.4712204147
 51
2.2581938238391E-12
  0
LINE
  8
4
  6
CONTINUOUS
 62
4
 10
5.10262394149553
 20
-8.96569335827226
 30
0.0
 11
5.87034047572207
 21
-8.96569335827226
 31
0.0
  0
LINE
  8
4
  6
CONTINUOUS
 62
4
 10
5.10262394149553
 20
-9.78459099527226
 30
0.0
 11
5.87034047572207
 21
-9.78459099527226
 31
0.0
  0
ARC
  8
4
  6
CONTINUOUS
 62
4
 10
4.78766331122207
 20
-8.68616579927226
 30
0.0
 40
0.0669291339999996
 50
359.999999999995
 51
179.999999999999
  0
ARC
  8
4
  6
CONTINUOUS
 62
4
 10
4.78766331122207
 20
-8.68616579927226
 30
0.0
 40
0.0669291339999996
 50
179.999999999996
 51
359.999999999996
  0
ARC
  8
4
  6
CONTINUOUS
 62
4
 10
6.95301764022209
 20
-8.68616579927226
 30
0.0
 40
0.0669291339999996
 50
359.999999999995
 51
179.999999999999
  0
ARC
  8
4
  6
CONTINUOUS
 62
4
 10
6.95301764022209
 20
-8.68616579927226
 30
0.0
 40
0.0669291339999996
 50
179.999999999999
 51
359.999999999999
  0
ARC
  8
4
  6
CONTINUOUS
 62
4
 10
6.95301764022209
 20
-10.0641185542723
 30
0.0
 40
0.0669291339999996
 50
179.999999999996
 51
359.999999999996
  0
ARC
  8
4
  6
CONTINUOUS
 62
4
 10
6.95301764022209
 20
-10.0641185542723
 30
0.0
 40
0.0669291339999996
 50
359.999999999996
 51
180
  0
ARC
  8
4
  6
CONTINUOUS
 62
4
 10
4.78766331122207
 20
-10.0641185542723
 30
0.0
 40
0.0669291339999996
 50
179.999999999999
 51
3.68944343049768E-13
  0
ARC
  8
4
  6
CONTINUOUS
 62
4
 10
4.78766331122207
 20
-10.0641185542723
 30
0.0
 40
0.0669291339999996
 50
359.999999999996
 51
180
  0
ARC
  8
4
  6
CONTINUOUS
 62
4
 10
6.83490740472208
 20
-9.17829178327226
 30
0.0
 40
0.0669291340000018
 50
359.999999999996
 51
180
  0
ARC
  8
4
  6
CONTINUOUS
 62
4
 10
6.83490740472208
 20
-9.17829178327226
 30
0.0
 40
0.0669291340000018
 50
179.999999999997
 51
359.999999999998
  0
ARC
  8
4
  6
CONTINUOUS
 62
4
 10
6.83490740472208
 20
-9.57199257027226
 30
0.0
 40
0.0669291340000018
 50
179.999999999996
 51
359.999999999996
  0
ARC
  8
4
  6
CONTINUOUS
 62
4
 10
6.83490740472208
 20
-9.57199257027226
 30
0.0
 40
0.0669291340000018
 50
359.999999999998
 51
180
  0
ARC
  8
4
  6
CONTINUOUS
 62
4
 10
4.90577354672207
 20
-9.17829178327226
 30
0.0
 40
0.0669291339999987
 50
359.999999999996
 51
180
  0
ARC
  8
4
  6
CONTINUOUS
 62
4
 10
4.90577354672207
 20
-9.17829178327226
 30
0.0
 40
0.0669291339999987
 50
179.999999999996
 51
359.999999999996
  0
ARC
  8
4
  6
CONTINUOUS
 62
4
 10
4.90577354672207
 20
-9.57199257027226
 30
0.0
 40
0.0669291339999987
 50
179.999999999998
 51
359.999999999998
  0
ARC
  8
4
  6
CONTINUOUS
 62
4
 10
4.90577354672207
 20
-9.57199257027226
 30
0.0
 40
0.0669291339999987
 50
359.999999999996
 51
180
  0
ARC
  8
6
  6
CONTINUOUS
 62
6
 10
-2.08057487076983
 20
-10.4754607218089
 30
0.0
 40
1.968503937
 50
359.999999999999
 51
180
  0
ARC
  8
6
  6
CONTINUOUS
 62
6
 10
-2.08057487076983
 20
-10.4754607218089
 30
0.0
 40
1.968503937
 50
179.999999999999
 51
359.999999999999
  0
LINE
  8
6
  6
CONTINUOUS
 62
6
 10
9.311023614
 20
-5.17716534800003
 30
0.0
 11
3.011811015
 21
-5.17716534800003
 31
0.0
  0
LINE
  8
6
  6
CONTINUOUS
 62
6
 10
9.704724401
 20
-4.78346456100003
 30
0.0
 11
9.704724401
 21
-1.39597556625679
 31
0.0
  0
LINE
  8
6
  6
CONTINUOUS
 62
6
 10
3.011811015
 20
-1.00227477925679
 30
0.0
 11
9.311023614
 21
-1.00227477925679
 31
0.0
  0
LINE
  8
6
  6
CONTINUOUS
 62
6
 10
2.618110228
 20
-1.39597556625679
 30
0.0
 11
2.618110228
 21
-4.78346456100003
 31
0.0
  0
ARC
  8
6
  6
CONTINUOUS
 62
6
 10
3.011811015
 20
-4.78346456100003
 30
0.0
 40
0.393700787
 50
180
 51
270
  0
ARC
  8
6
  6
CONTINUOUS
 62
6
 10
9.311023614
 20
-1.39597556625679
 30
0.0
 40
0.393700787
 50
360
 51
89.9999999999998
  0
ARC
  8
6
  6
CONTINUOUS
 62
6
 10
9.311023614
 20
-4.78346456100003
 30
0.0
 40
0.393700787
 50
269.999999999999
 51
360
  0
ARC
  8
6
  6
CONTINUOUS
 62
6
 10
3.011811015
 20
-1.39597556625679
 30
0.0
 40
0.393700787
 50
89.9999999999998
 51
180
  0
ARC
  8
6
  6
CONTINUOUS
 62
6
 10
-3.23873616695117
 20
-2.8041095097212
 30
0.0
 40
1.69023795713162
 50
29.9999999999996
 51
210
  0
ARC
  8
6
  6
CONTINUOUS
 62
6
 10
-3.23873616695115
 20
-2.80410950972124
 30
0.0
 40
1.69023795713162
 50
209.999999999998
 51
29.9999999999996
  0
ARC
  8
6
  6
CONTINUOUS
 62
6
 10
7.834645661
 20
-3.30708660799996
 30
0.0
 40
1.476377953
 50
359.999999999997
 51
180
  0
ARC
  8
6
  6
CONTINUOUS
 62
6
 10
7.83464566100001
 20
-3.30708660800004
 30
0.0
 40
1.47637795300001
 50
179.999999999998
 51
269.999999999999
  0
ARC
  8
6
  6
CONTINUOUS
 62
6
 10
5.87034047572208
 20
-9.37514217677213
 30
0.0
 40
1.968503937
 50
359.999999999996
 51
180
  0
ARC
  8
6
  6
CONTINUOUS
 62
6
 10
5.87034047572208
 20
-9.37514217677229
 30
0.0
 40
1.968503937
 50
179.999999999996
 51
359.999999999996
  0
ARC
  8
6
  6
CONTINUOUS
 62
6
 10
4.488188968
 20
-3.30708660799994
 30
0.0
 40
1.476377953
 50
359.999999999996
 51
180
  0
ARC
  8
6
  6
CONTINUOUS
 62
6
 10
4.488188968
 20
-3.30708660800005
 30
0.0
 40
1.476377953
 50
179.999999999996
 51
359.999999999996
  0
LINE
  8
6
  6
CONTINUOUS
 62
6
 10
4.30538748320076
 20
-1.63348272622136
 30
0.0
 11
4.30538748320076
 21
-1.40318621393489
 31
0.0
  0
LINE
  8
6
  6
CONTINUOUS
 62
6
 10
4.22947228769542
 20
-1.39598272631636
 30
0.0
 11
4.38130264477754
 21
-1.39598272631636
 31
0.0
  0
ARC
  8
6
  6
CONTINUOUS
 62
6
 10
4.48478131441132
 20
-1.56327411963308
 30
0.0
 40
0.0706663506591692
 50
196.004825930421
 51
267.948379947903
  0
ARC
  8
6
  6
CONTINUOUS
 62
6
 10
4.61726183277542
 20
-1.51490091581341
 30
0.0
 40
0.21158416955822
 50
161.294116943038
 51
198.705883056962
  0
ARC
  8
6
  6
CONTINUOUS
 62
6
 10
4.48478132376233
 20
-1.46668562961453
 30
0.0
 40
0.070710063357739
 50
16.1288893758949
 51
89.9999999999995
  0
ARC
  8
6
  6
CONTINUOUS
 62
6
 10
4.35230087721835
 20
-1.51490091582055
 30
0.0
 40
0.211584169558198
 50
341.293755627023
 51
18.7062443729764
  0
ARC
  8
6
  6
CONTINUOUS
 62
6
 10
4.48478131441131
 20
-1.56327411963307
 30
0.0
 40
0.0706663506591772
 50
272.763973435186
 51
343.994108060195
  0
LINE
  8
6
  6
CONTINUOUS
 62
6
 10
4.59849014477754
 20
-1.63348274276989
 30
0.0
 11
4.59849014477754
 21
-1.39598274286489
 31
0.0
  0
LINE
  8
6
  6
CONTINUOUS
 62
6
 10
4.59849014477754
 20
-1.39598274286489
 30
0.0
 11
4.68466871617164
 21
-1.39598274286488
 31
0.0
  0
ARC
  8
6
  6
CONTINUOUS
 62
6
 10
4.6811401598939
 20
-1.45535774284113
 30
0.0
 40
0.0594797556449671
 50
273.400991681353
 51
86.5990083186467
  0
LINE
  8
6
  6
CONTINUOUS
 62
6
 10
4.68466871617164
 20
-1.51473274281738
 30
0.0
 11
4.60205264477754
 21
-1.51473274281739
 31
0.0
  0
ARC
  8
6
  6
CONTINUOUS
 62
6
 10
7.5718659544071
 20
-1.56553766499341
 30
0.0
 40
0.0684629883654721
 50
210.521999666257
 51
269.441063338049
  0
LINE
  8
6
  6
CONTINUOUS
 62
6
 10
7.57119808903255
 20
-1.63399739572449
 30
0.0
 11
7.59540051092687
 21
-1.63423350466631
 31
0.0
  0
ARC
  8
6
  6
CONTINUOUS
 62
6
 10
7.59601020396348
 20
-1.57173670804206
 30
0.0
 40
0.0624997705107131
 50
269.441063677776
 51
357.350682656729
  0
ARC
  8
6
  6
CONTINUOUS
 62
6
 10
7.60760527651169
 20
-1.57923637625156
 30
0.0
 40
0.0510465535510235
 50
5.18227244383313
 51
59.3448299999953
  0
LINE
  8
6
  6
CONTINUOUS
 62
6
 10
7.63363238208375
 20
-1.53532350336697
 30
0.0
 11
7.54016016225297
 21
-1.49517779771375
 31
0.0
  0
ARC
  8
6
  6
CONTINUOUS
 62
6
 10
7.56618728485191
 20
-1.45126494700954
 30
0.0
 40
0.0510465431518187
 50
185.182406440222
 51
239.344800865823
  0
ARC
  8
6
  6
CONTINUOUS
 62
6
 10
7.5775321777455
 20
-1.45859952496393
 30
0.0
 40
0.0622423899467808
 50
91.2613438550524
 51
177.491952931064
  0
LINE
  8
6
  6
CONTINUOUS
 62
6
 10
7.57616204690114
 20
-1.39637221706975
 30
0.0
 11
7.6003069163435
 21
-1.39634682814289
 31
0.0
  0
ARC
  8
6
  6
CONTINUOUS
 62
6
 10
7.59815058741479
 20
-1.46261008505515
 30
0.0
 40
0.0662983330941943
 50
29.2717084966243
 51
88.1361471074761
  0
LINE
  8
6
  6
CONTINUOUS
 62
6
 10
7.71221353866298
 20
-1.63385824184195
 30
0.0
 11
7.7800706655949
 21
-1.63385824184195
 31
0.0
  0
LINE
  8
6
  6
CONTINUOUS
 62
6
 10
7.7461420941799
 20
-1.62673324193695
 30
0.0
 11
7.7461420941799
 21
-1.40348324193695
 31
0.0
  0
LINE
  8
6
  6
CONTINUOUS
 62
6
 10
7.71221353866298
 20
-1.39635824193695
 30
0.0
 11
7.77971354832249
 21
-1.39635824193695
 31
0.0
  0
LINE
  8
6
  6
CONTINUOUS
 62
6
 10
7.834645661
 20
-1.633858261
 30
0.0
 11
7.834645661
 21
-1.396358261095
 31
0.0
  0
LINE
  8
6
  6
CONTINUOUS
 62
6
 10
7.834645661
 20
-1.396358261095
 30
0.0
 11
7.9008912971115
 21
-1.39635826412207
 31
0.0
  0
ARC
  8
6
  6
CONTINUOUS
 62
6
 10
7.89269826097678
 20
-1.48331354231022
 30
0.0
 40
0.087340404429351
 50
24.3863827720533
 51
84.6174099999933
  0
ARC
  8
6
  6
CONTINUOUS
 62
6
 10
7.77183834701601
 20
-1.51510826376387
 30
0.0
 40
0.21158416955822
 50
341.29431327019
 51
18.7056867298094
  0
ARC
  8
6
  6
CONTINUOUS
 62
6
 10
7.89269827794106
 20
-1.54690297978479
 30
0.0
 40
0.0873403874650783
 50
275.382450717137
 51
335.613608269933
  0
LINE
  8
6
  6
CONTINUOUS
 62
6
 10
7.90089110110099
 20
-1.63385826100002
 30
0.0
 11
7.840583161
 21
-1.633858261
 31
0.0
  0
LINE
  8
6
  6
CONTINUOUS
 62
6
 10
8.17935777565325
 20
-1.6338606984807
 30
0.0
 11
8.04008098999468
 21
-1.6338606984807
 31
0.0
  0
LINE
  8
6
  6
CONTINUOUS
 62
6
 10
8.04008098999468
 20
-1.6338606984807
 30
0.0
 11
8.03999616856614
 21
-1.5151106985282
 31
0.0
  0
LINE
  8
6
  6
CONTINUOUS
 62
6
 10
8.03999616856614
 20
-1.5151106985282
 30
0.0
 11
8.14882206137975
 21
-1.5151106985282
 31
0.0
  0
LINE
  8
6
  6
CONTINUOUS
 62
6
 10
8.0399910807133
 20
-1.51155020455245
 30
0.0
 11
8.0399113471376
 21
-1.3963606985757
 31
0.0
  0
LINE
  8
6
  6
CONTINUOUS
 62
6
 10
8.0399113471376
 20
-1.3963606985757
 30
0.0
 11
8.16748277565325
 21
-1.3963606985757
 31
0.0
  0
ARC
  8
6
  6
CONTINUOUS
 62
6
 10
4.48478132376233
 20
-1.46668562961453
 30
0.0
 40
0.0707100633577387
 50
89.9999999999994
 51
163.872176621307
  0
ARC
  8
6
  6
CONTINUOUS
 62
6
 10
7.83464566100002
 20
-3.30708660800003
 30
0.0
 40
1.47637795299999
 50
269.999999999999
 51
359.999999999998
  0
ENDSEC
  0
EOF
