999
File generated by Conversation
0
SECTION
2
HEADER
0
SECTION
2
HEADER
9
$ACADVER
1
AC1021
9
$INSBASE
10
0.0
20
0.0
30
0.0
9
$INSUNITS
70
4
9
$EXTMIN
10
0.0
20
0.0
30
0.0
9
$EXTMAX
10
1000.0
20
1000.0
30
0.0
0
ENDSEC
0
SECTION
2
TABLES
0
TABLE
2
LTYPE
70
1
0
LTYPE
2
CONTINUOUS
70
64
3
Solid line
72
65
73
0
40
0.0
0
ENDTAB
0
TABLE
2
LAYER
70
1
0
LAYER
2
0
70
64
62
7
6
CONTINUOUS
0
ENDTAB
0
TABLE
2
STYLE
70
1
0
STYLE
2
STANDARD
70
0
40
0.0
41
1.0
50
0.0
71
0
42
0.2
3
txt
4

0
ENDTAB
0
ENDSEC
0
SECTION
2
ENTITIES
0
LINE
8
0
62
3
10
-6.500012
20
20.000000
30
0.0
11
-6.500013
21
22.000000
31
0.0
0
LINE
8
0
62
3
10
-9.499997
20
20.000000
30
0.0
11
-9.499997
21
22.000000
31
0.0
0
LINE
8
0
62
3
10
9.500003
20
20.000000
30
0.0
11
9.500003
21
22.000000
31
0.0
0
LINE
8
0
62
3
10
6.500003
20
20.000000
30
0.0
11
6.500002
21
22.000000
31
0.0
0
LINE
8
0
62
3
10
2.000002
20
32.000000
30
0.0
11
2.000003
21
20.000000
31
0.0
0
LINE
8
0
62
3
10
-1.999997
20
32.000000
30
0.0
11
-1.999997
21
20.000000
31
0.0
0
LINE
8
0
62
6
10
4.999987
20
32.000000
30
0.0
11
4.999987
21
22.000000
31
0.0
0
LINE
8
0
62
6
10
10.999988
20
22.000000
30
0.0
11
10.999988
21
20.000000
31
0.0
0
LINE
8
0
62
6
10
-5.000013
20
22.000000
30
0.0
11
-5.000013
21
32.000000
31
0.0
0
LINE
8
0
62
6
10
-10.999997
20
20.000000
30
0.0
11
-10.999997
21
22.000000
31
0.0
0
LINE
8
0
62
6
10
10.999988
20
22.000000
30
0.0
11
9.500003
21
22.000000
31
0.0
0
LINE
8
0
62
6
10
4.999987
20
22.000000
30
0.0
11
6.500002
21
22.000000
31
0.0
0
LINE
8
0
62
6
10
-10.999997
20
20.000000
30
0.0
11
-9.499997
21
20.000000
31
0.0
0
LINE
8
0
62
6
10
-9.499997
20
20.000000
30
0.0
11
-6.500012
21
20.000000
31
0.0
0
LINE
8
0
62
6
10
-5.000013
20
22.000000
30
0.0
11
-6.500013
21
22.000000
31
0.0
0
LINE
8
0
62
6
10
-10.999997
20
22.000000
30
0.0
11
-9.499997
21
22.000000
31
0.0
0
LINE
8
0
62
6
10
-9.499997
20
22.000000
30
0.0
11
-6.500013
21
22.000000
31
0.0
0
LINE
8
0
62
6
10
6.500002
20
22.000000
30
0.0
11
9.500003
21
22.000000
31
0.0
0
LINE
8
0
62
6
10
10.999988
20
20.000000
30
0.0
11
9.500003
21
20.000000
31
0.0
0
LINE
8
0
62
6
10
6.500003
20
20.000000
30
0.0
11
9.500003
21
20.000000
31
0.0
0
LINE
8
0
62
6
10
-6.500012
20
20.000000
30
0.0
11
0.000003
21
20.000000
31
0.0
0
LINE
8
0
62
6
10
0.000002
20
32.000000
30
0.0
11
-5.000013
21
32.000000
31
0.0
0
LINE
8
0
62
6
10
2.000002
20
32.000000
30
0.0
11
4.999987
21
32.000000
31
0.0
0
LINE
8
0
62
6
10
2.000002
20
32.000000
30
0.0
11
0.000002
21
32.000000
31
0.0
0
LINE
8
0
62
6
10
2.000003
20
20.000000
30
0.0
11
0.000003
21
20.000000
31
0.0
0
LINE
8
0
62
6
10
2.000003
20
20.000000
30
0.0
11
6.500003
21
20.000000
31
0.0
0
CIRCLE
8
0
62
3
10
0.000000
20
0.000000
30
0.0
40
2.000000
0
CIRCLE
8
0
62
3
10
8.000015
20
0.000000
30
0.0
40
1.500000
0
CIRCLE
8
0
62
3
10
0.000000
20
8.000000
30
0.0
40
1.500000
0
CIRCLE
8
0
62
3
10
-8.000015
20
0.000000
30
0.0
40
1.500000
0
CIRCLE
8
0
62
3
10
0.000000
20
-8.000031
30
0.0
40
1.500000
0
CIRCLE
8
0
62
6
10
0.000000
20
0.000000
30
0.0
40
5.000000
0
CIRCLE
8
0
62
6
10
0.000000
20
0.000000
30
0.0
40
11.000000
0
ENDSEC
0
EOF
