  0
SECTION
  2
HEADER
  9
$ACADVER
  1
AC1003
  9
$EXTMIN
 10
-1.476377953
 20
2.31478421005817
  9
$EXTMAX
 10
1.476377953
 20
-1.41732283500003
  9
$INSUNITS
 70
1
  9
$INSBASE
 10
1.11022302462516E-16
 20
0.44873068752907
999
Created with OMAX LAYOUT for Windows. (www.omax.com) 4/22/2024
  0
ENDSEC
  0
SECTION
  2
TABLES
  0
TABLE
  2
LAYER
 70
    10
  0
LAYER
  2
0
 70
     0
 62
     7
  6
CONTINUOUS
  0
LAYER
  2
1
 70
     0
 62
     7
  6
CONTINUOUS
  0
LAYER
  2
2
 70
     0
 62
     7
  6
CONTINUOUS
  0
LAYER
  2
3
 70
     0
 62
     7
  6
CONTINUOUS
  0
LAYER
  2
4
 70
     0
 62
     7
  6
CONTINUOUS
  0
LAYER
  2
5
 70
     0
 62
     7
  6
CONTINUOUS
  0
LAYER
  2
6
 70
     0
 62
     7
  6
CONTINUOUS
  0
LAYER
  2
7
 70
     0
 62
     7
  6
CONTINUOUS
  0
LAYER
  2
8
 70
     0
 62
     7
  6
CONTINUOUS
  0
LAYER
  2
9
 70
     0
 62
     7
  6
CONTINUOUS
  0
LAYER
  2
10
 70
     0
 62
     7
  6
CONTINUOUS
  0
LAYER
  2
11
 70
     0
 62
     7
  6
CONTINUOUS
  0
LAYER
  2
12
 70
     0
 62
     7
  6
CONTINUOUS
  0
LAYER
  2
13
 70
     0
 62
     7
  6
CONTINUOUS
  0
LAYER
  2
14
 70
     0
 62
     7
  6
CONTINUOUS
  0
LAYER
  2
15
 70
     0
 62
     7
  6
CONTINUOUS
  0
LAYER
  2
16
 70
     0
 62
     7
  6
CONTINUOUS
  0
LAYER
  2
17
 70
     0
 62
     7
  6
CONTINUOUS
  0
LAYER
  2
18
 70
     0
 62
     7
  6
CONTINUOUS
  0
LAYER
  2
19
 70
     0
 62
     7
  6
CONTINUOUS
  0
LAYER
  2
20
 70
     0
 62
     7
  6
CONTINUOUS
  0
LAYER
  2
21
 70
     0
 62
     7
  6
CONTINUOUS
  0
LAYER
  2
22
 70
     0
 62
     7
  6
CONTINUOUS
  0
LAYER
  2
23
 70
     0
 62
     7
  6
CONTINUOUS
  0
LAYER
  2
24
 70
     0
 62
     7
  6
CONTINUOUS
  0
LAYER
  2
25
 70
     0
 62
     7
  6
CONTINUOUS
  0
LAYER
  2
26
 70
     0
 62
     7
  6
CONTINUOUS
  0
LAYER
  2
27
 70
     0
 62
     7
  6
CONTINUOUS
  0
LAYER
  2
28
 70
     0
 62
     7
  6
CONTINUOUS
  0
LAYER
  2
29
 70
     0
 62
     7
  6
CONTINUOUS
  0
LAYER
  2
30
 70
     0
 62
     7
  6
CONTINUOUS
  0
LAYER
  2
31
 70
     0
 62
     7
  6
CONTINUOUS
  0
ENDTAB
  0
ENDSEC
  0
SECTION
  2
ENTITIES
  0
LINE
  8
1
  6
CONTINUOUS
 62
1
 10
-0.472440945000004
 20
2.10218578455817
 30
0.0
 11
-0.452755904999999
 21
2.10218578455817
 31
0.0
  0
LINE
  8
1
  6
CONTINUOUS
 62
1
 10
-0.472440945000003
 20
2.09431176855817
 30
0.0
 11
-0.452755904999999
 21
2.09431176855817
 31
0.0
  0
LINE
  8
1
  6
CONTINUOUS
 62
1
 10
-0.492125984000003
 20
1.99678515819012
 30
0.0
 11
-0.492125984000002
 21
2.07462672955817
 31
0.0
  0
LINE
  8
1
  6
CONTINUOUS
 62
1
 10
-1.40067621663548
 20
2.21635901329074
 30
0.0
 11
-0.50877260236452
 21
2.21635901329074
 31
0.0
  0
LINE
  8
1
  6
CONTINUOUS
 62
1
 10
-1.417322835
 20
1.99678515819012
 30
0.0
 11
-1.417322835
 21
2.07462672955817
 31
0.0
  0
LINE
  8
1
  6
CONTINUOUS
 62
1
 10
-0.50877260236452
 20
1.9801385398256
 30
0.0
 11
-1.40067621663548
 21
1.9801385398256
 31
0.0
  0
LINE
  8
1
  6
CONTINUOUS
 62
1
 10
-0.492125984000003
 20
2.19971239492622
 30
0.0
 11
-0.492125984000003
 21
2.12187082355817
 31
0.0
  0
LINE
  8
1
  6
CONTINUOUS
 62
1
 10
-1.456692914
 20
2.10218578455817
 30
0.0
 11
-1.43700787400001
 21
2.10218578455816
 31
0.0
  0
LINE
  8
1
  6
CONTINUOUS
 62
1
 10
-1.417322835
 20
2.19971239492622
 30
0.0
 11
-1.417322835
 21
2.12187082355816
 31
0.0
  0
LINE
  8
1
  6
CONTINUOUS
 62
1
 10
-1.456692914
 20
2.09431176855817
 30
0.0
 11
-1.437007874
 21
2.09431176855817
 31
0.0
  0
ARC
  8
1
  6
CONTINUOUS
 62
1
 10
-1.437007874
 20
2.12187082355816
 30
0.0
 40
0.019685039
 50
269.999999999986
 51
359.999999999998
  0
ARC
  8
1
  6
CONTINUOUS
 62
1
 10
-1.437007874
 20
2.07462672955817
 30
0.0
 40
0.0196850389999999
 50
359.999999999996
 51
90.0000000000014
  0
ARC
  8
1
  6
CONTINUOUS
 62
1
 10
-0.472440945000003
 20
2.12187082355817
 30
0.0
 40
0.019685039
 50
179.999999999997
 51
269.999999999996
  0
ARC
  8
1
  6
CONTINUOUS
 62
1
 10
-0.452755905
 20
2.12187082355817
 30
0.0
 40
0.0196850390000001
 50
270
 51
359.999999999997
  0
ARC
  8
1
  6
CONTINUOUS
 62
1
 10
-0.472440945000003
 20
2.07462672955817
 30
0.0
 40
0.0196850390000001
 50
89.9999999999993
 51
180
  0
ARC
  8
1
  6
CONTINUOUS
 62
1
 10
-0.452755904999999
 20
2.07462672955817
 30
0.0
 40
0.0196850390000002
 50
359.999999999997
 51
89.9999999999972
  0
LINE
  8
1
  6
CONTINUOUS
 62
1
 10
-0.433070866
 20
1.97710011942269
 30
0.0
 11
-0.433070865999999
 21
2.07462672955817
 31
0.0
  0
LINE
  8
1
  6
CONTINUOUS
 62
1
 10
-0.416424247635483
 20
1.96045350105817
 30
0.0
 11
-0.393700787
 21
1.96045350005817
 31
0.0
  0
LINE
  8
1
  6
CONTINUOUS
 62
1
 10
-1.476377953
 20
2.23604405205817
 30
0.0
 11
-1.476377953
 21
2.12187082355817
 31
0.0
  0
ARC
  8
1
  6
CONTINUOUS
 62
1
 10
-0.426111153364036
 20
1.96741321369414
 30
0.0
 40
0.00984251999999985
 50
146.854161078923
 51
224.999999999996
  0
ARC
  8
1
  6
CONTINUOUS
 62
1
 10
-0.426111153364036
 20
1.96741321369414
 30
0.0
 40
0.00984251999999998
 50
224.999999999999
 51
303.145838921073
  0
ARC
  8
1
  6
CONTINUOUS
 62
1
 10
-0.416424247635483
 20
1.95257948505817
 30
0.0
 40
0.0078740159999999
 50
89.9999999999953
 51
123.145838921069
  0
ARC
  8
1
  6
CONTINUOUS
 62
1
 10
-0.440944882
 20
1.97710011942269
 30
0.0
 40
0.00787401600000012
 50
326.854161078925
 51
359.999999999996
  0
ARC
  8
1
  6
CONTINUOUS
 62
1
 10
-1.437007874
 20
2.23604405205817
 30
0.0
 40
0.0393700790000002
 50
89.9999999999991
 51
180
  0
ARC
  8
1
  6
CONTINUOUS
 62
1
 10
-1.437007874
 20
1.96045350105817
 30
0.0
 40
0.039370079
 50
179.999999999998
 51
269.999999999996
  0
ARC
  8
1
  6
CONTINUOUS
 62
1
 10
-0.393700786999999
 20
1.94076846105817
 30
0.0
 40
0.019685039
 50
269.999999999999
 51
360
  0
ARC
  8
1
  6
CONTINUOUS
 62
1
 10
-0.393700787
 20
1.94076846105817
 30
0.0
 40
0.0196850390000001
 50
359.999999999996
 51
89.9999999999991
  0
LINE
  8
1
  6
CONTINUOUS
 62
1
 10
-0.393700786999999
 20
1.92108342205817
 30
0.0
 11
-1.437007874
 21
1.92108342205817
 31
0.0
  0
ARC
  8
1
  6
CONTINUOUS
 62
1
 10
-0.426111153364036
 20
2.2290843394222
 30
0.0
 40
0.00984252000000008
 50
135
 51
213.145838921073
  0
ARC
  8
1
  6
CONTINUOUS
 62
1
 10
-0.426111153364036
 20
2.2290843394222
 30
0.0
 40
0.00984251999999996
 50
56.8541610789251
 51
134.999999999999
  0
ARC
  8
1
  6
CONTINUOUS
 62
1
 10
-0.416424247635483
 20
2.24391806805817
 30
0.0
 40
0.00787401599999986
 50
236.85416107893
 51
270.000000000004
  0
ARC
  8
1
  6
CONTINUOUS
 62
1
 10
-0.440944882
 20
2.21939743369365
 30
0.0
 40
0.00787401600000007
 50
1.81927727779713E-12
 51
33.1458389210728
  0
ARC
  8
1
  6
CONTINUOUS
 62
1
 10
-0.393700786999999
 20
2.25572909205817
 30
0.0
 40
0.019685039
 50
359.999999999997
 51
90.0000000000001
  0
ARC
  8
1
  6
CONTINUOUS
 62
1
 10
-0.393700787
 20
2.25572909205817
 30
0.0
 40
0.0196850390000001
 50
269.999999999999
 51
9.79610841890763E-13
  0
LINE
  8
1
  6
CONTINUOUS
 62
1
 10
-0.393700786999999
 20
2.27541413105817
 30
0.0
 11
-1.437007874
 21
2.27541413105817
 31
0.0
  0
ARC
  8
1
  6
CONTINUOUS
 62
1
 10
-1.41036312236404
 20
2.20939930065477
 30
0.0
 40
0.0098425200000001
 50
134.999999999999
 51
213.145838921072
  0
ARC
  8
1
  6
CONTINUOUS
 62
1
 10
-1.41036312236404
 20
2.20939930065477
 30
0.0
 40
0.00984252000000001
 50
56.8541610789272
 51
135.000000000001
  0
ARC
  8
1
  6
CONTINUOUS
 62
1
 10
-1.40067621663548
 20
2.22423302929074
 30
0.0
 40
0.00787401600000003
 50
236.854161078931
 51
270.000000000003
  0
ARC
  8
1
  6
CONTINUOUS
 62
1
 10
-1.425196851
 20
2.19971239492622
 30
0.0
 40
0.00787401600000015
 50
3.24098522041132E-12
 51
33.1458389210741
  0
ARC
  8
1
  6
CONTINUOUS
 62
1
 10
-1.41036312236404
 20
1.98709825246157
 30
0.0
 40
0.00984251999999987
 50
146.854161078924
 51
224.999999999997
  0
ARC
  8
1
  6
CONTINUOUS
 62
1
 10
-1.41036312236404
 20
1.98709825246157
 30
0.0
 40
0.00984251999999998
 50
224.999999999999
 51
303.145838921073
  0
ARC
  8
1
  6
CONTINUOUS
 62
1
 10
-1.40067621663548
 20
1.9722645238256
 30
0.0
 40
0.00787401600000005
 50
89.9999999999923
 51
123.145838921065
  0
ARC
  8
1
  6
CONTINUOUS
 62
1
 10
-1.425196851
 20
1.99678515819012
 30
0.0
 40
0.00787401600000012
 50
326.854161078925
 51
359.999999999996
  0
ARC
  8
1
  6
CONTINUOUS
 62
1
 10
-0.499085696635967
 20
1.98709825246157
 30
0.0
 40
0.00984251999999996
 50
314.999999999999
 51
33.1458389210738
  0
ARC
  8
1
  6
CONTINUOUS
 62
1
 10
-0.499085696635967
 20
1.98709825246157
 30
0.0
 40
0.00984251999999997
 50
236.854161078926
 51
315
  0
ARC
  8
1
  6
CONTINUOUS
 62
1
 10
-0.508772602364519
 20
1.9722645238256
 30
0.0
 40
0.00787401599999988
 50
56.8541610789308
 51
90.0000000000035
  0
ARC
  8
1
  6
CONTINUOUS
 62
1
 10
-0.484251968000003
 20
1.99678515819012
 30
0.0
 40
0.00787401600000001
 50
180
 51
213.145838921071
  0
ARC
  8
1
  6
CONTINUOUS
 62
1
 10
-0.499085696635967
 20
2.20939930065477
 30
0.0
 40
0.00984252000000017
 50
326.854161078922
 51
44.9999999999978
  0
ARC
  8
1
  6
CONTINUOUS
 62
1
 10
-0.499085696635967
 20
2.20939930065477
 30
0.0
 40
0.00984252000000009
 50
44.9999999999989
 51
123.145838921072
  0
ARC
  8
1
  6
CONTINUOUS
 62
1
 10
-0.508772602364518
 20
2.22423302929074
 30
0.0
 40
0.00787401599999968
 50
269.999999999992
 51
303.145838921063
  0
ARC
  8
1
  6
CONTINUOUS
 62
1
 10
-0.484251968000003
 20
2.19971239492622
 30
0.0
 40
0.00787401600000012
 50
146.854161078925
 51
179.999999999996
  0
LINE
  8
1
  6
CONTINUOUS
 62
1
 10
-0.433070866
 20
2.21939743369365
 30
0.0
 11
-0.433070866
 21
2.12187082355817
 31
0.0
  0
LINE
  8
1
  6
CONTINUOUS
 62
1
 10
-0.393700787
 20
2.23604405305817
 30
0.0
 11
-0.416424247635483
 21
2.2360440513256
 31
0.0
  0
LINE
  8
1
  6
CONTINUOUS
 62
1
 10
-1.476377953
 20
1.96045350105817
 30
0.0
 11
-1.476377953
 21
2.07462672955817
 31
0.0
  0
ARC
  8
1
  6
CONTINUOUS
 62
1
 10
-1.456692914
 20
2.12187082355817
 30
0.0
 40
0.0196850390000006
 50
179.999999999997
 51
269.999999999999
  0
ARC
  8
1
  6
CONTINUOUS
 62
1
 10
-1.456692914
 20
2.07462672955817
 30
0.0
 40
0.0196850390000001
 50
89.9999999999952
 51
180
  0
LINE
  8
1
  6
CONTINUOUS
 62
1
 10
0.472440945000004
 20
2.10218578455817
 30
0.0
 11
0.452755904999999
 21
2.10218578455817
 31
0.0
  0
LINE
  8
1
  6
CONTINUOUS
 62
1
 10
0.472440945000003
 20
2.09431176855817
 30
0.0
 11
0.452755904999999
 21
2.09431176855817
 31
0.0
  0
LINE
  8
1
  6
CONTINUOUS
 62
1
 10
0.492125984000003
 20
1.99678515819012
 30
0.0
 11
0.492125984000002
 21
2.07462672955817
 31
0.0
  0
LINE
  8
1
  6
CONTINUOUS
 62
1
 10
1.40067621663548
 20
2.21635901329074
 30
0.0
 11
0.50877260236452
 21
2.21635901329074
 31
0.0
  0
LINE
  8
1
  6
CONTINUOUS
 62
1
 10
1.417322835
 20
1.99678515819012
 30
0.0
 11
1.417322835
 21
2.07462672955817
 31
0.0
  0
LINE
  8
1
  6
CONTINUOUS
 62
1
 10
0.50877260236452
 20
1.9801385398256
 30
0.0
 11
1.40067621663548
 21
1.9801385398256
 31
0.0
  0
LINE
  8
1
  6
CONTINUOUS
 62
1
 10
0.492125984000003
 20
2.19971239492622
 30
0.0
 11
0.492125984000003
 21
2.12187082355817
 31
0.0
  0
LINE
  8
1
  6
CONTINUOUS
 62
1
 10
1.456692914
 20
2.10218578455817
 30
0.0
 11
1.43700787400001
 21
2.10218578455816
 31
0.0
  0
LINE
  8
1
  6
CONTINUOUS
 62
1
 10
1.417322835
 20
2.19971239492622
 30
0.0
 11
1.417322835
 21
2.12187082355816
 31
0.0
  0
LINE
  8
1
  6
CONTINUOUS
 62
1
 10
1.456692914
 20
2.09431176855817
 30
0.0
 11
1.437007874
 21
2.09431176855817
 31
0.0
  0
ARC
  8
1
  6
CONTINUOUS
 62
1
 10
1.437007874
 20
2.12187082355816
 30
0.0
 40
0.0196850390000001
 50
179.999999999998
 51
270.000000000009
  0
ARC
  8
1
  6
CONTINUOUS
 62
1
 10
1.437007874
 20
2.07462672955817
 30
0.0
 40
0.0196850390000001
 50
89.9999999999974
 51
180.000000000001
  0
ARC
  8
1
  6
CONTINUOUS
 62
1
 10
0.472440945000003
 20
2.12187082355817
 30
0.0
 40
0.0196850390000001
 50
270.000000000001
 51
9.60527513801982E-13
  0
ARC
  8
1
  6
CONTINUOUS
 62
1
 10
0.452755905
 20
2.12187082355817
 30
0.0
 40
0.019685039
 50
180.000000000001
 51
269.999999999998
  0
ARC
  8
1
  6
CONTINUOUS
 62
1
 10
0.472440945000003
 20
2.07462672955817
 30
0.0
 40
0.0196850390000002
 50
359.999999999997
 51
89.999999999999
  0
ARC
  8
1
  6
CONTINUOUS
 62
1
 10
0.452755904999999
 20
2.07462672955817
 30
0.0
 40
0.0196850390000001
 50
90.0000000000013
 51
180
  0
LINE
  8
1
  6
CONTINUOUS
 62
1
 10
0.433070866
 20
1.97710011942269
 30
0.0
 11
0.433070865999999
 21
2.07462672955817
 31
0.0
  0
LINE
  8
1
  6
CONTINUOUS
 62
1
 10
0.416424247635483
 20
1.96045350105817
 30
0.0
 11
0.393700787
 21
1.96045350005817
 31
0.0
  0
LINE
  8
1
  6
CONTINUOUS
 62
1
 10
1.476377953
 20
2.23604405205817
 30
0.0
 11
1.476377953
 21
2.12187082355817
 31
0.0
  0
ARC
  8
1
  6
CONTINUOUS
 62
1
 10
0.426111153364036
 20
1.96741321369414
 30
0.0
 40
0.00984251999999985
 50
315
 51
33.1458389210741
  0
ARC
  8
1
  6
CONTINUOUS
 62
1
 10
0.426111153364036
 20
1.96741321369414
 30
0.0
 40
0.00984251999999997
 50
236.854161078926
 51
315
  0
ARC
  8
1
  6
CONTINUOUS
 62
1
 10
0.416424247635483
 20
1.95257948505817
 30
0.0
 40
0.00787401599999983
 50
56.8541610789307
 51
90.0000000000036
  0
ARC
  8
1
  6
CONTINUOUS
 62
1
 10
0.440944882
 20
1.97710011942269
 30
0.0
 40
0.00787401600000006
 50
180.000000000001
 51
213.145838921072
  0
ARC
  8
1
  6
CONTINUOUS
 62
1
 10
1.437007874
 20
2.23604405205817
 30
0.0
 40
0.0393700790000002
 50
359.999999999997
 51
89.9999999999995
  0
ARC
  8
1
  6
CONTINUOUS
 62
1
 10
1.437007874
 20
1.96045350105817
 30
0.0
 40
0.0393700790000001
 50
270.000000000001
 51
6.74277592470265E-13
  0
ARC
  8
1
  6
CONTINUOUS
 62
1
 10
0.393700786999999
 20
1.94076846105817
 30
0.0
 40
0.0196850390000001
 50
179.999999999998
 51
269.999999999999
  0
ARC
  8
1
  6
CONTINUOUS
 62
1
 10
0.393700787
 20
1.94076846105817
 30
0.0
 40
0.0196850390000001
 50
89.9999999999996
 51
180.000000000002
  0
LINE
  8
1
  6
CONTINUOUS
 62
1
 10
0.393700786999999
 20
1.92108342205817
 30
0.0
 11
1.437007874
 21
1.92108342205817
 31
0.0
  0
ARC
  8
1
  6
CONTINUOUS
 62
1
 10
0.426111153364036
 20
2.2290843394222
 30
0.0
 40
0.00984251999999998
 50
326.854161078925
 51
44.9999999999995
  0
ARC
  8
1
  6
CONTINUOUS
 62
1
 10
0.426111153364036
 20
2.2290843394222
 30
0.0
 40
0.00984251999999999
 50
45.0000000000009
 51
123.145838921074
  0
ARC
  8
1
  6
CONTINUOUS
 62
1
 10
0.416424247635484
 20
2.24391806805817
 30
0.0
 40
0.00787401599999969
 50
269.99999999999
 51
303.145838921063
  0
ARC
  8
1
  6
CONTINUOUS
 62
1
 10
0.440944882
 20
2.21939743369365
 30
0.0
 40
0.00787401600000006
 50
146.854161078927
 51
179.999999999998
  0
ARC
  8
1
  6
CONTINUOUS
 62
1
 10
0.393700786999999
 20
2.25572909205817
 30
0.0
 40
0.0196850390000001
 50
89.9999999999993
 51
180.000000000001
  0
ARC
  8
1
  6
CONTINUOUS
 62
1
 10
0.393700787
 20
2.25572909205817
 30
0.0
 40
0.0196850390000002
 50
179.999999999997
 51
269.999999999998
  0
LINE
  8
1
  6
CONTINUOUS
 62
1
 10
0.393700786999999
 20
2.27541413105817
 30
0.0
 11
1.437007874
 21
2.27541413105817
 31
0.0
  0
ARC
  8
1
  6
CONTINUOUS
 62
1
 10
1.41036312236404
 20
2.20939930065477
 30
0.0
 40
0.00984251999999995
 50
326.854161078924
 51
44.999999999998
  0
ARC
  8
1
  6
CONTINUOUS
 62
1
 10
1.41036312236404
 20
2.20939930065477
 30
0.0
 40
0.00984252000000006
 50
44.9999999999988
 51
123.145838921072
  0
ARC
  8
1
  6
CONTINUOUS
 62
1
 10
1.40067621663548
 20
2.22423302929074
 30
0.0
 40
0.00787401600000005
 50
269.999999999996
 51
303.145838921068
  0
ARC
  8
1
  6
CONTINUOUS
 62
1
 10
1.425196851
 20
2.19971239492622
 30
0.0
 40
0.00787401600000012
 50
146.854161078925
 51
179.999999999996
  0
ARC
  8
1
  6
CONTINUOUS
 62
1
 10
1.41036312236404
 20
1.98709825246157
 30
0.0
 40
0.00984251999999977
 50
315
 51
33.1458389210745
  0
ARC
  8
1
  6
CONTINUOUS
 62
1
 10
1.41036312236404
 20
1.98709825246157
 30
0.0
 40
0.00984251999999997
 50
236.854161078926
 51
315
  0
ARC
  8
1
  6
CONTINUOUS
 62
1
 10
1.40067621663548
 20
1.9722645238256
 30
0.0
 40
0.00787401599999994
 50
56.854161078928
 51
90.0000000000009
  0
ARC
  8
1
  6
CONTINUOUS
 62
1
 10
1.425196851
 20
1.99678515819012
 30
0.0
 40
0.00787401600000013
 50
180.000000000003
 51
213.145838921074
  0
ARC
  8
1
  6
CONTINUOUS
 62
1
 10
0.499085696635967
 20
1.98709825246157
 30
0.0
 40
0.00984251999999986
 50
146.854161078924
 51
224.999999999997
  0
ARC
  8
1
  6
CONTINUOUS
 62
1
 10
0.499085696635967
 20
1.98709825246157
 30
0.0
 40
0.00984251999999991
 50
225
 51
303.145838921073
  0
ARC
  8
1
  6
CONTINUOUS
 62
1
 10
0.508772602364519
 20
1.9722645238256
 30
0.0
 40
0.00787401599999983
 50
89.9999999999935
 51
123.145838921066
  0
ARC
  8
1
  6
CONTINUOUS
 62
1
 10
0.484251968000003
 20
1.99678515819012
 30
0.0
 40
0.0078740160000001
 50
326.854161078926
 51
359.999999999997
  0
ARC
  8
1
  6
CONTINUOUS
 62
1
 10
0.499085696635967
 20
2.20939930065477
 30
0.0
 40
0.00984251999999994
 50
135.000000000001
 51
213.145838921075
  0
ARC
  8
1
  6
CONTINUOUS
 62
1
 10
0.499085696635967
 20
2.20939930065477
 30
0.0
 40
0.00984251999999998
 50
56.8541610789273
 51
135.000000000001
  0
ARC
  8
1
  6
CONTINUOUS
 62
1
 10
0.508772602364519
 20
2.22423302929074
 30
0.0
 40
0.00787401599999967
 50
236.85416107893
 51
270.000000000002
  0
ARC
  8
1
  6
CONTINUOUS
 62
1
 10
0.484251968000003
 20
2.19971239492622
 30
0.0
 40
0.0078740160000001
 50
1.88606892610787E-12
 51
33.1458389210727
  0
LINE
  8
1
  6
CONTINUOUS
 62
1
 10
0.433070866
 20
2.21939743369365
 30
0.0
 11
0.433070866
 21
2.12187082355817
 31
0.0
  0
LINE
  8
1
  6
CONTINUOUS
 62
1
 10
0.393700787
 20
2.23604405305817
 30
0.0
 11
0.416424247635483
 21
2.2360440513256
 31
0.0
  0
LINE
  8
1
  6
CONTINUOUS
 62
1
 10
1.476377953
 20
1.96045350105817
 30
0.0
 11
1.476377953
 21
2.07462672955817
 31
0.0
  0
ARC
  8
1
  6
CONTINUOUS
 62
1
 10
1.456692914
 20
2.12187082355817
 30
0.0
 40
0.0196850390000005
 50
269.999999999998
 51
1.0813885916976E-12
  0
ARC
  8
1
  6
CONTINUOUS
 62
1
 10
1.456692914
 20
2.07462672955817
 30
0.0
 40
0.0196850390000001
 50
359.999999999997
 51
90.0000000000029
  0
ARC
  8
1
  6
CONTINUOUS
 62
1
 10
-0.946401100317741
 20
-9.66105358613342E-12
 30
0.0
 40
0.049212598
 50
179.999999999997
 51
359.999999999997
  0
ARC
  8
1
  6
CONTINUOUS
 62
1
 10
0
 20
-3.93842792441279E-14
 30
0.0
 40
1.417322835
 50
179.999999999997
 51
359.999999999997
  0
ARC
  8
1
  6
CONTINUOUS
 62
1
 10
0
 20
4.45484254802326E-14
 30
0.0
 40
1.417322835
 50
359.999999999997
 51
180
  0
ARC
  8
1
  6
CONTINUOUS
 62
1
 10
-0.946401100317741
 20
-9.6581288194781E-12
 30
0.0
 40
0.049212598
 50
359.999999999997
 51
180
  0
ARC
  8
1
  6
CONTINUOUS
 62
1
 10
0
 20
-1.47029732896518E-14
 30
0.0
 40
0.492125984000003
 50
179.999999999997
 51
359.999999999997
  0
ARC
  8
1
  6
CONTINUOUS
 62
1
 10
0.946401100317741
 20
1.93174262793773E-11
 30
0.0
 40
0.049212598
 50
180.000000000582
 51
5.84191561672493E-10
  0
ARC
  8
1
  6
CONTINUOUS
 62
1
 10
0.946401100317741
 20
1.93194418200701E-11
 30
0.0
 40
0.049212598
 50
5.84166117235041E-10
 51
180.000000000585
  0
ARC
  8
1
  6
CONTINUOUS
 62
1
 10
0
 20
1.45446935013788E-14
 30
0.0
 40
0.492125984000003
 50
359.999999999997
 51
180
  0
LINE
  8
4
  6
CONTINUOUS
 62
4
 10
0.0726947484351793
 20
2.24180966649335
 30
0.0
 11
0.145669292
 21
2.31478421005817
 31
0.0
  0
LINE
  8
4
  6
CONTINUOUS
 62
4
 10
-0.145669292
 20
2.31478421005817
 30
0.0
 11
0.145669292
 21
2.31478421005817
 31
0.0
  0
LINE
  8
4
  6
CONTINUOUS
 62
4
 10
-0.0726947484351781
 20
2.24180966649335
 30
0.0
 11
-0.145669292
 21
2.31478421005817
 31
0.0
  0
LINE
  8
4
  6
CONTINUOUS
 62
4
 10
0.0726947484351793
 20
1.95468788662299
 30
0.0
 11
0.145669292
 21
1.88171334305817
 31
0.0
  0
LINE
  8
4
  6
CONTINUOUS
 62
4
 10
-0.145669292
 20
1.88171334305817
 30
0.0
 11
0.145669292
 21
1.88171334305817
 31
0.0
  0
LINE
  8
4
  6
CONTINUOUS
 62
4
 10
-0.0726947484351779
 20
1.95468788662299
 30
0.0
 11
-0.145669292
 21
1.88171334305817
 31
0.0
  0
LINE
  8
4
  6
CONTINUOUS
 62
4
 10
-0.0669291339999993
 20
1.96860731118781
 30
0.0
 11
-0.0669291339999995
 21
2.22789024192853
 31
0.0
  0
LINE
  8
4
  6
CONTINUOUS
 62
4
 10
0.0669291340000009
 20
2.22789024192853
 30
0.0
 11
0.066929134000001
 21
1.96860731118781
 31
0.0
  0
ARC
  8
4
  6
CONTINUOUS
 62
4
 10
-0.0866141729999994
 20
2.22789024192853
 30
0.0
 40
0.0196850389999998
 50
359.999999999998
 51
45.0000000000004
  0
ARC
  8
4
  6
CONTINUOUS
 62
4
 10
-0.086614172999999
 20
1.96860731118781
 30
0.0
 40
0.0196850390000001
 50
314.999999999998
 51
359.999999999998
  0
ARC
  8
4
  6
CONTINUOUS
 62
4
 10
0.0866141730000009
 20
1.96860731118781
 30
0.0
 40
0.0196850389999999
 50
179.999999999998
 51
224.999999999998
  0
ARC
  8
4
  6
CONTINUOUS
 62
4
 10
0.0866141730000001
 20
2.22789024192853
 30
0.0
 40
0.0196850389999994
 50
134.999999999999
 51
179.999999999999
  0
LINE
  8
4
  6
CONTINUOUS
 62
4
 10
1.01909584875292
 20
2.24180966649335
 30
0.0
 11
1.09207039231774
 21
2.31478421005817
 31
0.0
  0
LINE
  8
4
  6
CONTINUOUS
 62
4
 10
0.800731808317741
 20
2.31478421005817
 30
0.0
 11
1.09207039231774
 21
2.31478421005817
 31
0.0
  0
LINE
  8
4
  6
CONTINUOUS
 62
4
 10
0.873706351882563
 20
2.24180966649335
 30
0.0
 11
0.800731808317741
 21
2.31478421005817
 31
0.0
  0
LINE
  8
4
  6
CONTINUOUS
 62
4
 10
1.01909584875292
 20
1.95468788662299
 30
0.0
 11
1.09207039231774
 21
1.88171334305817
 31
0.0
  0
LINE
  8
4
  6
CONTINUOUS
 62
4
 10
0.800731808317741
 20
1.88171334305817
 30
0.0
 11
1.09207039231774
 21
1.88171334305817
 31
0.0
  0
LINE
  8
4
  6
CONTINUOUS
 62
4
 10
0.873706351882563
 20
1.95468788662299
 30
0.0
 11
0.800731808317741
 21
1.88171334305817
 31
0.0
  0
LINE
  8
4
  6
CONTINUOUS
 62
4
 10
0.879471966317742
 20
1.96860731118781
 30
0.0
 11
0.879471966317742
 21
2.22789024192853
 31
0.0
  0
LINE
  8
4
  6
CONTINUOUS
 62
4
 10
1.01333023431774
 20
2.22789024192853
 30
0.0
 11
1.01333023431774
 21
1.96860731118781
 31
0.0
  0
ARC
  8
4
  6
CONTINUOUS
 62
4
 10
0.859786927317742
 20
2.22789024192853
 30
0.0
 40
0.0196850389999999
 50
359.999999999997
 51
45.0000000000002
  0
ARC
  8
4
  6
CONTINUOUS
 62
4
 10
0.859786927317742
 20
1.96860731118781
 30
0.0
 40
0.019685039
 50
314.999999999999
 51
359.999999999999
  0
ARC
  8
4
  6
CONTINUOUS
 62
4
 10
1.03301527331774
 20
1.96860731118781
 30
0.0
 40
0.019685039
 50
179.999999999998
 51
224.999999999998
  0
ARC
  8
4
  6
CONTINUOUS
 62
4
 10
1.03301527331774
 20
2.22789024192853
 30
0.0
 40
0.019685038999999
 50
134.999999999997
 51
179.999999999997
  0
LINE
  8
4
  6
CONTINUOUS
 62
4
 10
-0.873706351882562
 20
2.24180966649335
 30
0.0
 11
-0.800731808317741
 21
2.31478421005817
 31
0.0
  0
LINE
  8
4
  6
CONTINUOUS
 62
4
 10
-1.09207039231774
 20
2.31478421005817
 30
0.0
 11
-0.800731808317741
 21
2.31478421005817
 31
0.0
  0
LINE
  8
4
  6
CONTINUOUS
 62
4
 10
-1.01909584875292
 20
2.24180966649335
 30
0.0
 11
-1.09207039231774
 21
2.31478421005817
 31
0.0
  0
LINE
  8
4
  6
CONTINUOUS
 62
4
 10
-0.873706351882562
 20
1.95468788662299
 30
0.0
 11
-0.800731808317741
 21
1.88171334305817
 31
0.0
  0
LINE
  8
4
  6
CONTINUOUS
 62
4
 10
-1.09207039231774
 20
1.88171334305817
 30
0.0
 11
-0.800731808317741
 21
1.88171334305817
 31
0.0
  0
LINE
  8
4
  6
CONTINUOUS
 62
4
 10
-1.01909584875292
 20
1.95468788662299
 30
0.0
 11
-1.09207039231774
 21
1.88171334305817
 31
0.0
  0
LINE
  8
4
  6
CONTINUOUS
 62
4
 10
-1.01333023431774
 20
1.96860731118781
 30
0.0
 11
-1.01333023431774
 21
2.22789024192853
 31
0.0
  0
LINE
  8
4
  6
CONTINUOUS
 62
4
 10
-0.87947196631774
 20
2.22789024192853
 30
0.0
 11
-0.87947196631774
 21
1.96860731118781
 31
0.0
  0
ARC
  8
4
  6
CONTINUOUS
 62
4
 10
-1.03301527331774
 20
2.22789024192853
 30
0.0
 40
0.019685039
 50
359.999999999996
 51
44.9999999999988
  0
ARC
  8
4
  6
CONTINUOUS
 62
4
 10
-1.03301527331774
 20
1.96860731118781
 30
0.0
 40
0.0196850390000001
 50
314.999999999998
 51
359.999999999998
  0
ARC
  8
4
  6
CONTINUOUS
 62
4
 10
-0.85978692731774
 20
1.96860731118781
 30
0.0
 40
0.0196850389999999
 50
179.999999999998
 51
224.999999999998
  0
ARC
  8
4
  6
CONTINUOUS
 62
4
 10
-0.859786927317741
 20
2.22789024192853
 30
0.0
 40
0.0196850389999994
 50
134.999999999999
 51
179.999999999999
  0
ARC
  8
5
  6
CONTINUOUS
 62
5
 10
0
 20
3.77160649880062E-15
 30
0.0
 40
0.049212598
 50
359.999999999997
 51
180
  0
ARC
  8
5
  6
CONTINUOUS
 62
5
 10
0
 20
8.46839843470098E-16
 30
0.0
 40
0.049212598
 50
179.999999999997
 51
359.999999999997
  0
ARC
  8
5
  6
CONTINUOUS
 62
5
 10
0
 20
-3.52871358473617E-15
 30
0.0
 40
0.118110236
 50
179.999999999997
 51
359.999999999997
  0
ARC
  8
5
  6
CONTINUOUS
 62
5
 10
0
 20
3.49072643560212E-15
 30
0.0
 40
0.118110236
 50
359.999999999997
 51
180
  0
ARC
  8
5
  6
CONTINUOUS
 62
5
 10
-0.137795276
 20
2.07462672955817
 30
0.0
 40
0.019685039
 50
89.9999999999996
 51
180
  0
LINE
  8
5
  6
CONTINUOUS
 62
5
 10
-0.33464567
 20
1.96045350105817
 30
0.0
 11
-0.177165354773462
 21
1.96045350105817
 31
0.0
  0
LINE
  8
5
  6
CONTINUOUS
 62
5
 10
-0.157480315
 20
2.07462672955817
 30
0.0
 11
-0.157480315
 21
1.98013854083163
 31
0.0
  0
ARC
  8
5
  6
CONTINUOUS
 62
5
 10
-0.33464567
 20
1.94076846205817
 30
0.0
 40
0.0196850390000001
 50
90
 51
180.000000000001
  0
ARC
  8
5
  6
CONTINUOUS
 62
5
 10
-0.33464567
 20
1.94076846205817
 30
0.0
 40
0.0196850390000001
 50
179.999999999998
 51
269.999999999998
  0
LINE
  8
5
  6
CONTINUOUS
 62
5
 10
0.334645670000002
 20
1.92108342205817
 30
0.0
 11
-0.33464567
 21
1.92108342205817
 31
0.0
  0
ARC
  8
5
  6
CONTINUOUS
 62
5
 10
-0.164440027635964
 20
1.96741321369413
 30
0.0
 40
0.00984251999999995
 50
244.4712201949
 51
315
  0
ARC
  8
5
  6
CONTINUOUS
 62
5
 10
-0.164440027635964
 20
1.96741321369413
 30
0.0
 40
0.0098425199999999
 50
314.999999999998
 51
25.5287798050945
  0
ARC
  8
5
  6
CONTINUOUS
 62
5
 10
-0.177165354773462
 20
1.94076846205817
 30
0.0
 40
0.019685039
 50
64.4712201948995
 51
89.9999999999994
  0
ARC
  8
5
  6
CONTINUOUS
 62
5
 10
-0.137795276
 20
1.98013854083163
 30
0.0
 40
0.0196850389999996
 50
180.000000000001
 51
205.528779805094
  0
LINE
  8
5
  6
CONTINUOUS
 62
5
 10
0.33464567
 20
1.96045350105817
 30
0.0
 11
0.177165354773462
 21
1.96045350105817
 31
0.0
  0
ARC
  8
5
  6
CONTINUOUS
 62
5
 10
0.334645670000002
 20
1.94076846105817
 30
0.0
 40
0.0196850390000001
 50
269.999999999999
 51
9.79610841890763E-13
  0
ARC
  8
5
  6
CONTINUOUS
 62
5
 10
0.334645670000001
 20
1.94076846205817
 30
0.0
 40
0.0196850390000001
 50
359.999999999996
 51
89.9999999999999
  0
ARC
  8
5
  6
CONTINUOUS
 62
5
 10
0.164440027635964
 20
1.96741321369413
 30
0.0
 40
0.00984251999999993
 50
224.999999999998
 51
295.528779805098
  0
ARC
  8
5
  6
CONTINUOUS
 62
5
 10
0.164440027635964
 20
1.96741321369413
 30
0.0
 40
0.00984252000000033
 50
154.471220194903
 51
224.999999999997
  0
ARC
  8
5
  6
CONTINUOUS
 62
5
 10
0.177165354773462
 20
1.94076846205817
 30
0.0
 40
0.0196850390000001
 50
90.0000000000004
 51
115.528779805102
  0
ARC
  8
5
  6
CONTINUOUS
 62
5
 10
0.137795276
 20
1.98013854083163
 30
0.0
 40
0.0196850389999999
 50
334.471220194904
 51
359.999999999998
  0
ARC
  8
5
  6
CONTINUOUS
 62
5
 10
-0.137795275
 20
2.07462672955817
 30
0.0
 40
0.0196850390000001
 50
359.999999999998
 51
89.9999999999986
  0
ARC
  8
5
  6
CONTINUOUS
 62
5
 10
-0.111150524364035
 20
1.96741321369413
 30
0.0
 40
0.00984251999999995
 50
224.999999999998
 51
295.528779805098
  0
ARC
  8
5
  6
CONTINUOUS
 62
5
 10
-0.111150524364035
 20
1.96741321369413
 30
0.0
 40
0.00984251999999983
 50
154.471220194903
 51
224.999999999998
  0
ARC
  8
5
  6
CONTINUOUS
 62
5
 10
-0.0984251972265376
 20
1.94076846205817
 30
0.0
 40
0.019685039
 50
90.0000000000004
 51
115.5287798051
  0
ARC
  8
5
  6
CONTINUOUS
 62
5
 10
-0.137795275999999
 20
1.98013854083163
 30
0.0
 40
0.0196850389999994
 50
334.471220194904
 51
359.999999999996
  0
LINE
  8
5
  6
CONTINUOUS
 62
5
 10
-0.118110236
 20
1.98013854083163
 30
0.0
 11
-0.118110236
 21
2.07462672955817
 31
0.0
  0
ARC
  8
5
  6
CONTINUOUS
 62
5
 10
0.137795276
 20
2.07462672955817
 30
0.0
 40
0.0196850390000002
 50
359.999999999997
 51
89.999999999999
  0
LINE
  8
5
  6
CONTINUOUS
 62
5
 10
0.157480315
 20
2.07462672955817
 30
0.0
 11
0.157480315
 21
1.98013854083163
 31
0.0
  0
ARC
  8
5
  6
CONTINUOUS
 62
5
 10
0.137795275
 20
2.07462672955817
 30
0.0
 40
0.0196850389999999
 50
89.9999999999998
 51
179.999999999999
  0
ARC
  8
5
  6
CONTINUOUS
 62
5
 10
0.111150524364036
 20
1.96741321369413
 30
0.0
 40
0.00984251999999995
 50
244.4712201949
 51
315
  0
ARC
  8
5
  6
CONTINUOUS
 62
5
 10
0.111150524364036
 20
1.96741321369413
 30
0.0
 40
0.0098425199999999
 50
314.999999999998
 51
25.5287798050945
  0
ARC
  8
5
  6
CONTINUOUS
 62
5
 10
0.0984251972265373
 20
1.94076846205817
 30
0.0
 40
0.019685039
 50
64.4712201948995
 51
89.9999999999994
  0
ARC
  8
5
  6
CONTINUOUS
 62
5
 10
0.137795275999999
 20
1.98013854083163
 30
0.0
 40
0.0196850389999995
 50
179.999999999999
 51
205.528779805092
  0
LINE
  8
5
  6
CONTINUOUS
 62
5
 10
0.118110236
 20
1.98013854083163
 30
0.0
 11
0.118110236
 21
2.07462672955817
 31
0.0
  0
LINE
  8
5
  6
CONTINUOUS
 62
5
 10
0.0984251972265375
 20
1.96045350105817
 30
0.0
 11
-0.0984251972265375
 21
1.96045350105817
 31
0.0
  0
LINE
  8
5
  6
CONTINUOUS
 62
5
 10
-0.0984251972265375
 20
2.23604405205817
 30
0.0
 11
-0.0669291339999994
 21
2.23604405205817
 31
0.0
  0
ARC
  8
5
  6
CONTINUOUS
 62
5
 10
-0.137795276
 20
2.12187082355817
 30
0.0
 40
0.0196850390000002
 50
179.999999999997
 51
269.999999999997
  0
LINE
  8
5
  6
CONTINUOUS
 62
5
 10
-0.33464567
 20
2.23604405205817
 30
0.0
 11
-0.177165354773462
 21
2.23604405205817
 31
0.0
  0
LINE
  8
5
  6
CONTINUOUS
 62
5
 10
-0.157480315
 20
2.12187082355817
 30
0.0
 11
-0.157480315
 21
2.21635901228471
 31
0.0
  0
ARC
  8
5
  6
CONTINUOUS
 62
5
 10
-0.33464567
 20
2.25572909105817
 30
0.0
 40
0.0196850390000002
 50
179.999999999997
 51
269.999999999998
  0
ARC
  8
5
  6
CONTINUOUS
 62
5
 10
-0.33464567
 20
2.25572909105817
 30
0.0
 40
0.0196850390000005
 50
90.0000000000006
 51
180
  0
ARC
  8
5
  6
CONTINUOUS
 62
5
 10
-0.164440027635964
 20
2.22908433942221
 30
0.0
 40
0.00984251999999998
 50
44.9999999999983
 51
115.528779805099
  0
ARC
  8
5
  6
CONTINUOUS
 62
5
 10
-0.164440027635964
 20
2.22908433942221
 30
0.0
 40
0.00984251999999993
 50
334.471220194903
 51
44.9999999999995
  0
ARC
  8
5
  6
CONTINUOUS
 62
5
 10
-0.177165354773462
 20
2.25572909105817
 30
0.0
 40
0.019685039
 50
270
 51
295.5287798051
  0
ARC
  8
5
  6
CONTINUOUS
 62
5
 10
-0.137795276
 20
2.21635901228471
 30
0.0
 40
0.0196850389999996
 50
154.471220194906
 51
179.999999999999
  0
LINE
  8
5
  6
CONTINUOUS
 62
5
 10
0.33464567
 20
2.23604405205817
 30
0.0
 11
0.177165354773462
 21
2.23604405205817
 31
0.0
  0
ARC
  8
5
  6
CONTINUOUS
 62
5
 10
0.334645670000002
 20
2.25572909205817
 30
0.0
 40
0.0196850390000001
 50
359.999999999997
 51
89.9999999999995
  0
ARC
  8
5
  6
CONTINUOUS
 62
5
 10
0.334645670000001
 20
2.25572909105817
 30
0.0
 40
0.0196850390000001
 50
269.999999999998
 51
1.13863857596394E-12
  0
ARC
  8
5
  6
CONTINUOUS
 62
5
 10
0.164440027635964
 20
2.22908433942221
 30
0.0
 40
0.00984252
 50
64.471220194901
 51
135.000000000001
  0
ARC
  8
5
  6
CONTINUOUS
 62
5
 10
0.164440027635964
 20
2.22908433942221
 30
0.0
 40
0.00984251999999981
 50
135
 51
205.528779805094
  0
ARC
  8
5
  6
CONTINUOUS
 62
5
 10
0.177165354773462
 20
2.25572909105817
 30
0.0
 40
0.0196850390000001
 50
244.471220194896
 51
269.999999999996
  0
ARC
  8
5
  6
CONTINUOUS
 62
5
 10
0.137795276
 20
2.21635901228471
 30
0.0
 40
0.0196850390000003
 50
359.999999999997
 51
25.5287798050934
  0
ARC
  8
5
  6
CONTINUOUS
 62
5
 10
-0.137795275
 20
2.12187082355817
 30
0.0
 40
0.0196850389999999
 50
269.999999999998
 51
359.999999999997
  0
ARC
  8
5
  6
CONTINUOUS
 62
5
 10
-0.111150524364035
 20
2.22908433942221
 30
0.0
 40
0.00984251999999998
 50
64.471220194901
 51
135.000000000001
  0
ARC
  8
5
  6
CONTINUOUS
 62
5
 10
-0.111150524364036
 20
2.22908433942221
 30
0.0
 40
0.00984251999999966
 50
135
 51
205.528779805095
  0
ARC
  8
5
  6
CONTINUOUS
 62
5
 10
-0.0984251972265374
 20
2.25572909105817
 30
0.0
 40
0.019685039
 50
244.471220194899
 51
269.999999999999
  0
ARC
  8
5
  6
CONTINUOUS
 62
5
 10
-0.137795276
 20
2.21635901228471
 30
0.0
 40
0.0196850389999995
 50
5.04117917011967E-13
 51
25.5287798050935
  0
LINE
  8
5
  6
CONTINUOUS
 62
5
 10
-0.118110236
 20
2.21635901228471
 30
0.0
 11
-0.118110236
 21
2.12187082355817
 31
0.0
  0
ARC
  8
5
  6
CONTINUOUS
 62
5
 10
0.137795276
 20
2.12187082355817
 30
0.0
 40
0.019685039
 50
269.999999999998
 51
360
  0
LINE
  8
5
  6
CONTINUOUS
 62
5
 10
0.157480315
 20
2.12187082355817
 30
0.0
 11
0.157480315
 21
2.21635901228471
 31
0.0
  0
ARC
  8
5
  6
CONTINUOUS
 62
5
 10
0.137795275
 20
2.12187082355817
 30
0.0
 40
0.0196850390000001
 50
179.999999999998
 51
269.999999999997
  0
ARC
  8
5
  6
CONTINUOUS
 62
5
 10
0.111150524364035
 20
2.22908433942221
 30
0.0
 40
0.00984251999999998
 50
44.9999999999983
 51
115.528779805099
  0
ARC
  8
5
  6
CONTINUOUS
 62
5
 10
0.111150524364036
 20
2.22908433942221
 30
0.0
 40
0.00984251999999956
 50
334.471220194904
 51
44.9999999999998
  0
ARC
  8
5
  6
CONTINUOUS
 62
5
 10
0.0984251972265379
 20
2.25572909105817
 30
0.0
 40
0.019685039
 50
270
 51
295.5287798051
  0
ARC
  8
5
  6
CONTINUOUS
 62
5
 10
0.137795275999999
 20
2.21635901228471
 30
0.0
 40
0.0196850389999996
 50
154.471220194906
 51
179.999999999999
  0
LINE
  8
5
  6
CONTINUOUS
 62
5
 10
0.118110236
 20
2.21635901228471
 30
0.0
 11
0.118110236
 21
2.12187082355817
 31
0.0
  0
LINE
  8
5
  6
CONTINUOUS
 62
5
 10
0.0984251972265375
 20
2.23604405205817
 30
0.0
 11
0.066929134000001
 21
2.23604405205817
 31
0.0
  0
LINE
  8
5
  6
CONTINUOUS
 62
5
 10
0.334645670000002
 20
2.27541413105817
 30
0.0
 11
-0.33464567
 21
2.27541413105817
 31
0.0
  0
LINE
  8
5
  6
CONTINUOUS
 62
5
 10
-0.0669291339999994
 20
2.23604405205817
 30
0.0
 11
0.066929134000001
 21
2.23604405205817
 31
0.0
  0
LINE
  8
24
  6
CONTINUOUS
 62
24
 10
0.946401100317741
 20
1.88171334305817
 30
0.0
 11
0.946401100317741
 21
2.31478421005817
 31
0.0
  0
LINE
  8
24
  6
CONTINUOUS
 62
24
 10
-4.44089209850063E-16
 20
1.88171334305817
 30
0.0
 11
-4.44089209850063E-16
 21
2.31478421005817
 31
0.0
  0
LINE
  8
24
  6
CONTINUOUS
 62
24
 10
-0.946401100317742
 20
1.88171334305817
 30
0.0
 11
-0.946401100317742
 21
2.31478421005817
 31
0.0
  0
ENDSEC
  0
EOF
