  0
SECTION
  2
HEADER
  9
$ACADVER
  1
AC1003
  9
$EXTMIN
 10
-1.476377953
 20
1.41732283500002
  9
$EXTMAX
 10
1.476377953
 20
-1.41732283500008
  9
$INSUNITS
 70
1
  9
$INSBASE
 10
5.55111512312578E-16
 20
-3.27515792264421E-14
999
Created with OMAX LAYOUT for Windows. (www.omax.com) 4/22/2024
  0
ENDSEC
  0
SECTION
  2
TABLES
  0
TABLE
  2
LAYER
 70
    10
  0
LAYER
  2
0
 70
     0
 62
     7
  6
CONTINUOUS
  0
LAYER
  2
1
 70
     0
 62
     7
  6
CONTINUOUS
  0
LAYER
  2
2
 70
     0
 62
     7
  6
CONTINUOUS
  0
LAYER
  2
3
 70
     0
 62
     7
  6
CONTINUOUS
  0
LAYER
  2
4
 70
     0
 62
     7
  6
CONTINUOUS
  0
LAYER
  2
5
 70
     0
 62
     7
  6
CONTINUOUS
  0
LAYER
  2
6
 70
     0
 62
     7
  6
CONTINUOUS
  0
LAYER
  2
7
 70
     0
 62
     7
  6
CONTINUOUS
  0
LAYER
  2
8
 70
     0
 62
     7
  6
CONTINUOUS
  0
LAYER
  2
9
 70
     0
 62
     7
  6
CONTINUOUS
  0
LAYER
  2
10
 70
     0
 62
     7
  6
CONTINUOUS
  0
LAYER
  2
11
 70
     0
 62
     7
  6
CONTINUOUS
  0
LAYER
  2
12
 70
     0
 62
     7
  6
CONTINUOUS
  0
LAYER
  2
13
 70
     0
 62
     7
  6
CONTINUOUS
  0
LAYER
  2
14
 70
     0
 62
     7
  6
CONTINUOUS
  0
LAYER
  2
15
 70
     0
 62
     7
  6
CONTINUOUS
  0
LAYER
  2
16
 70
     0
 62
     7
  6
CONTINUOUS
  0
LAYER
  2
17
 70
     0
 62
     7
  6
CONTINUOUS
  0
LAYER
  2
18
 70
     0
 62
     7
  6
CONTINUOUS
  0
LAYER
  2
19
 70
     0
 62
     7
  6
CONTINUOUS
  0
LAYER
  2
20
 70
     0
 62
     7
  6
CONTINUOUS
  0
LAYER
  2
21
 70
     0
 62
     7
  6
CONTINUOUS
  0
LAYER
  2
22
 70
     0
 62
     7
  6
CONTINUOUS
  0
LAYER
  2
23
 70
     0
 62
     7
  6
CONTINUOUS
  0
LAYER
  2
24
 70
     0
 62
     7
  6
CONTINUOUS
  0
LAYER
  2
25
 70
     0
 62
     7
  6
CONTINUOUS
  0
LAYER
  2
26
 70
     0
 62
     7
  6
CONTINUOUS
  0
LAYER
  2
27
 70
     0
 62
     7
  6
CONTINUOUS
  0
LAYER
  2
28
 70
     0
 62
     7
  6
CONTINUOUS
  0
LAYER
  2
29
 70
     0
 62
     7
  6
CONTINUOUS
  0
LAYER
  2
30
 70
     0
 62
     7
  6
CONTINUOUS
  0
LAYER
  2
31
 70
     0
 62
     7
  6
CONTINUOUS
  0
ENDTAB
  0
ENDSEC
  0
SECTION
  2
ENTITIES
  0
LINE
  8
1
  6
CONTINUOUS
 62
1
 10
-0.452755904999999
 20
0.0039370080000003
 30
0.0
 11
-0.472440945000004
 21
0.0039370080000003
 31
0.0
  0
LINE
  8
1
  6
CONTINUOUS
 62
1
 10
-0.452755904999999
 20
-0.0039370080000003
 30
0.0
 11
-0.472440945000003
 21
-0.0039370080000003
 31
0.0
  0
LINE
  8
1
  6
CONTINUOUS
 62
1
 10
-0.492125984000002
 20
-0.0236220469999999
 30
0.0
 11
-0.492125984000003
 21
-0.10146361836805
 31
0.0
  0
LINE
  8
1
  6
CONTINUOUS
 62
1
 10
-0.50877260236452
 20
0.11811023673257
 30
0.0
 11
-1.40067621663548
 21
0.11811023673257
 31
0.0
  0
LINE
  8
1
  6
CONTINUOUS
 62
1
 10
-1.417322835
 20
-0.0236220469999999
 30
0.0
 11
-1.417322835
 21
-0.10146361836805
 31
0.0
  0
LINE
  8
1
  6
CONTINUOUS
 62
1
 10
-1.40067621663548
 20
-0.11811023673257
 30
0.0
 11
-0.50877260236452
 21
-0.11811023673257
 31
0.0
  0
LINE
  8
1
  6
CONTINUOUS
 62
1
 10
-0.492125984000003
 20
0.0236220469999999
 30
0.0
 11
-0.492125984000003
 21
0.10146361836805
 31
0.0
  0
LINE
  8
1
  6
CONTINUOUS
 62
1
 10
-1.43700787400001
 20
0.00393700799998964
 30
0.0
 11
-1.456692914
 21
0.0039370080000003
 31
0.0
  0
LINE
  8
1
  6
CONTINUOUS
 62
1
 10
-1.417322835
 20
0.0236220469999902
 30
0.0
 11
-1.417322835
 21
0.10146361836805
 31
0.0
  0
LINE
  8
1
  6
CONTINUOUS
 62
1
 10
-1.437007874
 20
-0.0039370080000003
 30
0.0
 11
-1.456692914
 21
-0.0039370080000003
 31
0.0
  0
ARC
  8
1
  6
CONTINUOUS
 62
1
 10
-1.437007874
 20
0.0236220469999894
 30
0.0
 40
0.0196850389999998
 50
269.999999999984
 51
359.999999999996
  0
ARC
  8
1
  6
CONTINUOUS
 62
1
 10
-1.437007874
 20
-0.0236220469999996
 30
0.0
 40
0.0196850389999995
 50
359.999999999996
 51
90.0000000000022
  0
ARC
  8
1
  6
CONTINUOUS
 62
1
 10
-0.472440945000003
 20
0.0236220469999998
 30
0.0
 40
0.0196850389999997
 50
179.999999999997
 51
269.999999999996
  0
ARC
  8
1
  6
CONTINUOUS
 62
1
 10
-0.452755904999999
 20
0.0236220470000003
 30
0.0
 40
0.019685039
 50
269.999999999999
 51
359.999999999996
  0
ARC
  8
1
  6
CONTINUOUS
 62
1
 10
-0.472440945000003
 20
-0.0236220470000001
 30
0.0
 40
0.0196850389999998
 50
89.9999999999985
 51
179.999999999999
  0
ARC
  8
1
  6
CONTINUOUS
 62
1
 10
-0.452755904999998
 20
-0.0236220469999999
 30
0.0
 40
0.0196850389999998
 50
359.999999999997
 51
89.9999999999981
  0
LINE
  8
1
  6
CONTINUOUS
 62
1
 10
-0.433070865999999
 20
-0.0236220469999999
 30
0.0
 11
-0.433070866
 21
-0.12114865713548
 31
0.0
  0
LINE
  8
1
  6
CONTINUOUS
 62
1
 10
-0.393700787
 20
-0.1377952765
 30
0.0
 11
-0.416424247635483
 21
-0.1377952755
 31
0.0
  0
LINE
  8
1
  6
CONTINUOUS
 62
1
 10
-1.476377953
 20
0.0236220469999999
 30
0.0
 11
-1.476377953
 21
0.137795275499999
 31
0.0
  0
ARC
  8
1
  6
CONTINUOUS
 62
1
 10
-0.426111153364035
 20
-0.13083556286403
 30
0.0
 40
0.00984252000000036
 50
146.854161078922
 51
224.999999999995
  0
ARC
  8
1
  6
CONTINUOUS
 62
1
 10
-0.426111153364035
 20
-0.13083556286403
 30
0.0
 40
0.00984251999999999
 50
224.999999999998
 51
303.145838921072
  0
ARC
  8
1
  6
CONTINUOUS
 62
1
 10
-0.416424247635483
 20
-0.1456692915
 30
0.0
 40
0.0078740159999997
 50
89.9999999999896
 51
123.145838921063
  0
ARC
  8
1
  6
CONTINUOUS
 62
1
 10
-0.440944882
 20
-0.12114865713548
 30
0.0
 40
0.00787401600000012
 50
326.854161078925
 51
359.999999999996
  0
ARC
  8
1
  6
CONTINUOUS
 62
1
 10
-1.437007874
 20
0.1377952755
 30
0.0
 40
0.0393700790000007
 50
89.9999999999995
 51
180
  0
ARC
  8
1
  6
CONTINUOUS
 62
1
 10
-1.437007874
 20
-0.137795275500001
 30
0.0
 40
0.0393700790000004
 50
179.999999999997
 51
269.999999999995
  0
ARC
  8
1
  6
CONTINUOUS
 62
1
 10
-0.393700786999999
 20
-0.1574803155
 30
0.0
 40
0.0196850390000003
 50
269.999999999999
 51
5.47055405211725E-13
  0
ARC
  8
1
  6
CONTINUOUS
 62
1
 10
-0.393700787
 20
-0.1574803155
 30
0.0
 40
0.019685039
 50
359.999999999995
 51
89.9999999999989
  0
LINE
  8
1
  6
CONTINUOUS
 62
1
 10
-1.437007874
 20
-0.1771653545
 30
0.0
 11
-0.393700786999999
 21
-0.1771653545
 31
0.0
  0
ARC
  8
1
  6
CONTINUOUS
 62
1
 10
-0.426111153364036
 20
0.13083556286403
 30
0.0
 40
0.00984251999999973
 50
135
 51
213.145838921073
  0
ARC
  8
1
  6
CONTINUOUS
 62
1
 10
-0.426111153364035
 20
0.13083556286403
 30
0.0
 40
0.00984252
 50
56.8541610789271
 51
135.000000000001
  0
ARC
  8
1
  6
CONTINUOUS
 62
1
 10
-0.416424247635483
 20
0.1456692915
 30
0.0
 40
0.00787401599999964
 50
236.854161078936
 51
270.00000000001
  0
ARC
  8
1
  6
CONTINUOUS
 62
1
 10
-0.440944882
 20
0.121148657135481
 30
0.0
 40
0.00787401600000007
 50
1.81927727779713E-12
 51
33.1458389210728
  0
ARC
  8
1
  6
CONTINUOUS
 62
1
 10
-0.393700786999999
 20
0.1574803155
 30
0.0
 40
0.0196850390000002
 50
359.999999999996
 51
89.9999999999994
  0
ARC
  8
1
  6
CONTINUOUS
 62
1
 10
-0.393700786999999
 20
0.1574803155
 30
0.0
 40
0.0196850390000001
 50
269.999999999999
 51
9.60527513801982E-13
  0
LINE
  8
1
  6
CONTINUOUS
 62
1
 10
-1.437007874
 20
0.1771653545
 30
0.0
 11
-0.393700786999999
 21
0.1771653545
 31
0.0
  0
ARC
  8
1
  6
CONTINUOUS
 62
1
 10
-1.41036312236404
 20
0.1111505240966
 30
0.0
 40
0.00984252000000045
 50
134.999999999999
 51
213.145838921072
  0
ARC
  8
1
  6
CONTINUOUS
 62
1
 10
-1.41036312236404
 20
0.1111505240966
 30
0.0
 40
0.00984252000000001
 50
56.8541610789272
 51
135.000000000001
  0
ARC
  8
1
  6
CONTINUOUS
 62
1
 10
-1.40067621663548
 20
0.12598425273257
 30
0.0
 40
0.00787401599999981
 50
236.854161078936
 51
270.000000000008
  0
ARC
  8
1
  6
CONTINUOUS
 62
1
 10
-1.425196851
 20
0.10146361836805
 30
0.0
 40
0.00787401600000015
 50
3.24098522041132E-12
 51
33.1458389210741
  0
ARC
  8
1
  6
CONTINUOUS
 62
1
 10
-1.41036312236404
 20
-0.1111505240966
 30
0.0
 40
0.00984251999999969
 50
146.854161078924
 51
224.999999999997
  0
ARC
  8
1
  6
CONTINUOUS
 62
1
 10
-1.41036312236404
 20
-0.1111505240966
 30
0.0
 40
0.00984251999999992
 50
225.000000000002
 51
303.145838921076
  0
ARC
  8
1
  6
CONTINUOUS
 62
1
 10
-1.40067621663548
 20
-0.12598425273257
 30
0.0
 40
0.00787401600000003
 50
89.9999999999898
 51
123.145838921063
  0
ARC
  8
1
  6
CONTINUOUS
 62
1
 10
-1.425196851
 20
-0.10146361836805
 30
0.0
 40
0.00787401600000012
 50
326.854161078925
 51
359.999999999996
  0
ARC
  8
1
  6
CONTINUOUS
 62
1
 10
-0.499085696635967
 20
-0.1111505240966
 30
0.0
 40
0.00984252000000024
 50
314.999999999999
 51
33.1458389210739
  0
ARC
  8
1
  6
CONTINUOUS
 62
1
 10
-0.499085696635966
 20
-0.1111505240966
 30
0.0
 40
0.00984251999999992
 50
236.854161078923
 51
314.999999999997
  0
ARC
  8
1
  6
CONTINUOUS
 62
1
 10
-0.508772602364519
 20
-0.12598425273257
 30
0.0
 40
0.0078740160000001
 50
56.8541610789254
 51
89.9999999999981
  0
ARC
  8
1
  6
CONTINUOUS
 62
1
 10
-0.484251968000003
 20
-0.10146361836805
 30
0.0
 40
0.00787401599999998
 50
179.999999999999
 51
213.14583892107
  0
ARC
  8
1
  6
CONTINUOUS
 62
1
 10
-0.499085696635966
 20
0.1111505240966
 30
0.0
 40
0.00984252000000007
 50
326.854161078921
 51
44.9999999999975
  0
ARC
  8
1
  6
CONTINUOUS
 62
1
 10
-0.499085696635967
 20
0.1111505240966
 30
0.0
 40
0.00984252000000009
 50
44.9999999999989
 51
123.145838921072
  0
ARC
  8
1
  6
CONTINUOUS
 62
1
 10
-0.508772602364518
 20
0.12598425273257
 30
0.0
 40
0.00787401599999968
 50
269.999999999992
 51
303.145838921063
  0
ARC
  8
1
  6
CONTINUOUS
 62
1
 10
-0.484251968000003
 20
0.101463618368049
 30
0.0
 40
0.00787401600000012
 50
146.854161078925
 51
179.999999999996
  0
LINE
  8
1
  6
CONTINUOUS
 62
1
 10
-0.433070866
 20
0.0236220469999999
 30
0.0
 11
-0.433070866
 21
0.12114865713548
 31
0.0
  0
LINE
  8
1
  6
CONTINUOUS
 62
1
 10
-0.416424247635483
 20
0.13779527476743
 30
0.0
 11
-0.393700787
 21
0.137795276499999
 31
0.0
  0
LINE
  8
1
  6
CONTINUOUS
 62
1
 10
-1.476377953
 20
-0.0236220469999999
 30
0.0
 11
-1.476377953
 21
-0.1377952755
 31
0.0
  0
ARC
  8
1
  6
CONTINUOUS
 62
1
 10
-1.456692914
 20
0.0236220469999996
 30
0.0
 40
0.0196850390000004
 50
179.999999999997
 51
269.999999999998
  0
ARC
  8
1
  6
CONTINUOUS
 62
1
 10
-1.456692914
 20
-0.0236220470000001
 30
0.0
 40
0.0196850389999998
 50
89.9999999999945
 51
179.999999999999
  0
LINE
  8
1
  6
CONTINUOUS
 62
1
 10
0.452755904999999
 20
0.0039370080000003
 30
0.0
 11
0.472440945000004
 21
0.0039370080000003
 31
0.0
  0
LINE
  8
1
  6
CONTINUOUS
 62
1
 10
0.452755904999999
 20
-0.0039370080000003
 30
0.0
 11
0.472440945000003
 21
-0.0039370080000003
 31
0.0
  0
LINE
  8
1
  6
CONTINUOUS
 62
1
 10
0.492125984000002
 20
-0.0236220469999999
 30
0.0
 11
0.492125984000003
 21
-0.10146361836805
 31
0.0
  0
LINE
  8
1
  6
CONTINUOUS
 62
1
 10
0.508772602364521
 20
0.11811023673257
 30
0.0
 11
1.40067621663548
 21
0.11811023673257
 31
0.0
  0
LINE
  8
1
  6
CONTINUOUS
 62
1
 10
1.417322835
 20
-0.0236220469999999
 30
0.0
 11
1.417322835
 21
-0.10146361836805
 31
0.0
  0
LINE
  8
1
  6
CONTINUOUS
 62
1
 10
1.40067621663548
 20
-0.11811023673257
 30
0.0
 11
0.508772602364521
 21
-0.11811023673257
 31
0.0
  0
LINE
  8
1
  6
CONTINUOUS
 62
1
 10
0.492125984000003
 20
0.0236220469999999
 30
0.0
 11
0.492125984000003
 21
0.10146361836805
 31
0.0
  0
LINE
  8
1
  6
CONTINUOUS
 62
1
 10
1.43700787400001
 20
0.00393700799998964
 30
0.0
 11
1.456692914
 21
0.0039370080000003
 31
0.0
  0
LINE
  8
1
  6
CONTINUOUS
 62
1
 10
1.417322835
 20
0.0236220469999902
 30
0.0
 11
1.417322835
 21
0.10146361836805
 31
0.0
  0
LINE
  8
1
  6
CONTINUOUS
 62
1
 10
1.437007874
 20
-0.0039370080000003
 30
0.0
 11
1.456692914
 21
-0.0039370080000003
 31
0.0
  0
ARC
  8
1
  6
CONTINUOUS
 62
1
 10
1.437007874
 20
0.0236220469999894
 30
0.0
 40
0.019685039
 50
179.999999999998
 51
270.000000000009
  0
ARC
  8
1
  6
CONTINUOUS
 62
1
 10
1.437007874
 20
-0.0236220470000004
 30
0.0
 40
0.0196850390000001
 50
89.9999999999974
 51
180.000000000001
  0
ARC
  8
1
  6
CONTINUOUS
 62
1
 10
0.472440945000004
 20
0.0236220470000004
 30
0.0
 40
0.0196850390000001
 50
270.000000000001
 51
9.09638638898566E-13
  0
ARC
  8
1
  6
CONTINUOUS
 62
1
 10
0.452755905
 20
0.0236220469999996
 30
0.0
 40
0.0196850389999996
 50
180.000000000002
 51
269.999999999999
  0
ARC
  8
1
  6
CONTINUOUS
 62
1
 10
0.472440945000004
 20
-0.0236220469999999
 30
0.0
 40
0.0196850389999998
 50
359.999999999997
 51
89.9999999999998
  0
ARC
  8
1
  6
CONTINUOUS
 62
1
 10
0.452755904999999
 20
-0.0236220470000002
 30
0.0
 40
0.0196850389999999
 50
90.0000000000004
 51
179.999999999999
  0
LINE
  8
1
  6
CONTINUOUS
 62
1
 10
0.433070865999999
 20
-0.0236220469999999
 30
0.0
 11
0.433070866
 21
-0.12114865713548
 31
0.0
  0
LINE
  8
1
  6
CONTINUOUS
 62
1
 10
0.393700787
 20
-0.1377952765
 30
0.0
 11
0.416424247635483
 21
-0.1377952755
 31
0.0
  0
LINE
  8
1
  6
CONTINUOUS
 62
1
 10
1.476377953
 20
0.0236220469999999
 30
0.0
 11
1.476377953
 21
0.137795275499999
 31
0.0
  0
ARC
  8
1
  6
CONTINUOUS
 62
1
 10
0.426111153364037
 20
-0.13083556286403
 30
0.0
 40
0.0098425199999996
 50
314.999999999999
 51
33.1458389210739
  0
ARC
  8
1
  6
CONTINUOUS
 62
1
 10
0.426111153364036
 20
-0.13083556286403
 30
0.0
 40
0.00984251999999999
 50
236.854161078927
 51
315.000000000001
  0
ARC
  8
1
  6
CONTINUOUS
 62
1
 10
0.416424247635483
 20
-0.1456692915
 30
0.0
 40
0.00787401600000006
 50
56.8541610789253
 51
89.9999999999982
  0
ARC
  8
1
  6
CONTINUOUS
 62
1
 10
0.440944882
 20
-0.12114865713548
 30
0.0
 40
0.00787401600000001
 50
180
 51
213.145838921071
  0
ARC
  8
1
  6
CONTINUOUS
 62
1
 10
1.437007874
 20
0.1377952755
 30
0.0
 40
0.0393700790000005
 50
359.999999999996
 51
89.9999999999988
  0
ARC
  8
1
  6
CONTINUOUS
 62
1
 10
1.437007874
 20
-0.1377952755
 30
0.0
 40
0.0393700790000003
 50
270.000000000001
 51
9.2236085762442E-13
  0
ARC
  8
1
  6
CONTINUOUS
 62
1
 10
0.393700786999999
 20
-0.157480315500001
 30
0.0
 40
0.019685039
 50
179.999999999998
 51
269.999999999999
  0
ARC
  8
1
  6
CONTINUOUS
 62
1
 10
0.393700787
 20
-0.1574803155
 30
0.0
 40
0.0196850389999999
 50
89.9999999999991
 51
180.000000000001
  0
LINE
  8
1
  6
CONTINUOUS
 62
1
 10
1.437007874
 20
-0.1771653545
 30
0.0
 11
0.393700786999999
 21
-0.1771653545
 31
0.0
  0
ARC
  8
1
  6
CONTINUOUS
 62
1
 10
0.426111153364037
 20
0.13083556286403
 30
0.0
 40
0.00984251999999956
 50
326.854161078925
 51
44.9999999999995
  0
ARC
  8
1
  6
CONTINUOUS
 62
1
 10
0.426111153364036
 20
0.13083556286403
 30
0.0
 40
0.00984252000000004
 50
44.9999999999989
 51
123.145838921072
  0
ARC
  8
1
  6
CONTINUOUS
 62
1
 10
0.416424247635484
 20
0.1456692915
 30
0.0
 40
0.00787401599999969
 50
269.99999999999
 51
303.145838921063
  0
ARC
  8
1
  6
CONTINUOUS
 62
1
 10
0.440944882
 20
0.121148657135481
 30
0.0
 40
0.00787401600000006
 50
146.854161078927
 51
179.999999999998
  0
ARC
  8
1
  6
CONTINUOUS
 62
1
 10
0.393700786999999
 20
0.1574803155
 30
0.0
 40
0.0196850390000001
 50
89.9999999999993
 51
180.000000000001
  0
ARC
  8
1
  6
CONTINUOUS
 62
1
 10
0.393700787000001
 20
0.1574803155
 30
0.0
 40
0.0196850390000003
 50
179.999999999996
 51
269.999999999997
  0
LINE
  8
1
  6
CONTINUOUS
 62
1
 10
1.437007874
 20
0.1771653545
 30
0.0
 11
0.393700786999999
 21
0.1771653545
 31
0.0
  0
ARC
  8
1
  6
CONTINUOUS
 62
1
 10
1.41036312236404
 20
0.111150524096599
 30
0.0
 40
0.00984251999999959
 50
326.854161078924
 51
44.9999999999983
  0
ARC
  8
1
  6
CONTINUOUS
 62
1
 10
1.41036312236404
 20
0.1111505240966
 30
0.0
 40
0.00984252000000008
 50
44.9999999999989
 51
123.145838921072
  0
ARC
  8
1
  6
CONTINUOUS
 62
1
 10
1.40067621663548
 20
0.12598425273257
 30
0.0
 40
0.00787401599999983
 50
269.999999999991
 51
303.145838921063
  0
ARC
  8
1
  6
CONTINUOUS
 62
1
 10
1.425196851
 20
0.101463618368049
 30
0.0
 40
0.00787401600000012
 50
146.854161078925
 51
179.999999999996
  0
ARC
  8
1
  6
CONTINUOUS
 62
1
 10
1.41036312236404
 20
-0.1111505240966
 30
0.0
 40
0.00984251999999957
 50
314.999999999999
 51
33.1458389210736
  0
ARC
  8
1
  6
CONTINUOUS
 62
1
 10
1.41036312236404
 20
-0.1111505240966
 30
0.0
 40
0.00984251999999992
 50
236.854161078923
 51
314.999999999997
  0
ARC
  8
1
  6
CONTINUOUS
 62
1
 10
1.40067621663548
 20
-0.12598425273257
 30
0.0
 40
0.00787401600000006
 50
56.8541610789253
 51
89.9999999999982
  0
ARC
  8
1
  6
CONTINUOUS
 62
1
 10
1.425196851
 20
-0.10146361836805
 30
0.0
 40
0.00787401600000013
 50
180.000000000003
 51
213.145838921074
  0
ARC
  8
1
  6
CONTINUOUS
 62
1
 10
0.499085696635967
 20
-0.1111505240966
 30
0.0
 40
0.00984251999999967
 50
146.854161078923
 51
224.999999999996
  0
ARC
  8
1
  6
CONTINUOUS
 62
1
 10
0.499085696635967
 20
-0.1111505240966
 30
0.0
 40
0.00984251999999985
 50
225.000000000003
 51
303.145838921076
  0
ARC
  8
1
  6
CONTINUOUS
 62
1
 10
0.508772602364519
 20
-0.12598425273257
 30
0.0
 40
0.00787401599999971
 50
89.9999999999908
 51
123.145838921063
  0
ARC
  8
1
  6
CONTINUOUS
 62
1
 10
0.484251968000003
 20
-0.10146361836805
 30
0.0
 40
0.0078740160000001
 50
326.854161078926
 51
359.999999999997
  0
ARC
  8
1
  6
CONTINUOUS
 62
1
 10
0.499085696635968
 20
0.1111505240966
 30
0.0
 40
0.0098425200000003
 50
135.000000000001
 51
213.145838921075
  0
ARC
  8
1
  6
CONTINUOUS
 62
1
 10
0.499085696635967
 20
0.1111505240966
 30
0.0
 40
0.00984251999999998
 50
56.8541610789273
 51
135.000000000001
  0
ARC
  8
1
  6
CONTINUOUS
 62
1
 10
0.50877260236452
 20
0.12598425273257
 30
0.0
 40
0.0078740159999997
 50
236.854161078924
 51
269.999999999996
  0
ARC
  8
1
  6
CONTINUOUS
 62
1
 10
0.484251968000003
 20
0.10146361836805
 30
0.0
 40
0.00787401600000011
 50
1.90515225419665E-12
 51
33.1458389210727
  0
LINE
  8
1
  6
CONTINUOUS
 62
1
 10
0.433070866
 20
0.0236220469999999
 30
0.0
 11
0.433070866
 21
0.12114865713548
 31
0.0
  0
LINE
  8
1
  6
CONTINUOUS
 62
1
 10
0.416424247635483
 20
0.13779527476743
 30
0.0
 11
0.393700787
 21
0.137795276499999
 31
0.0
  0
LINE
  8
1
  6
CONTINUOUS
 62
1
 10
1.476377953
 20
-0.0236220469999999
 30
0.0
 11
1.476377953
 21
-0.1377952755
 31
0.0
  0
ARC
  8
1
  6
CONTINUOUS
 62
1
 10
1.456692914
 20
0.0236220470000002
 30
0.0
 40
0.0196850390000008
 50
269.999999999998
 51
1.65388843436103E-12
  0
ARC
  8
1
  6
CONTINUOUS
 62
1
 10
1.456692914
 20
-0.0236220469999998
 30
0.0
 40
0.0196850389999997
 50
359.999999999997
 51
90.0000000000034
  0
LINE
  8
4
  6
CONTINUOUS
 62
4
 10
1.09207039231774
 20
0.2165354335
 30
0.0
 11
1.01909584875292
 21
0.14356088993518
 31
0.0
  0
LINE
  8
4
  6
CONTINUOUS
 62
4
 10
1.09207039231774
 20
0.2165354335
 30
0.0
 11
0.800731808317741
 21
0.2165354335
 31
0.0
  0
LINE
  8
4
  6
CONTINUOUS
 62
4
 10
0.800731808317741
 20
0.2165354335
 30
0.0
 11
0.873706351882563
 21
0.14356088993518
 31
0.0
  0
LINE
  8
4
  6
CONTINUOUS
 62
4
 10
1.09207039231774
 20
-0.2165354335
 30
0.0
 11
1.01909584875292
 21
-0.14356088993518
 31
0.0
  0
LINE
  8
4
  6
CONTINUOUS
 62
4
 10
1.09207039231774
 20
-0.2165354335
 30
0.0
 11
0.800731808317741
 21
-0.2165354335
 31
0.0
  0
LINE
  8
4
  6
CONTINUOUS
 62
4
 10
0.800731808317741
 20
-0.2165354335
 30
0.0
 11
0.873706351882563
 21
-0.14356088993518
 31
0.0
  0
LINE
  8
4
  6
CONTINUOUS
 62
4
 10
0.879471966317742
 20
0.129641465370359
 30
0.0
 11
0.879471966317742
 21
-0.12964146537036
 31
0.0
  0
LINE
  8
4
  6
CONTINUOUS
 62
4
 10
1.01333023431774
 20
-0.12964146537036
 30
0.0
 11
1.01333023431774
 21
0.129641465370359
 31
0.0
  0
ARC
  8
4
  6
CONTINUOUS
 62
4
 10
0.859786927317743
 20
0.12964146537036
 30
0.0
 40
0.019685038999999
 50
359.999999999997
 51
45.0000000000008
  0
ARC
  8
4
  6
CONTINUOUS
 62
4
 10
0.859786927317742
 20
-0.12964146537036
 30
0.0
 40
0.0196850390000005
 50
314.999999999999
 51
359.999999999999
  0
ARC
  8
4
  6
CONTINUOUS
 62
4
 10
1.03301527331774
 20
-0.12964146537036
 30
0.0
 40
0.0196850390000002
 50
179.999999999997
 51
224.999999999997
  0
ARC
  8
4
  6
CONTINUOUS
 62
4
 10
1.03301527331774
 20
0.12964146537036
 30
0.0
 40
0.0196850389999985
 50
134.999999999996
 51
179.999999999996
  0
LINE
  8
4
  6
CONTINUOUS
 62
4
 10
-0.800731808317741
 20
0.2165354335
 30
0.0
 11
-0.873706351882562
 21
0.14356088993518
 31
0.0
  0
LINE
  8
4
  6
CONTINUOUS
 62
4
 10
-0.800731808317741
 20
0.2165354335
 30
0.0
 11
-1.09207039231774
 21
0.2165354335
 31
0.0
  0
LINE
  8
4
  6
CONTINUOUS
 62
4
 10
-1.09207039231774
 20
0.2165354335
 30
0.0
 11
-1.01909584875292
 21
0.14356088993518
 31
0.0
  0
LINE
  8
4
  6
CONTINUOUS
 62
4
 10
-0.800731808317741
 20
-0.2165354335
 30
0.0
 11
-0.873706351882562
 21
-0.14356088993518
 31
0.0
  0
LINE
  8
4
  6
CONTINUOUS
 62
4
 10
-0.800731808317741
 20
-0.2165354335
 30
0.0
 11
-1.09207039231774
 21
-0.2165354335
 31
0.0
  0
LINE
  8
4
  6
CONTINUOUS
 62
4
 10
-1.09207039231774
 20
-0.2165354335
 30
0.0
 11
-1.01909584875292
 21
-0.14356088993518
 31
0.0
  0
LINE
  8
4
  6
CONTINUOUS
 62
4
 10
-1.01333023431774
 20
0.129641465370359
 30
0.0
 11
-1.01333023431774
 21
-0.12964146537036
 31
0.0
  0
LINE
  8
4
  6
CONTINUOUS
 62
4
 10
-0.87947196631774
 20
-0.12964146537036
 30
0.0
 11
-0.87947196631774
 21
0.129641465370359
 31
0.0
  0
ARC
  8
4
  6
CONTINUOUS
 62
4
 10
-1.03301527331774
 20
0.12964146537036
 30
0.0
 40
0.0196850390000002
 50
359.999999999995
 51
44.9999999999985
  0
ARC
  8
4
  6
CONTINUOUS
 62
4
 10
-1.03301527331774
 20
-0.12964146537036
 30
0.0
 40
0.0196850389999995
 50
314.999999999997
 51
359.999999999997
  0
ARC
  8
4
  6
CONTINUOUS
 62
4
 10
-0.859786927317739
 20
-0.129641465370361
 30
0.0
 40
0.0196850390000001
 50
179.999999999997
 51
224.999999999997
  0
ARC
  8
4
  6
CONTINUOUS
 62
4
 10
-0.859786927317741
 20
0.12964146537036
 30
0.0
 40
0.0196850389999994
 50
134.999999999999
 51
179.999999999999
  0
LINE
  8
4
  6
CONTINUOUS
 62
4
 10
0.145669291999999
 20
0.216535433480722
 30
0.0
 11
0.0726947484351794
 21
0.143560889915902
 31
0.0
  0
LINE
  8
4
  6
CONTINUOUS
 62
4
 10
0.145669291999999
 20
0.216535433480722
 30
0.0
 11
-0.145669292
 21
0.216535433480722
 31
0.0
  0
LINE
  8
4
  6
CONTINUOUS
 62
4
 10
-0.145669292
 20
0.216535433480722
 30
0.0
 11
-0.0726947484351777
 21
0.143560889915902
 31
0.0
  0
LINE
  8
4
  6
CONTINUOUS
 62
4
 10
0.145669291999999
 20
-0.216535433519278
 30
0.0
 11
0.0726947484351794
 21
-0.143560889954458
 31
0.0
  0
LINE
  8
4
  6
CONTINUOUS
 62
4
 10
0.145669291999999
 20
-0.216535433519278
 30
0.0
 11
-0.145669292
 21
-0.216535433519278
 31
0.0
  0
LINE
  8
4
  6
CONTINUOUS
 62
4
 10
-0.145669292
 20
-0.216535433519278
 30
0.0
 11
-0.0726947484351777
 21
-0.143560889954458
 31
0.0
  0
LINE
  8
4
  6
CONTINUOUS
 62
4
 10
-0.0669291339999986
 20
0.129641465351082
 30
0.0
 11
-0.0669291339999986
 21
-0.129641465389638
 31
0.0
  0
LINE
  8
4
  6
CONTINUOUS
 62
4
 10
0.0669291339999993
 20
-0.129641465389638
 30
0.0
 11
0.0669291339999993
 21
0.129641465351082
 31
0.0
  0
ARC
  8
4
  6
CONTINUOUS
 62
4
 10
-0.0866141729999978
 20
0.129641465351083
 30
0.0
 40
0.019685038999999
 50
359.999999999997
 51
45.0000000000008
  0
ARC
  8
4
  6
CONTINUOUS
 62
4
 10
-0.086614172999999
 20
-0.129641465389638
 30
0.0
 40
0.0196850390000005
 50
314.999999999999
 51
359.999999999999
  0
ARC
  8
4
  6
CONTINUOUS
 62
4
 10
0.0866141729999995
 20
-0.129641465389638
 30
0.0
 40
0.0196850390000002
 50
179.999999999997
 51
224.999999999997
  0
ARC
  8
4
  6
CONTINUOUS
 62
4
 10
0.0866141729999988
 20
0.129641465351082
 30
0.0
 40
0.0196850389999985
 50
134.999999999996
 51
179.999999999996
  0
LINE
  8
5
  6
CONTINUOUS
 62
5
 10
-0.137795275
 20
0.0039370080000003
 30
0.0
 11
0.137795276
 21
0.0039370080000003
 31
0.0
  0
LINE
  8
5
  6
CONTINUOUS
 62
5
 10
0.137795276
 20
-0.0039370080000003
 30
0.0
 11
-0.137795275999999
 21
-0.0039370080000003
 31
0.0
  0
ARC
  8
5
  6
CONTINUOUS
 62
5
 10
-0.137795276
 20
-0.0236220470000001
 30
0.0
 40
0.0196850389999998
 50
89.9999999999989
 51
179.999999999999
  0
LINE
  8
5
  6
CONTINUOUS
 62
5
 10
-0.177165354773462
 20
-0.1377952755
 30
0.0
 11
-0.33464567
 21
-0.1377952755
 31
0.0
  0
LINE
  8
5
  6
CONTINUOUS
 62
5
 10
-0.157480315
 20
-0.11811023572654
 30
0.0
 11
-0.157480315
 21
-0.0236220469999999
 31
0.0
  0
ARC
  8
5
  6
CONTINUOUS
 62
5
 10
-0.33464567
 20
-0.1574803145
 30
0.0
 40
0.0196850390000001
 50
90
 51
180.000000000001
  0
ARC
  8
5
  6
CONTINUOUS
 62
5
 10
-0.33464567
 20
-0.157480314500001
 30
0.0
 40
0.019685039
 50
179.999999999998
 51
269.999999999998
  0
LINE
  8
5
  6
CONTINUOUS
 62
5
 10
-0.33464567
 20
-0.1771653545
 30
0.0
 11
0.334645670000002
 21
-0.1771653545
 31
0.0
  0
ARC
  8
5
  6
CONTINUOUS
 62
5
 10
-0.164440027635963
 20
-0.13083556286404
 30
0.0
 40
0.00984251999999991
 50
244.471220194898
 51
314.999999999998
  0
ARC
  8
5
  6
CONTINUOUS
 62
5
 10
-0.164440027635963
 20
-0.13083556286404
 30
0.0
 40
0.00984251999999992
 50
314.999999999998
 51
25.5287798050943
  0
ARC
  8
5
  6
CONTINUOUS
 62
5
 10
-0.177165354773462
 20
-0.1574803145
 30
0.0
 40
0.019685039
 50
64.4712201948995
 51
89.9999999999994
  0
ARC
  8
5
  6
CONTINUOUS
 62
5
 10
-0.137795276
 20
-0.11811023572654
 30
0.0
 40
0.0196850389999996
 50
180.000000000001
 51
205.528779805094
  0
LINE
  8
5
  6
CONTINUOUS
 62
5
 10
0.177165354773462
 20
-0.1377952755
 30
0.0
 11
0.33464567
 21
-0.1377952755
 31
0.0
  0
ARC
  8
5
  6
CONTINUOUS
 62
5
 10
0.334645670000003
 20
-0.1574803155
 30
0.0
 40
0.0196850390000001
 50
269.999999999999
 51
9.60527513801982E-13
  0
ARC
  8
5
  6
CONTINUOUS
 62
5
 10
0.334645670000002
 20
-0.1574803145
 30
0.0
 40
0.019685039
 50
359.999999999995
 51
89.9999999999997
  0
ARC
  8
5
  6
CONTINUOUS
 62
5
 10
0.164440027635965
 20
-0.13083556286404
 30
0.0
 40
0.00984251999999997
 50
224.999999999996
 51
295.528779805096
  0
ARC
  8
5
  6
CONTINUOUS
 62
5
 10
0.164440027635965
 20
-0.13083556286404
 30
0.0
 40
0.00984252000000087
 50
154.471220194902
 51
224.999999999996
  0
ARC
  8
5
  6
CONTINUOUS
 62
5
 10
0.177165354773462
 20
-0.1574803145
 30
0.0
 40
0.019685039
 50
89.9999999999985
 51
115.5287798051
  0
ARC
  8
5
  6
CONTINUOUS
 62
5
 10
0.137795276000001
 20
-0.11811023572654
 30
0.0
 40
0.019685038999999
 50
334.471220194903
 51
359.999999999997
  0
ARC
  8
5
  6
CONTINUOUS
 62
5
 10
0.137795276000001
 20
-0.023622047
 30
0.0
 40
0.0196850389999998
 50
359.999999999998
 51
89.9999999999999
  0
LINE
  8
5
  6
CONTINUOUS
 62
5
 10
0.157480315
 20
-0.11811023572654
 30
0.0
 11
0.157480315
 21
-0.0236220469999999
 31
0.0
  0
ARC
  8
5
  6
CONTINUOUS
 62
5
 10
-0.137795276
 20
0.023622047
 30
0.0
 40
0.0196850389999998
 50
179.999999999998
 51
269.999999999998
  0
LINE
  8
5
  6
CONTINUOUS
 62
5
 10
-0.177165354773462
 20
0.137795275499999
 30
0.0
 11
-0.33464567
 21
0.137795275499999
 31
0.0
  0
LINE
  8
5
  6
CONTINUOUS
 62
5
 10
-0.157480315
 20
0.118110235726539
 30
0.0
 11
-0.157480315
 21
0.0236220469999999
 31
0.0
  0
ARC
  8
5
  6
CONTINUOUS
 62
5
 10
-0.334645669999999
 20
0.157480314499999
 30
0.0
 40
0.0196850390000003
 50
179.999999999996
 51
269.999999999997
  0
ARC
  8
5
  6
CONTINUOUS
 62
5
 10
-0.33464567
 20
0.1574803145
 30
0.0
 40
0.0196850390000005
 50
90.0000000000004
 51
180
  0
ARC
  8
5
  6
CONTINUOUS
 62
5
 10
-0.164440027635963
 20
0.13083556286404
 30
0.0
 40
0.0098425199999999
 50
45.0000000000005
 51
115.528779805101
  0
ARC
  8
5
  6
CONTINUOUS
 62
5
 10
-0.164440027635963
 20
0.130835562864041
 30
0.0
 40
0.00984251999999985
 50
334.471220194903
 51
44.9999999999994
  0
ARC
  8
5
  6
CONTINUOUS
 62
5
 10
-0.177165354773463
 20
0.1574803145
 30
0.0
 40
0.0196850390000004
 50
270.000000000006
 51
295.528779805105
  0
ARC
  8
5
  6
CONTINUOUS
 62
5
 10
-0.137795276
 20
0.11811023572654
 30
0.0
 40
0.0196850389999996
 50
154.471220194906
 51
179.999999999999
  0
LINE
  8
5
  6
CONTINUOUS
 62
5
 10
0.177165354773462
 20
0.137795275499999
 30
0.0
 11
0.33464567
 21
0.137795275499999
 31
0.0
  0
ARC
  8
5
  6
CONTINUOUS
 62
5
 10
0.334645670000002
 20
0.1574803155
 30
0.0
 40
0.0196850390000002
 50
359.999999999996
 51
89.9999999999989
  0
ARC
  8
5
  6
CONTINUOUS
 62
5
 10
0.334645670000002
 20
0.157480314499999
 30
0.0
 40
0.0196850390000001
 50
269.999999999998
 51
1.03686082615711E-12
  0
ARC
  8
5
  6
CONTINUOUS
 62
5
 10
0.164440027635964
 20
0.13083556286404
 30
0.0
 40
0.00984251999999994
 50
64.4712201948988
 51
134.999999999999
  0
ARC
  8
5
  6
CONTINUOUS
 62
5
 10
0.164440027635965
 20
0.13083556286404
 30
0.0
 40
0.00984252000000019
 50
135
 51
205.528779805094
  0
ARC
  8
5
  6
CONTINUOUS
 62
5
 10
0.177165354773463
 20
0.1574803145
 30
0.0
 40
0.0196850390000003
 50
244.471220194893
 51
269.999999999993
  0
ARC
  8
5
  6
CONTINUOUS
 62
5
 10
0.137795276000002
 20
0.11811023572654
 30
0.0
 40
0.0196850389999988
 50
359.999999999997
 51
25.5287798050941
  0
ARC
  8
5
  6
CONTINUOUS
 62
5
 10
0.137795276000001
 20
0.0236220470000001
 30
0.0
 40
0.0196850389999998
 50
269.999999999997
 51
359.999999999999
  0
LINE
  8
5
  6
CONTINUOUS
 62
5
 10
0.157480315
 20
0.118110235726539
 30
0.0
 11
0.157480315
 21
0.0236220469999999
 31
0.0
  0
LINE
  8
5
  6
CONTINUOUS
 62
5
 10
-0.33464567
 20
0.1771653545
 30
0.0
 11
0.334645670000002
 21
0.1771653545
 31
0.0
  0
ARC
  8
9
  6
CONTINUOUS
 62
9
 10
-0.946401100317741
 20
-9.70159551479833E-12
 30
0.0
 40
0.049212598
 50
179.999999999996
 51
359.999999999996
  0
ARC
  8
9
  6
CONTINUOUS
 62
9
 10
0
 20
-9.38064599792365E-14
 30
0.0
 40
1.417322835
 50
179.999999999996
 51
359.999999999996
  0
ARC
  8
9
  6
CONTINUOUS
 62
9
 10
0
 20
1.94849412060427E-14
 30
0.0
 40
1.417322835
 50
359.999999999996
 51
180
  0
ARC
  8
9
  6
CONTINUOUS
 62
9
 10
-0.946401100317741
 20
-9.69752555749313E-12
 30
0.0
 40
0.049212598
 50
359.999999999996
 51
180
  0
ARC
  8
9
  6
CONTINUOUS
 62
9
 10
0
 20
-5.93042163653555E-14
 30
0.0
 40
0.492125984000003
 50
179.999999999996
 51
359.999999999996
  0
ARC
  8
9
  6
CONTINUOUS
 62
9
 10
0.946401100317741
 20
1.92768872613473E-11
 30
0.0
 40
0.049212598
 50
180.000000000582
 51
5.8414067279759E-10
  0
ARC
  8
9
  6
CONTINUOUS
 62
9
 10
0.946401100317741
 20
1.92795639513994E-11
 30
0.0
 40
0.049212598
 50
5.83873506204346E-10
 51
180.000000000585
  0
ARC
  8
9
  6
CONTINUOUS
 62
9
 10
0
 20
-2.03670125793413E-14
 30
0.0
 40
0.492125984000003
 50
359.999999999996
 51
180
  0
ARC
  8
9
  6
CONTINUOUS
 62
9
 10
-2.33975894214922E-11
 20
-0.946401100317752
 30
0.0
 40
0.068897638
 50
359.999999999999
 51
180
  0
ARC
  8
9
  6
CONTINUOUS
 62
9
 10
-2.33975894214922E-11
 20
-0.946401100317753
 30
0.0
 40
0.068897638
 50
179.999999999999
 51
359.999999999999
  0
ARC
  8
9
  6
CONTINUOUS
 62
9
 10
-2.33982555553069E-11
 20
0.946401100317699
 30
0.0
 40
0.068897638
 50
359.999999999999
 51
180
  0
ARC
  8
9
  6
CONTINUOUS
 62
9
 10
-2.33982555553069E-11
 20
0.946401100317697
 30
0.0
 40
0.068897638
 50
179.999999999999
 51
359.999999999999
  0
ENDSEC
  0
EOF
