  0
SECTION
  2
HEADER
  9
$ACADVER
  1
AC1003
  9
$EXTMIN
 10
-3.50165494545101
 20
2.01504716390686
  9
$EXTMAX
 10
1.476377953
 20
-1.47637795300001
  9
$INSUNITS
 70
1
  9
$INSBASE
 10
-1.01263849622551
 20
0.269334605453425
999
Created with OMAX LAYOUT for Windows. (www.omax.com) 4/22/2024
  0
ENDSEC
  0
SECTION
  2
TABLES
  0
TABLE
  2
LAYER
 70
    10
  0
LAYER
  2
0
 70
     0
 62
     7
  6
CONTINUOUS
  0
LAYER
  2
1
 70
     0
 62
     7
  6
CONTINUOUS
  0
LAYER
  2
2
 70
     0
 62
     7
  6
CONTINUOUS
  0
LAYER
  2
3
 70
     0
 62
     7
  6
CONTINUOUS
  0
LAYER
  2
4
 70
     0
 62
     7
  6
CONTINUOUS
  0
LAYER
  2
5
 70
     0
 62
     7
  6
CONTINUOUS
  0
LAYER
  2
6
 70
     0
 62
     7
  6
CONTINUOUS
  0
LAYER
  2
7
 70
     0
 62
     7
  6
CONTINUOUS
  0
LAYER
  2
8
 70
     0
 62
     7
  6
CONTINUOUS
  0
LAYER
  2
9
 70
     0
 62
     7
  6
CONTINUOUS
  0
LAYER
  2
10
 70
     0
 62
     7
  6
CONTINUOUS
  0
LAYER
  2
11
 70
     0
 62
     7
  6
CONTINUOUS
  0
LAYER
  2
12
 70
     0
 62
     7
  6
CONTINUOUS
  0
LAYER
  2
13
 70
     0
 62
     7
  6
CONTINUOUS
  0
LAYER
  2
14
 70
     0
 62
     7
  6
CONTINUOUS
  0
LAYER
  2
15
 70
     0
 62
     7
  6
CONTINUOUS
  0
LAYER
  2
16
 70
     0
 62
     7
  6
CONTINUOUS
  0
LAYER
  2
17
 70
     0
 62
     7
  6
CONTINUOUS
  0
LAYER
  2
18
 70
     0
 62
     7
  6
CONTINUOUS
  0
LAYER
  2
19
 70
     0
 62
     7
  6
CONTINUOUS
  0
LAYER
  2
20
 70
     0
 62
     7
  6
CONTINUOUS
  0
LAYER
  2
21
 70
     0
 62
     7
  6
CONTINUOUS
  0
LAYER
  2
22
 70
     0
 62
     7
  6
CONTINUOUS
  0
LAYER
  2
23
 70
     0
 62
     7
  6
CONTINUOUS
  0
LAYER
  2
24
 70
     0
 62
     7
  6
CONTINUOUS
  0
LAYER
  2
25
 70
     0
 62
     7
  6
CONTINUOUS
  0
LAYER
  2
26
 70
     0
 62
     7
  6
CONTINUOUS
  0
LAYER
  2
27
 70
     0
 62
     7
  6
CONTINUOUS
  0
LAYER
  2
28
 70
     0
 62
     7
  6
CONTINUOUS
  0
LAYER
  2
29
 70
     0
 62
     7
  6
CONTINUOUS
  0
LAYER
  2
30
 70
     0
 62
     7
  6
CONTINUOUS
  0
LAYER
  2
31
 70
     0
 62
     7
  6
CONTINUOUS
  0
ENDTAB
  0
ENDSEC
  0
SECTION
  2
ENTITIES
  0
ARC
  8
0
  6
CONTINUOUS
 62
0
 10
0
 20
1.63629140589818E-14
 30
0.0
 40
1.476377953
 50
359.999999999999
 51
180
  0
ARC
  8
0
  6
CONTINUOUS
 62
0
 10
0
 20
-1.30278132192244E-14
 30
0.0
 40
1.476377953
 50
179.999999999999
 51
359.999999999999
  0
LINE
  8
1
  6
CONTINUOUS
 62
1
 10
-1.437007874
 20
1.66071645490686
 30
0.0
 11
-0.354330708000001
 21
1.66071645490686
 31
0.0
  0
LINE
  8
1
  6
CONTINUOUS
 62
1
 10
-1.437007874
 20
2.01504716390686
 30
0.0
 11
-0.452755905
 21
2.01504716390686
 31
0.0
  0
LINE
  8
1
  6
CONTINUOUS
 62
1
 10
-1.476377953
 20
1.70008653390686
 30
0.0
 11
-1.476377953
 21
1.97567708490686
 31
0.0
  0
LINE
  8
1
  6
CONTINUOUS
 62
1
 10
-0.433070866
 20
1.99536212490686
 30
0.0
 11
-0.433070866
 21
1.71673315227138
 31
0.0
  0
LINE
  8
1
  6
CONTINUOUS
 62
1
 10
1.437007874
 20
1.66071645490686
 30
0.0
 11
0.255905511
 21
1.66071645490686
 31
0.0
  0
LINE
  8
1
  6
CONTINUOUS
 62
1
 10
0.255905511000001
 20
1.70008653390686
 30
0.0
 11
0.416424247635483
 21
1.70008653390686
 31
0.0
  0
LINE
  8
1
  6
CONTINUOUS
 62
1
 10
1.437007874
 20
2.01504716390686
 30
0.0
 11
0.452755905
 21
2.01504716390686
 31
0.0
  0
LINE
  8
1
  6
CONTINUOUS
 62
1
 10
1.476377953
 20
1.70008653390686
 30
0.0
 11
1.476377953
 21
1.97567708490686
 31
0.0
  0
LINE
  8
1
  6
CONTINUOUS
 62
1
 10
0.433070865999999
 20
1.99536212490686
 30
0.0
 11
0.433070866
 21
1.71673315227138
 31
0.0
  0
ARC
  8
1
  6
CONTINUOUS
 62
1
 10
-0.426111153364036
 20
1.70704624654283
 30
0.0
 40
0.00984251999999998
 50
146.854161078927
 51
225
  0
ARC
  8
1
  6
CONTINUOUS
 62
1
 10
-0.426111153364036
 20
1.70704624654283
 30
0.0
 40
0.00984251999999998
 50
224.999999999999
 51
303.145838921073
  0
ARC
  8
1
  6
CONTINUOUS
 62
1
 10
-0.416424247635483
 20
1.69221251790686
 30
0.0
 40
0.007874016
 50
89.9999999999984
 51
123.145838921071
  0
ARC
  8
1
  6
CONTINUOUS
 62
1
 10
-0.440944882
 20
1.71673315227138
 30
0.0
 40
0.007874016
 50
326.854161078927
 51
359.999999999998
  0
ARC
  8
1
  6
CONTINUOUS
 62
1
 10
0.255905511
 20
1.68040149390686
 30
0.0
 40
0.0196850389999999
 50
180
 51
269.999999999999
  0
ARC
  8
1
  6
CONTINUOUS
 62
1
 10
0.255905511000001
 20
1.68040149490686
 30
0.0
 40
0.019685039
 50
89.9999999999998
 51
180
  0
ARC
  8
1
  6
CONTINUOUS
 62
1
 10
-0.452755905
 20
1.99536212490686
 30
0.0
 40
0.0196850390000001
 50
359.999999999999
 51
89.9999999999997
  0
ARC
  8
1
  6
CONTINUOUS
 62
1
 10
0.452755904999999
 20
1.99536212490686
 30
0.0
 40
0.019685039
 50
89.9999999999994
 51
179.999999999999
  0
ARC
  8
1
  6
CONTINUOUS
 62
1
 10
0.426111153364036
 20
1.70704624654283
 30
0.0
 40
0.00984251999999998
 50
315
 51
33.1458389210724
  0
ARC
  8
1
  6
CONTINUOUS
 62
1
 10
0.426111153364036
 20
1.70704624654283
 30
0.0
 40
0.00984251999999998
 50
236.854161078926
 51
315
  0
ARC
  8
1
  6
CONTINUOUS
 62
1
 10
0.416424247635483
 20
1.69221251790686
 30
0.0
 40
0.007874016
 50
56.8541610789281
 51
90.0000000000012
  0
ARC
  8
1
  6
CONTINUOUS
 62
1
 10
0.440944882
 20
1.71673315227138
 30
0.0
 40
0.007874016
 50
180.000000000001
 51
213.145838921072
  0
ARC
  8
1
  6
CONTINUOUS
 62
1
 10
1.437007874
 20
1.97567708490686
 30
0.0
 40
0.0393700790000001
 50
359.999999999999
 51
89.9999999999997
  0
ARC
  8
1
  6
CONTINUOUS
 62
1
 10
1.437007874
 20
1.70008653390686
 30
0.0
 40
0.039370079
 50
269.999999999999
 51
359.999999999999
  0
ARC
  8
1
  6
CONTINUOUS
 62
1
 10
-1.437007874
 20
1.97567708490686
 30
0.0
 40
0.0393700790000001
 50
89.9999999999998
 51
180
  0
ARC
  8
1
  6
CONTINUOUS
 62
1
 10
-1.437007874
 20
1.70008653390686
 30
0.0
 40
0.039370079
 50
180
 51
269.999999999999
  0
LINE
  8
1
  6
CONTINUOUS
 62
1
 10
-0.416424247635483
 20
1.70008653390686
 30
0.0
 11
-0.354330708000001
 21
1.70008653290686
 31
0.0
  0
ARC
  8
1
  6
CONTINUOUS
 62
1
 10
-0.354330708
 20
1.68040149390686
 30
0.0
 40
0.019685039
 50
269.999999999999
 51
360
  0
ARC
  8
1
  6
CONTINUOUS
 62
1
 10
-0.354330708000001
 20
1.68040149390686
 30
0.0
 40
0.0196850390000001
 50
359.999999999999
 51
90
  0
LINE
  8
3
  6
CONTINUOUS
 62
3
 10
0.0986268801953107
 20
1.891012504623
 30
0.0
 11
0.130434685051848
 21
1.7665471810117
 31
0.0
  0
LINE
  8
3
  6
CONTINUOUS
 62
3
 10
0.090998039116258
 20
1.89693692790686
 30
0.0
 11
0.0708661420000002
 21
1.89693692790686
 31
0.0
  0
ARC
  8
3
  6
CONTINUOUS
 62
3
 10
0.0909980391162577
 20
1.88906291190686
 30
0.0
 40
0.00787401600000001
 50
14.3354353908484
 51
89.9999999999973
  0
LINE
  8
3
  6
CONTINUOUS
 62
3
 10
-0.0909980391162572
 20
1.89693692790686
 30
0.0
 11
-0.0708661420000001
 21
1.89693692790686
 31
0.0
  0
ARC
  8
3
  6
CONTINUOUS
 62
3
 10
-0.0909980391162572
 20
1.88906291190686
 30
0.0
 40
0.00787401600000003
 50
90.0000000000001
 51
165.664564609151
  0
LINE
  8
3
  6
CONTINUOUS
 62
3
 10
-0.0986268801953103
 20
1.891012504623
 30
0.0
 11
-0.13043468505186
 21
1.76654718101165
 31
0.0
  0
LINE
  8
3
  6
CONTINUOUS
 62
3
 10
0.130434685051848
 20
1.7665471810117
 30
0.0
 11
0.147419072609876
 21
1.70008653390686
 31
0.0
  0
LINE
  8
3
  6
CONTINUOUS
 62
3
 10
0.154969837222225
 20
1.670540063623
 30
0.0
 11
0.147419072609877
 21
1.70008653390686
 31
0.0
  0
ARC
  8
3
  6
CONTINUOUS
 62
3
 10
0.147340996143172
 20
1.66859047090686
 30
0.0
 40
0.00787401599999998
 50
269.999999999998
 51
14.3354353908496
  0
LINE
  8
3
  6
CONTINUOUS
 62
3
 10
0.142291871673499
 20
1.66071645490686
 30
0.0
 11
0.147340996143172
 21
1.66071645490686
 31
0.0
  0
LINE
  8
3
  6
CONTINUOUS
 62
3
 10
-0.143634024600917
 20
1.71489759136412
 30
0.0
 11
-0.13043468505186
 21
1.76654718101165
 31
0.0
  0
LINE
  8
3
  6
CONTINUOUS
 62
3
 10
0.0745233551632498
 20
1.71217735074361
 30
0.0
 11
0.11445302183675
 21
1.67224768407011
 31
0.0
  0
LINE
  8
3
  6
CONTINUOUS
 62
3
 10
-0.0745233551632499
 20
1.71217735074361
 30
0.0
 11
-0.114453021836749
 21
1.67224768407011
 31
0.0
  0
LINE
  8
3
  6
CONTINUOUS
 62
3
 10
-0.0629921259999999
 20
1.74001620058036
 30
0.0
 11
-0.0629921260000001
 21
1.88906291190686
 31
0.0
  0
LINE
  8
3
  6
CONTINUOUS
 62
3
 10
0.0629921259999999
 20
1.74001620058036
 30
0.0
 11
0.062992126
 21
1.88906291190686
 31
0.0
  0
ARC
  8
3
  6
CONTINUOUS
 62
3
 10
-0.0708661420000002
 20
1.88906291190686
 30
0.0
 40
0.00787401600000004
 50
359.999999999999
 51
89.9999999999999
  0
ARC
  8
3
  6
CONTINUOUS
 62
3
 10
0.070866142
 20
1.88906291190686
 30
0.0
 40
0.00787401599999995
 50
89.9999999999979
 51
180
  0
ARC
  8
3
  6
CONTINUOUS
 62
3
 10
-0.15101024244849
 20
1.72113454287365
 30
0.0
 40
0.0610438804675134
 50
261.788860037442
 51
306.788860037439
  0
ARC
  8
3
  6
CONTINUOUS
 62
3
 10
0.1422918716735
 20
1.70008653390686
 30
0.0
 40
0.039370079
 50
225
 51
269.999999999999
  0
ARC
  8
3
  6
CONTINUOUS
 62
3
 10
-0.102362205
 20
1.74001620058036
 30
0.0
 40
0.0393700790000001
 50
315
 51
5.08888749034163E-14
  0
ARC
  8
3
  6
CONTINUOUS
 62
3
 10
0.102362205
 20
1.74001620058036
 30
0.0
 40
0.039370079
 50
180
 51
225
  0
LINE
  8
3
  6
CONTINUOUS
 62
3
 10
-0.33464567
 20
1.66071645490686
 30
0.0
 11
-0.15972861322348
 21
1.66071645490686
 31
0.0
  0
ARC
  8
3
  6
CONTINUOUS
 62
3
 10
-0.33464567
 20
1.68040149390686
 30
0.0
 40
0.019685039
 50
179.999999999999
 51
270
  0
ARC
  8
3
  6
CONTINUOUS
 62
3
 10
-0.33464567
 20
1.68040149390686
 30
0.0
 40
0.0196850390000001
 50
89.9999999999996
 51
180
  0
LINE
  8
3
  6
CONTINUOUS
 62
3
 10
-0.162706126329687
 20
1.70008653390686
 30
0.0
 11
-0.33464567
 21
1.70008653390686
 31
0.0
  0
ARC
  8
3
  6
CONTINUOUS
 62
3
 10
-0.162706126329687
 20
1.71977157290686
 30
0.0
 40
0.019685039
 50
269.999999999999
 51
345.66456460915
  0
ARC
  8
4
  6
CONTINUOUS
 62
4
 10
0
 20
4.87514848737499E-15
 30
0.0
 40
0.066929134
 50
359.999999999996
 51
180
  0
ARC
  8
4
  6
CONTINUOUS
 62
4
 10
0
 20
5.46040853519854E-16
 30
0.0
 40
0.066929134
 50
179.999999999995
 51
359.999999999996
  0
LINE
  8
4
  6
CONTINUOUS
 62
4
 10
0.122743758480099
 20
-8.65973959207622E-15
 30
0.0
 11
0.0613718792401001
 21
-0.106299212999787
 31
0.0
  0
LINE
  8
4
  6
CONTINUOUS
 62
4
 10
0.0613718792401001
 20
0.106299212999782
 30
0.0
 11
0.122743758480099
 21
-8.65973959207622E-15
 31
0.0
  0
LINE
  8
4
  6
CONTINUOUS
 62
4
 10
-0.0613718792401001
 20
0.106299212999792
 30
0.0
 11
0.0613718792401001
 21
0.106299212999782
 31
0.0
  0
LINE
  8
4
  6
CONTINUOUS
 62
4
 10
-0.1227437584801
 20
-1.75415237890775E-14
 30
0.0
 11
-0.0613718792401001
 21
0.106299212999792
 31
0.0
  0
LINE
  8
4
  6
CONTINUOUS
 62
4
 10
-0.0613718792401001
 20
-0.106299212999787
 30
0.0
 11
-0.1227437584801
 21
-1.75415237890775E-14
 31
0.0
  0
LINE
  8
4
  6
CONTINUOUS
 62
4
 10
0.0613718792401001
 20
-0.106299212999787
 30
0.0
 11
-0.0613718792401001
 21
-0.106299212999787
 31
0.0
  0
LINE
  8
4
  6
CONTINUOUS
 62
4
 10
0.1227437584801
 20
1.92055897490686
 30
0.0
 11
0.1227437584801
 21
2.01504716390686
 31
0.0
  0
LINE
  8
4
  6
CONTINUOUS
 62
4
 10
-0.1227437584801
 20
1.92055897490686
 30
0.0
 11
-0.1227437584801
 21
2.01504716390686
 31
0.0
  0
LINE
  8
4
  6
CONTINUOUS
 62
4
 10
0.1227437584801
 20
1.92055897490686
 30
0.0
 11
-0.1227437584801
 21
1.92055897490686
 31
0.0
  0
LINE
  8
4
  6
CONTINUOUS
 62
4
 10
0.1227437584801
 20
2.01504716390686
 30
0.0
 11
-0.1227437584801
 21
2.01504716390686
 31
0.0
  0
LINE
  8
5
  6
CONTINUOUS
 62
5
 10
-0.33464567
 20
1.97567708490686
 30
0.0
 11
-0.177165354773462
 21
1.97567708490686
 31
0.0
  0
LINE
  8
5
  6
CONTINUOUS
 62
5
 10
-0.157480315
 20
1.76898417190686
 30
0.0
 11
-0.157480315
 21
1.9559920451334
 31
0.0
  0
LINE
  8
5
  6
CONTINUOUS
 62
5
 10
-0.139970736400733
 20
1.75914165190682
 30
0.0
 11
-0.147637795000002
 21
1.75914165190686
 31
0.0
  0
ARC
  8
5
  6
CONTINUOUS
 62
5
 10
-0.147637795
 20
1.76898417190686
 30
0.0
 40
0.00984251999999994
 50
180
 51
269.99999999999
  0
ARC
  8
5
  6
CONTINUOUS
 62
5
 10
-0.139970736400677
 20
1.76898417190682
 30
0.0
 40
0.00984252000000002
 50
269.999999999669
 51
345.664564609151
  0
ARC
  8
5
  6
CONTINUOUS
 62
5
 10
-0.33464567
 20
1.99536212390686
 30
0.0
 40
0.019685039
 50
179.999999999999
 51
270
  0
ARC
  8
5
  6
CONTINUOUS
 62
5
 10
-0.33464567
 20
1.99536212390686
 30
0.0
 40
0.0196850390000001
 50
89.9999999999996
 51
180
  0
LINE
  8
5
  6
CONTINUOUS
 62
5
 10
-0.0653918934067297
 20
2.01504716390686
 30
0.0
 11
-0.33464567
 21
2.01504716390686
 31
0.0
  0
ARC
  8
5
  6
CONTINUOUS
 62
5
 10
-0.164440027635964
 20
1.9687173722709
 30
0.0
 40
0.00984251999999996
 50
44.9999999999997
 51
115.5287798051
  0
ARC
  8
5
  6
CONTINUOUS
 62
5
 10
-0.164440027635964
 20
1.9687173722709
 30
0.0
 40
0.00984251999999996
 50
334.471220194905
 51
44.9999999999999
  0
ARC
  8
5
  6
CONTINUOUS
 62
5
 10
-0.177165354773462
 20
1.99536212390686
 30
0.0
 40
0.019685039
 50
270
 51
295.5287798051
  0
ARC
  8
5
  6
CONTINUOUS
 62
5
 10
-0.137795276
 20
1.9559920451334
 30
0.0
 40
0.019685039
 50
154.471220194906
 51
179.999999999999
  0
LINE
  8
5
  6
CONTINUOUS
 62
5
 10
-0.0653918934067297
 20
2.01504716390686
 30
0.0
 11
-0.0986268801953103
 21
1.891012504623
 31
0.0
  0
LINE
  8
5
  6
CONTINUOUS
 62
5
 10
0.33464567
 20
1.97567708490686
 30
0.0
 11
0.177165354773462
 21
1.97567708490686
 31
0.0
  0
LINE
  8
5
  6
CONTINUOUS
 62
5
 10
0.157480315
 20
1.76898417190686
 30
0.0
 11
0.157480315
 21
1.9559920451334
 31
0.0
  0
LINE
  8
5
  6
CONTINUOUS
 62
5
 10
0.0653918934067299
 20
2.01504716390686
 30
0.0
 11
0.334645670000002
 21
2.01504716390686
 31
0.0
  0
LINE
  8
5
  6
CONTINUOUS
 62
5
 10
0.147637794999999
 20
1.75914165190686
 30
0.0
 11
0.139970736400663
 21
1.75914165190687
 31
0.0
  0
ARC
  8
5
  6
CONTINUOUS
 62
5
 10
0.139970736400665
 20
1.76898417190687
 30
0.0
 40
0.00984252
 50
194.335435390849
 51
269.999999999988
  0
ARC
  8
5
  6
CONTINUOUS
 62
5
 10
0.147637795
 20
1.76898417190686
 30
0.0
 40
0.00984251999999994
 50
269.999999999989
 51
359.999999999999
  0
ARC
  8
5
  6
CONTINUOUS
 62
5
 10
0.334645670000002
 20
1.99536212490686
 30
0.0
 40
0.0196850390000001
 50
359.999999999999
 51
89.9999999999998
  0
ARC
  8
5
  6
CONTINUOUS
 62
5
 10
0.334645670000001
 20
1.99536212390686
 30
0.0
 40
0.019685039
 50
269.999999999999
 51
360
  0
ARC
  8
5
  6
CONTINUOUS
 62
5
 10
0.164440027635964
 20
1.9687173722709
 30
0.0
 40
0.00984251999999996
 50
64.4712201948999
 51
135
  0
ARC
  8
5
  6
CONTINUOUS
 62
5
 10
0.164440027635964
 20
1.9687173722709
 30
0.0
 40
0.00984251999999996
 50
135
 51
205.528779805094
  0
ARC
  8
5
  6
CONTINUOUS
 62
5
 10
0.177165354773462
 20
1.99536212390686
 30
0.0
 40
0.019685039
 50
244.471220194899
 51
269.999999999999
  0
ARC
  8
5
  6
CONTINUOUS
 62
5
 10
0.137795276
 20
1.9559920451334
 30
0.0
 40
0.019685039
 50
2.27409659724641E-13
 51
25.5287798050939
  0
LINE
  8
5
  6
CONTINUOUS
 62
5
 10
0.0653918934067299
 20
2.01504716390686
 30
0.0
 11
0.0986268801953107
 21
1.891012504623
 31
0.0
  0
LINE
  8
6
  6
CONTINUOUS
 62
6
 10
-2.49558167721416
 20
0.769003774470447
 30
0.0
 11
-1.46703213368918
 21
0.769003774470445
 31
0.0
  0
ARC
  8
6
  6
CONTINUOUS
 62
6
 10
-2.49558167721413
 20
0.769003774470458
 30
0.0
 40
1.02854954352495
 50
359.999999999999
 51
24.0000000000786
  0
LINE
  8
6
  6
CONTINUOUS
 62
6
 10
-2.49558167721416
 20
0.769003774470447
 30
0.0
 11
-1.55595491376711
 21
1.18735256304222
 31
0.0
  0
LINE
  8
6
  6
CONTINUOUS
 62
6
 10
-2.49558167721416
 20
0.769003774470447
 30
0.0
 11
-2.17774238871234
 21
1.74721252017358
 31
0.0
  0
LINE
  8
6
  6
CONTINUOUS
 62
6
 10
-2.49558167721416
 20
0.769003774470447
 30
0.0
 11
-2.60309438039904
 21
1.7919188159765
 31
0.0
  0
LINE
  8
6
  6
CONTINUOUS
 62
6
 10
-2.49558167721416
 20
0.769003774470447
 30
0.0
 11
-3.3276957374874
 21
1.37357002739979
 31
0.0
  0
LINE
  8
6
  6
CONTINUOUS
 62
6
 10
-2.49558167721416
 20
0.769003774470447
 30
0.0
 11
-3.50165494545101
 21
0.982851249144979
 31
0.0
  0
LINE
  8
6
  6
CONTINUOUS
 62
6
 10
-2.49558167721416
 20
0.769003774470447
 30
0.0
 11
-3.32769573747506
 21
0.164437521524118
 31
0.0
  0
LINE
  8
6
  6
CONTINUOUS
 62
6
 10
-2.49558167721416
 20
0.769003774470447
 30
0.0
 11
-3.00985644896453
 21
-0.121746259280073
 31
0.0
  0
LINE
  8
6
  6
CONTINUOUS
 62
6
 10
-2.49558167721416
 20
0.769003774470447
 30
0.0
 11
-2.17774238869237
 21
-0.209204971226203
 31
0.0
  0
LINE
  8
6
  6
CONTINUOUS
 62
6
 10
-2.49558167721416
 20
0.769003774470447
 30
0.0
 11
-1.80734769747164
 21
0.0046425034648952
 31
0.0
  0
ARC
  8
6
  6
CONTINUOUS
 62
6
 10
-2.49558167721416
 20
0.769003774470441
 30
0.0
 40
1.02854954352498
 50
144.000000000468
 51
168.000000000545
  0
ARC
  8
6
  6
CONTINUOUS
 62
6
 10
-2.49558167721417
 20
0.769003774470429
 30
0.0
 40
1.02854954352497
 50
216.000000000701
 51
240.000000000779
  0
ARC
  8
6
  6
CONTINUOUS
 62
6
 10
-2.49558167721417
 20
0.769003774470427
 30
0.0
 40
1.028549543525
 50
72.0000000002338
 51
96.0000000003115
  0
ARC
  8
6
  6
CONTINUOUS
 62
6
 10
-2.49558167721416
 20
0.769003774470448
 30
0.0
 40
1.02854954352498
 50
288.000000000935
 51
312.000000001013
  0
ENDSEC
  0
EOF
