  0
SECTION
  2
HEADER
  9
$ACADVER
  1
AC1003
  9
$EXTMIN
 10
-8.33840391597825
 20
8.15545113039652
  9
$EXTMAX
 10
1.476377953
 20
-1.47637795300003
  9
$INSUNITS
 70
1
  9
$INSBASE
 10
-3.43101298148912
 20
3.33953658869824
999
Created with OMAX LAYOUT for Windows. (www.omax.com) 4/22/2024
  0
ENDSEC
  0
SECTION
  2
TABLES
  0
TABLE
  2
LAYER
 70
    10
  0
LAYER
  2
0
 70
     0
 62
     7
  6
CONTINUOUS
  0
LAYER
  2
1
 70
     0
 62
     7
  6
CONTINUOUS
  0
LAYER
  2
2
 70
     0
 62
     7
  6
CONTINUOUS
  0
LAYER
  2
3
 70
     0
 62
     7
  6
CONTINUOUS
  0
LAYER
  2
4
 70
     0
 62
     7
  6
CONTINUOUS
  0
LAYER
  2
5
 70
     0
 62
     7
  6
CONTINUOUS
  0
LAYER
  2
6
 70
     0
 62
     7
  6
CONTINUOUS
  0
LAYER
  2
7
 70
     0
 62
     7
  6
CONTINUOUS
  0
LAYER
  2
8
 70
     0
 62
     7
  6
CONTINUOUS
  0
LAYER
  2
9
 70
     0
 62
     7
  6
CONTINUOUS
  0
LAYER
  2
10
 70
     0
 62
     7
  6
CONTINUOUS
  0
LAYER
  2
11
 70
     0
 62
     7
  6
CONTINUOUS
  0
LAYER
  2
12
 70
     0
 62
     7
  6
CONTINUOUS
  0
LAYER
  2
13
 70
     0
 62
     7
  6
CONTINUOUS
  0
LAYER
  2
14
 70
     0
 62
     7
  6
CONTINUOUS
  0
LAYER
  2
15
 70
     0
 62
     7
  6
CONTINUOUS
  0
LAYER
  2
16
 70
     0
 62
     7
  6
CONTINUOUS
  0
LAYER
  2
17
 70
     0
 62
     7
  6
CONTINUOUS
  0
LAYER
  2
18
 70
     0
 62
     7
  6
CONTINUOUS
  0
LAYER
  2
19
 70
     0
 62
     7
  6
CONTINUOUS
  0
LAYER
  2
20
 70
     0
 62
     7
  6
CONTINUOUS
  0
LAYER
  2
21
 70
     0
 62
     7
  6
CONTINUOUS
  0
LAYER
  2
22
 70
     0
 62
     7
  6
CONTINUOUS
  0
LAYER
  2
23
 70
     0
 62
     7
  6
CONTINUOUS
  0
LAYER
  2
24
 70
     0
 62
     7
  6
CONTINUOUS
  0
LAYER
  2
25
 70
     0
 62
     7
  6
CONTINUOUS
  0
LAYER
  2
26
 70
     0
 62
     7
  6
CONTINUOUS
  0
LAYER
  2
27
 70
     0
 62
     7
  6
CONTINUOUS
  0
LAYER
  2
28
 70
     0
 62
     7
  6
CONTINUOUS
  0
LAYER
  2
29
 70
     0
 62
     7
  6
CONTINUOUS
  0
LAYER
  2
30
 70
     0
 62
     7
  6
CONTINUOUS
  0
LAYER
  2
31
 70
     0
 62
     7
  6
CONTINUOUS
  0
ENDTAB
  0
ENDSEC
  0
SECTION
  2
ENTITIES
  0
ARC
  8
0
  6
CONTINUOUS
 62
0
 10
-4.83674897052724
 20
6.1404039664897
 30
0.0
 40
1.476377953
 50
359.999999999997
 51
180
  0
ARC
  8
0
  6
CONTINUOUS
 62
0
 10
-4.83674897052724
 20
6.14040396648961
 30
0.0
 40
1.476377953
 50
179.999999999997
 51
359.999999999997
  0
LINE
  8
0
  6
CONTINUOUS
 62
0
 10
0.0726947484351793
 20
2.24180966649335
 30
0.0
 11
0.145669292
 21
2.31478421005817
 31
0.0
  0
LINE
  8
0
  6
CONTINUOUS
 62
0
 10
-0.145669292
 20
2.31478421005817
 30
0.0
 11
0.145669292
 21
2.31478421005817
 31
0.0
  0
LINE
  8
0
  6
CONTINUOUS
 62
0
 10
-0.0726947484351781
 20
2.24180966649335
 30
0.0
 11
-0.145669292
 21
2.31478421005817
 31
0.0
  0
LINE
  8
0
  6
CONTINUOUS
 62
0
 10
0.0726947484351793
 20
1.95468788662299
 30
0.0
 11
0.145669292
 21
1.88171334305817
 31
0.0
  0
LINE
  8
0
  6
CONTINUOUS
 62
0
 10
-0.145669292
 20
1.88171334305817
 30
0.0
 11
0.145669292
 21
1.88171334305817
 31
0.0
  0
LINE
  8
0
  6
CONTINUOUS
 62
0
 10
-0.0726947484351779
 20
1.95468788662299
 30
0.0
 11
-0.145669292
 21
1.88171334305817
 31
0.0
  0
LINE
  8
0
  6
CONTINUOUS
 62
0
 10
-0.0669291339999993
 20
1.96860731118781
 30
0.0
 11
-0.0669291339999995
 21
2.22789024192853
 31
0.0
  0
LINE
  8
0
  6
CONTINUOUS
 62
0
 10
0.0669291340000009
 20
2.22789024192853
 30
0.0
 11
0.066929134000001
 21
1.96860731118781
 31
0.0
  0
ARC
  8
0
  6
CONTINUOUS
 62
0
 10
-0.0866141729999995
 20
2.22789024192853
 30
0.0
 40
0.0196850389999999
 50
359.999999999999
 51
45.0000000000006
  0
ARC
  8
0
  6
CONTINUOUS
 62
0
 10
-0.0866141729999992
 20
1.96860731118781
 30
0.0
 40
0.019685039
 50
314.999999999999
 51
359.999999999999
  0
ARC
  8
0
  6
CONTINUOUS
 62
0
 10
0.0866141730000009
 20
1.96860731118781
 30
0.0
 40
0.0196850389999999
 50
179.999999999999
 51
224.999999999999
  0
ARC
  8
0
  6
CONTINUOUS
 62
0
 10
0.0866141730000005
 20
2.22789024192853
 30
0.0
 40
0.0196850389999996
 50
134.999999999999
 51
179.999999999999
  0
LINE
  8
0
  6
CONTINUOUS
 62
0
 10
1.01909584875292
 20
2.24180966649335
 30
0.0
 11
1.09207039231774
 21
2.31478421005817
 31
0.0
  0
LINE
  8
0
  6
CONTINUOUS
 62
0
 10
0.800731808317741
 20
2.31478421005817
 30
0.0
 11
1.09207039231774
 21
2.31478421005817
 31
0.0
  0
LINE
  8
0
  6
CONTINUOUS
 62
0
 10
0.873706351882563
 20
2.24180966649335
 30
0.0
 11
0.800731808317741
 21
2.31478421005817
 31
0.0
  0
LINE
  8
0
  6
CONTINUOUS
 62
0
 10
1.01909584875292
 20
1.95468788662299
 30
0.0
 11
1.09207039231774
 21
1.88171334305817
 31
0.0
  0
LINE
  8
0
  6
CONTINUOUS
 62
0
 10
0.800731808317741
 20
1.88171334305817
 30
0.0
 11
1.09207039231774
 21
1.88171334305817
 31
0.0
  0
LINE
  8
0
  6
CONTINUOUS
 62
0
 10
0.873706351882563
 20
1.95468788662299
 30
0.0
 11
0.800731808317741
 21
1.88171334305817
 31
0.0
  0
LINE
  8
0
  6
CONTINUOUS
 62
0
 10
0.879471966317742
 20
1.96860731118781
 30
0.0
 11
0.879471966317742
 21
2.22789024192853
 31
0.0
  0
LINE
  8
0
  6
CONTINUOUS
 62
0
 10
1.01333023431774
 20
2.22789024192853
 30
0.0
 11
1.01333023431774
 21
1.96860731118781
 31
0.0
  0
ARC
  8
0
  6
CONTINUOUS
 62
0
 10
0.859786927317742
 20
2.22789024192853
 30
0.0
 40
0.0196850389999999
 50
359.999999999999
 51
45.0000000000006
  0
ARC
  8
0
  6
CONTINUOUS
 62
0
 10
0.859786927317742
 20
1.96860731118781
 30
0.0
 40
0.019685039
 50
314.999999999999
 51
359.999999999999
  0
ARC
  8
0
  6
CONTINUOUS
 62
0
 10
1.03301527331774
 20
1.96860731118781
 30
0.0
 40
0.0196850389999999
 50
180
 51
224.999999999999
  0
ARC
  8
0
  6
CONTINUOUS
 62
0
 10
1.03301527331774
 20
2.22789024192853
 30
0.0
 40
0.0196850389999996
 50
134.999999999999
 51
179.999999999999
  0
ARC
  8
1
  6
CONTINUOUS
 62
1
 10
0
 20
4.5211228876846E-14
 30
0.0
 40
1.476377953
 50
359.999999999997
 51
180
  0
ARC
  8
1
  6
CONTINUOUS
 62
1
 10
0
 20
-4.25317715556764E-14
 30
0.0
 40
1.476377953
 50
179.999999999997
 51
359.999999999997
  0
LINE
  8
1
  6
CONTINUOUS
 62
1
 10
-0.472440945000004
 20
2.10218578455817
 30
0.0
 11
-0.452755904999999
 21
2.10218578455817
 31
0.0
  0
LINE
  8
1
  6
CONTINUOUS
 62
1
 10
-0.472440945000003
 20
2.09431176855817
 30
0.0
 11
-0.452755904999999
 21
2.09431176855817
 31
0.0
  0
LINE
  8
1
  6
CONTINUOUS
 62
1
 10
-0.492125984000003
 20
1.99678515819012
 30
0.0
 11
-0.492125984000002
 21
2.07462672955817
 31
0.0
  0
LINE
  8
1
  6
CONTINUOUS
 62
1
 10
-1.40067621663548
 20
2.21635901329074
 30
0.0
 11
-0.50877260236452
 21
2.21635901329074
 31
0.0
  0
LINE
  8
1
  6
CONTINUOUS
 62
1
 10
-1.417322835
 20
1.99678515819012
 30
0.0
 11
-1.417322835
 21
2.07462672955817
 31
0.0
  0
LINE
  8
1
  6
CONTINUOUS
 62
1
 10
-0.50877260236452
 20
1.9801385398256
 30
0.0
 11
-1.40067621663548
 21
1.9801385398256
 31
0.0
  0
LINE
  8
1
  6
CONTINUOUS
 62
1
 10
-0.492125984000003
 20
2.19971239492622
 30
0.0
 11
-0.492125984000003
 21
2.12187082355817
 31
0.0
  0
LINE
  8
1
  6
CONTINUOUS
 62
1
 10
-1.456692914
 20
2.10218578455817
 30
0.0
 11
-1.43700787400001
 21
2.10218578455816
 31
0.0
  0
LINE
  8
1
  6
CONTINUOUS
 62
1
 10
-1.417322835
 20
2.19971239492622
 30
0.0
 11
-1.417322835
 21
2.12187082355816
 31
0.0
  0
LINE
  8
1
  6
CONTINUOUS
 62
1
 10
-1.456692914
 20
2.09431176855817
 30
0.0
 11
-1.437007874
 21
2.09431176855817
 31
0.0
  0
ARC
  8
1
  6
CONTINUOUS
 62
1
 10
-1.437007874
 20
2.12187082355816
 30
0.0
 40
0.019685039
 50
269.999999999988
 51
360
  0
ARC
  8
1
  6
CONTINUOUS
 62
1
 10
-1.437007874
 20
2.07462672955817
 30
0.0
 40
0.0196850390000001
 50
359.999999999998
 51
90.0000000000021
  0
ARC
  8
1
  6
CONTINUOUS
 62
1
 10
-0.472440945000003
 20
2.12187082355817
 30
0.0
 40
0.0196850390000001
 50
179.999999999998
 51
269.999999999997
  0
ARC
  8
1
  6
CONTINUOUS
 62
1
 10
-0.452755905
 20
2.12187082355817
 30
0.0
 40
0.019685039
 50
270.000000000001
 51
359.999999999998
  0
ARC
  8
1
  6
CONTINUOUS
 62
1
 10
-0.472440945000003
 20
2.07462672955817
 30
0.0
 40
0.0196850390000001
 50
89.9999999999997
 51
180
  0
ARC
  8
1
  6
CONTINUOUS
 62
1
 10
-0.452755904999999
 20
2.07462672955817
 30
0.0
 40
0.0196850390000001
 50
359.999999999999
 51
89.9999999999977
  0
LINE
  8
1
  6
CONTINUOUS
 62
1
 10
-0.433070866
 20
1.97710011942269
 30
0.0
 11
-0.433070865999999
 21
2.07462672955817
 31
0.0
  0
LINE
  8
1
  6
CONTINUOUS
 62
1
 10
-0.416424247635483
 20
1.96045350105817
 30
0.0
 11
-0.393700787
 21
1.96045350005817
 31
0.0
  0
LINE
  8
1
  6
CONTINUOUS
 62
1
 10
-1.476377953
 20
2.23604405205817
 30
0.0
 11
-1.476377953
 21
2.12187082355817
 31
0.0
  0
ARC
  8
1
  6
CONTINUOUS
 62
1
 10
-0.426111153364036
 20
1.96741321369414
 30
0.0
 40
0.00984251999999989
 50
146.854161078925
 51
224.999999999998
  0
ARC
  8
1
  6
CONTINUOUS
 62
1
 10
-0.426111153364036
 20
1.96741321369414
 30
0.0
 40
0.00984251999999998
 50
224.999999999999
 51
303.145838921073
  0
ARC
  8
1
  6
CONTINUOUS
 62
1
 10
-0.416424247635483
 20
1.95257948505817
 30
0.0
 40
0.00787401599999993
 50
89.9999999999958
 51
123.145838921069
  0
ARC
  8
1
  6
CONTINUOUS
 62
1
 10
-0.440944882
 20
1.97710011942269
 30
0.0
 40
0.00787401600000012
 50
326.854161078925
 51
359.999999999996
  0
ARC
  8
1
  6
CONTINUOUS
 62
1
 10
-1.437007874
 20
2.23604405205817
 30
0.0
 40
0.0393700790000002
 50
89.9999999999995
 51
180
  0
ARC
  8
1
  6
CONTINUOUS
 62
1
 10
-1.437007874
 20
1.96045350105817
 30
0.0
 40
0.039370079
 50
179.999999999998
 51
269.999999999997
  0
ARC
  8
1
  6
CONTINUOUS
 62
1
 10
-0.393700786999999
 20
1.94076846105817
 30
0.0
 40
0.019685039
 50
269.999999999999
 51
360
  0
ARC
  8
1
  6
CONTINUOUS
 62
1
 10
-0.393700787
 20
1.94076846105817
 30
0.0
 40
0.0196850390000001
 50
359.999999999998
 51
89.9999999999995
  0
LINE
  8
1
  6
CONTINUOUS
 62
1
 10
-3.39974109652724
 20
7.80112042139652
 30
0.0
 11
-4.58084345952724
 21
7.80112042139652
 31
0.0
  0
LINE
  8
1
  6
CONTINUOUS
 62
1
 10
-4.58084345952724
 20
7.84049050039652
 30
0.0
 11
-4.42032472289175
 21
7.84049050039652
 31
0.0
  0
LINE
  8
1
  6
CONTINUOUS
 62
1
 10
-3.39974109652724
 20
8.15545113039652
 30
0.0
 11
-4.38399306552724
 21
8.15545113039652
 31
0.0
  0
LINE
  8
1
  6
CONTINUOUS
 62
1
 10
-3.36037101752724
 20
7.84049050039652
 30
0.0
 11
-3.36037101752724
 21
8.11608105139652
 31
0.0
  0
LINE
  8
1
  6
CONTINUOUS
 62
1
 10
-4.40367810452724
 20
8.13576609139652
 30
0.0
 11
-4.40367810452724
 21
7.85713711876104
 31
0.0
  0
ARC
  8
1
  6
CONTINUOUS
 62
1
 10
-4.58084345952724
 20
7.82080546039652
 30
0.0
 40
0.0196850389999998
 50
180
 51
269.999999999999
  0
ARC
  8
1
  6
CONTINUOUS
 62
1
 10
-4.58084345952724
 20
7.82080546139652
 30
0.0
 40
0.0196850389999996
 50
89.9999999999996
 51
180
  0
ARC
  8
1
  6
CONTINUOUS
 62
1
 10
-4.38399306552724
 20
8.13576609139652
 30
0.0
 40
0.0196850390000005
 50
89.9999999999998
 51
180
  0
ARC
  8
1
  6
CONTINUOUS
 62
1
 10
-4.4106378171632
 20
7.84745021303249
 30
0.0
 40
0.0098425199999998
 50
314.999999999999
 51
33.1458389210716
  0
ARC
  8
1
  6
CONTINUOUS
 62
1
 10
-4.4106378171632
 20
7.84745021303249
 30
0.0
 40
0.00984252000000034
 50
236.854161078927
 51
315.000000000001
  0
ARC
  8
1
  6
CONTINUOUS
 62
1
 10
-4.42032472289175
 20
7.83261648439652
 30
0.0
 40
0.00787401599999963
 50
56.8541610789244
 51
89.9999999999975
  0
ARC
  8
1
  6
CONTINUOUS
 62
1
 10
-4.39580408852724
 20
7.85713711876104
 30
0.0
 40
0.00787401599999969
 50
179.999999999992
 51
213.145838921063
  0
ARC
  8
1
  6
CONTINUOUS
 62
1
 10
-3.39974109652724
 20
8.11608105139652
 30
0.0
 40
0.039370079
 50
359.999999999998
 51
89.9999999999994
  0
ARC
  8
1
  6
CONTINUOUS
 62
1
 10
-3.39974109652724
 20
7.84049050039652
 30
0.0
 40
0.039370079
 50
269.999999999997
 51
359.999999999997
  0
LINE
  8
1
  6
CONTINUOUS
 62
1
 10
-0.393700786999999
 20
1.92108342205817
 30
0.0
 11
-1.437007874
 21
1.92108342205817
 31
0.0
  0
ARC
  8
1
  6
CONTINUOUS
 62
1
 10
-0.426111153364036
 20
2.2290843394222
 30
0.0
 40
0.00984252000000008
 50
135
 51
213.145838921073
  0
ARC
  8
1
  6
CONTINUOUS
 62
1
 10
-0.426111153364036
 20
2.2290843394222
 30
0.0
 40
0.00984251999999996
 50
56.8541610789251
 51
134.999999999999
  0
ARC
  8
1
  6
CONTINUOUS
 62
1
 10
-0.416424247635483
 20
2.24391806805817
 30
0.0
 40
0.00787401599999988
 50
236.85416107893
 51
270.000000000004
  0
ARC
  8
1
  6
CONTINUOUS
 62
1
 10
-0.440944882
 20
2.21939743369365
 30
0.0
 40
0.00787401600000007
 50
1.81927727779713E-12
 51
33.1458389210728
  0
ARC
  8
1
  6
CONTINUOUS
 62
1
 10
-0.393700786999999
 20
2.25572909205817
 30
0.0
 40
0.0196850390000001
 50
359.999999999998
 51
90.0000000000003
  0
ARC
  8
1
  6
CONTINUOUS
 62
1
 10
-0.393700787
 20
2.25572909205817
 30
0.0
 40
0.0196850390000001
 50
269.999999999999
 51
1.11319413851223E-12
  0
LINE
  8
1
  6
CONTINUOUS
 62
1
 10
-0.393700786999999
 20
2.27541413105817
 30
0.0
 11
-1.437007874
 21
2.27541413105817
 31
0.0
  0
ARC
  8
1
  6
CONTINUOUS
 62
1
 10
-1.41036312236404
 20
2.20939930065477
 30
0.0
 40
0.00984252000000008
 50
135
 51
213.145838921073
  0
ARC
  8
1
  6
CONTINUOUS
 62
1
 10
-1.41036312236404
 20
2.20939930065477
 30
0.0
 40
0.00984252
 50
56.8541610789271
 51
135.000000000001
  0
ARC
  8
1
  6
CONTINUOUS
 62
1
 10
-1.40067621663548
 20
2.22423302929074
 30
0.0
 40
0.00787401600000003
 50
236.854161078931
 51
270.000000000003
  0
ARC
  8
1
  6
CONTINUOUS
 62
1
 10
-1.425196851
 20
2.19971239492622
 30
0.0
 40
0.00787401600000014
 50
3.22508244700401E-12
 51
33.1458389210741
  0
ARC
  8
1
  6
CONTINUOUS
 62
1
 10
-1.41036312236404
 20
1.98709825246157
 30
0.0
 40
0.00984251999999986
 50
146.854161078924
 51
224.999999999997
  0
ARC
  8
1
  6
CONTINUOUS
 62
1
 10
-1.41036312236404
 20
1.98709825246157
 30
0.0
 40
0.00984251999999998
 50
224.999999999999
 51
303.145838921073
  0
ARC
  8
1
  6
CONTINUOUS
 62
1
 10
-1.40067621663548
 20
1.9722645238256
 30
0.0
 40
0.00787401599999983
 50
89.999999999996
 51
123.145838921069
  0
ARC
  8
1
  6
CONTINUOUS
 62
1
 10
-1.425196851
 20
1.99678515819012
 30
0.0
 40
0.00787401600000012
 50
326.854161078925
 51
359.999999999996
  0
ARC
  8
1
  6
CONTINUOUS
 62
1
 10
-0.499085696635967
 20
1.98709825246157
 30
0.0
 40
0.00984251999999985
 50
315
 51
33.1458389210741
  0
ARC
  8
1
  6
CONTINUOUS
 62
1
 10
-0.499085696635967
 20
1.98709825246157
 30
0.0
 40
0.00984251999999997
 50
236.854161078926
 51
315
  0
ARC
  8
1
  6
CONTINUOUS
 62
1
 10
-0.508772602364519
 20
1.9722645238256
 30
0.0
 40
0.0078740159999999
 50
56.8541610789308
 51
90.0000000000035
  0
ARC
  8
1
  6
CONTINUOUS
 62
1
 10
-0.484251968000003
 20
1.99678515819012
 30
0.0
 40
0.0078740160000001
 50
180.000000000002
 51
213.145838921073
  0
ARC
  8
1
  6
CONTINUOUS
 62
1
 10
-0.499085696635967
 20
2.20939930065477
 30
0.0
 40
0.00984251999999998
 50
326.854161078924
 51
44.9999999999984
  0
ARC
  8
1
  6
CONTINUOUS
 62
1
 10
-0.499085696635967
 20
2.20939930065477
 30
0.0
 40
0.00984252000000005
 50
44.9999999999988
 51
123.145838921072
  0
ARC
  8
1
  6
CONTINUOUS
 62
1
 10
-0.508772602364519
 20
2.22423302929074
 30
0.0
 40
0.00787401599999986
 50
269.999999999997
 51
303.145838921068
  0
ARC
  8
1
  6
CONTINUOUS
 62
1
 10
-0.484251968000003
 20
2.19971239492622
 30
0.0
 40
0.00787401600000012
 50
146.854161078925
 51
179.999999999996
  0
LINE
  8
1
  6
CONTINUOUS
 62
1
 10
-0.433070866
 20
2.21939743369365
 30
0.0
 11
-0.433070866
 21
2.12187082355817
 31
0.0
  0
LINE
  8
1
  6
CONTINUOUS
 62
1
 10
-0.393700787
 20
2.23604405305817
 30
0.0
 11
-0.416424247635483
 21
2.2360440513256
 31
0.0
  0
LINE
  8
1
  6
CONTINUOUS
 62
1
 10
-1.476377953
 20
1.96045350105817
 30
0.0
 11
-1.476377953
 21
2.07462672955817
 31
0.0
  0
ARC
  8
1
  6
CONTINUOUS
 62
1
 10
-1.456692914
 20
2.12187082355817
 30
0.0
 40
0.0196850390000003
 50
179.999999999999
 51
270.000000000001
  0
ARC
  8
1
  6
CONTINUOUS
 62
1
 10
-1.456692914
 20
2.07462672955817
 30
0.0
 40
0.019685039
 50
89.9999999999958
 51
180
  0
LINE
  8
1
  6
CONTINUOUS
 62
1
 10
0.472440945000004
 20
2.10218578455817
 30
0.0
 11
0.452755904999999
 21
2.10218578455817
 31
0.0
  0
LINE
  8
1
  6
CONTINUOUS
 62
1
 10
0.472440945000003
 20
2.09431176855817
 30
0.0
 11
0.452755904999999
 21
2.09431176855817
 31
0.0
  0
LINE
  8
1
  6
CONTINUOUS
 62
1
 10
0.492125984000003
 20
1.99678515819012
 30
0.0
 11
0.492125984000002
 21
2.07462672955817
 31
0.0
  0
LINE
  8
1
  6
CONTINUOUS
 62
1
 10
1.40067621663548
 20
2.21635901329074
 30
0.0
 11
0.50877260236452
 21
2.21635901329074
 31
0.0
  0
LINE
  8
1
  6
CONTINUOUS
 62
1
 10
1.417322835
 20
1.99678515819012
 30
0.0
 11
1.417322835
 21
2.07462672955817
 31
0.0
  0
LINE
  8
1
  6
CONTINUOUS
 62
1
 10
0.50877260236452
 20
1.9801385398256
 30
0.0
 11
1.40067621663548
 21
1.9801385398256
 31
0.0
  0
LINE
  8
1
  6
CONTINUOUS
 62
1
 10
0.492125984000003
 20
2.19971239492622
 30
0.0
 11
0.492125984000003
 21
2.12187082355817
 31
0.0
  0
LINE
  8
1
  6
CONTINUOUS
 62
1
 10
1.456692914
 20
2.10218578455817
 30
0.0
 11
1.43700787400001
 21
2.10218578455816
 31
0.0
  0
LINE
  8
1
  6
CONTINUOUS
 62
1
 10
1.417322835
 20
2.19971239492622
 30
0.0
 11
1.417322835
 21
2.12187082355816
 31
0.0
  0
LINE
  8
1
  6
CONTINUOUS
 62
1
 10
1.456692914
 20
2.09431176855817
 30
0.0
 11
1.437007874
 21
2.09431176855817
 31
0.0
  0
ARC
  8
1
  6
CONTINUOUS
 62
1
 10
1.437007874
 20
2.12187082355816
 30
0.0
 40
0.019685039
 50
180
 51
270.000000000011
  0
ARC
  8
1
  6
CONTINUOUS
 62
1
 10
1.437007874
 20
2.07462672955817
 30
0.0
 40
0.0196850390000001
 50
89.9999999999975
 51
180.000000000001
  0
ARC
  8
1
  6
CONTINUOUS
 62
1
 10
0.472440945000003
 20
2.12187082355817
 30
0.0
 40
0.0196850390000001
 50
270.000000000002
 51
1.27222187258541E-12
  0
ARC
  8
1
  6
CONTINUOUS
 62
1
 10
0.452755905
 20
2.12187082355817
 30
0.0
 40
0.019685039
 50
180.000000000001
 51
269.999999999998
  0
ARC
  8
1
  6
CONTINUOUS
 62
1
 10
0.472440945000003
 20
2.07462672955817
 30
0.0
 40
0.0196850390000001
 50
359.999999999999
 51
89.9999999999998
  0
ARC
  8
1
  6
CONTINUOUS
 62
1
 10
0.452755904999999
 20
2.07462672955817
 30
0.0
 40
0.0196850390000001
 50
90.0000000000019
 51
180
  0
LINE
  8
1
  6
CONTINUOUS
 62
1
 10
0.433070866
 20
1.97710011942269
 30
0.0
 11
0.433070865999999
 21
2.07462672955817
 31
0.0
  0
LINE
  8
1
  6
CONTINUOUS
 62
1
 10
0.416424247635483
 20
1.96045350105817
 30
0.0
 11
0.393700787
 21
1.96045350005817
 31
0.0
  0
LINE
  8
1
  6
CONTINUOUS
 62
1
 10
1.476377953
 20
2.23604405205817
 30
0.0
 11
1.476377953
 21
2.12187082355817
 31
0.0
  0
ARC
  8
1
  6
CONTINUOUS
 62
1
 10
0.426111153364036
 20
1.96741321369414
 30
0.0
 40
0.00984251999999989
 50
315.000000000001
 51
33.1458389210743
  0
ARC
  8
1
  6
CONTINUOUS
 62
1
 10
0.426111153364036
 20
1.96741321369414
 30
0.0
 40
0.00984251999999998
 50
236.854161078926
 51
315
  0
ARC
  8
1
  6
CONTINUOUS
 62
1
 10
0.416424247635483
 20
1.95257948505817
 30
0.0
 40
0.00787401599999993
 50
56.8541610789309
 51
90.0000000000038
  0
ARC
  8
1
  6
CONTINUOUS
 62
1
 10
0.440944882
 20
1.97710011942269
 30
0.0
 40
0.00787401600000012
 50
180.000000000003
 51
213.145838921074
  0
ARC
  8
1
  6
CONTINUOUS
 62
1
 10
1.437007874
 20
2.23604405205817
 30
0.0
 40
0.0393700790000002
 50
359.999999999999
 51
90.0000000000001
  0
ARC
  8
1
  6
CONTINUOUS
 62
1
 10
1.437007874
 20
1.96045350105817
 30
0.0
 40
0.039370079
 50
270.000000000002
 51
1.11955524787516E-12
  0
ARC
  8
1
  6
CONTINUOUS
 62
1
 10
0.393700786999999
 20
1.94076846105817
 30
0.0
 40
0.019685039
 50
180
 51
270.000000000001
  0
ARC
  8
1
  6
CONTINUOUS
 62
1
 10
0.393700787
 20
1.94076846105817
 30
0.0
 40
0.0196850390000001
 50
90.0000000000001
 51
180.000000000002
  0
LINE
  8
1
  6
CONTINUOUS
 62
1
 10
0.393700786999999
 20
1.92108342205817
 30
0.0
 11
1.437007874
 21
1.92108342205817
 31
0.0
  0
ARC
  8
1
  6
CONTINUOUS
 62
1
 10
0.426111153364036
 20
2.2290843394222
 30
0.0
 40
0.00984252000000008
 50
326.854161078926
 51
44.9999999999998
  0
ARC
  8
1
  6
CONTINUOUS
 62
1
 10
0.426111153364036
 20
2.2290843394222
 30
0.0
 40
0.00984251999999996
 50
45.0000000000006
 51
123.145838921074
  0
ARC
  8
1
  6
CONTINUOUS
 62
1
 10
0.416424247635483
 20
2.24391806805817
 30
0.0
 40
0.00787401599999988
 50
269.999999999996
 51
303.145838921069
  0
ARC
  8
1
  6
CONTINUOUS
 62
1
 10
0.440944882
 20
2.21939743369365
 30
0.0
 40
0.00787401600000007
 50
146.854161078927
 51
179.999999999998
  0
ARC
  8
1
  6
CONTINUOUS
 62
1
 10
0.393700786999999
 20
2.25572909205817
 30
0.0
 40
0.0196850390000001
 50
89.9999999999993
 51
180.000000000001
  0
ARC
  8
1
  6
CONTINUOUS
 62
1
 10
0.393700787
 20
2.25572909205817
 30
0.0
 40
0.0196850390000001
 50
179.999999999999
 51
270
  0
LINE
  8
1
  6
CONTINUOUS
 62
1
 10
0.393700786999999
 20
2.27541413105817
 30
0.0
 11
1.437007874
 21
2.27541413105817
 31
0.0
  0
ARC
  8
1
  6
CONTINUOUS
 62
1
 10
1.41036312236404
 20
2.20939930065477
 30
0.0
 40
0.00984252000000008
 50
326.854161078926
 51
44.9999999999996
  0
ARC
  8
1
  6
CONTINUOUS
 62
1
 10
1.41036312236404
 20
2.20939930065477
 30
0.0
 40
0.00984252
 50
44.9999999999985
 51
123.145838921072
  0
ARC
  8
1
  6
CONTINUOUS
 62
1
 10
1.40067621663548
 20
2.22423302929074
 30
0.0
 40
0.00787401600000003
 50
269.999999999996
 51
303.145838921068
  0
ARC
  8
1
  6
CONTINUOUS
 62
1
 10
1.425196851
 20
2.19971239492622
 30
0.0
 40
0.00787401600000014
 50
146.854161078925
 51
179.999999999996
  0
ARC
  8
1
  6
CONTINUOUS
 62
1
 10
1.41036312236404
 20
1.98709825246157
 30
0.0
 40
0.00984251999999986
 50
315.000000000002
 51
33.1458389210753
  0
ARC
  8
1
  6
CONTINUOUS
 62
1
 10
1.41036312236404
 20
1.98709825246157
 30
0.0
 40
0.00984251999999998
 50
236.854161078926
 51
315
  0
ARC
  8
1
  6
CONTINUOUS
 62
1
 10
1.40067621663548
 20
1.9722645238256
 30
0.0
 40
0.00787401599999983
 50
56.8541610789307
 51
90.0000000000036
  0
ARC
  8
1
  6
CONTINUOUS
 62
1
 10
1.425196851
 20
1.99678515819012
 30
0.0
 40
0.00787401600000012
 50
180.000000000003
 51
213.145838921074
  0
ARC
  8
1
  6
CONTINUOUS
 62
1
 10
0.499085696635967
 20
1.98709825246157
 30
0.0
 40
0.00984251999999985
 50
146.854161078926
 51
224.999999999999
  0
ARC
  8
1
  6
CONTINUOUS
 62
1
 10
0.499085696635967
 20
1.98709825246157
 30
0.0
 40
0.00984251999999997
 50
225
 51
303.145838921073
  0
ARC
  8
1
  6
CONTINUOUS
 62
1
 10
0.508772602364519
 20
1.9722645238256
 30
0.0
 40
0.0078740159999999
 50
89.9999999999961
 51
123.145838921069
  0
ARC
  8
1
  6
CONTINUOUS
 62
1
 10
0.484251968000003
 20
1.99678515819012
 30
0.0
 40
0.0078740160000001
 50
326.854161078926
 51
359.999999999997
  0
ARC
  8
1
  6
CONTINUOUS
 62
1
 10
0.499085696635967
 20
2.20939930065477
 30
0.0
 40
0.00984251999999998
 50
135.000000000001
 51
213.145838921075
  0
ARC
  8
1
  6
CONTINUOUS
 62
1
 10
0.499085696635967
 20
2.20939930065477
 30
0.0
 40
0.00984252000000005
 50
56.8541610789274
 51
135.000000000001
  0
ARC
  8
1
  6
CONTINUOUS
 62
1
 10
0.508772602364519
 20
2.22423302929074
 30
0.0
 40
0.00787401599999986
 50
236.854161078931
 51
270.000000000003
  0
ARC
  8
1
  6
CONTINUOUS
 62
1
 10
0.484251968000003
 20
2.19971239492622
 30
0.0
 40
0.00787401600000012
 50
3.20599911891522E-12
 51
33.1458389210741
  0
LINE
  8
1
  6
CONTINUOUS
 62
1
 10
0.433070866
 20
2.21939743369365
 30
0.0
 11
0.433070866
 21
2.12187082355817
 31
0.0
  0
LINE
  8
1
  6
CONTINUOUS
 62
1
 10
0.393700787
 20
2.23604405305817
 30
0.0
 11
0.416424247635483
 21
2.2360440513256
 31
0.0
  0
LINE
  8
1
  6
CONTINUOUS
 62
1
 10
1.476377953
 20
1.96045350105817
 30
0.0
 11
1.476377953
 21
2.07462672955817
 31
0.0
  0
ARC
  8
1
  6
CONTINUOUS
 62
1
 10
1.456692914
 20
2.12187082355817
 30
0.0
 40
0.0196850390000003
 50
269.999999999998
 51
8.1422199845466E-13
  0
ARC
  8
1
  6
CONTINUOUS
 62
1
 10
1.456692914
 20
2.07462672955817
 30
0.0
 40
0.019685039
 50
359.999999999999
 51
90.0000000000038
  0
ARC
  8
1
  6
CONTINUOUS
 62
1
 10
0.946401100317741
 20
-6.62091592120478E-16
 30
0.0
 40
0.066929134
 50
179.999999999999
 51
359.999999999999
  0
ARC
  8
1
  6
CONTINUOUS
 62
1
 10
0.946401100317741
 20
6.70288047092758E-16
 30
0.0
 40
0.066929134
 50
359.999999999999
 51
180
  0
ARC
  8
1
  6
CONTINUOUS
 62
1
 10
-0.946401100317741
 20
-9.65909953226169E-12
 30
0.0
 40
0.066929134
 50
5.84585950452994E-10
 51
180.000000000585
  0
ARC
  8
1
  6
CONTINUOUS
 62
1
 10
-0.946401100317741
 20
-9.66001273349998E-12
 30
0.0
 40
0.066929134
 50
180.000000000584
 51
5.84573228234269E-10
  0
LINE
  8
3
  6
CONTINUOUS
 62
3
 10
-4.73812209033193
 20
8.03141647111266
 30
0.0
 11
-4.70631428547539
 21
7.90695114750136
 31
0.0
  0
LINE
  8
3
  6
CONTINUOUS
 62
3
 10
-4.74575093141098
 20
8.03734089439652
 30
0.0
 11
-4.76588282852724
 21
8.03734089439652
 31
0.0
  0
ARC
  8
3
  6
CONTINUOUS
 62
3
 10
-4.74575093141098
 20
8.02946687839652
 30
0.0
 40
0.00787401600000055
 50
14.3354353908465
 51
89.9999999999954
  0
LINE
  8
3
  6
CONTINUOUS
 62
3
 10
-4.70631428547539
 20
7.90695114750136
 30
0.0
 11
-4.68932989791736
 21
7.84049050039652
 31
0.0
  0
LINE
  8
3
  6
CONTINUOUS
 62
3
 10
-4.68177913330501
 20
7.81094403011266
 30
0.0
 11
-4.68932989791736
 21
7.84049050039652
 31
0.0
  0
ARC
  8
3
  6
CONTINUOUS
 62
3
 10
-4.68940797438407
 20
7.80899443739652
 30
0.0
 40
0.00787401600000041
 50
269.999999999996
 51
14.3354353908484
  0
LINE
  8
3
  6
CONTINUOUS
 62
3
 10
-4.69445709885374
 20
7.80112042139652
 30
0.0
 11
-4.68940797438407
 21
7.80112042139652
 31
0.0
  0
LINE
  8
3
  6
CONTINUOUS
 62
3
 10
-4.76222561536399
 20
7.85258131723327
 30
0.0
 11
-4.72229594869049
 21
7.81265165055977
 31
0.0
  0
LINE
  8
3
  6
CONTINUOUS
 62
3
 10
-4.77375684452724
 20
7.88042016707002
 30
0.0
 11
-4.77375684452724
 21
8.02946687839652
 31
0.0
  0
ARC
  8
3
  6
CONTINUOUS
 62
3
 10
-4.76588282852724
 20
8.02946687839652
 30
0.0
 40
0.00787401600000001
 50
90.000000000002
 51
180.000000000004
  0
ARC
  8
3
  6
CONTINUOUS
 62
3
 10
-4.69445709885374
 20
7.84049050039652
 30
0.0
 40
0.0393700789999983
 50
224.999999999997
 51
269.999999999996
  0
ARC
  8
3
  6
CONTINUOUS
 62
3
 10
-4.73438676552724
 20
7.88042016707002
 30
0.0
 40
0.0393700789999998
 50
179.999999999998
 51
224.999999999998
  0
ARC
  8
4
  6
CONTINUOUS
 62
4
 10
0
 20
-1.10604792387359E-14
 30
0.0
 40
1.417322835
 50
179.999999999999
 51
359.999999999999
  0
ARC
  8
4
  6
CONTINUOUS
 62
4
 10
0
 20
1.68540432527382E-14
 30
0.0
 40
1.417322835
 50
359.999999999999
 51
180
  0
ARC
  8
4
  6
CONTINUOUS
 62
4
 10
0
 20
2.80999601333912E-15
 30
0.0
 40
0.049212598
 50
359.999999999999
 51
180
  0
ARC
  8
4
  6
CONTINUOUS
 62
4
 10
0
 20
1.83030511269209E-15
 30
0.0
 40
0.049212598
 50
179.999999999999
 51
359.999999999999
  0
ARC
  8
4
  6
CONTINUOUS
 62
4
 10
-4.83674897052724
 20
6.14040396648966
 30
0.0
 40
0.0669291340000004
 50
359.999999999996
 51
180
  0
ARC
  8
4
  6
CONTINUOUS
 62
4
 10
-4.83674897052724
 20
6.14040396648966
 30
0.0
 40
0.0669291340000004
 50
179.999999999993
 51
359.999999999994
  0
LINE
  8
4
  6
CONTINUOUS
 62
4
 10
-4.71400521204714
 20
6.14040396648965
 30
0.0
 11
-4.77537709128714
 21
6.03410475348987
 31
0.0
  0
LINE
  8
4
  6
CONTINUOUS
 62
4
 10
-4.77537709128714
 20
6.24670317948944
 30
0.0
 11
-4.71400521204714
 21
6.14040396648965
 31
0.0
  0
LINE
  8
4
  6
CONTINUOUS
 62
4
 10
-4.89812084976734
 20
6.24670317948945
 30
0.0
 11
-4.77537709128714
 21
6.24670317948944
 31
0.0
  0
LINE
  8
4
  6
CONTINUOUS
 62
4
 10
-4.95949272900734
 20
6.14040396648964
 30
0.0
 11
-4.89812084976734
 21
6.24670317948945
 31
0.0
  0
LINE
  8
4
  6
CONTINUOUS
 62
4
 10
-4.89812084976734
 20
6.03410475348987
 30
0.0
 11
-4.95949272900734
 21
6.14040396648964
 31
0.0
  0
LINE
  8
4
  6
CONTINUOUS
 62
4
 10
-4.77537709128714
 20
6.03410475348987
 30
0.0
 11
-4.89812084976734
 21
6.03410475348987
 31
0.0
  0
LINE
  8
4
  6
CONTINUOUS
 62
4
 10
-4.71400521204714
 20
8.06096294139652
 30
0.0
 11
-4.71400521204714
 21
8.15545113039652
 31
0.0
  0
LINE
  8
4
  6
CONTINUOUS
 62
4
 10
-4.95949272900734
 20
8.06096294139652
 30
0.0
 11
-4.95949272900734
 21
8.15545113039652
 31
0.0
  0
LINE
  8
4
  6
CONTINUOUS
 62
4
 10
-4.71400521204714
 20
8.06096294139652
 30
0.0
 11
-4.95949272900734
 21
8.06096294139652
 31
0.0
  0
LINE
  8
4
  6
CONTINUOUS
 62
4
 10
-4.71400521204714
 20
8.15545113039652
 30
0.0
 11
-4.95949272900734
 21
8.15545113039652
 31
0.0
  0
ARC
  8
4
  6
CONTINUOUS
 62
4
 10
-0.946401100317741
 20
-9.65909042996356E-12
 30
0.0
 40
0.049212598
 50
359.999999999999
 51
180
  0
ARC
  8
4
  6
CONTINUOUS
 62
4
 10
-0.946401100317741
 20
-9.6600701208642E-12
 30
0.0
 40
0.049212598
 50
179.999999999999
 51
359.999999999999
  0
ARC
  8
4
  6
CONTINUOUS
 62
4
 10
0.946401100317741
 20
1.93184097446465E-11
 30
0.0
 40
0.049212598
 50
180.000000000584
 51
5.84573228234269E-10
  0
ARC
  8
4
  6
CONTINUOUS
 62
4
 10
0.946401100317741
 20
1.9319081216138E-11
 30
0.0
 40
0.049212598
 50
5.84585950452994E-10
 51
180.000000000585
  0
ARC
  8
4
  6
CONTINUOUS
 62
4
 10
0
 20
-1.16839692261617E-15
 30
0.0
 40
0.118110236
 50
179.999999999999
 51
359.999999999999
  0
ARC
  8
4
  6
CONTINUOUS
 62
4
 10
0
 20
1.18286125486256E-15
 30
0.0
 40
0.118110236
 50
359.999999999999
 51
180
  0
ARC
  8
4
  6
CONTINUOUS
 62
4
 10
0
 20
4.92858856860398E-15
 30
0.0
 40
0.492125984000003
 50
359.999999999999
 51
180
  0
ARC
  8
4
  6
CONTINUOUS
 62
4
 10
0
 20
-4.8683205174957E-15
 30
0.0
 40
0.492125984000003
 50
179.999999999999
 51
359.999999999999
  0
ARC
  8
5
  6
CONTINUOUS
 62
5
 10
0
 20
2.31713716048469E-15
 30
0.0
 40
0.066929134
 50
359.999999999999
 51
180
  0
ARC
  8
5
  6
CONTINUOUS
 62
5
 10
0
 20
9.8475752127145E-16
 30
0.0
 40
0.066929134
 50
179.999999999999
 51
359.999999999999
  0
ARC
  8
5
  6
CONTINUOUS
 62
5
 10
-0.137795276
 20
2.07462672955817
 30
0.0
 40
0.019685039
 50
89.9999999999998
 51
180
  0
LINE
  8
5
  6
CONTINUOUS
 62
5
 10
-4.50210330052724
 20
8.11608105139652
 30
0.0
 11
-4.65958361575378
 21
8.11608105139652
 31
0.0
  0
LINE
  8
5
  6
CONTINUOUS
 62
5
 10
-4.67926865552724
 20
7.90938813839652
 30
0.0
 11
-4.67926865552724
 21
8.09639601162306
 31
0.0
  0
LINE
  8
5
  6
CONTINUOUS
 62
5
 10
-4.77135707712051
 20
8.15545113039652
 30
0.0
 11
-4.50210330052724
 21
8.15545113039652
 31
0.0
  0
LINE
  8
5
  6
CONTINUOUS
 62
5
 10
-4.68911117552724
 20
7.89954561839652
 30
0.0
 11
-4.69677823412657
 21
7.89954561839653
 31
0.0
  0
ARC
  8
5
  6
CONTINUOUS
 62
5
 10
-4.69677823412657
 20
7.90938813839653
 30
0.0
 40
0.00984252000000079
 50
194.335435390847
 51
269.999999999986
  0
ARC
  8
5
  6
CONTINUOUS
 62
5
 10
-4.68911117552724
 20
7.90938813839652
 30
0.0
 40
0.00984252000000033
 50
269.999999999984
 51
359.999999999994
  0
ARC
  8
5
  6
CONTINUOUS
 62
5
 10
-4.50210330052724
 20
8.13576609139652
 30
0.0
 40
0.0196850389999999
 50
359.999999999998
 51
89.999999999999
  0
ARC
  8
5
  6
CONTINUOUS
 62
5
 10
-4.50210330052724
 20
8.13576609039652
 30
0.0
 40
0.0196850390000003
 50
269.999999999999
 51
4.64360983493673E-13
  0
ARC
  8
5
  6
CONTINUOUS
 62
5
 10
-4.67230894289127
 20
8.10912133876056
 30
0.0
 40
0.00984252000000001
 50
64.4712201948942
 51
134.999999999994
  0
ARC
  8
5
  6
CONTINUOUS
 62
5
 10
-4.67230894289127
 20
8.10912133876056
 30
0.0
 40
0.00984252000000023
 50
134.999999999999
 51
205.528779805093
  0
ARC
  8
5
  6
CONTINUOUS
 62
5
 10
-4.65958361575377
 20
8.13576609039652
 30
0.0
 40
0.0196850390000011
 50
244.471220194894
 51
269.999999999994
  0
ARC
  8
5
  6
CONTINUOUS
 62
5
 10
-4.69895369452724
 20
8.09639601162306
 30
0.0
 40
0.0196850390000004
 50
359.999999999999
 51
25.5287798050938
  0
LINE
  8
5
  6
CONTINUOUS
 62
5
 10
-4.77135707712051
 20
8.15545113039652
 30
0.0
 11
-4.73812209033193
 21
8.03141647111266
 31
0.0
  0
LINE
  8
5
  6
CONTINUOUS
 62
5
 10
-0.33464567
 20
1.96045350105817
 30
0.0
 11
-0.177165354773462
 21
1.96045350105817
 31
0.0
  0
LINE
  8
5
  6
CONTINUOUS
 62
5
 10
-0.157480315
 20
2.07462672955817
 30
0.0
 11
-0.157480315
 21
1.98013854083163
 31
0.0
  0
ARC
  8
5
  6
CONTINUOUS
 62
5
 10
-0.33464567
 20
1.94076846205817
 30
0.0
 40
0.0196850390000001
 50
90
 51
180.000000000001
  0
ARC
  8
5
  6
CONTINUOUS
 62
5
 10
-0.33464567
 20
1.94076846205817
 30
0.0
 40
0.0196850390000001
 50
179.999999999999
 51
269.999999999999
  0
LINE
  8
5
  6
CONTINUOUS
 62
5
 10
0.334645670000002
 20
1.92108342205817
 30
0.0
 11
-0.33464567
 21
1.92108342205817
 31
0.0
  0
ARC
  8
5
  6
CONTINUOUS
 62
5
 10
-0.164440027635964
 20
1.96741321369413
 30
0.0
 40
0.00984251999999995
 50
244.4712201949
 51
315
  0
ARC
  8
5
  6
CONTINUOUS
 62
5
 10
-0.164440027635964
 20
1.96741321369413
 30
0.0
 40
0.00984251999999985
 50
314.999999999999
 51
25.5287798050949
  0
ARC
  8
5
  6
CONTINUOUS
 62
5
 10
-0.177165354773462
 20
1.94076846205817
 30
0.0
 40
0.019685039
 50
64.4712201948995
 51
89.9999999999994
  0
ARC
  8
5
  6
CONTINUOUS
 62
5
 10
-0.137795276
 20
1.98013854083163
 30
0.0
 40
0.0196850389999996
 50
180.000000000001
 51
205.528779805094
  0
LINE
  8
5
  6
CONTINUOUS
 62
5
 10
0.33464567
 20
1.96045350105817
 30
0.0
 11
0.177165354773462
 21
1.96045350105817
 31
0.0
  0
ARC
  8
5
  6
CONTINUOUS
 62
5
 10
0.334645670000002
 20
1.94076846105817
 30
0.0
 40
0.0196850390000001
 50
269.999999999999
 51
1.09411081042345E-12
  0
ARC
  8
5
  6
CONTINUOUS
 62
5
 10
0.334645670000001
 20
1.94076846205817
 30
0.0
 40
0.0196850390000001
 50
359.999999999998
 51
90.0000000000003
  0
ARC
  8
5
  6
CONTINUOUS
 62
5
 10
0.164440027635964
 20
1.96741321369413
 30
0.0
 40
0.00984251999999997
 50
224.999999999999
 51
295.528779805099
  0
ARC
  8
5
  6
CONTINUOUS
 62
5
 10
0.164440027635964
 20
1.96741321369413
 30
0.0
 40
0.00984252
 50
154.471220194905
 51
224.999999999999
  0
ARC
  8
5
  6
CONTINUOUS
 62
5
 10
0.177165354773462
 20
1.94076846205817
 30
0.0
 40
0.0196850390000001
 50
90.0000000000012
 51
115.528779805102
  0
ARC
  8
5
  6
CONTINUOUS
 62
5
 10
0.137795276
 20
1.98013854083163
 30
0.0
 40
0.0196850390000002
 50
334.471220194906
 51
5.88402616070751E-14
  0
ARC
  8
5
  6
CONTINUOUS
 62
5
 10
-0.137795275
 20
2.07462672955817
 30
0.0
 40
0.0196850389999999
 50
4.57999874130746E-13
 51
89.9999999999996
  0
ARC
  8
5
  6
CONTINUOUS
 62
5
 10
-0.111150524364035
 20
1.96741321369413
 30
0.0
 40
0.00984251999999995
 50
225
 51
295.5287798051
  0
ARC
  8
5
  6
CONTINUOUS
 62
5
 10
-0.111150524364035
 20
1.96741321369413
 30
0.0
 40
0.00984251999999985
 50
154.471220194905
 51
225
  0
ARC
  8
5
  6
CONTINUOUS
 62
5
 10
-0.0984251972265376
 20
1.94076846205817
 30
0.0
 40
0.019685039
 50
90.0000000000002
 51
115.5287798051
  0
ARC
  8
5
  6
CONTINUOUS
 62
5
 10
-0.137795275999999
 20
1.98013854083163
 30
0.0
 40
0.0196850389999996
 50
334.471220194905
 51
359.999999999998
  0
LINE
  8
5
  6
CONTINUOUS
 62
5
 10
-0.118110236
 20
1.98013854083163
 30
0.0
 11
-0.118110236
 21
2.07462672955817
 31
0.0
  0
ARC
  8
5
  6
CONTINUOUS
 62
5
 10
0.137795276
 20
2.07462672955817
 30
0.0
 40
0.019685039
 50
359.999999999999
 51
89.9999999999998
  0
LINE
  8
5
  6
CONTINUOUS
 62
5
 10
0.157480315
 20
2.07462672955817
 30
0.0
 11
0.157480315
 21
1.98013854083163
 31
0.0
  0
ARC
  8
5
  6
CONTINUOUS
 62
5
 10
0.137795275
 20
2.07462672955817
 30
0.0
 40
0.0196850389999999
 50
90
 51
179.999999999999
  0
ARC
  8
5
  6
CONTINUOUS
 62
5
 10
0.111150524364036
 20
1.96741321369413
 30
0.0
 40
0.00984251999999995
 50
244.4712201949
 51
315
  0
ARC
  8
5
  6
CONTINUOUS
 62
5
 10
0.111150524364036
 20
1.96741321369413
 30
0.0
 40
0.00984251999999985
 50
314.999999999999
 51
25.5287798050949
  0
ARC
  8
5
  6
CONTINUOUS
 62
5
 10
0.0984251972265373
 20
1.94076846205817
 30
0.0
 40
0.019685039
 50
64.4712201948995
 51
89.9999999999994
  0
ARC
  8
5
  6
CONTINUOUS
 62
5
 10
0.137795275999999
 20
1.98013854083163
 30
0.0
 40
0.0196850389999996
 50
180.000000000001
 51
205.528779805094
  0
LINE
  8
5
  6
CONTINUOUS
 62
5
 10
0.118110236
 20
1.98013854083163
 30
0.0
 11
0.118110236
 21
2.07462672955817
 31
0.0
  0
LINE
  8
5
  6
CONTINUOUS
 62
5
 10
0.0984251972265375
 20
1.96045350105817
 30
0.0
 11
-0.0984251972265375
 21
1.96045350105817
 31
0.0
  0
LINE
  8
5
  6
CONTINUOUS
 62
5
 10
-0.0984251972265375
 20
2.23604405205817
 30
0.0
 11
-0.0669291339999994
 21
2.23604405205817
 31
0.0
  0
ARC
  8
5
  6
CONTINUOUS
 62
5
 10
-0.137795276
 20
2.12187082355817
 30
0.0
 40
0.019685039
 50
179.999999999999
 51
269.999999999999
  0
LINE
  8
5
  6
CONTINUOUS
 62
5
 10
-0.33464567
 20
2.23604405205817
 30
0.0
 11
-0.177165354773462
 21
2.23604405205817
 31
0.0
  0
LINE
  8
5
  6
CONTINUOUS
 62
5
 10
-0.157480315
 20
2.12187082355817
 30
0.0
 11
-0.157480315
 21
2.21635901228471
 31
0.0
  0
ARC
  8
5
  6
CONTINUOUS
 62
5
 10
-0.33464567
 20
2.25572909105817
 30
0.0
 40
0.0196850390000001
 50
179.999999999999
 51
270
  0
ARC
  8
5
  6
CONTINUOUS
 62
5
 10
-0.33464567
 20
2.25572909105817
 30
0.0
 40
0.0196850390000003
 50
90.0000000000005
 51
180
  0
ARC
  8
5
  6
CONTINUOUS
 62
5
 10
-0.164440027635964
 20
2.22908433942221
 30
0.0
 40
0.00984251999999998
 50
44.9999999999986
 51
115.528779805099
  0
ARC
  8
5
  6
CONTINUOUS
 62
5
 10
-0.164440027635964
 20
2.22908433942221
 30
0.0
 40
0.00984251999999966
 50
334.471220194905
 51
45.0000000000001
  0
ARC
  8
5
  6
CONTINUOUS
 62
5
 10
-0.177165354773462
 20
2.25572909105817
 30
0.0
 40
0.019685039
 50
270
 51
295.5287798051
  0
ARC
  8
5
  6
CONTINUOUS
 62
5
 10
-0.137795276
 20
2.21635901228471
 30
0.0
 40
0.0196850389999996
 50
154.471220194906
 51
179.999999999999
  0
LINE
  8
5
  6
CONTINUOUS
 62
5
 10
0.33464567
 20
2.23604405205817
 30
0.0
 11
0.177165354773462
 21
2.23604405205817
 31
0.0
  0
ARC
  8
5
  6
CONTINUOUS
 62
5
 10
0.334645670000002
 20
2.25572909205817
 30
0.0
 40
0.0196850390000001
 50
359.999999999998
 51
89.9999999999998
  0
ARC
  8
5
  6
CONTINUOUS
 62
5
 10
0.334645670000001
 20
2.25572909105817
 30
0.0
 40
0.0196850390000001
 50
269.999999999999
 51
1.42488849729566E-12
  0
ARC
  8
5
  6
CONTINUOUS
 62
5
 10
0.164440027635964
 20
2.22908433942221
 30
0.0
 40
0.00984252
 50
64.471220194901
 51
135.000000000001
  0
ARC
  8
5
  6
CONTINUOUS
 62
5
 10
0.164440027635964
 20
2.22908433942221
 30
0.0
 40
0.00984251999999981
 50
135
 51
205.528779805094
  0
ARC
  8
5
  6
CONTINUOUS
 62
5
 10
0.177165354773462
 20
2.25572909105817
 30
0.0
 40
0.0196850390000002
 50
244.471220194897
 51
269.999999999997
  0
ARC
  8
5
  6
CONTINUOUS
 62
5
 10
0.137795276
 20
2.21635901228471
 30
0.0
 40
0.0196850389999997
 50
359.999999999999
 51
25.528779805094
  0
ARC
  8
5
  6
CONTINUOUS
 62
5
 10
-0.137795275
 20
2.12187082355817
 30
0.0
 40
0.0196850390000001
 50
270
 51
359.999999999999
  0
ARC
  8
5
  6
CONTINUOUS
 62
5
 10
-0.111150524364035
 20
2.22908433942221
 30
0.0
 40
0.00984251999999998
 50
64.471220194901
 51
135.000000000001
  0
ARC
  8
5
  6
CONTINUOUS
 62
5
 10
-0.111150524364036
 20
2.22908433942221
 30
0.0
 40
0.00984251999999966
 50
135
 51
205.528779805095
  0
ARC
  8
5
  6
CONTINUOUS
 62
5
 10
-0.0984251972265374
 20
2.25572909105817
 30
0.0
 40
0.019685039
 50
244.471220194899
 51
269.999999999999
  0
ARC
  8
5
  6
CONTINUOUS
 62
5
 10
-0.137795276
 20
2.21635901228471
 30
0.0
 40
0.0196850389999996
 50
8.65110873358077E-13
 51
25.5287798050939
  0
LINE
  8
5
  6
CONTINUOUS
 62
5
 10
-0.118110236
 20
2.21635901228471
 30
0.0
 11
-0.118110236
 21
2.12187082355817
 31
0.0
  0
ARC
  8
5
  6
CONTINUOUS
 62
5
 10
0.137795276
 20
2.12187082355817
 30
0.0
 40
0.019685039
 50
270
 51
3.05333249420498E-13
  0
LINE
  8
5
  6
CONTINUOUS
 62
5
 10
0.157480315
 20
2.12187082355817
 30
0.0
 11
0.157480315
 21
2.21635901228471
 31
0.0
  0
ARC
  8
5
  6
CONTINUOUS
 62
5
 10
0.137795275
 20
2.12187082355817
 30
0.0
 40
0.0196850390000001
 50
180
 51
269.999999999999
  0
ARC
  8
5
  6
CONTINUOUS
 62
5
 10
0.111150524364035
 20
2.22908433942221
 30
0.0
 40
0.00984251999999998
 50
44.9999999999986
 51
115.528779805099
  0
ARC
  8
5
  6
CONTINUOUS
 62
5
 10
0.111150524364036
 20
2.22908433942221
 30
0.0
 40
0.00984251999999966
 50
334.471220194905
 51
45.0000000000001
  0
ARC
  8
5
  6
CONTINUOUS
 62
5
 10
0.0984251972265377
 20
2.25572909105817
 30
0.0
 40
0.019685039
 50
270
 51
295.5287798051
  0
ARC
  8
5
  6
CONTINUOUS
 62
5
 10
0.137795275999999
 20
2.21635901228471
 30
0.0
 40
0.0196850389999996
 50
154.471220194906
 51
179.999999999999
  0
LINE
  8
5
  6
CONTINUOUS
 62
5
 10
0.118110236
 20
2.21635901228471
 30
0.0
 11
0.118110236
 21
2.12187082355817
 31
0.0
  0
LINE
  8
5
  6
CONTINUOUS
 62
5
 10
0.0984251972265375
 20
2.23604405205817
 30
0.0
 11
0.066929134000001
 21
2.23604405205817
 31
0.0
  0
LINE
  8
5
  6
CONTINUOUS
 62
5
 10
0.334645670000002
 20
2.27541413105817
 30
0.0
 11
-0.33464567
 21
2.27541413105817
 31
0.0
  0
LINE
  8
5
  6
CONTINUOUS
 62
5
 10
-0.0669291339999994
 20
2.23604405205817
 30
0.0
 11
0.066929134000001
 21
2.23604405205817
 31
0.0
  0
ARC
  8
6
  6
CONTINUOUS
 62
6
 10
0.946401100317741
 20
2.09824877655817
 30
0.0
 40
0.0590551180000001
 50
359.999999999999
 51
180
  0
ARC
  8
6
  6
CONTINUOUS
 62
6
 10
0.946401100317741
 20
2.09824877655817
 30
0.0
 40
0.0590551180000001
 50
179.999999999999
 51
359.999999999999
  0
ARC
  8
6
  6
CONTINUOUS
 62
6
 10
1.11022302462516E-16
 20
2.09824877655817
 30
0.0
 40
0.059055118
 50
359.999999999999
 51
180
  0
ARC
  8
6
  6
CONTINUOUS
 62
6
 10
1.11022302462516E-16
 20
2.09824877655817
 30
0.0
 40
0.059055118
 50
179.999999999999
 51
359.999999999999
  0
ARC
  8
6
  6
CONTINUOUS
 62
6
 10
-0.946401100317741
 20
2.09824877655817
 30
0.0
 40
0.059055118
 50
179.999999999999
 51
359.999999999999
  0
ARC
  8
6
  6
CONTINUOUS
 62
6
 10
-0.946401100317741
 20
2.09824877655817
 30
0.0
 40
0.059055118
 50
359.999999999999
 51
180
  0
LINE
  8
6
  6
CONTINUOUS
 62
6
 10
-7.3323306477414
 20
6.9094077409601
 30
0.0
 11
-6.30378110421642
 21
6.9094077409601
 31
0.0
  0
ARC
  8
6
  6
CONTINUOUS
 62
6
 10
-7.33233064774137
 20
6.90940774096014
 30
0.0
 40
1.02854954352495
 50
359.999999999997
 51
24.0000000000781
  0
LINE
  8
6
  6
CONTINUOUS
 62
6
 10
-7.3323306477414
 20
6.9094077409601
 30
0.0
 11
-6.39270388429435
 21
7.32775652953188
 31
0.0
  0
LINE
  8
6
  6
CONTINUOUS
 62
6
 10
-7.3323306477414
 20
6.9094077409601
 30
0.0
 11
-7.01449135923958
 21
7.88761648666324
 31
0.0
  0
LINE
  8
6
  6
CONTINUOUS
 62
6
 10
-7.3323306477414
 20
6.9094077409601
 30
0.0
 11
-7.43984335092628
 21
7.93232278246616
 31
0.0
  0
LINE
  8
6
  6
CONTINUOUS
 62
6
 10
-7.3323306477414
 20
6.9094077409601
 30
0.0
 11
-8.16444470801464
 21
7.51397399388945
 31
0.0
  0
LINE
  8
6
  6
CONTINUOUS
 62
6
 10
-7.3323306477414
 20
6.9094077409601
 30
0.0
 11
-8.33840391597825
 21
7.12325521563464
 31
0.0
  0
LINE
  8
6
  6
CONTINUOUS
 62
6
 10
-7.3323306477414
 20
6.9094077409601
 30
0.0
 11
-8.1644447080023
 21
6.30484148801378
 31
0.0
  0
LINE
  8
6
  6
CONTINUOUS
 62
6
 10
-7.3323306477414
 20
6.9094077409601
 30
0.0
 11
-7.84660541949177
 21
6.01865770720958
 31
0.0
  0
LINE
  8
6
  6
CONTINUOUS
 62
6
 10
-7.3323306477414
 20
6.9094077409601
 30
0.0
 11
-7.01449135921961
 21
5.93119899526345
 31
0.0
  0
LINE
  8
6
  6
CONTINUOUS
 62
6
 10
-7.3323306477414
 20
6.9094077409601
 30
0.0
 11
-6.64409666799888
 21
6.14504646995455
 31
0.0
  0
ARC
  8
6
  6
CONTINUOUS
 62
6
 10
-7.3323306477414
 20
6.90940774096009
 30
0.0
 40
1.02854954352498
 50
144.000000000468
 51
168.000000000545
  0
ARC
  8
6
  6
CONTINUOUS
 62
6
 10
-7.33233064774139
 20
6.90940774096007
 30
0.0
 40
1.02854954352497
 50
216.000000000699
 51
240.000000000777
  0
ARC
  8
6
  6
CONTINUOUS
 62
6
 10
-7.33233064774141
 20
6.90940774096009
 30
0.0
 40
1.028549543525
 50
72.0000000002335
 51
96.0000000003112
  0
ARC
  8
6
  6
CONTINUOUS
 62
6
 10
-7.33233064774138
 20
6.90940774096011
 30
0.0
 40
1.02854954352498
 50
288.000000000933
 51
312.000000001011
  0
ENDSEC
  0
EOF
