999
File generated by Conversation
0
SECTION
2
HEADER
0
SECTION
2
HEADER
9
$ACADVER
1
AC1021
9
$INSBASE
10
0.0
20
0.0
30
0.0
9
$INSUNITS
70
4
9
$EXTMIN
10
0.0
20
0.0
30
0.0
9
$EXTMAX
10
1000.0
20
1000.0
30
0.0
0
ENDSEC
0
SECTION
2
TABLES
0
TABLE
2
LTYPE
70
1
0
LTYPE
2
CONTINUOUS
70
64
3
Solid line
72
65
73
0
40
0.0
0
ENDTAB
0
TABLE
2
LAYER
70
1
0
LAYER
2
0
70
64
62
7
6
CONTINUOUS
0
ENDTAB
0
TABLE
2
STYLE
70
1
0
STYLE
2
STANDARD
70
0
40
0.0
41
1.0
50
0.0
71
0
42
0.2
3
txt
4

0
ENDTAB
0
ENDSEC
0
SECTION
2
ENTITIES
0
LINE
8
0
62
1
10
-223.849731
20
214.233551
30
0.0
11
-203.849731
21
214.233551
31
0.0
0
CIRCLE
8
0
62
4
10
-213.849731
20
216.233551
30
0.0
40
4.999996
0
LINE
8
0
62
1
10
-223.849731
20
218.233551
30
0.0
11
-203.849731
21
218.233551
31
0.0
0
LINE
8
0
62
0
10
-223.849731
20
218.233551
30
0.0
11
-223.849731
21
144.889130
31
0.0
0
LINE
8
0
62
1
10
-223.849731
20
202.233551
30
0.0
11
-203.849731
21
202.233551
31
0.0
0
LINE
8
0
62
1
10
-223.849731
20
206.233551
30
0.0
11
-219.594284
21
206.233551
31
0.0
0
LINE
8
0
62
1
10
-217.952988
20
206.233551
30
0.0
11
-203.849731
21
206.233551
31
0.0
0
ARC
8
0
62
3
10
-219.594284
20
208.233551
30
0.0
40
2.000000
50
270.000000
51
325.150085
0
ARC
8
0
62
4
10
-213.849731
20
204.233551
30
0.0
40
5.000001
50
160.804077
51
145.150040
0
LINE
8
0
62
1
10
-223.849731
20
190.233551
30
0.0
11
-203.849731
21
190.233551
31
0.0
0
LINE
8
0
62
1
10
-223.849731
20
194.233551
30
0.0
11
-219.594284
21
194.233551
31
0.0
0
ARC
8
0
62
3
10
-219.594284
20
196.233551
30
0.0
40
2.000000
50
270.000000
51
325.150085
0
ARC
8
0
62
3
10
-208.105179
20
196.233551
30
0.0
40
2.000000
50
214.849915
51
270.000000
0
LINE
8
0
62
1
10
-217.952988
20
194.233551
30
0.0
11
-209.746475
21
194.233551
31
0.0
0
LINE
8
0
62
1
10
-208.104843
20
194.233551
30
0.0
11
-203.849731
21
194.233551
31
0.0
0
ARC
8
0
62
4
10
-213.849731
20
192.233551
30
0.0
40
5.000001
50
160.804077
51
19.195915
0
ARC
8
0
62
4
10
-213.849731
20
192.233551
30
0.0
40
5.000001
50
34.911270
51
145.150040
0
LINE
8
0
62
1
10
-223.849731
20
182.233551
30
0.0
11
-219.594284
21
182.233551
31
0.0
0
ARC
8
0
62
3
10
-219.594284
20
184.233551
30
0.0
40
2.000000
50
270.000000
51
325.150085
0
ARC
8
0
62
3
10
-208.105179
20
184.233551
30
0.0
40
2.000000
50
214.849915
51
270.000000
0
LINE
8
0
62
1
10
-217.952988
20
182.233551
30
0.0
11
-209.746475
21
182.233551
31
0.0
0
LINE
8
0
62
1
10
-208.104843
20
182.233551
30
0.0
11
-203.849731
21
182.233551
31
0.0
0
ARC
8
0
62
4
10
-213.849731
20
180.233551
30
0.0
40
5.000001
50
34.911270
51
145.150040
0
LINE
8
0
62
1
10
-223.849731
20
178.233551
30
0.0
11
-219.594284
21
178.233551
31
0.0
0
ARC
8
0
62
3
10
-219.594284
20
176.233551
30
0.0
40
2.000000
50
34.849918
51
90.000000
0
ARC
8
0
62
4
10
-213.849731
20
180.233551
30
0.0
40
5.000001
50
214.849960
51
336.421844
0
LINE
8
0
62
1
10
-217.952988
20
178.233551
30
0.0
11
-209.267151
21
178.233551
31
0.0
0
LINE
8
0
62
1
10
-209.267151
20
178.233551
30
0.0
11
-203.849731
21
178.233551
31
0.0
0
ARC
8
0
62
4
10
-213.849731
20
180.233551
30
0.0
40
5.000001
50
336.421844
51
19.195915
0
LINE
8
0
62
1
10
-223.849731
20
166.233551
30
0.0
11
-219.594284
21
166.233551
31
0.0
0
ARC
8
0
62
3
10
-219.594284
20
164.233551
30
0.0
40
2.000000
50
34.849918
51
90.000000
0
ARC
8
0
62
3
10
-208.105179
20
164.233551
30
0.0
40
2.000000
50
90.000000
51
145.150085
0
LINE
8
0
62
1
10
-217.952988
20
166.233551
30
0.0
11
-209.746475
21
166.233551
31
0.0
0
LINE
8
0
62
1
10
-208.104843
20
166.233551
30
0.0
11
-203.849731
21
166.233551
31
0.0
0
ARC
8
0
62
4
10
-213.849731
20
168.233551
30
0.0
40
5.000001
50
214.849960
51
325.088745
0
ENDSEC
0
EOF
