999
File generated by Conversation
0
SECTION
2
HEADER
0
SECTION
2
HEADER
9
$ACADVER
1
AC1021
9
$INSBASE
10
0.0
20
0.0
30
0.0
9
$INSUNITS
70
4
9
$EXTMIN
10
0.0
20
0.0
30
0.0
9
$EXTMAX
10
1000.0
20
1000.0
30
0.0
0
ENDSEC
0
SECTION
2
TABLES
0
TABLE
2
LTYPE
70
1
0
LTYPE
2
CONTINUOUS
70
64
3
Solid line
72
65
73
0
40
0.0
0
ENDTAB
0
TABLE
2
LAYER
70
1
0
LAYER
2
0
70
64
62
7
6
CONTINUOUS
0
ENDTAB
0
TABLE
2
STYLE
70
1
0
STYLE
2
STANDARD
70
0
40
0.0
41
1.0
50
0.0
71
0
42
0.2
3
txt
4

0
ENDTAB
0
ENDSEC
0
SECTION
2
ENTITIES
0
LINE
8
0
62
0
10
69.609146
20
49.973888
30
0.0
11
69.609146
21
61.716030
31
0.0
0
LINE
8
0
62
0
10
88.100540
20
61.716030
30
0.0
11
69.609146
21
61.716030
31
0.0
0
LINE
8
0
62
0
10
69.609146
20
49.973888
30
0.0
11
88.100540
21
49.973888
31
0.0
0
LINE
8
0
62
0
10
88.100540
20
61.716030
30
0.0
11
88.100540
21
49.973888
31
0.0
0
LINE
8
0
62
1
10
19.957153
20
68.805862
30
0.0
11
17.957153
21
68.805862
31
0.0
0
LINE
8
0
62
1
10
19.957153
20
65.805878
30
0.0
11
17.957153
21
65.805878
31
0.0
0
LINE
8
0
62
1
10
19.957153
20
84.805878
30
0.0
11
17.957153
21
84.805878
31
0.0
0
LINE
8
0
62
1
10
19.957153
20
81.805878
30
0.0
11
17.957153
21
81.805878
31
0.0
0
LINE
8
0
62
1
10
7.957153
20
77.305878
30
0.0
11
19.957153
21
77.305878
31
0.0
0
LINE
8
0
62
1
10
7.957153
20
73.305878
30
0.0
11
19.957153
21
73.305878
31
0.0
0
ARC
8
0
62
1
10
0.000000
20
0.000000
30
0.0
40
34.000000
50
93.981941
51
96.018066
0
ARC
8
0
62
1
10
1.843079
20
33.994888
30
0.0
40
3.828779
50
160.389908
51
175.407715
0
LINE
8
0
62
1
10
-1.763611
20
35.279922
30
0.0
11
-1.277100
21
36.796799
31
0.0
0
ARC
8
0
62
1
10
0.000000
20
0.000000
30
0.0
40
38.313999
50
89.111038
51
90.888969
0
ARC
8
0
62
1
10
8.341034
20
33.366272
30
0.0
40
10.211633
50
151.048584
51
160.370026
0
ARC
8
0
62
1
10
-2.390045
20
34.334915
30
0.0
40
0.418000
50
273.981873
51
355.407227
0
ARC
8
0
62
1
10
0.000000
20
0.000000
30
0.0
40
34.000000
50
83.981941
51
86.018066
0
ARC
8
0
62
1
10
-1.843079
20
33.994888
30
0.0
40
3.828779
50
4.592285
51
19.610107
0
LINE
8
0
62
1
10
1.763611
20
35.279922
30
0.0
11
1.277100
21
36.796829
31
0.0
0
ARC
8
0
62
1
10
-8.341064
20
33.366272
30
0.0
40
10.211633
50
19.630096
51
28.951420
0
ARC
8
0
62
1
10
2.390045
20
34.334915
30
0.0
40
0.418000
50
184.592804
51
266.018127
0
ARC
8
0
62
1
10
7.718231
20
33.158386
30
0.0
40
3.828779
50
150.389908
51
165.407715
0
LINE
8
0
62
1
10
4.389465
20
35.050186
30
0.0
11
5.132019
21
36.459564
31
0.0
0
ARC
8
0
62
1
10
0.000000
20
0.000000
30
0.0
40
38.313999
50
79.111038
51
80.888969
0
ARC
8
0
62
1
10
14.008301
20
31.410950
30
0.0
40
10.211633
50
141.048584
51
150.369919
0
ARC
8
0
62
1
10
3.608429
20
34.228333
30
0.0
40
0.418000
50
263.981903
51
345.407471
0
ARC
8
0
62
1
10
0.000000
20
0.000000
30
0.0
40
34.000000
50
73.981941
51
76.018066
0
ARC
8
0
62
1
10
4.088074
20
33.798492
30
0.0
40
3.828779
50
354.592285
51
9.610107
0
LINE
8
0
62
1
10
7.863098
20
34.437668
30
0.0
11
7.647369
21
36.016083
31
0.0
0
ARC
8
0
62
1
10
-2.420349
20
34.307755
30
0.0
40
10.211633
50
9.630291
51
18.951414
0
ARC
8
0
62
1
10
8.315918
20
33.398270
30
0.0
40
0.418000
50
174.592285
51
256.018066
0
ARC
8
0
62
1
10
13.358856
20
31.314392
30
0.0
40
3.828779
50
140.389908
51
155.407684
0
LINE
8
0
62
1
10
10.409180
20
33.755463
30
0.0
11
11.385162
21
35.014496
31
0.0
0
ARC
8
0
62
1
10
0.000000
20
0.000000
30
0.0
40
38.313999
50
69.111038
51
70.888962
0
ARC
8
0
62
1
10
19.249939
20
28.501236
30
0.0
40
10.211633
50
131.048569
51
140.369919
0
ARC
8
0
62
1
10
9.497314
20
33.081726
30
0.0
40
0.418000
50
253.981628
51
335.407867
0
ARC
8
0
62
1
10
0.000000
20
0.000000
30
0.0
40
34.000000
50
63.981934
51
66.018066
0
ARC
8
0
62
1
10
9.894989
20
32.575134
30
0.0
40
3.828779
50
344.592316
51
359.610107
0
LINE
8
0
62
1
10
13.723694
20
32.549072
30
0.0
11
13.785309
21
34.140915
31
0.0
0
ARC
8
0
62
1
10
3.573883
20
34.206848
30
0.0
40
10.211633
50
359.630096
51
8.951427
0
ARC
8
0
62
1
10
13.989166
20
31.446823
30
0.0
40
0.418000
50
164.592300
51
246.017914
0
ARC
8
0
62
1
10
18.593597
20
28.518890
30
0.0
40
3.828779
50
130.389908
51
145.407715
0
LINE
8
0
62
1
10
16.112610
20
31.435089
30
0.0
11
17.292450
21
32.505600
31
0.0
0
ARC
8
0
62
1
10
0.000000
20
0.000000
30
0.0
40
38.313999
50
59.111038
51
60.888969
0
ARC
8
0
62
1
10
23.906677
20
24.725525
30
0.0
40
10.211633
50
121.048576
51
130.369507
0
ARC
8
0
62
1
10
15.097626
20
30.929947
30
0.0
40
0.418000
50
243.981934
51
325.407715
0
ARC
8
0
62
1
10
0.000000
20
0.000000
30
0.0
40
34.000000
50
53.981937
51
56.018066
0
ARC
8
0
62
1
10
15.401276
20
30.362000
30
0.0
40
3.828779
50
334.592285
51
349.611755
0
LINE
8
0
62
1
10
19.167297
20
29.671616
30
0.0
11
19.504395
21
31.228485
31
0.0
0
ARC
8
0
62
1
10
9.459564
20
33.066589
30
0.0
40
10.211633
50
349.630310
51
358.951416
0
ARC
8
0
62
1
10
19.237305
20
28.539902
30
0.0
40
0.418000
50
154.592224
51
236.017548
0
ARC
8
0
62
1
10
23.263367
20
24.856888
30
0.0
40
3.828779
50
120.387962
51
135.407730
0
LINE
8
0
62
1
10
21.326599
20
28.159683
30
0.0
11
22.674225
21
29.008911
31
0.0
0
ARC
8
0
62
1
10
0.000000
20
0.000000
30
0.0
40
38.313999
50
49.111038
51
50.888969
0
ARC
8
0
62
1
10
27.837036
20
20.198517
30
0.0
40
10.211633
50
111.048592
51
120.369919
0
ARC
8
0
62
1
10
20.239166
20
27.838394
30
0.0
40
0.418000
50
233.982239
51
315.407532
0
ARC
8
0
62
1
10
0.000000
20
0.000000
30
0.0
40
34.000000
50
43.981941
51
46.018066
0
ARC
8
0
62
1
10
20.439606
20
27.226318
30
0.0
40
3.828779
50
324.592346
51
339.611969
0
LINE
8
0
62
1
10
24.028534
20
25.892456
30
0.0
11
24.630859
21
27.367126
31
0.0
0
ARC
8
0
62
1
10
15.057800
20
30.921585
30
0.0
40
10.211633
50
339.630066
51
348.951416
0
ARC
8
0
62
1
10
23.900940
20
24.765778
30
0.0
40
0.418000
50
144.592270
51
226.017609
0
ARC
8
0
62
1
10
27.226318
20
20.439606
30
0.0
40
3.828779
50
110.389908
51
125.407715
0
LINE
8
0
62
1
10
25.892334
20
24.028503
30
0.0
11
27.367065
21
24.630829
31
0.0
0
ARC
8
0
62
1
10
0.000000
20
0.000000
30
0.0
40
38.313999
50
39.111038
51
40.888966
0
ARC
8
0
62
1
10
30.921570
20
15.057800
30
0.0
40
10.211633
50
101.048592
51
110.370132
0
ARC
8
0
62
1
10
24.765778
20
23.900955
30
0.0
40
0.418000
50
223.981964
51
305.407837
0
ARC
8
0
62
1
10
0.000000
20
0.000000
30
0.0
40
34.000000
50
33.981934
51
36.018066
0
ARC
8
0
62
1
10
24.856873
20
23.263397
30
0.0
40
3.828779
50
314.592285
51
329.610107
0
LINE
8
0
62
1
10
28.159576
20
21.326477
30
0.0
11
29.008911
21
22.674255
31
0.0
0
ARC
8
0
62
1
10
20.198517
20
27.837051
30
0.0
40
10.211633
50
329.630249
51
338.951416
0
ARC
8
0
62
1
10
27.838348
20
20.239166
30
0.0
40
0.418000
50
134.592285
51
216.018066
0
ARC
8
0
62
1
10
30.362000
20
15.401276
30
0.0
40
3.828779
50
100.389908
51
115.407715
0
LINE
8
0
62
1
10
29.671478
20
19.167297
30
0.0
11
31.228424
21
19.504395
31
0.0
0
ARC
8
0
62
1
10
0.000000
20
0.000000
30
0.0
40
38.313999
50
29.111042
51
30.888969
0
ARC
8
0
62
1
10
33.066559
20
9.459564
30
0.0
40
10.211633
50
91.048599
51
100.369919
0
ARC
8
0
62
1
10
28.539886
20
19.237305
30
0.0
40
0.418000
50
213.981934
51
295.407715
0
ARC
8
0
62
1
10
0.000000
20
0.000000
30
0.0
40
34.000000
50
23.981937
51
26.018066
0
ARC
8
0
62
1
10
28.518890
20
18.593628
30
0.0
40
3.828779
50
304.592285
51
319.610107
0
LINE
8
0
62
1
10
31.435089
20
16.112640
30
0.0
11
32.505524
21
17.292419
31
0.0
0
ARC
8
0
62
1
10
24.725494
20
23.906708
30
0.0
40
10.211633
50
319.629974
51
328.951447
0
ARC
8
0
62
1
10
30.929932
20
15.097626
30
0.0
40
0.418000
50
124.592285
51
206.018066
0
ARC
8
0
62
1
10
32.575134
20
9.895020
30
0.0
40
3.828779
50
90.389908
51
105.407669
0
LINE
8
0
62
1
10
32.549072
20
13.723694
30
0.0
11
34.140930
21
13.785309
31
0.0
0
ARC
8
0
62
1
10
0.000000
20
0.000000
30
0.0
40
38.313999
50
19.111040
51
20.888968
0
ARC
8
0
62
1
10
34.206848
20
3.573914
30
0.0
40
10.211633
50
81.048576
51
90.369873
0
ARC
8
0
62
1
10
31.446808
20
13.989166
30
0.0
40
0.418000
50
203.982010
51
285.407959
0
ARC
8
0
62
1
10
0.000000
20
0.000031
30
0.0
40
34.000000
50
13.981874
51
16.018000
0
ARC
8
0
62
1
10
31.314392
20
13.358887
30
0.0
40
3.828779
50
294.592346
51
309.610107
0
LINE
8
0
62
1
10
33.755463
20
10.409210
30
0.0
11
35.014435
21
11.385162
31
0.0
0
ARC
8
0
62
1
10
28.501221
20
19.249969
30
0.0
40
10.211633
50
309.629822
51
318.951416
0
ARC
8
0
62
1
10
33.081726
20
9.497345
30
0.0
40
0.418000
50
114.592155
51
196.018082
0
ARC
8
0
62
1
10
33.798492
20
4.088074
30
0.0
40
3.828779
50
80.389893
51
95.407722
0
LINE
8
0
62
1
10
34.437653
20
7.863129
30
0.0
11
36.016022
21
7.647400
31
0.0
0
ARC
8
0
62
1
10
0.000000
20
0.000000
30
0.0
40
38.313999
50
9.111035
51
10.888968
0
ARC
8
0
62
1
10
34.307739
20
-2.420349
30
0.0
40
10.211633
50
71.048592
51
80.369881
0
ARC
8
0
62
1
10
33.398254
20
8.315948
30
0.0
40
0.418000
50
193.981964
51
275.407837
0
ARC
8
0
62
1
10
0.000000
20
0.000000
30
0.0
40
34.000000
50
3.981939
51
6.018066
0
ARC
8
0
62
1
10
33.158386
20
7.718262
30
0.0
40
3.828779
50
284.592285
51
299.610107
0
LINE
8
0
62
1
10
35.050171
20
4.389496
30
0.0
11
36.459595
21
5.132050
31
0.0
0
ARC
8
0
62
1
10
31.410919
20
14.008362
30
0.0
40
10.211633
50
299.630341
51
308.951416
0
ARC
8
0
62
1
10
34.228302
20
3.608459
30
0.0
40
0.418000
50
104.592278
51
186.018066
0
ARC
8
0
62
1
10
33.994873
20
-1.843079
30
0.0
40
3.828779
50
70.389893
51
85.407715
0
LINE
8
0
62
1
10
35.279877
20
1.763611
30
0.0
11
36.796814
21
1.277100
31
0.0
0
ARC
8
0
62
1
10
0.000000
20
0.000031
30
0.0
40
38.313999
50
359.111023
51
0.888965
0
ARC
8
0
62
1
10
33.366272
20
-8.341034
30
0.0
40
10.211633
50
61.048580
51
70.369904
0
ARC
8
0
62
1
10
34.334900
20
2.390076
30
0.0
40
0.418000
50
183.981857
51
265.407227
0
ARC
8
0
62
1
10
0.000000
20
0.000000
30
0.0
40
34.000000
50
353.981934
51
356.018066
0
ARC
8
0
62
1
10
33.994873
20
1.843109
30
0.0
40
3.828779
50
274.592285
51
289.610107
0
LINE
8
0
62
1
10
35.279877
20
-1.763611
30
0.0
11
36.796783
21
-1.277069
31
0.0
0
ARC
8
0
62
1
10
33.366272
20
8.341064
30
0.0
40
10.211633
50
289.629974
51
298.951416
0
ARC
8
0
62
1
10
34.334900
20
-2.390045
30
0.0
40
0.418000
50
94.592796
51
176.018143
0
ARC
8
0
62
1
10
33.158386
20
-7.718231
30
0.0
40
3.828779
50
60.389893
51
75.407715
0
LINE
8
0
62
1
10
35.050171
20
-4.389465
30
0.0
11
36.459564
21
-5.132019
31
0.0
0
ARC
8
0
62
1
10
0.000000
20
0.000000
30
0.0
40
38.313999
50
349.111023
51
350.888977
0
ARC
8
0
62
1
10
31.410919
20
-14.008331
30
0.0
40
10.211633
50
51.048580
51
60.369904
0
ARC
8
0
62
1
10
34.228333
20
-3.608429
30
0.0
40
0.418000
50
173.981903
51
255.407471
0
ARC
8
0
62
1
10
0.000000
20
0.000000
30
0.0
40
34.000000
50
343.981934
51
346.018066
0
ARC
8
0
62
1
10
33.798492
20
-4.088043
30
0.0
40
3.828779
50
264.592285
51
279.610107
0
LINE
8
0
62
1
10
34.437653
20
-7.863098
30
0.0
11
36.016052
21
-7.647369
31
0.0
0
ARC
8
0
62
1
10
34.307739
20
2.420380
30
0.0
40
10.211633
50
279.630280
51
288.951416
0
ARC
8
0
62
1
10
33.398254
20
-8.315918
30
0.0
40
0.418000
50
84.592285
51
166.018066
0
ARC
8
0
62
1
10
31.314392
20
-13.358887
30
0.0
40
3.828779
50
50.389893
51
65.407677
0
LINE
8
0
62
1
10
33.755463
20
-10.409180
30
0.0
11
35.014435
21
-11.385132
31
0.0
0
ARC
8
0
62
1
10
0.000000
20
0.000000
30
0.0
40
38.313999
50
339.111023
51
340.888977
0
ARC
8
0
62
1
10
28.501221
20
-19.249969
30
0.0
40
10.211633
50
41.048569
51
50.370178
0
ARC
8
0
62
1
10
33.081726
20
-9.497314
30
0.0
40
0.418000
50
163.981628
51
245.407867
0
ARC
8
0
62
1
10
0.000000
20
0.000000
30
0.0
40
34.000000
50
333.981934
51
336.018066
0
ARC
8
0
62
1
10
32.575134
20
-9.894989
30
0.0
40
3.828779
50
254.592331
51
269.610107
0
LINE
8
0
62
1
10
32.549072
20
-13.723694
30
0.0
11
34.140961
21
-13.785309
31
0.0
0
ARC
8
0
62
1
10
34.206848
20
-3.573883
30
0.0
40
10.211633
50
269.630493
51
278.951416
0
ARC
8
0
62
1
10
31.446808
20
-13.989136
30
0.0
40
0.418000
50
74.592308
51
156.017914
0
ARC
8
0
62
1
10
28.518890
20
-18.593597
30
0.0
40
3.828779
50
40.389893
51
55.407715
0
LINE
8
0
62
1
10
31.435089
20
-16.112610
30
0.0
11
32.505554
21
-17.292480
31
0.0
0
ARC
8
0
62
1
10
0.000000
20
0.000000
30
0.0
40
38.313999
50
329.111053
51
330.888977
0
ARC
8
0
62
1
10
24.725494
20
-23.906677
30
0.0
40
10.211633
50
31.048578
51
40.369499
0
ARC
8
0
62
1
10
30.929932
20
-15.097595
30
0.0
40
0.418000
50
153.981934
51
235.407715
0
ARC
8
0
62
1
10
0.000000
20
0.000000
30
0.0
40
34.000000
50
323.981934
51
326.018066
0
ARC
8
0
62
1
10
30.362000
20
-15.401276
30
0.0
40
3.828779
50
244.592300
51
259.611755
0
LINE
8
0
62
1
10
29.671570
20
-19.167297
30
0.0
11
31.228485
21
-19.504395
31
0.0
0
ARC
8
0
62
1
10
33.066559
20
-9.459564
30
0.0
40
10.211633
50
259.630310
51
268.951416
0
ARC
8
0
62
1
10
28.539856
20
-19.237305
30
0.0
40
0.418000
50
64.592216
51
146.017548
0
ARC
8
0
62
1
10
24.856873
20
-23.263397
30
0.0
40
3.828779
50
30.387960
51
45.407734
0
LINE
8
0
62
1
10
28.159668
20
-21.326569
30
0.0
11
29.008881
21
-22.674194
31
0.0
0
ARC
8
0
62
1
10
0.000000
20
0.000000
30
0.0
40
38.313999
50
319.111023
51
320.888977
0
ARC
8
0
62
1
10
20.198517
20
-27.837036
30
0.0
40
10.211633
50
21.048592
51
30.370111
0
ARC
8
0
62
1
10
27.838348
20
-20.239136
30
0.0
40
0.418000
50
143.982239
51
225.407532
0
ARC
8
0
62
1
10
0.000000
20
0.000000
30
0.0
40
34.000000
50
313.981934
51
316.018066
0
ARC
8
0
62
1
10
27.226318
20
-20.439606
30
0.0
40
3.828779
50
234.592346
51
249.611969
0
LINE
8
0
62
1
10
25.892456
20
-24.028534
30
0.0
11
27.367096
21
-24.630829
31
0.0
0
ARC
8
0
62
1
10
30.921570
20
-15.057770
30
0.0
40
10.211633
50
249.630081
51
258.951416
0
ARC
8
0
62
1
10
24.765778
20
-23.900940
30
0.0
40
0.418000
50
54.592274
51
136.017609
0
ARC
8
0
62
1
10
20.439606
20
-27.226288
30
0.0
40
3.828779
50
20.389893
51
35.407715
0
LINE
8
0
62
1
10
24.028473
20
-25.892334
30
0.0
11
24.630829
21
-27.367065
31
0.0
0
ARC
8
0
62
1
10
0.000000
20
0.000000
30
0.0
40
38.313999
50
309.111023
51
310.888977
0
ARC
8
0
62
1
10
15.057800
20
-30.921570
30
0.0
40
10.211633
50
11.048594
51
20.370136
0
ARC
8
0
62
1
10
23.900940
20
-24.765778
30
0.0
40
0.418000
50
133.981964
51
215.407822
0
ARC
8
0
62
1
10
0.000000
20
0.000000
30
0.0
40
34.000000
50
303.981934
51
306.018066
0
ARC
8
0
62
1
10
23.263397
20
-24.856873
30
0.0
40
3.828779
50
224.592285
51
239.610092
0
LINE
8
0
62
1
10
21.326477
20
-28.159607
30
0.0
11
22.674225
21
-29.008881
31
0.0
0
ARC
8
0
62
1
10
27.837036
20
-20.198517
30
0.0
40
10.211633
50
239.630081
51
248.951431
0
ARC
8
0
62
1
10
20.239166
20
-27.838348
30
0.0
40
0.418000
50
44.592285
51
126.018066
0
ARC
8
0
62
1
10
15.401276
20
-30.361969
30
0.0
40
3.828779
50
10.389893
51
25.407715
0
LINE
8
0
62
1
10
19.167267
20
-29.671478
30
0.0
11
19.504395
21
-31.228485
31
0.0
0
ARC
8
0
62
1
10
0.000000
20
0.000000
30
0.0
40
38.313999
50
299.111053
51
300.888977
0
ARC
8
0
62
1
10
9.459564
20
-33.066559
30
0.0
40
10.211633
50
1.048597
51
10.369701
0
ARC
8
0
62
1
10
19.237305
20
-28.539886
30
0.0
40
0.418000
50
123.981934
51
205.407715
0
ARC
8
0
62
1
10
0.000000
20
0.000000
30
0.0
40
34.000000
50
293.981934
51
296.018066
0
ARC
8
0
62
1
10
18.593628
20
-28.518890
30
0.0
40
3.828779
50
214.592285
51
229.610092
0
LINE
8
0
62
1
10
16.112610
20
-31.435089
30
0.0
11
17.292419
21
-32.505493
31
0.0
0
ARC
8
0
62
1
10
23.906677
20
-24.725494
30
0.0
40
10.211633
50
229.630081
51
238.951431
0
ARC
8
0
62
1
10
15.097626
20
-30.929932
30
0.0
40
0.418000
50
34.592285
51
116.018066
0
ARC
8
0
62
1
10
9.894989
20
-32.575134
30
0.0
40
3.828779
50
0.389893
51
15.407667
0
LINE
8
0
62
1
10
13.723694
20
-32.549072
30
0.0
11
13.785309
21
-34.140930
31
0.0
0
ARC
8
0
62
1
10
0.000000
20
0.000000
30
0.0
40
38.313999
50
289.111053
51
290.888977
0
ARC
8
0
62
1
10
3.573883
20
-34.206818
30
0.0
40
10.211633
50
351.048584
51
0.369904
0
ARC
8
0
62
1
10
13.989166
20
-31.446808
30
0.0
40
0.418000
50
113.982002
51
195.407959
0
ARC
8
0
62
1
10
0.000031
20
0.000031
30
0.0
40
34.000000
50
283.981873
51
286.018005
0
ARC
8
0
62
1
10
13.358887
20
-31.314362
30
0.0
40
3.828779
50
204.592331
51
219.610092
0
LINE
8
0
62
1
10
10.409180
20
-33.755463
30
0.0
11
11.385193
21
-35.014496
31
0.0
0
ARC
8
0
62
1
10
19.249939
20
-28.501221
30
0.0
40
10.211633
50
219.630081
51
228.951416
0
ARC
8
0
62
1
10
9.497314
20
-33.081696
30
0.0
40
0.418000
50
24.592152
51
106.018074
0
ARC
8
0
62
1
10
4.088074
20
-33.798462
30
0.0
40
3.828779
50
350.389893
51
5.407715
0
LINE
8
0
62
1
10
7.863098
20
-34.437683
30
0.0
11
7.647400
21
-36.016022
31
0.0
0
ARC
8
0
62
1
10
0.000000
20
0.000000
30
0.0
40
38.313999
50
279.111023
51
280.888977
0
ARC
8
0
62
1
10
-2.420349
20
-34.307770
30
0.0
40
10.211633
50
341.048584
51
350.369873
0
ARC
8
0
62
1
10
8.315918
20
-33.398254
30
0.0
40
0.418000
50
103.981956
51
185.407822
0
ARC
8
0
62
1
10
0.000000
20
0.000000
30
0.0
40
34.000000
50
273.981934
51
276.018066
0
ARC
8
0
62
1
10
7.718231
20
-33.158356
30
0.0
40
3.828779
50
194.592285
51
209.610092
0
LINE
8
0
62
1
10
4.389465
20
-35.050171
30
0.0
11
5.132019
21
-36.459564
31
0.0
0
ARC
8
0
62
1
10
14.008301
20
-31.410950
30
0.0
40
10.211633
50
209.630081
51
218.951416
0
ARC
8
0
62
1
10
3.608429
20
-34.228302
30
0.0
40
0.418000
50
14.592285
51
96.018066
0
ARC
8
0
62
1
10
-1.843079
20
-33.994873
30
0.0
40
3.828779
50
340.389893
51
355.407715
0
LINE
8
0
62
1
10
1.763611
20
-35.279907
30
0.0
11
1.277100
21
-36.796783
31
0.0
0
ARC
8
0
62
1
10
0.000000
20
0.000000
30
0.0
40
38.313999
50
269.111023
51
270.888977
0
ARC
8
0
62
1
10
-8.341064
20
-33.366241
30
0.0
40
10.211633
50
331.048584
51
340.370026
0
ARC
8
0
62
1
10
2.390045
20
-34.334900
30
0.0
40
0.418000
50
93.981865
51
175.407211
0
ARC
8
0
62
1
10
0.000000
20
0.000000
30
0.0
40
34.000000
50
263.981934
51
265.000000
0
ARC
8
0
62
1
10
1.843079
20
-33.994873
30
0.0
40
3.828779
50
184.592285
51
199.610092
0
LINE
8
0
62
1
10
-1.763611
20
-35.279907
30
0.0
11
-1.277100
21
-36.796783
31
0.0
0
ARC
8
0
62
1
10
8.341034
20
-33.366241
30
0.0
40
10.211633
50
199.629974
51
208.951416
0
ARC
8
0
62
1
10
-2.390045
20
-34.334900
30
0.0
40
0.418000
50
4.592803
51
86.018143
0
ARC
8
0
62
1
10
-7.718231
20
-33.158356
30
0.0
40
3.828779
50
330.389893
51
345.407715
0
LINE
8
0
62
1
10
-4.389465
20
-35.050171
30
0.0
11
-5.132050
21
-36.459564
31
0.0
0
ARC
8
0
62
1
10
0.000000
20
0.000000
30
0.0
40
38.313999
50
259.111023
51
260.888977
0
ARC
8
0
62
1
10
-14.008331
20
-31.410950
30
0.0
40
10.211633
50
321.048584
51
330.369812
0
ARC
8
0
62
1
10
-3.608459
20
-34.228302
30
0.0
40
0.418000
50
83.981903
51
165.407471
0
ARC
8
0
62
1
10
0.000000
20
0.000000
30
0.0
40
34.000000
50
253.981949
51
256.018066
0
ARC
8
0
62
1
10
-4.088074
20
-33.798462
30
0.0
40
3.828779
50
174.592285
51
189.610092
0
LINE
8
0
62
1
10
-7.863129
20
-34.437683
30
0.0
11
-7.647400
21
-36.016022
31
0.0
0
ARC
8
0
62
1
10
2.420319
20
-34.307770
30
0.0
40
10.211633
50
189.630081
51
198.951416
0
ARC
8
0
62
1
10
-8.315948
20
-33.398254
30
0.0
40
0.418000
50
354.592285
51
76.018066
0
ARC
8
0
62
1
10
-13.358887
20
-31.314362
30
0.0
40
3.828779
50
320.389893
51
335.407684
0
LINE
8
0
62
1
10
-10.409180
20
-33.755463
30
0.0
11
-11.385162
21
-35.014435
31
0.0
0
ARC
8
0
62
1
10
0.000000
20
0.000000
30
0.0
40
38.313999
50
249.111038
51
250.888962
0
ARC
8
0
62
1
10
-19.249969
20
-28.501221
30
0.0
40
10.211633
50
311.048584
51
320.370178
0
ARC
8
0
62
1
10
-9.497314
20
-33.081696
30
0.0
40
0.418000
50
73.981628
51
155.407867
0
ARC
8
0
62
1
10
0.000000
20
0.000000
30
0.0
40
34.000000
50
243.981934
51
246.018066
0
ARC
8
0
62
1
10
-9.894989
20
-32.575134
30
0.0
40
3.828779
50
164.592331
51
179.610092
0
LINE
8
0
62
1
10
-13.723694
20
-32.549072
30
0.0
11
-13.785339
21
-34.140961
31
0.0
0
ARC
8
0
62
1
10
-3.573914
20
-34.206818
30
0.0
40
10.211633
50
179.630478
51
188.951431
0
ARC
8
0
62
1
10
-13.989166
20
-31.446838
30
0.0
40
0.418000
50
344.592316
51
66.017906
0
ARC
8
0
62
1
10
-18.593628
20
-28.518890
30
0.0
40
3.828779
50
310.389893
51
325.407715
0
LINE
8
0
62
1
10
-16.112610
20
-31.435089
30
0.0
11
-17.292419
21
-32.505493
31
0.0
0
ARC
8
0
62
1
10
0.000000
20
0.000000
30
0.0
40
38.313999
50
239.111038
51
240.888962
0
ARC
8
0
62
1
10
-23.906708
20
-24.725494
30
0.0
40
10.211633
50
301.048584
51
310.369934
0
ARC
8
0
62
1
10
-15.097626
20
-30.929932
30
0.0
40
0.418000
50
63.981934
51
145.407715
0
ARC
8
0
62
1
10
0.000000
20
0.000000
30
0.0
40
34.000000
50
233.981934
51
236.018066
0
ARC
8
0
62
1
10
-15.401306
20
-30.361969
30
0.0
40
3.828779
50
154.592300
51
169.611740
0
LINE
8
0
62
1
10
-19.167297
20
-29.671600
30
0.0
11
-19.504395
21
-31.228424
31
0.0
0
ARC
8
0
62
1
10
-9.459564
20
-33.066559
30
0.0
40
10.211633
50
169.630081
51
178.951416
0
ARC
8
0
62
1
10
-19.237305
20
-28.539886
30
0.0
40
0.418000
50
334.592224
51
56.017551
0
ARC
8
0
62
1
10
-23.263397
20
-24.856873
30
0.0
40
3.828779
50
300.387970
51
315.407745
0
LINE
8
0
62
1
10
-21.326599
20
-28.159668
30
0.0
11
-22.674225
21
-29.008881
31
0.0
0
ARC
8
0
62
1
10
0.000000
20
0.000000
30
0.0
40
38.313999
50
229.111038
51
230.888962
0
ARC
8
0
62
1
10
-27.837036
20
-20.198517
30
0.0
40
10.211633
50
291.048584
51
300.369934
0
ARC
8
0
62
1
10
-20.239197
20
-27.838379
30
0.0
40
0.418000
50
53.982235
51
135.407532
0
ARC
8
0
62
1
10
0.000000
20
0.000000
30
0.0
40
34.000000
50
223.981949
51
226.018066
0
ARC
8
0
62
1
10
-20.439606
20
-27.226288
30
0.0
40
3.828779
50
144.592346
51
159.611969
0
LINE
8
0
62
1
10
-24.028534
20
-25.892456
30
0.0
11
-24.630859
21
-27.367096
31
0.0
0
ARC
8
0
62
1
10
-15.057800
20
-30.921570
30
0.0
40
10.211633
50
159.630081
51
168.951416
0
ARC
8
0
62
1
10
-23.900940
20
-24.765778
30
0.0
40
0.418000
50
324.592285
51
46.017612
0
ARC
8
0
62
1
10
-27.226318
20
-20.439606
30
0.0
40
3.828779
50
290.389893
51
305.407715
0
LINE
8
0
62
1
10
-25.892365
20
-24.028473
30
0.0
11
-27.367126
21
-24.630829
31
0.0
0
ARC
8
0
62
1
10
0.000000
20
0.000000
30
0.0
40
38.313999
50
219.111038
51
220.888962
0
ARC
8
0
62
1
10
-30.921570
20
-15.057770
30
0.0
40
10.211633
50
281.048584
51
290.369934
0
ARC
8
0
62
1
10
-24.765778
20
-23.900940
30
0.0
40
0.418000
50
43.981956
51
125.407822
0
ARC
8
0
62
1
10
0.000000
20
0.000000
30
0.0
40
34.000000
50
213.981934
51
216.018066
0
ARC
8
0
62
1
10
-24.856903
20
-23.263397
30
0.0
40
3.828779
50
134.592285
51
149.610092
0
LINE
8
0
62
1
10
-28.159607
20
-21.326477
30
0.0
11
-29.008911
21
-22.674225
31
0.0
0
ARC
8
0
62
1
10
-20.198517
20
-27.837036
30
0.0
40
10.211633
50
149.630081
51
158.951416
0
ARC
8
0
62
1
10
-27.838379
20
-20.239166
30
0.0
40
0.418000
50
314.592285
51
36.018066
0
ARC
8
0
62
1
10
-30.362000
20
-15.401276
30
0.0
40
3.828779
50
280.389893
51
295.407715
0
LINE
8
0
62
1
10
-29.671478
20
-19.167267
30
0.0
11
-31.228485
21
-19.504395
31
0.0
0
ARC
8
0
62
1
10
0.000000
20
0.000000
30
0.0
40
38.313999
50
209.111038
51
210.888962
0
ARC
8
0
62
1
10
-33.066589
20
-9.459564
30
0.0
40
10.211633
50
271.048584
51
280.369690
0
ARC
8
0
62
1
10
-28.539886
20
-19.237305
30
0.0
40
0.418000
50
33.981934
51
115.407715
0
ARC
8
0
62
1
10
0.000000
20
0.000000
30
0.0
40
34.000000
50
203.981934
51
206.018066
0
ARC
8
0
62
1
10
-28.518921
20
-18.593597
30
0.0
40
3.828779
50
124.592285
51
139.610092
0
LINE
8
0
62
1
10
-31.435120
20
-16.112610
30
0.0
11
-32.505524
21
-17.292419
31
0.0
0
ARC
8
0
62
1
10
-24.725525
20
-23.906677
30
0.0
40
10.211633
50
139.630081
51
148.951431
0
ARC
8
0
62
1
10
-30.929932
20
-15.097595
30
0.0
40
0.418000
50
304.592285
51
26.018066
0
ARC
8
0
62
1
10
-32.575134
20
-9.894989
30
0.0
40
3.828779
50
270.389893
51
285.407654
0
LINE
8
0
62
1
10
-32.549072
20
-13.723694
30
0.0
11
-34.140930
21
-13.785309
31
0.0
0
ARC
8
0
62
1
10
0.000000
20
0.000000
30
0.0
40
38.313999
50
199.111038
51
200.888962
0
ARC
8
0
62
1
10
-34.206848
20
-3.573883
30
0.0
40
10.211633
50
261.048584
51
270.369873
0
ARC
8
0
62
1
10
-31.446838
20
-13.989136
30
0.0
40
0.418000
50
23.982004
51
105.407959
0
ARC
8
0
62
1
10
0.000000
20
-0.000031
30
0.0
40
34.000000
50
193.981873
51
196.018005
0
ARC
8
0
62
1
10
-31.314392
20
-13.358887
30
0.0
40
3.828779
50
114.592331
51
129.610092
0
LINE
8
0
62
1
10
-33.755463
20
-10.409180
30
0.0
11
-35.014496
21
-11.385193
31
0.0
0
ARC
8
0
62
1
10
-28.501221
20
-19.249969
30
0.0
40
10.211633
50
129.630081
51
138.951416
0
ARC
8
0
62
1
10
-33.081726
20
-9.497314
30
0.0
40
0.418000
50
294.592163
51
16.018074
0
ARC
8
0
62
1
10
-33.798492
20
-4.088043
30
0.0
40
3.828779
50
260.389893
51
275.407715
0
LINE
8
0
62
1
10
-34.437683
20
-7.863098
30
0.0
11
-36.016052
21
-7.647369
31
0.0
0
ARC
8
0
62
1
10
0.000000
20
0.000000
30
0.0
40
38.313999
50
189.111038
51
190.888962
0
ARC
8
0
62
1
10
-34.307770
20
2.420349
30
0.0
40
10.211633
50
251.048584
51
260.369873
0
ARC
8
0
62
1
10
-33.398254
20
-8.315948
30
0.0
40
0.418000
50
13.981956
51
95.407837
0
ARC
8
0
62
1
10
0.000000
20
0.000000
30
0.0
40
34.000000
50
183.981934
51
186.018066
0
ARC
8
0
62
1
10
-33.158417
20
-7.718231
30
0.0
40
3.828779
50
104.592278
51
119.610092
0
LINE
8
0
62
1
10
-35.050171
20
-4.389465
30
0.0
11
-36.459564
21
-5.132019
31
0.0
0
ARC
8
0
62
1
10
-31.410950
20
-14.008331
30
0.0
40
10.211633
50
119.630081
51
128.951416
0
ARC
8
0
62
1
10
-34.228333
20
-3.608459
30
0.0
40
0.418000
50
284.592285
51
6.018066
0
ARC
8
0
62
1
10
-33.994904
20
1.843109
30
0.0
40
3.828779
50
250.389908
51
265.407715
0
LINE
8
0
62
1
10
-35.279907
20
-1.763611
30
0.0
11
-36.796814
21
-1.277069
31
0.0
0
ARC
8
0
62
1
10
0.000000
20
0.000000
30
0.0
40
38.313999
50
179.111038
51
180.888962
0
ARC
8
0
62
1
10
-33.366272
20
8.341064
30
0.0
40
10.211633
50
241.048584
51
250.370026
0
ARC
8
0
62
1
10
-34.334900
20
-2.390045
30
0.0
40
0.418000
50
3.981865
51
85.407219
0
ARC
8
0
62
1
10
0.000000
20
0.000000
30
0.0
40
34.000000
50
173.981934
51
176.018066
0
ARC
8
0
62
1
10
-33.994904
20
-1.843079
30
0.0
40
3.828779
50
94.592278
51
109.610092
0
LINE
8
0
62
1
10
-35.279907
20
1.763611
30
0.0
11
-36.796814
21
1.277100
31
0.0
0
ARC
8
0
62
1
10
-33.366272
20
-8.341034
30
0.0
40
10.211633
50
109.629982
51
118.951424
0
ARC
8
0
62
1
10
-34.334900
20
2.390076
30
0.0
40
0.418000
50
274.592804
51
356.018127
0
ARC
8
0
62
1
10
-33.158417
20
7.718262
30
0.0
40
3.828779
50
240.389908
51
255.407715
0
LINE
8
0
62
1
10
-35.050171
20
4.389496
30
0.0
11
-36.459564
21
5.132019
31
0.0
0
ARC
8
0
62
1
10
0.000000
20
0.000000
30
0.0
40
38.313999
50
169.111038
51
170.888962
0
ARC
8
0
62
1
10
-31.410950
20
14.008362
30
0.0
40
10.211633
50
231.048584
51
240.369919
0
ARC
8
0
62
1
10
-34.228333
20
3.608459
30
0.0
40
0.418000
50
353.981903
51
75.407471
0
ARC
8
0
62
1
10
0.000000
20
0.000000
30
0.0
40
34.000000
50
163.981949
51
166.018066
0
ARC
8
0
62
1
10
-33.798492
20
4.088074
30
0.0
40
3.828779
50
84.592285
51
99.610092
0
LINE
8
0
62
1
10
-34.437683
20
7.863098
30
0.0
11
-36.016022
21
7.647400
31
0.0
0
ARC
8
0
62
1
10
-34.307770
20
-2.420349
30
0.0
40
10.211633
50
99.630081
51
108.951424
0
ARC
8
0
62
1
10
-33.398254
20
8.315948
30
0.0
40
0.418000
50
264.592285
51
346.018066
0
ARC
8
0
62
1
10
-31.314392
20
13.358887
30
0.0
40
3.828779
50
230.389908
51
245.407684
0
LINE
8
0
62
1
10
-33.755463
20
10.409210
30
0.0
11
-35.014496
21
11.385193
31
0.0
0
ARC
8
0
62
1
10
0.000000
20
0.000000
30
0.0
40
38.313999
50
159.111038
51
160.888962
0
ARC
8
0
62
1
10
-28.501221
20
19.249969
30
0.0
40
10.211633
50
221.048569
51
230.369919
0
ARC
8
0
62
1
10
-33.081726
20
9.497345
30
0.0
40
0.418000
50
343.981628
51
65.407860
0
ARC
8
0
62
1
10
0.000000
20
0.000000
30
0.0
40
34.000000
50
153.981934
51
156.018066
0
ARC
8
0
62
1
10
-32.575134
20
9.895020
30
0.0
40
3.828779
50
74.592331
51
89.610107
0
LINE
8
0
62
1
10
-32.549072
20
13.723694
30
0.0
11
-34.140930
21
13.785309
31
0.0
0
ARC
8
0
62
1
10
-34.206848
20
3.573914
30
0.0
40
10.211633
50
89.630096
51
98.951424
0
ARC
8
0
62
1
10
-31.446838
20
13.989166
30
0.0
40
0.418000
50
254.592300
51
336.017914
0
ARC
8
0
62
1
10
-28.518921
20
18.593628
30
0.0
40
3.828779
50
220.389908
51
235.407715
0
LINE
8
0
62
1
10
-31.435120
20
16.112640
30
0.0
11
-32.505585
21
17.292480
31
0.0
0
ARC
8
0
62
1
10
0.000000
20
0.000000
30
0.0
40
38.313999
50
149.111038
51
150.888962
0
ARC
8
0
62
1
10
-24.725525
20
23.906708
30
0.0
40
10.211633
50
211.048584
51
220.369507
0
ARC
8
0
62
1
10
-30.929932
20
15.097626
30
0.0
40
0.418000
50
333.981934
51
55.407715
0
ARC
8
0
62
1
10
0.000000
20
0.000000
30
0.0
40
34.000000
50
143.981934
51
146.018066
0
ARC
8
0
62
1
10
-30.362000
20
15.401276
30
0.0
40
3.828779
50
64.592293
51
79.611740
0
LINE
8
0
62
1
10
-29.671600
20
19.167297
30
0.0
11
-31.228485
21
19.504425
31
0.0
0
ARC
8
0
62
1
10
-33.066589
20
9.459564
30
0.0
40
10.211633
50
79.630295
51
88.951416
0
ARC
8
0
62
1
10
-28.539886
20
19.237305
30
0.0
40
0.418000
50
244.592224
51
326.017548
0
ARC
8
0
62
1
10
-24.856903
20
23.263397
30
0.0
40
3.828779
50
210.387955
51
225.407730
0
LINE
8
0
62
1
10
-28.159668
20
21.326599
30
0.0
11
-29.008911
21
22.674255
31
0.0
0
ARC
8
0
62
1
10
0.000000
20
0.000000
30
0.0
40
38.313999
50
139.111038
51
140.888962
0
ARC
8
0
62
1
10
-20.198517
20
27.837051
30
0.0
40
10.211633
50
201.048599
51
210.369919
0
ARC
8
0
62
1
10
-27.838379
20
20.239166
30
0.0
40
0.418000
50
323.982239
51
45.407532
0
ARC
8
0
62
1
10
0.000000
20
0.000000
30
0.0
40
34.000000
50
133.981949
51
136.018066
0
ARC
8
0
62
1
10
-27.226318
20
20.439606
30
0.0
40
3.828779
50
54.592339
51
69.611977
0
LINE
8
0
62
1
10
-25.892487
20
24.028549
30
0.0
11
-27.367157
21
24.630875
31
0.0
0
ARC
8
0
62
1
10
-30.921570
20
15.057800
30
0.0
40
10.211633
50
69.630386
51
78.951416
0
ARC
8
0
62
1
10
-24.765778
20
23.900955
30
0.0
40
0.418000
50
234.592270
51
316.017609
0
ARC
8
0
62
1
10
-20.439606
20
27.226318
30
0.0
40
3.828779
50
200.389908
51
215.407715
0
LINE
8
0
62
1
10
-24.028473
20
25.892365
30
0.0
11
-24.630859
21
27.367081
31
0.0
0
ARC
8
0
62
1
10
0.000000
20
0.000000
30
0.0
40
38.313999
50
129.111038
51
130.888962
0
ARC
8
0
62
1
10
-15.057800
20
30.921585
30
0.0
40
10.211633
50
191.048584
51
200.370132
0
ARC
8
0
62
1
10
-23.900940
20
24.765778
30
0.0
40
0.418000
50
313.981964
51
35.407825
0
ARC
8
0
62
1
10
0.000000
20
0.000000
30
0.0
40
34.000000
50
123.981934
51
126.018066
0
ARC
8
0
62
1
10
-23.263397
20
24.856888
30
0.0
40
3.828779
50
44.592285
51
59.610107
0
LINE
8
0
62
1
10
-21.326508
20
28.159622
30
0.0
11
-22.674225
21
29.008911
31
0.0
0
ARC
8
0
62
1
10
-27.837036
20
20.198517
30
0.0
40
10.211633
50
59.630096
51
68.951416
0
ARC
8
0
62
1
10
-20.239197
20
27.838364
30
0.0
40
0.418000
50
224.592285
51
306.018066
0
ARC
8
0
62
1
10
-15.401306
20
30.362000
30
0.0
40
3.828779
50
190.389908
51
205.407715
0
LINE
8
0
62
1
10
-19.167267
20
29.671494
30
0.0
11
-19.504425
21
31.228439
31
0.0
0
ARC
8
0
62
1
10
0.000000
20
0.000000
30
0.0
40
38.313999
50
119.111038
51
120.888969
0
ARC
8
0
62
1
10
-9.459564
20
33.066589
30
0.0
40
10.211633
50
181.048599
51
190.369919
0
ARC
8
0
62
1
10
-19.237305
20
28.539902
30
0.0
40
0.418000
50
303.981934
51
25.407715
0
ARC
8
0
62
1
10
0.000000
20
0.000000
30
0.0
40
34.000000
50
113.981941
51
116.018066
0
ARC
8
0
62
1
10
-18.593628
20
28.518890
30
0.0
40
3.828779
50
34.592285
51
49.610107
0
LINE
8
0
62
1
10
-16.112610
20
31.435089
30
0.0
11
-17.292419
21
32.505524
31
0.0
0
ARC
8
0
62
1
10
-23.906708
20
24.725494
30
0.0
40
10.211633
50
49.630096
51
58.951431
0
ARC
8
0
62
1
10
-15.097626
20
30.929947
30
0.0
40
0.418000
50
214.592285
51
296.018066
0
ARC
8
0
62
1
10
-9.894989
20
32.575134
30
0.0
40
3.828779
50
180.389908
51
195.407669
0
LINE
8
0
62
1
10
-13.723694
20
32.549072
30
0.0
11
-13.785339
21
34.140930
31
0.0
0
ARC
8
0
62
1
10
0.000000
20
0.000000
30
0.0
40
38.313999
50
109.111038
51
110.888969
0
ARC
8
0
62
1
10
-3.573914
20
34.206848
30
0.0
40
10.211633
50
171.048584
51
180.369873
0
ARC
8
0
62
1
10
-13.989166
20
31.446823
30
0.0
40
0.418000
50
293.981995
51
15.407963
0
ARC
8
0
62
1
10
-0.000031
20
0.000000
30
0.0
40
34.000000
50
103.981873
51
106.017998
0
ARC
8
0
62
1
10
-13.358887
20
31.314392
30
0.0
40
3.828779
50
24.592331
51
39.610107
0
LINE
8
0
62
1
10
-10.409180
20
33.755463
30
0.0
11
-11.385162
21
35.014450
31
0.0
0
ARC
8
0
62
1
10
-19.249969
20
28.501236
30
0.0
40
10.211633
50
39.629822
51
48.951416
0
ARC
8
0
62
1
10
-9.497314
20
33.081726
30
0.0
40
0.418000
50
204.592148
51
286.018066
0
ARC
8
0
62
1
10
-4.088074
20
33.798492
30
0.0
40
3.828779
50
170.389908
51
185.407715
0
LINE
8
0
62
1
10
-7.863129
20
34.437668
30
0.0
11
-7.647400
21
36.016037
31
0.0
0
ARC
8
0
62
1
10
0.000000
20
0.000000
30
0.0
40
38.313999
50
99.111038
51
100.888969
0
ARC
8
0
62
1
10
2.420319
20
34.307755
30
0.0
40
10.211633
50
161.048584
51
170.369919
0
ARC
8
0
62
1
10
-8.315948
20
33.398270
30
0.0
40
0.418000
50
283.981964
51
5.407826
0
ARC
8
0
62
1
10
-7.718231
20
33.158386
30
0.0
40
3.828779
50
14.592285
51
29.610107
0
LINE
8
0
62
1
10
-4.389465
20
35.050186
30
0.0
11
-5.132019
21
36.459564
31
0.0
0
ARC
8
0
62
1
10
-14.008331
20
31.410950
30
0.0
40
10.211633
50
29.630096
51
38.951416
0
ARC
8
0
62
1
10
-3.608459
20
34.228333
30
0.0
40
0.418000
50
194.592285
51
276.018066
0
ARC
8
0
62
1
10
0.000000
20
0.000000
30
0.0
40
41.500000
50
270.000000
51
90.000000
0
ARC
8
0
62
1
10
0.000000
20
0.000000
30
0.0
40
41.500000
50
90.000000
51
270.000000
0
ARC
8
0
62
1
10
0.000000
20
0.000000
30
0.0
40
34.000000
50
265.000000
51
266.018066
0
LINE
8
0
62
1
10
68.214134
20
31.500017
30
0.0
11
68.214134
21
36.000034
31
0.0
0
LINE
8
0
62
1
10
68.214134
20
36.000034
30
0.0
11
78.214104
21
36.000034
31
0.0
0
LINE
8
0
62
1
10
78.214104
20
41.500004
30
0.0
11
78.214104
21
36.000034
31
0.0
0
LINE
8
0
62
1
10
68.214134
20
31.500017
30
0.0
11
68.214134
21
7.500003
31
0.0
0
ARC
8
0
62
3
10
0.000000
20
0.000000
30
0.0
40
9.400000
50
295.769440
51
304.230560
0
ARC
8
0
62
3
10
5.579102
20
-8.200012
30
0.0
40
0.518000
50
36.646042
51
124.230560
0
LINE
8
0
62
3
10
5.994720
20
-7.890839
30
0.0
11
6.810699
21
-8.987732
31
0.0
0
ARC
8
0
62
3
10
7.712006
20
-8.315430
30
0.0
40
1.124414
50
216.719376
51
238.613708
0
LINE
8
0
62
3
10
7.126404
20
-9.275299
30
0.0
11
7.527557
21
-9.537933
31
0.0
0
ARC
8
0
62
3
10
9.170258
20
-6.847870
30
0.0
40
3.151974
50
238.589737
51
247.371429
0
ARC
8
0
62
3
10
15.448120
20
8.190399
30
0.0
40
19.448009
50
247.346268
51
248.863754
0
ARC
8
0
62
3
10
9.868073
20
-6.238403
30
0.0
40
3.977820
50
248.889771
51
256.427094
0
ARC
8
0
62
3
10
17.355530
20
24.664825
30
0.0
40
35.775143
50
256.385651
51
257.005066
0
ARC
8
0
62
3
10
9.359100
20
-9.985474
30
0.0
40
0.214159
50
257.005096
51
313.145447
0
ARC
8
0
62
3
10
0.000000
20
0.000000
30
0.0
40
13.900000
50
313.145447
51
316.854553
0
ARC
8
0
62
3
10
9.985443
20
-9.359100
30
0.0
40
0.214159
50
316.854553
51
12.994889
0
ARC
8
0
62
3
10
-24.664825
20
-17.355499
30
0.0
40
35.775143
50
12.994943
51
13.614352
0
ARC
8
0
62
3
10
6.238403
20
-9.868073
30
0.0
40
3.977820
50
13.572895
51
21.110222
0
ARC
8
0
62
3
10
-8.190369
20
-15.448120
30
0.0
40
19.448009
50
21.136251
51
22.653727
0
ARC
8
0
62
3
10
6.847870
20
-9.170258
30
0.0
40
3.151974
50
22.628578
51
31.418316
0
LINE
8
0
62
3
10
9.537689
20
-7.527191
30
0.0
11
9.275330
21
-7.126404
31
0.0
0
ARC
8
0
62
3
10
8.315430
20
-7.712006
30
0.0
40
1.124414
50
31.386290
51
53.280632
0
LINE
8
0
62
3
10
8.987701
20
-6.810699
30
0.0
11
7.890839
21
-5.994720
31
0.0
0
ARC
8
0
62
3
10
8.199982
20
-5.579132
30
0.0
40
0.518000
50
145.769440
51
233.353958
0
ARC
8
0
62
3
10
0.000000
20
0.000000
30
0.0
40
9.400000
50
325.769440
51
334.230560
0
ARC
8
0
62
3
10
8.931671
20
-4.311859
30
0.0
40
0.518000
50
66.646042
51
154.230560
0
LINE
8
0
62
3
10
9.136993
20
-3.836304
30
0.0
11
10.392120
21
-4.378235
31
0.0
0
ARC
8
0
62
3
10
10.836548
20
-3.345367
30
0.0
40
1.124414
50
246.719376
51
268.613708
0
LINE
8
0
62
3
10
10.809326
20
-4.469452
30
0.0
11
11.288025
21
-4.496307
31
0.0
0
ARC
8
0
62
3
10
11.365601
20
-1.345306
30
0.0
40
3.151974
50
268.589722
51
277.371429
0
ARC
8
0
62
3
10
9.283295
20
14.817169
30
0.0
40
19.448009
50
277.346283
51
278.863739
0
ARC
8
0
62
3
10
11.665222
20
-0.468567
30
0.0
40
3.977820
50
278.889771
51
286.427094
0
ARC
8
0
62
3
10
2.697906
20
30.038116
30
0.0
40
35.775143
50
286.385651
51
287.005066
0
ARC
8
0
62
3
10
13.097961
20
-3.968109
30
0.0
40
0.214159
50
287.005096
51
343.145447
0
ARC
8
0
62
3
10
0.000000
20
0.000000
30
0.0
40
13.900000
50
343.145447
51
346.854553
0
ARC
8
0
62
3
10
13.327209
20
-3.112488
30
0.0
40
0.214159
50
346.854553
51
42.994888
0
ARC
8
0
62
3
10
-12.682587
20
-27.362732
30
0.0
40
35.775143
50
42.994942
51
43.614353
0
ARC
8
0
62
3
10
10.336670
20
-5.426788
30
0.0
40
3.977820
50
43.572895
51
51.110222
0
ARC
8
0
62
3
10
0.630981
20
-17.473633
30
0.0
40
19.448009
50
51.136253
51
52.653725
0
ARC
8
0
62
3
10
10.515564
20
-4.517731
30
0.0
40
3.151974
50
52.628578
51
61.418316
0
LINE
8
0
62
3
10
12.023499
20
-1.749878
30
0.0
11
11.595886
21
-1.533997
31
0.0
0
ARC
8
0
62
3
10
11.057404
20
-2.521057
30
0.0
40
1.124414
50
61.386292
51
83.280632
0
LINE
8
0
62
3
10
11.188965
20
-1.404388
30
0.0
11
9.831024
21
-1.246185
31
0.0
0
ARC
8
0
62
3
10
9.890991
20
-0.731659
30
0.0
40
0.518000
50
175.769440
51
263.353973
0
ARC
8
0
62
3
10
0.000000
20
0.000000
30
0.0
40
9.400000
50
355.769440
51
4.230562
0
ARC
8
0
62
3
10
9.890991
20
0.731659
30
0.0
40
0.518000
50
96.646042
51
184.230560
0
LINE
8
0
62
3
10
9.831024
20
1.246185
30
0.0
11
11.188965
21
1.404388
31
0.0
0
ARC
8
0
62
3
10
11.057404
20
2.521088
30
0.0
40
1.124414
50
276.719360
51
298.613708
0
LINE
8
0
62
3
10
11.595886
20
1.534027
30
0.0
11
12.023895
21
1.750122
31
0.0
0
ARC
8
0
62
3
10
10.515564
20
4.517731
30
0.0
40
3.151974
50
298.589722
51
307.371429
0
ARC
8
0
62
3
10
0.630981
20
17.473663
30
0.0
40
19.448009
50
307.346283
51
308.863739
0
ARC
8
0
62
3
10
10.336670
20
5.426819
30
0.0
40
3.977820
50
308.889771
51
316.427094
0
ARC
8
0
62
3
10
-12.682587
20
27.362747
30
0.0
40
35.775143
50
316.385651
51
317.005066
0
ARC
8
0
62
3
10
13.327209
20
3.112488
30
0.0
40
0.214159
50
317.005096
51
13.145456
0
ARC
8
0
62
3
10
0.000000
20
0.000000
30
0.0
40
13.900000
50
13.145456
51
16.854544
0
ARC
8
0
62
3
10
13.097961
20
3.968109
30
0.0
40
0.214159
50
16.854544
51
72.994888
0
ARC
8
0
62
3
10
2.697906
20
-30.038086
30
0.0
40
35.775143
50
72.994942
51
73.614349
0
ARC
8
0
62
3
10
11.665222
20
0.468567
30
0.0
40
3.977820
50
73.572899
51
81.110222
0
ARC
8
0
62
3
10
9.283295
20
-14.817139
30
0.0
40
19.448009
50
81.136253
51
82.653725
0
ARC
8
0
62
3
10
11.365601
20
1.345306
30
0.0
40
3.151974
50
82.628578
51
91.418312
0
LINE
8
0
62
3
10
11.287598
20
4.496307
30
0.0
11
10.809326
21
4.469482
31
0.0
0
ARC
8
0
62
3
10
10.836548
20
3.345398
30
0.0
40
1.124414
50
91.386292
51
113.280632
0
LINE
8
0
62
3
10
10.392120
20
4.378235
30
0.0
11
9.136993
21
3.836304
31
0.0
0
ARC
8
0
62
3
10
8.931671
20
4.311859
30
0.0
40
0.518000
50
205.769440
51
293.353973
0
ARC
8
0
62
3
10
0.000000
20
0.000000
30
0.0
40
9.400000
50
25.769438
51
34.230560
0
ARC
8
0
62
3
10
8.199982
20
5.579132
30
0.0
40
0.518000
50
126.646042
51
214.230560
0
LINE
8
0
62
3
10
7.890839
20
5.994751
30
0.0
11
8.987701
21
6.810730
31
0.0
0
ARC
8
0
62
3
10
8.315430
20
7.712036
30
0.0
40
1.124414
50
306.719360
51
328.613708
0
LINE
8
0
62
3
10
9.275330
20
7.126434
30
0.0
11
9.537933
21
7.527557
31
0.0
0
ARC
8
0
62
3
10
6.847870
20
9.170258
30
0.0
40
3.151974
50
328.589722
51
337.371429
0
ARC
8
0
62
3
10
-8.190369
20
15.448120
30
0.0
40
19.448009
50
337.346283
51
338.863739
0
ARC
8
0
62
3
10
6.238403
20
9.868103
30
0.0
40
3.977820
50
338.889771
51
346.427094
0
ARC
8
0
62
3
10
-24.664825
20
17.355530
30
0.0
40
35.775143
50
346.385651
51
347.005066
0
ARC
8
0
62
3
10
9.985443
20
9.359131
30
0.0
40
0.214159
50
347.005096
51
43.145454
0
ARC
8
0
62
3
10
0.000000
20
0.000000
30
0.0
40
13.900000
50
43.145454
51
46.854546
0
ARC
8
0
62
3
10
9.359100
20
9.985474
30
0.0
40
0.214159
50
46.854546
51
102.994888
0
ARC
8
0
62
3
10
17.355530
20
-24.664795
30
0.0
40
35.775143
50
102.994942
51
103.614349
0
ARC
8
0
62
3
10
9.868073
20
6.238434
30
0.0
40
3.977820
50
103.572899
51
111.110222
0
ARC
8
0
62
3
10
15.448120
20
-8.190369
30
0.0
40
19.448009
50
111.136253
51
112.653725
0
ARC
8
0
62
3
10
9.170258
20
6.847870
30
0.0
40
3.151974
50
112.628578
51
121.418312
0
LINE
8
0
62
3
10
7.527191
20
9.537720
30
0.0
11
7.126404
21
9.275330
31
0.0
0
ARC
8
0
62
3
10
7.712006
20
8.315460
30
0.0
40
1.124414
50
121.386292
51
143.280624
0
LINE
8
0
62
3
10
6.810699
20
8.987762
30
0.0
11
5.994720
21
7.890839
31
0.0
0
ARC
8
0
62
3
10
5.579102
20
8.200043
30
0.0
40
0.518000
50
235.769440
51
323.353973
0
ARC
8
0
62
3
10
0.000000
20
0.000000
30
0.0
40
9.400000
50
55.769440
51
64.230560
0
ARC
8
0
62
3
10
4.311859
20
8.931671
30
0.0
40
0.518000
50
156.646042
51
244.230560
0
LINE
8
0
62
3
10
3.836273
20
9.137024
30
0.0
11
4.378235
21
10.392151
31
0.0
0
ARC
8
0
62
3
10
3.345367
20
10.836548
30
0.0
40
1.124414
50
336.719360
51
358.613708
0
LINE
8
0
62
3
10
4.469452
20
10.809357
30
0.0
11
4.496307
21
11.288055
31
0.0
0
ARC
8
0
62
3
10
1.345306
20
11.365631
30
0.0
40
3.151974
50
358.589722
51
7.371424
0
ARC
8
0
62
3
10
-14.817169
20
9.283295
30
0.0
40
19.448009
50
7.346274
51
8.863749
0
ARC
8
0
62
3
10
0.468567
20
11.665222
30
0.0
40
3.977820
50
8.889777
51
16.427105
0
ARC
8
0
62
3
10
-30.038116
20
2.697937
30
0.0
40
35.775143
50
16.385647
51
17.005056
0
ARC
8
0
62
3
10
3.968109
20
13.097961
30
0.0
40
0.214159
50
17.005112
51
73.145454
0
ARC
8
0
62
3
10
0.000000
20
0.000000
30
0.0
40
13.900000
50
73.145454
51
76.854546
0
ARC
8
0
62
3
10
3.112488
20
13.327209
30
0.0
40
0.214159
50
76.854546
51
132.994888
0
ARC
8
0
62
3
10
27.362732
20
-12.682587
30
0.0
40
35.775143
50
132.994949
51
133.614349
0
ARC
8
0
62
3
10
5.426819
20
10.336670
30
0.0
40
3.977820
50
133.572891
51
141.110229
0
ARC
8
0
62
3
10
17.473663
20
0.630981
30
0.0
40
19.448009
50
141.136246
51
142.653732
0
ARC
8
0
62
3
10
4.517731
20
10.515564
30
0.0
40
3.151974
50
142.628586
51
151.418320
0
LINE
8
0
62
3
10
1.749878
20
12.023499
30
0.0
11
1.533997
21
11.595886
31
0.0
0
ARC
8
0
62
3
10
2.521088
20
11.057404
30
0.0
40
1.124414
50
151.386292
51
173.280624
0
LINE
8
0
62
3
10
1.404388
20
11.188965
30
0.0
11
1.246155
21
9.831024
31
0.0
0
ARC
8
0
62
3
10
0.731659
20
9.890991
30
0.0
40
0.518000
50
265.769440
51
353.353973
0
ARC
8
0
62
3
10
0.000000
20
0.000000
30
0.0
40
9.400000
50
85.769440
51
94.230560
0
ARC
8
0
62
3
10
-0.731659
20
9.890991
30
0.0
40
0.518000
50
186.646042
51
274.230560
0
LINE
8
0
62
3
10
-1.246185
20
9.831024
30
0.0
11
-1.404419
21
11.188965
31
0.0
0
ARC
8
0
62
3
10
-2.521088
20
11.057404
30
0.0
40
1.124414
50
6.719370
51
28.613710
0
LINE
8
0
62
3
10
-1.533997
20
11.595886
30
0.0
11
-1.750092
21
12.023895
31
0.0
0
ARC
8
0
62
3
10
-4.517731
20
10.515564
30
0.0
40
3.151974
50
28.589731
51
37.371426
0
ARC
8
0
62
3
10
-17.473694
20
0.630981
30
0.0
40
19.448009
50
37.346275
51
38.863747
0
ARC
8
0
62
3
10
-5.426819
20
10.336670
30
0.0
40
3.977820
50
38.889778
51
46.427105
0
ARC
8
0
62
3
10
-27.362732
20
-12.682587
30
0.0
40
35.775143
50
46.385647
51
47.005058
0
ARC
8
0
62
3
10
-3.112488
20
13.327209
30
0.0
40
0.214159
50
47.005112
51
103.145454
0
ARC
8
0
62
3
10
0.000000
20
0.000000
30
0.0
40
13.900000
50
103.145454
51
106.854546
0
ARC
8
0
62
3
10
-3.968109
20
13.097961
30
0.0
40
0.214159
50
106.854546
51
162.994888
0
ARC
8
0
62
3
10
30.038086
20
2.697937
30
0.0
40
35.775143
50
162.994949
51
163.614349
0
ARC
8
0
62
3
10
-0.468567
20
11.665222
30
0.0
40
3.977820
50
163.572891
51
171.110229
0
ARC
8
0
62
3
10
14.817139
20
9.283295
30
0.0
40
19.448009
50
171.136246
51
172.653732
0
ARC
8
0
62
3
10
-1.345306
20
11.365631
30
0.0
40
3.151974
50
172.628586
51
181.418320
0
LINE
8
0
62
3
10
-4.496338
20
11.287598
30
0.0
11
-4.469452
21
10.809357
31
0.0
0
ARC
8
0
62
3
10
-3.345367
20
10.836548
30
0.0
40
1.124414
50
181.386292
51
203.280624
0
LINE
8
0
62
3
10
-4.378235
20
10.392151
30
0.0
11
-3.836304
21
9.137024
31
0.0
0
ARC
8
0
62
3
10
-4.311859
20
8.931671
30
0.0
40
0.518000
50
295.769440
51
23.353958
0
ARC
8
0
62
3
10
0.000000
20
0.000000
30
0.0
40
9.400000
50
115.769440
51
124.230560
0
ARC
8
0
62
3
10
-5.579132
20
8.200043
30
0.0
40
0.518000
50
216.646042
51
304.230560
0
LINE
8
0
62
3
10
-5.994720
20
7.890839
30
0.0
11
-6.810730
21
8.987762
31
0.0
0
ARC
8
0
62
3
10
-7.712006
20
8.315460
30
0.0
40
1.124414
50
36.719368
51
58.613708
0
LINE
8
0
62
3
10
-7.126434
20
9.275330
30
0.0
11
-7.527588
21
9.537964
31
0.0
0
ARC
8
0
62
3
10
-9.170258
20
6.847870
30
0.0
40
3.151974
50
58.589733
51
67.371422
0
ARC
8
0
62
3
10
-15.448120
20
-8.190369
30
0.0
40
19.448009
50
67.346275
51
68.863747
0
ARC
8
0
62
3
10
-9.868103
20
6.238434
30
0.0
40
3.977820
50
68.889778
51
76.427101
0
ARC
8
0
62
3
10
-17.355530
20
-24.664795
30
0.0
40
35.775143
50
76.385651
51
77.005058
0
ARC
8
0
62
3
10
-9.359100
20
9.985474
30
0.0
40
0.214159
50
77.005112
51
133.145462
0
ARC
8
0
62
3
10
0.000000
20
0.000000
30
0.0
40
13.900000
50
133.145462
51
136.854538
0
ARC
8
0
62
3
10
-9.985474
20
9.359131
30
0.0
40
0.214159
50
136.854538
51
192.994888
0
ARC
8
0
62
3
10
24.664795
20
17.355530
30
0.0
40
35.775143
50
192.994949
51
193.614349
0
ARC
8
0
62
3
10
-6.238403
20
9.868103
30
0.0
40
3.977820
50
193.572891
51
201.110229
0
ARC
8
0
62
3
10
8.190369
20
15.448120
30
0.0
40
19.448009
50
201.136246
51
202.653732
0
ARC
8
0
62
3
10
-6.847870
20
9.170258
30
0.0
40
3.151974
50
202.628586
51
211.418320
0
LINE
8
0
62
3
10
-9.537720
20
7.527191
30
0.0
11
-9.275330
21
7.126434
31
0.0
0
ARC
8
0
62
3
10
-8.315460
20
7.712036
30
0.0
40
1.124414
50
211.386292
51
233.280624
0
LINE
8
0
62
3
10
-8.987732
20
6.810730
30
0.0
11
-7.890839
21
5.994751
31
0.0
0
ARC
8
0
62
3
10
-8.200012
20
5.579132
30
0.0
40
0.518000
50
325.769440
51
53.353958
0
ARC
8
0
62
3
10
0.000000
20
0.000000
30
0.0
40
9.400000
50
145.769440
51
154.230560
0
ARC
8
0
62
3
10
-8.931671
20
4.311859
30
0.0
40
0.518000
50
246.646042
51
334.230560
0
LINE
8
0
62
3
10
-9.136993
20
3.836304
30
0.0
11
-10.392120
21
4.378235
31
0.0
0
ARC
8
0
62
3
10
-10.836548
20
3.345398
30
0.0
40
1.124414
50
66.719368
51
88.613708
0
LINE
8
0
62
3
10
-10.809326
20
4.469482
30
0.0
11
-11.288025
21
4.496338
31
0.0
0
ARC
8
0
62
3
10
-11.365631
20
1.345306
30
0.0
40
3.151974
50
88.589729
51
97.371422
0
ARC
8
0
62
3
10
-9.283295
20
-14.817139
30
0.0
40
19.448009
50
97.346275
51
98.863747
0
ARC
8
0
62
3
10
-11.665253
20
0.468567
30
0.0
40
3.977820
50
98.889778
51
106.427101
0
ARC
8
0
62
3
10
-2.697937
20
-30.038086
30
0.0
40
35.775143
50
106.385651
51
107.005058
0
ARC
8
0
62
3
10
-13.097961
20
3.968109
30
0.0
40
0.214159
50
107.005112
51
163.145462
0
ARC
8
0
62
3
10
0.000000
20
0.000000
30
0.0
40
13.900000
50
163.145462
51
166.854538
0
ARC
8
0
62
3
10
-13.327240
20
3.112488
30
0.0
40
0.214159
50
166.854538
51
222.994888
0
ARC
8
0
62
3
10
12.682556
20
27.362747
30
0.0
40
35.775143
50
222.994949
51
223.614349
0
ARC
8
0
62
3
10
-10.336670
20
5.426819
30
0.0
40
3.977820
50
223.572891
51
231.110229
0
ARC
8
0
62
3
10
-0.630981
20
17.473663
30
0.0
40
19.448009
50
231.136246
51
232.653732
0
ARC
8
0
62
3
10
-10.515564
20
4.517731
30
0.0
40
3.151974
50
232.628586
51
241.418320
0
LINE
8
0
62
3
10
-12.023499
20
1.749878
30
0.0
11
-11.595886
21
1.534027
31
0.0
0
ARC
8
0
62
3
10
-11.057404
20
2.521088
30
0.0
40
1.124414
50
241.386292
51
263.280640
0
LINE
8
0
62
3
10
-11.188965
20
1.404388
30
0.0
11
-9.831024
21
1.246185
31
0.0
0
ARC
8
0
62
3
10
-9.890991
20
0.731659
30
0.0
40
0.518000
50
355.769440
51
83.353958
0
ARC
8
0
62
3
10
0.000000
20
0.000000
30
0.0
40
9.400000
50
175.769440
51
184.230560
0
ARC
8
0
62
3
10
-9.890991
20
-0.731659
30
0.0
40
0.518000
50
276.646027
51
4.230562
0
LINE
8
0
62
3
10
-9.831024
20
-1.246185
30
0.0
11
-11.188965
21
-1.404388
31
0.0
0
ARC
8
0
62
3
10
-11.057404
20
-2.521057
30
0.0
40
1.124414
50
96.719368
51
118.613708
0
LINE
8
0
62
3
10
-11.595886
20
-1.533997
30
0.0
11
-12.023895
21
-1.750092
31
0.0
0
ARC
8
0
62
3
10
-10.515564
20
-4.517731
30
0.0
40
3.151974
50
118.589729
51
127.371422
0
ARC
8
0
62
3
10
-0.630981
20
-17.473633
30
0.0
40
19.448009
50
127.346275
51
128.863754
0
ARC
8
0
62
3
10
-10.336670
20
-5.426788
30
0.0
40
3.977820
50
128.889771
51
136.427109
0
ARC
8
0
62
3
10
12.682556
20
-27.362732
30
0.0
40
35.775143
50
136.385651
51
137.005051
0
ARC
8
0
62
3
10
-13.327240
20
-3.112488
30
0.0
40
0.214159
50
137.005112
51
193.145462
0
ARC
8
0
62
3
10
0.000000
20
0.000000
30
0.0
40
13.900000
50
193.145462
51
196.854538
0
ARC
8
0
62
3
10
-13.097961
20
-3.968109
30
0.0
40
0.214159
50
196.854538
51
252.994888
0
ARC
8
0
62
3
10
-2.697937
20
30.038116
30
0.0
40
35.775143
50
252.994949
51
253.614349
0
ARC
8
0
62
3
10
-11.665253
20
-0.468567
30
0.0
40
3.977820
50
253.572891
51
261.110229
0
ARC
8
0
62
3
10
-9.283295
20
14.817169
30
0.0
40
19.448009
50
261.136261
51
262.653717
0
ARC
8
0
62
3
10
-11.365631
20
-1.345306
30
0.0
40
3.151974
50
262.628571
51
271.418304
0
LINE
8
0
62
3
10
-11.287598
20
-4.496307
30
0.0
11
-10.809326
21
-4.469452
31
0.0
0
ARC
8
0
62
3
10
-10.836548
20
-3.345367
30
0.0
40
1.124414
50
271.386292
51
293.280640
0
LINE
8
0
62
3
10
-10.392120
20
-4.378235
30
0.0
11
-9.136993
21
-3.836304
31
0.0
0
ARC
8
0
62
3
10
-8.931671
20
-4.311859
30
0.0
40
0.518000
50
25.769438
51
113.353958
0
ARC
8
0
62
3
10
0.000000
20
0.000000
30
0.0
40
9.400000
50
205.769440
51
214.230560
0
ARC
8
0
62
3
10
-8.200012
20
-5.579132
30
0.0
40
0.518000
50
306.646027
51
34.230560
0
LINE
8
0
62
3
10
-7.890839
20
-5.994720
30
0.0
11
-8.987732
21
-6.810699
31
0.0
0
ARC
8
0
62
3
10
-8.315460
20
-7.712006
30
0.0
40
1.124414
50
126.719368
51
148.613708
0
LINE
8
0
62
3
10
-9.275330
20
-7.126404
30
0.0
11
-9.537933
21
-7.527557
31
0.0
0
ARC
8
0
62
3
10
-6.847870
20
-9.170258
30
0.0
40
3.151974
50
148.589737
51
157.371429
0
ARC
8
0
62
3
10
8.190369
20
-15.448120
30
0.0
40
19.448009
50
157.346268
51
158.863754
0
ARC
8
0
62
3
10
-6.238403
20
-9.868073
30
0.0
40
3.977820
50
158.889771
51
166.427109
0
ARC
8
0
62
3
10
24.664795
20
-17.355499
30
0.0
40
35.775143
50
166.385651
51
167.005051
0
ARC
8
0
62
3
10
-9.985474
20
-9.359100
30
0.0
40
0.214159
50
167.005112
51
223.145462
0
ARC
8
0
62
3
10
0.000000
20
0.000000
30
0.0
40
13.900000
50
223.145462
51
226.854538
0
ARC
8
0
62
3
10
-9.359100
20
-9.985474
30
0.0
40
0.214159
50
226.854538
51
282.994904
0
ARC
8
0
62
3
10
-17.355530
20
24.664825
30
0.0
40
35.775143
50
282.994934
51
283.614349
0
ARC
8
0
62
3
10
-9.868103
20
-6.238403
30
0.0
40
3.977820
50
283.572906
51
291.110229
0
ARC
8
0
62
3
10
-15.448120
20
8.190399
30
0.0
40
19.448009
50
291.136261
51
292.653717
0
ARC
8
0
62
3
10
-9.170258
20
-6.847870
30
0.0
40
3.151974
50
292.628571
51
301.418304
0
LINE
8
0
62
3
10
-7.527191
20
-9.537689
30
0.0
11
-7.126434
21
-9.275299
31
0.0
0
ARC
8
0
62
3
10
-7.712006
20
-8.315430
30
0.0
40
1.124414
50
301.386292
51
323.280640
0
LINE
8
0
62
3
10
-6.810730
20
-8.987732
30
0.0
11
-5.994720
21
-7.890839
31
0.0
0
ARC
8
0
62
3
10
-5.579132
20
-8.200012
30
0.0
40
0.518000
50
55.769440
51
143.353958
0
ARC
8
0
62
3
10
0.000000
20
0.000000
30
0.0
40
9.400000
50
235.769440
51
244.230560
0
ARC
8
0
62
3
10
-4.311859
20
-8.931641
30
0.0
40
0.518000
50
336.646027
51
64.230560
0
LINE
8
0
62
3
10
-3.836304
20
-9.136993
30
0.0
11
-4.378235
21
-10.392120
31
0.0
0
ARC
8
0
62
3
10
-3.345367
20
-10.836517
30
0.0
40
1.124414
50
156.719376
51
178.613708
0
LINE
8
0
62
3
10
-4.469452
20
-10.809326
30
0.0
11
-4.496338
21
-11.288025
31
0.0
0
ARC
8
0
62
3
10
-1.345306
20
-11.365601
30
0.0
40
3.151974
50
178.589737
51
187.371429
0
ARC
8
0
62
3
10
14.817139
20
-9.283264
30
0.0
40
19.448009
50
187.346268
51
188.863754
0
ARC
8
0
62
3
10
-0.468567
20
-11.665192
30
0.0
40
3.977820
50
188.889771
51
196.427109
0
ARC
8
0
62
3
10
30.038086
20
-2.697937
30
0.0
40
35.775143
50
196.385651
51
197.005051
0
ARC
8
0
62
3
10
-3.968109
20
-13.097931
30
0.0
40
0.214159
50
197.005112
51
253.145462
0
ARC
8
0
62
3
10
0.000000
20
0.000000
30
0.0
40
13.900000
50
253.145462
51
256.854553
0
ARC
8
0
62
3
10
-3.112488
20
-13.327209
30
0.0
40
0.214159
50
256.854553
51
312.994904
0
ARC
8
0
62
3
10
-27.362732
20
12.682617
30
0.0
40
35.775143
50
312.994934
51
313.614349
0
ARC
8
0
62
3
10
-5.426819
20
-10.336639
30
0.0
40
3.977820
50
313.572906
51
321.110229
0
ARC
8
0
62
3
10
-17.473694
20
-0.630981
30
0.0
40
19.448009
50
321.136261
51
322.653717
0
ARC
8
0
62
3
10
-4.517731
20
-10.515533
30
0.0
40
3.151974
50
322.628571
51
331.418304
0
LINE
8
0
62
3
10
-1.749878
20
-12.023499
30
0.0
11
-1.533997
21
-11.595886
31
0.0
0
ARC
8
0
62
3
10
-2.521088
20
-11.057404
30
0.0
40
1.124414
50
331.386292
51
353.280640
0
LINE
8
0
62
3
10
-1.404419
20
-11.188965
30
0.0
11
-1.246185
21
-9.831024
31
0.0
0
ARC
8
0
62
3
10
-0.731659
20
-9.890961
30
0.0
40
0.518000
50
85.769440
51
173.353958
0
ARC
8
0
62
3
10
0.000000
20
0.000000
30
0.0
40
9.400000
50
265.769440
51
274.230560
0
ARC
8
0
62
3
10
0.731659
20
-9.890961
30
0.0
40
0.518000
50
6.646042
51
94.230560
0
LINE
8
0
62
3
10
1.246155
20
-9.831024
30
0.0
11
1.404388
21
-11.188965
31
0.0
0
ARC
8
0
62
3
10
2.521088
20
-11.057404
30
0.0
40
1.124414
50
186.719376
51
208.613708
0
LINE
8
0
62
3
10
1.533997
20
-11.595886
30
0.0
11
1.750061
21
-12.023895
31
0.0
0
ARC
8
0
62
3
10
4.517731
20
-10.515533
30
0.0
40
3.151974
50
208.589737
51
217.371429
0
ARC
8
0
62
3
10
17.473663
20
-0.630981
30
0.0
40
19.448009
50
217.346268
51
218.863754
0
ARC
8
0
62
3
10
5.426819
20
-10.336639
30
0.0
40
3.977820
50
218.889771
51
226.427109
0
ARC
8
0
62
3
10
27.362732
20
12.682617
30
0.0
40
35.775143
50
226.385651
51
227.005051
0
ARC
8
0
62
3
10
3.112488
20
-13.327209
30
0.0
40
0.214159
50
227.005112
51
283.145447
0
ARC
8
0
62
3
10
0.000000
20
0.000000
30
0.0
40
13.900000
50
283.145447
51
286.854553
0
ARC
8
0
62
3
10
3.968109
20
-13.097931
30
0.0
40
0.214159
50
286.854553
51
342.994904
0
ARC
8
0
62
3
10
-30.038116
20
-2.697937
30
0.0
40
35.775143
50
342.994934
51
343.614349
0
ARC
8
0
62
3
10
0.468567
20
-11.665192
30
0.0
40
3.977820
50
343.572906
51
351.110229
0
ARC
8
0
62
3
10
-14.817169
20
-9.283264
30
0.0
40
19.448009
50
351.136261
51
352.653717
0
ARC
8
0
62
3
10
1.345306
20
-11.365601
30
0.0
40
3.151974
50
352.628571
51
1.418316
0
LINE
8
0
62
3
10
4.496307
20
-11.287598
30
0.0
11
4.469452
21
-10.809326
31
0.0
0
ARC
8
0
62
3
10
3.345367
20
-10.836517
30
0.0
40
1.124414
50
1.386290
51
23.280630
0
LINE
8
0
62
3
10
4.378235
20
-10.392120
30
0.0
11
3.836273
21
-9.136993
31
0.0
0
ARC
8
0
62
3
10
4.311859
20
-8.931641
30
0.0
40
0.518000
50
115.769440
51
203.353958
0
ARC
8
0
62
2
10
0.000000
20
0.000000
30
0.0
40
31.500000
50
90.000000
51
270.000000
0
ARC
8
0
62
2
10
0.000000
20
0.000000
30
0.0
40
31.500000
50
270.000000
51
90.000000
0
ARC
8
0
62
8
10
-61.263981
20
0.000006
30
0.0
40
12.000000
50
180.000000
51
0.000000
0
LINE
8
0
62
7
10
7.957153
20
80.305862
30
0.0
11
17.957153
21
80.305862
31
0.0
0
LINE
8
0
62
7
10
17.957153
20
86.305862
30
0.0
11
19.957153
21
86.305862
31
0.0
0
LINE
8
0
62
7
10
17.957153
20
70.305862
30
0.0
11
7.957153
21
70.305862
31
0.0
0
LINE
8
0
62
7
10
19.957153
20
64.305878
30
0.0
11
17.957153
21
64.305878
31
0.0
0
LINE
8
0
62
7
10
17.957153
20
86.305862
30
0.0
11
17.957153
21
84.805878
31
0.0
0
LINE
8
0
62
7
10
17.957153
20
80.305862
30
0.0
11
17.957153
21
81.805878
31
0.0
0
LINE
8
0
62
7
10
19.957153
20
64.305878
30
0.0
11
19.957153
21
65.805878
31
0.0
0
LINE
8
0
62
7
10
19.957153
20
65.805878
30
0.0
11
19.957153
21
68.805862
31
0.0
0
LINE
8
0
62
7
10
17.957153
20
70.305862
30
0.0
11
17.957153
21
68.805862
31
0.0
0
LINE
8
0
62
7
10
17.957153
20
64.305878
30
0.0
11
17.957153
21
65.805878
31
0.0
0
LINE
8
0
62
7
10
17.957153
20
65.805878
30
0.0
11
17.957153
21
68.805862
31
0.0
0
LINE
8
0
62
7
10
17.957153
20
81.805878
30
0.0
11
17.957153
21
84.805878
31
0.0
0
LINE
8
0
62
7
10
19.957153
20
86.305862
30
0.0
11
19.957153
21
84.805878
31
0.0
0
LINE
8
0
62
7
10
19.957153
20
81.805878
30
0.0
11
19.957153
21
84.805878
31
0.0
0
LINE
8
0
62
7
10
19.957153
20
68.805862
30
0.0
11
19.957153
21
75.305878
31
0.0
0
LINE
8
0
62
7
10
7.957153
20
75.305878
30
0.0
11
7.957153
21
70.305862
31
0.0
0
LINE
8
0
62
3
10
31.233826
20
95.187508
30
0.0
11
31.233826
21
98.305183
31
0.0
0
LINE
8
0
62
3
10
36.633804
20
98.305183
30
0.0
11
36.633804
21
95.187508
31
0.0
0
LINE
8
0
62
3
10
33.933823
20
93.628670
30
0.0
11
31.233826
21
95.187508
31
0.0
0
LINE
8
0
62
3
10
33.933823
20
99.864021
30
0.0
11
36.633804
21
98.305183
31
0.0
0
LINE
8
0
62
3
10
31.233826
20
98.305183
30
0.0
11
33.933823
21
99.864021
31
0.0
0
LINE
8
0
62
3
10
36.633804
20
95.187508
30
0.0
11
33.933823
21
93.628670
31
0.0
0
ARC
8
0
62
3
10
33.933823
20
96.746346
30
0.0
40
1.700000
50
0.000000
51
180.000000
0
ARC
8
0
62
3
10
33.933823
20
96.746346
30
0.0
40
1.700000
50
180.000000
51
0.000000
0
ARC
8
0
62
3
10
0.000000
20
0.000000
30
0.0
40
7.500000
50
180.000000
51
0.000000
0
LINE
8
0
62
3
10
74.214165
20
7.500003
30
0.0
11
74.214165
21
12.000003
31
0.0
0
ARC
8
0
62
3
10
0.000000
20
24.000000
30
0.0
40
9.400000
50
340.769440
51
349.230560
0
ARC
8
0
62
3
10
9.364594
20
20.733307
30
0.0
40
0.518000
50
160.769440
51
248.353958
0
LINE
8
0
62
3
10
9.173492
20
20.251831
30
0.0
11
10.444214
21
19.747528
31
0.0
0
ARC
8
0
62
3
10
10.028107
20
18.702942
30
0.0
40
1.124414
50
46.386292
51
68.280640
0
LINE
8
0
62
3
10
10.803741
20
19.517029
30
0.0
11
11.161224
21
19.197510
31
0.0
0
ARC
8
0
62
3
10
8.987946
20
16.914581
30
0.0
40
3.151974
50
37.628571
51
46.410278
0
ARC
8
0
62
3
10
-3.913055
20
6.958435
30
0.0
40
19.448009
50
36.136261
51
37.653717
0
ARC
8
0
62
3
10
8.579895
20
16.082764
30
0.0
40
3.977820
50
28.572906
51
36.110229
0
ARC
8
0
62
3
10
-19.332428
20
0.852142
30
0.0
40
35.775143
50
27.994934
51
28.614349
0
ARC
8
0
62
3
10
12.067505
20
17.544220
30
0.0
40
0.214159
50
331.854553
51
27.994904
0
ARC
8
0
62
3
10
0.000000
20
24.000000
30
0.0
40
13.900000
50
328.145447
51
331.854553
0
ARC
8
0
62
3
10
11.624603
20
16.777069
30
0.0
40
0.214159
50
272.005127
51
328.145447
0
ARC
8
0
62
3
10
10.380432
20
52.316315
30
0.0
40
35.775143
50
271.385651
51
272.005066
0
ARC
8
0
62
3
10
11.146454
20
20.528198
30
0.0
40
3.977820
50
263.889771
51
271.427094
0
ARC
8
0
62
3
10
12.801910
20
35.909546
30
0.0
40
19.448009
50
262.346283
51
263.863739
0
ARC
8
0
62
3
10
10.630157
20
19.758911
30
0.0
40
3.151974
50
253.581696
51
262.371429
0
LINE
8
0
62
3
10
9.739227
20
16.735443
30
0.0
11
9.284241
21
16.885162
31
0.0
0
ARC
8
0
62
3
10
9.601440
20
17.963898
30
0.0
40
1.124414
50
231.719376
51
253.613708
0
LINE
8
0
62
3
10
8.904846
20
17.081238
30
0.0
11
7.832733
21
17.929565
31
0.0
0
ARC
8
0
62
3
10
7.511322
20
17.523376
30
0.0
40
0.518000
50
51.646027
51
139.230560
0
ARC
8
0
62
3
10
0.000000
20
24.000000
30
0.0
40
9.400000
50
310.769440
51
319.230560
0
ARC
8
0
62
3
10
6.476593
20
16.488647
30
0.0
40
0.518000
50
130.769440
51
218.353958
0
LINE
8
0
62
3
10
6.070404
20
16.167236
30
0.0
11
6.918732
21
15.095123
31
0.0
0
ARC
8
0
62
3
10
6.036072
20
14.398529
30
0.0
40
1.124414
50
16.386292
51
38.280640
0
LINE
8
0
62
3
10
7.114807
20
14.715759
30
0.0
11
7.264648
21
14.260315
31
0.0
0
ARC
8
0
62
3
10
4.241089
20
13.369843
30
0.0
40
3.151974
50
7.628571
51
16.410278
0
ARC
8
0
62
3
10
-11.909576
20
11.198059
30
0.0
40
19.448009
50
6.136261
51
7.653717
0
ARC
8
0
62
3
10
3.471771
20
12.853516
30
0.0
40
3.977820
50
358.572906
51
6.110229
0
ARC
8
0
62
3
10
-28.316315
20
13.619568
30
0.0
40
35.775143
50
357.994934
51
358.614349
0
ARC
8
0
62
3
10
7.222900
20
12.375366
30
0.0
40
0.214159
50
301.854553
51
357.994904
0
ARC
8
0
62
3
10
0.000000
20
24.000000
30
0.0
40
13.900000
50
298.145447
51
301.854553
0
ARC
8
0
62
3
10
6.455780
20
11.932465
30
0.0
40
0.214159
50
242.005112
51
298.145447
0
ARC
8
0
62
3
10
23.147858
20
43.332397
30
0.0
40
35.775143
50
241.385651
51
242.005066
0
ARC
8
0
62
3
10
7.917206
20
15.420105
30
0.0
40
3.977820
50
233.889771
51
241.427094
0
ARC
8
0
62
3
10
17.041565
20
27.913025
30
0.0
40
19.448009
50
232.346283
51
233.863739
0
ARC
8
0
62
3
10
7.085419
20
15.012024
30
0.0
40
3.151974
50
223.581680
51
232.371429
0
LINE
8
0
62
3
10
4.802155
20
12.839081
30
0.0
11
4.482941
21
13.196259
31
0.0
0
ARC
8
0
62
3
10
5.297058
20
13.971863
30
0.0
40
1.124414
50
201.719376
51
223.613708
0
LINE
8
0
62
3
10
4.252472
20
13.555756
30
0.0
11
3.748169
21
14.826477
31
0.0
0
ARC
8
0
62
3
10
3.266693
20
14.635406
30
0.0
40
0.518000
50
21.646027
51
109.230560
0
ARC
8
0
62
3
10
0.000000
20
24.000000
30
0.0
40
9.400000
50
280.769440
51
289.230560
0
ARC
8
0
62
3
10
1.853241
20
14.256653
30
0.0
40
0.518000
50
100.769440
51
188.353958
0
LINE
8
0
62
3
10
1.340759
20
14.181427
30
0.0
11
1.539368
21
12.828796
31
0.0
0
ARC
8
0
62
3
10
0.426666
20
12.666870
30
0.0
40
1.124414
50
346.386292
51
8.280640
0
LINE
8
0
62
3
10
1.519501
20
12.402191
30
0.0
11
1.421570
21
11.932861
31
0.0
0
ARC
8
0
62
3
10
-1.642181
20
12.673462
30
0.0
40
3.151974
50
337.628571
51
346.410278
0
ARC
8
0
62
3
10
-16.714966
20
18.867981
30
0.0
40
19.448009
50
336.136261
51
337.653717
0
ARC
8
0
62
3
10
-2.566559
20
12.610992
30
0.0
40
3.977820
50
328.572906
51
336.110229
0
ARC
8
0
62
3
10
-29.712860
20
29.168427
30
0.0
40
35.775143
50
327.994934
51
328.614349
0
ARC
8
0
62
3
10
0.442902
20
10.321320
30
0.0
40
0.214159
50
271.854553
51
327.994873
0
ARC
8
0
62
3
10
0.000000
20
24.000000
30
0.0
40
13.900000
50
268.145447
51
271.854553
0
ARC
8
0
62
3
10
-0.442902
20
10.321320
30
0.0
40
0.214159
50
212.005112
51
268.145447
0
ARC
8
0
62
3
10
29.712860
20
29.168427
30
0.0
40
35.775143
50
211.385651
51
212.005051
0
ARC
8
0
62
3
10
2.566559
20
12.610992
30
0.0
40
3.977820
50
203.889771
51
211.427109
0
ARC
8
0
62
3
10
16.714966
20
18.867981
30
0.0
40
19.448009
50
202.346268
51
203.863754
0
ARC
8
0
62
3
10
1.642151
20
12.673462
30
0.0
40
3.151974
50
193.581680
51
202.371414
0
LINE
8
0
62
3
10
-1.421661
20
11.933289
30
0.0
11
-1.519531
21
12.402191
31
0.0
0
ARC
8
0
62
3
10
-0.426697
20
12.666870
30
0.0
40
1.124414
50
171.719376
51
193.613708
0
LINE
8
0
62
3
10
-1.539368
20
12.828796
30
0.0
11
-1.340759
21
14.181427
31
0.0
0
ARC
8
0
62
3
10
-1.853271
20
14.256653
30
0.0
40
0.518000
50
351.646057
51
79.230560
0
ARC
8
0
62
3
10
0.000000
20
24.000000
30
0.0
40
9.400000
50
250.769440
51
259.230560
0
ARC
8
0
62
3
10
-3.266693
20
14.635406
30
0.0
40
0.518000
50
70.769440
51
158.353958
0
LINE
8
0
62
3
10
-3.748169
20
14.826477
30
0.0
11
-4.252472
21
13.555756
31
0.0
0
ARC
8
0
62
3
10
-5.297058
20
13.971863
30
0.0
40
1.124414
50
316.386292
51
338.280640
0
LINE
8
0
62
3
10
-4.482971
20
13.196259
30
0.0
11
-4.802490
21
12.838745
31
0.0
0
ARC
8
0
62
3
10
-7.085419
20
15.012024
30
0.0
40
3.151974
50
307.628571
51
316.410278
0
ARC
8
0
62
3
10
-17.041595
20
27.913025
30
0.0
40
19.448009
50
306.136261
51
307.653717
0
ARC
8
0
62
3
10
-7.917236
20
15.420105
30
0.0
40
3.977820
50
298.572906
51
306.110229
0
ARC
8
0
62
3
10
-23.147888
20
43.332397
30
0.0
40
35.775143
50
297.994934
51
298.614349
0
ARC
8
0
62
3
10
-6.455780
20
11.932465
30
0.0
40
0.214159
50
241.854553
51
297.994873
0
ARC
8
0
62
3
10
0.000000
20
24.000000
30
0.0
40
13.900000
50
238.145447
51
241.854553
0
ARC
8
0
62
3
10
-7.222900
20
12.375366
30
0.0
40
0.214159
50
182.005112
51
238.145447
0
ARC
8
0
62
3
10
28.316315
20
13.619568
30
0.0
40
35.775143
50
181.385651
51
182.005051
0
ARC
8
0
62
3
10
-3.471802
20
12.853516
30
0.0
40
3.977820
50
173.889771
51
181.427109
0
ARC
8
0
62
3
10
11.909546
20
11.198059
30
0.0
40
19.448009
50
172.346268
51
173.863754
0
ARC
8
0
62
3
10
-4.241119
20
13.369843
30
0.0
40
3.151974
50
163.581680
51
172.371414
0
LINE
8
0
62
3
10
-7.264526
20
14.260742
30
0.0
11
-7.114838
21
14.715759
31
0.0
0
ARC
8
0
62
3
10
-6.036072
20
14.398529
30
0.0
40
1.124414
50
141.719376
51
163.613708
0
LINE
8
0
62
3
10
-6.918732
20
15.095123
30
0.0
11
-6.070404
21
16.167236
31
0.0
0
ARC
8
0
62
3
10
-6.476624
20
16.488647
30
0.0
40
0.518000
50
321.646057
51
49.230560
0
ARC
8
0
62
3
10
0.000000
20
24.000000
30
0.0
40
9.400000
50
220.769440
51
229.230560
0
ARC
8
0
62
3
10
-7.511322
20
17.523376
30
0.0
40
0.518000
50
40.769440
51
128.353958
0
LINE
8
0
62
3
10
-7.832764
20
17.929565
30
0.0
11
-8.904846
21
17.081238
31
0.0
0
ARC
8
0
62
3
10
-9.601440
20
17.963898
30
0.0
40
1.124414
50
286.386292
51
308.280640
0
LINE
8
0
62
3
10
-9.284241
20
16.885162
30
0.0
11
-9.739685
21
16.735321
31
0.0
0
ARC
8
0
62
3
10
-10.630157
20
19.758911
30
0.0
40
3.151974
50
277.628571
51
286.410278
0
ARC
8
0
62
3
10
-12.801910
20
35.909546
30
0.0
40
19.448009
50
276.136261
51
277.653717
0
ARC
8
0
62
3
10
-11.146484
20
20.528198
30
0.0
40
3.977820
50
268.572906
51
276.110229
0
ARC
8
0
62
3
10
-10.380432
20
52.316315
30
0.0
40
35.775143
50
267.994934
51
268.614349
0
ARC
8
0
62
3
10
-11.624634
20
16.777069
30
0.0
40
0.214159
50
211.854538
51
267.994873
0
ARC
8
0
62
3
10
0.000000
20
24.000000
30
0.0
40
13.900000
50
208.145462
51
211.854538
0
ARC
8
0
62
3
10
-12.067535
20
17.544220
30
0.0
40
0.214159
50
152.005112
51
208.145462
0
ARC
8
0
62
3
10
19.332428
20
0.852142
30
0.0
40
35.775143
50
151.385651
51
152.005051
0
ARC
8
0
62
3
10
-8.579895
20
16.082764
30
0.0
40
3.977820
50
143.889771
51
151.427109
0
ARC
8
0
62
3
10
3.913025
20
6.958435
30
0.0
40
19.448009
50
142.346268
51
143.863754
0
ARC
8
0
62
3
10
-8.987976
20
16.914581
30
0.0
40
3.151974
50
133.581680
51
142.371414
0
LINE
8
0
62
3
10
-11.160919
20
19.197845
30
0.0
11
-10.803741
21
19.517029
31
0.0
0
ARC
8
0
62
3
10
-10.028137
20
18.702942
30
0.0
40
1.124414
50
111.719376
51
133.613708
0
LINE
8
0
62
3
10
-10.444244
20
19.747528
30
0.0
11
-9.173523
21
20.251831
31
0.0
0
ARC
8
0
62
3
10
-9.364594
20
20.733307
30
0.0
40
0.518000
50
291.646057
51
19.230560
0
ARC
8
0
62
3
10
0.000000
20
24.000000
30
0.0
40
9.400000
50
190.769440
51
199.230560
0
ARC
8
0
62
3
10
-9.743317
20
22.146729
30
0.0
40
0.518000
50
10.769440
51
98.353973
0
LINE
8
0
62
3
10
-9.818573
20
22.659241
30
0.0
11
-11.171204
21
22.460632
31
0.0
0
ARC
8
0
62
3
10
-11.333130
20
23.573303
30
0.0
40
1.124414
50
256.386292
51
278.280640
0
LINE
8
0
62
3
10
-11.597809
20
22.480499
30
0.0
11
-12.067169
21
22.578430
31
0.0
0
ARC
8
0
62
3
10
-11.326538
20
25.642151
30
0.0
40
3.151974
50
247.628571
51
256.410278
0
ARC
8
0
62
3
10
-5.132019
20
40.714935
30
0.0
40
19.448009
50
246.136261
51
247.653717
0
ARC
8
0
62
3
10
-11.389008
20
26.566559
30
0.0
40
3.977820
50
238.572906
51
246.110229
0
ARC
8
0
62
3
10
5.168457
20
53.712860
30
0.0
40
35.775143
50
237.994934
51
238.614349
0
ARC
8
0
62
3
10
-13.678680
20
23.557098
30
0.0
40
0.214159
50
181.854538
51
237.994888
0
ARC
8
0
62
3
10
0.000000
20
24.000000
30
0.0
40
13.900000
50
178.145462
51
181.854538
0
ARC
8
0
62
3
10
-13.678680
20
24.442902
30
0.0
40
0.214159
50
122.005112
51
178.145462
0
ARC
8
0
62
3
10
5.168457
20
-5.712860
30
0.0
40
35.775143
50
121.385651
51
122.005051
0
ARC
8
0
62
3
10
-11.389008
20
21.433411
30
0.0
40
3.977820
50
113.889771
51
121.427109
0
ARC
8
0
62
3
10
-5.132019
20
7.285034
30
0.0
40
19.448009
50
112.346268
51
113.863754
0
ARC
8
0
62
3
10
-11.326538
20
22.357819
30
0.0
40
3.151974
50
103.581696
51
112.371414
0
LINE
8
0
62
3
10
-12.066711
20
25.421661
30
0.0
11
-11.597809
21
25.519501
31
0.0
0
ARC
8
0
62
3
10
-11.333130
20
24.426697
30
0.0
40
1.124414
50
81.719360
51
103.613708
0
LINE
8
0
62
3
10
-11.171204
20
25.539368
30
0.0
11
-9.818573
21
25.340729
31
0.0
0
ARC
8
0
62
3
10
-9.743317
20
25.853241
30
0.0
40
0.518000
50
261.646057
51
349.230560
0
ARC
8
0
62
3
10
0.000000
20
24.000000
30
0.0
40
9.400000
50
160.769440
51
169.230560
0
ARC
8
0
62
3
10
-9.364594
20
27.266663
30
0.0
40
0.518000
50
340.769440
51
68.353973
0
LINE
8
0
62
3
10
-9.173523
20
27.748169
30
0.0
11
-10.444244
21
28.252441
31
0.0
0
ARC
8
0
62
3
10
-10.028137
20
29.297028
30
0.0
40
1.124414
50
226.386292
51
248.280640
0
LINE
8
0
62
3
10
-10.803741
20
28.482941
30
0.0
11
-11.161224
21
28.802460
31
0.0
0
ARC
8
0
62
3
10
-8.987976
20
31.085419
30
0.0
40
3.151974
50
217.628571
51
226.410263
0
ARC
8
0
62
3
10
3.913025
20
41.041565
30
0.0
40
19.448009
50
216.136246
51
217.653732
0
ARC
8
0
62
3
10
-8.579895
20
31.917206
30
0.0
40
3.977820
50
208.572891
51
216.110229
0
ARC
8
0
62
3
10
19.332428
20
47.147858
30
0.0
40
35.775143
50
207.994949
51
208.614349
0
ARC
8
0
62
3
10
-12.067535
20
30.455750
30
0.0
40
0.214159
50
151.854538
51
207.994888
0
ARC
8
0
62
3
10
0.000000
20
24.000000
30
0.0
40
13.900000
50
148.145462
51
151.854538
0
ARC
8
0
62
3
10
-11.624634
20
31.222900
30
0.0
40
0.214159
50
92.005096
51
148.145462
0
ARC
8
0
62
3
10
-10.380432
20
-4.316315
30
0.0
40
35.775143
50
91.385651
51
92.005066
0
ARC
8
0
62
3
10
-11.146484
20
27.471771
30
0.0
40
3.977820
50
83.889771
51
91.427094
0
ARC
8
0
62
3
10
-12.801910
20
12.090424
30
0.0
40
19.448009
50
82.346283
51
83.863739
0
ARC
8
0
62
3
10
-10.630157
20
28.241089
30
0.0
40
3.151974
50
73.581696
51
82.371429
0
LINE
8
0
62
3
10
-9.739258
20
31.264557
30
0.0
11
-9.284241
21
31.114807
31
0.0
0
ARC
8
0
62
3
10
-9.601440
20
30.036072
30
0.0
40
1.124414
50
51.719360
51
73.613708
0
LINE
8
0
62
3
10
-8.904846
20
30.918732
30
0.0
11
-7.832764
21
30.070404
31
0.0
0
ARC
8
0
62
3
10
-7.511322
20
30.476593
30
0.0
40
0.518000
50
231.646042
51
319.230560
0
ARC
8
0
62
3
10
0.000000
20
24.000000
30
0.0
40
9.400000
50
130.769440
51
139.230560
0
ARC
8
0
62
3
10
-6.476624
20
31.511322
30
0.0
40
0.518000
50
310.769440
51
38.353973
0
LINE
8
0
62
3
10
-6.070404
20
31.832764
30
0.0
11
-6.918732
21
32.904846
31
0.0
0
ARC
8
0
62
3
10
-6.036072
20
33.601440
30
0.0
40
1.124414
50
196.386292
51
218.280624
0
LINE
8
0
62
3
10
-7.114838
20
33.284210
30
0.0
11
-7.264679
21
33.739655
31
0.0
0
ARC
8
0
62
3
10
-4.241119
20
34.630127
30
0.0
40
3.151974
50
187.628571
51
196.410263
0
ARC
8
0
62
3
10
11.909546
20
36.801910
30
0.0
40
19.448009
50
186.136246
51
187.653732
0
ARC
8
0
62
3
10
-3.471802
20
35.146454
30
0.0
40
3.977820
50
178.572891
51
186.110229
0
ARC
8
0
62
3
10
28.316315
20
34.380402
30
0.0
40
35.775143
50
177.994949
51
178.614349
0
ARC
8
0
62
3
10
-7.222900
20
35.624634
30
0.0
40
0.214159
50
121.854538
51
177.994888
0
ARC
8
0
62
3
10
0.000000
20
24.000000
30
0.0
40
13.900000
50
118.145462
51
121.854538
0
ARC
8
0
62
3
10
-6.455780
20
36.067505
30
0.0
40
0.214159
50
62.005096
51
118.145462
0
ARC
8
0
62
3
10
-23.147888
20
4.667572
30
0.0
40
35.775143
50
61.385651
51
62.005066
0
ARC
8
0
62
3
10
-7.917236
20
32.579865
30
0.0
40
3.977820
50
53.889771
51
61.427094
0
ARC
8
0
62
3
10
-17.041595
20
20.086945
30
0.0
40
19.448009
50
52.346283
51
53.863739
0
ARC
8
0
62
3
10
-7.085419
20
32.987946
30
0.0
40
3.151974
50
43.581696
51
52.371429
0
LINE
8
0
62
3
10
-4.802155
20
35.160889
30
0.0
11
-4.482971
21
34.803711
31
0.0
0
ARC
8
0
62
3
10
-5.297058
20
34.028107
30
0.0
40
1.124414
50
21.719360
51
43.613708
0
LINE
8
0
62
3
10
-4.252472
20
34.444214
30
0.0
11
-3.748169
21
33.173523
31
0.0
0
ARC
8
0
62
3
10
-3.266693
20
33.364594
30
0.0
40
0.518000
50
201.646042
51
289.230560
0
ARC
8
0
62
3
10
0.000000
20
24.000000
30
0.0
40
9.400000
50
100.769440
51
109.230560
0
ARC
8
0
62
3
10
-1.853271
20
33.743317
30
0.0
40
0.518000
50
280.769440
51
8.353973
0
LINE
8
0
62
3
10
-1.340759
20
33.818542
30
0.0
11
-1.539368
21
35.171173
31
0.0
0
ARC
8
0
62
3
10
-0.426697
20
35.333130
30
0.0
40
1.124414
50
166.386292
51
188.280624
0
LINE
8
0
62
3
10
-1.519531
20
35.597778
30
0.0
11
-1.421570
21
36.067139
31
0.0
0
ARC
8
0
62
3
10
1.642151
20
35.326538
30
0.0
40
3.151974
50
157.628571
51
166.410263
0
ARC
8
0
62
3
10
16.714966
20
29.131989
30
0.0
40
19.448009
50
156.136246
51
157.653732
0
ARC
8
0
62
3
10
2.566559
20
35.389008
30
0.0
40
3.977820
50
148.572891
51
156.110229
0
ARC
8
0
62
3
10
29.712860
20
18.831543
30
0.0
40
35.775143
50
147.994949
51
148.614349
0
ARC
8
0
62
3
10
-0.442902
20
37.678650
30
0.0
40
0.214159
50
91.854553
51
147.994888
0
ARC
8
0
62
3
10
0.000000
20
24.000000
30
0.0
40
13.900000
50
88.145447
51
91.854553
0
ARC
8
0
62
3
10
0.442902
20
37.678650
30
0.0
40
0.214159
50
32.005096
51
88.145447
0
ARC
8
0
62
3
10
-29.712860
20
18.831543
30
0.0
40
35.775143
50
31.385651
51
32.005066
0
ARC
8
0
62
3
10
-2.566559
20
35.389008
30
0.0
40
3.977820
50
23.889771
51
31.427094
0
ARC
8
0
62
3
10
-16.714966
20
29.131989
30
0.0
40
19.448009
50
22.346283
51
23.863739
0
ARC
8
0
62
3
10
-1.642181
20
35.326538
30
0.0
40
3.151974
50
13.581696
51
22.371429
0
LINE
8
0
62
3
10
1.421661
20
36.066711
30
0.0
11
1.519501
21
35.597778
31
0.0
0
ARC
8
0
62
3
10
0.426666
20
35.333130
30
0.0
40
1.124414
50
351.719360
51
13.613708
0
LINE
8
0
62
3
10
1.539368
20
35.171173
30
0.0
11
1.340759
21
33.818542
31
0.0
0
ARC
8
0
62
3
10
1.853241
20
33.743317
30
0.0
40
0.518000
50
171.646042
51
259.230560
0
ARC
8
0
62
3
10
0.000000
20
24.000000
30
0.0
40
9.400000
50
70.769440
51
79.230560
0
ARC
8
0
62
3
10
3.266693
20
33.364594
30
0.0
40
0.518000
50
250.769440
51
338.353943
0
LINE
8
0
62
3
10
3.748169
20
33.173523
30
0.0
11
4.252472
21
34.444214
31
0.0
0
ARC
8
0
62
3
10
5.297058
20
34.028107
30
0.0
40
1.124414
50
136.386292
51
158.280624
0
LINE
8
0
62
3
10
4.482941
20
34.803711
30
0.0
11
4.802460
21
35.161224
31
0.0
0
ARC
8
0
62
3
10
7.085419
20
32.987946
30
0.0
40
3.151974
50
127.628571
51
136.410263
0
ARC
8
0
62
3
10
17.041565
20
20.086945
30
0.0
40
19.448009
50
126.136246
51
127.653732
0
ARC
8
0
62
3
10
7.917206
20
32.579865
30
0.0
40
3.977820
50
118.572891
51
126.110229
0
ARC
8
0
62
3
10
23.147858
20
4.667572
30
0.0
40
35.775143
50
117.994949
51
118.614349
0
ARC
8
0
62
3
10
6.455780
20
36.067505
30
0.0
40
0.214159
50
61.854553
51
117.994888
0
ARC
8
0
62
3
10
0.000000
20
24.000000
30
0.0
40
13.900000
50
58.145447
51
61.854553
0
ARC
8
0
62
3
10
7.222900
20
35.624634
30
0.0
40
0.214159
50
2.005096
51
58.145447
0
ARC
8
0
62
3
10
-28.316315
20
34.380402
30
0.0
40
35.775143
50
1.385651
51
2.005066
0
ARC
8
0
62
3
10
3.471771
20
35.146454
30
0.0
40
3.977820
50
353.889771
51
1.427094
0
ARC
8
0
62
3
10
-11.909576
20
36.801910
30
0.0
40
19.448009
50
352.346283
51
353.863739
0
ARC
8
0
62
3
10
4.241089
20
34.630127
30
0.0
40
3.151974
50
343.581696
51
352.371429
0
LINE
8
0
62
3
10
7.264526
20
33.739258
30
0.0
11
7.114807
21
33.284210
31
0.0
0
ARC
8
0
62
3
10
6.036072
20
33.601440
30
0.0
40
1.124414
50
321.719360
51
343.613708
0
LINE
8
0
62
3
10
6.918732
20
32.904846
30
0.0
11
6.070404
21
31.832764
31
0.0
0
ARC
8
0
62
3
10
6.476593
20
31.511322
30
0.0
40
0.518000
50
141.646042
51
229.230560
0
ARC
8
0
62
3
10
0.000000
20
24.000000
30
0.0
40
9.400000
50
40.769440
51
49.230560
0
ARC
8
0
62
3
10
7.511322
20
30.476593
30
0.0
40
0.518000
50
220.769440
51
308.353943
0
LINE
8
0
62
3
10
7.832733
20
30.070404
30
0.0
11
8.904846
21
30.918732
31
0.0
0
ARC
8
0
62
3
10
9.601440
20
30.036072
30
0.0
40
1.124414
50
106.386292
51
128.280624
0
LINE
8
0
62
3
10
9.284241
20
31.114807
30
0.0
11
9.739685
21
31.264679
31
0.0
0
ARC
8
0
62
3
10
10.630157
20
28.241089
30
0.0
40
3.151974
50
97.628571
51
106.410263
0
ARC
8
0
62
3
10
12.801910
20
12.090424
30
0.0
40
19.448009
50
96.136261
51
97.653717
0
ARC
8
0
62
3
10
11.146454
20
27.471771
30
0.0
40
3.977820
50
88.572906
51
96.110229
0
ARC
8
0
62
3
10
10.380432
20
-4.316315
30
0.0
40
35.775143
50
87.994934
51
88.614349
0
ARC
8
0
62
3
10
11.624603
20
31.222900
30
0.0
40
0.214159
50
31.854553
51
87.994904
0
ARC
8
0
62
3
10
0.000000
20
24.000000
30
0.0
40
13.900000
50
28.145447
51
31.854553
0
ARC
8
0
62
3
10
12.067505
20
30.455750
30
0.0
40
0.214159
50
332.005127
51
28.145447
0
ARC
8
0
62
3
10
-19.332428
20
47.147858
30
0.0
40
35.775143
50
331.385651
51
332.005066
0
ARC
8
0
62
3
10
8.579895
20
31.917206
30
0.0
40
3.977820
50
323.889771
51
331.427094
0
ARC
8
0
62
3
10
-3.913055
20
41.041565
30
0.0
40
19.448009
50
322.346283
51
323.863739
0
ARC
8
0
62
3
10
8.987946
20
31.085419
30
0.0
40
3.151974
50
313.581696
51
322.371429
0
LINE
8
0
62
3
10
11.160919
20
28.802155
30
0.0
11
10.803741
21
28.482941
31
0.0
0
ARC
8
0
62
3
10
10.028107
20
29.297028
30
0.0
40
1.124414
50
291.719360
51
313.613708
0
LINE
8
0
62
3
10
10.444214
20
28.252441
30
0.0
11
9.173492
21
27.748169
31
0.0
0
ARC
8
0
62
3
10
9.364594
20
27.266663
30
0.0
40
0.518000
50
111.646042
51
199.230560
0
ARC
8
0
62
3
10
0.000000
20
24.000000
30
0.0
40
9.400000
50
10.769440
51
19.230560
0
ARC
8
0
62
3
10
9.743317
20
25.853241
30
0.0
40
0.518000
50
190.769440
51
278.353943
0
LINE
8
0
62
3
10
9.818573
20
25.340729
30
0.0
11
11.171173
21
25.539368
31
0.0
0
ARC
8
0
62
3
10
11.333130
20
24.426697
30
0.0
40
1.124414
50
76.386292
51
98.280640
0
LINE
8
0
62
3
10
11.597778
20
25.519501
30
0.0
11
12.067139
21
25.421539
31
0.0
0
ARC
8
0
62
3
10
11.326538
20
22.357819
30
0.0
40
3.151974
50
67.628571
51
76.410278
0
ARC
8
0
62
3
10
5.131989
20
7.285034
30
0.0
40
19.448009
50
66.136261
51
67.653717
0
ARC
8
0
62
3
10
11.389008
20
21.433411
30
0.0
40
3.977820
50
58.572906
51
66.110229
0
ARC
8
0
62
3
10
-5.168457
20
-5.712860
30
0.0
40
35.775143
50
57.994934
51
58.614349
0
ARC
8
0
62
3
10
13.678650
20
24.442902
30
0.0
40
0.214159
50
1.854553
51
57.994904
0
ARC
8
0
62
3
10
0.000000
20
24.000000
30
0.0
40
13.900000
50
358.145447
51
1.854553
0
ARC
8
0
62
3
10
13.678650
20
23.557098
30
0.0
40
0.214159
50
302.005127
51
358.145447
0
ARC
8
0
62
3
10
-5.168457
20
53.712860
30
0.0
40
35.775143
50
301.385651
51
302.005066
0
ARC
8
0
62
3
10
11.389008
20
26.566559
30
0.0
40
3.977820
50
293.889771
51
301.427094
0
ARC
8
0
62
3
10
5.131989
20
40.714935
30
0.0
40
19.448009
50
292.346283
51
293.863739
0
ARC
8
0
62
3
10
11.326538
20
25.642151
30
0.0
40
3.151974
50
283.581696
51
292.371429
0
LINE
8
0
62
3
10
12.066711
20
22.578339
30
0.0
11
11.597778
21
22.480499
31
0.0
0
ARC
8
0
62
3
10
11.333130
20
23.573303
30
0.0
40
1.124414
50
261.719360
51
283.613708
0
LINE
8
0
62
3
10
11.171173
20
22.460632
30
0.0
11
9.818573
21
22.659241
31
0.0
0
ARC
8
0
62
3
10
9.743317
20
22.146729
30
0.0
40
0.518000
50
81.646027
51
169.230560
0
ARC
8
0
62
8
10
-61.263981
20
0.000006
30
0.0
40
12.000000
50
0.000000
51
90.000000
0
ARC
8
0
62
8
10
-61.263981
20
0.000006
30
0.0
40
12.000000
50
90.000000
51
180.000000
0
LINE
8
0
62
3
10
74.214165
20
12.000003
30
0.0
11
78.214104
21
12.000003
31
0.0
0
ARC
8
0
62
3
10
0.000000
20
0.000000
30
0.0
40
7.500000
50
0.000000
51
90.000000
0
ARC
8
0
62
3
10
0.000000
20
0.000000
30
0.0
40
7.500000
50
90.000000
51
180.000000
0
ARC
8
0
62
8
10
-61.263981
20
24.000006
30
0.0
40
12.000000
50
-0.000000
51
90.000000
0
ARC
8
0
62
8
10
-61.263981
20
24.000006
30
0.0
40
12.000000
50
90.000000
51
180.000000
0
ARC
8
0
62
8
10
-61.263981
20
24.000006
30
0.0
40
12.000000
50
180.000000
51
270.000000
0
ARC
8
0
62
8
10
-61.263981
20
24.000006
30
0.0
40
12.000000
50
270.000000
51
-0.000000
0
LINE
8
0
62
5
10
63.214134
20
12.000003
30
0.0
11
63.214134
21
36.000034
31
0.0
0
LINE
8
0
62
1
10
63.214134
20
12.000003
30
0.0
11
64.214134
21
12.000003
31
0.0
0
LINE
8
0
62
1
10
64.214134
20
41.500004
30
0.0
11
78.214104
21
41.500004
31
0.0
0
LINE
8
0
62
1
10
64.214134
20
41.500004
30
0.0
11
64.214134
21
12.000003
31
0.0
0
LINE
8
0
62
9
10
58.214165
20
18.900007
30
0.0
11
54.214165
21
18.900007
31
0.0
0
LINE
8
0
62
5
10
63.214134
20
36.000034
30
0.0
11
59.214165
21
36.000034
31
0.0
0
LINE
8
0
62
5
10
59.214165
20
12.000003
30
0.0
11
59.214165
21
36.000034
31
0.0
0
LINE
8
0
62
5
10
59.214165
20
12.000003
30
0.0
11
63.214134
21
12.000003
31
0.0
0
LINE
8
0
62
3
10
58.214165
20
7.500003
30
0.0
11
59.214165
21
7.500003
31
0.0
0
LINE
8
0
62
3
10
59.214165
20
7.500003
30
0.0
11
64.214134
21
7.500003
31
0.0
0
LINE
8
0
62
1
10
59.214165
20
12.000003
30
0.0
11
59.214165
21
7.500003
31
0.0
0
ARC
8
0
62
1
10
0.000000
20
0.000000
30
0.0
40
7.600000
50
180.000000
51
0.000000
0
ARC
8
0
62
1
10
0.000000
20
0.000000
30
0.0
40
7.600000
50
0.000000
51
90.000000
0
ARC
8
0
62
1
10
0.000000
20
0.000000
30
0.0
40
7.600000
50
90.000000
51
180.000000
0
LINE
8
0
62
3
10
134.246231
20
83.452087
30
0.0
11
153.046234
21
83.452087
31
0.0
0
ARC
8
0
62
3
10
0.000000
20
0.000000
30
0.0
40
3.000000
50
0.000000
51
180.000000
0
ARC
8
0
62
3
10
0.000000
20
0.000000
30
0.0
40
3.000000
50
180.000000
51
0.000000
0
ARC
8
0
62
3
10
0.000000
20
0.000000
30
0.0
40
1.700000
50
0.000000
51
180.000000
0
ARC
8
0
62
3
10
0.000000
20
0.000000
30
0.0
40
1.700000
50
180.000000
51
0.000000
0
LINE
8
0
62
2
10
3.117692
20
24.000000
30
0.0
11
1.558846
21
26.700001
31
0.0
0
LINE
8
0
62
2
10
1.558846
20
26.700001
30
0.0
11
-1.558846
21
26.700001
31
0.0
0
LINE
8
0
62
2
10
-1.558846
20
26.700001
30
0.0
11
-3.117692
21
24.000000
31
0.0
0
LINE
8
0
62
2
10
-3.117692
20
24.000000
30
0.0
11
-1.558846
21
21.299999
31
0.0
0
LINE
8
0
62
2
10
-1.558846
20
21.299999
30
0.0
11
1.558846
21
21.299999
31
0.0
0
LINE
8
0
62
2
10
1.558846
20
21.299999
30
0.0
11
3.117692
21
24.000000
31
0.0
0
LINE
8
0
62
2
10
69.214134
20
21.299999
30
0.0
11
71.714134
21
21.299999
31
0.0
0
LINE
8
0
62
2
10
71.714134
20
26.700001
30
0.0
11
69.214134
21
26.700001
31
0.0
0
LINE
8
0
62
3
10
74.814102
20
3.000003
30
0.0
11
74.814102
21
1.700003
31
0.0
0
LINE
8
0
62
2
10
71.714134
20
26.700001
30
0.0
11
71.714134
21
25.700001
31
0.0
0
LINE
8
0
62
2
10
71.714134
20
22.299999
30
0.0
11
71.714134
21
21.299999
31
0.0
0
LINE
8
0
62
2
10
75.714134
20
21.000002
30
0.0
11
80.214134
21
21.000002
31
0.0
0
LINE
8
0
62
2
10
75.714134
20
27.000002
30
0.0
11
80.214134
21
27.000002
31
0.0
0
LINE
8
0
62
2
10
75.714134
20
22.300001
30
0.0
11
75.714134
21
21.000002
31
0.0
0
ARC
8
0
62
2
10
0.000000
20
24.000000
30
0.0
40
5.000000
50
0.000000
51
180.000000
0
ARC
8
0
62
2
10
0.000000
20
24.000000
30
0.0
40
5.000000
50
180.000000
51
0.000000
0
LINE
8
0
62
2
10
69.214134
20
31.500017
30
0.0
11
73.214134
21
31.500017
31
0.0
0
LINE
8
0
62
3
10
64.214134
20
7.500003
30
0.0
11
69.214134
21
7.500003
31
0.0
0
LINE
8
0
62
3
10
69.214134
20
7.500003
30
0.0
11
74.214165
21
7.500003
31
0.0
0
LINE
8
0
62
2
10
69.214134
20
31.500017
30
0.0
11
69.214134
21
7.500003
31
0.0
0
LINE
8
0
62
1
10
68.214134
20
-31.500013
30
0.0
11
68.214134
21
-36.000027
31
0.0
0
LINE
8
0
62
1
10
68.214134
20
-36.000027
30
0.0
11
78.214104
21
-36.000027
31
0.0
0
LINE
8
0
62
1
10
78.214104
20
-41.499996
30
0.0
11
78.214104
21
-36.000027
31
0.0
0
LINE
8
0
62
1
10
68.214134
20
-31.500013
30
0.0
11
68.214134
21
-7.499997
31
0.0
0
LINE
8
0
62
5
10
74.214165
20
-36.000027
30
0.0
11
74.214165
21
-11.999997
31
0.0
0
LINE
8
0
62
5
10
78.214104
20
-11.999997
30
0.0
11
78.214104
21
-36.000027
31
0.0
0
LINE
8
0
62
3
10
74.214165
20
-7.499997
30
0.0
11
74.214165
21
-11.999997
31
0.0
0
LINE
8
0
62
0
10
74.214165
20
-11.999997
30
0.0
11
78.214104
21
-11.999997
31
0.0
0
LINE
8
0
62
1
10
59.214165
20
-11.999997
30
0.0
11
64.214134
21
-11.999997
31
0.0
0
LINE
8
0
62
1
10
64.214134
20
-41.499996
30
0.0
11
64.214134
21
-11.999997
31
0.0
0
LINE
8
0
62
1
10
59.214165
20
-11.999997
30
0.0
11
59.214165
21
-7.499997
31
0.0
0
LINE
8
0
62
3
10
78.214104
20
0.000003
30
0.0
11
78.214104
21
-11.999997
31
0.0
0
LINE
8
0
62
3
10
78.214134
20
-2.999997
30
0.0
11
74.814102
21
-2.999997
31
0.0
0
LINE
8
0
62
3
10
74.814102
20
-2.999997
30
0.0
11
74.814102
21
-1.699997
31
0.0
0
LINE
8
0
62
2
10
73.214134
20
29.000000
30
0.0
11
79.214134
21
29.000000
31
0.0
0
LINE
8
0
62
2
10
73.214134
20
29.000000
30
0.0
11
73.214134
21
31.500017
31
0.0
0
LINE
8
0
62
2
10
73.214134
20
7.500003
30
0.0
11
73.214134
21
19.000000
31
0.0
0
LINE
8
0
62
3
10
69.214134
20
-7.499997
30
0.0
11
74.214165
21
-7.499997
31
0.0
0
LINE
8
0
62
8
10
58.214165
20
0.000003
30
0.0
11
58.214165
21
-7.499997
31
0.0
0
LINE
8
0
62
3
10
69.214134
20
-7.499997
30
0.0
11
58.214165
21
-7.499997
31
0.0
0
ARC
8
0
62
2
10
0.000000
20
24.000000
30
0.0
40
1.700000
50
0.000000
51
180.000000
0
ARC
8
0
62
2
10
0.000000
20
24.000000
30
0.0
40
1.700000
50
180.000000
51
0.000000
0
ARC
8
0
62
3
10
0.000000
20
24.000000
30
0.0
40
5.100000
50
0.000000
51
180.000000
0
LINE
8
0
62
2
10
79.214134
20
29.000000
30
0.0
11
79.214134
21
30.000000
31
0.0
0
LINE
8
0
62
2
10
79.214134
20
30.000000
30
0.0
11
80.214134
21
30.000000
31
0.0
0
LINE
8
0
62
2
10
73.214134
20
19.000000
30
0.0
11
79.214134
21
19.000000
31
0.0
0
LINE
8
0
62
2
10
79.214134
20
19.000000
30
0.0
11
79.214134
21
18.000000
31
0.0
0
LINE
8
0
62
2
10
79.214134
20
18.000000
30
0.0
11
80.214134
21
18.000000
31
0.0
0
LINE
8
0
62
9
10
54.214165
20
-2.699998
30
0.0
11
56.714165
21
-2.699998
31
0.0
0
LINE
8
0
62
9
10
56.714165
20
2.700004
30
0.0
11
54.214165
21
2.700004
31
0.0
0
LINE
8
0
62
3
10
74.814102
20
1.700003
30
0.0
11
58.214165
21
1.700003
31
0.0
0
LINE
8
0
62
9
10
56.714165
20
2.700004
30
0.0
11
56.714165
21
1.700003
31
0.0
0
LINE
8
0
62
9
10
58.214165
20
1.700003
30
0.0
11
56.714165
21
1.700003
31
0.0
0
LINE
8
0
62
3
10
74.814102
20
-1.699997
30
0.0
11
58.214165
21
-1.699997
31
0.0
0
LINE
8
0
62
9
10
56.714165
20
1.700003
30
0.0
11
56.714165
21
-1.699997
31
0.0
0
LINE
8
0
62
9
10
56.714165
20
-1.699997
30
0.0
11
56.714165
21
-2.699998
31
0.0
0
LINE
8
0
62
9
10
58.214165
20
-1.699997
30
0.0
11
56.714165
21
-1.699997
31
0.0
0
LINE
8
0
62
9
10
3.117692
20
0.000000
30
0.0
11
1.558846
21
2.700001
31
0.0
0
LINE
8
0
62
9
10
1.558846
20
2.700001
30
0.0
11
-1.558846
21
2.700001
31
0.0
0
LINE
8
0
62
9
10
-1.558846
20
2.700001
30
0.0
11
-3.117692
21
0.000000
31
0.0
0
LINE
8
0
62
9
10
-3.117692
20
0.000000
30
0.0
11
-1.558846
21
-2.700001
31
0.0
0
LINE
8
0
62
9
10
-1.558846
20
-2.700001
30
0.0
11
1.558846
21
-2.700001
31
0.0
0
LINE
8
0
62
9
10
1.558846
20
-2.700001
30
0.0
11
3.117692
21
0.000000
31
0.0
0
ARC
8
0
62
2
10
0.000000
20
24.000000
30
0.0
40
3.000000
50
0.000000
51
180.000000
0
ARC
8
0
62
2
10
0.000000
20
24.000000
30
0.0
40
3.000000
50
180.000000
51
0.000000
0
LINE
8
0
62
1
10
64.214134
20
-41.499996
30
0.0
11
78.214104
21
-41.499996
31
0.0
0
LINE
8
0
62
8
10
54.214165
20
-17.999998
30
0.0
11
54.214165
21
18.900007
31
0.0
0
LINE
8
0
62
2
10
-24.000000
20
3.117691
30
0.0
11
-26.700001
21
1.558844
31
0.0
0
LINE
8
0
62
2
10
-3.117690
20
-24.000000
30
0.0
11
-1.558843
21
-26.700001
31
0.0
0
LINE
8
0
62
2
10
24.000000
20
-3.117689
30
0.0
11
26.700001
21
-1.558842
31
0.0
0
LINE
8
0
62
2
10
-26.700001
20
1.558844
30
0.0
11
-26.700001
21
-1.558847
31
0.0
0
LINE
8
0
62
2
10
-1.558843
20
-26.700001
30
0.0
11
1.558848
21
-26.700001
31
0.0
0
LINE
8
0
62
2
10
26.700001
20
-1.558842
30
0.0
11
26.700001
21
1.558850
31
0.0
0
LINE
8
0
62
2
10
-26.700001
20
-1.558847
30
0.0
11
-24.000000
21
-3.117692
31
0.0
0
LINE
8
0
62
2
10
1.558848
20
-26.700001
30
0.0
11
3.117693
21
-24.000000
31
0.0
0
LINE
8
0
62
2
10
26.700001
20
1.558850
30
0.0
11
24.000000
21
3.117694
31
0.0
0
LINE
8
0
62
2
10
-24.000000
20
-3.117692
30
0.0
11
-21.299999
21
-1.558846
31
0.0
0
LINE
8
0
62
2
10
3.117693
20
-24.000000
30
0.0
11
1.558847
21
-21.299999
31
0.0
0
LINE
8
0
62
2
10
24.000000
20
3.117694
30
0.0
11
21.299999
21
1.558848
31
0.0
0
LINE
8
0
62
2
10
-21.299999
20
-1.558846
30
0.0
11
-21.299999
21
1.558845
31
0.0
0
LINE
8
0
62
2
10
1.558847
20
-21.299999
30
0.0
11
-1.558844
21
-21.299999
31
0.0
0
LINE
8
0
62
2
10
21.299999
20
1.558848
30
0.0
11
21.299999
21
-1.558843
31
0.0
0
LINE
8
0
62
2
10
-21.299999
20
1.558845
30
0.0
11
-24.000000
21
3.117691
31
0.0
0
LINE
8
0
62
2
10
-1.558844
20
-21.299999
30
0.0
11
-3.117690
21
-24.000000
31
0.0
0
LINE
8
0
62
2
10
21.299999
20
-1.558843
30
0.0
11
24.000000
21
-3.117689
31
0.0
0
ARC
8
0
62
2
10
-24.000000
20
-0.000001
30
0.0
40
1.700000
50
90.000000
51
270.000000
0
ARC
8
0
62
2
10
0.000002
20
-24.000000
30
0.0
40
1.700000
50
180.000000
51
0.000000
0
ARC
8
0
62
2
10
24.000000
20
0.000003
30
0.0
40
1.700000
50
270.000000
51
90.000000
0
ARC
8
0
62
2
10
-24.000000
20
-0.000001
30
0.0
40
1.700000
50
270.000000
51
90.000000
0
ARC
8
0
62
2
10
0.000002
20
-24.000000
30
0.0
40
1.700000
50
0.000000
51
180.000000
0
ARC
8
0
62
2
10
24.000000
20
0.000003
30
0.0
40
1.700000
50
90.000000
51
270.000000
0
ARC
8
0
62
2
10
-24.000000
20
-0.000001
30
0.0
40
3.000000
50
90.000000
51
270.000000
0
ARC
8
0
62
2
10
0.000002
20
-24.000000
30
0.0
40
3.000000
50
180.000000
51
0.000000
0
ARC
8
0
62
2
10
24.000000
20
0.000003
30
0.0
40
3.000000
50
270.000000
51
90.000000
0
ARC
8
0
62
2
10
-24.000000
20
-0.000001
30
0.0
40
3.000000
50
270.000000
51
90.000000
0
ARC
8
0
62
2
10
0.000002
20
-24.000000
30
0.0
40
3.000000
50
0.000000
51
180.000000
0
ARC
8
0
62
2
10
24.000000
20
0.000003
30
0.0
40
3.000000
50
90.000000
51
270.000000
0
LINE
8
0
62
2
10
73.214134
20
25.700001
30
0.0
11
71.714134
21
25.700001
31
0.0
0
LINE
8
0
62
2
10
73.214134
20
25.700001
30
0.0
11
75.714134
21
25.700003
31
0.0
0
LINE
8
0
62
2
10
73.214134
20
25.700001
30
0.0
11
73.214134
21
29.000000
31
0.0
0
LINE
8
0
62
2
10
73.214134
20
22.299999
30
0.0
11
71.714134
21
22.299999
31
0.0
0
LINE
8
0
62
2
10
73.214134
20
22.299999
30
0.0
11
75.714134
21
22.300001
31
0.0
0
LINE
8
0
62
2
10
73.214134
20
22.299999
30
0.0
11
73.214134
21
19.000000
31
0.0
0
LINE
8
0
62
2
10
73.214134
20
22.299999
30
0.0
11
73.214134
21
24.000000
31
0.0
0
LINE
8
0
62
2
10
73.214134
20
24.000000
30
0.0
11
73.214134
21
25.700001
31
0.0
0
LINE
8
0
62
2
10
80.214134
20
24.000000
30
0.0
11
80.214134
21
18.000000
31
0.0
0
LINE
8
0
62
0
10
73.214134
20
24.000000
30
0.0
11
80.214134
21
24.000000
31
0.0
0
LINE
8
0
62
2
10
80.214134
20
27.000002
30
0.0
11
80.214134
21
30.000000
31
0.0
0
LINE
8
0
62
2
10
80.214134
20
27.000002
30
0.0
11
80.214134
21
24.000000
31
0.0
0
LINE
8
0
62
3
10
78.214104
20
3.000003
30
0.0
11
78.214134
21
3.000003
31
0.0
0
LINE
8
0
62
3
10
78.214104
20
3.000003
30
0.0
11
74.814102
21
3.000003
31
0.0
0
LINE
8
0
62
3
10
78.214104
20
3.000003
30
0.0
11
78.214104
21
0.000003
31
0.0
0
LINE
8
0
62
3
10
78.214104
20
3.000003
30
0.0
11
78.214104
21
12.000003
31
0.0
0
LINE
8
0
62
8
10
58.214165
20
1.700003
30
0.0
11
58.214165
21
0.000003
31
0.0
0
LINE
8
0
62
8
10
58.214165
20
7.500003
30
0.0
11
58.214165
21
1.700003
31
0.0
0
ARC
8
0
62
9
10
0.000000
20
0.000000
30
0.0
40
18.000000
50
0.000000
51
180.000000
0
ARC
8
0
62
9
10
0.000000
20
0.000000
30
0.0
40
18.000000
50
180.000000
51
270.000000
0
ARC
8
0
62
9
10
0.000000
20
0.000000
30
0.0
40
18.000000
50
270.000000
51
0.000000
0
LINE
8
0
62
9
10
58.214165
20
-7.499997
30
0.0
11
58.214165
21
-17.999998
31
0.0
0
LINE
8
0
62
9
10
54.214165
20
-17.999998
30
0.0
11
58.214165
21
-17.999998
31
0.0
0
ARC
8
0
62
3
10
0.000000
20
24.000000
30
0.0
40
5.100000
50
180.000000
51
270.000000
0
ARC
8
0
62
3
10
0.000000
20
24.000000
30
0.0
40
5.100000
50
270.000000
51
0.000000
0
LINE
8
0
62
9
10
58.214165
20
7.500003
30
0.0
11
58.214165
21
18.900002
31
0.0
0
LINE
8
0
62
2
10
75.714134
20
27.000002
30
0.0
11
75.714134
21
25.700003
31
0.0
0
LINE
8
0
62
3
10
153.046234
20
29.452091
30
0.0
11
153.046234
21
83.452087
31
0.0
0
LINE
8
0
62
0
10
134.246231
20
29.452091
30
0.0
11
153.046234
21
83.452087
31
0.0
0
LINE
8
0
62
3
10
134.246231
20
83.452087
30
0.0
11
134.246231
21
29.452091
31
0.0
0
LINE
8
0
62
3
10
153.046234
20
29.452091
30
0.0
11
134.246231
21
29.452091
31
0.0
0
LINE
8
0
62
0
10
134.246231
20
83.452087
30
0.0
11
153.046234
21
29.452091
31
0.0
0
LINE
8
0
62
7
10
7.957153
20
77.305878
30
0.0
11
7.957153
21
80.305862
31
0.0
0
LINE
8
0
62
7
10
7.957153
20
77.305878
30
0.0
11
7.957153
21
75.305878
31
0.0
0
LINE
8
0
62
7
10
19.957153
20
77.305878
30
0.0
11
19.957153
21
75.305878
31
0.0
0
LINE
8
0
62
7
10
19.957153
20
77.305878
30
0.0
11
19.957153
21
81.805878
31
0.0
0
CIRCLE
8
0
62
0
10
37.141525
20
75.305878
30
0.0
40
2.000000
0
CIRCLE
8
0
62
0
10
45.141541
20
75.305878
30
0.0
40
1.500000
0
CIRCLE
8
0
62
0
10
37.141525
20
83.305893
30
0.0
40
1.500000
0
CIRCLE
8
0
62
0
10
29.141510
20
75.305878
30
0.0
40
1.500000
0
CIRCLE
8
0
62
0
10
37.141525
20
67.305862
30
0.0
40
1.500000
0
CIRCLE
8
0
62
0
10
37.141525
20
75.305878
30
0.0
40
5.000000
0
CIRCLE
8
0
62
0
10
37.141525
20
75.305878
30
0.0
40
11.000000
0
ENDSEC
0
EOF
