  0
SECTION
  2
HEADER
  9
$ACADVER
  1
AC1003
  9
$EXTMIN
 10
0
 20
0.06400513900152
  9
$EXTMAX
 10
0.512570200169232
 20
0
  9
$INSUNITS
 70
1
  9
$INSBASE
 10
0.256285100084616
 20
0.03200256950076
999
Created with OMAX LAYOUT for Windows. (www.omax.com) 2/20/2024
  0
ENDSEC
  0
SECTION
  2
TABLES
  0
TABLE
  2
LAYER
 70
    10
  0
LAYER
  2
0
 70
     0
 62
     7
  6
CONTINUOUS
  0
LAYER
  2
1
 70
     0
 62
     7
  6
CONTINUOUS
  0
LAYER
  2
2
 70
     0
 62
     7
  6
CONTINUOUS
  0
LAYER
  2
3
 70
     0
 62
     7
  6
CONTINUOUS
  0
LAYER
  2
4
 70
     0
 62
     7
  6
CONTINUOUS
  0
LAYER
  2
5
 70
     0
 62
     7
  6
CONTINUOUS
  0
LAYER
  2
6
 70
     0
 62
     7
  6
CONTINUOUS
  0
LAYER
  2
7
 70
     0
 62
     7
  6
CONTINUOUS
  0
LAYER
  2
8
 70
     0
 62
     7
  6
CONTINUOUS
  0
LAYER
  2
9
 70
     0
 62
     7
  6
CONTINUOUS
  0
LAYER
  2
10
 70
     0
 62
     7
  6
CONTINUOUS
  0
LAYER
  2
11
 70
     0
 62
     7
  6
CONTINUOUS
  0
LAYER
  2
12
 70
     0
 62
     7
  6
CONTINUOUS
  0
LAYER
  2
13
 70
     0
 62
     7
  6
CONTINUOUS
  0
LAYER
  2
14
 70
     0
 62
     7
  6
CONTINUOUS
  0
LAYER
  2
15
 70
     0
 62
     7
  6
CONTINUOUS
  0
LAYER
  2
16
 70
     0
 62
     7
  6
CONTINUOUS
  0
LAYER
  2
17
 70
     0
 62
     7
  6
CONTINUOUS
  0
LAYER
  2
18
 70
     0
 62
     7
  6
CONTINUOUS
  0
LAYER
  2
19
 70
     0
 62
     7
  6
CONTINUOUS
  0
LAYER
  2
20
 70
     0
 62
     7
  6
CONTINUOUS
  0
LAYER
  2
21
 70
     0
 62
     7
  6
CONTINUOUS
  0
LAYER
  2
22
 70
     0
 62
     7
  6
CONTINUOUS
  0
LAYER
  2
23
 70
     0
 62
     7
  6
CONTINUOUS
  0
LAYER
  2
24
 70
     0
 62
     7
  6
CONTINUOUS
  0
LAYER
  2
25
 70
     0
 62
     7
  6
CONTINUOUS
  0
LAYER
  2
26
 70
     0
 62
     7
  6
CONTINUOUS
  0
LAYER
  2
27
 70
     0
 62
     7
  6
CONTINUOUS
  0
LAYER
  2
28
 70
     0
 62
     7
  6
CONTINUOUS
  0
LAYER
  2
29
 70
     0
 62
     7
  6
CONTINUOUS
  0
LAYER
  2
30
 70
     0
 62
     7
  6
CONTINUOUS
  0
LAYER
  2
31
 70
     0
 62
     7
  6
CONTINUOUS
  0
ENDTAB
  0
ENDSEC
  0
SECTION
  2
ENTITIES
  0
LINE
  8
2
  6
CONTINUOUS
 62
2
 10
0.0273909841316959
 20
0.02934720871245
 30
0.0
 11
0.00866438657223889
 21
0.02934720871245
 31
0.0
  0
LINE
  8
2
  6
CONTINUOUS
 62
2
 10
0.00866438657223889
 20
0.02934720871245
 30
0.0
 11
0.00866438657223889
 21
0
 31
0.0
  0
LINE
  8
2
  6
CONTINUOUS
 62
2
 10
0.00866438657223889
 20
0
 30
0.0
 11
0
 21
0
 31
0.0
  0
LINE
  8
2
  6
CONTINUOUS
 62
2
 10
0
 20
0
 30
0.0
 11
0
 21
0.06400513900152
 31
0.0
  0
LINE
  8
2
  6
CONTINUOUS
 62
2
 10
0
 20
0.06400513900152
 30
0.0
 11
0.00866438657223889
 21
0.06400513900152
 31
0.0
  0
LINE
  8
2
  6
CONTINUOUS
 62
2
 10
0.00866438657223889
 20
0.06400513900152
 30
0.0
 11
0.00866438657223889
 21
0.0366144108699
 31
0.0
  0
LINE
  8
2
  6
CONTINUOUS
 62
2
 10
0.00866438657223889
 20
0.0366144108699
 30
0.0
 11
0.0273909841316959
 21
0.0366144108699
 31
0.0
  0
LINE
  8
2
  6
CONTINUOUS
 62
2
 10
0.0273909841316959
 20
0.0366144108699
 30
0.0
 11
0.0273909841316959
 21
0.06400513900152
 31
0.0
  0
LINE
  8
2
  6
CONTINUOUS
 62
2
 10
0.0273909841316959
 20
0.06400513900152
 30
0.0
 11
0.0360550507038405
 21
0.06400513900152
 31
0.0
  0
LINE
  8
2
  6
CONTINUOUS
 62
2
 10
0.0360550507038405
 20
0.06400513900152
 30
0.0
 11
0.0360550507038405
 21
0
 31
0.0
  0
LINE
  8
2
  6
CONTINUOUS
 62
2
 10
0.0360550507038405
 20
0
 30
0.0
 11
0.0273909841316959
 21
0
 31
0.0
  0
LINE
  8
2
  6
CONTINUOUS
 62
2
 10
0.0273909841316959
 20
0
 30
0.0
 11
0.0273909841316959
 21
0.02934720871245
 31
0.0
  0
LINE
  8
2
  6
CONTINUOUS
 62
2
 10
0.069746895052772
 20
0.02180096647216
 30
0.0
 11
0.0626046905857619
 21
0.05590017659536
 31
0.0
  0
LINE
  8
2
  6
CONTINUOUS
 62
2
 10
0.0626046905857619
 20
0.05590017659536
 30
0.0
 11
0.0505862550177906
 21
0
 31
0.0
  0
LINE
  8
2
  6
CONTINUOUS
 62
2
 10
0.0505862550177906
 20
0
 30
0.0
 11
0.0422013565285239
 21
0
 31
0.0
  0
LINE
  8
2
  6
CONTINUOUS
 62
2
 10
0.0422013565285239
 20
0
 30
0.0
 11
0.0570147369262449
 21
0.06400513900152
 31
0.0
  0
LINE
  8
2
  6
CONTINUOUS
 62
2
 10
0.0570147369262449
 20
0.06400513900152
 30
0.0
 11
0.0687535564112059
 21
0.06400513900152
 31
0.0
  0
LINE
  8
2
  6
CONTINUOUS
 62
2
 10
0.0687535564112059
 20
0.06400513900152
 30
0.0
 11
0.0835671288089833
 21
0
 31
0.0
  0
LINE
  8
2
  6
CONTINUOUS
 62
2
 10
0.0835671288089833
 20
0
 30
0.0
 11
0.0743435740707419
 21
0
 31
0.0
  0
LINE
  8
2
  6
CONTINUOUS
 62
2
 10
0.0743435740707419
 20
0
 30
0.0
 11
0.0712690771580009
 21
0.0145344043149
 31
0.0
  0
LINE
  8
2
  6
CONTINUOUS
 62
2
 10
0.0712690771580009
 20
0.0145344043149
 30
0.0
 11
0.0581326892581376
 21
0.0145344043149
 31
0.0
  0
LINE
  8
2
  6
CONTINUOUS
 62
2
 10
0.0581326892581376
 20
0.0145344043149
 30
0.0
 11
0.0596702257145929
 21
0.02180096647216
 31
0.0
  0
LINE
  8
2
  6
CONTINUOUS
 62
2
 10
0.0596702257145929
 20
0.02180096647216
 30
0.0
 11
0.069746895052772
 21
0.02180096647216
 31
0.0
  0
LINE
  8
2
  6
CONTINUOUS
 62
2
 10
0.113191201603627
 20
0.05673793684407
 30
0.0
 11
0.113191201603627
 21
0
 31
0.0
  0
LINE
  8
2
  6
CONTINUOUS
 62
2
 10
0.113191201603627
 20
0
 30
0.0
 11
0.10452675103137
 21
0
 31
0.0
  0
LINE
  8
2
  6
CONTINUOUS
 62
2
 10
0.10452675103137
 20
0
 30
0.0
 11
0.10452675103137
 21
0.05673793684407
 31
0.0
  0
LINE
  8
2
  6
CONTINUOUS
 62
2
 10
0.10452675103137
 20
0.05673793684407
 30
0.0
 11
0.089713242633611
 21
0.05673793684407
 31
0.0
  0
LINE
  8
2
  6
CONTINUOUS
 62
2
 10
0.089713242633611
 20
0.05673793684407
 30
0.0
 11
0.089713242633611
 21
0.06400513900152
 31
0.0
  0
LINE
  8
2
  6
CONTINUOUS
 62
2
 10
0.089713242633611
 20
0.06400513900152
 30
0.0
 11
0.128284070084321
 21
0.06400513900152
 31
0.0
  0
LINE
  8
2
  6
CONTINUOUS
 62
2
 10
0.128284070084321
 20
0.06400513900152
 30
0.0
 11
0.128284070084321
 21
0.05673793684407
 31
0.0
  0
LINE
  8
2
  6
CONTINUOUS
 62
2
 10
0.128284070084321
 20
0.05673793684407
 30
0.0
 11
0.113191201603627
 21
0.05673793684407
 31
0.0
  0
LINE
  8
3
  6
CONTINUOUS
 62
3
 10
0.211151793723209
 20
0.0125755443505681
 30
0.0
 11
0.218838528967669
 21
0.06400513900152
 31
0.0
  0
LINE
  8
3
  6
CONTINUOUS
 62
3
 10
0.218838528967669
 20
0.06400513900152
 30
0.0
 11
0.227223875457068
 21
0.06400513900152
 31
0.0
  0
LINE
  8
3
  6
CONTINUOUS
 62
3
 10
0.227223875457068
 20
0.06400513900152
 30
0.0
 11
0.216322752220797
 21
0
 31
0.0
  0
LINE
  8
3
  6
CONTINUOUS
 62
3
 10
0.216322752220797
 20
0
 30
0.0
 11
0.206260669233618
 21
0
 31
0.0
  0
LINE
  8
3
  6
CONTINUOUS
 62
3
 10
0.206260669233618
 20
0
 30
0.0
 11
0.198434874910335
 21
0.05254593559957
 31
0.0
  0
LINE
  8
3
  6
CONTINUOUS
 62
3
 10
0.198434874910335
 20
0.05254593559957
 30
0.0
 11
0.190608952587016
 21
0
 31
0.0
  0
LINE
  8
3
  6
CONTINUOUS
 62
3
 10
0.190608952587016
 20
0
 30
0.0
 11
0.180267381516862
 21
0
 31
0.0
  0
LINE
  8
3
  6
CONTINUOUS
 62
3
 10
0.180267381516862
 20
0
 30
0.0
 11
0.169367090280839
 21
0.06400513900152
 31
0.0
  0
LINE
  8
3
  6
CONTINUOUS
 62
3
 10
0.169367090280839
 20
0.06400513900152
 30
0.0
 11
0.178031796853173
 21
0.06400513900152
 31
0.0
  0
LINE
  8
3
  6
CONTINUOUS
 62
3
 10
0.178031796853173
 20
0.06400513900152
 30
0.0
 11
0.185578167093501
 21
0.01257728373388
 31
0.0
  0
LINE
  8
3
  6
CONTINUOUS
 62
3
 10
0.185578167093501
 20
0.01257728373388
 30
0.0
 11
0.193124473333811
 21
0.06400513900152
 31
0.0
  0
LINE
  8
3
  6
CONTINUOUS
 62
3
 10
0.193124473333811
 20
0.06400513900152
 30
0.0
 11
0.203745148486823
 21
0.06400513900152
 31
0.0
  0
LINE
  8
3
  6
CONTINUOUS
 62
3
 10
0.203745148486823
 20
0.06400513900152
 30
0.0
 11
0.211151793723209
 21
0.0125755443505681
 31
0.0
  0
LINE
  8
3
  6
CONTINUOUS
 62
3
 10
0.233369093281429
 20
0.03200256950076
 30
0.0
 11
0.233369093281429
 21
0.06400513900152
 31
0.0
  0
LINE
  8
3
  6
CONTINUOUS
 62
3
 10
0.233369093281429
 20
0.06400513900152
 30
0.0
 11
0.242033287853611
 21
0.06400513900152
 31
0.0
  0
LINE
  8
3
  6
CONTINUOUS
 62
3
 10
0.242033287853611
 20
0.06400513900152
 30
0.0
 11
0.242033287853611
 21
5.55111512312578E-17
 31
0.0
  0
LINE
  8
3
  6
CONTINUOUS
 62
3
 10
0.242033287853611
 20
5.55111512312578E-17
 30
0.0
 11
0.233369093281429
 21
5.55111512312578E-17
 31
0.0
  0
LINE
  8
3
  6
CONTINUOUS
 62
3
 10
0.233369093281429
 20
5.55111512312578E-17
 30
0.0
 11
0.233369093281429
 21
0.03200256950076
 31
0.0
  0
LINE
  8
3
  6
CONTINUOUS
 62
3
 10
0.27165697664814
 20
0.05673793684407
 30
0.0
 11
0.27165697664814
 21
0
 31
0.0
  0
LINE
  8
3
  6
CONTINUOUS
 62
3
 10
0.27165697664814
 20
0
 30
0.0
 11
0.262992526075883
 21
0
 31
0.0
  0
LINE
  8
3
  6
CONTINUOUS
 62
3
 10
0.262992526075883
 20
0
 30
0.0
 11
0.262992526075883
 21
0.05673793684407
 31
0.0
  0
LINE
  8
3
  6
CONTINUOUS
 62
3
 10
0.262992526075883
 20
0.05673793684407
 30
0.0
 11
0.248179017678124
 21
0.05673793684407
 31
0.0
  0
LINE
  8
3
  6
CONTINUOUS
 62
3
 10
0.248179017678124
 20
0.05673793684407
 30
0.0
 11
0.248179017678124
 21
0.06400513900152
 31
0.0
  0
LINE
  8
3
  6
CONTINUOUS
 62
3
 10
0.248179017678124
 20
0.06400513900152
 30
0.0
 11
0.286749845128834
 21
0.06400513900152
 31
0.0
  0
LINE
  8
3
  6
CONTINUOUS
 62
3
 10
0.286749845128834
 20
0.06400513900152
 30
0.0
 11
0.286749845128834
 21
0.05673793684407
 31
0.0
  0
LINE
  8
3
  6
CONTINUOUS
 62
3
 10
0.286749845128834
 20
0.05673793684407
 30
0.0
 11
0.27165697664814
 21
0.05673793684407
 31
0.0
  0
LINE
  8
3
  6
CONTINUOUS
 62
3
 10
0.320287071085195
 20
0.02934720871245
 30
0.0
 11
0.301560473525738
 21
0.02934720871245
 31
0.0
  0
LINE
  8
3
  6
CONTINUOUS
 62
3
 10
0.301560473525738
 20
0.02934720871245
 30
0.0
 11
0.301560473525738
 21
0
 31
0.0
  0
LINE
  8
3
  6
CONTINUOUS
 62
3
 10
0.301560473525738
 20
0
 30
0.0
 11
0.292896086953499
 21
0
 31
0.0
  0
LINE
  8
3
  6
CONTINUOUS
 62
3
 10
0.292896086953499
 20
0
 30
0.0
 11
0.292896086953499
 21
0.06400513900152
 31
0.0
  0
LINE
  8
3
  6
CONTINUOUS
 62
3
 10
0.292896086953499
 20
0.06400513900152
 30
0.0
 11
0.301560473525738
 21
0.06400513900152
 31
0.0
  0
LINE
  8
3
  6
CONTINUOUS
 62
3
 10
0.301560473525738
 20
0.06400513900152
 30
0.0
 11
0.301560473525738
 21
0.0366144108699
 31
0.0
  0
LINE
  8
3
  6
CONTINUOUS
 62
3
 10
0.301560473525738
 20
0.0366144108699
 30
0.0
 11
0.320287071085195
 21
0.0366144108699
 31
0.0
  0
LINE
  8
3
  6
CONTINUOUS
 62
3
 10
0.320287071085195
 20
0.0366144108699
 30
0.0
 11
0.320287071085195
 21
0.06400513900152
 31
0.0
  0
LINE
  8
3
  6
CONTINUOUS
 62
3
 10
0.320287071085195
 20
0.06400513900152
 30
0.0
 11
0.32895113765734
 21
0.06400513900152
 31
0.0
  0
LINE
  8
3
  6
CONTINUOUS
 62
3
 10
0.32895113765734
 20
0.06400513900152
 30
0.0
 11
0.32895113765734
 21
0
 31
0.0
  0
LINE
  8
3
  6
CONTINUOUS
 62
3
 10
0.32895113765734
 20
0
 30
0.0
 11
0.320287071085195
 21
0
 31
0.0
  0
LINE
  8
3
  6
CONTINUOUS
 62
3
 10
0.320287071085195
 20
0
 30
0.0
 11
0.320287071085195
 21
0.02934720871245
 31
0.0
  0
LINE
  8
4
  6
CONTINUOUS
 62
4
 10
0.378698992426229
 20
0.05673793684407
 30
0.0
 11
0.378698992426229
 21
0.03633473078687
 31
0.0
  0
LINE
  8
4
  6
CONTINUOUS
 62
4
 10
0.378698992426229
 20
0.03633473078687
 30
0.0
 11
0.397425141985554
 21
0.03633473078687
 31
0.0
  0
LINE
  8
4
  6
CONTINUOUS
 62
4
 10
0.397425141985554
 20
0.03633473078687
 30
0.0
 11
0.397425141985554
 21
0.02906816862961
 31
0.0
  0
LINE
  8
4
  6
CONTINUOUS
 62
4
 10
0.397425141985554
 20
0.02906816862961
 30
0.0
 11
0.378698992426229
 21
0.02906816862961
 31
0.0
  0
LINE
  8
4
  6
CONTINUOUS
 62
4
 10
0.378698992426229
 20
0.02906816862961
 30
0.0
 11
0.378698992426229
 21
0
 31
0.0
  0
LINE
  8
4
  6
CONTINUOUS
 62
4
 10
0.378698992426229
 20
0
 30
0.0
 11
0.370034349853914
 21
0
 31
0.0
  0
LINE
  8
4
  6
CONTINUOUS
 62
4
 10
0.370034349853914
 20
0
 30
0.0
 11
0.370034349853914
 21
0.06400513900152
 31
0.0
  0
LINE
  8
4
  6
CONTINUOUS
 62
4
 10
0.370034349853914
 20
0.06400513900152
 30
0.0
 11
0.397983990151461
 21
0.06400513900152
 31
0.0
  0
LINE
  8
4
  6
CONTINUOUS
 62
4
 10
0.397983990151461
 20
0.06400513900152
 30
0.0
 11
0.397983990151461
 21
0.05673793684407
 31
0.0
  0
LINE
  8
4
  6
CONTINUOUS
 62
4
 10
0.397983990151461
 20
0.05673793684407
 30
0.0
 11
0.378698992426229
 21
0.05673793684407
 31
0.0
  0
LINE
  8
4
  6
CONTINUOUS
 62
4
 10
0.412794874548441
 20
0.05673793684407
 30
0.0
 11
0.412794874548441
 21
0.03633473078687
 31
0.0
  0
LINE
  8
4
  6
CONTINUOUS
 62
4
 10
0.412794874548441
 20
0.03633473078687
 30
0.0
 11
0.431800640190775
 21
0.03633473078687
 31
0.0
  0
LINE
  8
4
  6
CONTINUOUS
 62
4
 10
0.431800640190775
 20
0.03633473078687
 30
0.0
 11
0.431800640190775
 21
0.02906816862961
 31
0.0
  0
LINE
  8
4
  6
CONTINUOUS
 62
4
 10
0.431800640190775
 20
0.02906816862961
 30
0.0
 11
0.412794874548441
 21
0.02906816862961
 31
0.0
  0
LINE
  8
4
  6
CONTINUOUS
 62
4
 10
0.412794874548441
 20
0.02906816862961
 30
0.0
 11
0.412794874548441
 21
0.00726720215744997
 31
0.0
  0
LINE
  8
4
  6
CONTINUOUS
 62
4
 10
0.412794874548441
 20
0.00726720215744997
 30
0.0
 11
0.433477696688652
 21
0.00726720215744997
 31
0.0
  0
LINE
  8
4
  6
CONTINUOUS
 62
4
 10
0.433477696688652
 20
0.00726720215744997
 30
0.0
 11
0.433477696688652
 21
0
 31
0.0
  0
LINE
  8
4
  6
CONTINUOUS
 62
4
 10
0.433477696688652
 20
0
 30
0.0
 11
0.404130295976146
 21
0
 31
0.0
  0
LINE
  8
4
  6
CONTINUOUS
 62
4
 10
0.404130295976146
 20
0
 30
0.0
 11
0.404130295976146
 21
0.06400513900152
 31
0.0
  0
LINE
  8
4
  6
CONTINUOUS
 62
4
 10
0.404130295976146
 20
0.06400513900152
 30
0.0
 11
0.432918592522668
 21
0.06400513900152
 31
0.0
  0
LINE
  8
4
  6
CONTINUOUS
 62
4
 10
0.432918592522668
 20
0.06400513900152
 30
0.0
 11
0.432918592522668
 21
0.05673793684407
 31
0.0
  0
LINE
  8
4
  6
CONTINUOUS
 62
4
 10
0.432918592522668
 20
0.05673793684407
 30
0.0
 11
0.412794874548441
 21
0.05673793684407
 31
0.0
  0
LINE
  8
4
  6
CONTINUOUS
 62
4
 10
0.447729412919629
 20
0.05673793684407
 30
0.0
 11
0.447729412919629
 21
0.03633473078687
 31
0.0
  0
LINE
  8
4
  6
CONTINUOUS
 62
4
 10
0.447729412919629
 20
0.03633473078687
 30
0.0
 11
0.466735178561964
 21
0.03633473078687
 31
0.0
  0
LINE
  8
4
  6
CONTINUOUS
 62
4
 10
0.466735178561964
 20
0.03633473078687
 30
0.0
 11
0.466735178561964
 21
0.02906816862961
 31
0.0
  0
LINE
  8
4
  6
CONTINUOUS
 62
4
 10
0.466735178561964
 20
0.02906816862961
 30
0.0
 11
0.447729412919629
 21
0.02906816862961
 31
0.0
  0
LINE
  8
4
  6
CONTINUOUS
 62
4
 10
0.447729412919629
 20
0.02906816862961
 30
0.0
 11
0.447729412919629
 21
0.00726720215744997
 31
0.0
  0
LINE
  8
4
  6
CONTINUOUS
 62
4
 10
0.447729412919629
 20
0.00726720215744997
 30
0.0
 11
0.46841223505984
 21
0.00726720215744997
 31
0.0
  0
LINE
  8
4
  6
CONTINUOUS
 62
4
 10
0.46841223505984
 20
0.00726720215744997
 30
0.0
 11
0.46841223505984
 21
0
 31
0.0
  0
LINE
  8
4
  6
CONTINUOUS
 62
4
 10
0.46841223505984
 20
0
 30
0.0
 11
0.439064834347334
 21
0
 31
0.0
  0
LINE
  8
4
  6
CONTINUOUS
 62
4
 10
0.439064834347334
 20
0
 30
0.0
 11
0.439064834347334
 21
0.06400513900152
 31
0.0
  0
LINE
  8
4
  6
CONTINUOUS
 62
4
 10
0.439064834347334
 20
0.06400513900152
 30
0.0
 11
0.467853130893856
 21
0.06400513900152
 31
0.0
  0
LINE
  8
4
  6
CONTINUOUS
 62
4
 10
0.467853130893856
 20
0.06400513900152
 30
0.0
 11
0.467853130893856
 21
0.05673793684407
 31
0.0
  0
LINE
  8
4
  6
CONTINUOUS
 62
4
 10
0.467853130893856
 20
0.05673793684407
 30
0.0
 11
0.447729412919629
 21
0.05673793684407
 31
0.0
  0
LINE
  8
4
  6
CONTINUOUS
 62
4
 10
0.497477331688538
 20
0.05673793684407
 30
0.0
 11
0.497477331688538
 21
0
 31
0.0
  0
LINE
  8
4
  6
CONTINUOUS
 62
4
 10
0.497477331688538
 20
0
 30
0.0
 11
0.48881288111628
 21
0
 31
0.0
  0
LINE
  8
4
  6
CONTINUOUS
 62
4
 10
0.48881288111628
 20
0
 30
0.0
 11
0.48881288111628
 21
0.05673793684407
 31
0.0
  0
LINE
  8
4
  6
CONTINUOUS
 62
4
 10
0.48881288111628
 20
0.05673793684407
 30
0.0
 11
0.473999372718521
 21
0.05673793684407
 31
0.0
  0
LINE
  8
4
  6
CONTINUOUS
 62
4
 10
0.473999372718521
 20
0.05673793684407
 30
0.0
 11
0.473999372718521
 21
0.06400513900152
 31
0.0
  0
LINE
  8
4
  6
CONTINUOUS
 62
4
 10
0.473999372718521
 20
0.06400513900152
 30
0.0
 11
0.512570200169232
 21
0.06400513900152
 31
0.0
  0
LINE
  8
4
  6
CONTINUOUS
 62
4
 10
0.512570200169232
 20
0.06400513900152
 30
0.0
 11
0.512570200169232
 21
0.05673793684407
 31
0.0
  0
LINE
  8
4
  6
CONTINUOUS
 62
4
 10
0.512570200169232
 20
0.05673793684407
 30
0.0
 11
0.497477331688538
 21
0.05673793684407
 31
0.0
  0
ENDSEC
  0
EOF
