999
File generated by Conversation
0
SECTION
2
HEADER
0
SECTION
2
HEADER
9
$ACADVER
1
AC1021
9
$INSBASE
10
0.0
20
0.0
30
0.0
9
$INSUNITS
70
4
9
$EXTMIN
10
0.0
20
0.0
30
0.0
9
$EXTMAX
10
1000.0
20
1000.0
30
0.0
0
ENDSEC
0
SECTION
2
TABLES
0
TABLE
2
LTYPE
70
1
0
LTYPE
2
CONTINUOUS
70
64
3
Solid line
72
65
73
0
40
0.0
0
ENDTAB
0
TABLE
2
LAYER
70
1
0
LAYER
2
0
70
64
62
7
6
CONTINUOUS
0
ENDTAB
0
TABLE
2
STYLE
70
1
0
STYLE
2
STANDARD
70
0
40
0.0
41
1.0
50
0.0
71
0
42
0.2
3
txt
4

0
ENDTAB
0
ENDSEC
0
SECTION
2
ENTITIES
0
LINE
8
0
62
0
10
-159.000000
20
-147.000000
30
0.0
11
-159.000000
21
194.299667
31
0.0
0
LINE
8
0
62
0
10
303.417206
20
-222.031967
30
0.0
11
303.417206
21
-228.381958
31
0.0
0
LINE
8
0
62
0
10
297.067200
20
-228.381958
30
0.0
11
297.067200
21
-222.031967
31
0.0
0
LINE
8
0
62
0
10
297.067200
20
-222.031967
30
0.0
11
303.417206
21
-222.031967
31
0.0
0
LINE
8
0
62
0
10
297.067200
20
-228.381958
30
0.0
11
303.417206
21
-228.381958
31
0.0
0
ARC
8
0
62
0
10
234.991486
20
-224.091309
30
0.0
40
5.000000
50
171.962982
51
261.962982
0
ARC
8
0
62
0
10
234.991486
20
-224.091309
30
0.0
40
5.000000
50
278.037018
51
8.037019
0
LINE
8
0
62
0
10
-338.105408
20
-222.706970
30
0.0
11
-308.963501
21
-222.706970
31
0.0
0
LINE
8
0
62
0
10
-143.212723
20
-332.123962
30
0.0
11
-143.212723
21
-338.473969
31
0.0
0
LINE
8
0
62
0
10
-149.562714
20
-338.473969
30
0.0
11
-149.562714
21
-332.123962
31
0.0
0
LINE
8
0
62
0
10
-149.562714
20
-332.123962
30
0.0
11
-143.212723
21
-332.123962
31
0.0
0
LINE
8
0
62
0
10
-149.562714
20
-338.473969
30
0.0
11
-143.212723
21
-338.473969
31
0.0
0
LINE
8
0
62
0
10
-186.730118
20
-356.309937
30
0.0
11
-186.730118
21
-365.626678
31
0.0
0
LINE
8
0
62
0
10
-186.730118
20
-365.626678
30
0.0
11
-104.585861
21
-365.626678
31
0.0
0
LINE
8
0
62
0
10
-104.585861
20
-356.309937
30
0.0
11
-104.585861
21
-365.626678
31
0.0
0
LINE
8
0
62
0
10
63.990902
20
-315.140289
30
0.0
11
-53.307743
21
-315.140289
31
0.0
0
LINE
8
0
62
0
10
63.990902
20
-406.940704
30
0.0
11
-53.307743
21
-406.940704
31
0.0
0
LINE
8
0
62
0
10
166.304474
20
-222.206970
30
0.0
11
170.062790
21
-222.206970
31
0.0
0
ARC
8
0
62
0
10
170.062790
20
-221.706955
30
0.0
40
0.500000
50
270.000000
51
0.000000
0
ARC
8
0
62
0
10
170.916351
20
-219.835510
30
0.0
40
0.500000
50
64.471222
51
205.528778
0
ARC
8
0
62
0
10
169.562790
20
-220.481964
30
0.0
40
1.000000
50
0.000000
51
25.528780
0
ARC
8
0
62
0
10
171.562790
20
-218.481964
30
0.0
40
1.000000
50
244.471222
51
270.000000
0
LINE
8
0
62
0
10
170.562790
20
-220.481964
30
0.0
11
170.562790
21
-221.706955
31
0.0
0
ARC
8
0
62
0
10
173.787796
20
-222.706970
30
0.0
40
7.500000
50
3.822554
51
176.177444
0
LINE
8
0
62
0
10
181.271103
20
-222.206970
30
0.0
11
177.512787
21
-222.206970
31
0.0
0
ARC
8
0
62
0
10
177.512787
20
-221.706955
30
0.0
40
0.500000
50
180.000000
51
270.000000
0
ARC
8
0
62
0
10
176.659241
20
-219.835510
30
0.0
40
0.500000
50
334.471222
51
115.528778
0
ARC
8
0
62
0
10
178.012787
20
-220.481964
30
0.0
40
1.000000
50
154.471222
51
180.000000
0
ARC
8
0
62
0
10
176.012787
20
-218.481964
30
0.0
40
1.000000
50
270.000000
51
295.528778
0
LINE
8
0
62
0
10
177.012787
20
-220.481964
30
0.0
11
177.012787
21
-221.706955
31
0.0
0
LINE
8
0
62
0
10
171.562790
20
-219.481979
30
0.0
11
176.012787
21
-219.481979
31
0.0
0
LINE
8
0
62
0
10
119.707733
20
-215.206970
30
0.0
11
119.707733
21
-222.706970
31
0.0
0
LINE
8
0
62
0
10
125.707733
20
-212.956955
30
0.0
11
125.707733
21
-222.706970
31
0.0
0
LINE
8
0
62
0
10
124.707733
20
-212.956955
30
0.0
11
124.707733
21
-215.206970
31
0.0
0
LINE
8
0
62
0
10
119.707733
20
-215.206970
30
0.0
11
124.707733
21
-215.206970
31
0.0
0
LINE
8
0
62
0
10
125.707733
20
-212.956955
30
0.0
11
124.707733
21
-212.956955
31
0.0
0
LINE
8
0
62
0
10
119.707733
20
-230.206970
30
0.0
11
119.707733
21
-222.706970
31
0.0
0
LINE
8
0
62
0
10
125.707733
20
-232.456955
30
0.0
11
125.707733
21
-222.706970
31
0.0
0
LINE
8
0
62
0
10
124.707733
20
-232.456955
30
0.0
11
124.707733
21
-230.206970
31
0.0
0
LINE
8
0
62
0
10
119.707733
20
-230.206970
30
0.0
11
124.707733
21
-230.206970
31
0.0
0
LINE
8
0
62
0
10
125.707733
20
-232.456955
30
0.0
11
124.707733
21
-232.456955
31
0.0
0
LINE
8
0
62
0
10
166.304474
20
-222.206970
30
0.0
11
164.591995
21
-222.206970
31
0.0
0
LINE
8
0
62
0
10
181.271103
20
-222.206970
30
0.0
11
182.983566
21
-222.206970
31
0.0
0
ARC
8
0
62
0
10
173.787796
20
-222.706970
30
0.0
40
9.750000
50
6.206268
51
173.793732
0
ARC
8
0
62
0
10
164.591995
20
-221.706955
30
0.0
40
0.500000
50
173.793732
51
270.000000
0
ARC
8
0
62
0
10
182.983566
20
-221.706955
30
0.0
40
0.500000
50
270.000000
51
6.206268
0
LINE
8
0
62
0
10
166.304474
20
-223.206970
30
0.0
11
170.062790
21
-223.206970
31
0.0
0
ARC
8
0
62
0
10
170.062790
20
-223.706955
30
0.0
40
0.500000
50
0.000000
51
90.000000
0
ARC
8
0
62
0
10
170.916351
20
-225.578400
30
0.0
40
0.500000
50
154.471222
51
295.528778
0
ARC
8
0
62
0
10
169.562790
20
-224.931961
30
0.0
40
1.000000
50
334.471222
51
0.000000
0
ARC
8
0
62
0
10
171.562790
20
-226.931976
30
0.0
40
1.000000
50
90.000000
51
115.528778
0
LINE
8
0
62
0
10
170.562790
20
-224.931961
30
0.0
11
170.562790
21
-223.706955
31
0.0
0
ARC
8
0
62
0
10
173.787796
20
-222.706970
30
0.0
40
7.500000
50
183.822556
51
356.177460
0
LINE
8
0
62
0
10
181.271103
20
-223.206970
30
0.0
11
177.512787
21
-223.206970
31
0.0
0
ARC
8
0
62
0
10
177.512787
20
-223.706955
30
0.0
40
0.500000
50
90.000000
51
180.000000
0
ARC
8
0
62
0
10
176.659241
20
-225.578400
30
0.0
40
0.500000
50
244.471222
51
25.528780
0
ARC
8
0
62
0
10
178.012787
20
-224.931961
30
0.0
40
1.000000
50
180.000000
51
205.528778
0
ARC
8
0
62
0
10
176.012787
20
-226.931976
30
0.0
40
1.000000
50
64.471222
51
90.000000
0
LINE
8
0
62
0
10
177.012787
20
-224.931961
30
0.0
11
177.012787
21
-223.706955
31
0.0
0
LINE
8
0
62
0
10
171.562790
20
-225.931961
30
0.0
11
176.012787
21
-225.931961
31
0.0
0
LINE
8
0
62
0
10
166.304474
20
-223.206970
30
0.0
11
164.591995
21
-223.206970
31
0.0
0
LINE
8
0
62
0
10
181.271103
20
-223.206970
30
0.0
11
182.983566
21
-223.206970
31
0.0
0
ARC
8
0
62
0
10
173.787796
20
-222.706970
30
0.0
40
9.750000
50
186.206268
51
353.793732
0
ARC
8
0
62
0
10
164.591995
20
-223.706955
30
0.0
40
0.500000
50
90.000000
51
186.206268
0
ARC
8
0
62
0
10
182.983566
20
-223.706955
30
0.0
40
0.500000
50
353.793732
51
90.000000
0
ARC
8
0
62
1
10
300.242218
20
-225.206955
30
0.0
40
12.000000
50
180.000000
51
0.000000
0
ARC
8
0
62
1
10
300.242218
20
-225.206955
30
0.0
40
12.000000
50
0.000000
51
180.000000
0
ARC
8
0
62
1
10
281.892151
20
-300.557770
30
0.0
40
1.500000
50
0.000000
51
180.000000
0
ARC
8
0
62
1
10
281.892151
20
-300.557770
30
0.0
40
1.500000
50
180.000000
51
0.000000
0
LINE
8
0
62
1
10
296.242218
20
-112.068748
30
0.0
11
296.242218
21
-171.168625
31
0.0
0
LINE
8
0
62
1
10
304.242218
20
-112.068748
30
0.0
11
304.242218
21
-171.168625
31
0.0
0
LINE
8
0
62
1
10
296.242218
20
-171.168625
30
0.0
11
304.242218
21
-171.168625
31
0.0
0
LINE
8
0
62
1
10
323.592255
20
-305.557770
30
0.0
11
276.892151
21
-305.557770
31
0.0
0
LINE
8
0
62
1
10
323.592255
20
-112.068748
30
0.0
11
323.592255
21
-305.557770
31
0.0
0
LINE
8
0
62
1
10
276.892151
20
-305.557770
30
0.0
11
276.892151
21
-112.068748
31
0.0
0
LINE
8
0
62
1
10
304.242218
20
-112.068748
30
0.0
11
323.592255
21
-112.068748
31
0.0
0
LINE
8
0
62
1
10
-101.110138
20
11.035913
30
0.0
11
-98.912582
21
5.003414
31
0.0
0
LINE
8
0
62
1
10
-98.912582
20
5.003414
30
0.0
11
-96.715027
21
11.035913
31
0.0
0
ARC
8
0
62
1
10
-94.401573
20
6.493163
30
0.0
40
1.485809
50
199.378143
51
340.614929
0
ARC
8
0
62
1
10
-90.241920
20
8.022203
30
0.0
40
5.917477
50
160.019180
51
199.980820
0
ARC
8
0
62
1
10
-94.401573
20
9.549532
30
0.0
40
1.486378
50
19.447348
51
160.559586
0
ARC
8
0
62
1
10
-98.561226
20
8.022203
30
0.0
40
5.917477
50
340.017426
51
19.982561
0
LINE
8
0
62
1
10
-101.348038
20
-17.690489
30
0.0
11
-99.738609
21
-17.690489
31
0.0
0
LINE
8
0
62
1
10
-101.348038
20
0.281482
30
0.0
11
-101.348038
21
-17.690489
31
0.0
0
LINE
8
0
62
1
10
-73.719490
20
0.281482
30
0.0
11
-73.719490
21
-17.690489
31
0.0
0
LINE
8
0
62
1
10
-96.983276
20
-12.057484
30
0.0
11
-98.738609
21
-12.057484
31
0.0
0
LINE
8
0
62
1
10
-83.376068
20
-31.766554
30
0.0
11
-83.376068
21
-30.029455
31
0.0
0
LINE
8
0
62
1
10
-95.983276
20
-17.690489
30
0.0
11
-79.083244
21
-17.690489
31
0.0
0
LINE
8
0
62
1
10
-75.327896
20
-17.690489
30
0.0
11
-73.719490
21
-17.690489
31
0.0
0
LINE
8
0
62
1
10
-101.348038
20
0.281482
30
0.0
11
-73.719490
21
0.281482
31
0.0
0
LINE
8
0
62
1
10
-98.738609
20
-31.766554
30
0.0
11
-98.738609
21
-12.057484
31
0.0
0
LINE
8
0
62
1
10
-96.983276
20
-30.029455
30
0.0
11
-96.983276
21
-12.057484
31
0.0
0
LINE
8
0
62
1
10
-83.376068
20
-30.029455
30
0.0
11
-96.983276
21
-30.029455
31
0.0
0
LINE
8
0
62
1
10
-98.738609
20
-31.766554
30
0.0
11
-83.376068
21
-31.766554
31
0.0
0
LINE
8
0
62
1
10
-78.083237
20
-7.868160
30
0.0
11
-76.327896
21
-7.868160
31
0.0
0
LINE
8
0
62
1
10
-91.690445
20
-27.577232
30
0.0
11
-91.690445
21
-25.840132
31
0.0
0
LINE
8
0
62
1
10
-76.327896
20
-27.577232
30
0.0
11
-76.327896
21
-7.868160
31
0.0
0
LINE
8
0
62
1
10
-78.083237
20
-25.840132
30
0.0
11
-78.083237
21
-7.868160
31
0.0
0
LINE
8
0
62
1
10
-91.690445
20
-25.840132
30
0.0
11
-78.083237
21
-25.840132
31
0.0
0
LINE
8
0
62
1
10
-76.327896
20
-27.577232
30
0.0
11
-91.690445
21
-27.577232
31
0.0
0
LINE
8
0
62
1
10
296.242218
20
-112.068748
30
0.0
11
276.892151
21
-112.068748
31
0.0
0
ARC
8
0
62
1
10
318.592255
20
-300.557770
30
0.0
40
1.500000
50
0.000000
51
180.000000
0
ARC
8
0
62
1
10
318.592255
20
-300.557770
30
0.0
40
1.500000
50
180.000000
51
0.000000
0
ARC
8
0
62
1
10
129.505646
20
-268.376923
30
0.0
40
1.788244
50
86.520409
51
166.571823
0
ARC
8
0
62
1
10
129.506454
20
-268.381256
30
0.0
40
1.792515
50
273.445343
51
86.554672
0
ARC
8
0
62
1
10
129.506454
20
-268.381256
30
0.0
40
1.792515
50
193.733978
51
273.445343
0
ARC
8
0
62
1
10
132.912613
20
-267.261963
30
0.0
40
5.374238
50
159.293976
51
196.705902
0
ARC
8
0
62
1
10
129.592651
20
-265.913239
30
0.0
40
1.794005
50
29.307449
51
162.097534
0
ARC
8
0
62
1
10
132.226791
20
-269.802338
30
0.0
40
0.324594
50
84.799141
51
180.813904
0
ARC
8
0
62
1
10
132.246933
20
-269.806915
30
0.0
40
0.344714
50
180.000000
51
0.000000
0
ARC
8
0
62
1
10
132.275543
20
-269.794830
30
0.0
40
0.316343
50
357.804871
51
93.503578
0
ARC
8
0
62
1
10
134.836212
20
-266.080353
30
0.0
40
1.982753
50
48.941696
51
146.027985
0
ARC
8
0
62
1
10
135.239883
20
-265.612305
30
0.0
40
1.364667
50
0.000001
51
48.814072
0
ARC
8
0
62
1
10
135.098190
20
-265.612305
30
0.0
40
1.506374
50
279.088104
51
0.000000
0
ARC
8
0
62
1
10
135.181076
20
-268.603790
30
0.0
40
1.511990
50
19.434425
51
84.114273
0
ARC
8
0
62
1
10
135.271667
20
-268.582153
30
0.0
40
1.419386
50
307.790497
51
19.827772
0
ARC
8
0
62
1
10
134.858459
20
-267.942719
30
0.0
40
2.178872
50
216.483002
51
306.074036
0
ARC
8
0
62
1
10
139.177948
20
-268.238770
30
0.0
40
1.919445
50
213.433289
51
270.015991
0
ARC
8
0
62
1
10
139.412094
20
-268.226654
30
0.0
40
1.945649
50
263.104156
51
34.097916
0
ARC
8
0
62
1
10
139.116623
20
-268.794678
30
0.0
40
2.527212
50
41.023712
51
127.558533
0
LINE
8
0
62
1
10
137.576096
20
-264.119659
30
0.0
11
137.576096
21
-266.791290
31
0.0
0
LINE
8
0
62
1
10
141.223328
20
-264.119659
30
0.0
11
137.576096
21
-264.119659
31
0.0
0
LINE
8
0
62
1
10
234.991486
20
-185.757980
30
0.0
11
234.991486
21
-219.091293
31
0.0
0
LINE
8
0
62
1
10
234.701035
20
-190.386322
30
0.0
11
230.040604
21
-223.392242
31
0.0
0
LINE
8
0
62
1
10
235.281952
20
-190.386322
30
0.0
11
239.942383
21
-223.392242
31
0.0
0
LINE
8
0
62
1
10
-98.684563
20
-35.477795
30
0.0
11
-98.684563
21
-39.097294
31
0.0
0
LINE
8
0
62
1
10
-96.462021
20
-39.097294
30
0.0
11
-98.684563
21
-35.477795
31
0.0
0
LINE
8
0
62
1
10
-96.462021
20
-35.477795
30
0.0
11
-96.462021
21
-39.097294
31
0.0
0
ARC
8
0
62
1
10
-94.885010
20
-38.027313
30
0.0
40
1.076955
50
196.004822
51
343.994110
0
ARC
8
0
62
1
10
-92.865997
20
-37.290104
30
0.0
40
3.224543
50
161.294113
51
198.705887
0
ARC
8
0
62
1
10
-94.885010
20
-36.555305
30
0.0
40
1.077621
50
16.128889
51
163.872177
0
ARC
8
0
62
1
10
-96.904007
20
-37.290104
30
0.0
40
3.224543
50
341.293762
51
18.706244
0
LINE
8
0
62
1
10
-89.042046
20
-35.477795
30
0.0
11
-89.042046
21
-39.097294
31
0.0
0
LINE
8
0
62
1
10
-87.512375
20
-38.037296
30
0.0
11
-89.042046
21
-35.477795
31
0.0
0
LINE
8
0
62
1
10
-85.987015
20
-35.477795
30
0.0
11
-87.512375
21
-38.037296
31
0.0
0
LINE
8
0
62
1
10
-85.987015
20
-39.097294
30
0.0
11
-85.987015
21
-35.477795
31
0.0
0
ARC
8
0
62
1
10
-84.332443
20
-38.027313
30
0.0
40
1.076955
50
196.004822
51
343.994110
0
ARC
8
0
62
1
10
-82.313431
20
-37.290104
30
0.0
40
3.224543
50
161.294113
51
198.705887
0
ARC
8
0
62
1
10
-84.332443
20
-36.555305
30
0.0
40
1.077621
50
16.128889
51
163.872177
0
ARC
8
0
62
1
10
-86.351440
20
-37.290104
30
0.0
40
3.224543
50
341.293762
51
18.706244
0
LINE
8
0
62
1
10
-81.180634
20
-35.587574
30
0.0
11
-81.180634
21
-39.097294
31
0.0
0
LINE
8
0
62
1
10
-80.023689
20
-35.477795
30
0.0
11
-82.337578
21
-35.477795
31
0.0
0
ARC
8
0
62
1
10
-78.446671
20
-38.027313
30
0.0
40
1.076955
50
196.004822
51
343.994110
0
ARC
8
0
62
1
10
-76.427666
20
-37.290104
30
0.0
40
3.224543
50
161.294113
51
198.705887
0
ARC
8
0
62
1
10
-78.446671
20
-36.555305
30
0.0
40
1.077621
50
16.128889
51
163.872177
0
ARC
8
0
62
1
10
-80.465675
20
-37.290104
30
0.0
40
3.224543
50
341.293762
51
18.706244
0
LINE
8
0
62
1
10
-76.623260
20
-35.477795
30
0.0
11
-76.623260
21
-39.097294
31
0.0
0
LINE
8
0
62
1
10
-75.309898
20
-35.477795
30
0.0
11
-76.623260
21
-35.477795
31
0.0
0
ARC
8
0
62
1
10
-75.318588
20
-36.400013
30
0.0
40
0.922262
50
271.599579
51
89.459846
0
LINE
8
0
62
1
10
-76.504471
20
-37.287544
30
0.0
11
-75.292847
21
-37.321915
31
0.0
0
LINE
8
0
62
1
10
-74.405029
20
-39.097294
30
0.0
11
-75.292847
21
-37.321915
31
0.0
0
LINE
8
0
62
1
10
-97.515388
20
-47.168163
30
0.0
11
-98.899872
21
-47.195328
31
0.0
0
ARC
8
0
62
1
10
-97.568687
20
-48.086010
30
0.0
40
0.919392
50
268.486145
51
86.676651
0
LINE
8
0
62
1
10
-99.008461
20
-49.005081
30
0.0
11
-97.592979
21
-49.005081
31
0.0
0
LINE
8
0
62
1
10
-99.008461
20
-45.390083
30
0.0
11
-99.008461
21
-49.005081
31
0.0
0
LINE
8
0
62
1
10
-97.754555
20
-45.390083
30
0.0
11
-99.008461
21
-45.390083
31
0.0
0
ARC
8
0
62
1
10
-97.777687
20
-46.298317
30
0.0
40
0.908531
50
286.780273
51
88.541626
0
ARC
8
0
62
1
10
-95.111084
20
-47.939602
30
0.0
40
1.076955
50
196.004822
51
343.994110
0
ARC
8
0
62
1
10
-93.092079
20
-47.202393
30
0.0
40
3.224543
50
161.294113
51
198.705887
0
ARC
8
0
62
1
10
-95.111084
20
-46.467594
30
0.0
40
1.077621
50
16.128889
51
163.872177
0
ARC
8
0
62
1
10
-97.130089
20
-47.202393
30
0.0
40
3.224543
50
341.293762
51
18.706244
0
LINE
8
0
62
1
10
-91.219391
20
-49.009579
30
0.0
11
-93.468651
21
-45.390083
31
0.0
0
LINE
8
0
62
1
10
-91.374512
20
-45.390083
30
0.0
11
-93.623772
21
-49.009579
31
0.0
0
LINE
8
0
62
1
10
-86.773933
20
-45.390083
30
0.0
11
-86.773933
21
-49.009579
31
0.0
0
LINE
8
0
62
1
10
-84.551392
20
-49.009579
30
0.0
11
-86.773933
21
-45.390083
31
0.0
0
LINE
8
0
62
1
10
-84.551392
20
-45.390083
30
0.0
11
-84.551392
21
-49.009579
31
0.0
0
ARC
8
0
62
1
10
-82.974373
20
-47.939602
30
0.0
40
1.076955
50
196.004822
51
343.994110
0
ARC
8
0
62
1
10
-80.955368
20
-47.202393
30
0.0
40
3.224543
50
161.294113
51
198.705887
0
ARC
8
0
62
1
10
-82.974373
20
-46.467594
30
0.0
40
1.077621
50
16.128889
51
163.872177
0
ARC
8
0
62
1
10
-84.993378
20
-47.202393
30
0.0
40
3.224543
50
341.293762
51
18.706244
0
LINE
8
0
62
1
10
-79.822571
20
-45.499863
30
0.0
11
-79.822571
21
-49.009579
31
0.0
0
LINE
8
0
62
1
10
-78.665619
20
-45.390083
30
0.0
11
-80.979515
21
-45.390083
31
0.0
0
ARC
8
0
62
1
10
-72.730034
20
-47.690250
30
0.0
40
1.331067
50
204.386841
51
324.320007
0
ARC
8
0
62
1
10
-70.888123
20
-47.205700
30
0.0
40
3.224543
50
161.294128
51
198.705872
0
ARC
8
0
62
1
10
-72.730034
20
-46.721149
30
0.0
40
1.331068
50
35.680031
51
155.613174
0
LINE
8
0
62
1
10
-70.052704
20
-49.009579
30
0.0
11
-71.086845
21
-49.009579
31
0.0
0
LINE
8
0
62
1
10
-70.569778
20
-45.498665
30
0.0
11
-70.569778
21
-48.900997
31
0.0
0
LINE
8
0
62
1
10
-70.058151
20
-45.390083
30
0.0
11
-71.086845
21
-45.390083
31
0.0
0
LINE
8
0
62
1
10
-69.505699
20
-45.390083
30
0.0
11
-69.505699
21
-49.009579
31
0.0
0
LINE
8
0
62
1
10
-68.192337
20
-45.390083
30
0.0
11
-69.505699
21
-45.390083
31
0.0
0
ARC
8
0
62
1
10
-68.201035
20
-46.312302
30
0.0
40
0.922262
50
271.599579
51
89.459846
0
LINE
8
0
62
1
10
-69.386909
20
-47.199833
30
0.0
11
-68.175285
21
-47.234203
31
0.0
0
LINE
8
0
62
1
10
-67.287460
20
-49.009579
30
0.0
11
-68.175285
21
-47.234203
31
0.0
0
ARC
8
0
62
1
10
-65.542877
20
-47.690250
30
0.0
40
1.331067
50
204.386841
51
324.320007
0
ARC
8
0
62
1
10
-63.700970
20
-47.205700
30
0.0
40
3.224543
50
161.294128
51
198.705872
0
ARC
8
0
62
1
10
-65.542877
20
-46.721149
30
0.0
40
1.331068
50
35.680031
51
155.613174
0
LINE
8
0
62
1
10
-64.099724
20
-49.009579
30
0.0
11
-64.099724
21
-45.390083
31
0.0
0
LINE
8
0
62
1
10
-61.977139
20
-49.009579
30
0.0
11
-64.099724
21
-49.009579
31
0.0
0
LINE
8
0
62
1
10
-61.498642
20
-49.009621
30
0.0
11
-59.376068
21
-49.009621
31
0.0
0
LINE
8
0
62
1
10
-61.499962
20
-47.181782
30
0.0
11
-61.498642
21
-49.009621
31
0.0
0
LINE
8
0
62
1
10
-59.841431
20
-47.199867
30
0.0
11
-61.499962
21
-47.181782
31
0.0
0
LINE
8
0
62
1
10
-61.501228
20
-45.390118
30
0.0
11
-61.499962
21
-47.181782
31
0.0
0
LINE
8
0
62
1
10
-59.557041
20
-45.390118
30
0.0
11
-61.501228
21
-45.390118
31
0.0
0
ARC
8
0
62
1
10
-146.387726
20
-335.298950
30
0.0
40
12.000000
50
180.000000
51
0.000000
0
ARC
8
0
62
1
10
-146.387726
20
-335.298950
30
0.0
40
12.000000
50
0.000000
51
180.000000
0
ARC
8
0
62
1
10
-66.355988
20
-38.321720
30
0.0
40
2.499178
50
133.602798
51
226.397202
0
LINE
8
0
62
1
10
-67.717613
20
-40.131466
30
0.0
11
-67.717613
21
-36.511967
31
0.0
0
LINE
8
0
62
1
10
-65.632782
20
-38.321720
30
0.0
11
-67.609024
21
-38.321720
31
0.0
0
LINE
8
0
62
1
10
-65.520058
20
-36.511967
30
0.0
11
-65.520058
21
-40.131466
31
0.0
0
LINE
8
0
62
1
10
-63.800797
20
-36.511967
30
0.0
11
-65.158112
21
-40.131466
31
0.0
0
LINE
8
0
62
1
10
-62.443485
20
-40.131466
30
0.0
11
-63.800797
21
-36.511967
31
0.0
0
LINE
8
0
62
1
10
-62.842922
20
-39.355862
30
0.0
11
-64.758675
21
-39.355862
31
0.0
0
LINE
8
0
62
1
10
-62.033905
20
-36.511967
30
0.0
11
-62.033913
21
-40.131466
31
0.0
0
LINE
8
0
62
1
10
-59.811363
20
-40.131466
30
0.0
11
-62.033905
21
-36.511967
31
0.0
0
LINE
8
0
62
1
10
-59.811363
20
-36.511967
30
0.0
11
-59.811363
21
-40.131466
31
0.0
0
LINE
8
0
62
1
10
-58.983723
20
-36.511967
30
0.0
11
-58.983723
21
-40.131466
31
0.0
0
LINE
8
0
62
1
10
-57.974136
20
-36.511967
30
0.0
11
-58.983723
21
-36.511967
31
0.0
0
ARC
8
0
62
1
10
-58.099003
20
-37.837166
30
0.0
40
1.331068
50
24.386383
51
84.617409
0
ARC
8
0
62
1
10
-59.940907
20
-38.321720
30
0.0
40
3.224543
50
341.294312
51
18.705687
0
ARC
8
0
62
1
10
-58.099003
20
-38.806271
30
0.0
40
1.331067
50
275.382446
51
335.613617
0
LINE
8
0
62
1
10
-58.983723
20
-40.131466
30
0.0
11
-57.974144
21
-40.131466
31
0.0
0
LINE
8
0
62
1
10
-55.891876
20
-40.131466
30
0.0
11
-55.891876
21
-36.511967
31
0.0
0
LINE
8
0
62
1
10
-53.769295
20
-40.131466
30
0.0
11
-55.891876
21
-40.131466
31
0.0
0
LINE
8
0
62
1
10
-53.290798
20
-40.131504
30
0.0
11
-50.987289
21
-40.131504
31
0.0
0
LINE
8
0
62
1
10
-53.292118
20
-38.303669
30
0.0
11
-53.290798
21
-40.131504
31
0.0
0
LINE
8
0
62
1
10
-51.633583
20
-38.321754
30
0.0
11
-53.292118
21
-38.303669
31
0.0
0
LINE
8
0
62
1
10
-53.293385
20
-36.512005
30
0.0
11
-53.292118
21
-38.303669
31
0.0
0
LINE
8
0
62
1
10
-51.349197
20
-36.512005
30
0.0
11
-53.293385
21
-36.512005
31
0.0
0
ARC
8
0
62
1
10
-52.710819
20
-38.321720
30
0.0
40
2.499178
50
313.601562
51
46.397202
0
LINE
8
0
62
1
10
119.707733
20
-234.706970
30
0.0
11
119.707733
21
-296.822876
31
0.0
0
LINE
8
0
62
1
10
113.357735
20
-234.706970
30
0.0
11
113.357735
21
-296.822876
31
0.0
0
LINE
8
0
62
1
10
113.357735
20
-234.706970
30
0.0
11
119.707733
21
-234.706970
31
0.0
0
LINE
8
0
62
1
10
113.357735
20
-210.706970
30
0.0
11
119.707733
21
-210.706970
31
0.0
0
LINE
8
0
62
1
10
113.357735
20
-210.706970
30
0.0
11
113.357735
21
-109.568748
31
0.0
0
LINE
8
0
62
1
10
119.707733
20
-210.706970
30
0.0
11
119.707733
21
-109.568748
31
0.0
0
LINE
8
0
62
1
10
117.357735
20
-210.706970
30
0.0
11
117.357735
21
-212.956955
31
0.0
0
LINE
8
0
62
1
10
112.357735
20
-215.206970
30
0.0
11
117.357735
21
-215.206970
31
0.0
0
LINE
8
0
62
1
10
112.357735
20
-215.206970
30
0.0
11
112.357735
21
-209.706970
31
0.0
0
LINE
8
0
62
1
10
113.357735
20
-209.706970
30
0.0
11
112.357735
21
-209.706970
31
0.0
0
LINE
8
0
62
1
10
112.357735
20
-230.206970
30
0.0
11
117.357735
21
-230.206970
31
0.0
0
LINE
8
0
62
1
10
117.357735
20
-234.706970
30
0.0
11
117.357735
21
-230.206970
31
0.0
0
LINE
8
0
62
1
10
112.357735
20
-230.206970
30
0.0
11
112.357735
21
-235.706970
31
0.0
0
LINE
8
0
62
1
10
113.357735
20
-235.706970
30
0.0
11
112.357735
21
-235.706970
31
0.0
0
LINE
8
0
62
1
10
117.357735
20
-212.956955
30
0.0
11
117.357735
21
-215.206970
31
0.0
0
LINE
8
0
62
2
10
-20.865589
20
-28.931286
30
0.0
11
-25.622147
21
-28.931286
31
0.0
0
LINE
8
0
62
2
10
-25.622147
20
-28.931286
30
0.0
11
-25.622147
21
-36.385475
31
0.0
0
LINE
8
0
62
2
10
-25.622147
20
-36.385475
30
0.0
11
-27.822899
21
-36.385475
31
0.0
0
LINE
8
0
62
2
10
-27.822899
20
-36.385475
30
0.0
11
-27.822899
21
-20.128170
31
0.0
0
LINE
8
0
62
2
10
-27.822899
20
-20.128170
30
0.0
11
-25.622147
21
-20.128170
31
0.0
0
LINE
8
0
62
2
10
-25.622147
20
-20.128170
30
0.0
11
-25.622147
21
-27.085413
31
0.0
0
LINE
8
0
62
2
10
-25.622147
20
-27.085413
30
0.0
11
-20.865589
21
-27.085413
31
0.0
0
LINE
8
0
62
2
10
-20.865589
20
-27.085413
30
0.0
11
-20.865589
21
-20.128170
31
0.0
0
LINE
8
0
62
2
10
-20.865589
20
-20.128170
30
0.0
11
-18.664917
21
-20.128170
31
0.0
0
LINE
8
0
62
2
10
-18.664917
20
-20.128170
30
0.0
11
-18.664917
21
-36.385475
31
0.0
0
LINE
8
0
62
2
10
-18.664917
20
-36.385475
30
0.0
11
-20.865589
21
-36.385475
31
0.0
0
LINE
8
0
62
2
10
-20.865589
20
-36.385475
30
0.0
11
-20.865589
21
-28.931286
31
0.0
0
LINE
8
0
62
2
10
-10.107188
20
-30.848028
30
0.0
11
-11.921309
21
-22.186831
31
0.0
0
LINE
8
0
62
2
10
-11.921309
20
-22.186831
30
0.0
11
-14.973990
21
-36.385475
31
0.0
0
LINE
8
0
62
2
10
-14.973990
20
-36.385475
30
0.0
11
-17.103756
21
-36.385475
31
0.0
0
LINE
8
0
62
2
10
-17.103756
20
-36.385475
30
0.0
11
-13.341156
21
-20.128170
31
0.0
0
LINE
8
0
62
2
10
-13.341156
20
-20.128170
30
0.0
11
-10.359496
21
-20.128170
31
0.0
0
LINE
8
0
62
2
10
-10.359496
20
-20.128170
30
0.0
11
-6.596849
21
-36.385475
31
0.0
0
LINE
8
0
62
2
10
-6.596849
20
-36.385475
30
0.0
11
-8.939631
21
-36.385475
31
0.0
0
LINE
8
0
62
2
10
-8.939631
20
-36.385475
30
0.0
11
-9.720554
21
-32.693737
31
0.0
0
LINE
8
0
62
2
10
-9.720554
20
-32.693737
30
0.0
11
-13.057197
21
-32.693737
31
0.0
0
LINE
8
0
62
2
10
-13.057197
20
-32.693737
30
0.0
11
-12.666662
21
-30.848028
31
0.0
0
LINE
8
0
62
2
10
-12.666662
20
-30.848028
30
0.0
11
-10.107188
21
-30.848028
31
0.0
0
LINE
8
0
62
2
10
0.927665
20
-21.974039
30
0.0
11
0.927665
21
-36.385475
31
0.0
0
LINE
8
0
62
2
10
0.927665
20
-36.385475
30
0.0
11
-1.273105
21
-36.385475
31
0.0
0
LINE
8
0
62
2
10
-1.273105
20
-36.385475
30
0.0
11
-1.273105
21
-21.974039
31
0.0
0
LINE
8
0
62
2
10
-1.273105
20
-21.974039
30
0.0
11
-5.035737
21
-21.974039
31
0.0
0
LINE
8
0
62
2
10
-5.035737
20
-21.974039
30
0.0
11
-5.035737
21
-20.128170
31
0.0
0
LINE
8
0
62
2
10
-5.035737
20
-20.128170
30
0.0
11
4.761253
21
-20.128170
31
0.0
0
LINE
8
0
62
2
10
4.761253
20
-20.128170
30
0.0
11
4.761253
21
-21.974039
31
0.0
0
LINE
8
0
62
2
10
4.761253
20
-21.974039
30
0.0
11
0.927665
21
-21.974039
31
0.0
0
LINE
8
0
62
3
10
234.991486
20
-238.844818
30
0.0
11
234.991486
21
-219.091293
31
0.0
0
LINE
8
0
62
3
10
25.809656
20
-33.191288
30
0.0
11
27.762085
21
-20.128170
31
0.0
0
LINE
8
0
62
3
10
27.762085
20
-20.128170
30
0.0
11
29.891964
21
-20.128170
31
0.0
0
LINE
8
0
62
3
10
29.891964
20
-20.128170
30
0.0
11
27.123077
21
-36.385475
31
0.0
0
LINE
8
0
62
3
10
27.123077
20
-36.385475
30
0.0
11
24.567308
21
-36.385475
31
0.0
0
LINE
8
0
62
3
10
24.567308
20
-36.385475
30
0.0
11
22.579557
21
-23.038809
31
0.0
0
LINE
8
0
62
3
10
22.579557
20
-23.038809
30
0.0
11
20.591774
21
-36.385475
31
0.0
0
LINE
8
0
62
3
10
20.591774
20
-36.385475
30
0.0
11
17.965014
21
-36.385475
31
0.0
0
LINE
8
0
62
3
10
17.965014
20
-36.385475
30
0.0
11
15.196341
21
-20.128170
31
0.0
0
LINE
8
0
62
3
10
15.196341
20
-20.128170
30
0.0
11
17.397175
21
-20.128170
31
0.0
0
LINE
8
0
62
3
10
17.397175
20
-20.128170
30
0.0
11
19.313953
21
-33.190845
31
0.0
0
LINE
8
0
62
3
10
19.313953
20
-33.190845
30
0.0
11
21.230715
21
-20.128170
31
0.0
0
LINE
8
0
62
3
10
21.230715
20
-20.128170
30
0.0
11
23.928368
21
-20.128170
31
0.0
0
LINE
8
0
62
3
10
23.928368
20
-20.128170
30
0.0
11
25.809656
21
-33.191288
31
0.0
0
LINE
8
0
62
3
10
31.452848
20
-20.128170
30
0.0
11
33.653553
21
-20.128170
31
0.0
0
LINE
8
0
62
3
10
33.653553
20
-20.128170
30
0.0
11
33.653553
21
-36.385475
31
0.0
0
LINE
8
0
62
3
10
33.653553
20
-36.385475
30
0.0
11
31.452848
21
-36.385475
31
0.0
0
LINE
8
0
62
3
10
31.452848
20
-36.385475
30
0.0
11
31.452848
21
-20.128170
31
0.0
0
LINE
8
0
62
3
10
41.177975
20
-21.974039
30
0.0
11
41.177975
21
-36.385475
31
0.0
0
LINE
8
0
62
3
10
41.177975
20
-36.385475
30
0.0
11
38.977203
21
-36.385475
31
0.0
0
LINE
8
0
62
3
10
38.977203
20
-36.385475
30
0.0
11
38.977203
21
-21.974039
31
0.0
0
LINE
8
0
62
3
10
38.977203
20
-21.974039
30
0.0
11
35.214573
21
-21.974039
31
0.0
0
LINE
8
0
62
3
10
35.214573
20
-21.974039
30
0.0
11
35.214573
21
-20.128170
31
0.0
0
LINE
8
0
62
3
10
35.214573
20
-20.128170
30
0.0
11
45.011559
21
-20.128170
31
0.0
0
LINE
8
0
62
3
10
45.011559
20
-20.128170
30
0.0
11
45.011559
21
-21.974039
31
0.0
0
LINE
8
0
62
3
10
45.011559
20
-21.974039
30
0.0
11
41.177975
21
-21.974039
31
0.0
0
LINE
8
0
62
3
10
53.530018
20
-28.931286
30
0.0
11
48.773460
21
-28.931286
31
0.0
0
LINE
8
0
62
3
10
48.773460
20
-28.931286
30
0.0
11
48.773460
21
-36.385475
31
0.0
0
LINE
8
0
62
3
10
48.773460
20
-36.385475
30
0.0
11
46.572704
21
-36.385475
31
0.0
0
LINE
8
0
62
3
10
46.572704
20
-36.385475
30
0.0
11
46.572704
21
-20.128170
31
0.0
0
LINE
8
0
62
3
10
46.572704
20
-20.128170
30
0.0
11
48.773460
21
-20.128170
31
0.0
0
LINE
8
0
62
3
10
48.773460
20
-20.128170
30
0.0
11
48.773460
21
-27.085413
31
0.0
0
LINE
8
0
62
3
10
48.773460
20
-27.085413
30
0.0
11
53.530018
21
-27.085413
31
0.0
0
LINE
8
0
62
3
10
53.530018
20
-27.085413
30
0.0
11
53.530018
21
-20.128170
31
0.0
0
LINE
8
0
62
3
10
53.530018
20
-20.128170
30
0.0
11
55.730686
21
-20.128170
31
0.0
0
LINE
8
0
62
3
10
55.730686
20
-20.128170
30
0.0
11
55.730686
21
-36.385475
31
0.0
0
LINE
8
0
62
3
10
55.730686
20
-36.385475
30
0.0
11
53.530018
21
-36.385475
31
0.0
0
LINE
8
0
62
3
10
53.530018
20
-36.385475
30
0.0
11
53.530018
21
-28.931286
31
0.0
0
LINE
8
0
62
3
10
227.278809
20
-242.951736
30
0.0
11
230.040604
21
-223.392242
31
0.0
0
LINE
8
0
62
3
10
242.704178
20
-242.951736
30
0.0
11
239.942383
21
-223.392242
31
0.0
0
LINE
8
0
62
4
10
65.087242
20
-214.531967
30
0.0
11
65.087242
21
-220.881958
31
0.0
0
ARC
8
0
62
4
10
113.106857
20
-220.531952
30
0.0
40
1.000000
50
90.000000
51
121.399712
0
ARC
8
0
62
4
10
112.064842
20
-218.824860
30
0.0
40
1.000000
50
148.600281
51
301.399719
0
LINE
8
0
62
4
10
6.000000
20
34.735668
30
0.0
11
6.000000
21
10.735670
31
0.0
0
LINE
8
0
62
4
10
-6.000000
20
34.735668
30
0.0
11
-6.000000
21
10.735670
31
0.0
0
LINE
8
0
62
4
10
131.357727
20
-217.782852
30
0.0
11
131.357727
21
-210.531967
31
0.0
0
LINE
8
0
62
4
10
111.357735
20
-217.782852
30
0.0
11
111.357735
21
-215.531967
31
0.0
0
LINE
8
0
62
4
10
-312.666107
20
30.010151
30
0.0
11
-272.429138
21
30.010151
31
0.0
0
LINE
8
0
62
4
10
-272.429138
20
30.010151
30
0.0
11
-272.429138
21
-20.856417
31
0.0
0
LINE
8
0
62
4
10
-329.404175
20
-20.856417
30
0.0
11
-312.666107
21
-20.856417
31
0.0
0
LINE
8
0
62
4
10
-312.666107
20
-20.856417
30
0.0
11
-312.666107
21
30.010151
31
0.0
0
LINE
8
0
62
4
10
-272.429138
20
-20.856417
30
0.0
11
-253.760956
21
-20.856417
31
0.0
0
LINE
8
0
62
4
10
68.366638
20
-21.974039
30
0.0
11
68.366638
21
-27.156454
31
0.0
0
LINE
8
0
62
4
10
68.366638
20
-27.156454
30
0.0
11
73.123085
21
-27.156454
31
0.0
0
LINE
8
0
62
4
10
73.123085
20
-27.156454
30
0.0
11
73.123085
21
-29.002159
31
0.0
0
LINE
8
0
62
4
10
73.123085
20
-29.002159
30
0.0
11
68.366638
21
-29.002159
31
0.0
0
LINE
8
0
62
4
10
68.366638
20
-29.002159
30
0.0
11
68.366638
21
-36.385475
31
0.0
0
LINE
8
0
62
4
10
68.366638
20
-36.385475
30
0.0
11
66.165825
21
-36.385475
31
0.0
0
LINE
8
0
62
4
10
66.165825
20
-36.385475
30
0.0
11
66.165825
21
-20.128170
31
0.0
0
LINE
8
0
62
4
10
66.165825
20
-20.128170
30
0.0
11
73.265038
21
-20.128170
31
0.0
0
LINE
8
0
62
4
10
73.265038
20
-20.128170
30
0.0
11
73.265038
21
-21.974039
31
0.0
0
LINE
8
0
62
4
10
73.265038
20
-21.974039
30
0.0
11
68.366638
21
-21.974039
31
0.0
0
LINE
8
0
62
4
10
77.026993
20
-21.974039
30
0.0
11
77.026993
21
-27.156454
31
0.0
0
LINE
8
0
62
4
10
77.026993
20
-27.156454
30
0.0
11
81.854462
21
-27.156454
31
0.0
0
LINE
8
0
62
4
10
81.854462
20
-27.156454
30
0.0
11
81.854462
21
-29.002159
31
0.0
0
LINE
8
0
62
4
10
81.854462
20
-29.002159
30
0.0
11
77.026993
21
-29.002159
31
0.0
0
LINE
8
0
62
4
10
77.026993
20
-29.002159
30
0.0
11
77.026993
21
-34.539608
31
0.0
0
LINE
8
0
62
4
10
77.026993
20
-34.539608
30
0.0
11
82.280434
21
-34.539608
31
0.0
0
LINE
8
0
62
4
10
82.280434
20
-34.539608
30
0.0
11
82.280434
21
-36.385475
31
0.0
0
LINE
8
0
62
4
10
82.280434
20
-36.385475
30
0.0
11
74.826195
21
-36.385475
31
0.0
0
LINE
8
0
62
4
10
74.826195
20
-36.385475
30
0.0
11
74.826195
21
-20.128170
31
0.0
0
LINE
8
0
62
4
10
74.826195
20
-20.128170
30
0.0
11
82.138420
21
-20.128170
31
0.0
0
LINE
8
0
62
4
10
82.138420
20
-20.128170
30
0.0
11
82.138420
21
-21.974039
31
0.0
0
LINE
8
0
62
4
10
82.138420
20
-21.974039
30
0.0
11
77.026993
21
-21.974039
31
0.0
0
LINE
8
0
62
4
10
85.900368
20
-21.974039
30
0.0
11
85.900368
21
-27.156454
31
0.0
0
LINE
8
0
62
4
10
85.900368
20
-27.156454
30
0.0
11
90.727837
21
-27.156454
31
0.0
0
LINE
8
0
62
4
10
90.727837
20
-27.156454
30
0.0
11
90.727837
21
-29.002159
31
0.0
0
LINE
8
0
62
4
10
90.727837
20
-29.002159
30
0.0
11
85.900368
21
-29.002159
31
0.0
0
LINE
8
0
62
4
10
85.900368
20
-29.002159
30
0.0
11
85.900368
21
-34.539608
31
0.0
0
LINE
8
0
62
4
10
85.900368
20
-34.539608
30
0.0
11
91.153801
21
-34.539608
31
0.0
0
LINE
8
0
62
4
10
91.153801
20
-34.539608
30
0.0
11
91.153801
21
-36.385475
31
0.0
0
LINE
8
0
62
4
10
91.153801
20
-36.385475
30
0.0
11
83.699562
21
-36.385475
31
0.0
0
LINE
8
0
62
4
10
83.699562
20
-36.385475
30
0.0
11
83.699562
21
-20.128170
31
0.0
0
LINE
8
0
62
4
10
83.699562
20
-20.128170
30
0.0
11
91.011795
21
-20.128170
31
0.0
0
LINE
8
0
62
4
10
91.011795
20
-20.128170
30
0.0
11
91.011795
21
-21.974039
31
0.0
0
LINE
8
0
62
4
10
91.011795
20
-21.974039
30
0.0
11
85.900368
21
-21.974039
31
0.0
0
LINE
8
0
62
4
10
98.536339
20
-21.974039
30
0.0
11
98.536339
21
-36.385475
31
0.0
0
LINE
8
0
62
4
10
98.536339
20
-36.385475
30
0.0
11
96.335571
21
-36.385475
31
0.0
0
LINE
8
0
62
4
10
96.335571
20
-36.385475
30
0.0
11
96.335571
21
-21.974039
31
0.0
0
LINE
8
0
62
4
10
96.335571
20
-21.974039
30
0.0
11
92.572937
21
-21.974039
31
0.0
0
LINE
8
0
62
4
10
92.572937
20
-21.974039
30
0.0
11
92.572937
21
-20.128170
31
0.0
0
LINE
8
0
62
4
10
92.572937
20
-20.128170
30
0.0
11
102.369926
21
-20.128170
31
0.0
0
LINE
8
0
62
4
10
102.369926
20
-20.128170
30
0.0
11
102.369926
21
-21.974039
31
0.0
0
LINE
8
0
62
4
10
102.369926
20
-21.974039
30
0.0
11
98.536339
21
-21.974039
31
0.0
0
LINE
8
0
62
4
10
5.000000
20
-5.000000
30
0.0
11
-5.000000
21
-5.000000
31
0.0
0
LINE
8
0
62
4
10
-5.000000
20
5.000000
30
0.0
11
5.000000
21
5.000000
31
0.0
0
LINE
8
0
62
4
10
-6.000000
20
-4.000000
30
0.0
11
-6.000000
21
4.000000
31
0.0
0
LINE
8
0
62
4
10
6.000000
20
-4.000000
30
0.0
11
6.000000
21
4.000000
31
0.0
0
ARC
8
0
62
4
10
4.500000
20
0.000000
30
0.0
40
0.800000
50
0.000000
51
180.000000
0
ARC
8
0
62
4
10
4.500000
20
-0.000000
30
0.0
40
0.800000
50
180.000000
51
0.000000
0
ARC
8
0
62
4
10
-4.500000
20
0.000000
30
0.0
40
0.800000
50
0.000000
51
180.000000
0
ARC
8
0
62
4
10
-4.500000
20
-0.000000
30
0.0
40
0.800000
50
180.000000
51
0.000000
0
ARC
8
0
62
4
10
-0.000000
20
-0.000000
30
0.0
40
1.500000
50
138.189682
51
180.000000
0
ARC
8
0
62
4
10
0.000000
20
-0.000000
30
0.0
40
1.500000
50
180.000000
51
0.000000
0
ARC
8
0
62
4
10
-0.000000
20
0.000000
30
0.0
40
1.500000
50
0.000000
51
41.810314
0
ARC
8
0
62
4
10
5.000000
20
4.000000
30
0.0
40
1.000000
50
0.000000
51
90.000000
0
ARC
8
0
62
4
10
-5.000000
20
4.000000
30
0.0
40
1.000000
50
90.000000
51
180.000000
0
ARC
8
0
62
4
10
-5.000000
20
-4.000000
30
0.0
40
1.000000
50
180.000000
51
270.000000
0
ARC
8
0
62
4
10
5.000000
20
-4.000000
30
0.0
40
1.000000
50
270.000000
51
0.000000
0
LINE
8
0
62
4
10
-1.118034
20
1.000000
30
0.0
11
1.118034
21
1.000000
31
0.0
0
LINE
8
0
62
4
10
37.430859
20
-2.000000
30
0.0
11
36.730862
21
-2.000000
31
0.0
0
LINE
8
0
62
4
10
36.730862
20
-5.000000
30
0.0
11
12.730861
21
-5.000000
31
0.0
0
LINE
8
0
62
4
10
12.730861
20
5.000000
30
0.0
11
36.730862
21
5.000000
31
0.0
0
LINE
8
0
62
4
10
36.730862
20
-5.000000
30
0.0
11
36.730862
21
-2.000000
31
0.0
0
LINE
8
0
62
4
10
46.730858
20
1.000000
30
0.0
11
37.430859
21
1.000000
31
0.0
0
LINE
8
0
62
4
10
12.730861
20
-5.000000
30
0.0
11
12.730861
21
5.000000
31
0.0
0
LINE
8
0
62
4
10
46.730858
20
1.000000
30
0.0
11
46.730858
21
-1.500000
31
0.0
0
LINE
8
0
62
4
10
37.430859
20
2.000000
30
0.0
11
37.430859
21
1.000000
31
0.0
0
LINE
8
0
62
4
10
36.730862
20
2.000000
30
0.0
11
36.730862
21
5.000000
31
0.0
0
LINE
8
0
62
4
10
37.430859
20
-1.500000
30
0.0
11
46.730858
21
-1.500000
31
0.0
0
LINE
8
0
62
4
10
37.430859
20
-1.500000
30
0.0
11
37.430859
21
-2.000000
31
0.0
0
LINE
8
0
62
4
10
37.430859
20
2.000000
30
0.0
11
36.730862
21
2.000000
31
0.0
0
LINE
8
0
62
4
10
-284.263489
20
-219.706955
30
0.0
11
-284.963501
21
-219.706955
31
0.0
0
LINE
8
0
62
4
10
-293.963501
20
-222.706970
30
0.0
11
-308.963501
21
-222.706970
31
0.0
0
LINE
8
0
62
4
10
-293.963501
20
-212.706970
30
0.0
11
-308.963501
21
-212.706970
31
0.0
0
LINE
8
0
62
4
10
-293.963501
20
-212.706970
30
0.0
11
-284.963501
21
-212.706970
31
0.0
0
LINE
8
0
62
4
10
-293.963501
20
-222.706970
30
0.0
11
-284.963501
21
-222.706970
31
0.0
0
LINE
8
0
62
4
10
-284.963501
20
-222.706970
30
0.0
11
-284.963501
21
-219.706955
31
0.0
0
LINE
8
0
62
4
10
-274.963501
20
-216.706970
30
0.0
11
-284.263489
21
-216.706970
31
0.0
0
LINE
8
0
62
4
10
-308.963501
20
-222.706970
30
0.0
11
-308.963501
21
-212.706970
31
0.0
0
LINE
8
0
62
4
10
-274.963501
20
-216.706970
30
0.0
11
-274.963501
21
-219.206970
31
0.0
0
LINE
8
0
62
4
10
-284.263489
20
-215.706955
30
0.0
11
-284.263489
21
-216.706970
31
0.0
0
LINE
8
0
62
4
10
-284.963501
20
-219.706955
30
0.0
11
-284.963501
21
-215.706955
31
0.0
0
LINE
8
0
62
4
10
-284.963501
20
-215.706955
30
0.0
11
-284.963501
21
-212.706970
31
0.0
0
LINE
8
0
62
4
10
-284.263489
20
-216.706970
30
0.0
11
-284.263489
21
-219.206970
31
0.0
0
LINE
8
0
62
4
10
-284.263489
20
-219.206970
30
0.0
11
-274.963501
21
-219.206970
31
0.0
0
LINE
8
0
62
4
10
-284.263489
20
-219.206970
30
0.0
11
-284.263489
21
-219.706955
31
0.0
0
LINE
8
0
62
4
10
-284.263489
20
-215.706955
30
0.0
11
-284.963501
21
-215.706955
31
0.0
0
LINE
8
0
62
4
10
65.087242
20
-214.531967
30
0.0
11
110.357735
21
-214.531967
31
0.0
0
LINE
8
0
62
4
10
106.007736
20
-225.881973
30
0.0
11
136.707733
21
-225.881973
31
0.0
0
LINE
8
0
62
4
10
2.000000
20
35.435669
30
0.0
11
2.000000
21
34.735668
31
0.0
0
LINE
8
0
62
4
10
2.000000
20
34.735668
30
0.0
11
6.000000
21
34.735668
31
0.0
0
LINE
8
0
62
4
10
-1.000000
20
44.735672
30
0.0
11
-1.000000
21
35.435669
31
0.0
0
LINE
8
0
62
4
10
6.000000
20
10.735670
30
0.0
11
-6.000000
21
10.735670
31
0.0
0
LINE
8
0
62
4
10
-1.000000
20
44.735672
30
0.0
11
1.500000
21
44.735672
31
0.0
0
LINE
8
0
62
4
10
-2.000000
20
35.435669
30
0.0
11
-1.000000
21
35.435669
31
0.0
0
LINE
8
0
62
4
10
-2.000000
20
34.735668
30
0.0
11
-6.000000
21
34.735668
31
0.0
0
LINE
8
0
62
4
10
1.500000
20
35.435669
30
0.0
11
1.500000
21
44.735672
31
0.0
0
LINE
8
0
62
4
10
1.500000
20
35.435669
30
0.0
11
2.000000
21
35.435669
31
0.0
0
LINE
8
0
62
4
10
-2.000000
20
35.435669
30
0.0
11
-2.000000
21
34.735668
31
0.0
0
LINE
8
0
62
4
10
-301.664062
20
-308.089874
30
0.0
11
-325.664093
21
-308.089874
31
0.0
0
LINE
8
0
62
4
10
-301.664062
20
-296.089905
30
0.0
11
-325.664093
21
-296.089905
31
0.0
0
LINE
8
0
62
4
10
-300.964050
20
-304.089874
30
0.0
11
-301.664062
21
-304.089874
31
0.0
0
LINE
8
0
62
4
10
-301.664062
20
-304.089874
30
0.0
11
-301.664062
21
-308.089874
31
0.0
0
LINE
8
0
62
4
10
-291.664062
20
-301.089905
30
0.0
11
-300.964050
21
-301.089905
31
0.0
0
LINE
8
0
62
4
10
-325.664093
20
-308.089874
30
0.0
11
-325.664093
21
-296.089905
31
0.0
0
LINE
8
0
62
4
10
-291.664062
20
-301.089905
30
0.0
11
-291.664062
21
-303.589905
31
0.0
0
LINE
8
0
62
4
10
-300.964050
20
-300.089905
30
0.0
11
-300.964050
21
-301.089905
31
0.0
0
LINE
8
0
62
4
10
-301.664062
20
-300.089905
30
0.0
11
-301.664062
21
-296.089905
31
0.0
0
LINE
8
0
62
4
10
-300.964050
20
-303.589905
30
0.0
11
-291.664062
21
-303.589905
31
0.0
0
LINE
8
0
62
4
10
-300.964050
20
-303.589905
30
0.0
11
-300.964050
21
-304.089874
31
0.0
0
LINE
8
0
62
4
10
-300.964050
20
-300.089905
30
0.0
11
-301.664062
21
-300.089905
31
0.0
0
ARC
8
0
62
4
10
110.357735
20
-215.531967
30
0.0
40
1.000000
50
0.000000
51
90.000000
0
ARC
8
0
62
4
10
106.007736
20
-224.881958
30
0.0
40
1.000000
50
180.000000
51
270.000000
0
LINE
8
0
62
4
10
129.608612
20
-219.531967
30
0.0
11
113.106857
21
-219.531967
31
0.0
0
ARC
8
0
62
4
10
110.357735
20
-217.782852
30
0.0
40
1.000000
50
328.600281
51
0.000000
0
ARC
8
0
62
4
10
103.258621
20
-219.881973
30
0.0
40
1.000000
50
270.000000
51
301.399719
0
ARC
8
0
62
4
10
104.300621
20
-221.589066
30
0.0
40
1.000000
50
328.600281
51
121.399712
0
ARC
8
0
62
4
10
106.007736
20
-222.631073
30
0.0
40
1.000000
50
148.600281
51
180.000000
0
LINE
8
0
62
4
10
65.087242
20
-220.881958
30
0.0
11
103.258621
21
-220.881958
31
0.0
0
LINE
8
0
62
4
10
105.007736
20
-224.881958
30
0.0
11
105.007736
21
-222.631073
31
0.0
0
ARC
8
0
62
4
10
136.707733
20
-224.881958
30
0.0
40
1.000000
50
270.000000
51
325.984528
0
ARC
8
0
62
4
10
132.357727
20
-210.531967
30
0.0
40
1.000000
50
145.984528
51
180.000000
0
ARC
8
0
62
4
10
129.608612
20
-220.531952
30
0.0
40
1.000000
50
58.600285
51
90.000000
0
ARC
8
0
62
4
10
130.650620
20
-218.824860
30
0.0
40
1.000000
50
238.600281
51
31.399715
0
ARC
8
0
62
4
10
132.357727
20
-217.782852
30
0.0
40
1.000000
50
180.000000
51
211.399719
0
LINE
8
0
62
4
10
3.581006
20
-220.881958
30
0.0
11
3.581006
21
-214.531967
31
0.0
0
LINE
8
0
62
4
10
41.681007
20
-214.531967
30
0.0
11
41.681007
21
-220.881958
31
0.0
0
LINE
8
0
62
4
10
41.681007
20
-214.531967
30
0.0
11
3.581006
21
-214.531967
31
0.0
0
LINE
8
0
62
4
10
41.681007
20
-220.881958
30
0.0
11
3.581006
21
-220.881958
31
0.0
0
LINE
8
0
62
5
10
85.855644
20
-365.040466
30
0.0
11
-75.172485
21
-365.040466
31
0.0
0
LINE
8
0
62
5
10
85.855644
20
-357.040497
30
0.0
11
-75.172485
21
-357.040497
31
0.0
0
ARC
8
0
62
5
10
-146.387726
20
-280.223114
30
0.0
40
6.740556
50
333.434937
51
153.434952
0
ARC
8
0
62
5
10
-146.387726
20
-280.223114
30
0.0
40
6.740556
50
153.434952
51
333.434937
0
LINE
8
0
62
5
10
234.991486
20
-238.844818
30
0.0
11
209.991486
21
-238.844818
31
0.0
0
LINE
8
0
62
5
10
215.589142
20
-184.706970
30
0.0
11
102.421349
21
-184.706970
31
0.0
0
LINE
8
0
62
5
10
102.421349
20
-192.706970
30
0.0
11
215.589142
21
-192.706970
31
0.0
0
LINE
8
0
62
5
10
259.991486
20
-238.844818
30
0.0
11
234.991486
21
-238.844818
31
0.0
0
LINE
8
0
62
5
10
227.278809
20
-242.951736
30
0.0
11
202.524353
21
-239.456436
31
0.0
0
LINE
8
0
62
5
10
252.033249
20
-246.447067
30
0.0
11
227.278809
21
-242.951736
31
0.0
0
LINE
8
0
62
5
10
259.991486
20
-248.844833
30
0.0
11
209.991486
21
-248.844833
31
0.0
0
LINE
8
0
62
5
10
242.704178
20
-242.951736
30
0.0
11
267.458618
21
-239.456436
31
0.0
0
LINE
8
0
62
5
10
217.949722
20
-246.447067
30
0.0
11
242.704178
21
-242.951736
31
0.0
0
ARC
8
0
62
6
10
136.397324
20
-339.290863
30
0.0
40
3.611406
50
4.594776
51
149.038498
0
ARC
8
0
62
6
10
136.553467
20
-338.846649
30
0.0
40
3.447143
50
317.774536
51
357.424438
0
ARC
8
0
62
6
10
120.471977
20
-319.433685
30
0.0
40
28.625280
50
302.869049
51
310.614532
0
ARC
8
0
62
6
10
138.806671
20
-348.579926
30
0.0
40
5.820732
50
118.743843
51
172.044998
0
LINE
8
0
62
6
10
140.255096
20
-347.774353
30
0.0
11
133.041946
21
-347.774353
31
0.0
0
LINE
8
0
62
6
10
147.106308
20
-335.668182
30
0.0
11
147.106308
21
-347.733215
31
0.0
0
LINE
8
0
62
6
10
140.858353
20
-344.889313
30
0.0
11
147.106308
21
-335.668182
31
0.0
0
LINE
8
0
62
6
10
148.872955
20
-344.889313
30
0.0
11
140.858353
21
-344.889313
31
0.0
0
LINE
8
0
62
6
10
150.111206
20
-335.668213
30
0.0
11
150.111206
21
-347.733215
31
0.0
0
LINE
8
0
62
6
10
155.210114
20
-344.199890
30
0.0
11
150.111206
21
-335.668213
31
0.0
0
LINE
8
0
62
6
10
160.294647
20
-335.668213
30
0.0
11
155.210114
21
-344.199890
31
0.0
0
LINE
8
0
62
6
10
160.294647
20
-347.733215
30
0.0
11
160.294647
21
-335.668213
31
0.0
0
LINE
8
0
62
6
10
161.791428
20
-335.668213
30
0.0
11
161.791428
21
-347.733215
31
0.0
0
LINE
8
0
62
6
10
166.890335
20
-344.199890
30
0.0
11
161.791428
21
-335.668213
31
0.0
0
LINE
8
0
62
6
10
171.974869
20
-335.668213
30
0.0
11
166.890335
21
-344.199890
31
0.0
0
LINE
8
0
62
6
10
171.974869
20
-347.733215
30
0.0
11
171.974869
21
-335.668213
31
0.0
0
LINE
8
0
62
6
10
188.013153
20
-335.668213
30
0.0
11
188.013153
21
-347.733215
31
0.0
0
LINE
8
0
62
6
10
192.391022
20
-335.668213
30
0.0
11
188.013153
21
-335.668213
31
0.0
0
ARC
8
0
62
6
10
192.332886
20
-338.684448
30
0.0
40
3.016806
50
271.095276
51
88.895920
0
LINE
8
0
62
6
10
188.409119
20
-341.700714
30
0.0
11
192.390549
21
-341.700714
31
0.0
0
LINE
8
0
62
6
10
195.407272
20
-347.733215
30
0.0
11
192.562439
21
-342.044464
31
0.0
0
LINE
8
0
62
6
10
196.743713
20
-347.733337
30
0.0
11
203.818970
21
-347.733337
31
0.0
0
LINE
8
0
62
6
10
196.739319
20
-341.640564
30
0.0
11
196.743713
21
-347.733337
31
0.0
0
LINE
8
0
62
6
10
202.267761
20
-341.700836
30
0.0
11
196.739319
21
-341.640564
31
0.0
0
LINE
8
0
62
6
10
196.735107
20
-335.668335
30
0.0
11
196.739319
21
-341.640564
31
0.0
0
LINE
8
0
62
6
10
203.215714
20
-335.668335
30
0.0
11
196.735107
21
-335.668335
31
0.0
0
LINE
8
0
62
6
10
208.946594
20
-335.668213
30
0.0
11
204.422226
21
-347.733215
31
0.0
0
LINE
8
0
62
6
10
213.470978
20
-347.733215
30
0.0
11
208.946594
21
-335.668213
31
0.0
0
LINE
8
0
62
6
10
212.139526
20
-345.147858
30
0.0
11
205.753693
21
-345.147858
31
0.0
0
LINE
8
0
62
6
10
214.709229
20
-335.668213
30
0.0
11
214.709229
21
-347.733215
31
0.0
0
LINE
8
0
62
6
10
219.808121
20
-344.199890
30
0.0
11
214.709229
21
-335.668213
31
0.0
0
LINE
8
0
62
6
10
224.892670
20
-335.668213
30
0.0
11
219.808121
21
-344.199890
31
0.0
0
LINE
8
0
62
6
10
224.892670
20
-347.733215
30
0.0
11
224.892670
21
-335.668213
31
0.0
0
LINE
8
0
62
6
10
226.487656
20
-347.733337
30
0.0
11
233.562897
21
-347.733337
31
0.0
0
LINE
8
0
62
6
10
226.483246
20
-341.640564
30
0.0
11
226.487656
21
-347.733337
31
0.0
0
LINE
8
0
62
6
10
232.011688
20
-341.700836
30
0.0
11
226.483246
21
-341.640564
31
0.0
0
LINE
8
0
62
6
10
226.479019
20
-335.668335
30
0.0
11
226.483246
21
-341.640564
31
0.0
0
LINE
8
0
62
6
10
232.959656
20
-335.668335
30
0.0
11
226.479019
21
-335.668335
31
0.0
0
LINE
8
0
62
6
10
234.769409
20
-335.668213
30
0.0
11
234.769409
21
-347.733215
31
0.0
0
LINE
8
0
62
6
10
239.147263
20
-335.668213
30
0.0
11
234.769409
21
-335.668213
31
0.0
0
ARC
8
0
62
6
10
239.089157
20
-338.684448
30
0.0
40
3.016806
50
271.095276
51
88.895920
0
LINE
8
0
62
6
10
235.165359
20
-341.700714
30
0.0
11
239.146805
21
-341.700714
31
0.0
0
LINE
8
0
62
6
10
242.163528
20
-347.733215
30
0.0
11
239.318695
21
-342.044464
31
0.0
0
LINE
8
0
62
6
10
-3.229790
20
14.763443
30
0.0
11
-1.680645
21
14.763443
31
0.0
0
LINE
8
0
62
6
10
-3.337858
20
16.573193
30
0.0
11
-3.337858
21
12.953693
31
0.0
0
LINE
8
0
62
6
10
-1.396255
20
16.573193
30
0.0
11
-3.337858
21
16.573193
31
0.0
0
LINE
8
0
62
6
10
0.323007
20
16.573111
30
0.0
11
-1.034305
21
12.953612
31
0.0
0
LINE
8
0
62
6
10
1.680320
20
12.953612
30
0.0
11
0.323007
21
16.573111
31
0.0
0
LINE
8
0
62
6
10
1.280882
20
13.729218
30
0.0
11
-0.634868
21
13.729218
31
0.0
0
LINE
8
0
62
6
10
3.551642
20
16.463331
30
0.0
11
3.551642
21
12.953612
31
0.0
0
LINE
8
0
62
6
10
4.708589
20
16.573112
30
0.0
11
2.394695
21
16.573112
31
0.0
0
ARC
8
0
62
6
10
16.284981
20
-0.820489
30
0.0
40
1.043376
50
210.522003
51
269.441071
0
LINE
8
0
62
6
10
16.643648
20
-1.867414
30
0.0
11
16.274803
21
-1.863815
31
0.0
0
ARC
8
0
62
6
10
16.652939
20
-0.914962
30
0.0
40
0.952497
50
269.441071
51
357.350677
0
ARC
8
0
62
6
10
16.829649
20
-1.029257
30
0.0
40
0.777949
50
5.182272
51
59.344830
0
LINE
8
0
62
6
10
15.801785
20
0.251795
30
0.0
11
17.226301
21
-0.360025
31
0.0
0
ARC
8
0
62
6
10
16.198439
20
0.921027
30
0.0
40
0.777949
50
185.182404
51
239.344803
0
ARC
8
0
62
6
10
16.371334
20
0.809248
30
0.0
40
0.948574
50
91.261345
51
177.491959
0
LINE
8
0
62
6
10
16.718422
20
1.757979
30
0.0
11
16.350454
21
1.757592
31
0.0
0
ARC
8
0
62
6
10
16.685558
20
0.748127
30
0.0
40
1.010387
50
29.271709
51
88.136147
0
LINE
8
0
62
6
10
18.223854
20
-1.861694
30
0.0
11
18.223854
21
1.757805
31
0.0
0
LINE
8
0
62
6
10
19.188589
20
0.359803
30
0.0
11
20.248188
21
-1.861694
31
0.0
0
LINE
8
0
62
6
10
20.248188
20
1.757805
30
0.0
11
18.330036
21
-0.488063
31
0.0
0
LINE
8
0
62
6
10
21.844305
20
-1.861695
30
0.0
11
20.810162
21
-1.861695
31
0.0
0
LINE
8
0
62
6
10
21.327232
20
1.649220
30
0.0
11
21.327232
21
-1.753110
31
0.0
0
LINE
8
0
62
6
10
21.838863
20
1.757805
30
0.0
11
20.810162
21
1.757805
31
0.0
0
LINE
8
0
62
6
10
22.257963
20
1.757805
30
0.0
11
22.257963
21
-1.861694
31
0.0
0
LINE
8
0
62
6
10
24.480509
20
-1.861695
30
0.0
11
22.257963
21
1.757805
31
0.0
0
LINE
8
0
62
6
10
24.480509
20
1.757805
30
0.0
11
24.480509
21
-1.861695
31
0.0
0
LINE
8
0
62
6
10
24.890083
20
1.757805
30
0.0
11
24.890083
21
-1.861694
31
0.0
0
LINE
8
0
62
6
10
27.112629
20
-1.861695
30
0.0
11
24.890083
21
1.757805
31
0.0
0
LINE
8
0
62
6
10
27.112629
20
1.757805
30
0.0
11
27.112629
21
-1.861695
31
0.0
0
LINE
8
0
62
6
10
28.655977
20
-0.020644
30
0.0
11
27.474579
21
1.757805
31
0.0
0
LINE
8
0
62
6
10
28.655977
20
-0.020644
30
0.0
11
28.676771
21
-1.861694
31
0.0
0
LINE
8
0
62
6
10
29.878962
20
1.757805
30
0.0
11
28.655977
21
-0.020644
31
0.0
0
LINE
8
0
62
9
10
85.855644
20
-315.140289
30
0.0
11
85.855644
21
-406.940704
31
0.0
0
LINE
8
0
62
9
10
63.990902
20
-406.940704
30
0.0
11
63.990902
21
-315.140289
31
0.0
0
LINE
8
0
62
9
10
-75.172485
20
-315.140289
30
0.0
11
-75.172485
21
-406.940704
31
0.0
0
LINE
8
0
62
9
10
-53.307743
20
-406.940704
30
0.0
11
-53.307743
21
-315.140289
31
0.0
0
LINE
8
0
62
9
10
-75.172485
20
-406.940704
30
0.0
11
-53.307743
21
-406.940704
31
0.0
0
LINE
8
0
62
9
10
-75.172485
20
-315.140289
30
0.0
11
-53.307743
21
-315.140289
31
0.0
0
LINE
8
0
62
9
10
102.421349
20
-144.184860
30
0.0
11
102.421349
21
-192.706970
31
0.0
0
LINE
8
0
62
9
10
102.421349
20
-260.404083
30
0.0
11
102.421349
21
-192.706970
31
0.0
0
LINE
8
0
62
9
10
-109.393463
20
-345.036469
30
0.0
11
-118.026299
21
-345.036469
31
0.0
0
LINE
8
0
62
9
10
-109.393463
20
-349.684937
30
0.0
11
-118.026299
21
-349.684937
31
0.0
0
LINE
8
0
62
9
10
-118.026299
20
-349.684937
30
0.0
11
-118.026299
21
-345.036469
31
0.0
0
LINE
8
0
62
9
10
-109.393463
20
-349.684937
30
0.0
11
-109.393463
21
-345.036469
31
0.0
0
LINE
8
0
62
9
10
-186.730118
20
-356.309937
30
0.0
11
-186.730118
21
-262.107819
31
0.0
0
LINE
8
0
62
9
10
-104.585861
20
-356.309937
30
0.0
11
-104.585861
21
-262.107819
31
0.0
0
LINE
8
0
62
9
10
-186.730118
20
-356.309937
30
0.0
11
-104.585861
21
-356.309937
31
0.0
0
LINE
8
0
62
9
10
-186.730118
20
-262.107819
30
0.0
11
-104.585861
21
-262.107819
31
0.0
0
LINE
8
0
62
9
10
-109.393463
20
-273.381256
30
0.0
11
-118.026299
21
-273.381256
31
0.0
0
LINE
8
0
62
9
10
-109.393463
20
-268.732819
30
0.0
11
-118.026299
21
-268.732819
31
0.0
0
LINE
8
0
62
9
10
-118.026299
20
-268.732819
30
0.0
11
-118.026299
21
-273.381256
31
0.0
0
LINE
8
0
62
9
10
-109.393463
20
-268.732819
30
0.0
11
-109.393463
21
-273.381256
31
0.0
0
LINE
8
0
62
9
10
-181.922516
20
-345.036469
30
0.0
11
-173.289688
21
-345.036469
31
0.0
0
LINE
8
0
62
9
10
-181.922516
20
-349.684937
30
0.0
11
-173.289688
21
-349.684937
31
0.0
0
LINE
8
0
62
9
10
-173.289688
20
-349.684937
30
0.0
11
-173.289688
21
-345.036469
31
0.0
0
LINE
8
0
62
9
10
-181.922516
20
-349.684937
30
0.0
11
-181.922516
21
-345.036469
31
0.0
0
LINE
8
0
62
9
10
-181.922516
20
-273.381256
30
0.0
11
-173.289688
21
-273.381256
31
0.0
0
LINE
8
0
62
9
10
-181.922516
20
-268.732819
30
0.0
11
-173.289688
21
-268.732819
31
0.0
0
LINE
8
0
62
9
10
-173.289688
20
-268.732819
30
0.0
11
-173.289688
21
-273.381256
31
0.0
0
LINE
8
0
62
9
10
-181.922516
20
-268.732819
30
0.0
11
-181.922516
21
-273.381256
31
0.0
0
LINE
8
0
62
9
10
85.855644
20
-406.940704
30
0.0
11
63.990902
21
-406.940704
31
0.0
0
LINE
8
0
62
9
10
85.855644
20
-315.140289
30
0.0
11
63.990902
21
-315.140289
31
0.0
0
ARC
8
0
62
23
10
300.242218
20
-225.206955
30
0.0
40
7.500000
50
0.000000
51
180.000000
0
ARC
8
0
62
23
10
300.242218
20
-225.206955
30
0.0
40
7.500000
50
180.000000
51
0.000000
0
ARC
8
0
62
23
10
-146.387726
20
-335.298950
30
0.0
40
7.500000
50
0.000000
51
180.000000
0
ARC
8
0
62
23
10
-146.387726
20
-335.298950
30
0.0
40
7.500000
50
180.000000
51
0.000000
0
LINE
8
0
62
24
10
134.532730
20
-222.706970
30
0.0
11
108.182739
21
-222.706970
31
0.0
0
LINE
8
0
62
24
10
108.182739
20
-217.706955
30
0.0
11
108.182739
21
-222.706970
31
0.0
0
LINE
8
0
62
24
10
65.087242
20
-217.706955
30
0.0
11
108.182739
21
-217.706955
31
0.0
0
LINE
8
0
62
24
10
134.532730
20
-222.706970
30
0.0
11
134.532730
21
-217.706955
31
0.0
0
ENDSEC
0
EOF
