  0
SECTION
  2
HEADER
  9
$ACADVER
  1
AC1003
  9
$EXTMIN
 10
-13.3112361956344
 20
7.64959356819048
  9
$EXTMAX
 10
12.7398526796231
 20
-16.0212872398219
  9
$INSUNITS
 70
1
  9
$INSBASE
 10
-0.28569175800565
 20
-4.1858468358157
999
Created with OMAX LAYOUT for Windows. (www.omax.com) 2/20/2024
  0
ENDSEC
  0
SECTION
  2
TABLES
  0
TABLE
  2
LAYER
 70
    10
  0
LAYER
  2
0
 70
     0
 62
     7
  6
CONTINUOUS
  0
LAYER
  2
1
 70
     0
 62
     7
  6
CONTINUOUS
  0
LAYER
  2
2
 70
     0
 62
     7
  6
CONTINUOUS
  0
LAYER
  2
3
 70
     0
 62
     7
  6
CONTINUOUS
  0
LAYER
  2
4
 70
     0
 62
     7
  6
CONTINUOUS
  0
LAYER
  2
5
 70
     0
 62
     7
  6
CONTINUOUS
  0
LAYER
  2
6
 70
     0
 62
     7
  6
CONTINUOUS
  0
LAYER
  2
7
 70
     0
 62
     7
  6
CONTINUOUS
  0
LAYER
  2
8
 70
     0
 62
     7
  6
CONTINUOUS
  0
LAYER
  2
9
 70
     0
 62
     7
  6
CONTINUOUS
  0
LAYER
  2
10
 70
     0
 62
     7
  6
CONTINUOUS
  0
LAYER
  2
11
 70
     0
 62
     7
  6
CONTINUOUS
  0
LAYER
  2
12
 70
     0
 62
     7
  6
CONTINUOUS
  0
LAYER
  2
13
 70
     0
 62
     7
  6
CONTINUOUS
  0
LAYER
  2
14
 70
     0
 62
     7
  6
CONTINUOUS
  0
LAYER
  2
15
 70
     0
 62
     7
  6
CONTINUOUS
  0
LAYER
  2
16
 70
     0
 62
     7
  6
CONTINUOUS
  0
LAYER
  2
17
 70
     0
 62
     7
  6
CONTINUOUS
  0
LAYER
  2
18
 70
     0
 62
     7
  6
CONTINUOUS
  0
LAYER
  2
19
 70
     0
 62
     7
  6
CONTINUOUS
  0
LAYER
  2
20
 70
     0
 62
     7
  6
CONTINUOUS
  0
LAYER
  2
21
 70
     0
 62
     7
  6
CONTINUOUS
  0
LAYER
  2
22
 70
     0
 62
     7
  6
CONTINUOUS
  0
LAYER
  2
23
 70
     0
 62
     7
  6
CONTINUOUS
  0
LAYER
  2
24
 70
     0
 62
     7
  6
CONTINUOUS
  0
LAYER
  2
25
 70
     0
 62
     7
  6
CONTINUOUS
  0
LAYER
  2
26
 70
     0
 62
     7
  6
CONTINUOUS
  0
LAYER
  2
27
 70
     0
 62
     7
  6
CONTINUOUS
  0
LAYER
  2
28
 70
     0
 62
     7
  6
CONTINUOUS
  0
LAYER
  2
29
 70
     0
 62
     7
  6
CONTINUOUS
  0
LAYER
  2
30
 70
     0
 62
     7
  6
CONTINUOUS
  0
LAYER
  2
31
 70
     0
 62
     7
  6
CONTINUOUS
  0
ENDTAB
  0
ENDSEC
  0
SECTION
  2
ENTITIES
  0
LINE
  8
0
  6
CONTINUOUS
 62
0
 10
-6.259842508
 20
7.64959356819048
 30
0.0
 11
-6.259842508
 21
-5.787401564
 31
0.0
  0
LINE
  8
0
  6
CONTINUOUS
 62
0
 10
11.9455594925839
 20
-8.99141614061252
 30
0.0
 11
11.9455594925839
 21
-8.74141614061316
 31
0.0
  0
LINE
  8
0
  6
CONTINUOUS
 62
0
 10
11.6955594925845
 20
-8.74141614061316
 30
0.0
 11
11.6955594925845
 21
-8.99141614061252
 31
0.0
  0
LINE
  8
0
  6
CONTINUOUS
 62
0
 10
11.9455594925839
 20
-8.74141614061316
 30
0.0
 11
11.6955594925845
 21
-8.74141614061316
 31
0.0
  0
LINE
  8
0
  6
CONTINUOUS
 62
0
 10
11.9455594925839
 20
-8.99141614061252
 30
0.0
 11
11.6955594925845
 21
-8.99141614061252
 31
0.0
  0
ARC
  8
0
  6
CONTINUOUS
 62
0
 10
9.25163364801336
 20
-8.82249262517961
 30
0.0
 40
0.196850393765094
 50
171.96298134836
 51
261.96298134836
  0
ARC
  8
0
  6
CONTINUOUS
 62
0
 10
9.25163364801336
 20
-8.82249262517961
 30
0.0
 40
0.196850393765093
 50
171.96298134836
 51
261.96298134836
  0
ARC
  8
0
  6
CONTINUOUS
 62
0
 10
9.25163364801336
 20
-8.82249262517961
 30
0.0
 40
0.196850393765093
 50
278.03701865164
 51
8.03701865164016
  0
ARC
  8
0
  6
CONTINUOUS
 62
0
 10
9.25163364801337
 20
-8.82249262517961
 30
0.0
 40
0.196850393765092
 50
278.037018651639
 51
8.03701865163999
  0
LINE
  8
0
  6
CONTINUOUS
 62
0
 10
-12.1639172102595
 20
-8.76799094411283
 30
0.0
 11
-13.3112361956344
 21
-8.76799094411283
 31
0.0
  0
LINE
  8
0
  6
CONTINUOUS
 62
0
 10
-5.63829591725958
 20
-13.3257468695855
 30
0.0
 11
-5.63829591725958
 21
-13.0757468695861
 31
0.0
  0
LINE
  8
0
  6
CONTINUOUS
 62
0
 10
-5.88829591725898
 20
-13.0757468695861
 30
0.0
 11
-5.88829591725898
 21
-13.3257468695855
 31
0.0
  0
LINE
  8
0
  6
CONTINUOUS
 62
0
 10
-5.63829591725958
 20
-13.0757468695861
 30
0.0
 11
-5.88829591725898
 21
-13.0757468695861
 31
0.0
  0
LINE
  8
0
  6
CONTINUOUS
 62
0
 10
-5.63829591725958
 20
-13.3257468695855
 30
0.0
 11
-5.88829591725898
 21
-13.3257468695855
 31
0.0
  0
LINE
  8
0
  6
CONTINUOUS
 62
0
 10
-7.35157986718475
 20
-14.3947513933027
 30
0.0
 11
-7.35157986718475
 21
-14.0279504441158
 31
0.0
  0
LINE
  8
0
  6
CONTINUOUS
 62
0
 10
-4.1175537387382
 20
-14.3947513933027
 30
0.0
 11
-7.35157986718475
 21
-14.3947513933027
 31
0.0
  0
LINE
  8
0
  6
CONTINUOUS
 62
0
 10
-4.1175537387382
 20
-14.3947513933027
 30
0.0
 11
-4.1175537387382
 21
-14.0279504441158
 31
0.0
  0
LINE
  8
0
  6
CONTINUOUS
 62
0
 10
-2.09873016135414
 20
-12.4070973805555
 30
0.0
 11
2.51932686588872
 21
-12.4070973805555
 31
0.0
  0
LINE
  8
0
  6
CONTINUOUS
 62
0
 10
-2.09873016135414
 20
-16.0212872398219
 30
0.0
 11
2.51932686588872
 21
-16.0212872398219
 31
0.0
  0
ARC
  8
1
  6
CONTINUOUS
 62
1
 10
11.8205594925842
 20
-8.86641614061284
 30
0.0
 40
0.472440945000001
 50
179.999999999998
 51
359.999999999998
  0
ARC
  8
1
  6
CONTINUOUS
 62
1
 10
11.8205594925842
 20
-8.86641614061283
 30
0.0
 40
0.472440945000001
 50
359.999999999998
 51
180
  0
ARC
  8
1
  6
CONTINUOUS
 62
1
 10
11.0981166995453
 20
-11.8329833860904
 30
0.0
 40
0.0590551179999998
 50
359.999999999998
 51
179.999999999999
  0
ARC
  8
1
  6
CONTINUOUS
 62
1
 10
11.0981166995453
 20
-11.8329833860904
 30
0.0
 40
0.0590551179999998
 50
179.999999999998
 51
359.999999999998
  0
LINE
  8
1
  6
CONTINUOUS
 62
1
 10
11.6630791775842
 20
-6.7389225499549
 30
0.0
 11
11.6630791775842
 21
-4.41215558775783
 31
0.0
  0
LINE
  8
1
  6
CONTINUOUS
 62
1
 10
11.9780398075842
 20
-6.7389225499549
 30
0.0
 11
11.9780398075842
 21
-4.41215558775783
 31
0.0
  0
LINE
  8
1
  6
CONTINUOUS
 62
1
 10
11.9780398075842
 20
-6.7389225499549
 30
0.0
 11
11.6630791775842
 21
-6.7389225499549
 31
0.0
  0
LINE
  8
1
  6
CONTINUOUS
 62
1
 10
11.8205594925842
 20
-12.0298337800904
 30
0.0
 11
12.7398526796231
 21
-12.0298337800904
 31
0.0
  0
LINE
  8
1
  6
CONTINUOUS
 62
1
 10
12.7398526796231
 20
-12.0298337800904
 30
0.0
 11
12.7398526796231
 21
-4.41215558775783
 31
0.0
  0
LINE
  8
1
  6
CONTINUOUS
 62
1
 10
10.9012663055453
 20
-4.41215558775782
 30
0.0
 11
10.9012663055453
 21
-12.0298337800904
 31
0.0
  0
LINE
  8
1
  6
CONTINUOUS
 62
1
 10
10.9012663055453
 20
-12.0298337800904
 30
0.0
 11
11.8205594925842
 21
-12.0298337800904
 31
0.0
  0
LINE
  8
1
  6
CONTINUOUS
 62
1
 10
12.7398526796231
 20
-4.41215558775783
 30
0.0
 11
11.9780398075842
 21
-4.41215558775783
 31
0.0
  0
LINE
  8
1
  6
CONTINUOUS
 62
1
 10
4.55443831762878
 20
-11.6859409593922
 30
0.0
 11
4.55443831762879
 21
-9.24043188861283
 31
0.0
  0
LINE
  8
1
  6
CONTINUOUS
 62
1
 10
-3.89419619582173
 20
0.196984794194577
 30
0.0
 11
-3.98071405292998
 21
0.434484794099578
 31
0.0
  0
LINE
  8
1
  6
CONTINUOUS
 62
1
 10
-3.80767833871348
 20
0.434484794099578
 30
0.0
 11
-3.89419619582173
 21
0.196984794194577
 31
0.0
  0
ARC
  8
1
  6
CONTINUOUS
 62
1
 10
-3.71686607706427
 20
0.255635946139757
 30
0.0
 40
0.0582430155861446
 50
199.46544145889
 51
268.514572046557
  0
ARC
  8
1
  6
CONTINUOUS
 62
1
 10
-3.55283176424441
 20
0.31583479949726
 30
0.0
 40
0.23297154754073
 50
160.019185139364
 51
199.980814860636
  0
ARC
  8
1
  6
CONTINUOUS
 62
1
 10
-3.71659752402848
 20
0.375965843333262
 30
0.0
 40
0.0585188211510279
 50
19.4473483225598
 51
160.559582801478
  0
ARC
  8
1
  6
CONTINUOUS
 62
1
 10
-3.88036321327235
 20
0.315834799944432
 30
0.0
 40
0.232971547540713
 50
340.017438400847
 51
19.9825615991523
  0
ARC
  8
1
  6
CONTINUOUS
 62
1
 10
-3.71613878531911
 20
0.255320140802017
 30
0.0
 40
0.0579589212528058
 50
271.354984375422
 51
340.759261725193
  0
LINE
  8
1
  6
CONTINUOUS
 62
1
 10
-3.92671698863504
 20
-0.696475981388291
 30
0.0
 11
-3.99008038616344
 21
-0.69647598138829
 31
0.0
  0
LINE
  8
1
  6
CONTINUOUS
 62
1
 10
-3.99008038616344
 20
-0.69647598138829
 30
0.0
 11
-3.99008038616344
 21
0.0110819576788705
 31
0.0
  0
LINE
  8
1
  6
CONTINUOUS
 62
1
 10
-2.90234206192587
 20
-0.69647598138829
 30
0.0
 11
-2.90234206192587
 21
0.0110819576788705
 31
0.0
  0
LINE
  8
1
  6
CONTINUOUS
 62
1
 10
-3.88734690963504
 20
-0.474704090038882
 30
0.0
 11
-3.81823914006877
 21
-0.474704090038882
 31
0.0
  0
LINE
  8
1
  6
CONTINUOUS
 62
1
 10
-3.28252244709628
 20
-1.18226202910604
 30
0.0
 11
-3.28252244709628
 21
-1.25065175241758
 31
0.0
  0
LINE
  8
1
  6
CONTINUOUS
 62
1
 10
-3.11351336482769
 20
-0.69647598138829
 30
0.0
 11
-3.77886906106877
 21
-0.69647598138829
 31
0.0
  0
LINE
  8
1
  6
CONTINUOUS
 62
1
 10
-2.90234206192587
 20
-0.69647598138829
 30
0.0
 11
-2.96566543726142
 21
-0.696475981388291
 31
0.0
  0
LINE
  8
1
  6
CONTINUOUS
 62
1
 10
-2.90234206192587
 20
0.0110819576788705
 30
0.0
 11
-3.99008038616344
 21
0.0110819576788705
 31
0.0
  0
LINE
  8
1
  6
CONTINUOUS
 62
1
 10
-3.88734690963504
 20
-0.474704090038882
 30
0.0
 11
-3.88734690963504
 21
-1.25065175241758
 31
0.0
  0
LINE
  8
1
  6
CONTINUOUS
 62
1
 10
-3.81823914006877
 20
-0.69647598138829
 30
0.0
 11
-3.81823914006877
 21
-1.18226202910604
 31
0.0
  0
LINE
  8
1
  6
CONTINUOUS
 62
1
 10
-3.81823914006877
 20
-0.69647598138829
 30
0.0
 11
-3.81823914006877
 21
-0.474704090038882
 31
0.0
  0
LINE
  8
1
  6
CONTINUOUS
 62
1
 10
-3.81823914006877
 20
-1.18226202910604
 30
0.0
 11
-3.28252244709628
 21
-1.18226202910604
 31
0.0
  0
LINE
  8
1
  6
CONTINUOUS
 62
1
 10
-3.28252244709628
 20
-1.25065175241758
 30
0.0
 11
-3.88734690963504
 21
-1.25065175241758
 31
0.0
  0
LINE
  8
1
  6
CONTINUOUS
 62
1
 10
-3.00503551626142
 20
-0.309770080889257
 30
0.0
 11
-3.07414328582769
 21
-0.309770080889258
 31
0.0
  0
LINE
  8
1
  6
CONTINUOUS
 62
1
 10
-3.60985997880018
 20
-1.01732801995642
 30
0.0
 11
-3.60985997880017
 21
-1.08571774326796
 31
0.0
  0
LINE
  8
1
  6
CONTINUOUS
 62
1
 10
-3.00503551626142
 20
-0.309770080889257
 30
0.0
 11
-3.00503551626142
 21
-1.08571774326796
 31
0.0
  0
LINE
  8
1
  6
CONTINUOUS
 62
1
 10
-3.07414328582769
 20
-0.531541972238666
 30
0.0
 11
-3.07414328582769
 21
-1.01732801995642
 31
0.0
  0
LINE
  8
1
  6
CONTINUOUS
 62
1
 10
-3.07414328582769
 20
-0.531541972238666
 30
0.0
 11
-3.07414328582769
 21
-0.309770080889258
 31
0.0
  0
LINE
  8
1
  6
CONTINUOUS
 62
1
 10
-3.07414328582769
 20
-1.01732801995642
 30
0.0
 11
-3.60985997880018
 21
-1.01732801995642
 31
0.0
  0
LINE
  8
1
  6
CONTINUOUS
 62
1
 10
-3.60985997880017
 20
-1.08571774326796
 30
0.0
 11
-3.00503551626142
 21
-1.08571774326796
 31
0.0
  0
LINE
  8
1
  6
CONTINUOUS
 62
1
 10
10.9012663055453
 20
-4.41215558775782
 30
0.0
 11
11.6630791775842
 21
-4.41215558775783
 31
0.0
  0
ARC
  8
1
  6
CONTINUOUS
 62
1
 10
12.5430022856231
 20
-11.8329833860904
 30
0.0
 40
0.0590551179999998
 50
359.999999999998
 51
179.999999999999
  0
ARC
  8
1
  6
CONTINUOUS
 62
1
 10
12.5430022856231
 20
-11.8329833860904
 30
0.0
 40
0.0590551179999998
 50
179.999999999999
 51
360
  0
LINE
  8
1
  6
CONTINUOUS
 62
1
 10
4.80443831762878
 20
-11.6859409593922
 30
0.0
 11
4.80443831762878
 21
-9.24043188861283
 31
0.0
  0
LINE
  8
1
  6
CONTINUOUS
 62
1
 10
4.55443831762879
 20
-9.24043188861283
 30
0.0
 11
4.80443831762878
 21
-9.24043188861283
 31
0.0
  0
LINE
  8
1
  6
CONTINUOUS
 62
1
 10
4.55443831762878
 20
-8.29554999861283
 30
0.0
 11
4.80443831762878
 21
-8.29554999861283
 31
0.0
  0
LINE
  8
1
  6
CONTINUOUS
 62
1
 10
4.80443831762878
 20
-4.31373039075783
 30
0.0
 11
4.80443831762878
 21
-8.29554999861283
 31
0.0
  0
ARC
  8
1
  6
CONTINUOUS
 62
1
 10
5.09864776627053
 20
-10.5660213574953
 30
0.0
 40
0.0704033243084635
 50
86.5204049224946
 51
166.571819992715
  0
ARC
  8
1
  6
CONTINUOUS
 62
1
 10
5.09867968851236
 20
-10.5661917435773
 30
0.0
 40
0.070571471441038
 50
273.445329839681
 51
86.5546701603175
  0
ARC
  8
1
  6
CONTINUOUS
 62
1
 10
5.09867968851237
 20
-10.5661917435773
 30
0.0
 40
0.0705714714410442
 50
193.733975280076
 51
273.445329839679
  0
ARC
  8
1
  6
CONTINUOUS
 62
1
 10
5.23277977581652
 20
-10.5221246085669
 30
0.0
 40
0.211584169558214
 50
159.293977264154
 51
196.7059
  0
ARC
  8
1
  6
CONTINUOUS
 62
1
 10
5.10207278747596
 20
-10.4690256512667
 30
0.0
 40
0.070630124971748
 50
29.3074499999934
 51
162.097534243049
  0
ARC
  8
1
  6
CONTINUOUS
 62
1
 10
5.20577912605873
 20
-10.6221388442524
 30
0.0
 40
0.0127793109959235
 50
95.9609022281269
 51
180.813903789567
  0
ARC
  8
1
  6
CONTINUOUS
 62
1
 10
5.20657253297937
 20
-10.6223203721054
 30
0.0
 40
0.0135714285660011
 50
179.999999999988
 51
359.999999999988
  0
ARC
  8
1
  6
CONTINUOUS
 62
1
 10
5.20769864110683
 20
-10.6218433274664
 30
0.0
 40
0.0124544599403412
 50
357.804856058027
 51
85.4203379242616
  0
ARC
  8
1
  6
CONTINUOUS
 62
1
 10
5.30851215031573
 20
-10.4756044224091
 30
0.0
 40
0.0780611558906786
 50
48.9416968664114
 51
146.027978045881
  0
ARC
  8
1
  6
CONTINUOUS
 62
1
 10
5.32440528068599
 20
-10.4571767942989
 30
0.0
 40
0.0537270592069429
 50
1.31476644778203E-6
 51
48.8140713147696
  0
ARC
  8
1
  6
CONTINUOUS
 62
1
 10
5.31882625732735
 20
-10.4571767930661
 30
0.0
 40
0.0593060825655741
 50
279.088113900687
 51
359.999999999986
  0
ARC
  8
1
  6
CONTINUOUS
 62
1
 10
5.32208964357577
 20
-10.5749517491478
 30
0.0
 40
0.0595271708354833
 50
19.4344258931596
 51
84.114270814118
  0
ARC
  8
1
  6
CONTINUOUS
 62
1
 10
5.32565661912667
 20
-10.5741000202823
 30
0.0
 40
0.0558813541520623
 50
307.790503302608
 51
19.827771284046
  0
ARC
  8
1
  6
CONTINUOUS
 62
1
 10
5.30938814413143
 20
-10.5489264600404
 30
0.0
 40
0.0857823495815172
 50
216.48300623395
 51
306.074034537005
  0
ARC
  8
1
  6
CONTINUOUS
 62
1
 10
5.47944678899216
 20
-10.5605821587438
 30
0.0
 40
0.0755687041983045
 50
213.433287883772
 51
270.015999253476
  0
ARC
  8
1
  6
CONTINUOUS
 62
1
 10
5.48866490883041
 20
-10.5601046307881
 30
0.0
 40
0.0766003532492681
 50
263.104148598818
 51
34.097916751363
  0
ARC
  8
1
  6
CONTINUOUS
 62
1
 10
5.477032204297
 20
-10.5824684724583
 30
0.0
 40
0.0994965507585852
 50
41.0237111689365
 51
127.558530040727
  0
LINE
  8
1
  6
CONTINUOUS
 62
1
 10
5.41638193714112
 20
-10.5035944671918
 30
0.0
 11
5.41638193714112
 21
-10.3984118362517
 31
0.0
  0
LINE
  8
1
  6
CONTINUOUS
 62
1
 10
5.41638193714112
 20
-10.3984118362517
 30
0.0
 11
5.55997386029797
 21
-10.3984118362517
 31
0.0
  0
LINE
  8
1
  6
CONTINUOUS
 62
1
 10
4.55443831762878
 20
-4.31373039075783
 30
0.0
 11
4.55443831762878
 21
-8.29554999861283
 31
0.0
  0
LINE
  8
1
  6
CONTINUOUS
 62
1
 10
4.64695800262878
 20
-8.43334527461284
 30
0.0
 11
4.64695800262878
 21
-8.29554999861283
 31
0.0
  0
LINE
  8
1
  6
CONTINUOUS
 62
1
 10
4.64695800262878
 20
-8.47271535361284
 30
0.0
 11
4.64695800262878
 21
-8.43334527461284
 31
0.0
  0
LINE
  8
1
  6
CONTINUOUS
 62
1
 10
4.64695800262878
 20
-8.47271535361284
 30
0.0
 11
4.84380839662879
 21
-8.47271535361285
 31
0.0
  0
LINE
  8
1
  6
CONTINUOUS
 62
1
 10
4.84380839662878
 20
-8.25617991961283
 30
0.0
 11
4.84380839662879
 21
-8.47271535361285
 31
0.0
  0
LINE
  8
1
  6
CONTINUOUS
 62
1
 10
4.84380839662878
 20
-8.25617991961283
 30
0.0
 11
4.80443831762878
 21
-8.25617991961283
 31
0.0
  0
LINE
  8
1
  6
CONTINUOUS
 62
1
 10
4.64695800262878
 20
-9.06326653361283
 30
0.0
 11
4.84380839662879
 21
-9.06326653361282
 31
0.0
  0
LINE
  8
1
  6
CONTINUOUS
 62
1
 10
4.64695800262878
 20
-9.06326653361283
 30
0.0
 11
4.64695800262878
 21
-9.24043188861283
 31
0.0
  0
LINE
  8
1
  6
CONTINUOUS
 62
1
 10
4.84380839662878
 20
-9.27980196761283
 30
0.0
 11
4.84380839662879
 21
-9.06326653361282
 31
0.0
  0
LINE
  8
1
  6
CONTINUOUS
 62
1
 10
4.84380839662878
 20
-9.27980196761283
 30
0.0
 11
4.80443831762878
 21
-9.27980196761283
 31
0.0
  0
LINE
  8
1
  6
CONTINUOUS
 62
1
 10
9.25163364801336
 20
-8.62564223141452
 30
0.0
 11
9.25163364801336
 21
-7.31330627275835
 31
0.0
  0
LINE
  8
1
  6
CONTINUOUS
 62
1
 10
9.05671673009818
 20
-8.79497040441315
 30
0.0
 11
9.24019820190562
 21
-7.49552428475856
 31
0.0
  0
LINE
  8
1
  6
CONTINUOUS
 62
1
 10
9.44655056592855
 20
-8.79497040441315
 30
0.0
 11
9.2630690941211
 21
-7.49552428475856
 31
0.0
  0
LINE
  8
1
  6
CONTINUOUS
 62
1
 10
-3.88521918953486
 20
-1.53926351391756
 30
0.0
 11
-3.88521917308963
 21
-1.39676353138388
 31
0.0
  0
LINE
  8
1
  6
CONTINUOUS
 62
1
 10
-3.88521917308963
 20
-1.39676353138388
 30
0.0
 11
-3.79771738741035
 21
-1.53926353132688
 31
0.0
  0
LINE
  8
1
  6
CONTINUOUS
 62
1
 10
-3.79771738741035
 20
-1.53926353132688
 30
0.0
 11
-3.79771738741035
 21
-1.39676353138388
 31
0.0
  0
ARC
  8
1
  6
CONTINUOUS
 62
1
 10
-3.73563018563008
 20
-1.49713833997848
 30
0.0
 40
0.0423998103955019
 50
196.004825930423
 51
267.948379947905
  0
ARC
  8
1
  6
CONTINUOUS
 62
1
 10
-3.65614187461162
 20
-1.46811441768667
 30
0.0
 40
0.126950501734932
 50
161.294116943038
 51
198.705883056962
  0
ARC
  8
1
  6
CONTINUOUS
 62
1
 10
-3.73563018001947
 20
-1.43918524596735
 30
0.0
 40
0.0424260380146433
 50
16.1288893758952
 51
163.872176621307
  0
ARC
  8
1
  6
CONTINUOUS
 62
1
 10
-3.81511844794586
 20
-1.46811441769096
 30
0.0
 40
0.126950501734919
 50
341.293755627024
 51
18.7062443729764
  0
ARC
  8
1
  6
CONTINUOUS
 62
1
 10
-3.73563018563008
 20
-1.49713833997847
 30
0.0
 40
0.0423998103955063
 50
272.763973435188
 51
343.994108060197
  0
LINE
  8
1
  6
CONTINUOUS
 62
1
 10
-3.50559238741035
 20
-1.53926351391756
 30
0.0
 11
-3.50559239178965
 21
-1.3967635280565
 31
0.0
  0
LINE
  8
1
  6
CONTINUOUS
 62
1
 10
-3.50559239178965
 20
-1.3967635280565
 30
0.0
 11
-3.44536917752803
 21
-1.49753138515905
 31
0.0
  0
LINE
  8
1
  6
CONTINUOUS
 62
1
 10
-3.44536917752803
 20
-1.49753138515905
 30
0.0
 11
-3.38531560612348
 21
-1.3967635280565
 31
0.0
  0
LINE
  8
1
  6
CONTINUOUS
 62
1
 10
-3.38531560612348
 20
-1.3967635280565
 30
0.0
 11
-3.38531560612348
 21
-1.5392635279995
 31
0.0
  0
ARC
  8
1
  6
CONTINUOUS
 62
1
 10
-3.32017483291871
 20
-1.49713833997848
 30
0.0
 40
0.0423998103955019
 50
196.004825930423
 51
267.948379947905
  0
ARC
  8
1
  6
CONTINUOUS
 62
1
 10
-3.24068652190025
 20
-1.46811441768667
 30
0.0
 40
0.126950501734932
 50
161.294116943038
 51
198.705883056962
  0
ARC
  8
1
  6
CONTINUOUS
 62
1
 10
-3.3201748273081
 20
-1.43918524596735
 30
0.0
 40
0.0424260380146433
 50
16.1288893758952
 51
163.872176621307
  0
ARC
  8
1
  6
CONTINUOUS
 62
1
 10
-3.39966309523449
 20
-1.46811441769096
 30
0.0
 40
0.126950501734919
 50
341.293755627024
 51
18.7062443729764
  0
ARC
  8
1
  6
CONTINUOUS
 62
1
 10
-3.32017483291871
 20
-1.49713833997847
 30
0.0
 40
0.0423998103955063
 50
272.763973435188
 51
343.994108060197
  0
LINE
  8
1
  6
CONTINUOUS
 62
1
 10
-3.19608792288347
 20
-1.53926350393145
 30
0.0
 11
-3.19608792288347
 21
-1.40108559655956
 31
0.0
  0
LINE
  8
1
  6
CONTINUOUS
 62
1
 10
-3.24163704018667
 20
-1.39676350398845
 30
0.0
 11
-3.1505388259374
 21
-1.39676350398845
 31
0.0
  0
ARC
  8
1
  6
CONTINUOUS
 62
1
 10
-3.08845162415713
 20
-1.49713833997848
 30
0.0
 40
0.0423998103955019
 50
196.004825930423
 51
267.948379947905
  0
ARC
  8
1
  6
CONTINUOUS
 62
1
 10
-3.00896331313867
 20
-1.46811441768667
 30
0.0
 40
0.126950501734932
 50
161.294116943038
 51
198.705883056962
  0
ARC
  8
1
  6
CONTINUOUS
 62
1
 10
-3.08845161854652
 20
-1.43918524596735
 30
0.0
 40
0.0424260380146433
 50
16.1288893758952
 51
163.872176621307
  0
ARC
  8
1
  6
CONTINUOUS
 62
1
 10
-3.16793988647291
 20
-1.46811441769096
 30
0.0
 40
0.126950501734919
 50
341.293755627024
 51
18.7062443729764
  0
ARC
  8
1
  6
CONTINUOUS
 62
1
 10
-3.08845162415714
 20
-1.49713833997847
 30
0.0
 40
0.0423998103955063
 50
272.763973435188
 51
343.994108060197
  0
LINE
  8
1
  6
CONTINUOUS
 62
1
 10
-3.0166638259374
 20
-1.53926351386056
 30
0.0
 11
-3.0166638259374
 21
-1.39676351391756
 31
0.0
  0
LINE
  8
1
  6
CONTINUOUS
 62
1
 10
-3.0166638259374
 20
-1.39676351391756
 30
0.0
 11
-2.96495668310093
 21
-1.39676351391756
 31
0.0
  0
ARC
  8
1
  6
CONTINUOUS
 62
1
 10
-2.96564325726748
 20
-1.43238846116461
 30
0.0
 40
0.0356315625596363
 50
271.095264000542
 51
88.8959160393194
  0
LINE
  8
1
  6
CONTINUOUS
 62
1
 10
-2.96496216711882
 20
-1.46801351367896
 30
0.0
 11
-3.01198716711882
 21
-1.46801351367896
 31
0.0
  0
LINE
  8
1
  6
CONTINUOUS
 62
1
 10
-2.96293194634092
 20
-1.47207335389094
 30
0.0
 11
-2.92933168311519
 21
-1.53926351386056
 31
0.0
  0
LINE
  8
1
  6
CONTINUOUS
 62
1
 10
-3.8936958094903
 20
-1.85808386820325
 30
0.0
 11
-3.84223186532761
 21
-1.85808386820325
 31
0.0
  0
ARC
  8
1
  6
CONTINUOUS
 62
1
 10
-3.84224313094273
 20
-1.89370886640775
 30
0.0
 40
0.0356249999857504
 50
270.000000002515
 51
89.9818814817917
  0
LINE
  8
1
  6
CONTINUOUS
 62
1
 10
-3.84224313094117
 20
-1.9293338663935
 30
0.0
 11
-3.8979708094903
 21
-1.9293338663935
 31
0.0
  0
LINE
  8
1
  6
CONTINUOUS
 62
1
 10
-3.8979708094903
 20
-1.9293338663935
 30
0.0
 11
-3.8979708094903
 21
-1.78701110047195
 31
0.0
  0
LINE
  8
1
  6
CONTINUOUS
 62
1
 10
-3.8979708094903
 20
-1.78701110047195
 30
0.0
 11
-3.84860473808147
 21
-1.78701110047195
 31
0.0
  0
ARC
  8
1
  6
CONTINUOUS
 62
1
 10
-3.848889412137
 20
-1.82277889157848
 30
0.0
 40
0.0357689239418527
 50
296.191824756095
 51
89.5439953928141
  0
ARC
  8
1
  6
CONTINUOUS
 62
1
 10
-3.74453092917672
 20
-1.88738592653287
 30
0.0
 40
0.0423998103955015
 50
196.004825930423
 51
267.948379947905
  0
ARC
  8
1
  6
CONTINUOUS
 62
1
 10
-3.66504261815826
 20
-1.85836200424107
 30
0.0
 40
0.126950501734933
 50
161.294116943038
 51
198.705883056962
  0
ARC
  8
1
  6
CONTINUOUS
 62
1
 10
-3.74453092356611
 20
-1.82943283252174
 30
0.0
 40
0.0424260380146436
 50
16.1288893758952
 51
163.872176621307
  0
ARC
  8
1
  6
CONTINUOUS
 62
1
 10
-3.8240191914925
 20
-1.85836200424535
 30
0.0
 40
0.126950501734919
 50
341.293755627024
 51
18.7062443729764
  0
ARC
  8
1
  6
CONTINUOUS
 62
1
 10
-3.74453092917672
 20
-1.88738592653287
 30
0.0
 40
0.0423998103955063
 50
272.763973435188
 51
343.994108060197
  0
LINE
  8
1
  6
CONTINUOUS
 62
1
 10
-3.67986813095699
 20
-1.78701110047195
 30
0.0
 11
-3.59131455956384
 21
-1.92951110041495
 31
0.0
  0
LINE
  8
1
  6
CONTINUOUS
 62
1
 10
-3.68597527381169
 20
-1.92951110041495
 30
0.0
 11
-3.59742170241854
 21
-1.78701110047195
 31
0.0
  0
LINE
  8
1
  6
CONTINUOUS
 62
1
 10
-3.41629670241854
 20
-1.92951110047195
 30
0.0
 11
-3.4162966859733
 21
-1.78701111793827
 31
0.0
  0
LINE
  8
1
  6
CONTINUOUS
 62
1
 10
-3.4162966859733
 20
-1.78701111793827
 30
0.0
 11
-3.32879490029402
 21
-1.92951111788127
 31
0.0
  0
LINE
  8
1
  6
CONTINUOUS
 62
1
 10
-3.32879490029402
 20
-1.92951111788127
 30
0.0
 11
-3.32879490029402
 21
-1.78701111793827
 31
0.0
  0
ARC
  8
1
  6
CONTINUOUS
 62
1
 10
-3.26670769851375
 20
-1.88738592653287
 30
0.0
 40
0.0423998103955018
 50
196.004825930423
 51
267.948379947905
  0
ARC
  8
1
  6
CONTINUOUS
 62
1
 10
-3.18721938749529
 20
-1.85836200424107
 30
0.0
 40
0.126950501734933
 50
161.294116943038
 51
198.705883056962
  0
ARC
  8
1
  6
CONTINUOUS
 62
1
 10
-3.26670769290314
 20
-1.82943283252174
 30
0.0
 40
0.0424260380146433
 50
16.1288893758952
 51
163.872176621307
  0
ARC
  8
1
  6
CONTINUOUS
 62
1
 10
-3.34619596082953
 20
-1.85836200424535
 30
0.0
 40
0.126950501734919
 50
341.293755627024
 51
18.7062443729764
  0
ARC
  8
1
  6
CONTINUOUS
 62
1
 10
-3.26670769851375
 20
-1.88738592653287
 30
0.0
 40
0.0423998103955063
 50
272.763973435188
 51
343.994108060197
  0
LINE
  8
1
  6
CONTINUOUS
 62
1
 10
-3.14262078847851
 20
-1.92951109048584
 30
0.0
 11
-3.14262078847851
 21
-1.79133318311396
 31
0.0
  0
LINE
  8
1
  6
CONTINUOUS
 62
1
 10
-3.18816990578171
 20
-1.78701109054284
 30
0.0
 11
-3.09707169153244
 21
-1.78701109054284
 31
0.0
  0
ARC
  8
1
  6
CONTINUOUS
 62
1
 10
-2.86338719030421
 20
-1.87756901579287
 30
0.0
 40
0.052404232479039
 50
204.386837237011
 51
324.320000000005
  0
ARC
  8
1
  6
CONTINUOUS
 62
1
 10
-2.79087118798207
 20
-1.85849218236603
 30
0.0
 40
0.126950501734938
 50
161.294134617644
 51
198.705865382356
  0
ARC
  8
1
  6
CONTINUOUS
 62
1
 10
-2.86338718012564
 20
-1.83941534312956
 30
0.0
 40
0.0524042426576098
 50
35.6800299999897
 51
155.613174782251
  0
LINE
  8
1
  6
CONTINUOUS
 62
1
 10
-2.79869490787066
 20
-1.92951110966335
 30
0.0
 11
-2.75798063171151
 21
-1.92951110966335
 31
0.0
  0
LINE
  8
1
  6
CONTINUOUS
 62
1
 10
-2.77833777456051
 20
-1.92523610972035
 30
0.0
 11
-2.77833777456051
 21
-1.79128610972035
 31
0.0
  0
LINE
  8
1
  6
CONTINUOUS
 62
1
 10
-2.79869490787066
 20
-1.78701110972035
 30
0.0
 11
-2.75819490207496
 21
-1.78701110972035
 31
0.0
  0
LINE
  8
1
  6
CONTINUOUS
 62
1
 10
-2.73644490207496
 20
-1.92951110041495
 30
0.0
 11
-2.73644490207496
 21
-1.78701110047195
 31
0.0
  0
LINE
  8
1
  6
CONTINUOUS
 62
1
 10
-2.73644490207496
 20
-1.78701110047195
 30
0.0
 11
-2.68473775923849
 21
-1.78701110047195
 31
0.0
  0
ARC
  8
1
  6
CONTINUOUS
 62
1
 10
-2.68542433340504
 20
-1.822636047719
 30
0.0
 40
0.0356315625596363
 50
271.095264000542
 51
88.8959160393194
  0
LINE
  8
1
  6
CONTINUOUS
 62
1
 10
-2.68474324325637
 20
-1.85826110023336
 30
0.0
 11
-2.73176824325638
 21
-1.85826110023336
 31
0.0
  0
LINE
  8
1
  6
CONTINUOUS
 62
1
 10
-2.68271302247848
 20
-1.86232094044533
 30
0.0
 11
-2.64911275925275
 21
-1.92951110041495
 31
0.0
  0
ARC
  8
1
  6
CONTINUOUS
 62
1
 10
-2.58042825802452
 20
-1.87756901579287
 30
0.0
 40
0.052404232479039
 50
204.386837237011
 51
324.320000000005
  0
ARC
  8
1
  6
CONTINUOUS
 62
1
 10
-2.50791225570238
 20
-1.85849218236603
 30
0.0
 40
0.126950501734938
 50
161.294134617644
 51
198.705865382356
  0
ARC
  8
1
  6
CONTINUOUS
 62
1
 10
-2.58042824784595
 20
-1.83941534312956
 30
0.0
 40
0.0524042426576098
 50
35.6800299999897
 51
155.613174782251
  0
LINE
  8
1
  6
CONTINUOUS
 62
1
 10
-2.52361096979527
 20
-1.78701110047195
 30
0.0
 11
-2.52361096979527
 21
-1.92951110041495
 31
0.0
  0
LINE
  8
1
  6
CONTINUOUS
 62
1
 10
-2.52361096979527
 20
-1.92951110041495
 30
0.0
 11
-2.44004489840012
 21
-1.92951110041495
 31
0.0
  0
LINE
  8
1
  6
CONTINUOUS
 62
1
 10
-2.33764043806457
 20
-1.9295125836466
 30
0.0
 11
-2.42120650945971
 21
-1.9295125836466
 31
0.0
  0
LINE
  8
1
  6
CONTINUOUS
 62
1
 10
-2.42120650945971
 20
-1.9295125836466
 30
0.0
 11
-2.42125740231684
 21
-1.8582625836751
 31
0.0
  0
LINE
  8
1
  6
CONTINUOUS
 62
1
 10
-2.42125740231684
 20
-1.8582625836751
 30
0.0
 11
-2.35596186662867
 21
-1.8582625836751
 31
0.0
  0
LINE
  8
1
  6
CONTINUOUS
 62
1
 10
-2.42126045502854
 20
-1.85612628728965
 30
0.0
 11
-2.42130829517396
 21
-1.7870125837036
 31
0.0
  0
LINE
  8
1
  6
CONTINUOUS
 62
1
 10
-2.42130829517396
 20
-1.7870125837036
 30
0.0
 11
-2.34476543806457
 21
-1.7870125837036
 31
0.0
  0
ARC
  8
1
  6
CONTINUOUS
 62
1
 10
-5.76329591725928
 20
-13.2007468695858
 30
0.0
 40
0.472440945000001
 50
179.999999999998
 51
359.999999999998
  0
ARC
  8
1
  6
CONTINUOUS
 62
1
 10
-5.76329591725928
 20
-13.2007468695858
 30
0.0
 40
0.472440945000001
 50
359.999999999998
 51
180
  0
ARC
  8
1
  6
CONTINUOUS
 62
1
 10
-2.61244068277495
 20
-1.50872906808066
 30
0.0
 40
0.0983928503177832
 50
133.6028
 51
226.3972
  0
LINE
  8
1
  6
CONTINUOUS
 62
1
 10
-2.66604779733169
 20
-1.43747905055301
 30
0.0
 11
-2.66604779733169
 21
-1.57997905049601
 31
0.0
  0
LINE
  8
1
  6
CONTINUOUS
 62
1
 10
-2.66177279733169
 20
-1.50872905052451
 30
0.0
 11
-2.58396779733169
 21
-1.50872905052451
 31
0.0
  0
LINE
  8
1
  6
CONTINUOUS
 62
1
 10
-2.57952994022344
 20
-1.57997905049601
 30
0.0
 11
-2.57952994022344
 21
-1.43747905055301
 31
0.0
  0
LINE
  8
1
  6
CONTINUOUS
 62
1
 10
-2.56527994022344
 20
-1.57997905049601
 30
0.0
 11
-2.51184244024482
 21
-1.43747905055301
 31
0.0
  0
LINE
  8
1
  6
CONTINUOUS
 62
1
 10
-2.51184244024482
 20
-1.43747905055301
 30
0.0
 11
-2.45840494026619
 21
-1.57997905049601
 31
0.0
  0
LINE
  8
1
  6
CONTINUOUS
 62
1
 10
-2.54955404737088
 20
-1.54944333622251
 30
0.0
 11
-2.47413083311876
 21
-1.54944333622251
 31
0.0
  0
LINE
  8
1
  6
CONTINUOUS
 62
1
 10
-2.44227994026619
 20
-1.57997905055301
 30
0.0
 11
-2.44227992382096
 21
-1.43747906801933
 31
0.0
  0
LINE
  8
1
  6
CONTINUOUS
 62
1
 10
-2.44227992382096
 20
-1.43747906801933
 30
0.0
 11
-2.35477813814168
 21
-1.57997906796233
 31
0.0
  0
LINE
  8
1
  6
CONTINUOUS
 62
1
 10
-2.35477813814168
 20
-1.57997906796233
 30
0.0
 11
-2.35477813814168
 21
-1.43747906801933
 31
0.0
  0
LINE
  8
1
  6
CONTINUOUS
 62
1
 10
-2.32219387053517
 20
-1.57997907123924
 30
0.0
 11
-2.32219387053517
 21
-1.43747907129624
 31
0.0
  0
LINE
  8
1
  6
CONTINUOUS
 62
1
 10
-2.32219387053517
 20
-1.43747907129624
 30
0.0
 11
-2.28244648886827
 21
-1.43747907311248
 31
0.0
  0
ARC
  8
1
  6
CONTINUOUS
 62
1
 10
-2.28736231054911
 20
-1.48965224002537
 30
0.0
 40
0.0524042426576102
 50
24.3863827720535
 51
84.6174099999935
  0
ARC
  8
1
  6
CONTINUOUS
 62
1
 10
-2.35987825892557
 20
-1.50872907289756
 30
0.0
 40
0.126950501734932
 50
341.294313270191
 51
18.7056867298093
  0
ARC
  8
1
  6
CONTINUOUS
 62
1
 10
-2.28736230037054
 20
-1.52780590251011
 30
0.0
 40
0.0524042324790475
 50
275.382450717138
 51
335.613608269933
  0
LINE
  8
1
  6
CONTINUOUS
 62
1
 10
-2.28244660647458
 20
-1.57997907123925
 30
0.0
 11
-2.31863137053517
 21
-1.57997907123924
 31
0.0
  0
LINE
  8
1
  6
CONTINUOUS
 62
1
 10
-2.20046749065427
 20
-1.43747905055301
 30
0.0
 11
-2.20046749065427
 21
-1.57997905049601
 31
0.0
  0
LINE
  8
1
  6
CONTINUOUS
 62
1
 10
-2.20046749065427
 20
-1.57997905049601
 30
0.0
 11
-2.11690141925913
 21
-1.57997905049601
 31
0.0
  0
LINE
  8
1
  6
CONTINUOUS
 62
1
 10
-2.01449695892358
 20
-1.57998053372766
 30
0.0
 11
-2.09806303031872
 21
-1.57998053372766
 31
0.0
  0
LINE
  8
1
  6
CONTINUOUS
 62
1
 10
-2.09806303031872
 20
-1.57998053372766
 30
0.0
 11
-2.09811392317584
 21
-1.50873053375616
 31
0.0
  0
LINE
  8
1
  6
CONTINUOUS
 62
1
 10
-2.09811392317584
 20
-1.50873053375616
 30
0.0
 11
-2.03281838748768
 21
-1.50873053375616
 31
0.0
  0
LINE
  8
1
  6
CONTINUOUS
 62
1
 10
-2.09811697588754
 20
-1.50659423737071
 30
0.0
 11
-2.09816481603297
 21
-1.43748053378466
 31
0.0
  0
LINE
  8
1
  6
CONTINUOUS
 62
1
 10
-2.09816481603297
 20
-1.43748053378466
 30
0.0
 11
-2.02162195892357
 21
-1.43748053378466
 31
0.0
  0
ARC
  8
1
  6
CONTINUOUS
 62
1
 10
-2.07522907348032
 20
-1.50872906808066
 30
0.0
 40
0.0983928503177837
 50
313.602799999998
 51
46.3972000000005
  0
LINE
  8
2
  6
CONTINUOUS
 62
2
 10
4.84380839662879
 20
-9.06326653361282
 30
0.0
 11
4.84380839662879
 21
-8.47271535361285
 31
0.0
  0
LINE
  8
2
  6
CONTINUOUS
 62
2
 10
4.60758792362878
 20
-8.43334527461284
 30
0.0
 11
4.60758792362878
 21
-9.10263661261283
 31
0.0
  0
LINE
  8
2
  6
CONTINUOUS
 62
2
 10
7.90848091292346
 20
-8.74141614061315
 30
0.0
 11
7.9084809129235
 21
-8.78767598261284
 31
0.0
  0
LINE
  8
2
  6
CONTINUOUS
 62
2
 10
7.6584809129241
 20
-8.74141614061315
 30
0.0
 11
7.6584809129241
 21
-8.99141614061251
 31
0.0
  0
LINE
  8
2
  6
CONTINUOUS
 62
2
 10
7.90848091292346
 20
-8.74141614061315
 30
0.0
 11
7.6584809129241
 21
-8.74141614061315
 31
0.0
  0
LINE
  8
2
  6
CONTINUOUS
 62
2
 10
7.90848091292346
 20
-8.99141614061251
 30
0.0
 11
7.6584809129241
 21
-8.99141614061251
 31
0.0
  0
ARC
  8
2
  6
CONTINUOUS
 62
2
 10
7.78348091292376
 20
-8.86641614061283
 30
0.0
 40
0.295275589999999
 50
17.9202133204
 51
179.999999999999
  0
ARC
  8
2
  6
CONTINUOUS
 62
2
 10
7.78348091292376
 20
-8.86641614061283
 30
0.0
 40
0.295275589999999
 50
179.999999999999
 51
342.079786679599
  0
LINE
  8
2
  6
CONTINUOUS
 62
2
 10
7.90848091292346
 20
-8.99141614061251
 30
0.0
 11
7.9084809129235
 21
-8.94515629861278
 31
0.0
  0
LINE
  8
2
  6
CONTINUOUS
 62
2
 10
8.02697140160516
 20
-8.90578621961283
 30
0.0
 11
7.94785099192353
 21
-8.90578621961278
 31
0.0
  0
LINE
  8
2
  6
CONTINUOUS
 62
2
 10
8.02697140160516
 20
-8.82704606161283
 30
0.0
 11
7.94785099192351
 21
-8.82704606161285
 31
0.0
  0
ARC
  8
2
  6
CONTINUOUS
 62
2
 10
8.02697140160516
 20
-8.78767598261283
 30
0.0
 40
0.0393700789999998
 50
270
 51
17.9202133203987
  0
ARC
  8
2
  6
CONTINUOUS
 62
2
 10
8.02697140160516
 20
-8.94515629861283
 30
0.0
 40
0.0393700789999999
 50
342.079786679601
 51
89.9999999999994
  0
ARC
  8
2
  6
CONTINUOUS
 62
2
 10
7.9478509919235
 20
-8.94515629861278
 30
0.0
 40
0.0393700790000008
 50
89.9999999999632
 51
180
  0
ARC
  8
2
  6
CONTINUOUS
 62
2
 10
7.9478509919235
 20
-8.78767598261284
 30
0.0
 40
0.0393700790000007
 50
179.999999999999
 51
270.000000000008
  0
LINE
  8
2
  6
CONTINUOUS
 62
2
 10
-1.00874589781211
 20
-1.13902695034297
 30
0.0
 11
-0.821479922217544
 21
-1.13902695034297
 31
0.0
  0
LINE
  8
2
  6
CONTINUOUS
 62
2
 10
-1.00874589781211
 20
-1.43249903746747
 30
0.0
 11
-1.00874589781211
 21
-1.13902695034297
 31
0.0
  0
LINE
  8
2
  6
CONTINUOUS
 62
2
 10
-1.0953897635345
 20
-1.43249903746747
 30
0.0
 11
-1.00874589781211
 21
-1.43249903746747
 31
0.0
  0
LINE
  8
2
  6
CONTINUOUS
 62
2
 10
-1.0953897635345
 20
-0.792447647452273
 30
0.0
 11
-1.0953897635345
 21
-1.43249903746747
 31
0.0
  0
LINE
  8
2
  6
CONTINUOUS
 62
2
 10
-1.00874589781211
 20
-0.792447647452273
 30
0.0
 11
-1.0953897635345
 21
-0.792447647452273
 31
0.0
  0
LINE
  8
2
  6
CONTINUOUS
 62
2
 10
-1.00874589781211
 20
-1.06635492876847
 30
0.0
 11
-1.00874589781211
 21
-0.792447647452273
 31
0.0
  0
LINE
  8
2
  6
CONTINUOUS
 62
2
 10
-0.821479922217544
 20
-1.06635492876847
 30
0.0
 11
-1.00874589781211
 21
-1.06635492876847
 31
0.0
  0
LINE
  8
2
  6
CONTINUOUS
 62
2
 10
-0.821479922217544
 20
-0.792447647452273
 30
0.0
 11
-0.821479922217544
 21
-1.06635492876847
 31
0.0
  0
LINE
  8
2
  6
CONTINUOUS
 62
2
 10
-0.734839256496097
 20
-0.792447647452273
 30
0.0
 11
-0.821479922217544
 21
-0.792447647452273
 31
0.0
  0
LINE
  8
2
  6
CONTINUOUS
 62
2
 10
-0.734839256496097
 20
-1.43249903746747
 30
0.0
 11
-0.734839256496097
 21
-0.792447647452273
 31
0.0
  0
LINE
  8
2
  6
CONTINUOUS
 62
2
 10
-0.821479922217544
 20
-1.43249903746747
 30
0.0
 11
-0.734839256496097
 21
-1.43249903746747
 31
0.0
  0
LINE
  8
2
  6
CONTINUOUS
 62
2
 10
-0.821479922217544
 20
-1.13902695034297
 30
0.0
 11
-0.821479922217544
 21
-1.43249903746747
 31
0.0
  0
LINE
  8
2
  6
CONTINUOUS
 62
2
 10
-0.469342857676883
 20
-0.873497271513873
 30
0.0
 11
-0.397920813006783
 21
-1.21448937274587
 31
0.0
  0
LINE
  8
2
  6
CONTINUOUS
 62
2
 10
-0.589527213356599
 20
-1.43249903746747
 30
0.0
 11
-0.469342857676883
 21
-0.873497271513873
 31
0.0
  0
LINE
  8
2
  6
CONTINUOUS
 62
2
 10
-0.673376198249263
 20
-1.43249903746747
 30
0.0
 11
-0.589527213356599
 21
-1.43249903746747
 31
0.0
  0
LINE
  8
2
  6
CONTINUOUS
 62
2
 10
-0.525242394272055
 20
-0.792447647452273
 30
0.0
 11
-0.673376198249263
 21
-1.43249903746747
 31
0.0
  0
LINE
  8
2
  6
CONTINUOUS
 62
2
 10
-0.407854199422445
 20
-0.792447647452273
 30
0.0
 11
-0.525242394272055
 21
-0.792447647452273
 31
0.0
  0
LINE
  8
2
  6
CONTINUOUS
 62
2
 10
-0.259718475444671
 20
-1.43249903746747
 30
0.0
 11
-0.407854199422445
 21
-0.792447647452273
 31
0.0
  0
LINE
  8
2
  6
CONTINUOUS
 62
2
 10
-0.351954022827084
 20
-1.43249903746747
 30
0.0
 11
-0.259718475444671
 21
-1.43249903746747
 31
0.0
  0
LINE
  8
2
  6
CONTINUOUS
 62
2
 10
-0.382698991954494
 20
-1.28715499431847
 30
0.0
 11
-0.351954022827084
 21
-1.43249903746747
 31
0.0
  0
LINE
  8
2
  6
CONTINUOUS
 62
2
 10
-0.514062870953128
 20
-1.28715499431847
 30
0.0
 11
-0.382698991954494
 21
-1.28715499431847
 31
0.0
  0
LINE
  8
2
  6
CONTINUOUS
 62
2
 10
-0.498687506388574
 20
-1.21448937274587
 30
0.0
 11
-0.514062870953128
 21
-1.28715499431847
 31
0.0
  0
LINE
  8
2
  6
CONTINUOUS
 62
2
 10
-0.397920813006783
 20
-1.21448937274587
 30
0.0
 11
-0.498687506388574
 21
-1.21448937274587
 31
0.0
  0
LINE
  8
2
  6
CONTINUOUS
 62
2
 10
0.0365222525017708
 20
-1.43249903746747
 30
0.0
 11
0.0365222525017708
 21
-0.865119669026773
 31
0.0
  0
LINE
  8
2
  6
CONTINUOUS
 62
2
 10
-0.0501222532208043
 20
-1.43249903746747
 30
0.0
 11
0.0365222525017708
 21
-1.43249903746747
 31
0.0
  0
LINE
  8
2
  6
CONTINUOUS
 62
2
 10
-0.0501222532208043
 20
-0.865119669026773
 30
0.0
 11
-0.0501222532208043
 21
-1.43249903746747
 31
0.0
  0
LINE
  8
2
  6
CONTINUOUS
 62
2
 10
-0.198257337198394
 20
-0.865119669026773
 30
0.0
 11
-0.0501222532208043
 21
-0.865119669026773
 31
0.0
  0
LINE
  8
2
  6
CONTINUOUS
 62
2
 10
-0.198257337198394
 20
-0.792447647452273
 30
0.0
 11
-0.198257337198394
 21
-0.865119669026773
 31
0.0
  0
LINE
  8
2
  6
CONTINUOUS
 62
2
 10
0.18745093730871
 20
-0.792447647452273
 30
0.0
 11
-0.198257337198394
 21
-0.792447647452273
 31
0.0
  0
LINE
  8
2
  6
CONTINUOUS
 62
2
 10
0.18745093730871
 20
-0.865119669026773
 30
0.0
 11
0.18745093730871
 21
-0.792447647452273
 31
0.0
  0
LINE
  8
2
  6
CONTINUOUS
 62
2
 10
0.0365222525017708
 20
-0.865119669026773
 30
0.0
 11
0.18745093730871
 21
-0.865119669026773
 31
0.0
  0
LINE
  8
2
  6
CONTINUOUS
 62
2
 10
4.60758792362878
 20
-8.43334527461284
 30
0.0
 11
4.64695800262878
 21
-8.43334527461284
 31
0.0
  0
LINE
  8
2
  6
CONTINUOUS
 62
2
 10
4.60758792362878
 20
-9.10263661261283
 30
0.0
 11
4.64695800262878
 21
-9.10263661261283
 31
0.0
  0
LINE
  8
3
  6
CONTINUOUS
 62
3
 10
9.25163364801336
 20
-8.62564223141452
 30
0.0
 11
9.25163364801336
 21
-9.40333975943912
 31
0.0
  0
LINE
  8
3
  6
CONTINUOUS
 62
3
 10
1.09299552614219
 20
-0.792447647452273
 30
0.0
 11
1.01612817369758
 21
-1.30674359396179
 31
0.0
  0
LINE
  8
3
  6
CONTINUOUS
 62
3
 10
1.17684899103618
 20
-0.792447647452273
 30
0.0
 11
1.09299552614219
 21
-0.792447647452273
 31
0.0
  0
LINE
  8
3
  6
CONTINUOUS
 62
3
 10
1.06783775867347
 20
-1.43249903746747
 30
0.0
 11
1.17684899103618
 21
-0.792447647452273
 31
0.0
  0
LINE
  8
3
  6
CONTINUOUS
 62
3
 10
0.967216928801677
 20
-1.43249903746747
 30
0.0
 11
1.06783775867347
 21
-1.43249903746747
 31
0.0
  0
LINE
  8
3
  6
CONTINUOUS
 62
3
 10
0.88895898556885
 20
-0.907039681471773
 30
0.0
 11
0.967216928801677
 21
-1.43249903746747
 31
0.0
  0
LINE
  8
3
  6
CONTINUOUS
 62
3
 10
0.810699762335655
 20
-1.43249903746747
 30
0.0
 11
0.88895898556885
 21
-0.907039681471773
 31
0.0
  0
LINE
  8
3
  6
CONTINUOUS
 62
3
 10
0.70728405163412
 20
-1.43249903746747
 30
0.0
 11
0.810699762335655
 21
-1.43249903746747
 31
0.0
  0
LINE
  8
3
  6
CONTINUOUS
 62
3
 10
0.59828113927389
 20
-0.792447647452273
 30
0.0
 11
0.70728405163412
 21
-1.43249903746747
 31
0.0
  0
LINE
  8
3
  6
CONTINUOUS
 62
3
 10
0.68492820499723
 20
-0.792447647452273
 30
0.0
 11
0.59828113927389
 21
-0.792447647452273
 31
0.0
  0
LINE
  8
3
  6
CONTINUOUS
 62
3
 10
0.76039190740051
 20
-1.30672620012867
 30
0.0
 11
0.68492820499723
 21
-0.792447647452273
 31
0.0
  0
LINE
  8
3
  6
CONTINUOUS
 62
3
 10
0.835854969803608
 20
-0.792447647452273
 30
0.0
 11
0.76039190740051
 21
-1.30672620012867
 31
0.0
  0
LINE
  8
3
  6
CONTINUOUS
 62
3
 10
0.942061721333728
 20
-0.792447647452273
 30
0.0
 11
0.835854969803608
 21
-0.792447647452273
 31
0.0
  0
LINE
  8
3
  6
CONTINUOUS
 62
3
 10
1.01612817369758
 20
-1.30674359396179
 30
0.0
 11
0.942061721333728
 21
-0.792447647452273
 31
0.0
  0
LINE
  8
3
  6
CONTINUOUS
 62
3
 10
1.23830116927979
 20
-0.792447647452273
 30
0.0
 11
1.23830116927979
 21
-1.11247334245987
 31
0.0
  0
LINE
  8
3
  6
CONTINUOUS
 62
3
 10
1.32494311500161
 20
-0.792447647452273
 30
0.0
 11
1.23830116927979
 21
-0.792447647452273
 31
0.0
  0
LINE
  8
3
  6
CONTINUOUS
 62
3
 10
1.32494311500161
 20
-1.43249903746747
 30
0.0
 11
1.32494311500161
 21
-0.792447647452273
 31
0.0
  0
LINE
  8
3
  6
CONTINUOUS
 62
3
 10
1.23830116927979
 20
-1.43249903746747
 30
0.0
 11
1.32494311500161
 21
-1.43249903746747
 31
0.0
  0
LINE
  8
3
  6
CONTINUOUS
 62
3
 10
1.23830116927979
 20
-1.11247334245987
 30
0.0
 11
1.23830116927979
 21
-1.43249903746747
 31
0.0
  0
LINE
  8
3
  6
CONTINUOUS
 62
3
 10
1.6211800029469
 20
-1.43249903746747
 30
0.0
 11
1.6211800029469
 21
-0.865119669026773
 31
0.0
  0
LINE
  8
3
  6
CONTINUOUS
 62
3
 10
1.53453549722433
 20
-1.43249903746747
 30
0.0
 11
1.6211800029469
 21
-1.43249903746747
 31
0.0
  0
LINE
  8
3
  6
CONTINUOUS
 62
3
 10
1.53453549722433
 20
-0.865119669026773
 30
0.0
 11
1.53453549722433
 21
-1.43249903746747
 31
0.0
  0
LINE
  8
3
  6
CONTINUOUS
 62
3
 10
1.38640041324674
 20
-0.865119669026773
 30
0.0
 11
1.53453549722433
 21
-0.865119669026773
 31
0.0
  0
LINE
  8
3
  6
CONTINUOUS
 62
3
 10
1.38640041324674
 20
-0.792447647452273
 30
0.0
 11
1.38640041324674
 21
-0.865119669026773
 31
0.0
  0
LINE
  8
3
  6
CONTINUOUS
 62
3
 10
1.77210868775384
 20
-0.792447647452273
 30
0.0
 11
1.38640041324674
 21
-0.792447647452273
 31
0.0
  0
LINE
  8
3
  6
CONTINUOUS
 62
3
 10
1.77210868775384
 20
-0.865119669026773
 30
0.0
 11
1.77210868775384
 21
-0.792447647452273
 31
0.0
  0
LINE
  8
3
  6
CONTINUOUS
 62
3
 10
1.6211800029469
 20
-0.865119669026773
 30
0.0
 11
1.77210868775384
 21
-0.865119669026773
 31
0.0
  0
LINE
  8
3
  6
CONTINUOUS
 62
3
 10
1.92021497172288
 20
-1.13902695034297
 30
0.0
 11
2.10748094731745
 21
-1.13902695034297
 31
0.0
  0
LINE
  8
3
  6
CONTINUOUS
 62
3
 10
1.92021497172288
 20
-1.43249903746747
 30
0.0
 11
1.92021497172288
 21
-1.13902695034297
 31
0.0
  0
LINE
  8
3
  6
CONTINUOUS
 62
3
 10
1.83357110600049
 20
-1.43249903746747
 30
0.0
 11
1.92021497172288
 21
-1.43249903746747
 31
0.0
  0
LINE
  8
3
  6
CONTINUOUS
 62
3
 10
1.83357110600049
 20
-0.792447647452273
 30
0.0
 11
1.83357110600049
 21
-1.43249903746747
 31
0.0
  0
LINE
  8
3
  6
CONTINUOUS
 62
3
 10
1.92021497172288
 20
-0.792447647452273
 30
0.0
 11
1.83357110600049
 21
-0.792447647452273
 31
0.0
  0
LINE
  8
3
  6
CONTINUOUS
 62
3
 10
1.92021497172288
 20
-1.06635492876847
 30
0.0
 11
1.92021497172288
 21
-0.792447647452273
 31
0.0
  0
LINE
  8
3
  6
CONTINUOUS
 62
3
 10
2.10748094731745
 20
-1.06635492876847
 30
0.0
 11
1.92021497172288
 21
-1.06635492876847
 31
0.0
  0
LINE
  8
3
  6
CONTINUOUS
 62
3
 10
2.10748094731745
 20
-0.792447647452273
 30
0.0
 11
2.10748094731745
 21
-1.06635492876847
 31
0.0
  0
LINE
  8
3
  6
CONTINUOUS
 62
3
 10
2.1941216130389
 20
-0.792447647452273
 30
0.0
 11
2.10748094731745
 21
-0.792447647452273
 31
0.0
  0
LINE
  8
3
  6
CONTINUOUS
 62
3
 10
2.1941216130389
 20
-1.43249903746747
 30
0.0
 11
2.1941216130389
 21
-0.792447647452273
 31
0.0
  0
LINE
  8
3
  6
CONTINUOUS
 62
3
 10
2.10748094731745
 20
-1.43249903746747
 30
0.0
 11
2.1941216130389
 21
-1.43249903746747
 31
0.0
  0
LINE
  8
3
  6
CONTINUOUS
 62
3
 10
2.10748094731745
 20
-1.13902695034297
 30
0.0
 11
2.10748094731745
 21
-1.43249903746747
 31
0.0
  0
LINE
  8
3
  6
CONTINUOUS
 62
3
 10
9.05671673009818
 20
-8.79497040441315
 30
0.0
 11
8.94798459781013
 21
-9.56502934274429
 31
0.0
  0
LINE
  8
3
  6
CONTINUOUS
 62
3
 10
9.44655056592855
 20
-8.79497040441315
 30
0.0
 11
9.5552826982166
 21
-9.56502934274429
 31
0.0
  0
LINE
  8
4
  6
CONTINUOUS
 62
4
 10
0.2362204725
 20
0.422664209227687
 30
0.0
 11
0.2362204725
 21
1.36754609922769
 31
0.0
  0
LINE
  8
4
  6
CONTINUOUS
 62
4
 10
-0.2362204725
 20
0.422664209227687
 30
0.0
 11
-0.2362204725
 21
1.36754609922769
 31
0.0
  0
LINE
  8
4
  6
CONTINUOUS
 62
4
 10
5.81526508860453
 20
-8.49929015760423
 30
0.0
 11
5.81526508860754
 21
-8.69614055060424
 31
0.0
  0
LINE
  8
4
  6
CONTINUOUS
 62
4
 10
6.06526508860198
 20
-8.2492901576017
 30
0.0
 11
6.06526508860498
 21
-8.4461405506017
 31
0.0
  0
LINE
  8
4
  6
CONTINUOUS
 62
4
 10
4.97471390760198
 20
-8.24929015761282
 30
0.0
 11
4.97471390760502
 21
-8.64299094361284
 31
0.0
  0
LINE
  8
4
  6
CONTINUOUS
 62
4
 10
5.22471390760453
 20
-8.49929015761026
 30
0.0
 11
5.22471390760501
 21
-8.89299094361283
 31
0.0
  0
LINE
  8
4
  6
CONTINUOUS
 62
4
 10
4.38416272660502
 20
-8.64299094361284
 30
0.0
 11
4.38416272660503
 21
-8.44614055061283
 31
0.0
  0
LINE
  8
4
  6
CONTINUOUS
 62
4
 10
4.13416272660502
 20
-8.89299094361283
 30
0.0
 11
4.13416272660503
 21
-8.69614055061282
 31
0.0
  0
LINE
  8
4
  6
CONTINUOUS
 62
4
 10
-10.725556273515
 20
1.18150199270021
 30
0.0
 11
-12.3096892383565
 21
1.18150199270021
 31
0.0
  0
LINE
  8
4
  6
CONTINUOUS
 62
4
 10
-10.725556273515
 20
-0.821118780830224
 30
0.0
 11
-10.725556273515
 21
1.18150199270021
 31
0.0
  0
LINE
  8
4
  6
CONTINUOUS
 62
4
 10
-12.3096892383565
 20
-0.821118780830225
 30
0.0
 11
-12.9686685726519
 21
-0.821118780830225
 31
0.0
  0
LINE
  8
4
  6
CONTINUOUS
 62
4
 10
-12.3096892383565
 20
1.18150199270021
 30
0.0
 11
-12.3096892383565
 21
-0.821118780830225
 31
0.0
  0
LINE
  8
4
  6
CONTINUOUS
 62
4
 10
-9.990588888817
 20
-0.821118780830225
 30
0.0
 11
-10.725556273515
 21
-0.821118780830224
 31
0.0
  0
LINE
  8
4
  6
CONTINUOUS
 62
4
 10
2.69160016072779
 20
-1.06915172959877
 30
0.0
 11
2.69160016072779
 21
-0.865119669026774
 31
0.0
  0
LINE
  8
4
  6
CONTINUOUS
 62
4
 10
2.87886165632104
 20
-1.06915172959877
 30
0.0
 11
2.69160016072779
 21
-1.06915172959877
 31
0.0
  0
LINE
  8
4
  6
CONTINUOUS
 62
4
 10
2.87886165632104
 20
-1.14181735117137
 30
0.0
 11
2.87886165632104
 21
-1.06915172959877
 31
0.0
  0
LINE
  8
4
  6
CONTINUOUS
 62
4
 10
2.69160016072779
 20
-1.14181735117137
 30
0.0
 11
2.87886165632104
 21
-1.14181735117137
 31
0.0
  0
LINE
  8
4
  6
CONTINUOUS
 62
4
 10
2.69160016072779
 20
-1.43249903746747
 30
0.0
 11
2.69160016072779
 21
-1.14181735117137
 31
0.0
  0
LINE
  8
4
  6
CONTINUOUS
 62
4
 10
2.60495373500464
 20
-1.43249903746747
 30
0.0
 11
2.69160016072779
 21
-1.43249903746747
 31
0.0
  0
LINE
  8
4
  6
CONTINUOUS
 62
4
 10
2.60495373500464
 20
-0.792447647452273
 30
0.0
 11
2.60495373500464
 21
-1.43249903746747
 31
0.0
  0
LINE
  8
4
  6
CONTINUOUS
 62
4
 10
2.88445013798011
 20
-0.792447647452273
 30
0.0
 11
2.60495373500464
 21
-0.792447647452273
 31
0.0
  0
LINE
  8
4
  6
CONTINUOUS
 62
4
 10
2.88445013798011
 20
-0.865119669026774
 30
0.0
 11
2.88445013798011
 21
-0.792447647452273
 31
0.0
  0
LINE
  8
4
  6
CONTINUOUS
 62
4
 10
2.69160016072779
 20
-0.865119669026774
 30
0.0
 11
2.88445013798011
 21
-0.865119669026774
 31
0.0
  0
LINE
  8
4
  6
CONTINUOUS
 62
4
 10
3.0325589819499
 20
-1.06915172959877
 30
0.0
 11
3.0325589819499
 21
-0.865119669026774
 31
0.0
  0
LINE
  8
4
  6
CONTINUOUS
 62
4
 10
3.22261663837325
 20
-1.06915172959877
 30
0.0
 11
3.0325589819499
 21
-1.06915172959877
 31
0.0
  0
LINE
  8
4
  6
CONTINUOUS
 62
4
 10
3.22261663837325
 20
-1.14181735117137
 30
0.0
 11
3.22261663837325
 21
-1.06915172959877
 31
0.0
  0
LINE
  8
4
  6
CONTINUOUS
 62
4
 10
3.0325589819499
 20
-1.14181735117137
 30
0.0
 11
3.22261663837325
 21
-1.14181735117137
 31
0.0
  0
LINE
  8
4
  6
CONTINUOUS
 62
4
 10
3.0325589819499
 20
-1.35982701589297
 30
0.0
 11
3.0325589819499
 21
-1.14181735117137
 31
0.0
  0
LINE
  8
4
  6
CONTINUOUS
 62
4
 10
3.23938720335202
 20
-1.35982701589297
 30
0.0
 11
3.0325589819499
 21
-1.35982701589297
 31
0.0
  0
LINE
  8
4
  6
CONTINUOUS
 62
4
 10
3.23938720335202
 20
-1.43249903746747
 30
0.0
 11
3.23938720335202
 21
-1.35982701589297
 31
0.0
  0
LINE
  8
4
  6
CONTINUOUS
 62
4
 10
2.94591319622696
 20
-1.43249903746747
 30
0.0
 11
3.23938720335202
 21
-1.43249903746747
 31
0.0
  0
LINE
  8
4
  6
CONTINUOUS
 62
4
 10
2.94591319622696
 20
-0.792447647452273
 30
0.0
 11
2.94591319622696
 21
-1.43249903746747
 31
0.0
  0
LINE
  8
4
  6
CONTINUOUS
 62
4
 10
3.23379616169218
 20
-0.792447647452273
 30
0.0
 11
2.94591319622696
 21
-0.792447647452273
 31
0.0
  0
LINE
  8
4
  6
CONTINUOUS
 62
4
 10
3.23379616169218
 20
-0.865119669026774
 30
0.0
 11
3.23379616169218
 21
-0.792447647452273
 31
0.0
  0
LINE
  8
4
  6
CONTINUOUS
 62
4
 10
3.0325589819499
 20
-0.865119669026774
 30
0.0
 11
3.23379616169218
 21
-0.865119669026774
 31
0.0
  0
LINE
  8
4
  6
CONTINUOUS
 62
4
 10
3.38190436566178
 20
-1.06915172959877
 30
0.0
 11
3.38190436566178
 21
-0.865119669026774
 31
0.0
  0
LINE
  8
4
  6
CONTINUOUS
 62
4
 10
3.57196202208513
 20
-1.06915172959877
 30
0.0
 11
3.38190436566178
 21
-1.06915172959877
 31
0.0
  0
LINE
  8
4
  6
CONTINUOUS
 62
4
 10
3.57196202208513
 20
-1.14181735117137
 30
0.0
 11
3.57196202208513
 21
-1.06915172959877
 31
0.0
  0
LINE
  8
4
  6
CONTINUOUS
 62
4
 10
3.38190436566178
 20
-1.14181735117137
 30
0.0
 11
3.57196202208513
 21
-1.14181735117137
 31
0.0
  0
LINE
  8
4
  6
CONTINUOUS
 62
4
 10
3.38190436566178
 20
-1.35982701589297
 30
0.0
 11
3.38190436566178
 21
-1.14181735117137
 31
0.0
  0
LINE
  8
4
  6
CONTINUOUS
 62
4
 10
3.5887325870639
 20
-1.35982701589297
 30
0.0
 11
3.38190436566178
 21
-1.35982701589297
 31
0.0
  0
LINE
  8
4
  6
CONTINUOUS
 62
4
 10
3.5887325870639
 20
-1.43249903746747
 30
0.0
 11
3.5887325870639
 21
-1.35982701589297
 31
0.0
  0
LINE
  8
4
  6
CONTINUOUS
 62
4
 10
3.29525857993883
 20
-1.43249903746747
 30
0.0
 11
3.5887325870639
 21
-1.43249903746747
 31
0.0
  0
LINE
  8
4
  6
CONTINUOUS
 62
4
 10
3.29525857993883
 20
-0.792447647452273
 30
0.0
 11
3.29525857993883
 21
-1.43249903746747
 31
0.0
  0
LINE
  8
4
  6
CONTINUOUS
 62
4
 10
3.58314154540406
 20
-0.792447647452273
 30
0.0
 11
3.29525857993883
 21
-0.792447647452273
 31
0.0
  0
LINE
  8
4
  6
CONTINUOUS
 62
4
 10
3.58314154540406
 20
-0.865119669026774
 30
0.0
 11
3.58314154540406
 21
-0.792447647452273
 31
0.0
  0
LINE
  8
4
  6
CONTINUOUS
 62
4
 10
3.38190436566178
 20
-0.865119669026774
 30
0.0
 11
3.58314154540406
 21
-0.865119669026774
 31
0.0
  0
LINE
  8
4
  6
CONTINUOUS
 62
4
 10
3.87938355335087
 20
-1.43249903746747
 30
0.0
 11
3.87938355335087
 21
-0.865119669026773
 31
0.0
  0
LINE
  8
4
  6
CONTINUOUS
 62
4
 10
3.7927390476283
 20
-1.43249903746747
 30
0.0
 11
3.87938355335087
 21
-1.43249903746747
 31
0.0
  0
LINE
  8
4
  6
CONTINUOUS
 62
4
 10
3.7927390476283
 20
-0.865119669026773
 30
0.0
 11
3.7927390476283
 21
-1.43249903746747
 31
0.0
  0
LINE
  8
4
  6
CONTINUOUS
 62
4
 10
3.64460396365071
 20
-0.865119669026773
 30
0.0
 11
3.7927390476283
 21
-0.865119669026773
 31
0.0
  0
LINE
  8
4
  6
CONTINUOUS
 62
4
 10
3.64460396365071
 20
-0.792447647452273
 30
0.0
 11
3.64460396365071
 21
-0.865119669026773
 31
0.0
  0
LINE
  8
4
  6
CONTINUOUS
 62
4
 10
4.03031223815781
 20
-0.792447647452273
 30
0.0
 11
3.64460396365071
 21
-0.792447647452273
 31
0.0
  0
LINE
  8
4
  6
CONTINUOUS
 62
4
 10
4.03031223815781
 20
-0.865119669026773
 30
0.0
 11
4.03031223815781
 21
-0.792447647452273
 31
0.0
  0
LINE
  8
4
  6
CONTINUOUS
 62
4
 10
3.87938355335087
 20
-0.865119669026773
 30
0.0
 11
4.03031223815781
 21
-0.865119669026773
 31
0.0
  0
LINE
  8
4
  6
CONTINUOUS
 62
4
 10
-0.1968503935
 20
-0.1968503935
 30
0.0
 11
0.1968503935
 21
-0.1968503935
 31
0.0
  0
LINE
  8
4
  6
CONTINUOUS
 62
4
 10
0.1968503935
 20
0.1968503935
 30
0.0
 11
-0.1968503935
 21
0.1968503935
 31
0.0
  0
LINE
  8
4
  6
CONTINUOUS
 62
4
 10
-0.2362204725
 20
0.1574803145
 30
0.0
 11
-0.2362204725
 21
-0.1574803145
 31
0.0
  0
LINE
  8
4
  6
CONTINUOUS
 62
4
 10
0.2362204725
 20
0.1574803145
 30
0.0
 11
0.2362204725
 21
-0.1574803145
 31
0.0
  0
ARC
  8
4
  6
CONTINUOUS
 62
4
 10
0.177165354
 20
6.23145026714284E-16
 30
0.0
 40
0.0314960630000001
 50
359.999999999998
 51
180
  0
ARC
  8
4
  6
CONTINUOUS
 62
4
 10
0.177165354
 20
-6.19287871440414E-16
 30
0.0
 40
0.0314960630000001
 50
179.999999999998
 51
359.999999999998
  0
ARC
  8
4
  6
CONTINUOUS
 62
4
 10
-0.177165354
 20
-7.71431054773846E-18
 30
0.0
 40
0.0314960630000001
 50
359.999999999998
 51
180
  0
ARC
  8
4
  6
CONTINUOUS
 62
4
 10
-0.177165354
 20
-1.9196170896094E-16
 30
0.0
 40
0.0314960630000001
 50
179.999999999999
 51
360
  0
ARC
  8
4
  6
CONTINUOUS
 62
4
 10
-2.63677968348475E-16
 20
1.73472347597681E-16
 30
0.0
 40
0.059055118
 50
138.189685972003
 51
180
  0
ARC
  8
4
  6
CONTINUOUS
 62
4
 10
0
 20
1.32930649314524E-16
 30
0.0
 40
0.059055118
 50
179.999999999999
 51
360
  0
ARC
  8
4
  6
CONTINUOUS
 62
4
 10
-4.09394740330527E-16
 20
1.48596139659674E-15
 30
0.0
 40
0.059055118
 50
359.999999999998
 51
41.8103140279967
  0
ARC
  8
4
  6
CONTINUOUS
 62
4
 10
0.1968503935
 20
0.1574803145
 30
0.0
 40
0.039370079
 50
359.999999999999
 51
89.9999999999996
  0
ARC
  8
4
  6
CONTINUOUS
 62
4
 10
-0.1968503935
 20
0.1574803145
 30
0.0
 40
0.039370079
 50
89.9999999999996
 51
180
  0
ARC
  8
4
  6
CONTINUOUS
 62
4
 10
-0.1968503935
 20
-0.1574803145
 30
0.0
 40
0.039370079
 50
179.999999999999
 51
269.999999999999
  0
ARC
  8
4
  6
CONTINUOUS
 62
4
 10
0.1968503935
 20
-0.1574803145
 30
0.0
 40
0.039370079
 50
269.999999999999
 51
1.65388843436103E-13
  0
LINE
  8
4
  6
CONTINUOUS
 62
4
 10
0.0440170866853757
 20
0.039370078
 30
0.0
 11
-0.0440170866853757
 21
0.039370078
 31
0.0
  0
LINE
  8
4
  6
CONTINUOUS
 62
4
 10
1.44609687721952
 20
-0.078740157
 30
0.0
 11
1.47365593221952
 21
-0.078740157
 31
0.0
  0
LINE
  8
4
  6
CONTINUOUS
 62
4
 10
0.501214987219521
 20
-0.1968503935
 30
0.0
 11
1.44609687721952
 21
-0.1968503935
 31
0.0
  0
LINE
  8
4
  6
CONTINUOUS
 62
4
 10
1.44609687721952
 20
0.1968503935
 30
0.0
 11
0.501214987219521
 21
0.1968503935
 31
0.0
  0
LINE
  8
4
  6
CONTINUOUS
 62
4
 10
1.44609687721952
 20
-0.078740157
 30
0.0
 11
1.44609687721952
 21
-0.1968503935
 31
0.0
  0
LINE
  8
4
  6
CONTINUOUS
 62
4
 10
1.47365593221952
 20
0.039370078
 30
0.0
 11
1.83979766421952
 21
0.039370078
 31
0.0
  0
LINE
  8
4
  6
CONTINUOUS
 62
4
 10
0.501214987219521
 20
0.1968503935
 30
0.0
 11
0.501214987219521
 21
-0.1968503935
 31
0.0
  0
LINE
  8
4
  6
CONTINUOUS
 62
4
 10
1.83979766421952
 20
-0.0590551179999999
 30
0.0
 11
1.83979766421952
 21
0.039370078
 31
0.0
  0
LINE
  8
4
  6
CONTINUOUS
 62
4
 10
1.47365593221952
 20
0.039370078
 30
0.0
 11
1.47365593221952
 21
0.078740157
 31
0.0
  0
LINE
  8
4
  6
CONTINUOUS
 62
4
 10
1.44609687721952
 20
0.1968503935
 30
0.0
 11
1.44609687721952
 21
0.078740157
 31
0.0
  0
LINE
  8
4
  6
CONTINUOUS
 62
4
 10
1.83979766421952
 20
-0.0590551179999999
 30
0.0
 11
1.47365593221952
 21
-0.059055118
 31
0.0
  0
LINE
  8
4
  6
CONTINUOUS
 62
4
 10
1.47365593221952
 20
-0.078740157
 30
0.0
 11
1.47365593221952
 21
-0.059055118
 31
0.0
  0
LINE
  8
4
  6
CONTINUOUS
 62
4
 10
1.44609687721952
 20
0.078740157
 30
0.0
 11
1.47365593221952
 21
0.078740157
 31
0.0
  0
LINE
  8
4
  6
CONTINUOUS
 62
4
 10
-11.2190353202595
 20
-8.64988070761283
 30
0.0
 11
-11.1914762652595
 21
-8.64988070761283
 31
0.0
  0
LINE
  8
4
  6
CONTINUOUS
 62
4
 10
-12.1639172102595
 20
-8.76799094411283
 30
0.0
 11
-11.5733660292595
 21
-8.76799094411283
 31
0.0
  0
LINE
  8
4
  6
CONTINUOUS
 62
4
 10
-12.1639172102595
 20
-8.37429015711283
 30
0.0
 11
-11.5733660292595
 21
-8.37429015711283
 31
0.0
  0
LINE
  8
4
  6
CONTINUOUS
 62
4
 10
-11.2190353202595
 20
-8.37429015711283
 30
0.0
 11
-11.5733660292595
 21
-8.37429015711283
 31
0.0
  0
LINE
  8
4
  6
CONTINUOUS
 62
4
 10
-11.2190353202595
 20
-8.76799094411283
 30
0.0
 11
-11.5733660292595
 21
-8.76799094411283
 31
0.0
  0
LINE
  8
4
  6
CONTINUOUS
 62
4
 10
-11.2190353202595
 20
-8.64988070761283
 30
0.0
 11
-11.2190353202595
 21
-8.76799094411283
 31
0.0
  0
LINE
  8
4
  6
CONTINUOUS
 62
4
 10
-11.1914762652595
 20
-8.53177047261283
 30
0.0
 11
-10.8253345332595
 21
-8.53177047261283
 31
0.0
  0
LINE
  8
4
  6
CONTINUOUS
 62
4
 10
-12.1639172102595
 20
-8.57114055061283
 30
0.0
 11
-12.1639172102595
 21
-8.76799094411283
 31
0.0
  0
LINE
  8
4
  6
CONTINUOUS
 62
4
 10
-10.8253345332596
 20
-8.57114055061283
 30
0.0
 11
-10.8253345332595
 21
-8.53177047261283
 31
0.0
  0
LINE
  8
4
  6
CONTINUOUS
 62
4
 10
-11.1914762652595
 20
-8.53177047261283
 30
0.0
 11
-11.1914762652595
 21
-8.49240039361283
 31
0.0
  0
LINE
  8
4
  6
CONTINUOUS
 62
4
 10
-11.2190353202595
 20
-8.49240039361283
 30
0.0
 11
-11.2190353202595
 21
-8.64988070761283
 31
0.0
  0
LINE
  8
4
  6
CONTINUOUS
 62
4
 10
-11.2190353202595
 20
-8.37429015711283
 30
0.0
 11
-11.2190353202595
 21
-8.49240039361283
 31
0.0
  0
LINE
  8
4
  6
CONTINUOUS
 62
4
 10
-11.1914762652595
 20
-8.63019566861283
 30
0.0
 11
-11.1914762652595
 21
-8.53177047261283
 31
0.0
  0
LINE
  8
4
  6
CONTINUOUS
 62
4
 10
-10.8253345332595
 20
-8.63019566861283
 30
0.0
 11
-11.1914762652595
 21
-8.63019566861283
 31
0.0
  0
LINE
  8
4
  6
CONTINUOUS
 62
4
 10
-11.1914762652595
 20
-8.64988070761283
 30
0.0
 11
-11.1914762652595
 21
-8.63019566861283
 31
0.0
  0
LINE
  8
4
  6
CONTINUOUS
 62
4
 10
-11.2190353202595
 20
-8.49240039361283
 30
0.0
 11
-11.1914762652595
 21
-8.49240039361283
 31
0.0
  0
LINE
  8
4
  6
CONTINUOUS
 62
4
 10
-12.1639172102595
 20
-8.37429015711283
 30
0.0
 11
-12.1639172102595
 21
-8.57114055061283
 31
0.0
  0
LINE
  8
4
  6
CONTINUOUS
 62
4
 10
-10.8253345332595
 20
-8.63019566861283
 30
0.0
 11
-10.8253345332596
 21
-8.57114055061283
 31
0.0
  0
LINE
  8
4
  6
CONTINUOUS
 62
4
 10
4.13416272660503
 20
-8.69614055061282
 30
0.0
 11
2.56248979355978
 21
-8.69614055061283
 31
0.0
  0
LINE
  8
4
  6
CONTINUOUS
 62
4
 10
4.38416272660503
 20
-8.44614055061283
 30
0.0
 11
2.56248979355978
 21
-8.44614055061283
 31
0.0
  0
LINE
  8
4
  6
CONTINUOUS
 62
4
 10
4.38416272660502
 20
-8.64299094361284
 30
0.0
 11
4.97471390760502
 21
-8.64299094361284
 31
0.0
  0
LINE
  8
4
  6
CONTINUOUS
 62
4
 10
4.13416272660502
 20
-8.89299094361283
 30
0.0
 11
5.22471390760501
 21
-8.89299094361283
 31
0.0
  0
LINE
  8
4
  6
CONTINUOUS
 62
4
 10
6.06526508860498
 20
-8.4461405506017
 30
0.0
 11
6.32989811498754
 21
-8.44614055059899
 31
0.0
  0
LINE
  8
4
  6
CONTINUOUS
 62
4
 10
5.81526508860754
 20
-8.69614055060424
 30
0.0
 11
6.32989811499009
 21
-8.69614055059899
 31
0.0
  0
LINE
  8
4
  6
CONTINUOUS
 62
4
 10
5.81526508860453
 20
-8.49929015760423
 30
0.0
 11
5.22471390760453
 21
-8.49929015761026
 31
0.0
  0
LINE
  8
4
  6
CONTINUOUS
 62
4
 10
6.06526508860198
 20
-8.2492901576017
 30
0.0
 11
4.97471390760198
 21
-8.24929015761282
 31
0.0
  0
LINE
  8
4
  6
CONTINUOUS
 62
4
 10
0.0787401570000001
 20
1.36754609922769
 30
0.0
 11
0.0787401570000001
 21
1.39510515422769
 31
0.0
  0
LINE
  8
4
  6
CONTINUOUS
 62
4
 10
0.2362204725
 20
1.36754609922769
 30
0.0
 11
0.0787401570000001
 21
1.36754609922769
 31
0.0
  0
LINE
  8
4
  6
CONTINUOUS
 62
4
 10
-0.039370078
 20
1.39510515422769
 30
0.0
 11
-0.0393700779999999
 21
1.76124688622769
 31
0.0
  0
LINE
  8
4
  6
CONTINUOUS
 62
4
 10
-0.2362204725
 20
0.422664209227687
 30
0.0
 11
0.2362204725
 21
0.422664209227687
 31
0.0
  0
LINE
  8
4
  6
CONTINUOUS
 62
4
 10
0.059055118
 20
1.76124688622769
 30
0.0
 11
-0.0393700779999999
 21
1.76124688622769
 31
0.0
  0
LINE
  8
4
  6
CONTINUOUS
 62
4
 10
-0.039370078
 20
1.39510515422769
 30
0.0
 11
-0.078740157
 21
1.39510515422769
 31
0.0
  0
LINE
  8
4
  6
CONTINUOUS
 62
4
 10
-0.2362204725
 20
1.36754609922769
 30
0.0
 11
-0.078740157
 21
1.36754609922769
 31
0.0
  0
LINE
  8
4
  6
CONTINUOUS
 62
4
 10
0.059055118
 20
1.76124688622769
 30
0.0
 11
0.059055118
 21
1.39510515422769
 31
0.0
  0
LINE
  8
4
  6
CONTINUOUS
 62
4
 10
0.0787401570000001
 20
1.39510515422769
 30
0.0
 11
0.059055118
 21
1.39510515422769
 31
0.0
  0
LINE
  8
4
  6
CONTINUOUS
 62
4
 10
-0.078740157
 20
1.36754609922769
 30
0.0
 11
-0.078740157
 21
1.39510515422769
 31
0.0
  0
LINE
  8
4
  6
CONTINUOUS
 62
4
 10
-12.8214203701576
 20
-12.1295236750056
 30
0.0
 11
-11.8765384801576
 21
-12.1295236750056
 31
0.0
  0
LINE
  8
4
  6
CONTINUOUS
 62
4
 10
-12.8214203701576
 20
-11.6570827300056
 30
0.0
 11
-11.8765384801576
 21
-11.6570827300056
 31
0.0
  0
LINE
  8
4
  6
CONTINUOUS
 62
4
 10
-11.8765384801576
 20
-11.9720433595056
 30
0.0
 11
-11.8489794251576
 21
-11.9720433595056
 31
0.0
  0
LINE
  8
4
  6
CONTINUOUS
 62
4
 10
-11.8765384801576
 20
-12.1295236750056
 30
0.0
 11
-11.8765384801576
 21
-11.9720433595056
 31
0.0
  0
LINE
  8
4
  6
CONTINUOUS
 62
4
 10
-11.8489794251576
 20
-11.8539331245056
 30
0.0
 11
-11.4828376931576
 21
-11.8539331245056
 31
0.0
  0
LINE
  8
4
  6
CONTINUOUS
 62
4
 10
-12.8214203701576
 20
-11.6570827300056
 30
0.0
 11
-12.8214203701576
 21
-12.1295236750056
 31
0.0
  0
LINE
  8
4
  6
CONTINUOUS
 62
4
 10
-11.4828376931576
 20
-11.9523583205056
 30
0.0
 11
-11.4828376931576
 21
-11.8539331245056
 31
0.0
  0
LINE
  8
4
  6
CONTINUOUS
 62
4
 10
-11.8489794251576
 20
-11.8539331245056
 30
0.0
 11
-11.8489794251576
 21
-11.8145630455056
 31
0.0
  0
LINE
  8
4
  6
CONTINUOUS
 62
4
 10
-11.8765384801576
 20
-11.6570827300056
 30
0.0
 11
-11.8765384801576
 21
-11.8145630455056
 31
0.0
  0
LINE
  8
4
  6
CONTINUOUS
 62
4
 10
-11.4828376931576
 20
-11.9523583205056
 30
0.0
 11
-11.8489794251576
 21
-11.9523583205056
 31
0.0
  0
LINE
  8
4
  6
CONTINUOUS
 62
4
 10
-11.8489794251576
 20
-11.9720433595056
 30
0.0
 11
-11.8489794251576
 21
-11.9523583205056
 31
0.0
  0
LINE
  8
4
  6
CONTINUOUS
 62
4
 10
-11.8765384801576
 20
-11.8145630455056
 30
0.0
 11
-11.8489794251576
 21
-11.8145630455056
 31
0.0
  0
LINE
  8
5
  6
CONTINUOUS
 62
5
 10
-2.95954676373532
 20
-14.3716726251887
 30
0.0
 11
3.3801434682699
 21
-14.3716726251887
 31
0.0
  0
LINE
  8
5
  6
CONTINUOUS
 62
5
 10
-2.95954676373532
 20
-14.0567119951887
 30
0.0
 11
3.3801434682699
 21
-14.0567119951887
 31
0.0
  0
ARC
  8
5
  6
CONTINUOUS
 62
5
 10
-5.76329591725928
 20
-11.0324054390745
 30
0.0
 40
0.265376229879521
 50
333.434948822922
 51
153.434948822922
  0
ARC
  8
5
  6
CONTINUOUS
 62
5
 10
-5.76329591725928
 20
-11.0324054390745
 30
0.0
 40
0.265376229879521
 50
153.434948822922
 51
333.434948822922
  0
LINE
  8
5
  6
CONTINUOUS
 62
5
 10
8.26738167951336
 20
-9.40333975943912
 30
0.0
 11
9.25163364801336
 21
-9.40333975943913
 31
0.0
  0
LINE
  8
5
  6
CONTINUOUS
 62
5
 10
4.03233650239373
 20
-7.27192795211283
 30
0.0
 11
8.48776186083697
 21
-7.27192795211283
 31
0.0
  0
LINE
  8
5
  6
CONTINUOUS
 62
5
 10
8.48776186083697
 20
-7.58688858211283
 30
0.0
 11
4.03233650239373
 21
-7.58688858211283
 31
0.0
  0
LINE
  8
5
  6
CONTINUOUS
 62
5
 10
9.25163364801336
 20
-9.40333975943913
 30
0.0
 11
10.2358856165134
 21
-9.40333975943912
 31
0.0
  0
LINE
  8
5
  6
CONTINUOUS
 62
5
 10
7.97340000855648
 20
-9.42741823895751
 30
0.0
 11
8.94798459781013
 21
-9.56502934274429
 31
0.0
  0
LINE
  8
5
  6
CONTINUOUS
 62
5
 10
8.94798459781013
 20
-9.56502934274429
 30
0.0
 11
9.92256918706378
 21
-9.70264044653107
 31
0.0
  0
LINE
  8
5
  6
CONTINUOUS
 62
5
 10
8.26738167951336
 20
-9.79704054696931
 30
0.0
 11
9.25163364801336
 21
-9.79704054696931
 31
0.0
  0
LINE
  8
5
  6
CONTINUOUS
 62
5
 10
9.25163364801336
 20
-9.79704054696931
 30
0.0
 11
10.2358856165134
 21
-9.79704054696931
 31
0.0
  0
LINE
  8
5
  6
CONTINUOUS
 62
5
 10
10.5298672874702
 20
-9.42741823895751
 30
0.0
 11
9.5552826982166
 21
-9.56502934274429
 31
0.0
  0
LINE
  8
5
  6
CONTINUOUS
 62
5
 10
9.5552826982166
 20
-9.56502934274429
 30
0.0
 11
8.58069810896295
 21
-9.70264044653107
 31
0.0
  0
ARC
  8
6
  6
CONTINUOUS
 62
6
 10
5.36997327773882
 20
-13.3579083966461
 30
0.0
 40
0.142181330169281
 50
4.59477621531477
 51
149.038494491736
  0
ARC
  8
6
  6
CONTINUOUS
 62
6
 10
5.37612047382512
 20
-13.3404199261098
 30
0.0
 40
0.135714285660019
 50
317.774521376982
 51
357.424428339073
  0
ARC
  8
6
  6
CONTINUOUS
 62
6
 10
4.74299120979256
 20
-12.5761296924865
 30
0.0
 40
1.12697957097819
 50
302.86906411922
 51
310.614547377694
  0
ARC
  8
6
  6
CONTINUOUS
 62
6
 10
5.46482981128956
 20
-13.7236194241708
 30
0.0
 40
0.229162698122539
 50
118.743840716171
 51
172.045000000007
  0
LINE
  8
6
  6
CONTINUOUS
 62
6
 10
5.23787232986026
 20
-13.6919043830378
 30
0.0
 11
5.52185447733826
 21
-13.6919043527549
 31
0.0
  0
LINE
  8
6
  6
CONTINUOUS
 62
6
 10
5.79158667262407
 20
-13.6902838214231
 30
0.0
 11
5.79158667262407
 21
-13.2152838216131
 31
0.0
  0
LINE
  8
6
  6
CONTINUOUS
 62
6
 10
5.79158667262407
 20
-13.2152838216131
 30
0.0
 11
5.54560452986531
 21
-13.5783195357536
 31
0.0
  0
LINE
  8
6
  6
CONTINUOUS
 62
6
 10
5.54560452986531
 20
-13.5783195357536
 30
0.0
 11
5.86114024402482
 21
-13.5783195357536
 31
0.0
  0
LINE
  8
6
  6
CONTINUOUS
 62
6
 10
5.90989024402482
 20
-13.6902841200206
 30
0.0
 11
5.90989022942715
 21
-13.2152841671504
 31
0.0
  0
LINE
  8
6
  6
CONTINUOUS
 62
6
 10
5.90989022942715
 20
-13.2152841671504
 30
0.0
 11
6.11063427696588
 21
-13.5511770241589
 31
0.0
  0
LINE
  8
6
  6
CONTINUOUS
 62
6
 10
6.11063427696588
 20
-13.5511770241589
 30
0.0
 11
6.31081284831438
 21
-13.2152841671504
 31
0.0
  0
LINE
  8
6
  6
CONTINUOUS
 62
6
 10
6.31081284831438
 20
-13.2152841671504
 30
0.0
 11
6.31081284831438
 21
-13.6902841669604
 31
0.0
  0
LINE
  8
6
  6
CONTINUOUS
 62
6
 10
6.36974141972938
 20
-13.6902841200206
 30
0.0
 11
6.36974140513172
 21
-13.2152841671504
 31
0.0
  0
LINE
  8
6
  6
CONTINUOUS
 62
6
 10
6.36974140513172
 20
-13.2152841671504
 30
0.0
 11
6.57048545267045
 21
-13.5511770241589
 31
0.0
  0
LINE
  8
6
  6
CONTINUOUS
 62
6
 10
6.57048545267045
 20
-13.5511770241589
 30
0.0
 11
6.77066402401895
 21
-13.2152841671504
 31
0.0
  0
LINE
  8
6
  6
CONTINUOUS
 62
6
 10
6.77066402401895
 20
-13.2152841671504
 30
0.0
 11
6.77066402401895
 21
-13.6902841669604
 31
0.0
  0
LINE
  8
6
  6
CONTINUOUS
 62
6
 10
7.40209259543395
 20
-13.6902841198306
 30
0.0
 11
7.40209259543395
 21
-13.2152841200206
 31
0.0
  0
LINE
  8
6
  6
CONTINUOUS
 62
6
 10
7.40209259543395
 20
-13.2152841200206
 30
0.0
 11
7.57444973822217
 21
-13.2152841200206
 31
0.0
  0
ARC
  8
6
  6
CONTINUOUS
 62
6
 10
7.57216115766702
 20
-13.3340339441774
 30
0.0
 40
0.118771875198788
 50
271.095264000543
 51
88.8959160393197
  0
LINE
  8
6
  6
CONTINUOUS
 62
6
 10
7.57443145816256
 20
-13.4527841192253
 30
0.0
 11
7.41768145816256
 21
-13.4527841192253
 31
0.0
  0
LINE
  8
6
  6
CONTINUOUS
 62
6
 10
7.58119886075556
 20
-13.4663169199319
 30
0.0
 11
7.69319973817466
 21
-13.6902841198306
 31
0.0
  0
LINE
  8
6
  6
CONTINUOUS
 62
6
 10
8.02436936787815
 20
-13.6902890639361
 30
0.0
 11
7.74581579656101
 21
-13.6902890639361
 31
0.0
  0
LINE
  8
6
  6
CONTINUOUS
 62
6
 10
7.74581579656101
 20
-13.6902890639361
 30
0.0
 11
7.74564615370393
 21
-13.4527890640311
 31
0.0
  0
LINE
  8
6
  6
CONTINUOUS
 62
6
 10
7.74564615370393
 20
-13.4527890640311
 30
0.0
 11
7.96329793933115
 21
-13.4527890640311
 31
0.0
  0
LINE
  8
6
  6
CONTINUOUS
 62
6
 10
7.74563597799825
 20
-13.4456680760796
 30
0.0
 11
7.74547651084685
 21
-13.2152890641261
 31
0.0
  0
LINE
  8
6
  6
CONTINUOUS
 62
6
 10
7.74547651084685
 20
-13.2152890641261
 30
0.0
 11
8.00061936787815
 21
-13.2152890641261
 31
0.0
  0
LINE
  8
6
  6
CONTINUOUS
 62
6
 10
8.04811936787815
 20
-13.6902841198306
 30
0.0
 11
8.2262443678069
 21
-13.2152841200206
 31
0.0
  0
LINE
  8
6
  6
CONTINUOUS
 62
6
 10
8.2262443678069
 20
-13.2152841200206
 30
0.0
 11
8.40436936773565
 21
-13.6902841198306
 31
0.0
  0
LINE
  8
6
  6
CONTINUOUS
 62
6
 10
8.10053901072003
 20
-13.5884984055856
 30
0.0
 11
8.35194972489378
 21
-13.5884984055856
 31
0.0
  0
LINE
  8
6
  6
CONTINUOUS
 62
6
 10
8.45311936773565
 20
-13.6902841200206
 30
0.0
 11
8.45311935313799
 21
-13.2152841671504
 31
0.0
  0
LINE
  8
6
  6
CONTINUOUS
 62
6
 10
8.45311935313799
 20
-13.2152841671504
 30
0.0
 11
8.65386340067672
 21
-13.5511770241589
 31
0.0
  0
LINE
  8
6
  6
CONTINUOUS
 62
6
 10
8.65386340067672
 20
-13.5511770241589
 30
0.0
 11
8.85404197202522
 21
-13.2152841671504
 31
0.0
  0
LINE
  8
6
  6
CONTINUOUS
 62
6
 10
8.85404197202522
 20
-13.2152841671504
 30
0.0
 11
8.85404197202522
 21
-13.6902841669604
 31
0.0
  0
LINE
  8
6
  6
CONTINUOUS
 62
6
 10
9.19539017314372
 20
-13.6902890639361
 30
0.0
 11
8.91683660182657
 21
-13.6902890639361
 31
0.0
  0
LINE
  8
6
  6
CONTINUOUS
 62
6
 10
8.91683660182657
 20
-13.6902890639361
 30
0.0
 11
8.91666695896949
 21
-13.4527890640311
 31
0.0
  0
LINE
  8
6
  6
CONTINUOUS
 62
6
 10
8.91666695896949
 20
-13.4527890640311
 30
0.0
 11
9.13431874459672
 21
-13.4527890640311
 31
0.0
  0
LINE
  8
6
  6
CONTINUOUS
 62
6
 10
8.91665678326382
 20
-13.4456680760796
 30
0.0
 11
8.91649731611242
 21
-13.2152890641261
 31
0.0
  0
LINE
  8
6
  6
CONTINUOUS
 62
6
 10
8.91649731611242
 20
-13.2152890641261
 30
0.0
 11
9.17164017314372
 21
-13.2152890641261
 31
0.0
  0
LINE
  8
6
  6
CONTINUOUS
 62
6
 10
9.24289017314372
 20
-13.6902841198306
 30
0.0
 11
9.24289017314372
 21
-13.2152841200206
 31
0.0
  0
LINE
  8
6
  6
CONTINUOUS
 62
6
 10
9.24289017314372
 20
-13.2152841200206
 30
0.0
 11
9.41524731593194
 21
-13.2152841200206
 31
0.0
  0
ARC
  8
6
  6
CONTINUOUS
 62
6
 10
9.41295873537678
 20
-13.3340339441774
 30
0.0
 40
0.118771875198788
 50
271.095264000543
 51
88.8959160393197
  0
LINE
  8
6
  6
CONTINUOUS
 62
6
 10
9.41522903587233
 20
-13.4527841192253
 30
0.0
 11
9.25847903587232
 21
-13.4527841192253
 31
0.0
  0
LINE
  8
6
  6
CONTINUOUS
 62
6
 10
9.42199643846532
 20
-13.4663169199319
 30
0.0
 11
9.53399731588442
 21
-13.6902841198306
 31
0.0
  0
LINE
  8
6
  6
CONTINUOUS
 62
6
 10
-0.0661671106516913
 20
0.581237940274755
 30
0.0
 11
-0.127157110651691
 21
0.581237940274755
 31
0.0
  0
LINE
  8
6
  6
CONTINUOUS
 62
6
 10
-0.131411753482736
 20
0.509987940303255
 30
0.0
 11
-0.131411753482736
 21
0.652487940246255
 31
0.0
  0
LINE
  8
6
  6
CONTINUOUS
 62
6
 10
-0.131411753482736
 20
0.652487940246255
 30
0.0
 11
-0.0549706820875852
 21
0.652487940246255
 31
0.0
  0
LINE
  8
6
  6
CONTINUOUS
 62
6
 10
-0.0407206820875852
 20
0.50998473952461
 30
0.0
 11
0.0127168178910403
 21
0.65248473946761
 31
0.0
  0
LINE
  8
6
  6
CONTINUOUS
 62
6
 10
0.0127168178910403
 20
0.65248473946761
 30
0.0
 11
0.0661543178696658
 21
0.50998473952461
 31
0.0
  0
LINE
  8
6
  6
CONTINUOUS
 62
6
 10
-0.0249947892350225
 20
0.54052045379811
 30
0.0
 11
0.0504284250171031
 21
0.54052045379811
 31
0.0
  0
LINE
  8
6
  6
CONTINUOUS
 62
6
 10
0.139828429685177
 20
0.509984749453724
 30
0.0
 11
0.139828429685177
 21
0.648162656825605
 31
0.0
  0
LINE
  8
6
  6
CONTINUOUS
 62
6
 10
0.094279312381969
 20
0.652484749396724
 30
0.0
 11
0.185377526631243
 21
0.652484749396724
 31
0.0
  0
ARC
  8
6
  6
CONTINUOUS
 62
6
 10
0.641140993889809
 20
-0.0323027187012468
 30
0.0
 40
0.0410777930192835
 50
210.521999666259
 51
269.441063338051
  0
LINE
  8
6
  6
CONTINUOUS
 62
6
 10
0.640740274665075
 20
-0.0733785571398958
 30
0.0
 11
0.655261727801671
 21
-0.0735202225049895
 31
0.0
  0
ARC
  8
6
  6
CONTINUOUS
 62
6
 10
0.655627543623637
 20
-0.0360221445304388
 30
0.0
 40
0.0374998623064283
 50
269.441063677776
 51
357.350682656729
  0
ARC
  8
6
  6
CONTINUOUS
 62
6
 10
0.662584587152564
 20
-0.0405219454561372
 30
0.0
 40
0.0306279321306139
 50
5.18227244383216
 51
59.3448299999942
  0
LINE
  8
6
  6
CONTINUOUS
 62
6
 10
0.678200850495801
 20
-0.0141742217253823
 30
0.0
 11
0.622117518597327
 21
0.00991320166655107
 31
0.0
  0
ARC
  8
6
  6
CONTINUOUS
 62
6
 10
0.637733792156693
 20
0.0362609120890757
 30
0.0
 40
0.0306279258910913
 50
185.182406440223
 51
239.344800865824
  0
ARC
  8
6
  6
CONTINUOUS
 62
6
 10
0.644540727892847
 20
0.031860165316443
 30
0.0
 40
0.0373454339680684
 50
91.261343855053
 51
177.491952931064
  0
LINE
  8
6
  6
CONTINUOUS
 62
6
 10
0.64371864938623
 20
0.0691965500529482
 30
0.0
 11
0.658205571051649
 21
0.0692117834090643
 31
0.0
  0
ARC
  8
6
  6
CONTINUOUS
 62
6
 10
0.656911773694419
 20
0.0294538292617093
 30
0.0
 40
0.0397789998565167
 50
29.2717084966245
 51
88.1361471074763
  0
LINE
  8
6
  6
CONTINUOUS
 62
6
 10
0.717474550239043
 20
0.0692049443810298
 30
0.0
 11
0.717474550239043
 21
-0.0732950555619701
 31
0.0
  0
LINE
  8
6
  6
CONTINUOUS
 62
6
 10
0.797172764492878
 20
-0.0732950555619701
 30
0.0
 11
0.755456239212154
 21
0.0141654584915328
 31
0.0
  0
LINE
  8
6
  6
CONTINUOUS
 62
6
 10
0.721654945433044
 20
-0.0192150612989427
 30
0.0
 11
0.797172764492878
 21
0.0692049443810298
 31
0.0
  0
LINE
  8
6
  6
CONTINUOUS
 62
6
 10
0.819297758697171
 20
-0.0732950648103704
 30
0.0
 11
0.860012034856323
 21
-0.0732950648103704
 31
0.0
  0
LINE
  8
6
  6
CONTINUOUS
 62
6
 10
0.839654892007325
 20
-0.0690200648673703
 30
0.0
 11
0.839654892007325
 21
0.0649299351326295
 31
0.0
  0
LINE
  8
6
  6
CONTINUOUS
 62
6
 10
0.819297758697171
 20
0.0692049351326297
 30
0.0
 11
0.859797764492877
 21
0.0692049351326297
 31
0.0
  0
LINE
  8
6
  6
CONTINUOUS
 62
6
 10
0.876297764492878
 20
-0.0732950556189701
 30
0.0
 11
0.87629778093811
 21
0.0692049269147118
 31
0.0
  0
LINE
  8
6
  6
CONTINUOUS
 62
6
 10
0.87629778093811
 20
0.0692049269147118
 30
0.0
 11
0.963799566617395
 21
-0.0732950730282867
 31
0.0
  0
LINE
  8
6
  6
CONTINUOUS
 62
6
 10
0.963799566617395
 20
-0.0732950730282867
 30
0.0
 11
0.963799566617395
 21
0.0692049269147118
 31
0.0
  0
LINE
  8
6
  6
CONTINUOUS
 62
6
 10
0.979924566617394
 20
-0.0732950556189701
 30
0.0
 11
0.979924583062627
 21
0.0692049269147118
 31
0.0
  0
LINE
  8
6
  6
CONTINUOUS
 62
6
 10
0.979924583062627
 20
0.0692049269147118
 30
0.0
 11
1.06742636874191
 21
-0.0732950730282867
 31
0.0
  0
LINE
  8
6
  6
CONTINUOUS
 62
6
 10
1.06742636874191
 20
-0.0732950730282867
 30
0.0
 11
1.06742636874191
 21
0.0692049269147118
 31
0.0
  0
LINE
  8
6
  6
CONTINUOUS
 62
6
 10
1.08167636874191
 20
0.0692049443810298
 30
0.0
 11
1.12655093711172
 21
0.0016518307060579
 31
0.0
  0
LINE
  8
6
  6
CONTINUOUS
 62
6
 10
1.12900672586583
 20
-0.0732950555619701
 30
0.0
 11
1.12900672586583
 21
-0.00204505559047008
 31
0.0
  0
LINE
  8
6
  6
CONTINUOUS
 62
6
 10
1.12900672586583
 20
-0.00204505559047008
 30
0.0
 11
1.17633708298976
 21
0.0692049443810298
 31
0.0
  0
LINE
  8
9
  6
CONTINUOUS
 62
9
 10
3.3801434682699
 20
-16.0212872398219
 30
0.0
 11
3.3801434682699
 21
-12.4070973805555
 31
0.0
  0
LINE
  8
9
  6
CONTINUOUS
 62
9
 10
2.51932686588872
 20
-12.4070973805555
 30
0.0
 11
2.51932686588872
 21
-16.0212872398219
 31
0.0
  0
LINE
  8
9
  6
CONTINUOUS
 62
9
 10
-2.95954676373532
 20
-16.0212872398219
 30
0.0
 11
-2.95954676373532
 21
-12.4070973805555
 31
0.0
  0
LINE
  8
9
  6
CONTINUOUS
 62
9
 10
-2.09873016135414
 20
-12.4070973805555
 30
0.0
 11
-2.09873016135414
 21
-16.0212872398219
 31
0.0
  0
LINE
  8
9
  6
CONTINUOUS
 62
9
 10
-2.09873016135414
 20
-16.0212872398219
 30
0.0
 11
-2.95954676373532
 21
-16.0212872398219
 31
0.0
  0
LINE
  8
9
  6
CONTINUOUS
 62
9
 10
-2.09873016135414
 20
-12.4070973805555
 30
0.0
 11
-2.95954676373532
 21
-12.4070973805555
 31
0.0
  0
LINE
  8
9
  6
CONTINUOUS
 62
9
 10
4.03233650239373
 20
-7.58688858211283
 30
0.0
 11
4.03233650239373
 21
-5.67656923874688
 31
0.0
  0
LINE
  8
9
  6
CONTINUOUS
 62
9
 10
4.03233650239373
 20
-7.58688858211283
 30
0.0
 11
4.03233650239373
 21
-10.2521300288271
 31
0.0
  0
LINE
  8
9
  6
CONTINUOUS
 62
9
 10
-4.64670477986105
 20
-13.5841133836176
 30
0.0
 11
-4.30682953749862
 21
-13.5841133836176
 31
0.0
  0
LINE
  8
9
  6
CONTINUOUS
 62
9
 10
-4.64670477986105
 20
-13.767123129505
 30
0.0
 11
-4.30682953749862
 21
-13.767123129505
 31
0.0
  0
LINE
  8
9
  6
CONTINUOUS
 62
9
 10
-4.64670477986105
 20
-13.5841133836176
 30
0.0
 11
-4.64670477986105
 21
-13.767123129505
 31
0.0
  0
LINE
  8
9
  6
CONTINUOUS
 62
9
 10
-4.30682953749862
 20
-13.5841133836176
 30
0.0
 11
-4.30682953749862
 21
-13.767123129505
 31
0.0
  0
LINE
  8
9
  6
CONTINUOUS
 62
9
 10
-7.35157986718475
 20
-10.3192048839707
 30
0.0
 11
-7.35157986718475
 21
-14.0279504441158
 31
0.0
  0
LINE
  8
9
  6
CONTINUOUS
 62
9
 10
-4.1175537387382
 20
-10.3192048839707
 30
0.0
 11
-4.1175537387382
 21
-14.0279504441158
 31
0.0
  0
LINE
  8
9
  6
CONTINUOUS
 62
9
 10
-4.1175537387382
 20
-14.0279504441158
 30
0.0
 11
-7.35157986718475
 21
-14.0279504441158
 31
0.0
  0
LINE
  8
9
  6
CONTINUOUS
 62
9
 10
-4.1175537387382
 20
-10.3192048839707
 30
0.0
 11
-7.35157986718475
 21
-10.3192048839707
 31
0.0
  0
LINE
  8
9
  6
CONTINUOUS
 62
9
 10
-4.64670477986105
 20
-10.763041944469
 30
0.0
 11
-4.30682953749862
 21
-10.763041944469
 31
0.0
  0
LINE
  8
9
  6
CONTINUOUS
 62
9
 10
-4.64670477986105
 20
-10.5800321985815
 30
0.0
 11
-4.30682953749862
 21
-10.5800321985815
 31
0.0
  0
LINE
  8
9
  6
CONTINUOUS
 62
9
 10
-4.64670477986105
 20
-10.763041944469
 30
0.0
 11
-4.64670477986105
 21
-10.5800321985815
 31
0.0
  0
LINE
  8
9
  6
CONTINUOUS
 62
9
 10
-4.30682953749862
 20
-10.763041944469
 30
0.0
 11
-4.30682953749862
 21
-10.5800321985815
 31
0.0
  0
LINE
  8
9
  6
CONTINUOUS
 62
9
 10
-6.8224288260619
 20
-13.5841133836176
 30
0.0
 11
-7.16230406842433
 21
-13.5841133836176
 31
0.0
  0
LINE
  8
9
  6
CONTINUOUS
 62
9
 10
-6.8224288260619
 20
-13.767123129505
 30
0.0
 11
-7.16230406842433
 21
-13.767123129505
 31
0.0
  0
LINE
  8
9
  6
CONTINUOUS
 62
9
 10
-6.8224288260619
 20
-13.5841133836176
 30
0.0
 11
-6.8224288260619
 21
-13.767123129505
 31
0.0
  0
LINE
  8
9
  6
CONTINUOUS
 62
9
 10
-7.16230406842433
 20
-13.5841133836176
 30
0.0
 11
-7.16230406842433
 21
-13.767123129505
 31
0.0
  0
LINE
  8
9
  6
CONTINUOUS
 62
9
 10
-6.8224288260619
 20
-10.763041944469
 30
0.0
 11
-7.16230406842433
 21
-10.763041944469
 31
0.0
  0
LINE
  8
9
  6
CONTINUOUS
 62
9
 10
-6.8224288260619
 20
-10.5800321985815
 30
0.0
 11
-7.16230406842433
 21
-10.5800321985815
 31
0.0
  0
LINE
  8
9
  6
CONTINUOUS
 62
9
 10
-6.8224288260619
 20
-10.763041944469
 30
0.0
 11
-6.8224288260619
 21
-10.5800321985815
 31
0.0
  0
LINE
  8
9
  6
CONTINUOUS
 62
9
 10
-7.16230406842433
 20
-10.763041944469
 30
0.0
 11
-7.16230406842433
 21
-10.5800321985815
 31
0.0
  0
LINE
  8
9
  6
CONTINUOUS
 62
9
 10
2.51932686588872
 20
-16.0212872398219
 30
0.0
 11
3.3801434682699
 21
-16.0212872398219
 31
0.0
  0
LINE
  8
9
  6
CONTINUOUS
 62
9
 10
2.51932686588872
 20
-12.4070973805555
 30
0.0
 11
3.3801434682699
 21
-12.4070973805555
 31
0.0
  0
ARC
  8
23
  6
CONTINUOUS
 62
23
 10
11.8205594925842
 20
-8.86641614061284
 30
0.0
 40
0.295275589999999
 50
359.999999999998
 51
180
  0
ARC
  8
23
  6
CONTINUOUS
 62
23
 10
11.8205594925842
 20
-8.86641614061284
 30
0.0
 40
0.295275589999999
 50
179.999999999998
 51
359.999999999998
  0
ARC
  8
23
  6
CONTINUOUS
 62
23
 10
-5.76329591725928
 20
-13.2007468695858
 30
0.0
 40
0.295275589999999
 50
359.999999999998
 51
180
  0
ARC
  8
23
  6
CONTINUOUS
 62
23
 10
-5.76329591725928
 20
-13.2007468695858
 30
0.0
 40
0.295275589999999
 50
179.999999999998
 51
359.999999999998
  0
LINE
  8
24
  6
CONTINUOUS
 62
24
 10
4.25916272660502
 20
-8.76799094361283
 30
0.0
 11
4.25916272660503
 21
-8.57114055061283
 31
0.0
  0
LINE
  8
24
  6
CONTINUOUS
 62
24
 10
5.09971390760326
 20
-8.37429015761154
 30
0.0
 11
5.09971390760501
 21
-8.76799094361283
 31
0.0
  0
LINE
  8
24
  6
CONTINUOUS
 62
24
 10
5.94026508860626
 20
-8.57114055060297
 30
0.0
 11
5.94026508860325
 21
-8.37429015760296
 31
0.0
  0
LINE
  8
24
  6
CONTINUOUS
 62
24
 10
3.86952970022247
 20
-8.57114055061282
 30
0.0
 11
2.56248979355978
 21
-8.57114055061283
 31
0.0
  0
LINE
  8
24
  6
CONTINUOUS
 62
24
 10
4.25916272660502
 20
-8.76799094361283
 30
0.0
 11
5.09971390760501
 21
-8.76799094361283
 31
0.0
  0
LINE
  8
24
  6
CONTINUOUS
 62
24
 10
3.86952970022247
 20
-8.57114055061282
 30
0.0
 11
4.25916272660503
 21
-8.57114055061283
 31
0.0
  0
LINE
  8
24
  6
CONTINUOUS
 62
24
 10
5.94026508860325
 20
-8.37429015760296
 30
0.0
 11
5.09971390760326
 21
-8.37429015761154
 31
0.0
  0
LINE
  8
24
  6
CONTINUOUS
 62
24
 10
6.32989811498881
 20
-8.571140550599
 30
0.0
 11
5.94026508860626
 21
-8.57114055060297
 31
0.0
  0
ENDSEC
  0
EOF
