  0
SECTION
  2
HEADER
  9
$ACADVER
  1
AC1003
  9
$EXTMIN
 10
-0.1920784849966
 20
5.19171388261698
  9
$EXTMAX
 10
9.68976377999985
 20
-2.65121258280487E-11
  9
$INSUNITS
 70
1
  9
$INSBASE
 10
4.74884264750162
 20
2.59585694129523
999
Created with OMAX LAYOUT for Windows. (www.omax.com) 3/8/2024
  0
ENDSEC
  0
SECTION
  2
TABLES
  0
TABLE
  2
LAYER
 70
    10
  0
LAYER
  2
0
 70
     0
 62
     7
  6
CONTINUOUS
  0
LAYER
  2
1
 70
     0
 62
     7
  6
CONTINUOUS
  0
LAYER
  2
2
 70
     0
 62
     7
  6
CONTINUOUS
  0
LAYER
  2
3
 70
     0
 62
     7
  6
CONTINUOUS
  0
LAYER
  2
4
 70
     0
 62
     7
  6
CONTINUOUS
  0
LAYER
  2
5
 70
     0
 62
     7
  6
CONTINUOUS
  0
LAYER
  2
6
 70
     0
 62
     7
  6
CONTINUOUS
  0
LAYER
  2
7
 70
     0
 62
     7
  6
CONTINUOUS
  0
LAYER
  2
8
 70
     0
 62
     7
  6
CONTINUOUS
  0
LAYER
  2
9
 70
     0
 62
     7
  6
CONTINUOUS
  0
LAYER
  2
10
 70
     0
 62
     7
  6
CONTINUOUS
  0
LAYER
  2
11
 70
     0
 62
     7
  6
CONTINUOUS
  0
LAYER
  2
12
 70
     0
 62
     7
  6
CONTINUOUS
  0
LAYER
  2
13
 70
     0
 62
     7
  6
CONTINUOUS
  0
LAYER
  2
14
 70
     0
 62
     7
  6
CONTINUOUS
  0
LAYER
  2
15
 70
     0
 62
     7
  6
CONTINUOUS
  0
LAYER
  2
16
 70
     0
 62
     7
  6
CONTINUOUS
  0
LAYER
  2
17
 70
     0
 62
     7
  6
CONTINUOUS
  0
LAYER
  2
18
 70
     0
 62
     7
  6
CONTINUOUS
  0
LAYER
  2
19
 70
     0
 62
     7
  6
CONTINUOUS
  0
LAYER
  2
20
 70
     0
 62
     7
  6
CONTINUOUS
  0
LAYER
  2
21
 70
     0
 62
     7
  6
CONTINUOUS
  0
LAYER
  2
22
 70
     0
 62
     7
  6
CONTINUOUS
  0
LAYER
  2
23
 70
     0
 62
     7
  6
CONTINUOUS
  0
LAYER
  2
24
 70
     0
 62
     7
  6
CONTINUOUS
  0
LAYER
  2
25
 70
     0
 62
     7
  6
CONTINUOUS
  0
LAYER
  2
26
 70
     0
 62
     7
  6
CONTINUOUS
  0
LAYER
  2
27
 70
     0
 62
     7
  6
CONTINUOUS
  0
LAYER
  2
28
 70
     0
 62
     7
  6
CONTINUOUS
  0
LAYER
  2
29
 70
     0
 62
     7
  6
CONTINUOUS
  0
LAYER
  2
30
 70
     0
 62
     7
  6
CONTINUOUS
  0
LAYER
  2
31
 70
     0
 62
     7
  6
CONTINUOUS
  0
ENDTAB
  0
ENDSEC
  0
SECTION
  2
ENTITIES
  0
LINE
  8
0
  6
CONTINUOUS
 62
0
 10
-0.0529354549970074
 20
-2.65121258280487E-11
 30
0.0
 11
9.16110413562709
 21
0.263085460777588
 31
0.0
  0
LINE
  8
0
  6
CONTINUOUS
 62
0
 10
9.16055496157605
 20
0.280742259524372
 30
0.0
 11
9.16110413562709
 21
2.62529018477759
 31
0.0
  0
LINE
  8
0
  6
CONTINUOUS
 62
0
 10
9.16055496157605
 20
2.64294698352437
 30
0.0
 11
9.15981872946533
 21
4.39615302407468
 31
0.0
  0
LINE
  8
0
  6
CONTINUOUS
 62
0
 10
9.15678294557451
 20
4.3991888079655
 30
0.0
 11
8.57383619900579
 21
5.19171388261698
 31
0.0
  0
LINE
  8
0
  6
CONTINUOUS
 62
0
 10
8.65064828914508
 20
5.12723921831341
 30
0.0
 11
7.81973187998863
 21
3.04706597562451
 31
0.0
  0
LINE
  8
0
  6
CONTINUOUS
 62
0
 10
7.81973187998863
 20
3.05135922237534
 30
0.0
 11
7.81762368449404
 21
4.9777456265159
 31
0.0
  0
LINE
  8
0
  6
CONTINUOUS
 62
0
 10
7.82177064240931
 20
4.97885680054034
 30
0.0
 11
8.21333898801127
 21
4.98049308037534
 31
0.0
  0
LINE
  8
0
  6
CONTINUOUS
 62
0
 10
8.21333898801127
 20
4.97619983362451
 30
0.0
 11
8.27612701926266
 21
3.35106864220629
 31
0.0
  0
LINE
  8
0
  6
CONTINUOUS
 62
0
 10
8.37603184142085
 20
3.35979251967936
 30
0.0
 11
8.21057376579204
 21
3.04802286240545
 31
0.0
  0
LINE
  8
0
  6
CONTINUOUS
 62
0
 10
8.2142448732817
 20
3.05024370151962
 30
0.0
 11
8.01937185262709
 21
0.263085460777588
 31
0.0
  0
LINE
  8
0
  6
CONTINUOUS
 62
0
 10
8.01882267857605
 20
0.280742259524373
 30
0.0
 11
8.01647173229456
 21
2.62890365982199
 31
0.0
  0
LINE
  8
0
  6
CONTINUOUS
 62
0
 10
7.99955871107894
 20
2.62380328263176
 30
0.0
 11
7.33518213776258
 21
2.56747284039517
 31
0.0
  0
LINE
  8
0
  6
CONTINUOUS
 62
0
 10
7.43508695992077
 20
2.57619671786824
 30
0.0
 11
0.25388622383985
 21
3.9545835380243
 31
0.0
  0
LINE
  8
0
  6
CONTINUOUS
 62
0
 10
0.269452047129593
 20
3.94623073733021
 30
0.0
 11
0.534332482629029
 21
3.68040829677761
 31
0.0
  0
LINE
  8
0
  6
CONTINUOUS
 62
0
 10
0.533783308577987
 20
3.69806509552439
 30
0.0
 11
0.534415471822007
 21
3.95675661670533
 31
0.0
  0
LINE
  8
0
  6
CONTINUOUS
 62
0
 10
0.529315094631769
 20
3.97366963792095
 30
0.0
 11
0.52899963351165
 21
4.23076859479401
 31
0.0
  0
LINE
  8
0
  6
CONTINUOUS
 62
0
 10
0.54187320033509
 20
4.21867167736166
 30
0.0
 11
0.806392547777629
 21
3.9538564963756
 31
0.0
  0
LINE
  8
0
  6
CONTINUOUS
 62
0
 10
0.824049346524408
 20
3.95440567042683
 30
0.0
 11
2.30245554027758
 21
3.9538564963728
 31
0.0
  0
LINE
  8
0
  6
CONTINUOUS
 62
0
 10
2.32011233902437
 20
3.95440567042384
 30
0.0
 11
4.66466026427758
 21
3.9538564963728
 31
0.0
  0
LINE
  8
0
  6
CONTINUOUS
 62
0
 10
4.68231706302437
 20
3.95440567042384
 30
0.0
 11
6.15939803483985
 21
3.9545835380243
 31
0.0
  0
LINE
  8
0
  6
CONTINUOUS
 62
0
 10
6.1749638581296
 20
3.94623073733021
 30
0.0
 11
6.43984429362898
 21
3.68040829677761
 31
0.0
  0
LINE
  8
0
  6
CONTINUOUS
 62
0
 10
6.43929511957794
 20
3.69806509552439
 30
0.0
 11
6.43992728282201
 21
3.95675661670533
 31
0.0
  0
LINE
  8
0
  6
CONTINUOUS
 62
0
 10
6.43482690563177
 20
3.97366963792095
 30
0.0
 11
6.43451144451164
 21
4.23076859479401
 31
0.0
  0
LINE
  8
0
  6
CONTINUOUS
 62
0
 10
6.44738501133508
 20
4.21867167736166
 30
0.0
 11
6.71190435877763
 21
3.9538564963756
 31
0.0
  0
LINE
  8
0
  6
CONTINUOUS
 62
0
 10
6.72956115752441
 20
3.95440567042683
 30
0.0
 11
7.11836117223734
 21
3.96323582310486
 31
0.0
  0
LINE
  8
0
  6
CONTINUOUS
 62
0
 10
7.01845635007916
 20
3.95451194563179
 30
0.0
 11
7.1547937394277
 21
3.93807610450913
 31
0.0
  0
LINE
  8
0
  6
CONTINUOUS
 62
0
 10
7.1547937394277
 20
3.93807610450913
 30
0.0
 11
7.13839149732083
 21
3.8020174232634
 31
0.0
  0
LINE
  8
0
  6
CONTINUOUS
 62
0
 10
7.13839149732083
 20
3.8020174232634
 30
0.0
 11
7.10812554111202
 21
3.69965029860574
 31
0.0
  0
LINE
  8
0
  6
CONTINUOUS
 62
0
 10
7.10812554111202
 20
3.69965029860574
 30
0.0
 11
7.04319075538225
 21
3.57145816976624
 31
0.0
  0
LINE
  8
0
  6
CONTINUOUS
 62
0
 10
7.04319075538225
 20
3.57145816976624
 30
0.0
 11
6.97973844102455
 21
3.48561610479479
 31
0.0
  0
LINE
  8
0
  6
CONTINUOUS
 62
0
 10
6.97973844102455
 20
3.48561610479479
 30
0.0
 11
6.87487541176307
 21
3.3873639120036
 31
0.0
  0
LINE
  8
0
  6
CONTINUOUS
 62
0
 10
6.87487541176307
 20
3.3873639120036
 30
0.0
 11
6.84316342307078
 21
3.36432380357103
 31
0.0
  0
LINE
  8
0
  6
CONTINUOUS
 62
0
 10
6.84316342307078
 20
3.36432380357103
 30
0.0
 11
6.74693679987944
 21
3.30876733676829
 31
0.0
  0
LINE
  8
0
  6
CONTINUOUS
 62
0
 10
6.74693679987944
 20
3.30876733676829
 30
0.0
 11
6.71112748632475
 21
3.29282400317253
 31
0.0
  0
LINE
  8
0
  6
CONTINUOUS
 62
0
 10
6.71112748632475
 20
3.29282400317253
 30
0.0
 11
6.6054528067746
 21
3.25848821839358
 31
0.0
  0
LINE
  8
0
  6
CONTINUOUS
 62
0
 10
6.6054528067746
 20
3.25848821839358
 30
0.0
 11
6.5001781226636
 21
3.24081628580993
 31
0.0
  0
LINE
  8
0
  6
CONTINUOUS
 62
0
 10
6.5001781226636
 20
3.24081628580993
 30
0.0
 11
0.838922715788614
 21
2.72581219000996
 31
0.0
  0
LINE
  8
0
  6
CONTINUOUS
 62
0
 10
0.937681269319193
 20
2.70838153789446
 30
0.0
 11
2.30245554027763
 21
2.81212421137274
 31
0.0
  0
LINE
  8
0
  6
CONTINUOUS
 62
0
 10
2.32011233902442
 20
2.81267338542378
 30
0.0
 11
4.66466026427763
 21
2.81212421137274
 31
0.0
  0
LINE
  8
0
  6
CONTINUOUS
 62
0
 10
4.68231706302442
 20
2.81267338542378
 30
0.0
 11
6.75703253176047
 21
2.80841772187866
 31
0.0
  0
LINE
  8
0
  6
CONTINUOUS
 62
0
 10
6.85693735391785
 20
2.81714159936091
 30
0.0
 11
7.11836117223739
 21
2.82150353810481
 31
0.0
  0
LINE
  8
0
  6
CONTINUOUS
 62
0
 10
7.01845635007921
 20
2.81277966063174
 30
0.0
 11
6.94826169517799
 21
0.826707951794714
 31
0.0
  0
LINE
  8
0
  6
CONTINUOUS
 62
0
 10
6.95336207236823
 20
0.809794930579091
 30
0.0
 11
6.9518751702224
 21
0.239056891127246
 31
0.0
  0
LINE
  8
0
  6
CONTINUOUS
 62
0
 10
6.93421837147561
 20
0.238507717076205
 30
0.0
 11
6.36273929897571
 21
0.234201183339815
 31
0.0
  0
LINE
  8
0
  6
CONTINUOUS
 62
0
 10
6.3710920996698
 20
0.249767006629561
 30
0.0
 11
6.59250430277924
 21
0.604150342099884
 31
0.0
  0
LINE
  8
0
  6
CONTINUOUS
 62
0
 10
6.51569221263851
 20
0.668625006401733
 30
0.0
 11
6.3598127925329
 21
0.829575097698181
 31
0.0
  0
LINE
  8
0
  6
CONTINUOUS
 62
0
 10
6.3447961432942
 20
0.820271099645487
 30
0.0
 11
4.88494603622236
 21
0.534332481627247
 31
0.0
  0
LINE
  8
0
  6
CONTINUOUS
 62
0
 10
4.86728923747557
 20
0.533783307576205
 30
0.0
 11
2.52274131222236
 21
0.534332481627247
 31
0.0
  0
LINE
  8
0
  6
CONTINUOUS
 62
0
 10
2.50508451347557
 20
0.533783307576205
 30
0.0
 11
0.752540324875341
 21
0.531542902488675
 31
0.0
  0
LINE
  8
0
  6
CONTINUOUS
 62
0
 10
0.748247078124508
 20
0.531542902488675
 30
0.0
 11
-0.149857233237244
 21
0.5249531548952
 31
0.0
  0
LINE
  8
0
  6
CONTINUOUS
 62
0
 10
-0.0499524110790578
 20
0.533677032368267
 30
0.0
 11
-0.1920784849966
 21
0.536523439175866
 31
0.0
  0
LINE
  8
0
  6
CONTINUOUS
 62
0
 10
-0.1920784849966
 20
0.536523439175866
 30
0.0
 11
-0.184813844766366
 21
0.899259641039291
 31
0.0
  0
LINE
  8
0
  6
CONTINUOUS
 62
0
 10
-0.184813844766366
 20
0.899259641039291
 30
0.0
 11
-0.174655950021272
 21
0.959423392421358
 31
0.0
  0
LINE
  8
0
  6
CONTINUOUS
 62
0
 10
-0.174655950021272
 20
0.959423392421358
 30
0.0
 11
-0.153615093258398
 21
1.02071331431656
 31
0.0
  0
LINE
  8
0
  6
CONTINUOUS
 62
0
 10
-0.153615093258398
 20
1.02071331431656
 30
0.0
 11
-0.124238205949248
 21
1.07499704747345
 31
0.0
  0
LINE
  8
0
  6
CONTINUOUS
 62
0
 10
-0.124238205949248
 20
1.07499704747345
 30
0.0
 11
-0.0844365957346817
 21
1.12613415732104
 31
0.0
  0
LINE
  8
0
  6
CONTINUOUS
 62
0
 10
-0.0844365957346817
 20
1.12613415732104
 30
0.0
 11
-0.0390255298667892
 21
1.16793798836754
 31
0.0
  0
LINE
  8
0
  6
CONTINUOUS
 62
0
 10
-0.0390255298667892
 20
1.16793798836754
 30
0.0
 11
0.0152237117465423
 21
1.20338078684078
 31
0.0
  0
LINE
  8
0
  6
CONTINUOUS
 62
0
 10
0.0152237117465423
 20
1.20338078684078
 30
0.0
 11
0.0717479625604615
 21
1.22817462202914
 31
0.0
  0
LINE
  8
0
  6
CONTINUOUS
 62
0
 10
0.0717479625604615
 20
1.22817462202914
 30
0.0
 11
0.134566088479271
 21
1.24408233196128
 31
0.0
  0
LINE
  8
0
  6
CONTINUOUS
 62
0
 10
0.134566088479271
 20
1.24408233196128
 30
0.0
 11
0.180576682025731
 21
1.24981978123719
 31
0.0
  0
LINE
  8
0
  6
CONTINUOUS
 62
0
 10
0.180576682025731
 20
1.24981978123719
 30
0.0
 11
6.36282994251466
 21
1.96517128176923
 31
0.0
  0
LINE
  8
0
  6
CONTINUOUS
 62
0
 10
6.37083529260862
 20
1.98087356743648
 30
0.0
 11
6.94826169517803
 21
1.96844023479471
 31
0.0
  0
LINE
  8
0
  6
CONTINUOUS
 62
0
 10
6.95336207236827
 20
1.95152721357908
 30
0.0
 11
6.95320039216019
 21
1.38006213247574
 31
0.0
  0
LINE
  8
0
  6
CONTINUOUS
 62
0
 10
6.93763456887044
 20
1.38841493316983
 30
0.0
 11
6.5832512334001
 21
1.60982713627926
 31
0.0
  0
LINE
  8
0
  6
CONTINUOUS
 62
0
 10
6.51877656909826
 20
1.53301504613853
 30
0.0
 11
6.36132398922244
 21
1.38078917412724
 31
0.0
  0
LINE
  8
0
  6
CONTINUOUS
 62
0
 10
6.34366719047565
 20
1.3802400000762
 30
0.0
 11
4.8849460362224
 21
1.67606476462725
 31
0.0
  0
LINE
  8
0
  6
CONTINUOUS
 62
0
 10
4.86728923747561
 20
1.67551559057621
 30
0.0
 11
2.52345178161591
 21
1.67578847819048
 31
0.0
  0
LINE
  8
0
  6
CONTINUOUS
 62
0
 10
2.50625448699331
 20
1.67982793258266
 30
0.0
 11
2.09821806751604
 21
1.87214009550579
 31
0.0
  0
LINE
  8
0
  6
CONTINUOUS
 62
0
 10
2.09932924154048
 20
1.86799313759053
 30
0.0
 11
2.09734401783564
 21
1.47579681513939
 31
0.0
  0
LINE
  8
0
  6
CONTINUOUS
 62
0
 10
2.10031523991189
 20
1.47889213353096
 30
0.0
 11
0.168652292499449
 21
1.47449550238008
 31
0.0
  0
LINE
  8
0
  6
CONTINUOUS
 62
0
 10
0.170798915874866
 20
1.47821356313102
 30
0.0
 11
0.48462689941603
 21
1.93281993126265
 31
0.0
  0
LINE
  8
0
  6
CONTINUOUS
 62
0
 10
0.475903021942963
 20
2.03272475342084
 30
0.0
 11
0.170798915874866
 21
1.86824312886877
 31
0.0
  0
LINE
  8
0
  6
CONTINUOUS
 62
0
 10
0.168652292499449
 20
1.87196118961971
 30
0.0
 11
-0.0529354549939811
 21
2.24840679461704
 31
0.0
  0
LINE
  8
0
  6
CONTINUOUS
 62
0
 10
0.0238766351453062
 20
2.18393213031348
 30
0.0
 11
-0.0529354549939811
 21
5.14803149699994
 31
0.0
  0
LINE
  8
0
  6
CONTINUOUS
 62
0
 10
0.14553311345197
 20
2.34130480034254
 30
0.0
 11
0.101648049066206
 21
2.38073957083581
 31
0.0
  0
LINE
  8
0
  6
CONTINUOUS
 62
0
 10
0.222151092620899
 20
2.28372440899998
 30
0.0
 11
0.281151092620899
 21
2.28372440899998
 31
0.0
  0
LINE
  8
0
  6
CONTINUOUS
 62
0
 10
0.232881874512913
 20
3.4236386869883
 30
0.0
 11
0.182860540143706
 21
3.45492552300481
 31
0.0
  0
LINE
  8
0
  6
CONTINUOUS
 62
0
 10
0.0378658134508244
 20
1.09279601623472
 30
0.0
 11
0.0895029512504628
 21
1.1213373196363
 31
0.0
  0
LINE
  8
0
  6
CONTINUOUS
 62
0
 10
7.40603937099986
 20
1.04929985076138
 30
0.0
 11
7.40603937099986
 21
1.10829985076138
 31
0.0
  0
LINE
  8
0
  6
CONTINUOUS
 62
0
 10
8.57116788260596
 20
5.06482596995579
 30
0.0
 11
8.60098132935543
 21
5.1157392137428
 31
0.0
  0
LINE
  8
0
  6
CONTINUOUS
 62
0
 10
6.84959213598921
 20
2.36430391836419
 30
0.0
 11
6.80420232646285
 21
2.32661087933626
 31
0.0
  0
LINE
  8
0
  6
CONTINUOUS
 62
0
 10
6.80506073900638
 20
3.46898979479761
 30
0.0
 11
6.7563053874554
 21
3.43576456800921
 31
0.0
  0
LINE
  8
0
  6
CONTINUOUS
 62
0
 10
7.37518146914362
 20
2.22964179990119
 30
0.0
 11
7.41840962356509
 21
2.18948801221793
 31
0.0
  0
LINE
  8
0
  6
CONTINUOUS
 62
0
 10
7.44966895213942
 20
0.0592184590174474
 30
0.0
 11
7.4150505644739
 21
0.0114422386202624
 31
0.0
  0
LINE
  8
0
  6
CONTINUOUS
 62
0
 10
8.60527407346009
 20
0.026637517205803
 30
0.0
 11
8.57416493038903
 21
0.0767695550397494
 31
0.0
  0
LINE
  8
0
  6
CONTINUOUS
 62
0
 10
7.40603937099986
 20
2.31492737951952
 30
0.0
 11
7.40603937099986
 21
2.37392737951952
 31
0.0
  0
ARC
  8
3
  6
CONTINUOUS
 62
3
 10
9.15826771700435
 20
0.263779528034266
 30
0.0
 40
0.066929133965756
 50
74.9999999961386
 51
90.0000000038572
  0
ARC
  8
3
  6
CONTINUOUS
 62
3
 10
9.15826771699984
 20
0.263779528000021
 30
0.0
 40
0.0669291340000004
 50
89.999999999999
 51
270.000000000001
  0
ARC
  8
3
  6
CONTINUOUS
 62
3
 10
9.15826771700435
 20
0.263779527999428
 30
0.0
 40
0.0669291339994072
 50
269.999999996139
 51
75.0000000038558
  0
ARC
  8
3
  6
CONTINUOUS
 62
3
 10
9.15826771700435
 20
2.62598425203427
 30
0.0
 40
0.0669291339657556
 50
74.9999999961386
 51
90.0000000038573
  0
ARC
  8
3
  6
CONTINUOUS
 62
3
 10
9.15826771699984
 20
2.62598425200002
 30
0.0
 40
0.066929134
 50
89.999999999999
 51
270.000000000001
  0
ARC
  8
3
  6
CONTINUOUS
 62
3
 10
9.15826771700435
 20
2.62598425199943
 30
0.0
 40
0.0669291339994066
 50
269.99999999614
 51
75.0000000038565
  0
ARC
  8
3
  6
CONTINUOUS
 62
3
 10
8.82362204800388
 20
4.95118110300525
 30
0.0
 40
0.196850393994669
 50
90.0000000011751
 51
135.000000002461
  0
LINE
  8
3
  6
CONTINUOUS
 62
3
 10
8.82362204799984
 20
5.14803149699992
 30
0.0
 11
9.49291338599985
 21
5.14803149699992
 31
0.0
  0
ARC
  8
3
  6
CONTINUOUS
 62
3
 10
9.49291338599984
 20
4.95118110299994
 30
0.0
 40
0.196850393999998
 50
359.999999999999
 51
90.0000000000045
  0
LINE
  8
3
  6
CONTINUOUS
 62
3
 10
9.68976377999985
 20
4.95118110299994
 30
0.0
 11
9.68976377999985
 21
0.196850394000021
 31
0.0
  0
ARC
  8
3
  6
CONTINUOUS
 62
3
 10
9.49291338599985
 20
0.196850394000022
 30
0.0
 40
0.196850394
 50
270
 51
1.53511459547513E-13
  0
LINE
  8
3
  6
CONTINUOUS
 62
3
 10
9.49291338599985
 20
2.1316282072803E-14
 30
0.0
 11
8.82362204799984
 21
2.1316282072803E-14
 31
0.0
  0
ARC
  8
3
  6
CONTINUOUS
 62
3
 10
8.82362204799985
 20
0.196850394000018
 30
0.0
 40
0.196850394000002
 50
179.999999999999
 51
207.451253577356
  0
LINE
  8
3
  6
CONTINUOUS
 62
3
 10
8.62677165399985
 20
0.196850394000021
 30
0.0
 11
8.62677165399985
 21
4.95118110299991
 31
0.0
  0
ARC
  8
3
  6
CONTINUOUS
 62
3
 10
8.82362204801143
 20
4.95118110298886
 30
0.0
 40
0.196850394011589
 50
135.000000000642
 51
145.277716022088
  0
LINE
  8
3
  6
CONTINUOUS
 62
3
 10
8.42598425249994
 20
3.35761155031109
 30
0.0
 11
8.42598425249994
 21
4.80118110122652
 31
0.0
  0
ARC
  8
3
  6
CONTINUOUS
 62
3
 10
8.46535433149994
 20
4.80118110122653
 30
0.0
 40
0.0393700789999975
 50
154.471220414705
 51
180.000000000006
  0
ARC
  8
3
  6
CONTINUOUS
 62
3
 10
8.41206482722794
 20
4.82663175572802
 30
0.0
 40
0.0196850400000012
 50
334.471220414707
 51
115.528779585304
  0
ARC
  8
3
  6
CONTINUOUS
 62
3
 10
8.38661417272644
 20
4.87992125999992
 30
0.0
 40
0.0393700789999924
 50
269.999999999992
 51
295.528779585296
  0
LINE
  8
3
  6
CONTINUOUS
 62
3
 10
8.38661417272644
 20
4.84055118099992
 30
0.0
 11
8.21338582749994
 21
4.84055118099992
 31
0.0
  0
ARC
  8
3
  6
CONTINUOUS
 62
3
 10
8.21338582749994
 20
4.97834645699991
 30
0.0
 40
0.137795276
 50
192.839588443758
 51
270
  0
ARC
  8
3
  6
CONTINUOUS
 62
3
 10
8.04065030743585
 20
4.93897637799993
 30
0.0
 40
0.0393700789999988
 50
12.839588443755
 51
89.999999999996
  0
LINE
  8
3
  6
CONTINUOUS
 62
3
 10
8.04065030743584
 20
4.97834645699992
 30
0.0
 11
7.99242056056404
 21
4.97834645699992
 31
0.0
  0
ARC
  8
3
  6
CONTINUOUS
 62
3
 10
7.99242056056404
 20
4.93897637799992
 30
0.0
 40
0.0393700790000001
 50
89.9999999999937
 51
167.160411556238
  0
ARC
  8
3
  6
CONTINUOUS
 62
3
 10
7.81968504049995
 20
4.97834645699992
 30
0.0
 40
0.137795276
 50
269.999999999996
 51
347.160411556241
  0
LINE
  8
3
  6
CONTINUOUS
 62
3
 10
7.81968504049994
 20
4.84055118099992
 30
0.0
 11
7.64645669527337
 21
4.84055118099992
 31
0.0
  0
ARC
  8
3
  6
CONTINUOUS
 62
3
 10
7.64645669527336
 20
4.87992125999992
 30
0.0
 40
0.0393700789999963
 50
244.471220414699
 51
270.000000000001
  0
ARC
  8
3
  6
CONTINUOUS
 62
3
 10
7.62100604077184
 20
4.82663175572802
 30
0.0
 40
0.0196850400000006
 50
64.4712204146831
 51
205.528779585301
  0
ARC
  8
3
  6
CONTINUOUS
 62
3
 10
7.56771653649992
 20
4.80118110122653
 30
0.0
 40
0.0393700789999972
 50
359.999999999996
 51
25.5287795853003
  0
LINE
  8
3
  6
CONTINUOUS
 62
3
 10
7.60708661549991
 20
4.80118110122652
 30
0.0
 11
7.60708661549991
 21
3.22637795477332
 31
0.0
  0
ARC
  8
3
  6
CONTINUOUS
 62
3
 10
7.56771653649991
 20
3.22637795477332
 30
0.0
 40
0.0393700789999996
 50
334.471220414694
 51
359.999999999997
  0
ARC
  8
3
  6
CONTINUOUS
 62
3
 10
7.62100604077184
 20
3.20092730027182
 30
0.0
 40
0.0196850400000011
 50
154.471220414698
 51
295.528779585309
  0
ARC
  8
3
  6
CONTINUOUS
 62
3
 10
7.64645669527336
 20
3.14763779599992
 30
0.0
 40
0.0393700789999975
 50
89.999999999999
 51
115.5287795853
  0
LINE
  8
3
  6
CONTINUOUS
 62
3
 10
7.64645669527337
 20
3.18700787499992
 30
0.0
 11
7.81968504049994
 21
3.18700787499992
 31
0.0
  0
ARC
  8
3
  6
CONTINUOUS
 62
3
 10
7.81968504049994
 20
3.04921259899992
 30
0.0
 40
0.137795275999999
 50
12.839588443748
 51
90.000000000001
  0
ARC
  8
3
  6
CONTINUOUS
 62
3
 10
7.99242056056404
 20
3.08858267799992
 30
0.0
 40
0.0393700790000006
 50
192.839588443759
 51
269.999999999999
  0
LINE
  8
3
  6
CONTINUOUS
 62
3
 10
7.99242056056404
 20
3.04921259899992
 30
0.0
 11
8.04065030743584
 21
3.04921259899992
 31
0.0
  0
ARC
  8
3
  6
CONTINUOUS
 62
3
 10
8.04065030743584
 20
3.08858267799992
 30
0.0
 40
0.0393700790000008
 50
269.999999999997
 51
347.160411556238
  0
ARC
  8
3
  6
CONTINUOUS
 62
3
 10
8.21338582749994
 20
3.04921259899992
 30
0.0
 40
0.137795276
 50
89.9999999999951
 51
167.16041155624
  0
LINE
  8
3
  6
CONTINUOUS
 62
3
 10
8.21338582749994
 20
3.18700787499992
 30
0.0
 11
8.38661417272644
 21
3.18700787499992
 31
0.0
  0
ARC
  8
3
  6
CONTINUOUS
 62
3
 10
8.38661417272644
 20
3.14763779599992
 30
0.0
 40
0.0393700789999978
 50
64.4712204146845
 51
89.9999999999896
  0
ARC
  8
3
  6
CONTINUOUS
 62
3
 10
8.41206482722795
 20
3.20092730027182
 30
0.0
 40
0.0196850399999991
 50
244.471220414686
 51
25.5287795852914
  0
ARC
  8
3
  6
CONTINUOUS
 62
3
 10
8.46535433149994
 20
3.22637795477332
 30
0.0
 40
0.039370078999998
 50
179.999999999995
 51
205.528779585294
  0
LINE
  8
3
  6
CONTINUOUS
 62
3
 10
8.42598425249994
 20
3.22637795477332
 30
0.0
 11
8.42598425249994
 21
3.35761155031109
 31
0.0
  0
ARC
  8
3
  6
CONTINUOUS
 62
3
 10
8.01653543400435
 20
0.263779528034273
 30
0.0
 40
0.0669291339657492
 50
74.9999999961366
 51
90.0000000038567
  0
ARC
  8
3
  6
CONTINUOUS
 62
3
 10
8.01653543399984
 20
0.263779528000022
 30
0.0
 40
0.0669291340000004
 50
89.999999999999
 51
270.000000000001
  0
ARC
  8
3
  6
CONTINUOUS
 62
3
 10
8.01653543400435
 20
0.263779527999429
 30
0.0
 40
0.0669291339994071
 50
269.99999999614
 51
75.000000003855
  0
ARC
  8
3
  6
CONTINUOUS
 62
3
 10
8.01653543399534
 20
2.62598425199551
 30
0.0
 40
0.0669291339954932
 50
179.999999996141
 51
270.000000003858
  0
ARC
  8
3
  6
CONTINUOUS
 62
3
 10
8.01653543399984
 20
2.62598425200002
 30
0.0
 40
0.066929134
 50
270
 51
90
  0
ARC
  8
3
  6
CONTINUOUS
 62
3
 10
8.01653543399534
 20
2.62598425200453
 30
0.0
 40
0.0669291339954932
 50
89.9999999961398
 51
180.000000003857
  0
LINE
  8
3
  6
CONTINUOUS
 62
3
 10
7.48503937099986
 20
2.57401574849997
 30
0.0
 11
7.48503937099986
 21
4.95118110299992
 31
0.0
  0
ARC
  8
3
  6
CONTINUOUS
 62
3
 10
7.68188976499986
 20
4.95118110299992
 30
0.0
 40
0.196850394000001
 50
89.9999999999991
 51
180
  0
LINE
  8
3
  6
CONTINUOUS
 62
3
 10
7.68188976499986
 20
5.14803149699992
 30
0.0
 11
8.35118110299984
 21
5.14803149699992
 31
0.0
  0
ARC
  8
3
  6
CONTINUOUS
 62
3
 10
8.35118110299983
 20
4.95118110299994
 30
0.0
 40
0.196850394000006
 50
2.08728870587733E-12
 51
90.0000000000022
  0
LINE
  8
3
  6
CONTINUOUS
 62
3
 10
8.54803149699984
 20
4.95118110299995
 30
0.0
 11
8.54803149699984
 21
0.196850394000022
 31
0.0
  0
ARC
  8
3
  6
CONTINUOUS
 62
3
 10
8.35118110299984
 20
0.196850394000023
 30
0.0
 40
0.196850394
 50
270
 51
359.999999999999
  0
LINE
  8
3
  6
CONTINUOUS
 62
3
 10
8.35118110299984
 20
2.22044604925031E-14
 30
0.0
 11
7.68188976499986
 21
2.22044604925031E-14
 31
0.0
  0
ARC
  8
3
  6
CONTINUOUS
 62
3
 10
7.68188976499986
 20
0.196850394000022
 30
0.0
 40
0.196850394
 50
180
 51
270
  0
LINE
  8
3
  6
CONTINUOUS
 62
3
 10
7.48503937099986
 20
0.196850394000022
 30
0.0
 11
7.48503937099986
 21
1.06379985076139
 31
0.0
  0
ARC
  8
3
  6
CONTINUOUS
 62
3
 10
0.255905513014545
 20
3.95669291499404
 30
0.0
 40
0.0669291339854883
 50
314.999999994853
 51
5.14440725286125E-9
  0
ARC
  8
3
  6
CONTINUOUS
 62
3
 10
0.255905513000034
 20
3.95669291500004
 30
0.0
 40
0.0669291339999987
 50
359.999999999996
 51
179.999999999999
  0
ARC
  8
3
  6
CONTINUOUS
 62
3
 10
0.25590551299879
 20
3.95669291499704
 30
0.0
 40
0.0669291339987542
 50
179.999999997427
 51
315.000000002571
  0
ARC
  8
3
  6
CONTINUOUS
 62
3
 10
0.53149606400629
 20
3.68110236403429
 30
0.0
 40
0.0669291339657579
 50
74.9999999961403
 51
90.0000000038584
  0
ARC
  8
3
  6
CONTINUOUS
 62
3
 10
0.531496064001096
 20
3.68110236400004
 30
0.0
 40
0.0669291339999987
 50
89.999999999999
 51
270.000000000001
  0
ARC
  8
3
  6
CONTINUOUS
 62
3
 10
0.53149606400629
 20
3.68110236399945
 30
0.0
 40
0.0669291339994054
 50
269.99999999614
 51
75.0000000038574
  0
ARC
  8
3
  6
CONTINUOUS
 62
3
 10
0.531496063995527
 20
3.95669291500455
 30
0.0
 40
0.066929133995493
 50
89.9999999961388
 51
180.000000003856
  0
ARC
  8
3
  6
CONTINUOUS
 62
3
 10
0.531496064000035
 20
3.95669291500004
 30
0.0
 40
0.0669291340000004
 50
179.999999999996
 51
360.000000000002
  0
ARC
  8
3
  6
CONTINUOUS
 62
3
 10
0.531496064004542
 20
3.95669291500455
 30
0.0
 40
0.066929133995493
 50
359.999999996138
 51
90.0000000038562
  0
ARC
  8
3
  6
CONTINUOUS
 62
3
 10
0.53149606400135
 20
4.23228346600125
 30
0.0
 40
0.0669291339987924
 50
299.99999999614
 51
90.0000000038581
  0
ARC
  8
3
  6
CONTINUOUS
 62
3
 10
0.531496063994786
 20
4.23228346600004
 30
0.0
 40
0.0669291340000004
 50
89.999999999999
 51
270.000000000001
  0
ARC
  8
3
  6
CONTINUOUS
 62
3
 10
0.531496064001349
 20
4.23228346598322
 30
0.0
 40
0.0669291339831799
 50
269.999999996141
 51
300.000000003858
  0
ARC
  8
3
  6
CONTINUOUS
 62
3
 10
0.807086615043083
 20
3.95669291499719
 30
0.0
 40
0.0669291339569509
 50
344.999999995734
 51
5.43798517217906E-9
  0
ARC
  8
3
  6
CONTINUOUS
 62
3
 10
0.807086615000034
 20
3.95669291500285
 30
0.0
 40
0.0669291340000004
 50
5.82372284394696E-10
 51
180.000000000585
  0
ARC
  8
3
  6
CONTINUOUS
 62
3
 10
0.807086614999593
 20
3.95669291499951
 30
0.0
 40
0.0669291339995598
 50
179.99999999772
 51
345.000000003451
  0
ARC
  8
3
  6
CONTINUOUS
 62
3
 10
2.30314960754566
 20
3.95669291499404
 30
0.0
 40
0.0669291339543537
 50
344.999999994856
 51
5.14551567616774E-9
  0
ARC
  8
3
  6
CONTINUOUS
 62
3
 10
2.30314960750002
 20
3.95669291500004
 30
0.0
 40
0.0669291340000004
 50
1.36127740366639E-12
 51
180.000000000003
  0
ARC
  8
3
  6
CONTINUOUS
 62
3
 10
2.30314960749962
 20
3.95669291499704
 30
0.0
 40
0.0669291339996048
 50
179.999999997427
 51
345.000000002573
  0
ARC
  8
3
  6
CONTINUOUS
 62
3
 10
4.66535433154566
 20
3.95669291499404
 30
0.0
 40
0.0669291339543526
 50
344.999999994855
 51
5.14422914179909E-9
  0
ARC
  8
3
  6
CONTINUOUS
 62
3
 10
4.66535433150002
 20
3.95669291500004
 30
0.0
 40
0.0669291339999996
 50
1.48849959092493E-12
 51
180.000000000001
  0
ARC
  8
3
  6
CONTINUOUS
 62
3
 10
4.66535433149962
 20
3.95669291499704
 30
0.0
 40
0.0669291339996037
 50
179.999999997427
 51
345.000000002573
  0
ARC
  8
3
  6
CONTINUOUS
 62
3
 10
6.16141732401455
 20
3.95669291499404
 30
0.0
 40
0.0669291339854902
 50
314.999999994854
 51
5.14461080836087E-9
  0
ARC
  8
3
  6
CONTINUOUS
 62
3
 10
6.16141732400004
 20
3.95669291500004
 30
0.0
 40
0.0669291340000004
 50
359.999999999996
 51
179.999999999999
  0
ARC
  8
3
  6
CONTINUOUS
 62
3
 10
6.16141732399879
 20
3.95669291499704
 30
0.0
 40
0.0669291339987561
 50
179.999999997427
 51
315.000000002571
  0
ARC
  8
3
  6
CONTINUOUS
 62
3
 10
6.43700787500624
 20
3.68110236403428
 30
0.0
 40
0.0669291339657644
 50
74.9999999961425
 51
90.0000000038591
  0
ARC
  8
3
  6
CONTINUOUS
 62
3
 10
6.43700787500114
 20
3.68110236400004
 30
0.0
 40
0.0669291339999987
 50
89.999999999999
 51
270.000000000001
  0
ARC
  8
3
  6
CONTINUOUS
 62
3
 10
6.43700787500624
 20
3.68110236399945
 30
0.0
 40
0.0669291339994052
 50
269.999999996141
 51
75.0000000038597
  0
ARC
  8
3
  6
CONTINUOUS
 62
3
 10
6.43700787499553
 20
3.95669291500455
 30
0.0
 40
0.066929133995493
 50
89.9999999961388
 51
180.000000003856
  0
ARC
  8
3
  6
CONTINUOUS
 62
3
 10
6.43700787500004
 20
3.95669291500004
 30
0.0
 40
0.0669291340000004
 50
179.999999999996
 51
360.000000000002
  0
ARC
  8
3
  6
CONTINUOUS
 62
3
 10
6.43700787500454
 20
3.95669291500455
 30
0.0
 40
0.066929133995493
 50
359.999999996138
 51
90.0000000038562
  0
ARC
  8
3
  6
CONTINUOUS
 62
3
 10
6.43700787500134
 20
4.23228346600125
 30
0.0
 40
0.0669291339987927
 50
299.999999996141
 51
90.0000000038585
  0
ARC
  8
3
  6
CONTINUOUS
 62
3
 10
6.43700787499474
 20
4.23228346600004
 30
0.0
 40
0.0669291340000004
 50
89.999999999999
 51
270.000000000001
  0
ARC
  8
3
  6
CONTINUOUS
 62
3
 10
6.43700787500134
 20
4.23228346598322
 30
0.0
 40
0.0669291339831784
 50
269.999999996141
 51
300.000000003858
  0
ARC
  8
3
  6
CONTINUOUS
 62
3
 10
6.71259842604309
 20
3.95669291499719
 30
0.0
 40
0.066929133956951
 50
344.999999995735
 51
5.43905383855203E-9
  0
ARC
  8
3
  6
CONTINUOUS
 62
3
 10
6.71259842600004
 20
3.95669291500285
 30
0.0
 40
0.0669291340000004
 50
5.82372284394696E-10
 51
180.000000000585
  0
ARC
  8
3
  6
CONTINUOUS
 62
3
 10
6.7125984259996
 20
3.95669291499951
 30
0.0
 40
0.0669291339995599
 50
179.99999999772
 51
345.000000003451
  0
ARC
  8
3
  6
CONTINUOUS
 62
3
 10
6.43700787498809
 20
3.95669291501194
 30
0.0
 40
0.531496064011977
 50
270.00000000129
 51
302.655961049885
  0
LINE
  8
3
  6
CONTINUOUS
 62
3
 10
6.43700787500004
 20
3.42519685099999
 30
0.0
 11
0.531496064000037
 21
3.42519685100003
 31
0.0
  0
ARC
  8
3
  6
CONTINUOUS
 62
3
 10
0.531496063999976
 20
3.95669291500008
 30
0.0
 40
0.531496064000035
 50
90.0000000000057
 51
236.358033823238
  0
LINE
  8
3
  6
CONTINUOUS
 62
3
 10
0.531496063999987
 20
4.48818897900008
 30
0.0
 11
6.437007875
 21
4.48818897900005
 31
0.0
  0
ARC
  8
3
  6
CONTINUOUS
 62
3
 10
6.43700787498808
 20
3.95669291498808
 30
0.0
 40
0.53149606401198
 50
1.29013560138625E-9
 51
89.9999999987177
  0
ARC
  8
3
  6
CONTINUOUS
 62
3
 10
2.30314960754571
 20
2.81496062999398
 30
0.0
 40
0.0669291339543519
 50
344.999999994854
 51
5.14430706538879E-9
  0
ARC
  8
3
  6
CONTINUOUS
 62
3
 10
2.30314960750007
 20
2.81496062999998
 30
0.0
 40
0.0669291340000004
 50
359.999999999998
 51
180.000000000001
  0
ARC
  8
3
  6
CONTINUOUS
 62
3
 10
2.30314960749967
 20
2.81496062999698
 30
0.0
 40
0.0669291339996047
 50
179.999999997427
 51
345.000000002572
  0
ARC
  8
3
  6
CONTINUOUS
 62
3
 10
4.66535433154572
 20
2.81496062999398
 30
0.0
 40
0.066929133954351
 50
344.999999994854
 51
5.14440725286125E-9
  0
ARC
  8
3
  6
CONTINUOUS
 62
3
 10
4.66535433150007
 20
2.81496062999998
 30
0.0
 40
0.0669291339999996
 50
3.4349990559806E-13
 51
180.000000000001
  0
ARC
  8
3
  6
CONTINUOUS
 62
3
 10
4.66535433149967
 20
2.81496062999698
 30
0.0
 40
0.0669291339996038
 50
179.999999997427
 51
345.000000002572
  0
ARC
  8
3
  6
CONTINUOUS
 62
3
 10
6.43700787498814
 20
2.81496063001189
 30
0.0
 40
0.531496064011977
 50
270.000000001289
 51
308.090013513428
  0
LINE
  8
3
  6
CONTINUOUS
 62
3
 10
6.43700787500009
 20
2.28346456599994
 30
0.0
 11
0.531496064000086
 21
2.28346456599998
 31
0.0
  0
ARC
  8
3
  6
CONTINUOUS
 62
3
 10
0.531496064000012
 20
2.81496063000002
 30
0.0
 40
0.531496064000023
 50
90.0000000000061
 51
226.440158224715
  0
LINE
  8
3
  6
CONTINUOUS
 62
3
 10
0.531496064000037
 20
3.34645669400003
 30
0.0
 11
6.43700787500005
 21
3.34645669399999
 31
0.0
  0
ARC
  8
3
  6
CONTINUOUS
 62
3
 10
6.43700787498813
 20
2.81496062998803
 30
0.0
 40
0.53149606401198
 50
1.29003382363644E-9
 51
89.9999999987176
  0
ARC
  8
3
  6
CONTINUOUS
 62
3
 10
6.95118110300447
 20
0.826771653495493
 30
0.0
 40
0.0669291339954951
 50
269.99999999614
 51
3.85808280081824E-9
  0
ARC
  8
3
  6
CONTINUOUS
 62
3
 10
6.95118110299997
 20
0.8267716535
 30
0.0
 40
0.0669291340000022
 50
359.999999999999
 51
179.999999999999
  0
ARC
  8
3
  6
CONTINUOUS
 62
3
 10
6.95118110299546
 20
0.826771653495492
 30
0.0
 40
0.0669291339954951
 50
179.99999999614
 51
270.000000003857
  0
ARC
  8
3
  6
CONTINUOUS
 62
3
 10
6.95118110297713
 20
0.236220472503004
 30
0.0
 40
0.0669291339771669
 50
164.999999997423
 51
180.00000000257
  0
ARC
  8
3
  6
CONTINUOUS
 62
3
 10
6.95118110299997
 20
0.236220472499999
 30
0.0
 40
0.0669291340000022
 50
179.999999999998
 51
359.999999999998
  0
ARC
  8
3
  6
CONTINUOUS
 62
3
 10
6.95118110300076
 20
0.236220472506008
 30
0.0
 40
0.0669291339992111
 50
359.999999994853
 51
165.000000005141
  0
ARC
  8
3
  6
CONTINUOUS
 62
3
 10
6.36062992199872
 20
0.236220472503004
 30
0.0
 40
0.066929133998758
 50
44.9999999974283
 51
180.000000002573
  0
ARC
  8
3
  6
CONTINUOUS
 62
3
 10
6.36062992199997
 20
0.236220472499999
 30
0.0
 40
0.0669291340000022
 50
180.000000000001
 51
1.32311074748882E-12
  0
ARC
  8
3
  6
CONTINUOUS
 62
3
 10
6.36062992201447
 20
0.23622047250601
 30
0.0
 40
0.0669291339854931
 50
359.999999994854
 51
45.0000000051446
  0
ARC
  8
3
  6
CONTINUOUS
 62
3
 10
6.65590551247327
 20
0.531496063011034
 30
0.0
 40
0.246062991973304
 50
134.99999999742
 51
180.00000000257
  0
ARC
  8
3
  6
CONTINUOUS
 62
3
 10
6.65590551249996
 20
0.531496062999998
 30
0.0
 40
0.246062991999999
 50
179.999999999999
 51
360
  0
ARC
  8
3
  6
CONTINUOUS
 62
3
 10
6.65590551250911
 20
0.531496063022065
 30
0.0
 40
0.24606299199085
 50
359.999999994852
 51
135.000000005138
  0
ARC
  8
3
  6
CONTINUOUS
 62
3
 10
6.36062992200076
 20
0.82677165349399
 30
0.0
 40
0.0669291339992108
 50
194.999999994853
 51
5.14434364176762E-9
  0
ARC
  8
3
  6
CONTINUOUS
 62
3
 10
6.36062992199997
 20
0.8267716535
 30
0.0
 40
0.0669291340000022
 50
359.999999999998
 51
180
  0
ARC
  8
3
  6
CONTINUOUS
 62
3
 10
6.36062992197714
 20
0.826771653496996
 30
0.0
 40
0.0669291339771804
 50
179.999999997427
 51
195.000000002572
  0
ARC
  8
3
  6
CONTINUOUS
 62
3
 10
4.8842519689771
 20
0.531496063003005
 30
0.0
 40
0.066929133977172
 50
164.999999997427
 51
180.000000002572
  0
ARC
  8
3
  6
CONTINUOUS
 62
3
 10
4.88425196899992
 20
0.531496063
 30
0.0
 40
0.0669291340000004
 50
179.999999999998
 51
359.999999999998
  0
ARC
  8
3
  6
CONTINUOUS
 62
3
 10
4.88425196900072
 20
0.53149606300601
 30
0.0
 40
0.0669291339992093
 50
359.999999994854
 51
165.000000005144
  0
ARC
  8
3
  6
CONTINUOUS
 62
3
 10
2.5220472449771
 20
0.531496063003005
 30
0.0
 40
0.066929133977172
 50
164.999999997427
 51
180.000000002572
  0
ARC
  8
3
  6
CONTINUOUS
 62
3
 10
2.52204724499992
 20
0.531496063
 30
0.0
 40
0.0669291340000004
 50
179.999999999997
 51
359.999999999998
  0
ARC
  8
3
  6
CONTINUOUS
 62
3
 10
2.52204724500072
 20
0.53149606300601
 30
0.0
 40
0.0669291339992093
 50
359.999999994854
 51
165.000000005144
  0
LINE
  8
3
  6
CONTINUOUS
 62
3
 10
3.50830475781549E-14
 20
0.531496063000001
 30
0.0
 11
3.50830475781549E-14
 21
0.866141732000001
 31
0.0
  0
ARC
  8
3
  6
CONTINUOUS
 62
3
 10
0.196850393989833
 20
0.866141732010201
 30
0.0
 40
0.1968503939898
 50
89.9999999970282
 51
114.560492918401
  0
LINE
  8
3
  6
CONTINUOUS
 62
3
 10
0.196850394000034
 20
1.062992126
 30
0.0
 11
7.20944881999987
 21
1.062992126
 31
0.0
  0
ARC
  8
3
  6
CONTINUOUS
 62
3
 10
7.20944881999986
 20
0.866141732000001
 30
0.0
 40
0.196850394
 50
359.999999999992
 51
89.9999999999988
  0
LINE
  8
3
  6
CONTINUOUS
 62
3
 10
7.40629921399987
 20
0.866141732000001
 30
0.0
 11
7.40629921399987
 21
0.196850394
 31
0.0
  0
ARC
  8
3
  6
CONTINUOUS
 62
3
 10
7.20944881999987
 20
0.196850393999999
 30
0.0
 40
0.196850393999998
 50
270.000000000005
 51
319.70294440781
  0
LINE
  8
3
  6
CONTINUOUS
 62
3
 10
7.20944881999987
 20
0
 30
0.0
 11
0.196850394000005
 21
0
 31
0.0
  0
ARC
  8
3
  6
CONTINUOUS
 62
3
 10
0.196850394000024
 20
0.196850394
 30
0.0
 40
0.196850393999998
 50
179.999999999992
 51
269.999999999993
  0
LINE
  8
3
  6
CONTINUOUS
 62
3
 10
3.50830475781549E-14
 20
0.196850394
 30
0.0
 11
3.50830475781549E-14
 21
0.531496063000001
 31
0.0
  0
ARC
  8
3
  6
CONTINUOUS
 62
3
 10
6.36067135000491
 20
1.96713569080976
 30
0.0
 40
0.0669016988540232
 50
46.1718711295601
 51
181.171871129561
  0
ARC
  8
3
  6
CONTINUOUS
 62
3
 10
6.36064335911161
 20
1.96850404640204
 30
0.0
 40
0.0669156968884839
 50
182.343836361471
 51
359.999905897669
  0
ARC
  8
3
  6
CONTINUOUS
 62
3
 10
6.36067135001929
 20
1.96713569081606
 30
0.0
 40
0.0669016988395194
 50
1.17187112441482
 51
46.171871134705
  0
ARC
  8
3
  6
CONTINUOUS
 62
3
 10
6.95118110300451
 20
1.96850393649549
 30
0.0
 40
0.0669291339954947
 50
269.99999999614
 51
3.85775202313137E-9
  0
ARC
  8
3
  6
CONTINUOUS
 62
3
 10
6.951181103
 20
1.96850393649999
 30
0.0
 40
0.0669291340000022
 50
359.999999999998
 51
180
  0
ARC
  8
3
  6
CONTINUOUS
 62
3
 10
6.9511811029955
 20
1.96850393649549
 30
0.0
 40
0.0669291339954947
 50
179.99999999614
 51
270.000000003857
  0
ARC
  8
3
  6
CONTINUOUS
 62
3
 10
6.95118110299275
 20
1.377952755503
 30
0.0
 40
0.0669291339927444
 50
134.999999997424
 51
180.000000002571
  0
ARC
  8
3
  6
CONTINUOUS
 62
3
 10
6.951181103
 20
1.37795275549998
 30
0.0
 40
0.0669291340000022
 50
179.999999999998
 51
359.999999999998
  0
ARC
  8
3
  6
CONTINUOUS
 62
3
 10
6.95118110300249
 20
1.377952755506
 30
0.0
 40
0.0669291339975134
 50
359.999999994853
 51
135.000000005141
  0
ARC
  8
3
  6
CONTINUOUS
 62
3
 10
6.65590551250916
 20
1.6732283459779
 30
0.0
 40
0.246062991990847
 50
224.999999994854
 51
5.14478891942303E-9
  0
ARC
  8
3
  6
CONTINUOUS
 62
3
 10
6.6559055125
 20
1.67322834599998
 30
0.0
 40
0.246062991999999
 50
359.999999999995
 51
179.999999999995
  0
ARC
  8
3
  6
CONTINUOUS
 62
3
 10
6.65590551247334
 20
1.67322834598894
 30
0.0
 40
0.246062991973332
 50
179.999999997427
 51
225.000000002571
  0
ARC
  8
3
  6
CONTINUOUS
 62
3
 10
6.36062992197718
 20
1.37795275550299
 30
0.0
 40
0.0669291339771804
 50
164.999999997428
 51
180.000000002572
  0
ARC
  8
3
  6
CONTINUOUS
 62
3
 10
6.360629922
 20
1.37795275549998
 30
0.0
 40
0.0669291340000022
 50
180.000000000001
 51
1.67933287181274E-12
  0
ARC
  8
3
  6
CONTINUOUS
 62
3
 10
6.36062992200079
 20
1.377952755506
 30
0.0
 40
0.0669291339992108
 50
359.999999994855
 51
165.000000005146
  0
ARC
  8
3
  6
CONTINUOUS
 62
3
 10
4.88425196897713
 20
1.67322834600301
 30
0.0
 40
0.066929133977172
 50
164.999999997427
 51
180.000000002572
  0
ARC
  8
3
  6
CONTINUOUS
 62
3
 10
4.88425196899996
 20
1.673228346
 30
0.0
 40
0.0669291340000004
 50
179.999999999998
 51
359.999999999998
  0
ARC
  8
3
  6
CONTINUOUS
 62
3
 10
4.88425196900075
 20
1.67322834600601
 30
0.0
 40
0.0669291339992093
 50
359.999999994854
 51
165.000000005144
  0
ARC
  8
3
  6
CONTINUOUS
 62
3
 10
2.52204724498875
 20
1.67322834600301
 30
0.0
 40
0.0669291339887859
 50
149.999999997427
 51
180.000000002572
  0
ARC
  8
3
  6
CONTINUOUS
 62
3
 10
2.52204724499996
 20
1.673228346
 30
0.0
 40
0.0669291340000004
 50
179.999999999997
 51
359.999999999997
  0
ARC
  8
3
  6
CONTINUOUS
 62
3
 10
2.52204724500157
 20
1.67322834600601
 30
0.0
 40
0.0669291339983903
 50
359.999999994854
 51
150.000000005144
  0
LINE
  8
3
  6
CONTINUOUS
 62
3
 10
0.47808399131123
 20
2.08267716449993
 30
0.0
 11
0.346850395773463
 21
2.08267716449993
 31
0.0
  0
ARC
  8
3
  6
CONTINUOUS
 62
3
 10
0.346850395773463
 20
2.12204724349993
 30
0.0
 40
0.0393700789999996
 50
244.471220414694
 51
269.999999999997
  0
ARC
  8
3
  6
CONTINUOUS
 62
3
 10
0.321399741271963
 20
2.068757739228
 30
0.0
 40
0.0196850400000001
 50
64.4712204146976
 51
205.528779585314
  0
ARC
  8
3
  6
CONTINUOUS
 62
3
 10
0.268110237000063
 20
2.04330708472648
 30
0.0
 40
0.0393700789999927
 50
359.999999999992
 51
25.5287795852958
  0
LINE
  8
3
  6
CONTINUOUS
 62
3
 10
0.307480316000063
 20
2.04330708472647
 30
0.0
 11
0.307480316000063
 21
1.8700787394999
 31
0.0
  0
ARC
  8
3
  6
CONTINUOUS
 62
3
 10
0.169685040000073
 20
1.8700787394999
 30
0.0
 40
0.137795276
 50
282.839588443755
 51
3.00328845413882E-12
  0
ARC
  8
3
  6
CONTINUOUS
 62
3
 10
0.209055119000063
 20
1.6973432194358
 30
0.0
 40
0.0393700790000006
 50
102.83958844376
 51
180
  0
LINE
  8
3
  6
CONTINUOUS
 62
3
 10
0.169685040000063
 20
1.6973432194358
 30
0.0
 11
0.169685040000063
 21
1.649113472564
 31
0.0
  0
ARC
  8
3
  6
CONTINUOUS
 62
3
 10
0.209055119000073
 20
1.649113472564
 30
0.0
 40
0.0393700790000001
 50
179.999999999999
 51
257.16041155624
  0
ARC
  8
3
  6
CONTINUOUS
 62
3
 10
0.169685040000062
 20
1.4763779524999
 30
0.0
 40
0.137795276
 50
359.999999999999
 51
77.1604115562418
  0
LINE
  8
3
  6
CONTINUOUS
 62
3
 10
0.307480316000063
 20
1.4763779524999
 30
0.0
 11
0.307480316000063
 21
1.3031496072734
 31
0.0
  0
ARC
  8
3
  6
CONTINUOUS
 62
3
 10
0.268110237000073
 20
1.3031496072734
 30
0.0
 40
0.0393700789999902
 50
334.471220414691
 51
359.999999999995
  0
ARC
  8
3
  6
CONTINUOUS
 62
3
 10
0.321399741271964
 20
1.2776989527719
 30
0.0
 40
0.0196850399999995
 50
154.471220414688
 51
295.528779585291
  0
ARC
  8
3
  6
CONTINUOUS
 62
3
 10
0.346850395773463
 20
1.2244094484999
 30
0.0
 40
0.0393700789999981
 50
89.9999999999938
 51
115.528779585294
  0
LINE
  8
3
  6
CONTINUOUS
 62
3
 10
0.346850395773463
 20
1.2637795274999
 30
0.0
 11
1.92165354222666
 21
1.2637795274999
 31
0.0
  0
ARC
  8
3
  6
CONTINUOUS
 62
3
 10
1.92165354222666
 20
1.2244094484999
 30
0.0
 40
0.0393700789999978
 50
64.4712204147055
 51
90.0000000000059
  0
ARC
  8
3
  6
CONTINUOUS
 62
3
 10
1.94710419672817
 20
1.2776989527719
 30
0.0
 40
0.0196850399999949
 50
244.471220414714
 51
25.5287795853282
  0
ARC
  8
3
  6
CONTINUOUS
 62
3
 10
2.00039370100006
 20
1.3031496072734
 30
0.0
 40
0.0393700789999942
 50
180.000000000003
 51
205.528779585307
  0
LINE
  8
3
  6
CONTINUOUS
 62
3
 10
1.96102362200006
 20
1.3031496072734
 30
0.0
 11
1.96102362200006
 21
1.4763779524999
 31
0.0
  0
ARC
  8
3
  6
CONTINUOUS
 62
3
 10
2.09881889800006
 20
1.4763779524999
 30
0.0
 40
0.137795276
 50
102.839588443758
 51
180
  0
ARC
  8
3
  6
CONTINUOUS
 62
3
 10
2.05944881900006
 20
1.649113472564
 30
0.0
 40
0.0393700790000009
 50
282.83958844376
 51
1.92741613696689E-12
  0
LINE
  8
3
  6
CONTINUOUS
 62
3
 10
2.09881889800006
 20
1.649113472564
 30
0.0
 11
2.09881889800006
 21
1.6973432194358
 31
0.0
  0
ARC
  8
3
  6
CONTINUOUS
 62
3
 10
2.05944881900006
 20
1.6973432194358
 30
0.0
 40
0.039370079
 50
359.999999999999
 51
77.1604115562393
  0
ARC
  8
3
  6
CONTINUOUS
 62
3
 10
2.09881889800007
 20
1.8700787394999
 30
0.0
 40
0.137795276000001
 50
179.999999999995
 51
257.160411556241
  0
LINE
  8
3
  6
CONTINUOUS
 62
3
 10
1.96102362200006
 20
1.8700787394999
 30
0.0
 11
1.96102362200006
 21
2.04330708472647
 31
0.0
  0
ARC
  8
3
  6
CONTINUOUS
 62
3
 10
2.00039370100006
 20
2.04330708472648
 30
0.0
 40
0.0393700789999963
 50
154.471220414699
 51
180.000000000001
  0
ARC
  8
3
  6
CONTINUOUS
 62
3
 10
1.94710419672816
 20
2.068757739228
 30
0.0
 40
0.0196850400000007
 50
334.471220414689
 51
115.5287795853
  0
ARC
  8
3
  6
CONTINUOUS
 62
3
 10
1.92165354222666
 20
2.12204724349993
 30
0.0
 40
0.0393700790000011
 50
270.000000000003
 51
295.528779585305
  0
LINE
  8
3
  6
CONTINUOUS
 62
3
 10
1.92165354222666
 20
2.08267716449993
 30
0.0
 11
0.47808399131123
 21
2.08267716449993
 31
0.0
  0
ARC
  8
3
  6
CONTINUOUS
 62
3
 10
0.196850394004116
 20
2.00787401500531
 30
0.0
 40
0.196850393994677
 50
90.0000000011744
 51
135.00000000246
  0
LINE
  8
3
  6
CONTINUOUS
 62
3
 10
0.196850394000073
 20
2.20472440899998
 30
0.0
 11
0.236651092620899
 21
2.20472440899998
 31
0.0
  0
ARC
  8
3
  6
CONTINUOUS
 62
3
 10
7.20944881999991
 20
2.00787401499999
 30
0.0
 40
0.196850393999994
 50
359.999999999991
 51
42.7414155128258
  0
LINE
  8
3
  6
CONTINUOUS
 62
3
 10
7.4062992139999
 20
2.00787401499998
 30
0.0
 11
7.4062992139999
 21
1.338582677
 31
0.0
  0
ARC
  8
3
  6
CONTINUOUS
 62
3
 10
7.2094488199999
 20
1.338582677
 30
0.0
 40
0.196850393999998
 50
270.000000000006
 51
6.87084294679846E-12
  0
LINE
  8
3
  6
CONTINUOUS
 62
3
 10
7.2094488199999
 20
1.141732283
 30
0.0
 11
0.196850394000043
 21
1.141732283
 31
0.0
  0
ARC
  8
3
  6
CONTINUOUS
 62
3
 10
0.196850394010001
 20
1.33858267700994
 30
0.0
 40
0.196850394009937
 50
180.000000002885
 51
269.9999999971
  0
LINE
  8
3
  6
CONTINUOUS
 62
3
 10
7.32747196252603E-14
 20
1.338582677
 30
0.0
 11
7.32747196252603E-14
 21
2.00787401499998
 31
0.0
  0
ARC
  8
3
  6
CONTINUOUS
 62
3
 10
0.196850394011661
 20
2.00787401498893
 30
0.0
 40
0.196850394011588
 50
135.000000000643
 51
179.999999996785
  0
LINE
  8
3
  6
CONTINUOUS
 62
3
 10
0.187550290322431
 20
2.40975775387888
 30
0.0
 11
0.165934962965737
 21
2.37454279872417
 31
0.0
  0
LINE
  8
3
  6
CONTINUOUS
 62
3
 10
0.165235850804251
 20
2.42980933209579
 30
0.0
 11
0.132523725601372
 21
2.40456587139834
 31
0.0
  0
ARC
  8
3
  6
CONTINUOUS
 62
3
 10
0.531496064000031
 20
2.81496063000003
 30
0.0
 40
0.531496064000046
 50
229.674616130103
 51
270.000000000006
  0
LINE
  8
3
  6
CONTINUOUS
 62
3
 10
0.236651092620899
 20
2.20472440899998
 30
0.0
 11
0.229191708863679
 21
2.24536518947036
 31
0.0
  0
LINE
  8
3
  6
CONTINUOUS
 62
3
 10
0.266651092620899
 20
2.20472440899998
 30
0.0
 11
0.27411047637812
 21
2.24536518947036
 31
0.0
  0
LINE
  8
3
  6
CONTINUOUS
 62
3
 10
0.266651092620899
 20
2.20472440899998
 30
0.0
 11
7.2094488199999
 21
2.20472440899998
 31
0.0
  0
LINE
  8
3
  6
CONTINUOUS
 62
3
 10
0.262481038868154
 20
3.49830554355442
 30
0.0
 11
0.247254037087552
 21
3.45989390651498
 31
0.0
  0
LINE
  8
3
  6
CONTINUOUS
 62
3
 10
0.23704646207025
 20
3.51421410424079
 30
0.0
 11
0.209171042353765
 21
3.48371367114696
 31
0.0
  0
ARC
  8
3
  6
CONTINUOUS
 62
3
 10
0.531496063999988
 20
3.95669291500009
 30
0.0
 40
0.531496064000051
 50
239.592491728627
 51
270.000000000005
  0
LINE
  8
3
  6
CONTINUOUS
 62
3
 10
0.088772617973046
 20
1.03066915205077
 30
0.0
 11
0.0625841082637397
 21
1.06262971215978
 31
0.0
  0
LINE
  8
3
  6
CONTINUOUS
 62
3
 10
0.115028789735574
 20
1.04518167920411
 30
0.0
 11
0.101897270771067
 21
1.08435920660141
 31
0.0
  0
ARC
  8
3
  6
CONTINUOUS
 62
3
 10
0.196850393989832
 20
0.866141732010202
 30
0.0
 40
0.196850393989798
 50
123.300842045879
 51
180.00000000297
  0
LINE
  8
3
  6
CONTINUOUS
 62
3
 10
7.48503937099986
 20
1.06379985076139
 30
0.0
 11
7.44439859052949
 21
1.05634046700416
 31
0.0
  0
LINE
  8
3
  6
CONTINUOUS
 62
3
 10
7.48503937099986
 20
1.09379985076139
 30
0.0
 11
7.44439859052949
 21
1.1012592345186
 31
0.0
  0
LINE
  8
3
  6
CONTINUOUS
 62
3
 10
7.48503937099986
 20
1.09379985076139
 30
0.0
 11
7.48503937099986
 21
2.32942737951947
 31
0.0
  0
LINE
  8
3
  6
CONTINUOUS
 62
3
 10
8.64666688662335
 20
5.03741884693335
 30
0.0
 11
8.60782715943348
 21
5.05151817440269
 31
0.0
  0
LINE
  8
3
  6
CONTINUOUS
 62
3
 10
8.66182626632647
 20
5.06330693699455
 30
0.0
 11
8.63052518118499
 21
5.09028021103113
 31
0.0
  0
ARC
  8
3
  6
CONTINUOUS
 62
3
 10
8.82362204801143
 20
4.95118110298887
 30
0.0
 40
0.196850394011585
 50
154.0180651486
 51
179.999999996784
  0
LINE
  8
3
  6
CONTINUOUS
 62
3
 10
6.78796667291466
 20
2.41581656051042
 30
0.0
 11
6.81966929210713
 21
2.38931638353675
 31
0.0
  0
LINE
  8
3
  6
CONTINUOUS
 62
3
 10
6.76488710874871
 20
2.39665060846232
 30
0.0
 11
6.78511243953682
 21
2.36061935206221
 31
0.0
  0
ARC
  8
3
  6
CONTINUOUS
 62
3
 10
6.43700787498814
 20
2.8149606300119
 30
0.0
 40
0.53149606401198
 50
311.324471418744
 51
359.999999998717
  0
LINE
  8
3
  6
CONTINUOUS
 62
3
 10
6.74859047606077
 20
3.52610686232444
 30
0.0
 11
6.77764105276303
 21
3.49672354330582
 31
0.0
  0
LINE
  8
3
  6
CONTINUOUS
 62
3
 10
6.72379961933993
 20
3.50921267921169
 30
0.0
 11
6.74052189511209
 21
3.47142801385294
 31
0.0
  0
ARC
  8
3
  6
CONTINUOUS
 62
3
 10
6.43700787498809
 20
3.95669291501195
 30
0.0
 40
0.531496064011979
 50
305.890418955202
 51
359.999999998717
  0
LINE
  8
3
  6
CONTINUOUS
 62
3
 10
7.33204009646849
 20
2.16189173005821
 30
0.0
 11
7.35423375540626
 21
2.1967450935436
 31
0.0
  0
LINE
  8
3
  6
CONTINUOUS
 62
3
 10
7.35402051397094
 20
2.14147454988028
 30
0.0
 11
7.38714486419492
 21
2.1661746078864
 31
0.0
  0
ARC
  8
3
  6
CONTINUOUS
 62
3
 10
7.2094488199999
 20
2.00787401499998
 30
0.0
 40
0.196850394000001
 50
51.4817646398488
 51
89.9999999999986
  0
LINE
  8
3
  6
CONTINUOUS
 62
3
 10
7.37718949396049
 20
0.0938302798611102
 30
0.0
 11
7.4144758452069
 21
0.0760245657776953
 31
0.0
  0
LINE
  8
3
  6
CONTINUOUS
 62
3
 10
7.35958692396108
 20
0.0695372864388133
 30
0.0
 11
7.38811965355811
 21
0.0396508549855792
 31
0.0
  0
ARC
  8
3
  6
CONTINUOUS
 62
3
 10
7.20944881999987
 20
0.196850394000001
 30
0.0
 40
0.196850393999998
 50
328.443293534835
 51
6.66326205766607E-12
  0
LINE
  8
3
  6
CONTINUOUS
 62
3
 10
8.66475455505892
 20
0.0806127180742699
 30
0.0
 11
8.63415540069267
 21
0.0528457017534737
 31
0.0
  0
LINE
  8
3
  6
CONTINUOUS
 62
3
 10
8.6489363467177
 20
0.106103584769497
 30
0.0
 11
8.61047091992696
 21
0.091012978914352
 31
0.0
  0
ARC
  8
3
  6
CONTINUOUS
 62
3
 10
8.82362204799984
 20
0.196850394000019
 30
0.0
 40
0.196850394
 50
216.191602704381
 51
270
  0
LINE
  8
3
  6
CONTINUOUS
 62
3
 10
7.48503937099986
 20
2.32942737951947
 30
0.0
 11
7.44439859052949
 21
2.32196799576228
 31
0.0
  0
LINE
  8
3
  6
CONTINUOUS
 62
3
 10
7.48503937099986
 20
2.35942737951947
 30
0.0
 11
7.44439859052948
 21
2.36688676327672
 31
0.0
  0
LINE
  8
3
  6
CONTINUOUS
 62
3
 10
7.48503937099986
 20
2.35942737951947
 30
0.0
 11
7.48503937099986
 21
2.57401574849997
 31
0.0
  0
ARC
  8
5
  6
CONTINUOUS
 62
5
 10
9.15826771700316
 20
4.39763779550802
 30
0.0
 40
0.0492125979919992
 50
44.999999996141
 51
90.0000000038591
  0
ARC
  8
5
  6
CONTINUOUS
 62
5
 10
9.15826771699984
 20
4.39763779550002
 30
0.0
 40
0.0492125980000004
 50
89.9999999999957
 51
270.000000000003
  0
ARC
  8
5
  6
CONTINUOUS
 62
5
 10
9.15826771700316
 20
4.39763779549865
 30
0.0
 40
0.0492125979986282
 50
269.99999999614
 51
45.0000000038566
  0
ARC
  8
5
  6
CONTINUOUS
 62
5
 10
7.81968504050327
 20
3.04921259900324
 30
0.0
 40
0.0492125979966861
 50
359.999999996141
 51
90.0000000038585
  0
ARC
  8
5
  6
CONTINUOUS
 62
5
 10
7.81968504049994
 20
3.04921259899992
 30
0.0
 40
0.0492125980000004
 50
89.9999999999995
 51
270.000000000001
  0
ARC
  8
5
  6
CONTINUOUS
 62
5
 10
7.81968504050327
 20
3.04921259899661
 30
0.0
 40
0.0492125979966861
 50
269.999999996141
 51
3.85850899514555E-9
  0
ARC
  8
5
  6
CONTINUOUS
 62
5
 10
7.81968504050326
 20
4.97834645700036
 30
0.0
 40
0.0492125979995631
 50
284.999999996141
 51
90.0000000038585
  0
ARC
  8
5
  6
CONTINUOUS
 62
5
 10
7.81968504049994
 20
4.97834645699992
 30
0.0
 40
0.0492125979999996
 50
89.9999999999995
 51
270.000000000001
  0
ARC
  8
5
  6
CONTINUOUS
 62
5
 10
7.81968504050326
 20
4.97834645697475
 30
0.0
 40
0.0492125979748247
 50
269.999999996142
 51
285.00000000386
  0
ARC
  8
5
  6
CONTINUOUS
 62
5
 10
8.21338582749663
 20
4.97834645699661
 30
0.0
 40
0.0492125979966848
 50
179.99999999614
 51
270.000000003858
  0
ARC
  8
5
  6
CONTINUOUS
 62
5
 10
8.21338582749995
 20
4.97834645699992
 30
0.0
 40
0.0492125979999996
 50
270
 51
90
  0
ARC
  8
5
  6
CONTINUOUS
 62
5
 10
8.21338582749663
 20
4.97834645700324
 30
0.0
 40
0.0492125979966848
 50
89.9999999961416
 51
180.000000003859
  0
ARC
  8
5
  6
CONTINUOUS
 62
5
 10
8.21237976451078
 20
3.04918213723345
 30
0.0
 40
0.0491924250977608
 50
301.17187112075
 51
91.1718711310403
  0
ARC
  8
5
  6
CONTINUOUS
 62
5
 10
8.21338590830758
 20
3.04920271877097
 30
0.0
 40
0.0492027177711117
 50
92.3438363509965
 51
269.999905900794
  0
ARC
  8
5
  6
CONTINUOUS
 62
5
 10
8.21237976451114
 20
3.04918213721579
 30
0.0
 40
0.0491924250824589
 50
271.17187112075
 51
301.17187113104
  0
ARC
  8
5
  6
CONTINUOUS
 62
5
 10
0.531496064320558
 20
2.81496062995782
 30
0.0
 40
0.469881889679528
 50
344.999999994855
 51
5.14500519714137E-9
  0
ARC
  8
5
  6
CONTINUOUS
 62
5
 10
0.531496064000085
 20
2.81496063000002
 30
0.0
 40
0.46988189
 50
6.48833155018557E-13
 51
180.000000000001
  0
ARC
  8
5
  6
CONTINUOUS
 62
5
 10
0.531496063997307
 20
2.8149606299789
 30
0.0
 40
0.469881889997222
 50
179.999999997427
 51
345.000000002573
  0
ARC
  8
5
  6
CONTINUOUS
 62
5
 10
6.43700787499862
 20
2.81496062999862
 30
0.0
 40
0.469881889998529
 50
359.99999999983
 51
179.99999999983
  0
ARC
  8
5
  6
CONTINUOUS
 62
5
 10
6.43700787499862
 20
2.81496062999861
 30
0.0
 40
0.469881889998529
 50
179.99999999983
 51
359.99999999983
  0
ARC
  8
5
  6
CONTINUOUS
 62
5
 10
0.75039370149661
 20
0.531496063003312
 30
0.0
 40
0.0492125979966861
 50
89.9999999961401
 51
180.000000003857
  0
ARC
  8
5
  6
CONTINUOUS
 62
5
 10
0.750393701499924
 20
0.531496062999999
 30
0.0
 40
0.0492125980000004
 50
179.999999999999
 51
2.69711036988106E-12
  0
ARC
  8
5
  6
CONTINUOUS
 62
5
 10
0.750393701503239
 20
0.531496063003313
 30
0.0
 40
0.0492125979966861
 50
359.99999999614
 51
90.0000000038575
  0
ARC
  8
5
  6
CONTINUOUS
 62
5
 10
2.09881889800064
 20
1.87007873949547
 30
0.0
 40
0.0492125979994187
 50
194.999999994854
 51
5.14510697489118E-9
  0
ARC
  8
5
  6
CONTINUOUS
 62
5
 10
2.09881889800006
 20
1.8700787394999
 30
0.0
 40
0.0492125980000004
 50
359.999999999999
 51
180
  0
ARC
  8
5
  6
CONTINUOUS
 62
5
 10
2.09881889798328
 20
1.87007873949768
 30
0.0
 40
0.0492125979832196
 50
179.999999997427
 51
195.000000002571
  0
ARC
  8
5
  6
CONTINUOUS
 62
5
 10
2.09878843624298
 20
1.47738401549297
 30
0.0
 40
0.0491924250882655
 50
316.171871125083
 51
1.17187113537314
  0
ARC
  8
5
  6
CONTINUOUS
 62
5
 10
2.09880901777107
 20
1.47637787169722
 30
0.0
 40
0.0492027177710713
 50
2.34383635387324
 51
179.99990590657
  0
ARC
  8
5
  6
CONTINUOUS
 62
5
 10
2.09878843623049
 20
1.47738401549271
 30
0.0
 40
0.0491924250970998
 50
181.171871125081
 51
316.171871135373
  0
ARC
  8
5
  6
CONTINUOUS
 62
5
 10
0.169685040016554
 20
1.47637795249547
 30
0.0
 40
0.0492125979835085
 50
329.999999994855
 51
5.14505608601627E-9
  0
ARC
  8
5
  6
CONTINUOUS
 62
5
 10
0.169685040000063
 20
1.4763779524999
 30
0.0
 40
0.0492125979999996
 50
359.999999999999
 51
180
  0
ARC
  8
5
  6
CONTINUOUS
 62
5
 10
0.169685039999471
 20
1.47637795249768
 30
0.0
 40
0.0492125979994076
 50
179.999999997427
 51
330.000000002572
  0
ARC
  8
5
  6
CONTINUOUS
 62
5
 10
0.169685039999471
 20
1.87007873950211
 30
0.0
 40
0.0492125979994075
 50
29.9999999974273
 51
180.000000002572
  0
ARC
  8
5
  6
CONTINUOUS
 62
5
 10
0.169685040000063
 20
1.87007873949989
 30
0.0
 40
0.0492125979999996
 50
179.999999999999
 51
6.10666498840995E-13
  0
ARC
  8
5
  6
CONTINUOUS
 62
5
 10
0.169685040016555
 20
1.87007873950432
 30
0.0
 40
0.0492125979835073
 50
359.999999994855
 51
30.0000000051448
  0
LINE
  8
9
  6
CONTINUOUS
 62
9
 10
9.16110413562709
 20
0.263085460777588
 30
0.0
 11
9.17559025155126
 21
0.328428107061783
 31
0.0
  0
LINE
  8
9
  6
CONTINUOUS
 62
9
 10
9.17559025155126
 20
0.328428107061783
 30
0.0
 11
9.16055496157605
 21
0.280742259524372
 31
0.0
  0
LINE
  8
9
  6
CONTINUOUS
 62
9
 10
9.16110413562709
 20
2.62529018477759
 30
0.0
 11
9.17559025155126
 21
2.69063283106178
 31
0.0
  0
LINE
  8
9
  6
CONTINUOUS
 62
9
 10
9.17559025155126
 20
2.69063283106178
 30
0.0
 11
9.16055496157605
 21
2.64294698352437
 31
0.0
  0
LINE
  8
9
  6
CONTINUOUS
 62
9
 10
9.15981872946533
 20
4.39615302407468
 30
0.0
 11
9.19306627876545
 21
4.43243635726563
 31
0.0
  0
LINE
  8
9
  6
CONTINUOUS
 62
9
 10
9.19306627876545
 20
4.43243635726563
 30
0.0
 11
9.15678294557451
 21
4.3991888079655
 31
0.0
  0
LINE
  8
9
  6
CONTINUOUS
 62
9
 10
8.57383619900579
 20
5.19171388261698
 30
0.0
 11
8.68442779952503
 21
5.09037535147214
 31
0.0
  0
LINE
  8
9
  6
CONTINUOUS
 62
9
 10
8.68442779952503
 20
5.09037535147214
 30
0.0
 11
8.65064828914508
 21
5.12723921831341
 31
0.0
  0
LINE
  8
9
  6
CONTINUOUS
 62
9
 10
7.81973187998863
 20
3.04706597562451
 30
0.0
 11
7.86889763849995
 21
3.04921259899992
 31
0.0
  0
LINE
  8
9
  6
CONTINUOUS
 62
9
 10
7.86889763849995
 20
3.04921259899992
 30
0.0
 11
7.81973187998863
 21
3.05135922237534
 31
0.0
  0
LINE
  8
9
  6
CONTINUOUS
 62
9
 10
7.81762368449404
 20
4.9777456265159
 30
0.0
 11
7.83242219812132
 21
4.93081073761294
 31
0.0
  0
LINE
  8
9
  6
CONTINUOUS
 62
9
 10
7.83242219812132
 20
4.93081073761294
 30
0.0
 11
7.82177064240931
 21
4.97885680054034
 31
0.0
  0
LINE
  8
9
  6
CONTINUOUS
 62
9
 10
8.21333898801127
 20
4.98049308037534
 30
0.0
 11
8.16417322949994
 21
4.97834645699992
 31
0.0
  0
LINE
  8
9
  6
CONTINUOUS
 62
9
 10
8.16417322949994
 20
4.97834645699992
 30
0.0
 11
8.21333898801127
 21
4.97619983362451
 31
0.0
  0
LINE
  8
9
  6
CONTINUOUS
 62
9
 10
8.27612701926266
 20
3.35106864220629
 30
0.0
 11
8.42598425249994
 21
3.35761155031109
 31
0.0
  0
LINE
  8
9
  6
CONTINUOUS
 62
9
 10
8.42598425249994
 20
3.35761155031109
 30
0.0
 11
8.37603184142085
 21
3.35979251967936
 31
0.0
  0
LINE
  8
9
  6
CONTINUOUS
 62
9
 10
8.21057376579204
 20
3.04802286240545
 30
0.0
 11
8.23784210873274
 21
3.00709218933943
 31
0.0
  0
LINE
  8
9
  6
CONTINUOUS
 62
9
 10
8.23784210873274
 20
3.00709218933943
 30
0.0
 11
8.2142448732817
 21
3.05024370151962
 31
0.0
  0
LINE
  8
9
  6
CONTINUOUS
 62
9
 10
8.01937185262709
 20
0.263085460777588
 30
0.0
 11
8.03385796855126
 21
0.328428107061783
 31
0.0
  0
LINE
  8
9
  6
CONTINUOUS
 62
9
 10
8.03385796855126
 20
0.328428107061783
 30
0.0
 11
8.01882267857605
 21
0.280742259524373
 31
0.0
  0
LINE
  8
9
  6
CONTINUOUS
 62
9
 10
8.01647173229456
 20
2.62890365982199
 30
0.0
 11
7.94960629999984
 21
2.62598425200002
 31
0.0
  0
LINE
  8
9
  6
CONTINUOUS
 62
9
 10
7.94960629999984
 20
2.62598425200002
 30
0.0
 11
7.99955871107894
 21
2.62380328263176
 31
0.0
  0
LINE
  8
9
  6
CONTINUOUS
 62
9
 10
7.33518213776258
 20
2.56747284039517
 30
0.0
 11
7.48503937099986
 21
2.57401574849997
 31
0.0
  0
LINE
  8
9
  6
CONTINUOUS
 62
9
 10
7.48503937099986
 20
2.57401574849997
 30
0.0
 11
7.43508695992077
 21
2.57619671786824
 31
0.0
  0
LINE
  8
9
  6
CONTINUOUS
 62
9
 10
0.25388622383985
 20
3.9545835380243
 30
0.0
 11
0.303231557510376
 21
3.9093668704897
 31
0.0
  0
LINE
  8
9
  6
CONTINUOUS
 62
9
 10
0.303231557510376
 20
3.9093668704897
 30
0.0
 11
0.269452047129593
 21
3.94623073733021
 31
0.0
  0
LINE
  8
9
  6
CONTINUOUS
 62
9
 10
0.534332482629029
 20
3.68040829677761
 30
0.0
 11
0.548818598553201
 21
3.7457509430618
 31
0.0
  0
LINE
  8
9
  6
CONTINUOUS
 62
9
 10
0.548818598553201
 20
3.7457509430618
 30
0.0
 11
0.533783308577987
 21
3.69806509552439
 31
0.0
  0
LINE
  8
9
  6
CONTINUOUS
 62
9
 10
0.534415471822007
 20
3.95675661670533
 30
0.0
 11
0.531496064000037
 21
4.02362204900004
 31
0.0
  0
LINE
  8
9
  6
CONTINUOUS
 62
9
 10
0.531496064000037
 20
4.02362204900004
 30
0.0
 11
0.529315094631769
 21
3.97366963792095
 31
0.0
  0
LINE
  8
9
  6
CONTINUOUS
 62
9
 10
0.52899963351165
 20
4.23076859479401
 30
0.0
 11
0.564960630996841
 21
4.17432113570275
 31
0.0
  0
LINE
  8
9
  6
CONTINUOUS
 62
9
 10
0.564960630996841
 20
4.17432113570275
 30
0.0
 11
0.54187320033509
 21
4.21867167736166
 31
0.0
  0
LINE
  8
9
  6
CONTINUOUS
 62
9
 10
0.806392547777629
 20
3.9538564963756
 30
0.0
 11
0.871735194061973
 21
3.9393703804521
 31
0.0
  0
LINE
  8
9
  6
CONTINUOUS
 62
9
 10
0.871735194061973
 20
3.9393703804521
 30
0.0
 11
0.824049346524408
 21
3.95440567042683
 31
0.0
  0
LINE
  8
9
  6
CONTINUOUS
 62
9
 10
2.30245554027758
 20
3.9538564963728
 30
0.0
 11
2.36779818656178
 21
3.93937038044863
 31
0.0
  0
LINE
  8
9
  6
CONTINUOUS
 62
9
 10
2.36779818656178
 20
3.93937038044863
 30
0.0
 11
2.32011233902437
 21
3.95440567042384
 31
0.0
  0
LINE
  8
9
  6
CONTINUOUS
 62
9
 10
4.66466026427758
 20
3.9538564963728
 30
0.0
 11
4.73000291056178
 21
3.93937038044863
 31
0.0
  0
LINE
  8
9
  6
CONTINUOUS
 62
9
 10
4.73000291056178
 20
3.93937038044863
 30
0.0
 11
4.68231706302437
 21
3.95440567042384
 31
0.0
  0
LINE
  8
9
  6
CONTINUOUS
 62
9
 10
6.15939803483985
 20
3.9545835380243
 30
0.0
 11
6.20874336851038
 21
3.9093668704897
 31
0.0
  0
LINE
  8
9
  6
CONTINUOUS
 62
9
 10
6.20874336851038
 20
3.9093668704897
 30
0.0
 11
6.1749638581296
 21
3.94623073733021
 31
0.0
  0
LINE
  8
9
  6
CONTINUOUS
 62
9
 10
6.43984429362898
 20
3.68040829677761
 30
0.0
 11
6.45433040955315
 21
3.7457509430618
 31
0.0
  0
LINE
  8
9
  6
CONTINUOUS
 62
9
 10
6.45433040955315
 20
3.7457509430618
 30
0.0
 11
6.43929511957794
 21
3.69806509552439
 31
0.0
  0
LINE
  8
9
  6
CONTINUOUS
 62
9
 10
6.43992728282201
 20
3.95675661670533
 30
0.0
 11
6.43700787500004
 21
4.02362204900004
 31
0.0
  0
LINE
  8
9
  6
CONTINUOUS
 62
9
 10
6.43700787500004
 20
4.02362204900004
 30
0.0
 11
6.43482690563177
 21
3.97366963792095
 31
0.0
  0
LINE
  8
9
  6
CONTINUOUS
 62
9
 10
6.43451144451164
 20
4.23076859479401
 30
0.0
 11
6.47047244199684
 21
4.17432113570275
 31
0.0
  0
LINE
  8
9
  6
CONTINUOUS
 62
9
 10
6.47047244199684
 20
4.17432113570275
 30
0.0
 11
6.44738501133508
 21
4.21867167736166
 31
0.0
  0
LINE
  8
9
  6
CONTINUOUS
 62
9
 10
6.71190435877763
 20
3.9538564963756
 30
0.0
 11
6.77724700506198
 21
3.9393703804521
 31
0.0
  0
LINE
  8
9
  6
CONTINUOUS
 62
9
 10
6.77724700506198
 20
3.9393703804521
 30
0.0
 11
6.72956115752441
 21
3.95440567042683
 31
0.0
  0
LINE
  8
9
  6
CONTINUOUS
 62
9
 10
7.11836117223734
 20
3.96323582310486
 30
0.0
 11
6.96850393900006
 21
3.95669291500005
 31
0.0
  0
LINE
  8
9
  6
CONTINUOUS
 62
9
 10
6.96850393900006
 20
3.95669291500005
 30
0.0
 11
7.01845635007916
 21
3.95451194563179
 31
0.0
  0
LINE
  8
9
  6
CONTINUOUS
 62
9
 10
0.838922715788614
 20
2.72581219000996
 30
0.0
 11
0.985367116856605
 21
2.69334624791924
 31
0.0
  0
LINE
  8
9
  6
CONTINUOUS
 62
9
 10
0.985367116856605
 20
2.69334624791924
 30
0.0
 11
0.937681269319193
 21
2.70838153789446
 31
0.0
  0
LINE
  8
9
  6
CONTINUOUS
 62
9
 10
2.30245554027763
 20
2.81212421137274
 30
0.0
 11
2.36779818656183
 21
2.79763809544857
 31
0.0
  0
LINE
  8
9
  6
CONTINUOUS
 62
9
 10
2.36779818656183
 20
2.79763809544857
 30
0.0
 11
2.32011233902442
 21
2.81267338542378
 31
0.0
  0
LINE
  8
9
  6
CONTINUOUS
 62
9
 10
4.66466026427763
 20
2.81212421137274
 30
0.0
 11
4.73000291056183
 21
2.79763809544857
 31
0.0
  0
LINE
  8
9
  6
CONTINUOUS
 62
9
 10
4.73000291056183
 20
2.79763809544857
 30
0.0
 11
4.68231706302442
 21
2.81267338542378
 31
0.0
  0
LINE
  8
9
  6
CONTINUOUS
 62
9
 10
6.75703253176047
 20
2.80841772187866
 30
0.0
 11
6.90688976499714
 21
2.81496062999723
 31
0.0
  0
LINE
  8
9
  6
CONTINUOUS
 62
9
 10
6.90688976499714
 20
2.81496062999723
 30
0.0
 11
6.85693735391785
 21
2.81714159936091
 31
0.0
  0
LINE
  8
9
  6
CONTINUOUS
 62
9
 10
7.11836117223739
 20
2.82150353810481
 30
0.0
 11
6.96850393900012
 21
2.81496063
 31
0.0
  0
LINE
  8
9
  6
CONTINUOUS
 62
9
 10
6.96850393900012
 20
2.81496063
 30
0.0
 11
7.01845635007921
 21
2.81277966063174
 31
0.0
  0
LINE
  8
9
  6
CONTINUOUS
 62
9
 10
6.94826169517799
 20
0.826707951794714
 30
0.0
 11
6.95118110299997
 21
0.759842519499998
 31
0.0
  0
LINE
  8
9
  6
CONTINUOUS
 62
9
 10
6.95118110299997
 20
0.759842519499998
 30
0.0
 11
6.95336207236823
 21
0.809794930579091
 31
0.0
  0
LINE
  8
9
  6
CONTINUOUS
 62
9
 10
6.9518751702224
 20
0.239056891127246
 30
0.0
 11
6.8865325239382
 21
0.25354300705142
 31
0.0
  0
LINE
  8
9
  6
CONTINUOUS
 62
9
 10
6.8865325239382
 20
0.25354300705142
 30
0.0
 11
6.93421837147561
 21
0.238507717076205
 31
0.0
  0
LINE
  8
9
  6
CONTINUOUS
 62
9
 10
6.36273929897571
 20
0.234201183339815
 30
0.0
 11
6.40795596651031
 21
0.283546517010345
 31
0.0
  0
LINE
  8
9
  6
CONTINUOUS
 62
9
 10
6.40795596651031
 20
0.283546517010345
 30
0.0
 11
6.3710920996698
 21
0.249767006629561
 31
0.0
  0
LINE
  8
9
  6
CONTINUOUS
 62
9
 10
6.59250430277924
 20
0.604150342099884
 30
0.0
 11
6.48191270225773
 21
0.705488873242242
 31
0.0
  0
LINE
  8
9
  6
CONTINUOUS
 62
9
 10
6.48191270225773
 20
0.705488873242242
 30
0.0
 11
6.51569221263851
 21
0.668625006401733
 31
0.0
  0
LINE
  8
9
  6
CONTINUOUS
 62
9
 10
6.3598127925329
 20
0.829575097698181
 30
0.0
 11
6.2959813429382
 21
0.809449118948582
 31
0.0
  0
LINE
  8
9
  6
CONTINUOUS
 62
9
 10
6.2959813429382
 20
0.809449118948582
 30
0.0
 11
6.3447961432942
 21
0.820271099645487
 31
0.0
  0
LINE
  8
9
  6
CONTINUOUS
 62
9
 10
4.88494603622236
 20
0.534332481627247
 30
0.0
 11
4.81960338993816
 21
0.548818597551419
 31
0.0
  0
LINE
  8
9
  6
CONTINUOUS
 62
9
 10
4.81960338993816
 20
0.548818597551419
 30
0.0
 11
4.86728923747557
 21
0.533783307576205
 31
0.0
  0
LINE
  8
9
  6
CONTINUOUS
 62
9
 10
2.52274131222236
 20
0.534332481627247
 30
0.0
 11
2.45739866593816
 21
0.548818597551419
 31
0.0
  0
LINE
  8
9
  6
CONTINUOUS
 62
9
 10
2.45739866593816
 20
0.548818597551419
 30
0.0
 11
2.50508451347557
 21
0.533783307576205
 31
0.0
  0
LINE
  8
9
  6
CONTINUOUS
 62
9
 10
0.752540324875341
 20
0.531542902488675
 30
0.0
 11
0.750393701499925
 21
0.580708660999998
 31
0.0
  0
LINE
  8
9
  6
CONTINUOUS
 62
9
 10
0.750393701499925
 20
0.580708660999998
 30
0.0
 11
0.748247078124508
 21
0.531542902488675
 31
0.0
  0
LINE
  8
9
  6
CONTINUOUS
 62
9
 10
-0.149857233237244
 20
0.5249531548952
 30
0.0
 11
3.50830475781549E-14
 21
0.531496063000001
 31
0.0
  0
LINE
  8
9
  6
CONTINUOUS
 62
9
 10
3.50830475781549E-14
 20
0.531496063000001
 30
0.0
 11
-0.0499524110790578
 21
0.533677032368267
 31
0.0
  0
LINE
  8
9
  6
CONTINUOUS
 62
9
 10
6.36282994251466
 20
1.96517128176923
 30
0.0
 11
6.40700060468617
 21
2.01539993710278
 31
0.0
  0
LINE
  8
9
  6
CONTINUOUS
 62
9
 10
6.40700060468617
 20
2.01539993710278
 30
0.0
 11
6.37083529260862
 21
1.98087356743648
 31
0.0
  0
LINE
  8
9
  6
CONTINUOUS
 62
9
 10
6.94826169517803
 20
1.96844023479471
 30
0.0
 11
6.951181103
 21
1.90157480249999
 31
0.0
  0
LINE
  8
9
  6
CONTINUOUS
 62
9
 10
6.951181103
 20
1.90157480249999
 30
0.0
 11
6.95336207236827
 21
1.95152721357908
 31
0.0
  0
LINE
  8
9
  6
CONTINUOUS
 62
9
 10
6.95320039216019
 20
1.38006213247574
 30
0.0
 11
6.90385505848966
 21
1.42527880001034
 31
0.0
  0
LINE
  8
9
  6
CONTINUOUS
 62
9
 10
6.90385505848966
 20
1.42527880001034
 30
0.0
 11
6.93763456887044
 21
1.38841493316983
 31
0.0
  0
LINE
  8
9
  6
CONTINUOUS
 62
9
 10
6.5832512334001
 20
1.60982713627926
 30
0.0
 11
6.48191270225775
 21
1.49923553575774
 31
0.0
  0
LINE
  8
9
  6
CONTINUOUS
 62
9
 10
6.48191270225775
 20
1.49923553575774
 30
0.0
 11
6.51877656909826
 21
1.53301504613853
 31
0.0
  0
LINE
  8
9
  6
CONTINUOUS
 62
9
 10
6.36132398922244
 20
1.38078917412724
 30
0.0
 11
6.29598134293824
 21
1.39527529005141
 31
0.0
  0
LINE
  8
9
  6
CONTINUOUS
 62
9
 10
6.29598134293824
 20
1.39527529005141
 30
0.0
 11
6.34366719047565
 21
1.3802400000762
 31
0.0
  0
LINE
  8
9
  6
CONTINUOUS
 62
9
 10
4.8849460362224
 20
1.67606476462725
 30
0.0
 11
4.8196033899382
 21
1.69055088055142
 31
0.0
  0
LINE
  8
9
  6
CONTINUOUS
 62
9
 10
4.8196033899382
 20
1.69055088055142
 30
0.0
 11
4.86728923747561
 21
1.67551559057621
 31
0.0
  0
LINE
  8
9
  6
CONTINUOUS
 62
9
 10
2.52345178161591
 20
1.67578847819048
 30
0.0
 11
2.46408491470267
 21
1.706692913
 31
0.0
  0
LINE
  8
9
  6
CONTINUOUS
 62
9
 10
2.46408491470267
 20
1.706692913
 30
0.0
 11
2.50625448699331
 21
1.67982793258266
 31
0.0
  0
LINE
  8
9
  6
CONTINUOUS
 62
9
 10
2.09821806751604
 20
1.87214009550579
 30
0.0
 11
2.05128317861308
 21
1.85734158187852
 31
0.0
  0
LINE
  8
9
  6
CONTINUOUS
 62
9
 10
2.05128317861308
 20
1.85734158187852
 30
0.0
 11
2.09932924154048
 21
1.86799313759053
 31
0.0
  0
LINE
  8
9
  6
CONTINUOUS
 62
9
 10
2.09734401783564
 20
1.47579681513939
 30
0.0
 11
2.13427685224291
 21
1.44331838742183
 31
0.0
  0
LINE
  8
9
  6
CONTINUOUS
 62
9
 10
2.13427685224291
 20
1.44331838742183
 30
0.0
 11
2.10031523991189
 21
1.47889213353096
 31
0.0
  0
LINE
  8
9
  6
CONTINUOUS
 62
9
 10
0.168652292499449
 20
1.47449550238008
 30
0.0
 11
0.212304400054294
 21
1.45177165349989
 31
0.0
  0
LINE
  8
9
  6
CONTINUOUS
 62
9
 10
0.212304400054294
 20
1.45177165349989
 30
0.0
 11
0.170798915874866
 21
1.47821356313102
 31
0.0
  0
LINE
  8
9
  6
CONTINUOUS
 62
9
 10
0.48462689941603
 20
1.93281993126265
 30
0.0
 11
0.47808399131123
 21
2.08267716449993
 31
0.0
  0
LINE
  8
9
  6
CONTINUOUS
 62
9
 10
0.47808399131123
 20
2.08267716449993
 30
0.0
 11
0.475903021942963
 21
2.03272475342084
 31
0.0
  0
LINE
  8
9
  6
CONTINUOUS
 62
9
 10
0.170798915874866
 20
1.86824312886877
 30
0.0
 11
0.212304400054294
 21
1.8946850384999
 31
0.0
  0
LINE
  8
9
  6
CONTINUOUS
 62
9
 10
0.212304400054294
 20
1.8946850384999
 30
0.0
 11
0.168652292499449
 21
1.87196118961971
 31
0.0
  0
LINE
  8
9
  6
CONTINUOUS
 62
9
 10
-0.0529354549939811
 20
2.24840679461704
 30
0.0
 11
0.0576561455252611
 21
2.14706826347221
 31
0.0
  0
LINE
  8
9
  6
CONTINUOUS
 62
9
 10
0.0576561455252611
 20
2.14706826347221
 30
0.0
 11
0.0238766351453062
 21
2.18393213031348
 31
0.0
  0
LINE
  8
9
  6
CONTINUOUS
 62
9
 10
0.165934962965737
 20
2.37454279872417
 30
0.0
 11
0.14553311345197
 21
2.34130480034254
 31
0.0
  0
LINE
  8
9
  6
CONTINUOUS
 62
9
 10
0.132523725601372
 20
2.40456587139834
 30
0.0
 11
0.101648049066206
 21
2.38073957083581
 31
0.0
  0
LINE
  8
9
  6
CONTINUOUS
 62
9
 10
0.229191708863679
 20
2.24536518947036
 30
0.0
 11
0.222151092620899
 21
2.28372440899998
 31
0.0
  0
LINE
  8
9
  6
CONTINUOUS
 62
9
 10
0.27411047637812
 20
2.24536518947036
 30
0.0
 11
0.281151092620899
 21
2.28372440899998
 31
0.0
  0
LINE
  8
9
  6
CONTINUOUS
 62
9
 10
0.247254037087552
 20
3.45989390651498
 30
0.0
 11
0.232881874512913
 21
3.4236386869883
 31
0.0
  0
LINE
  8
9
  6
CONTINUOUS
 62
9
 10
0.209171042353765
 20
3.48371367114696
 30
0.0
 11
0.182860540143706
 21
3.45492552300481
 31
0.0
  0
LINE
  8
9
  6
CONTINUOUS
 62
9
 10
0.0625841082637397
 20
1.06262971215978
 30
0.0
 11
0.0378658134508244
 21
1.09279601623472
 31
0.0
  0
LINE
  8
9
  6
CONTINUOUS
 62
9
 10
0.101897270771067
 20
1.08435920660141
 30
0.0
 11
0.0895029512504628
 21
1.1213373196363
 31
0.0
  0
LINE
  8
9
  6
CONTINUOUS
 62
9
 10
7.44439859052949
 20
1.05634046700416
 30
0.0
 11
7.40603937099986
 21
1.04929985076138
 31
0.0
  0
LINE
  8
9
  6
CONTINUOUS
 62
9
 10
7.44439859052949
 20
1.1012592345186
 30
0.0
 11
7.40603937099986
 21
1.10829985076138
 31
0.0
  0
LINE
  8
9
  6
CONTINUOUS
 62
9
 10
8.60782715943348
 20
5.05151817440269
 30
0.0
 11
8.57116788260596
 21
5.06482596995579
 31
0.0
  0
LINE
  8
9
  6
CONTINUOUS
 62
9
 10
8.63052518118499
 20
5.09028021103113
 30
0.0
 11
8.60098132935543
 21
5.1157392137428
 31
0.0
  0
LINE
  8
9
  6
CONTINUOUS
 62
9
 10
6.81966929210713
 20
2.38931638353675
 30
0.0
 11
6.84959213598921
 21
2.36430391836419
 31
0.0
  0
LINE
  8
9
  6
CONTINUOUS
 62
9
 10
6.78511243953682
 20
2.36061935206221
 30
0.0
 11
6.80420232646285
 21
2.32661087933626
 31
0.0
  0
LINE
  8
9
  6
CONTINUOUS
 62
9
 10
6.77764105276303
 20
3.49672354330582
 30
0.0
 11
6.80506073900638
 21
3.46898979479761
 31
0.0
  0
LINE
  8
9
  6
CONTINUOUS
 62
9
 10
6.74052189511209
 20
3.47142801385294
 30
0.0
 11
6.7563053874554
 21
3.43576456800921
 31
0.0
  0
LINE
  8
9
  6
CONTINUOUS
 62
9
 10
7.35423375540626
 20
2.1967450935436
 30
0.0
 11
7.37518146914362
 21
2.22964179990119
 31
0.0
  0
LINE
  8
9
  6
CONTINUOUS
 62
9
 10
7.38714486419492
 20
2.1661746078864
 30
0.0
 11
7.41840962356509
 21
2.18948801221793
 31
0.0
  0
LINE
  8
9
  6
CONTINUOUS
 62
9
 10
7.4144758452069
 20
0.0760245657776953
 30
0.0
 11
7.44966895213942
 21
0.0592184590174474
 31
0.0
  0
LINE
  8
9
  6
CONTINUOUS
 62
9
 10
7.38811965355811
 20
0.0396508549855792
 30
0.0
 11
7.4150505644739
 21
0.0114422386202624
 31
0.0
  0
LINE
  8
9
  6
CONTINUOUS
 62
9
 10
8.63415540069267
 20
0.0528457017534737
 30
0.0
 11
8.60527407346009
 21
0.026637517205803
 31
0.0
  0
LINE
  8
9
  6
CONTINUOUS
 62
9
 10
8.61047091992696
 20
0.091012978914352
 30
0.0
 11
8.57416493038903
 21
0.0767695550397494
 31
0.0
  0
LINE
  8
9
  6
CONTINUOUS
 62
9
 10
7.44439859052949
 20
2.32196799576228
 30
0.0
 11
7.40603937099986
 21
2.31492737951952
 31
0.0
  0
LINE
  8
9
  6
CONTINUOUS
 62
9
 10
7.44439859052948
 20
2.36688676327672
 30
0.0
 11
7.40603937099986
 21
2.37392737951952
 31
0.0
  0
ENDSEC
  0
EOF
