  0
SECTION
  2
HEADER
  9
$ACADVER
  1
AC1003
  9
$EXTMIN
 10
-5.00000000014378E-7
 20
0.999998500004509
  9
$EXTMAX
 10
10.6004774624366
 20
-0.501908911669397
  9
$INSUNITS
 70
1
  9
$INSBASE
 10
5.3002384812183
 20
0.249044794167556
999
Created with OMAX LAYOUT for Windows. (www.omax.com) 1/5/2024
  0
ENDSEC
  0
SECTION
  2
TABLES
  0
TABLE
  2
LAYER
 70
    10
  0
LAYER
  2
0
 70
     0
 62
     7
  6
CONTINUOUS
  0
LAYER
  2
1
 70
     0
 62
     7
  6
CONTINUOUS
  0
LAYER
  2
2
 70
     0
 62
     7
  6
CONTINUOUS
  0
LAYER
  2
3
 70
     0
 62
     7
  6
CONTINUOUS
  0
LAYER
  2
4
 70
     0
 62
     7
  6
CONTINUOUS
  0
LAYER
  2
5
 70
     0
 62
     7
  6
CONTINUOUS
  0
LAYER
  2
6
 70
     0
 62
     7
  6
CONTINUOUS
  0
LAYER
  2
7
 70
     0
 62
     7
  6
CONTINUOUS
  0
LAYER
  2
8
 70
     0
 62
     7
  6
CONTINUOUS
  0
LAYER
  2
9
 70
     0
 62
     7
  6
CONTINUOUS
  0
LAYER
  2
10
 70
     0
 62
     7
  6
CONTINUOUS
  0
LAYER
  2
11
 70
     0
 62
     7
  6
CONTINUOUS
  0
LAYER
  2
12
 70
     0
 62
     7
  6
CONTINUOUS
  0
LAYER
  2
13
 70
     0
 62
     7
  6
CONTINUOUS
  0
LAYER
  2
14
 70
     0
 62
     7
  6
CONTINUOUS
  0
LAYER
  2
15
 70
     0
 62
     7
  6
CONTINUOUS
  0
LAYER
  2
16
 70
     0
 62
     7
  6
CONTINUOUS
  0
LAYER
  2
17
 70
     0
 62
     7
  6
CONTINUOUS
  0
LAYER
  2
18
 70
     0
 62
     7
  6
CONTINUOUS
  0
LAYER
  2
19
 70
     0
 62
     7
  6
CONTINUOUS
  0
LAYER
  2
20
 70
     0
 62
     7
  6
CONTINUOUS
  0
LAYER
  2
21
 70
     0
 62
     7
  6
CONTINUOUS
  0
LAYER
  2
22
 70
     0
 62
     7
  6
CONTINUOUS
  0
LAYER
  2
23
 70
     0
 62
     7
  6
CONTINUOUS
  0
LAYER
  2
24
 70
     0
 62
     7
  6
CONTINUOUS
  0
LAYER
  2
25
 70
     0
 62
     7
  6
CONTINUOUS
  0
LAYER
  2
26
 70
     0
 62
     7
  6
CONTINUOUS
  0
LAYER
  2
27
 70
     0
 62
     7
  6
CONTINUOUS
  0
LAYER
  2
28
 70
     0
 62
     7
  6
CONTINUOUS
  0
LAYER
  2
29
 70
     0
 62
     7
  6
CONTINUOUS
  0
LAYER
  2
30
 70
     0
 62
     7
  6
CONTINUOUS
  0
LAYER
  2
31
 70
     0
 62
     7
  6
CONTINUOUS
  0
ENDTAB
  0
ENDSEC
  0
SECTION
  2
ENTITIES
  0
LINE
  8
1
  6
CONTINUOUS
 62
1
 10
1.7376905
 20
0.999998500000002
 30
0.0
 11
1.7376905
 21
0.139670332390153
 31
0.0
  0
LINE
  8
1
  6
CONTINUOUS
 62
1
 10
1.8686915
 20
0.999998500000002
 30
0.0
 11
1.7376905
 21
0.999998500000002
 31
0.0
  0
LINE
  8
1
  6
CONTINUOUS
 62
1
 10
1.8686915
 20
-8.1499999997181E-5
 30
0.0
 11
1.8686915
 21
0.999998500000002
 31
0.0
  0
LINE
  8
1
  6
CONTINUOUS
 62
1
 10
1.6547015
 20
-8.1499999997181E-5
 30
0.0
 11
1.8686915
 21
-8.1499999997181E-5
 31
0.0
  0
LINE
  8
1
  6
CONTINUOUS
 62
1
 10
1.3926715
 20
0.838408500000003
 30
0.0
 11
1.6547015
 21
-8.1499999997181E-5
 31
0.0
  0
LINE
  8
1
  6
CONTINUOUS
 62
1
 10
1.3926715
 20
-8.1499999997181E-5
 30
0.0
 11
1.3926715
 21
0.838408500000003
 31
0.0
  0
LINE
  8
1
  6
CONTINUOUS
 62
1
 10
1.2616615
 20
-8.1499999997181E-5
 30
0.0
 11
1.3926715
 21
-8.1499999997181E-5
 31
0.0
  0
LINE
  8
1
  6
CONTINUOUS
 62
1
 10
1.2616615
 20
0.999998500000002
 30
0.0
 11
1.2616615
 21
-8.1499999997181E-5
 31
0.0
  0
LINE
  8
1
  6
CONTINUOUS
 62
1
 10
1.4756515
 20
0.999998500000002
 30
0.0
 11
1.2616615
 21
0.999998500000002
 31
0.0
  0
LINE
  8
1
  6
CONTINUOUS
 62
1
 10
1.7376905
 20
0.139670332390153
 30
0.0
 11
1.4756515
 21
0.999998500000002
 31
0.0
  0
LINE
  8
1
  6
CONTINUOUS
 62
1
 10
0.1275475
 20
0.2694885
 30
0.0
 11
0.1275475
 21
0.7399285
 31
0.0
  0
ARC
  8
1
  6
CONTINUOUS
 62
1
 10
0.2694925
 20
0.269488499999998
 30
0.0
 40
0.141945
 50
179.999999999998
 51
359.999999999998
  0
LINE
  8
1
  6
CONTINUOUS
 62
1
 10
0.5389765
 20
0.2694885
 30
0.0
 11
0.4114375
 21
0.2694885
 31
0.0
  0
ARC
  8
1
  6
CONTINUOUS
 62
1
 10
0.269488000000001
 20
0.269488499999995
 30
0.0
 40
0.269488500000001
 50
179.999999999999
 51
269.999999999998
  0
LINE
  8
1
  6
CONTINUOUS
 62
1
 10
4.99999999847844E-7
 20
0.730508500000001
 30
0.0
 11
-4.99999999847844E-7
 21
0.2694885
 31
0.0
  0
ARC
  8
1
  6
CONTINUOUS
 62
1
 10
0.2694895
 20
0.730508500000002
 30
0.0
 40
0.269489
 50
359.999999999998
 51
180
  0
LINE
  8
1
  6
CONTINUOUS
 62
1
 10
0.4114375
 20
0.730508500000001
 30
0.0
 11
0.5389785
 21
0.730508500000001
 31
0.0
  0
ARC
  8
1
  6
CONTINUOUS
 62
1
 10
0.2694925
 20
0.730508500000004
 30
0.0
 40
0.141945
 50
359.999999999998
 51
180
  0
LINE
  8
1
  6
CONTINUOUS
 62
1
 10
1.0408785
 20
0.730508500000003
 30
0.0
 11
1.0408785
 21
0.499998500000002
 31
0.0
  0
ARC
  8
1
  6
CONTINUOUS
 62
1
 10
0.898934
 20
0.730508500000006
 30
0.0
 40
0.1419445
 50
359.999999999998
 51
180
  0
LINE
  8
1
  6
CONTINUOUS
 62
1
 10
0.7569895
 20
0.269488500000004
 30
0.0
 11
0.7569895
 21
0.730508500000003
 31
0.0
  0
ARC
  8
1
  6
CONTINUOUS
 62
1
 10
0.898935577196513
 20
0.269486796014162
 30
0.0
 40
0.141946077206741
 50
179.999312195172
 51
255.521838354125
  0
LINE
  8
1
  6
CONTINUOUS
 62
1
 10
0.8634475
 20
0.00233850000000269
 30
0.0
 11
0.8634475
 21
0.132048500000002
 31
0.0
  0
ARC
  8
1
  6
CONTINUOUS
 62
1
 10
0.898934414514865
 20
0.269484733149786
 30
0.0
 40
0.26949291454119
 50
179.999199145476
 51
262.433297341487
  0
LINE
  8
1
  6
CONTINUOUS
 62
1
 10
0.6294405
 20
0.730508500000003
 30
0.0
 11
0.6294415
 21
0.269488500000004
 31
0.0
  0
ARC
  8
1
  6
CONTINUOUS
 62
1
 10
0.89893
 20
0.730508500000004
 30
0.0
 40
0.2694895
 50
359.999999999998
 51
180
  0
LINE
  8
1
  6
CONTINUOUS
 62
1
 10
1.1684195
 20
0.269488500000004
 30
0.0
 11
1.1684195
 21
0.730508500000003
 31
0.0
  0
ARC
  8
1
  6
CONTINUOUS
 62
1
 10
0.898926042279661
 20
0.269484279010306
 30
0.0
 40
0.269493457753397
 50
277.568305134344
 51
0.000897405440321067
  0
LINE
  8
1
  6
CONTINUOUS
 62
1
 10
0.9344205
 20
0.132048500000002
 30
0.0
 11
0.9344205
 21
0.00233850000000269
 31
0.0
  0
ARC
  8
1
  6
CONTINUOUS
 62
1
 10
0.89893208686702
 20
0.269486023438578
 30
0.0
 40
0.141945413154587
 50
284.478370904534
 51
0.000999655530868645
  0
LINE
  8
1
  6
CONTINUOUS
 62
1
 10
1.0408785
 20
0.499998500000002
 30
0.0
 11
1.0408775
 21
0.269488500000004
 31
0.0
  0
ARC
  8
1
  6
CONTINUOUS
 62
1
 10
0.269488000000008
 20
0.269488499999998
 30
0.0
 40
0.269488499999998
 50
269.999999999998
 51
360
  0
LINE
  8
2
  6
CONTINUOUS
 62
2
 10
2.43201350000001
 20
0.999998500000002
 30
0.0
 11
2.27261358296253
 21
0.152776558468033
 31
0.0
  0
LINE
  8
2
  6
CONTINUOUS
 62
2
 10
2.56739950000001
 20
0.999998500000002
 30
0.0
 11
2.43201350000001
 21
0.999998500000002
 31
0.0
  0
LINE
  8
2
  6
CONTINUOUS
 62
2
 10
2.3490385
 20
-8.1499999997181E-5
 30
0.0
 11
2.56739950000001
 21
0.999998500000002
 31
0.0
  0
LINE
  8
2
  6
CONTINUOUS
 62
2
 10
2.17872150000001
 20
-8.1499999997181E-5
 30
0.0
 11
2.3490385
 21
-8.1499999997181E-5
 31
0.0
  0
LINE
  8
2
  6
CONTINUOUS
 62
2
 10
1.9647285
 20
0.999998500000002
 30
0.0
 11
2.17872150000001
 21
-8.1499999997181E-5
 31
0.0
  0
LINE
  8
2
  6
CONTINUOUS
 62
2
 10
2.10884850000001
 20
0.999998500000002
 30
0.0
 11
1.9647285
 21
0.999998500000002
 31
0.0
  0
LINE
  8
2
  6
CONTINUOUS
 62
2
 10
2.27261358296253
 20
0.152776558468033
 30
0.0
 11
2.10884850000001
 21
0.999998500000002
 31
0.0
  0
LINE
  8
2
  6
CONTINUOUS
 62
2
 10
2.7988165
 20
0.567648500000003
 30
0.0
 11
2.7988165
 21
0.886448500000002
 31
0.0
  0
LINE
  8
2
  6
CONTINUOUS
 62
2
 10
3.0957815
 20
0.567648500000003
 30
0.0
 11
2.7988165
 21
0.567648500000003
 31
0.0
  0
LINE
  8
2
  6
CONTINUOUS
 62
2
 10
3.0957815
 20
0.454108500000002
 30
0.0
 11
3.0957815
 21
0.567648500000003
 31
0.0
  0
LINE
  8
2
  6
CONTINUOUS
 62
2
 10
2.7988165
 20
0.454108500000002
 30
0.0
 11
3.0957815
 21
0.454108500000002
 31
0.0
  0
LINE
  8
2
  6
CONTINUOUS
 62
2
 10
2.7988165
 20
0.113468500000003
 30
0.0
 11
2.7988165
 21
0.454108500000002
 31
0.0
  0
LINE
  8
2
  6
CONTINUOUS
 62
2
 10
3.12198550000001
 20
0.113468500000003
 30
0.0
 11
2.7988165
 21
0.113468500000003
 31
0.0
  0
LINE
  8
2
  6
CONTINUOUS
 62
2
 10
3.12198550000001
 20
-8.1499999997181E-5
 30
0.0
 11
3.12198550000001
 21
0.113468500000003
 31
0.0
  0
LINE
  8
2
  6
CONTINUOUS
 62
2
 10
2.66343250000002
 20
-8.1499999997181E-5
 30
0.0
 11
3.12198550000001
 21
-8.1499999997181E-5
 31
0.0
  0
LINE
  8
2
  6
CONTINUOUS
 62
2
 10
2.66343250000002
 20
0.999998500000002
 30
0.0
 11
2.66343250000002
 21
-8.1499999997181E-5
 31
0.0
  0
LINE
  8
2
  6
CONTINUOUS
 62
2
 10
3.11324950000001
 20
0.999998500000002
 30
0.0
 11
2.66343250000002
 21
0.999998500000002
 31
0.0
  0
LINE
  8
2
  6
CONTINUOUS
 62
2
 10
3.11324950000001
 20
0.886448500000002
 30
0.0
 11
3.11324950000001
 21
0.999998500000002
 31
0.0
  0
LINE
  8
2
  6
CONTINUOUS
 62
2
 10
2.7988165
 20
0.886448500000002
 30
0.0
 11
3.11324950000001
 21
0.886448500000002
 31
0.0
  0
LINE
  8
2
  6
CONTINUOUS
 62
2
 10
3.34466650000001
 20
0.678998500000003
 30
0.0
 11
3.34466650000001
 21
0.880998500000003
 31
0.0
  0
LINE
  8
2
  6
CONTINUOUS
 62
2
 10
3.20928450000001
 20
0.678998500000003
 30
0.0
 11
3.34466650000001
 21
0.678998500000003
 31
0.0
  0
LINE
  8
2
  6
CONTINUOUS
 62
2
 10
3.20928450000001
 20
0.999998500000002
 30
0.0
 11
3.20928450000001
 21
0.678998500000003
 31
0.0
  0
LINE
  8
2
  6
CONTINUOUS
 62
2
 10
3.49304150000001
 20
0.999998500000002
 30
0.0
 11
3.20928450000001
 21
0.999998500000002
 31
0.0
  0
ARC
  8
2
  6
CONTINUOUS
 62
2
 10
3.4930430871261
 20
0.720510580004363
 30
0.0
 40
0.279487920000147
 50
302.855260347106
 51
90.0003253651404
  0
ARC
  8
2
  6
CONTINUOUS
 62
2
 10
3.46147275419901
 20
0.296969338003371
 30
0.0
 40
0.263042649211563
 50
8.61652018159722
 51
45.856609805123
  0
LINE
  8
2
  6
CONTINUOUS
 62
2
 10
3.77253450000001
 20
-8.1499999997181E-5
 30
0.0
 11
3.72154650000001
 21
0.336378500000003
 31
0.0
  0
LINE
  8
2
  6
CONTINUOUS
 62
2
 10
3.65354550000001
 20
-8.1499999997181E-5
 30
0.0
 11
3.77253450000001
 21
-8.1499999997181E-5
 31
0.0
  0
LINE
  8
2
  6
CONTINUOUS
 62
2
 10
3.60381250000001
 20
0.319138499999993
 30
0.0
 11
3.65354550000001
 21
-8.1499999997181E-5
 31
0.0
  0
ARC
  8
2
  6
CONTINUOUS
 62
2
 10
3.46148302082692
 20
0.296961658444988
 30
0.0
 40
0.144046842877719
 50
8.85623894301916
 51
90.0077645644688
  0
LINE
  8
2
  6
CONTINUOUS
 62
2
 10
3.34466650000001
 20
0.440998500000003
 30
0.0
 11
3.46146350000001
 21
0.441008500000003
 31
0.0
  0
LINE
  8
2
  6
CONTINUOUS
 62
2
 10
3.34466650000001
 20
-8.1499999997181E-5
 30
0.0
 11
3.34466650000001
 21
0.440998500000003
 31
0.0
  0
LINE
  8
2
  6
CONTINUOUS
 62
2
 10
3.20928450000001
 20
-8.1499999997181E-5
 30
0.0
 11
3.34466650000001
 21
-8.1499999997181E-5
 31
0.0
  0
LINE
  8
2
  6
CONTINUOUS
 62
2
 10
3.20928450000001
 20
0.559998500000003
 30
0.0
 11
3.20928450000001
 21
-8.1499999997181E-5
 31
0.0
  0
LINE
  8
2
  6
CONTINUOUS
 62
2
 10
3.4930435
 20
0.559998500000003
 30
0.0
 11
3.20928450000001
 21
0.559998500000003
 31
0.0
  0
ARC
  8
2
  6
CONTINUOUS
 62
2
 10
3.4930435
 20
0.720498500000002
 30
0.0
 40
0.160499999999999
 50
269.999999999998
 51
359.999999999999
  0
ARC
  8
2
  6
CONTINUOUS
 62
2
 10
3.4930435
 20
0.720498500000007
 30
0.0
 40
0.160499999999999
 50
359.999999999998
 51
89.9999999999998
  0
LINE
  8
2
  6
CONTINUOUS
 62
2
 10
3.34466650000001
 20
0.880998500000003
 30
0.0
 11
3.4930435
 21
0.880998500000003
 31
0.0
  0
ARC
  8
3
  6
CONTINUOUS
 62
3
 10
4.13526499039562
 20
0.730511565111831
 30
0.0
 40
0.269483490413042
 50
180.000651683601
 51
243.183935420126
  0
ARC
  8
3
  6
CONTINUOUS
 62
3
 10
4.13527100000001
 20
0.730508500000002
 30
0.0
 40
0.2694895
 50
359.999999999998
 51
180
  0
LINE
  8
3
  6
CONTINUOUS
 62
3
 10
4.27721750000001
 20
0.730508500000001
 30
0.0
 11
4.40476050000001
 21
0.730508500000001
 31
0.0
  0
ARC
  8
3
  6
CONTINUOUS
 62
3
 10
4.13527250000001
 20
0.730508500000004
 30
0.0
 40
0.141945
 50
359.999999999998
 51
180
  0
ARC
  8
3
  6
CONTINUOUS
 62
3
 10
4.13528120941423
 20
0.730504675259853
 30
0.0
 40
0.141953709465742
 50
179.998456246975
 51
243.182376586103
  0
LINE
  8
3
  6
CONTINUOUS
 62
3
 10
4.25685450000001
 20
0.509998500000002
 30
0.0
 11
4.07123850000001
 21
0.603818500000001
 31
0.0
  0
ARC
  8
3
  6
CONTINUOUS
 62
3
 10
4.13526755255037
 20
0.269494892941709
 30
0.0
 40
0.269490947525463
 50
359.998640813052
 51
63.1810545244018
  0
ARC
  8
3
  6
CONTINUOUS
 62
3
 10
4.13527050000001
 20
0.2694885
 30
0.0
 40
0.269488
 50
179.999999999999
 51
360
  0
LINE
  8
3
  6
CONTINUOUS
 62
3
 10
3.99332650000001
 20
0.269488500000002
 30
0.0
 11
3.86578250000001
 21
0.269488500000002
 31
0.0
  0
ARC
  8
3
  6
CONTINUOUS
 62
3
 10
4.13527100000001
 20
0.269488499999999
 30
0.0
 40
0.1419445
 50
179.999999999998
 51
359.999999999998
  0
ARC
  8
3
  6
CONTINUOUS
 62
3
 10
4.13527355747437
 20
0.26949107794216
 30
0.0
 40
0.141941942549054
 50
359.99895939704
 51
63.1839407382836
  0
LINE
  8
3
  6
CONTINUOUS
 62
3
 10
4.01369350000001
 20
0.490008500000002
 30
0.0
 11
4.19930750000001
 21
0.396168500000002
 31
0.0
  0
LINE
  8
3
  6
CONTINUOUS
 62
3
 10
4.81681150000001
 20
0.873358500000003
 30
0.0
 11
4.92840841166671
 21
0.340558500000002
 31
0.0
  0
LINE
  8
3
  6
CONTINUOUS
 62
3
 10
4.62902350000002
 20
-8.1499999997181E-5
 30
0.0
 11
4.81681150000001
 21
0.873358500000003
 31
0.0
  0
LINE
  8
3
  6
CONTINUOUS
 62
3
 10
4.49800950000001
 20
-8.1499999997181E-5
 30
0.0
 11
4.62902350000002
 21
-8.1499999997181E-5
 31
0.0
  0
LINE
  8
3
  6
CONTINUOUS
 62
3
 10
4.72946850000001
 20
0.999998500000002
 30
0.0
 11
4.49800950000001
 21
-8.1499999997181E-5
 31
0.0
  0
LINE
  8
3
  6
CONTINUOUS
 62
3
 10
4.91288750000001
 20
0.999998500000002
 30
0.0
 11
4.72946850000001
 21
0.999998500000002
 31
0.0
  0
LINE
  8
3
  6
CONTINUOUS
 62
3
 10
5.1443495
 20
-8.1499999997181E-5
 30
0.0
 11
4.91288750000001
 21
0.999998500000002
 31
0.0
  0
LINE
  8
3
  6
CONTINUOUS
 62
3
 10
5.00023150000001
 20
-8.1499999997181E-5
 30
0.0
 11
5.1443495
 21
-8.1499999997181E-5
 31
0.0
  0
LINE
  8
3
  6
CONTINUOUS
 62
3
 10
4.95219250000001
 20
0.227018500000003
 30
0.0
 11
5.00023150000001
 21
-8.1499999997181E-5
 31
0.0
  0
LINE
  8
3
  6
CONTINUOUS
 62
3
 10
4.74693650000002
 20
0.227018500000003
 30
0.0
 11
4.95219250000001
 21
0.227018500000003
 31
0.0
  0
LINE
  8
3
  6
CONTINUOUS
 62
3
 10
4.77096050000001
 20
0.340558500000002
 30
0.0
 11
4.74693650000002
 21
0.227018500000003
 31
0.0
  0
LINE
  8
3
  6
CONTINUOUS
 62
3
 10
4.92840841166671
 20
0.340558500000002
 30
0.0
 11
4.77096050000001
 21
0.340558500000002
 31
0.0
  0
LINE
  8
3
  6
CONTINUOUS
 62
3
 10
5.6072255
 20
-8.1499999997181E-5
 30
0.0
 11
5.6072255
 21
0.886448500000003
 31
0.0
  0
LINE
  8
3
  6
CONTINUOUS
 62
3
 10
5.47184350000001
 20
-8.1499999997181E-5
 30
0.0
 11
5.6072255
 21
-8.1499999997181E-5
 31
0.0
  0
LINE
  8
3
  6
CONTINUOUS
 62
3
 10
5.47184350000001
 20
0.886448500000003
 30
0.0
 11
5.47184350000001
 21
-8.1499999997181E-5
 31
0.0
  0
LINE
  8
3
  6
CONTINUOUS
 62
3
 10
5.24038250000001
 20
0.886448500000003
 30
0.0
 11
5.47184350000001
 21
0.886448500000003
 31
0.0
  0
LINE
  8
3
  6
CONTINUOUS
 62
3
 10
5.24038250000001
 20
0.999998500000002
 30
0.0
 11
5.24038250000001
 21
0.886448500000003
 31
0.0
  0
LINE
  8
3
  6
CONTINUOUS
 62
3
 10
5.8430515
 20
0.999998500000002
 30
0.0
 11
5.24038250000001
 21
0.999998500000002
 31
0.0
  0
LINE
  8
3
  6
CONTINUOUS
 62
3
 10
5.8430515
 20
0.886448500000003
 30
0.0
 11
5.8430515
 21
0.999998500000002
 31
0.0
  0
LINE
  8
3
  6
CONTINUOUS
 62
3
 10
5.6072255
 20
0.886448500000003
 30
0.0
 11
5.8430515
 21
0.886448500000003
 31
0.0
  0
LINE
  8
4
  6
CONTINUOUS
 62
4
 10
5.93907750000001
 20
0.999998500000002
 30
0.0
 11
5.93907750000001
 21
0.499958500000004
 31
0.0
  0
LINE
  8
4
  6
CONTINUOUS
 62
4
 10
6.07445550000001
 20
0.999998500000002
 30
0.0
 11
5.93907750000001
 21
0.999998500000002
 31
0.0
  0
LINE
  8
4
  6
CONTINUOUS
 62
4
 10
6.07445550000001
 20
-8.14999999962929E-5
 30
0.0
 11
6.07445550000001
 21
0.999998500000002
 31
0.0
  0
LINE
  8
4
  6
CONTINUOUS
 62
4
 10
5.93907750000001
 20
-8.14999999962929E-5
 30
0.0
 11
6.07445550000001
 21
-8.14999999962929E-5
 31
0.0
  0
LINE
  8
4
  6
CONTINUOUS
 62
4
 10
5.93907750000001
 20
0.499958500000004
 30
0.0
 11
5.93907750000001
 21
-8.14999999962929E-5
 31
0.0
  0
LINE
  8
4
  6
CONTINUOUS
 62
4
 10
6.57913450000001
 20
0.730508500000003
 30
0.0
 11
6.57913450000001
 21
0.499998500000002
 31
0.0
  0
ARC
  8
4
  6
CONTINUOUS
 62
4
 10
6.43719000000001
 20
0.730508500000006
 30
0.0
 40
0.1419445
 50
359.999999999998
 51
180
  0
LINE
  8
4
  6
CONTINUOUS
 62
4
 10
6.29524550000001
 20
0.269488500000004
 30
0.0
 11
6.29524550000001
 21
0.730508500000003
 31
0.0
  0
ARC
  8
4
  6
CONTINUOUS
 62
4
 10
6.43719157719652
 20
0.269486796014162
 30
0.0
 40
0.141946077206741
 50
179.999312195172
 51
255.521838354125
  0
LINE
  8
4
  6
CONTINUOUS
 62
4
 10
6.40170350000001
 20
0.00233850000000269
 30
0.0
 11
6.40170350000001
 21
0.132048500000002
 31
0.0
  0
ARC
  8
4
  6
CONTINUOUS
 62
4
 10
6.43719041451488
 20
0.269484733149785
 30
0.0
 40
0.26949291454119
 50
179.999199145476
 51
262.433297341487
  0
LINE
  8
4
  6
CONTINUOUS
 62
4
 10
6.16769650000001
 20
0.730508500000003
 30
0.0
 11
6.16769750000001
 21
0.269488500000004
 31
0.0
  0
ARC
  8
4
  6
CONTINUOUS
 62
4
 10
6.43718600000001
 20
0.730508500000004
 30
0.0
 40
0.2694895
 50
359.999999999998
 51
180
  0
LINE
  8
4
  6
CONTINUOUS
 62
4
 10
6.70667550000001
 20
0.269488500000004
 30
0.0
 11
6.70667550000001
 21
0.730508500000003
 31
0.0
  0
ARC
  8
4
  6
CONTINUOUS
 62
4
 10
6.43718204227967
 20
0.269484279010306
 30
0.0
 40
0.269493457753397
 50
277.568305134344
 51
0.000897405440308345
  0
LINE
  8
4
  6
CONTINUOUS
 62
4
 10
6.47267650000001
 20
0.132048500000002
 30
0.0
 11
6.47267650000001
 21
0.00233850000000269
 31
0.0
  0
ARC
  8
4
  6
CONTINUOUS
 62
4
 10
6.43718808686703
 20
0.26948602343858
 30
0.0
 40
0.141945413154587
 50
284.478370904534
 51
0.000999655530620562
  0
LINE
  8
4
  6
CONTINUOUS
 62
4
 10
6.57913450000001
 20
0.499998500000002
 30
0.0
 11
6.57913350000001
 21
0.269488500000004
 31
0.0
  0
LINE
  8
4
  6
CONTINUOUS
 62
4
 10
7.27594650000001
 20
0.999998500000002
 30
0.0
 11
7.27594650000001
 21
0.139670332390153
 31
0.0
  0
LINE
  8
4
  6
CONTINUOUS
 62
4
 10
7.40694750000001
 20
0.999998500000002
 30
0.0
 11
7.27594650000001
 21
0.999998500000002
 31
0.0
  0
LINE
  8
4
  6
CONTINUOUS
 62
4
 10
7.40694750000001
 20
-8.1499999997181E-5
 30
0.0
 11
7.40694750000001
 21
0.999998500000002
 31
0.0
  0
LINE
  8
4
  6
CONTINUOUS
 62
4
 10
7.19295750000001
 20
-8.1499999997181E-5
 30
0.0
 11
7.40694750000001
 21
-8.1499999997181E-5
 31
0.0
  0
LINE
  8
4
  6
CONTINUOUS
 62
4
 10
6.93092750000001
 20
0.838408500000003
 30
0.0
 11
7.19295750000001
 21
-8.1499999997181E-5
 31
0.0
  0
LINE
  8
4
  6
CONTINUOUS
 62
4
 10
6.93092750000001
 20
-8.1499999997181E-5
 30
0.0
 11
6.93092750000001
 21
0.838408500000003
 31
0.0
  0
LINE
  8
4
  6
CONTINUOUS
 62
4
 10
6.79991750000001
 20
-8.1499999997181E-5
 30
0.0
 11
6.93092750000001
 21
-8.1499999997181E-5
 31
0.0
  0
LINE
  8
4
  6
CONTINUOUS
 62
4
 10
6.79991750000001
 20
0.999998500000002
 30
0.0
 11
6.79991750000001
 21
-8.1499999997181E-5
 31
0.0
  0
LINE
  8
4
  6
CONTINUOUS
 62
4
 10
7.01390750000001
 20
0.999998500000002
 30
0.0
 11
6.79991750000001
 21
0.999998500000002
 31
0.0
  0
LINE
  8
4
  6
CONTINUOUS
 62
4
 10
7.27594650000001
 20
0.139670332390153
 30
0.0
 11
7.01390750000001
 21
0.999998500000002
 31
0.0
  0
LINE
  8
5
  6
CONTINUOUS
 62
5
 10
8.74220248244954
 20
0.730508500000003
 30
0.0
 11
8.74220248244954
 21
0.499998500000002
 31
0.0
  0
ARC
  8
5
  6
CONTINUOUS
 62
5
 10
8.60025798244954
 20
0.730508500000007
 30
0.0
 40
0.141944499999999
 50
359.999999999998
 51
180
  0
LINE
  8
5
  6
CONTINUOUS
 62
5
 10
8.45831348244954
 20
0.269488500000004
 30
0.0
 11
8.45831348244954
 21
0.730508500000003
 31
0.0
  0
ARC
  8
5
  6
CONTINUOUS
 62
5
 10
8.60025959245881
 20
0.269486821430203
 30
0.0
 40
0.141946110019195
 50
179.999322454379
 51
255.521828094919
  0
LINE
  8
5
  6
CONTINUOUS
 62
5
 10
8.56477148244954
 20
0.00234850000000414
 30
0.0
 11
8.56477148244954
 21
0.132048500000004
 31
0.0
  0
ARC
  8
5
  6
CONTINUOUS
 62
5
 10
8.60025318893841
 20
0.269489162347187
 30
0.0
 40
0.269486706489681
 50
180.000140822152
 51
262.434239018163
  0
LINE
  8
5
  6
CONTINUOUS
 62
5
 10
8.33076448244954
 20
0.730508500000003
 30
0.0
 11
8.33076648244954
 21
0.269488500000004
 31
0.0
  0
ARC
  8
5
  6
CONTINUOUS
 62
5
 10
8.60025398244954
 20
0.730508500000004
 30
0.0
 40
0.269489500000001
 50
359.999999999998
 51
180
  0
LINE
  8
5
  6
CONTINUOUS
 62
5
 10
8.86974348244954
 20
0.269488500000004
 30
0.0
 11
8.86974348244954
 21
0.730508500000003
 31
0.0
  0
ARC
  8
5
  6
CONTINUOUS
 62
5
 10
8.60025573290655
 20
0.269489279010307
 30
0.0
 40
0.269487749544124
 50
277.567242103555
 51
359.99983437465
  0
LINE
  8
5
  6
CONTINUOUS
 62
5
 10
8.63574448244954
 20
0.132048500000004
 30
0.0
 11
8.63574448244954
 21
0.00234850000000414
 31
0.0
  0
ARC
  8
5
  6
CONTINUOUS
 62
5
 10
8.6002559708785
 20
0.269486099685824
 30
0.0
 40
0.141945511591343
 50
284.478401682145
 51
0.00096887791937862
  0
LINE
  8
5
  6
CONTINUOUS
 62
5
 10
8.74220248244954
 20
0.499998500000002
 30
0.0
 11
8.74220148244954
 21
0.269488500000004
 31
0.0
  0
LINE
  8
5
  6
CONTINUOUS
 62
5
 10
8.96306548244954
 20
0.159158500000002
 30
0.0
 11
8.96306548244954
 21
0.0795785000000025
 31
0.0
  0
LINE
  8
5
  6
CONTINUOUS
 62
5
 10
9.12222648244954
 20
0.159158500000002
 30
0.0
 11
8.96306548244954
 21
0.159158500000002
 31
0.0
  0
LINE
  8
5
  6
CONTINUOUS
 62
5
 10
9.12222648244954
 20
-1.49999999748962E-6
 30
0.0
 11
9.12222648244954
 21
0.159158500000002
 31
0.0
  0
LINE
  8
5
  6
CONTINUOUS
 62
5
 10
8.96306548244954
 20
-1.49999999748962E-6
 30
0.0
 11
9.12222648244954
 21
-1.49999999748962E-6
 31
0.0
  0
LINE
  8
5
  6
CONTINUOUS
 62
5
 10
8.96306548244954
 20
0.0795785000000025
 30
0.0
 11
8.96306548244954
 21
-1.49999999748962E-6
 31
0.0
  0
LINE
  8
5
  6
CONTINUOUS
 62
5
 10
9.62690448244952
 20
0.730508500000003
 30
0.0
 11
9.62690448244952
 21
0.499998500000002
 31
0.0
  0
ARC
  8
5
  6
CONTINUOUS
 62
5
 10
9.48495998244954
 20
0.730508500000007
 30
0.0
 40
0.141944499999999
 50
359.999999999998
 51
180
  0
LINE
  8
5
  6
CONTINUOUS
 62
5
 10
9.34301548244954
 20
0.269488500000004
 30
0.0
 11
9.34301548244954
 21
0.730508500000003
 31
0.0
  0
ARC
  8
5
  6
CONTINUOUS
 62
5
 10
9.48496159245881
 20
0.269486821430203
 30
0.0
 40
0.141946110019195
 50
179.999322454379
 51
255.521828094919
  0
LINE
  8
5
  6
CONTINUOUS
 62
5
 10
9.44947348244954
 20
0.00234850000000414
 30
0.0
 11
9.44947348244954
 21
0.132048500000004
 31
0.0
  0
ARC
  8
5
  6
CONTINUOUS
 62
5
 10
9.48495518893841
 20
0.269489162347187
 30
0.0
 40
0.269486706489681
 50
180.000140822152
 51
262.434239018163
  0
LINE
  8
5
  6
CONTINUOUS
 62
5
 10
9.21546648244954
 20
0.730508500000003
 30
0.0
 11
9.21546848244954
 21
0.269488500000004
 31
0.0
  0
ARC
  8
5
  6
CONTINUOUS
 62
5
 10
9.48495598244954
 20
0.730508500000004
 30
0.0
 40
0.269489500000001
 50
359.999999999998
 51
180
  0
LINE
  8
5
  6
CONTINUOUS
 62
5
 10
9.75444548244952
 20
0.269488500000004
 30
0.0
 11
9.75444548244952
 21
0.730508500000003
 31
0.0
  0
ARC
  8
5
  6
CONTINUOUS
 62
5
 10
9.48495773290656
 20
0.269489279010307
 30
0.0
 40
0.269487749544124
 50
277.567242103555
 51
359.99983437465
  0
LINE
  8
5
  6
CONTINUOUS
 62
5
 10
9.52044648244954
 20
0.132048500000004
 30
0.0
 11
9.52044648244954
 21
0.00234850000000414
 31
0.0
  0
ARC
  8
5
  6
CONTINUOUS
 62
5
 10
9.4849579708785
 20
0.269486099685824
 30
0.0
 40
0.141945511591343
 50
284.478401682145
 51
0.00096887791937862
  0
LINE
  8
5
  6
CONTINUOUS
 62
5
 10
9.62690448244952
 20
0.499998500000002
 30
0.0
 11
9.62690348244952
 21
0.269488500000004
 31
0.0
  0
LINE
  8
5
  6
CONTINUOUS
 62
5
 10
8.11585169639166
 20
0.50004
 30
0.0
 11
8.03615173787292
 21
0.0764290292340151
 31
0.0
  0
LINE
  8
5
  6
CONTINUOUS
 62
5
 10
8.18354469639166
 20
0.50004
 30
0.0
 11
8.11585169639166
 21
0.50004
 31
0.0
  0
LINE
  8
5
  6
CONTINUOUS
 62
5
 10
8.07436419639165
 20
0
 30
0.0
 11
8.18354469639166
 21
0.50004
 31
0.0
  0
LINE
  8
5
  6
CONTINUOUS
 62
5
 10
7.98920569639166
 20
0
 30
0.0
 11
8.07436419639165
 21
0
 31
0.0
  0
LINE
  8
5
  6
CONTINUOUS
 62
5
 10
7.88220919639165
 20
0.50004
 30
0.0
 11
7.98920569639166
 21
0
 31
0.0
  0
LINE
  8
5
  6
CONTINUOUS
 62
5
 10
7.95426919639166
 20
0.50004
 30
0.0
 11
7.88220919639165
 21
0.50004
 31
0.0
  0
LINE
  8
5
  6
CONTINUOUS
 62
5
 10
8.03615173787292
 20
0.0764290292340151
 30
0.0
 11
7.95426919639166
 21
0.50004
 31
0.0
  0
LINE
  8
6
  6
CONTINUOUS
 62
6
 10
-4.99999999792333E-7
 20
-0.433217987079332
 30
0.0
 11
-4.99999999792333E-7
 21
-0.263576465518032
 31
0.0
  0
ARC
  8
6
  6
CONTINUOUS
 62
6
 10
0.0695497321114063
 20
-0.432096357431992
 30
0.0
 40
0.0695592757280886
 50
180.92392322265
 51
0.472476699574951
  0
LINE
  8
6
  6
CONTINUOUS
 62
6
 10
0.1391066428015
 20
-0.263576465518032
 30
0.0
 11
0.139106642801503
 21
-0.43152275908279
 31
0.0
  0
LINE
  8
6
  6
CONTINUOUS
 62
6
 10
0.16598167021022
 20
-0.263576494628562
 30
0.0
 11
0.1659816428015
 21
-0.501076465518032
 31
0.0
  0
LINE
  8
6
  6
CONTINUOUS
 62
6
 10
0.311817979675695
 20
-0.501076494533559
 30
0.0
 11
0.16598167021022
 21
-0.263576494628562
 31
0.0
  0
LINE
  8
6
  6
CONTINUOUS
 62
6
 10
0.311817979675695
 20
-0.263576494628562
 30
0.0
 11
0.311817979675695
 21
-0.501076494533559
 31
0.0
  0
LINE
  8
6
  6
CONTINUOUS
 62
6
 10
0.366125092353203
 20
-0.263576500090082
 30
0.0
 11
0.366125092353203
 21
-0.501076499995082
 31
0.0
  0
LINE
  8
6
  6
CONTINUOUS
 62
6
 10
0.432370728464708
 20
-0.263576503117157
 30
0.0
 11
0.366125092353203
 21
-0.263576500090082
 31
0.0
  0
ARC
  8
6
  6
CONTINUOUS
 62
6
 10
0.424177692329978
 20
-0.3505317813053
 30
0.0
 40
0.0873404044293503
 50
24.3863827720531
 51
84.6174099999932
  0
ARC
  8
6
  6
CONTINUOUS
 62
6
 10
0.303317778369212
 20
-0.382326502758954
 30
0.0
 40
0.21158416955822
 50
341.29431327019
 51
18.7056867298088
  0
ARC
  8
6
  6
CONTINUOUS
 62
6
 10
0.42417770929426
 20
-0.414121218779873
 30
0.0
 40
0.0873403874650792
 50
275.382450717137
 51
335.613608269932
  0
LINE
  8
6
  6
CONTINUOUS
 62
6
 10
0.372062592353203
 20
-0.501076499995082
 30
0.0
 11
0.43237053245419
 21
-0.501076499995107
 31
0.0
  0
ARC
  8
6
  6
CONTINUOUS
 62
6
 10
0.648731061788487
 20
-0.43086784228623
 30
0.0
 40
0.0706663506591695
 50
196.004825930422
 51
267.948379947904
  0
ARC
  8
6
  6
CONTINUOUS
 62
6
 10
0.781211580152584
 20
-0.382494638466557
 30
0.0
 40
0.21158416955822
 50
161.294116943038
 51
198.705883056962
  0
ARC
  8
6
  6
CONTINUOUS
 62
6
 10
0.648731071139499
 20
-0.334279352267679
 30
0.0
 40
0.070710063357739
 50
16.128889375895
 51
163.872176621307
  0
ARC
  8
6
  6
CONTINUOUS
 62
6
 10
0.516250624595519
 20
-0.382494638473694
 30
0.0
 40
0.211584169558198
 50
341.293755627023
 51
18.7062443729758
  0
ARC
  8
6
  6
CONTINUOUS
 62
6
 10
0.648731061788477
 20
-0.43086784228622
 30
0.0
 40
0.070666350659177
 50
272.763973435187
 51
343.994108060196
  0
LINE
  8
6
  6
CONTINUOUS
 62
6
 10
0.892216677814705
 20
-0.263576465518032
 30
0.0
 11
0.756502392154705
 21
-0.501076465423032
 31
0.0
  0
LINE
  8
6
  6
CONTINUOUS
 62
6
 10
0.927841677814705
 20
-0.263576465518032
 30
0.0
 11
0.927841677814705
 21
-0.501076465423032
 31
0.0
  0
LINE
  8
6
  6
CONTINUOUS
 62
6
 10
1.01402024920882
 20
-0.26357646551803
 30
0.0
 11
0.927841677814705
 21
-0.263576465518032
 31
0.0
  0
ARC
  8
6
  6
CONTINUOUS
 62
6
 10
1.01287595893124
 20
-0.322951377596447
 30
0.0
 40
0.0593859375993938
 50
271.095264000542
 51
88.8959160393196
  0
LINE
  8
6
  6
CONTINUOUS
 62
6
 10
0.935636109179008
 20
-0.382326465120374
 30
0.0
 11
1.01401110917901
 21
-0.382326465120374
 31
0.0
  0
LINE
  8
6
  6
CONTINUOUS
 62
6
 10
1.07339524918506
 20
-0.501076465423032
 30
0.0
 11
1.01739481047551
 21
-0.389092865473659
 31
0.0
  0
LINE
  8
6
  6
CONTINUOUS
 62
6
 10
1.09970327837823
 20
-0.501078937475782
 30
0.0
 11
1.23898006403681
 21
-0.501078937475782
 31
0.0
  0
LINE
  8
6
  6
CONTINUOUS
 62
6
 10
1.09961845694969
 20
-0.382328937523282
 30
0.0
 11
1.09970327837823
 21
-0.501078937475782
 31
0.0
  0
LINE
  8
6
  6
CONTINUOUS
 62
6
 10
1.20844434976331
 20
-0.382328937523282
 30
0.0
 11
1.09961845694969
 21
-0.382328937523282
 31
0.0
  0
LINE
  8
6
  6
CONTINUOUS
 62
6
 10
1.09953363552116
 20
-0.263578937570782
 30
0.0
 11
1.09961336909686
 21
-0.378768443547532
 31
0.0
  0
LINE
  8
6
  6
CONTINUOUS
 62
6
 10
1.22710506403681
 20
-0.263578937570782
 30
0.0
 11
1.09953363552116
 21
-0.263578937570782
 31
0.0
  0
LINE
  8
6
  6
CONTINUOUS
 62
6
 10
1.28141217671431
 20
-0.263576500090082
 30
0.0
 11
1.28141217671431
 21
-0.501076499995082
 31
0.0
  0
LINE
  8
6
  6
CONTINUOUS
 62
6
 10
1.34765781282582
 20
-0.263576503117157
 30
0.0
 11
1.28141217671431
 21
-0.263576500090082
 31
0.0
  0
ARC
  8
6
  6
CONTINUOUS
 62
6
 10
1.33946477669109
 20
-0.3505317813053
 30
0.0
 40
0.0873404044293504
 50
24.3863827720531
 51
84.6174099999932
  0
ARC
  8
6
  6
CONTINUOUS
 62
6
 10
1.21860486273032
 20
-0.382326502758954
 30
0.0
 40
0.21158416955822
 50
341.29431327019
 51
18.7056867298088
  0
ARC
  8
6
  6
CONTINUOUS
 62
6
 10
1.33946479365537
 20
-0.414121218779874
 30
0.0
 40
0.0873403874650789
 50
275.382450717137
 51
335.613608269932
  0
LINE
  8
6
  6
CONTINUOUS
 62
6
 10
1.28734967671431
 20
-0.501076499995082
 30
0.0
 11
1.3476576168153
 21
-0.501076499995107
 31
0.0
  0
ARC
  8
6
  6
CONTINUOUS
 62
6
 10
1.5640181461496
 20
-0.430867842286231
 30
0.0
 40
0.0706663506591693
 50
196.004825930422
 51
267.948379947904
  0
ARC
  8
6
  6
CONTINUOUS
 62
6
 10
1.69649866451369
 20
-0.382494638466557
 30
0.0
 40
0.21158416955822
 50
161.294116943038
 51
198.705883056962
  0
ARC
  8
6
  6
CONTINUOUS
 62
6
 10
1.56401815550061
 20
-0.334279352267679
 30
0.0
 40
0.0707100633577389
 50
16.128889375895
 51
163.872176621307
  0
ARC
  8
6
  6
CONTINUOUS
 62
6
 10
1.43153770895663
 20
-0.382494638473694
 30
0.0
 40
0.211584169558198
 50
341.293755627023
 51
18.7062443729758
  0
ARC
  8
6
  6
CONTINUOUS
 62
6
 10
1.56401814614959
 20
-0.43086784228622
 30
0.0
 40
0.070666350659177
 50
272.763973435187
 51
343.994108060196
  0
LINE
  8
6
  6
CONTINUOUS
 62
6
 10
2.0082850122055
 20
-0.501076465423032
 30
0.0
 11
1.94678947651582
 21
-0.263576465518032
 31
0.0
  0
LINE
  8
6
  6
CONTINUOUS
 62
6
 10
2.06978054789519
 20
-0.303103251216504
 30
0.0
 11
2.0082850122055
 21
-0.501076465423032
 31
0.0
  0
LINE
  8
6
  6
CONTINUOUS
 62
6
 10
2.13127608358488
 20
-0.501076465423032
 30
0.0
 11
2.06978054789519
 21
-0.303103251216504
 31
0.0
  0
LINE
  8
6
  6
CONTINUOUS
 62
6
 10
2.19277161927457
 20
-0.263576465518032
 30
0.0
 11
2.13127608358488
 21
-0.501076465423032
 31
0.0
  0
LINE
  8
6
  6
CONTINUOUS
 62
6
 10
2.29750373654698
 20
-0.501076480837032
 30
0.0
 11
2.22964660961506
 21
-0.501076480837032
 31
0.0
  0
LINE
  8
6
  6
CONTINUOUS
 62
6
 10
2.26357516513198
 20
-0.270701480932032
 30
0.0
 11
2.26357516513198
 21
-0.493951480932032
 31
0.0
  0
LINE
  8
6
  6
CONTINUOUS
 62
6
 10
2.29714661927456
 20
-0.263576480932032
 30
0.0
 11
2.22964660961506
 21
-0.263576480932032
 31
0.0
  0
LINE
  8
6
  6
CONTINUOUS
 62
6
 10
2.42056180563375
 20
-0.270779936588039
 30
0.0
 11
2.42056180563375
 21
-0.501076448874509
 31
0.0
  0
LINE
  8
6
  6
CONTINUOUS
 62
6
 10
2.49647696721053
 20
-0.263576448969509
 30
0.0
 11
2.3446466101284
 21
-0.263576448969509
 31
0.0
  0
LINE
  8
6
  6
CONTINUOUS
 62
6
 10
2.52022696721053
 20
-0.501076465423032
 30
0.0
 11
2.52022696721053
 21
-0.263576465518032
 31
0.0
  0
LINE
  8
6
  6
CONTINUOUS
 62
6
 10
2.65702696721053
 20
-0.382326465470532
 30
0.0
 11
2.52735196721053
 21
-0.382326465470532
 31
0.0
  0
LINE
  8
6
  6
CONTINUOUS
 62
6
 10
2.66442339572428
 20
-0.263576465518032
 30
0.0
 11
2.66442339572428
 21
-0.501076465423032
 31
0.0
  0
LINE
  8
6
  6
CONTINUOUS
 62
6
 10
2.96317339572428
 20
-0.433217987079332
 30
0.0
 11
2.96317339572428
 21
-0.263576465518032
 31
0.0
  0
ARC
  8
6
  6
CONTINUOUS
 62
6
 10
3.03272362783569
 20
-0.432096357431992
 30
0.0
 40
0.0695592757280885
 50
180.92392322265
 51
0.472476699574951
  0
LINE
  8
6
  6
CONTINUOUS
 62
6
 10
3.10228053852578
 20
-0.263576465518032
 30
0.0
 11
3.10228053852578
 21
-0.43152275908279
 31
0.0
  0
LINE
  8
6
  6
CONTINUOUS
 62
6
 10
3.40103053852578
 20
-0.501076465423032
 30
0.0
 11
3.40103053852578
 21
-0.263576465518032
 31
0.0
  0
LINE
  8
6
  6
CONTINUOUS
 62
6
 10
3.46433335348097
 20
-0.355308942000527
 30
0.0
 11
3.53386089561551
 21
-0.501076465423032
 31
0.0
  0
LINE
  8
6
  6
CONTINUOUS
 62
6
 10
3.53386089561551
 20
-0.263576465518032
 30
0.0
 11
3.40799786384912
 21
-0.410943141651319
 31
0.0
  0
LINE
  8
6
  6
CONTINUOUS
 62
6
 10
3.56016892480868
 20
-0.501078937475782
 30
0.0
 11
3.69944571046726
 21
-0.501078937475782
 31
0.0
  0
LINE
  8
6
  6
CONTINUOUS
 62
6
 10
3.56008410338014
 20
-0.382328937523282
 30
0.0
 11
3.56016892480868
 21
-0.501078937475782
 31
0.0
  0
LINE
  8
6
  6
CONTINUOUS
 62
6
 10
3.66890999619376
 20
-0.382328937523282
 30
0.0
 11
3.56008410338014
 21
-0.382328937523282
 31
0.0
  0
LINE
  8
6
  6
CONTINUOUS
 62
6
 10
3.55999928195161
 20
-0.263578937570782
 30
0.0
 11
3.56007901552731
 21
-0.378768443547532
 31
0.0
  0
LINE
  8
6
  6
CONTINUOUS
 62
6
 10
3.68757071046726
 20
-0.263578937570782
 30
0.0
 11
3.55999928195161
 21
-0.263578937570782
 31
0.0
  0
LINE
  8
6
  6
CONTINUOUS
 62
6
 10
3.78611165775027
 20
-0.376164988309652
 30
0.0
 11
3.71132071046725
 21
-0.263576465518032
 31
0.0
  0
LINE
  8
6
  6
CONTINUOUS
 62
6
 10
3.79020463900713
 20
-0.382326465470532
 30
0.0
 11
3.79020463900713
 21
-0.501076465423032
 31
0.0
  0
LINE
  8
6
  6
CONTINUOUS
 62
6
 10
3.869088567547
 20
-0.263576465518032
 30
0.0
 11
3.79020463900713
 21
-0.382326465470532
 31
0.0
  0
ARC
  8
6
  6
CONTINUOUS
 62
6
 10
3.88707522141776
 20
-0.421888221869102
 30
0.0
 40
0.0676837169372016
 50
300.968501427625
 51
9.0609071973008
  0
ARC
  8
6
  6
CONTINUOUS
 62
6
 10
3.92862347962232
 20
-0.411779514288315
 30
0.0
 40
0.0252968554219775
 50
1.24675710265707
 51
99.9849823546684
  0
ARC
  8
6
  6
CONTINUOUS
 62
6
 10
3.92847831115083
 20
-0.411956344219546
 30
0.0
 40
0.0254464285612502
 50
99.5940294878429
 51
260.405970512157
  0
ARC
  8
6
  6
CONTINUOUS
 62
6
 10
3.92847831115083
 20
-0.411956342913332
 30
0.0
 40
0.0254464298491941
 50
260.405971002345
 51
332.929633498533
  0
ARC
  8
6
  6
CONTINUOUS
 62
6
 10
3.92837167877556
 20
-0.309975876572367
 30
0.0
 40
0.025173581183257
 50
93.6221166200119
 51
180.443358810946
  0
ARC
  8
6
  6
CONTINUOUS
 62
6
 10
3.92858211396534
 20
-0.309985065751711
 30
0.0
 40
0.0253839412719255
 50
180.418942475933
 51
359.618970530593
  0
ARC
  8
6
  6
CONTINUOUS
 62
6
 10
3.92857646748175
 20
-0.310212350571064
 30
0.0
 40
0.0253890937938473
 50
0.131966327868559
 51
86.034808024871
  0
LINE
  8
6
  6
CONTINUOUS
 62
6
 10
4.35234468007219
 20
-0.382031078403532
 30
0.0
 11
4.26657143980104
 21
-0.382031078403532
 31
0.0
  0
ARC
  8
6
  6
CONTINUOUS
 62
6
 10
4.35232590404698
 20
-0.441406075411032
 30
0.0
 40
0.0593749999762503
 50
270.000000002514
 51
89.9818814817913
  0
LINE
  8
6
  6
CONTINUOUS
 62
6
 10
4.25944643980104
 20
-0.500781075387282
 30
0.0
 11
4.35232590404959
 21
-0.500781075387282
 31
0.0
  0
LINE
  8
6
  6
CONTINUOUS
 62
6
 10
4.25944643980104
 20
-0.263576465518032
 30
0.0
 11
4.25944643980104
 21
-0.500781075387282
 31
0.0
  0
LINE
  8
6
  6
CONTINUOUS
 62
6
 10
4.34172322548242
 20
-0.263576465518032
 30
0.0
 11
4.25944643980104
 21
-0.263576465518032
 31
0.0
  0
ARC
  8
6
  6
CONTINUOUS
 62
6
 10
4.34124876872321
 20
-0.323189450695577
 30
0.0
 40
0.0596148732364209
 50
296.191824756094
 51
89.5439953928136
  0
ARC
  8
6
  6
CONTINUOUS
 62
6
 10
4.51517957365701
 20
-0.430867842286231
 30
0.0
 40
0.0706663506591693
 50
196.004825930422
 51
267.948379947904
  0
ARC
  8
6
  6
CONTINUOUS
 62
6
 10
4.64766009202111
 20
-0.382494638466557
 30
0.0
 40
0.21158416955822
 50
161.294116943038
 51
198.705883056962
  0
ARC
  8
6
  6
CONTINUOUS
 62
6
 10
4.51517958300803
 20
-0.33427935226768
 30
0.0
 40
0.0707100633577394
 50
16.128889375895
 51
163.872176621307
  0
ARC
  8
6
  6
CONTINUOUS
 62
6
 10
4.38269913646404
 20
-0.382494638473695
 30
0.0
 40
0.211584169558198
 50
341.293755627023
 51
18.7062443729762
  0
ARC
  8
6
  6
CONTINUOUS
 62
6
 10
4.515179573657
 20
-0.43086784228622
 30
0.0
 40
0.0706663506591765
 50
272.763973435187
 51
343.994108060196
  0
LINE
  8
6
  6
CONTINUOUS
 62
6
 10
4.72199109038242
 20
-0.270779936588039
 30
0.0
 11
4.72199109038242
 21
-0.501076448874509
 31
0.0
  0
LINE
  8
6
  6
CONTINUOUS
 62
6
 10
4.79790625195919
 20
-0.263576448969509
 30
0.0
 11
4.64607589487707
 21
-0.263576448969509
 31
0.0
  0
LINE
  8
6
  6
CONTINUOUS
 62
6
 10
4.92069643831838
 20
-0.270779936588039
 30
0.0
 11
4.92069643831838
 21
-0.501076448874509
 31
0.0
  0
LINE
  8
6
  6
CONTINUOUS
 62
6
 10
4.99661159989516
 20
-0.263576448969509
 30
0.0
 11
4.84478124281303
 21
-0.263576448969509
 31
0.0
  0
ARC
  8
6
  6
CONTINUOUS
 62
6
 10
5.10009026952894
 20
-0.430867842286231
 30
0.0
 40
0.0706663506591693
 50
196.004825930422
 51
267.948379947904
  0
ARC
  8
6
  6
CONTINUOUS
 62
6
 10
5.23257078789304
 20
-0.382494638466557
 30
0.0
 40
0.21158416955822
 50
161.294116943038
 51
198.705883056962
  0
ARC
  8
6
  6
CONTINUOUS
 62
6
 10
5.10009027887995
 20
-0.33427935226768
 30
0.0
 40
0.0707100633577394
 50
16.128889375895
 51
163.872176621307
  0
ARC
  8
6
  6
CONTINUOUS
 62
6
 10
4.96760983233597
 20
-0.382494638473695
 30
0.0
 40
0.211584169558198
 50
341.293755627023
 51
18.7062443729762
  0
ARC
  8
6
  6
CONTINUOUS
 62
6
 10
5.10009026952893
 20
-0.43086784228622
 30
0.0
 40
0.0706663506591765
 50
272.763973435187
 51
343.994108060196
  0
LINE
  8
6
  6
CONTINUOUS
 62
6
 10
5.20848659259632
 20
-0.263576489082937
 30
0.0
 11
5.20848659989516
 21
-0.501076465518032
 31
0.0
  0
LINE
  8
6
  6
CONTINUOUS
 62
6
 10
5.30885861636569
 20
-0.431522917587187
 30
0.0
 11
5.20848659259632
 21
-0.263576489082937
 31
0.0
  0
LINE
  8
6
  6
CONTINUOUS
 62
6
 10
5.40894790203994
 20
-0.263576489082937
 30
0.0
 11
5.30885861636569
 21
-0.431522917587187
 31
0.0
  0
LINE
  8
6
  6
CONTINUOUS
 62
6
 10
5.40894790203994
 20
-0.501076488987937
 30
0.0
 11
5.40894790203994
 21
-0.263576489082937
 31
0.0
  0
ARC
  8
6
  6
CONTINUOUS
 62
6
 10
5.78988860587246
 20
-0.432755903988493
 30
0.0
 40
0.0684629883654724
 50
210.521999666258
 51
269.44106333805
  0
LINE
  8
6
  6
CONTINUOUS
 62
6
 10
5.81342316239223
 20
-0.501451743661397
 30
0.0
 11
5.7892207404979
 21
-0.501215634719574
 31
0.0
  0
ARC
  8
6
  6
CONTINUOUS
 62
6
 10
5.81403285542884
 20
-0.438954947037146
 30
0.0
 40
0.0624997705107135
 50
269.441063677775
 51
357.350682656728
  0
ARC
  8
6
  6
CONTINUOUS
 62
6
 10
5.82562792797705
 20
-0.446454615246643
 30
0.0
 40
0.0510465535510231
 50
5.18227244383218
 51
59.3448299999943
  0
LINE
  8
6
  6
CONTINUOUS
 62
6
 10
5.75818281371832
 20
-0.36239603670883
 30
0.0
 11
5.85165503354911
 21
-0.402541742362052
 31
0.0
  0
ARC
  8
6
  6
CONTINUOUS
 62
6
 10
5.78420993631726
 20
-0.318483186004621
 30
0.0
 40
0.0510465431518191
 50
185.182406440223
 51
239.344800865824
  0
ARC
  8
6
  6
CONTINUOUS
 62
6
 10
5.79555482921085
 20
-0.32581776395901
 30
0.0
 40
0.0622423899467805
 50
91.261343855053
 51
177.491952931064
  0
LINE
  8
6
  6
CONTINUOUS
 62
6
 10
5.81832956780886
 20
-0.263565067137974
 30
0.0
 11
5.79418469836649
 21
-0.263590456064834
 31
0.0
  0
ARC
  8
6
  6
CONTINUOUS
 62
6
 10
5.81617323888014
 20
-0.329828324050232
 30
0.0
 40
0.0662983330941941
 50
29.2717084966244
 51
88.1361471074762
  0
LINE
  8
6
  6
CONTINUOUS
 62
6
 10
6.09419807898555
 20
-0.49780793621903
 30
0.0
 11
6.01885647101014
 21
-0.440295253658327
 31
0.0
  0
ARC
  8
6
  6
CONTINUOUS
 62
6
 10
6.00915405315687
 20
-0.431278786697648
 30
0.0
 40
0.0706301249717502
 50
195.902080827325
 51
315.740300551128
  0
ARC
  8
6
  6
CONTINUOUS
 62
6
 10
6.14163458062819
 20
-0.382773816167047
 30
0.0
 40
0.211584169558221
 50
161.294116943041
 51
198.705883056959
  0
ARC
  8
6
  6
CONTINUOUS
 62
6
 10
6.00915404443451
 20
-0.334178673625378
 30
0.0
 40
0.0706054783997868
 50
15.8327716419905
 51
164.168294355361
  0
ARC
  8
6
  6
CONTINUOUS
 62
6
 10
5.87947492086787
 20
-0.38153794943034
 30
0.0
 40
0.208534636498563
 50
335.052800670302
 51
18.631469601348
  0
LINE
  8
6
  6
CONTINUOUS
 62
6
 10
6.11607526700008
 20
-0.433217987079332
 30
0.0
 11
6.11607526700008
 21
-0.263576465518032
 31
0.0
  0
ARC
  8
6
  6
CONTINUOUS
 62
6
 10
6.18562549911149
 20
-0.432096357431992
 30
0.0
 40
0.0695592757280885
 50
180.92392322265
 51
0.472476699574951
  0
LINE
  8
6
  6
CONTINUOUS
 62
6
 10
6.25518240980158
 20
-0.263576465518032
 30
0.0
 11
6.25518240980159
 21
-0.43152275908279
 31
0.0
  0
LINE
  8
6
  6
CONTINUOUS
 62
6
 10
6.36799490976596
 20
-0.263576465518032
 30
0.0
 11
6.27893240980158
 21
-0.501076465423032
 31
0.0
  0
LINE
  8
6
  6
CONTINUOUS
 62
6
 10
6.45705740973034
 20
-0.501076465423032
 30
0.0
 11
6.36799490976596
 21
-0.263576465518032
 31
0.0
  0
LINE
  8
6
  6
CONTINUOUS
 62
6
 10
6.4308475883094
 20
-0.450183608300532
 30
0.0
 11
6.30514223122252
 21
-0.450183608300532
 31
0.0
  0
LINE
  8
6
  6
CONTINUOUS
 62
6
 10
6.49268240973033
 20
-0.263576465518032
 30
0.0
 11
6.49268240973033
 21
-0.501076465423032
 31
0.0
  0
LINE
  8
6
  6
CONTINUOUS
 62
6
 10
6.57886098112445
 20
-0.26357646551803
 30
0.0
 11
6.49268240973033
 21
-0.263576465518032
 31
0.0
  0
ARC
  8
6
  6
CONTINUOUS
 62
6
 10
6.57771669084687
 20
-0.322951377596447
 30
0.0
 40
0.0593859375993938
 50
271.095264000543
 51
88.8959160393198
  0
LINE
  8
6
  6
CONTINUOUS
 62
6
 10
6.50047684109464
 20
-0.382326465120374
 30
0.0
 11
6.57885184109464
 21
-0.382326465120374
 31
0.0
  0
LINE
  8
6
  6
CONTINUOUS
 62
6
 10
6.63823598110069
 20
-0.501076465423032
 30
0.0
 11
6.58223554239114
 21
-0.389092865473659
 31
0.0
  0
LINE
  8
6
  6
CONTINUOUS
 62
6
 10
6.66454401029386
 20
-0.501078937475782
 30
0.0
 11
6.80382079595244
 21
-0.501078937475782
 31
0.0
  0
LINE
  8
6
  6
CONTINUOUS
 62
6
 10
6.66445918886532
 20
-0.382328937523282
 30
0.0
 11
6.66454401029386
 21
-0.501078937475782
 31
0.0
  0
LINE
  8
6
  6
CONTINUOUS
 62
6
 10
6.77328508167894
 20
-0.382328937523282
 30
0.0
 11
6.66445918886532
 21
-0.382328937523282
 31
0.0
  0
LINE
  8
6
  6
CONTINUOUS
 62
6
 10
6.66437436743679
 20
-0.263578937570782
 30
0.0
 11
6.66445410101249
 21
-0.378768443547532
 31
0.0
  0
LINE
  8
6
  6
CONTINUOUS
 62
6
 10
6.79194579595244
 20
-0.263578937570782
 30
0.0
 11
6.66437436743679
 21
-0.263578937570782
 31
0.0
  0
ARC
  8
6
  6
CONTINUOUS
 62
6
 10
7.17042446558622
 20
-0.43086784228623
 30
0.0
 40
0.0706663506591701
 50
196.004825930423
 51
267.948379947905
  0
ARC
  8
6
  6
CONTINUOUS
 62
6
 10
7.30290498395032
 20
-0.382494638466557
 30
0.0
 40
0.21158416955822
 50
161.294116943038
 51
198.705883056962
  0
ARC
  8
6
  6
CONTINUOUS
 62
6
 10
7.17042447493723
 20
-0.334279352267679
 30
0.0
 40
0.0707100633577389
 50
16.128889375895
 51
163.872176621307
  0
ARC
  8
6
  6
CONTINUOUS
 62
6
 10
7.03794402839325
 20
-0.382494638473695
 30
0.0
 40
0.211584169558198
 50
341.293755627023
 51
18.7062443729762
  0
ARC
  8
6
  6
CONTINUOUS
 62
6
 10
7.17042446558621
 20
-0.43086784228622
 30
0.0
 40
0.0706663506591774
 50
272.763973435187
 51
343.994108060196
  0
LINE
  8
6
  6
CONTINUOUS
 62
6
 10
7.29718648065357
 20
-0.382321130839457
 30
0.0
 11
7.39883648065357
 21
-0.382321130839457
 31
0.0
  0
LINE
  8
6
  6
CONTINUOUS
 62
6
 10
7.2900954092685
 20
-0.263571130886957
 30
0.0
 11
7.2900954092685
 21
-0.501071130791957
 31
0.0
  0
LINE
  8
6
  6
CONTINUOUS
 62
6
 10
7.41749719492708
 20
-0.263571130886957
 30
0.0
 11
7.2900954092685
 21
-0.263571130886957
 31
0.0
  0
LINE
  8
6
  6
CONTINUOUS
 62
6
 10
7.81508293519823
 20
-0.382031078403532
 30
0.0
 11
7.72930969492708
 21
-0.382031078403532
 31
0.0
  0
ARC
  8
6
  6
CONTINUOUS
 62
6
 10
7.81506415917303
 20
-0.441406075411032
 30
0.0
 40
0.0593749999762503
 50
270.000000002514
 51
89.9818814817913
  0
LINE
  8
6
  6
CONTINUOUS
 62
6
 10
7.72218469492708
 20
-0.500781075387282
 30
0.0
 11
7.81506415917564
 21
-0.500781075387282
 31
0.0
  0
LINE
  8
6
  6
CONTINUOUS
 62
6
 10
7.72218469492708
 20
-0.263576465518032
 30
0.0
 11
7.72218469492708
 21
-0.500781075387282
 31
0.0
  0
LINE
  8
6
  6
CONTINUOUS
 62
6
 10
7.80446148060846
 20
-0.263576465518032
 30
0.0
 11
7.72218469492708
 21
-0.263576465518032
 31
0.0
  0
ARC
  8
6
  6
CONTINUOUS
 62
6
 10
7.80398702384925
 20
-0.323189450695577
 30
0.0
 40
0.0596148732364209
 50
296.191824756094
 51
89.5439953928136
  0
ARC
  8
6
  6
CONTINUOUS
 62
6
 10
7.97791782878306
 20
-0.430867842286231
 30
0.0
 40
0.0706663506591693
 50
196.004825930422
 51
267.948379947904
  0
ARC
  8
6
  6
CONTINUOUS
 62
6
 10
8.11039834714715
 20
-0.382494638466557
 30
0.0
 40
0.21158416955822
 50
161.294116943038
 51
198.705883056962
  0
ARC
  8
6
  6
CONTINUOUS
 62
6
 10
7.97791783813407
 20
-0.33427935226768
 30
0.0
 40
0.0707100633577394
 50
16.128889375895
 51
163.872176621307
  0
ARC
  8
6
  6
CONTINUOUS
 62
6
 10
7.84543739159009
 20
-0.382494638473695
 30
0.0
 40
0.211584169558198
 50
341.293755627023
 51
18.7062443729762
  0
ARC
  8
6
  6
CONTINUOUS
 62
6
 10
7.97791782878305
 20
-0.430867842286219
 30
0.0
 40
0.0706663506591771
 50
272.763973435187
 51
343.994108060196
  0
LINE
  8
6
  6
CONTINUOUS
 62
6
 10
8.23327844480453
 20
-0.501076465423032
 30
0.0
 11
8.08568915914927
 21
-0.263576465518032
 31
0.0
  0
LINE
  8
6
  6
CONTINUOUS
 62
6
 10
8.22309987338003
 20
-0.263576465518032
 30
0.0
 11
8.07551058772477
 21
-0.501076465423032
 31
0.0
  0
LINE
  8
6
  6
CONTINUOUS
 62
6
 10
8.60283199065244
 20
-0.501076480837032
 30
0.0
 11
8.53497486372052
 21
-0.501076480837032
 31
0.0
  0
LINE
  8
6
  6
CONTINUOUS
 62
6
 10
8.56890341923744
 20
-0.270701480932032
 30
0.0
 11
8.56890341923744
 21
-0.493951480932032
 31
0.0
  0
LINE
  8
6
  6
CONTINUOUS
 62
6
 10
8.60247487338003
 20
-0.263576480932032
 30
0.0
 11
8.53497486372052
 21
-0.263576480932032
 31
0.0
  0
ARC
  8
6
  6
CONTINUOUS
 62
6
 10
8.70395129150505
 20
-0.432755903988493
 30
0.0
 40
0.0684629883654723
 50
210.521999666259
 51
269.441063338051
  0
LINE
  8
6
  6
CONTINUOUS
 62
6
 10
8.72748584802481
 20
-0.501451743661397
 30
0.0
 11
8.70328342613049
 21
-0.501215634719574
 31
0.0
  0
ARC
  8
6
  6
CONTINUOUS
 62
6
 10
8.72809554106142
 20
-0.438954947037146
 30
0.0
 40
0.062499770510713
 50
269.441063677776
 51
357.350682656729
  0
ARC
  8
6
  6
CONTINUOUS
 62
6
 10
8.73969061360964
 20
-0.446454615246642
 30
0.0
 40
0.0510465535510226
 50
5.1822724438313
 51
59.3448299999934
  0
LINE
  8
6
  6
CONTINUOUS
 62
6
 10
8.67224549935091
 20
-0.36239603670883
 30
0.0
 11
8.7657177191817
 21
-0.402541742362052
 31
0.0
  0
ARC
  8
6
  6
CONTINUOUS
 62
6
 10
8.69827262194985
 20
-0.318483186004624
 30
0.0
 40
0.0510465431518177
 50
185.182406440221
 51
239.344800865822
  0
ARC
  8
6
  6
CONTINUOUS
 62
6
 10
8.70961751484344
 20
-0.32581776395901
 30
0.0
 40
0.0622423899467805
 50
91.261343855053
 51
177.491952931064
  0
LINE
  8
6
  6
CONTINUOUS
 62
6
 10
8.73239225344145
 20
-0.263565067137974
 30
0.0
 11
8.70824738399908
 21
-0.263590456064834
 31
0.0
  0
ARC
  8
6
  6
CONTINUOUS
 62
6
 10
8.73023592451273
 20
-0.329828324050231
 30
0.0
 40
0.0662983330941934
 50
29.2717084966241
 51
88.1361471074758
  0
ARC
  8
6
  6
CONTINUOUS
 62
6
 10
9.19689805413415
 20
-0.414506324386218
 30
0.0
 40
0.0873403874650648
 50
204.38683723701
 51
324.320000000004
  0
ARC
  8
6
  6
CONTINUOUS
 62
6
 10
9.31775805800439
 20
-0.382711602008158
 30
0.0
 40
0.21158416955823
 50
161.294134617644
 51
198.705865382356
  0
ARC
  8
6
  6
CONTINUOUS
 62
6
 10
9.19689807109843
 20
-0.35091686994738
 30
0.0
 40
0.0873404044293498
 50
35.6800299999896
 51
155.613174782251
  0
LINE
  8
6
  6
CONTINUOUS
 62
6
 10
9.29159353451624
 20
-0.501076465423032
 30
0.0
 11
9.29159353451624
 21
-0.263576465518032
 31
0.0
  0
LINE
  8
6
  6
CONTINUOUS
 62
6
 10
9.43087032017481
 20
-0.501076465423032
 30
0.0
 11
9.29159353451624
 21
-0.501076465423032
 31
0.0
  0
LINE
  8
6
  6
CONTINUOUS
 62
6
 10
9.54069172315472
 20
-0.501076480837032
 30
0.0
 11
9.4728345962228
 21
-0.501076480837032
 31
0.0
  0
LINE
  8
6
  6
CONTINUOUS
 62
6
 10
9.50676315173973
 20
-0.270701480932032
 30
0.0
 11
9.50676315173973
 21
-0.493951480932032
 31
0.0
  0
LINE
  8
6
  6
CONTINUOUS
 62
6
 10
9.54033460588231
 20
-0.263576480932032
 30
0.0
 11
9.4728345962228
 21
-0.263576480932032
 31
0.0
  0
ARC
  8
6
  6
CONTINUOUS
 62
6
 10
9.65543377459603
 20
-0.414506324386218
 30
0.0
 40
0.0873403874650648
 50
204.38683723701
 51
324.320000000004
  0
ARC
  8
6
  6
CONTINUOUS
 62
6
 10
9.77629377846626
 20
-0.382711602008158
 30
0.0
 40
0.21158416955823
 50
161.294134617644
 51
198.705865382356
  0
ARC
  8
6
  6
CONTINUOUS
 62
6
 10
9.65543379156031
 20
-0.35091686994738
 30
0.0
 40
0.0873404044293498
 50
35.6800299999896
 51
155.613174782251
  0
LINE
  8
6
  6
CONTINUOUS
 62
6
 10
9.75012925497812
 20
-0.501076465423032
 30
0.0
 11
9.75012925497812
 21
-0.263576465518032
 31
0.0
  0
LINE
  8
6
  6
CONTINUOUS
 62
6
 10
9.8134320699333
 20
-0.355308942000527
 30
0.0
 11
9.88295961206784
 21
-0.501076465423032
 31
0.0
  0
LINE
  8
6
  6
CONTINUOUS
 62
6
 10
9.88295961206784
 20
-0.263576465518032
 30
0.0
 11
9.75709658030145
 21
-0.410943141651319
 31
0.0
  0
LINE
  8
6
  6
CONTINUOUS
 62
6
 10
9.99577211203222
 20
-0.263576465518032
 30
0.0
 11
9.90670961206784
 21
-0.501076465423032
 31
0.0
  0
LINE
  8
6
  6
CONTINUOUS
 62
6
 10
10.0848346119966
 20
-0.501076465423032
 30
0.0
 11
9.99577211203222
 21
-0.263576465518032
 31
0.0
  0
LINE
  8
6
  6
CONTINUOUS
 62
6
 10
10.0586247905757
 20
-0.450183608300532
 30
0.0
 11
9.93291943348878
 21
-0.450183608300532
 31
0.0
  0
LINE
  8
6
  6
CONTINUOUS
 62
6
 10
10.2074203522677
 20
-0.382031078403532
 30
0.0
 11
10.1216471119966
 21
-0.382031078403532
 31
0.0
  0
ARC
  8
6
  6
CONTINUOUS
 62
6
 10
10.2074015762425
 20
-0.441406075411032
 30
0.0
 40
0.0593749999762503
 50
270.000000002516
 51
89.9818814817925
  0
LINE
  8
6
  6
CONTINUOUS
 62
6
 10
10.1145221119966
 20
-0.500781075387282
 30
0.0
 11
10.2074015762451
 21
-0.500781075387282
 31
0.0
  0
LINE
  8
6
  6
CONTINUOUS
 62
6
 10
10.1145221119966
 20
-0.263576465518032
 30
0.0
 11
10.1145221119966
 21
-0.500781075387282
 31
0.0
  0
LINE
  8
6
  6
CONTINUOUS
 62
6
 10
10.196798897678
 20
-0.263576465518032
 30
0.0
 11
10.1145221119966
 21
-0.263576465518032
 31
0.0
  0
ARC
  8
6
  6
CONTINUOUS
 62
6
 10
10.1963244409188
 20
-0.323189450695577
 30
0.0
 40
0.0596148732364208
 50
296.191824756095
 51
89.5439953928134
  0
LINE
  8
6
  6
CONTINUOUS
 62
6
 10
10.2905265762188
 20
-0.501076465423032
 30
0.0
 11
10.2905265762188
 21
-0.263576465518032
 31
0.0
  0
LINE
  8
6
  6
CONTINUOUS
 62
6
 10
10.4298033618774
 20
-0.501076465423032
 30
0.0
 11
10.2905265762188
 21
-0.501076465423032
 31
0.0
  0
LINE
  8
6
  6
CONTINUOUS
 62
6
 10
10.461200676778
 20
-0.501078937475782
 30
0.0
 11
10.6004774624366
 21
-0.501078937475782
 31
0.0
  0
LINE
  8
6
  6
CONTINUOUS
 62
6
 10
10.4611158553495
 20
-0.382328937523282
 30
0.0
 11
10.461200676778
 21
-0.501078937475782
 31
0.0
  0
LINE
  8
6
  6
CONTINUOUS
 62
6
 10
10.5699417481631
 20
-0.382328937523282
 30
0.0
 11
10.4611158553495
 21
-0.382328937523282
 31
0.0
  0
LINE
  8
6
  6
CONTINUOUS
 62
6
 10
10.461031033921
 20
-0.263578937570782
 30
0.0
 11
10.4611107674967
 21
-0.378768443547532
 31
0.0
  0
LINE
  8
6
  6
CONTINUOUS
 62
6
 10
10.5886024624366
 20
-0.263578937570782
 30
0.0
 11
10.461031033921
 21
-0.263578937570782
 31
0.0
  0
ENDSEC
  0
EOF
