  0
SECTION
  2
HEADER
  9
$ACADVER
  1
AC1003
  9
$EXTMIN
 10
-0.984251968530137
 20
2.95275590552009
  9
$EXTMAX
 10
2.95275590551005
 20
-0.984251968500002
  9
$INSUNITS
 70
1
  9
$INSBASE
 10
0.984251968489955
 20
0.984251968510044
999
Created with OMAX LAYOUT for Windows. (www.omax.com) 1/31/2024
  0
ENDSEC
  0
SECTION
  2
TABLES
  0
TABLE
  2
LAYER
 70
    10
  0
LAYER
  2
0
 70
     0
 62
     7
  6
CONTINUOUS
  0
LAYER
  2
1
 70
     0
 62
     7
  6
CONTINUOUS
  0
LAYER
  2
2
 70
     0
 62
     7
  6
CONTINUOUS
  0
LAYER
  2
3
 70
     0
 62
     7
  6
CONTINUOUS
  0
LAYER
  2
4
 70
     0
 62
     7
  6
CONTINUOUS
  0
LAYER
  2
5
 70
     0
 62
     7
  6
CONTINUOUS
  0
LAYER
  2
6
 70
     0
 62
     7
  6
CONTINUOUS
  0
LAYER
  2
7
 70
     0
 62
     7
  6
CONTINUOUS
  0
LAYER
  2
8
 70
     0
 62
     7
  6
CONTINUOUS
  0
LAYER
  2
9
 70
     0
 62
     7
  6
CONTINUOUS
  0
LAYER
  2
10
 70
     0
 62
     7
  6
CONTINUOUS
  0
LAYER
  2
11
 70
     0
 62
     7
  6
CONTINUOUS
  0
LAYER
  2
12
 70
     0
 62
     7
  6
CONTINUOUS
  0
LAYER
  2
13
 70
     0
 62
     7
  6
CONTINUOUS
  0
LAYER
  2
14
 70
     0
 62
     7
  6
CONTINUOUS
  0
LAYER
  2
15
 70
     0
 62
     7
  6
CONTINUOUS
  0
LAYER
  2
16
 70
     0
 62
     7
  6
CONTINUOUS
  0
LAYER
  2
17
 70
     0
 62
     7
  6
CONTINUOUS
  0
LAYER
  2
18
 70
     0
 62
     7
  6
CONTINUOUS
  0
LAYER
  2
19
 70
     0
 62
     7
  6
CONTINUOUS
  0
LAYER
  2
20
 70
     0
 62
     7
  6
CONTINUOUS
  0
LAYER
  2
21
 70
     0
 62
     7
  6
CONTINUOUS
  0
LAYER
  2
22
 70
     0
 62
     7
  6
CONTINUOUS
  0
LAYER
  2
23
 70
     0
 62
     7
  6
CONTINUOUS
  0
LAYER
  2
24
 70
     0
 62
     7
  6
CONTINUOUS
  0
LAYER
  2
25
 70
     0
 62
     7
  6
CONTINUOUS
  0
LAYER
  2
26
 70
     0
 62
     7
  6
CONTINUOUS
  0
LAYER
  2
27
 70
     0
 62
     7
  6
CONTINUOUS
  0
LAYER
  2
28
 70
     0
 62
     7
  6
CONTINUOUS
  0
LAYER
  2
29
 70
     0
 62
     7
  6
CONTINUOUS
  0
LAYER
  2
30
 70
     0
 62
     7
  6
CONTINUOUS
  0
LAYER
  2
31
 70
     0
 62
     7
  6
CONTINUOUS
  0
ENDTAB
  0
ENDSEC
  0
SECTION
  2
ENTITIES
  0
ARC
  8
0
  6
CONTINUOUS
 62
0
 10
0
 20
5.91430628432772E-15
 30
0.0
 40
0.590551181
 50
359.999999999999
 51
180
  0
ARC
  8
0
  6
CONTINUOUS
 62
0
 10
0
 20
-5.84198462297328E-15
 30
0.0
 40
0.590551181
 50
179.999999999999
 51
359.999999999999
  0
LINE
  8
0
  6
CONTINUOUS
 62
0
 10
-0.9842519685
 20
-0.984251968500002
 30
0.0
 11
0.9842519685
 21
-0.984251968500002
 31
0.0
  0
LINE
  8
0
  6
CONTINUOUS
 62
0
 10
-0.9842519685
 20
0.984251968499998
 30
0.0
 11
0.9842519685
 21
0.984251968499998
 31
0.0
  0
LINE
  8
0
  6
CONTINUOUS
 62
0
 10
-0.9842519685
 20
-0.984251968500002
 30
0.0
 11
-0.9842519685
 21
0.984251968499998
 31
0.0
  0
LINE
  8
0
  6
CONTINUOUS
 62
0
 10
0.9842519685
 20
-0.984251968500002
 30
0.0
 11
0.9842519685
 21
0.984251968499998
 31
0.0
  0
LINE
  8
0
  6
CONTINUOUS
 62
0
 10
-0.9842519685
 20
0.984251968499998
 30
0.0
 11
0
 21
-2.17038092012492E-15
 31
0.0
  0
LINE
  8
0
  6
CONTINUOUS
 62
0
 10
0.9842519685
 20
-0.984251968500002
 30
0.0
 11
0
 21
5.91430628432772E-15
 31
0.0
  0
LINE
  8
0
  6
CONTINUOUS
 62
0
 10
0.9842519685
 20
0.984251968499998
 30
0.0
 11
0
 21
-2.17038092012492E-15
 31
0.0
  0
LINE
  8
0
  6
CONTINUOUS
 62
0
 10
-0.9842519685
 20
-0.984251968500002
 30
0.0
 11
0
 21
5.91430628432772E-15
 31
0.0
  0
LINE
  8
0
  6
CONTINUOUS
 62
0
 10
2.95275590551005
 20
-0.984251968489957
 30
0.0
 11
2.9527559055
 21
0.984251968510044
 31
0.0
  0
LINE
  8
0
  6
CONTINUOUS
 62
0
 10
0.984251968510046
 20
-0.984251968500002
 30
0.0
 11
0.9842519685
 21
0.984251968499998
 31
0.0
  0
LINE
  8
0
  6
CONTINUOUS
 62
0
 10
2.95275590551005
 20
-0.984251968489957
 30
0.0
 11
0.984251968510046
 21
-0.984251968500002
 31
0.0
  0
LINE
  8
0
  6
CONTINUOUS
 62
0
 10
2.9527559055
 20
0.984251968510044
 30
0.0
 11
0.9842519685
 21
0.984251968499998
 31
0.0
  0
LINE
  8
0
  6
CONTINUOUS
 62
0
 10
0.984251968510046
 20
-0.984251968500002
 30
0.0
 11
1.96850393700502
 21
5.02065056195988E-12
 31
0.0
  0
LINE
  8
0
  6
CONTINUOUS
 62
0
 10
2.9527559055
 20
0.984251968510044
 30
0.0
 11
1.96850393700502
 21
5.02065056195988E-12
 31
0.0
  0
LINE
  8
0
  6
CONTINUOUS
 62
0
 10
0.9842519685
 20
0.984251968499998
 30
0.0
 11
1.96850393700502
 21
5.02065056195988E-12
 31
0.0
  0
LINE
  8
0
  6
CONTINUOUS
 62
0
 10
2.95275590551005
 20
-0.984251968489957
 30
0.0
 11
1.96850393700502
 21
5.02065056195988E-12
 31
0.0
  0
LINE
  8
0
  6
CONTINUOUS
 62
0
 10
2.95275590547991
 20
2.95275590552009
 30
0.0
 11
0.984251968479909
 21
2.9527559055
 31
0.0
  0
LINE
  8
0
  6
CONTINUOUS
 62
0
 10
2.9527559055
 20
0.984251968520089
 30
0.0
 11
0.9842519685
 21
0.984251968499998
 31
0.0
  0
LINE
  8
0
  6
CONTINUOUS
 62
0
 10
2.95275590547991
 20
2.95275590552009
 30
0.0
 11
2.9527559055
 21
0.984251968520089
 31
0.0
  0
LINE
  8
0
  6
CONTINUOUS
 62
0
 10
0.984251968479909
 20
2.9527559055
 30
0.0
 11
0.9842519685
 21
0.984251968499998
 31
0.0
  0
LINE
  8
0
  6
CONTINUOUS
 62
0
 10
2.9527559055
 20
0.984251968520089
 30
0.0
 11
1.96850393698995
 21
1.96850393701004
 31
0.0
  0
LINE
  8
0
  6
CONTINUOUS
 62
0
 10
0.984251968479909
 20
2.9527559055
 30
0.0
 11
1.96850393698995
 21
1.96850393701004
 31
0.0
  0
LINE
  8
0
  6
CONTINUOUS
 62
0
 10
0.9842519685
 20
0.984251968499998
 30
0.0
 11
1.96850393698995
 21
1.96850393701004
 31
0.0
  0
LINE
  8
0
  6
CONTINUOUS
 62
0
 10
2.95275590547991
 20
2.95275590552009
 30
0.0
 11
1.96850393698995
 21
1.96850393701004
 31
0.0
  0
LINE
  8
0
  6
CONTINUOUS
 62
0
 10
-0.984251968530137
 20
2.95275590546986
 30
0.0
 11
-0.9842519685
 21
0.984251968469861
 31
0.0
  0
LINE
  8
0
  6
CONTINUOUS
 62
0
 10
0.984251968469864
 20
2.9527559055
 30
0.0
 11
0.9842519685
 21
0.984251968499998
 31
0.0
  0
LINE
  8
0
  6
CONTINUOUS
 62
0
 10
-0.984251968530137
 20
2.95275590546986
 30
0.0
 11
0.984251968469864
 21
2.9527559055
 31
0.0
  0
LINE
  8
0
  6
CONTINUOUS
 62
0
 10
-0.9842519685
 20
0.984251968469861
 30
0.0
 11
0.9842519685
 21
0.984251968499998
 31
0.0
  0
LINE
  8
0
  6
CONTINUOUS
 62
0
 10
0.984251968469864
 20
2.9527559055
 30
0.0
 11
-1.506827995712E-11
 21
1.96850393698493
 31
0.0
  0
LINE
  8
0
  6
CONTINUOUS
 62
0
 10
-0.9842519685
 20
0.984251968469861
 30
0.0
 11
-1.50601753290402E-11
 21
1.96850393698493
 31
0.0
  0
LINE
  8
0
  6
CONTINUOUS
 62
0
 10
0.9842519685
 20
0.984251968499998
 30
0.0
 11
-1.506827995712E-11
 21
1.96850393698493
 31
0.0
  0
LINE
  8
0
  6
CONTINUOUS
 62
0
 10
-0.984251968530137
 20
2.95275590546986
 30
0.0
 11
-1.50601753290402E-11
 21
1.96850393698493
 31
0.0
  0
ARC
  8
0
  6
CONTINUOUS
 62
0
 10
1.96850393700502
 20
5.02873524916433E-12
 30
0.0
 40
0.590551181
 50
359.999999999999
 51
180
  0
ARC
  8
0
  6
CONTINUOUS
 62
0
 10
1.96850393700502
 20
5.01697895825703E-12
 30
0.0
 40
0.590551181
 50
179.999999999999
 51
359.999999999999
  0
ARC
  8
0
  6
CONTINUOUS
 62
0
 10
0
 20
1.968503937
 30
0.0
 40
0.590551181
 50
180
 51
1.52666624710249E-13
  0
ARC
  8
0
  6
CONTINUOUS
 62
0
 10
0
 20
1.96850393699999
 30
0.0
 40
0.590551181
 50
359.999999999999
 51
180
  0
ARC
  8
0
  6
CONTINUOUS
 62
0
 10
1.96850393700502
 20
1.96850393699498
 30
0.0
 40
0.590551181
 50
180
 51
1.52666624710249E-13
  0
ARC
  8
0
  6
CONTINUOUS
 62
0
 10
1.96850393700502
 20
1.96850393699497
 30
0.0
 40
0.590551181
 50
359.999999999999
 51
180
  0
ENDSEC
  0
EOF
