  0
SECTION
  2
HEADER
  9
$ACADVER
  1
AC1003
  9
$EXTMIN
 10
-1.17125915283011
 20
0.590551180999995
  9
$EXTMAX
 10
5.59055117899879
 20
-0.590551181000014
  9
$INSUNITS
 70
1
  9
$INSBASE
 10
2.20964601308434
 20
-9.6034291630076E-15
999
Created with OMAX LAYOUT for Windows. (www.omax.com) 2/5/2024
  0
ENDSEC
  0
SECTION
  2
TABLES
  0
TABLE
  2
LAYER
 70
    10
  0
LAYER
  2
0
 70
     0
 62
     7
  6
CONTINUOUS
  0
LAYER
  2
1
 70
     0
 62
     7
  6
CONTINUOUS
  0
LAYER
  2
2
 70
     0
 62
     7
  6
CONTINUOUS
  0
LAYER
  2
3
 70
     0
 62
     7
  6
CONTINUOUS
  0
LAYER
  2
4
 70
     0
 62
     7
  6
CONTINUOUS
  0
LAYER
  2
5
 70
     0
 62
     7
  6
CONTINUOUS
  0
LAYER
  2
6
 70
     0
 62
     7
  6
CONTINUOUS
  0
LAYER
  2
7
 70
     0
 62
     7
  6
CONTINUOUS
  0
LAYER
  2
8
 70
     0
 62
     7
  6
CONTINUOUS
  0
LAYER
  2
9
 70
     0
 62
     7
  6
CONTINUOUS
  0
LAYER
  2
10
 70
     0
 62
     7
  6
CONTINUOUS
  0
LAYER
  2
11
 70
     0
 62
     7
  6
CONTINUOUS
  0
LAYER
  2
12
 70
     0
 62
     7
  6
CONTINUOUS
  0
LAYER
  2
13
 70
     0
 62
     7
  6
CONTINUOUS
  0
LAYER
  2
14
 70
     0
 62
     7
  6
CONTINUOUS
  0
LAYER
  2
15
 70
     0
 62
     7
  6
CONTINUOUS
  0
LAYER
  2
16
 70
     0
 62
     7
  6
CONTINUOUS
  0
LAYER
  2
17
 70
     0
 62
     7
  6
CONTINUOUS
  0
LAYER
  2
18
 70
     0
 62
     7
  6
CONTINUOUS
  0
LAYER
  2
19
 70
     0
 62
     7
  6
CONTINUOUS
  0
LAYER
  2
20
 70
     0
 62
     7
  6
CONTINUOUS
  0
LAYER
  2
21
 70
     0
 62
     7
  6
CONTINUOUS
  0
LAYER
  2
22
 70
     0
 62
     7
  6
CONTINUOUS
  0
LAYER
  2
23
 70
     0
 62
     7
  6
CONTINUOUS
  0
LAYER
  2
24
 70
     0
 62
     7
  6
CONTINUOUS
  0
LAYER
  2
25
 70
     0
 62
     7
  6
CONTINUOUS
  0
LAYER
  2
26
 70
     0
 62
     7
  6
CONTINUOUS
  0
LAYER
  2
27
 70
     0
 62
     7
  6
CONTINUOUS
  0
LAYER
  2
28
 70
     0
 62
     7
  6
CONTINUOUS
  0
LAYER
  2
29
 70
     0
 62
     7
  6
CONTINUOUS
  0
LAYER
  2
30
 70
     0
 62
     7
  6
CONTINUOUS
  0
LAYER
  2
31
 70
     0
 62
     7
  6
CONTINUOUS
  0
ENDTAB
  0
ENDSEC
  0
SECTION
  2
ENTITIES
  0
LINE
  8
0
  6
CONTINUOUS
 62
0
 10
1.46939698308297E-15
 20
0.433070865999994
 30
0.0
 11
-7.87928885840832E-17
 21
0.0787401579999996
 31
0.0
  0
ARC
  8
0
  6
CONTINUOUS
 62
0
 10
-0.590551180999999
 20
-1.765254609154E-14
 30
0.0
 40
0.590551181
 50
190.475681769775
 51
352.819244172704
  0
ARC
  8
0
  6
CONTINUOUS
 62
0
 10
-1.01377883783011
 20
-0.107372942743799
 30
0.0
 40
0.157480315
 50
10.4756817697764
 51
179.999999999999
  0
LINE
  8
0
  6
CONTINUOUS
 62
0
 10
-0.314960628999999
 20
0.236220471999993
 30
0.0
 11
-0.314960629
 21
-3.85715526162287E-17
 31
0.0
  0
LINE
  8
0
  6
CONTINUOUS
 62
0
 10
0.354330708
 20
-0.590551181000006
 30
0.0
 11
0.905511811000002
 21
-0.590551181000007
 31
0.0
  0
LINE
  8
0
  6
CONTINUOUS
 62
0
 10
0.905511811
 20
-0.354330709000007
 30
0.0
 11
0.590551179998794
 21
-0.354330709000007
 31
0.0
  0
ARC
  8
0
  6
CONTINUOUS
 62
0
 10
0.354330708
 20
-0.47244094500001
 30
0.0
 40
0.118110236
 50
179.999999999998
 51
269.999999999999
  0
ARC
  8
0
  6
CONTINUOUS
 62
0
 10
0.905511811000002
 20
-0.472440945000007
 30
0.0
 40
0.118110236000001
 50
269.999999999999
 51
89.9999999999996
  0
LINE
  8
0
  6
CONTINUOUS
 62
0
 10
0.905511811000002
 20
-0.118110236000007
 30
0.0
 11
0.590551179998794
 21
-0.118110236000007
 31
0.0
  0
ARC
  8
0
  6
CONTINUOUS
 62
0
 10
0.905511811000003
 20
-5.98132654516803E-15
 30
0.0
 40
0.118110236000001
 50
269.999999999999
 51
329.999999789946
  0
LINE
  8
0
  6
CONTINUOUS
 62
0
 10
0.236220472
 20
-0.0787401579999999
 30
0.0
 11
0.236220472
 21
-0.472440945000006
 31
0.0
  0
ARC
  8
0
  6
CONTINUOUS
 62
0
 10
0.590551179998796
 20
-0.236220472500007
 30
0.0
 40
0.1181102365
 50
90
 51
270
  0
LINE
  8
0
  6
CONTINUOUS
 62
0
 10
0.905511811000002
 20
0.590551180999993
 30
0.0
 11
0.354330708
 21
0.590551180999993
 31
0.0
  0
LINE
  8
0
  6
CONTINUOUS
 62
0
 10
0.905511811
 20
0.354330708999993
 30
0.0
 11
0.590551179998794
 21
0.354330708999993
 31
0.0
  0
ARC
  8
0
  6
CONTINUOUS
 62
0
 10
0.354330708
 20
0.472440944999993
 30
0.0
 40
0.118110236
 50
89.9999999999988
 51
180
  0
ARC
  8
0
  6
CONTINUOUS
 62
0
 10
0.905511811000002
 20
0.472440944999994
 30
0.0
 40
0.118110236000001
 50
270
 51
90
  0
LINE
  8
0
  6
CONTINUOUS
 62
0
 10
0.905511811000002
 20
0.118110235999993
 30
0.0
 11
0.590551179998794
 21
0.118110235999993
 31
0.0
  0
LINE
  8
0
  6
CONTINUOUS
 62
0
 10
0.236220472
 20
0.0787401579999996
 30
0.0
 11
0.236220472
 21
0.472440944999993
 31
0.0
  0
ARC
  8
0
  6
CONTINUOUS
 62
0
 10
0.590551179998796
 20
0.236220472499992
 30
0.0
 40
0.1181102365
 50
90
 51
270
  0
ARC
  8
0
  6
CONTINUOUS
 62
0
 10
1.3779527549994
 20
-0.472440945000008
 30
0.0
 40
0.1181102359994
 50
179.999999999999
 51
359.999999999999
  0
ARC
  8
0
  6
CONTINUOUS
 62
0
 10
1.377952755
 20
0.472440944999993
 30
0.0
 40
0.118110236
 50
89.9999999999988
 51
180
  0
LINE
  8
0
  6
CONTINUOUS
 62
0
 10
1.259842519
 20
-0.0787401580000002
 30
0.0
 11
1.259842519
 21
-0.472440945000006
 31
0.0
  0
ARC
  8
0
  6
CONTINUOUS
 62
0
 10
1.6141732269988
 20
0.236220472499992
 30
0.0
 40
0.1181102365
 50
90
 51
270
  0
ARC
  8
0
  6
CONTINUOUS
 62
0
 10
1.9291338580006
 20
-0.472440945000007
 30
0.0
 40
0.118110235999395
 50
180
 51
0
  0
LINE
  8
0
  6
CONTINUOUS
 62
0
 10
1.377952755
 20
0.590551180999993
 30
0.0
 11
1.929133858
 21
0.590551180999993
 31
0.0
  0
ARC
  8
0
  6
CONTINUOUS
 62
0
 10
1.929133858
 20
0.472440944999994
 30
0.0
 40
0.118110236
 50
359.999999999998
 51
90.0000000000005
  0
LINE
  8
0
  6
CONTINUOUS
 62
0
 10
2.047244094
 20
-0.0787401580000016
 30
0.0
 11
2.047244094
 21
-0.472440945000006
 31
0.0
  0
ARC
  8
0
  6
CONTINUOUS
 62
0
 10
1.69291338600121
 20
0.236220472499994
 30
0.0
 40
0.1181102365
 50
270
 51
90
  0
LINE
  8
0
  6
CONTINUOUS
 62
0
 10
1.69291338600121
 20
0.354330708999993
 30
0.0
 11
1.6141732269988
 21
0.354330708999993
 31
0.0
  0
LINE
  8
0
  6
CONTINUOUS
 62
0
 10
1.69291338600121
 20
0.118110235999993
 30
0.0
 11
1.6141732269988
 21
0.118110235999993
 31
0.0
  0
ARC
  8
0
  6
CONTINUOUS
 62
0
 10
1.6141732269988
 20
-0.236220472000006
 30
0.0
 40
0.118110235999999
 50
89.9999999999992
 51
180.000000242698
  0
ARC
  8
0
  6
CONTINUOUS
 62
0
 10
1.69291338600121
 20
-0.236220472000004
 30
0.0
 40
0.118110235999999
 50
359.999999757301
 51
90
  0
LINE
  8
0
  6
CONTINUOUS
 62
0
 10
1.69291338600121
 20
-0.118110236000006
 30
0.0
 11
1.6141732269988
 21
-0.118110236000006
 31
0.0
  0
LINE
  8
0
  6
CONTINUOUS
 62
0
 10
1.81102362200121
 20
-0.472440945000006
 30
0.0
 11
1.81102362200121
 21
-0.236220473000006
 31
0.0
  0
LINE
  8
0
  6
CONTINUOUS
 62
0
 10
1.4960629909988
 20
-0.472440945000008
 30
0.0
 11
1.4960629909988
 21
-0.236220472500307
 31
0.0
  0
ARC
  8
0
  6
CONTINUOUS
 62
0
 10
2.4015748019994
 20
-0.472440945000008
 30
0.0
 40
0.1181102359994
 50
179.999999999999
 51
359.999999999999
  0
ARC
  8
0
  6
CONTINUOUS
 62
0
 10
2.401574802
 20
0.472440944999993
 30
0.0
 40
0.118110236
 50
89.9999999999988
 51
180
  0
LINE
  8
0
  6
CONTINUOUS
 62
0
 10
2.283464566
 20
-0.0787401580000024
 30
0.0
 11
2.283464566
 21
-0.472440945000006
 31
0.0
  0
ARC
  8
0
  6
CONTINUOUS
 62
0
 10
2.6377952739988
 20
0.236220472999993
 30
0.0
 40
0.118110236
 50
89.9999999999986
 51
180
  0
ARC
  8
0
  6
CONTINUOUS
 62
0
 10
2.9527559050006
 20
-0.472440945000007
 30
0.0
 40
0.118110235999395
 50
180
 51
0
  0
LINE
  8
0
  6
CONTINUOUS
 62
0
 10
2.401574802
 20
0.590551180999993
 30
0.0
 11
2.952755905
 21
0.590551180999993
 31
0.0
  0
ARC
  8
0
  6
CONTINUOUS
 62
0
 10
2.952755905
 20
0.472440944999994
 30
0.0
 40
0.118110236
 50
359.999999999998
 51
90.0000000000004
  0
LINE
  8
0
  6
CONTINUOUS
 62
0
 10
3.070866141
 20
-0.0787401580000027
 30
0.0
 11
3.070866141
 21
-0.472440945000006
 31
0.0
  0
ARC
  8
0
  6
CONTINUOUS
 62
0
 10
2.71653543300121
 20
0.236220472999996
 30
0.0
 40
0.118110236
 50
359.999999999998
 51
90.0000000000006
  0
LINE
  8
0
  6
CONTINUOUS
 62
0
 10
2.71653543300121
 20
0.354330708999993
 30
0.0
 11
2.6377952739988
 21
0.354330708999993
 31
0.0
  0
LINE
  8
0
  6
CONTINUOUS
 62
0
 10
2.5196850379988
 20
0.236220472999993
 30
0.0
 11
2.5196850379988
 21
-0.472440945000008
 31
0.0
  0
LINE
  8
0
  6
CONTINUOUS
 62
0
 10
2.83464566900121
 20
0.236220472999993
 30
0.0
 11
2.83464566900121
 21
-0.472440945000006
 31
0.0
  0
ARC
  8
0
  6
CONTINUOUS
 62
0
 10
3.4251968489994
 20
-0.472440945000008
 30
0.0
 40
0.1181102359994
 50
179.999999999999
 51
359.999999999999
  0
ARC
  8
0
  6
CONTINUOUS
 62
0
 10
3.425196849
 20
0.472440944999993
 30
0.0
 40
0.118110236
 50
89.9999999999988
 51
180
  0
LINE
  8
0
  6
CONTINUOUS
 62
0
 10
3.307086613
 20
-0.0787401580000023
 30
0.0
 11
3.307086613
 21
-0.472440945000006
 31
0.0
  0
ARC
  8
0
  6
CONTINUOUS
 62
0
 10
3.6614173209988
 20
0.236220472999993
 30
0.0
 40
0.118110236
 50
89.9999999999986
 51
180
  0
ARC
  8
0
  6
CONTINUOUS
 62
0
 10
3.9763779520006
 20
-0.472440945000007
 30
0.0
 40
0.118110235999395
 50
180
 51
0
  0
LINE
  8
0
  6
CONTINUOUS
 62
0
 10
3.425196849
 20
0.590551180999993
 30
0.0
 11
3.976377952
 21
0.590551180999993
 31
0.0
  0
ARC
  8
0
  6
CONTINUOUS
 62
0
 10
3.976377952
 20
0.472440944999994
 30
0.0
 40
0.118110236
 50
359.999999999998
 51
90.0000000000004
  0
LINE
  8
0
  6
CONTINUOUS
 62
0
 10
4.094488188
 20
-0.0787401580000054
 30
0.0
 11
4.094488188
 21
-0.472440945000006
 31
0.0
  0
ARC
  8
0
  6
CONTINUOUS
 62
0
 10
3.74015748000121
 20
0.236220472999996
 30
0.0
 40
0.118110236
 50
359.999999999998
 51
90.0000000000006
  0
LINE
  8
0
  6
CONTINUOUS
 62
0
 10
3.74015748000121
 20
0.354330708999993
 30
0.0
 11
3.6614173209988
 21
0.354330708999993
 31
0.0
  0
LINE
  8
0
  6
CONTINUOUS
 62
0
 10
3.5433070849988
 20
0.236220472999993
 30
0.0
 11
3.5433070849988
 21
-0.472440945000008
 31
0.0
  0
LINE
  8
0
  6
CONTINUOUS
 62
0
 10
3.85826771600121
 20
0.236220472999993
 30
0.0
 11
3.85826771600121
 21
-0.472440945000006
 31
0.0
  0
ARC
  8
0
  6
CONTINUOUS
 62
0
 10
4.44881889599879
 20
-0.472440945000006
 30
0.0
 40
0.118110236
 50
179.999999999999
 51
359.999999999999
  0
ARC
  8
0
  6
CONTINUOUS
 62
0
 10
4.44881889599879
 20
0.472440944999992
 30
0.0
 40
0.118110236
 50
359.999999999999
 51
180
  0
LINE
  8
0
  6
CONTINUOUS
 62
0
 10
4.56692913199879
 20
-0.0787401580000063
 30
0.0
 11
4.56692913199879
 21
-0.472440945000006
 31
0.0
  0
LINE
  8
0
  6
CONTINUOUS
 62
0
 10
4.33070865999879
 20
-0.0787401580000051
 30
0.0
 11
4.33070865999879
 21
-0.472440945000006
 31
0.0
  0
LINE
  8
0
  6
CONTINUOUS
 62
0
 10
4.92125983999879
 20
-0.590551181000005
 30
0.0
 11
5.47244094299879
 21
-0.590551181000006
 31
0.0
  0
LINE
  8
0
  6
CONTINUOUS
 62
0
 10
5.47244094299879
 20
-0.354330709000006
 30
0.0
 11
5.15748031199758
 21
-0.354330709000006
 31
0.0
  0
ARC
  8
0
  6
CONTINUOUS
 62
0
 10
4.92125983999879
 20
-0.47244094500001
 30
0.0
 40
0.118110236
 50
179.999999999998
 51
269.999999999999
  0
ARC
  8
0
  6
CONTINUOUS
 62
0
 10
5.47244094299879
 20
-0.472440945000006
 30
0.0
 40
0.118110236000001
 50
269.999999999999
 51
89.9999999999996
  0
LINE
  8
0
  6
CONTINUOUS
 62
0
 10
5.47244094299879
 20
-0.118110236000006
 30
0.0
 11
5.15748031199758
 21
-0.118110236000006
 31
0.0
  0
ARC
  8
0
  6
CONTINUOUS
 62
0
 10
5.47244094299879
 20
-5.73152636462737E-15
 30
0.0
 40
0.118110236000001
 50
270
 51
90
  0
LINE
  8
0
  6
CONTINUOUS
 62
0
 10
4.80314960399879
 20
-0.078740158000006
 30
0.0
 11
4.80314960399879
 21
-0.472440945000005
 31
0.0
  0
ARC
  8
0
  6
CONTINUOUS
 62
0
 10
5.15748031199759
 20
-0.236220472500007
 30
0.0
 40
0.1181102365
 50
90
 51
270
  0
LINE
  8
0
  6
CONTINUOUS
 62
0
 10
5.47244094299879
 20
0.590551180999994
 30
0.0
 11
4.92125983999879
 21
0.590551180999994
 31
0.0
  0
LINE
  8
0
  6
CONTINUOUS
 62
0
 10
5.47244094299879
 20
0.354330708999994
 30
0.0
 11
5.15748031199758
 21
0.354330708999994
 31
0.0
  0
ARC
  8
0
  6
CONTINUOUS
 62
0
 10
4.92125983999879
 20
0.472440944999994
 30
0.0
 40
0.118110236
 50
89.999999999999
 51
180
  0
ARC
  8
0
  6
CONTINUOUS
 62
0
 10
5.47244094299879
 20
0.472440944999994
 30
0.0
 40
0.118110236000001
 50
270
 51
90
  0
LINE
  8
0
  6
CONTINUOUS
 62
0
 10
5.47244094299879
 20
0.118110235999994
 30
0.0
 11
5.15748031199758
 21
0.118110235999994
 31
0.0
  0
LINE
  8
0
  6
CONTINUOUS
 62
0
 10
4.80314960399879
 20
0.0787401579999941
 30
0.0
 11
4.80314960399879
 21
0.472440944999994
 31
0.0
  0
ARC
  8
0
  6
CONTINUOUS
 62
0
 10
5.15748031199759
 20
0.236220472499993
 30
0.0
 40
0.1181102365
 50
90
 51
270
  0
LINE
  8
0
  6
CONTINUOUS
 62
0
 10
-0.118110235999999
 20
0.590551180999993
 30
0.0
 11
-0.196850392999999
 21
0.590551180999993
 31
0.0
  0
LINE
  8
0
  6
CONTINUOUS
 62
0
 10
0.196850393
 20
0.0393700789999997
 30
0.0
 11
0.0393700789999996
 21
0.0393700789999997
 31
0.0
  0
LINE
  8
0
  6
CONTINUOUS
 62
0
 10
0.196850393
 20
-0.039370079
 30
0.0
 11
0.0344294437541794
 21
-0.039370079
 31
0.0
  0
ARC
  8
0
  6
CONTINUOUS
 62
0
 10
0.0393700789999999
 20
0.0787401579999993
 30
0.0
 40
0.039370079
 50
180
 51
269.999999999999
  0
ARC
  8
0
  6
CONTINUOUS
 62
0
 10
0.0344294437541793
 20
-0.078740158
 30
0.0
 40
0.039370079
 50
89.9999999999998
 51
172.819244172705
  0
ARC
  8
0
  6
CONTINUOUS
 62
0
 10
0.905511811
 20
-6.02295990859147E-15
 30
0.0
 40
0.118110236000001
 50
30.0000002100585
 51
89.9999999999993
  0
LINE
  8
0
  6
CONTINUOUS
 62
0
 10
1.22047244
 20
0.0393700789999994
 30
0.0
 11
1.0418937640973
 21
0.0393700789999997
 31
0.0
  0
LINE
  8
0
  6
CONTINUOUS
 62
0
 10
1.259842519
 20
0.0787401579999996
 30
0.0
 11
1.259842519
 21
0.472440944999993
 31
0.0
  0
LINE
  8
0
  6
CONTINUOUS
 62
0
 10
2.047244094
 20
0.0787401579999977
 30
0.0
 11
2.047244094
 21
0.472440944999993
 31
0.0
  0
LINE
  8
0
  6
CONTINUOUS
 62
0
 10
2.244094487
 20
0.0393700789999977
 30
0.0
 11
2.086614173
 21
0.0393700789999978
 31
0.0
  0
LINE
  8
0
  6
CONTINUOUS
 62
0
 10
2.283464566
 20
0.0787401579999979
 30
0.0
 11
2.283464566
 21
0.472440944999993
 31
0.0
  0
LINE
  8
0
  6
CONTINUOUS
 62
0
 10
3.070866141
 20
0.0787401579999973
 30
0.0
 11
3.070866141
 21
0.472440944999993
 31
0.0
  0
LINE
  8
0
  6
CONTINUOUS
 62
0
 10
3.307086613
 20
0.0787401579999979
 30
0.0
 11
3.307086613
 21
0.472440944999993
 31
0.0
  0
LINE
  8
0
  6
CONTINUOUS
 62
0
 10
4.094488188
 20
0.0787401579999945
 30
0.0
 11
4.094488188
 21
0.472440944999993
 31
0.0
  0
LINE
  8
0
  6
CONTINUOUS
 62
0
 10
4.29133858099879
 20
0.0393700789999946
 30
0.0
 11
4.133858267
 21
0.0393700789999946
 31
0.0
  0
LINE
  8
0
  6
CONTINUOUS
 62
0
 10
4.56692913199879
 20
0.314960629999991
 30
0.0
 11
4.56692913199879
 21
0.0787401579999941
 31
0.0
  0
LINE
  8
0
  6
CONTINUOUS
 62
0
 10
4.76377952499879
 20
0.0393700789999939
 30
0.0
 11
4.60629921099879
 21
0.039370078999994
 31
0.0
  0
LINE
  8
0
  6
CONTINUOUS
 62
0
 10
4.33070865999879
 20
0.314960629999992
 30
0.0
 11
4.33070865999879
 21
0.0787401579999948
 31
0.0
  0
LINE
  8
0
  6
CONTINUOUS
 62
0
 10
1.22047244
 20
-0.0393700790000003
 30
0.0
 11
1.04189376409731
 21
-0.039370079
 31
0.0
  0
LINE
  8
0
  6
CONTINUOUS
 62
0
 10
2.244094487
 20
-0.0393700790000021
 30
0.0
 11
2.086614173
 21
-0.039370079000002
 31
0.0
  0
LINE
  8
0
  6
CONTINUOUS
 62
0
 10
4.29133858099879
 20
-0.0393700790000053
 30
0.0
 11
4.133858267
 21
-0.0393700790000053
 31
0.0
  0
LINE
  8
0
  6
CONTINUOUS
 62
0
 10
4.60629921099879
 20
-0.0393700790000061
 30
0.0
 11
4.76377952499879
 21
-0.0393700790000061
 31
0.0
  0
ARC
  8
0
  6
CONTINUOUS
 62
0
 10
0.196850393
 20
-0.0787401579999999
 30
0.0
 40
0.039370079
 50
0
 51
89.9999999999998
  0
ARC
  8
0
  6
CONTINUOUS
 62
0
 10
0.196850393
 20
0.0787401579999999
 30
0.0
 40
0.039370079
 50
270
 51
360
  0
ARC
  8
0
  6
CONTINUOUS
 62
0
 10
1.0418937640973
 20
0.0787401579999994
 30
0.0
 40
0.039370079
 50
210.000000210058
 51
269.999999999999
  0
ARC
  8
0
  6
CONTINUOUS
 62
0
 10
1.04189376409731
 20
-0.0787401580000004
 30
0.0
 40
0.039370079
 50
90.0000000000002
 51
149.999999789946
  0
ARC
  8
0
  6
CONTINUOUS
 62
0
 10
1.22047244
 20
0.0787401579999995
 30
0.0
 40
0.039370079
 50
270
 51
4.0711099922733E-13
  0
ARC
  8
0
  6
CONTINUOUS
 62
0
 10
1.22047244
 20
-0.0787401580000002
 30
0.0
 40
0.039370079
 50
5.08888749034163E-14
 51
89.9999999999997
  0
ARC
  8
0
  6
CONTINUOUS
 62
0
 10
2.086614173
 20
0.0787401579999976
 30
0.0
 40
0.0393700789999998
 50
180
 51
269.999999999999
  0
ARC
  8
0
  6
CONTINUOUS
 62
0
 10
2.086614173
 20
-0.0787401580000019
 30
0.0
 40
0.0393700789999999
 50
89.9999999999994
 51
179.999999999999
  0
ARC
  8
0
  6
CONTINUOUS
 62
0
 10
2.244094487
 20
0.078740157999998
 30
0.0
 40
0.0393700790000001
 50
270
 51
2.03555499613665E-13
  0
ARC
  8
0
  6
CONTINUOUS
 62
0
 10
2.244094487
 20
-0.0787401580000016
 30
0.0
 40
0.0393700789999999
 50
359.999999999999
 51
89.9999999999996
  0
ARC
  8
0
  6
CONTINUOUS
 62
0
 10
4.133858267
 20
0.0787401579999944
 30
0.0
 40
0.0393700789999998
 50
180
 51
269.999999999999
  0
ARC
  8
0
  6
CONTINUOUS
 62
0
 10
4.29133858099879
 20
0.0787401579999949
 30
0.0
 40
0.0393700790000001
 50
270
 51
2.03555499613665E-13
  0
ARC
  8
0
  6
CONTINUOUS
 62
0
 10
4.133858267
 20
-0.0787401580000052
 30
0.0
 40
0.0393700789999999
 50
89.9999999999994
 51
180
  0
ARC
  8
0
  6
CONTINUOUS
 62
0
 10
4.29133858099879
 20
-0.0787401580000052
 30
0.0
 40
0.0393700790000001
 50
1.52666624710249E-13
 51
89.9999999999999
  0
ARC
  8
0
  6
CONTINUOUS
 62
0
 10
4.60629921099879
 20
0.0787401579999942
 30
0.0
 40
0.0393700790000003
 50
180
 51
270
  0
ARC
  8
0
  6
CONTINUOUS
 62
0
 10
4.76377952499879
 20
0.0787401579999942
 30
0.0
 40
0.0393700790000001
 50
270
 51
2.03555499613665E-13
  0
ARC
  8
0
  6
CONTINUOUS
 62
0
 10
4.76377952499879
 20
-0.0787401580000061
 30
0.0
 40
0.0393700790000001
 50
2.03555499613665E-13
 51
89.9999999999999
  0
ARC
  8
0
  6
CONTINUOUS
 62
0
 10
4.60629921099879
 20
-0.0787401580000062
 30
0.0
 40
0.039370079
 50
89.9999999999994
 51
180
  0
LINE
  8
0
  6
CONTINUOUS
 62
0
 10
3.267716534
 20
-0.0393700790000024
 30
0.0
 11
3.11023622
 21
-0.0393700790000025
 31
0.0
  0
ARC
  8
0
  6
CONTINUOUS
 62
0
 10
3.11023622
 20
-0.0787401580000026
 30
0.0
 40
0.039370079
 50
89.9999999999994
 51
180
  0
ARC
  8
0
  6
CONTINUOUS
 62
0
 10
3.11023622
 20
0.0787401579999971
 30
0.0
 40
0.039370079
 50
180
 51
269.999999999999
  0
ARC
  8
0
  6
CONTINUOUS
 62
0
 10
3.267716534
 20
-0.0787401580000019
 30
0.0
 40
0.0393700789999999
 50
359.999999999999
 51
89.9999999999996
  0
ARC
  8
0
  6
CONTINUOUS
 62
0
 10
3.267716534
 20
0.0787401579999978
 30
0.0
 40
0.0393700790000001
 50
269.999999999999
 51
359.999999999999
  0
LINE
  8
0
  6
CONTINUOUS
 62
0
 10
3.11023622
 20
0.0393700789999975
 30
0.0
 11
3.267716534
 21
0.0393700789999977
 31
0.0
  0
ARC
  8
0
  6
CONTINUOUS
 62
0
 10
-0.590551181
 20
-9.61036805691151E-15
 30
0.0
 40
0.275590552
 50
190.475681769776
 51
359.999999999998
  0
LINE
  8
0
  6
CONTINUOUS
 62
0
 10
-0.157480314999999
 20
0.590551180999993
 30
0.0
 11
-0.433070865999999
 21
0.590551180999993
 31
0.0
  0
LINE
  8
0
  6
CONTINUOUS
 62
0
 10
-0.433070866
 20
0.275590550999993
 30
0.0
 11
-0.354330707999999
 21
0.275590550999993
 31
0.0
  0
ARC
  8
0
  6
CONTINUOUS
 62
0
 10
-0.354330707999999
 20
0.236220471999993
 30
0.0
 40
0.039370079
 50
0
 51
89.9999999999998
  0
ARC
  8
0
  6
CONTINUOUS
 62
0
 10
-0.704067920372938
 20
-0.0501073679380238
 30
0.0
 40
0.157480314999999
 50
180.000002001053
 51
190.475683737477
  0
ARC
  8
0
  6
CONTINUOUS
 62
0
 10
-0.433070865999999
 20
0.433070865999993
 30
0.0
 40
0.157480315
 50
90
 51
270
  0
ARC
  8
0
  6
CONTINUOUS
 62
0
 10
-0.157480314999999
 20
0.433070865999995
 30
0.0
 40
0.157480315
 50
360
 51
89.9999999999998
  0
ARC
  8
0
  6
CONTINUOUS
 62
0
 10
4.44881889712772
 20
0.472440946128924
 30
0.0
 40
0.118110237128933
 50
180.00000054765
 51
241.044975291005
  0
ARC
  8
0
  6
CONTINUOUS
 62
0
 10
4.44881889599879
 20
0.472440944999991
 30
0.0
 40
0.118110235999999
 50
298.955024841559
 51
2.09916608976592E-13
  0
LINE
  8
0
  6
CONTINUOUS
 62
0
 10
4.37007873899879
 20
0.354330708999992
 30
0.0
 11
4.38782703219749
 21
0.354330708999991
 31
0.0
  0
LINE
  8
0
  6
CONTINUOUS
 62
0
 10
4.52755905299879
 20
0.354330708999991
 30
0.0
 11
4.50981076063754
 21
0.354330708999991
 31
0.0
  0
ARC
  8
0
  6
CONTINUOUS
 62
0
 10
4.38782703219749
 20
0.362204724999991
 30
0.0
 40
0.007874016
 50
270.000000000002
 51
61.044975291005
  0
ARC
  8
0
  6
CONTINUOUS
 62
0
 10
4.50981076063754
 20
0.362204724999991
 30
0.0
 40
0.007874016
 50
118.955024841563
 51
269.999999999996
  0
ARC
  8
0
  6
CONTINUOUS
 62
0
 10
4.37007873899879
 20
0.314960629999991
 30
0.0
 40
0.0393700789999996
 50
89.9999999999989
 51
180
  0
ARC
  8
0
  6
CONTINUOUS
 62
0
 10
4.52755905299879
 20
0.314960629999992
 30
0.0
 40
0.0393700789999999
 50
360
 51
89.9999999999989
  0
ENDSEC
  0
EOF
