  0
SECTION
  2
HEADER
  9
$ACADVER
  1
AC1003
  9
$EXTMIN
 10
2.81637763413393
 20
0.76526857802599
  9
$EXTMAX
 10
3.71644963413393
 20
-0.739131821974011
  9
$INSUNITS
 70
1
  9
$INSBASE
 10
3.26641363413393
 20
0.0130683780259898
999
Created with OMAX LAYOUT for Windows. (www.omax.com) 3/8/2024
  0
ENDSEC
  0
SECTION
  2
TABLES
  0
TABLE
  2
LAYER
 70
    10
  0
LAYER
  2
0
 70
     0
 62
     7
  6
CONTINUOUS
  0
LAYER
  2
1
 70
     0
 62
     7
  6
CONTINUOUS
  0
LAYER
  2
2
 70
     0
 62
     7
  6
CONTINUOUS
  0
LAYER
  2
3
 70
     0
 62
     7
  6
CONTINUOUS
  0
LAYER
  2
4
 70
     0
 62
     7
  6
CONTINUOUS
  0
LAYER
  2
5
 70
     0
 62
     7
  6
CONTINUOUS
  0
LAYER
  2
6
 70
     0
 62
     7
  6
CONTINUOUS
  0
LAYER
  2
7
 70
     0
 62
     7
  6
CONTINUOUS
  0
LAYER
  2
8
 70
     0
 62
     7
  6
CONTINUOUS
  0
LAYER
  2
9
 70
     0
 62
     7
  6
CONTINUOUS
  0
LAYER
  2
10
 70
     0
 62
     7
  6
CONTINUOUS
  0
LAYER
  2
11
 70
     0
 62
     7
  6
CONTINUOUS
  0
LAYER
  2
12
 70
     0
 62
     7
  6
CONTINUOUS
  0
LAYER
  2
13
 70
     0
 62
     7
  6
CONTINUOUS
  0
LAYER
  2
14
 70
     0
 62
     7
  6
CONTINUOUS
  0
LAYER
  2
15
 70
     0
 62
     7
  6
CONTINUOUS
  0
LAYER
  2
16
 70
     0
 62
     7
  6
CONTINUOUS
  0
LAYER
  2
17
 70
     0
 62
     7
  6
CONTINUOUS
  0
LAYER
  2
18
 70
     0
 62
     7
  6
CONTINUOUS
  0
LAYER
  2
19
 70
     0
 62
     7
  6
CONTINUOUS
  0
LAYER
  2
20
 70
     0
 62
     7
  6
CONTINUOUS
  0
LAYER
  2
21
 70
     0
 62
     7
  6
CONTINUOUS
  0
LAYER
  2
22
 70
     0
 62
     7
  6
CONTINUOUS
  0
LAYER
  2
23
 70
     0
 62
     7
  6
CONTINUOUS
  0
LAYER
  2
24
 70
     0
 62
     7
  6
CONTINUOUS
  0
LAYER
  2
25
 70
     0
 62
     7
  6
CONTINUOUS
  0
LAYER
  2
26
 70
     0
 62
     7
  6
CONTINUOUS
  0
LAYER
  2
27
 70
     0
 62
     7
  6
CONTINUOUS
  0
LAYER
  2
28
 70
     0
 62
     7
  6
CONTINUOUS
  0
LAYER
  2
29
 70
     0
 62
     7
  6
CONTINUOUS
  0
LAYER
  2
30
 70
     0
 62
     7
  6
CONTINUOUS
  0
LAYER
  2
31
 70
     0
 62
     7
  6
CONTINUOUS
  0
ENDTAB
  0
ENDSEC
  0
SECTION
  2
ENTITIES
  0
LINE
  8
6
  6
CONTINUOUS
 62
6
 10
3.71644963413393
 20
0.28017937802599
 30
0.0
 11
3.71644963413393
 21
0.196263378025991
 31
0.0
  0
LINE
  8
6
  6
CONTINUOUS
 62
6
 10
3.71644963413393
 20
0.0744231780259917
 30
0.0
 11
3.71644963413393
 21
-0.0119948219740093
 31
0.0
  0
LINE
  8
6
  6
CONTINUOUS
 62
6
 10
3.63770947713393
 20
0.28017937802599
 30
0.0
 11
3.63770947713393
 21
0.196263378025991
 31
0.0
  0
LINE
  8
6
  6
CONTINUOUS
 62
6
 10
3.63770947713393
 20
0.0744231780259917
 30
0.0
 11
3.63770947713393
 21
-0.0119948219740093
 31
0.0
  0
LINE
  8
6
  6
CONTINUOUS
 62
6
 10
3.38772463413393
 20
0.394971678025991
 30
0.0
 11
3.71644963413393
 21
0.394971678025991
 31
0.0
  0
LINE
  8
6
  6
CONTINUOUS
 62
6
 10
3.71644963413393
 20
0.394971678025991
 30
0.0
 11
3.71644963413393
 21
0.28017937802599
 31
0.0
  0
ARC
  8
6
  6
CONTINUOUS
 62
6
 10
3.05899063413393
 20
0.52272397802599
 30
0.0
 40
0.2425446
 50
90
 51
270
  0
LINE
  8
6
  6
CONTINUOUS
 62
6
 10
3.05899063413393
 20
0.76526857802599
 30
0.0
 11
3.17372263413393
 21
0.76525867802599
 31
0.0
  0
LINE
  8
6
  6
CONTINUOUS
 62
6
 10
3.17372263413393
 20
0.76525867802599
 30
0.0
 11
3.17372263413393
 21
0.650475378025991
 31
0.0
  0
LINE
  8
6
  6
CONTINUOUS
 62
6
 10
3.17372263413393
 20
0.650475378025991
 30
0.0
 11
3.05899063413393
 21
0.650475378025991
 31
0.0
  0
ARC
  8
6
  6
CONTINUOUS
 62
6
 10
3.05899063413393
 20
0.522721728025991
 30
0.0
 40
0.12775365
 50
90
 51
270
  0
LINE
  8
6
  6
CONTINUOUS
 62
6
 10
3.05899063413393
 20
0.394968078025991
 30
0.0
 11
3.38772463413393
 21
0.394971678025991
 31
0.0
  0
LINE
  8
6
  6
CONTINUOUS
 62
6
 10
3.26641363413393
 20
0.196263378025991
 30
0.0
 11
3.63770947713393
 21
0.196263378025991
 31
0.0
  0
LINE
  8
6
  6
CONTINUOUS
 62
6
 10
3.71644963413393
 20
0.196263378025991
 30
0.0
 11
3.71644963413393
 21
0.0744231780259917
 31
0.0
  0
LINE
  8
6
  6
CONTINUOUS
 62
6
 10
2.81637763413393
 20
0.0744231780259917
 30
0.0
 11
2.81637763413393
 21
0.196263378025991
 31
0.0
  0
LINE
  8
6
  6
CONTINUOUS
 62
6
 10
2.81637763413393
 20
0.196263378025991
 30
0.0
 11
3.26641363413393
 21
0.196263378025991
 31
0.0
  0
LINE
  8
6
  6
CONTINUOUS
 62
6
 10
3.60247885756266
 20
-0.62122282197401
 30
0.0
 11
2.81637763413393
 21
-0.43648882197401
 31
0.0
  0
LINE
  8
6
  6
CONTINUOUS
 62
6
 10
2.81637763413393
 20
-0.43648882197401
 30
0.0
 11
2.81637763413393
 21
-0.314646821974009
 31
0.0
  0
LINE
  8
6
  6
CONTINUOUS
 62
6
 10
2.81637763413393
 20
-0.314646821974009
 30
0.0
 11
3.60247363413393
 21
-0.129912821974009
 31
0.0
  0
LINE
  8
6
  6
CONTINUOUS
 62
6
 10
3.60247363413393
 20
-0.129912821974009
 30
0.0
 11
2.81637763413393
 21
-0.129912821974009
 31
0.0
  0
LINE
  8
6
  6
CONTINUOUS
 62
6
 10
2.81637763413393
 20
-0.129912821974009
 30
0.0
 11
2.81637763413393
 21
-0.0119948219740093
 31
0.0
  0
LINE
  8
6
  6
CONTINUOUS
 62
6
 10
2.81637763413393
 20
-0.0119948219740093
 30
0.0
 11
3.63770947713393
 21
-0.0119948219740093
 31
0.0
  0
LINE
  8
6
  6
CONTINUOUS
 62
6
 10
3.71644963413393
 20
-0.0119948219740093
 30
0.0
 11
3.71644963413393
 21
-0.21637582197401
 31
0.0
  0
LINE
  8
6
  6
CONTINUOUS
 62
6
 10
3.71644963413393
 20
-0.21637582197401
 30
0.0
 11
3.00111163413393
 21
-0.37359682197401
 31
0.0
  0
LINE
  8
6
  6
CONTINUOUS
 62
6
 10
3.00111163413393
 20
-0.37359682197401
 30
0.0
 11
3.71644963413393
 21
-0.53475082197401
 31
0.0
  0
LINE
  8
6
  6
CONTINUOUS
 62
6
 10
3.71644963413393
 20
-0.53475082197401
 30
0.0
 11
3.71644963413393
 21
-0.739131821974011
 31
0.0
  0
LINE
  8
6
  6
CONTINUOUS
 62
6
 10
3.71644963413393
 20
-0.739131821974011
 30
0.0
 11
2.81637763413393
 21
-0.739131821974011
 31
0.0
  0
LINE
  8
6
  6
CONTINUOUS
 62
6
 10
2.81637763413393
 20
-0.739131821974011
 30
0.0
 11
2.81637763413393
 21
-0.62122282197401
 31
0.0
  0
LINE
  8
6
  6
CONTINUOUS
 62
6
 10
2.81637763413393
 20
-0.62122282197401
 30
0.0
 11
3.60247885756266
 21
-0.62122282197401
 31
0.0
  0
LINE
  8
6
  6
CONTINUOUS
 62
6
 10
3.63770947713393
 20
0.28017937802599
 30
0.0
 11
3.05899063413393
 21
0.28017937802599
 31
0.0
  0
LINE
  8
6
  6
CONTINUOUS
 62
6
 10
3.63770947713393
 20
0.0744231780259917
 30
0.0
 11
2.81637763413393
 21
0.0744231780259917
 31
0.0
  0
ENDSEC
  0
EOF
