999
File generated by Conversation
0
SECTION
2
HEADER
0
SECTION
2
HEADER
9
$ACADVER
1
AC1021
9
$INSBASE
10
0.0
20
0.0
30
0.0
9
$INSUNITS
70
4
9
$EXTMIN
10
0.0
20
0.0
30
0.0
9
$EXTMAX
10
1000.0
20
1000.0
30
0.0
0
ENDSEC
0
SECTION
2
TABLES
0
TABLE
2
LTYPE
70
1
0
LTYPE
2
CONTINUOUS
70
64
3
Solid line
72
65
73
0
40
0.0
0
ENDTAB
0
TABLE
2
LAYER
70
1
0
LAYER
2
0
70
64
62
7
6
CONTINUOUS
0
ENDTAB
0
TABLE
2
STYLE
70
1
0
STYLE
2
STANDARD
70
0
40
0.0
41
1.0
50
0.0
71
0
42
0.2
3
txt
4

0
ENDTAB
0
ENDSEC
0
SECTION
2
ENTITIES
0
LINE
8
0
62
0
10
0.000000
20
0.000000
30
0.0
11
10.000000
21
0.000000
31
0.0
0
LINE
8
0
62
0
10
10.000000
20
0.000000
30
0.0
11
9.999996
21
19.999996
31
0.0
0
LINE
8
0
62
0
10
0.000000
20
30.000000
30
0.0
11
0.000000
21
0.000000
31
0.0
0
LINE
8
0
62
0
10
19.999996
20
19.999996
30
0.0
11
9.999996
21
19.999996
31
0.0
0
LINE
8
0
62
0
10
50.000000
20
-30.000000
30
0.0
11
49.999996
21
-80.000000
31
0.0
0
CIRCLE
8
0
62
1
10
19.999994
20
-40.000000
30
0.0
40
2.500000
0
CIRCLE
8
0
62
1
10
39.999992
20
-40.000000
30
0.0
40
2.500000
0
CIRCLE
8
0
62
1
10
19.999994
20
-70.000000
30
0.0
40
2.500000
0
CIRCLE
8
0
62
1
10
39.999992
20
-70.000000
30
0.0
40
2.500000
0
CIRCLE
8
0
62
4
10
39.999992
20
-40.000000
30
0.0
40
5.000000
0
CIRCLE
8
0
62
4
10
39.999992
20
-70.000000
30
0.0
40
5.000000
0
CIRCLE
8
0
62
4
10
19.999994
20
-70.000000
30
0.0
40
5.000000
0
LINE
8
0
62
0
10
0.000000
20
-30.000000
30
0.0
11
9.999997
21
-30.000000
31
0.0
0
LINE
8
0
62
0
10
9.999997
20
-30.000000
30
0.0
11
19.999994
21
-30.000000
31
0.0
0
LINE
8
0
62
0
10
0.000000
20
-80.000000
30
0.0
11
9.999998
21
-80.000000
31
0.0
0
LINE
8
0
62
0
10
9.999998
20
-80.000000
30
0.0
11
49.999996
21
-80.000000
31
0.0
0
LINE
8
0
62
0
10
-30.000000
20
30.000000
30
0.0
11
-80.000000
21
30.000000
31
0.0
0
LINE
8
0
62
0
10
-80.000000
20
30.000000
30
0.0
11
-80.000000
21
14.999999
31
0.0
0
LINE
8
0
62
0
10
-80.000000
20
14.999999
30
0.0
11
-80.000000
21
-0.000002
31
0.0
0
LINE
8
0
62
0
10
-30.000000
20
30.000000
30
0.0
11
-30.000000
21
14.999998
31
0.0
0
LINE
8
0
62
0
10
-30.000000
20
14.999998
30
0.0
11
-30.000000
21
0.000000
31
0.0
0
CIRCLE
8
0
62
1
10
-55.000000
20
9.999998
30
0.0
40
2.500000
0
LINE
8
0
62
0
10
29.999998
20
19.999998
30
0.0
11
19.999996
21
19.999996
31
0.0
0
LINE
8
0
62
0
10
14.999996
20
19.999996
30
0.0
11
24.999996
21
19.999996
31
0.0
0
LINE
8
0
62
4
10
14.999996
20
19.999996
30
0.0
11
14.999996
21
24.999996
31
0.0
0
LINE
8
0
62
4
10
24.999996
20
19.999996
30
0.0
11
24.999996
21
24.999996
31
0.0
0
LINE
8
0
62
0
10
0.000000
20
30.000000
30
0.0
11
19.999996
21
30.000000
31
0.0
0
LINE
8
0
62
1
10
22.499996
20
24.999996
30
0.0
11
22.499996
21
30.000000
31
0.0
0
LINE
8
0
62
4
10
22.499996
20
24.999996
30
0.0
11
24.999996
21
24.999996
31
0.0
0
LINE
8
0
62
4
10
14.999996
20
24.999996
30
0.0
11
17.499996
21
24.999996
31
0.0
0
LINE
8
0
62
1
10
17.499996
20
24.999996
30
0.0
11
17.499996
21
30.000000
31
0.0
0
LINE
8
0
62
4
10
34.999996
20
19.999996
30
0.0
11
34.999996
21
24.999996
31
0.0
0
LINE
8
0
62
4
10
44.999996
20
19.999996
30
0.0
11
44.999996
21
24.999996
31
0.0
0
LINE
8
0
62
1
10
42.499996
20
24.999996
30
0.0
11
42.499996
21
30.000000
31
0.0
0
LINE
8
0
62
4
10
42.499996
20
24.999996
30
0.0
11
44.999996
21
24.999996
31
0.0
0
LINE
8
0
62
4
10
34.999996
20
24.999996
30
0.0
11
37.499996
21
24.999996
31
0.0
0
LINE
8
0
62
1
10
37.499996
20
24.999996
30
0.0
11
37.499996
21
30.000000
31
0.0
0
LINE
8
0
62
4
10
0.000000
20
15.000002
30
0.0
11
5.000000
21
15.000002
31
0.0
0
LINE
8
0
62
4
10
0.000000
20
5.000000
30
0.0
11
5.000000
21
5.000000
31
0.0
0
LINE
8
0
62
1
10
5.000000
20
7.500002
30
0.0
11
10.000004
21
7.500002
31
0.0
0
LINE
8
0
62
4
10
5.000000
20
7.500002
30
0.0
11
5.000000
21
5.000000
31
0.0
0
LINE
8
0
62
4
10
5.000000
20
15.000002
30
0.0
11
5.000000
21
12.500002
31
0.0
0
LINE
8
0
62
1
10
5.000000
20
12.500002
30
0.0
11
10.000004
21
12.500002
31
0.0
0
LINE
8
0
62
0
10
0.000000
20
-30.000000
30
0.0
11
0.000000
21
-55.000000
31
0.0
0
LINE
8
0
62
0
10
0.000000
20
-55.000000
30
0.0
11
0.000000
21
-80.000000
31
0.0
0
LINE
8
0
62
0
10
9.999997
20
-30.000000
30
0.0
11
9.999998
21
-55.000000
31
0.0
0
LINE
8
0
62
0
10
9.999998
20
-55.000000
30
0.0
11
9.999998
21
-80.000000
31
0.0
0
CIRCLE
8
0
62
2
10
2.500000
20
-55.000000
30
0.0
40
1.250000
0
LINE
8
0
62
0
10
-30.000000
20
0.000000
30
0.0
11
-55.000000
21
0.000000
31
0.0
0
LINE
8
0
62
0
10
-55.000000
20
0.000000
30
0.0
11
-80.000000
21
-0.000002
31
0.0
0
LINE
8
0
62
2
10
-53.750000
20
0.000000
30
0.0
11
-53.750000
21
5.158768
31
0.0
0
LINE
8
0
62
2
10
-56.250000
20
0.000000
30
0.0
11
-56.250000
21
5.158768
31
0.0
0
ARC
8
0
62
4
10
-55.000000
20
9.999998
30
0.0
40
5.000001
50
284.477509
51
255.522491
0
ARC
8
0
62
4
10
-55.000000
20
9.999998
30
0.0
40
5.000001
50
255.522491
51
284.477509
0
CIRCLE
8
0
62
2
10
19.999996
20
22.500000
30
0.0
40
1.250000
0
CIRCLE
8
0
62
2
10
39.999996
20
22.500000
30
0.0
40
1.250000
0
LINE
8
0
62
0
10
19.999996
20
30.000000
30
0.0
11
50.000000
21
30.000000
31
0.0
0
LINE
8
0
62
0
10
50.000000
20
20.000000
30
0.0
11
29.999998
21
19.999998
31
0.0
0
LINE
8
0
62
0
10
50.000000
20
30.000000
30
0.0
11
50.000000
21
20.000000
31
0.0
0
LINE
8
0
62
0
10
19.999994
20
-30.000000
30
0.0
11
50.000000
21
-30.000000
31
0.0
0
LINE
8
0
62
2
10
18.749994
20
-30.000000
30
0.0
11
18.749994
21
-35.158768
31
0.0
0
LINE
8
0
62
2
10
21.249994
20
-30.000000
30
0.0
11
21.249994
21
-35.158768
31
0.0
0
ARC
8
0
62
4
10
19.999994
20
-40.000000
30
0.0
40
5.000003
50
104.477501
51
75.522491
0
ARC
8
0
62
4
10
19.999994
20
-40.000000
30
0.0
40
5.000003
50
75.522491
51
104.477501
0
LINE
8
0
62
2
10
38.749992
20
-30.000000
30
0.0
11
38.749992
21
-35.158768
31
0.0
0
LINE
8
0
62
2
10
41.249992
20
-30.000000
30
0.0
11
41.249992
21
-35.158768
31
0.0
0
LINE
8
0
62
2
10
18.749994
20
-80.000000
30
0.0
11
18.749994
21
-74.841232
31
0.0
0
LINE
8
0
62
2
10
21.249994
20
-80.000000
30
0.0
11
21.249994
21
-74.841232
31
0.0
0
LINE
8
0
62
2
10
38.749992
20
-80.000000
30
0.0
11
38.749992
21
-74.841232
31
0.0
0
LINE
8
0
62
2
10
41.249992
20
-80.000000
30
0.0
11
41.249992
21
-74.841232
31
0.0
0
LINE
8
0
62
4
10
0.000000
20
-50.000000
30
0.0
11
5.000000
21
-50.000000
31
0.0
0
LINE
8
0
62
4
10
0.000000
20
-60.000000
30
0.0
11
5.000000
21
-60.000000
31
0.0
0
LINE
8
0
62
1
10
5.000000
20
-57.500000
30
0.0
11
10.000004
21
-57.500000
31
0.0
0
LINE
8
0
62
4
10
5.000000
20
-57.500000
30
0.0
11
5.000000
21
-60.000000
31
0.0
0
LINE
8
0
62
4
10
5.000000
20
-50.000000
30
0.0
11
5.000000
21
-52.500000
31
0.0
0
LINE
8
0
62
1
10
5.000000
20
-52.500000
30
0.0
11
10.000004
21
-52.500000
31
0.0
0
ENDSEC
0
EOF
