  0
SECTION
  2
HEADER
  9
$ACADVER
  1
AC1003
  9
$EXTMIN
 10
-0.984251968500001
 20
0.393700785999999
  9
$EXTMAX
 10
1.968503937
 20
-4.9212598435
  9
$INSUNITS
 70
1
  9
$INSBASE
 10
0.49212598425
 20
-2.26377952875
999
Created with OMAX LAYOUT for Windows. (www.omax.com) 1/19/2024
  0
ENDSEC
  0
SECTION
  2
TABLES
  0
TABLE
  2
LAYER
 70
    10
  0
LAYER
  2
0
 70
     0
 62
     7
  6
CONTINUOUS
  0
LAYER
  2
1
 70
     0
 62
     7
  6
CONTINUOUS
  0
LAYER
  2
2
 70
     0
 62
     7
  6
CONTINUOUS
  0
LAYER
  2
3
 70
     0
 62
     7
  6
CONTINUOUS
  0
LAYER
  2
4
 70
     0
 62
     7
  6
CONTINUOUS
  0
LAYER
  2
5
 70
     0
 62
     7
  6
CONTINUOUS
  0
LAYER
  2
6
 70
     0
 62
     7
  6
CONTINUOUS
  0
LAYER
  2
7
 70
     0
 62
     7
  6
CONTINUOUS
  0
LAYER
  2
8
 70
     0
 62
     7
  6
CONTINUOUS
  0
LAYER
  2
9
 70
     0
 62
     7
  6
CONTINUOUS
  0
LAYER
  2
10
 70
     0
 62
     7
  6
CONTINUOUS
  0
LAYER
  2
11
 70
     0
 62
     7
  6
CONTINUOUS
  0
LAYER
  2
12
 70
     0
 62
     7
  6
CONTINUOUS
  0
LAYER
  2
13
 70
     0
 62
     7
  6
CONTINUOUS
  0
LAYER
  2
14
 70
     0
 62
     7
  6
CONTINUOUS
  0
LAYER
  2
15
 70
     0
 62
     7
  6
CONTINUOUS
  0
LAYER
  2
16
 70
     0
 62
     7
  6
CONTINUOUS
  0
LAYER
  2
17
 70
     0
 62
     7
  6
CONTINUOUS
  0
LAYER
  2
18
 70
     0
 62
     7
  6
CONTINUOUS
  0
LAYER
  2
19
 70
     0
 62
     7
  6
CONTINUOUS
  0
LAYER
  2
20
 70
     0
 62
     7
  6
CONTINUOUS
  0
LAYER
  2
21
 70
     0
 62
     7
  6
CONTINUOUS
  0
LAYER
  2
22
 70
     0
 62
     7
  6
CONTINUOUS
  0
LAYER
  2
23
 70
     0
 62
     7
  6
CONTINUOUS
  0
LAYER
  2
24
 70
     0
 62
     7
  6
CONTINUOUS
  0
LAYER
  2
25
 70
     0
 62
     7
  6
CONTINUOUS
  0
LAYER
  2
26
 70
     0
 62
     7
  6
CONTINUOUS
  0
LAYER
  2
27
 70
     0
 62
     7
  6
CONTINUOUS
  0
LAYER
  2
28
 70
     0
 62
     7
  6
CONTINUOUS
  0
LAYER
  2
29
 70
     0
 62
     7
  6
CONTINUOUS
  0
LAYER
  2
30
 70
     0
 62
     7
  6
CONTINUOUS
  0
LAYER
  2
31
 70
     0
 62
     7
  6
CONTINUOUS
  0
ENDTAB
  0
ENDSEC
  0
SECTION
  2
ENTITIES
  0
ARC
  8
0
  6
CONTINUOUS
 62
0
 10
-0.787401575000001
 20
-4.72440945
 30
0.0
 40
0.0492125990000004
 50
179.999999999998
 51
359.999999999997
  0
ARC
  8
0
  6
CONTINUOUS
 62
0
 10
-0.787401575000001
 20
-4.72440945
 30
0.0
 40
0.0492125990000004
 50
359.999999999995
 51
180
  0
ARC
  8
0
  6
CONTINUOUS
 62
0
 10
0.787401575000001
 20
-4.72440945
 30
0.0
 40
0.0492125990000004
 50
180.000000000001
 51
1.93377724632982E-12
  0
ARC
  8
0
  6
CONTINUOUS
 62
0
 10
0.787401575000001
 20
-4.72440945
 30
0.0
 40
0.0492125990000004
 50
359.999999999999
 51
180.000000000004
  0
ARC
  8
0
  6
CONTINUOUS
 62
0
 10
-0.787401575000001
 20
-3.1496063
 30
0.0
 40
0.0492125990000004
 50
1.75566618416786E-12
 51
180.000000000002
  0
ARC
  8
0
  6
CONTINUOUS
 62
0
 10
-0.787401575000001
 20
-3.1496063
 30
0.0
 40
0.0492125990000004
 50
179.999999999999
 51
3.91844336756305E-12
  0
ARC
  8
0
  6
CONTINUOUS
 62
0
 10
0.787401575000001
 20
-3.1496063
 30
0.0
 40
0.0492125990000004
 50
359.999999999997
 51
179.999999999998
  0
ARC
  8
0
  6
CONTINUOUS
 62
0
 10
0.787401575000001
 20
-3.1496063
 30
0.0
 40
0.0492125990000004
 50
179.999999999995
 51
359.999999999998
  0
LINE
  8
1
  6
CONTINUOUS
 62
1
 10
-7.07107497448195E-10
 20
0.139194249183749
 30
0.0
 11
-0.0695971242383225
 21
0.0695971242383213
 31
0.0
  0
LINE
  8
1
  6
CONTINUOUS
 62
1
 10
7.07107497448195E-10
 20
0.139194249183749
 30
0.0
 11
0.0695971242383225
 21
0.0695971242383213
 31
0.0
  0
ARC
  8
1
  6
CONTINUOUS
 62
1
 10
7.21644966006352E-16
 20
1.40882633497563E-15
 30
0.0
 40
0.0984251969999993
 50
359.999999999999
 51
44.9999994178746
  0
ARC
  8
1
  6
CONTINUOUS
 62
1
 10
0
 20
-1.86184252517774E-15
 30
0.0
 40
0.098425197
 50
179.999999999999
 51
359.999999999999
  0
ARC
  8
1
  6
CONTINUOUS
 62
1
 10
-3.19189119579733E-16
 20
2.22044604925031E-16
 30
0.0
 40
0.0984251969999999
 50
135.000000582125
 51
180.000000000001
  0
ARC
  8
2
  6
CONTINUOUS
 62
2
 10
-0.787401575499997
 20
-3.1496062995
 30
0.0
 40
0.196850394
 50
261.786789238244
 51
8.21321076175381
  0
LINE
  8
2
  6
CONTINUOUS
 62
2
 10
-0.905511811500001
 20
-3.937007875
 30
0.0
 11
-0.905511811500001
 21
-3.42237020598328
 31
0.0
  0
ARC
  8
2
  6
CONTINUOUS
 62
2
 10
-0.514637669016724
 20
-3.1102362205
 30
0.0
 40
0.078740157
 50
89.9999999999995
 51
188.213210761754
  0
ARC
  8
2
  6
CONTINUOUS
 62
2
 10
-0.826771654500001
 20
-3.42237020598328
 30
0.0
 40
0.078740157
 50
81.7867892382452
 51
180
  0
ARC
  8
2
  6
CONTINUOUS
 62
2
 10
0.787401575500002
 20
-3.1496062995
 30
0.0
 40
0.196850394
 50
171.786789238245
 51
278.213210761753
  0
LINE
  8
2
  6
CONTINUOUS
 62
2
 10
0.905511811500001
 20
-3.937007875
 30
0.0
 11
0.905511811500001
 21
-3.42237020598328
 31
0.0
  0
ARC
  8
2
  6
CONTINUOUS
 62
2
 10
0.514637669016725
 20
-3.1102362205
 30
0.0
 40
0.078740157
 50
351.786789238244
 51
89.9999999999996
  0
ARC
  8
2
  6
CONTINUOUS
 62
2
 10
0.8267716545
 20
-3.42237020598328
 30
0.0
 40
0.0787401569999999
 50
359.999999999998
 51
98.213210761754
  0
LINE
  8
2
  6
CONTINUOUS
 62
2
 10
0.514637669016724
 20
-3.0314960635
 30
0.0
 11
-0.514637669016724
 21
-3.0314960635
 31
0.0
  0
ARC
  8
2
  6
CONTINUOUS
 62
2
 10
-0.787401575500002
 20
-4.7244094505
 30
0.0
 40
0.196850394
 50
351.786789238245
 51
98.2132107617539
  0
LINE
  8
2
  6
CONTINUOUS
 62
2
 10
-0.905511811500001
 20
-3.937007875
 30
0.0
 11
-0.905511811500001
 21
-4.45164554401672
 31
0.0
  0
ARC
  8
2
  6
CONTINUOUS
 62
2
 10
-0.514637669016725
 20
-4.7637795295
 30
0.0
 40
0.0787401569999997
 50
171.786789238245
 51
269.999999999999
  0
ARC
  8
2
  6
CONTINUOUS
 62
2
 10
-0.8267716545
 20
-4.45164554401672
 30
0.0
 40
0.0787401569999997
 50
180
 51
278.213210761754
  0
ARC
  8
2
  6
CONTINUOUS
 62
2
 10
0.787401575499999
 20
-4.7244094505
 30
0.0
 40
0.196850394
 50
81.7867892382454
 51
188.213210761754
  0
LINE
  8
2
  6
CONTINUOUS
 62
2
 10
0.905511811500001
 20
-3.937007875
 30
0.0
 11
0.905511811500001
 21
-4.45164554401672
 31
0.0
  0
ARC
  8
2
  6
CONTINUOUS
 62
2
 10
0.514637669016725
 20
-4.7637795295
 30
0.0
 40
0.0787401570000002
 50
270
 51
8.21321076175431
  0
ARC
  8
2
  6
CONTINUOUS
 62
2
 10
0.826771654500002
 20
-4.45164554401673
 30
0.0
 40
0.0787401570000001
 50
261.786789238244
 51
359.999999999998
  0
LINE
  8
2
  6
CONTINUOUS
 62
2
 10
0.514637669016724
 20
-4.8425196865
 30
0.0
 11
-0.514637669016724
 21
-4.8425196865
 31
0.0
  0
LINE
  8
3
  6
CONTINUOUS
 62
3
 10
1.082677165
 20
0.196850391999999
 30
0.0
 11
1.87007874
 21
0.196850391999999
 31
0.0
  0
LINE
  8
3
  6
CONTINUOUS
 62
3
 10
1.87007874
 20
-0.196850394000001
 30
0.0
 11
1.082677165
 21
-0.196850394000001
 31
0.0
  0
LINE
  8
3
  6
CONTINUOUS
 62
3
 10
0.984251968
 20
-0.0984251970000014
 30
0.0
 11
0.984251967999999
 21
0.0984251949999995
 31
0.0
  0
LINE
  8
3
  6
CONTINUOUS
 62
3
 10
0.393700787
 20
-0.295275591000001
 30
0.0
 11
0.393700786999999
 21
0.295275589
 31
0.0
  0
LINE
  8
3
  6
CONTINUOUS
 62
3
 10
0.492125984
 20
0.393700785999999
 30
0.0
 11
1.87007874
 21
0.393700785999999
 31
0.0
  0
LINE
  8
3
  6
CONTINUOUS
 62
3
 10
0.492125984
 20
-0.393700788000001
 30
0.0
 11
1.87007874
 21
-0.393700788000001
 31
0.0
  0
ARC
  8
3
  6
CONTINUOUS
 62
3
 10
1.87007874
 20
0.295275588999999
 30
0.0
 40
0.0984251970000003
 50
270
 51
359.999999999999
  0
ARC
  8
3
  6
CONTINUOUS
 62
3
 10
1.87007874
 20
0.295275589
 30
0.0
 40
0.098425197
 50
359.999999999999
 51
89.9999999999998
  0
ARC
  8
3
  6
CONTINUOUS
 62
3
 10
1.082677165
 20
0.0984251949999976
 30
0.0
 40
0.0984251970000001
 50
89.9999999999998
 51
179.999999999999
  0
ARC
  8
3
  6
CONTINUOUS
 62
3
 10
1.082677165
 20
-0.0984251970000016
 30
0.0
 40
0.0984251969999999
 50
180
 51
270
  0
ARC
  8
3
  6
CONTINUOUS
 62
3
 10
1.87007874
 20
-0.295275591
 30
0.0
 40
0.0984251969999999
 50
360
 51
89.9999999999998
  0
ARC
  8
3
  6
CONTINUOUS
 62
3
 10
1.87007874
 20
-0.295275591000001
 30
0.0
 40
0.098425197
 50
270
 51
8.90555310809785E-14
  0
ARC
  8
3
  6
CONTINUOUS
 62
3
 10
0.492125983999999
 20
0.295275588999999
 30
0.0
 40
0.0984251970000001
 50
89.9999999999995
 51
179.999999999999
  0
ARC
  8
3
  6
CONTINUOUS
 62
3
 10
0.492125984000001
 20
-0.295275591000001
 30
0.0
 40
0.0984251970000001
 50
180
 51
270
  0
LINE
  8
3
  6
CONTINUOUS
 62
3
 10
0.7874015745
 20
-4.9212598435
 30
0.0
 11
-0.787401574500001
 21
-4.9212598435
 31
0.0
  0
LINE
  8
3
  6
CONTINUOUS
 62
3
 10
-0.787401574500001
 20
-2.9527559065
 30
0.0
 11
0.7874015745
 21
-2.9527559065
 31
0.0
  0
LINE
  8
3
  6
CONTINUOUS
 62
3
 10
-0.984251968500001
 20
-4.7244094495
 30
0.0
 11
-0.984251968500001
 21
-3.1496063005
 31
0.0
  0
LINE
  8
3
  6
CONTINUOUS
 62
3
 10
0.9842519685
 20
-4.7244094495
 30
0.0
 11
0.9842519685
 21
-3.1496063005
 31
0.0
  0
ARC
  8
3
  6
CONTINUOUS
 62
3
 10
-0.787401574500002
 20
-3.1496063005
 30
0.0
 40
0.196850394
 50
89.9999999999986
 51
180
  0
ARC
  8
3
  6
CONTINUOUS
 62
3
 10
0.7874015745
 20
-3.1496063005
 30
0.0
 40
0.196850394
 50
359.999999999994
 51
89.9999999999987
  0
ARC
  8
3
  6
CONTINUOUS
 62
3
 10
0.787401574500004
 20
-4.7244094495
 30
0.0
 40
0.196850394
 50
269.999999999995
 51
359.999999999995
  0
ARC
  8
3
  6
CONTINUOUS
 62
3
 10
-0.7874015745
 20
-4.72440944950001
 30
0.0
 40
0.196850394
 50
179.999999999994
 51
269.999999999995
  0
ARC
  8
5
  6
CONTINUOUS
 62
5
 10
0.688976378
 20
9.75392960236424E-17
 30
0.0
 40
0.098425197
 50
359.999999999999
 51
180
  0
ARC
  8
5
  6
CONTINUOUS
 62
5
 10
0.688976378
 20
-1.86184252517774E-15
 30
0.0
 40
0.098425197
 50
179.999999999999
 51
359.999999999999
  0
ARC
  8
5
  6
CONTINUOUS
 62
5
 10
-0.688976378
 20
-1.87389613542389E-15
 30
0.0
 40
0.098425197
 50
359.999999999999
 51
180
  0
ARC
  8
5
  6
CONTINUOUS
 62
5
 10
-0.688976378
 20
-5.26448265733442E-16
 30
0.0
 40
0.098425197
 50
180
 51
1.52666624710249E-13
  0
ARC
  8
5
  6
CONTINUOUS
 62
5
 10
-0.787401575000001
 20
-4.72440945
 30
0.0
 40
0.0669291340000004
 50
359.999999999996
 51
180
  0
ARC
  8
5
  6
CONTINUOUS
 62
5
 10
-0.787401575000001
 20
-4.72440945
 30
0.0
 40
0.0669291340000004
 50
179.999999999998
 51
359.999999999998
  0
ARC
  8
5
  6
CONTINUOUS
 62
5
 10
-0.787401575000001
 20
-3.1496063
 30
0.0
 40
0.0669291340000004
 50
179.999999999998
 51
359.999999999999
  0
ARC
  8
5
  6
CONTINUOUS
 62
5
 10
-0.787401575000001
 20
-3.1496063
 30
0.0
 40
0.0669291340000004
 50
359.999999999999
 51
180
  0
ARC
  8
5
  6
CONTINUOUS
 62
5
 10
0.787401575
 20
-4.72440945
 30
0.0
 40
0.0669291339999996
 50
359.999999999996
 51
180
  0
ARC
  8
5
  6
CONTINUOUS
 62
5
 10
0.787401575
 20
-4.72440945
 30
0.0
 40
0.0669291339999996
 50
179.999999999998
 51
359.999999999998
  0
ARC
  8
5
  6
CONTINUOUS
 62
5
 10
0.787401575
 20
-3.1496063
 30
0.0
 40
0.0669291339999996
 50
179.999999999995
 51
359.999999999996
  0
ARC
  8
5
  6
CONTINUOUS
 62
5
 10
0.787401575
 20
-3.1496063
 30
0.0
 40
0.0669291339999996
 50
359.999999999996
 51
180
  0
ENDSEC
  0
EOF
