  0
SECTION
  2
HEADER
  9
$ACADVER
  1
AC1003
  9
$EXTMIN
 10
-5.61215261847542
 20
6.85629504882349
  9
$EXTMAX
 10
37.1823622060224
 20
-7.88984689953214
  9
$INSUNITS
 70
1
  9
$INSBASE
 10
15.7851047937735
 20
-0.516775925354325
999
Created with OMAX LAYOUT for Windows. (www.omax.com) 1/5/2024
  0
ENDSEC
  0
SECTION
  2
TABLES
  0
TABLE
  2
LAYER
 70
    10
  0
LAYER
  2
0
 70
     0
 62
     7
  6
CONTINUOUS
  0
LAYER
  2
1
 70
     0
 62
     7
  6
CONTINUOUS
  0
LAYER
  2
2
 70
     0
 62
     7
  6
CONTINUOUS
  0
LAYER
  2
3
 70
     0
 62
     7
  6
CONTINUOUS
  0
LAYER
  2
4
 70
     0
 62
     7
  6
CONTINUOUS
  0
LAYER
  2
5
 70
     0
 62
     7
  6
CONTINUOUS
  0
LAYER
  2
6
 70
     0
 62
     7
  6
CONTINUOUS
  0
LAYER
  2
7
 70
     0
 62
     7
  6
CONTINUOUS
  0
LAYER
  2
8
 70
     0
 62
     7
  6
CONTINUOUS
  0
LAYER
  2
9
 70
     0
 62
     7
  6
CONTINUOUS
  0
LAYER
  2
10
 70
     0
 62
     7
  6
CONTINUOUS
  0
LAYER
  2
11
 70
     0
 62
     7
  6
CONTINUOUS
  0
LAYER
  2
12
 70
     0
 62
     7
  6
CONTINUOUS
  0
LAYER
  2
13
 70
     0
 62
     7
  6
CONTINUOUS
  0
LAYER
  2
14
 70
     0
 62
     7
  6
CONTINUOUS
  0
LAYER
  2
15
 70
     0
 62
     7
  6
CONTINUOUS
  0
LAYER
  2
16
 70
     0
 62
     7
  6
CONTINUOUS
  0
LAYER
  2
17
 70
     0
 62
     7
  6
CONTINUOUS
  0
LAYER
  2
18
 70
     0
 62
     7
  6
CONTINUOUS
  0
LAYER
  2
19
 70
     0
 62
     7
  6
CONTINUOUS
  0
LAYER
  2
20
 70
     0
 62
     7
  6
CONTINUOUS
  0
LAYER
  2
21
 70
     0
 62
     7
  6
CONTINUOUS
  0
LAYER
  2
22
 70
     0
 62
     7
  6
CONTINUOUS
  0
LAYER
  2
23
 70
     0
 62
     7
  6
CONTINUOUS
  0
LAYER
  2
24
 70
     0
 62
     7
  6
CONTINUOUS
  0
LAYER
  2
25
 70
     0
 62
     7
  6
CONTINUOUS
  0
LAYER
  2
26
 70
     0
 62
     7
  6
CONTINUOUS
  0
LAYER
  2
27
 70
     0
 62
     7
  6
CONTINUOUS
  0
LAYER
  2
28
 70
     0
 62
     7
  6
CONTINUOUS
  0
LAYER
  2
29
 70
     0
 62
     7
  6
CONTINUOUS
  0
LAYER
  2
30
 70
     0
 62
     7
  6
CONTINUOUS
  0
LAYER
  2
31
 70
     0
 62
     7
  6
CONTINUOUS
  0
ENDTAB
  0
ENDSEC
  0
SECTION
  2
ENTITIES
  0
LINE
  8
0
  6
CONTINUOUS
 62
0
 10
26.9623622060228
 20
1.70629504882411
 30
0.0
 11
30.5901795625319
 21
1.7346928363506
 31
0.0
  0
ARC
  8
0
  6
CONTINUOUS
 62
0
 10
32.0723622060228
 20
1.7462950488241
 30
0.0
 40
1.48222805262888
 50
123.176744938449
 51
180.448490092396
  0
LINE
  8
0
  6
CONTINUOUS
 62
0
 10
31.2612521022124
 20
2.98689990110251
 30
0.0
 11
26.9623622060228
 21
1.70629504882411
 31
0.0
  0
LINE
  8
0
  6
CONTINUOUS
 62
0
 10
27.6669723926887
 20
-0.843345967334762
 30
0.0
 11
30.7945554899493
 21
0.995155916334311
 31
0.0
  0
ARC
  8
0
  6
CONTINUOUS
 62
0
 10
32.0723622060228
 20
1.74629504882404
 30
0.0
 40
1.48222805262888
 50
153.176744938542
 51
210.448490092489
  0
LINE
  8
0
  6
CONTINUOUS
 62
0
 10
30.7496178247164
 20
2.41513531504801
 30
0.0
 11
27.6669723926887
 21
-0.843345967334762
 31
0.0
  0
LINE
  8
0
  6
CONTINUOUS
 62
0
 10
29.5520032221893
 20
-2.69909476452294
 30
0.0
 11
31.3413186950239
 21
0.456886120273357
 31
0.0
  0
ARC
  8
0
  6
CONTINUOUS
 62
0
 10
32.0723622060228
 20
1.74629504882403
 30
0.0
 40
1.48222805262888
 50
183.176744938642
 51
240.448490092588
  0
LINE
  8
0
  6
CONTINUOUS
 62
0
 10
30.5924118359866
 20
1.66415551979226
 30
0.0
 11
29.5520032221893
 21
-2.69909476452294
 31
0.0
  0
LINE
  8
0
  6
CONTINUOUS
 62
0
 10
32.1123622060489
 20
-3.36370495117568
 30
0.0
 11
32.0839644185039
 21
0.264112405333249
 31
0.0
  0
ARC
  8
0
  6
CONTINUOUS
 62
0
 10
32.0723622060228
 20
1.74629504882404
 30
0.0
 40
1.48222805262888
 50
213.176744938737
 51
270.448490092684
  0
LINE
  8
0
  6
CONTINUOUS
 62
0
 10
30.8317573537485
 20
0.935184945007402
 30
0.0
 11
32.1123622060489
 21
-3.36370495117568
 31
0.0
  0
LINE
  8
0
  6
CONTINUOUS
 62
0
 10
34.6620032222042
 20
-2.65909476449675
 30
0.0
 11
32.8235013385191
 21
0.468488332754464
 31
0.0
  0
ARC
  8
0
  6
CONTINUOUS
 62
0
 10
32.0723622060228
 20
1.74629504882407
 30
0.0
 40
1.48222805262888
 50
243.176744938835
 51
300.448490092782
  0
LINE
  8
0
  6
CONTINUOUS
 62
0
 10
31.4035219398056
 20
0.423550667514337
 30
0.0
 11
34.6620032222042
 21
-2.65909476449675
 31
0.0
  0
LINE
  8
0
  6
CONTINUOUS
 62
0
 10
36.5177520193827
 20
-0.774063934986702
 30
0.0
 11
33.3617711345773
 21
1.01525153783178
 31
0.0
  0
ARC
  8
0
  6
CONTINUOUS
 62
0
 10
32.0723622060228
 20
1.74629504882412
 30
0.0
 40
1.48222805262888
 50
273.176744938933
 51
330.448490092881
  0
LINE
  8
0
  6
CONTINUOUS
 62
0
 10
32.1545017350622
 20
0.266344678788281
 30
0.0
 11
36.5177520193827
 21
-0.774063934986702
 31
0.0
  0
LINE
  8
0
  6
CONTINUOUS
 62
0
 10
37.1823622060224
 20
1.78629504887627
 30
0.0
 11
33.5545448495136
 21
1.75789726131275
 31
0.0
  0
ARC
  8
0
  6
CONTINUOUS
 62
0
 10
32.0723622060228
 20
1.74629504882415
 30
0.0
 40
1.48222805262888
 50
303.17674493903
 51
0.448490092980056
  0
LINE
  8
0
  6
CONTINUOUS
 62
0
 10
32.8834723098458
 20
0.505690196553983
 30
0.0
 11
37.1823622060224
 21
1.78629504887627
 31
0.0
  0
LINE
  8
0
  6
CONTINUOUS
 62
0
 10
36.4777520193304
 20
4.33593606502794
 30
0.0
 11
33.3501689220886
 21
2.49743418132695
 31
0.0
  0
ARC
  8
0
  6
CONTINUOUS
 62
0
 10
32.0723622060228
 20
1.74629504882418
 30
0.0
 40
1.48222805262888
 50
333.176744939128
 51
30.4484900930778
  0
LINE
  8
0
  6
CONTINUOUS
 62
0
 10
33.395106587336
 20
1.07745478261371
 30
0.0
 11
36.4777520193304
 21
4.33593606502794
 31
0.0
  0
LINE
  8
0
  6
CONTINUOUS
 62
0
 10
34.5927211898109
 20
6.19168486219689
 30
0.0
 11
32.8034057170085
 21
3.03570397738232
 31
0.0
  0
ARC
  8
0
  6
CONTINUOUS
 62
0
 10
32.0723622060228
 20
1.74629504882414
 30
0.0
 40
1.48222805262888
 50
3.17674493922816
 51
60.448490093175
  0
LINE
  8
0
  6
CONTINUOUS
 62
0
 10
33.5523125760582
 20
1.82843457787107
 30
0.0
 11
34.5927211898109
 21
6.19168486219689
 31
0.0
  0
LINE
  8
0
  6
CONTINUOUS
 62
0
 10
32.0323622059446
 20
6.85629504882349
 30
0.0
 11
32.0607599935266
 21
3.22847769231485
 31
0.0
  0
ARC
  8
0
  6
CONTINUOUS
 62
0
 10
32.0723622060228
 20
1.74629504882413
 30
0.0
 40
1.48222805262888
 50
33.1767449393257
 51
90.4484900932726
  0
LINE
  8
0
  6
CONTINUOUS
 62
0
 10
33.3129670582888
 20
2.55740515265348
 30
0.0
 11
32.0323622059446
 21
6.85629504882349
 31
0.0
  0
LINE
  8
0
  6
CONTINUOUS
 62
0
 10
29.4827211897965
 20
6.15168486211853
 30
0.0
 11
31.3212230735134
 21
3.02410176488609
 31
0.0
  0
ARC
  8
0
  6
CONTINUOUS
 62
0
 10
32.0723622060228
 20
1.74629504882412
 30
0.0
 40
1.48222805262888
 50
63.1767449394232
 51
120.448490093371
  0
LINE
  8
0
  6
CONTINUOUS
 62
0
 10
32.7412024722264
 20
3.06903943014071
 30
0.0
 11
29.4827211897965
 21
6.15168486211853
 31
0.0
  0
LINE
  8
0
  6
CONTINUOUS
 62
0
 10
27.6269723926372
 20
4.26665403258955
 30
0.0
 11
30.7829532774609
 21
2.47733855980328
 31
0.0
  0
ARC
  8
0
  6
CONTINUOUS
 62
0
 10
32.0723622060228
 20
1.74629504882411
 30
0.0
 40
1.48222805262888
 50
93.1767449395206
 51
150.448490093468
  0
LINE
  8
0
  6
CONTINUOUS
 62
0
 10
31.9902226769683
 20
3.2262454188591
 30
0.0
 11
27.6269723926372
 21
4.26665403258955
 31
0.0
  0
ARC
  8
0
  6
CONTINUOUS
 62
0
 10
32.0723622060228
 20
1.74629504882412
 30
0.0
 40
0.880738326632836
 50
282.458246440001
 51
102.458246440005
  0
ARC
  8
0
  6
CONTINUOUS
 62
0
 10
32.0723622060228
 20
1.7462950488241
 30
0.0
 40
0.880738326632836
 50
102.458246440001
 51
282.458246440001
  0
ARC
  8
0
  6
CONTINUOUS
 62
0
 10
-0.210716087846739
 20
-4.21198173466481
 30
0.0
 40
0.118110236000001
 50
359.999999999996
 51
180
  0
ARC
  8
0
  6
CONTINUOUS
 62
0
 10
-0.210716087846739
 20
-4.21198173466482
 30
0.0
 40
0.118110236000001
 50
179.999999999996
 51
359.999999999996
  0
LINE
  8
0
  6
CONTINUOUS
 62
0
 10
3.81708505932256
 20
2.07590424248444
 30
0.0
 11
3.78236220602277
 21
2.00629504882411
 31
0.0
  0
LINE
  8
0
  6
CONTINUOUS
 62
0
 10
3.78236220602277
 20
2.00629504882411
 30
0.0
 11
3.84236220602277
 21
2.0262950488241
 31
0.0
  0
LINE
  8
0
  6
CONTINUOUS
 62
0
 10
3.24
 20
4.54
 30
0.0
 11
2.66659297525353
 21
5.3962950488241
 31
0.0
  0
LINE
  8
0
  6
CONTINUOUS
 62
0
 10
1.31
 20
4.96
 30
0.0
 11
2.05236220602277
 21
5.39629504882411
 31
0.0
  0
LINE
  8
0
  6
CONTINUOUS
 62
0
 10
3.24
 20
4.54
 30
0.0
 11
1.31
 21
4.96
 31
0.0
  0
LINE
  8
0
  6
CONTINUOUS
 62
0
 10
3.71708505932256
 20
2.17590424248444
 30
0.0
 11
3.68236220602277
 21
2.10629504882411
 31
0.0
  0
LINE
  8
0
  6
CONTINUOUS
 62
0
 10
3.68236220602277
 20
2.10629504882411
 30
0.0
 11
3.74236220602277
 21
2.1262950488241
 31
0.0
  0
LINE
  8
0
  6
CONTINUOUS
 62
0
 10
3.71708505932256
 20
2.17590424248444
 30
0.0
 11
3.74236220602277
 21
2.1262950488241
 31
0.0
  0
LINE
  8
1
  6
CONTINUOUS
 62
1
 10
-3.40214602244718
 20
-4.17103216458028
 30
0.0
 11
-3.44562048140067
 21
-3.89654523354112
 31
0.0
  0
ARC
  8
1
  6
CONTINUOUS
 62
1
 10
-3.59657286045435
 20
-4.20182635050526
 30
0.0
 40
0.196850393
 50
279.000000000899
 51
9.00000000090467
  0
LINE
  8
1
  6
CONTINUOUS
 62
1
 10
-3.56577867452938
 20
-4.39625318851245
 30
0.0
 11
-3.84026560555737
 21
-4.43972764746417
 31
0.0
  0
LINE
  8
1
  6
CONTINUOUS
 62
1
 10
-4.09873976633595
 20
-4.75625061214047
 30
0.0
 11
-3.89165005637202
 21
-4.47121607942255
 31
0.0
  0
LINE
  8
1
  6
CONTINUOUS
 62
1
 10
-4.09873976633429
 20
-4.84881521823664
 30
0.0
 11
-3.89165005637791
 21
-5.13384975092277
 31
0.0
  0
ARC
  8
1
  6
CONTINUOUS
 62
1
 10
-4.03503764118341
 20
-4.80253291518856
 30
0.0
 40
0.0787401570000007
 50
143.999999999737
 51
216.000000000263
  0
ARC
  8
1
  6
CONTINUOUS
 62
1
 10
-3.82794793121866
 20
-4.5174983824695
 30
0.0
 40
0.0787401569999991
 50
99.0000000009051
 51
144.00000000076
  0
LINE
  8
1
  6
CONTINUOUS
 62
1
 10
-3.56577867453258
 20
-5.20881264182124
 30
0.0
 11
-3.84026560556213
 21
-5.16533818287932
 31
0.0
  0
ARC
  8
1
  6
CONTINUOUS
 62
1
 10
-3.59657286045062
 20
-5.40323947982951
 30
0.0
 40
0.196850393
 50
351.000000001134
 51
81.0000000011389
  0
LINE
  8
1
  6
CONTINUOUS
 62
1
 10
-3.40214602244234
 20
-5.43403366574757
 30
0.0
 11
-3.44562048138425
 21
-5.70852059677711
 31
0.0
  0
LINE
  8
1
  6
CONTINUOUS
 62
1
 10
-3.22446216155777
 20
-6.05215510687352
 30
0.0
 11
-3.43155187153042
 21
-5.76712057416194
 31
0.0
  0
LINE
  8
1
  6
CONTINUOUS
 62
1
 10
-3.13642798975109
 20
-6.08075914323293
 30
0.0
 11
-2.80134980033454
 21
-5.9718856397036
 31
0.0
  0
ARC
  8
1
  6
CONTINUOUS
 62
1
 10
-3.16076003640582
 20
-6.00587280382462
 30
0.0
 40
0.0787401569999996
 50
216.000000000991
 51
288.000000001515
  0
ARC
  8
1
  6
CONTINUOUS
 62
1
 10
-3.36784974637847
 20
-5.72083827111305
 30
0.0
 40
0.0787401570000005
 50
171.000000001136
 51
216.00000000099
  0
LINE
  8
1
  6
CONTINUOUS
 62
1
 10
-2.62935605949575
 20
-5.68512834575989
 30
0.0
 11
-2.75552385338581
 21
-5.93274658351961
 31
0.0
  0
ARC
  8
1
  6
CONTINUOUS
 62
1
 10
-2.45396107504156
 20
-5.77449655404768
 30
0.0
 40
0.196850393
 50
63.0000000013731
 51
153.000000001374
  0
LINE
  8
1
  6
CONTINUOUS
 62
1
 10
-2.36459286675377
 20
-5.59910156959349
 30
0.0
 11
-2.11697462899406
 21
-5.72526936348355
 31
0.0
  0
LINE
  8
1
  6
CONTINUOUS
 62
1
 10
-1.72181710966961
 20
-5.62112420575157
 30
0.0
 11
-2.05689529911538
 21
-5.7299977092885
 31
0.0
  0
LINE
  8
1
  6
CONTINUOUS
 62
1
 10
-1.66740899932397
 20
-5.54623786634073
 30
0.0
 11
-1.66740899933575
 21
-5.19391580800145
 31
0.0
  0
ARC
  8
1
  6
CONTINUOUS
 62
1
 10
-1.74614915632397
 20
-5.54623786634314
 30
0.0
 40
0.0787401570000002
 50
288.000000001222
 51
1.75211032403399E-9
  0
ARC
  8
1
  6
CONTINUOUS
 62
1
 10
-2.08122734576973
 20
-5.65511136988007
 30
0.0
 40
0.0787401569999986
 50
243.000000001366
 51
288.00000000122
  0
LINE
  8
1
  6
CONTINUOUS
 62
1
 10
-1.88698240349081
 20
-4.94172716292464
 30
0.0
 11
-1.69047145737092
 21
-5.1382381090335
 31
0.0
  0
ARC
  8
1
  6
CONTINUOUS
 62
1
 10
-1.74778815572909
 20
-4.80253291515511
 30
0.0
 40
0.196850393
 50
135
 51
225
  0
LINE
  8
1
  6
CONTINUOUS
 62
1
 10
-1.88698240349862
 20
-4.66333866738557
 30
0.0
 11
-1.69047145738877
 21
-4.46682772126469
 31
0.0
  0
LINE
  8
1
  6
CONTINUOUS
 62
1
 10
-1.66740899936572
 20
-4.05882796392702
 30
0.0
 11
-1.66740899935673
 21
-4.41115002229785
 31
0.0
  0
LINE
  8
1
  6
CONTINUOUS
 62
1
 10
-1.72181710971557
 20
-3.98394162451923
 30
0.0
 11
-2.05689529913878
 21
-3.87506812101042
 31
0.0
  0
ARC
  8
1
  6
CONTINUOUS
 62
1
 10
-1.74614915636572
 20
-4.05882796392902
 30
0.0
 40
0.0787401570000002
 50
1.46028807090034E-9
 51
72.0000000019861
  0
ARC
  8
1
  6
CONTINUOUS
 62
1
 10
-1.74614915635673
 20
-4.41115002229985
 30
0.0
 40
0.0787401570000009
 50
315.000000001602
 51
1.45986823768239E-9
  0
LINE
  8
1
  6
CONTINUOUS
 62
1
 10
-2.36459286676983
 20
-4.00596426072271
 30
0.0
 11
-2.11697462901719
 21
-3.87979646681875
 31
0.0
  0
ARC
  8
1
  6
CONTINUOUS
 62
1
 10
-2.45396107506746
 20
-3.83056927627355
 30
0.0
 40
0.196850393
 50
207.000000001835
 51
297.000000001835
  0
LINE
  8
1
  6
CONTINUOUS
 62
1
 10
-2.62935605951663
 20
-3.91993748457118
 30
0.0
 11
-2.75552385342059
 21
-3.67231924681854
 31
0.0
  0
LINE
  8
1
  6
CONTINUOUS
 62
1
 10
-3.13642798982285
 20
-3.52430668711729
 30
0.0
 11
-2.80134980037152
 21
-3.63318019063713
 31
0.0
  0
LINE
  8
1
  6
CONTINUOUS
 62
1
 10
-3.22446216162793
 20
-3.55291072348164
 30
0.0
 11
-3.43155187154988
 21
-3.83794525615708
 31
0.0
  0
ARC
  8
1
  6
CONTINUOUS
 62
1
 10
-3.16076003647338
 20
-3.59919302652697
 30
0.0
 40
0.0787401570000002
 50
72.0000000016946
 51
144.000000002222
  0
ARC
  8
1
  6
CONTINUOUS
 62
1
 10
-2.82568184702206
 20
-3.7080665300468
 30
0.0
 40
0.0787401569999996
 50
27.0000000018405
 51
72.0000000016945
  0
ARC
  8
1
  6
CONTINUOUS
 62
1
 10
-3.8279479312262
 20
-5.08756744787355
 30
0.0
 40
0.0787401569999997
 50
216.000000001281
 51
261.000000001136
  0
ARC
  8
1
  6
CONTINUOUS
 62
1
 10
-2.82568184698928
 20
-5.89699930029529
 30
0.0
 40
0.0787401570000004
 50
288.000000001516
 51
333.000000001371
  0
ARC
  8
1
  6
CONTINUOUS
 62
1
 10
-1.74614915633575
 20
-5.19391580800145
 30
0.0
 40
0.0787401570000003
 50
359.999999999995
 51
45.0000000016069
  0
ARC
  8
1
  6
CONTINUOUS
 62
1
 10
-2.08122734578893
 20
-3.94995446042022
 30
0.0
 40
0.0787401570000014
 50
72.0000000019863
 51
117.000000001842
  0
ARC
  8
1
  6
CONTINUOUS
 62
1
 10
-3.36784974639533
 20
-3.88422755920241
 30
0.0
 40
0.0787401570000005
 50
144.000000002222
 51
189.000000000906
  0
LINE
  8
1
  6
CONTINUOUS
 62
1
 10
-1.01271360694609
 20
-6.06803991818107
 30
0.0
 11
-1.02324186565936
 21
-6.08253082312859
 31
0.0
  0
LINE
  8
1
  6
CONTINUOUS
 62
1
 10
-3.44741430943038
 20
-6.85912213089759
 30
0.0
 11
-3.43037922898949
 21
-6.86465716405946
 31
0.0
  0
ARC
  8
1
  6
CONTINUOUS
 62
1
 10
-3.47205587669798
 20
-6.93390719282163
 30
0.0
 40
0.0787401569999994
 50
71.7630248736345
 51
148.011054346991
  0
ARC
  8
1
  6
CONTINUOUS
 62
1
 10
-3.45440133879036
 20
-6.9396434999154
 30
0.0
 40
0.0787401570000008
 50
355.988945652879
 51
72.2369751281486
  0
ARC
  8
1
  6
CONTINUOUS
 62
1
 10
-4.91867536246654
 20
-5.1938390150265
 30
0.0
 40
0.31496063
 50
103.988945652655
 51
171.000000001432
  0
ARC
  8
1
  6
CONTINUOUS
 62
1
 10
-3.80597332526039
 20
-6.72534198184437
 30
0.0
 40
0.31496063
 50
261.000000000842
 51
328.011054346987
  0
LINE
  8
1
  6
CONTINUOUS
 62
1
 10
-4.08141041354177
 20
-7.00060368664696
 30
0.0
 11
-3.85524402291857
 21
-7.0364249238426
 31
0.0
  0
LINE
  8
1
  6
CONTINUOUS
 62
1
 10
-4.14001039092667
 20
-7.01467229650049
 30
0.0
 11
-4.32526361914469
 21
-7.14926664525463
 31
0.0
  0
ARC
  8
1
  6
CONTINUOUS
 62
1
 10
-4.51039283251456
 20
-6.89445814302787
 30
0.0
 40
0.314960630000002
 50
216.000000000694
 51
306.000000000694
  0
LINE
  8
1
  6
CONTINUOUS
 62
1
 10
-4.899795683488
 20
-6.89433412818999
 30
0.0
 11
-4.76520133474134
 21
-7.07958735639772
 31
0.0
  0
LINE
  8
1
  6
CONTINUOUS
 62
1
 10
-4.95118013430504
 20
-6.86284569623266
 30
0.0
 11
-5.17734652491624
 21
-6.82702445904247
 31
0.0
  0
ARC
  8
1
  6
CONTINUOUS
 62
1
 10
-5.12807582726282
 20
-6.51594151704349
 30
0.0
 40
0.314960630000001
 50
171.000000001719
 51
261.000000001718
  0
LINE
  8
1
  6
CONTINUOUS
 62
1
 10
-5.40333753206962
 20
-6.24050442876632
 30
0.0
 11
-5.43915876926181
 21
-6.46667081939006
 31
0.0
  0
LINE
  8
1
  6
CONTINUOUS
 62
1
 10
-5.41740614192405
 20
-6.18190445138163
 30
0.0
 11
-5.55200049068103
 21
-5.99665122316568
 31
0.0
  0
ARC
  8
1
  6
CONTINUOUS
 62
1
 10
-5.29719198845709
 20
-5.81152200979192
 30
0.0
 40
0.31496063
 50
126.000000001579
 51
216.000000001579
  0
LINE
  8
1
  6
CONTINUOUS
 62
1
 10
-5.2970679736149
 20
-5.422119158811
 30
0.0
 11
-5.48232120183086
 21
-5.55671350756798
 31
0.0
  0
LINE
  8
1
  6
CONTINUOUS
 62
1
 10
-5.26557954165861
 20
-5.37073470799506
 30
0.0
 11
-5.22975830446527
 21
-5.14456831737149
 31
0.0
  0
ARC
  8
1
  6
CONTINUOUS
 62
1
 10
-4.0937280878781
 20
-7.07837442165267
 30
0.0
 40
0.0787401570000013
 50
81.0000000008473
 51
126.000000000702
  0
ARC
  8
1
  6
CONTINUOUS
 62
1
 10
-4.96349780864018
 20
-6.94061643123856
 30
0.0
 40
0.0787401569999988
 50
36.0000000006985
 51
81.0000000017229
  0
ARC
  8
1
  6
CONTINUOUS
 62
1
 10
-5.48110826707552
 20
-6.22818675443118
 30
0.0
 40
0.078740156999999
 50
351.00000000172
 51
36.0000000015782
  0
ARC
  8
1
  6
CONTINUOUS
 62
1
 10
-5.34335027666445
 20
-5.35841703365952
 30
0.0
 40
0.078740156999998
 50
306.000000001576
 51
351.000000001428
  0
ARC
  8
1
  6
CONTINUOUS
 62
1
 10
-0.959731708248502
 20
-6.12907620130981
 30
0.0
 40
0.0787401569999999
 50
143.763024873865
 51
220.011054347221
  0
ARC
  8
1
  6
CONTINUOUS
 62
1
 10
-3.0616648930314
 20
-6.96718245154838
 30
0.0
 40
0.314960630000001
 50
175.988945652883
 51
243.00000000166
  0
ARC
  8
1
  6
CONTINUOUS
 62
1
 10
-1.26127517754396
 20
-6.3822003720436
 30
0.0
 40
0.314960630000002
 50
333.000000001075
 51
40.0110543472245
  0
LINE
  8
1
  6
CONTINUOUS
 62
1
 10
-1.08460048066363
 20
-6.72921715436687
 30
0.0
 11
-0.98064320134879
 21
-6.52518950585029
 31
0.0
  0
LINE
  8
1
  6
CONTINUOUS
 62
1
 10
-1.0893288264689
 20
-6.78929648424552
 30
0.0
 11
-1.01856838981107
 21
-7.00707471521855
 31
0.0
  0
ARC
  8
1
  6
CONTINUOUS
 62
1
 10
-1.3181137493474
 20
-7.10440290245248
 30
0.0
 40
0.314960630000001
 50
288.00000000093
 51
18.0000000009334
  0
LINE
  8
1
  6
CONTINUOUS
 62
1
 10
-1.43856379307441
 20
-7.47470869864272
 30
0.0
 11
-1.22078556211348
 21
-7.40394826198883
 31
0.0
  0
LINE
  8
1
  6
CONTINUOUS
 62
1
 10
-1.48438974002428
 20
-7.51384775482767
 30
0.0
 11
-1.58834701933024
 21
-7.71787540333453
 31
0.0
  0
ARC
  8
1
  6
CONTINUOUS
 62
1
 10
-1.86897899552759
 20
-7.57488626953214
 30
0.0
 40
0.31496063
 50
243.000000001952
 51
333.000000001953
  0
LINE
  8
1
  6
CONTINUOUS
 62
1
 10
-2.21599577784816
 20
-7.75156096641778
 30
0.0
 11
-2.01196812932999
 21
-7.8555182457295
 31
0.0
  0
LINE
  8
1
  6
CONTINUOUS
 62
1
 10
-2.27607510772689
 20
-7.74683262061343
 30
0.0
 11
-2.49385333869883
 21
-7.8175930572746
 31
0.0
  0
ARC
  8
1
  6
CONTINUOUS
 62
1
 10
-2.59118152593734
 20
-7.51804769773976
 30
0.0
 40
0.31496063
 50
198.000000001806
 51
288.000000001806
  0
LINE
  8
1
  6
CONTINUOUS
 62
1
 10
-2.96148732213335
 20
-7.39759765400632
 30
0.0
 11
-2.89072688547219
 21
-7.61537588497827
 31
0.0
  0
LINE
  8
1
  6
CONTINUOUS
 62
1
 10
-3.00062637831758
 20
-7.35177170705779
 30
0.0
 11
-3.20465402683522
 21
-7.24781442774502
 31
0.0
  0
ARC
  8
1
  6
CONTINUOUS
 62
1
 10
-1.01444248706034
 20
-6.76496443759155
 30
0.0
 40
0.0787401570000004
 50
153.000000001081
 51
198.000000000935
  0
ARC
  8
1
  6
CONTINUOUS
 62
1
 10
-1.41423174642044
 20
-7.54959503805128
 30
0.0
 40
0.0787401570000002
 50
108.000000000934
 51
153.000000001958
  0
ARC
  8
1
  6
CONTINUOUS
 62
1
 10
-2.25174306107177
 20
-7.82171896002161
 30
0.0
 40
0.078740156999998
 50
63.0000000019574
 51
108.000000001814
  0
ARC
  8
1
  6
CONTINUOUS
 62
1
 10
-3.03637366154154
 20
-7.42192970066144
 30
0.0
 40
0.0787401569999998
 50
18.0000000018123
 51
63.0000000016646
  0
LINE
  8
1
  6
CONTINUOUS
 62
1
 10
-3.43037922907881
 20
-2.7404086662988
 30
0.0
 11
-3.44741430947751
 21
-2.74594369944753
 31
0.0
  0
LINE
  8
1
  6
CONTINUOUS
 62
1
 10
-1.02324186571477
 20
-3.52253500712537
 30
0.0
 11
-1.01271360700095
 21
-3.53702591207247
 31
0.0
  0
LINE
  8
1
  6
CONTINUOUS
 62
1
 10
-4.93510701559453
 20
-4.79357704340443
 30
0.0
 11
-4.93510701559433
 21
-4.8114887869748
 31
0.0
  0
ARC
  8
1
  6
CONTINUOUS
 62
1
 10
-3.47205587674682
 20
-2.67115863752407
 30
0.0
 40
0.0787401570000007
 50
211.988945652416
 51
288.236975127673
  0
ARC
  8
1
  6
CONTINUOUS
 62
1
 10
-3.45440133888293
 20
-2.6654223304439
 30
0.0
 40
0.0787401570000001
 50
287.763024874336
 51
4.01105434769359
  0
ARC
  8
1
  6
CONTINUOUS
 62
1
 10
-1.26127517760398
 20
-3.22286545821065
 30
0.0
 40
0.31496063
 50
319.988945653351
 51
27.0000000021331
  0
ARC
  8
1
  6
CONTINUOUS
 62
1
 10
-3.06166489312426
 20
-2.63788337880697
 30
0.0
 40
0.314960630000001
 50
117.000000001549
 51
184.011054347694
  0
LINE
  8
1
  6
CONTINUOUS
 62
1
 10
-3.20465402694383
 20
-2.35725140261836
 30
0.0
 11
-3.00062637843202
 21
-2.25329412329413
 31
0.0
  0
LINE
  8
1
  6
CONTINUOUS
 62
1
 10
-2.89072688560144
 20
-1.98968994536748
 30
0.0
 11
-2.96148732225037
 21
-2.2074681763434
 31
0.0
  0
ARC
  8
1
  6
CONTINUOUS
 62
1
 10
-2.59118152606113
 20
-2.08701813258918
 30
0.0
 40
0.31496063
 50
72.0000000014017
 51
162.000000001403
  0
LINE
  8
1
  6
CONTINUOUS
 62
1
 10
-2.49385333883941
 20
-1.78747277304887
 30
0.0
 11
-2.2760751078756
 21
-1.85823320969388
 31
0.0
  0
LINE
  8
1
  6
CONTINUOUS
 62
1
 10
-2.01196812949681
 20
-1.74954758456386
 30
0.0
 11
-2.21599577799571
 21
-1.85350486388543
 31
0.0
  0
ARC
  8
1
  6
CONTINUOUS
 62
1
 10
-1.86897899567295
 20
-2.03017956075028
 30
0.0
 40
0.314960630000002
 50
27.0000000024255
 51
117.000000002426
  0
LINE
  8
1
  6
CONTINUOUS
 62
1
 10
-1.58834701948652
 20
-1.88719042692641
 30
0.0
 11
-1.48438974015918
 21
-2.09121807543663
 31
0.0
  0
LINE
  8
1
  6
CONTINUOUS
 62
1
 10
-1.22078556223085
 20
-2.20111756826318
 30
0.0
 11
-1.43856379320785
 21
-2.13035713161758
 31
0.0
  0
ARC
  8
1
  6
CONTINUOUS
 62
1
 10
-1.31811374944796
 20
-2.50066292780496
 30
0.0
 40
0.31496063
 50
342.000000002275
 51
72.0000000022794
  0
LINE
  8
1
  6
CONTINUOUS
 62
1
 10
-1.01856838990617
 20
-2.59799111502209
 30
0.0
 11
-1.08932882655177
 21
-2.81576934599909
 31
0.0
  0
LINE
  8
1
  6
CONTINUOUS
 62
1
 10
-0.98064320141683
 20
-3.07987632438822
 30
0.0
 11
-1.08460048074313
 21
-2.87584867587748
 31
0.0
  0
ARC
  8
1
  6
CONTINUOUS
 62
1
 10
-0.95973170830594
 20
-3.47598962894139
 30
0.0
 40
0.0787401569999999
 50
139.988945653357
 51
216.236975128614
  0
ARC
  8
1
  6
CONTINUOUS
 62
1
 10
-3.03637366165992
 20
-2.18313612969248
 30
0.0
 40
0.0787401570000006
 50
297.000000001545
 51
342.000000001399
  0
ARC
  8
1
  6
CONTINUOUS
 62
1
 10
-2.25174306122468
 20
-1.78334687028433
 30
0.0
 40
0.0787401569999999
 50
252.000000001398
 51
297.000000002423
  0
ARC
  8
1
  6
CONTINUOUS
 62
1
 10
-1.41423174655808
 20
-2.05547079220766
 30
0.0
 40
0.0787401570000003
 50
207.000000002422
 51
252.000000002278
  0
ARC
  8
1
  6
CONTINUOUS
 62
1
 10
-1.01444248714184
 20
-2.84010139264886
 30
0.0
 40
0.0787401569999998
 50
162.000000002277
 51
207.00000000213
  0
ARC
  8
1
  6
CONTINUOUS
 62
1
 10
-5.01384649911264
 20
-4.79325137534244
 30
0.0
 40
0.078740157
 50
359.763024873397
 51
76.0110543467576
  0
ARC
  8
1
  6
CONTINUOUS
 62
1
 10
-5.01384649911243
 20
-4.81181445503859
 30
0.0
 40
0.0787401570000009
 50
283.988945652644
 51
0.236975127914195
  0
ARC
  8
1
  6
CONTINUOUS
 62
1
 10
-3.80597332531137
 20
-2.8797238484979
 30
0.0
 40
0.314960629999999
 50
31.9889456524198
 51
99.0000000011971
  0
ARC
  8
1
  6
CONTINUOUS
 62
1
 10
-4.9186753624628
 20
-4.41122681535554
 30
0.0
 40
0.314960630000001
 50
189.000000000607
 51
256.011054346754
  0
LINE
  8
1
  6
CONTINUOUS
 62
1
 10
-5.26557954166119
 20
-4.23433112239936
 30
0.0
 11
-5.22975830445977
 21
-4.46049751302165
 31
0.0
  0
LINE
  8
1
  6
CONTINUOUS
 62
1
 10
-5.29706797361931
 20
-4.18294667158455
 30
0.0
 11
-5.48232120184008
 21
-4.04835232283419
 31
0.0
  0
ARC
  8
1
  6
CONTINUOUS
 62
1
 10
-5.29719198847542
 20
-3.79354382060365
 30
0.0
 40
0.31496063
 50
144.000000000461
 51
234.000000000462
  0
LINE
  8
1
  6
CONTINUOUS
 62
1
 10
-5.41740614196308
 20
-3.42316137902849
 30
0.0
 11
-5.55200049070597
 21
-3.60841460723896
 31
0.0
  0
LINE
  8
1
  6
CONTINUOUS
 62
1
 10
-5.403337532111
 20
-3.36456140164172
 30
0.0
 11
-5.43915876931389
 21
-3.13839501103253
 31
0.0
  0
ARC
  8
1
  6
CONTINUOUS
 62
1
 10
-5.12807582731767
 20
-3.08912431336165
 30
0.0
 40
0.31496063
 50
99.0000000014899
 51
189.000000001491
  0
LINE
  8
1
  6
CONTINUOUS
 62
1
 10
-4.95118013436681
 20
-2.74222013416056
 30
0.0
 11
-5.17734652498855
 21
-2.77804137136543
 31
0.0
  0
LINE
  8
1
  6
CONTINUOUS
 62
1
 10
-4.89979568355248
 20
-2.71073170220164
 30
0.0
 11
-4.76520133480496
 21
-2.52547847397882
 31
0.0
  0
ARC
  8
1
  6
CONTINUOUS
 62
1
 10
-4.51039283257158
 20
-2.71060768733958
 30
0.0
 40
0.314960629999999
 50
54.0000000013437
 51
144.000000001345
  0
LINE
  8
1
  6
CONTINUOUS
 62
1
 10
-4.14001039098799
 20
-2.59039353385372
 30
0.0
 11
-4.32526361921082
 21
-2.4557991851062
 31
0.0
  0
LINE
  8
1
  6
CONTINUOUS
 62
1
 10
-4.08141041360258
 20
-2.60446214370516
 30
0.0
 11
-3.85524402298066
 21
-2.56864090650144
 31
0.0
  0
ARC
  8
1
  6
CONTINUOUS
 62
1
 10
-5.34335027666659
 20
-4.24664879673768
 30
0.0
 40
0.0787401570000001
 50
9.00000000061387
 51
54.0000000004676
  0
ARC
  8
1
  6
CONTINUOUS
 62
1
 10
-5.48110826711621
 20
-3.37687907598122
 30
0.0
 40
0.0787401569999992
 50
324.000000000462
 51
9.00000000148972
  0
ARC
  8
1
  6
CONTINUOUS
 62
1
 10
-4.96349780870632
 20
-2.66444939915535
 30
0.0
 40
0.0787401570000007
 50
279.000000001485
 51
324.000000001341
  0
ARC
  8
1
  6
CONTINUOUS
 62
1
 10
-4.09372808794169
 20
-2.52669140869988
 30
0.0
 40
0.0787401570000018
 50
234.00000000134
 51
279.000000001193
  0
ARC
  8
1
  6
CONTINUOUS
 62
1
 10
-0.948820603823079
 20
-3.49100747588329
 30
0.0
 40
0.0787401570000003
 50
215.763024874099
 51
292.011054347456
  0
ARC
  8
1
  6
CONTINUOUS
 62
1
 10
-0.801267268315334
 20
-5.74905380250308
 30
0.0
 40
0.314960630000001
 50
247.988945653118
 51
315.000000001895
  0
ARC
  8
1
  6
CONTINUOUS
 62
1
 10
-0.801267268368481
 20
-3.85601202774619
 30
0.0
 40
0.314960630000001
 50
45.0000000013139
 51
112.01105434746
  0
LINE
  8
1
  6
CONTINUOUS
 62
1
 10
-0.416639212464349
 20
-3.79521848908332
 30
0.0
 11
-0.578556471093809
 21
-3.6333012304613
 31
0.0
  0
LINE
  8
1
  6
CONTINUOUS
 62
1
 10
-0.360961513497619
 20
-3.81828094711565
 30
0.0
 11
-0.13197593036683
 21
-3.81828094711097
 31
0.0
  0
ARC
  8
1
  6
CONTINUOUS
 62
1
 10
-0.131975930360399
 20
-4.13324157711096
 30
0.0
 40
0.31496063
 50
1.16736534584692E-9
 51
90.0000000011674
  0
LINE
  8
1
  6
CONTINUOUS
 62
1
 10
0.182984699644271
 20
-4.36222716022262
 30
0.0
 11
0.182984699639601
 21
-4.13324157710455
 31
0.0
  0
LINE
  8
1
  6
CONTINUOUS
 62
1
 10
0.20604715768001
 20
-4.41790485918954
 30
0.0
 11
0.367964416302961
 21
-4.5798221178001
 31
0.0
  0
ARC
  8
1
  6
CONTINUOUS
 62
1
 10
0.145253619040235
 20
-4.80253291507988
 30
0.0
 40
0.31496063
 50
314.999999999999
 51
45.000000000001
  0
LINE
  8
1
  6
CONTINUOUS
 62
1
 10
0.206047157700461
 20
-5.18716097099161
 30
0.0
 11
0.367964416320011
 21
-5.02524371235968
 31
0.0
  0
LINE
  8
1
  6
CONTINUOUS
 62
1
 10
0.182984699668991
 20
-5.24283866995869
 30
0.0
 11
0.182984699677171
 21
-5.47182425308948
 31
0.0
  0
ARC
  8
1
  6
CONTINUOUS
 62
1
 10
-0.131975930322814
 20
-5.47182425310073
 30
0.0
 40
0.31496063
 50
270.00000000204
 51
2.04548468785218E-9
  0
LINE
  8
1
  6
CONTINUOUS
 62
1
 10
-0.360961513442369
 20
-5.78678488310891
 30
0.0
 11
-0.13197593031157
 21
-5.78678488310072
 31
0.0
  0
LINE
  8
1
  6
CONTINUOUS
 62
1
 10
-0.416639212407789
 20
-5.80984734114436
 30
0.0
 11
-0.578556471028169
 21
-5.97176459977547
 31
0.0
  0
ARC
  8
1
  6
CONTINUOUS
 62
1
 10
-0.94882060376623
 20
-6.11405835436749
 30
0.0
 40
0.0787401569999999
 50
67.9889456531226
 51
144.23697512838
  0
ARC
  8
1
  6
CONTINUOUS
 62
1
 10
-0.360961513499227
 20
-3.73954079011565
 30
0.0
 40
0.0787401570000011
 50
225.000000001311
 51
270.000000001165
  0
ARC
  8
1
  6
CONTINUOUS
 62
1
 10
0.26172485664427
 20
-4.36222716022102
 30
0.0
 40
0.078740157
 50
180.000000001166
 51
225.00000000219
  0
ARC
  8
1
  6
CONTINUOUS
 62
1
 10
0.26172485666899
 20
-5.24283866995588
 30
0.0
 40
0.0787401569999993
 50
135.000000002192
 51
180.000000002048
  0
ARC
  8
1
  6
CONTINUOUS
 62
1
 10
-0.36096151343955
 20
-5.86552504010891
 30
0.0
 40
0.0787401570000001
 50
90.0000000020465
 51
135.000000001898
  0
ARC
  8
1
  6
CONTINUOUS
 62
1
 10
-2.76977120534674
 20
-4.8025329151648
 30
0.0
 40
0.196850394
 50
359.999999999992
 51
180
  0
ARC
  8
1
  6
CONTINUOUS
 62
1
 10
-2.76977120534674
 20
-4.80253291516483
 30
0.0
 40
0.196850394
 50
179.999999999993
 51
359.999999999992
  0
ARC
  8
2
  6
CONTINUOUS
 62
2
 10
-2.76977120484674
 20
-4.80253291566481
 30
0.0
 40
0.3937007875
 50
7.27642720026482E-8
 51
90.0000000727642
  0
ARC
  8
2
  6
CONTINUOUS
 62
2
 10
-2.76977120534674
 20
-4.80253291516484
 30
0.0
 40
0.393700788000002
 50
179.999999999993
 51
269.999999999996
  0
ARC
  8
2
  6
CONTINUOUS
 62
2
 10
-0.80126726834887
 20
-3.96736742642627
 30
0.0
 40
0.0787401569999998
 50
45.0000000001447
 51
225.000000000146
  0
ARC
  8
2
  6
CONTINUOUS
 62
2
 10
-0.801267268348868
 20
-3.96736742642628
 30
0.0
 40
0.0787401569999998
 50
225.000000000142
 51
45.000000000145
  0
ARC
  8
2
  6
CONTINUOUS
 62
2
 10
-1.39181844885016
 20
-4.21198173466783
 30
0.0
 40
0.0787401570000004
 50
89.9999999999993
 51
269.999999999999
  0
ARC
  8
2
  6
CONTINUOUS
 62
2
 10
-1.39181844884935
 20
-4.21198173466783
 30
0.0
 40
0.0787401570000004
 50
269.999999999999
 51
90.000000000001
  0
ARC
  8
2
  6
CONTINUOUS
 62
2
 10
-1.63643275708528
 20
-4.80253291517122
 30
0.0
 40
0.0787401570000006
 50
135.000000000431
 51
315.000000000432
  0
ARC
  8
2
  6
CONTINUOUS
 62
2
 10
-1.63643275708528
 20
-4.80253291517121
 30
0.0
 40
0.078740157
 50
315.000000000431
 51
135.000000000438
  0
ARC
  8
2
  6
CONTINUOUS
 62
2
 10
-1.39181844884071
 20
-5.39308409567085
 30
0.0
 40
0.0787401569999995
 50
180.000000000577
 51
5.8325011748678E-10
  0
ARC
  8
2
  6
CONTINUOUS
 62
2
 10
-1.39181844884071
 20
-5.39308409567085
 30
0.0
 40
0.0787401569999995
 50
5.83211950830602E-10
 51
180.000000000585
  0
ARC
  8
2
  6
CONTINUOUS
 62
2
 10
-0.801267268336078
 20
-5.63769840390337
 30
0.0
 40
0.0787401569999996
 50
225.000000000726
 51
45.0000000007296
  0
ARC
  8
2
  6
CONTINUOUS
 62
2
 10
-0.80126726833608
 20
-5.63769840390336
 30
0.0
 40
0.0787401570000002
 50
45.0000000007299
 51
225.000000000731
  0
ARC
  8
2
  6
CONTINUOUS
 62
2
 10
-0.21071608783649
 20
-5.39308409565578
 30
0.0
 40
0.0787401570000004
 50
269.999999999999
 51
90.000000000001
  0
ARC
  8
2
  6
CONTINUOUS
 62
2
 10
-0.2107160878389
 20
-5.39308409565578
 30
0.0
 40
0.0787401570000004
 50
89.9999999999993
 51
269.999999999999
  0
ARC
  8
2
  6
CONTINUOUS
 62
2
 10
0.0338982203918014
 20
-4.8025329151499
 30
0.0
 40
0.0787401570000007
 50
315.000000001018
 51
135.000000001023
  0
ARC
  8
2
  6
CONTINUOUS
 62
2
 10
0.0338982203917994
 20
-4.8025329151499
 30
0.0
 40
0.0787401570000001
 50
135.000000001019
 51
315.00000000102
  0
ARC
  8
2
  6
CONTINUOUS
 62
2
 10
-2.54062723292807
 20
-2.18623651928436
 30
0.0
 40
0.0787401570000003
 50
72.0000000002328
 51
252.000000000234
  0
ARC
  8
2
  6
CONTINUOUS
 62
2
 10
-2.54062723292806
 20
-2.18623651928436
 30
0.0
 40
0.0787401570000003
 50
252.000000000228
 51
72.0000000002324
  0
ARC
  8
2
  6
CONTINUOUS
 62
2
 10
-2.95575961557873
 20
-2.67229408939543
 30
0.0
 40
0.0787401569999995
 50
117.000000000376
 51
297.000000000376
  0
ARC
  8
2
  6
CONTINUOUS
 62
2
 10
-2.95575961557872
 20
-2.67229408939542
 30
0.0
 40
0.0787401569999993
 50
297.000000000373
 51
117.00000000038
  0
ARC
  8
2
  6
CONTINUOUS
 62
2
 10
-2.90560793456692
 20
-3.30953161613029
 30
0.0
 40
0.078740157
 50
162.000000000519
 51
342.000000000521
  0
ARC
  8
2
  6
CONTINUOUS
 62
2
 10
-2.90560793456692
 20
-3.30953161613029
 30
0.0
 40
0.0787401569999996
 50
342.000000000521
 51
162.000000000526
  0
ARC
  8
2
  6
CONTINUOUS
 62
2
 10
-2.41955036445374
 20
-3.72466399877847
 30
0.0
 40
0.0787401570000002
 50
207.000000000665
 51
27.0000000006709
  0
ARC
  8
2
  6
CONTINUOUS
 62
2
 10
-2.41955036445374
 20
-3.72466399877847
 30
0.0
 40
0.0787401570000002
 50
27.0000000006708
 51
207.000000000672
  0
ARC
  8
2
  6
CONTINUOUS
 62
2
 10
-1.78231283771912
 20
-3.67451231776341
 30
0.0
 40
0.0787401569999999
 50
252.000000000813
 51
72.0000000008173
  0
ARC
  8
2
  6
CONTINUOUS
 62
2
 10
-1.78231283771912
 20
-3.67451231776341
 30
0.0
 40
0.078740157
 50
72.0000000008171
 51
252.000000000819
  0
ARC
  8
2
  6
CONTINUOUS
 62
2
 10
-1.36718045507343
 20
-3.18845474764811
 30
0.0
 40
0.0787401569999998
 50
297.000000000957
 51
117.000000000965
  0
ARC
  8
2
  6
CONTINUOUS
 62
2
 10
-1.36718045507343
 20
-3.18845474764811
 30
0.0
 40
0.0787401570000002
 50
117.000000000958
 51
297.00000000096
  0
ARC
  8
2
  6
CONTINUOUS
 62
2
 10
-1.41733213609174
 20
-2.55121722091376
 30
0.0
 40
0.078740157
 50
342.000000001103
 51
162.000000001111
  0
ARC
  8
2
  6
CONTINUOUS
 62
2
 10
-1.41733213609174
 20
-2.55121722091376
 30
0.0
 40
0.0787401570000002
 50
162.000000001105
 51
342.000000001105
  0
ARC
  8
2
  6
CONTINUOUS
 62
2
 10
-1.90338970620916
 20
-2.13608483827054
 30
0.0
 40
0.0787401570000006
 50
27.0000000012558
 51
207.000000001257
  0
ARC
  8
2
  6
CONTINUOUS
 62
2
 10
-1.90338970620915
 20
-2.13608483827054
 30
0.0
 40
0.0787401570000003
 50
207.000000001251
 51
27.0000000012559
  0
ARC
  8
2
  6
CONTINUOUS
 62
2
 10
-5.18720755957661
 20
-3.77612399838717
 30
0.0
 40
0.0787401570000008
 50
144.000000000461
 51
324.000000000461
  0
ARC
  8
2
  6
CONTINUOUS
 62
2
 10
-5.18720755957661
 20
-3.77612399838717
 30
0.0
 40
0.0787401570000006
 50
324.000000000462
 51
144.000000000468
  0
ARC
  8
2
  6
CONTINUOUS
 62
2
 10
-4.85322230138009
 20
-4.32113840543976
 30
0.0
 40
0.0787401569999999
 50
189.000000000607
 51
9.00000000061218
  0
ARC
  8
2
  6
CONTINUOUS
 62
2
 10
-4.85322230138009
 20
-4.32113840543975
 30
0.0
 40
0.0787401570000001
 50
9.00000000061209
 51
189.000000000614
  0
ARC
  8
2
  6
CONTINUOUS
 62
2
 10
-4.23167567742135
 20
-4.47035854762232
 30
0.0
 40
0.0787401570000004
 50
234.000000000754
 51
54.0000000007581
  0
ARC
  8
2
  6
CONTINUOUS
 62
2
 10
-4.23167567742136
 20
-4.47035854762231
 30
0.0
 40
0.0787401569999997
 50
54.0000000007588
 51
234.00000000076
  0
ARC
  8
2
  6
CONTINUOUS
 62
2
 10
-3.68666127037047
 20
-4.13637328942301
 30
0.0
 40
0.0787401570000003
 50
279.000000000901
 51
99.000000000905
  0
ARC
  8
2
  6
CONTINUOUS
 62
2
 10
-3.68666127037048
 20
-4.13637328942301
 30
0.0
 40
0.0787401570000008
 50
99.0000000009018
 51
279.0000000009
  0
ARC
  8
2
  6
CONTINUOUS
 62
2
 10
-3.53744112819108
 20
-3.51482666546352
 30
0.0
 40
0.0787401569999995
 50
324.000000001045
 51
144.000000001052
  0
ARC
  8
2
  6
CONTINUOUS
 62
2
 10
-3.53744112819108
 20
-3.51482666546352
 30
0.0
 40
0.0787401569999996
 50
144.000000001045
 51
324.000000001045
  0
ARC
  8
2
  6
CONTINUOUS
 62
2
 10
-3.87142638639317
 20
-2.96981225841434
 30
0.0
 40
0.0787401569999999
 50
9.00000000119719
 51
189.000000001199
  0
ARC
  8
2
  6
CONTINUOUS
 62
2
 10
-3.87142638639317
 20
-2.96981225841434
 30
0.0
 40
0.0787401569999993
 50
189.000000001192
 51
9.00000000119747
  0
ARC
  8
2
  6
CONTINUOUS
 62
2
 10
-4.49297301035342
 20
-2.82059211623812
 30
0.0
 40
0.0787401570000006
 50
54.0000000013426
 51
234.000000001344
  0
ARC
  8
2
  6
CONTINUOUS
 62
2
 10
-4.49297301035342
 20
-2.82059211623812
 30
0.0
 40
0.0787401570000005
 50
234.000000001338
 51
54.0000000013429
  0
ARC
  8
2
  6
CONTINUOUS
 62
2
 10
-5.0379874174009
 20
-3.15457737444299
 30
0.0
 40
0.0787401570000003
 50
99.0000000014873
 51
279.000000001487
  0
ARC
  8
2
  6
CONTINUOUS
 62
2
 10
-5.0379874174009
 20
-3.15457737444299
 30
0.0
 40
0.0787401570000002
 50
279.000000001485
 51
99.0000000014896
  0
ARC
  8
2
  6
CONTINUOUS
 62
2
 10
-4.49297301030033
 20
-6.7844737141287
 30
0.0
 40
0.0787401569999989
 50
216.000000000697
 51
36.0000000007006
  0
ARC
  8
2
  6
CONTINUOUS
 62
2
 10
-4.49297301030033
 20
-6.7844737141287
 30
0.0
 40
0.0787401570000004
 50
36.0000000006998
 51
216.000000000702
  0
ARC
  8
2
  6
CONTINUOUS
 62
2
 10
-3.87142638634541
 20
-6.63525357193027
 30
0.0
 40
0.0787401569999997
 50
261.000000000842
 51
81.0000000008472
  0
ARC
  8
2
  6
CONTINUOUS
 62
2
 10
-3.87142638634541
 20
-6.63525357193027
 30
0.0
 40
0.0787401570000002
 50
81.000000000846
 51
261.000000000847
  0
ARC
  8
2
  6
CONTINUOUS
 62
2
 10
-3.53744112816279
 20
-6.09023916486916
 30
0.0
 40
0.0787401569999998
 50
306.000000000987
 51
126.000000000994
  0
ARC
  8
2
  6
CONTINUOUS
 62
2
 10
-3.5374411281628
 20
-6.09023916486916
 30
0.0
 40
0.0787401569999999
 50
126.000000000993
 51
306.000000000993
  0
ARC
  8
2
  6
CONTINUOUS
 62
2
 10
-3.68666127036439
 20
-5.46869254091499
 30
0.0
 40
0.0787401569999999
 50
351.000000001134
 51
171.00000000114
  0
ARC
  8
2
  6
CONTINUOUS
 62
2
 10
-3.68666127036439
 20
-5.468692540915
 30
0.0
 40
0.0787401570000006
 50
171.000000001136
 51
351.000000001136
  0
ARC
  8
2
  6
CONTINUOUS
 62
2
 10
-4.23167567742721
 20
-5.13470728273516
 30
0.0
 40
0.0787401570000004
 50
36.0000000012846
 51
216.000000001286
  0
ARC
  8
2
  6
CONTINUOUS
 62
2
 10
-4.23167567742721
 20
-5.13470728273517
 30
0.0
 40
0.0787401569999988
 50
216.000000001281
 51
36.0000000012854
  0
ARC
  8
2
  6
CONTINUOUS
 62
2
 10
-4.85322230138061
 20
-5.28392742493993
 30
0.0
 40
0.078740157
 50
81.0000000014316
 51
261.000000001433
  0
ARC
  8
2
  6
CONTINUOUS
 62
2
 10
-4.85322230138061
 20
-5.28392742493993
 30
0.0
 40
0.0787401569999999
 50
261.000000001429
 51
81.0000000014316
  0
ARC
  8
2
  6
CONTINUOUS
 62
2
 10
-5.18720755955766
 20
-5.82894183200445
 30
0.0
 40
0.0787401570000012
 50
126.000000001576
 51
306.000000001576
  0
ARC
  8
2
  6
CONTINUOUS
 62
2
 10
-5.18720755955766
 20
-5.82894183200445
 30
0.0
 40
0.0787401569999999
 50
306.000000001574
 51
126.000000001579
  0
ARC
  8
2
  6
CONTINUOUS
 62
2
 10
-5.03798741734972
 20
-6.45048845595709
 30
0.0
 40
0.0787401570000004
 50
171.000000001719
 51
351.000000001718
  0
ARC
  8
2
  6
CONTINUOUS
 62
2
 10
-5.03798741734972
 20
-6.45048845595709
 30
0.0
 40
0.0787401569999999
 50
351.000000001718
 51
171.000000001725
  0
ARC
  8
2
  6
CONTINUOUS
 62
2
 10
-1.41733213603997
 20
-7.05384860937688
 30
0.0
 40
0.0787401570000003
 50
288.00000000093
 51
108.000000000936
  0
ARC
  8
2
  6
CONTINUOUS
 62
2
 10
-1.41733213603997
 20
-7.05384860937688
 30
0.0
 40
0.0787401570000006
 50
108.000000000928
 51
288.000000000929
  0
ARC
  8
2
  6
CONTINUOUS
 62
2
 10
-1.36718045504443
 20
-6.41661108264073
 30
0.0
 40
0.0787401569999997
 50
333.000000001075
 51
153.000000001082
  0
ARC
  8
2
  6
CONTINUOUS
 62
2
 10
-1.36718045504443
 20
-6.41661108264073
 30
0.0
 40
0.0787401569999991
 50
153.000000001074
 51
333.000000001075
  0
ARC
  8
2
  6
CONTINUOUS
 62
2
 10
-1.78231283770749
 20
-5.93055351254026
 30
0.0
 40
0.078740157
 50
18.0000000012262
 51
198.000000001228
  0
ARC
  8
2
  6
CONTINUOUS
 62
2
 10
-1.78231283770749
 20
-5.93055351254026
 30
0.0
 40
0.0787401569999997
 50
198.00000000122
 51
18.0000000012264
  0
ARC
  8
2
  6
CONTINUOUS
 62
2
 10
-2.4195503644439
 20
-5.88040183154797
 30
0.0
 40
0.0787401569999999
 50
63.000000001373
 51
243.000000001374
  0
ARC
  8
2
  6
CONTINUOUS
 62
2
 10
-2.41955036444389
 20
-5.88040183154797
 30
0.0
 40
0.0787401570000002
 50
243.000000001369
 51
63.0000000013732
  0
ARC
  8
2
  6
CONTINUOUS
 62
2
 10
-2.90560793454225
 20
-6.29553421421352
 30
0.0
 40
0.0787401570000004
 50
108.000000001514
 51
288.000000001514
  0
ARC
  8
2
  6
CONTINUOUS
 62
2
 10
-2.90560793454224
 20
-6.29553421421351
 30
0.0
 40
0.0787401570000001
 50
288.000000001514
 51
108.00000000152
  0
ARC
  8
2
  6
CONTINUOUS
 62
2
 10
-2.95575961553129
 20
-6.93277174095018
 30
0.0
 40
0.0787401570000005
 50
153.00000000166
 51
333.000000001661
  0
ARC
  8
2
  6
CONTINUOUS
 62
2
 10
-2.95575961553129
 20
-6.93277174095017
 30
0.0
 40
0.0787401570000005
 50
333.000000001663
 51
153.000000001666
  0
ARC
  8
2
  6
CONTINUOUS
 62
2
 10
-2.54062723286326
 20
-7.41882931104641
 30
0.0
 40
0.0787401569999999
 50
198.000000001808
 51
18.0000000018113
  0
ARC
  8
2
  6
CONTINUOUS
 62
2
 10
-2.54062723286326
 20
-7.41882931104641
 30
0.0
 40
0.0787401569999996
 50
18.0000000018108
 51
198.000000001813
  0
ARC
  8
2
  6
CONTINUOUS
 62
2
 10
-1.90338970612634
 20
-7.46898099203219
 30
0.0
 40
0.0787401569999998
 50
243.000000001951
 51
63.0000000019571
  0
ARC
  8
2
  6
CONTINUOUS
 62
2
 10
-1.90338970612635
 20
-7.46898099203219
 30
0.0
 40
0.0787401569999996
 50
63.0000000019575
 51
243.000000001959
  0
ARC
  8
2
  6
CONTINUOUS
 62
2
 10
-2.76977120584675
 20
-4.80253291566482
 30
0.0
 40
0.3937007875
 50
89.9999999272325
 51
179.999999927234
  0
ARC
  8
2
  6
CONTINUOUS
 62
2
 10
-0.80126726834674
 20
-4.8025329151648
 30
0.0
 40
0.196850394
 50
359.999999999992
 51
180
  0
ARC
  8
2
  6
CONTINUOUS
 62
2
 10
-0.80126726834674
 20
-4.80253291516483
 30
0.0
 40
0.196850394
 50
179.999999999993
 51
359.999999999992
  0
ARC
  8
2
  6
CONTINUOUS
 62
2
 10
-2.1614700353274
 20
-2.93037441852582
 30
0.0
 40
0.196850394
 50
72.0000000002298
 51
252.000000000234
  0
ARC
  8
2
  6
CONTINUOUS
 62
2
 10
-2.16147003532739
 20
-2.93037441852583
 30
0.0
 40
0.196850394
 50
252.000000000226
 51
72.0000000002297
  0
ARC
  8
2
  6
CONTINUOUS
 62
2
 10
-4.36232434388319
 20
-3.64547533192957
 30
0.0
 40
0.196850394
 50
144.000000000462
 51
324.000000000465
  0
ARC
  8
2
  6
CONTINUOUS
 62
2
 10
-4.36232434388318
 20
-3.64547533192955
 30
0.0
 40
0.196850394
 50
324.00000000046
 51
144.000000000465
  0
ARC
  8
2
  6
CONTINUOUS
 62
2
 10
-4.36232434385955
 20
-5.95959049843261
 30
0.0
 40
0.196850394
 50
216.000000000696
 51
36.0000000007008
  0
ARC
  8
2
  6
CONTINUOUS
 62
2
 10
-4.36232434385956
 20
-5.9595904984326
 30
0.0
 40
0.196850393999999
 50
36.0000000006979
 51
216.000000000698
  0
ARC
  8
2
  6
CONTINUOUS
 62
2
 10
-2.16147003528916
 20
-6.6746914117914
 30
0.0
 40
0.196850394
 50
288.000000000928
 51
108.000000000935
  0
ARC
  8
2
  6
CONTINUOUS
 62
2
 10
-2.16147003528918
 20
-6.67469141179141
 30
0.0
 40
0.196850394
 50
108.00000000093
 51
288.00000000093
  0
ARC
  8
2
  6
CONTINUOUS
 62
2
 10
-2.76977120534672
 20
-4.80253291516483
 30
0.0
 40
0.393700787999999
 50
269.999999999995
 51
359.999999999993
  0
ARC
  8
3
  6
CONTINUOUS
 62
3
 10
-0.80126726834674
 20
-4.80253291516484
 30
0.0
 40
0.295275591
 50
179.999999999993
 51
359.999999999992
  0
ARC
  8
3
  6
CONTINUOUS
 62
3
 10
-0.80126726834674
 20
-4.8025329151648
 30
0.0
 40
0.295275591
 50
359.999999999992
 51
180
  0
ARC
  8
3
  6
CONTINUOUS
 62
3
 10
-2.76977120534673
 20
-4.80253291516477
 30
0.0
 40
0.590551180999992
 50
359.999999999993
 51
89.9999999999997
  0
ARC
  8
3
  6
CONTINUOUS
 62
3
 10
-2.76977120534674
 20
-4.80253291516487
 30
0.0
 40
0.590551181000002
 50
179.999999999993
 51
269.999999999995
  0
ARC
  8
3
  6
CONTINUOUS
 62
3
 10
-2.16147003532739
 20
-2.93037441852583
 30
0.0
 40
0.295275591
 50
252.000000000226
 51
72.0000000002298
  0
ARC
  8
3
  6
CONTINUOUS
 62
3
 10
-2.16147003532741
 20
-2.93037441852582
 30
0.0
 40
0.295275591
 50
72.0000000002298
 51
252.000000000234
  0
ARC
  8
3
  6
CONTINUOUS
 62
3
 10
-4.36232434388318
 20
-3.64547533192954
 30
0.0
 40
0.295275591
 50
324.00000000046
 51
144.000000000465
  0
ARC
  8
3
  6
CONTINUOUS
 62
3
 10
-4.36232434388319
 20
-3.64547533192957
 30
0.0
 40
0.295275591
 50
144.00000000046
 51
324.000000000463
  0
ARC
  8
3
  6
CONTINUOUS
 62
3
 10
-4.36232434385956
 20
-5.9595904984326
 30
0.0
 40
0.295275591
 50
36.0000000006977
 51
216.000000000698
  0
ARC
  8
3
  6
CONTINUOUS
 62
3
 10
-4.36232434385955
 20
-5.95959049843262
 30
0.0
 40
0.295275591
 50
216.000000000695
 51
36.0000000007008
  0
ARC
  8
3
  6
CONTINUOUS
 62
3
 10
-2.16147003528918
 20
-6.67469141179141
 30
0.0
 40
0.295275591
 50
108.000000000928
 51
288.000000000928
  0
ARC
  8
3
  6
CONTINUOUS
 62
3
 10
-2.16147003528916
 20
-6.6746914117914
 30
0.0
 40
0.295275591000001
 50
288.000000000928
 51
108.000000000935
  0
ARC
  8
3
  6
CONTINUOUS
 62
3
 10
-2.76977120534675
 20
-4.80253291516481
 30
0.0
 40
0.59055118099999
 50
89.999999999998
 51
179.999999999999
  0
ARC
  8
3
  6
CONTINUOUS
 62
3
 10
-2.7697712053467
 20
-4.80253291516484
 30
0.0
 40
0.590551180999998
 50
269.999999999995
 51
359.999999999993
  0
LINE
  8
4
  6
CONTINUOUS
 62
4
 10
3.43822836461443
 20
2.23660588622606
 30
0.0
 11
3.51765258692495
 21
2.08072707312942
 31
0.0
  0
LINE
  8
4
  6
CONTINUOUS
 62
4
 10
3.38527572552755
 20
2.25381124163265
 30
0.0
 11
3.22939691242672
 21
2.17438701931999
 31
0.0
  0
ARC
  8
4
  6
CONTINUOUS
 62
4
 10
3.40314936736769
 20
2.21873224438592
 30
0.0
 40
0.0393700790000001
 50
27.0000000002321
 51
117.000000000234
  0
LINE
  8
4
  6
CONTINUOUS
 62
4
 10
3.03297287513105
 20
2.22608440598537
 30
0.0
 11
3.19935724710585
 21
2.17202284638668
 31
0.0
  0
LINE
  8
4
  6
CONTINUOUS
 62
4
 10
2.98336368147033
 20
2.20080725928592
 30
0.0
 11
2.92930212187158
 21
2.03442288731107
 31
0.0
  0
ARC
  8
4
  6
CONTINUOUS
 62
4
 10
3.02080685165041
 20
2.18864123580528
 30
0.0
 40
0.0393700789999997
 50
72.0000000003782
 51
162.00000000038
  0
LINE
  8
4
  6
CONTINUOUS
 62
4
 10
2.75385378043133
 20
1.93208569123158
 30
0.0
 11
2.90973259353181
 21
2.01150991354505
 31
0.0
  0
LINE
  8
4
  6
CONTINUOUS
 62
4
 10
2.736648425025
 20
1.87913305214461
 30
0.0
 11
2.81607264733849
 21
1.72325423904413
 31
0.0
  0
ARC
  8
4
  6
CONTINUOUS
 62
4
 10
2.77172742227165
 20
1.89700669398493
 30
0.0
 40
0.0393700789999998
 50
117.000000000523
 51
207.000000000525
  0
LINE
  8
4
  6
CONTINUOUS
 62
4
 10
2.76437526067409
 20
1.52683020174825
 30
0.0
 11
2.81843682027199
 21
1.69321457372337
 31
0.0
  0
LINE
  8
4
  6
CONTINUOUS
 62
4
 10
2.78965240737379
 20
1.47722100808765
 30
0.0
 11
2.95603677934913
 21
1.42315944848982
 31
0.0
  0
ARC
  8
4
  6
CONTINUOUS
 62
4
 10
2.80181843085424
 20
1.5146641782678
 30
0.0
 40
0.0393700790000004
 50
162.000000000671
 51
252.000000000672
  0
LINE
  8
4
  6
CONTINUOUS
 62
4
 10
3.05837397542931
 20
1.24771110705003
 30
0.0
 11
2.97894975311495
 21
1.40358992015026
 31
0.0
  0
LINE
  8
4
  6
CONTINUOUS
 62
4
 10
3.11132661451636
 20
1.23050575164397
 30
0.0
 11
3.26720542761617
 21
1.30992997395812
 31
0.0
  0
ARC
  8
4
  6
CONTINUOUS
 62
4
 10
3.09345297267586
 20
1.26558474889053
 30
0.0
 40
0.0393700789999999
 50
207.000000000815
 51
297.000000000817
  0
LINE
  8
4
  6
CONTINUOUS
 62
4
 10
3.46362946491258
 20
1.25823258729486
 30
0.0
 11
3.2972450929374
 21
1.31229414689162
 31
0.0
  0
LINE
  8
4
  6
CONTINUOUS
 62
4
 10
3.51323865857304
 20
1.28350973399481
 30
0.0
 11
3.5673002181701
 21
1.44989410597022
 31
0.0
  0
ARC
  8
4
  6
CONTINUOUS
 62
4
 10
3.47579548839284
 20
1.29567575747506
 30
0.0
 40
0.0393700789999997
 50
252.000000000962
 51
342.000000000964
  0
LINE
  8
4
  6
CONTINUOUS
 62
4
 10
3.74274855960929
 20
1.5522313020515
 30
0.0
 11
3.58686974650963
 21
1.47280707973643
 31
0.0
  0
LINE
  8
4
  6
CONTINUOUS
 62
4
 10
3.75995391501508
 20
1.60518394113864
 30
0.0
 11
3.68052969270001
 21
1.76106275423831
 31
0.0
  0
ARC
  8
4
  6
CONTINUOUS
 62
4
 10
3.72487491776862
 20
1.58731029929796
 30
0.0
 40
0.0393700789999997
 50
297.000000001108
 51
27.0000000011109
  0
LINE
  8
4
  6
CONTINUOUS
 62
4
 10
3.7322270793624
 20
1.95748679153472
 30
0.0
 11
3.6781655197662
 21
1.79110241955905
 31
0.0
  0
LINE
  8
4
  6
CONTINUOUS
 62
4
 10
3.7069499326622
 20
2.00709598519505
 30
0.0
 11
3.54056556069096
 21
2.06115754478951
 31
0.0
  0
ARC
  8
4
  6
CONTINUOUS
 62
4
 10
3.69478390918213
 20
1.96965281501478
 30
0.0
 40
0.039370079
 50
342.000000001254
 51
72.0000000012567
  0
ARC
  8
4
  6
CONTINUOUS
 62
4
 10
3.21152327058658
 20
2.20946601656673
 30
0.0
 40
0.0393700790000005
 50
252.000000000231
 51
297.00000000023
  0
ARC
  8
4
  6
CONTINUOUS
 62
4
 10
2.89185895169149
 20
2.0465889107917
 30
0.0
 40
0.0393700790000004
 50
297.000000000524
 51
342.000000000378
  0
ARC
  8
4
  6
CONTINUOUS
 62
4
 10
2.78099365009184
 20
1.70538059720381
 30
0.0
 40
0.0393700790000006
 50
342.00000000067
 51
27.0000000005244
  0
ARC
  8
4
  6
CONTINUOUS
 62
4
 10
2.9438707558684
 20
1.38571627830976
 30
0.0
 40
0.0393700789999999
 50
27.0000000008176
 51
72.0000000002327
  0
ARC
  8
4
  6
CONTINUOUS
 62
4
 10
3.28507906945667
 20
1.27485097671156
 30
0.0
 40
0.0393700789999993
 50
72.0000000002328
 51
117.000000000818
  0
ARC
  8
4
  6
CONTINUOUS
 62
4
 10
3.60474338835031
 20
1.43772808248996
 30
0.0
 40
0.0393700790000001
 50
117.000000001112
 51
162.000000000965
  0
ARC
  8
4
  6
CONTINUOUS
 62
4
 10
3.71560868994647
 20
1.77893639607898
 30
0.0
 40
0.0393700790000001
 50
162.000000001253
 51
207.000000001106
  0
ARC
  8
4
  6
CONTINUOUS
 62
4
 10
3.55273158417169
 20
2.09860071496956
 30
0.0
 40
0.0393700790000009
 50
207.000000000232
 51
252.000000000232
  0
LINE
  8
4
  6
CONTINUOUS
 62
4
 10
-0.396035252180579
 20
-4.95407789149101
 30
0.0
 11
-0.27232912569113
 21
-4.83037176500157
 31
0.0
  0
LINE
  8
4
  6
CONTINUOUS
 62
4
 10
-0.39603525218391
 20
-4.65098793883529
 30
0.0
 11
-0.27232912569113
 21
-4.77469406532807
 31
0.0
  0
ARC
  8
4
  6
CONTINUOUS
 62
4
 10
-0.300167975527879
 20
-4.80253291516482
 30
0.0
 40
0.0393700789999996
 50
314.999999999999
 51
45.000000000001
  0
LINE
  8
4
  6
CONTINUOUS
 62
4
 10
-0.40756648134716
 20
-4.62314908899854
 30
0.0
 11
-0.407566481347649
 21
-4.44820220716381
 31
0.0
  0
LINE
  8
4
  6
CONTINUOUS
 62
4
 10
-0.621883442182539
 20
-4.40883212816436
 30
0.0
 11
-0.44693656034775
 21
-4.40883212816392
 31
0.0
  0
ARC
  8
4
  6
CONTINUOUS
 62
4
 10
-0.446936560347649
 20
-4.44820220716391
 30
0.0
 40
0.0393700789999996
 50
1.43602043868078E-10
 51
90.0000000001453
  0
LINE
  8
4
  6
CONTINUOUS
 62
4
 10
-0.649722292019249
 20
-4.39730089900125
 30
0.0
 11
-0.773428418512689
 21
-4.27359477250907
 31
0.0
  0
LINE
  8
4
  6
CONTINUOUS
 62
4
 10
-0.95281224467838
 20
-4.39730089900281
 30
0.0
 11
-0.829106118186189
 21
-4.27359477250935
 31
0.0
  0
ARC
  8
4
  6
CONTINUOUS
 62
4
 10
-0.801267268349299
 20
-4.30143362234596
 30
0.0
 40
0.0393700790000001
 50
45.0000000002904
 51
135.000000000292
  0
LINE
  8
4
  6
CONTINUOUS
 62
4
 10
-0.980651094514969
 20
-4.4088321281662
 30
0.0
 11
-1.15559797634976
 21
-4.40883212816754
 31
0.0
  0
LINE
  8
4
  6
CONTINUOUS
 62
4
 10
-1.19496805534799
 20
-4.6231490890028
 30
0.0
 11
-1.19496805534945
 21
-4.44820220716784
 31
0.0
  0
ARC
  8
4
  6
CONTINUOUS
 62
4
 10
-1.15559797634945
 20
-4.44820220716754
 30
0.0
 40
0.0393700789999997
 50
90.0000000004368
 51
180.000000000439
  0
LINE
  8
4
  6
CONTINUOUS
 62
4
 10
-1.20649928451096
 20
-4.65098793883927
 30
0.0
 11
-1.33020541100263
 21
-4.77469406533347
 31
0.0
  0
LINE
  8
4
  6
CONTINUOUS
 62
4
 10
-1.20649928450819
 20
-4.95407789149832
 30
0.0
 11
-1.33020541100207
 21
-4.83037176500697
 31
0.0
  0
ARC
  8
4
  6
CONTINUOUS
 62
4
 10
-1.30236656116588
 20
-4.80253291517022
 30
0.0
 40
0.0393700790000009
 50
134.999999999999
 51
225.000000000001
  0
LINE
  8
4
  6
CONTINUOUS
 62
4
 10
-1.19496805534466
 20
-4.98191674133536
 30
0.0
 11
-1.19496805534222
 21
-5.15686362316985
 31
0.0
  0
LINE
  8
4
  6
CONTINUOUS
 62
4
 10
-0.98065109450692
 20
-5.19623370216711
 30
0.0
 11
-1.15559797634171
 21
-5.19623370216934
 31
0.0
  0
ARC
  8
4
  6
CONTINUOUS
 62
4
 10
-1.15559797634222
 20
-5.15686362316934
 30
0.0
 40
0.0393700790000004
 50
180.000000000727
 51
270.000000000728
  0
LINE
  8
4
  6
CONTINUOUS
 62
4
 10
-0.952812244670099
 20
-5.20776493132994
 30
0.0
 11
-0.82910611817539
 21
-5.33147105782086
 31
0.0
  0
LINE
  8
4
  6
CONTINUOUS
 62
4
 10
-0.649722292010959
 20
-5.20776493132529
 30
0.0
 11
-0.773428418501889
 21
-5.33147105782
 31
0.0
  0
ARC
  8
4
  6
CONTINUOUS
 62
4
 10
-0.801267268339059
 20
-5.30363220798368
 30
0.0
 40
0.0393700790000003
 50
225.000000000873
 51
315.000000000875
  0
LINE
  8
4
  6
CONTINUOUS
 62
4
 10
-0.621883442174489
 20
-5.19623370216161
 30
0.0
 11
-0.44693656033971
 21
-5.19623370215849
 31
0.0
  0
LINE
  8
4
  6
CONTINUOUS
 62
4
 10
-0.40756648134383
 20
-4.98191674132776
 30
0.0
 11
-0.407566481340409
 21
-5.15686362315779
 31
0.0
  0
ARC
  8
4
  6
CONTINUOUS
 62
4
 10
-0.446936560340409
 20
-5.15686362315849
 30
0.0
 40
0.0393700789999993
 50
270.000000001019
 51
1.02351521871369E-9
  0
ARC
  8
4
  6
CONTINUOUS
 62
4
 10
-0.36819640234716
 20
-4.62314908899854
 30
0.0
 40
0.0393700789999995
 50
179.999999999998
 51
224.999999999998
  0
ARC
  8
4
  6
CONTINUOUS
 62
4
 10
-0.621883442182639
 20
-4.36946204916436
 30
0.0
 40
0.0393700790000002
 50
225.00000000029
 51
270.000000000144
  0
ARC
  8
4
  6
CONTINUOUS
 62
4
 10
-0.980651094515277
 20
-4.3694620491662
 30
0.0
 40
0.039370079
 50
270.000000000433
 51
315.000000000286
  0
ARC
  8
4
  6
CONTINUOUS
 62
4
 10
-1.23433813434799
 20
-4.6231490890028
 30
0.0
 40
0.0393700789999994
 50
315.000000000584
 51
359.999999999999
  0
ARC
  8
4
  6
CONTINUOUS
 62
4
 10
-1.23433813434466
 20
-4.98191674133536
 30
0.0
 40
0.0393700789999995
 50
359.999999999999
 51
45.000000000585
  0
ARC
  8
4
  6
CONTINUOUS
 62
4
 10
-0.980651094506419
 20
-5.23560378116711
 30
0.0
 40
0.0393700790000004
 50
45.0000000008775
 51
90.0000000007314
  0
ARC
  8
4
  6
CONTINUOUS
 62
4
 10
-0.621883442173781
 20
-5.23560378116161
 30
0.0
 40
0.0393700789999991
 50
90.0000000010224
 51
135.000000000876
  0
ARC
  8
4
  6
CONTINUOUS
 62
4
 10
-0.36819640234383
 20
-4.98191674132776
 30
0.0
 40
0.0393700790000001
 50
135
 51
179.999999999999
  0
ARC
  8
4
  6
CONTINUOUS
 62
4
 10
-2.76977120534674
 20
-4.80253291516475
 30
0.0
 40
0.787401575
 50
359.999999999992
 51
180
  0
ARC
  8
4
  6
CONTINUOUS
 62
4
 10
-2.76977120534674
 20
-4.80253291516488
 30
0.0
 40
0.787401575
 50
179.999999999992
 51
359.999999999992
  0
LINE
  8
4
  6
CONTINUOUS
 62
4
 10
-1.89211861842179
 20
-2.59180584203542
 30
0.0
 11
-1.97154284073231
 21
-2.43592702893878
 31
0.0
  0
LINE
  8
4
  6
CONTINUOUS
 62
4
 10
-2.18037429292002
 20
-2.49814589584485
 30
0.0
 11
-2.02449547981919
 21
-2.41872167353219
 31
0.0
  0
ARC
  8
4
  6
CONTINUOUS
 62
4
 10
-2.00662183797905
 20
-2.45380067077892
 30
0.0
 40
0.039370079
 50
27.0000000002321
 51
117.000000000234
  0
LINE
  8
4
  6
CONTINUOUS
 62
4
 10
-2.21041395824089
 20
-2.50051006877816
 30
0.0
 11
-2.37679833021569
 21
-2.44644850917947
 31
0.0
  0
LINE
  8
4
  6
CONTINUOUS
 62
4
 10
-2.48046908347516
 20
-2.63811002785377
 30
0.0
 11
-2.42640752387641
 21
-2.47172565587892
 31
0.0
  0
ARC
  8
4
  6
CONTINUOUS
 62
4
 10
-2.38896435369633
 20
-2.48389167935956
 30
0.0
 40
0.0393700789999996
 50
72.0000000003779
 51
162.00000000038
  0
LINE
  8
4
  6
CONTINUOUS
 62
4
 10
-2.50003861181493
 20
-2.66102300161979
 30
0.0
 11
-2.65591742491541
 21
-2.74044722393326
 31
0.0
  0
LINE
  8
4
  6
CONTINUOUS
 62
4
 10
-2.59369855800825
 20
-2.94927867612071
 30
0.0
 11
-2.67312278032174
 21
-2.79339986302023
 31
0.0
  0
ARC
  8
4
  6
CONTINUOUS
 62
4
 10
-2.63804378307509
 20
-2.77552622117991
 30
0.0
 40
0.0393700789999999
 50
117.000000000523
 51
207.000000000525
  0
LINE
  8
4
  6
CONTINUOUS
 62
4
 10
-2.59133438507475
 20
-2.97931834144147
 30
0.0
 11
-2.64539594467265
 21
-3.14570271341659
 31
0.0
  0
LINE
  8
4
  6
CONTINUOUS
 62
4
 10
-2.45373442599761
 20
-3.24937346667502
 30
0.0
 11
-2.62011879797295
 21
-3.19531190707719
 31
0.0
  0
ARC
  8
4
  6
CONTINUOUS
 62
4
 10
-2.60795277449251
 20
-3.15786873689704
 30
0.0
 40
0.0393700790000002
 50
162.000000000671
 51
252.000000000672
  0
LINE
  8
4
  6
CONTINUOUS
 62
4
 10
-2.43082145223179
 20
-3.26894299501458
 30
0.0
 11
-2.35139722991743
 21
-3.42482180811481
 31
0.0
  0
LINE
  8
4
  6
CONTINUOUS
 62
4
 10
-2.14256577773057
 20
-3.36260294120672
 30
0.0
 11
-2.29844459083038
 21
-3.44202716352087
 31
0.0
  0
ARC
  8
4
  6
CONTINUOUS
 62
4
 10
-2.31631823267088
 20
-3.40694816627431
 30
0.0
 40
0.039370079
 50
207.000000000815
 51
297.000000000817
  0
LINE
  8
4
  6
CONTINUOUS
 62
4
 10
-2.11252611240934
 20
-3.36023876827322
 30
0.0
 11
-1.94614174043416
 21
-3.41430032786998
 31
0.0
  0
LINE
  8
4
  6
CONTINUOUS
 62
4
 10
-1.84247098717664
 20
-3.22263880919462
 30
0.0
 11
-1.8965325467737
 21
-3.38902318117003
 31
0.0
  0
ARC
  8
4
  6
CONTINUOUS
 62
4
 10
-1.9339757169539
 20
-3.37685715768978
 30
0.0
 40
0.0393700790000006
 50
252.00000000096
 51
342.000000000962
  0
LINE
  8
4
  6
CONTINUOUS
 62
4
 10
-1.82290145883711
 20
-3.19972583542841
 30
0.0
 11
-1.66702264573745
 21
-3.12030161311334
 31
0.0
  0
LINE
  8
4
  6
CONTINUOUS
 62
4
 10
-1.72924151264673
 20
-2.91147016092653
 30
0.0
 11
-1.64981729033166
 21
-3.0673489740262
 31
0.0
  0
ARC
  8
4
  6
CONTINUOUS
 62
4
 10
-1.68489628757812
 20
-3.08522261586688
 30
0.0
 40
0.0393700789999998
 50
297.000000001108
 51
27.0000000011114
  0
LINE
  8
4
  6
CONTINUOUS
 62
4
 10
-1.73160568558054
 20
-2.88143049560579
 30
0.0
 11
-1.67754412598434
 21
-2.71504612363012
 31
0.0
  0
LINE
  8
4
  6
CONTINUOUS
 62
4
 10
-1.86920564465578
 20
-2.61137537037533
 30
0.0
 11
-1.70282127268454
 21
-2.66543692996979
 31
0.0
  0
ARC
  8
4
  6
CONTINUOUS
 62
4
 10
-1.71498729616461
 20
-2.70288010015006
 30
0.0
 40
0.039370079
 50
342.000000001254
 51
72.0000000012567
  0
ARC
  8
4
  6
CONTINUOUS
 62
4
 10
-2.19824793476016
 20
-2.46306689859811
 30
0.0
 40
0.0393700790000005
 50
252.00000000023
 51
297.00000000023
  0
ARC
  8
4
  6
CONTINUOUS
 62
4
 10
-2.51791225365525
 20
-2.62594400437314
 30
0.0
 40
0.0393700789999996
 50
297.000000000524
 51
342.000000000378
  0
ARC
  8
4
  6
CONTINUOUS
 62
4
 10
-2.6287775552549
 20
-2.96715231796103
 30
0.0
 40
0.0393700789999999
 50
342.00000000067
 51
27.0000000005246
  0
ARC
  8
4
  6
CONTINUOUS
 62
4
 10
-2.46590044947834
 20
-3.28681663685508
 30
0.0
 40
0.0393700789999997
 50
27.0000000008179
 51
72.000000000233
  0
ARC
  8
4
  6
CONTINUOUS
 62
4
 10
-2.12469213589007
 20
-3.39768193845328
 30
0.0
 40
0.0393700789999993
 50
72.0000000002328
 51
117.000000000818
  0
ARC
  8
4
  6
CONTINUOUS
 62
4
 10
-1.80502781699643
 20
-3.23480483267488
 30
0.0
 40
0.0393700790000003
 50
117.000000001112
 51
162.000000000965
  0
ARC
  8
4
  6
CONTINUOUS
 62
4
 10
-1.69416251540027
 20
-2.89359651908586
 30
0.0
 40
0.0393700790000006
 50
162.000000001251
 51
207.000000001104
  0
ARC
  8
4
  6
CONTINUOUS
 62
4
 10
-1.85703962117505
 20
-2.57393220019528
 30
0.0
 40
0.0393700789999994
 50
207.000000000231
 51
252.000000000231
  0
LINE
  8
4
  6
CONTINUOUS
 62
4
 10
-4.60108802948583
 20
-3.28468346781225
 30
0.0
 11
-4.77388102489259
 21
-3.3120511896832
 31
0.0
  0
LINE
  8
4
  6
CONTINUOUS
 62
4
 10
-4.77923983377019
 20
-3.52988839033845
 30
0.0
 11
-4.80660755564187
 21
-3.35709539492703
 31
0.0
  0
ARC
  8
4
  6
CONTINUOUS
 62
4
 10
-4.76772218764531
 20
-3.35093655767976
 30
0.0
 40
0.0393700789999992
 50
99.0000000004668
 51
189.000000000469
  0
LINE
  8
4
  6
CONTINUOUS
 62
4
 10
-4.78627413878568
 20
-3.55918837940325
 30
0.0
 11
-4.88910533586113
 21
-3.70072337992158
 31
0.0
  0
LINE
  8
4
  6
CONTINUOUS
 62
4
 10
-4.73886042417909
 20
-3.85854679179568
 30
0.0
 11
-4.88039542469744
 21
-3.75571559472016
 31
0.0
  0
ARC
  8
4
  6
CONTINUOUS
 62
4
 10
-4.85725427288
 20
-3.72386453173902
 30
0.0
 40
0.0393700790000001
 50
144.00000000061
 51
234.000000000612
  0
LINE
  8
4
  6
CONTINUOUS
 62
4
 10
-4.72311620800001
 20
-3.88423901752934
 30
0.0
 11
-4.69574848612744
 21
-4.05703201294067
 31
0.0
  0
LINE
  8
4
  6
CONTINUOUS
 62
4
 10
-4.47791128547211
 20
-4.06239082181715
 30
0.0
 11
-4.65070428088344
 21
-4.08975854368972
 31
0.0
  0
ARC
  8
4
  6
CONTINUOUS
 62
4
 10
-4.65686311813091
 20
-4.0508731756932
 30
0.0
 40
0.039370079000001
 50
189.000000000755
 51
279.000000000757
  0
LINE
  8
4
  6
CONTINUOUS
 62
4
 10
-4.44861129640735
 20
-4.06942512683243
 30
0.0
 11
-4.30707629588848
 21
-4.17225632390722
 31
0.0
  0
LINE
  8
4
  6
CONTINUOUS
 62
4
 10
-4.14925288401513
 20
-4.02201141222417
 30
0.0
 11
-4.25208408108994
 21
-4.16354641274326
 31
0.0
  0
ARC
  8
4
  6
CONTINUOUS
 62
4
 10
-4.28393514407119
 20
-4.14040526092597
 30
0.0
 40
0.0393700790000009
 50
234.000000000901
 51
324.000000000902
  0
LINE
  8
4
  6
CONTINUOUS
 62
4
 10
-4.12356065828173
 20
-4.0062671960452
 30
0.0
 11
-3.95076766287037
 21
-3.97889947417172
 31
0.0
  0
LINE
  8
4
  6
CONTINUOUS
 62
4
 10
-3.94540885399495
 20
-3.76106227351665
 30
0.0
 11
-3.91804113212154
 21
-3.93385526892755
 31
0.0
  0
ARC
  8
4
  6
CONTINUOUS
 62
4
 10
-3.95692650011804
 20
-3.94001410617522
 30
0.0
 40
0.0393700789999989
 50
279.000000001051
 51
9.00000000105401
  0
LINE
  8
4
  6
CONTINUOUS
 62
4
 10
-3.93837454897953
 20
-3.73176228445145
 30
0.0
 11
-3.8355433519058
 21
-3.59022728393217
 31
0.0
  0
LINE
  8
4
  6
CONTINUOUS
 62
4
 10
-3.98578826358944
 20
-3.43240387205959
 30
0.0
 11
-3.84425326307004
 21
-3.53523506913368
 31
0.0
  0
ARC
  8
4
  6
CONTINUOUS
 62
4
 10
-3.86739441488716
 20
-3.56708613211504
 30
0.0
 40
0.0393700790000001
 50
324.000000001195
 51
54.000000001198
  0
LINE
  8
4
  6
CONTINUOUS
 62
4
 10
-4.00153247976878
 20
-3.40671164632609
 30
0.0
 11
-4.02890020164312
 21
-3.23391865091505
 31
0.0
  0
LINE
  8
4
  6
CONTINUOUS
 62
4
 10
-4.24673740229851
 20
-3.22855984204079
 30
0.0
 11
-4.07394440688746
 21
-3.20119212016645
 31
0.0
  0
ARC
  8
4
  6
CONTINUOUS
 62
4
 10
-4.06778556963959
 20
-3.24007748816292
 30
0.0
 40
0.039370078999999
 50
9.00000000134165
 51
99.0000000013433
  0
LINE
  8
4
  6
CONTINUOUS
 62
4
 10
-4.27603739136334
 20
-3.22152553702581
 30
0.0
 11
-4.41757239188326
 21
-3.11869433995246
 31
0.0
  0
LINE
  8
4
  6
CONTINUOUS
 62
4
 10
-4.57539580375203
 20
-3.26893925163322
 30
0.0
 11
-4.47256460668171
 21
-3.12740425111698
 31
0.0
  0
ARC
  8
4
  6
CONTINUOUS
 62
4
 10
-4.44071354370022
 20
-3.15054540293394
 30
0.0
 40
0.0393700789999997
 50
54.0000000014888
 51
144.000000001491
  0
ARC
  8
4
  6
CONTINUOUS
 62
4
 10
-4.81812520176675
 20
-3.53604722758572
 30
0.0
 40
0.0393700790000002
 50
324.000000000468
 51
9.00000000046866
  0
ARC
  8
4
  6
CONTINUOUS
 62
4
 10
-4.76200157599654
 20
-3.89039785477681
 30
0.0
 40
0.0393700790000005
 50
9.00000000075995
 51
54.0000000006139
  0
ARC
  8
4
  6
CONTINUOUS
 62
4
 10
-4.47175244822463
 20
-4.10127618981367
 30
0.0
 40
0.0393700789999988
 50
54.0000000009049
 51
99.0000000007586
  0
ARC
  8
4
  6
CONTINUOUS
 62
4
 10
-4.11740182103406
 20
-4.0451525640417
 30
0.0
 40
0.0393700790000009
 50
99.0000000010519
 51
144.000000000467
  0
ARC
  8
4
  6
CONTINUOUS
 62
4
 10
-3.90652348599846
 20
-3.75490343626898
 30
0.0
 40
0.0393700789999996
 50
144.000000000466
 51
189.000000001052
  0
ARC
  8
4
  6
CONTINUOUS
 62
4
 10
-3.96264711177232
 20
-3.40055280907822
 30
0.0
 40
0.0393700790000013
 50
189.000000001345
 51
234.000000001198
  0
ARC
  8
4
  6
CONTINUOUS
 62
4
 10
-4.25289623954638
 20
-3.18967447404432
 30
0.0
 40
0.0393700790000025
 50
234.000000001488
 51
279.000000001342
  0
ARC
  8
4
  6
CONTINUOUS
 62
4
 10
-4.6072468667331
 20
-3.24579809981569
 30
0.0
 40
0.0393700790000003
 50
279.000000000465
 51
324.000000000465
  0
LINE
  8
4
  6
CONTINUOUS
 62
4
 10
-4.77923983374494
 20
-6.07517744003689
 30
0.0
 11
-4.80660755561236
 21
-6.24797043544421
 31
0.0
  0
LINE
  8
4
  6
CONTINUOUS
 62
4
 10
-4.60108802945018
 20
-6.32038236255553
 30
0.0
 11
-4.77388102486215
 21
-6.29301464068737
 31
0.0
  0
ARC
  8
4
  6
CONTINUOUS
 62
4
 10
-4.76772218761567
 20
-6.25412927269069
 30
0.0
 40
0.0393700789999997
 50
171.000000000699
 51
261.0000000007
  0
LINE
  8
4
  6
CONTINUOUS
 62
4
 10
-4.57539580371606
 20
-6.33612657873403
 30
0.0
 11
-4.47256460663693
 21
-6.47766157924968
 31
0.0
  0
LINE
  8
4
  6
CONTINUOUS
 62
4
 10
-4.2760373913224
 20
-6.38354029333283
 30
0.0
 11
-4.41757239183812
 21
-6.48637149041196
 31
0.0
  0
ARC
  8
4
  6
CONTINUOUS
 62
4
 10
-4.44071354365639
 20
-6.45452042743142
 30
0.0
 40
0.0393700789999999
 50
216.000000000843
 51
306.000000000845
  0
LINE
  8
4
  6
CONTINUOUS
 62
4
 10
-4.24673740225785
 20
-6.37650598831665
 30
0.0
 11
-4.07394440684569
 21
-6.40387371018393
 31
0.0
  0
LINE
  8
4
  6
CONTINUOUS
 62
4
 10
-4.00153247973541
 20
-6.19835418402133
 30
0.0
 11
-4.02890020160269
 21
-6.3711471794335
 31
0.0
  0
ARC
  8
4
  6
CONTINUOUS
 62
4
 10
-4.06778556959941
 20
-6.36498834218722
 30
0.0
 40
0.0393700789999999
 50
261.00000000099
 51
351.000000000992
  0
LINE
  8
4
  6
CONTINUOUS
 62
4
 10
-3.98578826355711
 20
-6.17266195828719
 30
0.0
 11
-3.84425326304192
 21
-6.06983076120733
 31
0.0
  0
LINE
  8
4
  6
CONTINUOUS
 62
4
 10
-3.93837454895998
 20
-5.87330354589321
 30
0.0
 11
-3.83554335187992
 21
-6.01483854640848
 31
0.0
  0
ARC
  8
4
  6
CONTINUOUS
 62
4
 10
-3.86739441486034
 20
-6.03797969822691
 30
0.0
 40
0.0393700789999998
 50
306.000000001136
 51
36.00000000114
  0
LINE
  8
4
  6
CONTINUOUS
 62
4
 10
-3.94540885397613
 20
-5.84400355682895
 30
0.0
 11
-3.9180411321097
 21
-5.67121056141647
 31
0.0
  0
LINE
  8
4
  6
CONTINUOUS
 62
4
 10
-4.12356065827239
 20
-5.59879863430728
 30
0.0
 11
-3.95076766286036
 21
-5.62616635617364
 31
0.0
  0
ARC
  8
4
  6
CONTINUOUS
 62
4
 10
-3.95692650010645
 20
-5.66505172417038
 30
0.0
 40
0.0393700790000002
 50
351.000000001285
 51
81.0000000012874
  0
LINE
  8
4
  6
CONTINUOUS
 62
4
 10
-4.1492528840069
 20
-5.58305441812871
 30
0.0
 11
-4.25208408108748
 21
-5.4415194176144
 31
0.0
  0
LINE
  8
4
  6
CONTINUOUS
 62
4
 10
-4.44861129640105
 20
-5.53564070353326
 30
0.0
 11
-4.30707629588637
 21
-5.43280950645268
 31
0.0
  0
ARC
  8
4
  6
CONTINUOUS
 62
4
 10
-4.28393514406778
 20
-5.46466056943298
 30
0.0
 40
0.039370079000001
 50
36.0000000014316
 51
126.000000001433
  0
LINE
  8
4
  6
CONTINUOUS
 62
4
 10
-4.47791128546552
 20
-5.54267500854973
 30
0.0
 11
-4.65070428087796
 21
-5.51530728668422
 31
0.0
  0
LINE
  8
4
  6
CONTINUOUS
 62
4
 10
-4.72311620798615
 20
-5.72082681284756
 30
0.0
 11
-4.69574848612063
 21
-5.54803381743511
 31
0.0
  0
ARC
  8
4
  6
CONTINUOUS
 62
4
 10
-4.65686311812385
 20
-5.55419265468099
 30
0.0
 40
0.0393700789999991
 50
81.0000000015769
 51
171.000000001579
  0
LINE
  8
4
  6
CONTINUOUS
 62
4
 10
-4.73886042416418
 20
-5.74651903858186
 30
0.0
 11
-4.88039542467832
 21
-5.84935023566317
 31
0.0
  0
LINE
  8
4
  6
CONTINUOUS
 62
4
 10
-4.78627413876102
 20
-6.04587745097223
 30
0.0
 11
-4.88910533583976
 21
-5.9043424504621
 31
0.0
  0
ARC
  8
4
  6
CONTINUOUS
 62
4
 10
-4.85725427285958
 20
-5.88120129864335
 30
0.0
 40
0.0393700790000004
 50
126.000000001722
 51
216.000000001724
  0
ARC
  8
4
  6
CONTINUOUS
 62
4
 10
-4.60724686669666
 20
-6.35926773055221
 30
0.0
 40
0.0393700790000003
 50
36.000000000702
 51
81.0000000007017
  0
ARC
  8
4
  6
CONTINUOUS
 62
4
 10
-4.25289623950413
 20
-6.41539135631337
 30
0.0
 40
0.0393700790000008
 50
81.0000000009908
 51
126.000000000845
  0
ARC
  8
4
  6
CONTINUOUS
 62
4
 10
-3.96264711173869
 20
-6.20451302126761
 30
0.0
 40
0.039370079
 50
126.00000000114
 51
171.000000000994
  0
ARC
  8
4
  6
CONTINUOUS
 62
4
 10
-3.90652348597938
 20
-5.85016239407503
 30
0.0
 40
0.0393700789999996
 50
171.000000001281
 51
216.000000000696
  0
ARC
  8
4
  6
CONTINUOUS
 62
4
 10
-4.1174018210263
 20
-5.55991326631053
 30
0.0
 40
0.0393700790000015
 50
216.000000000699
 51
261.000000001285
  0
ARC
  8
4
  6
CONTINUOUS
 62
4
 10
-4.47175244821963
 20
-5.50378964055295
 30
0.0
 40
0.0393700790000016
 50
261.000000001574
 51
306.000000001428
  0
ARC
  8
4
  6
CONTINUOUS
 62
4
 10
-4.76200157598292
 20
-5.71466797560168
 30
0.0
 40
0.0393700789999976
 50
306.000000001724
 51
351.000000001578
  0
ARC
  8
4
  6
CONTINUOUS
 62
4
 10
-4.81812520174162
 20
-6.06901860279041
 30
0.0
 40
0.0393700790000008
 50
351.000000000697
 51
36.0000000006987
  0
LINE
  8
4
  6
CONTINUOUS
 62
4
 10
-2.18037429286877
 20
-7.10691993447491
 30
0.0
 11
-2.02449547977051
 21
-7.18634415678225
 31
0.0
  0
LINE
  8
4
  6
CONTINUOUS
 62
4
 10
-1.89211861837451
 20
-7.01325998827211
 30
0.0
 11
-1.97154284068399
 21
-7.16913880137457
 31
0.0
  0
ARC
  8
4
  6
CONTINUOUS
 62
4
 10
-2.00662183793109
 20
-7.15126515953515
 30
0.0
 40
0.0393700790000001
 50
243.000000000931
 51
333.000000000933
  0
LINE
  8
4
  6
CONTINUOUS
 62
4
 10
-1.8692056446089
 20
-6.99369045993173
 30
0.0
 11
-1.7028212726355
 21
-6.93962890032871
 31
0.0
  0
LINE
  8
4
  6
CONTINUOUS
 62
4
 10
-1.73160568554032
 20
-6.72363533469387
 30
0.0
 11
-1.67754412593732
 21
-6.89001970666735
 31
0.0
  0
ARC
  8
4
  6
CONTINUOUS
 62
4
 10
-1.71498729611709
 20
-6.90218573014894
 30
0.0
 40
0.0393700789999999
 50
288.000000001078
 51
18.0000000010816
  0
LINE
  8
4
  6
CONTINUOUS
 62
4
 10
-1.72924151260774
 20
-6.69359566937304
 30
0.0
 11
-1.64981729029903
 21
-6.53771685627013
 31
0.0
  0
LINE
  8
4
  6
CONTINUOUS
 62
4
 10
-1.82290145880989
 20
-6.40533999487499
 30
0.0
 11
-1.66702264570698
 21
-6.4847642171837
 31
0.0
  0
ARC
  8
4
  6
CONTINUOUS
 62
4
 10
-1.68489628754622
 20
-6.51984321443089
 30
0.0
 40
0.0393700789999998
 50
333.000000001225
 51
63.0000000012283
  0
LINE
  8
4
  6
CONTINUOUS
 62
4
 10
-1.84247098715036
 20
-6.38242702110957
 30
0.0
 11
-1.8965325467542
 21
-6.21604264913638
 31
0.0
  0
LINE
  8
4
  6
CONTINUOUS
 62
4
 10
-2.11252611238903
 20
-6.24482706204247
 30
0.0
 11
-1.9461417404157
 21
-6.19076550243845
 31
0.0
  0
ARC
  8
4
  6
CONTINUOUS
 62
4
 10
-1.93397571693392
 20
-6.22820867261816
 30
0.0
 40
0.0393700790000001
 50
18.0000000013724
 51
108.000000001374
  0
LINE
  8
4
  6
CONTINUOUS
 62
4
 10
-2.14256577770959
 20
-6.24246288910995
 30
0.0
 11
-2.29844459081306
 21
-6.16303866680196
 31
0.0
  0
LINE
  8
4
  6
CONTINUOUS
 62
4
 10
-2.43082145220719
 20
-6.33612283531323
 30
0.0
 11
-2.3513972298994
 21
-6.18024402221018
 31
0.0
  0
ARC
  8
4
  6
CONTINUOUS
 62
4
 10
-2.31631823265212
 20
-6.19811766404925
 30
0.0
 40
0.0393700789999996
 50
63.0000000015187
 51
153.000000001521
  0
LINE
  8
4
  6
CONTINUOUS
 62
4
 10
-2.45373442597298
 20
-6.35569236365398
 30
0.0
 11
-2.62011879794555
 21
-6.40975392325878
 31
0.0
  0
LINE
  8
4
  6
CONTINUOUS
 62
4
 10
-2.59133438503853
 20
-6.62574748889332
 30
0.0
 11
-2.64539594464323
 21
-6.4593631169204
 31
0.0
  0
ARC
  8
4
  6
CONTINUOUS
 62
4
 10
-2.60795277446357
 20
-6.44719709343843
 30
0.0
 40
0.0393700789999997
 50
108.000000001665
 51
198.000000001667
  0
LINE
  8
4
  6
CONTINUOUS
 62
4
 10
-2.5936985579708
 20
-6.65578715421418
 30
0.0
 11
-2.67312278027792
 21
-6.8116659673179
 31
0.0
  0
LINE
  8
4
  6
CONTINUOUS
 62
4
 10
-2.50003861176571
 20
-6.94404282871128
 30
0.0
 11
-2.65591742486943
 21
-6.86461860640416
 31
0.0
  0
ARC
  8
4
  6
CONTINUOUS
 62
4
 10
-2.63804378303054
 20
-6.82953960915678
 30
0.0
 40
0.0393700789999997
 50
153.000000001807
 51
243.00000000181
  0
LINE
  8
4
  6
CONTINUOUS
 62
4
 10
-2.480469083425
 20
-6.96695580247649
 30
0.0
 11
-2.42640752381946
 21
-7.13334017444913
 31
0.0
  0
LINE
  8
4
  6
CONTINUOUS
 62
4
 10
-2.21041395818968
 20
-7.10455576154221
 30
0.0
 11
-2.37679833015771
 21
-7.15861732114656
 31
0.0
  0
ARC
  8
4
  6
CONTINUOUS
 62
4
 10
-2.38896435363987
 20
-7.12117415096697
 30
0.0
 40
0.0393700789999989
 50
198.000000001955
 51
288.000000001957
  0
ARC
  8
4
  6
CONTINUOUS
 62
4
 10
-1.8570396211274
 20
-7.03113363011154
 30
0.0
 40
0.039370078999999
 50
108.000000000936
 51
153.000000000935
  0
ARC
  8
4
  6
CONTINUOUS
 62
4
 10
-1.69416251536054
 20
-6.71146931121228
 30
0.0
 40
0.0393700790000004
 50
153.000000001229
 51
198.000000001083
  0
ARC
  8
4
  6
CONTINUOUS
 62
4
 10
-1.80502781697065
 20
-6.37026099762779
 30
0.0
 40
0.0393700789999997
 50
198.000000001373
 51
243.000000001226
  0
ARC
  8
4
  6
CONTINUOUS
 62
4
 10
-2.12469213587052
 20
-6.20738389186267
 30
0.0
 40
0.0393700789999998
 50
243.000000001518
 51
288.000000000933
  0
ARC
  8
4
  6
CONTINUOUS
 62
4
 10
-2.46590044945447
 20
-6.31824919347417
 30
0.0
 40
0.0393700790000007
 50
288.00000000093
 51
333.000000001516
  0
ARC
  8
4
  6
CONTINUOUS
 62
4
 10
-2.62877755521818
 20
-6.6379135123753
 30
0.0
 40
0.0393700790000004
 50
333.000000001809
 51
18.0000000016662
  0
ARC
  8
4
  6
CONTINUOUS
 62
4
 10
-2.51791225360459
 20
-6.97912182595866
 30
0.0
 40
0.0393700789999996
 50
18.0000000019585
 51
63.0000000018119
  0
ARC
  8
4
  6
CONTINUOUS
 62
4
 10
-2.19824793470819
 20
-7.14199893172201
 30
0.0
 40
0.0393700790000008
 50
63.0000000009347
 51
108.000000000933
  0
ARC
  8
4
  6
CONTINUOUS
 62
4
 10
3.8049190358425
 20
2.03846107230417
 30
0.0
 40
0.0393700789999999
 50
342.000000001254
 51
72.0000000012567
  0
LINE
  8
5
  6
CONTINUOUS
 62
5
 10
3.48717128466208
 20
2.74759034524442
 30
0.0
 11
3.24161830571916
 21
2.62247485326705
 31
0.0
  0
LINE
  8
5
  6
CONTINUOUS
 62
5
 10
3.64602920057864
 20
2.69597427946448
 30
0.0
 11
3.77114469255601
 21
2.45042130052155
 31
0.0
  0
LINE
  8
5
  6
CONTINUOUS
 62
5
 10
3.52559171361309
 20
2.32530580854418
 30
0.0
 11
3.77114469255601
 21
2.45042130052155
 31
0.0
  0
LINE
  8
5
  6
CONTINUOUS
 62
5
 10
3.36673379769654
 20
2.37692187432412
 30
0.0
 11
3.24161830571916
 21
2.62247485326705
 31
0.0
  0
ARC
  8
5
  6
CONTINUOUS
 62
5
 10
3.47197078854479
 20
2.43054279939243
 30
0.0
 40
0.118110236
 50
207.000000001251
 51
297.000000001251
  0
ARC
  8
5
  6
CONTINUOUS
 62
5
 10
3.54079220973039
 20
2.64235335439617
 30
0.0
 40
0.118110236
 50
27.0000000012558
 51
117.000000001257
  0
LINE
  8
5
  6
CONTINUOUS
 62
5
 10
-0.407566481346739
 20
-4.01513134116482
 30
0.0
 11
-0.13197593034674
 21
-4.01513134116482
 31
0.0
  0
LINE
  8
5
  6
CONTINUOUS
 62
5
 10
-0.0138656943467392
 20
-4.40883212816482
 30
0.0
 11
-0.0138656943467392
 21
-4.13324157716482
 31
0.0
  0
LINE
  8
5
  6
CONTINUOUS
 62
5
 10
-0.0138656943467392
 20
-4.40883212816482
 30
0.0
 11
-0.28945624534674
 21
-4.40883212816482
 31
0.0
  0
LINE
  8
5
  6
CONTINUOUS
 62
5
 10
-0.407566481346739
 20
-4.01513134116482
 30
0.0
 11
-0.407566481346739
 21
-4.29072189216482
 31
0.0
  0
ARC
  8
5
  6
CONTINUOUS
 62
5
 10
-0.28945624534674
 20
-4.29072189216482
 30
0.0
 40
0.118110236
 50
179.999999999996
 51
269.999999999996
  0
ARC
  8
5
  6
CONTINUOUS
 62
5
 10
-0.13197593034674
 20
-4.13324157716481
 30
0.0
 40
0.118110236
 50
359.999999999993
 51
89.9999999999983
  0
LINE
  8
5
  6
CONTINUOUS
 62
5
 10
-1.07965576459505
 20
-3.96736742642699
 30
0.0
 11
-0.88478381715251
 21
-3.77249547898345
 31
0.0
  0
LINE
  8
5
  6
CONTINUOUS
 62
5
 10
-0.52287877210269
 20
-3.96736742642557
 30
0.0
 11
-0.717750719546229
 21
-3.77249547898303
 31
0.0
  0
LINE
  8
5
  6
CONTINUOUS
 62
5
 10
-0.52287877210269
 20
-3.96736742642557
 30
0.0
 11
-0.717750719545229
 21
-4.1622393738691
 31
0.0
  0
LINE
  8
5
  6
CONTINUOUS
 62
5
 10
-1.07965576459505
 20
-3.96736742642699
 30
0.0
 11
-0.884783817151519
 21
-4.16223937386953
 31
0.0
  0
ARC
  8
5
  6
CONTINUOUS
 62
5
 10
-0.801267268348588
 20
-4.07872282506618
 30
0.0
 40
0.118110235999999
 50
225.00000000014
 51
315.000000000142
  0
ARC
  8
5
  6
CONTINUOUS
 62
5
 10
-0.801267268349159
 20
-3.85601202778638
 30
0.0
 40
0.118110235999998
 50
45.0000000001448
 51
135.000000000146
  0
LINE
  8
5
  6
CONTINUOUS
 62
5
 10
-1.58866884234875
 20
-4.40883212816884
 30
0.0
 11
-1.58866884235016
 21
-4.13324157716884
 31
0.0
  0
LINE
  8
5
  6
CONTINUOUS
 62
5
 10
-1.19496805535076
 20
-4.01513134116683
 30
0.0
 11
-1.47055860635076
 21
-4.01513134116823
 31
0.0
  0
LINE
  8
5
  6
CONTINUOUS
 62
5
 10
-1.19496805535076
 20
-4.01513134116683
 30
0.0
 11
-1.19496805534935
 21
-4.29072189216683
 31
0.0
  0
LINE
  8
5
  6
CONTINUOUS
 62
5
 10
-1.58866884234875
 20
-4.40883212816884
 30
0.0
 11
-1.31307829134875
 21
-4.40883212816743
 31
0.0
  0
ARC
  8
5
  6
CONTINUOUS
 62
5
 10
-1.31307829134935
 20
-4.29072189216743
 30
0.0
 40
0.118110235999999
 50
270.000000000287
 51
2.90969864479008E-10
  0
ARC
  8
5
  6
CONTINUOUS
 62
5
 10
-1.47055860635016
 20
-4.13324157716823
 30
0.0
 40
0.118110236
 50
90.0000000002917
 51
180.000000000292
  0
LINE
  8
5
  6
CONTINUOUS
 62
5
 10
-1.63643275708315
 20
-5.08092141141739
 30
0.0
 11
-1.83130470452768
 21
-4.88604946397585
 31
0.0
  0
LINE
  8
5
  6
CONTINUOUS
 62
5
 10
-1.63643275708741
 20
-4.52414441892503
 30
0.0
 11
-1.83130470452896
 21
-4.71901636636956
 31
0.0
  0
LINE
  8
5
  6
CONTINUOUS
 62
5
 10
-1.63643275708741
 20
-4.52414441892503
 30
0.0
 11
-1.44156080964289
 21
-4.71901636636658
 31
0.0
  0
LINE
  8
5
  6
CONTINUOUS
 62
5
 10
-1.63643275708315
 20
-5.08092141141739
 30
0.0
 11
-1.44156080964161
 21
-4.88604946397286
 31
0.0
  0
ARC
  8
5
  6
CONTINUOUS
 62
5
 10
-1.52507735844475
 20
-4.80253291516972
 30
0.0
 40
0.118110236
 50
314.999999999999
 51
45.000000000001
  0
ARC
  8
5
  6
CONTINUOUS
 62
5
 10
-1.74778815572582
 20
-4.8025329151727
 30
0.0
 40
0.118110236
 50
135
 51
225
  0
LINE
  8
5
  6
CONTINUOUS
 62
5
 10
-1.1949680553387
 20
-5.58993448916884
 30
0.0
 11
-1.4705586063387
 21
-5.58993448917165
 31
0.0
  0
LINE
  8
5
  6
CONTINUOUS
 62
5
 10
-1.58866884234272
 20
-5.19623370217286
 30
0.0
 11
-1.58866884233991
 21
-5.47182425317286
 31
0.0
  0
LINE
  8
5
  6
CONTINUOUS
 62
5
 10
-1.58866884234272
 20
-5.19623370217286
 30
0.0
 11
-1.31307829134272
 21
-5.19623370217004
 31
0.0
  0
LINE
  8
5
  6
CONTINUOUS
 62
5
 10
-1.1949680553387
 20
-5.58993448916884
 30
0.0
 11
-1.19496805534152
 21
-5.31434393816884
 31
0.0
  0
ARC
  8
5
  6
CONTINUOUS
 62
5
 10
-1.31307829134152
 20
-5.31434393817004
 30
0.0
 40
0.118110236
 50
5.83301006361683E-10
 51
90.0000000005831
  0
ARC
  8
5
  6
CONTINUOUS
 62
5
 10
-1.47055860633991
 20
-5.47182425317166
 30
0.0
 40
0.118110236
 50
180.000000000578
 51
270.000000000578
  0
LINE
  8
5
  6
CONTINUOUS
 62
5
 10
-0.522878772089899
 20
-5.63769840389981
 30
0.0
 11
-0.717750719530449
 21
-5.83257035134534
 31
0.0
  0
LINE
  8
5
  6
CONTINUOUS
 62
5
 10
-1.07965576458226
 20
-5.63769840390691
 30
0.0
 11
-0.884783817136739
 21
-5.83257035134747
 31
0.0
  0
LINE
  8
5
  6
CONTINUOUS
 62
5
 10
-1.07965576458226
 20
-5.63769840390691
 30
0.0
 11
-0.88478381714171
 21
-5.44282645646139
 31
0.0
  0
LINE
  8
5
  6
CONTINUOUS
 62
5
 10
-0.522878772089899
 20
-5.63769840389981
 30
0.0
 11
-0.717750719535429
 21
-5.44282645645926
 31
0.0
  0
ARC
  8
5
  6
CONTINUOUS
 62
5
 10
-0.801267268337499
 20
-5.52634300526347
 30
0.0
 40
0.118110236
 50
45.0000000007298
 51
135.000000000731
  0
ARC
  8
5
  6
CONTINUOUS
 62
5
 10
-0.801267268334658
 20
-5.74905380254326
 30
0.0
 40
0.118110236
 50
225.000000000725
 51
315.000000000726
  0
LINE
  8
5
  6
CONTINUOUS
 62
5
 10
-0.0138656943407094
 20
-5.19623370215276
 30
0.0
 11
-0.0138656943364897
 21
-5.47182425315276
 31
0.0
  0
LINE
  8
5
  6
CONTINUOUS
 62
5
 10
-0.40756648133468
 20
-5.58993448915879
 30
0.0
 11
-0.131975930334679
 21
-5.58993448915457
 31
0.0
  0
LINE
  8
5
  6
CONTINUOUS
 62
5
 10
-0.40756648133468
 20
-5.58993448915879
 30
0.0
 11
-0.4075664813389
 21
-5.31434393815879
 31
0.0
  0
LINE
  8
5
  6
CONTINUOUS
 62
5
 10
-0.0138656943407094
 20
-5.19623370215276
 30
0.0
 11
-0.289456245340709
 21
-5.19623370215698
 31
0.0
  0
ARC
  8
5
  6
CONTINUOUS
 62
5
 10
-0.289456245338901
 20
-5.31434393815698
 30
0.0
 40
0.118110236
 50
90.0000000008758
 51
180.000000000877
  0
ARC
  8
5
  6
CONTINUOUS
 62
5
 10
-0.131975930336487
 20
-5.47182425315457
 30
0.0
 40
0.118110236
 50
270.000000000871
 51
8.75568537150729E-10
  0
LINE
  8
5
  6
CONTINUOUS
 62
5
 10
0.0338982203868303
 20
-4.52414441890372
 30
0.0
 11
0.228770167833351
 21
-4.71901636634328
 31
0.0
  0
LINE
  8
5
  6
CONTINUOUS
 62
5
 10
0.0338982203967806
 20
-5.08092141139608
 30
0.0
 11
0.228770167836331
 21
-4.88604946394956
 31
0.0
  0
LINE
  8
5
  6
CONTINUOUS
 62
5
 10
0.0338982203967806
 20
-5.08092141139608
 30
0.0
 11
-0.16097372704974
 21
-4.88604946395652
 31
0.0
  0
LINE
  8
5
  6
CONTINUOUS
 62
5
 10
0.0338982203868303
 20
-4.52414441890372
 30
0.0
 11
-0.160973727052729
 21
-4.71901636635024
 31
0.0
  0
ARC
  8
5
  6
CONTINUOUS
 62
5
 10
-0.0774571782495791
 20
-4.80253291515338
 30
0.0
 40
0.118110236
 50
135
 51
225
  0
ARC
  8
5
  6
CONTINUOUS
 62
5
 10
0.145253619033192
 20
-4.80253291514642
 30
0.0
 40
0.118110236
 50
314.999999999999
 51
45.000000000001
  0
LINE
  8
5
  6
CONTINUOUS
 62
5
 10
-2.78867319934188
 20
-2.31262225181792
 30
0.0
 11
-2.7035110355948
 21
-2.05052006245965
 31
0.0
  0
LINE
  8
5
  6
CONTINUOUS
 62
5
 10
-2.29258126651425
 20
-2.05985078675081
 30
0.0
 11
-2.55468345587252
 21
-1.97468862300372
 31
0.0
  0
LINE
  8
5
  6
CONTINUOUS
 62
5
 10
-2.29258126651425
 20
-2.05985078675081
 30
0.0
 11
-2.37774343026133
 21
-2.32195297610908
 31
0.0
  0
LINE
  8
5
  6
CONTINUOUS
 62
5
 10
-2.78867319934188
 20
-2.31262225181792
 30
0.0
 11
-2.52657100998362
 21
-2.39778441556501
 31
0.0
  0
ARC
  8
5
  6
CONTINUOUS
 62
5
 10
-2.49007293985043
 20
-2.2854549059759
 30
0.0
 40
0.118110236
 50
252.000000000227
 51
342.000000000228
  0
ARC
  8
5
  6
CONTINUOUS
 62
5
 10
-2.59118152600569
 20
-2.08701813259283
 30
0.0
 40
0.118110236
 50
72.0000000002326
 51
162.000000000234
  0
LINE
  8
5
  6
CONTINUOUS
 62
5
 10
-3.04178639195552
 20
-2.93705728281253
 30
0.0
 11
-3.16690188392914
 21
-2.6915043038677
 31
0.0
  0
LINE
  8
5
  6
CONTINUOUS
 62
5
 10
-2.86973283920192
 20
-2.40753089597831
 30
0.0
 11
-3.11528581814676
 21
-2.53264638795193
 31
0.0
  0
LINE
  8
5
  6
CONTINUOUS
 62
5
 10
-2.86973283920192
 20
-2.40753089597831
 30
0.0
 11
-2.74461734722831
 21
-2.65308387492315
 31
0.0
  0
LINE
  8
5
  6
CONTINUOUS
 62
5
 10
-3.04178639195552
 20
-2.93705728281253
 30
0.0
 11
-2.79623341301068
 21
-2.81194179083892
 31
0.0
  0
ARC
  8
5
  6
CONTINUOUS
 62
5
 10
-2.84985433807737
 20
-2.70670479998985
 30
0.0
 40
0.118110236
 50
297.000000000375
 51
27.0000000003789
  0
ARC
  8
5
  6
CONTINUOUS
 62
5
 10
-3.06166489308007
 20
-2.637883378801
 30
0.0
 40
0.118110236
 50
117.00000000038
 51
207.00000000038
  0
LINE
  8
5
  6
CONTINUOUS
 62
5
 10
-2.77922220203209
 20
-3.55757758254347
 30
0.0
 11
-3.0413243913908
 21
-3.47241541879772
 31
0.0
  0
LINE
  8
5
  6
CONTINUOUS
 62
5
 10
-3.03199366710174
 20
-3.06148564971712
 30
0.0
 11
-3.11715583084749
 21
-3.32358783907582
 31
0.0
  0
LINE
  8
5
  6
CONTINUOUS
 62
5
 10
-3.03199366710174
 20
-3.06148564971712
 30
0.0
 11
-2.76989147774304
 21
-3.14664781346287
 31
0.0
  0
LINE
  8
5
  6
CONTINUOUS
 62
5
 10
-2.77922220203209
 20
-3.55757758254347
 30
0.0
 11
-2.69406003828635
 21
-3.29547539318476
 31
0.0
  0
ARC
  8
5
  6
CONTINUOUS
 62
5
 10
-2.80638954787564
 20
-3.25897732305215
 30
0.0
 40
0.118110236
 50
342.00000000052
 51
72.0000000005248
  0
ARC
  8
5
  6
CONTINUOUS
 62
5
 10
-3.0048263212582
 20
-3.36008590920843
 30
0.0
 40
0.118110236
 50
162.00000000052
 51
252.00000000052
  0
LINE
  8
5
  6
CONTINUOUS
 62
5
 10
-2.15478717103619
 20
-3.81069077515392
 30
0.0
 11
-2.40034014998039
 21
-3.93580626712879
 31
0.0
  0
LINE
  8
5
  6
CONTINUOUS
 62
5
 10
-2.68431355787129
 20
-3.63863722240302
 30
0.0
 11
-2.55919806589642
 21
-3.88419020134722
 31
0.0
  0
LINE
  8
5
  6
CONTINUOUS
 62
5
 10
-2.68431355787129
 20
-3.63863722240302
 30
0.0
 11
-2.43876057892709
 21
-3.51352173042815
 31
0.0
  0
LINE
  8
5
  6
CONTINUOUS
 62
5
 10
-2.15478717103619
 20
-3.81069077515392
 30
0.0
 11
-2.27990266301106
 21
-3.56513779620972
 31
0.0
  0
ARC
  8
5
  6
CONTINUOUS
 62
5
 10
-2.38513965385986
 20
-3.61875872127695
 30
0.0
 40
0.118110236
 50
27.0000000006709
 51
117.000000000672
  0
ARC
  8
5
  6
CONTINUOUS
 62
5
 10
-2.45396107504761
 20
-3.83056927627999
 30
0.0
 40
0.118110236
 50
207.000000000666
 51
297.000000000666
  0
LINE
  8
5
  6
CONTINUOUS
 62
5
 10
-1.53426687130659
 20
-3.54812658522732
 30
0.0
 11
-1.619429035051
 21
-3.81022877458646
 31
0.0
  0
LINE
  8
5
  6
CONTINUOUS
 62
5
 10
-2.03035880413165
 20
-3.8008980502995
 30
0.0
 11
-1.76825661477251
 21
-3.88606021404391
 31
0.0
  0
LINE
  8
5
  6
CONTINUOUS
 62
5
 10
-2.03035880413165
 20
-3.8008980502995
 30
0.0
 11
-1.94519664038724
 21
-3.53879586094036
 31
0.0
  0
LINE
  8
5
  6
CONTINUOUS
 62
5
 10
-1.53426687130659
 20
-3.54812658522732
 30
0.0
 11
-1.79636906066573
 21
-3.46296442148291
 31
0.0
  0
ARC
  8
5
  6
CONTINUOUS
 62
5
 10
-1.83286713079777
 20
-3.57529393107239
 30
0.0
 40
0.118110236
 50
72.0000000008169
 51
162.000000000818
  0
ARC
  8
5
  6
CONTINUOUS
 62
5
 10
-1.73175854464048
 20
-3.77373070445443
 30
0.0
 40
0.118110236
 50
252.000000000812
 51
342.000000000812
  0
LINE
  8
5
  6
CONTINUOUS
 62
5
 10
-1.28115367869933
 20
-2.92369155423013
 30
0.0
 11
-1.15603818672321
 21
-3.16924453317369
 31
0.0
  0
LINE
  8
5
  6
CONTINUOUS
 62
5
 10
-1.45320723144752
 20
-3.4532179410661
 30
0.0
 11
-1.20765425250396
 21
-3.32810244908998
 31
0.0
  0
LINE
  8
5
  6
CONTINUOUS
 62
5
 10
-1.45320723144752
 20
-3.4532179410661
 30
0.0
 11
-1.57832272342365
 21
-3.20766496212254
 31
0.0
  0
LINE
  8
5
  6
CONTINUOUS
 62
5
 10
-1.28115367869933
 20
-2.92369155423013
 30
0.0
 11
-1.52670665764289
 21
-3.04880704620625
 31
0.0
  0
ARC
  8
5
  6
CONTINUOUS
 62
5
 10
-1.47308573257512
 20
-3.15404403705477
 30
0.0
 40
0.118110236
 50
117.000000000965
 51
207.000000000965
  0
ARC
  8
5
  6
CONTINUOUS
 62
5
 10
-1.26127517757173
 20
-3.22286545824145
 30
0.0
 40
0.118110236
 50
297.000000000958
 51
27.000000000963
  0
LINE
  8
5
  6
CONTINUOUS
 62
5
 10
-1.54371786862909
 20
-2.30317125450187
 30
0.0
 11
-1.28161567926952
 21
-2.38833341824495
 31
0.0
  0
LINE
  8
5
  6
CONTINUOUS
 62
5
 10
-1.29094640355438
 20
-2.79926318732564
 30
0.0
 11
-1.20578423981131
 21
-2.53716099796607
 31
0.0
  0
LINE
  8
5
  6
CONTINUOUS
 62
5
 10
-1.29094640355438
 20
-2.79926318732564
 30
0.0
 11
-1.55304859291396
 21
-2.71410102358257
 31
0.0
  0
LINE
  8
5
  6
CONTINUOUS
 62
5
 10
-1.54371786862909
 20
-2.30317125450187
 30
0.0
 11
-1.62888003237216
 21
-2.56527344386145
 31
0.0
  0
ARC
  8
5
  6
CONTINUOUS
 62
5
 10
-1.5165505227825
 20
-2.6017715139929
 30
0.0
 40
0.118110236
 50
162.000000001104
 51
252.000000001104
  0
ARC
  8
5
  6
CONTINUOUS
 62
5
 10
-1.31811374940097
 20
-2.50066292783461
 30
0.0
 40
0.118110236
 50
342.000000001104
 51
72.0000000011095
  0
LINE
  8
5
  6
CONTINUOUS
 62
5
 10
-2.16815289962758
 20
-2.05005806189779
 30
0.0
 11
-1.92259992068466
 21
-1.92494256992042
 31
0.0
  0
LINE
  8
5
  6
CONTINUOUS
 62
5
 10
-1.63862651279073
 20
-2.22211161464329
 30
0.0
 11
-1.7637420047681
 21
-1.97655863570036
 31
0.0
  0
LINE
  8
5
  6
CONTINUOUS
 62
5
 10
-1.63862651279073
 20
-2.22211161464329
 30
0.0
 11
-1.88417949173365
 21
-2.34722710662066
 31
0.0
  0
LINE
  8
5
  6
CONTINUOUS
 62
5
 10
-2.16815289962758
 20
-2.05005806189779
 30
0.0
 11
-2.04303740765021
 21
-2.29561104084072
 31
0.0
  0
ARC
  8
5
  6
CONTINUOUS
 62
5
 10
-1.93780041680195
 20
-2.24199011577241
 30
0.0
 40
0.118110236
 50
207.00000000125
 51
297.00000000125
  0
ARC
  8
5
  6
CONTINUOUS
 62
5
 10
-1.86897899561635
 20
-2.03017956076867
 30
0.0
 40
0.118110235999999
 50
27.0000000012555
 51
117.000000001257
  0
LINE
  8
5
  6
CONTINUOUS
 62
5
 10
-5.14365800409074
 20
-4.05108507028497
 30
0.0
 11
-5.36661544334022
 21
-3.88909700873784
 31
0.0
  0
LINE
  8
5
  6
CONTINUOUS
 62
5
 10
-5.23075711506248
 20
-3.50116292648936
 30
0.0
 11
-5.39274517660962
 21
-3.72412036573883
 31
0.0
  0
LINE
  8
5
  6
CONTINUOUS
 62
5
 10
-5.23075711506248
 20
-3.50116292648936
 30
0.0
 11
-5.007799675813
 21
-3.66315098803649
 31
0.0
  0
LINE
  8
5
  6
CONTINUOUS
 62
5
 10
-5.14365800409074
 20
-4.05108507028497
 30
0.0
 11
-4.9816699425436
 21
-3.8281276310355
 31
0.0
  0
ARC
  8
5
  6
CONTINUOUS
 62
5
 10
-5.0772231306778
 20
-3.75870417617068
 30
0.0
 40
0.118110236
 50
324.00000000046
 51
54.0000000004657
  0
LINE
  8
5
  6
CONTINUOUS
 62
5
 10
-4.62800127687669
 20
-4.48477105793872
 30
0.0
 11
-4.90019885087712
 21
-4.52788291835747
 31
0.0
  0
LINE
  8
5
  6
CONTINUOUS
 62
5
 10
-5.07844332588349
 20
-4.15750575294078
 30
0.0
 11
-5.03533146546474
 21
-4.42970332694121
 31
0.0
  0
LINE
  8
5
  6
CONTINUOUS
 62
5
 10
-5.07844332588349
 20
-4.15750575294078
 30
0.0
 11
-4.80624575188306
 21
-4.11439389252204
 31
0.0
  0
LINE
  8
5
  6
CONTINUOUS
 62
5
 10
-4.62800127687669
 20
-4.48477105793872
 30
0.0
 11
-4.67111313729543
 21
-4.21257348393829
 31
0.0
  0
ARC
  8
5
  6
CONTINUOUS
 62
5
 10
-4.78776924029737
 20
-4.23104999552398
 30
0.0
 40
0.118110236
 50
9.00000000061224
 51
99.0000000006119
  0
ARC
  8
5
  6
CONTINUOUS
 62
5
 10
-4.9186753624628
 20
-4.41122681535553
 30
0.0
 40
0.118110236
 50
189.000000000607
 51
279.000000000606
  0
LINE
  8
5
  6
CONTINUOUS
 62
5
 10
-3.95671460552377
 20
-4.42680899213504
 30
0.0
 11
-4.11870266706977
 21
-4.64976643138535
 31
0.0
  0
LINE
  8
5
  6
CONTINUOUS
 62
5
 10
-4.50663674931894
 20
-4.51390810310959
 30
0.0
 11
-4.28367931006864
 21
-4.67589616465559
 31
0.0
  0
LINE
  8
5
  6
CONTINUOUS
 62
5
 10
-4.50663674931894
 20
-4.51390810310959
 30
0.0
 11
-4.34464868777294
 21
-4.29095066385928
 31
0.0
  0
LINE
  8
5
  6
CONTINUOUS
 62
5
 10
-3.95671460552377
 20
-4.42680899213504
 30
0.0
 11
-4.17967204477407
 21
-4.26482093058904
 31
0.0
  0
ARC
  8
5
  6
CONTINUOUS
 62
5
 10
-4.24909549963839
 20
-4.3603741187236
 30
0.0
 40
0.118110236000001
 50
54.0000000007591
 51
144.00000000076
  0
ARC
  8
5
  6
CONTINUOUS
 62
5
 10
-4.21425585520432
 20
-4.58034297652104
 30
0.0
 40
0.118110236
 50
234.000000000754
 51
324.000000000754
  0
LINE
  8
5
  6
CONTINUOUS
 62
5
 10
-3.52302861787265
 20
-3.91115226491878
 30
0.0
 11
-3.47991675745252
 21
-4.18334983891898
 31
0.0
  0
LINE
  8
5
  6
CONTINUOUS
 62
5
 10
-3.85029392286829
 20
-4.36159431392725
 30
0.0
 11
-3.57809634886808
 21
-4.31848245350711
 31
0.0
  0
LINE
  8
5
  6
CONTINUOUS
 62
5
 10
-3.85029392286829
 20
-4.36159431392725
 30
0.0
 11
-3.89340578328843
 21
-4.08939673992704
 31
0.0
  0
LINE
  8
5
  6
CONTINUOUS
 62
5
 10
-3.52302861787265
 20
-3.91115226491878
 30
0.0
 11
-3.79522619187286
 21
-3.95426412533891
 31
0.0
  0
ARC
  8
5
  6
CONTINUOUS
 62
5
 10
-3.77674968028658
 20
-4.07092022834076
 30
0.0
 40
0.118110236
 50
99.0000000009058
 51
189.000000000906
  0
ARC
  8
5
  6
CONTINUOUS
 62
5
 10
-3.59657286045436
 20
-4.20182635050527
 30
0.0
 40
0.118110236
 50
279.000000000902
 51
9.00000000090543
  0
LINE
  8
5
  6
CONTINUOUS
 62
5
 10
-3.58099068367976
 20
-3.23986559356615
 30
0.0
 11
-3.35803324442862
 21
-3.40185365511101
 31
0.0
  0
LINE
  8
5
  6
CONTINUOUS
 62
5
 10
-3.4938915727024
 20
-3.78978773736088
 30
0.0
 11
-3.33190351115754
 21
-3.56683029810975
 31
0.0
  0
LINE
  8
5
  6
CONTINUOUS
 62
5
 10
-3.4938915727024
 20
-3.78978773736088
 30
0.0
 11
-3.71684901195353
 21
-3.62779967581602
 31
0.0
  0
LINE
  8
5
  6
CONTINUOUS
 62
5
 10
-3.58099068367976
 20
-3.23986559356615
 30
0.0
 11
-3.74297874522462
 21
-3.46282303281729
 31
0.0
  0
ARC
  8
5
  6
CONTINUOUS
 62
5
 10
-3.64742555708971
 20
-3.53224648768111
 30
0.0
 40
0.118110236
 50
144.000000001047
 51
234.000000001047
  0
ARC
  8
5
  6
CONTINUOUS
 62
5
 10
-3.42745669929245
 20
-3.49740684324592
 30
0.0
 40
0.118110236
 50
324.000000001047
 51
54.0000000010512
  0
LINE
  8
5
  6
CONTINUOUS
 62
5
 10
-4.09664741089824
 20
-2.80617960591767
 30
0.0
 11
-3.82444983689825
 21
-2.76306774549615
 31
0.0
  0
LINE
  8
5
  6
CONTINUOUS
 62
5
 10
-3.64620536188809
 20
-3.13344491091101
 30
0.0
 11
-3.68931722230962
 21
-2.86124733691102
 31
0.0
  0
LINE
  8
5
  6
CONTINUOUS
 62
5
 10
-3.64620536188809
 20
-3.13344491091101
 30
0.0
 11
-3.91840293588808
 21
-3.17655677133253
 31
0.0
  0
LINE
  8
5
  6
CONTINUOUS
 62
5
 10
-4.09664741089824
 20
-2.80617960591767
 30
0.0
 11
-4.05353555047671
 21
-3.07837717991766
 31
0.0
  0
ARC
  8
5
  6
CONTINUOUS
 62
5
 10
-3.93687944747496
 20
-3.05990066833078
 30
0.0
 40
0.118110236000001
 50
189.000000001193
 51
279.000000001192
  0
ARC
  8
5
  6
CONTINUOUS
 62
5
 10
-3.80597332531137
 20
-2.8797238484979
 30
0.0
 40
0.118110236
 50
9.00000000119729
 51
99.000000001197
  0
LINE
  8
5
  6
CONTINUOUS
 62
5
 10
-4.76793408225056
 20
-2.8641416717282
 30
0.0
 11
-4.60594602070684
 21
-2.64118423247624
 31
0.0
  0
LINE
  8
5
  6
CONTINUOUS
 62
5
 10
-4.21801193845628
 20
-2.77704256074804
 30
0.0
 11
-4.44096937770824
 21
-2.61505449920432
 31
0.0
  0
LINE
  8
5
  6
CONTINUOUS
 62
5
 10
-4.21801193845628
 20
-2.77704256074804
 30
0.0
 11
-4.38
 21
-3
 31
0.0
  0
LINE
  8
5
  6
CONTINUOUS
 62
5
 10
-4.76793408225056
 20
-2.8641416717282
 30
0.0
 11
-4.54497664299861
 21
-3.02612973327192
 31
0.0
  0
ARC
  8
5
  6
CONTINUOUS
 62
5
 10
-4.47555318813526
 20
-2.93057654513666
 30
0.0
 40
0.118110235999999
 50
234.00000000134
 51
324.000000001339
  0
LINE
  8
5
  6
CONTINUOUS
 62
5
 10
-5.20162006989642
 20
-3.37979839894889
 30
0.0
 11
-5.24473193031933
 21
-3.10760082494912
 31
0.0
  0
LINE
  8
5
  6
CONTINUOUS
 62
5
 10
-4.87435476490537
 20
-2.92935634993708
 30
0.0
 11
-5.14655233890514
 21
-2.97246821035999
 31
0.0
  0
LINE
  8
5
  6
CONTINUOUS
 62
5
 10
-4.87435476490537
 20
-2.92935634993708
 30
0.0
 11
-4.83124290448246
 21
-3.20155392393685
 31
0.0
  0
LINE
  8
5
  6
CONTINUOUS
 62
5
 10
-5.20162006989642
 20
-3.37979839894889
 30
0.0
 11
-4.92942249589665
 21
-3.33668653852598
 31
0.0
  0
ARC
  8
5
  6
CONTINUOUS
 62
5
 10
-4.94789900748412
 20
-3.22003043552432
 30
0.0
 40
0.118110236
 50
279.000000001486
 51
9.00000000149008
  0
ARC
  8
5
  6
CONTINUOUS
 62
5
 10
-5.12807582731767
 20
-3.08912431336165
 30
0.0
 40
0.118110236
 50
99.0000000014901
 51
189.000000001491
  0
LINE
  8
5
  6
CONTINUOUS
 62
5
 10
-4.21801193840163
 20
-6.82802326960895
 30
0.0
 11
-4.4409693776478
 21
-6.99001133116064
 31
0.0
  0
LINE
  8
5
  6
CONTINUOUS
 62
5
 10
-4.76793408219903
 20
-6.74092415864844
 30
0.0
 11
-4.60594602064734
 21
-6.96388159789461
 31
0.0
  0
LINE
  8
5
  6
CONTINUOUS
 62
5
 10
-4.76793408219903
 20
-6.74092415864844
 30
0.0
 11
-4.54497664295286
 21
-6.57893609709675
 31
0.0
  0
LINE
  8
5
  6
CONTINUOUS
 62
5
 10
-4.21801193840163
 20
-6.82802326960895
 30
0.0
 11
-4.37999999995332
 21
-6.60506583036278
 31
0.0
  0
ARC
  8
5
  6
CONTINUOUS
 62
5
 10
-4.47555318808611
 20
-6.67448928522954
 30
0.0
 40
0.118110236
 50
36.0000000007005
 51
126.000000000702
  0
ARC
  8
5
  6
CONTINUOUS
 62
5
 10
-4.51039283251456
 20
-6.89445814302786
 30
0.0
 40
0.118110236
 50
216.0000000007
 51
306.0000000007
  0
LINE
  8
5
  6
CONTINUOUS
 62
5
 10
-3.64620536184618
 20
-6.47162091942555
 30
0.0
 11
-3.68931722225798
 21
-6.74381849342708
 31
0.0
  0
LINE
  8
5
  6
CONTINUOUS
 62
5
 10
-4.09664741084463
 20
-6.79888622443499
 30
0.0
 11
-3.8244498368431
 21
-6.84199808484679
 31
0.0
  0
LINE
  8
5
  6
CONTINUOUS
 62
5
 10
-4.09664741084463
 20
-6.79888622443499
 30
0.0
 11
-4.05353555043283
 21
-6.52668865043346
 31
0.0
  0
LINE
  8
5
  6
CONTINUOUS
 62
5
 10
-3.64620536184618
 20
-6.47162091942555
 30
0.0
 11
-3.91840293584771
 21
-6.42850905901375
 31
0.0
  0
ARC
  8
5
  6
CONTINUOUS
 62
5
 10
-3.93687944743042
 20
-6.54516516201617
 30
0.0
 40
0.118110236
 50
81.0000000008472
 51
171.000000000848
  0
ARC
  8
5
  6
CONTINUOUS
 62
5
 10
-3.80597332526039
 20
-6.72534198184437
 30
0.0
 40
0.118110236
 50
261.000000000846
 51
351.000000000843
  0
LINE
  8
5
  6
CONTINUOUS
 62
5
 10
-3.49389157268394
 20
-5.81527809297024
 30
0.0
 11
-3.33190351113111
 21
-6.03823553221558
 31
0.0
  0
LINE
  8
5
  6
CONTINUOUS
 62
5
 10
-3.58099068364165
 20
-6.36520023676808
 30
0.0
 11
-3.3580332443963
 21
-6.20321217521526
 31
0.0
  0
LINE
  8
5
  6
CONTINUOUS
 62
5
 10
-3.58099068364165
 20
-6.36520023676808
 30
0.0
 11
-3.74297874519447
 21
-6.14224279752274
 31
0.0
  0
LINE
  8
5
  6
CONTINUOUS
 62
5
 10
-3.49389157268394
 20
-5.81527809297024
 30
0.0
 11
-3.71684901192929
 21
-5.97726615452306
 31
0.0
  0
ARC
  8
5
  6
CONTINUOUS
 62
5
 10
-3.64742555706204
 20
-6.07281934265549
 30
0.0
 40
0.118110236
 50
126.000000000994
 51
216.000000000994
  0
ARC
  8
5
  6
CONTINUOUS
 62
5
 10
-3.42745669926354
 20
-6.10765898708282
 30
0.0
 40
0.118110236
 50
306.000000000988
 51
36.0000000009927
  0
LINE
  8
5
  6
CONTINUOUS
 62
5
 10
-3.85029392287026
 20
-5.24347151641661
 30
0.0
 11
-3.57809634886851
 21
-5.28658337682702
 31
0.0
  0
LINE
  8
5
  6
CONTINUOUS
 62
5
 10
-3.52302861785852
 20
-5.69391356541339
 30
0.0
 11
-3.47991675744811
 21
-5.42171599141164
 31
0.0
  0
LINE
  8
5
  6
CONTINUOUS
 62
5
 10
-3.52302861785852
 20
-5.69391356541339
 30
0.0
 11
-3.79522619186027
 21
-5.65080170500298
 31
0.0
  0
LINE
  8
5
  6
CONTINUOUS
 62
5
 10
-3.85029392287026
 20
-5.24347151641661
 30
0.0
 11
-3.89340578328067
 21
-5.51566909041835
 31
0.0
  0
ARC
  8
5
  6
CONTINUOUS
 62
5
 10
-3.77674968027816
 20
-5.53414560200047
 30
0.0
 40
0.118110236
 50
171.000000001135
 51
261.000000001137
  0
ARC
  8
5
  6
CONTINUOUS
 62
5
 10
-3.59657286045062
 20
-5.40323947982952
 30
0.0
 40
0.118110236
 50
351.000000001135
 51
81.0000000011389
  0
LINE
  8
5
  6
CONTINUOUS
 62
5
 10
-4.50663674932635
 20
-5.09115772725771
 30
0.0
 11
-4.28367931008183
 21
-4.92916966570375
 31
0.0
  0
LINE
  8
5
  6
CONTINUOUS
 62
5
 10
-3.95671460552806
 20
-5.17825683821261
 30
0.0
 11
-4.11870266708203
 21
-4.9552993989681
 31
0.0
  0
LINE
  8
5
  6
CONTINUOUS
 62
5
 10
-3.95671460552806
 20
-5.17825683821261
 30
0.0
 11
-4.17967204477258
 21
-5.34024489976658
 31
0.0
  0
LINE
  8
5
  6
CONTINUOUS
 62
5
 10
-4.50663674932635
 20
-5.09115772725771
 30
0.0
 11
-4.34464868777239
 21
-5.31411516650223
 31
0.0
  0
ARC
  8
5
  6
CONTINUOUS
 62
5
 10
-4.24909549964031
 20
-5.24469171163451
 30
0.0
 40
0.118110235999999
 50
216.000000001279
 51
306.000000001279
  0
ARC
  8
5
  6
CONTINUOUS
 62
5
 10
-4.2142558552141
 20
-5.02472285383582
 30
0.0
 40
0.118110236
 50
36.0000000012851
 51
126.000000001286
  0
LINE
  8
5
  6
CONTINUOUS
 62
5
 10
-5.07844332587816
 20
-5.44756007744695
 30
0.0
 11
-5.03533146546914
 21
-5.17536250344498
 31
0.0
  0
LINE
  8
5
  6
CONTINUOUS
 62
5
 10
-4.62800127688305
 20
-5.12029477243291
 30
0.0
 11
-4.90019885088502
 21
-5.07718291202389
 31
0.0
  0
LINE
  8
5
  6
CONTINUOUS
 62
5
 10
-4.62800127688305
 20
-5.12029477243291
 30
0.0
 11
-4.67111313729207
 21
-5.39249234643488
 31
0.0
  0
LINE
  8
5
  6
CONTINUOUS
 62
5
 10
-5.07844332587816
 20
-5.44756007744695
 30
0.0
 11
-4.80624575187619
 21
-5.49067193785597
 31
0.0
  0
ARC
  8
5
  6
CONTINUOUS
 62
5
 10
-4.78776924029467
 20
-5.37401583485337
 30
0.0
 40
0.118110236
 50
261.000000001427
 51
351.000000001427
  0
ARC
  8
5
  6
CONTINUOUS
 62
5
 10
-4.91867536246654
 20
-5.1938390150265
 30
0.0
 40
0.118110236
 50
81.0000000014317
 51
171.000000001433
  0
LINE
  8
5
  6
CONTINUOUS
 62
5
 10
-5.23075711503371
 20
-6.10390290390382
 30
0.0
 11
-5.39274517658881
 21
-5.88094546466013
 31
0.0
  0
LINE
  8
5
  6
CONTINUOUS
 62
5
 10
-5.14365800408161
 20
-5.55398076010508
 30
0.0
 11
-5.3666154433253
 21
-5.71596882166019
 31
0.0
  0
LINE
  8
5
  6
CONTINUOUS
 62
5
 10
-5.14365800408161
 20
-5.55398076010508
 30
0.0
 11
-4.98166994252651
 21
-5.77693819934878
 31
0.0
  0
LINE
  8
5
  6
CONTINUOUS
 62
5
 10
-5.23075711503371
 20
-6.10390290390382
 30
0.0
 11
-5.00779967579001
 21
-5.94191484234872
 31
0.0
  0
ARC
  8
5
  6
CONTINUOUS
 62
5
 10
-5.07722313065823
 20
-5.84636165421699
 30
0.0
 40
0.118110236000001
 50
306.000000001573
 51
36.0000000015769
  0
ARC
  8
5
  6
CONTINUOUS
 62
5
 10
-5.29719198845709
 20
-5.81152200979191
 30
0.0
 40
0.118110236
 50
126.000000001579
 51
216.000000001579
  0
LINE
  8
5
  6
CONTINUOUS
 62
5
 10
-4.87435476484155
 20
-6.67570948045381
 30
0.0
 11
-5.14655233884374
 21
-6.63259762004618
 31
0.0
  0
LINE
  8
5
  6
CONTINUOUS
 62
5
 10
-5.20162006985788
 20
-6.22526743146037
 30
0.0
 11
-5.24473193026552
 21
-6.49746500546256
 31
0.0
  0
LINE
  8
5
  6
CONTINUOUS
 62
5
 10
-5.20162006985788
 20
-6.22526743146037
 30
0.0
 11
-4.9294224958557
 21
-6.268379291868
 31
0.0
  0
LINE
  8
5
  6
CONTINUOUS
 62
5
 10
-4.87435476484155
 20
-6.67570948045381
 30
0.0
 11
-4.83124290443392
 21
-6.40351190645162
 31
0.0
  0
ARC
  8
5
  6
CONTINUOUS
 62
5
 10
-4.94789900743662
 20
-6.3850353948707
 30
0.0
 40
0.118110236
 50
351.000000001719
 51
81.0000000017237
  0
ARC
  8
5
  6
CONTINUOUS
 62
5
 10
-5.12807582726282
 20
-6.51594151704348
 30
0.0
 40
0.118110236
 50
171.000000001719
 51
261.000000001718
  0
LINE
  8
5
  6
CONTINUOUS
 62
5
 10
-1.29094640351148
 20
-6.80580264296048
 30
0.0
 11
-1.20578423975904
 21
-7.06790483231701
 31
0.0
  0
LINE
  8
5
  6
CONTINUOUS
 62
5
 10
-1.54371786856847
 20
-7.30189457579328
 30
0.0
 11
-1.28161567921194
 21
-7.21673241204085
 31
0.0
  0
LINE
  8
5
  6
CONTINUOUS
 62
5
 10
-1.54371786856847
 20
-7.30189457579328
 30
0.0
 11
-1.6288800323209
 21
-7.03979238643675
 31
0.0
  0
LINE
  8
5
  6
CONTINUOUS
 62
5
 10
-1.29094640351148
 20
-6.80580264296048
 30
0.0
 11
-1.55304859286801
 21
-6.89096480671292
 31
0.0
  0
ARC
  8
5
  6
CONTINUOUS
 62
5
 10
-1.51655052273254
 20
-7.00329431630128
 30
0.0
 40
0.118110236
 50
108.000000000936
 51
198.000000000935
  0
ARC
  8
5
  6
CONTINUOUS
 62
5
 10
-1.31811374934741
 20
-7.10440290245248
 30
0.0
 40
0.118110236
 50
288.00000000093
 51
18.0000000009339
  0
LINE
  8
5
  6
CONTINUOUS
 62
5
 10
-1.45320723142799
 20
-6.15184788922582
 30
0.0
 11
-1.20765425247996
 21
-6.27696338119317
 31
0.0
  0
LINE
  8
5
  6
CONTINUOUS
 62
5
 10
-1.28115367866088
 20
-6.68137427605565
 30
0.0
 11
-1.15603818669352
 21
-6.43582129710762
 31
0.0
  0
LINE
  8
5
  6
CONTINUOUS
 62
5
 10
-1.28115367866088
 20
-6.68137427605565
 30
0.0
 11
-1.52670665760891
 21
-6.5562587840883
 31
0.0
  0
LINE
  8
5
  6
CONTINUOUS
 62
5
 10
-1.45320723142799
 20
-6.15184788922582
 30
0.0
 11
-1.57832272339534
 21
-6.39740086817385
 31
0.0
  0
ARC
  8
5
  6
CONTINUOUS
 62
5
 10
-1.4730857325449
 20
-6.45102179323786
 30
0.0
 40
0.118110236
 50
153.000000001078
 51
243.000000001077
  0
ARC
  8
5
  6
CONTINUOUS
 62
5
 10
-1.26127517754396
 20
-6.38220037204361
 30
0.0
 40
0.118110236000001
 50
333.000000001077
 51
63.0000000010804
  0
LINE
  8
5
  6
CONTINUOUS
 62
5
 10
-2.03035880412454
 20
-5.80416778001304
 30
0.0
 11
-1.76825661476844
 21
-5.71900561625926
 31
0.0
  0
LINE
  8
5
  6
CONTINUOUS
 62
5
 10
-1.53426687129045
 20
-6.05693924506749
 30
0.0
 11
-1.61942903504422
 21
-5.79483705571139
 31
0.0
  0
LINE
  8
5
  6
CONTINUOUS
 62
5
 10
-1.53426687129045
 20
-6.05693924506749
 30
0.0
 11
-1.79636906064655
 21
-6.14210140882127
 31
0.0
  0
LINE
  8
5
  6
CONTINUOUS
 62
5
 10
-2.03035880412454
 20
-5.80416778001304
 30
0.0
 11
-1.94519664037076
 21
-6.06626996936913
 31
0.0
  0
ARC
  8
5
  6
CONTINUOUS
 62
5
 10
-1.83286713078259
 20
-6.02977189923309
 30
0.0
 40
0.118110236
 50
198.000000001223
 51
288.000000001222
  0
ARC
  8
5
  6
CONTINUOUS
 62
5
 10
-1.7317585446324
 20
-5.83133512584744
 30
0.0
 40
0.118110236
 50
18.0000000012266
 51
108.000000001228
  0
LINE
  8
5
  6
CONTINUOUS
 62
5
 10
-2.68431355785837
 20
-5.96642860793288
 30
0.0
 11
-2.55919806589227
 21
-5.72087562898421
 31
0.0
  0
LINE
  8
5
  6
CONTINUOUS
 62
5
 10
-2.15478717102942
 20
-5.79437505516306
 30
0.0
 11
-2.40034014997809
 21
-5.66925956319697
 31
0.0
  0
LINE
  8
5
  6
CONTINUOUS
 62
5
 10
-2.15478717102942
 20
-5.79437505516306
 30
0.0
 11
-2.27990266299552
 21
-6.03992803411173
 31
0.0
  0
LINE
  8
5
  6
CONTINUOUS
 62
5
 10
-2.68431355785837
 20
-5.96642860793288
 30
0.0
 11
-2.4387605789097
 21
-6.09154409989898
 31
0.0
  0
ARC
  8
5
  6
CONTINUOUS
 62
5
 10
-2.38513965384623
 20
-5.98630710904826
 30
0.0
 40
0.118110236
 50
243.000000001367
 51
333.000000001367
  0
ARC
  8
5
  6
CONTINUOUS
 62
5
 10
-2.45396107504156
 20
-5.77449655404768
 30
0.0
 40
0.118110236
 50
63.0000000013729
 51
153.000000001374
  0
LINE
  8
5
  6
CONTINUOUS
 62
5
 10
-3.03199366706821
 20
-6.5435801806312
 30
0.0
 11
-3.11715583082332
 21
-6.28147799127554
 31
0.0
  0
LINE
  8
5
  6
CONTINUOUS
 62
5
 10
-2.77922220201628
 20
-6.04748824779583
 30
0.0
 11
-3.04132439137195
 21
-6.13265041155094
 31
0.0
  0
LINE
  8
5
  6
CONTINUOUS
 62
5
 10
-2.77922220201628
 20
-6.04748824779583
 30
0.0
 11
-2.69406003826117
 21
-6.30959043715149
 31
0.0
  0
LINE
  8
5
  6
CONTINUOUS
 62
5
 10
-3.03199366706821
 20
-6.5435801806312
 30
0.0
 11
-2.76989147771255
 21
-6.45841801687609
 31
0.0
  0
ARC
  8
5
  6
CONTINUOUS
 62
5
 10
-2.80638954784916
 20
-6.3460885072881
 30
0.0
 40
0.118110236
 50
288.000000001516
 51
18.0000000015196
  0
ARC
  8
5
  6
CONTINUOUS
 62
5
 10
-3.00482632123533
 20
-6.24497992113893
 30
0.0
 40
0.118110236
 50
108.00000000152
 51
198.00000000152
  0
LINE
  8
5
  6
CONTINUOUS
 62
5
 10
-2.86973283914503
 20
-7.19753493436421
 30
0.0
 11
-3.11528581809434
 21
-7.07241944239937
 31
0.0
  0
LINE
  8
5
  6
CONTINUOUS
 62
5
 10
-3.04178639191754
 20
-6.66800854753614
 30
0.0
 11
-3.16690188388239
 21
-6.91356152648545
 31
0.0
  0
LINE
  8
5
  6
CONTINUOUS
 62
5
 10
-3.04178639191754
 20
-6.66800854753614
 30
0.0
 11
-2.79623341296824
 21
-6.79312403950098
 31
0.0
  0
LINE
  8
5
  6
CONTINUOUS
 62
5
 10
-2.86973283914503
 20
-7.19753493436421
 30
0.0
 11
-2.74461734718018
 21
-6.95198195541491
 31
0.0
  0
ARC
  8
5
  6
CONTINUOUS
 62
5
 10
-2.84985433803117
 20
-6.89836103035197
 30
0.0
 40
0.118110236
 50
333.000000001661
 51
63.0000000016647
  0
ARC
  8
5
  6
CONTINUOUS
 62
5
 10
-3.0616648930314
 20
-6.96718245154838
 30
0.0
 40
0.118110236
 50
153.000000001659
 51
243.000000001659
  0
LINE
  8
5
  6
CONTINUOUS
 62
5
 10
-2.29258126644493
 20
-7.5452150435711
 30
0.0
 11
-2.55468345580016
 21
-7.63037720732755
 31
0.0
  0
LINE
  8
5
  6
CONTINUOUS
 62
5
 10
-2.7886731992816
 20
-7.29244357852171
 30
0.0
 11
-2.70351103552515
 21
-7.55454576787694
 31
0.0
  0
LINE
  8
5
  6
CONTINUOUS
 62
5
 10
-2.7886731992816
 20
-7.29244357852171
 30
0.0
 11
-2.52657100992637
 21
-7.20728141476526
 31
0.0
  0
LINE
  8
5
  6
CONTINUOUS
 62
5
 10
-2.29258126644493
 20
-7.5452150435711
 30
0.0
 11
-2.37774343020138
 21
-7.28311285421587
 31
0.0
  0
ARC
  8
5
  6
CONTINUOUS
 62
5
 10
-2.49007293978918
 20
-7.31961092435306
 30
0.0
 40
0.118110236
 50
18.0000000018118
 51
108.000000001813
  0
ARC
  8
5
  6
CONTINUOUS
 62
5
 10
-2.59118152593735
 20
-7.51804769773975
 30
0.0
 40
0.118110236
 50
198.000000001809
 51
288.000000001807
  0
LINE
  8
5
  6
CONTINUOUS
 62
5
 10
-1.63862651271275
 20
-7.38295421564459
 30
0.0
 11
-1.76374200467634
 21
-7.62850719459453
 31
0.0
  0
LINE
  8
5
  6
CONTINUOUS
 62
5
 10
-2.16815289953995
 20
-7.5550077684198
 30
0.0
 11
-1.92259992059
 21
-7.68012326038339
 31
0.0
  0
LINE
  8
5
  6
CONTINUOUS
 62
5
 10
-2.16815289953995
 20
-7.5550077684198
 30
0.0
 11
-2.04303740757635
 21
-7.30945478946986
 31
0.0
  0
LINE
  8
5
  6
CONTINUOUS
 62
5
 10
-1.63862651271275
 20
-7.38295421564459
 30
0.0
 11
-1.8841794916627
 21
-7.25783872368099
 31
0.0
  0
ARC
  8
5
  6
CONTINUOUS
 62
5
 10
-1.9378004167251
 20
-7.36307571453225
 30
0.0
 40
0.118110236000001
 50
63.0000000019573
 51
153.000000001959
  0
ARC
  8
5
  6
CONTINUOUS
 62
5
 10
-1.8689789955276
 20
-7.57488626953213
 30
0.0
 40
0.118110236
 50
243.000000001953
 51
333.000000001955
  0
ARC
  8
5
  6
CONTINUOUS
 62
5
 10
-0.80126726834674
 20
-4.80253291516481
 30
0.0
 40
0.0984251970000001
 50
359.999999999992
 51
180
  0
ARC
  8
5
  6
CONTINUOUS
 62
5
 10
-0.80126726834674
 20
-4.80253291516482
 30
0.0
 40
0.0984251970000001
 50
179.999999999993
 51
359.999999999992
  0
ARC
  8
5
  6
CONTINUOUS
 62
5
 10
-5.29719198847542
 20
-3.79354382060364
 30
0.0
 40
0.118110236
 50
144.000000000466
 51
234.000000000466
  0
ARC
  8
5
  6
CONTINUOUS
 62
5
 10
-4.51039283257158
 20
-2.71060768733958
 30
0.0
 40
0.118110236000001
 50
54.0000000013436
 51
144.000000001345
  0
ARC
  8
5
  6
CONTINUOUS
 62
5
 10
-2.1614700353274
 20
-2.93037441852582
 30
0.0
 40
0.0984251969999996
 50
72.0000000002304
 51
252.000000000234
  0
ARC
  8
5
  6
CONTINUOUS
 62
5
 10
-2.16147003532739
 20
-2.93037441852583
 30
0.0
 40
0.0984251970000002
 50
252.000000000227
 51
72.00000000023
  0
ARC
  8
5
  6
CONTINUOUS
 62
5
 10
-4.36232434388318
 20
-3.64547533192956
 30
0.0
 40
0.0984251970000008
 50
144.000000000463
 51
324.000000000466
  0
ARC
  8
5
  6
CONTINUOUS
 62
5
 10
-4.36232434388318
 20
-3.64547533192956
 30
0.0
 40
0.0984251969999989
 50
324.00000000046
 51
144.000000000465
  0
ARC
  8
5
  6
CONTINUOUS
 62
5
 10
-4.36232434385955
 20
-5.95959049843261
 30
0.0
 40
0.0984251969999992
 50
216.000000000697
 51
36.0000000007012
  0
ARC
  8
5
  6
CONTINUOUS
 62
5
 10
-4.36232434385956
 20
-5.9595904984326
 30
0.0
 40
0.0984251969999993
 50
36.000000000698
 51
216.000000000698
  0
ARC
  8
5
  6
CONTINUOUS
 62
5
 10
-2.16147003528917
 20
-6.6746914117914
 30
0.0
 40
0.0984251969999996
 50
288.00000000093
 51
108.000000000935
  0
ARC
  8
5
  6
CONTINUOUS
 62
5
 10
-2.16147003528917
 20
-6.67469141179141
 30
0.0
 40
0.0984251970000001
 50
108.000000000928
 51
288.000000000928
  0
ARC
  8
23
  6
CONTINUOUS
 62
23
 10
2.35947759063815
 20
5.3962950488241
 30
0.0
 40
0.307115384615379
 50
179.999999999997
 51
359.999999999997
  0
ENDSEC
  0
EOF
