  0
SECTION
  2
HEADER
  9
$ACADVER
  1
AC1003
  9
$EXTMIN
 10
-2.84238141312868
 20
10.1988279639889
  9
$EXTMAX
 10
6.61406032018924
 20
-3.08731398436734
  9
$INSUNITS
 70
1
  9
$INSBASE
 10
1.88583945353028
 20
3.55575698981079
999
Created with OMAX LAYOUT for Windows. (www.omax.com) 1/5/2024
  0
ENDSEC
  0
SECTION
  2
TABLES
  0
TABLE
  2
LAYER
 70
    10
  0
LAYER
  2
0
 70
     0
 62
     7
  6
CONTINUOUS
  0
LAYER
  2
1
 70
     0
 62
     7
  6
CONTINUOUS
  0
LAYER
  2
2
 70
     0
 62
     7
  6
CONTINUOUS
  0
LAYER
  2
3
 70
     0
 62
     7
  6
CONTINUOUS
  0
LAYER
  2
4
 70
     0
 62
     7
  6
CONTINUOUS
  0
LAYER
  2
5
 70
     0
 62
     7
  6
CONTINUOUS
  0
LAYER
  2
6
 70
     0
 62
     7
  6
CONTINUOUS
  0
LAYER
  2
7
 70
     0
 62
     7
  6
CONTINUOUS
  0
LAYER
  2
8
 70
     0
 62
     7
  6
CONTINUOUS
  0
LAYER
  2
9
 70
     0
 62
     7
  6
CONTINUOUS
  0
LAYER
  2
10
 70
     0
 62
     7
  6
CONTINUOUS
  0
LAYER
  2
11
 70
     0
 62
     7
  6
CONTINUOUS
  0
LAYER
  2
12
 70
     0
 62
     7
  6
CONTINUOUS
  0
LAYER
  2
13
 70
     0
 62
     7
  6
CONTINUOUS
  0
LAYER
  2
14
 70
     0
 62
     7
  6
CONTINUOUS
  0
LAYER
  2
15
 70
     0
 62
     7
  6
CONTINUOUS
  0
LAYER
  2
16
 70
     0
 62
     7
  6
CONTINUOUS
  0
LAYER
  2
17
 70
     0
 62
     7
  6
CONTINUOUS
  0
LAYER
  2
18
 70
     0
 62
     7
  6
CONTINUOUS
  0
LAYER
  2
19
 70
     0
 62
     7
  6
CONTINUOUS
  0
LAYER
  2
20
 70
     0
 62
     7
  6
CONTINUOUS
  0
LAYER
  2
21
 70
     0
 62
     7
  6
CONTINUOUS
  0
LAYER
  2
22
 70
     0
 62
     7
  6
CONTINUOUS
  0
LAYER
  2
23
 70
     0
 62
     7
  6
CONTINUOUS
  0
LAYER
  2
24
 70
     0
 62
     7
  6
CONTINUOUS
  0
LAYER
  2
25
 70
     0
 62
     7
  6
CONTINUOUS
  0
LAYER
  2
26
 70
     0
 62
     7
  6
CONTINUOUS
  0
LAYER
  2
27
 70
     0
 62
     7
  6
CONTINUOUS
  0
LAYER
  2
28
 70
     0
 62
     7
  6
CONTINUOUS
  0
LAYER
  2
29
 70
     0
 62
     7
  6
CONTINUOUS
  0
LAYER
  2
30
 70
     0
 62
     7
  6
CONTINUOUS
  0
LAYER
  2
31
 70
     0
 62
     7
  6
CONTINUOUS
  0
ENDTAB
  0
ENDSEC
  0
SECTION
  2
ENTITIES
  0
LINE
  8
0
  6
CONTINUOUS
 62
0
 10
6.5868562646693
 20
6.87843715764924
 30
0.0
 11
6.55213341136951
 21
6.80882796398891
 31
0.0
  0
LINE
  8
0
  6
CONTINUOUS
 62
0
 10
6.55213341136951
 20
6.80882796398891
 30
0.0
 11
6.61213341136951
 21
6.8288279639889
 31
0.0
  0
LINE
  8
0
  6
CONTINUOUS
 62
0
 10
6.00977120534674
 20
9.3425329151648
 30
0.0
 11
5.43636418060027
 21
10.1988279639889
 31
0.0
  0
LINE
  8
0
  6
CONTINUOUS
 62
0
 10
4.07977120534674
 20
9.7625329151648
 30
0.0
 11
4.82213341136951
 21
10.1988279639889
 31
0.0
  0
LINE
  8
0
  6
CONTINUOUS
 62
0
 10
6.00977120534674
 20
9.3425329151648
 30
0.0
 11
4.07977120534674
 21
9.7625329151648
 31
0.0
  0
LINE
  8
0
  6
CONTINUOUS
 62
0
 10
6.4868562646693
 20
6.97843715764924
 30
0.0
 11
6.45213341136951
 21
6.90882796398891
 31
0.0
  0
LINE
  8
0
  6
CONTINUOUS
 62
0
 10
6.45213341136951
 20
6.90882796398891
 30
0.0
 11
6.51213341136951
 21
6.9288279639889
 31
0.0
  0
LINE
  8
0
  6
CONTINUOUS
 62
0
 10
6.4868562646693
 20
6.97843715764924
 30
0.0
 11
6.51213341136951
 21
6.9288279639889
 31
0.0
  0
LINE
  8
1
  6
CONTINUOUS
 62
1
 10
-0.63237481710044
 20
0.631500750584521
 30
0.0
 11
-0.67584927605393
 21
0.905987681623681
 31
0.0
  0
ARC
  8
1
  6
CONTINUOUS
 62
1
 10
-0.826801655107608
 20
0.600706564659542
 30
0.0
 40
0.196850393
 50
279.000000000899
 51
9.00000000090467
  0
LINE
  8
1
  6
CONTINUOUS
 62
1
 10
-0.79600746918264
 20
0.406279726652351
 30
0.0
 11
-1.07049440021063
 21
0.362805267700631
 31
0.0
  0
LINE
  8
1
  6
CONTINUOUS
 62
1
 10
-1.32896856098921
 20
0.0462823030243307
 30
0.0
 11
-1.12187885102528
 21
0.331316835742251
 31
0.0
  0
LINE
  8
1
  6
CONTINUOUS
 62
1
 10
-1.32896856098755
 20
-0.0462823030718393
 30
0.0
 11
-1.12187885103117
 21
-0.331316835757969
 31
0.0
  0
ARC
  8
1
  6
CONTINUOUS
 62
1
 10
-1.26526643583667
 20
-2.37587796658723E-11
 30
0.0
 40
0.0787401570000007
 50
143.999999999737
 51
216.000000000263
  0
ARC
  8
1
  6
CONTINUOUS
 62
1
 10
-1.05817672587192
 20
0.285034532695301
 30
0.0
 40
0.0787401569999991
 50
99.0000000009051
 51
144.00000000076
  0
LINE
  8
1
  6
CONTINUOUS
 62
1
 10
-0.79600746918584
 20
-0.406279726656439
 30
0.0
 11
-1.07049440021539
 21
-0.362805267714519
 31
0.0
  0
ARC
  8
1
  6
CONTINUOUS
 62
1
 10
-0.82680165510388
 20
-0.600706564664706
 30
0.0
 40
0.196850393
 50
351.000000001134
 51
81.0000000011389
  0
LINE
  8
1
  6
CONTINUOUS
 62
1
 10
-0.6323748170956
 20
-0.631500750582769
 30
0.0
 11
-0.67584927603751
 21
-0.905987681612309
 31
0.0
  0
LINE
  8
1
  6
CONTINUOUS
 62
1
 10
-0.45469095621103
 20
-1.24962219170872
 30
0.0
 11
-0.66178066618368
 21
-0.964587658997139
 31
0.0
  0
LINE
  8
1
  6
CONTINUOUS
 62
1
 10
-0.36665678440435
 20
-1.27822622806813
 30
0.0
 11
-0.0315785949878
 21
-1.1693527245388
 31
0.0
  0
ARC
  8
1
  6
CONTINUOUS
 62
1
 10
-0.39098883105908
 20
-1.20333988865982
 30
0.0
 40
0.0787401569999996
 50
216.000000000991
 51
288.000000001515
  0
ARC
  8
1
  6
CONTINUOUS
 62
1
 10
-0.59807854103173
 20
-0.918305355948249
 30
0.0
 40
0.0787401570000005
 50
171.000000001136
 51
216.00000000099
  0
LINE
  8
1
  6
CONTINUOUS
 62
1
 10
0.14041514585099
 20
-0.882595430595089
 30
0.0
 11
0.0142473519609299
 21
-1.13021366835481
 31
0.0
  0
ARC
  8
1
  6
CONTINUOUS
 62
1
 10
0.31581013030518
 20
-0.971963638882878
 30
0.0
 40
0.196850393
 50
63.0000000013731
 51
153.000000001374
  0
LINE
  8
1
  6
CONTINUOUS
 62
1
 10
0.40517833859297
 20
-0.796568654428689
 30
0.0
 11
0.65279657635268
 21
-0.922736448318749
 31
0.0
  0
LINE
  8
1
  6
CONTINUOUS
 62
1
 10
1.04795409567713
 20
-0.818591290586769
 30
0.0
 11
0.71287590623136
 21
-0.927464794123699
 31
0.0
  0
LINE
  8
1
  6
CONTINUOUS
 62
1
 10
1.10236220602277
 20
-0.743704951175929
 30
0.0
 11
1.10236220601099
 21
-0.391382892836649
 31
0.0
  0
ARC
  8
1
  6
CONTINUOUS
 62
1
 10
1.02362204902277
 20
-0.743704951178339
 30
0.0
 40
0.0787401570000002
 50
288.000000001222
 51
1.75211032403399E-9
  0
ARC
  8
1
  6
CONTINUOUS
 62
1
 10
0.688543859577011
 20
-0.85257845471527
 30
0.0
 40
0.0787401569999986
 50
243.000000001366
 51
288.00000000122
  0
LINE
  8
1
  6
CONTINUOUS
 62
1
 10
0.88278880185593
 20
-0.139194247759839
 30
0.0
 11
1.07929974797582
 21
-0.335705193868699
 31
0.0
  0
ARC
  8
1
  6
CONTINUOUS
 62
1
 10
1.02198304961765
 20
9.69088698177245E-12
 30
0.0
 40
0.196850393
 50
135
 51
225
  0
LINE
  8
1
  6
CONTINUOUS
 62
1
 10
0.88278880184812
 20
0.139194247779231
 30
0.0
 11
1.07929974795797
 21
0.335705193900111
 31
0.0
  0
LINE
  8
1
  6
CONTINUOUS
 62
1
 10
1.10236220598102
 20
0.743704951237781
 30
0.0
 11
1.10236220599001
 21
0.391382892866951
 31
0.0
  0
LINE
  8
1
  6
CONTINUOUS
 62
1
 10
1.04795409563117
 20
0.818591290645571
 30
0.0
 11
0.71287590620796
 21
0.927464794154381
 31
0.0
  0
ARC
  8
1
  6
CONTINUOUS
 62
1
 10
1.02362204898102
 20
0.743704951235781
 30
0.0
 40
0.0787401570000002
 50
1.46028807090034E-9
 51
72.0000000019861
  0
ARC
  8
1
  6
CONTINUOUS
 62
1
 10
1.02362204899001
 20
0.391382892864951
 30
0.0
 40
0.0787401570000009
 50
315.000000001602
 51
1.45986823768239E-9
  0
LINE
  8
1
  6
CONTINUOUS
 62
1
 10
0.40517833857691
 20
0.796568654442091
 30
0.0
 11
0.65279657632955
 21
0.922736448346051
 31
0.0
  0
ARC
  8
1
  6
CONTINUOUS
 62
1
 10
0.315810130279281
 20
0.97196363889125
 30
0.0
 40
0.196850393
 50
207.000000001835
 51
297.000000001835
  0
LINE
  8
1
  6
CONTINUOUS
 62
1
 10
0.14041514583011
 20
0.882595430593621
 30
0.0
 11
0.0142473519261501
 21
1.13021366834626
 31
0.0
  0
LINE
  8
1
  6
CONTINUOUS
 62
1
 10
-0.36665678447611
 20
1.27822622804751
 30
0.0
 11
-0.0315785950247798
 21
1.16935272452767
 31
0.0
  0
LINE
  8
1
  6
CONTINUOUS
 62
1
 10
-0.45469095628119
 20
1.24962219168316
 30
0.0
 11
-0.66178066620314
 21
0.964587659007721
 31
0.0
  0
ARC
  8
1
  6
CONTINUOUS
 62
1
 10
-0.39098883112664
 20
1.20333988863783
 30
0.0
 40
0.0787401570000002
 50
72.0000000016946
 51
144.000000002222
  0
ARC
  8
1
  6
CONTINUOUS
 62
1
 10
-0.0559106416753198
 20
1.094466385118
 30
0.0
 40
0.0787401569999996
 50
27.0000000018405
 51
72.0000000016945
  0
ARC
  8
1
  6
CONTINUOUS
 62
1
 10
-1.05817672587946
 20
-0.285034532708749
 30
0.0
 40
0.0787401569999997
 50
216.000000001281
 51
261.000000001136
  0
ARC
  8
1
  6
CONTINUOUS
 62
1
 10
-0.0559106416425401
 20
-1.09446638513049
 30
0.0
 40
0.0787401570000004
 50
288.000000001516
 51
333.000000001371
  0
ARC
  8
1
  6
CONTINUOUS
 62
1
 10
1.02362204901099
 20
-0.391382892836649
 30
0.0
 40
0.0787401570000003
 50
359.999999999995
 51
45.0000000016069
  0
ARC
  8
1
  6
CONTINUOUS
 62
1
 10
0.68854385955781
 20
0.852578454744581
 30
0.0
 40
0.0787401570000014
 50
72.0000000019863
 51
117.000000001842
  0
ARC
  8
1
  6
CONTINUOUS
 62
1
 10
-0.59807854104859
 20
0.918305355962391
 30
0.0
 40
0.0787401570000005
 50
144.000000002222
 51
189.000000000906
  0
LINE
  8
1
  6
CONTINUOUS
 62
1
 10
1.75705759840065
 20
-1.26550700301627
 30
0.0
 11
1.74652933968738
 21
-1.27999790796379
 31
0.0
  0
LINE
  8
1
  6
CONTINUOUS
 62
1
 10
-0.67764310408364
 20
-2.05658921573279
 30
0.0
 11
-0.66060802364275
 21
-2.06212424889466
 31
0.0
  0
ARC
  8
1
  6
CONTINUOUS
 62
1
 10
-0.702284671351241
 20
-2.13137427765683
 30
0.0
 40
0.0787401569999994
 50
71.7630248736345
 51
148.011054346991
  0
ARC
  8
1
  6
CONTINUOUS
 62
1
 10
-0.68463013344362
 20
-2.1371105847506
 30
0.0
 40
0.0787401570000008
 50
355.988945652879
 51
72.2369751281486
  0
ARC
  8
1
  6
CONTINUOUS
 62
1
 10
-2.1489041571198
 20
-0.391306099861698
 30
0.0
 40
0.31496063
 50
103.988945652655
 51
171.000000001432
  0
ARC
  8
1
  6
CONTINUOUS
 62
1
 10
-1.03620211991365
 20
-1.92280906667957
 30
0.0
 40
0.31496063
 50
261.000000000842
 51
328.011054346987
  0
LINE
  8
1
  6
CONTINUOUS
 62
1
 10
-1.31163920819503
 20
-2.19807077148216
 30
0.0
 11
-1.08547281757183
 21
-2.2338920086778
 31
0.0
  0
LINE
  8
1
  6
CONTINUOUS
 62
1
 10
-1.37023918557993
 20
-2.21213938133569
 30
0.0
 11
-1.55549241379795
 21
-2.34673373008983
 31
0.0
  0
ARC
  8
1
  6
CONTINUOUS
 62
1
 10
-1.74062162716782
 20
-2.09192522786307
 30
0.0
 40
0.314960630000002
 50
216.000000000694
 51
306.000000000694
  0
LINE
  8
1
  6
CONTINUOUS
 62
1
 10
-2.13002447814126
 20
-2.09180121302519
 30
0.0
 11
-1.9954301293946
 21
-2.27705444123292
 31
0.0
  0
LINE
  8
1
  6
CONTINUOUS
 62
1
 10
-2.1814089289583
 20
-2.06031278106786
 30
0.0
 11
-2.4075753195695
 21
-2.02449154387767
 31
0.0
  0
ARC
  8
1
  6
CONTINUOUS
 62
1
 10
-2.35830462191608
 20
-1.71340860187869
 30
0.0
 40
0.314960630000001
 50
171.000000001719
 51
261.000000001718
  0
LINE
  8
1
  6
CONTINUOUS
 62
1
 10
-2.63356632672288
 20
-1.43797151360152
 30
0.0
 11
-2.66938756391507
 21
-1.66413790422526
 31
0.0
  0
LINE
  8
1
  6
CONTINUOUS
 62
1
 10
-2.64763493657731
 20
-1.37937153621683
 30
0.0
 11
-2.78222928533429
 21
-1.19411830800088
 31
0.0
  0
ARC
  8
1
  6
CONTINUOUS
 62
1
 10
-2.52742078311035
 20
-1.00898909462712
 30
0.0
 40
0.31496063
 50
126.000000001579
 51
216.000000001579
  0
LINE
  8
1
  6
CONTINUOUS
 62
1
 10
-2.52729676826816
 20
-0.619586243646199
 30
0.0
 11
-2.71254999648412
 21
-0.754180592403179
 31
0.0
  0
LINE
  8
1
  6
CONTINUOUS
 62
1
 10
-2.49580833631187
 20
-0.568201792830258
 30
0.0
 11
-2.45998709911853
 21
-0.342035402206689
 31
0.0
  0
ARC
  8
1
  6
CONTINUOUS
 62
1
 10
-1.32395688253136
 20
-2.27584150648787
 30
0.0
 40
0.0787401570000013
 50
81.0000000008473
 51
126.000000000702
  0
ARC
  8
1
  6
CONTINUOUS
 62
1
 10
-2.19372660329344
 20
-2.13808351607376
 30
0.0
 40
0.0787401569999988
 50
36.0000000006985
 51
81.0000000017229
  0
ARC
  8
1
  6
CONTINUOUS
 62
1
 10
-2.71133706172878
 20
-1.42565383926638
 30
0.0
 40
0.078740156999999
 50
351.00000000172
 51
36.0000000015782
  0
ARC
  8
1
  6
CONTINUOUS
 62
1
 10
-2.57357907131771
 20
-0.555884118494717
 30
0.0
 40
0.078740156999998
 50
306.000000001576
 51
351.000000001428
  0
ARC
  8
1
  6
CONTINUOUS
 62
1
 10
1.81003949709824
 20
-1.32654328614501
 30
0.0
 40
0.0787401569999999
 50
143.763024873865
 51
220.011054347221
  0
ARC
  8
1
  6
CONTINUOUS
 62
1
 10
-0.29189368768466
 20
-2.16464953638358
 30
0.0
 40
0.314960630000001
 50
175.988945652883
 51
243.00000000166
  0
ARC
  8
1
  6
CONTINUOUS
 62
1
 10
1.50849602780278
 20
-1.5796674568788
 30
0.0
 40
0.314960630000002
 50
333.000000001075
 51
40.0110543472245
  0
LINE
  8
1
  6
CONTINUOUS
 62
1
 10
1.68517072468311
 20
-1.92668423920207
 30
0.0
 11
1.78912800399795
 21
-1.72265659068549
 31
0.0
  0
LINE
  8
1
  6
CONTINUOUS
 62
1
 10
1.68044237887784
 20
-1.98676356908072
 30
0.0
 11
1.75120281553567
 21
-2.20454180005375
 31
0.0
  0
ARC
  8
1
  6
CONTINUOUS
 62
1
 10
1.45165745599934
 20
-2.30186998728768
 30
0.0
 40
0.314960630000001
 50
288.00000000093
 51
18.0000000009334
  0
LINE
  8
1
  6
CONTINUOUS
 62
1
 10
1.33120741227233
 20
-2.67217578347792
 30
0.0
 11
1.54898564323326
 21
-2.60141534682403
 31
0.0
  0
LINE
  8
1
  6
CONTINUOUS
 62
1
 10
1.28538146532246
 20
-2.71131483966287
 30
0.0
 11
1.1814241860165
 21
-2.91534248816973
 31
0.0
  0
ARC
  8
1
  6
CONTINUOUS
 62
1
 10
0.900792209819153
 20
-2.77235335436734
 30
0.0
 40
0.31496063
 50
243.000000001952
 51
333.000000001953
  0
LINE
  8
1
  6
CONTINUOUS
 62
1
 10
0.55377542749858
 20
-2.94902805125298
 30
0.0
 11
0.75780307601675
 21
-3.0529853305647
 31
0.0
  0
LINE
  8
1
  6
CONTINUOUS
 62
1
 10
0.49369609761985
 20
-2.94429970544863
 30
0.0
 11
0.27591786664791
 21
-3.0150601421098
 31
0.0
  0
ARC
  8
1
  6
CONTINUOUS
 62
1
 10
0.178589679409401
 20
-2.71551478257496
 30
0.0
 40
0.31496063
 50
198.000000001806
 51
288.000000001806
  0
LINE
  8
1
  6
CONTINUOUS
 62
1
 10
-0.19171611678661
 20
-2.59506473884152
 30
0.0
 11
-0.12095568012545
 21
-2.81284296981347
 31
0.0
  0
LINE
  8
1
  6
CONTINUOUS
 62
1
 10
-0.23085517297084
 20
-2.54923879189299
 30
0.0
 11
-0.43488282148848
 21
-2.44528151258022
 31
0.0
  0
ARC
  8
1
  6
CONTINUOUS
 62
1
 10
1.7553287182864
 20
-1.96243152242675
 30
0.0
 40
0.0787401570000004
 50
153.000000001081
 51
198.000000000935
  0
ARC
  8
1
  6
CONTINUOUS
 62
1
 10
1.3555394589263
 20
-2.74706212288648
 30
0.0
 40
0.0787401570000002
 50
108.000000000934
 51
153.000000001958
  0
ARC
  8
1
  6
CONTINUOUS
 62
1
 10
0.51802814427497
 20
-3.01918604485681
 30
0.0
 40
0.078740156999998
 50
63.0000000019574
 51
108.000000001814
  0
ARC
  8
1
  6
CONTINUOUS
 62
1
 10
-0.2666024561948
 20
-2.61939678549664
 30
0.0
 40
0.0787401569999998
 50
18.0000000018123
 51
63.0000000016646
  0
LINE
  8
1
  6
CONTINUOUS
 62
1
 10
-0.66060802373207
 20
2.062124248866
 30
0.0
 11
-0.67764310413077
 21
2.05658921571727
 31
0.0
  0
LINE
  8
1
  6
CONTINUOUS
 62
1
 10
1.74652933963197
 20
1.27999790803943
 30
0.0
 11
1.75705759834579
 21
1.26550700309233
 31
0.0
  0
LINE
  8
1
  6
CONTINUOUS
 62
1
 10
-2.16533581024779
 20
0.00895587176037083
 30
0.0
 11
-2.16533581024759
 21
-0.00895587180999868
 31
0.0
  0
ARC
  8
1
  6
CONTINUOUS
 62
1
 10
-0.70228467140008
 20
2.13137427764073
 30
0.0
 40
0.0787401570000007
 50
211.988945652416
 51
288.236975127673
  0
ARC
  8
1
  6
CONTINUOUS
 62
1
 10
-0.684630133536189
 20
2.1371105847209
 30
0.0
 40
0.0787401570000001
 50
287.763024874336
 51
4.01105434769359
  0
ARC
  8
1
  6
CONTINUOUS
 62
1
 10
1.50849602774276
 20
1.57966745695415
 30
0.0
 40
0.31496063
 50
319.988945653351
 51
27.0000000021331
  0
ARC
  8
1
  6
CONTINUOUS
 62
1
 10
-0.291893687777521
 20
2.16464953635783
 30
0.0
 40
0.314960630000001
 50
117.000000001549
 51
184.011054347694
  0
LINE
  8
1
  6
CONTINUOUS
 62
1
 10
-0.43488282159709
 20
2.44528151254644
 30
0.0
 11
-0.23085517308528
 21
2.54923879187067
 31
0.0
  0
LINE
  8
1
  6
CONTINUOUS
 62
1
 10
-0.1209556802547
 20
2.81284296979732
 30
0.0
 11
-0.19171611690363
 21
2.5950647388214
 31
0.0
  0
ARC
  8
1
  6
CONTINUOUS
 62
1
 10
0.178589679285609
 20
2.71551478257562
 30
0.0
 40
0.31496063
 50
72.0000000014017
 51
162.000000001403
  0
LINE
  8
1
  6
CONTINUOUS
 62
1
 10
0.27591786650733
 20
3.01506014211593
 30
0.0
 11
0.49369609747114
 21
2.94429970547092
 31
0.0
  0
LINE
  8
1
  6
CONTINUOUS
 62
1
 10
0.75780307584993
 20
3.05298533060094
 30
0.0
 11
0.55377542735103
 21
2.94902805127937
 31
0.0
  0
ARC
  8
1
  6
CONTINUOUS
 62
1
 10
0.90079220967379
 20
2.77235335441452
 30
0.0
 40
0.314960630000002
 50
27.0000000024255
 51
117.000000002426
  0
LINE
  8
1
  6
CONTINUOUS
 62
1
 10
1.18142418586022
 20
2.91534248823839
 30
0.0
 11
1.28538146518756
 21
2.71131483972817
 31
0.0
  0
LINE
  8
1
  6
CONTINUOUS
 62
1
 10
1.54898564311589
 20
2.60141534690162
 30
0.0
 11
1.33120741213889
 21
2.67217578354722
 31
0.0
  0
ARC
  8
1
  6
CONTINUOUS
 62
1
 10
1.45165745589878
 20
2.30186998735984
 30
0.0
 40
0.31496063
 50
342.000000002275
 51
72.0000000022794
  0
LINE
  8
1
  6
CONTINUOUS
 62
1
 10
1.75120281544057
 20
2.20454180014271
 30
0.0
 11
1.68044237879497
 21
1.98676356916571
 31
0.0
  0
LINE
  8
1
  6
CONTINUOUS
 62
1
 10
1.78912800392991
 20
1.72265659077658
 30
0.0
 11
1.68517072460361
 21
1.92668423928732
 31
0.0
  0
ARC
  8
1
  6
CONTINUOUS
 62
1
 10
1.8100394970408
 20
1.32654328622341
 30
0.0
 40
0.0787401569999999
 50
139.988945653357
 51
216.236975128614
  0
ARC
  8
1
  6
CONTINUOUS
 62
1
 10
-0.266602456313179
 20
2.61939678547232
 30
0.0
 40
0.0787401570000006
 50
297.000000001545
 51
342.000000001399
  0
ARC
  8
1
  6
CONTINUOUS
 62
1
 10
0.518028144122061
 20
3.01918604488047
 30
0.0
 40
0.0787401569999999
 50
252.000000001398
 51
297.000000002423
  0
ARC
  8
1
  6
CONTINUOUS
 62
1
 10
1.35553945878866
 20
2.74706212295714
 30
0.0
 40
0.0787401570000003
 50
207.000000002422
 51
252.000000002278
  0
ARC
  8
1
  6
CONTINUOUS
 62
1
 10
1.7553287182049
 20
1.96243152251594
 30
0.0
 40
0.0787401569999998
 50
162.000000002277
 51
207.00000000213
  0
ARC
  8
1
  6
CONTINUOUS
 62
1
 10
-2.2440752937659
 20
0.00928153982236143
 30
0.0
 40
0.078740157
 50
359.763024873397
 51
76.0110543467576
  0
ARC
  8
1
  6
CONTINUOUS
 62
1
 10
-2.24407529376569
 20
-0.00928153987378831
 30
0.0
 40
0.0787401570000009
 50
283.988945652644
 51
0.236975127914195
  0
ARC
  8
1
  6
CONTINUOUS
 62
1
 10
-1.03620211996463
 20
1.9228090666669
 30
0.0
 40
0.314960629999999
 50
31.9889456524198
 51
99.0000000011971
  0
ARC
  8
1
  6
CONTINUOUS
 62
1
 10
-2.14890415711606
 20
0.391306099809258
 30
0.0
 40
0.314960630000001
 50
189.000000000607
 51
256.011054346754
  0
LINE
  8
1
  6
CONTINUOUS
 62
1
 10
-2.49580833631445
 20
0.568201792765441
 30
0.0
 11
-2.45998709911303
 21
0.342035402143151
 31
0.0
  0
LINE
  8
1
  6
CONTINUOUS
 62
1
 10
-2.52729676827257
 20
0.619586243580251
 30
0.0
 11
-2.71254999649334
 21
0.754180592330611
 31
0.0
  0
ARC
  8
1
  6
CONTINUOUS
 62
1
 10
-2.52742078312868
 20
1.00898909456115
 30
0.0
 40
0.31496063
 50
144.000000000461
 51
234.000000000462
  0
LINE
  8
1
  6
CONTINUOUS
 62
1
 10
-2.64763493661634
 20
1.37937153613631
 30
0.0
 11
-2.78222928535923
 21
1.19411830792584
 31
0.0
  0
LINE
  8
1
  6
CONTINUOUS
 62
1
 10
-2.63356632676426
 20
1.43797151352308
 30
0.0
 11
-2.66938756396715
 21
1.66413790413227
 31
0.0
  0
ARC
  8
1
  6
CONTINUOUS
 62
1
 10
-2.35830462197093
 20
1.71340860180315
 30
0.0
 40
0.31496063
 50
99.0000000014899
 51
189.000000001491
  0
LINE
  8
1
  6
CONTINUOUS
 62
1
 10
-2.18140892902007
 20
2.06031278100424
 30
0.0
 11
-2.40757531964181
 21
2.02449154379937
 31
0.0
  0
LINE
  8
1
  6
CONTINUOUS
 62
1
 10
-2.13002447820574
 20
2.09180121296316
 30
0.0
 11
-1.99543012945822
 21
2.27705444118598
 31
0.0
  0
ARC
  8
1
  6
CONTINUOUS
 62
1
 10
-1.74062162722484
 20
2.09192522782522
 30
0.0
 40
0.314960629999999
 50
54.0000000013437
 51
144.000000001345
  0
LINE
  8
1
  6
CONTINUOUS
 62
1
 10
-1.37023918564125
 20
2.21213938131108
 30
0.0
 11
-1.55549241386408
 21
2.3467337300586
 31
0.0
  0
LINE
  8
1
  6
CONTINUOUS
 62
1
 10
-1.31163920825584
 20
2.19807077145964
 30
0.0
 11
-1.08547281763392
 21
2.23389200866336
 31
0.0
  0
ARC
  8
1
  6
CONTINUOUS
 62
1
 10
-2.57357907131985
 20
0.555884118427123
 30
0.0
 40
0.0787401570000001
 50
9.00000000061387
 51
54.0000000004676
  0
ARC
  8
1
  6
CONTINUOUS
 62
1
 10
-2.71133706176947
 20
1.42565383918358
 30
0.0
 40
0.0787401569999992
 50
324.000000000462
 51
9.00000000148972
  0
ARC
  8
1
  6
CONTINUOUS
 62
1
 10
-2.19372660335958
 20
2.13808351600945
 30
0.0
 40
0.0787401570000007
 50
279.000000001485
 51
324.000000001341
  0
ARC
  8
1
  6
CONTINUOUS
 62
1
 10
-1.32395688259495
 20
2.27584150646492
 30
0.0
 40
0.0787401570000018
 50
234.00000000134
 51
279.000000001193
  0
ARC
  8
1
  6
CONTINUOUS
 62
1
 10
1.82095060152366
 20
1.31152543928151
 30
0.0
 40
0.0787401570000004
 50
215.763024874099
 51
292.011054347456
  0
ARC
  8
1
  6
CONTINUOUS
 62
1
 10
1.96850393703141
 20
-0.94652088733828
 30
0.0
 40
0.314960630000001
 50
247.988945653118
 51
315.000000001895
  0
ARC
  8
1
  6
CONTINUOUS
 62
1
 10
1.96850393697826
 20
0.946520887418612
 30
0.0
 40
0.314960630000001
 50
45.0000000013139
 51
112.01105434746
  0
LINE
  8
1
  6
CONTINUOUS
 62
1
 10
2.35313199288239
 20
1.00731442608148
 30
0.0
 11
2.19121473425293
 21
1.1692316847035
 31
0.0
  0
LINE
  8
1
  6
CONTINUOUS
 62
1
 10
2.40880969184912
 20
0.984251968049151
 30
0.0
 11
2.63779527497991
 21
0.984251968053831
 31
0.0
  0
ARC
  8
1
  6
CONTINUOUS
 62
1
 10
2.63779527498634
 20
0.669291338053842
 30
0.0
 40
0.31496063
 50
1.16736534584692E-9
 51
90.0000000011674
  0
LINE
  8
1
  6
CONTINUOUS
 62
1
 10
2.95275590499101
 20
0.440305754942181
 30
0.0
 11
2.95275590498634
 21
0.669291338060251
 31
0.0
  0
LINE
  8
1
  6
CONTINUOUS
 62
1
 10
2.97581836302675
 20
0.384628055975261
 30
0.0
 11
3.1377356216497
 21
0.222710797364701
 31
0.0
  0
ARC
  8
1
  6
CONTINUOUS
 62
1
 10
2.91502482438697
 20
8.49228465327201E-11
 30
0.0
 40
0.31496063
 50
314.999999999999
 51
45.000000000001
  0
LINE
  8
1
  6
CONTINUOUS
 62
1
 10
2.9758183630472
 20
-0.384628055826809
 30
0.0
 11
3.13773562166675
 21
-0.222710797194879
 31
0.0
  0
LINE
  8
1
  6
CONTINUOUS
 62
1
 10
2.95275590501573
 20
-0.440305754793889
 30
0.0
 11
2.95275590502391
 21
-0.669291337924679
 31
0.0
  0
ARC
  8
1
  6
CONTINUOUS
 62
1
 10
2.63779527502393
 20
-0.66929133793593
 30
0.0
 40
0.31496063
 50
270.00000000204
 51
2.04549104896154E-9
  0
LINE
  8
1
  6
CONTINUOUS
 62
1
 10
2.40880969190437
 20
-0.984251967944109
 30
0.0
 11
2.63779527503517
 21
-0.984251967935918
 31
0.0
  0
LINE
  8
1
  6
CONTINUOUS
 62
1
 10
2.35313199293895
 20
-1.00731442597956
 30
0.0
 11
2.19121473431857
 21
-1.16923168461067
 31
0.0
  0
ARC
  8
1
  6
CONTINUOUS
 62
1
 10
1.82095060158051
 20
-1.31152543920269
 30
0.0
 40
0.0787401569999998
 50
67.9889456531226
 51
144.23697512838
  0
ARC
  8
1
  6
CONTINUOUS
 62
1
 10
2.40880969184751
 20
1.06299212504915
 30
0.0
 40
0.0787401570000011
 50
225.000000001311
 51
270.000000001165
  0
ARC
  8
1
  6
CONTINUOUS
 62
1
 10
3.03149606199101
 20
0.44030575494378
 30
0.0
 40
0.0787401570000001
 50
180.000000001166
 51
225.000000002191
  0
ARC
  8
1
  6
CONTINUOUS
 62
1
 10
3.03149606201573
 20
-0.44030575479108
 30
0.0
 40
0.0787401569999994
 50
135.000000002191
 51
180.000000002047
  0
ARC
  8
1
  6
CONTINUOUS
 62
1
 10
2.40880969190719
 20
-1.06299212494411
 30
0.0
 40
0.0787401570000006
 50
90.0000000020463
 51
135.000000001898
  0
ARC
  8
1
  6
CONTINUOUS
 62
1
 10
0
 20
3.00647803596115E-15
 30
0.0
 40
0.196850394
 50
359.999999999992
 51
180
  0
ARC
  8
1
  6
CONTINUOUS
 62
1
 10
0
 20
-3.11418228380825E-14
 30
0.0
 40
0.196850394
 50
179.999999999993
 51
359.999999999992
  0
ARC
  8
2
  6
CONTINUOUS
 62
2
 10
4.99999652792127E-10
 20
-5.00007475618492E-10
 30
0.0
 40
0.3937007875
 50
7.27642720026482E-8
 51
90.0000000727642
  0
ARC
  8
2
  6
CONTINUOUS
 62
2
 10
1.66533453693774E-16
 20
-4.30164681374142E-14
 30
0.0
 40
0.393700788000002
 50
179.999999999993
 51
269.999999999996
  0
ARC
  8
2
  6
CONTINUOUS
 62
2
 10
1.96850393699787
 20
0.835165488738531
 30
0.0
 40
0.0787401569999998
 50
45.0000000001447
 51
225.000000000146
  0
ARC
  8
2
  6
CONTINUOUS
 62
2
 10
1.96850393699787
 20
0.83516548873852
 30
0.0
 40
0.0787401569999998
 50
225.000000000142
 51
45.000000000145
  0
ARC
  8
2
  6
CONTINUOUS
 62
2
 10
1.37795275649658
 20
0.590551180496971
 30
0.0
 40
0.0787401570000004
 50
89.9999999999993
 51
269.999999999999
  0
ARC
  8
2
  6
CONTINUOUS
 62
2
 10
1.37795275649739
 20
0.590551180496971
 30
0.0
 40
0.0787401570000004
 50
269.999999999999
 51
90.000000000001
  0
ARC
  8
2
  6
CONTINUOUS
 62
2
 10
1.13333844826146
 20
-6.41944830626073E-12
 30
0.0
 40
0.0787401570000006
 50
135.000000000431
 51
315.000000000432
  0
ARC
  8
2
  6
CONTINUOUS
 62
2
 10
1.13333844826146
 20
-6.40827668707544E-12
 30
0.0
 40
0.078740157
 50
315.000000000431
 51
135.000000000438
  0
ARC
  8
2
  6
CONTINUOUS
 62
2
 10
1.37795275650603
 20
-0.590551180506049
 30
0.0
 40
0.0787401569999995
 50
180.000000000577
 51
5.8325011748678E-10
  0
ARC
  8
2
  6
CONTINUOUS
 62
2
 10
1.37795275650603
 20
-0.590551180506048
 30
0.0
 40
0.0787401569999995
 50
5.83211950830602E-10
 51
180.000000000585
  0
ARC
  8
2
  6
CONTINUOUS
 62
2
 10
1.96850393701066
 20
-0.835165488738569
 30
0.0
 40
0.0787401569999996
 50
225.000000000726
 51
45.0000000007296
  0
ARC
  8
2
  6
CONTINUOUS
 62
2
 10
1.96850393701066
 20
-0.835165488738559
 30
0.0
 40
0.0787401570000002
 50
45.0000000007299
 51
225.000000000731
  0
ARC
  8
2
  6
CONTINUOUS
 62
2
 10
2.55905511751025
 20
-0.590551180490979
 30
0.0
 40
0.0787401570000004
 50
269.999999999999
 51
90.000000000001
  0
ARC
  8
2
  6
CONTINUOUS
 62
2
 10
2.55905511750784
 20
-0.590551180490979
 30
0.0
 40
0.0787401570000004
 50
90.0000000000001
 51
270
  0
ARC
  8
2
  6
CONTINUOUS
 62
2
 10
2.80366942573854
 20
1.49012815975347E-11
 30
0.0
 40
0.0787401570000006
 50
315.000000001018
 51
135.000000001023
  0
ARC
  8
2
  6
CONTINUOUS
 62
2
 10
2.80366942573854
 20
1.49003517857516E-11
 30
0.0
 40
0.0787401570000002
 50
135.000000001019
 51
315.00000000102
  0
ARC
  8
2
  6
CONTINUOUS
 62
2
 10
0.22914397241867
 20
2.61629639588044
 30
0.0
 40
0.0787401570000003
 50
72.0000000002328
 51
252.000000000234
  0
ARC
  8
2
  6
CONTINUOUS
 62
2
 10
0.229143972418681
 20
2.61629639588044
 30
0.0
 40
0.0787401570000003
 50
252.000000000228
 51
72.0000000002324
  0
ARC
  8
2
  6
CONTINUOUS
 62
2
 10
-0.18598841023199
 20
2.13023882576937
 30
0.0
 40
0.0787401569999995
 50
117.000000000376
 51
297.000000000376
  0
ARC
  8
2
  6
CONTINUOUS
 62
2
 10
-0.185988410231979
 20
2.13023882576938
 30
0.0
 40
0.0787401569999993
 50
297.000000000373
 51
117.00000000038
  0
ARC
  8
2
  6
CONTINUOUS
 62
2
 10
-0.13583672922018
 20
1.49300129903451
 30
0.0
 40
0.078740157
 50
162.000000000519
 51
342.000000000521
  0
ARC
  8
2
  6
CONTINUOUS
 62
2
 10
-0.13583672922018
 20
1.49300129903451
 30
0.0
 40
0.0787401569999996
 50
342.000000000521
 51
162.000000000526
  0
ARC
  8
2
  6
CONTINUOUS
 62
2
 10
0.350220840893
 20
1.07786891638633
 30
0.0
 40
0.0787401570000002
 50
207.000000000665
 51
27.0000000006709
  0
ARC
  8
2
  6
CONTINUOUS
 62
2
 10
0.350220840893
 20
1.07786891638633
 30
0.0
 40
0.0787401570000002
 50
27.0000000006708
 51
207.000000000672
  0
ARC
  8
2
  6
CONTINUOUS
 62
2
 10
0.987458367627621
 20
1.12802059740139
 30
0.0
 40
0.0787401569999999
 50
252.000000000813
 51
72.0000000008173
  0
ARC
  8
2
  6
CONTINUOUS
 62
2
 10
0.98745836762762
 20
1.12802059740139
 30
0.0
 40
0.078740157
 50
72.0000000008171
 51
252.000000000819
  0
ARC
  8
2
  6
CONTINUOUS
 62
2
 10
1.40259075027331
 20
1.61407816751669
 30
0.0
 40
0.0787401569999998
 50
297.000000000957
 51
117.000000000965
  0
ARC
  8
2
  6
CONTINUOUS
 62
2
 10
1.40259075027331
 20
1.61407816751669
 30
0.0
 40
0.0787401570000002
 50
117.000000000958
 51
297.00000000096
  0
ARC
  8
2
  6
CONTINUOUS
 62
2
 10
1.352439069255
 20
2.25131569425104
 30
0.0
 40
0.078740157
 50
342.000000001103
 51
162.000000001111
  0
ARC
  8
2
  6
CONTINUOUS
 62
2
 10
1.352439069255
 20
2.25131569425104
 30
0.0
 40
0.0787401570000002
 50
162.000000001105
 51
342.000000001105
  0
ARC
  8
2
  6
CONTINUOUS
 62
2
 10
0.86638149913758
 20
2.66644807689426
 30
0.0
 40
0.0787401570000006
 50
27.0000000012558
 51
207.000000001257
  0
ARC
  8
2
  6
CONTINUOUS
 62
2
 10
0.86638149913759
 20
2.66644807689426
 30
0.0
 40
0.0787401570000003
 50
207.000000001251
 51
27.0000000012559
  0
ARC
  8
2
  6
CONTINUOUS
 62
2
 10
-2.41743635422987
 20
1.02640891677763
 30
0.0
 40
0.0787401570000008
 50
144.000000000461
 51
324.000000000461
  0
ARC
  8
2
  6
CONTINUOUS
 62
2
 10
-2.41743635422987
 20
1.02640891677763
 30
0.0
 40
0.0787401570000006
 50
324.000000000462
 51
144.000000000468
  0
ARC
  8
2
  6
CONTINUOUS
 62
2
 10
-2.08345109603335
 20
0.48139450972504
 30
0.0
 40
0.0787401569999999
 50
189.000000000607
 51
9.00000000061218
  0
ARC
  8
2
  6
CONTINUOUS
 62
2
 10
-2.08345109603335
 20
0.481394509725052
 30
0.0
 40
0.0787401570000001
 50
9.00000000061209
 51
189.000000000614
  0
ARC
  8
2
  6
CONTINUOUS
 62
2
 10
-1.46190447207461
 20
0.332174367542481
 30
0.0
 40
0.0787401570000004
 50
234.000000000754
 51
54.0000000007581
  0
ARC
  8
2
  6
CONTINUOUS
 62
2
 10
-1.46190447207462
 20
0.332174367542491
 30
0.0
 40
0.0787401569999997
 50
54.0000000007588
 51
234.00000000076
  0
ARC
  8
2
  6
CONTINUOUS
 62
2
 10
-0.916890065023729
 20
0.666159625741792
 30
0.0
 40
0.0787401570000003
 50
279.000000000901
 51
99.000000000905
  0
ARC
  8
2
  6
CONTINUOUS
 62
2
 10
-0.916890065023741
 20
0.666159625741791
 30
0.0
 40
0.0787401570000008
 50
99.0000000009018
 51
279.0000000009
  0
ARC
  8
2
  6
CONTINUOUS
 62
2
 10
-0.767669922844339
 20
1.28770624970128
 30
0.0
 40
0.0787401569999995
 50
324.000000001045
 51
144.000000001052
  0
ARC
  8
2
  6
CONTINUOUS
 62
2
 10
-0.76766992284434
 20
1.28770624970128
 30
0.0
 40
0.0787401569999996
 50
144.000000001045
 51
324.000000001045
  0
ARC
  8
2
  6
CONTINUOUS
 62
2
 10
-1.10165518104643
 20
1.83272065675046
 30
0.0
 40
0.0787401569999999
 50
9.00000000119719
 51
189.000000001199
  0
ARC
  8
2
  6
CONTINUOUS
 62
2
 10
-1.10165518104643
 20
1.83272065675046
 30
0.0
 40
0.0787401569999993
 50
189.000000001192
 51
9.00000000119747
  0
ARC
  8
2
  6
CONTINUOUS
 62
2
 10
-1.72320180500668
 20
1.98194079892668
 30
0.0
 40
0.0787401570000006
 50
54.0000000013426
 51
234.000000001344
  0
ARC
  8
2
  6
CONTINUOUS
 62
2
 10
-1.72320180500668
 20
1.98194079892668
 30
0.0
 40
0.0787401570000005
 50
234.000000001338
 51
54.0000000013429
  0
ARC
  8
2
  6
CONTINUOUS
 62
2
 10
-2.26821621205416
 20
1.64795554072181
 30
0.0
 40
0.0787401570000003
 50
99.0000000014873
 51
279.000000001487
  0
ARC
  8
2
  6
CONTINUOUS
 62
2
 10
-2.26821621205416
 20
1.64795554072181
 30
0.0
 40
0.0787401570000002
 50
279.000000001485
 51
99.0000000014896
  0
ARC
  8
2
  6
CONTINUOUS
 62
2
 10
-1.72320180495359
 20
-1.9819407989639
 30
0.0
 40
0.0787401569999989
 50
216.000000000697
 51
36.0000000007006
  0
ARC
  8
2
  6
CONTINUOUS
 62
2
 10
-1.72320180495359
 20
-1.9819407989639
 30
0.0
 40
0.0787401570000004
 50
36.0000000006998
 51
216.000000000702
  0
ARC
  8
2
  6
CONTINUOUS
 62
2
 10
-1.10165518099867
 20
-1.83272065676547
 30
0.0
 40
0.0787401569999997
 50
261.000000000842
 51
81.0000000008472
  0
ARC
  8
2
  6
CONTINUOUS
 62
2
 10
-1.10165518099867
 20
-1.83272065676547
 30
0.0
 40
0.0787401570000002
 50
81.000000000846
 51
261.000000000847
  0
ARC
  8
2
  6
CONTINUOUS
 62
2
 10
-0.767669922816049
 20
-1.28770624970436
 30
0.0
 40
0.0787401569999998
 50
306.000000000987
 51
126.000000000994
  0
ARC
  8
2
  6
CONTINUOUS
 62
2
 10
-0.767669922816061
 20
-1.28770624970436
 30
0.0
 40
0.0787401569999999
 50
126.000000000993
 51
306.000000000993
  0
ARC
  8
2
  6
CONTINUOUS
 62
2
 10
-0.91689006501765
 20
-0.666159625750188
 30
0.0
 40
0.0787401569999999
 50
351.000000001134
 51
171.00000000114
  0
ARC
  8
2
  6
CONTINUOUS
 62
2
 10
-0.91689006501765
 20
-0.6661596257502
 30
0.0
 40
0.0787401570000006
 50
171.000000001136
 51
351.000000001136
  0
ARC
  8
2
  6
CONTINUOUS
 62
2
 10
-1.46190447208047
 20
-0.332174367570359
 30
0.0
 40
0.0787401570000004
 50
36.0000000012846
 51
216.000000001286
  0
ARC
  8
2
  6
CONTINUOUS
 62
2
 10
-1.46190447208047
 20
-0.332174367570369
 30
0.0
 40
0.0787401569999988
 50
216.000000001281
 51
36.0000000012854
  0
ARC
  8
2
  6
CONTINUOUS
 62
2
 10
-2.08345109603387
 20
-0.481394509775129
 30
0.0
 40
0.078740157
 50
81.0000000014316
 51
261.000000001433
  0
ARC
  8
2
  6
CONTINUOUS
 62
2
 10
-2.08345109603387
 20
-0.481394509775129
 30
0.0
 40
0.0787401569999999
 50
261.000000001429
 51
81.0000000014316
  0
ARC
  8
2
  6
CONTINUOUS
 62
2
 10
-2.41743635421092
 20
-1.02640891683965
 30
0.0
 40
0.0787401570000012
 50
126.000000001576
 51
306.000000001576
  0
ARC
  8
2
  6
CONTINUOUS
 62
2
 10
-2.41743635421092
 20
-1.02640891683965
 30
0.0
 40
0.0787401569999999
 50
306.000000001574
 51
126.000000001579
  0
ARC
  8
2
  6
CONTINUOUS
 62
2
 10
-2.26821621200298
 20
-1.64795554079229
 30
0.0
 40
0.0787401570000004
 50
171.000000001719
 51
351.000000001718
  0
ARC
  8
2
  6
CONTINUOUS
 62
2
 10
-2.26821621200298
 20
-1.64795554079229
 30
0.0
 40
0.0787401569999999
 50
351.000000001718
 51
171.000000001725
  0
ARC
  8
2
  6
CONTINUOUS
 62
2
 10
1.35243906930677
 20
-2.25131569421208
 30
0.0
 40
0.0787401570000003
 50
288.00000000093
 51
108.000000000936
  0
ARC
  8
2
  6
CONTINUOUS
 62
2
 10
1.35243906930677
 20
-2.25131569421208
 30
0.0
 40
0.0787401570000006
 50
108.000000000928
 51
288.000000000929
  0
ARC
  8
2
  6
CONTINUOUS
 62
2
 10
1.40259075030231
 20
-1.61407816747593
 30
0.0
 40
0.0787401569999997
 50
333.000000001075
 51
153.000000001082
  0
ARC
  8
2
  6
CONTINUOUS
 62
2
 10
1.40259075030231
 20
-1.61407816747593
 30
0.0
 40
0.0787401569999991
 50
153.000000001074
 51
333.000000001075
  0
ARC
  8
2
  6
CONTINUOUS
 62
2
 10
0.98745836763925
 20
-1.12802059737546
 30
0.0
 40
0.078740157
 50
18.0000000012262
 51
198.000000001228
  0
ARC
  8
2
  6
CONTINUOUS
 62
2
 10
0.98745836763925
 20
-1.12802059737546
 30
0.0
 40
0.0787401569999997
 50
198.00000000122
 51
18.0000000012264
  0
ARC
  8
2
  6
CONTINUOUS
 62
2
 10
0.35022084090284
 20
-1.07786891638317
 30
0.0
 40
0.0787401569999999
 50
63.000000001373
 51
243.000000001374
  0
ARC
  8
2
  6
CONTINUOUS
 62
2
 10
0.350220840902851
 20
-1.07786891638317
 30
0.0
 40
0.0787401570000002
 50
243.000000001369
 51
63.0000000013732
  0
ARC
  8
2
  6
CONTINUOUS
 62
2
 10
-0.135836729195511
 20
-1.49300129904872
 30
0.0
 40
0.0787401570000004
 50
108.000000001514
 51
288.000000001514
  0
ARC
  8
2
  6
CONTINUOUS
 62
2
 10
-0.135836729195499
 20
-1.49300129904871
 30
0.0
 40
0.0787401570000001
 50
288.000000001514
 51
108.00000000152
  0
ARC
  8
2
  6
CONTINUOUS
 62
2
 10
-0.18598841018455
 20
-2.13023882578538
 30
0.0
 40
0.0787401570000005
 50
153.00000000166
 51
333.000000001661
  0
ARC
  8
2
  6
CONTINUOUS
 62
2
 10
-0.18598841018455
 20
-2.13023882578537
 30
0.0
 40
0.0787401570000005
 50
333.000000001663
 51
153.000000001666
  0
ARC
  8
2
  6
CONTINUOUS
 62
2
 10
0.22914397248348
 20
-2.61629639588161
 30
0.0
 40
0.0787401569999999
 50
198.000000001808
 51
18.0000000018113
  0
ARC
  8
2
  6
CONTINUOUS
 62
2
 10
0.22914397248348
 20
-2.61629639588161
 30
0.0
 40
0.0787401569999996
 50
18.0000000018108
 51
198.000000001813
  0
ARC
  8
2
  6
CONTINUOUS
 62
2
 10
0.866381499220401
 20
-2.66644807686739
 30
0.0
 40
0.0787401569999998
 50
243.000000001951
 51
63.0000000019571
  0
ARC
  8
2
  6
CONTINUOUS
 62
2
 10
0.86638149922039
 20
-2.66644807686739
 30
0.0
 40
0.0787401569999996
 50
63.0000000019575
 51
243.000000001959
  0
ARC
  8
2
  6
CONTINUOUS
 62
2
 10
-5.00011052439396E-10
 20
-5.00018360050092E-10
 30
0.0
 40
0.3937007875
 50
89.9999999272325
 51
179.999999927234
  0
ARC
  8
2
  6
CONTINUOUS
 62
2
 10
1.968503937
 20
3.00647803596113E-15
 30
0.0
 40
0.196850394
 50
359.999999999992
 51
180
  0
ARC
  8
2
  6
CONTINUOUS
 62
2
 10
1.968503937
 20
-3.11418228380824E-14
 30
0.0
 40
0.196850394
 50
179.999999999993
 51
359.999999999992
  0
ARC
  8
2
  6
CONTINUOUS
 62
2
 10
0.608301170019339
 20
1.87215849663898
 30
0.0
 40
0.196850394
 50
72.0000000002298
 51
252.000000000234
  0
ARC
  8
2
  6
CONTINUOUS
 62
2
 10
0.608301170019352
 20
1.87215849663897
 30
0.0
 40
0.196850394
 50
252.000000000226
 51
72.0000000002297
  0
ARC
  8
2
  6
CONTINUOUS
 62
2
 10
-1.59255313853645
 20
1.15705758323523
 30
0.0
 40
0.196850394
 50
144.000000000462
 51
324.000000000465
  0
ARC
  8
2
  6
CONTINUOUS
 62
2
 10
-1.59255313853644
 20
1.15705758323525
 30
0.0
 40
0.196850394
 50
324.00000000046
 51
144.000000000465
  0
ARC
  8
2
  6
CONTINUOUS
 62
2
 10
-1.59255313851281
 20
-1.15705758326781
 30
0.0
 40
0.196850394
 50
216.000000000696
 51
36.0000000007008
  0
ARC
  8
2
  6
CONTINUOUS
 62
2
 10
-1.59255313851282
 20
-1.1570575832678
 30
0.0
 40
0.196850393999999
 50
36.0000000006979
 51
216.000000000698
  0
ARC
  8
2
  6
CONTINUOUS
 62
2
 10
0.608301170057582
 20
-1.8721584966266
 30
0.0
 40
0.196850394
 50
288.000000000928
 51
108.000000000935
  0
ARC
  8
2
  6
CONTINUOUS
 62
2
 10
0.608301170057558
 20
-1.87215849662661
 30
0.0
 40
0.196850394
 50
108.00000000093
 51
288.00000000093
  0
ARC
  8
2
  6
CONTINUOUS
 62
2
 10
2.39936940288738E-14
 20
-2.95874436062604E-14
 30
0.0
 40
0.393700787999999
 50
269.999999999995
 51
359.999999999993
  0
ARC
  8
2
  6
CONTINUOUS
 62
2
 10
2.5590551175
 20
0.590551180499981
 30
0.0
 40
0.0787401570000006
 50
315.000000001018
 51
135.000000001023
  0
ARC
  8
2
  6
CONTINUOUS
 62
2
 10
2.5590551175
 20
0.59055118049998
 30
0.0
 40
0.0787401570000002
 50
135.000000001019
 51
315.00000000102
  0
ARC
  8
3
  6
CONTINUOUS
 62
3
 10
1.968503937
 20
-4.2271842158623E-14
 30
0.0
 40
0.295275591
 50
179.999999999993
 51
359.999999999992
  0
ARC
  8
3
  6
CONTINUOUS
 62
3
 10
1.968503937
 20
3.88379604203197E-15
 30
0.0
 40
0.295275591
 50
359.999999999992
 51
180
  0
ARC
  8
3
  6
CONTINUOUS
 62
3
 10
9.65894031423886E-15
 20
2.74753619265432E-14
 30
0.0
 40
0.590551180999992
 50
359.999999999993
 51
89.9999999999997
  0
ARC
  8
3
  6
CONTINUOUS
 62
3
 10
2.22044604925031E-16
 20
-6.41820190779025E-14
 30
0.0
 40
0.590551181000002
 50
179.999999999993
 51
269.999999999995
  0
ARC
  8
3
  6
CONTINUOUS
 62
3
 10
0.608301170019353
 20
1.87215849663897
 30
0.0
 40
0.295275591
 50
252.000000000226
 51
72.0000000002298
  0
ARC
  8
3
  6
CONTINUOUS
 62
3
 10
0.608301170019329
 20
1.87215849663898
 30
0.0
 40
0.295275591
 50
72.0000000002298
 51
252.000000000234
  0
ARC
  8
3
  6
CONTINUOUS
 62
3
 10
-1.59255313853644
 20
1.15705758323526
 30
0.0
 40
0.295275591
 50
324.00000000046
 51
144.000000000465
  0
ARC
  8
3
  6
CONTINUOUS
 62
3
 10
-1.59255313853645
 20
1.15705758323523
 30
0.0
 40
0.295275591
 50
144.00000000046
 51
324.000000000463
  0
ARC
  8
3
  6
CONTINUOUS
 62
3
 10
-1.59255313851282
 20
-1.1570575832678
 30
0.0
 40
0.295275591
 50
36.0000000006977
 51
216.000000000698
  0
ARC
  8
3
  6
CONTINUOUS
 62
3
 10
-1.59255313851281
 20
-1.15705758326782
 30
0.0
 40
0.295275591
 50
216.000000000695
 51
36.0000000007008
  0
ARC
  8
3
  6
CONTINUOUS
 62
3
 10
0.608301170057557
 20
-1.87215849662661
 30
0.0
 40
0.295275591
 50
108.000000000928
 51
288.000000000928
  0
ARC
  8
3
  6
CONTINUOUS
 62
3
 10
0.608301170057583
 20
-1.8721584966266
 30
0.0
 40
0.295275591000001
 50
288.000000000928
 51
108.000000000935
  0
ARC
  8
3
  6
CONTINUOUS
 62
3
 10
-1.22660979250537E-14
 20
-9.10382880192628E-15
 30
0.0
 40
0.59055118099999
 50
89.999999999998
 51
179.999999999999
  0
ARC
  8
3
  6
CONTINUOUS
 62
3
 10
3.6656674777966E-14
 20
-3.8968828164343E-14
 30
0.0
 40
0.590551180999998
 50
269.999999999995
 51
359.999999999993
  0
LINE
  8
4
  6
CONTINUOUS
 62
4
 10
6.20799956996117
 20
7.03913880139086
 30
0.0
 11
6.28742379227169
 21
6.88325998829422
 31
0.0
  0
LINE
  8
4
  6
CONTINUOUS
 62
4
 10
6.15504693087429
 20
7.05634415679745
 30
0.0
 11
5.99916811777346
 21
6.97691993448479
 31
0.0
  0
ARC
  8
4
  6
CONTINUOUS
 62
4
 10
6.17292057271443
 20
7.02126515955072
 30
0.0
 40
0.0393700790000001
 50
27.0000000002321
 51
117.000000000234
  0
LINE
  8
4
  6
CONTINUOUS
 62
4
 10
5.80274408047779
 20
7.02861732115017
 30
0.0
 11
5.96912845245259
 21
6.97455576155148
 31
0.0
  0
LINE
  8
4
  6
CONTINUOUS
 62
4
 10
5.75313488681707
 20
7.00334017445072
 30
0.0
 11
5.69907332721832
 21
6.83695580247587
 31
0.0
  0
ARC
  8
4
  6
CONTINUOUS
 62
4
 10
5.79057805699715
 20
6.99117415097008
 30
0.0
 40
0.0393700789999999
 50
72.0000000003786
 51
162.00000000038
  0
LINE
  8
4
  6
CONTINUOUS
 62
4
 10
5.52362498577807
 20
6.73461860639638
 30
0.0
 11
5.67950379887855
 21
6.81404282870985
 31
0.0
  0
LINE
  8
4
  6
CONTINUOUS
 62
4
 10
5.50641963037174
 20
6.68166596730941
 30
0.0
 11
5.58584385268523
 21
6.52578715420893
 31
0.0
  0
ARC
  8
4
  6
CONTINUOUS
 62
4
 10
5.54149862761839
 20
6.69953960914973
 30
0.0
 40
0.0393700789999992
 50
117.000000000523
 51
207.000000000525
  0
LINE
  8
4
  6
CONTINUOUS
 62
4
 10
5.53414646602083
 20
6.32936311691305
 30
0.0
 11
5.58820802561873
 21
6.49574748888817
 31
0.0
  0
LINE
  8
4
  6
CONTINUOUS
 62
4
 10
5.55942361272053
 20
6.27975392325245
 30
0.0
 11
5.72580798469587
 21
6.22569236365462
 31
0.0
  0
ARC
  8
4
  6
CONTINUOUS
 62
4
 10
5.57158963620098
 20
6.3171970934326
 30
0.0
 40
0.0393700790000003
 50
162.000000000671
 51
252.000000000672
  0
LINE
  8
4
  6
CONTINUOUS
 62
4
 10
5.82814518077605
 20
6.05024402221483
 30
0.0
 11
5.74872095846169
 21
6.20612283531506
 31
0.0
  0
LINE
  8
4
  6
CONTINUOUS
 62
4
 10
5.8810978198631
 20
6.03303866680877
 30
0.0
 11
6.03697663296291
 21
6.11246288912292
 31
0.0
  0
ARC
  8
4
  6
CONTINUOUS
 62
4
 10
5.8632241780226
 20
6.06811766405533
 30
0.0
 40
0.0393700789999997
 50
207.000000000816
 51
297.000000000818
  0
LINE
  8
4
  6
CONTINUOUS
 62
4
 10
6.23340067025932
 20
6.06076550245966
 30
0.0
 11
6.06701629828414
 21
6.11482706205642
 31
0.0
  0
LINE
  8
4
  6
CONTINUOUS
 62
4
 10
6.28300986391978
 20
6.08604264915961
 30
0.0
 11
6.33707142351684
 21
6.25242702113502
 31
0.0
  0
ARC
  8
4
  6
CONTINUOUS
 62
4
 10
6.24556669373958
 20
6.09820867263986
 30
0.0
 40
0.0393700789999995
 50
252.000000000961
 51
342.000000000963
  0
LINE
  8
4
  6
CONTINUOUS
 62
4
 10
6.51251976495603
 20
6.3547642172163
 30
0.0
 11
6.35664095185637
 21
6.27533999490123
 31
0.0
  0
LINE
  8
4
  6
CONTINUOUS
 62
4
 10
6.52972512036182
 20
6.40771685630344
 30
0.0
 11
6.45030089804675
 21
6.56359566940311
 31
0.0
  0
ARC
  8
4
  6
CONTINUOUS
 62
4
 10
6.49464612311536
 20
6.38984321446276
 30
0.0
 40
0.0393700790000002
 50
297.000000001108
 51
27.0000000011112
  0
LINE
  8
4
  6
CONTINUOUS
 62
4
 10
6.50199828470914
 20
6.76001970669952
 30
0.0
 11
6.44793672511294
 21
6.59363533472385
 31
0.0
  0
LINE
  8
4
  6
CONTINUOUS
 62
4
 10
6.47672113800894
 20
6.80962890035985
 30
0.0
 11
6.3103367660377
 21
6.86369045995431
 31
0.0
  0
ARC
  8
4
  6
CONTINUOUS
 62
4
 10
6.46455511452887
 20
6.77218573017958
 30
0.0
 40
0.0393700790000003
 50
342.000000001253
 51
72.0000000012564
  0
ARC
  8
4
  6
CONTINUOUS
 62
4
 10
5.98129447593332
 20
7.01199893173153
 30
0.0
 40
0.0393700790000005
 50
252.000000000231
 51
297.00000000023
  0
ARC
  8
4
  6
CONTINUOUS
 62
4
 10
5.66163015703823
 20
6.8491218259565
 30
0.0
 40
0.0393700789999999
 50
297.000000000523
 51
342.000000000377
  0
ARC
  8
4
  6
CONTINUOUS
 62
4
 10
5.55076485543858
 20
6.50791351236861
 30
0.0
 40
0.0393700789999994
 50
342.00000000067
 51
27.0000000005246
  0
ARC
  8
4
  6
CONTINUOUS
 62
4
 10
5.71364196121514
 20
6.18824919347456
 30
0.0
 40
0.0393700790000001
 50
27.0000000008172
 51
72.0000000002323
  0
ARC
  8
4
  6
CONTINUOUS
 62
4
 10
6.05485027480341
 20
6.07738389187636
 30
0.0
 40
0.0393700789999993
 50
72.0000000002337
 51
117.000000000819
  0
ARC
  8
4
  6
CONTINUOUS
 62
4
 10
6.37451459369705
 20
6.24026099765476
 30
0.0
 40
0.0393700789999996
 50
117.000000001111
 51
162.000000000964
  0
ARC
  8
4
  6
CONTINUOUS
 62
4
 10
6.48537989529321
 20
6.58146931124378
 30
0.0
 40
0.0393700789999995
 50
162.000000001253
 51
207.000000001106
  0
ARC
  8
4
  6
CONTINUOUS
 62
4
 10
6.32250278951843
 20
6.90113363013436
 30
0.0
 40
0.0393700790000005
 50
207.000000000233
 51
252.000000000233
  0
LINE
  8
4
  6
CONTINUOUS
 62
4
 10
2.37373595316616
 20
-0.151544976326209
 30
0.0
 11
2.49744207965561
 21
-0.027838849836769
 31
0.0
  0
LINE
  8
4
  6
CONTINUOUS
 62
4
 10
2.37373595316283
 20
0.151544976329511
 30
0.0
 11
2.49744207965561
 21
0.0278388498367308
 31
0.0
  0
ARC
  8
4
  6
CONTINUOUS
 62
4
 10
2.46960322981886
 20
-1.8471335572201E-14
 30
0.0
 40
0.0393700789999996
 50
314.999999999999
 51
45.000000000001
  0
LINE
  8
4
  6
CONTINUOUS
 62
4
 10
2.36220472399958
 20
0.179383826166261
 30
0.0
 11
2.36220472399909
 21
0.354330708000991
 31
0.0
  0
LINE
  8
4
  6
CONTINUOUS
 62
4
 10
2.1478877631642
 20
0.393700787000441
 30
0.0
 11
2.32283464499899
 21
0.393700787000881
 31
0.0
  0
ARC
  8
4
  6
CONTINUOUS
 62
4
 10
2.32283464499909
 20
0.354330708000891
 30
0.0
 40
0.0393700789999996
 50
1.43729266055336E-10
 51
90.0000000001454
  0
LINE
  8
4
  6
CONTINUOUS
 62
4
 10
2.12004891332749
 20
0.405232016163551
 30
0.0
 11
1.99634278683405
 21
0.528938142655731
 31
0.0
  0
LINE
  8
4
  6
CONTINUOUS
 62
4
 10
1.81695896066836
 20
0.405232016161991
 30
0.0
 11
1.94066508716055
 21
0.528938142655451
 31
0.0
  0
ARC
  8
4
  6
CONTINUOUS
 62
4
 10
1.96850393699744
 20
0.501099292818841
 30
0.0
 40
0.039370079
 50
45.0000000002904
 51
135.000000000292
  0
LINE
  8
4
  6
CONTINUOUS
 62
4
 10
1.78912011083177
 20
0.393700786998601
 30
0.0
 11
1.61417322899698
 21
0.393700786997261
 31
0.0
  0
LINE
  8
4
  6
CONTINUOUS
 62
4
 10
1.57480314999875
 20
0.179383826162001
 30
0.0
 11
1.57480314999729
 21
0.354330707996961
 31
0.0
  0
ARC
  8
4
  6
CONTINUOUS
 62
4
 10
1.61417322899729
 20
0.354330707997261
 30
0.0
 40
0.0393700789999997
 50
90.0000000004368
 51
180.000000000439
  0
LINE
  8
4
  6
CONTINUOUS
 62
4
 10
1.56327192083578
 20
0.151544976325531
 30
0.0
 11
1.43956579434411
 21
0.0278388498313307
 31
0.0
  0
LINE
  8
4
  6
CONTINUOUS
 62
4
 10
1.56327192083855
 20
-0.151544976333519
 30
0.0
 11
1.43956579434467
 21
-0.0278388498421691
 31
0.0
  0
ARC
  8
4
  6
CONTINUOUS
 62
4
 10
1.46740464418086
 20
-5.41878347748437E-12
 30
0.0
 40
0.0393700790000009
 50
134.999999999999
 51
225.000000000001
  0
LINE
  8
4
  6
CONTINUOUS
 62
4
 10
1.57480315000208
 20
-0.179383826170559
 30
0.0
 11
1.57480315000452
 21
-0.354330708005049
 31
0.0
  0
LINE
  8
4
  6
CONTINUOUS
 62
4
 10
1.78912011083982
 20
-0.393700787002309
 30
0.0
 11
1.61417322900503
 21
-0.393700787004539
 31
0.0
  0
ARC
  8
4
  6
CONTINUOUS
 62
4
 10
1.61417322900452
 20
-0.354330708004539
 30
0.0
 40
0.0393700790000004
 50
180.000000000727
 51
270.000000000728
  0
LINE
  8
4
  6
CONTINUOUS
 62
4
 10
1.81695896067664
 20
-0.405232016165139
 30
0.0
 11
1.94066508717135
 21
-0.528938142656059
 31
0.0
  0
LINE
  8
4
  6
CONTINUOUS
 62
4
 10
2.12004891333578
 20
-0.405232016160489
 30
0.0
 11
1.99634278684485
 21
-0.528938142655199
 31
0.0
  0
ARC
  8
4
  6
CONTINUOUS
 62
4
 10
1.96850393700768
 20
-0.50109929281888
 30
0.0
 40
0.0393700790000003
 50
225.000000000873
 51
315.000000000875
  0
LINE
  8
4
  6
CONTINUOUS
 62
4
 10
2.14788776317225
 20
-0.393700786996809
 30
0.0
 11
2.32283464500703
 21
-0.393700786993689
 31
0.0
  0
LINE
  8
4
  6
CONTINUOUS
 62
4
 10
2.36220472400291
 20
-0.179383826162959
 30
0.0
 11
2.36220472400633
 21
-0.354330707992989
 31
0.0
  0
ARC
  8
4
  6
CONTINUOUS
 62
4
 10
2.32283464500633
 20
-0.354330707993689
 30
0.0
 40
0.0393700789999992
 50
270.00000000102
 51
1.02371241310394E-9
  0
ARC
  8
4
  6
CONTINUOUS
 62
4
 10
2.40157480299958
 20
0.179383826166261
 30
0.0
 40
0.0393700789999996
 50
179.999999999999
 51
224.999999999998
  0
ARC
  8
4
  6
CONTINUOUS
 62
4
 10
2.1478877631641
 20
0.433070866000441
 30
0.0
 40
0.0393700790000004
 50
225.00000000029
 51
270.000000000144
  0
ARC
  8
4
  6
CONTINUOUS
 62
4
 10
1.78912011083146
 20
0.433070865998601
 30
0.0
 40
0.039370079
 50
270.000000000433
 51
315.000000000286
  0
ARC
  8
4
  6
CONTINUOUS
 62
4
 10
1.53543307099875
 20
0.179383826162001
 30
0.0
 40
0.0393700789999994
 50
315.000000000584
 51
359.999999999999
  0
ARC
  8
4
  6
CONTINUOUS
 62
4
 10
1.53543307100208
 20
-0.179383826170559
 30
0.0
 40
0.0393700789999995
 50
359.999999999999
 51
45.000000000585
  0
ARC
  8
4
  6
CONTINUOUS
 62
4
 10
1.78912011084032
 20
-0.433070866002309
 30
0.0
 40
0.0393700790000002
 50
45.0000000008774
 51
90.0000000007313
  0
ARC
  8
4
  6
CONTINUOUS
 62
4
 10
2.14788776317296
 20
-0.433070865996809
 30
0.0
 40
0.0393700789999989
 50
90.0000000010225
 51
135.000000000876
  0
ARC
  8
4
  6
CONTINUOUS
 62
4
 10
2.40157480300291
 20
-0.179383826162959
 30
0.0
 40
0.0393700790000001
 50
135
 51
179.999999999999
  0
ARC
  8
4
  6
CONTINUOUS
 62
4
 10
0
 20
4.84412272189661E-14
 30
0.0
 40
0.787401575
 50
359.999999999992
 51
180
  0
ARC
  8
4
  6
CONTINUOUS
 62
4
 10
0
 20
-7.73050096439471E-14
 30
0.0
 40
0.787401575
 50
179.999999999992
 51
359.999999999992
  0
LINE
  8
4
  6
CONTINUOUS
 62
4
 10
0.87765258692495
 20
2.21072707312938
 30
0.0
 11
0.79822836461443
 21
2.36660588622602
 31
0.0
  0
LINE
  8
4
  6
CONTINUOUS
 62
4
 10
0.58939691242672
 20
2.30438701931995
 30
0.0
 11
0.74527572552755
 21
2.38381124163261
 31
0.0
  0
ARC
  8
4
  6
CONTINUOUS
 62
4
 10
0.76314936736769
 20
2.34873224438588
 30
0.0
 40
0.039370079
 50
27.0000000002321
 51
117.000000000234
  0
LINE
  8
4
  6
CONTINUOUS
 62
4
 10
0.55935724710585
 20
2.30202284638664
 30
0.0
 11
0.39297287513105
 21
2.35608440598533
 31
0.0
  0
LINE
  8
4
  6
CONTINUOUS
 62
4
 10
0.28930212187158
 20
2.16442288731103
 30
0.0
 11
0.34336368147033
 21
2.33080725928588
 31
0.0
  0
ARC
  8
4
  6
CONTINUOUS
 62
4
 10
0.38080685165041
 20
2.31864123580524
 30
0.0
 40
0.0393700789999996
 50
72.0000000003779
 51
162.00000000038
  0
LINE
  8
4
  6
CONTINUOUS
 62
4
 10
0.26973259353181
 20
2.14150991354501
 30
0.0
 11
0.11385378043133
 21
2.06208569123154
 31
0.0
  0
LINE
  8
4
  6
CONTINUOUS
 62
4
 10
0.17607264733849
 20
1.85325423904409
 30
0.0
 11
0.0966484250250002
 21
2.00913305214457
 31
0.0
  0
ARC
  8
4
  6
CONTINUOUS
 62
4
 10
0.13172742227165
 20
2.02700669398489
 30
0.0
 40
0.0393700789999999
 50
117.000000000523
 51
207.000000000525
  0
LINE
  8
4
  6
CONTINUOUS
 62
4
 10
0.17843682027199
 20
1.82321457372333
 30
0.0
 11
0.12437526067409
 21
1.65683020174821
 31
0.0
  0
LINE
  8
4
  6
CONTINUOUS
 62
4
 10
0.31603677934913
 20
1.55315944848978
 30
0.0
 11
0.14965240737379
 21
1.60722100808761
 31
0.0
  0
ARC
  8
4
  6
CONTINUOUS
 62
4
 10
0.16181843085423
 20
1.64466417826776
 30
0.0
 40
0.0393700790000002
 50
162.000000000671
 51
252.000000000672
  0
LINE
  8
4
  6
CONTINUOUS
 62
4
 10
0.33894975311495
 20
1.53358992015022
 30
0.0
 11
0.41837397542931
 21
1.37771110704999
 31
0.0
  0
LINE
  8
4
  6
CONTINUOUS
 62
4
 10
0.62720542761617
 20
1.43992997395808
 30
0.0
 11
0.47132661451636
 21
1.36050575164393
 31
0.0
  0
ARC
  8
4
  6
CONTINUOUS
 62
4
 10
0.45345297267586
 20
1.39558474889049
 30
0.0
 40
0.039370079
 50
207.000000000815
 51
297.000000000817
  0
LINE
  8
4
  6
CONTINUOUS
 62
4
 10
0.6572450929374
 20
1.44229414689158
 30
0.0
 11
0.82362946491258
 21
1.38823258729482
 31
0.0
  0
LINE
  8
4
  6
CONTINUOUS
 62
4
 10
0.9273002181701
 20
1.57989410597018
 30
0.0
 11
0.87323865857304
 21
1.41350973399477
 31
0.0
  0
ARC
  8
4
  6
CONTINUOUS
 62
4
 10
0.83579548839284
 20
1.42567575747502
 30
0.0
 40
0.0393700790000006
 50
252.00000000096
 51
342.000000000962
  0
LINE
  8
4
  6
CONTINUOUS
 62
4
 10
0.94686974650963
 20
1.60280707973639
 30
0.0
 11
1.10274855960929
 21
1.68223130205146
 31
0.0
  0
LINE
  8
4
  6
CONTINUOUS
 62
4
 10
1.04052969270001
 20
1.89106275423827
 30
0.0
 11
1.11995391501508
 21
1.7351839411386
 31
0.0
  0
ARC
  8
4
  6
CONTINUOUS
 62
4
 10
1.08487491776862
 20
1.71731029929792
 30
0.0
 40
0.0393700789999998
 50
297.000000001108
 51
27.0000000011114
  0
LINE
  8
4
  6
CONTINUOUS
 62
4
 10
1.0381655197662
 20
1.92110241955901
 30
0.0
 11
1.0922270793624
 21
2.08748679153468
 31
0.0
  0
LINE
  8
4
  6
CONTINUOUS
 62
4
 10
0.90056556069096
 20
2.19115754478947
 30
0.0
 11
1.0669499326622
 21
2.13709598519501
 31
0.0
  0
ARC
  8
4
  6
CONTINUOUS
 62
4
 10
1.05478390918213
 20
2.09965281501474
 30
0.0
 40
0.039370079
 50
342.000000001254
 51
72.0000000012567
  0
ARC
  8
4
  6
CONTINUOUS
 62
4
 10
0.571523270586581
 20
2.33946601656669
 30
0.0
 40
0.0393700790000005
 50
252.00000000023
 51
297.00000000023
  0
ARC
  8
4
  6
CONTINUOUS
 62
4
 10
0.251858951691491
 20
2.17658891079166
 30
0.0
 40
0.0393700789999996
 50
297.000000000524
 51
342.000000000378
  0
ARC
  8
4
  6
CONTINUOUS
 62
4
 10
0.14099365009184
 20
1.83538059720377
 30
0.0
 40
0.0393700789999999
 50
342.00000000067
 51
27.0000000005246
  0
ARC
  8
4
  6
CONTINUOUS
 62
4
 10
0.3038707558684
 20
1.51571627830972
 30
0.0
 40
0.0393700789999997
 50
27.0000000008179
 51
72.000000000233
  0
ARC
  8
4
  6
CONTINUOUS
 62
4
 10
0.64507906945667
 20
1.40485097671152
 30
0.0
 40
0.0393700789999993
 50
72.0000000002328
 51
117.000000000818
  0
ARC
  8
4
  6
CONTINUOUS
 62
4
 10
0.96474338835031
 20
1.56772808248992
 30
0.0
 40
0.0393700790000003
 50
117.000000001112
 51
162.000000000965
  0
ARC
  8
4
  6
CONTINUOUS
 62
4
 10
1.07560868994647
 20
1.90893639607894
 30
0.0
 40
0.0393700790000006
 50
162.000000001251
 51
207.000000001104
  0
ARC
  8
4
  6
CONTINUOUS
 62
4
 10
0.91273158417169
 20
2.22860071496952
 30
0.0
 40
0.0393700789999994
 50
207.000000000231
 51
252.000000000231
  0
LINE
  8
4
  6
CONTINUOUS
 62
4
 10
-1.83131682413909
 20
1.51784944735255
 30
0.0
 11
-2.00410981954585
 21
1.4904817254816
 31
0.0
  0
LINE
  8
4
  6
CONTINUOUS
 62
4
 10
-2.00946862842345
 20
1.27264452482635
 30
0.0
 11
-2.03683635029513
 21
1.44543752023777
 31
0.0
  0
ARC
  8
4
  6
CONTINUOUS
 62
4
 10
-1.99795098229857
 20
1.45159635748504
 30
0.0
 40
0.0393700789999992
 50
99.0000000004668
 51
189.000000000469
  0
LINE
  8
4
  6
CONTINUOUS
 62
4
 10
-2.01650293343894
 20
1.24334453576155
 30
0.0
 11
-2.11933413051439
 21
1.10180953524322
 31
0.0
  0
LINE
  8
4
  6
CONTINUOUS
 62
4
 10
-1.96908921883235
 20
0.943986123369121
 30
0.0
 11
-2.1106242193507
 21
1.04681732044464
 31
0.0
  0
ARC
  8
4
  6
CONTINUOUS
 62
4
 10
-2.08748306753326
 20
1.07866838342578
 30
0.0
 40
0.0393700790000001
 50
144.00000000061
 51
234.000000000612
  0
LINE
  8
4
  6
CONTINUOUS
 62
4
 10
-1.95334500265327
 20
0.918293897635461
 30
0.0
 11
-1.9259772807807
 21
0.745500902224131
 31
0.0
  0
LINE
  8
4
  6
CONTINUOUS
 62
4
 10
-1.70814008012537
 20
0.740142093347651
 30
0.0
 11
-1.8809330755367
 21
0.712774371475081
 31
0.0
  0
ARC
  8
4
  6
CONTINUOUS
 62
4
 10
-1.88709191278417
 20
0.751659739471601
 30
0.0
 40
0.039370079000001
 50
189.000000000755
 51
279.000000000757
  0
LINE
  8
4
  6
CONTINUOUS
 62
4
 10
-1.67884009106061
 20
0.733107788332371
 30
0.0
 11
-1.53730509054174
 21
0.630276591257581
 31
0.0
  0
LINE
  8
4
  6
CONTINUOUS
 62
4
 10
-1.37948167866839
 20
0.780521502940631
 30
0.0
 11
-1.4823128757432
 21
0.638986502421541
 31
0.0
  0
ARC
  8
4
  6
CONTINUOUS
 62
4
 10
-1.51416393872445
 20
0.662127654238831
 30
0.0
 40
0.0393700790000009
 50
234.000000000901
 51
324.000000000902
  0
LINE
  8
4
  6
CONTINUOUS
 62
4
 10
-1.35378945293499
 20
0.796265719119601
 30
0.0
 11
-1.18099645752363
 21
0.823633440993081
 31
0.0
  0
LINE
  8
4
  6
CONTINUOUS
 62
4
 10
-1.17563764864821
 20
1.04147064164815
 30
0.0
 11
-1.1482699267748
 21
0.868677646237251
 31
0.0
  0
ARC
  8
4
  6
CONTINUOUS
 62
4
 10
-1.1871552947713
 20
0.862518808989581
 30
0.0
 40
0.0393700789999989
 50
279.000000001051
 51
9.00000000105401
  0
LINE
  8
4
  6
CONTINUOUS
 62
4
 10
-1.16860334363279
 20
1.07077063071335
 30
0.0
 11
-1.06577214655906
 21
1.21230563123263
 31
0.0
  0
LINE
  8
4
  6
CONTINUOUS
 62
4
 10
-1.2160170582427
 20
1.37012904310521
 30
0.0
 11
-1.0744820577233
 21
1.26729784603112
 31
0.0
  0
ARC
  8
4
  6
CONTINUOUS
 62
4
 10
-1.09762320954042
 20
1.23544678304976
 30
0.0
 40
0.0393700790000001
 50
324.000000001195
 51
54.000000001198
  0
LINE
  8
4
  6
CONTINUOUS
 62
4
 10
-1.23176127442204
 20
1.39582126883871
 30
0.0
 11
-1.25912899629638
 21
1.56861426424975
 31
0.0
  0
LINE
  8
4
  6
CONTINUOUS
 62
4
 10
-1.47696619695177
 20
1.57397307312401
 30
0.0
 11
-1.30417320154072
 21
1.60134079499835
 31
0.0
  0
ARC
  8
4
  6
CONTINUOUS
 62
4
 10
-1.29801436429285
 20
1.56245542700188
 30
0.0
 40
0.039370078999999
 50
9.00000000134165
 51
99.0000000013433
  0
LINE
  8
4
  6
CONTINUOUS
 62
4
 10
-1.5062661860166
 20
1.58100737813899
 30
0.0
 11
-1.64780118653652
 21
1.68383857521234
 31
0.0
  0
LINE
  8
4
  6
CONTINUOUS
 62
4
 10
-1.80562459840529
 20
1.53359366353158
 30
0.0
 11
-1.70279340133497
 21
1.67512866404782
 31
0.0
  0
ARC
  8
4
  6
CONTINUOUS
 62
4
 10
-1.67094233835348
 20
1.65198751223086
 30
0.0
 40
0.0393700789999997
 50
54.0000000014888
 51
144.000000001491
  0
ARC
  8
4
  6
CONTINUOUS
 62
4
 10
-2.04835399642001
 20
1.26648568757908
 30
0.0
 40
0.0393700790000002
 50
324.000000000468
 51
9.00000000046866
  0
ARC
  8
4
  6
CONTINUOUS
 62
4
 10
-1.9922303706498
 20
0.912135060387991
 30
0.0
 40
0.0393700790000005
 50
9.00000000075995
 51
54.0000000006139
  0
ARC
  8
4
  6
CONTINUOUS
 62
4
 10
-1.70198124287789
 20
0.701256725351132
 30
0.0
 40
0.0393700789999988
 50
54.0000000009049
 51
99.0000000007586
  0
ARC
  8
4
  6
CONTINUOUS
 62
4
 10
-1.34763061568732
 20
0.7573803511231
 30
0.0
 40
0.0393700790000009
 50
99.0000000010519
 51
144.000000000467
  0
ARC
  8
4
  6
CONTINUOUS
 62
4
 10
-1.13675228065172
 20
1.04762947889582
 30
0.0
 40
0.0393700789999996
 50
144.000000000466
 51
189.000000001052
  0
ARC
  8
4
  6
CONTINUOUS
 62
4
 10
-1.19287590642558
 20
1.40198010608658
 30
0.0
 40
0.0393700790000013
 50
189.000000001345
 51
234.000000001198
  0
ARC
  8
4
  6
CONTINUOUS
 62
4
 10
-1.48312503419964
 20
1.61285844112048
 30
0.0
 40
0.0393700790000025
 50
234.000000001488
 51
279.000000001342
  0
ARC
  8
4
  6
CONTINUOUS
 62
4
 10
-1.83747566138636
 20
1.55673481534911
 30
0.0
 40
0.0393700790000003
 50
279.000000000465
 51
324.000000000465
  0
LINE
  8
4
  6
CONTINUOUS
 62
4
 10
-2.0094686283982
 20
-1.27264452487209
 30
0.0
 11
-2.03683635026562
 21
-1.44543752027941
 31
0.0
  0
LINE
  8
4
  6
CONTINUOUS
 62
4
 10
-1.83131682410344
 20
-1.51784944739073
 30
0.0
 11
-2.00410981951541
 21
-1.49048172552257
 31
0.0
  0
ARC
  8
4
  6
CONTINUOUS
 62
4
 10
-1.99795098226893
 20
-1.45159635752589
 30
0.0
 40
0.0393700789999997
 50
171.000000000699
 51
261.0000000007
  0
LINE
  8
4
  6
CONTINUOUS
 62
4
 10
-1.80562459836932
 20
-1.53359366356923
 30
0.0
 11
-1.70279340129019
 21
-1.67512866408488
 31
0.0
  0
LINE
  8
4
  6
CONTINUOUS
 62
4
 10
-1.50626618597566
 20
-1.58100737816803
 30
0.0
 11
-1.64780118649138
 21
-1.68383857524716
 31
0.0
  0
ARC
  8
4
  6
CONTINUOUS
 62
4
 10
-1.67094233830965
 20
-1.65198751226662
 30
0.0
 40
0.0393700789999999
 50
216.000000000843
 51
306.000000000845
  0
LINE
  8
4
  6
CONTINUOUS
 62
4
 10
-1.47696619691111
 20
-1.57397307315185
 30
0.0
 11
-1.30417320149895
 21
-1.60134079501913
 31
0.0
  0
LINE
  8
4
  6
CONTINUOUS
 62
4
 10
-1.23176127438867
 20
-1.39582126885653
 30
0.0
 11
-1.25912899625595
 21
-1.5686142642687
 31
0.0
  0
ARC
  8
4
  6
CONTINUOUS
 62
4
 10
-1.29801436425267
 20
-1.56245542702242
 30
0.0
 40
0.0393700789999999
 50
261.00000000099
 51
351.000000000992
  0
LINE
  8
4
  6
CONTINUOUS
 62
4
 10
-1.21601705821037
 20
-1.37012904312239
 30
0.0
 11
-1.07448205769518
 21
-1.26729784604253
 31
0.0
  0
LINE
  8
4
  6
CONTINUOUS
 62
4
 10
-1.16860334361324
 20
-1.07077063072841
 30
0.0
 11
-1.06577214653318
 21
-1.21230563124368
 31
0.0
  0
ARC
  8
4
  6
CONTINUOUS
 62
4
 10
-1.0976232095136
 20
-1.23544678306211
 30
0.0
 40
0.0393700789999998
 50
306.000000001136
 51
36.00000000114
  0
LINE
  8
4
  6
CONTINUOUS
 62
4
 10
-1.17563764862939
 20
-1.04147064166415
 30
0.0
 11
-1.14826992676296
 21
-0.868677646251669
 31
0.0
  0
LINE
  8
4
  6
CONTINUOUS
 62
4
 10
-1.35378945292565
 20
-0.796265719142479
 30
0.0
 11
-1.18099645751362
 21
-0.823633441008839
 31
0.0
  0
ARC
  8
4
  6
CONTINUOUS
 62
4
 10
-1.18715529475971
 20
-0.862518809005578
 30
0.0
 40
0.0393700790000002
 50
351.000000001285
 51
81.0000000012874
  0
LINE
  8
4
  6
CONTINUOUS
 62
4
 10
-1.37948167866016
 20
-0.780521502963909
 30
0.0
 11
-1.48231287574074
 21
-0.638986502449599
 31
0.0
  0
LINE
  8
4
  6
CONTINUOUS
 62
4
 10
-1.67884009105431
 20
-0.733107788368459
 30
0.0
 11
-1.53730509053963
 21
-0.630276591287879
 31
0.0
  0
ARC
  8
4
  6
CONTINUOUS
 62
4
 10
-1.51416393872104
 20
-0.662127654268179
 30
0.0
 40
0.039370079000001
 50
36.0000000014316
 51
126.000000001433
  0
LINE
  8
4
  6
CONTINUOUS
 62
4
 10
-1.70814008011878
 20
-0.740142093384929
 30
0.0
 11
-1.88093307553122
 21
-0.712774371519419
 31
0.0
  0
LINE
  8
4
  6
CONTINUOUS
 62
4
 10
-1.95334500263941
 20
-0.918293897682759
 30
0.0
 11
-1.92597728077389
 21
-0.745500902270309
 31
0.0
  0
ARC
  8
4
  6
CONTINUOUS
 62
4
 10
-1.88709191277711
 20
-0.751659739516188
 30
0.0
 40
0.0393700789999991
 50
81.0000000015769
 51
171.000000001579
  0
LINE
  8
4
  6
CONTINUOUS
 62
4
 10
-1.96908921881744
 20
-0.943986123417059
 30
0.0
 11
-2.11062421933158
 21
-1.04681732049837
 31
0.0
  0
LINE
  8
4
  6
CONTINUOUS
 62
4
 10
-2.01650293341428
 20
-1.24334453580743
 30
0.0
 11
-2.11933413049302
 21
-1.1018095352973
 31
0.0
  0
ARC
  8
4
  6
CONTINUOUS
 62
4
 10
-2.08748306751284
 20
-1.07866838347855
 30
0.0
 40
0.0393700790000004
 50
126.000000001722
 51
216.000000001724
  0
ARC
  8
4
  6
CONTINUOUS
 62
4
 10
-1.83747566134992
 20
-1.55673481538741
 30
0.0
 40
0.0393700790000003
 50
36.000000000702
 51
81.0000000007017
  0
ARC
  8
4
  6
CONTINUOUS
 62
4
 10
-1.48312503415739
 20
-1.61285844114857
 30
0.0
 40
0.0393700790000008
 50
81.0000000009908
 51
126.000000000845
  0
ARC
  8
4
  6
CONTINUOUS
 62
4
 10
-1.19287590639195
 20
-1.40198010610281
 30
0.0
 40
0.039370079
 50
126.00000000114
 51
171.000000000994
  0
ARC
  8
4
  6
CONTINUOUS
 62
4
 10
-1.13675228063264
 20
-1.04762947891023
 30
0.0
 40
0.0393700789999996
 50
171.000000001281
 51
216.000000000696
  0
ARC
  8
4
  6
CONTINUOUS
 62
4
 10
-1.34763061567956
 20
-0.757380351145729
 30
0.0
 40
0.0393700790000015
 50
216.000000000699
 51
261.000000001285
  0
ARC
  8
4
  6
CONTINUOUS
 62
4
 10
-1.70198124287289
 20
-0.701256725388148
 30
0.0
 40
0.0393700790000016
 50
261.000000001574
 51
306.000000001428
  0
ARC
  8
4
  6
CONTINUOUS
 62
4
 10
-1.99223037063618
 20
-0.912135060436879
 30
0.0
 40
0.0393700789999976
 50
306.000000001724
 51
351.000000001578
  0
ARC
  8
4
  6
CONTINUOUS
 62
4
 10
-2.04835399639488
 20
-1.26648568762561
 30
0.0
 40
0.0393700790000008
 50
351.000000000697
 51
36.0000000006987
  0
LINE
  8
4
  6
CONTINUOUS
 62
4
 10
0.58939691247797
 20
-2.30438701931011
 30
0.0
 11
0.74527572557623
 21
-2.38381124161745
 31
0.0
  0
LINE
  8
4
  6
CONTINUOUS
 62
4
 10
0.87765258697223
 20
-2.21072707310731
 30
0.0
 11
0.79822836466275
 21
-2.36660588620977
 31
0.0
  0
ARC
  8
4
  6
CONTINUOUS
 62
4
 10
0.76314936741565
 20
-2.34873224437035
 30
0.0
 40
0.0393700790000001
 50
243.000000000931
 51
333.000000000933
  0
LINE
  8
4
  6
CONTINUOUS
 62
4
 10
0.90056556073784
 20
-2.19115754476693
 30
0.0
 11
1.06694993271124
 21
-2.13709598516391
 31
0.0
  0
LINE
  8
4
  6
CONTINUOUS
 62
4
 10
1.03816551980642
 20
-1.92110241952907
 30
0.0
 11
1.09222707940942
 21
-2.08748679150255
 31
0.0
  0
ARC
  8
4
  6
CONTINUOUS
 62
4
 10
1.05478390922965
 20
-2.09965281498414
 30
0.0
 40
0.0393700789999999
 50
288.000000001078
 51
18.0000000010816
  0
LINE
  8
4
  6
CONTINUOUS
 62
4
 10
1.040529692739
 20
-1.89106275420824
 30
0.0
 11
1.11995391504771
 21
-1.73518394110533
 31
0.0
  0
LINE
  8
4
  6
CONTINUOUS
 62
4
 10
0.94686974653685
 20
-1.60280707971019
 30
0.0
 11
1.10274855963976
 21
-1.6822313020189
 31
0.0
  0
ARC
  8
4
  6
CONTINUOUS
 62
4
 10
1.08487491780052
 20
-1.71731029926609
 30
0.0
 40
0.0393700789999998
 50
333.000000001225
 51
63.0000000012283
  0
LINE
  8
4
  6
CONTINUOUS
 62
4
 10
0.92730021819638
 20
-1.57989410594477
 30
0.0
 11
0.87323865859254
 21
-1.41350973397158
 31
0.0
  0
LINE
  8
4
  6
CONTINUOUS
 62
4
 10
0.65724509295771
 20
-1.44229414687767
 30
0.0
 11
0.82362946493104
 21
-1.38823258727365
 31
0.0
  0
ARC
  8
4
  6
CONTINUOUS
 62
4
 10
0.83579548841282
 20
-1.42567575745336
 30
0.0
 40
0.0393700790000001
 50
18.0000000013724
 51
108.000000001374
  0
LINE
  8
4
  6
CONTINUOUS
 62
4
 10
0.62720542763715
 20
-1.43992997394515
 30
0.0
 11
0.47132661453368
 21
-1.36050575163716
 31
0.0
  0
LINE
  8
4
  6
CONTINUOUS
 62
4
 10
0.33894975313955
 20
-1.53358992014843
 30
0.0
 11
0.41837397544734
 21
-1.37771110704538
 31
0.0
  0
ARC
  8
4
  6
CONTINUOUS
 62
4
 10
0.45345297269462
 20
-1.39558474888445
 30
0.0
 40
0.0393700789999996
 50
63.0000000015187
 51
153.000000001521
  0
LINE
  8
4
  6
CONTINUOUS
 62
4
 10
0.31603677937376
 20
-1.55315944848918
 30
0.0
 11
0.14965240740119
 21
-1.60722100809398
 31
0.0
  0
LINE
  8
4
  6
CONTINUOUS
 62
4
 10
0.17843682030821
 20
-1.82321457372852
 30
0.0
 11
0.12437526070351
 21
-1.6568302017556
 31
0.0
  0
ARC
  8
4
  6
CONTINUOUS
 62
4
 10
0.16181843088317
 20
-1.64466417827363
 30
0.0
 40
0.0393700789999997
 50
108.000000001665
 51
198.000000001667
  0
LINE
  8
4
  6
CONTINUOUS
 62
4
 10
0.17607264737594
 20
-1.85325423904938
 30
0.0
 11
0.0966484250688202
 21
-2.0091330521531
 31
0.0
  0
LINE
  8
4
  6
CONTINUOUS
 62
4
 10
0.26973259358103
 20
-2.14150991354648
 30
0.0
 11
0.11385378047731
 21
-2.06208569123936
 31
0.0
  0
ARC
  8
4
  6
CONTINUOUS
 62
4
 10
0.1317274223162
 20
-2.02700669399198
 30
0.0
 40
0.0393700789999997
 50
153.000000001807
 51
243.00000000181
  0
LINE
  8
4
  6
CONTINUOUS
 62
4
 10
0.28930212192174
 20
-2.16442288731169
 30
0.0
 11
0.34336368152728
 21
-2.33080725928433
 31
0.0
  0
LINE
  8
4
  6
CONTINUOUS
 62
4
 10
0.55935724715706
 20
-2.30202284637741
 30
0.0
 11
0.39297287518903
 21
-2.35608440598176
 31
0.0
  0
ARC
  8
4
  6
CONTINUOUS
 62
4
 10
0.38080685170687
 20
-2.31864123580217
 30
0.0
 40
0.0393700789999989
 50
198.000000001955
 51
288.000000001957
  0
ARC
  8
4
  6
CONTINUOUS
 62
4
 10
0.91273158421934
 20
-2.22860071494674
 30
0.0
 40
0.039370078999999
 50
108.000000000936
 51
153.000000000935
  0
ARC
  8
4
  6
CONTINUOUS
 62
4
 10
1.0756086899862
 20
-1.90893639604748
 30
0.0
 40
0.0393700790000004
 50
153.000000001229
 51
198.000000001083
  0
ARC
  8
4
  6
CONTINUOUS
 62
4
 10
0.96474338837609
 20
-1.56772808246299
 30
0.0
 40
0.0393700789999997
 50
198.000000001373
 51
243.000000001226
  0
ARC
  8
4
  6
CONTINUOUS
 62
4
 10
0.64507906947622
 20
-1.40485097669787
 30
0.0
 40
0.0393700789999998
 50
243.000000001518
 51
288.000000000933
  0
ARC
  8
4
  6
CONTINUOUS
 62
4
 10
0.30387075589227
 20
-1.51571627830937
 30
0.0
 40
0.0393700790000007
 50
288.00000000093
 51
333.000000001516
  0
ARC
  8
4
  6
CONTINUOUS
 62
4
 10
0.140993650128561
 20
-1.8353805972105
 30
0.0
 40
0.0393700790000004
 50
333.000000001809
 51
18.0000000016662
  0
ARC
  8
4
  6
CONTINUOUS
 62
4
 10
0.25185895174215
 20
-2.17658891079386
 30
0.0
 40
0.0393700789999996
 50
18.0000000019585
 51
63.0000000018119
  0
ARC
  8
4
  6
CONTINUOUS
 62
4
 10
0.57152327063855
 20
-2.33946601655721
 30
0.0
 40
0.0393700790000008
 50
63.0000000009347
 51
108.000000000933
  0
ARC
  8
4
  6
CONTINUOUS
 62
4
 10
6.57469024118924
 20
6.84099398746897
 30
0.0
 40
0.0393700789999997
 50
342.000000001254
 51
72.0000000012569
  0
LINE
  8
5
  6
CONTINUOUS
 62
5
 10
6.25694249000882
 20
7.55012326040922
 30
0.0
 11
6.0113895110659
 21
7.42500776843185
 31
0.0
  0
LINE
  8
5
  6
CONTINUOUS
 62
5
 10
6.41580040592538
 20
7.49850719462928
 30
0.0
 11
6.54091589790275
 21
7.25295421568635
 31
0.0
  0
LINE
  8
5
  6
CONTINUOUS
 62
5
 10
6.29536291895983
 20
7.12783872370898
 30
0.0
 11
6.54091589790275
 21
7.25295421568635
 31
0.0
  0
LINE
  8
5
  6
CONTINUOUS
 62
5
 10
6.13650500304328
 20
7.17945478948892
 30
0.0
 11
6.0113895110659
 21
7.42500776843185
 31
0.0
  0
ARC
  8
5
  6
CONTINUOUS
 62
5
 10
6.24174199389153
 20
7.23307571455723
 30
0.0
 40
0.118110236
 50
207.000000001251
 51
297.000000001251
  0
ARC
  8
5
  6
CONTINUOUS
 62
5
 10
6.31056341507713
 20
7.44488626956097
 30
0.0
 40
0.118110236
 50
27.0000000012558
 51
117.000000001257
  0
LINE
  8
5
  6
CONTINUOUS
 62
5
 10
2.362204724
 20
0.787401573999981
 30
0.0
 11
2.637795275
 21
0.787401573999981
 31
0.0
  0
LINE
  8
5
  6
CONTINUOUS
 62
5
 10
2.755905511
 20
0.393700786999981
 30
0.0
 11
2.755905511
 21
0.669291337999981
 31
0.0
  0
LINE
  8
5
  6
CONTINUOUS
 62
5
 10
2.755905511
 20
0.393700786999981
 30
0.0
 11
2.48031496
 21
0.393700786999981
 31
0.0
  0
LINE
  8
5
  6
CONTINUOUS
 62
5
 10
2.362204724
 20
0.787401573999981
 30
0.0
 11
2.362204724
 21
0.511811022999981
 31
0.0
  0
ARC
  8
5
  6
CONTINUOUS
 62
5
 10
2.48031496
 20
0.51181102299998
 30
0.0
 40
0.118110236
 50
179.999999999996
 51
269.999999999996
  0
ARC
  8
5
  6
CONTINUOUS
 62
5
 10
2.637795275
 20
0.669291337999992
 30
0.0
 40
0.118110236
 50
359.999999999993
 51
89.9999999999983
  0
LINE
  8
5
  6
CONTINUOUS
 62
5
 10
1.69011544075169
 20
0.835165488737811
 30
0.0
 11
1.88498738819423
 21
1.03003743618135
 31
0.0
  0
LINE
  8
5
  6
CONTINUOUS
 62
5
 10
2.24689243324405
 20
0.835165488739231
 30
0.0
 11
2.05202048580051
 21
1.03003743618177
 31
0.0
  0
LINE
  8
5
  6
CONTINUOUS
 62
5
 10
2.24689243324405
 20
0.835165488739231
 30
0.0
 11
2.05202048580151
 21
0.640293541295701
 31
0.0
  0
LINE
  8
5
  6
CONTINUOUS
 62
5
 10
1.69011544075169
 20
0.835165488737811
 30
0.0
 11
1.88498738819522
 21
0.640293541295272
 31
0.0
  0
ARC
  8
5
  6
CONTINUOUS
 62
5
 10
1.96850393699815
 20
0.72381009009862
 30
0.0
 40
0.118110235999999
 50
225.00000000014
 51
315.000000000142
  0
ARC
  8
5
  6
CONTINUOUS
 62
5
 10
1.96850393699758
 20
0.946520887378421
 30
0.0
 40
0.118110235999998
 50
45.0000000001448
 51
135.000000000146
  0
LINE
  8
5
  6
CONTINUOUS
 62
5
 10
1.18110236299799
 20
0.393700786995961
 30
0.0
 11
1.18110236299658
 21
0.669291337995961
 31
0.0
  0
LINE
  8
5
  6
CONTINUOUS
 62
5
 10
1.57480314999598
 20
0.787401573997971
 30
0.0
 11
1.29921259899598
 21
0.787401573996571
 31
0.0
  0
LINE
  8
5
  6
CONTINUOUS
 62
5
 10
1.57480314999598
 20
0.787401573997971
 30
0.0
 11
1.57480314999739
 21
0.511811022997971
 31
0.0
  0
LINE
  8
5
  6
CONTINUOUS
 62
5
 10
1.18110236299799
 20
0.393700786995961
 30
0.0
 11
1.45669291399799
 21
0.393700786997371
 31
0.0
  0
ARC
  8
5
  6
CONTINUOUS
 62
5
 10
1.45669291399739
 20
0.511811022997371
 30
0.0
 40
0.118110235999999
 50
270.000000000287
 51
2.90969864479008E-10
  0
ARC
  8
5
  6
CONTINUOUS
 62
5
 10
1.29921259899658
 20
0.669291337996571
 30
0.0
 40
0.118110236
 50
90.0000000002917
 51
180.000000000292
  0
LINE
  8
5
  6
CONTINUOUS
 62
5
 10
1.13333844826359
 20
-0.278388496252589
 30
0.0
 11
0.93846650081906
 21
-0.0835165488110485
 31
0.0
  0
LINE
  8
5
  6
CONTINUOUS
 62
5
 10
1.13333844825933
 20
0.278388496239771
 30
0.0
 11
0.93846650081778
 21
0.0835165487952407
 31
0.0
  0
LINE
  8
5
  6
CONTINUOUS
 62
5
 10
1.13333844825933
 20
0.278388496239771
 30
0.0
 11
1.32821039570385
 21
0.0835165487982215
 31
0.0
  0
LINE
  8
5
  6
CONTINUOUS
 62
5
 10
1.13333844826359
 20
-0.278388496252589
 30
0.0
 11
1.32821039570513
 21
-0.0835165488080589
 31
0.0
  0
ARC
  8
5
  6
CONTINUOUS
 62
5
 10
1.24469384690199
 20
-4.91819085457479E-12
 30
0.0
 40
0.118110236
 50
314.999999999999
 51
45.000000000001
  0
ARC
  8
5
  6
CONTINUOUS
 62
5
 10
1.02198304962092
 20
-7.89858456418102E-12
 30
0.0
 40
0.118110236
 50
135
 51
225
  0
LINE
  8
5
  6
CONTINUOUS
 62
5
 10
1.57480315000804
 20
-0.787401574004039
 30
0.0
 11
1.29921259900804
 21
-0.787401574006849
 31
0.0
  0
LINE
  8
5
  6
CONTINUOUS
 62
5
 10
1.18110236300402
 20
-0.393700787008059
 30
0.0
 11
1.18110236300683
 21
-0.669291338008059
 31
0.0
  0
LINE
  8
5
  6
CONTINUOUS
 62
5
 10
1.18110236300402
 20
-0.393700787008059
 30
0.0
 11
1.45669291400402
 21
-0.393700787005239
 31
0.0
  0
LINE
  8
5
  6
CONTINUOUS
 62
5
 10
1.57480315000804
 20
-0.787401574004039
 30
0.0
 11
1.57480315000522
 21
-0.511811023004039
 31
0.0
  0
ARC
  8
5
  6
CONTINUOUS
 62
5
 10
1.45669291400522
 20
-0.511811023005239
 30
0.0
 40
0.118110236
 50
5.83301006361683E-10
 51
90.0000000005831
  0
ARC
  8
5
  6
CONTINUOUS
 62
5
 10
1.29921259900683
 20
-0.669291338006861
 30
0.0
 40
0.118110236
 50
180.000000000578
 51
270.000000000578
  0
LINE
  8
5
  6
CONTINUOUS
 62
5
 10
2.24689243325684
 20
-0.835165488735009
 30
0.0
 11
2.05202048581629
 21
-1.03003743618054
 31
0.0
  0
LINE
  8
5
  6
CONTINUOUS
 62
5
 10
1.69011544076448
 20
-0.835165488742109
 30
0.0
 11
1.88498738821
 21
-1.03003743618267
 31
0.0
  0
LINE
  8
5
  6
CONTINUOUS
 62
5
 10
1.69011544076448
 20
-0.835165488742109
 30
0.0
 11
1.88498738820503
 21
-0.640293541296589
 31
0.0
  0
LINE
  8
5
  6
CONTINUOUS
 62
5
 10
2.24689243325684
 20
-0.835165488735009
 30
0.0
 11
2.05202048581131
 21
-0.640293541294459
 31
0.0
  0
ARC
  8
5
  6
CONTINUOUS
 62
5
 10
1.96850393700924
 20
-0.723810090098669
 30
0.0
 40
0.118110236
 50
45.0000000007298
 51
135.000000000731
  0
ARC
  8
5
  6
CONTINUOUS
 62
5
 10
1.96850393701208
 20
-0.94652088737846
 30
0.0
 40
0.118110236
 50
225.000000000725
 51
315.000000000726
  0
LINE
  8
5
  6
CONTINUOUS
 62
5
 10
2.75590551100603
 20
-0.393700786987959
 30
0.0
 11
2.75590551101025
 21
-0.669291337987959
 31
0.0
  0
LINE
  8
5
  6
CONTINUOUS
 62
5
 10
2.36220472401206
 20
-0.787401573993989
 30
0.0
 11
2.63779527501206
 21
-0.787401573989769
 31
0.0
  0
LINE
  8
5
  6
CONTINUOUS
 62
5
 10
2.36220472401206
 20
-0.787401573993989
 30
0.0
 11
2.36220472400784
 21
-0.511811022993989
 31
0.0
  0
LINE
  8
5
  6
CONTINUOUS
 62
5
 10
2.75590551100603
 20
-0.393700786987959
 30
0.0
 11
2.48031496000603
 21
-0.393700786992179
 31
0.0
  0
ARC
  8
5
  6
CONTINUOUS
 62
5
 10
2.48031496000784
 20
-0.511811022992178
 30
0.0
 40
0.118110236
 50
90.0000000008759
 51
180.000000000877
  0
ARC
  8
5
  6
CONTINUOUS
 62
5
 10
2.63779527501025
 20
-0.669291337989769
 30
0.0
 40
0.118110236
 50
270.000000000871
 51
8.75574898260092E-10
  0
LINE
  8
5
  6
CONTINUOUS
 62
5
 10
2.80366942573357
 20
0.278388496261081
 30
0.0
 11
2.99854137318009
 21
0.083516548821521
 31
0.0
  0
LINE
  8
5
  6
CONTINUOUS
 62
5
 10
2.80366942574352
 20
-0.278388496231279
 30
0.0
 11
2.99854137318307
 21
-0.0835165487847593
 31
0.0
  0
LINE
  8
5
  6
CONTINUOUS
 62
5
 10
2.80366942574352
 20
-0.278388496231279
 30
0.0
 11
2.608797478297
 21
-0.0835165487917191
 31
0.0
  0
LINE
  8
5
  6
CONTINUOUS
 62
5
 10
2.80366942573357
 20
0.278388496261081
 30
0.0
 11
2.60879747829401
 21
0.0835165488145613
 31
0.0
  0
ARC
  8
5
  6
CONTINUOUS
 62
5
 10
2.69231402709716
 20
1.14210724211361E-11
 30
0.0
 40
0.118110236
 50
135
 51
225
  0
ARC
  8
5
  6
CONTINUOUS
 62
5
 10
2.91502482437993
 20
1.83813936294186E-11
 30
0.0
 40
0.118110236
 50
314.999999999999
 51
45.000000000001
  0
LINE
  8
5
  6
CONTINUOUS
 62
5
 10
-0.01890199399514
 20
2.48991066334688
 30
0.0
 11
0.0662601697519398
 21
2.75201285270515
 31
0.0
  0
LINE
  8
5
  6
CONTINUOUS
 62
5
 10
0.47718993883249
 20
2.74268212841399
 30
0.0
 11
0.21508774947422
 21
2.82784429216108
 31
0.0
  0
LINE
  8
5
  6
CONTINUOUS
 62
5
 10
0.47718993883249
 20
2.74268212841399
 30
0.0
 11
0.39202777508541
 21
2.48057993905572
 31
0.0
  0
LINE
  8
5
  6
CONTINUOUS
 62
5
 10
-0.01890199399514
 20
2.48991066334688
 30
0.0
 11
0.24320019536312
 21
2.40474849959979
 31
0.0
  0
ARC
  8
5
  6
CONTINUOUS
 62
5
 10
0.279698265496311
 20
2.5170780091889
 30
0.0
 40
0.118110236
 50
252.000000000227
 51
342.000000000228
  0
ARC
  8
5
  6
CONTINUOUS
 62
5
 10
0.17858967934105
 20
2.71551478257197
 30
0.0
 40
0.118110236
 50
72.0000000002326
 51
162.000000000234
  0
LINE
  8
5
  6
CONTINUOUS
 62
5
 10
-0.27201518660878
 20
1.86547563235227
 30
0.0
 11
-0.3971306785824
 21
2.1110286112971
 31
0.0
  0
LINE
  8
5
  6
CONTINUOUS
 62
5
 10
-0.0999616338551799
 20
2.39500201918649
 30
0.0
 11
-0.34551461280002
 21
2.26988652721287
 31
0.0
  0
LINE
  8
5
  6
CONTINUOUS
 62
5
 10
-0.0999616338551799
 20
2.39500201918649
 30
0.0
 11
0.0251538581184301
 21
2.14944904024165
 31
0.0
  0
LINE
  8
5
  6
CONTINUOUS
 62
5
 10
-0.27201518660878
 20
1.86547563235227
 30
0.0
 11
-0.0264622076639398
 21
1.99059112432588
 31
0.0
  0
ARC
  8
5
  6
CONTINUOUS
 62
5
 10
-0.0800831327306288
 20
2.09582811517495
 30
0.0
 40
0.118110236
 50
297.000000000375
 51
27.0000000003789
  0
ARC
  8
5
  6
CONTINUOUS
 62
5
 10
-0.29189368773333
 20
2.1646495363638
 30
0.0
 40
0.118110236
 50
117.00000000038
 51
207.00000000038
  0
LINE
  8
5
  6
CONTINUOUS
 62
5
 10
-0.00945099668534999
 20
1.24495533262133
 30
0.0
 11
-0.27155318604406
 21
1.33011749636708
 31
0.0
  0
LINE
  8
5
  6
CONTINUOUS
 62
5
 10
-0.262222461755
 20
1.74104726544768
 30
0.0
 11
-0.34738462550075
 21
1.47894507608898
 31
0.0
  0
LINE
  8
5
  6
CONTINUOUS
 62
5
 10
-0.262222461755
 20
1.74104726544768
 30
0.0
 11
-0.000120272396300081
 21
1.65588510170193
 31
0.0
  0
LINE
  8
5
  6
CONTINUOUS
 62
5
 10
-0.00945099668534999
 20
1.24495533262133
 30
0.0
 11
0.0757111670603901
 21
1.50705752198004
 31
0.0
  0
ARC
  8
5
  6
CONTINUOUS
 62
5
 10
-0.0366183425289
 20
1.54355559211265
 30
0.0
 40
0.118110236
 50
342.00000000052
 51
72.0000000005248
  0
ARC
  8
5
  6
CONTINUOUS
 62
5
 10
-0.23505511591146
 20
1.44244700595637
 30
0.0
 40
0.118110236
 50
162.00000000052
 51
252.00000000052
  0
LINE
  8
5
  6
CONTINUOUS
 62
5
 10
0.61498403431055
 20
0.991842140010881
 30
0.0
 11
0.36943105536635
 21
0.866726648036011
 31
0.0
  0
LINE
  8
5
  6
CONTINUOUS
 62
5
 10
0.08545764747545
 20
1.16389569276178
 30
0.0
 11
0.21057313945032
 21
0.918342713817581
 31
0.0
  0
LINE
  8
5
  6
CONTINUOUS
 62
5
 10
0.08545764747545
 20
1.16389569276178
 30
0.0
 11
0.33101062641965
 21
1.28901118473665
 31
0.0
  0
LINE
  8
5
  6
CONTINUOUS
 62
5
 10
0.61498403431055
 20
0.991842140010881
 30
0.0
 11
0.48986854233568
 21
1.23739511895508
 31
0.0
  0
ARC
  8
5
  6
CONTINUOUS
 62
5
 10
0.38463155148688
 20
1.18377419388785
 30
0.0
 40
0.118110236
 50
27.0000000006709
 51
117.000000000672
  0
ARC
  8
5
  6
CONTINUOUS
 62
5
 10
0.31581013029913
 20
0.97196363888481
 30
0.0
 40
0.118110236
 50
207.000000000666
 51
297.000000000666
  0
LINE
  8
5
  6
CONTINUOUS
 62
5
 10
1.23550433404015
 20
1.25440632993748
 30
0.0
 11
1.15034217029574
 21
0.992304140578341
 31
0.0
  0
LINE
  8
5
  6
CONTINUOUS
 62
5
 10
0.73941240121509
 20
1.0016348648653
 30
0.0
 11
1.00151459057423
 21
0.916472701120891
 31
0.0
  0
LINE
  8
5
  6
CONTINUOUS
 62
5
 10
0.73941240121509
 20
1.0016348648653
 30
0.0
 11
0.8245745649595
 21
1.26373705422444
 31
0.0
  0
LINE
  8
5
  6
CONTINUOUS
 62
5
 10
1.23550433404015
 20
1.25440632993748
 30
0.0
 11
0.97340214468101
 21
1.33956849368189
 31
0.0
  0
ARC
  8
5
  6
CONTINUOUS
 62
5
 10
0.93690407454897
 20
1.22723898409241
 30
0.0
 40
0.118110236
 50
72.0000000008169
 51
162.000000000818
  0
ARC
  8
5
  6
CONTINUOUS
 62
5
 10
1.03801266070626
 20
1.02880221071037
 30
0.0
 40
0.118110236
 50
252.000000000812
 51
342.000000000812
  0
LINE
  8
5
  6
CONTINUOUS
 62
5
 10
1.48861752664741
 20
1.87884136093467
 30
0.0
 11
1.61373301862353
 21
1.63328838199111
 31
0.0
  0
LINE
  8
5
  6
CONTINUOUS
 62
5
 10
1.31656397389922
 20
1.3493149740987
 30
0.0
 11
1.56211695284278
 21
1.47443046607482
 31
0.0
  0
LINE
  8
5
  6
CONTINUOUS
 62
5
 10
1.31656397389922
 20
1.3493149740987
 30
0.0
 11
1.19144848192309
 21
1.59486795304226
 31
0.0
  0
LINE
  8
5
  6
CONTINUOUS
 62
5
 10
1.48861752664741
 20
1.87884136093467
 30
0.0
 11
1.24306454770385
 21
1.75372586895855
 31
0.0
  0
ARC
  8
5
  6
CONTINUOUS
 62
5
 10
1.29668547277162
 20
1.64848887811003
 30
0.0
 40
0.118110236
 50
117.000000000965
 51
207.000000000965
  0
ARC
  8
5
  6
CONTINUOUS
 62
5
 10
1.50849602777501
 20
1.57966745692335
 30
0.0
 40
0.118110236
 50
297.000000000958
 51
27.000000000963
  0
LINE
  8
5
  6
CONTINUOUS
 62
5
 10
1.22605333671765
 20
2.49936166066293
 30
0.0
 11
1.48815552607722
 21
2.41419949691985
 31
0.0
  0
LINE
  8
5
  6
CONTINUOUS
 62
5
 10
1.47882480179236
 20
2.00326972783916
 30
0.0
 11
1.56398696553543
 21
2.26537191719873
 31
0.0
  0
LINE
  8
5
  6
CONTINUOUS
 62
5
 10
1.47882480179236
 20
2.00326972783916
 30
0.0
 11
1.21672261243278
 21
2.08843189158223
 31
0.0
  0
LINE
  8
5
  6
CONTINUOUS
 62
5
 10
1.22605333671765
 20
2.49936166066293
 30
0.0
 11
1.14089117297458
 21
2.23725947130335
 31
0.0
  0
ARC
  8
5
  6
CONTINUOUS
 62
5
 10
1.25322068256424
 20
2.2007614011719
 30
0.0
 40
0.118110236
 50
162.000000001104
 51
252.000000001104
  0
ARC
  8
5
  6
CONTINUOUS
 62
5
 10
1.45165745594577
 20
2.30186998733019
 30
0.0
 40
0.118110236
 50
342.000000001104
 51
72.0000000011095
  0
LINE
  8
5
  6
CONTINUOUS
 62
5
 10
0.60161830571916
 20
2.75247485326701
 30
0.0
 11
0.84717128466208
 21
2.87759034524438
 31
0.0
  0
LINE
  8
5
  6
CONTINUOUS
 62
5
 10
1.13114469255601
 20
2.58042130052151
 30
0.0
 11
1.00602920057864
 21
2.82597427946444
 31
0.0
  0
LINE
  8
5
  6
CONTINUOUS
 62
5
 10
1.13114469255601
 20
2.58042130052151
 30
0.0
 11
0.88559171361309
 21
2.45530580854414
 31
0.0
  0
LINE
  8
5
  6
CONTINUOUS
 62
5
 10
0.60161830571916
 20
2.75247485326701
 30
0.0
 11
0.72673379769653
 21
2.50692187432408
 31
0.0
  0
ARC
  8
5
  6
CONTINUOUS
 62
5
 10
0.831970788544791
 20
2.56054279939239
 30
0.0
 40
0.118110236
 50
207.00000000125
 51
297.00000000125
  0
ARC
  8
5
  6
CONTINUOUS
 62
5
 10
0.90079220973039
 20
2.77235335439613
 30
0.0
 40
0.118110235999999
 50
27.0000000012554
 51
117.000000001257
  0
LINE
  8
5
  6
CONTINUOUS
 62
5
 10
-2.373886798744
 20
0.751447844879831
 30
0.0
 11
-2.59684423799348
 21
0.913435906426961
 31
0.0
  0
LINE
  8
5
  6
CONTINUOUS
 62
5
 10
-2.46098590971574
 20
1.30136998867544
 30
0.0
 11
-2.62297397126288
 21
1.07841254942597
 31
0.0
  0
LINE
  8
5
  6
CONTINUOUS
 62
5
 10
-2.46098590971574
 20
1.30136998867544
 30
0.0
 11
-2.23802847046626
 21
1.13938192712831
 31
0.0
  0
LINE
  8
5
  6
CONTINUOUS
 62
5
 10
-2.373886798744
 20
0.751447844879831
 30
0.0
 11
-2.21189873719686
 21
0.974405284129301
 31
0.0
  0
ARC
  8
5
  6
CONTINUOUS
 62
5
 10
-2.30745192533106
 20
1.04382873899412
 30
0.0
 40
0.118110236
 50
324.00000000046
 51
54.0000000004657
  0
LINE
  8
5
  6
CONTINUOUS
 62
5
 10
-1.85823007152995
 20
0.317761857226081
 30
0.0
 11
-2.13042764553038
 21
0.274649996807331
 31
0.0
  0
LINE
  8
5
  6
CONTINUOUS
 62
5
 10
-2.30867212053675
 20
0.645027162224021
 30
0.0
 11
-2.265560260118
 21
0.372829588223591
 31
0.0
  0
LINE
  8
5
  6
CONTINUOUS
 62
5
 10
-2.30867212053675
 20
0.645027162224021
 30
0.0
 11
-2.03647454653632
 21
0.688139022642761
 31
0.0
  0
LINE
  8
5
  6
CONTINUOUS
 62
5
 10
-1.85823007152995
 20
0.317761857226081
 30
0.0
 11
-1.90134193194869
 21
0.589959431226511
 31
0.0
  0
ARC
  8
5
  6
CONTINUOUS
 62
5
 10
-2.01799803495063
 20
0.571482919640821
 30
0.0
 40
0.118110236
 50
9.00000000061224
 51
99.0000000006119
  0
ARC
  8
5
  6
CONTINUOUS
 62
5
 10
-2.14890415711606
 20
0.39130609980927
 30
0.0
 40
0.118110236
 50
189.000000000607
 51
279.000000000606
  0
LINE
  8
5
  6
CONTINUOUS
 62
5
 10
-1.18694340017703
 20
0.375723923029761
 30
0.0
 11
-1.34893146172303
 21
0.152766483779451
 31
0.0
  0
LINE
  8
5
  6
CONTINUOUS
 62
5
 10
-1.7368655439722
 20
0.288624812055211
 30
0.0
 11
-1.5139081047219
 21
0.126636750509211
 31
0.0
  0
LINE
  8
5
  6
CONTINUOUS
 62
5
 10
-1.7368655439722
 20
0.288624812055211
 30
0.0
 11
-1.5748774824262
 21
0.511582251305521
 31
0.0
  0
LINE
  8
5
  6
CONTINUOUS
 62
5
 10
-1.18694340017703
 20
0.375723923029761
 30
0.0
 11
-1.40990083942733
 21
0.537711984575761
 31
0.0
  0
ARC
  8
5
  6
CONTINUOUS
 62
5
 10
-1.47932429429165
 20
0.442158796441201
 30
0.0
 40
0.118110236000001
 50
54.0000000007591
 51
144.00000000076
  0
ARC
  8
5
  6
CONTINUOUS
 62
5
 10
-1.44448464985758
 20
0.22218993864376
 30
0.0
 40
0.118110236
 50
234.000000000754
 51
324.000000000754
  0
LINE
  8
5
  6
CONTINUOUS
 62
5
 10
-0.75325741252591
 20
0.891380650246021
 30
0.0
 11
-0.71014555210578
 21
0.619183076245821
 31
0.0
  0
LINE
  8
5
  6
CONTINUOUS
 62
5
 10
-1.08052271752155
 20
0.440938601237551
 30
0.0
 11
-0.80832514352134
 21
0.484050461657692
 31
0.0
  0
LINE
  8
5
  6
CONTINUOUS
 62
5
 10
-1.08052271752155
 20
0.440938601237551
 30
0.0
 11
-1.12363457794169
 21
0.713136175237761
 31
0.0
  0
LINE
  8
5
  6
CONTINUOUS
 62
5
 10
-0.75325741252591
 20
0.891380650246021
 30
0.0
 11
-1.02545498652612
 21
0.848268789825891
 31
0.0
  0
ARC
  8
5
  6
CONTINUOUS
 62
5
 10
-1.00697847493984
 20
0.731612686824041
 30
0.0
 40
0.118110236
 50
99.0000000009058
 51
189.000000000906
  0
ARC
  8
5
  6
CONTINUOUS
 62
5
 10
-0.826801655107619
 20
0.600706564659532
 30
0.0
 40
0.118110236
 50
279.000000000902
 51
9.00000000090543
  0
LINE
  8
5
  6
CONTINUOUS
 62
5
 10
-0.81121947833302
 20
1.56266732159865
 30
0.0
 11
-0.58826203908188
 21
1.40067926005379
 31
0.0
  0
LINE
  8
5
  6
CONTINUOUS
 62
5
 10
-0.72412036735566
 20
1.01274517780392
 30
0.0
 11
-0.5621323058108
 21
1.23570261705505
 31
0.0
  0
LINE
  8
5
  6
CONTINUOUS
 62
5
 10
-0.72412036735566
 20
1.01274517780392
 30
0.0
 11
-0.94707780660679
 21
1.17473323934878
 31
0.0
  0
LINE
  8
5
  6
CONTINUOUS
 62
5
 10
-0.81121947833302
 20
1.56266732159865
 30
0.0
 11
-0.97320753987788
 21
1.33970988234751
 31
0.0
  0
ARC
  8
5
  6
CONTINUOUS
 62
5
 10
-0.877654351742971
 20
1.27028642748369
 30
0.0
 40
0.118110236
 50
144.000000001047
 51
234.000000001047
  0
ARC
  8
5
  6
CONTINUOUS
 62
5
 10
-0.657685493945709
 20
1.30512607191888
 30
0.0
 40
0.118110236
 50
324.000000001047
 51
54.0000000010512
  0
LINE
  8
5
  6
CONTINUOUS
 62
5
 10
-1.3268762055515
 20
1.99635330924713
 30
0.0
 11
-1.05467863155151
 21
2.03946516966865
 31
0.0
  0
LINE
  8
5
  6
CONTINUOUS
 62
5
 10
-0.87643415654135
 20
1.66908800425379
 30
0.0
 11
-0.91954601696288
 21
1.94128557825378
 31
0.0
  0
LINE
  8
5
  6
CONTINUOUS
 62
5
 10
-0.87643415654135
 20
1.66908800425379
 30
0.0
 11
-1.14863173054134
 21
1.62597614383227
 31
0.0
  0
LINE
  8
5
  6
CONTINUOUS
 62
5
 10
-1.3268762055515
 20
1.99635330924713
 30
0.0
 11
-1.28376434512997
 21
1.72415573524714
 31
0.0
  0
ARC
  8
5
  6
CONTINUOUS
 62
5
 10
-1.16710824212822
 20
1.74263224683402
 30
0.0
 40
0.118110236000001
 50
189.000000001193
 51
279.000000001192
  0
ARC
  8
5
  6
CONTINUOUS
 62
5
 10
-1.03620211996463
 20
1.9228090666669
 30
0.0
 40
0.118110236
 50
9.00000000119729
 51
99.000000001197
  0
LINE
  8
5
  6
CONTINUOUS
 62
5
 10
-1.99816287690382
 20
1.9383912434366
 30
0.0
 11
-1.8361748153601
 21
2.16134868268856
 31
0.0
  0
LINE
  8
5
  6
CONTINUOUS
 62
5
 10
-1.44824073310954
 20
2.02549035441676
 30
0.0
 11
-1.6711981723615
 21
2.18747841596048
 31
0.0
  0
LINE
  8
5
  6
CONTINUOUS
 62
5
 10
-1.44824073310954
 20
2.02549035441676
 30
0.0
 11
-1.61022879465326
 21
1.8025329151648
 31
0.0
  0
LINE
  8
5
  6
CONTINUOUS
 62
5
 10
-1.99816287690382
 20
1.9383912434366
 30
0.0
 11
-1.77520543765187
 21
1.77640318189288
 31
0.0
  0
ARC
  8
5
  6
CONTINUOUS
 62
5
 10
-1.70578198278852
 20
1.87195637002814
 30
0.0
 40
0.118110235999999
 50
234.00000000134
 51
324.000000001339
  0
LINE
  8
5
  6
CONTINUOUS
 62
5
 10
-2.43184886454968
 20
1.42273451621591
 30
0.0
 11
-2.47496072497259
 21
1.69493209021568
 31
0.0
  0
LINE
  8
5
  6
CONTINUOUS
 62
5
 10
-2.10458355955863
 20
1.87317656522772
 30
0.0
 11
-2.3767811335584
 21
1.83006470480481
 31
0.0
  0
LINE
  8
5
  6
CONTINUOUS
 62
5
 10
-2.10458355955863
 20
1.87317656522772
 30
0.0
 11
-2.06147169913572
 21
1.60097899122795
 31
0.0
  0
LINE
  8
5
  6
CONTINUOUS
 62
5
 10
-2.43184886454968
 20
1.42273451621591
 30
0.0
 11
-2.15965129054991
 21
1.46584637663882
 31
0.0
  0
ARC
  8
5
  6
CONTINUOUS
 62
5
 10
-2.17812780213738
 20
1.58250247964048
 30
0.0
 40
0.118110236
 50
279.000000001486
 51
9.00000000149008
  0
ARC
  8
5
  6
CONTINUOUS
 62
5
 10
-2.35830462197093
 20
1.71340860180315
 30
0.0
 40
0.118110236
 50
99.0000000014901
 51
189.000000001491
  0
LINE
  8
5
  6
CONTINUOUS
 62
5
 10
-1.44824073305489
 20
-2.02549035444415
 30
0.0
 11
-1.67119817230106
 21
-2.18747841599584
 31
0.0
  0
LINE
  8
5
  6
CONTINUOUS
 62
5
 10
-1.99816287685229
 20
-1.93839124348364
 30
0.0
 11
-1.8361748153006
 21
-2.16134868272981
 31
0.0
  0
LINE
  8
5
  6
CONTINUOUS
 62
5
 10
-1.99816287685229
 20
-1.93839124348364
 30
0.0
 11
-1.77520543760612
 21
-1.77640318193195
 31
0.0
  0
LINE
  8
5
  6
CONTINUOUS
 62
5
 10
-1.44824073305489
 20
-2.02549035444415
 30
0.0
 11
-1.61022879460658
 21
-1.80253291519798
 31
0.0
  0
ARC
  8
5
  6
CONTINUOUS
 62
5
 10
-1.70578198273937
 20
-1.87195637006474
 30
0.0
 40
0.118110236
 50
36.0000000007005
 51
126.000000000702
  0
ARC
  8
5
  6
CONTINUOUS
 62
5
 10
-1.74062162716782
 20
-2.09192522786306
 30
0.0
 40
0.118110236
 50
216.0000000007
 51
306.0000000007
  0
LINE
  8
5
  6
CONTINUOUS
 62
5
 10
-0.87643415649944
 20
-1.66908800426075
 30
0.0
 11
-0.91954601691124
 21
-1.94128557826228
 31
0.0
  0
LINE
  8
5
  6
CONTINUOUS
 62
5
 10
-1.32687620549789
 20
-1.99635330927019
 30
0.0
 11
-1.05467863149636
 21
-2.03946516968199
 31
0.0
  0
LINE
  8
5
  6
CONTINUOUS
 62
5
 10
-1.32687620549789
 20
-1.99635330927019
 30
0.0
 11
-1.28376434508609
 21
-1.72415573526866
 31
0.0
  0
LINE
  8
5
  6
CONTINUOUS
 62
5
 10
-0.87643415649944
 20
-1.66908800426075
 30
0.0
 11
-1.14863173050097
 21
-1.62597614384895
 31
0.0
  0
ARC
  8
5
  6
CONTINUOUS
 62
5
 10
-1.16710824208368
 20
-1.74263224685137
 30
0.0
 40
0.118110236
 50
81.0000000008472
 51
171.000000000848
  0
ARC
  8
5
  6
CONTINUOUS
 62
5
 10
-1.03620211991365
 20
-1.92280906667957
 30
0.0
 40
0.118110236
 50
261.000000000846
 51
351.000000000843
  0
LINE
  8
5
  6
CONTINUOUS
 62
5
 10
-0.7241203673372
 20
-1.01274517780544
 30
0.0
 11
-0.56213230578437
 21
-1.23570261705078
 31
0.0
  0
LINE
  8
5
  6
CONTINUOUS
 62
5
 10
-0.81121947829491
 20
-1.56266732160328
 30
0.0
 11
-0.58826203904956
 21
-1.40067926005046
 31
0.0
  0
LINE
  8
5
  6
CONTINUOUS
 62
5
 10
-0.81121947829491
 20
-1.56266732160328
 30
0.0
 11
-0.97320753984773
 21
-1.33970988235794
 31
0.0
  0
LINE
  8
5
  6
CONTINUOUS
 62
5
 10
-0.7241203673372
 20
-1.01274517780544
 30
0.0
 11
-0.94707780658255
 21
-1.17473323935826
 31
0.0
  0
ARC
  8
5
  6
CONTINUOUS
 62
5
 10
-0.8776543517153
 20
-1.27028642749069
 30
0.0
 40
0.118110236
 50
126.000000000994
 51
216.000000000994
  0
ARC
  8
5
  6
CONTINUOUS
 62
5
 10
-0.657685493916799
 20
-1.30512607191802
 30
0.0
 40
0.118110236
 50
306.000000000988
 51
36.0000000009927
  0
LINE
  8
5
  6
CONTINUOUS
 62
5
 10
-1.08052271752352
 20
-0.440938601251809
 30
0.0
 11
-0.80832514352177
 21
-0.484050461662219
 31
0.0
  0
LINE
  8
5
  6
CONTINUOUS
 62
5
 10
-0.75325741251178
 20
-0.891380650248589
 30
0.0
 11
-0.71014555210137
 21
-0.619183076246839
 31
0.0
  0
LINE
  8
5
  6
CONTINUOUS
 62
5
 10
-0.75325741251178
 20
-0.891380650248589
 30
0.0
 11
-1.02545498651353
 21
-0.848268789838179
 31
0.0
  0
LINE
  8
5
  6
CONTINUOUS
 62
5
 10
-1.08052271752352
 20
-0.440938601251809
 30
0.0
 11
-1.12363457793393
 21
-0.713136175253549
 31
0.0
  0
ARC
  8
5
  6
CONTINUOUS
 62
5
 10
-1.00697847493142
 20
-0.73161268683567
 30
0.0
 40
0.118110236
 50
171.000000001135
 51
261.000000001137
  0
ARC
  8
5
  6
CONTINUOUS
 62
5
 10
-0.82680165510388
 20
-0.600706564664718
 30
0.0
 40
0.118110236
 50
351.000000001135
 51
81.0000000011389
  0
LINE
  8
5
  6
CONTINUOUS
 62
5
 10
-1.73686554397961
 20
-0.288624812092909
 30
0.0
 11
-1.51390810473509
 21
-0.126636750538949
 31
0.0
  0
LINE
  8
5
  6
CONTINUOUS
 62
5
 10
-1.18694340018132
 20
-0.375723923047809
 30
0.0
 11
-1.34893146173529
 21
-0.152766483803298
 31
0.0
  0
LINE
  8
5
  6
CONTINUOUS
 62
5
 10
-1.18694340018132
 20
-0.375723923047809
 30
0.0
 11
-1.40990083942584
 21
-0.537711984601779
 31
0.0
  0
LINE
  8
5
  6
CONTINUOUS
 62
5
 10
-1.73686554397961
 20
-0.288624812092909
 30
0.0
 11
-1.57487748242565
 21
-0.511582251337429
 31
0.0
  0
ARC
  8
5
  6
CONTINUOUS
 62
5
 10
-1.47932429429357
 20
-0.44215879646971
 30
0.0
 40
0.118110235999999
 50
216.000000001279
 51
306.000000001279
  0
ARC
  8
5
  6
CONTINUOUS
 62
5
 10
-1.44448464986736
 20
-0.222189938671019
 30
0.0
 40
0.118110236
 50
36.0000000012851
 51
126.000000001286
  0
LINE
  8
5
  6
CONTINUOUS
 62
5
 10
-2.30867212053142
 20
-0.645027162282149
 30
0.0
 11
-2.2655602601224
 21
-0.372829588280179
 31
0.0
  0
LINE
  8
5
  6
CONTINUOUS
 62
5
 10
-1.85823007153631
 20
-0.317761857268109
 30
0.0
 11
-2.13042764553828
 21
-0.274649996859089
 31
0.0
  0
LINE
  8
5
  6
CONTINUOUS
 62
5
 10
-1.85823007153631
 20
-0.317761857268109
 30
0.0
 11
-1.90134193194533
 21
-0.589959431270079
 31
0.0
  0
LINE
  8
5
  6
CONTINUOUS
 62
5
 10
-2.30867212053142
 20
-0.645027162282149
 30
0.0
 11
-2.03647454652945
 21
-0.688139022691169
 31
0.0
  0
ARC
  8
5
  6
CONTINUOUS
 62
5
 10
-2.01799803494793
 20
-0.57148291968857
 30
0.0
 40
0.118110236
 50
261.000000001427
 51
351.000000001427
  0
ARC
  8
5
  6
CONTINUOUS
 62
5
 10
-2.1489041571198
 20
-0.391306099861698
 30
0.0
 40
0.118110236
 50
81.0000000014317
 51
171.000000001433
  0
LINE
  8
5
  6
CONTINUOUS
 62
5
 10
-2.46098590968697
 20
-1.30136998873902
 30
0.0
 11
-2.62297397124207
 21
-1.07841254949533
 31
0.0
  0
LINE
  8
5
  6
CONTINUOUS
 62
5
 10
-2.37388679873487
 20
-0.751447844940279
 30
0.0
 11
-2.59684423797856
 21
-0.913435906495389
 31
0.0
  0
LINE
  8
5
  6
CONTINUOUS
 62
5
 10
-2.37388679873487
 20
-0.751447844940279
 30
0.0
 11
-2.21189873717977
 21
-0.974405284183978
 31
0.0
  0
LINE
  8
5
  6
CONTINUOUS
 62
5
 10
-2.46098590968697
 20
-1.30136998873902
 30
0.0
 11
-2.23802847044327
 21
-1.13938192718392
 31
0.0
  0
ARC
  8
5
  6
CONTINUOUS
 62
5
 10
-2.30745192531149
 20
-1.04382873905219
 30
0.0
 40
0.118110236000001
 50
306.000000001573
 51
36.0000000015769
  0
ARC
  8
5
  6
CONTINUOUS
 62
5
 10
-2.52742078311035
 20
-1.00898909462711
 30
0.0
 40
0.118110236
 50
126.000000001579
 51
216.000000001579
  0
LINE
  8
5
  6
CONTINUOUS
 62
5
 10
-2.10458355949481
 20
-1.87317656528901
 30
0.0
 11
-2.376781133497
 21
-1.83006470488138
 31
0.0
  0
LINE
  8
5
  6
CONTINUOUS
 62
5
 10
-2.43184886451114
 20
-1.42273451629557
 30
0.0
 11
-2.47496072491878
 21
-1.69493209029776
 31
0.0
  0
LINE
  8
5
  6
CONTINUOUS
 62
5
 10
-2.43184886451114
 20
-1.42273451629557
 30
0.0
 11
-2.15965129050896
 21
-1.4658463767032
 31
0.0
  0
LINE
  8
5
  6
CONTINUOUS
 62
5
 10
-2.10458355949481
 20
-1.87317656528901
 30
0.0
 11
-2.06147169908718
 21
-1.60097899128682
 31
0.0
  0
ARC
  8
5
  6
CONTINUOUS
 62
5
 10
-2.17812780208988
 20
-1.5825024797059
 30
0.0
 40
0.118110236
 50
351.000000001719
 51
81.0000000017237
  0
ARC
  8
5
  6
CONTINUOUS
 62
5
 10
-2.35830462191608
 20
-1.71340860187868
 30
0.0
 40
0.118110236
 50
171.000000001719
 51
261.000000001718
  0
LINE
  8
5
  6
CONTINUOUS
 62
5
 10
1.47882480183526
 20
-2.00326972779568
 30
0.0
 11
1.5639869655877
 21
-2.26537191715221
 31
0.0
  0
LINE
  8
5
  6
CONTINUOUS
 62
5
 10
1.22605333677827
 20
-2.49936166062848
 30
0.0
 11
1.4881555261348
 21
-2.41419949687605
 31
0.0
  0
LINE
  8
5
  6
CONTINUOUS
 62
5
 10
1.22605333677827
 20
-2.49936166062848
 30
0.0
 11
1.14089117302584
 21
-2.23725947127195
 31
0.0
  0
LINE
  8
5
  6
CONTINUOUS
 62
5
 10
1.47882480183526
 20
-2.00326972779568
 30
0.0
 11
1.21672261247873
 21
-2.08843189154812
 31
0.0
  0
ARC
  8
5
  6
CONTINUOUS
 62
5
 10
1.2532206826142
 20
-2.20076140113648
 30
0.0
 40
0.118110236
 50
108.000000000936
 51
198.000000000935
  0
ARC
  8
5
  6
CONTINUOUS
 62
5
 10
1.45165745599933
 20
-2.30186998728768
 30
0.0
 40
0.118110236
 50
288.00000000093
 51
18.0000000009339
  0
LINE
  8
5
  6
CONTINUOUS
 62
5
 10
1.31656397391875
 20
-1.34931497406102
 30
0.0
 11
1.56211695286678
 21
-1.47443046602837
 31
0.0
  0
LINE
  8
5
  6
CONTINUOUS
 62
5
 10
1.48861752668586
 20
-1.87884136089085
 30
0.0
 11
1.61373301865322
 21
-1.63328838194282
 31
0.0
  0
LINE
  8
5
  6
CONTINUOUS
 62
5
 10
1.48861752668586
 20
-1.87884136089085
 30
0.0
 11
1.24306454773783
 21
-1.7537258689235
 31
0.0
  0
LINE
  8
5
  6
CONTINUOUS
 62
5
 10
1.31656397391875
 20
-1.34931497406102
 30
0.0
 11
1.1914484819514
 21
-1.59486795300905
 31
0.0
  0
ARC
  8
5
  6
CONTINUOUS
 62
5
 10
1.29668547280184
 20
-1.64848887807306
 30
0.0
 40
0.118110236
 50
153.000000001078
 51
243.000000001077
  0
ARC
  8
5
  6
CONTINUOUS
 62
5
 10
1.50849602780278
 20
-1.57966745687881
 30
0.0
 40
0.118110236000001
 50
333.000000001077
 51
63.0000000010804
  0
LINE
  8
5
  6
CONTINUOUS
 62
5
 10
0.7394124012222
 20
-1.00163486484824
 30
0.0
 11
1.0015145905783
 21
-0.916472701094459
 31
0.0
  0
LINE
  8
5
  6
CONTINUOUS
 62
5
 10
1.23550433405629
 20
-1.25440632990269
 30
0.0
 11
1.15034217030252
 21
-0.992304140546589
 31
0.0
  0
LINE
  8
5
  6
CONTINUOUS
 62
5
 10
1.23550433405629
 20
-1.25440632990269
 30
0.0
 11
0.97340214470019
 21
-1.33956849365647
 31
0.0
  0
LINE
  8
5
  6
CONTINUOUS
 62
5
 10
0.7394124012222
 20
-1.00163486484824
 30
0.0
 11
0.82457456497598
 21
-1.26373705420433
 31
0.0
  0
ARC
  8
5
  6
CONTINUOUS
 62
5
 10
0.93690407456415
 20
-1.22723898406829
 30
0.0
 40
0.118110236
 50
198.000000001223
 51
288.000000001222
  0
ARC
  8
5
  6
CONTINUOUS
 62
5
 10
1.03801266071434
 20
-1.02880221068264
 30
0.0
 40
0.118110236
 50
18.0000000012266
 51
108.000000001228
  0
LINE
  8
5
  6
CONTINUOUS
 62
5
 10
0.0854576474883699
 20
-1.16389569276808
 30
0.0
 11
0.21057313945447
 21
-0.918342713819409
 31
0.0
  0
LINE
  8
5
  6
CONTINUOUS
 62
5
 10
0.61498403431732
 20
-0.991842139998259
 30
0.0
 11
0.36943105536865
 21
-0.866726648032169
 31
0.0
  0
LINE
  8
5
  6
CONTINUOUS
 62
5
 10
0.61498403431732
 20
-0.991842139998259
 30
0.0
 11
0.48986854235122
 21
-1.23739511894693
 31
0.0
  0
LINE
  8
5
  6
CONTINUOUS
 62
5
 10
0.0854576474883699
 20
-1.16389569276808
 30
0.0
 11
0.33101062643704
 21
-1.28901118473418
 31
0.0
  0
ARC
  8
5
  6
CONTINUOUS
 62
5
 10
0.384631551500511
 20
-1.18377419388346
 30
0.0
 40
0.118110236
 50
243.000000001367
 51
333.000000001367
  0
ARC
  8
5
  6
CONTINUOUS
 62
5
 10
0.31581013030518
 20
-0.971963638882878
 30
0.0
 40
0.118110236
 50
63.0000000013729
 51
153.000000001374
  0
LINE
  8
5
  6
CONTINUOUS
 62
5
 10
-0.26222246172147
 20
-1.7410472654664
 30
0.0
 11
-0.34738462547658
 21
-1.47894507611074
 31
0.0
  0
LINE
  8
5
  6
CONTINUOUS
 62
5
 10
-0.00945099666953997
 20
-1.24495533263103
 30
0.0
 11
-0.27155318602521
 21
-1.33011749638614
 31
0.0
  0
LINE
  8
5
  6
CONTINUOUS
 62
5
 10
-0.00945099666953997
 20
-1.24495533263103
 30
0.0
 11
0.0757111670855699
 21
-1.50705752198669
 31
0.0
  0
LINE
  8
5
  6
CONTINUOUS
 62
5
 10
-0.26222246172147
 20
-1.7410472654664
 30
0.0
 11
-0.000120272365809804
 21
-1.65588510171129
 31
0.0
  0
ARC
  8
5
  6
CONTINUOUS
 62
5
 10
-0.0366183425024192
 20
-1.5435555921233
 30
0.0
 40
0.118110236
 50
288.000000001516
 51
18.0000000015196
  0
ARC
  8
5
  6
CONTINUOUS
 62
5
 10
-0.23505511588859
 20
-1.44244700597413
 30
0.0
 40
0.118110236
 50
108.00000000152
 51
198.00000000152
  0
LINE
  8
5
  6
CONTINUOUS
 62
5
 10
-0.0999616337982898
 20
-2.39500201919941
 30
0.0
 11
-0.3455146127476
 21
-2.26988652723457
 31
0.0
  0
LINE
  8
5
  6
CONTINUOUS
 62
5
 10
-0.2720151865708
 20
-1.86547563237134
 30
0.0
 11
-0.39713067853565
 21
-2.11102861132065
 31
0.0
  0
LINE
  8
5
  6
CONTINUOUS
 62
5
 10
-0.2720151865708
 20
-1.86547563237134
 30
0.0
 11
-0.0264622076215
 21
-1.99059112433618
 31
0.0
  0
LINE
  8
5
  6
CONTINUOUS
 62
5
 10
-0.0999616337982898
 20
-2.39500201919941
 30
0.0
 11
0.02515385816656
 21
-2.14944904025011
 31
0.0
  0
ARC
  8
5
  6
CONTINUOUS
 62
5
 10
-0.0800831326844292
 20
-2.09582811518717
 30
0.0
 40
0.118110236
 50
333.000000001661
 51
63.0000000016647
  0
ARC
  8
5
  6
CONTINUOUS
 62
5
 10
-0.29189368768466
 20
-2.16464953638358
 30
0.0
 40
0.118110236
 50
153.000000001659
 51
243.000000001659
  0
LINE
  8
5
  6
CONTINUOUS
 62
5
 10
0.47718993890181
 20
-2.7426821284063
 30
0.0
 11
0.21508774954658
 21
-2.82784429216275
 31
0.0
  0
LINE
  8
5
  6
CONTINUOUS
 62
5
 10
-0.0189019939348598
 20
-2.48991066335691
 30
0.0
 11
0.0662601698215899
 21
-2.75201285271214
 31
0.0
  0
LINE
  8
5
  6
CONTINUOUS
 62
5
 10
-0.0189019939348598
 20
-2.48991066335691
 30
0.0
 11
0.24320019542037
 21
-2.40474849960046
 31
0.0
  0
LINE
  8
5
  6
CONTINUOUS
 62
5
 10
0.47718993890181
 20
-2.7426821284063
 30
0.0
 11
0.39202777514536
 21
-2.48057993905107
 31
0.0
  0
ARC
  8
5
  6
CONTINUOUS
 62
5
 10
0.27969826555756
 20
-2.51707800918826
 30
0.0
 40
0.118110236
 50
18.0000000018118
 51
108.000000001813
  0
ARC
  8
5
  6
CONTINUOUS
 62
5
 10
0.178589679409391
 20
-2.71551478257495
 30
0.0
 40
0.118110236
 50
198.000000001809
 51
288.000000001807
  0
LINE
  8
5
  6
CONTINUOUS
 62
5
 10
1.13114469263399
 20
-2.58042130047979
 30
0.0
 11
1.0060292006704
 21
-2.82597427942973
 31
0.0
  0
LINE
  8
5
  6
CONTINUOUS
 62
5
 10
0.60161830580679
 20
-2.752474853255
 30
0.0
 11
0.84717128475674
 21
-2.87759034521859
 31
0.0
  0
LINE
  8
5
  6
CONTINUOUS
 62
5
 10
0.60161830580679
 20
-2.752474853255
 30
0.0
 11
0.72673379777039
 21
-2.50692187430506
 31
0.0
  0
LINE
  8
5
  6
CONTINUOUS
 62
5
 10
1.13114469263399
 20
-2.58042130047979
 30
0.0
 11
0.88559171368404
 21
-2.45530580851619
 31
0.0
  0
ARC
  8
5
  6
CONTINUOUS
 62
5
 10
0.83197078862164
 20
-2.56054279936745
 30
0.0
 40
0.118110236000001
 50
63.0000000019573
 51
153.000000001959
  0
ARC
  8
5
  6
CONTINUOUS
 62
5
 10
0.900792209819141
 20
-2.77235335436733
 30
0.0
 40
0.118110236
 50
243.000000001953
 51
333.000000001955
  0
ARC
  8
5
  6
CONTINUOUS
 62
5
 10
1.968503937
 20
-8.09188532686054E-15
 30
0.0
 40
0.0984251970000001
 50
359.999999999992
 51
180
  0
ARC
  8
5
  6
CONTINUOUS
 62
5
 10
1.968503937
 20
-1.9632404466255E-14
 30
0.0
 40
0.0984251970000001
 50
179.999999999993
 51
359.999999999992
  0
ARC
  8
5
  6
CONTINUOUS
 62
5
 10
-2.52742078312868
 20
1.00898909456116
 30
0.0
 40
0.118110236
 50
144.000000000466
 51
234.000000000466
  0
ARC
  8
5
  6
CONTINUOUS
 62
5
 10
-1.74062162722484
 20
2.09192522782522
 30
0.0
 40
0.118110236000001
 50
54.0000000013436
 51
144.000000001345
  0
ARC
  8
5
  6
CONTINUOUS
 62
5
 10
0.60830117001934
 20
1.87215849663898
 30
0.0
 40
0.0984251969999996
 50
72.0000000002304
 51
252.000000000234
  0
ARC
  8
5
  6
CONTINUOUS
 62
5
 10
0.608301170019351
 20
1.87215849663897
 30
0.0
 40
0.0984251970000002
 50
252.000000000227
 51
72.00000000023
  0
ARC
  8
5
  6
CONTINUOUS
 62
5
 10
-1.59255313853644
 20
1.15705758323524
 30
0.0
 40
0.0984251970000008
 50
144.000000000463
 51
324.000000000466
  0
ARC
  8
5
  6
CONTINUOUS
 62
5
 10
-1.59255313853644
 20
1.15705758323524
 30
0.0
 40
0.0984251969999989
 50
324.00000000046
 51
144.000000000465
  0
ARC
  8
5
  6
CONTINUOUS
 62
5
 10
-1.59255313851281
 20
-1.15705758326781
 30
0.0
 40
0.0984251969999992
 50
216.000000000697
 51
36.0000000007012
  0
ARC
  8
5
  6
CONTINUOUS
 62
5
 10
-1.59255313851282
 20
-1.1570575832678
 30
0.0
 40
0.0984251969999993
 50
36.000000000698
 51
216.000000000698
  0
ARC
  8
5
  6
CONTINUOUS
 62
5
 10
0.608301170057571
 20
-1.8721584966266
 30
0.0
 40
0.0984251969999996
 50
288.00000000093
 51
108.000000000935
  0
ARC
  8
5
  6
CONTINUOUS
 62
5
 10
0.608301170057569
 20
-1.87215849662661
 30
0.0
 40
0.0984251970000001
 50
108.000000000928
 51
288.000000000928
  0
ARC
  8
23
  6
CONTINUOUS
 62
23
 10
5.12924879598489
 20
10.1988279639889
 30
0.0
 40
0.307115384615379
 50
179.999999999997
 51
359.999999999997
  0
ENDSEC
  0
EOF
