  0
SECTION
  2
HEADER
  9
$ACADVER
  1
AC1003
  9
$EXTMIN
 10
-0.984251968500001
 20
0.393700787
  9
$EXTMAX
 10
1.968503937
 20
-2.9527559055
  9
$INSUNITS
 70
1
  9
$INSBASE
 10
0.49212598425
 20
-1.27952755925
999
Created with OMAX LAYOUT for Windows. (www.omax.com) 1/19/2024
  0
ENDSEC
  0
SECTION
  2
TABLES
  0
TABLE
  2
LAYER
 70
    10
  0
LAYER
  2
0
 70
     0
 62
     7
  6
CONTINUOUS
  0
LAYER
  2
1
 70
     0
 62
     7
  6
CONTINUOUS
  0
LAYER
  2
2
 70
     0
 62
     7
  6
CONTINUOUS
  0
LAYER
  2
3
 70
     0
 62
     7
  6
CONTINUOUS
  0
LAYER
  2
4
 70
     0
 62
     7
  6
CONTINUOUS
  0
LAYER
  2
5
 70
     0
 62
     7
  6
CONTINUOUS
  0
LAYER
  2
6
 70
     0
 62
     7
  6
CONTINUOUS
  0
LAYER
  2
7
 70
     0
 62
     7
  6
CONTINUOUS
  0
LAYER
  2
8
 70
     0
 62
     7
  6
CONTINUOUS
  0
LAYER
  2
9
 70
     0
 62
     7
  6
CONTINUOUS
  0
LAYER
  2
10
 70
     0
 62
     7
  6
CONTINUOUS
  0
LAYER
  2
11
 70
     0
 62
     7
  6
CONTINUOUS
  0
LAYER
  2
12
 70
     0
 62
     7
  6
CONTINUOUS
  0
LAYER
  2
13
 70
     0
 62
     7
  6
CONTINUOUS
  0
LAYER
  2
14
 70
     0
 62
     7
  6
CONTINUOUS
  0
LAYER
  2
15
 70
     0
 62
     7
  6
CONTINUOUS
  0
LAYER
  2
16
 70
     0
 62
     7
  6
CONTINUOUS
  0
LAYER
  2
17
 70
     0
 62
     7
  6
CONTINUOUS
  0
LAYER
  2
18
 70
     0
 62
     7
  6
CONTINUOUS
  0
LAYER
  2
19
 70
     0
 62
     7
  6
CONTINUOUS
  0
LAYER
  2
20
 70
     0
 62
     7
  6
CONTINUOUS
  0
LAYER
  2
21
 70
     0
 62
     7
  6
CONTINUOUS
  0
LAYER
  2
22
 70
     0
 62
     7
  6
CONTINUOUS
  0
LAYER
  2
23
 70
     0
 62
     7
  6
CONTINUOUS
  0
LAYER
  2
24
 70
     0
 62
     7
  6
CONTINUOUS
  0
LAYER
  2
25
 70
     0
 62
     7
  6
CONTINUOUS
  0
LAYER
  2
26
 70
     0
 62
     7
  6
CONTINUOUS
  0
LAYER
  2
27
 70
     0
 62
     7
  6
CONTINUOUS
  0
LAYER
  2
28
 70
     0
 62
     7
  6
CONTINUOUS
  0
LAYER
  2
29
 70
     0
 62
     7
  6
CONTINUOUS
  0
LAYER
  2
30
 70
     0
 62
     7
  6
CONTINUOUS
  0
LAYER
  2
31
 70
     0
 62
     7
  6
CONTINUOUS
  0
ENDTAB
  0
ENDSEC
  0
SECTION
  2
ENTITIES
  0
ARC
  8
0
  6
CONTINUOUS
 62
0
 10
-0.787401575000001
 20
-2.755905512
 30
0.0
 40
0.0492125990000004
 50
179.999999999998
 51
359.999999999997
  0
ARC
  8
0
  6
CONTINUOUS
 62
0
 10
-0.787401575000001
 20
-2.755905512
 30
0.0
 40
0.0492125990000004
 50
359.999999999995
 51
180
  0
ARC
  8
0
  6
CONTINUOUS
 62
0
 10
0.787401575000001
 20
-2.755905512
 30
0.0
 40
0.0492125990000004
 50
180.000000000001
 51
1.93377724632982E-12
  0
ARC
  8
0
  6
CONTINUOUS
 62
0
 10
0.787401575000001
 20
-2.755905512
 30
0.0
 40
0.0492125990000004
 50
359.999999999998
 51
180.000000000004
  0
ARC
  8
0
  6
CONTINUOUS
 62
0
 10
-0.787401575000001
 20
-1.181102362
 30
0.0
 40
0.0492125990000004
 50
1.62844399690932E-12
 51
180.000000000002
  0
ARC
  8
0
  6
CONTINUOUS
 62
0
 10
-0.787401575000001
 20
-1.181102362
 30
0.0
 40
0.0492125990000004
 50
179.999999999999
 51
3.77849896157866E-12
  0
ARC
  8
0
  6
CONTINUOUS
 62
0
 10
0.787401575000001
 20
-1.181102362
 30
0.0
 40
0.0492125990000004
 50
359.999999999997
 51
179.999999999998
  0
ARC
  8
0
  6
CONTINUOUS
 62
0
 10
0.787401575000001
 20
-1.181102362
 30
0.0
 40
0.0492125990000004
 50
179.999999999995
 51
359.999999999998
  0
LINE
  8
1
  6
CONTINUOUS
 62
1
 10
-7.07107497448195E-10
 20
0.139194250183751
 30
0.0
 11
-0.0695971242383225
 21
0.0695971252383222
 31
0.0
  0
LINE
  8
1
  6
CONTINUOUS
 62
1
 10
7.07107497448195E-10
 20
0.139194250183751
 30
0.0
 11
0.0695971242383225
 21
0.0695971252383222
 31
0.0
  0
ARC
  8
1
  6
CONTINUOUS
 62
1
 10
8.18789480661053E-16
 20
1.00000232423397E-9
 30
0.0
 40
0.0984251969999992
 50
359.999999999999
 51
44.9999994178747
  0
ARC
  8
1
  6
CONTINUOUS
 62
1
 10
0
 20
9.99999053565114E-10
 30
0.0
 40
0.098425197
 50
179.999999999999
 51
359.999999999999
  0
ARC
  8
1
  6
CONTINUOUS
 62
1
 10
-7.35522753814166E-16
 20
1.000000957041E-9
 30
0.0
 40
0.0984251969999995
 50
135.000000582125
 51
180
  0
ARC
  8
2
  6
CONTINUOUS
 62
2
 10
-0.787401575499997
 20
-1.1811023615
 30
0.0
 40
0.196850394
 50
261.786789238244
 51
8.21321076175381
  0
LINE
  8
2
  6
CONTINUOUS
 62
2
 10
-0.905511811500001
 20
-1.968503937
 30
0.0
 11
-0.905511811500001
 21
-1.45386626798328
 31
0.0
  0
ARC
  8
2
  6
CONTINUOUS
 62
2
 10
-0.514637669016724
 20
-1.1417322825
 30
0.0
 40
0.078740157
 50
89.9999999999995
 51
188.213210761754
  0
ARC
  8
2
  6
CONTINUOUS
 62
2
 10
-0.826771654500001
 20
-1.45386626798328
 30
0.0
 40
0.078740157
 50
81.7867892382452
 51
180
  0
LINE
  8
2
  6
CONTINUOUS
 62
2
 10
-0.514637669016724
 20
-1.0629921255
 30
0.0
 11
0
 21
-1.0629921255
 31
0.0
  0
ARC
  8
2
  6
CONTINUOUS
 62
2
 10
0.787401575500002
 20
-1.1811023615
 30
0.0
 40
0.196850394
 50
171.786789238245
 51
278.213210761753
  0
LINE
  8
2
  6
CONTINUOUS
 62
2
 10
0.905511811500001
 20
-1.968503937
 30
0.0
 11
0.905511811500001
 21
-1.45386626798328
 31
0.0
  0
ARC
  8
2
  6
CONTINUOUS
 62
2
 10
0.514637669016725
 20
-1.1417322825
 30
0.0
 40
0.078740157
 50
351.786789238244
 51
89.9999999999996
  0
ARC
  8
2
  6
CONTINUOUS
 62
2
 10
0.8267716545
 20
-1.45386626798328
 30
0.0
 40
0.078740157
 50
359.999999999998
 51
98.2132107617539
  0
LINE
  8
2
  6
CONTINUOUS
 62
2
 10
0.514637669016724
 20
-1.0629921255
 30
0.0
 11
0
 21
-1.0629921255
 31
0.0
  0
ARC
  8
2
  6
CONTINUOUS
 62
2
 10
-0.787401575500003
 20
-2.7559055125
 30
0.0
 40
0.196850394
 50
351.786789238244
 51
98.2132107617538
  0
LINE
  8
2
  6
CONTINUOUS
 62
2
 10
-0.905511811500001
 20
-1.968503937
 30
0.0
 11
-0.905511811500001
 21
-2.48314160601672
 31
0.0
  0
ARC
  8
2
  6
CONTINUOUS
 62
2
 10
-0.514637669016725
 20
-2.7952755915
 30
0.0
 40
0.0787401569999999
 50
171.786789238244
 51
269.999999999998
  0
ARC
  8
2
  6
CONTINUOUS
 62
2
 10
-0.8267716545
 20
-2.48314160601672
 30
0.0
 40
0.0787401569999999
 50
179.999999999999
 51
278.213210761753
  0
LINE
  8
2
  6
CONTINUOUS
 62
2
 10
-0.514637669016724
 20
-2.8740157485
 30
0.0
 11
0
 21
-2.8740157485
 31
0.0
  0
ARC
  8
2
  6
CONTINUOUS
 62
2
 10
0.787401575499999
 20
-2.7559055125
 30
0.0
 40
0.196850394
 50
81.7867892382455
 51
188.213210761754
  0
LINE
  8
2
  6
CONTINUOUS
 62
2
 10
0.905511811500001
 20
-1.968503937
 30
0.0
 11
0.905511811500001
 21
-2.48314160601672
 31
0.0
  0
ARC
  8
2
  6
CONTINUOUS
 62
2
 10
0.514637669016725
 20
-2.7952755915
 30
0.0
 40
0.0787401570000002
 50
270
 51
8.21321076175431
  0
ARC
  8
2
  6
CONTINUOUS
 62
2
 10
0.826771654500002
 20
-2.48314160601672
 30
0.0
 40
0.0787401570000001
 50
261.786789238244
 51
359.999999999998
  0
LINE
  8
2
  6
CONTINUOUS
 62
2
 10
0.514637669016724
 20
-2.8740157485
 30
0.0
 11
0
 21
-2.8740157485
 31
0.0
  0
LINE
  8
3
  6
CONTINUOUS
 62
3
 10
1.082677165
 20
0.196850393
 30
0.0
 11
1.87007874
 21
0.196850393
 31
0.0
  0
LINE
  8
3
  6
CONTINUOUS
 62
3
 10
1.87007874
 20
-0.196850393
 30
0.0
 11
1.082677165
 21
-0.196850393000001
 31
0.0
  0
LINE
  8
3
  6
CONTINUOUS
 62
3
 10
0.984251968
 20
-0.0984251960000003
 30
0.0
 11
0.984251967999999
 21
0.0984251960000008
 31
0.0
  0
LINE
  8
3
  6
CONTINUOUS
 62
3
 10
0.393700787
 20
-0.29527559
 30
0.0
 11
0.393700786999999
 21
0.29527559
 31
0.0
  0
LINE
  8
3
  6
CONTINUOUS
 62
3
 10
0.492125984
 20
0.393700786999999
 30
0.0
 11
1.87007874
 21
0.393700787
 31
0.0
  0
LINE
  8
3
  6
CONTINUOUS
 62
3
 10
0.492125984
 20
-0.393700787
 30
0.0
 11
1.87007874
 21
-0.393700787
 31
0.0
  0
ARC
  8
3
  6
CONTINUOUS
 62
3
 10
1.87007874
 20
0.29527559
 30
0.0
 40
0.098425197
 50
269.999999999999
 51
359.999999999999
  0
ARC
  8
3
  6
CONTINUOUS
 62
3
 10
1.87007874
 20
0.295275590000001
 30
0.0
 40
0.098425197
 50
359.999999999999
 51
89.9999999999998
  0
ARC
  8
3
  6
CONTINUOUS
 62
3
 10
1.082677165
 20
0.0984251959999989
 30
0.0
 40
0.098425197
 50
89.9999999999998
 51
179.999999999999
  0
ARC
  8
3
  6
CONTINUOUS
 62
3
 10
1.082677165
 20
-0.0984251960000006
 30
0.0
 40
0.0984251970000001
 50
180
 51
269.999999999999
  0
ARC
  8
3
  6
CONTINUOUS
 62
3
 10
1.87007874
 20
-0.295275589999999
 30
0.0
 40
0.0984251969999999
 50
360
 51
89.9999999999998
  0
ARC
  8
3
  6
CONTINUOUS
 62
3
 10
1.87007874
 20
-0.29527559
 30
0.0
 40
0.0984251969999999
 50
269.999999999999
 51
4.45277655404892E-14
  0
ARC
  8
3
  6
CONTINUOUS
 62
3
 10
0.492125983999999
 20
0.295275589999999
 30
0.0
 40
0.098425197
 50
89.9999999999994
 51
179.999999999999
  0
ARC
  8
3
  6
CONTINUOUS
 62
3
 10
0.492125984000001
 20
-0.29527559
 30
0.0
 40
0.098425197
 50
180
 51
270
  0
LINE
  8
3
  6
CONTINUOUS
 62
3
 10
0.7874015745
 20
-2.9527559055
 30
0.0
 11
-0.787401574500001
 21
-2.9527559055
 31
0.0
  0
LINE
  8
3
  6
CONTINUOUS
 62
3
 10
-0.787401574500001
 20
-0.9842519685
 30
0.0
 11
0.7874015745
 21
-0.9842519685
 31
0.0
  0
LINE
  8
3
  6
CONTINUOUS
 62
3
 10
-0.984251968500001
 20
-2.7559055115
 30
0.0
 11
-0.984251968500001
 21
-1.1811023625
 31
0.0
  0
LINE
  8
3
  6
CONTINUOUS
 62
3
 10
0.9842519685
 20
-2.7559055115
 30
0.0
 11
0.9842519685
 21
-1.1811023625
 31
0.0
  0
ARC
  8
3
  6
CONTINUOUS
 62
3
 10
-0.787401574500002
 20
-1.1811023625
 30
0.0
 40
0.196850394
 50
89.9999999999986
 51
180
  0
ARC
  8
3
  6
CONTINUOUS
 62
3
 10
0.7874015745
 20
-1.1811023625
 30
0.0
 40
0.196850394
 50
359.999999999994
 51
89.9999999999987
  0
ARC
  8
3
  6
CONTINUOUS
 62
3
 10
0.787401574500004
 20
-2.7559055115
 30
0.0
 40
0.196850394
 50
269.999999999995
 51
359.999999999995
  0
ARC
  8
3
  6
CONTINUOUS
 62
3
 10
-0.7874015745
 20
-2.7559055115
 30
0.0
 40
0.196850394
 50
179.999999999994
 51
269.999999999995
  0
ARC
  8
5
  6
CONTINUOUS
 62
5
 10
0.688976378
 20
1.00000101294694E-9
 30
0.0
 40
0.098425197
 50
359.999999999999
 51
180
  0
ARC
  8
5
  6
CONTINUOUS
 62
5
 10
0.688976378
 20
9.99999053565114E-10
 30
0.0
 40
0.098425197
 50
179.999999999999
 51
359.999999999999
  0
ARC
  8
5
  6
CONTINUOUS
 62
5
 10
-0.688976378
 20
9.99999041511504E-10
 30
0.0
 40
0.098425197
 50
359.999999999999
 51
180
  0
ARC
  8
5
  6
CONTINUOUS
 62
5
 10
-0.688976378
 20
1.00000038895937E-9
 30
0.0
 40
0.098425197
 50
180
 51
1.52666624710249E-13
  0
ARC
  8
5
  6
CONTINUOUS
 62
5
 10
-0.787401575000001
 20
-2.755905512
 30
0.0
 40
0.0669291340000004
 50
359.999999999996
 51
180
  0
ARC
  8
5
  6
CONTINUOUS
 62
5
 10
-0.787401575000001
 20
-2.755905512
 30
0.0
 40
0.0669291340000004
 50
179.999999999997
 51
359.999999999997
  0
ARC
  8
5
  6
CONTINUOUS
 62
5
 10
-0.787401575000001
 20
-1.181102362
 30
0.0
 40
0.0669291340000004
 50
179.999999999998
 51
359.999999999999
  0
ARC
  8
5
  6
CONTINUOUS
 62
5
 10
-0.787401575000001
 20
-1.181102362
 30
0.0
 40
0.0669291340000004
 50
359.999999999998
 51
180
  0
ARC
  8
5
  6
CONTINUOUS
 62
5
 10
0.787401575
 20
-2.755905512
 30
0.0
 40
0.0669291339999996
 50
359.999999999996
 51
180
  0
ARC
  8
5
  6
CONTINUOUS
 62
5
 10
0.787401575
 20
-2.755905512
 30
0.0
 40
0.0669291339999996
 50
179.999999999997
 51
359.999999999997
  0
ARC
  8
5
  6
CONTINUOUS
 62
5
 10
0.787401575
 20
-1.181102362
 30
0.0
 40
0.0669291339999996
 50
179.999999999995
 51
359.999999999996
  0
ARC
  8
5
  6
CONTINUOUS
 62
5
 10
0.787401575
 20
-1.181102362
 30
0.0
 40
0.0669291339999996
 50
359.999999999995
 51
180
  0
ENDSEC
  0
EOF
