  0
SECTION
  2
HEADER
  9
$ACADVER
  1
AC1003
  9
$EXTMIN
 10
-0.984251968500001
 20
0.984251968500003
  9
$EXTMAX
 10
0.984251968500002
 20
-0.984251968500001
  9
$INSUNITS
 70
1
  9
$INSBASE
 10
2.22044604925031E-16
 20
8.32667268468867E-16
999
Created with OMAX LAYOUT for Windows. (www.omax.com) 1/19/2024
  0
ENDSEC
  0
SECTION
  2
TABLES
  0
TABLE
  2
LAYER
 70
    10
  0
LAYER
  2
0
 70
     0
 62
     7
  6
CONTINUOUS
  0
LAYER
  2
1
 70
     0
 62
     7
  6
CONTINUOUS
  0
LAYER
  2
2
 70
     0
 62
     7
  6
CONTINUOUS
  0
LAYER
  2
3
 70
     0
 62
     7
  6
CONTINUOUS
  0
LAYER
  2
4
 70
     0
 62
     7
  6
CONTINUOUS
  0
LAYER
  2
5
 70
     0
 62
     7
  6
CONTINUOUS
  0
LAYER
  2
6
 70
     0
 62
     7
  6
CONTINUOUS
  0
LAYER
  2
7
 70
     0
 62
     7
  6
CONTINUOUS
  0
LAYER
  2
8
 70
     0
 62
     7
  6
CONTINUOUS
  0
LAYER
  2
9
 70
     0
 62
     7
  6
CONTINUOUS
  0
LAYER
  2
10
 70
     0
 62
     7
  6
CONTINUOUS
  0
LAYER
  2
11
 70
     0
 62
     7
  6
CONTINUOUS
  0
LAYER
  2
12
 70
     0
 62
     7
  6
CONTINUOUS
  0
LAYER
  2
13
 70
     0
 62
     7
  6
CONTINUOUS
  0
LAYER
  2
14
 70
     0
 62
     7
  6
CONTINUOUS
  0
LAYER
  2
15
 70
     0
 62
     7
  6
CONTINUOUS
  0
LAYER
  2
16
 70
     0
 62
     7
  6
CONTINUOUS
  0
LAYER
  2
17
 70
     0
 62
     7
  6
CONTINUOUS
  0
LAYER
  2
18
 70
     0
 62
     7
  6
CONTINUOUS
  0
LAYER
  2
19
 70
     0
 62
     7
  6
CONTINUOUS
  0
LAYER
  2
20
 70
     0
 62
     7
  6
CONTINUOUS
  0
LAYER
  2
21
 70
     0
 62
     7
  6
CONTINUOUS
  0
LAYER
  2
22
 70
     0
 62
     7
  6
CONTINUOUS
  0
LAYER
  2
23
 70
     0
 62
     7
  6
CONTINUOUS
  0
LAYER
  2
24
 70
     0
 62
     7
  6
CONTINUOUS
  0
LAYER
  2
25
 70
     0
 62
     7
  6
CONTINUOUS
  0
LAYER
  2
26
 70
     0
 62
     7
  6
CONTINUOUS
  0
LAYER
  2
27
 70
     0
 62
     7
  6
CONTINUOUS
  0
LAYER
  2
28
 70
     0
 62
     7
  6
CONTINUOUS
  0
LAYER
  2
29
 70
     0
 62
     7
  6
CONTINUOUS
  0
LAYER
  2
30
 70
     0
 62
     7
  6
CONTINUOUS
  0
LAYER
  2
31
 70
     0
 62
     7
  6
CONTINUOUS
  0
ENDTAB
  0
ENDSEC
  0
SECTION
  2
ENTITIES
  0
ARC
  8
0
  6
CONTINUOUS
 62
0
 10
-0.787401575000001
 20
-0.787401575000001
 30
0.0
 40
0.0492125990000004
 50
179.999999999998
 51
359.999999999997
  0
ARC
  8
0
  6
CONTINUOUS
 62
0
 10
-0.787401575000001
 20
-0.787401575
 30
0.0
 40
0.0492125990000004
 50
359.999999999996
 51
180
  0
ARC
  8
0
  6
CONTINUOUS
 62
0
 10
0.787401575000001
 20
-0.787401575
 30
0.0
 40
0.0492125990000004
 50
180.000000000002
 51
2.08644387104007E-12
  0
ARC
  8
0
  6
CONTINUOUS
 62
0
 10
0.787401575000001
 20
-0.787401575000001
 30
0.0
 40
0.0492125990000004
 50
359.999999999999
 51
180.000000000004
  0
ARC
  8
0
  6
CONTINUOUS
 62
0
 10
-0.787401575000001
 20
0.787401575
 30
0.0
 40
0.0492125990000004
 50
1.78111062161957E-12
 51
180.000000000002
  0
ARC
  8
0
  6
CONTINUOUS
 62
0
 10
-0.787401575000001
 20
0.787401575000001
 30
0.0
 40
0.0492125990000004
 50
180
 51
4.0711099922733E-12
  0
ARC
  8
0
  6
CONTINUOUS
 62
0
 10
0.787401575000001
 20
0.787401575000001
 30
0.0
 40
0.0492125990000004
 50
359.999999999998
 51
179.999999999998
  0
ARC
  8
0
  6
CONTINUOUS
 62
0
 10
0.787401575000001
 20
0.787401575
 30
0.0
 40
0.0492125990000004
 50
179.999999999996
 51
359.999999999999
  0
ARC
  8
2
  6
CONTINUOUS
 62
2
 10
-0.787401575499999
 20
0.7874015755
 30
0.0
 40
0.196850394
 50
261.786789238245
 51
8.21321076175399
  0
LINE
  8
2
  6
CONTINUOUS
 62
2
 10
-0.905511811500001
 20
0.514637669016723
 30
0.0
 11
-0.905511811500001
 21
0
 31
0.0
  0
ARC
  8
2
  6
CONTINUOUS
 62
2
 10
-0.514637669016724
 20
0.826771654499999
 30
0.0
 40
0.078740157
 50
89.9999999999997
 51
188.213210761754
  0
ARC
  8
2
  6
CONTINUOUS
 62
2
 10
-0.826771654500001
 20
0.514637669016723
 30
0.0
 40
0.078740157
 50
81.7867892382455
 51
180
  0
LINE
  8
2
  6
CONTINUOUS
 62
2
 10
0
 20
0.9055118115
 30
0.0
 11
-0.514637669016724
 21
0.9055118115
 31
0.0
  0
ARC
  8
2
  6
CONTINUOUS
 62
2
 10
0.787401575500002
 20
0.7874015755
 30
0.0
 40
0.196850394
 50
171.786789238246
 51
278.213210761754
  0
LINE
  8
2
  6
CONTINUOUS
 62
2
 10
0.905511811500001
 20
0.514637669016723
 30
0.0
 11
0.905511811500001
 21
0
 31
0.0
  0
ARC
  8
2
  6
CONTINUOUS
 62
2
 10
0.514637669016725
 20
0.826771654500001
 30
0.0
 40
0.078740157
 50
351.786789238245
 51
89.9999999999998
  0
ARC
  8
2
  6
CONTINUOUS
 62
2
 10
0.8267716545
 20
0.514637669016723
 30
0.0
 40
0.078740157
 50
359.999999999999
 51
98.2132107617541
  0
LINE
  8
2
  6
CONTINUOUS
 62
2
 10
0
 20
0.9055118115
 30
0.0
 11
0.514637669016724
 21
0.9055118115
 31
0.0
  0
ARC
  8
2
  6
CONTINUOUS
 62
2
 10
-0.787401575500003
 20
-0.7874015755
 30
0.0
 40
0.196850394
 50
351.786789238245
 51
98.213210761754
  0
LINE
  8
2
  6
CONTINUOUS
 62
2
 10
-0.905511811500001
 20
-0.514637669016723
 30
0.0
 11
-0.905511811500001
 21
0
 31
0.0
  0
ARC
  8
2
  6
CONTINUOUS
 62
2
 10
-0.514637669016725
 20
-0.826771654500001
 30
0.0
 40
0.078740157
 50
171.786789238245
 51
269.999999999999
  0
ARC
  8
2
  6
CONTINUOUS
 62
2
 10
-0.8267716545
 20
-0.514637669016723
 30
0.0
 40
0.078740157
 50
180
 51
278.213210761754
  0
LINE
  8
2
  6
CONTINUOUS
 62
2
 10
0
 20
-0.9055118115
 30
0.0
 11
-0.514637669016724
 21
-0.9055118115
 31
0.0
  0
ARC
  8
2
  6
CONTINUOUS
 62
2
 10
0.7874015755
 20
-0.7874015755
 30
0.0
 40
0.196850394
 50
81.7867892382457
 51
188.213210761754
  0
LINE
  8
2
  6
CONTINUOUS
 62
2
 10
0.905511811500001
 20
-0.514637669016723
 30
0.0
 11
0.905511811500001
 21
0
 31
0.0
  0
ARC
  8
2
  6
CONTINUOUS
 62
2
 10
0.514637669016724
 20
-0.826771654499999
 30
0.0
 40
0.078740157
 50
270
 51
8.21321076175442
  0
ARC
  8
2
  6
CONTINUOUS
 62
2
 10
0.826771654500001
 20
-0.514637669016724
 30
0.0
 40
0.078740157
 50
261.786789238245
 51
359.999999999999
  0
LINE
  8
2
  6
CONTINUOUS
 62
2
 10
0
 20
-0.9055118115
 30
0.0
 11
0.514637669016724
 21
-0.9055118115
 31
0.0
  0
LINE
  8
3
  6
CONTINUOUS
 62
3
 10
-0.787401574500001
 20
-0.9842519685
 30
0.0
 11
0.7874015745
 21
-0.9842519685
 31
0.0
  0
LINE
  8
3
  6
CONTINUOUS
 62
3
 10
0.7874015745
 20
0.9842519685
 30
0.0
 11
-0.787401574500001
 21
0.9842519685
 31
0.0
  0
LINE
  8
3
  6
CONTINUOUS
 62
3
 10
-0.984251968500001
 20
0.787401574500001
 30
0.0
 11
-0.984251968500001
 21
-0.7874015745
 31
0.0
  0
LINE
  8
3
  6
CONTINUOUS
 62
3
 10
0.9842519685
 20
0.787401574500001
 30
0.0
 11
0.9842519685
 21
-0.7874015745
 31
0.0
  0
ARC
  8
3
  6
CONTINUOUS
 62
3
 10
-0.787401574500001
 20
0.7874015745
 30
0.0
 40
0.196850394
 50
89.9999999999988
 51
180
  0
ARC
  8
3
  6
CONTINUOUS
 62
3
 10
0.7874015745
 20
0.787401574500003
 30
0.0
 40
0.196850394
 50
359.999999999995
 51
89.9999999999989
  0
ARC
  8
3
  6
CONTINUOUS
 62
3
 10
0.787401574500002
 20
-0.7874015745
 30
0.0
 40
0.196850394
 50
269.999999999996
 51
359.999999999996
  0
ARC
  8
3
  6
CONTINUOUS
 62
3
 10
-0.7874015745
 20
-0.787401574500002
 30
0.0
 40
0.196850394
 50
179.999999999995
 51
269.999999999996
  0
ARC
  8
5
  6
CONTINUOUS
 62
5
 10
-0.787401575000001
 20
-0.787401574999999
 30
0.0
 40
0.0669291340000004
 50
359.999999999996
 51
180
  0
ARC
  8
5
  6
CONTINUOUS
 62
5
 10
-0.787401575000001
 20
-0.787401575000001
 30
0.0
 40
0.0669291340000004
 50
179.999999999998
 51
359.999999999998
  0
ARC
  8
5
  6
CONTINUOUS
 62
5
 10
-0.787401575000001
 20
0.787401575
 30
0.0
 40
0.0669291340000004
 50
179.999999999999
 51
360
  0
ARC
  8
5
  6
CONTINUOUS
 62
5
 10
-0.787401575000001
 20
0.787401575000001
 30
0.0
 40
0.0669291340000004
 50
359.999999999999
 51
180
  0
ARC
  8
5
  6
CONTINUOUS
 62
5
 10
0.787401575
 20
-0.787401574999999
 30
0.0
 40
0.0669291339999996
 50
359.999999999996
 51
180
  0
ARC
  8
5
  6
CONTINUOUS
 62
5
 10
0.787401575
 20
-0.787401575000001
 30
0.0
 40
0.0669291339999996
 50
179.999999999998
 51
359.999999999998
  0
ARC
  8
5
  6
CONTINUOUS
 62
5
 10
0.787401575
 20
0.787401575
 30
0.0
 40
0.0669291339999996
 50
179.999999999996
 51
359.999999999996
  0
ARC
  8
5
  6
CONTINUOUS
 62
5
 10
0.787401575
 20
0.787401575000001
 30
0.0
 40
0.0669291339999996
 50
359.999999999996
 51
180
  0
ENDSEC
  0
EOF
