  0
SECTION
  2
HEADER
  9
$ACADVER
  1
AC1003
  9
$EXTMIN
 10
-2.84238141312868
 20
6.05999999999938
  9
$EXTMAX
 10
30.1199999999996
 20
-4.15999999999979
  9
$INSUNITS
 70
1
  9
$INSBASE
 10
13.6388092934355
 20
0.949999999999796
999
Created with OMAX LAYOUT for Windows. (www.omax.com) 1/5/2024
  0
ENDSEC
  0
SECTION
  2
TABLES
  0
TABLE
  2
LAYER
 70
    10
  0
LAYER
  2
0
 70
     0
 62
     7
  6
CONTINUOUS
  0
LAYER
  2
1
 70
     0
 62
     7
  6
CONTINUOUS
  0
LAYER
  2
2
 70
     0
 62
     7
  6
CONTINUOUS
  0
LAYER
  2
3
 70
     0
 62
     7
  6
CONTINUOUS
  0
LAYER
  2
4
 70
     0
 62
     7
  6
CONTINUOUS
  0
LAYER
  2
5
 70
     0
 62
     7
  6
CONTINUOUS
  0
LAYER
  2
6
 70
     0
 62
     7
  6
CONTINUOUS
  0
LAYER
  2
7
 70
     0
 62
     7
  6
CONTINUOUS
  0
LAYER
  2
8
 70
     0
 62
     7
  6
CONTINUOUS
  0
LAYER
  2
9
 70
     0
 62
     7
  6
CONTINUOUS
  0
LAYER
  2
10
 70
     0
 62
     7
  6
CONTINUOUS
  0
LAYER
  2
11
 70
     0
 62
     7
  6
CONTINUOUS
  0
LAYER
  2
12
 70
     0
 62
     7
  6
CONTINUOUS
  0
LAYER
  2
13
 70
     0
 62
     7
  6
CONTINUOUS
  0
LAYER
  2
14
 70
     0
 62
     7
  6
CONTINUOUS
  0
LAYER
  2
15
 70
     0
 62
     7
  6
CONTINUOUS
  0
LAYER
  2
16
 70
     0
 62
     7
  6
CONTINUOUS
  0
LAYER
  2
17
 70
     0
 62
     7
  6
CONTINUOUS
  0
LAYER
  2
18
 70
     0
 62
     7
  6
CONTINUOUS
  0
LAYER
  2
19
 70
     0
 62
     7
  6
CONTINUOUS
  0
LAYER
  2
20
 70
     0
 62
     7
  6
CONTINUOUS
  0
LAYER
  2
21
 70
     0
 62
     7
  6
CONTINUOUS
  0
LAYER
  2
22
 70
     0
 62
     7
  6
CONTINUOUS
  0
LAYER
  2
23
 70
     0
 62
     7
  6
CONTINUOUS
  0
LAYER
  2
24
 70
     0
 62
     7
  6
CONTINUOUS
  0
LAYER
  2
25
 70
     0
 62
     7
  6
CONTINUOUS
  0
LAYER
  2
26
 70
     0
 62
     7
  6
CONTINUOUS
  0
LAYER
  2
27
 70
     0
 62
     7
  6
CONTINUOUS
  0
LAYER
  2
28
 70
     0
 62
     7
  6
CONTINUOUS
  0
LAYER
  2
29
 70
     0
 62
     7
  6
CONTINUOUS
  0
LAYER
  2
30
 70
     0
 62
     7
  6
CONTINUOUS
  0
LAYER
  2
31
 70
     0
 62
     7
  6
CONTINUOUS
  0
ENDTAB
  0
ENDSEC
  0
SECTION
  2
ENTITIES
  0
LINE
  8
0
  6
CONTINUOUS
 62
0
 10
0.393700788
 20
-1.33226762955019E-14
 30
0.0
 11
0.590551181
 21
-6.65172204006283E-15
 31
0.0
  0
LINE
  8
0
  6
CONTINUOUS
 62
0
 10
-0.196850394
 20
-1.09484553475519E-14
 30
0.0
 11
0.196850394
 21
7.83728359164127E-16
 31
0.0
  0
LINE
  8
0
  6
CONTINUOUS
 62
0
 10
-0.590551181
 20
-3.05575244426715E-14
 30
0.0
 11
-0.393700788
 21
-1.41052607672513E-14
 31
0.0
  0
LINE
  8
0
  6
CONTINUOUS
 62
0
 10
19.9
 20
0.91
 30
0.0
 11
23.5278173565091
 21
0.938397787526491
 31
0.0
  0
ARC
  8
0
  6
CONTINUOUS
 62
0
 10
25.01
 20
0.949999999999994
 30
0.0
 40
1.48222805262888
 50
123.176744938449
 51
180.448490092396
  0
LINE
  8
0
  6
CONTINUOUS
 62
0
 10
24.1988898961896
 20
2.1906048522784
 30
0.0
 11
19.9
 21
0.91
 31
0.0
  0
LINE
  8
0
  6
CONTINUOUS
 62
0
 10
20.6046101866659
 20
-1.63964101615887
 30
0.0
 11
23.7321932839265
 21
0.198860867510203
 31
0.0
  0
ARC
  8
0
  6
CONTINUOUS
 62
0
 10
25.01
 20
0.949999999999982
 30
0.0
 40
1.48222805262888
 50
153.176744938546
 51
210.448490092493
  0
LINE
  8
0
  6
CONTINUOUS
 62
0
 10
23.6872556186936
 20
1.6188402662239
 30
0.0
 11
20.6046101866659
 21
-1.63964101615887
 31
0.0
  0
LINE
  8
0
  6
CONTINUOUS
 62
0
 10
22.4896410161665
 20
-3.49538981334705
 30
0.0
 11
24.2789564890011
 21
-0.339408928550751
 31
0.0
  0
ARC
  8
0
  6
CONTINUOUS
 62
0
 10
25.01
 20
0.949999999999981
 30
0.0
 40
1.48222805262888
 50
183.176744938644
 51
240.448490092591
  0
LINE
  8
0
  6
CONTINUOUS
 62
0
 10
23.5300496299638
 20
0.86786047096815
 30
0.0
 11
22.4896410161665
 21
-3.49538981334705
 31
0.0
  0
LINE
  8
0
  6
CONTINUOUS
 62
0
 10
25.0500000000261
 20
-4.15999999999979
 30
0.0
 11
25.0216022124811
 21
-0.532182643490859
 31
0.0
  0
ARC
  8
0
  6
CONTINUOUS
 62
0
 10
25.01
 20
0.949999999999983
 30
0.0
 40
1.48222805262888
 50
213.176744938741
 51
270.448490092688
  0
LINE
  8
0
  6
CONTINUOUS
 62
0
 10
23.7693951477257
 20
0.138889896183294
 30
0.0
 11
25.0500000000261
 21
-4.15999999999979
 31
0.0
  0
LINE
  8
0
  6
CONTINUOUS
 62
0
 10
27.5996410161814
 20
-3.45538981332086
 30
0.0
 11
25.7611391324963
 21
-0.327806716069644
 31
0.0
  0
ARC
  8
0
  6
CONTINUOUS
 62
0
 10
25.01
 20
0.949999999999992
 30
0.0
 40
1.48222805262888
 50
243.176744938839
 51
300.448490092786
  0
LINE
  8
0
  6
CONTINUOUS
 62
0
 10
24.3411597337828
 20
-0.372744381309771
 30
0.0
 11
27.5996410161814
 21
-3.45538981332086
 31
0.0
  0
LINE
  8
0
  6
CONTINUOUS
 62
0
 10
29.4553898133599
 20
-1.57035898381081
 30
0.0
 11
26.2994089285545
 21
0.218956489007672
 31
0.0
  0
ARC
  8
0
  6
CONTINUOUS
 62
0
 10
25.01
 20
0.950000000000004
 30
0.0
 40
1.48222805262888
 50
273.176744938936
 51
330.448490092883
  0
LINE
  8
0
  6
CONTINUOUS
 62
0
 10
25.0921395290394
 20
-0.529950370035827
 30
0.0
 11
29.4553898133599
 21
-1.57035898381081
 31
0.0
  0
LINE
  8
0
  6
CONTINUOUS
 62
0
 10
30.1199999999996
 20
0.990000000052158
 30
0.0
 11
26.4921826434908
 21
0.961602212488638
 31
0.0
  0
ARC
  8
0
  6
CONTINUOUS
 62
0
 10
25.01
 20
0.950000000000013
 30
0.0
 40
1.48222805262888
 50
303.176744939034
 51
0.448490092980876
  0
LINE
  8
0
  6
CONTINUOUS
 62
0
 10
25.821110103823
 20
-0.290604852270125
 30
0.0
 11
30.1199999999996
 21
0.990000000052158
 31
0.0
  0
LINE
  8
0
  6
CONTINUOUS
 62
0
 10
29.4153898133076
 20
3.53964101620383
 30
0.0
 11
26.2878067160658
 21
1.70113913250284
 31
0.0
  0
ARC
  8
0
  6
CONTINUOUS
 62
0
 10
25.01
 20
0.950000000000017
 30
0.0
 40
1.48222805262888
 50
333.176744939131
 51
30.4484900930784
  0
LINE
  8
0
  6
CONTINUOUS
 62
0
 10
26.3327443813132
 20
0.2811597337896
 30
0.0
 11
29.4153898133076
 21
3.53964101620383
 31
0.0
  0
LINE
  8
0
  6
CONTINUOUS
 62
0
 10
27.5303589837881
 20
5.39538981337278
 30
0.0
 11
25.7410435109857
 21
2.23940892855821
 31
0.0
  0
ARC
  8
0
  6
CONTINUOUS
 62
0
 10
25.01
 20
0.950000000000012
 30
0.0
 40
1.48222805262888
 50
3.17674493922897
 51
60.4484900931758
  0
LINE
  8
0
  6
CONTINUOUS
 62
0
 10
26.4899503700354
 20
1.03213952904696
 30
0.0
 11
27.5303589837881
 21
5.39538981337278
 31
0.0
  0
LINE
  8
0
  6
CONTINUOUS
 62
0
 10
24.9699999999218
 20
6.05999999999938
 30
0.0
 11
24.9983977875038
 21
2.43218264349074
 31
0.0
  0
ARC
  8
0
  6
CONTINUOUS
 62
0
 10
25.01
 20
0.950000000000007
 30
0.0
 40
1.48222805262888
 50
33.1767449393265
 51
90.4484900932734
  0
LINE
  8
0
  6
CONTINUOUS
 62
0
 10
26.250604852266
 20
1.76111010382937
 30
0.0
 11
24.9699999999218
 21
6.05999999999938
 31
0.0
  0
LINE
  8
0
  6
CONTINUOUS
 62
0
 10
22.4203589837737
 20
5.35538981329442
 30
0.0
 11
24.2588608674906
 21
2.22780671606198
 31
0.0
  0
ARC
  8
0
  6
CONTINUOUS
 62
0
 10
25.01
 20
0.950000000000004
 30
0.0
 40
1.48222805262888
 50
63.176744939424
 51
120.448490093371
  0
LINE
  8
0
  6
CONTINUOUS
 62
0
 10
25.6788402662036
 20
2.2727443813166
 30
0.0
 11
22.4203589837737
 21
5.35538981329442
 31
0.0
  0
LINE
  8
0
  6
CONTINUOUS
 62
0
 10
20.5646101866144
 20
3.47035898376544
 30
0.0
 11
23.7205910714381
 21
1.68104351097917
 31
0.0
  0
ARC
  8
0
  6
CONTINUOUS
 62
0
 10
25.01
 20
0.949999999999998
 30
0.0
 40
1.48222805262888
 50
93.1767449395214
 51
150.448490093468
  0
LINE
  8
0
  6
CONTINUOUS
 62
0
 10
24.9278604709455
 20
2.42995037003499
 30
0.0
 11
20.5646101866144
 21
3.47035898376544
 31
0.0
  0
ARC
  8
0
  6
CONTINUOUS
 62
0
 10
25.01
 20
0.950000000000004
 30
0.0
 40
0.880738326632836
 50
282.458246440005
 51
102.458246440005
  0
ARC
  8
0
  6
CONTINUOUS
 62
0
 10
25.01
 20
0.950000000000001
 30
0.0
 40
0.880738326632836
 50
102.458246440005
 51
282.458246440005
  0
ARC
  8
0
  6
CONTINUOUS
 62
0
 10
2.5590551175
 20
0.5905511805
 30
0.0
 40
0.118110236
 50
359.999999999999
 51
180
  0
ARC
  8
0
  6
CONTINUOUS
 62
0
 10
2.5590551175
 20
0.590551180499998
 30
0.0
 40
0.118110236
 50
179.999999999999
 51
359.999999999999
  0
LINE
  8
1
  6
CONTINUOUS
 62
1
 10
-0.632374817100442
 20
0.631500750584543
 30
0.0
 11
-0.67584927605393
 21
0.905987681623702
 31
0.0
  0
ARC
  8
1
  6
CONTINUOUS
 62
1
 10
-0.826801655107617
 20
0.600706564659553
 30
0.0
 40
0.196850393
 50
279.000000000903
 51
9.00000000090562
  0
LINE
  8
1
  6
CONTINUOUS
 62
1
 10
-0.796007469182635
 20
0.406279726652369
 30
0.0
 11
-1.07049440021063
 21
0.36280526770065
 31
0.0
  0
LINE
  8
1
  6
CONTINUOUS
 62
1
 10
-1.32896856098921
 20
0.0462823030243479
 30
0.0
 11
-1.12187885102528
 21
0.331316835742263
 31
0.0
  0
LINE
  8
1
  6
CONTINUOUS
 62
1
 10
-1.32896856098755
 20
-0.0462823030718247
 30
0.0
 11
-1.12187885103117
 21
-0.331316835757954
 31
0.0
  0
ARC
  8
1
  6
CONTINUOUS
 62
1
 10
-1.26526643583667
 20
-2.37381017620386E-11
 30
0.0
 40
0.078740157
 50
143.999999999737
 51
216.000000000263
  0
ARC
  8
1
  6
CONTINUOUS
 62
1
 10
-1.05817672587192
 20
0.285034532695314
 30
0.0
 40
0.078740157
 50
99.0000000009055
 51
144.00000000076
  0
LINE
  8
1
  6
CONTINUOUS
 62
1
 10
-0.796007469185835
 20
-0.406279726656421
 30
0.0
 11
-1.07049440021539
 21
-0.362805267714506
 31
0.0
  0
ARC
  8
1
  6
CONTINUOUS
 62
1
 10
-0.826801655103879
 20
-0.600706564664696
 30
0.0
 40
0.196850393
 50
351.000000001137
 51
81.0000000011395
  0
LINE
  8
1
  6
CONTINUOUS
 62
1
 10
-0.632374817095596
 20
-0.631500750582748
 30
0.0
 11
-0.67584927603751
 21
-0.905987681612294
 31
0.0
  0
LINE
  8
1
  6
CONTINUOUS
 62
1
 10
-0.454690956211033
 20
-1.2496221917087
 30
0.0
 11
-0.661780666183683
 21
-0.964587658997124
 31
0.0
  0
LINE
  8
1
  6
CONTINUOUS
 62
1
 10
-0.366656784404346
 20
-1.27822622806811
 30
0.0
 11
-0.0315785949878018
 21
-1.16935272453878
 31
0.0
  0
ARC
  8
1
  6
CONTINUOUS
 62
1
 10
-0.390988831059083
 20
-1.2033398886598
 30
0.0
 40
0.0787401570000001
 50
216.000000000992
 51
288.000000001517
  0
ARC
  8
1
  6
CONTINUOUS
 62
1
 10
-0.598078541031735
 20
-0.918305355948229
 30
0.0
 40
0.0787401570000001
 50
171.000000001137
 51
216.000000000991
  0
LINE
  8
1
  6
CONTINUOUS
 62
1
 10
0.140415145850993
 20
-0.88259543059507
 30
0.0
 11
0.0142473519609333
 21
-1.13021366835479
 31
0.0
  0
ARC
  8
1
  6
CONTINUOUS
 62
1
 10
0.315810130305177
 20
-0.971963638882858
 30
0.0
 40
0.196850393
 50
63.0000000013737
 51
153.000000001374
  0
LINE
  8
1
  6
CONTINUOUS
 62
1
 10
0.405178338592969
 20
-0.796568654428671
 30
0.0
 11
0.652796576352685
 21
-0.922736448318728
 31
0.0
  0
LINE
  8
1
  6
CONTINUOUS
 62
1
 10
1.04795409567713
 20
-0.818591290586754
 30
0.0
 11
0.712875906231359
 21
-0.927464794123686
 31
0.0
  0
LINE
  8
1
  6
CONTINUOUS
 62
1
 10
1.10236220602277
 20
-0.743704951175912
 30
0.0
 11
1.10236220601099
 21
-0.391382892836635
 31
0.0
  0
ARC
  8
1
  6
CONTINUOUS
 62
1
 10
1.02362204902277
 20
-0.743704951178322
 30
0.0
 40
0.0787401570000001
 50
288.000000001224
 51
1.75319807373505E-9
  0
ARC
  8
1
  6
CONTINUOUS
 62
1
 10
0.688543859577006
 20
-0.852578454715254
 30
0.0
 40
0.0787401569999998
 50
243.00000000137
 51
288.000000001224
  0
LINE
  8
1
  6
CONTINUOUS
 62
1
 10
0.882788801855932
 20
-0.139194247759825
 30
0.0
 11
1.07929974797582
 21
-0.335705193868678
 31
0.0
  0
ARC
  8
1
  6
CONTINUOUS
 62
1
 10
1.02198304961765
 20
9.71236979729895E-12
 30
0.0
 40
0.196850393
 50
135
 51
225
  0
LINE
  8
1
  6
CONTINUOUS
 62
1
 10
0.882788801848118
 20
0.139194247779249
 30
0.0
 11
1.07929974795797
 21
0.335705193900128
 31
0.0
  0
LINE
  8
1
  6
CONTINUOUS
 62
1
 10
1.10236220598102
 20
0.743704951237802
 30
0.0
 11
1.10236220599001
 21
0.391382892866968
 31
0.0
  0
LINE
  8
1
  6
CONTINUOUS
 62
1
 10
1.04795409563117
 20
0.818591290645591
 30
0.0
 11
0.712875906207961
 21
0.927464794154398
 31
0.0
  0
ARC
  8
1
  6
CONTINUOUS
 62
1
 10
1.02362204898102
 20
0.743704951235795
 30
0.0
 40
0.0787401570000002
 50
1.46113409844561E-9
 51
72.000000001987
  0
ARC
  8
1
  6
CONTINUOUS
 62
1
 10
1.02362204899001
 20
0.391382892864962
 30
0.0
 40
0.0787401570000001
 50
315.000000001605
 51
1.46107684846135E-9
  0
LINE
  8
1
  6
CONTINUOUS
 62
1
 10
0.405178338576914
 20
0.796568654442108
 30
0.0
 11
0.652796576329552
 21
0.922736448346067
 31
0.0
  0
ARC
  8
1
  6
CONTINUOUS
 62
1
 10
0.315810130279283
 20
0.971963638891271
 30
0.0
 40
0.196850393
 50
207.000000001839
 51
297.000000001839
  0
LINE
  8
1
  6
CONTINUOUS
 62
1
 10
0.140415145830108
 20
0.882595430593643
 30
0.0
 11
0.0142473519261517
 21
1.13021366834628
 31
0.0
  0
LINE
  8
1
  6
CONTINUOUS
 62
1
 10
-0.366656784476107
 20
1.27822622804753
 30
0.0
 11
-0.0315785950247805
 21
1.16935272452769
 31
0.0
  0
LINE
  8
1
  6
CONTINUOUS
 62
1
 10
-0.454690956281188
 20
1.24962219168318
 30
0.0
 11
-0.661780666203141
 21
0.964587659007734
 31
0.0
  0
ARC
  8
1
  6
CONTINUOUS
 62
1
 10
-0.390988831126642
 20
1.20333988863785
 30
0.0
 40
0.078740157
 50
72.0000000016952
 51
144.000000002222
  0
ARC
  8
1
  6
CONTINUOUS
 62
1
 10
-0.0559106416753159
 20
1.09446638511802
 30
0.0
 40
0.0787401569999999
 50
27.0000000018412
 51
72.0000000016951
  0
ARC
  8
1
  6
CONTINUOUS
 62
1
 10
-1.05817672587946
 20
-0.285034532708733
 30
0.0
 40
0.0787401569999996
 50
216.000000001283
 51
261.000000001137
  0
ARC
  8
1
  6
CONTINUOUS
 62
1
 10
-0.0559106416425381
 20
-1.09446638513047
 30
0.0
 40
0.0787401570000001
 50
288.000000001518
 51
333.000000001373
  0
ARC
  8
1
  6
CONTINUOUS
 62
1
 10
1.02362204901099
 20
-0.391382892836631
 30
0.0
 40
0.0787401570000002
 50
359.999999999996
 51
45.0000000016073
  0
ARC
  8
1
  6
CONTINUOUS
 62
1
 10
0.688543859557807
 20
0.8525784547446
 30
0.0
 40
0.0787401569999998
 50
72.0000000019871
 51
117.000000001842
  0
ARC
  8
1
  6
CONTINUOUS
 62
1
 10
-0.598078541048594
 20
0.91830535596241
 30
0.0
 40
0.0787401569999999
 50
144.000000002222
 51
189.000000000906
  0
LINE
  8
1
  6
CONTINUOUS
 62
1
 10
1.75705759840065
 20
-1.26550700301625
 30
0.0
 11
1.74652933968738
 21
-1.27999790796377
 31
0.0
  0
LINE
  8
1
  6
CONTINUOUS
 62
1
 10
-0.677643104083643
 20
-2.05658921573277
 30
0.0
 11
-0.660608023642747
 21
-2.06212424889464
 31
0.0
  0
ARC
  8
1
  6
CONTINUOUS
 62
1
 10
-0.702284671351238
 20
-2.13137427765681
 30
0.0
 40
0.078740157
 50
71.7630248736357
 51
148.011054346992
  0
ARC
  8
1
  6
CONTINUOUS
 62
1
 10
-0.684630133443617
 20
-2.13711058475058
 30
0.0
 40
0.078740157
 50
355.988945652881
 51
72.2369751281494
  0
ARC
  8
1
  6
CONTINUOUS
 62
1
 10
-2.1489041571198
 20
-0.391306099861678
 30
0.0
 40
0.31496063
 50
103.988945652655
 51
171.000000001432
  0
ARC
  8
1
  6
CONTINUOUS
 62
1
 10
-1.03620211991365
 20
-1.92280906667955
 30
0.0
 40
0.314960630000001
 50
261.000000000845
 51
328.01105434699
  0
LINE
  8
1
  6
CONTINUOUS
 62
1
 10
-1.31163920819503
 20
-2.19807077148214
 30
0.0
 11
-1.08547281757183
 21
-2.23389200867778
 31
0.0
  0
LINE
  8
1
  6
CONTINUOUS
 62
1
 10
-1.37023918557993
 20
-2.21213938133567
 30
0.0
 11
-1.55549241379795
 21
-2.34673373008981
 31
0.0
  0
ARC
  8
1
  6
CONTINUOUS
 62
1
 10
-1.74062162716782
 20
-2.09192522786305
 30
0.0
 40
0.31496063
 50
216.000000000698
 51
306.000000000698
  0
LINE
  8
1
  6
CONTINUOUS
 62
1
 10
-2.13002447814126
 20
-2.09180121302517
 30
0.0
 11
-1.9954301293946
 21
-2.2770544412329
 31
0.0
  0
LINE
  8
1
  6
CONTINUOUS
 62
1
 10
-2.1814089289583
 20
-2.06031278106784
 30
0.0
 11
-2.4075753195695
 21
-2.02449154387765
 31
0.0
  0
ARC
  8
1
  6
CONTINUOUS
 62
1
 10
-2.35830462191608
 20
-1.71340860187867
 30
0.0
 40
0.314960630000001
 50
171.000000001723
 51
261.000000001722
  0
LINE
  8
1
  6
CONTINUOUS
 62
1
 10
-2.63356632672288
 20
-1.4379715136015
 30
0.0
 11
-2.66938756391507
 21
-1.66413790422524
 31
0.0
  0
LINE
  8
1
  6
CONTINUOUS
 62
1
 10
-2.64763493657731
 20
-1.37937153621681
 30
0.0
 11
-2.78222928533429
 21
-1.19411830800086
 31
0.0
  0
ARC
  8
1
  6
CONTINUOUS
 62
1
 10
-2.52742078311035
 20
-1.0089890946271
 30
0.0
 40
0.31496063
 50
126.000000001579
 51
216.000000001579
  0
LINE
  8
1
  6
CONTINUOUS
 62
1
 10
-2.52729676826816
 20
-0.619586243646179
 30
0.0
 11
-2.71254999648412
 21
-0.75418059240316
 31
0.0
  0
LINE
  8
1
  6
CONTINUOUS
 62
1
 10
-2.49580833631187
 20
-0.568201792830239
 30
0.0
 11
-2.45998709911853
 21
-0.342035402206676
 31
0.0
  0
ARC
  8
1
  6
CONTINUOUS
 62
1
 10
-1.32395688253136
 20
-2.27584150648785
 30
0.0
 40
0.0787401570000002
 50
81.0000000008479
 51
126.000000000702
  0
ARC
  8
1
  6
CONTINUOUS
 62
1
 10
-2.19372660329344
 20
-2.13808351607374
 30
0.0
 40
0.0787401569999998
 50
36.0000000007004
 51
81.0000000017249
  0
ARC
  8
1
  6
CONTINUOUS
 62
1
 10
-2.71133706172878
 20
-1.42565383926636
 30
0.0
 40
0.0787401569999996
 50
351.000000001722
 51
36.0000000015796
  0
ARC
  8
1
  6
CONTINUOUS
 62
1
 10
-2.57357907131771
 20
-0.555884118494702
 30
0.0
 40
0.0787401569999997
 50
306.000000001578
 51
351.00000000143
  0
ARC
  8
1
  6
CONTINUOUS
 62
1
 10
1.81003949709824
 20
-1.32654328614499
 30
0.0
 40
0.0787401570000002
 50
143.763024873868
 51
220.011054347224
  0
ARC
  8
1
  6
CONTINUOUS
 62
1
 10
-0.291893687684663
 20
-2.16464953638356
 30
0.0
 40
0.31496063
 50
175.988945652887
 51
243.000000001664
  0
ARC
  8
1
  6
CONTINUOUS
 62
1
 10
1.50849602780278
 20
-1.57966745687879
 30
0.0
 40
0.314960630000001
 50
333.000000001079
 51
40.0110543472256
  0
LINE
  8
1
  6
CONTINUOUS
 62
1
 10
1.68517072468311
 20
-1.92668423920205
 30
0.0
 11
1.78912800399795
 21
-1.72265659068547
 31
0.0
  0
LINE
  8
1
  6
CONTINUOUS
 62
1
 10
1.68044237887784
 20
-1.9867635690807
 30
0.0
 11
1.75120281553567
 21
-2.20454180005373
 31
0.0
  0
ARC
  8
1
  6
CONTINUOUS
 62
1
 10
1.45165745599934
 20
-2.30186998728766
 30
0.0
 40
0.314960630000001
 50
288.000000000932
 51
18.0000000009343
  0
LINE
  8
1
  6
CONTINUOUS
 62
1
 10
1.33120741227233
 20
-2.6721757834779
 30
0.0
 11
1.54898564323326
 21
-2.60141534682401
 31
0.0
  0
LINE
  8
1
  6
CONTINUOUS
 62
1
 10
1.28538146532246
 20
-2.71131483966285
 30
0.0
 11
1.1814241860165
 21
-2.91534248816971
 31
0.0
  0
ARC
  8
1
  6
CONTINUOUS
 62
1
 10
0.900792209819143
 20
-2.77235335436732
 30
0.0
 40
0.31496063
 50
243.000000001956
 51
333.000000001957
  0
LINE
  8
1
  6
CONTINUOUS
 62
1
 10
0.553775427498575
 20
-2.94902805125296
 30
0.0
 11
0.757803076016745
 21
-3.05298533056468
 31
0.0
  0
LINE
  8
1
  6
CONTINUOUS
 62
1
 10
0.49369609761985
 20
-2.94429970544861
 30
0.0
 11
0.275917866647911
 21
-3.01506014210978
 31
0.0
  0
ARC
  8
1
  6
CONTINUOUS
 62
1
 10
0.178589679409398
 20
-2.71551478257494
 30
0.0
 40
0.31496063
 50
198.00000000181
 51
288.00000000181
  0
LINE
  8
1
  6
CONTINUOUS
 62
1
 10
-0.191716116786615
 20
-2.5950647388415
 30
0.0
 11
-0.120955680125448
 21
-2.81284296981345
 31
0.0
  0
LINE
  8
1
  6
CONTINUOUS
 62
1
 10
-0.230855172970837
 20
-2.54923879189297
 30
0.0
 11
-0.434882821488478
 21
-2.4452815125802
 31
0.0
  0
ARC
  8
1
  6
CONTINUOUS
 62
1
 10
1.7553287182864
 20
-1.96243152242673
 30
0.0
 40
0.0787401570000004
 50
153.000000001082
 51
198.000000000936
  0
ARC
  8
1
  6
CONTINUOUS
 62
1
 10
1.3555394589263
 20
-2.74706212288646
 30
0.0
 40
0.0787401570000002
 50
108.000000000934
 51
153.000000001958
  0
ARC
  8
1
  6
CONTINUOUS
 62
1
 10
0.518028144274972
 20
-3.01918604485679
 30
0.0
 40
0.0787401569999996
 50
63.0000000019581
 51
108.000000001814
  0
ARC
  8
1
  6
CONTINUOUS
 62
1
 10
-0.266602456194799
 20
-2.61939678549662
 30
0.0
 40
0.0787401569999998
 50
18.000000001813
 51
63.0000000016653
  0
LINE
  8
1
  6
CONTINUOUS
 62
1
 10
-0.660608023732066
 20
2.06212424886602
 30
0.0
 11
-0.67764310413077
 21
2.05658921571729
 31
0.0
  0
LINE
  8
1
  6
CONTINUOUS
 62
1
 10
1.74652933963197
 20
1.27999790803945
 30
0.0
 11
1.75705759834579
 21
1.26550700309235
 31
0.0
  0
LINE
  8
1
  6
CONTINUOUS
 62
1
 10
-2.16533581024779
 20
0.00895587176039072
 30
0.0
 11
-2.16533581024759
 21
-0.00895587180998091
 31
0.0
  0
ARC
  8
1
  6
CONTINUOUS
 62
1
 10
-0.702284671400079
 20
2.13137427764075
 30
0.0
 40
0.078740157
 50
211.98894565242
 51
288.236975127677
  0
ARC
  8
1
  6
CONTINUOUS
 62
1
 10
-0.684630133536191
 20
2.13711058472092
 30
0.0
 40
0.0787401570000002
 50
287.763024874337
 51
4.01105434769416
  0
ARC
  8
1
  6
CONTINUOUS
 62
1
 10
1.50849602774276
 20
1.57966745695416
 30
0.0
 40
0.31496063
 50
319.988945653355
 51
27.0000000021339
  0
ARC
  8
1
  6
CONTINUOUS
 62
1
 10
-0.291893687777518
 20
2.16464953635785
 30
0.0
 40
0.314960630000001
 50
117.000000001549
 51
184.011054347694
  0
LINE
  8
1
  6
CONTINUOUS
 62
1
 10
-0.434882821597089
 20
2.44528151254646
 30
0.0
 11
-0.230855173085284
 21
2.54923879187069
 31
0.0
  0
LINE
  8
1
  6
CONTINUOUS
 62
1
 10
-0.120955680254696
 20
2.81284296979734
 30
0.0
 11
-0.191716116903633
 21
2.59506473882142
 31
0.0
  0
ARC
  8
1
  6
CONTINUOUS
 62
1
 10
0.17858967928561
 20
2.71551478257564
 30
0.0
 40
0.31496063
 50
72.0000000014024
 51
162.000000001403
  0
LINE
  8
1
  6
CONTINUOUS
 62
1
 10
0.275917866507326
 20
3.01506014211595
 30
0.0
 11
0.493696097471141
 21
2.94429970547094
 31
0.0
  0
LINE
  8
1
  6
CONTINUOUS
 62
1
 10
0.75780307584993
 20
3.05298533060096
 30
0.0
 11
0.553775427351031
 21
2.94902805127939
 31
0.0
  0
ARC
  8
1
  6
CONTINUOUS
 62
1
 10
0.900792209673795
 20
2.77235335441454
 30
0.0
 40
0.314960630000001
 50
27.0000000024264
 51
117.000000002426
  0
LINE
  8
1
  6
CONTINUOUS
 62
1
 10
1.18142418586022
 20
2.91534248823841
 30
0.0
 11
1.28538146518756
 21
2.71131483972819
 31
0.0
  0
LINE
  8
1
  6
CONTINUOUS
 62
1
 10
1.54898564311589
 20
2.60141534690164
 30
0.0
 11
1.33120741213889
 21
2.67217578354724
 31
0.0
  0
ARC
  8
1
  6
CONTINUOUS
 62
1
 10
1.45165745589878
 20
2.30186998735985
 30
0.0
 40
0.31496063
 50
342.000000002279
 51
72.0000000022802
  0
LINE
  8
1
  6
CONTINUOUS
 62
1
 10
1.75120281544057
 20
2.20454180014273
 30
0.0
 11
1.68044237879497
 21
1.98676356916573
 31
0.0
  0
LINE
  8
1
  6
CONTINUOUS
 62
1
 10
1.78912800392991
 20
1.7226565907766
 30
0.0
 11
1.68517072460361
 21
1.92668423928734
 31
0.0
  0
ARC
  8
1
  6
CONTINUOUS
 62
1
 10
1.8100394970408
 20
1.32654328622343
 30
0.0
 40
0.0787401570000001
 50
139.988945653357
 51
216.236975128614
  0
ARC
  8
1
  6
CONTINUOUS
 62
1
 10
-0.266602456313182
 20
2.61939678547234
 30
0.0
 40
0.0787401570000005
 50
297.000000001549
 51
342.000000001403
  0
ARC
  8
1
  6
CONTINUOUS
 62
1
 10
0.51802814412206
 20
3.01918604488049
 30
0.0
 40
0.0787401570000001
 50
252.000000001401
 51
297.000000002426
  0
ARC
  8
1
  6
CONTINUOUS
 62
1
 10
1.35553945878866
 20
2.74706212295716
 30
0.0
 40
0.0787401569999998
 50
207.000000002425
 51
252.000000002281
  0
ARC
  8
1
  6
CONTINUOUS
 62
1
 10
1.7553287182049
 20
1.96243152251596
 30
0.0
 40
0.0787401570000002
 50
162.00000000228
 51
207.000000002133
  0
ARC
  8
1
  6
CONTINUOUS
 62
1
 10
-2.2440752937659
 20
0.00928153982237664
 30
0.0
 40
0.0787401569999998
 50
359.7630248734
 51
76.011054346758
  0
ARC
  8
1
  6
CONTINUOUS
 62
1
 10
-2.24407529376569
 20
-0.00928153987377638
 30
0.0
 40
0.0787401569999998
 50
283.988945652648
 51
0.236975127915741
  0
ARC
  8
1
  6
CONTINUOUS
 62
1
 10
-1.03620211996463
 20
1.92280906666692
 30
0.0
 40
0.31496063
 50
31.9889456524207
 51
99.000000001198
  0
ARC
  8
1
  6
CONTINUOUS
 62
1
 10
-2.14890415711606
 20
0.391306099809282
 30
0.0
 40
0.314960630000001
 50
189.000000000611
 51
256.011054346757
  0
LINE
  8
1
  6
CONTINUOUS
 62
1
 10
-2.49580833631445
 20
0.568201792765455
 30
0.0
 11
-2.45998709911303
 21
0.342035402143172
 31
0.0
  0
LINE
  8
1
  6
CONTINUOUS
 62
1
 10
-2.52729676827257
 20
0.619586243580272
 30
0.0
 11
-2.71254999649334
 21
0.754180592330631
 31
0.0
  0
ARC
  8
1
  6
CONTINUOUS
 62
1
 10
-2.52742078312868
 20
1.00898909456118
 30
0.0
 40
0.31496063
 50
144.000000000465
 51
234.000000000466
  0
LINE
  8
1
  6
CONTINUOUS
 62
1
 10
-2.64763493661634
 20
1.37937153613633
 30
0.0
 11
-2.78222928535923
 21
1.19411830792586
 31
0.0
  0
LINE
  8
1
  6
CONTINUOUS
 62
1
 10
-2.63356632676426
 20
1.4379715135231
 30
0.0
 11
-2.66938756396715
 21
1.66413790413229
 31
0.0
  0
ARC
  8
1
  6
CONTINUOUS
 62
1
 10
-2.35830462197093
 20
1.71340860180317
 30
0.0
 40
0.31496063
 50
99.0000000014905
 51
189.000000001491
  0
LINE
  8
1
  6
CONTINUOUS
 62
1
 10
-2.18140892902007
 20
2.06031278100426
 30
0.0
 11
-2.40757531964181
 21
2.02449154379939
 31
0.0
  0
LINE
  8
1
  6
CONTINUOUS
 62
1
 10
-2.13002447820574
 20
2.09180121296318
 30
0.0
 11
-1.99543012945822
 21
2.277054441186
 31
0.0
  0
ARC
  8
1
  6
CONTINUOUS
 62
1
 10
-1.74062162722484
 20
2.09192522782524
 30
0.0
 40
0.31496063
 50
54.0000000013445
 51
144.000000001345
  0
LINE
  8
1
  6
CONTINUOUS
 62
1
 10
-1.37023918564125
 20
2.2121393813111
 30
0.0
 11
-1.55549241386408
 21
2.34673373005862
 31
0.0
  0
LINE
  8
1
  6
CONTINUOUS
 62
1
 10
-1.31163920825584
 20
2.19807077145966
 30
0.0
 11
-1.08547281763392
 21
2.23389200866338
 31
0.0
  0
ARC
  8
1
  6
CONTINUOUS
 62
1
 10
-2.57357907131985
 20
0.555884118427145
 30
0.0
 40
0.0787401569999997
 50
9.00000000061364
 51
54.0000000004673
  0
ARC
  8
1
  6
CONTINUOUS
 62
1
 10
-2.71133706176947
 20
1.4256538391836
 30
0.0
 40
0.0787401569999998
 50
324.000000000464
 51
9.00000000149056
  0
ARC
  8
1
  6
CONTINUOUS
 62
1
 10
-2.19372660335958
 20
2.13808351600947
 30
0.0
 40
0.0787401569999998
 50
279.000000001488
 51
324.000000001344
  0
ARC
  8
1
  6
CONTINUOUS
 62
1
 10
-1.32395688259495
 20
2.27584150646494
 30
0.0
 40
0.0787401570000003
 50
234.000000001343
 51
279.000000001196
  0
ARC
  8
1
  6
CONTINUOUS
 62
1
 10
-2.24407529376573
 20
-0.00928153987378798
 30
0.0
 40
0.0787401569999998
 50
283.988945652654
 51
0.236975127911772
  0
ARC
  8
1
  6
CONTINUOUS
 62
1
 10
1.82095060158047
 20
-1.31152543920265
 30
0.0
 40
0.0787401569999999
 50
67.9889456531161
 51
144.236975128384
  0
ARC
  8
1
  6
CONTINUOUS
 62
1
 10
1.82095060152366
 20
1.31152543928153
 30
0.0
 40
0.0787401570000003
 50
215.763024874102
 51
292.01105434746
  0
ARC
  8
1
  6
CONTINUOUS
 62
1
 10
1.9685039370314
 20
-0.94652088733826
 30
0.0
 40
0.31496063
 50
247.988945653121
 51
315.000000001898
  0
ARC
  8
1
  6
CONTINUOUS
 62
1
 10
1.96850393697826
 20
0.946520887418622
 30
0.0
 40
0.314960630000001
 50
45.0000000013147
 51
112.01105434746
  0
LINE
  8
1
  6
CONTINUOUS
 62
1
 10
2.35313199288239
 20
1.0073144260815
 30
0.0
 11
2.19121473425293
 21
1.16923168470352
 31
0.0
  0
LINE
  8
1
  6
CONTINUOUS
 62
1
 10
2.40880969184912
 20
0.984251968049171
 30
0.0
 11
2.63779527497991
 21
0.984251968053847
 31
0.0
  0
ARC
  8
1
  6
CONTINUOUS
 62
1
 10
2.63779527498634
 20
0.669291338053854
 30
0.0
 40
0.31496063
 50
1.16823681782964E-9
 51
90.0000000011683
  0
LINE
  8
1
  6
CONTINUOUS
 62
1
 10
2.95275590499101
 20
0.440305754942201
 30
0.0
 11
2.95275590498634
 21
0.669291338060268
 31
0.0
  0
LINE
  8
1
  6
CONTINUOUS
 62
1
 10
2.97581836302675
 20
0.384628055975282
 30
0.0
 11
3.1377356216497
 21
0.222710797364716
 31
0.0
  0
ARC
  8
1
  6
CONTINUOUS
 62
1
 10
2.91502482438697
 20
8.49322556728538E-11
 30
0.0
 40
0.31496063
 50
314.999999999999
 51
45.0000000000007
  0
LINE
  8
1
  6
CONTINUOUS
 62
1
 10
2.9758183630472
 20
-0.384628055826795
 30
0.0
 11
3.13773562166675
 21
-0.222710797194858
 31
0.0
  0
LINE
  8
1
  6
CONTINUOUS
 62
1
 10
2.95275590501573
 20
-0.440305754793873
 30
0.0
 11
2.95275590502391
 21
-0.669291337924659
 31
0.0
  0
ARC
  8
1
  6
CONTINUOUS
 62
1
 10
2.63779527502392
 20
-0.66929133793591
 30
0.0
 40
0.31496063
 50
270.000000002044
 51
2.04620349321019E-9
  0
LINE
  8
1
  6
CONTINUOUS
 62
1
 10
2.40880969190437
 20
-0.984251967944088
 30
0.0
 11
2.63779527503517
 21
-0.984251967935905
 31
0.0
  0
LINE
  8
1
  6
CONTINUOUS
 62
1
 10
2.35313199293895
 20
-1.00731442597954
 30
0.0
 11
2.19121473431857
 21
-1.16923168461065
 31
0.0
  0
ARC
  8
1
  6
CONTINUOUS
 62
1
 10
1.82095060158051
 20
-1.31152543920267
 30
0.0
 40
0.0787401569999999
 50
67.9889456531227
 51
144.23697512838
  0
ARC
  8
1
  6
CONTINUOUS
 62
1
 10
2.40880969184751
 20
1.06299212504917
 30
0.0
 40
0.0787401570000005
 50
225.000000001314
 51
270.000000001168
  0
ARC
  8
1
  6
CONTINUOUS
 62
1
 10
3.03149606199101
 20
0.440305754943803
 30
0.0
 40
0.0787401569999999
 50
180.000000001166
 51
225.000000002191
  0
ARC
  8
1
  6
CONTINUOUS
 62
1
 10
3.03149606201573
 20
-0.440305754791058
 30
0.0
 40
0.0787401569999996
 50
135.000000002192
 51
180.000000002048
  0
ARC
  8
1
  6
CONTINUOUS
 62
1
 10
2.40880969190719
 20
-1.06299212494409
 30
0.0
 40
0.0787401570000001
 50
90.0000000020472
 51
135.0000000019
  0
ARC
  8
1
  6
CONTINUOUS
 62
1
 10
0
 20
7.74109840283636E-15
 30
0.0
 40
0.196850394
 50
359.999999999996
 51
180
  0
ARC
  8
1
  6
CONTINUOUS
 62
1
 10
0
 20
-7.89182945420432E-15
 30
0.0
 40
0.196850394
 50
179.999999999996
 51
359.999999999996
  0
ARC
  8
2
  6
CONTINUOUS
 62
2
 10
4.99999819325581E-10
 20
-4.99996675858456E-10
 30
0.0
 40
0.3937007875
 50
7.27651561968497E-8
 51
90.0000000727651
  0
ARC
  8
2
  6
CONTINUOUS
 62
2
 10
1.55431223447522E-15
 20
-1.43849527335266E-14
 30
0.0
 40
0.393700788000002
 50
179.999999999997
 51
269.999999999999
  0
ARC
  8
2
  6
CONTINUOUS
 62
2
 10
1.96850393699787
 20
0.835165488738543
 30
0.0
 40
0.0787401570000002
 50
45.0000000001454
 51
225.000000000146
  0
ARC
  8
2
  6
CONTINUOUS
 62
2
 10
1.96850393699787
 20
0.83516548873854
 30
0.0
 40
0.0787401570000001
 50
225.000000000143
 51
45.0000000001453
  0
ARC
  8
2
  6
CONTINUOUS
 62
2
 10
1.37795275649658
 20
0.590551180496986
 30
0.0
 40
0.078740157
 50
90.0000000000002
 51
270
  0
ARC
  8
2
  6
CONTINUOUS
 62
2
 10
1.37795275649739
 20
0.590551180496986
 30
0.0
 40
0.078740157
 50
269.999999999999
 51
90.0000000000009
  0
ARC
  8
2
  6
CONTINUOUS
 62
2
 10
1.13333844826146
 20
-6.39695241222426E-12
 30
0.0
 40
0.0787401570000001
 50
135.000000000435
 51
315.000000000435
  0
ARC
  8
2
  6
CONTINUOUS
 62
2
 10
1.13333844826146
 20
-6.39250458123186E-12
 30
0.0
 40
0.0787401570000001
 50
315.000000000435
 51
135.000000000438
  0
ARC
  8
2
  6
CONTINUOUS
 62
2
 10
1.37795275650603
 20
-0.590551180506034
 30
0.0
 40
0.0787401569999999
 50
180.000000000581
 51
5.84051617266509E-10
  0
ARC
  8
2
  6
CONTINUOUS
 62
2
 10
1.37795275650603
 20
-0.59055118050603
 30
0.0
 40
0.0787401569999999
 50
5.83937117297976E-10
 51
180.000000000585
  0
ARC
  8
2
  6
CONTINUOUS
 62
2
 10
1.96850393701066
 20
-0.835165488738547
 30
0.0
 40
0.0787401569999999
 50
225.000000000727
 51
45.0000000007302
  0
ARC
  8
2
  6
CONTINUOUS
 62
2
 10
1.96850393701066
 20
-0.835165488738543
 30
0.0
 40
0.0787401570000001
 50
45.0000000007303
 51
225.000000000731
  0
ARC
  8
2
  6
CONTINUOUS
 62
2
 10
2.55905511751025
 20
-0.590551180490959
 30
0.0
 40
0.078740157
 50
269.999999999999
 51
90.0000000000009
  0
ARC
  8
2
  6
CONTINUOUS
 62
2
 10
2.55905511750784
 20
-0.590551180490959
 30
0.0
 40
0.078740157
 50
90.0000000000001
 51
270
  0
ARC
  8
2
  6
CONTINUOUS
 62
2
 10
2.80366942573854
 20
1.49202802890436E-11
 30
0.0
 40
0.0787401570000003
 50
315.000000001022
 51
135.000000001023
  0
ARC
  8
2
  6
CONTINUOUS
 62
2
 10
2.80366942573854
 20
1.4915846335839E-11
 30
0.0
 40
0.0787401570000003
 50
135.000000001021
 51
315.000000001022
  0
ARC
  8
2
  6
CONTINUOUS
 62
2
 10
0.229143972418674
 20
2.61629639588046
 30
0.0
 40
0.0787401570000002
 50
72.0000000002331
 51
252.000000000234
  0
ARC
  8
2
  6
CONTINUOUS
 62
2
 10
0.229143972418678
 20
2.61629639588046
 30
0.0
 40
0.0787401570000002
 50
252.00000000023
 51
72.0000000002331
  0
ARC
  8
2
  6
CONTINUOUS
 62
2
 10
-0.185988410231987
 20
2.13023882576939
 30
0.0
 40
0.0787401569999998
 50
117.000000000377
 51
297.000000000377
  0
ARC
  8
2
  6
CONTINUOUS
 62
2
 10
-0.185988410231979
 20
2.1302388257694
 30
0.0
 40
0.0787401569999997
 50
297.000000000377
 51
117.00000000038
  0
ARC
  8
2
  6
CONTINUOUS
 62
2
 10
-0.135836729220178
 20
1.49300129903453
 30
0.0
 40
0.078740157
 50
162.000000000523
 51
342.000000000523
  0
ARC
  8
2
  6
CONTINUOUS
 62
2
 10
-0.135836729220177
 20
1.49300129903453
 30
0.0
 40
0.078740157
 50
342.000000000523
 51
162.000000000526
  0
ARC
  8
2
  6
CONTINUOUS
 62
2
 10
0.350220840893004
 20
1.07786891638635
 30
0.0
 40
0.0787401570000001
 50
207.000000000669
 51
27.0000000006718
  0
ARC
  8
2
  6
CONTINUOUS
 62
2
 10
0.350220840893003
 20
1.07786891638635
 30
0.0
 40
0.0787401570000001
 50
27.0000000006717
 51
207.000000000672
  0
ARC
  8
2
  6
CONTINUOUS
 62
2
 10
0.98745836762762
 20
1.12802059740141
 30
0.0
 40
0.0787401569999998
 50
252.000000000815
 51
72.000000000818
  0
ARC
  8
2
  6
CONTINUOUS
 62
2
 10
0.987458367627616
 20
1.12802059740141
 30
0.0
 40
0.0787401569999999
 50
72.000000000818
 51
252.000000000819
  0
ARC
  8
2
  6
CONTINUOUS
 62
2
 10
1.40259075027331
 20
1.61407816751671
 30
0.0
 40
0.0787401569999999
 50
297.000000000961
 51
117.000000000965
  0
ARC
  8
2
  6
CONTINUOUS
 62
2
 10
1.40259075027331
 20
1.61407816751671
 30
0.0
 40
0.078740157
 50
117.000000000961
 51
297.000000000962
  0
ARC
  8
2
  6
CONTINUOUS
 62
2
 10
1.352439069255
 20
2.25131569425106
 30
0.0
 40
0.0787401570000002
 50
342.000000001107
 51
162.000000001111
  0
ARC
  8
2
  6
CONTINUOUS
 62
2
 10
1.352439069255
 20
2.25131569425106
 30
0.0
 40
0.0787401570000002
 50
162.000000001108
 51
342.000000001108
  0
ARC
  8
2
  6
CONTINUOUS
 62
2
 10
0.866381499137585
 20
2.66644807689428
 30
0.0
 40
0.0787401570000004
 50
27.0000000012569
 51
207.000000001257
  0
ARC
  8
2
  6
CONTINUOUS
 62
2
 10
0.866381499137586
 20
2.66644807689428
 30
0.0
 40
0.0787401570000003
 50
207.000000001254
 51
27.0000000012566
  0
ARC
  8
2
  6
CONTINUOUS
 62
2
 10
-2.41743635422987
 20
1.02640891677765
 30
0.0
 40
0.0787401570000001
 50
144.000000000464
 51
324.000000000464
  0
ARC
  8
2
  6
CONTINUOUS
 62
2
 10
-2.41743635422987
 20
1.02640891677765
 30
0.0
 40
0.0787401569999999
 50
324.000000000464
 51
144.000000000468
  0
ARC
  8
2
  6
CONTINUOUS
 62
2
 10
-2.08345109603335
 20
0.481394509725062
 30
0.0
 40
0.0787401570000004
 50
189.000000000611
 51
9.00000000061325
  0
ARC
  8
2
  6
CONTINUOUS
 62
2
 10
-2.08345109603335
 20
0.481394509725066
 30
0.0
 40
0.0787401570000002
 50
9.00000000061329
 51
189.000000000614
  0
ARC
  8
2
  6
CONTINUOUS
 62
2
 10
-1.46190447207461
 20
0.332174367542502
 30
0.0
 40
0.0787401570000001
 50
234.000000000757
 51
54.0000000007593
  0
ARC
  8
2
  6
CONTINUOUS
 62
2
 10
-1.46190447207462
 20
0.332174367542503
 30
0.0
 40
0.0787401570000001
 50
54.0000000007593
 51
234.00000000076
  0
ARC
  8
2
  6
CONTINUOUS
 62
2
 10
-0.916890065023727
 20
0.666159625741807
 30
0.0
 40
0.0787401570000001
 50
279.000000000903
 51
99.0000000009057
  0
ARC
  8
2
  6
CONTINUOUS
 62
2
 10
-0.916890065023735
 20
0.666159625741807
 30
0.0
 40
0.0787401570000001
 50
99.0000000009041
 51
279.000000000903
  0
ARC
  8
2
  6
CONTINUOUS
 62
2
 10
-0.767669922844338
 20
1.2877062497013
 30
0.0
 40
0.0787401569999999
 50
324.000000001049
 51
144.000000001052
  0
ARC
  8
2
  6
CONTINUOUS
 62
2
 10
-0.76766992284434
 20
1.2877062497013
 30
0.0
 40
0.0787401569999999
 50
144.000000001049
 51
324.000000001049
  0
ARC
  8
2
  6
CONTINUOUS
 62
2
 10
-1.10165518104643
 20
1.83272065675048
 30
0.0
 40
0.0787401570000001
 50
9.00000000119796
 51
189.000000001199
  0
ARC
  8
2
  6
CONTINUOUS
 62
2
 10
-1.10165518104643
 20
1.83272065675048
 30
0.0
 40
0.0787401570000002
 50
189.000000001195
 51
9.0000000011981
  0
ARC
  8
2
  6
CONTINUOUS
 62
2
 10
-1.72320180500668
 20
1.9819407989267
 30
0.0
 40
0.0787401570000001
 50
54.0000000013442
 51
234.000000001345
  0
ARC
  8
2
  6
CONTINUOUS
 62
2
 10
-1.72320180500668
 20
1.9819407989267
 30
0.0
 40
0.0787401570000001
 50
234.000000001341
 51
54.0000000013442
  0
ARC
  8
2
  6
CONTINUOUS
 62
2
 10
-2.26821621205416
 20
1.64795554072183
 30
0.0
 40
0.0787401570000001
 50
99.0000000014888
 51
279.000000001488
  0
ARC
  8
2
  6
CONTINUOUS
 62
2
 10
-2.26821621205416
 20
1.64795554072183
 30
0.0
 40
0.078740157
 50
279.000000001488
 51
99.0000000014902
  0
ARC
  8
2
  6
CONTINUOUS
 62
2
 10
-1.72320180495359
 20
-1.98194079896388
 30
0.0
 40
0.0787401570000002
 50
216.000000000699
 51
36.0000000007011
  0
ARC
  8
2
  6
CONTINUOUS
 62
2
 10
-1.72320180495359
 20
-1.98194079896388
 30
0.0
 40
0.0787401570000004
 50
36.000000000701
 51
216.000000000702
  0
ARC
  8
2
  6
CONTINUOUS
 62
2
 10
-1.10165518099867
 20
-1.83272065676545
 30
0.0
 40
0.0787401569999998
 50
261.000000000844
 51
81.0000000008472
  0
ARC
  8
2
  6
CONTINUOUS
 62
2
 10
-1.10165518099867
 20
-1.83272065676545
 30
0.0
 40
0.0787401569999999
 50
81.0000000008471
 51
261.000000000848
  0
ARC
  8
2
  6
CONTINUOUS
 62
2
 10
-0.76766992281605
 20
-1.28770624970434
 30
0.0
 40
0.078740157
 50
306.00000000099
 51
126.000000000994
  0
ARC
  8
2
  6
CONTINUOUS
 62
2
 10
-0.767669922816057
 20
-1.28770624970434
 30
0.0
 40
0.078740157
 50
126.000000000994
 51
306.000000000994
  0
ARC
  8
2
  6
CONTINUOUS
 62
2
 10
-0.91689006501765
 20
-0.666159625750173
 30
0.0
 40
0.0787401570000001
 50
351.000000001137
 51
171.00000000114
  0
ARC
  8
2
  6
CONTINUOUS
 62
2
 10
-0.91689006501765
 20
-0.666159625750181
 30
0.0
 40
0.0787401570000001
 50
171.000000001137
 51
351.000000001137
  0
ARC
  8
2
  6
CONTINUOUS
 62
2
 10
-1.46190447208047
 20
-0.332174367570344
 30
0.0
 40
0.078740157
 50
36.0000000012857
 51
216.000000001286
  0
ARC
  8
2
  6
CONTINUOUS
 62
2
 10
-1.46190447208047
 20
-0.332174367570347
 30
0.0
 40
0.0787401569999999
 50
216.000000001283
 51
36.0000000012858
  0
ARC
  8
2
  6
CONTINUOUS
 62
2
 10
-2.08345109603387
 20
-0.481394509775113
 30
0.0
 40
0.0787401569999999
 50
81.0000000014322
 51
261.000000001433
  0
ARC
  8
2
  6
CONTINUOUS
 62
2
 10
-2.08345109603387
 20
-0.481394509775113
 30
0.0
 40
0.078740157
 50
261.00000000143
 51
81.0000000014321
  0
ARC
  8
2
  6
CONTINUOUS
 62
2
 10
-2.41743635421092
 20
-1.02640891683963
 30
0.0
 40
0.078740157
 50
126.000000001577
 51
306.000000001577
  0
ARC
  8
2
  6
CONTINUOUS
 62
2
 10
-2.41743635421092
 20
-1.02640891683963
 30
0.0
 40
0.0787401570000002
 50
306.000000001576
 51
126.000000001579
  0
ARC
  8
2
  6
CONTINUOUS
 62
2
 10
-2.26821621200298
 20
-1.64795554079227
 30
0.0
 40
0.0787401569999999
 50
171.000000001722
 51
351.000000001722
  0
ARC
  8
2
  6
CONTINUOUS
 62
2
 10
-2.26821621200298
 20
-1.64795554079227
 30
0.0
 40
0.0787401569999997
 50
351.000000001722
 51
171.000000001725
  0
ARC
  8
2
  6
CONTINUOUS
 62
2
 10
1.35243906930677
 20
-2.25131569421206
 30
0.0
 40
0.0787401570000002
 50
288.000000000932
 51
108.000000000936
  0
ARC
  8
2
  6
CONTINUOUS
 62
2
 10
1.35243906930677
 20
-2.25131569421206
 30
0.0
 40
0.0787401570000002
 50
108.000000000932
 51
288.000000000932
  0
ARC
  8
2
  6
CONTINUOUS
 62
2
 10
1.40259075030231
 20
-1.61407816747591
 30
0.0
 40
0.0787401569999998
 50
333.000000001078
 51
153.000000001082
  0
ARC
  8
2
  6
CONTINUOUS
 62
2
 10
1.40259075030231
 20
-1.61407816747591
 30
0.0
 40
0.0787401569999998
 50
153.000000001078
 51
333.000000001078
  0
ARC
  8
2
  6
CONTINUOUS
 62
2
 10
0.987458367639247
 20
-1.12802059737544
 30
0.0
 40
0.078740157
 50
18.0000000012271
 51
198.000000001228
  0
ARC
  8
2
  6
CONTINUOUS
 62
2
 10
0.987458367639247
 20
-1.12802059737544
 30
0.0
 40
0.0787401570000002
 50
198.000000001224
 51
18.0000000012272
  0
ARC
  8
2
  6
CONTINUOUS
 62
2
 10
0.350220840902842
 20
-1.07786891638315
 30
0.0
 40
0.0787401570000001
 50
63.0000000013736
 51
243.000000001374
  0
ARC
  8
2
  6
CONTINUOUS
 62
2
 10
0.350220840902846
 20
-1.07786891638315
 30
0.0
 40
0.0787401570000001
 50
243.000000001371
 51
63.0000000013736
  0
ARC
  8
2
  6
CONTINUOUS
 62
2
 10
-0.135836729195511
 20
-1.4930012990487
 30
0.0
 40
0.078740157
 50
108.000000001517
 51
288.000000001517
  0
ARC
  8
2
  6
CONTINUOUS
 62
2
 10
-0.135836729195503
 20
-1.49300129904869
 30
0.0
 40
0.078740157
 50
288.000000001517
 51
108.00000000152
  0
ARC
  8
2
  6
CONTINUOUS
 62
2
 10
-0.185988410184547
 20
-2.13023882578536
 30
0.0
 40
0.0787401570000001
 50
153.000000001663
 51
333.000000001663
  0
ARC
  8
2
  6
CONTINUOUS
 62
2
 10
-0.185988410184546
 20
-2.13023882578535
 30
0.0
 40
0.0787401570000002
 50
333.000000001663
 51
153.000000001666
  0
ARC
  8
2
  6
CONTINUOUS
 62
2
 10
0.229143972483476
 20
-2.61629639588159
 30
0.0
 40
0.0787401569999999
 50
198.000000001809
 51
18.0000000018118
  0
ARC
  8
2
  6
CONTINUOUS
 62
2
 10
0.229143972483476
 20
-2.61629639588159
 30
0.0
 40
0.0787401569999998
 50
18.0000000018117
 51
198.000000001813
  0
ARC
  8
2
  6
CONTINUOUS
 62
2
 10
0.866381499220396
 20
-2.66644807686737
 30
0.0
 40
0.0787401569999997
 50
243.000000001955
 51
63.0000000019582
  0
ARC
  8
2
  6
CONTINUOUS
 62
2
 10
0.866381499220392
 20
-2.66644807686737
 30
0.0
 40
0.0787401569999997
 50
63.0000000019582
 51
243.000000001959
  0
ARC
  8
2
  6
CONTINUOUS
 62
2
 10
-5.00003816128469E-10
 20
-5.00002270692069E-10
 30
0.0
 40
0.3937007875
 50
89.9999999272333
 51
179.999999927234
  0
ARC
  8
2
  6
CONTINUOUS
 62
2
 10
1.968503937
 20
7.74109840283636E-15
 30
0.0
 40
0.196850394
 50
359.999999999996
 51
180
  0
ARC
  8
2
  6
CONTINUOUS
 62
2
 10
1.968503937
 20
-7.89182945420433E-15
 30
0.0
 40
0.196850394
 50
179.999999999996
 51
359.999999999996
  0
ARC
  8
2
  6
CONTINUOUS
 62
2
 10
0.608301170019336
 20
1.872158496639
 30
0.0
 40
0.196850394
 50
72.0000000002306
 51
252.000000000234
  0
ARC
  8
2
  6
CONTINUOUS
 62
2
 10
0.60830117001935
 20
1.87215849663899
 30
0.0
 40
0.196850394
 50
252.00000000023
 51
72.0000000002306
  0
ARC
  8
2
  6
CONTINUOUS
 62
2
 10
-1.59255313853645
 20
1.15705758323525
 30
0.0
 40
0.196850394
 50
144.000000000464
 51
324.000000000467
  0
ARC
  8
2
  6
CONTINUOUS
 62
2
 10
-1.59255313853644
 20
1.15705758323526
 30
0.0
 40
0.196850394
 50
324.000000000464
 51
144.000000000465
  0
ARC
  8
2
  6
CONTINUOUS
 62
2
 10
-1.59255313851281
 20
-1.15705758326779
 30
0.0
 40
0.196850394
 50
216.000000000698
 51
36.0000000007016
  0
ARC
  8
2
  6
CONTINUOUS
 62
2
 10
-1.59255313851282
 20
-1.15705758326778
 30
0.0
 40
0.196850394
 50
36.0000000006985
 51
216.000000000698
  0
ARC
  8
2
  6
CONTINUOUS
 62
2
 10
0.608301170057577
 20
-1.87215849662658
 30
0.0
 40
0.196850394
 50
288.000000000932
 51
108.000000000935
  0
ARC
  8
2
  6
CONTINUOUS
 62
2
 10
0.608301170057562
 20
-1.87215849662659
 30
0.0
 40
0.196850394
 50
108.000000000932
 51
288.000000000932
  0
ARC
  8
2
  6
CONTINUOUS
 62
2
 10
5.31746981728489E-15
 20
-1.33226762955019E-14
 30
0.0
 40
0.393700787999999
 50
269.999999999999
 51
359.999999999997
  0
ARC
  8
3
  6
CONTINUOUS
 62
3
 10
1.968503937
 20
-8.93781522115884E-15
 30
0.0
 40
0.295275591
 50
179.999999999996
 51
359.999999999996
  0
ARC
  8
3
  6
CONTINUOUS
 62
3
 10
1.968503937
 20
1.13313097810949E-14
 30
0.0
 40
0.295275591
 50
359.999999999996
 51
180
  0
ARC
  8
3
  6
CONTINUOUS
 62
3
 10
7.54951656745106E-15
 20
1.53555729487945E-14
 30
0.0
 40
0.590551180999992
 50
359.999999999997
 51
90.0000000000005
  0
ARC
  8
3
  6
CONTINUOUS
 62
3
 10
2.22044604925031E-15
 20
-2.15774290637521E-14
 30
0.0
 40
0.590551181000002
 50
179.999999999997
 51
269.999999999999
  0
ARC
  8
3
  6
CONTINUOUS
 62
3
 10
0.608301170019351
 20
1.87215849663899
 30
0.0
 40
0.295275591
 50
252.00000000023
 51
72.0000000002306
  0
ARC
  8
3
  6
CONTINUOUS
 62
3
 10
0.608301170019333
 20
1.872158496639
 30
0.0
 40
0.295275591
 50
72.0000000002306
 51
252.000000000234
  0
ARC
  8
3
  6
CONTINUOUS
 62
3
 10
-1.59255313853644
 20
1.15705758323527
 30
0.0
 40
0.295275591
 50
324.000000000464
 51
144.000000000465
  0
ARC
  8
3
  6
CONTINUOUS
 62
3
 10
-1.59255313853645
 20
1.15705758323525
 30
0.0
 40
0.295275591
 50
144.000000000464
 51
324.000000000467
  0
ARC
  8
3
  6
CONTINUOUS
 62
3
 10
-1.59255313851282
 20
-1.15705758326778
 30
0.0
 40
0.295275591
 50
36.0000000006985
 51
216.000000000698
  0
ARC
  8
3
  6
CONTINUOUS
 62
3
 10
-1.59255313851281
 20
-1.1570575832678
 30
0.0
 40
0.295275591
 50
216.000000000698
 51
36.0000000007015
  0
ARC
  8
3
  6
CONTINUOUS
 62
3
 10
0.608301170057561
 20
-1.87215849662659
 30
0.0
 40
0.295275591
 50
108.000000000932
 51
288.000000000932
  0
ARC
  8
3
  6
CONTINUOUS
 62
3
 10
0.60830117005758
 20
-1.87215849662658
 30
0.0
 40
0.295275591000001
 50
288.000000000932
 51
108.000000000935
  0
ARC
  8
3
  6
CONTINUOUS
 62
3
 10
-1.23622589759536E-14
 20
1.19904086659517E-14
 30
0.0
 40
0.59055118099999
 50
89.9999999999988
 51
179.999999999999
  0
ARC
  8
3
  6
CONTINUOUS
 62
3
 10
7.97620471242097E-15
 20
-1.98729921407903E-14
 30
0.0
 40
0.590551180999998
 50
269.999999999999
 51
359.999999999997
  0
LINE
  8
4
  6
CONTINUOUS
 62
4
 10
2.37373595316616
 20
-0.151544976326194
 30
0.0
 11
2.49744207965561
 21
-0.0278388498367489
 31
0.0
  0
LINE
  8
4
  6
CONTINUOUS
 62
4
 10
2.37373595316283
 20
0.151544976329532
 30
0.0
 11
2.49744207965561
 21
0.0278388498367512
 31
0.0
  0
ARC
  8
4
  6
CONTINUOUS
 62
4
 10
2.46960322981886
 20
1.57859836313889E-15
 30
0.0
 40
0.0393700789999999
 50
314.999999999999
 51
45.0000000000009
  0
LINE
  8
4
  6
CONTINUOUS
 62
4
 10
2.36220472399958
 20
0.179383826166282
 30
0.0
 11
2.36220472399909
 21
0.354330708001004
 31
0.0
  0
LINE
  8
4
  6
CONTINUOUS
 62
4
 10
2.1478877631642
 20
0.393700787000457
 30
0.0
 11
2.32283464499899
 21
0.393700787000903
 31
0.0
  0
ARC
  8
4
  6
CONTINUOUS
 62
4
 10
2.32283464499909
 20
0.354330708000904
 30
0.0
 40
0.0393700789999999
 50
1.44568932491243E-10
 51
90.0000000001463
  0
LINE
  8
4
  6
CONTINUOUS
 62
4
 10
2.12004891332749
 20
0.405232016163565
 30
0.0
 11
1.99634278683405
 21
0.52893814265575
 31
0.0
  0
LINE
  8
4
  6
CONTINUOUS
 62
4
 10
1.81695896066836
 20
0.405232016162013
 30
0.0
 11
1.94066508716055
 21
0.528938142655465
 31
0.0
  0
ARC
  8
4
  6
CONTINUOUS
 62
4
 10
1.96850393699744
 20
0.501099292818858
 30
0.0
 40
0.0393700789999999
 50
45.000000000291
 51
135.000000000293
  0
LINE
  8
4
  6
CONTINUOUS
 62
4
 10
1.78912011083177
 20
0.393700786998621
 30
0.0
 11
1.61417322899698
 21
0.393700786997282
 31
0.0
  0
LINE
  8
4
  6
CONTINUOUS
 62
4
 10
1.57480314999875
 20
0.179383826162014
 30
0.0
 11
1.57480314999729
 21
0.35433070799698
 31
0.0
  0
ARC
  8
4
  6
CONTINUOUS
 62
4
 10
1.61417322899729
 20
0.354330707997282
 30
0.0
 40
0.0393700789999999
 50
90.0000000004372
 51
180.000000000439
  0
LINE
  8
4
  6
CONTINUOUS
 62
4
 10
1.56327192083578
 20
0.151544976325548
 30
0.0
 11
1.43956579434411
 21
0.0278388498313452
 31
0.0
  0
LINE
  8
4
  6
CONTINUOUS
 62
4
 10
1.56327192083855
 20
-0.151544976333506
 30
0.0
 11
1.43956579434467
 21
-0.0278388498421549
 31
0.0
  0
ARC
  8
4
  6
CONTINUOUS
 62
4
 10
1.46740464418086
 20
-5.4055163123401E-12
 30
0.0
 40
0.0393700789999999
 50
134.999999999998
 51
225
  0
LINE
  8
4
  6
CONTINUOUS
 62
4
 10
1.57480315000208
 20
-0.17938382617054
 30
0.0
 11
1.57480315000452
 21
-0.354330708005028
 31
0.0
  0
LINE
  8
4
  6
CONTINUOUS
 62
4
 10
1.78912011083982
 20
-0.393700787002294
 30
0.0
 11
1.61417322900503
 21
-0.393700787004525
 31
0.0
  0
ARC
  8
4
  6
CONTINUOUS
 62
4
 10
1.61417322900452
 20
-0.354330708004526
 30
0.0
 40
0.0393700789999999
 50
180.000000000729
 51
270.000000000731
  0
LINE
  8
4
  6
CONTINUOUS
 62
4
 10
1.81695896067664
 20
-0.405232016165117
 30
0.0
 11
1.94066508717135
 21
-0.528938142656039
 31
0.0
  0
LINE
  8
4
  6
CONTINUOUS
 62
4
 10
2.12004891333578
 20
-0.405232016160472
 30
0.0
 11
1.99634278684485
 21
-0.528938142655186
 31
0.0
  0
ARC
  8
4
  6
CONTINUOUS
 62
4
 10
1.96850393700768
 20
-0.501099292818863
 30
0.0
 40
0.0393700789999999
 50
225.000000000875
 51
315.000000000877
  0
LINE
  8
4
  6
CONTINUOUS
 62
4
 10
2.14788776317225
 20
-0.393700786996796
 30
0.0
 11
2.32283464500703
 21
-0.393700786993671
 31
0.0
  0
LINE
  8
4
  6
CONTINUOUS
 62
4
 10
2.36220472400291
 20
-0.179383826162944
 30
0.0
 11
2.36220472400633
 21
-0.354330707992967
 31
0.0
  0
ARC
  8
4
  6
CONTINUOUS
 62
4
 10
2.32283464500633
 20
-0.35433070799367
 30
0.0
 40
0.0393700789999999
 50
270.000000001021
 51
1.02354066315114E-9
  0
ARC
  8
4
  6
CONTINUOUS
 62
4
 10
2.40157480299958
 20
0.179383826166282
 30
0.0
 40
0.0393700790000001
 50
180
 51
224.999999999999
  0
ARC
  8
4
  6
CONTINUOUS
 62
4
 10
2.1478877631641
 20
0.433070866000457
 30
0.0
 40
0.0393700790000001
 50
225.000000000292
 51
270.000000000146
  0
ARC
  8
4
  6
CONTINUOUS
 62
4
 10
1.78912011083146
 20
0.433070865998621
 30
0.0
 40
0.0393700790000002
 50
270.000000000438
 51
315.000000000292
  0
ARC
  8
4
  6
CONTINUOUS
 62
4
 10
1.53543307099875
 20
0.179383826162014
 30
0.0
 40
0.0393700789999999
 50
315.000000000584
 51
359.999999999999
  0
ARC
  8
4
  6
CONTINUOUS
 62
4
 10
1.53543307100208
 20
-0.179383826170539
 30
0.0
 40
0.039370079
 50
359.999999999999
 51
45.0000000005843
  0
ARC
  8
4
  6
CONTINUOUS
 62
4
 10
1.78912011084032
 20
-0.433070866002294
 30
0.0
 40
0.0393700790000001
 50
45.0000000008768
 51
90.0000000007307
  0
ARC
  8
4
  6
CONTINUOUS
 62
4
 10
2.14788776317296
 20
-0.433070865996796
 30
0.0
 40
0.0393700790000003
 50
90.000000001023
 51
135.000000000877
  0
ARC
  8
4
  6
CONTINUOUS
 62
4
 10
2.40157480300291
 20
-0.179383826162945
 30
0.0
 40
0.039370079
 50
135
 51
179.999999999999
  0
ARC
  8
4
  6
CONTINUOUS
 62
4
 10
0
 20
3.09643935720206E-14
 30
0.0
 40
0.787401575
 50
359.999999999996
 51
180
  0
ARC
  8
4
  6
CONTINUOUS
 62
4
 10
0
 20
-3.15673177767267E-14
 30
0.0
 40
0.787401575
 50
179.999999999996
 51
359.999999999996
  0
LINE
  8
4
  6
CONTINUOUS
 62
4
 10
0.877652586924951
 20
2.2107270731294
 30
0.0
 11
0.79822836461443
 21
2.36660588622604
 31
0.0
  0
LINE
  8
4
  6
CONTINUOUS
 62
4
 10
0.58939691242672
 20
2.30438701931997
 30
0.0
 11
0.745275725527553
 21
2.38381124163263
 31
0.0
  0
ARC
  8
4
  6
CONTINUOUS
 62
4
 10
0.763149367367691
 20
2.3487322443859
 30
0.0
 40
0.039370079
 50
27.0000000002321
 51
117.000000000234
  0
LINE
  8
4
  6
CONTINUOUS
 62
4
 10
0.55935724710585
 20
2.30202284638666
 30
0.0
 11
0.392972875131047
 21
2.35608440598535
 31
0.0
  0
LINE
  8
4
  6
CONTINUOUS
 62
4
 10
0.289302121871574
 20
2.16442288731105
 30
0.0
 11
0.343363681470326
 21
2.3308072592859
 31
0.0
  0
ARC
  8
4
  6
CONTINUOUS
 62
4
 10
0.380806851650411
 20
2.31864123580526
 30
0.0
 40
0.0393700789999998
 50
72.0000000003783
 51
162.00000000038
  0
LINE
  8
4
  6
CONTINUOUS
 62
4
 10
0.269732593531806
 20
2.14150991354503
 30
0.0
 11
0.113853780431333
 21
2.06208569123156
 31
0.0
  0
LINE
  8
4
  6
CONTINUOUS
 62
4
 10
0.176072647338487
 20
1.85325423904411
 30
0.0
 11
0.096648425025004
 21
2.00913305214459
 31
0.0
  0
ARC
  8
4
  6
CONTINUOUS
 62
4
 10
0.131727422271651
 20
2.02700669398491
 30
0.0
 40
0.0393700789999999
 50
117.000000000525
 51
207.000000000527
  0
LINE
  8
4
  6
CONTINUOUS
 62
4
 10
0.178436820271988
 20
1.82321457372335
 30
0.0
 11
0.124375260674087
 21
1.65683020174823
 31
0.0
  0
LINE
  8
4
  6
CONTINUOUS
 62
4
 10
0.316036779349127
 20
1.5531594484898
 30
0.0
 11
0.14965240737379
 21
1.60722100808763
 31
0.0
  0
ARC
  8
4
  6
CONTINUOUS
 62
4
 10
0.161818430854235
 20
1.64466417826778
 30
0.0
 40
0.0393700789999999
 50
162.000000000671
 51
252.000000000672
  0
LINE
  8
4
  6
CONTINUOUS
 62
4
 10
0.338949753114951
 20
1.53358992015024
 30
0.0
 11
0.418373975429306
 21
1.37771110705001
 31
0.0
  0
LINE
  8
4
  6
CONTINUOUS
 62
4
 10
0.627205427616171
 20
1.4399299739581
 30
0.0
 11
0.471326614516359
 21
1.36050575164395
 31
0.0
  0
ARC
  8
4
  6
CONTINUOUS
 62
4
 10
0.453452972675863
 20
1.39558474889051
 30
0.0
 40
0.0393700789999999
 50
207.000000000817
 51
297.000000000819
  0
LINE
  8
4
  6
CONTINUOUS
 62
4
 10
0.657245092937399
 20
1.4422941468916
 30
0.0
 11
0.823629464912582
 21
1.38823258729484
 31
0.0
  0
LINE
  8
4
  6
CONTINUOUS
 62
4
 10
0.927300218170099
 20
1.5798941059702
 30
0.0
 11
0.873238658573045
 21
1.41350973399479
 31
0.0
  0
ARC
  8
4
  6
CONTINUOUS
 62
4
 10
0.835795488392836
 20
1.42567575747504
 30
0.0
 40
0.0393700789999999
 50
252.000000000963
 51
342.000000000965
  0
LINE
  8
4
  6
CONTINUOUS
 62
4
 10
0.946869746509633
 20
1.60280707973641
 30
0.0
 11
1.10274855960929
 21
1.68223130205148
 31
0.0
  0
LINE
  8
4
  6
CONTINUOUS
 62
4
 10
1.04052969270001
 20
1.89106275423829
 30
0.0
 11
1.11995391501508
 21
1.73518394113862
 31
0.0
  0
ARC
  8
4
  6
CONTINUOUS
 62
4
 10
1.08487491776862
 20
1.71731029929794
 30
0.0
 40
0.0393700789999998
 50
297.000000001109
 51
27.0000000011112
  0
LINE
  8
4
  6
CONTINUOUS
 62
4
 10
1.0381655197662
 20
1.92110241955903
 30
0.0
 11
1.0922270793624
 21
2.0874867915347
 31
0.0
  0
LINE
  8
4
  6
CONTINUOUS
 62
4
 10
0.900565560690957
 20
2.19115754478949
 30
0.0
 11
1.0669499326622
 21
2.13709598519503
 31
0.0
  0
ARC
  8
4
  6
CONTINUOUS
 62
4
 10
1.05478390918213
 20
2.09965281501476
 30
0.0
 40
0.039370079
 50
342.000000001255
 51
72.0000000012574
  0
ARC
  8
4
  6
CONTINUOUS
 62
4
 10
0.571523270586582
 20
2.33946601656671
 30
0.0
 40
0.0393700790000001
 50
252.000000000233
 51
297.000000000233
  0
ARC
  8
4
  6
CONTINUOUS
 62
4
 10
0.251858951691488
 20
2.17658891079168
 30
0.0
 40
0.0393700790000002
 50
297.000000000526
 51
342.00000000038
  0
ARC
  8
4
  6
CONTINUOUS
 62
4
 10
0.14099365009184
 20
1.83538059720379
 30
0.0
 40
0.0393700790000004
 50
342.000000000672
 51
27.0000000005259
  0
ARC
  8
4
  6
CONTINUOUS
 62
4
 10
0.303870755868395
 20
1.51571627830974
 30
0.0
 40
0.0393700790000002
 50
27.0000000008184
 51
72.0000000002335
  0
ARC
  8
4
  6
CONTINUOUS
 62
4
 10
0.645079069456667
 20
1.40485097671154
 30
0.0
 40
0.039370079
 50
72.0000000002331
 51
117.000000000818
  0
ARC
  8
4
  6
CONTINUOUS
 62
4
 10
0.964743388350309
 20
1.56772808248994
 30
0.0
 40
0.0393700790000002
 50
117.000000001111
 51
162.000000000964
  0
ARC
  8
4
  6
CONTINUOUS
 62
4
 10
1.07560868994647
 20
1.90893639607896
 30
0.0
 40
0.0393700790000001
 50
162.000000001257
 51
207.00000000111
  0
ARC
  8
4
  6
CONTINUOUS
 62
4
 10
0.912731584171689
 20
2.22860071496954
 30
0.0
 40
0.0393700790000001
 50
207.000000000233
 51
252.000000000233
  0
LINE
  8
4
  6
CONTINUOUS
 62
4
 10
-1.83131682413909
 20
1.51784944735257
 30
0.0
 11
-2.00410981954585
 21
1.49048172548162
 31
0.0
  0
LINE
  8
4
  6
CONTINUOUS
 62
4
 10
-2.00946862842345
 20
1.27264452482637
 30
0.0
 11
-2.03683635029513
 21
1.44543752023779
 31
0.0
  0
ARC
  8
4
  6
CONTINUOUS
 62
4
 10
-1.99795098229857
 20
1.45159635748506
 30
0.0
 40
0.039370079
 50
99.000000000466
 51
189.000000000468
  0
LINE
  8
4
  6
CONTINUOUS
 62
4
 10
-2.01650293343894
 20
1.24334453576157
 30
0.0
 11
-2.11933413051439
 21
1.10180953524324
 31
0.0
  0
LINE
  8
4
  6
CONTINUOUS
 62
4
 10
-1.96908921883235
 20
0.943986123369137
 30
0.0
 11
-2.1106242193507
 21
1.04681732044466
 31
0.0
  0
ARC
  8
4
  6
CONTINUOUS
 62
4
 10
-2.08748306753326
 20
1.0786683834258
 30
0.0
 40
0.0393700789999999
 50
144.000000000612
 51
234.000000000614
  0
LINE
  8
4
  6
CONTINUOUS
 62
4
 10
-1.95334500265327
 20
0.918293897635477
 30
0.0
 11
-1.9259772807807
 21
0.745500902224152
 31
0.0
  0
LINE
  8
4
  6
CONTINUOUS
 62
4
 10
-1.70814008012537
 20
0.740142093347671
 30
0.0
 11
-1.8809330755367
 21
0.712774371475097
 31
0.0
  0
ARC
  8
4
  6
CONTINUOUS
 62
4
 10
-1.88709191278417
 20
0.751659739471623
 30
0.0
 40
0.0393700789999999
 50
189.000000000758
 51
279.00000000076
  0
LINE
  8
4
  6
CONTINUOUS
 62
4
 10
-1.67884009106061
 20
0.733107788332393
 30
0.0
 11
-1.53730509054174
 21
0.630276591257594
 31
0.0
  0
LINE
  8
4
  6
CONTINUOUS
 62
4
 10
-1.37948167866839
 20
0.780521502940652
 30
0.0
 11
-1.4823128757432
 21
0.638986502421559
 31
0.0
  0
ARC
  8
4
  6
CONTINUOUS
 62
4
 10
-1.51416393872445
 20
0.662127654238844
 30
0.0
 40
0.0393700789999998
 50
234.000000000905
 51
324.000000000906
  0
LINE
  8
4
  6
CONTINUOUS
 62
4
 10
-1.35378945293499
 20
0.796265719119619
 30
0.0
 11
-1.18099645752363
 21
0.823633440993102
 31
0.0
  0
LINE
  8
4
  6
CONTINUOUS
 62
4
 10
-1.17563764864821
 20
1.04147064164817
 30
0.0
 11
-1.1482699267748
 21
0.868677646237269
 31
0.0
  0
ARC
  8
4
  6
CONTINUOUS
 62
4
 10
-1.1871552947713
 20
0.862518808989598
 30
0.0
 40
0.0393700789999998
 50
279.000000001051
 51
9.00000000105312
  0
LINE
  8
4
  6
CONTINUOUS
 62
4
 10
-1.16860334363279
 20
1.07077063071337
 30
0.0
 11
-1.06577214655906
 21
1.21230563123265
 31
0.0
  0
LINE
  8
4
  6
CONTINUOUS
 62
4
 10
-1.2160170582427
 20
1.37012904310523
 30
0.0
 11
-1.0744820577233
 21
1.26729784603114
 31
0.0
  0
ARC
  8
4
  6
CONTINUOUS
 62
4
 10
-1.09762320954042
 20
1.23544678304978
 30
0.0
 40
0.039370079
 50
324.000000001197
 51
54.0000000011993
  0
LINE
  8
4
  6
CONTINUOUS
 62
4
 10
-1.23176127442204
 20
1.39582126883873
 30
0.0
 11
-1.25912899629638
 21
1.56861426424977
 31
0.0
  0
LINE
  8
4
  6
CONTINUOUS
 62
4
 10
-1.47696619695177
 20
1.57397307312403
 30
0.0
 11
-1.30417320154072
 21
1.60134079499837
 31
0.0
  0
ARC
  8
4
  6
CONTINUOUS
 62
4
 10
-1.29801436429285
 20
1.5624554270019
 30
0.0
 40
0.0393700789999998
 50
9.00000000134369
 51
99.0000000013454
  0
LINE
  8
4
  6
CONTINUOUS
 62
4
 10
-1.5062661860166
 20
1.58100737813901
 30
0.0
 11
-1.64780118653652
 21
1.68383857521236
 31
0.0
  0
LINE
  8
4
  6
CONTINUOUS
 62
4
 10
-1.80562459840529
 20
1.5335936635316
 30
0.0
 11
-1.70279340133497
 21
1.67512866404784
 31
0.0
  0
ARC
  8
4
  6
CONTINUOUS
 62
4
 10
-1.67094233835348
 20
1.65198751223088
 30
0.0
 40
0.0393700789999999
 50
54.0000000014896
 51
144.000000001491
  0
ARC
  8
4
  6
CONTINUOUS
 62
4
 10
-2.04835399642001
 20
1.2664856875791
 30
0.0
 40
0.0393700790000004
 50
324.000000000468
 51
9.000000000468
  0
ARC
  8
4
  6
CONTINUOUS
 62
4
 10
-1.9922303706498
 20
0.912135060388005
 30
0.0
 40
0.0393700790000001
 50
9.00000000075982
 51
54.0000000006137
  0
ARC
  8
4
  6
CONTINUOUS
 62
4
 10
-1.70198124287789
 20
0.701256725351143
 30
0.0
 40
0.0393700790000001
 50
54.0000000009062
 51
99.0000000007599
  0
ARC
  8
4
  6
CONTINUOUS
 62
4
 10
-1.34763061568732
 20
0.757380351123123
 30
0.0
 40
0.0393700789999999
 50
99.0000000010527
 51
144.000000000468
  0
ARC
  8
4
  6
CONTINUOUS
 62
4
 10
-1.13675228065172
 20
1.04762947889584
 30
0.0
 40
0.0393700789999996
 50
144.000000000467
 51
189.000000001053
  0
ARC
  8
4
  6
CONTINUOUS
 62
4
 10
-1.19287590642558
 20
1.4019801060866
 30
0.0
 40
0.0393700790000002
 50
189.000000001345
 51
234.000000001199
  0
ARC
  8
4
  6
CONTINUOUS
 62
4
 10
-1.48312503419964
 20
1.6128584411205
 30
0.0
 40
0.0393700790000005
 50
234.00000000149
 51
279.000000001344
  0
ARC
  8
4
  6
CONTINUOUS
 62
4
 10
-1.83747566138636
 20
1.55673481534913
 30
0.0
 40
0.0393700790000004
 50
279.000000000467
 51
324.000000000467
  0
LINE
  8
4
  6
CONTINUOUS
 62
4
 10
-2.0094686283982
 20
-1.27264452487207
 30
0.0
 11
-2.03683635026562
 21
-1.44543752027939
 31
0.0
  0
LINE
  8
4
  6
CONTINUOUS
 62
4
 10
-1.83131682410344
 20
-1.51784944739071
 30
0.0
 11
-2.00410981951541
 21
-1.49048172552255
 31
0.0
  0
ARC
  8
4
  6
CONTINUOUS
 62
4
 10
-1.99795098226893
 20
-1.45159635752587
 30
0.0
 40
0.039370079
 50
171.0000000007
 51
261.000000000701
  0
LINE
  8
4
  6
CONTINUOUS
 62
4
 10
-1.80562459836932
 20
-1.53359366356921
 30
0.0
 11
-1.70279340129019
 21
-1.67512866408486
 31
0.0
  0
LINE
  8
4
  6
CONTINUOUS
 62
4
 10
-1.50626618597566
 20
-1.58100737816801
 30
0.0
 11
-1.64780118649138
 21
-1.68383857524714
 31
0.0
  0
ARC
  8
4
  6
CONTINUOUS
 62
4
 10
-1.67094233830965
 20
-1.6519875122666
 30
0.0
 40
0.0393700789999999
 50
216.000000000846
 51
306.000000000848
  0
LINE
  8
4
  6
CONTINUOUS
 62
4
 10
-1.47696619691111
 20
-1.57397307315183
 30
0.0
 11
-1.30417320149895
 21
-1.60134079501911
 31
0.0
  0
LINE
  8
4
  6
CONTINUOUS
 62
4
 10
-1.23176127438867
 20
-1.39582126885651
 30
0.0
 11
-1.25912899625595
 21
-1.56861426426868
 31
0.0
  0
ARC
  8
4
  6
CONTINUOUS
 62
4
 10
-1.29801436425267
 20
-1.5624554270224
 30
0.0
 40
0.0393700789999999
 50
261.000000000992
 51
351.000000000994
  0
LINE
  8
4
  6
CONTINUOUS
 62
4
 10
-1.21601705821037
 20
-1.37012904312237
 30
0.0
 11
-1.07448205769518
 21
-1.26729784604251
 31
0.0
  0
LINE
  8
4
  6
CONTINUOUS
 62
4
 10
-1.16860334361324
 20
-1.07077063072839
 30
0.0
 11
-1.06577214653318
 21
-1.21230563124366
 31
0.0
  0
ARC
  8
4
  6
CONTINUOUS
 62
4
 10
-1.0976232095136
 20
-1.23544678306209
 30
0.0
 40
0.0393700789999999
 50
306.000000001138
 51
36.0000000011404
  0
LINE
  8
4
  6
CONTINUOUS
 62
4
 10
-1.17563764862939
 20
-1.04147064166413
 30
0.0
 11
-1.14826992676296
 21
-0.868677646251648
 31
0.0
  0
LINE
  8
4
  6
CONTINUOUS
 62
4
 10
-1.35378945292565
 20
-0.796265719142461
 30
0.0
 11
-1.18099645751362
 21
-0.823633441008817
 31
0.0
  0
ARC
  8
4
  6
CONTINUOUS
 62
4
 10
-1.18715529475971
 20
-0.862518809005564
 30
0.0
 40
0.0393700790000001
 50
351.000000001285
 51
81.0000000012871
  0
LINE
  8
4
  6
CONTINUOUS
 62
4
 10
-1.37948167866016
 20
-0.780521502963893
 30
0.0
 11
-1.48231287574074
 21
-0.638986502449581
 31
0.0
  0
LINE
  8
4
  6
CONTINUOUS
 62
4
 10
-1.67884009105431
 20
-0.733107788368443
 30
0.0
 11
-1.53730509053963
 21
-0.630276591287861
 31
0.0
  0
ARC
  8
4
  6
CONTINUOUS
 62
4
 10
-1.51416393872104
 20
-0.662127654268166
 30
0.0
 40
0.039370079
 50
36.0000000014313
 51
126.000000001433
  0
LINE
  8
4
  6
CONTINUOUS
 62
4
 10
-1.70814008011878
 20
-0.740142093384916
 30
0.0
 11
-1.88093307553122
 21
-0.712774371519398
 31
0.0
  0
LINE
  8
4
  6
CONTINUOUS
 62
4
 10
-1.95334500263941
 20
-0.918293897682744
 30
0.0
 11
-1.92597728077389
 21
-0.745500902270292
 31
0.0
  0
ARC
  8
4
  6
CONTINUOUS
 62
4
 10
-1.88709191277711
 20
-0.751659739516177
 30
0.0
 40
0.0393700789999999
 50
81.0000000015775
 51
171.000000001579
  0
LINE
  8
4
  6
CONTINUOUS
 62
4
 10
-1.96908921881744
 20
-0.943986123417046
 30
0.0
 11
-2.11062421933158
 21
-1.04681732049835
 31
0.0
  0
LINE
  8
4
  6
CONTINUOUS
 62
4
 10
-2.01650293341428
 20
-1.24334453580741
 30
0.0
 11
-2.11933413049302
 21
-1.10180953529728
 31
0.0
  0
ARC
  8
4
  6
CONTINUOUS
 62
4
 10
-2.08748306751284
 20
-1.07866838347853
 30
0.0
 40
0.039370079
 50
126.000000001723
 51
216.000000001725
  0
ARC
  8
4
  6
CONTINUOUS
 62
4
 10
-1.83747566134992
 20
-1.55673481538739
 30
0.0
 40
0.0393700790000001
 50
36.0000000007018
 51
81.0000000007015
  0
ARC
  8
4
  6
CONTINUOUS
 62
4
 10
-1.48312503415739
 20
-1.61285844114855
 30
0.0
 40
0.0393700790000002
 50
81.0000000009937
 51
126.000000000848
  0
ARC
  8
4
  6
CONTINUOUS
 62
4
 10
-1.19287590639195
 20
-1.40198010610279
 30
0.0
 40
0.039370079
 50
126.00000000114
 51
171.000000000994
  0
ARC
  8
4
  6
CONTINUOUS
 62
4
 10
-1.13675228063264
 20
-1.04762947891021
 30
0.0
 40
0.0393700789999998
 50
171.000000001287
 51
216.000000000702
  0
ARC
  8
4
  6
CONTINUOUS
 62
4
 10
-1.34763061567956
 20
-0.757380351145714
 30
0.0
 40
0.0393700789999999
 50
216.0000000007
 51
261.000000001286
  0
ARC
  8
4
  6
CONTINUOUS
 62
4
 10
-1.70198124287289
 20
-0.701256725388137
 30
0.0
 40
0.0393700790000006
 50
261.000000001578
 51
306.000000001432
  0
ARC
  8
4
  6
CONTINUOUS
 62
4
 10
-1.99223037063618
 20
-0.912135060436858
 30
0.0
 40
0.0393700790000002
 50
306.000000001724
 51
351.000000001578
  0
ARC
  8
4
  6
CONTINUOUS
 62
4
 10
-2.04835399639488
 20
-1.26648568762559
 30
0.0
 40
0.0393700789999999
 50
351.000000000701
 51
36.0000000007011
  0
LINE
  8
4
  6
CONTINUOUS
 62
4
 10
0.589396912477974
 20
-2.30438701931009
 30
0.0
 11
0.745275725576227
 21
-2.38381124161743
 31
0.0
  0
LINE
  8
4
  6
CONTINUOUS
 62
4
 10
0.877652586972233
 20
-2.21072707310729
 30
0.0
 11
0.798228364662753
 21
-2.36660588620975
 31
0.0
  0
ARC
  8
4
  6
CONTINUOUS
 62
4
 10
0.76314936741565
 20
-2.34873224437033
 30
0.0
 40
0.0393700789999999
 50
243.000000000934
 51
333.000000000936
  0
LINE
  8
4
  6
CONTINUOUS
 62
4
 10
0.90056556073784
 20
-2.19115754476691
 30
0.0
 11
1.06694993271124
 21
-2.13709598516389
 31
0.0
  0
LINE
  8
4
  6
CONTINUOUS
 62
4
 10
1.03816551980642
 20
-1.92110241952905
 30
0.0
 11
1.09222707940942
 21
-2.08748679150253
 31
0.0
  0
ARC
  8
4
  6
CONTINUOUS
 62
4
 10
1.05478390922965
 20
-2.09965281498412
 30
0.0
 40
0.0393700789999998
 50
288.00000000108
 51
18.000000001082
  0
LINE
  8
4
  6
CONTINUOUS
 62
4
 10
1.040529692739
 20
-1.89106275420822
 30
0.0
 11
1.11995391504771
 21
-1.73518394110531
 31
0.0
  0
LINE
  8
4
  6
CONTINUOUS
 62
4
 10
0.946869746536849
 20
-1.60280707971017
 30
0.0
 11
1.10274855963976
 21
-1.68223130201888
 31
0.0
  0
ARC
  8
4
  6
CONTINUOUS
 62
4
 10
1.08487491780052
 20
-1.71731029926607
 30
0.0
 40
0.0393700789999999
 50
333.000000001226
 51
63.0000000012282
  0
LINE
  8
4
  6
CONTINUOUS
 62
4
 10
0.92730021819638
 20
-1.57989410594475
 30
0.0
 11
0.873238658592535
 21
-1.41350973397156
 31
0.0
  0
LINE
  8
4
  6
CONTINUOUS
 62
4
 10
0.657245092957712
 20
-1.44229414687765
 30
0.0
 11
0.82362946493104
 21
-1.38823258727363
 31
0.0
  0
ARC
  8
4
  6
CONTINUOUS
 62
4
 10
0.835795488412822
 20
-1.42567575745334
 30
0.0
 40
0.0393700789999998
 50
18.0000000013729
 51
108.000000001375
  0
LINE
  8
4
  6
CONTINUOUS
 62
4
 10
0.627205427637152
 20
-1.43992997394513
 30
0.0
 11
0.471326614533685
 21
-1.36050575163714
 31
0.0
  0
LINE
  8
4
  6
CONTINUOUS
 62
4
 10
0.338949753139554
 20
-1.53358992014841
 30
0.0
 11
0.418373975447335
 21
-1.37771110704536
 31
0.0
  0
ARC
  8
4
  6
CONTINUOUS
 62
4
 10
0.45345297269462
 20
-1.39558474888443
 30
0.0
 40
0.0393700789999999
 50
63.0000000015191
 51
153.000000001521
  0
LINE
  8
4
  6
CONTINUOUS
 62
4
 10
0.316036779373763
 20
-1.55315944848916
 30
0.0
 11
0.149652407401193
 21
-1.60722100809396
 31
0.0
  0
LINE
  8
4
  6
CONTINUOUS
 62
4
 10
0.17843682030821
 20
-1.8232145737285
 30
0.0
 11
0.124375260703515
 21
-1.65683020175558
 31
0.0
  0
ARC
  8
4
  6
CONTINUOUS
 62
4
 10
0.161818430883166
 20
-1.64466417827361
 30
0.0
 40
0.0393700789999999
 50
108.000000001665
 51
198.000000001667
  0
LINE
  8
4
  6
CONTINUOUS
 62
4
 10
0.176072647375936
 20
-1.85325423904936
 30
0.0
 11
0.0966484250688205
 21
-2.00913305215308
 31
0.0
  0
LINE
  8
4
  6
CONTINUOUS
 62
4
 10
0.269732593581034
 20
-2.14150991354646
 30
0.0
 11
0.113853780477312
 21
-2.06208569123934
 31
0.0
  0
ARC
  8
4
  6
CONTINUOUS
 62
4
 10
0.131727422316197
 20
-2.02700669399196
 30
0.0
 40
0.0393700789999999
 50
153.000000001811
 51
243.000000001813
  0
LINE
  8
4
  6
CONTINUOUS
 62
4
 10
0.289302121921737
 20
-2.16442288731167
 30
0.0
 11
0.34336368152728
 21
-2.33080725928431
 31
0.0
  0
LINE
  8
4
  6
CONTINUOUS
 62
4
 10
0.559357247157057
 20
-2.30202284637739
 30
0.0
 11
0.392972875189033
 21
-2.35608440598174
 31
0.0
  0
ARC
  8
4
  6
CONTINUOUS
 62
4
 10
0.380806851706869
 20
-2.31864123580215
 30
0.0
 40
0.0393700789999999
 50
198.000000001957
 51
288.000000001959
  0
ARC
  8
4
  6
CONTINUOUS
 62
4
 10
0.912731584219336
 20
-2.22860071494672
 30
0.0
 40
0.0393700790000001
 50
108.000000000936
 51
153.000000000935
  0
ARC
  8
4
  6
CONTINUOUS
 62
4
 10
1.0756086899862
 20
-1.90893639604746
 30
0.0
 40
0.0393700790000002
 50
153.000000001228
 51
198.000000001082
  0
ARC
  8
4
  6
CONTINUOUS
 62
4
 10
0.964743388376094
 20
-1.56772808246297
 30
0.0
 40
0.0393700790000006
 50
198.000000001374
 51
243.000000001227
  0
ARC
  8
4
  6
CONTINUOUS
 62
4
 10
0.645079069476217
 20
-1.40485097669785
 30
0.0
 40
0.0393700789999999
 50
243.00000000152
 51
288.000000000935
  0
ARC
  8
4
  6
CONTINUOUS
 62
4
 10
0.303870755892268
 20
-1.51571627830935
 30
0.0
 40
0.039370079
 50
288.000000000934
 51
333.00000000152
  0
ARC
  8
4
  6
CONTINUOUS
 62
4
 10
0.140993650128559
 20
-1.83538059721048
 30
0.0
 40
0.0393700790000003
 50
333.000000001812
 51
18.0000000016666
  0
ARC
  8
4
  6
CONTINUOUS
 62
4
 10
0.251858951742148
 20
-2.17658891079384
 30
0.0
 40
0.0393700790000004
 50
18.0000000019587
 51
63.0000000018122
  0
ARC
  8
4
  6
CONTINUOUS
 62
4
 10
0.571523270638552
 20
-2.33946601655719
 30
0.0
 40
0.039370079
 50
63.0000000009359
 51
108.000000000935
  0
LINE
  8
5
  6
CONTINUOUS
 62
5
 10
2.362204724
 20
0.787401574000002
 30
0.0
 11
2.637795275
 21
0.787401574000002
 31
0.0
  0
LINE
  8
5
  6
CONTINUOUS
 62
5
 10
2.755905511
 20
0.393700787000001
 30
0.0
 11
2.755905511
 21
0.669291338000002
 31
0.0
  0
LINE
  8
5
  6
CONTINUOUS
 62
5
 10
2.755905511
 20
0.393700787000001
 30
0.0
 11
2.48031496
 21
0.393700787000001
 31
0.0
  0
LINE
  8
5
  6
CONTINUOUS
 62
5
 10
2.362204724
 20
0.787401574000002
 30
0.0
 11
2.362204724
 21
0.511811023000001
 31
0.0
  0
ARC
  8
5
  6
CONTINUOUS
 62
5
 10
2.48031496
 20
0.511811022999997
 30
0.0
 40
0.118110236
 50
179.999999999998
 51
269.999999999998
  0
ARC
  8
5
  6
CONTINUOUS
 62
5
 10
2.637795275
 20
0.669291338000005
 30
0.0
 40
0.118110236
 50
359.999999999997
 51
89.9999999999992
  0
LINE
  8
5
  6
CONTINUOUS
 62
5
 10
1.69011544075169
 20
0.835165488737832
 30
0.0
 11
1.88498738819423
 21
1.03003743618137
 31
0.0
  0
LINE
  8
5
  6
CONTINUOUS
 62
5
 10
2.24689243324405
 20
0.835165488739253
 30
0.0
 11
2.05202048580051
 21
1.03003743618179
 31
0.0
  0
LINE
  8
5
  6
CONTINUOUS
 62
5
 10
2.24689243324405
 20
0.835165488739253
 30
0.0
 11
2.05202048580151
 21
0.640293541295719
 31
0.0
  0
LINE
  8
5
  6
CONTINUOUS
 62
5
 10
1.69011544075169
 20
0.835165488737832
 30
0.0
 11
1.88498738819522
 21
0.640293541295292
 31
0.0
  0
ARC
  8
5
  6
CONTINUOUS
 62
5
 10
1.96850393699815
 20
0.723810090098645
 30
0.0
 40
0.118110236
 50
225.000000000143
 51
315.000000000143
  0
ARC
  8
5
  6
CONTINUOUS
 62
5
 10
1.96850393699758
 20
0.946520887378437
 30
0.0
 40
0.118110236
 50
45.0000000001457
 51
135.000000000146
  0
LINE
  8
5
  6
CONTINUOUS
 62
5
 10
1.18110236299799
 20
0.393700786995981
 30
0.0
 11
1.18110236299658
 21
0.669291337995982
 31
0.0
  0
LINE
  8
5
  6
CONTINUOUS
 62
5
 10
1.57480314999598
 20
0.787401573997991
 30
0.0
 11
1.29921259899598
 21
0.787401573996585
 31
0.0
  0
LINE
  8
5
  6
CONTINUOUS
 62
5
 10
1.57480314999598
 20
0.787401573997991
 30
0.0
 11
1.57480314999739
 21
0.51181102299799
 31
0.0
  0
LINE
  8
5
  6
CONTINUOUS
 62
5
 10
1.18110236299799
 20
0.393700786995981
 30
0.0
 11
1.45669291399799
 21
0.393700786997387
 31
0.0
  0
ARC
  8
5
  6
CONTINUOUS
 62
5
 10
1.45669291399739
 20
0.511811022997387
 30
0.0
 40
0.118110236
 50
270.000000000289
 51
2.91593253196575E-10
  0
ARC
  8
5
  6
CONTINUOUS
 62
5
 10
1.29921259899658
 20
0.669291337996585
 30
0.0
 40
0.118110236
 50
90.000000000292
 51
180.000000000292
  0
LINE
  8
5
  6
CONTINUOUS
 62
5
 10
1.13333844826359
 20
-0.278388496252575
 30
0.0
 11
0.938466500819059
 21
-0.0835165488110294
 31
0.0
  0
LINE
  8
5
  6
CONTINUOUS
 62
5
 10
1.13333844825933
 20
0.278388496239786
 30
0.0
 11
0.93846650081778
 21
0.0835165487952574
 31
0.0
  0
LINE
  8
5
  6
CONTINUOUS
 62
5
 10
1.13333844825933
 20
0.278388496239786
 30
0.0
 11
1.32821039570385
 21
0.0835165487982404
 31
0.0
  0
LINE
  8
5
  6
CONTINUOUS
 62
5
 10
1.13333844826359
 20
-0.278388496252575
 30
0.0
 11
1.32821039570513
 21
-0.0835165488080463
 31
0.0
  0
ARC
  8
5
  6
CONTINUOUS
 62
5
 10
1.24469384690199
 20
-4.90210649850553E-12
 30
0.0
 40
0.118110236
 50
314.999999999999
 51
45.0000000000009
  0
ARC
  8
5
  6
CONTINUOUS
 62
5
 10
1.02198304962092
 20
-7.88570597709537E-12
 30
0.0
 40
0.118110236
 50
135
 51
225
  0
LINE
  8
5
  6
CONTINUOUS
 62
5
 10
1.57480315000804
 20
-0.78740157400402
 30
0.0
 11
1.29921259900804
 21
-0.787401574006833
 31
0.0
  0
LINE
  8
5
  6
CONTINUOUS
 62
5
 10
1.18110236300402
 20
-0.393700787008039
 30
0.0
 11
1.18110236300683
 21
-0.669291338008039
 31
0.0
  0
LINE
  8
5
  6
CONTINUOUS
 62
5
 10
1.18110236300402
 20
-0.393700787008039
 30
0.0
 11
1.45669291400402
 21
-0.393700787005226
 31
0.0
  0
LINE
  8
5
  6
CONTINUOUS
 62
5
 10
1.57480315000804
 20
-0.78740157400402
 30
0.0
 11
1.57480315000522
 21
-0.51181102300402
 31
0.0
  0
ARC
  8
5
  6
CONTINUOUS
 62
5
 10
1.45669291400522
 20
-0.511811023005224
 30
0.0
 40
0.118110236
 50
5.84096145032049E-10
 51
90.0000000005839
  0
ARC
  8
5
  6
CONTINUOUS
 62
5
 10
1.29921259900683
 20
-0.669291338006837
 30
0.0
 40
0.118110236
 50
180.000000000581
 51
270.000000000581
  0
LINE
  8
5
  6
CONTINUOUS
 62
5
 10
2.24689243325684
 20
-0.835165488734992
 30
0.0
 11
2.05202048581629
 21
-1.03003743618052
 31
0.0
  0
LINE
  8
5
  6
CONTINUOUS
 62
5
 10
1.69011544076448
 20
-0.835165488742095
 30
0.0
 11
1.88498738821
 21
-1.03003743618265
 31
0.0
  0
LINE
  8
5
  6
CONTINUOUS
 62
5
 10
1.69011544076448
 20
-0.835165488742095
 30
0.0
 11
1.88498738820503
 21
-0.640293541296572
 31
0.0
  0
LINE
  8
5
  6
CONTINUOUS
 62
5
 10
2.24689243325684
 20
-0.835165488734992
 30
0.0
 11
2.05202048581131
 21
-0.64029354129444
 31
0.0
  0
ARC
  8
5
  6
CONTINUOUS
 62
5
 10
1.96850393700924
 20
-0.723810090098649
 30
0.0
 40
0.118110236
 50
45.0000000007304
 51
135.000000000731
  0
ARC
  8
5
  6
CONTINUOUS
 62
5
 10
1.96850393701208
 20
-0.946520887378441
 30
0.0
 40
0.118110236
 50
225.000000000728
 51
315.000000000727
  0
LINE
  8
5
  6
CONTINUOUS
 62
5
 10
2.75590551100603
 20
-0.393700786987946
 30
0.0
 11
2.75590551101025
 21
-0.669291337987946
 31
0.0
  0
LINE
  8
5
  6
CONTINUOUS
 62
5
 10
2.36220472401206
 20
-0.787401573993973
 30
0.0
 11
2.63779527501206
 21
-0.787401573989754
 31
0.0
  0
LINE
  8
5
  6
CONTINUOUS
 62
5
 10
2.36220472401206
 20
-0.787401573993973
 30
0.0
 11
2.36220472400784
 21
-0.511811022993973
 31
0.0
  0
LINE
  8
5
  6
CONTINUOUS
 62
5
 10
2.75590551100603
 20
-0.393700786987946
 30
0.0
 11
2.48031496000603
 21
-0.393700786992165
 31
0.0
  0
ARC
  8
5
  6
CONTINUOUS
 62
5
 10
2.48031496000784
 20
-0.511811022992164
 30
0.0
 40
0.118110236
 50
90.0000000008765
 51
180.000000000877
  0
ARC
  8
5
  6
CONTINUOUS
 62
5
 10
2.63779527501025
 20
-0.669291337989754
 30
0.0
 40
0.118110236
 50
270.000000000874
 51
8.76287342508739E-10
  0
LINE
  8
5
  6
CONTINUOUS
 62
5
 10
2.80366942573357
 20
0.278388496261098
 30
0.0
 11
2.99854137318009
 21
0.0835165488215416
 31
0.0
  0
LINE
  8
5
  6
CONTINUOUS
 62
5
 10
2.80366942574352
 20
-0.278388496231263
 30
0.0
 11
2.99854137318307
 21
-0.083516548784745
 31
0.0
  0
LINE
  8
5
  6
CONTINUOUS
 62
5
 10
2.80366942574352
 20
-0.278388496231263
 30
0.0
 11
2.608797478297
 21
-0.083516548791706
 31
0.0
  0
LINE
  8
5
  6
CONTINUOUS
 62
5
 10
2.80366942573357
 20
0.278388496261098
 30
0.0
 11
2.60879747829401
 21
0.0835165488145806
 31
0.0
  0
ARC
  8
5
  6
CONTINUOUS
 62
5
 10
2.69231402709716
 20
1.14375869886274E-11
 30
0.0
 40
0.118110236
 50
135
 51
225
  0
ARC
  8
5
  6
CONTINUOUS
 62
5
 10
2.91502482437993
 20
1.83991849533882E-11
 30
0.0
 40
0.118110236
 50
314.999999999999
 51
45.0000000000009
  0
LINE
  8
5
  6
CONTINUOUS
 62
5
 10
-0.0189019939951453
 20
2.4899106633469
 30
0.0
 11
0.0662601697519404
 21
2.75201285270517
 31
0.0
  0
LINE
  8
5
  6
CONTINUOUS
 62
5
 10
0.477189938832494
 20
2.74268212841401
 30
0.0
 11
0.215087749474224
 21
2.8278442921611
 31
0.0
  0
LINE
  8
5
  6
CONTINUOUS
 62
5
 10
0.477189938832494
 20
2.74268212841401
 30
0.0
 11
0.392027775085409
 21
2.48057993905574
 31
0.0
  0
LINE
  8
5
  6
CONTINUOUS
 62
5
 10
-0.0189019939951453
 20
2.4899106633469
 30
0.0
 11
0.243200195363125
 21
2.40474849959981
 31
0.0
  0
ARC
  8
5
  6
CONTINUOUS
 62
5
 10
0.279698265496305
 20
2.51707800918892
 30
0.0
 40
0.118110236
 50
252.000000000231
 51
342.000000000231
  0
ARC
  8
5
  6
CONTINUOUS
 62
5
 10
0.178589679341047
 20
2.71551478257199
 30
0.0
 40
0.118110236
 50
72.0000000002334
 51
162.000000000234
  0
LINE
  8
5
  6
CONTINUOUS
 62
5
 10
-0.272015186608782
 20
1.86547563235229
 30
0.0
 11
-0.397130678582399
 21
2.11102861129712
 31
0.0
  0
LINE
  8
5
  6
CONTINUOUS
 62
5
 10
-0.0999616338551834
 20
2.39500201918651
 30
0.0
 11
-0.345514612800021
 21
2.26988652721289
 31
0.0
  0
LINE
  8
5
  6
CONTINUOUS
 62
5
 10
-0.0999616338551834
 20
2.39500201918651
 30
0.0
 11
0.0251538581184328
 21
2.14944904024167
 31
0.0
  0
LINE
  8
5
  6
CONTINUOUS
 62
5
 10
-0.272015186608782
 20
1.86547563235229
 30
0.0
 11
-0.0264622076639447
 21
1.9905911243259
 31
0.0
  0
ARC
  8
5
  6
CONTINUOUS
 62
5
 10
-0.0800831327306351
 20
2.09582811517497
 30
0.0
 40
0.118110236
 50
297.000000000377
 51
27.0000000003794
  0
ARC
  8
5
  6
CONTINUOUS
 62
5
 10
-0.291893687733327
 20
2.16464953636382
 30
0.0
 40
0.118110236
 50
117.00000000038
 51
207.00000000038
  0
LINE
  8
5
  6
CONTINUOUS
 62
5
 10
-0.00945099668535448
 20
1.24495533262135
 30
0.0
 11
-0.271553186044059
 21
1.3301174963671
 31
0.0
  0
LINE
  8
5
  6
CONTINUOUS
 62
5
 10
-0.262222461755001
 20
1.7410472654477
 30
0.0
 11
-0.347384625500749
 21
1.478945076089
 31
0.0
  0
LINE
  8
5
  6
CONTINUOUS
 62
5
 10
-0.262222461755001
 20
1.7410472654477
 30
0.0
 11
-0.000120272396295973
 21
1.65588510170195
 31
0.0
  0
LINE
  8
5
  6
CONTINUOUS
 62
5
 10
-0.00945099668535448
 20
1.24495533262135
 30
0.0
 11
0.075711167060394
 21
1.50705752198006
 31
0.0
  0
ARC
  8
5
  6
CONTINUOUS
 62
5
 10
-0.0366183425288984
 20
1.54355559211266
 30
0.0
 40
0.118110236
 50
342.000000000523
 51
72.0000000005255
  0
ARC
  8
5
  6
CONTINUOUS
 62
5
 10
-0.235055115911456
 20
1.44244700595639
 30
0.0
 40
0.118110236
 50
162.000000000523
 51
252.000000000523
  0
LINE
  8
5
  6
CONTINUOUS
 62
5
 10
0.614984034310552
 20
0.991842140010902
 30
0.0
 11
0.369431055366353
 21
0.866726648036032
 31
0.0
  0
LINE
  8
5
  6
CONTINUOUS
 62
5
 10
0.0854576474754545
 20
1.1638956927618
 30
0.0
 11
0.210573139450323
 21
0.918342713817599
 31
0.0
  0
LINE
  8
5
  6
CONTINUOUS
 62
5
 10
0.0854576474754545
 20
1.1638956927618
 30
0.0
 11
0.331010626419654
 21
1.28901118473667
 31
0.0
  0
LINE
  8
5
  6
CONTINUOUS
 62
5
 10
0.614984034310552
 20
0.991842140010902
 30
0.0
 11
0.489868542335683
 21
1.2373951189551
 31
0.0
  0
ARC
  8
5
  6
CONTINUOUS
 62
5
 10
0.384631551486884
 20
1.18377419388787
 30
0.0
 40
0.118110236
 50
27.0000000006719
 51
117.000000000672
  0
ARC
  8
5
  6
CONTINUOUS
 62
5
 10
0.315810130299125
 20
0.971963638884827
 30
0.0
 40
0.118110236
 50
207.000000000669
 51
297.000000000669
  0
LINE
  8
5
  6
CONTINUOUS
 62
5
 10
1.23550433404015
 20
1.2544063299375
 30
0.0
 11
1.15034217029574
 21
0.992304140578357
 31
0.0
  0
LINE
  8
5
  6
CONTINUOUS
 62
5
 10
0.739412401215086
 20
1.00163486486532
 30
0.0
 11
1.00151459057423
 21
0.916472701120908
 31
0.0
  0
LINE
  8
5
  6
CONTINUOUS
 62
5
 10
0.739412401215086
 20
1.00163486486532
 30
0.0
 11
0.824574564959497
 21
1.26373705422446
 31
0.0
  0
LINE
  8
5
  6
CONTINUOUS
 62
5
 10
1.23550433404015
 20
1.2544063299375
 30
0.0
 11
0.973402144681007
 21
1.33956849368191
 31
0.0
  0
ARC
  8
5
  6
CONTINUOUS
 62
5
 10
0.936904074548974
 20
1.22723898409243
 30
0.0
 40
0.118110236
 50
72.000000000818
 51
162.000000000818
  0
ARC
  8
5
  6
CONTINUOUS
 62
5
 10
1.03801266070626
 20
1.02880221071039
 30
0.0
 40
0.118110236
 50
252.000000000815
 51
342.000000000815
  0
LINE
  8
5
  6
CONTINUOUS
 62
5
 10
1.48861752664741
 20
1.87884136093469
 30
0.0
 11
1.61373301862353
 21
1.63328838199113
 31
0.0
  0
LINE
  8
5
  6
CONTINUOUS
 62
5
 10
1.31656397389922
 20
1.34931497409872
 30
0.0
 11
1.56211695284278
 21
1.47443046607484
 31
0.0
  0
LINE
  8
5
  6
CONTINUOUS
 62
5
 10
1.31656397389922
 20
1.34931497409872
 30
0.0
 11
1.19144848192309
 21
1.59486795304228
 31
0.0
  0
LINE
  8
5
  6
CONTINUOUS
 62
5
 10
1.48861752664741
 20
1.87884136093469
 30
0.0
 11
1.24306454770385
 21
1.75372586895857
 31
0.0
  0
ARC
  8
5
  6
CONTINUOUS
 62
5
 10
1.29668547277162
 20
1.64848887811005
 30
0.0
 40
0.118110236
 50
117.000000000965
 51
207.000000000965
  0
ARC
  8
5
  6
CONTINUOUS
 62
5
 10
1.50849602777501
 20
1.57966745692337
 30
0.0
 40
0.118110236
 50
297.000000000962
 51
27.000000000964
  0
LINE
  8
5
  6
CONTINUOUS
 62
5
 10
1.22605333671765
 20
2.49936166066295
 30
0.0
 11
1.48815552607722
 21
2.41419949691987
 31
0.0
  0
LINE
  8
5
  6
CONTINUOUS
 62
5
 10
1.47882480179236
 20
2.00326972783918
 30
0.0
 11
1.56398696553543
 21
2.26537191719875
 31
0.0
  0
LINE
  8
5
  6
CONTINUOUS
 62
5
 10
1.47882480179236
 20
2.00326972783918
 30
0.0
 11
1.21672261243278
 21
2.08843189158225
 31
0.0
  0
LINE
  8
5
  6
CONTINUOUS
 62
5
 10
1.22605333671765
 20
2.49936166066295
 30
0.0
 11
1.14089117297458
 21
2.23725947130337
 31
0.0
  0
ARC
  8
5
  6
CONTINUOUS
 62
5
 10
1.25322068256424
 20
2.20076140117192
 30
0.0
 40
0.118110236
 50
162.000000001108
 51
252.000000001108
  0
ARC
  8
5
  6
CONTINUOUS
 62
5
 10
1.45165745594577
 20
2.30186998733021
 30
0.0
 40
0.118110236
 50
342.000000001108
 51
72.0000000011103
  0
LINE
  8
5
  6
CONTINUOUS
 62
5
 10
0.601618305719159
 20
2.75247485326703
 30
0.0
 11
0.847171284662081
 21
2.8775903452444
 31
0.0
  0
LINE
  8
5
  6
CONTINUOUS
 62
5
 10
1.13114469255601
 20
2.58042130052153
 30
0.0
 11
1.00602920057864
 21
2.82597427946446
 31
0.0
  0
LINE
  8
5
  6
CONTINUOUS
 62
5
 10
1.13114469255601
 20
2.58042130052153
 30
0.0
 11
0.88559171361309
 21
2.45530580854416
 31
0.0
  0
LINE
  8
5
  6
CONTINUOUS
 62
5
 10
0.601618305719159
 20
2.75247485326703
 30
0.0
 11
0.726733797696534
 21
2.5069218743241
 31
0.0
  0
ARC
  8
5
  6
CONTINUOUS
 62
5
 10
0.831970788544787
 20
2.56054279939241
 30
0.0
 40
0.118110236
 50
207.000000001254
 51
297.000000001254
  0
ARC
  8
5
  6
CONTINUOUS
 62
5
 10
0.900792209730386
 20
2.77235335439615
 30
0.0
 40
0.118110236
 50
27.0000000012565
 51
117.000000001257
  0
LINE
  8
5
  6
CONTINUOUS
 62
5
 10
-2.373886798744
 20
0.751447844879844
 30
0.0
 11
-2.59684423799348
 21
0.91343590642698
 31
0.0
  0
LINE
  8
5
  6
CONTINUOUS
 62
5
 10
-2.46098590971574
 20
1.30136998867546
 30
0.0
 11
-2.62297397126288
 21
1.07841254942599
 31
0.0
  0
LINE
  8
5
  6
CONTINUOUS
 62
5
 10
-2.46098590971574
 20
1.30136998867546
 30
0.0
 11
-2.23802847046626
 21
1.13938192712833
 31
0.0
  0
LINE
  8
5
  6
CONTINUOUS
 62
5
 10
-2.373886798744
 20
0.751447844879844
 30
0.0
 11
-2.21189873719686
 21
0.974405284129323
 31
0.0
  0
ARC
  8
5
  6
CONTINUOUS
 62
5
 10
-2.30745192533106
 20
1.04382873899413
 30
0.0
 40
0.118110236
 50
324.000000000464
 51
54.000000000467
  0
ARC
  8
5
  6
CONTINUOUS
 62
5
 10
-2.52742078312868
 20
1.00898909456118
 30
0.0
 40
0.118110236
 50
144.000000000467
 51
234.000000000467
  0
LINE
  8
5
  6
CONTINUOUS
 62
5
 10
-1.85823007152995
 20
0.317761857226097
 30
0.0
 11
-2.13042764553038
 21
0.274649996807352
 31
0.0
  0
LINE
  8
5
  6
CONTINUOUS
 62
5
 10
-2.30867212053675
 20
0.645027162224036
 30
0.0
 11
-2.265560260118
 21
0.372829588223608
 31
0.0
  0
LINE
  8
5
  6
CONTINUOUS
 62
5
 10
-2.30867212053675
 20
0.645027162224036
 30
0.0
 11
-2.03647454653632
 21
0.688139022642781
 31
0.0
  0
LINE
  8
5
  6
CONTINUOUS
 62
5
 10
-1.85823007152995
 20
0.317761857226097
 30
0.0
 11
-1.90134193194869
 21
0.589959431226525
 31
0.0
  0
ARC
  8
5
  6
CONTINUOUS
 62
5
 10
-2.01799803495063
 20
0.571482919640839
 30
0.0
 40
0.118110236
 50
9.00000000061339
 51
99.0000000006131
  0
ARC
  8
5
  6
CONTINUOUS
 62
5
 10
-2.14890415711606
 20
0.39130609980929
 30
0.0
 40
0.118110236
 50
189.000000000611
 51
279.00000000061
  0
LINE
  8
5
  6
CONTINUOUS
 62
5
 10
-1.18694340017703
 20
0.375723923029777
 30
0.0
 11
-1.34893146172303
 21
0.152766483779472
 31
0.0
  0
LINE
  8
5
  6
CONTINUOUS
 62
5
 10
-1.7368655439722
 20
0.288624812055229
 30
0.0
 11
-1.5139081047219
 21
0.12663675050923
 31
0.0
  0
LINE
  8
5
  6
CONTINUOUS
 62
5
 10
-1.7368655439722
 20
0.288624812055229
 30
0.0
 11
-1.5748774824262
 21
0.511582251305534
 31
0.0
  0
LINE
  8
5
  6
CONTINUOUS
 62
5
 10
-1.18694340017703
 20
0.375723923029777
 30
0.0
 11
-1.40990083942733
 21
0.537711984575776
 31
0.0
  0
ARC
  8
5
  6
CONTINUOUS
 62
5
 10
-1.47932429429165
 20
0.442158796441219
 30
0.0
 40
0.118110236
 50
54.0000000007596
 51
144.00000000076
  0
ARC
  8
5
  6
CONTINUOUS
 62
5
 10
-1.44448464985758
 20
0.222189938643783
 30
0.0
 40
0.118110236
 50
234.000000000757
 51
324.000000000757
  0
LINE
  8
5
  6
CONTINUOUS
 62
5
 10
-0.753257412525911
 20
0.891380650246042
 30
0.0
 11
-0.710145552105777
 21
0.619183076245834
 31
0.0
  0
LINE
  8
5
  6
CONTINUOUS
 62
5
 10
-1.08052271752155
 20
0.440938601237572
 30
0.0
 11
-0.808325143521344
 21
0.484050461657705
 31
0.0
  0
LINE
  8
5
  6
CONTINUOUS
 62
5
 10
-1.08052271752155
 20
0.440938601237572
 30
0.0
 11
-1.12363457794169
 21
0.71313617523778
 31
0.0
  0
LINE
  8
5
  6
CONTINUOUS
 62
5
 10
-0.753257412525911
 20
0.891380650246042
 30
0.0
 11
-1.02545498652612
 21
0.848268789825909
 31
0.0
  0
ARC
  8
5
  6
CONTINUOUS
 62
5
 10
-1.00697847493984
 20
0.731612686824061
 30
0.0
 40
0.118110236
 50
99.0000000009059
 51
189.000000000906
  0
ARC
  8
5
  6
CONTINUOUS
 62
5
 10
-0.826801655107621
 20
0.600706564659553
 30
0.0
 40
0.118110236
 50
279.000000000903
 51
9.00000000090569
  0
LINE
  8
5
  6
CONTINUOUS
 62
5
 10
-0.811219478333017
 20
1.56266732159867
 30
0.0
 11
-0.588262039081885
 21
1.40067926005381
 31
0.0
  0
LINE
  8
5
  6
CONTINUOUS
 62
5
 10
-0.724120367355663
 20
1.01274517780394
 30
0.0
 11
-0.562132305810802
 21
1.23570261705507
 31
0.0
  0
LINE
  8
5
  6
CONTINUOUS
 62
5
 10
-0.724120367355663
 20
1.01274517780394
 30
0.0
 11
-0.947077806606795
 21
1.1747332393488
 31
0.0
  0
LINE
  8
5
  6
CONTINUOUS
 62
5
 10
-0.811219478333017
 20
1.56266732159867
 30
0.0
 11
-0.973207539877878
 21
1.33970988234753
 31
0.0
  0
ARC
  8
5
  6
CONTINUOUS
 62
5
 10
-0.877654351742971
 20
1.27028642748371
 30
0.0
 40
0.118110236
 50
144.000000001049
 51
234.000000001049
  0
ARC
  8
5
  6
CONTINUOUS
 62
5
 10
-0.65768549394571
 20
1.3051260719189
 30
0.0
 40
0.118110236
 50
324.000000001049
 51
54.0000000010518
  0
LINE
  8
5
  6
CONTINUOUS
 62
5
 10
-1.3268762055515
 20
1.99635330924715
 30
0.0
 11
-1.05467863155151
 21
2.03946516966867
 31
0.0
  0
LINE
  8
5
  6
CONTINUOUS
 62
5
 10
-0.876434156541355
 20
1.66908800425381
 30
0.0
 11
-0.919546016962878
 21
1.9412855782538
 31
0.0
  0
LINE
  8
5
  6
CONTINUOUS
 62
5
 10
-0.876434156541355
 20
1.66908800425381
 30
0.0
 11
-1.14863173054134
 21
1.62597614383229
 31
0.0
  0
LINE
  8
5
  6
CONTINUOUS
 62
5
 10
-1.3268762055515
 20
1.99635330924715
 30
0.0
 11
-1.28376434512997
 21
1.72415573524716
 31
0.0
  0
ARC
  8
5
  6
CONTINUOUS
 62
5
 10
-1.16710824212822
 20
1.74263224683404
 30
0.0
 40
0.118110236
 50
189.000000001195
 51
279.000000001195
  0
ARC
  8
5
  6
CONTINUOUS
 62
5
 10
-1.03620211996463
 20
1.92280906666692
 30
0.0
 40
0.118110236
 50
9.00000000119815
 51
99.0000000011979
  0
LINE
  8
5
  6
CONTINUOUS
 62
5
 10
-1.99816287690382
 20
1.93839124343662
 30
0.0
 11
-1.8361748153601
 21
2.16134868268858
 31
0.0
  0
LINE
  8
5
  6
CONTINUOUS
 62
5
 10
-1.44824073310954
 20
2.02549035441678
 30
0.0
 11
-1.6711981723615
 21
2.1874784159605
 31
0.0
  0
LINE
  8
5
  6
CONTINUOUS
 62
5
 10
-1.44824073310954
 20
2.02549035441678
 30
0.0
 11
-1.61022879465326
 21
1.80253291516482
 31
0.0
  0
LINE
  8
5
  6
CONTINUOUS
 62
5
 10
-1.99816287690382
 20
1.93839124343662
 30
0.0
 11
-1.77520543765187
 21
1.7764031818929
 31
0.0
  0
ARC
  8
5
  6
CONTINUOUS
 62
5
 10
-1.70578198278852
 20
1.87195637002816
 30
0.0
 40
0.118110236
 50
234.000000001343
 51
324.000000001342
  0
ARC
  8
5
  6
CONTINUOUS
 62
5
 10
-1.74062162722484
 20
2.09192522782524
 30
0.0
 40
0.118110236
 50
54.0000000013447
 51
144.000000001345
  0
LINE
  8
5
  6
CONTINUOUS
 62
5
 10
-2.43184886454968
 20
1.42273451621593
 30
0.0
 11
-2.47496072497259
 21
1.6949320902157
 31
0.0
  0
LINE
  8
5
  6
CONTINUOUS
 62
5
 10
-2.10458355955863
 20
1.87317656522774
 30
0.0
 11
-2.3767811335584
 21
1.83006470480483
 31
0.0
  0
LINE
  8
5
  6
CONTINUOUS
 62
5
 10
-2.10458355955863
 20
1.87317656522774
 30
0.0
 11
-2.06147169913572
 21
1.60097899122797
 31
0.0
  0
LINE
  8
5
  6
CONTINUOUS
 62
5
 10
-2.43184886454968
 20
1.42273451621593
 30
0.0
 11
-2.15965129054991
 21
1.46584637663884
 31
0.0
  0
ARC
  8
5
  6
CONTINUOUS
 62
5
 10
-2.17812780213738
 20
1.5825024796405
 30
0.0
 40
0.118110236
 50
279.000000001489
 51
9.00000000149085
  0
ARC
  8
5
  6
CONTINUOUS
 62
5
 10
-2.35830462197093
 20
1.71340860180317
 30
0.0
 40
0.118110236
 50
99.0000000014905
 51
189.000000001491
  0
LINE
  8
5
  6
CONTINUOUS
 62
5
 10
-1.44824073305489
 20
-2.02549035444413
 30
0.0
 11
-1.67119817230106
 21
-2.18747841599582
 31
0.0
  0
LINE
  8
5
  6
CONTINUOUS
 62
5
 10
-1.99816287685229
 20
-1.93839124348362
 30
0.0
 11
-1.8361748153006
 21
-2.16134868272979
 31
0.0
  0
LINE
  8
5
  6
CONTINUOUS
 62
5
 10
-1.99816287685229
 20
-1.93839124348362
 30
0.0
 11
-1.77520543760612
 21
-1.77640318193193
 31
0.0
  0
LINE
  8
5
  6
CONTINUOUS
 62
5
 10
-1.44824073305489
 20
-2.02549035444413
 30
0.0
 11
-1.61022879460658
 21
-1.80253291519796
 31
0.0
  0
ARC
  8
5
  6
CONTINUOUS
 62
5
 10
-1.70578198273937
 20
-1.87195637006472
 30
0.0
 40
0.118110236
 50
36.0000000007011
 51
126.000000000702
  0
ARC
  8
5
  6
CONTINUOUS
 62
5
 10
-1.74062162716782
 20
-2.09192522786304
 30
0.0
 40
0.118110236
 50
216.0000000007
 51
306.0000000007
  0
LINE
  8
5
  6
CONTINUOUS
 62
5
 10
-0.876434156499443
 20
-1.66908800426073
 30
0.0
 11
-0.919546016911242
 21
-1.94128557826226
 31
0.0
  0
LINE
  8
5
  6
CONTINUOUS
 62
5
 10
-1.32687620549789
 20
-1.99635330927017
 30
0.0
 11
-1.05467863149636
 21
-2.03946516968197
 31
0.0
  0
LINE
  8
5
  6
CONTINUOUS
 62
5
 10
-1.32687620549789
 20
-1.99635330927017
 30
0.0
 11
-1.28376434508609
 21
-1.72415573526864
 31
0.0
  0
LINE
  8
5
  6
CONTINUOUS
 62
5
 10
-0.876434156499443
 20
-1.66908800426073
 30
0.0
 11
-1.14863173050097
 21
-1.62597614384893
 31
0.0
  0
ARC
  8
5
  6
CONTINUOUS
 62
5
 10
-1.16710824208368
 20
-1.74263224685135
 30
0.0
 40
0.118110236
 50
81.0000000008475
 51
171.000000000848
  0
ARC
  8
5
  6
CONTINUOUS
 62
5
 10
-1.03620211991365
 20
-1.92280906667955
 30
0.0
 40
0.118110236
 50
261.000000000847
 51
351.000000000844
  0
LINE
  8
5
  6
CONTINUOUS
 62
5
 10
-0.724120367337199
 20
-1.01274517780542
 30
0.0
 11
-0.562132305784374
 21
-1.23570261705076
 31
0.0
  0
LINE
  8
5
  6
CONTINUOUS
 62
5
 10
-0.811219478294909
 20
-1.56266732160326
 30
0.0
 11
-0.588262039049562
 21
-1.40067926005044
 31
0.0
  0
LINE
  8
5
  6
CONTINUOUS
 62
5
 10
-0.811219478294909
 20
-1.56266732160326
 30
0.0
 11
-0.973207539847734
 21
-1.33970988235792
 31
0.0
  0
LINE
  8
5
  6
CONTINUOUS
 62
5
 10
-0.724120367337199
 20
-1.01274517780542
 30
0.0
 11
-0.947077806582545
 21
-1.17473323935824
 31
0.0
  0
ARC
  8
5
  6
CONTINUOUS
 62
5
 10
-0.877654351715303
 20
-1.27028642749067
 30
0.0
 40
0.118110236
 50
126.000000000994
 51
216.000000000994
  0
ARC
  8
5
  6
CONTINUOUS
 62
5
 10
-0.657685493916801
 20
-1.305126071918
 30
0.0
 40
0.118110236
 50
306.000000000991
 51
36.0000000009935
  0
LINE
  8
5
  6
CONTINUOUS
 62
5
 10
-1.08052271752352
 20
-0.440938601251787
 30
0.0
 11
-0.808325143521768
 21
-0.484050461662198
 31
0.0
  0
LINE
  8
5
  6
CONTINUOUS
 62
5
 10
-0.753257412511784
 20
-0.891380650248567
 30
0.0
 11
-0.710145552101374
 21
-0.619183076246819
 31
0.0
  0
LINE
  8
5
  6
CONTINUOUS
 62
5
 10
-0.753257412511784
 20
-0.891380650248567
 30
0.0
 11
-1.02545498651353
 21
-0.848268789838157
 31
0.0
  0
LINE
  8
5
  6
CONTINUOUS
 62
5
 10
-1.08052271752352
 20
-0.440938601251787
 30
0.0
 11
-1.12363457793393
 21
-0.713136175253536
 31
0.0
  0
ARC
  8
5
  6
CONTINUOUS
 62
5
 10
-1.00697847493142
 20
-0.731612686835653
 30
0.0
 40
0.118110236
 50
171.000000001137
 51
261.000000001138
  0
ARC
  8
5
  6
CONTINUOUS
 62
5
 10
-0.826801655103881
 20
-0.600706564664701
 30
0.0
 40
0.118110236
 50
351.000000001137
 51
81.0000000011395
  0
LINE
  8
5
  6
CONTINUOUS
 62
5
 10
-1.73686554397961
 20
-0.288624812092893
 30
0.0
 11
-1.51390810473509
 21
-0.126636750538929
 31
0.0
  0
LINE
  8
5
  6
CONTINUOUS
 62
5
 10
-1.18694340018132
 20
-0.375723923047796
 30
0.0
 11
-1.34893146173529
 21
-0.152766483803277
 31
0.0
  0
LINE
  8
5
  6
CONTINUOUS
 62
5
 10
-1.18694340018132
 20
-0.375723923047796
 30
0.0
 11
-1.40990083942584
 21
-0.537711984601759
 31
0.0
  0
LINE
  8
5
  6
CONTINUOUS
 62
5
 10
-1.73686554397961
 20
-0.288624812092893
 30
0.0
 11
-1.57487748242565
 21
-0.511582251337412
 31
0.0
  0
ARC
  8
5
  6
CONTINUOUS
 62
5
 10
-1.47932429429357
 20
-0.442158796469686
 30
0.0
 40
0.118110236
 50
216.000000001283
 51
306.000000001283
  0
ARC
  8
5
  6
CONTINUOUS
 62
5
 10
-1.44448464986736
 20
-0.222189938671006
 30
0.0
 40
0.118110236
 50
36.000000001286
 51
126.000000001286
  0
LINE
  8
5
  6
CONTINUOUS
 62
5
 10
-2.30867212053142
 20
-0.645027162282128
 30
0.0
 11
-2.2655602601224
 21
-0.37282958828016
 31
0.0
  0
LINE
  8
5
  6
CONTINUOUS
 62
5
 10
-1.85823007153631
 20
-0.317761857268097
 30
0.0
 11
-2.13042764553828
 21
-0.274649996859076
 31
0.0
  0
LINE
  8
5
  6
CONTINUOUS
 62
5
 10
-1.85823007153631
 20
-0.317761857268097
 30
0.0
 11
-1.90134193194533
 21
-0.589959431270066
 31
0.0
  0
LINE
  8
5
  6
CONTINUOUS
 62
5
 10
-2.30867212053142
 20
-0.645027162282128
 30
0.0
 11
-2.03647454652945
 21
-0.688139022691149
 31
0.0
  0
ARC
  8
5
  6
CONTINUOUS
 62
5
 10
-2.01799803494793
 20
-0.571482919688547
 30
0.0
 40
0.118110236
 50
261.000000001429
 51
351.000000001429
  0
ARC
  8
5
  6
CONTINUOUS
 62
5
 10
-2.1489041571198
 20
-0.391306099861678
 30
0.0
 40
0.118110236
 50
81.0000000014321
 51
171.000000001433
  0
LINE
  8
5
  6
CONTINUOUS
 62
5
 10
-2.46098590968697
 20
-1.301369988739
 30
0.0
 11
-2.62297397124207
 21
-1.07841254949531
 31
0.0
  0
LINE
  8
5
  6
CONTINUOUS
 62
5
 10
-2.37388679873487
 20
-0.751447844940266
 30
0.0
 11
-2.59684423797856
 21
-0.913435906495367
 31
0.0
  0
LINE
  8
5
  6
CONTINUOUS
 62
5
 10
-2.37388679873487
 20
-0.751447844940266
 30
0.0
 11
-2.21189873717977
 21
-0.974405284183959
 31
0.0
  0
LINE
  8
5
  6
CONTINUOUS
 62
5
 10
-2.46098590968697
 20
-1.301369988739
 30
0.0
 11
-2.23802847044327
 21
-1.1393819271839
 31
0.0
  0
ARC
  8
5
  6
CONTINUOUS
 62
5
 10
-2.30745192531149
 20
-1.04382873905217
 30
0.0
 40
0.118110236
 50
306.000000001576
 51
36.0000000015781
  0
ARC
  8
5
  6
CONTINUOUS
 62
5
 10
-2.52742078311035
 20
-1.00898909462709
 30
0.0
 40
0.118110236
 50
126.000000001579
 51
216.000000001579
  0
LINE
  8
5
  6
CONTINUOUS
 62
5
 10
-2.10458355949481
 20
-1.87317656528899
 30
0.0
 11
-2.376781133497
 21
-1.83006470488136
 31
0.0
  0
LINE
  8
5
  6
CONTINUOUS
 62
5
 10
-2.43184886451114
 20
-1.42273451629555
 30
0.0
 11
-2.47496072491878
 21
-1.69493209029774
 31
0.0
  0
LINE
  8
5
  6
CONTINUOUS
 62
5
 10
-2.43184886451114
 20
-1.42273451629555
 30
0.0
 11
-2.15965129050896
 21
-1.46584637670318
 31
0.0
  0
LINE
  8
5
  6
CONTINUOUS
 62
5
 10
-2.10458355949481
 20
-1.87317656528899
 30
0.0
 11
-2.06147169908718
 21
-1.6009789912868
 31
0.0
  0
ARC
  8
5
  6
CONTINUOUS
 62
5
 10
-2.17812780208988
 20
-1.58250247970588
 30
0.0
 40
0.118110236
 50
351.000000001722
 51
81.0000000017244
  0
ARC
  8
5
  6
CONTINUOUS
 62
5
 10
-2.35830462191608
 20
-1.71340860187866
 30
0.0
 40
0.118110236
 50
171.000000001722
 51
261.000000001721
  0
LINE
  8
5
  6
CONTINUOUS
 62
5
 10
1.47882480183526
 20
-2.00326972779566
 30
0.0
 11
1.5639869655877
 21
-2.26537191715219
 31
0.0
  0
LINE
  8
5
  6
CONTINUOUS
 62
5
 10
1.22605333677827
 20
-2.49936166062846
 30
0.0
 11
1.4881555261348
 21
-2.41419949687603
 31
0.0
  0
LINE
  8
5
  6
CONTINUOUS
 62
5
 10
1.22605333677827
 20
-2.49936166062846
 30
0.0
 11
1.14089117302584
 21
-2.23725947127193
 31
0.0
  0
LINE
  8
5
  6
CONTINUOUS
 62
5
 10
1.47882480183526
 20
-2.00326972779566
 30
0.0
 11
1.21672261247873
 21
-2.0884318915481
 31
0.0
  0
ARC
  8
5
  6
CONTINUOUS
 62
5
 10
1.2532206826142
 20
-2.20076140113646
 30
0.0
 40
0.118110236
 50
108.000000000936
 51
198.000000000935
  0
ARC
  8
5
  6
CONTINUOUS
 62
5
 10
1.45165745599933
 20
-2.30186998728766
 30
0.0
 40
0.118110236
 50
288.000000000932
 51
18.0000000009348
  0
LINE
  8
5
  6
CONTINUOUS
 62
5
 10
1.31656397391875
 20
-1.349314974061
 30
0.0
 11
1.56211695286678
 21
-1.47443046602835
 31
0.0
  0
LINE
  8
5
  6
CONTINUOUS
 62
5
 10
1.48861752668586
 20
-1.87884136089083
 30
0.0
 11
1.61373301865322
 21
-1.6332883819428
 31
0.0
  0
LINE
  8
5
  6
CONTINUOUS
 62
5
 10
1.48861752668586
 20
-1.87884136089083
 30
0.0
 11
1.24306454773783
 21
-1.75372586892348
 31
0.0
  0
LINE
  8
5
  6
CONTINUOUS
 62
5
 10
1.31656397391875
 20
-1.349314974061
 30
0.0
 11
1.1914484819514
 21
-1.59486795300903
 31
0.0
  0
ARC
  8
5
  6
CONTINUOUS
 62
5
 10
1.29668547280184
 20
-1.64848887807304
 30
0.0
 40
0.118110236
 50
153.000000001081
 51
243.00000000108
  0
ARC
  8
5
  6
CONTINUOUS
 62
5
 10
1.50849602780278
 20
-1.57966745687879
 30
0.0
 40
0.118110236
 50
333.000000001078
 51
63.000000001081
  0
LINE
  8
5
  6
CONTINUOUS
 62
5
 10
0.739412401222202
 20
-1.00163486484822
 30
0.0
 11
1.0015145905783
 21
-0.916472701094443
 31
0.0
  0
LINE
  8
5
  6
CONTINUOUS
 62
5
 10
1.23550433405629
 20
-1.25440632990267
 30
0.0
 11
1.15034217030252
 21
-0.992304140546575
 31
0.0
  0
LINE
  8
5
  6
CONTINUOUS
 62
5
 10
1.23550433405629
 20
-1.25440632990267
 30
0.0
 11
0.973402144700195
 21
-1.33956849365645
 31
0.0
  0
LINE
  8
5
  6
CONTINUOUS
 62
5
 10
0.739412401222202
 20
-1.00163486484822
 30
0.0
 11
0.824574564975976
 21
-1.26373705420431
 31
0.0
  0
ARC
  8
5
  6
CONTINUOUS
 62
5
 10
0.936904074564153
 20
-1.22723898406827
 30
0.0
 40
0.118110236
 50
198.000000001225
 51
288.000000001225
  0
ARC
  8
5
  6
CONTINUOUS
 62
5
 10
1.03801266071434
 20
-1.02880221068262
 30
0.0
 40
0.118110236
 50
18.0000000012275
 51
108.000000001228
  0
LINE
  8
5
  6
CONTINUOUS
 62
5
 10
0.0854576474883675
 20
-1.16389569276806
 30
0.0
 11
0.210573139454465
 21
-0.918342713819391
 31
0.0
  0
LINE
  8
5
  6
CONTINUOUS
 62
5
 10
0.614984034317319
 20
-0.991842139998246
 30
0.0
 11
0.36943105536865
 21
-0.866726648032148
 31
0.0
  0
LINE
  8
5
  6
CONTINUOUS
 62
5
 10
0.614984034317319
 20
-0.991842139998246
 30
0.0
 11
0.489868542351221
 21
-1.23739511894691
 31
0.0
  0
LINE
  8
5
  6
CONTINUOUS
 62
5
 10
0.0854576474883675
 20
-1.16389569276806
 30
0.0
 11
0.331010626437036
 21
-1.28901118473416
 31
0.0
  0
ARC
  8
5
  6
CONTINUOUS
 62
5
 10
0.384631551500511
 20
-1.18377419388344
 30
0.0
 40
0.118110236
 50
243.000000001371
 51
333.000000001371
  0
ARC
  8
5
  6
CONTINUOUS
 62
5
 10
0.315810130305179
 20
-0.971963638882862
 30
0.0
 40
0.118110236
 50
63.0000000013737
 51
153.000000001374
  0
LINE
  8
5
  6
CONTINUOUS
 62
5
 10
-0.262222461721469
 20
-1.74104726546638
 30
0.0
 11
-0.34738462547658
 21
-1.47894507611072
 31
0.0
  0
LINE
  8
5
  6
CONTINUOUS
 62
5
 10
-0.00945099666954491
 20
-1.24495533263101
 30
0.0
 11
-0.271553186025207
 21
-1.33011749638612
 31
0.0
  0
LINE
  8
5
  6
CONTINUOUS
 62
5
 10
-0.00945099666954491
 20
-1.24495533263101
 30
0.0
 11
0.0757111670855665
 21
-1.50705752198667
 31
0.0
  0
LINE
  8
5
  6
CONTINUOUS
 62
5
 10
-0.262222461721469
 20
-1.74104726546638
 30
0.0
 11
-0.000120272365806307
 21
-1.65588510171127
 31
0.0
  0
ARC
  8
5
  6
CONTINUOUS
 62
5
 10
-0.0366183425024188
 20
-1.54355559212328
 30
0.0
 40
0.118110236
 50
288.000000001517
 51
18.0000000015197
  0
ARC
  8
5
  6
CONTINUOUS
 62
5
 10
-0.235055115888591
 20
-1.44244700597411
 30
0.0
 40
0.118110236
 50
108.00000000152
 51
198.00000000152
  0
LINE
  8
5
  6
CONTINUOUS
 62
5
 10
-0.0999616337982885
 20
-2.39500201919939
 30
0.0
 11
-0.345514612747596
 21
-2.26988652723455
 31
0.0
  0
LINE
  8
5
  6
CONTINUOUS
 62
5
 10
-0.272015186570804
 20
-1.86547563237132
 30
0.0
 11
-0.397130678535649
 21
-2.11102861132063
 31
0.0
  0
LINE
  8
5
  6
CONTINUOUS
 62
5
 10
-0.272015186570804
 20
-1.86547563237132
 30
0.0
 11
-0.026462207621497
 21
-1.99059112433616
 31
0.0
  0
LINE
  8
5
  6
CONTINUOUS
 62
5
 10
-0.0999616337982885
 20
-2.39500201919939
 30
0.0
 11
0.0251538581665561
 21
-2.14944904025009
 31
0.0
  0
ARC
  8
5
  6
CONTINUOUS
 62
5
 10
-0.0800831326844296
 20
-2.09582811518715
 30
0.0
 40
0.118110236
 50
333.000000001663
 51
63.0000000016658
  0
ARC
  8
5
  6
CONTINUOUS
 62
5
 10
-0.291893687684664
 20
-2.16464953638356
 30
0.0
 40
0.118110236
 50
153.000000001663
 51
243.000000001663
  0
LINE
  8
5
  6
CONTINUOUS
 62
5
 10
0.47718993890181
 20
-2.74268212840628
 30
0.0
 11
0.215087749546583
 21
-2.82784429216273
 31
0.0
  0
LINE
  8
5
  6
CONTINUOUS
 62
5
 10
-0.0189019939348588
 20
-2.48991066335689
 30
0.0
 11
0.0662601698215894
 21
-2.75201285271212
 31
0.0
  0
LINE
  8
5
  6
CONTINUOUS
 62
5
 10
-0.0189019939348588
 20
-2.48991066335689
 30
0.0
 11
0.243200195420369
 21
-2.40474849960044
 31
0.0
  0
LINE
  8
5
  6
CONTINUOUS
 62
5
 10
0.47718993890181
 20
-2.74268212840628
 30
0.0
 11
0.392027775145362
 21
-2.48057993905105
 31
0.0
  0
ARC
  8
5
  6
CONTINUOUS
 62
5
 10
0.279698265557559
 20
-2.51707800918824
 30
0.0
 40
0.118110236
 50
18.0000000018126
 51
108.000000001813
  0
ARC
  8
5
  6
CONTINUOUS
 62
5
 10
0.178589679409393
 20
-2.71551478257493
 30
0.0
 40
0.118110236
 50
198.00000000181
 51
288.000000001809
  0
LINE
  8
5
  6
CONTINUOUS
 62
5
 10
1.13114469263399
 20
-2.58042130047977
 30
0.0
 11
1.0060292006704
 21
-2.82597427942971
 31
0.0
  0
LINE
  8
5
  6
CONTINUOUS
 62
5
 10
0.601618305806794
 20
-2.75247485325498
 30
0.0
 11
0.84717128475674
 21
-2.87759034521857
 31
0.0
  0
LINE
  8
5
  6
CONTINUOUS
 62
5
 10
0.601618305806794
 20
-2.75247485325498
 30
0.0
 11
0.726733797770386
 21
-2.50692187430504
 31
0.0
  0
LINE
  8
5
  6
CONTINUOUS
 62
5
 10
1.13114469263399
 20
-2.58042130047977
 30
0.0
 11
0.885591713684044
 21
-2.45530580851617
 31
0.0
  0
ARC
  8
5
  6
CONTINUOUS
 62
5
 10
0.831970788621645
 20
-2.56054279936743
 30
0.0
 40
0.118110236
 50
63.0000000019584
 51
153.000000001959
  0
ARC
  8
5
  6
CONTINUOUS
 62
5
 10
0.900792209819141
 20
-2.77235335436731
 30
0.0
 40
0.118110236
 50
243.000000001956
 51
333.000000001956
  0
ARC
  8
5
  6
CONTINUOUS
 62
5
 10
1.968503937
 20
3.87054920141818E-15
 30
0.0
 40
0.0984251970000001
 50
359.999999999996
 51
180
  0
ARC
  8
5
  6
CONTINUOUS
 62
5
 10
1.968503937
 20
-3.94591472710215E-15
 30
0.0
 40
0.0984251970000001
 50
179.999999999996
 51
359.999999999996
  0
ARC
  8
5
  6
CONTINUOUS
 62
5
 10
-2.52742078312868
 20
1.00898909456118
 30
0.0
 40
0.118110236
 50
144.000000000467
 51
234.000000000467
  0
ARC
  8
5
  6
CONTINUOUS
 62
5
 10
-1.74062162722484
 20
2.09192522782524
 30
0.0
 40
0.118110236
 50
54.0000000013445
 51
144.000000001345
  0
ARC
  8
5
  6
CONTINUOUS
 62
5
 10
0.608301170019339
 20
1.872158496639
 30
0.0
 40
0.0984251970000001
 50
72.0000000002307
 51
252.000000000234
  0
ARC
  8
5
  6
CONTINUOUS
 62
5
 10
0.608301170019346
 20
1.87215849663899
 30
0.0
 40
0.0984251970000001
 50
252.00000000023
 51
72.0000000002307
  0
ARC
  8
5
  6
CONTINUOUS
 62
5
 10
-1.59255313853644
 20
1.15705758323526
 30
0.0
 40
0.0984251970000001
 50
144.000000000464
 51
324.000000000467
  0
ARC
  8
5
  6
CONTINUOUS
 62
5
 10
-1.59255313853644
 20
1.15705758323526
 30
0.0
 40
0.098425197
 50
324.000000000464
 51
144.000000000465
  0
ARC
  8
5
  6
CONTINUOUS
 62
5
 10
-1.59255313851281
 20
-1.15705758326779
 30
0.0
 40
0.0984251970000001
 50
216.000000000698
 51
36.0000000007015
  0
ARC
  8
5
  6
CONTINUOUS
 62
5
 10
-1.59255313851282
 20
-1.15705758326778
 30
0.0
 40
0.0984251970000001
 50
36.0000000006985
 51
216.000000000698
  0
ARC
  8
5
  6
CONTINUOUS
 62
5
 10
0.608301170057573
 20
-1.87215849662658
 30
0.0
 40
0.098425197
 50
288.000000000932
 51
108.000000000935
  0
ARC
  8
5
  6
CONTINUOUS
 62
5
 10
0.608301170057566
 20
-1.87215849662659
 30
0.0
 40
0.098425197
 50
108.000000000932
 51
288.000000000932
  0
LINE
  8
9
  6
CONTINUOUS
 62
9
 10
0.590551181
 20
-6.65172204006283E-15
 30
0.0
 11
0.787401575
 21
-2.39226482655683E-14
 31
0.0
  0
LINE
  8
9
  6
CONTINUOUS
 62
9
 10
0.196850394
 20
7.83728359164127E-16
 30
0.0
 11
0.393700788
 21
-1.33226762955019E-14
 31
0.0
  0
LINE
  8
9
  6
CONTINUOUS
 62
9
 10
-0.393700788
 20
-1.41052607672513E-14
 30
0.0
 11
-0.196850394
 21
-1.09484553475519E-14
 31
0.0
  0
LINE
  8
9
  6
CONTINUOUS
 62
9
 10
-0.787401575
 20
-2.39226482655683E-14
 30
0.0
 11
-0.590551181
 21
-3.05575244426715E-14
 31
0.0
  0
ENDSEC
  0
EOF
