  0
SECTION
  2
HEADER
  9
$ACADVER
  1
AC1003
  9
$EXTMIN
 10
0
 20
4.378503937
  9
$EXTMAX
 10
7.576850394
 20
-0.098425197000001
  9
$INSUNITS
 70
1
  9
$INSBASE
 10
3.788425197
 20
2.14003937
999
Created with OMAX LAYOUT for Windows. (www.omax.com) 1/19/2024
  0
ENDSEC
  0
SECTION
  2
TABLES
  0
TABLE
  2
LAYER
 70
    10
  0
LAYER
  2
0
 70
     0
 62
     7
  6
CONTINUOUS
  0
LAYER
  2
1
 70
     0
 62
     7
  6
CONTINUOUS
  0
LAYER
  2
2
 70
     0
 62
     7
  6
CONTINUOUS
  0
LAYER
  2
3
 70
     0
 62
     7
  6
CONTINUOUS
  0
LAYER
  2
4
 70
     0
 62
     7
  6
CONTINUOUS
  0
LAYER
  2
5
 70
     0
 62
     7
  6
CONTINUOUS
  0
LAYER
  2
6
 70
     0
 62
     7
  6
CONTINUOUS
  0
LAYER
  2
7
 70
     0
 62
     7
  6
CONTINUOUS
  0
LAYER
  2
8
 70
     0
 62
     7
  6
CONTINUOUS
  0
LAYER
  2
9
 70
     0
 62
     7
  6
CONTINUOUS
  0
LAYER
  2
10
 70
     0
 62
     7
  6
CONTINUOUS
  0
LAYER
  2
11
 70
     0
 62
     7
  6
CONTINUOUS
  0
LAYER
  2
12
 70
     0
 62
     7
  6
CONTINUOUS
  0
LAYER
  2
13
 70
     0
 62
     7
  6
CONTINUOUS
  0
LAYER
  2
14
 70
     0
 62
     7
  6
CONTINUOUS
  0
LAYER
  2
15
 70
     0
 62
     7
  6
CONTINUOUS
  0
LAYER
  2
16
 70
     0
 62
     7
  6
CONTINUOUS
  0
LAYER
  2
17
 70
     0
 62
     7
  6
CONTINUOUS
  0
LAYER
  2
18
 70
     0
 62
     7
  6
CONTINUOUS
  0
LAYER
  2
19
 70
     0
 62
     7
  6
CONTINUOUS
  0
LAYER
  2
20
 70
     0
 62
     7
  6
CONTINUOUS
  0
LAYER
  2
21
 70
     0
 62
     7
  6
CONTINUOUS
  0
LAYER
  2
22
 70
     0
 62
     7
  6
CONTINUOUS
  0
LAYER
  2
23
 70
     0
 62
     7
  6
CONTINUOUS
  0
LAYER
  2
24
 70
     0
 62
     7
  6
CONTINUOUS
  0
LAYER
  2
25
 70
     0
 62
     7
  6
CONTINUOUS
  0
LAYER
  2
26
 70
     0
 62
     7
  6
CONTINUOUS
  0
LAYER
  2
27
 70
     0
 62
     7
  6
CONTINUOUS
  0
LAYER
  2
28
 70
     0
 62
     7
  6
CONTINUOUS
  0
LAYER
  2
29
 70
     0
 62
     7
  6
CONTINUOUS
  0
LAYER
  2
30
 70
     0
 62
     7
  6
CONTINUOUS
  0
LAYER
  2
31
 70
     0
 62
     7
  6
CONTINUOUS
  0
ENDTAB
  0
ENDSEC
  0
SECTION
  2
ENTITIES
  0
LINE
  8
0
  6
CONTINUOUS
 62
0
 10
3.74015748
 20
0.393700787
 30
0.0
 11
2.362204724
 21
0.393700786999998
 31
0.0
  0
LINE
  8
0
  6
CONTINUOUS
 62
0
 10
3.74015748
 20
1.57480315
 30
0.0
 11
2.362204724
 21
1.57480315
 31
0.0
  0
LINE
  8
0
  6
CONTINUOUS
 62
0
 10
1.968503937
 20
0.787401573999999
 30
0.0
 11
1.968503937
 21
1.181102363
 31
0.0
  0
LINE
  8
0
  6
CONTINUOUS
 62
0
 10
1.181102362
 20
1.968503937
 30
0.0
 11
3.74015748
 21
1.968503937
 31
0.0
  0
LINE
  8
0
  6
CONTINUOUS
 62
0
 10
3.74015748
 20
2.41072204922996E-17
 30
0.0
 11
0.984251968
 21
0
 31
0.0
  0
ARC
  8
0
  6
CONTINUOUS
 62
0
 10
2.36220472399999
 20
1.181102363
 30
0.0
 40
0.393700787
 50
89.9999999999998
 51
179.999999999999
  0
ARC
  8
0
  6
CONTINUOUS
 62
0
 10
2.362204724
 20
0.787401573999998
 30
0.0
 40
0.393700787
 50
180
 51
269.999999999999
  0
ARC
  8
0
  6
CONTINUOUS
 62
0
 10
3.74015748
 20
0.196850393
 30
0.0
 40
0.196850394
 50
360
 51
89.9999999999998
  0
ARC
  8
0
  6
CONTINUOUS
 62
0
 10
3.74015748
 20
0.196850394
 30
0.0
 40
0.196850394
 50
269.999999999999
 51
4.45277655404892E-14
  0
ARC
  8
0
  6
CONTINUOUS
 62
0
 10
3.74015748
 20
1.771653544
 30
0.0
 40
0.196850394
 50
270
 51
4.0711099922733E-13
  0
ARC
  8
0
  6
CONTINUOUS
 62
0
 10
3.74015747999999
 20
1.771653543
 30
0.0
 40
0.196850394
 50
359.999999999999
 51
89.9999999999998
  0
LINE
  8
0
  6
CONTINUOUS
 62
0
 10
0.984251968
 20
0
 30
0.0
 11
0.098425197
 21
0
 31
0.0
  0
LINE
  8
0
  6
CONTINUOUS
 62
0
 10
0
 20
0
 30
0.0
 11
0
 21
0.393700787
 31
0.0
  0
LINE
  8
0
  6
CONTINUOUS
 62
0
 10
0.787401573999993
 20
0.393700787
 30
0.0
 11
0
 21
0.393700787
 31
0.0
  0
LINE
  8
0
  6
CONTINUOUS
 62
0
 10
0.984251967999993
 20
0.590551181000001
 30
0.0
 11
0.984251968000001
 21
1.771653543
 31
0.0
  0
ARC
  8
0
  6
CONTINUOUS
 62
0
 10
1.181102362
 20
1.771653543
 30
0.0
 40
0.196850394
 50
89.9999999999994
 51
180
  0
ARC
  8
0
  6
CONTINUOUS
 62
0
 10
0.787401573999995
 20
0.590551181
 30
0.0
 40
0.196850394
 50
269.999999999999
 51
6.36110936292703E-15
  0
LINE
  8
0
  6
CONTINUOUS
 62
0
 10
0.098425197
 20
0
 30
0.0
 11
0
 21
0
 31
0.0
  0
LINE
  8
1
  6
CONTINUOUS
 62
1
 10
6.120157481
 20
4.063543307
 30
0.0
 11
7.06503936999999
 21
4.063543307
 31
0.0
  0
LINE
  8
1
  6
CONTINUOUS
 62
1
 10
5.923307087
 20
3.866692913
 30
0.0
 11
5.923307087
 21
2.921811024
 31
0.0
  0
LINE
  8
1
  6
CONTINUOUS
 62
1
 10
7.06503937
 20
2.72496063
 30
0.0
 11
6.120157481
 21
2.72496063
 31
0.0
  0
LINE
  8
1
  6
CONTINUOUS
 62
1
 10
7.26188976399999
 20
3.866692913
 30
0.0
 11
7.261889764
 21
2.921811024
 31
0.0
  0
ARC
  8
1
  6
CONTINUOUS
 62
1
 10
6.120157481
 20
3.866692913
 30
0.0
 40
0.196850394
 50
89.9999999999995
 51
180
  0
ARC
  8
1
  6
CONTINUOUS
 62
1
 10
7.06503936999999
 20
3.866692913
 30
0.0
 40
0.196850394
 50
359.999999999999
 51
89.9999999999997
  0
ARC
  8
1
  6
CONTINUOUS
 62
1
 10
7.06503937000001
 20
2.921811024
 30
0.0
 40
0.196850394
 50
269.999999999998
 51
359.999999999998
  0
ARC
  8
1
  6
CONTINUOUS
 62
1
 10
6.120157481
 20
2.921811024
 30
0.0
 40
0.196850394
 50
179.999999999999
 51
269.999999999998
  0
ARC
  8
2
  6
CONTINUOUS
 62
2
 10
0.393700788
 20
9.85717715723768E-16
 30
0.0
 40
0.098425197
 50
359.999999999999
 51
180
  0
ARC
  8
2
  6
CONTINUOUS
 62
2
 10
0.393700788
 20
-9.73664105477619E-16
 30
0.0
 40
0.098425197
 50
179.999999999999
 51
359.999999999999
  0
LINE
  8
3
  6
CONTINUOUS
 62
3
 10
7.38
 20
2.41
 30
0.0
 11
5.805196851
 21
2.41
 31
0.0
  0
LINE
  8
3
  6
CONTINUOUS
 62
3
 10
5.805196851
 20
4.378503937
 30
0.0
 11
7.38
 21
4.378503937
 31
0.0
  0
LINE
  8
3
  6
CONTINUOUS
 62
3
 10
5.608346457
 20
3.3942519685
 30
0.0
 11
5.608346457
 21
2.606850394
 31
0.0
  0
LINE
  8
3
  6
CONTINUOUS
 62
3
 10
7.576850394
 20
3.3942519685
 30
0.0
 11
7.576850394
 21
2.606850394
 31
0.0
  0
LINE
  8
3
  6
CONTINUOUS
 62
3
 10
5.608346457
 20
3.3942519685
 30
0.0
 11
5.608346457
 21
4.181653543
 31
0.0
  0
LINE
  8
3
  6
CONTINUOUS
 62
3
 10
7.576850394
 20
3.3942519685
 30
0.0
 11
7.576850394
 21
4.181653543
 31
0.0
  0
ARC
  8
3
  6
CONTINUOUS
 62
3
 10
5.805196851
 20
4.181653543
 30
0.0
 40
0.196850394
 50
89.9999999999996
 51
180
  0
ARC
  8
3
  6
CONTINUOUS
 62
3
 10
7.38
 20
4.181653543
 30
0.0
 40
0.196850394
 50
359.999999999998
 51
89.9999999999995
  0
ARC
  8
3
  6
CONTINUOUS
 62
3
 10
7.38
 20
2.606850394
 30
0.0
 40
0.196850394
 50
269.999999999998
 51
359.999999999999
  0
ARC
  8
3
  6
CONTINUOUS
 62
3
 10
5.805196851
 20
2.606850394
 30
0.0
 40
0.196850394
 50
179.999999999998
 51
269.999999999998
  0
ARC
  8
5
  6
CONTINUOUS
 62
5
 10
5.8051968505
 20
2.6068503935
 30
0.0
 40
0.066929134
 50
359.999999999998
 51
180
  0
ARC
  8
5
  6
CONTINUOUS
 62
5
 10
5.8051968505
 20
2.6068503935
 30
0.0
 40
0.066929134
 50
179.999999999998
 51
359.999999999998
  0
ARC
  8
5
  6
CONTINUOUS
 62
5
 10
5.8051968505
 20
4.1816535435
 30
0.0
 40
0.066929134
 50
180
 51
2.67166593242935E-13
  0
ARC
  8
5
  6
CONTINUOUS
 62
5
 10
5.8051968505
 20
4.1816535435
 30
0.0
 40
0.066929134
 50
359.999999999999
 51
180
  0
ARC
  8
5
  6
CONTINUOUS
 62
5
 10
7.3800000005
 20
2.6068503935
 30
0.0
 40
0.0669291339999996
 50
359.999999999998
 51
180
  0
ARC
  8
5
  6
CONTINUOUS
 62
5
 10
7.3800000005
 20
2.6068503935
 30
0.0
 40
0.0669291339999996
 50
180
 51
7.63333123551244E-14
  0
ARC
  8
5
  6
CONTINUOUS
 62
5
 10
7.3800000005
 20
4.1816535435
 30
0.0
 40
0.0669291339999996
 50
179.999999999998
 51
359.999999999998
  0
ARC
  8
5
  6
CONTINUOUS
 62
5
 10
7.3800000005
 20
4.1816535435
 30
0.0
 40
0.0669291339999996
 50
359.999999999998
 51
180
  0
ENDSEC
  0
EOF
