  0
SECTION
  2
HEADER
  9
$ACADVER
  1
AC1003
  9
$EXTMIN
 10
-3.937007874
 20
3.93700787400004
  9
$EXTMAX
 10
3.937007874
 20
-3.93700787400004
  9
$INSUNITS
 70
1
  9
$INSBASE
 10
0
 20
-8.88178419700125E-16
999
Created with OMAX LAYOUT for Windows. (www.omax.com) 1/5/2024
  0
ENDSEC
  0
SECTION
  2
TABLES
  0
TABLE
  2
LAYER
 70
    10
  0
LAYER
  2
0
 70
     0
 62
     7
  6
CONTINUOUS
  0
LAYER
  2
1
 70
     0
 62
     7
  6
CONTINUOUS
  0
LAYER
  2
2
 70
     0
 62
     7
  6
CONTINUOUS
  0
LAYER
  2
3
 70
     0
 62
     7
  6
CONTINUOUS
  0
LAYER
  2
4
 70
     0
 62
     7
  6
CONTINUOUS
  0
LAYER
  2
5
 70
     0
 62
     7
  6
CONTINUOUS
  0
LAYER
  2
6
 70
     0
 62
     7
  6
CONTINUOUS
  0
LAYER
  2
7
 70
     0
 62
     7
  6
CONTINUOUS
  0
LAYER
  2
8
 70
     0
 62
     7
  6
CONTINUOUS
  0
LAYER
  2
9
 70
     0
 62
     7
  6
CONTINUOUS
  0
LAYER
  2
10
 70
     0
 62
     7
  6
CONTINUOUS
  0
LAYER
  2
11
 70
     0
 62
     7
  6
CONTINUOUS
  0
LAYER
  2
12
 70
     0
 62
     7
  6
CONTINUOUS
  0
LAYER
  2
13
 70
     0
 62
     7
  6
CONTINUOUS
  0
LAYER
  2
14
 70
     0
 62
     7
  6
CONTINUOUS
  0
LAYER
  2
15
 70
     0
 62
     7
  6
CONTINUOUS
  0
LAYER
  2
16
 70
     0
 62
     7
  6
CONTINUOUS
  0
LAYER
  2
17
 70
     0
 62
     7
  6
CONTINUOUS
  0
LAYER
  2
18
 70
     0
 62
     7
  6
CONTINUOUS
  0
LAYER
  2
19
 70
     0
 62
     7
  6
CONTINUOUS
  0
LAYER
  2
20
 70
     0
 62
     7
  6
CONTINUOUS
  0
LAYER
  2
21
 70
     0
 62
     7
  6
CONTINUOUS
  0
LAYER
  2
22
 70
     0
 62
     7
  6
CONTINUOUS
  0
LAYER
  2
23
 70
     0
 62
     7
  6
CONTINUOUS
  0
LAYER
  2
24
 70
     0
 62
     7
  6
CONTINUOUS
  0
LAYER
  2
25
 70
     0
 62
     7
  6
CONTINUOUS
  0
LAYER
  2
26
 70
     0
 62
     7
  6
CONTINUOUS
  0
LAYER
  2
27
 70
     0
 62
     7
  6
CONTINUOUS
  0
LAYER
  2
28
 70
     0
 62
     7
  6
CONTINUOUS
  0
LAYER
  2
29
 70
     0
 62
     7
  6
CONTINUOUS
  0
LAYER
  2
30
 70
     0
 62
     7
  6
CONTINUOUS
  0
LAYER
  2
31
 70
     0
 62
     7
  6
CONTINUOUS
  0
ENDTAB
  0
ENDSEC
  0
SECTION
  2
ENTITIES
  0
ARC
  8
0
  6
CONTINUOUS
 62
0
 10
0
 20
2.16857897158782E-14
 30
0.0
 40
1.968503937
 50
359.999999999999
 51
180
  0
ARC
  8
0
  6
CONTINUOUS
 62
0
 10
0
 20
-1.75018466484275E-14
 30
0.0
 40
1.968503937
 50
179.999999999999
 51
359.999999999999
  0
ARC
  8
1
  6
CONTINUOUS
 62
1
 10
0
 20
1.97143543144754E-15
 30
0.0
 40
0.196850394
 50
359.999999999999
 51
180
  0
ARC
  8
1
  6
CONTINUOUS
 62
1
 10
0
 20
-1.94732821095524E-15
 30
0.0
 40
0.196850394
 50
179.999999999999
 51
359.999999999999
  0
ARC
  8
1
  6
CONTINUOUS
 62
1
 10
1.968503937
 20
1.97143543144754E-15
 30
0.0
 40
0.196850394
 50
359.999999999999
 51
180
  0
ARC
  8
1
  6
CONTINUOUS
 62
1
 10
1.968503937
 20
-1.94732821095524E-15
 30
0.0
 40
0.196850394
 50
179.999999999999
 51
359.999999999999
  0
ARC
  8
1
  6
CONTINUOUS
 62
1
 10
0.608301170019347
 20
1.872158496639
 30
0.0
 40
0.196850394
 50
72.0000000002337
 51
252.000000000234
  0
ARC
  8
1
  6
CONTINUOUS
 62
1
 10
0.608301170019349
 20
1.872158496639
 30
0.0
 40
0.196850394
 50
252.000000000233
 51
72.0000000002337
  0
ARC
  8
1
  6
CONTINUOUS
 62
1
 10
-1.59255313853644
 20
1.15705758323527
 30
0.0
 40
0.196850394
 50
144.000000000467
 51
324.000000000467
  0
ARC
  8
1
  6
CONTINUOUS
 62
1
 10
-1.59255313853644
 20
1.15705758323527
 30
0.0
 40
0.196850394
 50
324.000000000467
 51
144.000000000468
  0
ARC
  8
1
  6
CONTINUOUS
 62
1
 10
-1.59255313851282
 20
-1.15705758326778
 30
0.0
 40
0.196850394
 50
216.000000000701
 51
36.0000000007015
  0
ARC
  8
1
  6
CONTINUOUS
 62
1
 10
-1.59255313851282
 20
-1.15705758326778
 30
0.0
 40
0.196850394
 50
36.0000000007016
 51
216.000000000702
  0
ARC
  8
1
  6
CONTINUOUS
 62
1
 10
0.608301170057566
 20
-1.87215849662658
 30
0.0
 40
0.196850394
 50
288.000000000935
 51
108.000000000935
  0
ARC
  8
1
  6
CONTINUOUS
 62
1
 10
0.608301170057563
 20
-1.87215849662658
 30
0.0
 40
0.196850394
 50
108.000000000935
 51
288.000000000935
  0
ARC
  8
2
  6
CONTINUOUS
 62
2
 10
0
 20
3.94287086289507E-15
 30
0.0
 40
0.393700788
 50
359.999999999999
 51
180
  0
ARC
  8
2
  6
CONTINUOUS
 62
2
 10
0
 20
-3.89465642191047E-15
 30
0.0
 40
0.393700788
 50
179.999999999999
 51
359.999999999999
  0
ARC
  8
2
  6
CONTINUOUS
 62
2
 10
2.5590551175
 20
0.590551180500003
 30
0.0
 40
0.0787401570000001
 50
359.999999999999
 51
180
  0
ARC
  8
2
  6
CONTINUOUS
 62
2
 10
2.5590551175
 20
0.590551180500001
 30
0.0
 40
0.0787401570000001
 50
179.999999999999
 51
359.999999999999
  0
ARC
  8
2
  6
CONTINUOUS
 62
2
 10
1.96850393699787
 20
0.835165488738543
 30
0.0
 40
0.078740157
 50
45.000000000146
 51
225.000000000146
  0
ARC
  8
2
  6
CONTINUOUS
 62
2
 10
1.96850393699787
 20
0.835165488738542
 30
0.0
 40
0.078740157
 50
225.000000000146
 51
45.000000000146
  0
ARC
  8
2
  6
CONTINUOUS
 62
2
 10
1.37795275649658
 20
0.590551180496986
 30
0.0
 40
0.078740157
 50
89.9999999999992
 51
269.999999999999
  0
ARC
  8
2
  6
CONTINUOUS
 62
2
 10
1.37795275649739
 20
0.590551180496986
 30
0.0
 40
0.078740157
 50
269.999999999999
 51
89.9999999999996
  0
ARC
  8
2
  6
CONTINUOUS
 62
2
 10
1.13333844826146
 20
-6.39530789436904E-12
 30
0.0
 40
0.0787401570000001
 50
135.000000000438
 51
315.000000000438
  0
ARC
  8
2
  6
CONTINUOUS
 62
2
 10
1.13333844826146
 20
-6.39423236581393E-12
 30
0.0
 40
0.0787401570000001
 50
315.000000000438
 51
135.000000000438
  0
ARC
  8
2
  6
CONTINUOUS
 62
2
 10
1.37795275650603
 20
-0.590551180506031
 30
0.0
 40
0.0787401569999999
 50
180.000000000584
 51
5.84611394890446E-10
  0
ARC
  8
2
  6
CONTINUOUS
 62
2
 10
1.37795275650603
 20
-0.59055118050603
 30
0.0
 40
0.0787401569999999
 50
5.84611394890446E-10
 51
180.000000000585
  0
ARC
  8
2
  6
CONTINUOUS
 62
2
 10
1.96850393701066
 20
-0.835165488738544
 30
0.0
 40
0.078740157
 50
225.00000000073
 51
45.0000000007308
  0
ARC
  8
2
  6
CONTINUOUS
 62
2
 10
1.96850393701066
 20
-0.835165488738543
 30
0.0
 40
0.078740157
 50
45.0000000007308
 51
225.000000000731
  0
ARC
  8
2
  6
CONTINUOUS
 62
2
 10
2.55905511751025
 20
-0.590551180490959
 30
0.0
 40
0.078740157
 50
269.999999999999
 51
89.9999999999996
  0
ARC
  8
2
  6
CONTINUOUS
 62
2
 10
2.55905511750784
 20
-0.590551180490959
 30
0.0
 40
0.078740157
 50
89.9999999999992
 51
269.999999999999
  0
ARC
  8
2
  6
CONTINUOUS
 62
2
 10
2.80366942573854
 20
1.49186010767188E-11
 30
0.0
 40
0.0787401570000001
 50
315.000000001023
 51
135.000000001023
  0
ARC
  8
2
  6
CONTINUOUS
 62
2
 10
2.80366942573854
 20
1.49174839148003E-11
 30
0.0
 40
0.0787401570000001
 50
135.000000001023
 51
315.000000001023
  0
ARC
  8
2
  6
CONTINUOUS
 62
2
 10
0.229143972418674
 20
2.61629639588046
 30
0.0
 40
0.0787401570000001
 50
72.0000000002337
 51
252.000000000234
  0
ARC
  8
2
  6
CONTINUOUS
 62
2
 10
0.229143972418675
 20
2.61629639588046
 30
0.0
 40
0.0787401570000001
 50
252.000000000233
 51
72.0000000002337
  0
ARC
  8
2
  6
CONTINUOUS
 62
2
 10
-0.185988410231984
 20
2.13023882576939
 30
0.0
 40
0.0787401569999998
 50
117.00000000038
 51
297.00000000038
  0
ARC
  8
2
  6
CONTINUOUS
 62
2
 10
-0.185988410231982
 20
2.1302388257694
 30
0.0
 40
0.0787401569999998
 50
297.00000000038
 51
117.00000000038
  0
ARC
  8
2
  6
CONTINUOUS
 62
2
 10
-0.135836729220178
 20
1.49300129903453
 30
0.0
 40
0.078740157
 50
162.000000000526
 51
342.000000000526
  0
ARC
  8
2
  6
CONTINUOUS
 62
2
 10
-0.135836729220177
 20
1.49300129903453
 30
0.0
 40
0.078740157
 50
342.000000000526
 51
162.000000000526
  0
ARC
  8
2
  6
CONTINUOUS
 62
2
 10
0.350220840893004
 20
1.07786891638635
 30
0.0
 40
0.0787401570000001
 50
207.000000000672
 51
27.0000000006724
  0
ARC
  8
2
  6
CONTINUOUS
 62
2
 10
0.350220840893003
 20
1.07786891638635
 30
0.0
 40
0.0787401570000001
 50
27.0000000006723
 51
207.000000000672
  0
ARC
  8
2
  6
CONTINUOUS
 62
2
 10
0.987458367627617
 20
1.12802059740141
 30
0.0
 40
0.0787401569999999
 50
252.000000000818
 51
72.0000000008186
  0
ARC
  8
2
  6
CONTINUOUS
 62
2
 10
0.987458367627616
 20
1.12802059740141
 30
0.0
 40
0.0787401569999999
 50
72.0000000008186
 51
252.000000000819
  0
ARC
  8
2
  6
CONTINUOUS
 62
2
 10
1.40259075027331
 20
1.61407816751671
 30
0.0
 40
0.078740157
 50
297.000000000964
 51
117.000000000965
  0
ARC
  8
2
  6
CONTINUOUS
 62
2
 10
1.40259075027331
 20
1.61407816751671
 30
0.0
 40
0.078740157
 50
117.000000000964
 51
297.000000000964
  0
ARC
  8
2
  6
CONTINUOUS
 62
2
 10
1.352439069255
 20
2.25131569425106
 30
0.0
 40
0.0787401570000001
 50
342.00000000111
 51
162.000000001111
  0
ARC
  8
2
  6
CONTINUOUS
 62
2
 10
1.352439069255
 20
2.25131569425106
 30
0.0
 40
0.0787401570000001
 50
162.000000001111
 51
342.000000001111
  0
ARC
  8
2
  6
CONTINUOUS
 62
2
 10
0.866381499137585
 20
2.66644807689428
 30
0.0
 40
0.0787401570000002
 50
27.0000000012572
 51
207.000000001257
  0
ARC
  8
2
  6
CONTINUOUS
 62
2
 10
0.866381499137586
 20
2.66644807689428
 30
0.0
 40
0.0787401570000002
 50
207.000000001257
 51
27.0000000012571
  0
ARC
  8
2
  6
CONTINUOUS
 62
2
 10
-2.41743635422987
 20
1.02640891677765
 30
0.0
 40
0.078740157
 50
144.000000000467
 51
324.000000000467
  0
ARC
  8
2
  6
CONTINUOUS
 62
2
 10
-2.41743635422987
 20
1.02640891677765
 30
0.0
 40
0.078740157
 50
324.000000000467
 51
144.000000000468
  0
ARC
  8
2
  6
CONTINUOUS
 62
2
 10
-2.08345109603335
 20
0.481394509725065
 30
0.0
 40
0.0787401570000001
 50
189.000000000614
 51
9.00000000061387
  0
ARC
  8
2
  6
CONTINUOUS
 62
2
 10
-2.08345109603335
 20
0.481394509725066
 30
0.0
 40
0.0787401570000001
 50
9.00000000061387
 51
189.000000000614
  0
ARC
  8
2
  6
CONTINUOUS
 62
2
 10
-1.46190447207461
 20
0.332174367542502
 30
0.0
 40
0.0787401570000001
 50
234.00000000076
 51
54.0000000007599
  0
ARC
  8
2
  6
CONTINUOUS
 62
2
 10
-1.46190447207462
 20
0.332174367542503
 30
0.0
 40
0.0787401570000001
 50
54.0000000007599
 51
234.00000000076
  0
ARC
  8
2
  6
CONTINUOUS
 62
2
 10
-0.91689006502373
 20
0.666159625741807
 30
0.0
 40
0.0787401570000001
 50
279.000000000906
 51
99.0000000009063
  0
ARC
  8
2
  6
CONTINUOUS
 62
2
 10
-0.916890065023732
 20
0.666159625741807
 30
0.0
 40
0.0787401570000001
 50
99.0000000009059
 51
279.000000000906
  0
ARC
  8
2
  6
CONTINUOUS
 62
2
 10
-0.767669922844339
 20
1.2877062497013
 30
0.0
 40
0.0787401569999999
 50
324.000000001052
 51
144.000000001052
  0
ARC
  8
2
  6
CONTINUOUS
 62
2
 10
-0.76766992284434
 20
1.2877062497013
 30
0.0
 40
0.0787401569999999
 50
144.000000001052
 51
324.000000001052
  0
ARC
  8
2
  6
CONTINUOUS
 62
2
 10
-1.10165518104643
 20
1.83272065675048
 30
0.0
 40
0.0787401570000001
 50
9.00000000119861
 51
189.000000001199
  0
ARC
  8
2
  6
CONTINUOUS
 62
2
 10
-1.10165518104643
 20
1.83272065675048
 30
0.0
 40
0.0787401570000001
 50
189.000000001198
 51
9.00000000119861
  0
ARC
  8
2
  6
CONTINUOUS
 62
2
 10
-1.72320180500668
 20
1.9819407989267
 30
0.0
 40
0.0787401570000001
 50
54.0000000013448
 51
234.000000001345
  0
ARC
  8
2
  6
CONTINUOUS
 62
2
 10
-1.72320180500668
 20
1.9819407989267
 30
0.0
 40
0.0787401570000001
 50
234.000000001344
 51
54.0000000013448
  0
ARC
  8
2
  6
CONTINUOUS
 62
2
 10
-2.26821621205416
 20
1.64795554072183
 30
0.0
 40
0.0787401570000001
 50
99.0000000014906
 51
279.000000001491
  0
ARC
  8
2
  6
CONTINUOUS
 62
2
 10
-2.26821621205416
 20
1.64795554072183
 30
0.0
 40
0.0787401570000001
 50
279.000000001491
 51
99.0000000014909
  0
ARC
  8
2
  6
CONTINUOUS
 62
2
 10
-1.72320180495359
 20
-1.98194079896388
 30
0.0
 40
0.0787401570000002
 50
216.000000000701
 51
36.0000000007016
  0
ARC
  8
2
  6
CONTINUOUS
 62
2
 10
-1.72320180495359
 20
-1.98194079896388
 30
0.0
 40
0.0787401570000002
 50
36.0000000007016
 51
216.000000000702
  0
ARC
  8
2
  6
CONTINUOUS
 62
2
 10
-1.10165518099867
 20
-1.83272065676545
 30
0.0
 40
0.0787401569999999
 50
261.000000000847
 51
81.0000000008478
  0
ARC
  8
2
  6
CONTINUOUS
 62
2
 10
-1.10165518099867
 20
-1.83272065676545
 30
0.0
 40
0.0787401569999999
 50
81.0000000008478
 51
261.000000000848
  0
ARC
  8
2
  6
CONTINUOUS
 62
2
 10
-0.767669922816053
 20
-1.28770624970434
 30
0.0
 40
0.078740157
 50
306.000000000993
 51
126.000000000994
  0
ARC
  8
2
  6
CONTINUOUS
 62
2
 10
-0.767669922816054
 20
-1.28770624970434
 30
0.0
 40
0.078740157
 50
126.000000000994
 51
306.000000000994
  0
ARC
  8
2
  6
CONTINUOUS
 62
2
 10
-0.91689006501765
 20
-0.666159625750176
 30
0.0
 40
0.0787401570000001
 50
351.00000000114
 51
171.00000000114
  0
ARC
  8
2
  6
CONTINUOUS
 62
2
 10
-0.91689006501765
 20
-0.666159625750178
 30
0.0
 40
0.0787401570000001
 50
171.00000000114
 51
351.00000000114
  0
ARC
  8
2
  6
CONTINUOUS
 62
2
 10
-1.46190447208047
 20
-0.332174367570344
 30
0.0
 40
0.0787401569999999
 50
36.0000000012864
 51
216.000000001286
  0
ARC
  8
2
  6
CONTINUOUS
 62
2
 10
-1.46190447208047
 20
-0.332174367570344
 30
0.0
 40
0.0787401569999999
 50
216.000000001286
 51
36.0000000012864
  0
ARC
  8
2
  6
CONTINUOUS
 62
2
 10
-2.08345109603387
 20
-0.481394509775113
 30
0.0
 40
0.078740157
 50
81.0000000014326
 51
261.000000001433
  0
ARC
  8
2
  6
CONTINUOUS
 62
2
 10
-2.08345109603387
 20
-0.481394509775113
 30
0.0
 40
0.078740157
 50
261.000000001432
 51
81.0000000014326
  0
ARC
  8
2
  6
CONTINUOUS
 62
2
 10
-2.41743635421092
 20
-1.02640891683963
 30
0.0
 40
0.078740157
 50
126.000000001578
 51
306.000000001578
  0
ARC
  8
2
  6
CONTINUOUS
 62
2
 10
-2.41743635421092
 20
-1.02640891683963
 30
0.0
 40
0.078740157
 50
306.000000001578
 51
126.000000001579
  0
ARC
  8
2
  6
CONTINUOUS
 62
2
 10
-2.26821621200298
 20
-1.64795554079227
 30
0.0
 40
0.0787401569999999
 50
171.000000001725
 51
351.000000001725
  0
ARC
  8
2
  6
CONTINUOUS
 62
2
 10
-2.26821621200298
 20
-1.64795554079227
 30
0.0
 40
0.0787401569999999
 50
351.000000001725
 51
171.000000001725
  0
ARC
  8
2
  6
CONTINUOUS
 62
2
 10
1.35243906930677
 20
-2.25131569421206
 30
0.0
 40
0.0787401570000001
 50
288.000000000935
 51
108.000000000936
  0
ARC
  8
2
  6
CONTINUOUS
 62
2
 10
1.35243906930677
 20
-2.25131569421206
 30
0.0
 40
0.0787401570000001
 50
108.000000000935
 51
288.000000000935
  0
ARC
  8
2
  6
CONTINUOUS
 62
2
 10
1.40259075030231
 20
-1.61407816747591
 30
0.0
 40
0.0787401569999999
 50
333.000000001081
 51
153.000000001082
  0
ARC
  8
2
  6
CONTINUOUS
 62
2
 10
1.40259075030231
 20
-1.61407816747591
 30
0.0
 40
0.0787401569999999
 50
153.000000001081
 51
333.000000001081
  0
ARC
  8
2
  6
CONTINUOUS
 62
2
 10
0.987458367639247
 20
-1.12802059737544
 30
0.0
 40
0.0787401570000001
 50
18.0000000012277
 51
198.000000001228
  0
ARC
  8
2
  6
CONTINUOUS
 62
2
 10
0.987458367639247
 20
-1.12802059737544
 30
0.0
 40
0.0787401570000001
 50
198.000000001227
 51
18.0000000012277
  0
ARC
  8
2
  6
CONTINUOUS
 62
2
 10
0.350220840902842
 20
-1.07786891638315
 30
0.0
 40
0.0787401570000001
 50
63.0000000013742
 51
243.000000001374
  0
ARC
  8
2
  6
CONTINUOUS
 62
2
 10
0.350220840902843
 20
-1.07786891638315
 30
0.0
 40
0.0787401570000001
 50
243.000000001374
 51
63.0000000013742
  0
ARC
  8
2
  6
CONTINUOUS
 62
2
 10
-0.135836729195508
 20
-1.4930012990487
 30
0.0
 40
0.078740157
 50
108.00000000152
 51
288.00000000152
  0
ARC
  8
2
  6
CONTINUOUS
 62
2
 10
-0.135836729195506
 20
-1.49300129904869
 30
0.0
 40
0.078740157
 50
288.00000000152
 51
108.00000000152
  0
ARC
  8
2
  6
CONTINUOUS
 62
2
 10
-0.185988410184547
 20
-2.13023882578536
 30
0.0
 40
0.078740157
 50
153.000000001666
 51
333.000000001666
  0
ARC
  8
2
  6
CONTINUOUS
 62
2
 10
-0.185988410184546
 20
-2.13023882578535
 30
0.0
 40
0.078740157
 50
333.000000001666
 51
153.000000001666
  0
ARC
  8
2
  6
CONTINUOUS
 62
2
 10
0.229143972483476
 20
-2.61629639588159
 30
0.0
 40
0.078740157
 50
198.000000001812
 51
18.0000000018126
  0
ARC
  8
2
  6
CONTINUOUS
 62
2
 10
0.229143972483476
 20
-2.61629639588159
 30
0.0
 40
0.078740157
 50
18.0000000018126
 51
198.000000001813
  0
ARC
  8
2
  6
CONTINUOUS
 62
2
 10
0.866381499220393
 20
-2.66644807686737
 30
0.0
 40
0.0787401569999999
 50
243.000000001958
 51
63.0000000019588
  0
ARC
  8
2
  6
CONTINUOUS
 62
2
 10
0.866381499220392
 20
-2.66644807686737
 30
0.0
 40
0.0787401569999999
 50
63.0000000019588
 51
243.000000001959
  0
ARC
  8
2
  6
CONTINUOUS
 62
2
 10
0
 20
3.8705248260928E-14
 30
0.0
 40
3.937007874
 50
359.999999999999
 51
180
  0
ARC
  8
2
  6
CONTINUOUS
 62
2
 10
0
 20
-3.96700244676835E-14
 30
0.0
 40
3.937007874
 50
179.999999999999
 51
359.999999999999
  0
ARC
  8
3
  6
CONTINUOUS
 62
3
 10
0
 20
5.91430628432772E-15
 30
0.0
 40
0.590551181
 50
359.999999999999
 51
180
  0
ARC
  8
3
  6
CONTINUOUS
 62
3
 10
0
 20
-5.84198462297328E-15
 30
0.0
 40
0.590551181
 50
179.999999999999
 51
359.999999999999
  0
LINE
  8
3
  6
CONTINUOUS
 62
3
 10
2.322834645
 20
-0.393700786999999
 30
0.0
 11
1.968503937
 21
-0.393700786999999
 31
0.0
  0
LINE
  8
3
  6
CONTINUOUS
 62
3
 10
2.362204724
 20
-0.354330707999998
 30
0.0
 11
2.362204724
 21
1.4432899320127E-15
 31
0.0
  0
ARC
  8
3
  6
CONTINUOUS
 62
3
 10
2.322834645
 20
-0.354330707999999
 30
0.0
 40
0.0393700789999999
 50
270
 51
5.59777623937579E-13
  0
ARC
  8
3
  6
CONTINUOUS
 62
3
 10
1.968503937
 20
5.38616078489289E-15
 30
0.0
 40
0.393700787
 50
359.999999999999
 51
180
  0
ARC
  8
3
  6
CONTINUOUS
 62
3
 10
1.968503937
 20
-8.77822037259752E-16
 30
0.0
 40
0.393700787000002
 50
180
 51
269.999999999999
  0
LINE
  8
3
  6
CONTINUOUS
 62
3
 10
1.09222707936625
 20
2.08748679152606
 30
0.0
 11
0.982732868966723
 21
1.75049826275874
 31
0.0
  0
LINE
  8
3
  6
CONTINUOUS
 62
3
 10
1.06694993266693
 20
2.13709598518684
 30
0.0
 11
0.729961403899609
 21
2.24659019558638
 31
0.0
  0
ARC
  8
3
  6
CONTINUOUS
 62
3
 10
1.0547839091862
 20
2.09965281500679
 30
0.0
 40
0.0393700789999996
 50
342.000000000234
 51
72.0000000002341
  0
ARC
  8
3
  6
CONTINUOUS
 62
3
 10
0.608301170019345
 20
1.872158496639
 30
0.0
 40
0.393700787
 50
72.0000000002337
 51
252.000000000234
  0
ARC
  8
3
  6
CONTINUOUS
 62
3
 10
0.608301170019349
 20
1.872158496639
 30
0.0
 40
0.393700787000002
 50
252.000000000234
 51
342.000000000233
  0
LINE
  8
3
  6
CONTINUOUS
 62
3
 10
-1.64780118652711
 20
1.68383857521336
 30
0.0
 11
-1.3611416221245
 21
1.47556821061895
 31
0.0
  0
LINE
  8
3
  6
CONTINUOUS
 62
3
 10
-1.70279340132571
 20
1.67512866404981
 30
0.0
 11
-1.91106376592012
 21
1.38846909964721
 31
0.0
  0
ARC
  8
3
  6
CONTINUOUS
 62
3
 10
-1.67094233834464
 20
1.65198751223228
 30
0.0
 40
0.0393700789999999
 50
54.0000000004679
 51
144.000000000468
  0
ARC
  8
3
  6
CONTINUOUS
 62
3
 10
-1.59255313853644
 20
1.15705758323526
 30
0.0
 40
0.393700787
 50
144.000000000467
 51
324.000000000467
  0
ARC
  8
3
  6
CONTINUOUS
 62
3
 10
-1.59255313853644
 20
1.15705758323527
 30
0.0
 40
0.393700787000002
 50
324.000000000468
 51
54.0000000004674
  0
LINE
  8
3
  6
CONTINUOUS
 62
3
 10
-2.11062421932962
 20
-1.04681732048908
 30
0.0
 11
-1.82396465493126
 21
-0.838546955888821
 31
0.0
  0
LINE
  8
3
  6
CONTINUOUS
 62
3
 10
-2.11933413049204
 20
-1.10180953528786
 30
0.0
 11
-1.91106376589178
 21
-1.38846909968622
 31
0.0
  0
ARC
  8
3
  6
CONTINUOUS
 62
3
 10
-2.08748306751144
 20
-1.07866838346968
 30
0.0
 40
0.0393700789999999
 50
126.000000000702
 51
216.000000000702
  0
ARC
  8
3
  6
CONTINUOUS
 62
3
 10
-1.59255313851282
 20
-1.15705758326778
 30
0.0
 40
0.393700787
 50
216.000000000701
 51
36.0000000007015
  0
ARC
  8
3
  6
CONTINUOUS
 62
3
 10
-1.59255313851282
 20
-1.15705758326778
 30
0.0
 40
0.393700787000002
 50
36.0000000007018
 51
126.000000000701
  0
LINE
  8
3
  6
CONTINUOUS
 62
3
 10
0.343363681519083
 20
-2.33080725927957
 30
0.0
 11
0.233869471112672
 21
-1.99381873051449
 31
0.0
  0
LINE
  8
3
  6
CONTINUOUS
 62
3
 10
0.392972875180385
 20
-2.35608440597788
 30
0.0
 11
0.729961403945472
 21
-2.24659019557147
 31
0.0
  0
ARC
  8
3
  6
CONTINUOUS
 62
3
 10
0.380806851698889
 20
-2.31864123579808
 30
0.0
 40
0.0393700789999998
 50
198.000000000936
 51
288.000000000936
  0
ARC
  8
3
  6
CONTINUOUS
 62
3
 10
0.60830117005757
 20
-1.87215849662658
 30
0.0
 40
0.393700787
 50
288.000000000935
 51
108.000000000935
  0
ARC
  8
3
  6
CONTINUOUS
 62
3
 10
0.608301170057567
 20
-1.87215849662658
 30
0.0
 40
0.393700787000002
 50
108.000000000936
 51
198.000000000935
  0
ARC
  8
4
  6
CONTINUOUS
 62
4
 10
0
 20
7.88574171577525E-15
 30
0.0
 40
0.787401575
 50
359.999999999999
 51
180
  0
ARC
  8
4
  6
CONTINUOUS
 62
4
 10
0
 20
-7.78931283392852E-15
 30
0.0
 40
0.787401575
 50
179.999999999999
 51
359.999999999999
  0
LINE
  8
5
  6
CONTINUOUS
 62
5
 10
2.637795275
 20
0.787401574000002
 30
0.0
 11
2.362204724
 21
0.787401574000002
 31
0.0
  0
LINE
  8
5
  6
CONTINUOUS
 62
5
 10
2.755905511
 20
0.669291338000002
 30
0.0
 11
2.755905511
 21
0.393700787000001
 31
0.0
  0
LINE
  8
5
  6
CONTINUOUS
 62
5
 10
2.48031496
 20
0.393700787000001
 30
0.0
 11
2.755905511
 21
0.393700787000001
 31
0.0
  0
LINE
  8
5
  6
CONTINUOUS
 62
5
 10
2.362204724
 20
0.511811023000001
 30
0.0
 11
2.362204724
 21
0.787401574000002
 31
0.0
  0
ARC
  8
5
  6
CONTINUOUS
 62
5
 10
2.48031496
 20
0.511811023
 30
0.0
 40
0.118110236
 50
180
 51
269.999999999999
  0
ARC
  8
5
  6
CONTINUOUS
 62
5
 10
2.637795275
 20
0.669291338000002
 30
0.0
 40
0.118110236
 50
2.54444374517081E-14
 51
89.9999999999998
  0
LINE
  8
5
  6
CONTINUOUS
 62
5
 10
1.88498738819423
 20
1.03003743618137
 30
0.0
 11
1.69011544075169
 21
0.835165488737832
 31
0.0
  0
LINE
  8
5
  6
CONTINUOUS
 62
5
 10
2.05202048580051
 20
1.03003743618179
 30
0.0
 11
2.24689243324405
 21
0.835165488739253
 31
0.0
  0
LINE
  8
5
  6
CONTINUOUS
 62
5
 10
2.05202048580151
 20
0.640293541295719
 30
0.0
 11
2.24689243324405
 21
0.835165488739253
 31
0.0
  0
LINE
  8
5
  6
CONTINUOUS
 62
5
 10
1.88498738819522
 20
0.640293541295292
 30
0.0
 11
1.69011544075169
 21
0.835165488737832
 31
0.0
  0
ARC
  8
5
  6
CONTINUOUS
 62
5
 10
1.96850393699815
 20
0.723810090098648
 30
0.0
 40
0.118110236
 50
225.000000000146
 51
315.000000000146
  0
ARC
  8
5
  6
CONTINUOUS
 62
5
 10
1.96850393699758
 20
0.946520887378437
 30
0.0
 40
0.118110236
 50
45.0000000001462
 51
135.000000000146
  0
LINE
  8
5
  6
CONTINUOUS
 62
5
 10
1.18110236299658
 20
0.669291337995982
 30
0.0
 11
1.18110236299799
 21
0.393700786995981
 31
0.0
  0
LINE
  8
5
  6
CONTINUOUS
 62
5
 10
1.29921259899598
 20
0.787401573996585
 30
0.0
 11
1.57480314999598
 21
0.787401573997991
 31
0.0
  0
LINE
  8
5
  6
CONTINUOUS
 62
5
 10
1.57480314999739
 20
0.51181102299799
 30
0.0
 11
1.57480314999598
 21
0.787401573997991
 31
0.0
  0
LINE
  8
5
  6
CONTINUOUS
 62
5
 10
1.45669291399799
 20
0.393700786997387
 30
0.0
 11
1.18110236299799
 21
0.393700786995981
 31
0.0
  0
ARC
  8
5
  6
CONTINUOUS
 62
5
 10
1.45669291399739
 20
0.511811022997387
 30
0.0
 40
0.118110236
 50
270.000000000292
 51
2.9219119747669E-10
  0
ARC
  8
5
  6
CONTINUOUS
 62
5
 10
1.29921259899658
 20
0.669291337996585
 30
0.0
 40
0.118110236
 50
90.0000000002925
 51
180.000000000292
  0
LINE
  8
5
  6
CONTINUOUS
 62
5
 10
0.938466500819059
 20
-0.0835165488110294
 30
0.0
 11
1.13333844826359
 21
-0.278388496252575
 31
0.0
  0
LINE
  8
5
  6
CONTINUOUS
 62
5
 10
0.93846650081778
 20
0.0835165487952574
 30
0.0
 11
1.13333844825933
 21
0.278388496239786
 31
0.0
  0
LINE
  8
5
  6
CONTINUOUS
 62
5
 10
1.32821039570385
 20
0.0835165487982404
 30
0.0
 11
1.13333844825933
 21
0.278388496239786
 31
0.0
  0
LINE
  8
5
  6
CONTINUOUS
 62
5
 10
1.32821039570513
 20
-0.0835165488080463
 30
0.0
 11
1.13333844826359
 21
-0.278388496252575
 31
0.0
  0
ARC
  8
5
  6
CONTINUOUS
 62
5
 10
1.24469384690199
 20
-4.90182894274938E-12
 30
0.0
 40
0.118110236
 50
314.999999999999
 51
44.9999999999995
  0
ARC
  8
5
  6
CONTINUOUS
 62
5
 10
1.02198304962092
 20
-7.88712151145177E-12
 30
0.0
 40
0.118110236
 50
134.999999999999
 51
224.999999999999
  0
LINE
  8
5
  6
CONTINUOUS
 62
5
 10
1.29921259900804
 20
-0.787401574006833
 30
0.0
 11
1.57480315000804
 21
-0.78740157400402
 31
0.0
  0
LINE
  8
5
  6
CONTINUOUS
 62
5
 10
1.18110236300683
 20
-0.669291338008039
 30
0.0
 11
1.18110236300402
 21
-0.393700787008039
 31
0.0
  0
LINE
  8
5
  6
CONTINUOUS
 62
5
 10
1.45669291400402
 20
-0.393700787005226
 30
0.0
 11
1.18110236300402
 21
-0.393700787008039
 31
0.0
  0
LINE
  8
5
  6
CONTINUOUS
 62
5
 10
1.57480315000522
 20
-0.51181102300402
 30
0.0
 11
1.57480315000804
 21
-0.78740157400402
 31
0.0
  0
ARC
  8
5
  6
CONTINUOUS
 62
5
 10
1.45669291400522
 20
-0.511811023005225
 30
0.0
 40
0.118110236
 50
5.84789505952608E-10
 51
90.0000000005846
  0
ARC
  8
5
  6
CONTINUOUS
 62
5
 10
1.29921259900683
 20
-0.669291338006834
 30
0.0
 40
0.118110236
 50
180.000000000584
 51
270.000000000584
  0
LINE
  8
5
  6
CONTINUOUS
 62
5
 10
2.05202048581629
 20
-1.03003743618052
 30
0.0
 11
2.24689243325684
 21
-0.835165488734992
 31
0.0
  0
LINE
  8
5
  6
CONTINUOUS
 62
5
 10
1.88498738821
 20
-1.03003743618265
 30
0.0
 11
1.69011544076448
 21
-0.835165488742095
 31
0.0
  0
LINE
  8
5
  6
CONTINUOUS
 62
5
 10
1.88498738820503
 20
-0.640293541296572
 30
0.0
 11
1.69011544076448
 21
-0.835165488742095
 31
0.0
  0
LINE
  8
5
  6
CONTINUOUS
 62
5
 10
2.05202048581131
 20
-0.64029354129444
 30
0.0
 11
2.24689243325684
 21
-0.835165488734992
 31
0.0
  0
ARC
  8
5
  6
CONTINUOUS
 62
5
 10
1.96850393700924
 20
-0.723810090098649
 30
0.0
 40
0.118110236
 50
45.000000000731
 51
135.000000000731
  0
ARC
  8
5
  6
CONTINUOUS
 62
5
 10
1.96850393701208
 20
-0.946520887378438
 30
0.0
 40
0.118110236
 50
225.000000000731
 51
315.00000000073
  0
LINE
  8
5
  6
CONTINUOUS
 62
5
 10
2.75590551101025
 20
-0.669291337987946
 30
0.0
 11
2.75590551100603
 21
-0.393700786987946
 31
0.0
  0
LINE
  8
5
  6
CONTINUOUS
 62
5
 10
2.63779527501206
 20
-0.787401573989754
 30
0.0
 11
2.36220472401206
 21
-0.787401573993973
 31
0.0
  0
LINE
  8
5
  6
CONTINUOUS
 62
5
 10
2.36220472400784
 20
-0.511811022993973
 30
0.0
 11
2.36220472401206
 21
-0.787401573993973
 31
0.0
  0
LINE
  8
5
  6
CONTINUOUS
 62
5
 10
2.48031496000603
 20
-0.393700786992165
 30
0.0
 11
2.75590551100603
 21
-0.393700786987946
 31
0.0
  0
ARC
  8
5
  6
CONTINUOUS
 62
5
 10
2.48031496000784
 20
-0.511811022992164
 30
0.0
 40
0.118110236
 50
90.0000000008773
 51
180.000000000877
  0
ARC
  8
5
  6
CONTINUOUS
 62
5
 10
2.63779527501025
 20
-0.669291337989754
 30
0.0
 40
0.118110236
 50
270.000000000877
 51
8.76980703429298E-10
  0
LINE
  8
5
  6
CONTINUOUS
 62
5
 10
2.99854137318009
 20
0.0835165488215416
 30
0.0
 11
2.80366942573357
 21
0.278388496261098
 31
0.0
  0
LINE
  8
5
  6
CONTINUOUS
 62
5
 10
2.99854137318307
 20
-0.083516548784745
 30
0.0
 11
2.80366942574352
 21
-0.278388496231263
 31
0.0
  0
LINE
  8
5
  6
CONTINUOUS
 62
5
 10
2.608797478297
 20
-0.083516548791706
 30
0.0
 11
2.80366942574352
 21
-0.278388496231263
 31
0.0
  0
LINE
  8
5
  6
CONTINUOUS
 62
5
 10
2.60879747829401
 20
0.0835165488145806
 30
0.0
 11
2.80366942573357
 21
0.278388496261098
 31
0.0
  0
ARC
  8
5
  6
CONTINUOUS
 62
5
 10
2.69231402709716
 20
1.1436171454271E-11
 30
0.0
 40
0.118110236
 50
134.999999999999
 51
224.999999999999
  0
ARC
  8
5
  6
CONTINUOUS
 62
5
 10
2.91502482437993
 20
1.83994625091444E-11
 30
0.0
 40
0.118110236
 50
314.999999999999
 51
44.9999999999995
  0
LINE
  8
5
  6
CONTINUOUS
 62
5
 10
0.0662601697519404
 20
2.75201285270517
 30
0.0
 11
-0.0189019939951453
 21
2.4899106633469
 31
0.0
  0
LINE
  8
5
  6
CONTINUOUS
 62
5
 10
0.215087749474224
 20
2.8278442921611
 30
0.0
 11
0.477189938832494
 21
2.74268212841401
 31
0.0
  0
LINE
  8
5
  6
CONTINUOUS
 62
5
 10
0.392027775085409
 20
2.48057993905574
 30
0.0
 11
0.477189938832494
 21
2.74268212841401
 31
0.0
  0
LINE
  8
5
  6
CONTINUOUS
 62
5
 10
0.243200195363125
 20
2.40474849959981
 30
0.0
 11
-0.0189019939951453
 21
2.4899106633469
 31
0.0
  0
ARC
  8
5
  6
CONTINUOUS
 62
5
 10
0.279698265496302
 20
2.51707800918892
 30
0.0
 40
0.118110236
 50
252.000000000234
 51
342.000000000233
  0
ARC
  8
5
  6
CONTINUOUS
 62
5
 10
0.178589679341048
 20
2.71551478257199
 30
0.0
 40
0.118110236
 50
72.000000000234
 51
162.000000000234
  0
LINE
  8
5
  6
CONTINUOUS
 62
5
 10
-0.397130678582399
 20
2.11102861129712
 30
0.0
 11
-0.272015186608782
 21
1.86547563235229
 31
0.0
  0
LINE
  8
5
  6
CONTINUOUS
 62
5
 10
-0.345514612800021
 20
2.26988652721289
 30
0.0
 11
-0.0999616338551834
 21
2.39500201918651
 31
0.0
  0
LINE
  8
5
  6
CONTINUOUS
 62
5
 10
0.0251538581184328
 20
2.14944904024167
 30
0.0
 11
-0.0999616338551834
 21
2.39500201918651
 31
0.0
  0
LINE
  8
5
  6
CONTINUOUS
 62
5
 10
-0.0264622076639447
 20
1.9905911243259
 30
0.0
 11
-0.272015186608782
 21
1.86547563235229
 31
0.0
  0
ARC
  8
5
  6
CONTINUOUS
 62
5
 10
-0.0800831327306381
 20
2.09582811517497
 30
0.0
 40
0.118110236
 50
297.00000000038
 51
27.00000000038
  0
ARC
  8
5
  6
CONTINUOUS
 62
5
 10
-0.291893687733327
 20
2.16464953636382
 30
0.0
 40
0.118110236
 50
117.00000000038
 51
207.00000000038
  0
LINE
  8
5
  6
CONTINUOUS
 62
5
 10
-0.271553186044059
 20
1.3301174963671
 30
0.0
 11
-0.00945099668535448
 21
1.24495533262135
 31
0.0
  0
LINE
  8
5
  6
CONTINUOUS
 62
5
 10
-0.347384625500749
 20
1.478945076089
 30
0.0
 11
-0.262222461755001
 21
1.7410472654477
 31
0.0
  0
LINE
  8
5
  6
CONTINUOUS
 62
5
 10
-0.000120272396295973
 20
1.65588510170195
 30
0.0
 11
-0.262222461755001
 21
1.7410472654477
 31
0.0
  0
LINE
  8
5
  6
CONTINUOUS
 62
5
 10
0.075711167060394
 20
1.50705752198006
 30
0.0
 11
-0.00945099668535448
 21
1.24495533262135
 31
0.0
  0
ARC
  8
5
  6
CONTINUOUS
 62
5
 10
-0.0366183425288995
 20
1.54355559211266
 30
0.0
 40
0.118110236
 50
342.000000000526
 51
72.0000000005261
  0
ARC
  8
5
  6
CONTINUOUS
 62
5
 10
-0.235055115911456
 20
1.44244700595639
 30
0.0
 40
0.118110236
 50
162.000000000526
 51
252.000000000526
  0
LINE
  8
5
  6
CONTINUOUS
 62
5
 10
0.369431055366353
 20
0.866726648036032
 30
0.0
 11
0.614984034310552
 21
0.991842140010902
 31
0.0
  0
LINE
  8
5
  6
CONTINUOUS
 62
5
 10
0.210573139450323
 20
0.918342713817599
 30
0.0
 11
0.0854576474754545
 21
1.1638956927618
 31
0.0
  0
LINE
  8
5
  6
CONTINUOUS
 62
5
 10
0.331010626419654
 20
1.28901118473667
 30
0.0
 11
0.0854576474754545
 21
1.1638956927618
 31
0.0
  0
LINE
  8
5
  6
CONTINUOUS
 62
5
 10
0.489868542335683
 20
1.2373951189551
 30
0.0
 11
0.614984034310552
 21
0.991842140010902
 31
0.0
  0
ARC
  8
5
  6
CONTINUOUS
 62
5
 10
0.384631551486884
 20
1.18377419388787
 30
0.0
 40
0.118110236
 50
27.0000000006725
 51
117.000000000672
  0
ARC
  8
5
  6
CONTINUOUS
 62
5
 10
0.315810130299122
 20
0.97196363888483
 30
0.0
 40
0.118110236
 50
207.000000000672
 51
297.000000000672
  0
LINE
  8
5
  6
CONTINUOUS
 62
5
 10
1.15034217029574
 20
0.992304140578357
 30
0.0
 11
1.23550433404015
 21
1.2544063299375
 31
0.0
  0
LINE
  8
5
  6
CONTINUOUS
 62
5
 10
1.00151459057423
 20
0.916472701120908
 30
0.0
 11
0.739412401215086
 21
1.00163486486532
 31
0.0
  0
LINE
  8
5
  6
CONTINUOUS
 62
5
 10
0.824574564959497
 20
1.26373705422446
 30
0.0
 11
0.739412401215086
 21
1.00163486486532
 31
0.0
  0
LINE
  8
5
  6
CONTINUOUS
 62
5
 10
0.973402144681007
 20
1.33956849368191
 30
0.0
 11
1.23550433404015
 21
1.2544063299375
 31
0.0
  0
ARC
  8
5
  6
CONTINUOUS
 62
5
 10
0.936904074548976
 20
1.22723898409243
 30
0.0
 40
0.118110236
 50
72.0000000008187
 51
162.000000000818
  0
ARC
  8
5
  6
CONTINUOUS
 62
5
 10
1.03801266070626
 20
1.02880221071039
 30
0.0
 40
0.118110236
 50
252.000000000818
 51
342.000000000818
  0
LINE
  8
5
  6
CONTINUOUS
 62
5
 10
1.61373301862353
 20
1.63328838199113
 30
0.0
 11
1.48861752664741
 21
1.87884136093469
 31
0.0
  0
LINE
  8
5
  6
CONTINUOUS
 62
5
 10
1.56211695284278
 20
1.47443046607484
 30
0.0
 11
1.31656397389922
 21
1.34931497409872
 31
0.0
  0
LINE
  8
5
  6
CONTINUOUS
 62
5
 10
1.19144848192309
 20
1.59486795304228
 30
0.0
 11
1.31656397389922
 21
1.34931497409872
 31
0.0
  0
LINE
  8
5
  6
CONTINUOUS
 62
5
 10
1.24306454770385
 20
1.75372586895857
 30
0.0
 11
1.48861752664741
 21
1.87884136093469
 31
0.0
  0
ARC
  8
5
  6
CONTINUOUS
 62
5
 10
1.29668547277162
 20
1.64848887811005
 30
0.0
 40
0.118110236
 50
117.000000000965
 51
207.000000000965
  0
ARC
  8
5
  6
CONTINUOUS
 62
5
 10
1.50849602777501
 20
1.57966745692337
 30
0.0
 40
0.118110236
 50
297.000000000965
 51
27.0000000009646
  0
LINE
  8
5
  6
CONTINUOUS
 62
5
 10
1.48815552607722
 20
2.41419949691987
 30
0.0
 11
1.22605333671765
 21
2.49936166066295
 31
0.0
  0
LINE
  8
5
  6
CONTINUOUS
 62
5
 10
1.56398696553543
 20
2.26537191719875
 30
0.0
 11
1.47882480179236
 21
2.00326972783918
 31
0.0
  0
LINE
  8
5
  6
CONTINUOUS
 62
5
 10
1.21672261243278
 20
2.08843189158225
 30
0.0
 11
1.47882480179236
 21
2.00326972783918
 31
0.0
  0
LINE
  8
5
  6
CONTINUOUS
 62
5
 10
1.14089117297458
 20
2.23725947130337
 30
0.0
 11
1.22605333671765
 21
2.49936166066295
 31
0.0
  0
ARC
  8
5
  6
CONTINUOUS
 62
5
 10
1.25322068256424
 20
2.20076140117192
 30
0.0
 40
0.118110236
 50
162.000000001111
 51
252.000000001111
  0
ARC
  8
5
  6
CONTINUOUS
 62
5
 10
1.45165745594577
 20
2.30186998733021
 30
0.0
 40
0.118110236
 50
342.000000001111
 51
72.0000000011109
  0
LINE
  8
5
  6
CONTINUOUS
 62
5
 10
0.847171284662081
 20
2.8775903452444
 30
0.0
 11
0.601618305719159
 21
2.75247485326703
 31
0.0
  0
LINE
  8
5
  6
CONTINUOUS
 62
5
 10
1.00602920057864
 20
2.82597427946446
 30
0.0
 11
1.13114469255601
 21
2.58042130052153
 31
0.0
  0
LINE
  8
5
  6
CONTINUOUS
 62
5
 10
0.88559171361309
 20
2.45530580854416
 30
0.0
 11
1.13114469255601
 21
2.58042130052153
 31
0.0
  0
LINE
  8
5
  6
CONTINUOUS
 62
5
 10
0.726733797696534
 20
2.5069218743241
 30
0.0
 11
0.601618305719159
 21
2.75247485326703
 31
0.0
  0
ARC
  8
5
  6
CONTINUOUS
 62
5
 10
0.831970788544785
 20
2.56054279939241
 30
0.0
 40
0.118110236
 50
207.000000001257
 51
297.000000001257
  0
ARC
  8
5
  6
CONTINUOUS
 62
5
 10
0.900792209730386
 20
2.77235335439615
 30
0.0
 40
0.118110236
 50
27.0000000012572
 51
117.000000001257
  0
LINE
  8
5
  6
CONTINUOUS
 62
5
 10
-2.59684423799348
 20
0.91343590642698
 30
0.0
 11
-2.373886798744
 21
0.751447844879844
 31
0.0
  0
LINE
  8
5
  6
CONTINUOUS
 62
5
 10
-2.62297397126288
 20
1.07841254942599
 30
0.0
 11
-2.46098590971574
 21
1.30136998867546
 31
0.0
  0
LINE
  8
5
  6
CONTINUOUS
 62
5
 10
-2.23802847046626
 20
1.13938192712833
 30
0.0
 11
-2.46098590971574
 21
1.30136998867546
 31
0.0
  0
LINE
  8
5
  6
CONTINUOUS
 62
5
 10
-2.21189873719686
 20
0.974405284129323
 30
0.0
 11
-2.373886798744
 21
0.751447844879844
 31
0.0
  0
ARC
  8
5
  6
CONTINUOUS
 62
5
 10
-2.30745192533106
 20
1.04382873899413
 30
0.0
 40
0.118110236
 50
324.000000000467
 51
54.0000000004676
  0
ARC
  8
5
  6
CONTINUOUS
 62
5
 10
-2.52742078312868
 20
1.00898909456118
 30
0.0
 40
0.118110236
 50
144.000000000467
 51
234.000000000467
  0
LINE
  8
5
  6
CONTINUOUS
 62
5
 10
-2.13042764553038
 20
0.274649996807352
 30
0.0
 11
-1.85823007152995
 21
0.317761857226097
 31
0.0
  0
LINE
  8
5
  6
CONTINUOUS
 62
5
 10
-2.265560260118
 20
0.372829588223608
 30
0.0
 11
-2.30867212053675
 21
0.645027162224036
 31
0.0
  0
LINE
  8
5
  6
CONTINUOUS
 62
5
 10
-2.03647454653632
 20
0.688139022642781
 30
0.0
 11
-2.30867212053675
 21
0.645027162224036
 31
0.0
  0
LINE
  8
5
  6
CONTINUOUS
 62
5
 10
-1.90134193194869
 20
0.589959431226525
 30
0.0
 11
-1.85823007152995
 21
0.317761857226097
 31
0.0
  0
ARC
  8
5
  6
CONTINUOUS
 62
5
 10
-2.01799803495063
 20
0.571482919640839
 30
0.0
 40
0.118110236
 50
9.00000000061405
 51
99.0000000006138
  0
ARC
  8
5
  6
CONTINUOUS
 62
5
 10
-2.14890415711606
 20
0.391306099809293
 30
0.0
 40
0.118110236
 50
189.000000000614
 51
279.000000000613
  0
LINE
  8
5
  6
CONTINUOUS
 62
5
 10
-1.34893146172303
 20
0.152766483779472
 30
0.0
 11
-1.18694340017703
 21
0.375723923029777
 31
0.0
  0
LINE
  8
5
  6
CONTINUOUS
 62
5
 10
-1.5139081047219
 20
0.12663675050923
 30
0.0
 11
-1.7368655439722
 21
0.288624812055229
 31
0.0
  0
LINE
  8
5
  6
CONTINUOUS
 62
5
 10
-1.5748774824262
 20
0.511582251305534
 30
0.0
 11
-1.7368655439722
 21
0.288624812055229
 31
0.0
  0
LINE
  8
5
  6
CONTINUOUS
 62
5
 10
-1.40990083942733
 20
0.537711984575776
 30
0.0
 11
-1.18694340017703
 21
0.375723923029777
 31
0.0
  0
ARC
  8
5
  6
CONTINUOUS
 62
5
 10
-1.47932429429165
 20
0.442158796441219
 30
0.0
 40
0.118110236
 50
54.0000000007602
 51
144.00000000076
  0
ARC
  8
5
  6
CONTINUOUS
 62
5
 10
-1.44448464985758
 20
0.222189938643786
 30
0.0
 40
0.118110236
 50
234.00000000076
 51
324.00000000076
  0
LINE
  8
5
  6
CONTINUOUS
 62
5
 10
-0.710145552105777
 20
0.619183076245834
 30
0.0
 11
-0.753257412525911
 21
0.891380650246042
 31
0.0
  0
LINE
  8
5
  6
CONTINUOUS
 62
5
 10
-0.808325143521344
 20
0.484050461657705
 30
0.0
 11
-1.08052271752155
 21
0.440938601237572
 31
0.0
  0
LINE
  8
5
  6
CONTINUOUS
 62
5
 10
-1.12363457794169
 20
0.71313617523778
 30
0.0
 11
-1.08052271752155
 21
0.440938601237572
 31
0.0
  0
LINE
  8
5
  6
CONTINUOUS
 62
5
 10
-1.02545498652612
 20
0.848268789825909
 30
0.0
 11
-0.753257412525911
 21
0.891380650246042
 31
0.0
  0
ARC
  8
5
  6
CONTINUOUS
 62
5
 10
-1.00697847493984
 20
0.731612686824061
 30
0.0
 40
0.118110236
 50
99.0000000009064
 51
189.000000000906
  0
ARC
  8
5
  6
CONTINUOUS
 62
5
 10
-0.826801655107624
 20
0.600706564659553
 30
0.0
 40
0.118110236
 50
279.000000000906
 51
9.00000000090628
  0
LINE
  8
5
  6
CONTINUOUS
 62
5
 10
-0.588262039081885
 20
1.40067926005381
 30
0.0
 11
-0.811219478333017
 21
1.56266732159867
 31
0.0
  0
LINE
  8
5
  6
CONTINUOUS
 62
5
 10
-0.562132305810802
 20
1.23570261705507
 30
0.0
 11
-0.724120367355663
 21
1.01274517780394
 31
0.0
  0
LINE
  8
5
  6
CONTINUOUS
 62
5
 10
-0.947077806606795
 20
1.1747332393488
 30
0.0
 11
-0.724120367355663
 21
1.01274517780394
 31
0.0
  0
LINE
  8
5
  6
CONTINUOUS
 62
5
 10
-0.973207539877878
 20
1.33970988234753
 30
0.0
 11
-0.811219478333017
 21
1.56266732159867
 31
0.0
  0
ARC
  8
5
  6
CONTINUOUS
 62
5
 10
-0.877654351742968
 20
1.27028642748371
 30
0.0
 40
0.118110236
 50
144.000000001052
 51
234.000000001052
  0
ARC
  8
5
  6
CONTINUOUS
 62
5
 10
-0.657685493945713
 20
1.3051260719189
 30
0.0
 40
0.118110236
 50
324.000000001052
 51
54.0000000010524
  0
LINE
  8
5
  6
CONTINUOUS
 62
5
 10
-1.05467863155151
 20
2.03946516966867
 30
0.0
 11
-1.3268762055515
 21
1.99635330924715
 31
0.0
  0
LINE
  8
5
  6
CONTINUOUS
 62
5
 10
-0.919546016962878
 20
1.9412855782538
 30
0.0
 11
-0.876434156541355
 21
1.66908800425381
 31
0.0
  0
LINE
  8
5
  6
CONTINUOUS
 62
5
 10
-1.14863173054134
 20
1.62597614383229
 30
0.0
 11
-0.876434156541355
 21
1.66908800425381
 31
0.0
  0
LINE
  8
5
  6
CONTINUOUS
 62
5
 10
-1.28376434512997
 20
1.72415573524716
 30
0.0
 11
-1.3268762055515
 21
1.99635330924715
 31
0.0
  0
ARC
  8
5
  6
CONTINUOUS
 62
5
 10
-1.16710824212822
 20
1.74263224683404
 30
0.0
 40
0.118110236
 50
189.000000001198
 51
279.000000001198
  0
ARC
  8
5
  6
CONTINUOUS
 62
5
 10
-1.03620211996463
 20
1.92280906666692
 30
0.0
 40
0.118110236
 50
9.00000000119874
 51
99.0000000011985
  0
LINE
  8
5
  6
CONTINUOUS
 62
5
 10
-1.8361748153601
 20
2.16134868268858
 30
0.0
 11
-1.99816287690382
 21
1.93839124343662
 31
0.0
  0
LINE
  8
5
  6
CONTINUOUS
 62
5
 10
-1.6711981723615
 20
2.1874784159605
 30
0.0
 11
-1.44824073310954
 21
2.02549035441678
 31
0.0
  0
LINE
  8
5
  6
CONTINUOUS
 62
5
 10
-1.61022879465326
 20
1.80253291516482
 30
0.0
 11
-1.44824073310954
 21
2.02549035441678
 31
0.0
  0
LINE
  8
5
  6
CONTINUOUS
 62
5
 10
-1.77520543765187
 20
1.7764031818929
 30
0.0
 11
-1.99816287690382
 21
1.93839124343662
 31
0.0
  0
ARC
  8
5
  6
CONTINUOUS
 62
5
 10
-1.70578198278852
 20
1.87195637002816
 30
0.0
 40
0.118110236
 50
234.000000001345
 51
324.000000001345
  0
ARC
  8
5
  6
CONTINUOUS
 62
5
 10
-1.74062162722484
 20
2.09192522782524
 30
0.0
 40
0.118110236
 50
54.0000000013451
 51
144.000000001345
  0
LINE
  8
5
  6
CONTINUOUS
 62
5
 10
-2.47496072497259
 20
1.6949320902157
 30
0.0
 11
-2.43184886454968
 21
1.42273451621593
 31
0.0
  0
LINE
  8
5
  6
CONTINUOUS
 62
5
 10
-2.3767811335584
 20
1.83006470480483
 30
0.0
 11
-2.10458355955863
 21
1.87317656522774
 31
0.0
  0
LINE
  8
5
  6
CONTINUOUS
 62
5
 10
-2.06147169913572
 20
1.60097899122797
 30
0.0
 11
-2.10458355955863
 21
1.87317656522774
 31
0.0
  0
LINE
  8
5
  6
CONTINUOUS
 62
5
 10
-2.15965129054991
 20
1.46584637663884
 30
0.0
 11
-2.43184886454968
 21
1.42273451621593
 31
0.0
  0
ARC
  8
5
  6
CONTINUOUS
 62
5
 10
-2.17812780213738
 20
1.5825024796405
 30
0.0
 40
0.118110236
 50
279.000000001491
 51
9.00000000149125
  0
ARC
  8
5
  6
CONTINUOUS
 62
5
 10
-2.35830462197093
 20
1.71340860180317
 30
0.0
 40
0.118110236
 50
99.0000000014911
 51
189.000000001491
  0
LINE
  8
5
  6
CONTINUOUS
 62
5
 10
-1.67119817230106
 20
-2.18747841599582
 30
0.0
 11
-1.44824073305489
 21
-2.02549035444413
 31
0.0
  0
LINE
  8
5
  6
CONTINUOUS
 62
5
 10
-1.8361748153006
 20
-2.16134868272979
 30
0.0
 11
-1.99816287685229
 21
-1.93839124348362
 31
0.0
  0
LINE
  8
5
  6
CONTINUOUS
 62
5
 10
-1.77520543760612
 20
-1.77640318193193
 30
0.0
 11
-1.99816287685229
 21
-1.93839124348362
 31
0.0
  0
LINE
  8
5
  6
CONTINUOUS
 62
5
 10
-1.61022879460658
 20
-1.80253291519796
 30
0.0
 11
-1.44824073305489
 21
-2.02549035444413
 31
0.0
  0
ARC
  8
5
  6
CONTINUOUS
 62
5
 10
-1.70578198273937
 20
-1.87195637006472
 30
0.0
 40
0.118110236
 50
36.0000000007017
 51
126.000000000702
  0
ARC
  8
5
  6
CONTINUOUS
 62
5
 10
-1.74062162716782
 20
-2.09192522786304
 30
0.0
 40
0.118110236
 50
216.000000000701
 51
306.000000000701
  0
LINE
  8
5
  6
CONTINUOUS
 62
5
 10
-0.919546016911242
 20
-1.94128557826226
 30
0.0
 11
-0.876434156499443
 21
-1.66908800426073
 31
0.0
  0
LINE
  8
5
  6
CONTINUOUS
 62
5
 10
-1.05467863149636
 20
-2.03946516968197
 30
0.0
 11
-1.32687620549789
 21
-1.99635330927017
 31
0.0
  0
LINE
  8
5
  6
CONTINUOUS
 62
5
 10
-1.28376434508609
 20
-1.72415573526864
 30
0.0
 11
-1.32687620549789
 21
-1.99635330927017
 31
0.0
  0
LINE
  8
5
  6
CONTINUOUS
 62
5
 10
-1.14863173050097
 20
-1.62597614384893
 30
0.0
 11
-0.876434156499443
 21
-1.66908800426073
 31
0.0
  0
ARC
  8
5
  6
CONTINUOUS
 62
5
 10
-1.16710824208368
 20
-1.74263224685135
 30
0.0
 40
0.118110236
 50
81.000000000848
 51
171.000000000848
  0
ARC
  8
5
  6
CONTINUOUS
 62
5
 10
-1.03620211991365
 20
-1.92280906667955
 30
0.0
 40
0.118110236
 50
261.000000000848
 51
351.000000000847
  0
LINE
  8
5
  6
CONTINUOUS
 62
5
 10
-0.562132305784374
 20
-1.23570261705076
 30
0.0
 11
-0.724120367337199
 21
-1.01274517780542
 31
0.0
  0
LINE
  8
5
  6
CONTINUOUS
 62
5
 10
-0.588262039049562
 20
-1.40067926005044
 30
0.0
 11
-0.811219478294909
 21
-1.56266732160326
 31
0.0
  0
LINE
  8
5
  6
CONTINUOUS
 62
5
 10
-0.973207539847734
 20
-1.33970988235792
 30
0.0
 11
-0.811219478294909
 21
-1.56266732160326
 31
0.0
  0
LINE
  8
5
  6
CONTINUOUS
 62
5
 10
-0.947077806582545
 20
-1.17473323935824
 30
0.0
 11
-0.724120367337199
 21
-1.01274517780542
 31
0.0
  0
ARC
  8
5
  6
CONTINUOUS
 62
5
 10
-0.877654351715303
 20
-1.27028642749067
 30
0.0
 40
0.118110236
 50
126.000000000994
 51
216.000000000994
  0
ARC
  8
5
  6
CONTINUOUS
 62
5
 10
-0.657685493916804
 20
-1.305126071918
 30
0.0
 40
0.118110236
 50
306.000000000994
 51
36.0000000009941
  0
LINE
  8
5
  6
CONTINUOUS
 62
5
 10
-0.808325143521768
 20
-0.484050461662198
 30
0.0
 11
-1.08052271752352
 21
-0.440938601251787
 31
0.0
  0
LINE
  8
5
  6
CONTINUOUS
 62
5
 10
-0.710145552101374
 20
-0.619183076246819
 30
0.0
 11
-0.753257412511784
 21
-0.891380650248567
 31
0.0
  0
LINE
  8
5
  6
CONTINUOUS
 62
5
 10
-1.02545498651353
 20
-0.848268789838157
 30
0.0
 11
-0.753257412511784
 21
-0.891380650248567
 31
0.0
  0
LINE
  8
5
  6
CONTINUOUS
 62
5
 10
-1.12363457793393
 20
-0.713136175253536
 30
0.0
 11
-1.08052271752352
 21
-0.440938601251787
 31
0.0
  0
ARC
  8
5
  6
CONTINUOUS
 62
5
 10
-1.00697847493142
 20
-0.73161268683565
 30
0.0
 40
0.118110236
 50
171.00000000114
 51
261.00000000114
  0
ARC
  8
5
  6
CONTINUOUS
 62
5
 10
-0.826801655103881
 20
-0.600706564664704
 30
0.0
 40
0.118110236
 50
351.00000000114
 51
81.0000000011401
  0
LINE
  8
5
  6
CONTINUOUS
 62
5
 10
-1.51390810473509
 20
-0.126636750538929
 30
0.0
 11
-1.73686554397961
 21
-0.288624812092893
 31
0.0
  0
LINE
  8
5
  6
CONTINUOUS
 62
5
 10
-1.34893146173529
 20
-0.152766483803277
 30
0.0
 11
-1.18694340018132
 21
-0.375723923047796
 31
0.0
  0
LINE
  8
5
  6
CONTINUOUS
 62
5
 10
-1.40990083942584
 20
-0.537711984601759
 30
0.0
 11
-1.18694340018132
 21
-0.375723923047796
 31
0.0
  0
LINE
  8
5
  6
CONTINUOUS
 62
5
 10
-1.57487748242565
 20
-0.511582251337412
 30
0.0
 11
-1.73686554397961
 21
-0.288624812092893
 31
0.0
  0
ARC
  8
5
  6
CONTINUOUS
 62
5
 10
-1.47932429429357
 20
-0.442158796469683
 30
0.0
 40
0.118110236
 50
216.000000001286
 51
306.000000001286
  0
ARC
  8
5
  6
CONTINUOUS
 62
5
 10
-1.44448464986736
 20
-0.222189938671006
 30
0.0
 40
0.118110236
 50
36.0000000012866
 51
126.000000001286
  0
LINE
  8
5
  6
CONTINUOUS
 62
5
 10
-2.2655602601224
 20
-0.37282958828016
 30
0.0
 11
-2.30867212053142
 21
-0.645027162282128
 31
0.0
  0
LINE
  8
5
  6
CONTINUOUS
 62
5
 10
-2.13042764553828
 20
-0.274649996859076
 30
0.0
 11
-1.85823007153631
 21
-0.317761857268097
 31
0.0
  0
LINE
  8
5
  6
CONTINUOUS
 62
5
 10
-1.90134193194533
 20
-0.589959431270066
 30
0.0
 11
-1.85823007153631
 21
-0.317761857268097
 31
0.0
  0
LINE
  8
5
  6
CONTINUOUS
 62
5
 10
-2.03647454652945
 20
-0.688139022691149
 30
0.0
 11
-2.30867212053142
 21
-0.645027162282128
 31
0.0
  0
ARC
  8
5
  6
CONTINUOUS
 62
5
 10
-2.01799803494793
 20
-0.571482919688547
 30
0.0
 40
0.118110236
 50
261.000000001432
 51
351.000000001432
  0
ARC
  8
5
  6
CONTINUOUS
 62
5
 10
-2.1489041571198
 20
-0.391306099861678
 30
0.0
 40
0.118110236
 50
81.0000000014328
 51
171.000000001433
  0
LINE
  8
5
  6
CONTINUOUS
 62
5
 10
-2.62297397124207
 20
-1.07841254949531
 30
0.0
 11
-2.46098590968697
 21
-1.301369988739
 31
0.0
  0
LINE
  8
5
  6
CONTINUOUS
 62
5
 10
-2.59684423797856
 20
-0.913435906495367
 30
0.0
 11
-2.37388679873487
 21
-0.751447844940266
 31
0.0
  0
LINE
  8
5
  6
CONTINUOUS
 62
5
 10
-2.21189873717977
 20
-0.974405284183959
 30
0.0
 11
-2.37388679873487
 21
-0.751447844940266
 31
0.0
  0
LINE
  8
5
  6
CONTINUOUS
 62
5
 10
-2.23802847044327
 20
-1.1393819271839
 30
0.0
 11
-2.46098590968697
 21
-1.301369988739
 31
0.0
  0
ARC
  8
5
  6
CONTINUOUS
 62
5
 10
-2.30745192531149
 20
-1.04382873905217
 30
0.0
 40
0.118110236
 50
306.000000001579
 51
36.0000000015788
  0
ARC
  8
5
  6
CONTINUOUS
 62
5
 10
-2.52742078311035
 20
-1.00898909462709
 30
0.0
 40
0.118110236
 50
126.000000001579
 51
216.000000001579
  0
LINE
  8
5
  6
CONTINUOUS
 62
5
 10
-2.376781133497
 20
-1.83006470488136
 30
0.0
 11
-2.10458355949481
 21
-1.87317656528899
 31
0.0
  0
LINE
  8
5
  6
CONTINUOUS
 62
5
 10
-2.47496072491878
 20
-1.69493209029774
 30
0.0
 11
-2.43184886451114
 21
-1.42273451629555
 31
0.0
  0
LINE
  8
5
  6
CONTINUOUS
 62
5
 10
-2.15965129050896
 20
-1.46584637670318
 30
0.0
 11
-2.43184886451114
 21
-1.42273451629555
 31
0.0
  0
LINE
  8
5
  6
CONTINUOUS
 62
5
 10
-2.06147169908718
 20
-1.6009789912868
 30
0.0
 11
-2.10458355949481
 21
-1.87317656528899
 31
0.0
  0
ARC
  8
5
  6
CONTINUOUS
 62
5
 10
-2.17812780208988
 20
-1.58250247970588
 30
0.0
 40
0.118110236
 50
351.000000001725
 51
81.0000000017251
  0
ARC
  8
5
  6
CONTINUOUS
 62
5
 10
-2.35830462191608
 20
-1.71340860187866
 30
0.0
 40
0.118110236
 50
171.000000001725
 51
261.000000001724
  0
LINE
  8
5
  6
CONTINUOUS
 62
5
 10
1.5639869655877
 20
-2.26537191715219
 30
0.0
 11
1.47882480183526
 21
-2.00326972779566
 31
0.0
  0
LINE
  8
5
  6
CONTINUOUS
 62
5
 10
1.4881555261348
 20
-2.41419949687603
 30
0.0
 11
1.22605333677827
 21
-2.49936166062846
 31
0.0
  0
LINE
  8
5
  6
CONTINUOUS
 62
5
 10
1.14089117302584
 20
-2.23725947127193
 30
0.0
 11
1.22605333677827
 21
-2.49936166062846
 31
0.0
  0
LINE
  8
5
  6
CONTINUOUS
 62
5
 10
1.21672261247873
 20
-2.0884318915481
 30
0.0
 11
1.47882480183526
 21
-2.00326972779566
 31
0.0
  0
ARC
  8
5
  6
CONTINUOUS
 62
5
 10
1.2532206826142
 20
-2.20076140113646
 30
0.0
 40
0.118110236
 50
108.000000000936
 51
198.000000000935
  0
ARC
  8
5
  6
CONTINUOUS
 62
5
 10
1.45165745599933
 20
-2.30186998728766
 30
0.0
 40
0.118110236
 50
288.000000000935
 51
18.0000000009354
  0
LINE
  8
5
  6
CONTINUOUS
 62
5
 10
1.56211695286678
 20
-1.47443046602835
 30
0.0
 11
1.31656397391875
 21
-1.349314974061
 31
0.0
  0
LINE
  8
5
  6
CONTINUOUS
 62
5
 10
1.61373301865322
 20
-1.6332883819428
 30
0.0
 11
1.48861752668586
 21
-1.87884136089083
 31
0.0
  0
LINE
  8
5
  6
CONTINUOUS
 62
5
 10
1.24306454773783
 20
-1.75372586892348
 30
0.0
 11
1.48861752668586
 21
-1.87884136089083
 31
0.0
  0
LINE
  8
5
  6
CONTINUOUS
 62
5
 10
1.1914484819514
 20
-1.59486795300903
 30
0.0
 11
1.31656397391875
 21
-1.349314974061
 31
0.0
  0
ARC
  8
5
  6
CONTINUOUS
 62
5
 10
1.29668547280184
 20
-1.64848887807304
 30
0.0
 40
0.118110236
 50
153.000000001082
 51
243.000000001081
  0
ARC
  8
5
  6
CONTINUOUS
 62
5
 10
1.50849602780278
 20
-1.57966745687879
 30
0.0
 40
0.118110236
 50
333.000000001081
 51
63.0000000010817
  0
LINE
  8
5
  6
CONTINUOUS
 62
5
 10
1.0015145905783
 20
-0.916472701094443
 30
0.0
 11
0.739412401222202
 21
-1.00163486484822
 31
0.0
  0
LINE
  8
5
  6
CONTINUOUS
 62
5
 10
1.15034217030252
 20
-0.992304140546575
 30
0.0
 11
1.23550433405629
 21
-1.25440632990267
 31
0.0
  0
LINE
  8
5
  6
CONTINUOUS
 62
5
 10
0.973402144700195
 20
-1.33956849365645
 30
0.0
 11
1.23550433405629
 21
-1.25440632990267
 31
0.0
  0
LINE
  8
5
  6
CONTINUOUS
 62
5
 10
0.824574564975976
 20
-1.26373705420431
 30
0.0
 11
0.739412401222202
 21
-1.00163486484822
 31
0.0
  0
ARC
  8
5
  6
CONTINUOUS
 62
5
 10
0.936904074564152
 20
-1.22723898406827
 30
0.0
 40
0.118110236
 50
198.000000001228
 51
288.000000001228
  0
ARC
  8
5
  6
CONTINUOUS
 62
5
 10
1.03801266071434
 20
-1.02880221068262
 30
0.0
 40
0.118110236
 50
18.0000000012282
 51
108.000000001228
  0
LINE
  8
5
  6
CONTINUOUS
 62
5
 10
0.210573139454465
 20
-0.918342713819391
 30
0.0
 11
0.0854576474883675
 21
-1.16389569276806
 31
0.0
  0
LINE
  8
5
  6
CONTINUOUS
 62
5
 10
0.36943105536865
 20
-0.866726648032148
 30
0.0
 11
0.614984034317319
 21
-0.991842139998246
 31
0.0
  0
LINE
  8
5
  6
CONTINUOUS
 62
5
 10
0.489868542351221
 20
-1.23739511894691
 30
0.0
 11
0.614984034317319
 21
-0.991842139998246
 31
0.0
  0
LINE
  8
5
  6
CONTINUOUS
 62
5
 10
0.331010626437036
 20
-1.28901118473416
 30
0.0
 11
0.0854576474883675
 21
-1.16389569276806
 31
0.0
  0
ARC
  8
5
  6
CONTINUOUS
 62
5
 10
0.384631551500508
 20
-1.18377419388344
 30
0.0
 40
0.118110236
 50
243.000000001374
 51
333.000000001374
  0
ARC
  8
5
  6
CONTINUOUS
 62
5
 10
0.315810130305179
 20
-0.971963638882862
 30
0.0
 40
0.118110236
 50
63.0000000013743
 51
153.000000001374
  0
LINE
  8
5
  6
CONTINUOUS
 62
5
 10
-0.34738462547658
 20
-1.47894507611072
 30
0.0
 11
-0.262222461721469
 21
-1.74104726546638
 31
0.0
  0
LINE
  8
5
  6
CONTINUOUS
 62
5
 10
-0.271553186025207
 20
-1.33011749638612
 30
0.0
 11
-0.00945099666954491
 21
-1.24495533263101
 31
0.0
  0
LINE
  8
5
  6
CONTINUOUS
 62
5
 10
0.0757111670855665
 20
-1.50705752198667
 30
0.0
 11
-0.00945099666954491
 21
-1.24495533263101
 31
0.0
  0
LINE
  8
5
  6
CONTINUOUS
 62
5
 10
-0.000120272365806307
 20
-1.65588510171127
 30
0.0
 11
-0.262222461721469
 21
-1.74104726546638
 31
0.0
  0
ARC
  8
5
  6
CONTINUOUS
 62
5
 10
-0.0366183425024221
 20
-1.54355559212328
 30
0.0
 40
0.118110236
 50
288.00000000152
 51
18.0000000015203
  0
ARC
  8
5
  6
CONTINUOUS
 62
5
 10
-0.235055115888591
 20
-1.44244700597411
 30
0.0
 40
0.118110236
 50
108.00000000152
 51
198.00000000152
  0
LINE
  8
5
  6
CONTINUOUS
 62
5
 10
-0.345514612747596
 20
-2.26988652723455
 30
0.0
 11
-0.0999616337982885
 21
-2.39500201919939
 31
0.0
  0
LINE
  8
5
  6
CONTINUOUS
 62
5
 10
-0.397130678535649
 20
-2.11102861132063
 30
0.0
 11
-0.272015186570804
 21
-1.86547563237132
 31
0.0
  0
LINE
  8
5
  6
CONTINUOUS
 62
5
 10
-0.026462207621497
 20
-1.99059112433616
 30
0.0
 11
-0.272015186570804
 21
-1.86547563237132
 31
0.0
  0
LINE
  8
5
  6
CONTINUOUS
 62
5
 10
0.0251538581665561
 20
-2.14944904025009
 30
0.0
 11
-0.0999616337982885
 21
-2.39500201919939
 31
0.0
  0
ARC
  8
5
  6
CONTINUOUS
 62
5
 10
-0.0800831326844311
 20
-2.09582811518715
 30
0.0
 40
0.118110236
 50
333.000000001666
 51
63.0000000016664
  0
ARC
  8
5
  6
CONTINUOUS
 62
5
 10
-0.291893687684662
 20
-2.16464953638356
 30
0.0
 40
0.118110236
 50
153.000000001666
 51
243.000000001666
  0
LINE
  8
5
  6
CONTINUOUS
 62
5
 10
0.215087749546583
 20
-2.82784429216273
 30
0.0
 11
0.47718993890181
 21
-2.74268212840628
 31
0.0
  0
LINE
  8
5
  6
CONTINUOUS
 62
5
 10
0.0662601698215894
 20
-2.75201285271212
 30
0.0
 11
-0.0189019939348588
 21
-2.48991066335689
 31
0.0
  0
LINE
  8
5
  6
CONTINUOUS
 62
5
 10
0.243200195420369
 20
-2.40474849960044
 30
0.0
 11
-0.0189019939348588
 21
-2.48991066335689
 31
0.0
  0
LINE
  8
5
  6
CONTINUOUS
 62
5
 10
0.392027775145362
 20
-2.48057993905105
 30
0.0
 11
0.47718993890181
 21
-2.74268212840628
 31
0.0
  0
ARC
  8
5
  6
CONTINUOUS
 62
5
 10
0.279698265557559
 20
-2.51707800918824
 30
0.0
 40
0.118110236
 50
18.000000001813
 51
108.000000001813
  0
ARC
  8
5
  6
CONTINUOUS
 62
5
 10
0.178589679409393
 20
-2.71551478257493
 30
0.0
 40
0.118110236
 50
198.000000001813
 51
288.000000001812
  0
LINE
  8
5
  6
CONTINUOUS
 62
5
 10
1.0060292006704
 20
-2.82597427942971
 30
0.0
 11
1.13114469263399
 21
-2.58042130047977
 31
0.0
  0
LINE
  8
5
  6
CONTINUOUS
 62
5
 10
0.84717128475674
 20
-2.87759034521857
 30
0.0
 11
0.601618305806794
 21
-2.75247485325498
 31
0.0
  0
LINE
  8
5
  6
CONTINUOUS
 62
5
 10
0.726733797770386
 20
-2.50692187430504
 30
0.0
 11
0.601618305806794
 21
-2.75247485325498
 31
0.0
  0
LINE
  8
5
  6
CONTINUOUS
 62
5
 10
0.885591713684044
 20
-2.45530580851617
 30
0.0
 11
1.13114469263399
 21
-2.58042130047977
 31
0.0
  0
ARC
  8
5
  6
CONTINUOUS
 62
5
 10
0.831970788621647
 20
-2.56054279936743
 30
0.0
 40
0.118110236
 50
63.0000000019592
 51
153.000000001959
  0
ARC
  8
5
  6
CONTINUOUS
 62
5
 10
0.900792209819138
 20
-2.77235335436731
 30
0.0
 40
0.118110236
 50
243.000000001959
 51
333.000000001958
  0
ARC
  8
5
  6
CONTINUOUS
 62
5
 10
1.968503937
 20
9.85717715723769E-16
 30
0.0
 40
0.0984251970000001
 50
359.999999999999
 51
180
  0
ARC
  8
5
  6
CONTINUOUS
 62
5
 10
1.968503937
 20
-9.73664105477619E-16
 30
0.0
 40
0.0984251970000001
 50
179.999999999999
 51
359.999999999999
  0
ARC
  8
5
  6
CONTINUOUS
 62
5
 10
0.608301170019347
 20
1.872158496639
 30
0.0
 40
0.0984251970000001
 50
72.0000000002337
 51
252.000000000234
  0
ARC
  8
5
  6
CONTINUOUS
 62
5
 10
0.608301170019348
 20
1.872158496639
 30
0.0
 40
0.0984251970000001
 50
252.000000000233
 51
72.0000000002337
  0
ARC
  8
5
  6
CONTINUOUS
 62
5
 10
-1.59255313853644
 20
1.15705758323527
 30
0.0
 40
0.0984251970000001
 50
144.000000000467
 51
324.000000000467
  0
ARC
  8
5
  6
CONTINUOUS
 62
5
 10
-1.59255313853644
 20
1.15705758323527
 30
0.0
 40
0.0984251970000001
 50
324.000000000467
 51
144.000000000468
  0
ARC
  8
5
  6
CONTINUOUS
 62
5
 10
-1.59255313851282
 20
-1.15705758326778
 30
0.0
 40
0.0984251970000001
 50
216.000000000701
 51
36.0000000007015
  0
ARC
  8
5
  6
CONTINUOUS
 62
5
 10
-1.59255313851282
 20
-1.15705758326778
 30
0.0
 40
0.0984251970000001
 50
36.0000000007016
 51
216.000000000702
  0
ARC
  8
5
  6
CONTINUOUS
 62
5
 10
0.608301170057565
 20
-1.87215849662658
 30
0.0
 40
0.098425197
 50
288.000000000935
 51
108.000000000936
  0
ARC
  8
5
  6
CONTINUOUS
 62
5
 10
0.608301170057564
 20
-1.87215849662658
 30
0.0
 40
0.098425197
 50
108.000000000935
 51
288.000000000935
  0
ENDSEC
  0
EOF
