  0
SECTION
  2
ENTITIES
  0
LINE
  8
   0
  62
   0
  10
   0.000000
  20
   0.000000
  30
   0.0
  11
   0.000000
  21
   0.393701
  31
   0.0
  0
LINE
  8
   0
  62
   1
  10
   0.039370
  20
   0.000000
  30
   0.0
  11
   0.039370
  21
   0.393701
  31
   0.0
  0
LINE
  8
   0
  62
   2
  10
   0.078740
  20
   0.000000
  30
   0.0
  11
   0.078740
  21
   0.393701
  31
   0.0
  0
LINE
  8
   0
  62
   3
  10
   0.118110
  20
   0.000000
  30
   0.0
  11
   0.118110
  21
   0.393701
  31
   0.0
  0
LINE
  8
   0
  62
   4
  10
   0.157480
  20
   0.000000
  30
   0.0
  11
   0.157480
  21
   0.393701
  31
   0.0
  0
LINE
  8
   0
  62
   5
  10
   0.196850
  20
   0.000000
  30
   0.0
  11
   0.196850
  21
   0.393701
  31
   0.0
  0
LINE
  8
   0
  62
   6
  10
   0.236220
  20
   0.000000
  30
   0.0
  11
   0.236220
  21
   0.393701
  31
   0.0
  0
LINE
  8
   0
  62
   7
  10
   0.275591
  20
   0.000000
  30
   0.0
  11
   0.275591
  21
   0.393701
  31
   0.0
  0
LINE
  8
   0
  62
   8
  10
   0.314961
  20
   0.000000
  30
   0.0
  11
   0.314961
  21
   0.393701
  31
   0.0
  0
LINE
  8
   0
  62
   9
  10
   0.354331
  20
   0.000000
  30
   0.0
  11
   0.354331
  21
   0.393701
  31
   0.0
  0
LINE
  8
   0
  62
   10
  10
   0.393701
  20
   0.000000
  30
   0.0
  11
   0.393701
  21
   0.393701
  31
   0.0
  0
LINE
  8
   0
  62
   11
  10
   0.433071
  20
   0.000000
  30
   0.0
  11
   0.433071
  21
   0.393701
  31
   0.0
  0
LINE
  8
   0
  62
   12
  10
   0.472441
  20
   0.000000
  30
   0.0
  11
   0.472441
  21
   0.393701
  31
   0.0
  0
LINE
  8
   0
  62
   13
  10
   0.511811
  20
   0.000000
  30
   0.0
  11
   0.511811
  21
   0.393701
  31
   0.0
  0
LINE
  8
   0
  62
   14
  10
   0.551181
  20
   0.000000
  30
   0.0
  11
   0.551181
  21
   0.393701
  31
   0.0
  0
LINE
  8
   0
  62
   15
  10
   0.590551
  20
   0.000000
  30
   0.0
  11
   0.590551
  21
   0.393701
  31
   0.0
  0
LINE
  8
   0
  62
   16
  10
   0.629921
  20
   0.000000
  30
   0.0
  11
   0.629921
  21
   0.393701
  31
   0.0
  0
LINE
  8
   0
  62
   17
  10
   0.669291
  20
   0.000000
  30
   0.0
  11
   0.669291
  21
   0.393701
  31
   0.0
  0
LINE
  8
   0
  62
   18
  10
   0.708661
  20
   0.000000
  30
   0.0
  11
   0.708661
  21
   0.393701
  31
   0.0
  0
LINE
  8
   0
  62
   19
  10
   0.748031
  20
   0.000000
  30
   0.0
  11
   0.748031
  21
   0.393701
  31
   0.0
  0
LINE
  8
   0
  62
   20
  10
   0.787402
  20
   0.000000
  30
   0.0
  11
   0.787402
  21
   0.393701
  31
   0.0
  0
LINE
  8
   0
  62
   21
  10
   0.826772
  20
   0.000000
  30
   0.0
  11
   0.826772
  21
   0.393701
  31
   0.0
  0
LINE
  8
   0
  62
   22
  10
   0.866142
  20
   0.000000
  30
   0.0
  11
   0.866142
  21
   0.393701
  31
   0.0
  0
LINE
  8
   0
  62
   23
  10
   0.905512
  20
   0.000000
  30
   0.0
  11
   0.905512
  21
   0.393701
  31
   0.0
  0
LINE
  8
   0
  62
   24
  10
   0.944882
  20
   0.000000
  30
   0.0
  11
   0.944882
  21
   0.393701
  31
   0.0
  0
LINE
  8
   0
  62
   25
  10
   0.984252
  20
   0.000000
  30
   0.0
  11
   0.984252
  21
   0.393701
  31
   0.0
  0
LINE
  8
   0
  62
   26
  10
   1.023622
  20
   0.000000
  30
   0.0
  11
   1.023622
  21
   0.393701
  31
   0.0
  0
LINE
  8
   0
  62
   27
  10
   1.062992
  20
   0.000000
  30
   0.0
  11
   1.062992
  21
   0.393701
  31
   0.0
  0
LINE
  8
   0
  62
   28
  10
   1.102362
  20
   0.000000
  30
   0.0
  11
   1.102362
  21
   0.393701
  31
   0.0
  0
LINE
  8
   0
  62
   29
  10
   1.141732
  20
   0.000000
  30
   0.0
  11
   1.141732
  21
   0.393701
  31
   0.0
  0
LINE
  8
   0
  62
   30
  10
   1.181102
  20
   0.000000
  30
   0.0
  11
   1.181102
  21
   0.393701
  31
   0.0
  0
LINE
  8
   0
  62
   31
  10
   1.220472
  20
   0.000000
  30
   0.0
  11
   1.220472
  21
   0.393701
  31
   0.0
  0
LINE
  8
   0
  62
   32
  10
   1.259843
  20
   0.000000
  30
   0.0
  11
   1.259843
  21
   0.393701
  31
   0.0
  0
LINE
  8
   0
  62
   33
  10
   1.299213
  20
   0.000000
  30
   0.0
  11
   1.299213
  21
   0.393701
  31
   0.0
  0
LINE
  8
   0
  62
   34
  10
   1.338583
  20
   0.000000
  30
   0.0
  11
   1.338583
  21
   0.393701
  31
   0.0
  0
LINE
  8
   0
  62
   35
  10
   1.377953
  20
   0.000000
  30
   0.0
  11
   1.377953
  21
   0.393701
  31
   0.0
  0
LINE
  8
   0
  62
   36
  10
   1.417323
  20
   0.000000
  30
   0.0
  11
   1.417323
  21
   0.393701
  31
   0.0
  0
LINE
  8
   0
  62
   37
  10
   1.456693
  20
   0.000000
  30
   0.0
  11
   1.456693
  21
   0.393701
  31
   0.0
  0
LINE
  8
   0
  62
   38
  10
   1.496063
  20
   0.000000
  30
   0.0
  11
   1.496063
  21
   0.393701
  31
   0.0
  0
LINE
  8
   0
  62
   39
  10
   1.535433
  20
   0.000000
  30
   0.0
  11
   1.535433
  21
   0.393701
  31
   0.0
  0
LINE
  8
   0
  62
   40
  10
   1.574803
  20
   0.000000
  30
   0.0
  11
   1.574803
  21
   0.393701
  31
   0.0
  0
LINE
  8
   0
  62
   41
  10
   1.614173
  20
   0.000000
  30
   0.0
  11
   1.614173
  21
   0.393701
  31
   0.0
  0
LINE
  8
   0
  62
   42
  10
   1.653543
  20
   0.000000
  30
   0.0
  11
   1.653543
  21
   0.393701
  31
   0.0
  0
LINE
  8
   0
  62
   43
  10
   1.692913
  20
   0.000000
  30
   0.0
  11
   1.692913
  21
   0.393701
  31
   0.0
  0
LINE
  8
   0
  62
   44
  10
   1.732283
  20
   0.000000
  30
   0.0
  11
   1.732283
  21
   0.393701
  31
   0.0
  0
LINE
  8
   0
  62
   45
  10
   1.771654
  20
   0.000000
  30
   0.0
  11
   1.771654
  21
   0.393701
  31
   0.0
  0
LINE
  8
   0
  62
   46
  10
   1.811024
  20
   0.000000
  30
   0.0
  11
   1.811024
  21
   0.393701
  31
   0.0
  0
LINE
  8
   0
  62
   47
  10
   1.850394
  20
   0.000000
  30
   0.0
  11
   1.850394
  21
   0.393701
  31
   0.0
  0
LINE
  8
   0
  62
   48
  10
   1.889764
  20
   0.000000
  30
   0.0
  11
   1.889764
  21
   0.393701
  31
   0.0
  0
LINE
  8
   0
  62
   49
  10
   1.929134
  20
   0.000000
  30
   0.0
  11
   1.929134
  21
   0.393701
  31
   0.0
  0
LINE
  8
   0
  62
   50
  10
   1.968504
  20
   0.000000
  30
   0.0
  11
   1.968504
  21
   0.393701
  31
   0.0
  0
LINE
  8
   0
  62
   51
  10
   2.007874
  20
   0.000000
  30
   0.0
  11
   2.007874
  21
   0.393701
  31
   0.0
  0
LINE
  8
   0
  62
   52
  10
   2.047244
  20
   0.000000
  30
   0.0
  11
   2.047244
  21
   0.393701
  31
   0.0
  0
LINE
  8
   0
  62
   53
  10
   2.086614
  20
   0.000000
  30
   0.0
  11
   2.086614
  21
   0.393701
  31
   0.0
  0
LINE
  8
   0
  62
   54
  10
   2.125984
  20
   0.000000
  30
   0.0
  11
   2.125984
  21
   0.393701
  31
   0.0
  0
LINE
  8
   0
  62
   55
  10
   2.165354
  20
   0.000000
  30
   0.0
  11
   2.165354
  21
   0.393701
  31
   0.0
  0
LINE
  8
   0
  62
   56
  10
   2.204724
  20
   0.000000
  30
   0.0
  11
   2.204724
  21
   0.393701
  31
   0.0
  0
LINE
  8
   0
  62
   57
  10
   2.244094
  20
   0.000000
  30
   0.0
  11
   2.244094
  21
   0.393701
  31
   0.0
  0
LINE
  8
   0
  62
   58
  10
   2.283465
  20
   0.000000
  30
   0.0
  11
   2.283465
  21
   0.393701
  31
   0.0
  0
LINE
  8
   0
  62
   59
  10
   2.322835
  20
   0.000000
  30
   0.0
  11
   2.322835
  21
   0.393701
  31
   0.0
  0
LINE
  8
   0
  62
   60
  10
   2.362205
  20
   0.000000
  30
   0.0
  11
   2.362205
  21
   0.393701
  31
   0.0
  0
LINE
  8
   0
  62
   61
  10
   2.401575
  20
   0.000000
  30
   0.0
  11
   2.401575
  21
   0.393701
  31
   0.0
  0
LINE
  8
   0
  62
   62
  10
   2.440945
  20
   0.000000
  30
   0.0
  11
   2.440945
  21
   0.393701
  31
   0.0
  0
LINE
  8
   0
  62
   63
  10
   2.480315
  20
   0.000000
  30
   0.0
  11
   2.480315
  21
   0.393701
  31
   0.0
  0
LINE
  8
   0
  62
   64
  10
   2.519685
  20
   0.000000
  30
   0.0
  11
   2.519685
  21
   0.393701
  31
   0.0
  0
LINE
  8
   0
  62
   65
  10
   2.559055
  20
   0.000000
  30
   0.0
  11
   2.559055
  21
   0.393701
  31
   0.0
  0
LINE
  8
   0
  62
   66
  10
   2.598425
  20
   0.000000
  30
   0.0
  11
   2.598425
  21
   0.393701
  31
   0.0
  0
LINE
  8
   0
  62
   67
  10
   2.637795
  20
   0.000000
  30
   0.0
  11
   2.637795
  21
   0.393701
  31
   0.0
  0
LINE
  8
   0
  62
   68
  10
   2.677165
  20
   0.000000
  30
   0.0
  11
   2.677165
  21
   0.393701
  31
   0.0
  0
LINE
  8
   0
  62
   69
  10
   2.716535
  20
   0.000000
  30
   0.0
  11
   2.716535
  21
   0.393701
  31
   0.0
  0
LINE
  8
   0
  62
   70
  10
   2.755906
  20
   0.000000
  30
   0.0
  11
   2.755906
  21
   0.393701
  31
   0.0
  0
LINE
  8
   0
  62
   71
  10
   2.795276
  20
   0.000000
  30
   0.0
  11
   2.795276
  21
   0.393701
  31
   0.0
  0
LINE
  8
   0
  62
   72
  10
   2.834646
  20
   0.000000
  30
   0.0
  11
   2.834646
  21
   0.393701
  31
   0.0
  0
LINE
  8
   0
  62
   73
  10
   2.874016
  20
   0.000000
  30
   0.0
  11
   2.874016
  21
   0.393701
  31
   0.0
  0
LINE
  8
   0
  62
   74
  10
   2.913386
  20
   0.000000
  30
   0.0
  11
   2.913386
  21
   0.393701
  31
   0.0
  0
LINE
  8
   0
  62
   75
  10
   2.952756
  20
   0.000000
  30
   0.0
  11
   2.952756
  21
   0.393701
  31
   0.0
  0
LINE
  8
   0
  62
   76
  10
   2.992126
  20
   0.000000
  30
   0.0
  11
   2.992126
  21
   0.393701
  31
   0.0
  0
LINE
  8
   0
  62
   77
  10
   3.031496
  20
   0.000000
  30
   0.0
  11
   3.031496
  21
   0.393701
  31
   0.0
  0
LINE
  8
   0
  62
   78
  10
   3.070866
  20
   0.000000
  30
   0.0
  11
   3.070866
  21
   0.393701
  31
   0.0
  0
LINE
  8
   0
  62
   79
  10
   3.110236
  20
   0.000000
  30
   0.0
  11
   3.110236
  21
   0.393701
  31
   0.0
  0
LINE
  8
   0
  62
   80
  10
   3.149606
  20
   0.000000
  30
   0.0
  11
   3.149606
  21
   0.393701
  31
   0.0
  0
LINE
  8
   0
  62
   81
  10
   3.188976
  20
   0.000000
  30
   0.0
  11
   3.188976
  21
   0.393701
  31
   0.0
  0
LINE
  8
   0
  62
   82
  10
   3.228346
  20
   0.000000
  30
   0.0
  11
   3.228346
  21
   0.393701
  31
   0.0
  0
LINE
  8
   0
  62
   83
  10
   3.267717
  20
   0.000000
  30
   0.0
  11
   3.267717
  21
   0.393701
  31
   0.0
  0
LINE
  8
   0
  62
   84
  10
   3.307087
  20
   0.000000
  30
   0.0
  11
   3.307087
  21
   0.393701
  31
   0.0
  0
LINE
  8
   0
  62
   85
  10
   3.346457
  20
   0.000000
  30
   0.0
  11
   3.346457
  21
   0.393701
  31
   0.0
  0
LINE
  8
   0
  62
   86
  10
   3.385827
  20
   0.000000
  30
   0.0
  11
   3.385827
  21
   0.393701
  31
   0.0
  0
LINE
  8
   0
  62
   87
  10
   3.425197
  20
   0.000000
  30
   0.0
  11
   3.425197
  21
   0.393701
  31
   0.0
  0
LINE
  8
   0
  62
   88
  10
   3.464567
  20
   0.000000
  30
   0.0
  11
   3.464567
  21
   0.393701
  31
   0.0
  0
LINE
  8
   0
  62
   89
  10
   3.503937
  20
   0.000000
  30
   0.0
  11
   3.503937
  21
   0.393701
  31
   0.0
  0
LINE
  8
   0
  62
   90
  10
   3.543307
  20
   0.000000
  30
   0.0
  11
   3.543307
  21
   0.393701
  31
   0.0
  0
LINE
  8
   0
  62
   91
  10
   3.582677
  20
   0.000000
  30
   0.0
  11
   3.582677
  21
   0.393701
  31
   0.0
  0
LINE
  8
   0
  62
   92
  10
   3.622047
  20
   0.000000
  30
   0.0
  11
   3.622047
  21
   0.393701
  31
   0.0
  0
LINE
  8
   0
  62
   93
  10
   3.661417
  20
   0.000000
  30
   0.0
  11
   3.661417
  21
   0.393701
  31
   0.0
  0
LINE
  8
   0
  62
   94
  10
   3.700787
  20
   0.000000
  30
   0.0
  11
   3.700787
  21
   0.393701
  31
   0.0
  0
LINE
  8
   0
  62
   95
  10
   3.740157
  20
   0.000000
  30
   0.0
  11
   3.740157
  21
   0.393701
  31
   0.0
  0
LINE
  8
   0
  62
   96
  10
   3.779528
  20
   0.000000
  30
   0.0
  11
   3.779528
  21
   0.393701
  31
   0.0
  0
LINE
  8
   0
  62
   97
  10
   3.818898
  20
   0.000000
  30
   0.0
  11
   3.818898
  21
   0.393701
  31
   0.0
  0
LINE
  8
   0
  62
   98
  10
   3.858268
  20
   0.000000
  30
   0.0
  11
   3.858268
  21
   0.393701
  31
   0.0
  0
LINE
  8
   0
  62
   99
  10
   3.897638
  20
   0.000000
  30
   0.0
  11
   3.897638
  21
   0.393701
  31
   0.0
  0
LINE
  8
   0
  62
   100
  10
   3.937008
  20
   0.000000
  30
   0.0
  11
   3.937008
  21
   0.393701
  31
   0.0
  0
LINE
  8
   0
  62
   101
  10
   3.976378
  20
   0.000000
  30
   0.0
  11
   3.976378
  21
   0.393701
  31
   0.0
  0
LINE
  8
   0
  62
   102
  10
   4.015748
  20
   0.000000
  30
   0.0
  11
   4.015748
  21
   0.393701
  31
   0.0
  0
LINE
  8
   0
  62
   103
  10
   4.055118
  20
   0.000000
  30
   0.0
  11
   4.055118
  21
   0.393701
  31
   0.0
  0
LINE
  8
   0
  62
   104
  10
   4.094488
  20
   0.000000
  30
   0.0
  11
   4.094488
  21
   0.393701
  31
   0.0
  0
LINE
  8
   0
  62
   105
  10
   4.133858
  20
   0.000000
  30
   0.0
  11
   4.133858
  21
   0.393701
  31
   0.0
  0
LINE
  8
   0
  62
   106
  10
   4.173228
  20
   0.000000
  30
   0.0
  11
   4.173228
  21
   0.393701
  31
   0.0
  0
LINE
  8
   0
  62
   107
  10
   4.212598
  20
   0.000000
  30
   0.0
  11
   4.212598
  21
   0.393701
  31
   0.0
  0
LINE
  8
   0
  62
   108
  10
   4.251969
  20
   0.000000
  30
   0.0
  11
   4.251969
  21
   0.393701
  31
   0.0
  0
LINE
  8
   0
  62
   109
  10
   4.291339
  20
   0.000000
  30
   0.0
  11
   4.291339
  21
   0.393701
  31
   0.0
  0
LINE
  8
   0
  62
   110
  10
   4.330709
  20
   0.000000
  30
   0.0
  11
   4.330709
  21
   0.393701
  31
   0.0
  0
LINE
  8
   0
  62
   111
  10
   4.370079
  20
   0.000000
  30
   0.0
  11
   4.370079
  21
   0.393701
  31
   0.0
  0
LINE
  8
   0
  62
   112
  10
   4.409449
  20
   0.000000
  30
   0.0
  11
   4.409449
  21
   0.393701
  31
   0.0
  0
LINE
  8
   0
  62
   113
  10
   4.448819
  20
   0.000000
  30
   0.0
  11
   4.448819
  21
   0.393701
  31
   0.0
  0
LINE
  8
   0
  62
   114
  10
   4.488189
  20
   0.000000
  30
   0.0
  11
   4.488189
  21
   0.393701
  31
   0.0
  0
LINE
  8
   0
  62
   115
  10
   4.527559
  20
   0.000000
  30
   0.0
  11
   4.527559
  21
   0.393701
  31
   0.0
  0
LINE
  8
   0
  62
   116
  10
   4.566929
  20
   0.000000
  30
   0.0
  11
   4.566929
  21
   0.393701
  31
   0.0
  0
LINE
  8
   0
  62
   117
  10
   4.606299
  20
   0.000000
  30
   0.0
  11
   4.606299
  21
   0.393701
  31
   0.0
  0
LINE
  8
   0
  62
   118
  10
   4.645669
  20
   0.000000
  30
   0.0
  11
   4.645669
  21
   0.393701
  31
   0.0
  0
LINE
  8
   0
  62
   119
  10
   4.685039
  20
   0.000000
  30
   0.0
  11
   4.685039
  21
   0.393701
  31
   0.0
  0
LINE
  8
   0
  62
   120
  10
   4.724409
  20
   0.000000
  30
   0.0
  11
   4.724409
  21
   0.393701
  31
   0.0
  0
LINE
  8
   0
  62
   121
  10
   4.763780
  20
   0.000000
  30
   0.0
  11
   4.763780
  21
   0.393701
  31
   0.0
  0
LINE
  8
   0
  62
   122
  10
   4.803150
  20
   0.000000
  30
   0.0
  11
   4.803150
  21
   0.393701
  31
   0.0
  0
LINE
  8
   0
  62
   123
  10
   4.842520
  20
   0.000000
  30
   0.0
  11
   4.842520
  21
   0.393701
  31
   0.0
  0
LINE
  8
   0
  62
   124
  10
   4.881890
  20
   0.000000
  30
   0.0
  11
   4.881890
  21
   0.393701
  31
   0.0
  0
LINE
  8
   0
  62
   125
  10
   4.921260
  20
   0.000000
  30
   0.0
  11
   4.921260
  21
   0.393701
  31
   0.0
  0
LINE
  8
   0
  62
   126
  10
   4.960630
  20
   0.000000
  30
   0.0
  11
   4.960630
  21
   0.393701
  31
   0.0
  0
LINE
  8
   0
  62
   127
  10
   5.000000
  20
   0.000000
  30
   0.0
  11
   5.000000
  21
   0.393701
  31
   0.0
  0
LINE
  8
   0
  62
   128
  10
   5.039370
  20
   0.000000
  30
   0.0
  11
   5.039370
  21
   0.393701
  31
   0.0
  0
LINE
  8
   0
  62
   129
  10
   5.078740
  20
   0.000000
  30
   0.0
  11
   5.078740
  21
   0.393701
  31
   0.0
  0
LINE
  8
   0
  62
   130
  10
   5.118110
  20
   0.000000
  30
   0.0
  11
   5.118110
  21
   0.393701
  31
   0.0
  0
LINE
  8
   0
  62
   131
  10
   5.157480
  20
   0.000000
  30
   0.0
  11
   5.157480
  21
   0.393701
  31
   0.0
  0
LINE
  8
   0
  62
   132
  10
   5.196850
  20
   0.000000
  30
   0.0
  11
   5.196850
  21
   0.393701
  31
   0.0
  0
LINE
  8
   0
  62
   133
  10
   5.236220
  20
   0.000000
  30
   0.0
  11
   5.236220
  21
   0.393701
  31
   0.0
  0
LINE
  8
   0
  62
   134
  10
   5.275591
  20
   0.000000
  30
   0.0
  11
   5.275591
  21
   0.393701
  31
   0.0
  0
LINE
  8
   0
  62
   135
  10
   5.314961
  20
   0.000000
  30
   0.0
  11
   5.314961
  21
   0.393701
  31
   0.0
  0
LINE
  8
   0
  62
   136
  10
   5.354331
  20
   0.000000
  30
   0.0
  11
   5.354331
  21
   0.393701
  31
   0.0
  0
LINE
  8
   0
  62
   137
  10
   5.393701
  20
   0.000000
  30
   0.0
  11
   5.393701
  21
   0.393701
  31
   0.0
  0
LINE
  8
   0
  62
   138
  10
   5.433071
  20
   0.000000
  30
   0.0
  11
   5.433071
  21
   0.393701
  31
   0.0
  0
LINE
  8
   0
  62
   139
  10
   5.472441
  20
   0.000000
  30
   0.0
  11
   5.472441
  21
   0.393701
  31
   0.0
  0
LINE
  8
   0
  62
   140
  10
   5.511811
  20
   0.000000
  30
   0.0
  11
   5.511811
  21
   0.393701
  31
   0.0
  0
LINE
  8
   0
  62
   141
  10
   5.551181
  20
   0.000000
  30
   0.0
  11
   5.551181
  21
   0.393701
  31
   0.0
  0
LINE
  8
   0
  62
   142
  10
   5.590551
  20
   0.000000
  30
   0.0
  11
   5.590551
  21
   0.393701
  31
   0.0
  0
LINE
  8
   0
  62
   143
  10
   5.629921
  20
   0.000000
  30
   0.0
  11
   5.629921
  21
   0.393701
  31
   0.0
  0
LINE
  8
   0
  62
   144
  10
   5.669291
  20
   0.000000
  30
   0.0
  11
   5.669291
  21
   0.393701
  31
   0.0
  0
LINE
  8
   0
  62
   145
  10
   5.708661
  20
   0.000000
  30
   0.0
  11
   5.708661
  21
   0.393701
  31
   0.0
  0
LINE
  8
   0
  62
   146
  10
   5.748031
  20
   0.000000
  30
   0.0
  11
   5.748031
  21
   0.393701
  31
   0.0
  0
LINE
  8
   0
  62
   147
  10
   5.787402
  20
   0.000000
  30
   0.0
  11
   5.787402
  21
   0.393701
  31
   0.0
  0
LINE
  8
   0
  62
   148
  10
   5.826772
  20
   0.000000
  30
   0.0
  11
   5.826772
  21
   0.393701
  31
   0.0
  0
LINE
  8
   0
  62
   149
  10
   5.866142
  20
   0.000000
  30
   0.0
  11
   5.866142
  21
   0.393701
  31
   0.0
  0
LINE
  8
   0
  62
   150
  10
   5.905512
  20
   0.000000
  30
   0.0
  11
   5.905512
  21
   0.393701
  31
   0.0
  0
LINE
  8
   0
  62
   151
  10
   5.944882
  20
   0.000000
  30
   0.0
  11
   5.944882
  21
   0.393701
  31
   0.0
  0
LINE
  8
   0
  62
   152
  10
   5.984252
  20
   0.000000
  30
   0.0
  11
   5.984252
  21
   0.393701
  31
   0.0
  0
LINE
  8
   0
  62
   153
  10
   6.023622
  20
   0.000000
  30
   0.0
  11
   6.023622
  21
   0.393701
  31
   0.0
  0
LINE
  8
   0
  62
   154
  10
   6.062992
  20
   0.000000
  30
   0.0
  11
   6.062992
  21
   0.393701
  31
   0.0
  0
LINE
  8
   0
  62
   155
  10
   6.102362
  20
   0.000000
  30
   0.0
  11
   6.102362
  21
   0.393701
  31
   0.0
  0
LINE
  8
   0
  62
   156
  10
   6.141732
  20
   0.000000
  30
   0.0
  11
   6.141732
  21
   0.393701
  31
   0.0
  0
LINE
  8
   0
  62
   157
  10
   6.181102
  20
   0.000000
  30
   0.0
  11
   6.181102
  21
   0.393701
  31
   0.0
  0
LINE
  8
   0
  62
   158
  10
   6.220472
  20
   0.000000
  30
   0.0
  11
   6.220472
  21
   0.393701
  31
   0.0
  0
LINE
  8
   0
  62
   159
  10
   6.259843
  20
   0.000000
  30
   0.0
  11
   6.259843
  21
   0.393701
  31
   0.0
  0
LINE
  8
   0
  62
   160
  10
   6.299213
  20
   0.000000
  30
   0.0
  11
   6.299213
  21
   0.393701
  31
   0.0
  0
LINE
  8
   0
  62
   161
  10
   6.338583
  20
   0.000000
  30
   0.0
  11
   6.338583
  21
   0.393701
  31
   0.0
  0
LINE
  8
   0
  62
   162
  10
   6.377953
  20
   0.000000
  30
   0.0
  11
   6.377953
  21
   0.393701
  31
   0.0
  0
LINE
  8
   0
  62
   163
  10
   6.417323
  20
   0.000000
  30
   0.0
  11
   6.417323
  21
   0.393701
  31
   0.0
  0
LINE
  8
   0
  62
   164
  10
   6.456693
  20
   0.000000
  30
   0.0
  11
   6.456693
  21
   0.393701
  31
   0.0
  0
LINE
  8
   0
  62
   165
  10
   6.496063
  20
   0.000000
  30
   0.0
  11
   6.496063
  21
   0.393701
  31
   0.0
  0
LINE
  8
   0
  62
   166
  10
   6.535433
  20
   0.000000
  30
   0.0
  11
   6.535433
  21
   0.393701
  31
   0.0
  0
LINE
  8
   0
  62
   167
  10
   6.574803
  20
   0.000000
  30
   0.0
  11
   6.574803
  21
   0.393701
  31
   0.0
  0
LINE
  8
   0
  62
   168
  10
   6.614173
  20
   0.000000
  30
   0.0
  11
   6.614173
  21
   0.393701
  31
   0.0
  0
LINE
  8
   0
  62
   169
  10
   6.653543
  20
   0.000000
  30
   0.0
  11
   6.653543
  21
   0.393701
  31
   0.0
  0
LINE
  8
   0
  62
   170
  10
   6.692913
  20
   0.000000
  30
   0.0
  11
   6.692913
  21
   0.393701
  31
   0.0
  0
LINE
  8
   0
  62
   171
  10
   6.732283
  20
   0.000000
  30
   0.0
  11
   6.732283
  21
   0.393701
  31
   0.0
  0
LINE
  8
   0
  62
   172
  10
   6.771654
  20
   0.000000
  30
   0.0
  11
   6.771654
  21
   0.393701
  31
   0.0
  0
LINE
  8
   0
  62
   173
  10
   6.811024
  20
   0.000000
  30
   0.0
  11
   6.811024
  21
   0.393701
  31
   0.0
  0
LINE
  8
   0
  62
   174
  10
   6.850394
  20
   0.000000
  30
   0.0
  11
   6.850394
  21
   0.393701
  31
   0.0
  0
LINE
  8
   0
  62
   175
  10
   6.889764
  20
   0.000000
  30
   0.0
  11
   6.889764
  21
   0.393701
  31
   0.0
  0
LINE
  8
   0
  62
   176
  10
   6.929134
  20
   0.000000
  30
   0.0
  11
   6.929134
  21
   0.393701
  31
   0.0
  0
LINE
  8
   0
  62
   177
  10
   6.968504
  20
   0.000000
  30
   0.0
  11
   6.968504
  21
   0.393701
  31
   0.0
  0
LINE
  8
   0
  62
   178
  10
   7.007874
  20
   0.000000
  30
   0.0
  11
   7.007874
  21
   0.393701
  31
   0.0
  0
LINE
  8
   0
  62
   179
  10
   7.047244
  20
   0.000000
  30
   0.0
  11
   7.047244
  21
   0.393701
  31
   0.0
  0
LINE
  8
   0
  62
   180
  10
   7.086614
  20
   0.000000
  30
   0.0
  11
   7.086614
  21
   0.393701
  31
   0.0
  0
LINE
  8
   0
  62
   181
  10
   7.125984
  20
   0.000000
  30
   0.0
  11
   7.125984
  21
   0.393701
  31
   0.0
  0
LINE
  8
   0
  62
   182
  10
   7.165354
  20
   0.000000
  30
   0.0
  11
   7.165354
  21
   0.393701
  31
   0.0
  0
LINE
  8
   0
  62
   183
  10
   7.204724
  20
   0.000000
  30
   0.0
  11
   7.204724
  21
   0.393701
  31
   0.0
  0
LINE
  8
   0
  62
   184
  10
   7.244094
  20
   0.000000
  30
   0.0
  11
   7.244094
  21
   0.393701
  31
   0.0
  0
LINE
  8
   0
  62
   185
  10
   7.283465
  20
   0.000000
  30
   0.0
  11
   7.283465
  21
   0.393701
  31
   0.0
  0
LINE
  8
   0
  62
   186
  10
   7.322835
  20
   0.000000
  30
   0.0
  11
   7.322835
  21
   0.393701
  31
   0.0
  0
LINE
  8
   0
  62
   187
  10
   7.362205
  20
   0.000000
  30
   0.0
  11
   7.362205
  21
   0.393701
  31
   0.0
  0
LINE
  8
   0
  62
   188
  10
   7.401575
  20
   0.000000
  30
   0.0
  11
   7.401575
  21
   0.393701
  31
   0.0
  0
LINE
  8
   0
  62
   189
  10
   7.440945
  20
   0.000000
  30
   0.0
  11
   7.440945
  21
   0.393701
  31
   0.0
  0
LINE
  8
   0
  62
   190
  10
   7.480315
  20
   0.000000
  30
   0.0
  11
   7.480315
  21
   0.393701
  31
   0.0
  0
LINE
  8
   0
  62
   191
  10
   7.519685
  20
   0.000000
  30
   0.0
  11
   7.519685
  21
   0.393701
  31
   0.0
  0
LINE
  8
   0
  62
   192
  10
   7.559055
  20
   0.000000
  30
   0.0
  11
   7.559055
  21
   0.393701
  31
   0.0
  0
LINE
  8
   0
  62
   193
  10
   7.598425
  20
   0.000000
  30
   0.0
  11
   7.598425
  21
   0.393701
  31
   0.0
  0
LINE
  8
   0
  62
   194
  10
   7.637795
  20
   0.000000
  30
   0.0
  11
   7.637795
  21
   0.393701
  31
   0.0
  0
LINE
  8
   0
  62
   195
  10
   7.677165
  20
   0.000000
  30
   0.0
  11
   7.677165
  21
   0.393701
  31
   0.0
  0
LINE
  8
   0
  62
   196
  10
   7.716535
  20
   0.000000
  30
   0.0
  11
   7.716535
  21
   0.393701
  31
   0.0
  0
LINE
  8
   0
  62
   197
  10
   7.755906
  20
   0.000000
  30
   0.0
  11
   7.755906
  21
   0.393701
  31
   0.0
  0
LINE
  8
   0
  62
   198
  10
   7.795276
  20
   0.000000
  30
   0.0
  11
   7.795276
  21
   0.393701
  31
   0.0
  0
LINE
  8
   0
  62
   199
  10
   7.834646
  20
   0.000000
  30
   0.0
  11
   7.834646
  21
   0.393701
  31
   0.0
  0
LINE
  8
   0
  62
   200
  10
   7.874016
  20
   0.000000
  30
   0.0
  11
   7.874016
  21
   0.393701
  31
   0.0
  0
LINE
  8
   0
  62
   201
  10
   7.913386
  20
   0.000000
  30
   0.0
  11
   7.913386
  21
   0.393701
  31
   0.0
  0
LINE
  8
   0
  62
   202
  10
   7.952756
  20
   0.000000
  30
   0.0
  11
   7.952756
  21
   0.393701
  31
   0.0
  0
LINE
  8
   0
  62
   203
  10
   7.992126
  20
   0.000000
  30
   0.0
  11
   7.992126
  21
   0.393701
  31
   0.0
  0
LINE
  8
   0
  62
   204
  10
   8.031496
  20
   0.000000
  30
   0.0
  11
   8.031496
  21
   0.393701
  31
   0.0
  0
LINE
  8
   0
  62
   205
  10
   8.070866
  20
   0.000000
  30
   0.0
  11
   8.070866
  21
   0.393701
  31
   0.0
  0
LINE
  8
   0
  62
   206
  10
   8.110236
  20
   0.000000
  30
   0.0
  11
   8.110236
  21
   0.393701
  31
   0.0
  0
LINE
  8
   0
  62
   207
  10
   8.149606
  20
   0.000000
  30
   0.0
  11
   8.149606
  21
   0.393701
  31
   0.0
  0
LINE
  8
   0
  62
   208
  10
   8.188976
  20
   0.000000
  30
   0.0
  11
   8.188976
  21
   0.393701
  31
   0.0
  0
LINE
  8
   0
  62
   209
  10
   8.228346
  20
   0.000000
  30
   0.0
  11
   8.228346
  21
   0.393701
  31
   0.0
  0
LINE
  8
   0
  62
   210
  10
   8.267717
  20
   0.000000
  30
   0.0
  11
   8.267717
  21
   0.393701
  31
   0.0
  0
LINE
  8
   0
  62
   211
  10
   8.307087
  20
   0.000000
  30
   0.0
  11
   8.307087
  21
   0.393701
  31
   0.0
  0
LINE
  8
   0
  62
   212
  10
   8.346457
  20
   0.000000
  30
   0.0
  11
   8.346457
  21
   0.393701
  31
   0.0
  0
LINE
  8
   0
  62
   213
  10
   8.385827
  20
   0.000000
  30
   0.0
  11
   8.385827
  21
   0.393701
  31
   0.0
  0
LINE
  8
   0
  62
   214
  10
   8.425197
  20
   0.000000
  30
   0.0
  11
   8.425197
  21
   0.393701
  31
   0.0
  0
LINE
  8
   0
  62
   215
  10
   8.464567
  20
   0.000000
  30
   0.0
  11
   8.464567
  21
   0.393701
  31
   0.0
  0
LINE
  8
   0
  62
   216
  10
   8.503937
  20
   0.000000
  30
   0.0
  11
   8.503937
  21
   0.393701
  31
   0.0
  0
LINE
  8
   0
  62
   217
  10
   8.543307
  20
   0.000000
  30
   0.0
  11
   8.543307
  21
   0.393701
  31
   0.0
  0
LINE
  8
   0
  62
   218
  10
   8.582677
  20
   0.000000
  30
   0.0
  11
   8.582677
  21
   0.393701
  31
   0.0
  0
LINE
  8
   0
  62
   219
  10
   8.622047
  20
   0.000000
  30
   0.0
  11
   8.622047
  21
   0.393701
  31
   0.0
  0
LINE
  8
   0
  62
   220
  10
   8.661417
  20
   0.000000
  30
   0.0
  11
   8.661417
  21
   0.393701
  31
   0.0
  0
LINE
  8
   0
  62
   221
  10
   8.700787
  20
   0.000000
  30
   0.0
  11
   8.700787
  21
   0.393701
  31
   0.0
  0
LINE
  8
   0
  62
   222
  10
   8.740157
  20
   0.000000
  30
   0.0
  11
   8.740157
  21
   0.393701
  31
   0.0
  0
LINE
  8
   0
  62
   223
  10
   8.779528
  20
   0.000000
  30
   0.0
  11
   8.779528
  21
   0.393701
  31
   0.0
  0
LINE
  8
   0
  62
   224
  10
   8.818898
  20
   0.000000
  30
   0.0
  11
   8.818898
  21
   0.393701
  31
   0.0
  0
LINE
  8
   0
  62
   225
  10
   8.858268
  20
   0.000000
  30
   0.0
  11
   8.858268
  21
   0.393701
  31
   0.0
  0
LINE
  8
   0
  62
   226
  10
   8.897638
  20
   0.000000
  30
   0.0
  11
   8.897638
  21
   0.393701
  31
   0.0
  0
LINE
  8
   0
  62
   227
  10
   8.937008
  20
   0.000000
  30
   0.0
  11
   8.937008
  21
   0.393701
  31
   0.0
  0
LINE
  8
   0
  62
   228
  10
   8.976378
  20
   0.000000
  30
   0.0
  11
   8.976378
  21
   0.393701
  31
   0.0
  0
LINE
  8
   0
  62
   229
  10
   9.015748
  20
   0.000000
  30
   0.0
  11
   9.015748
  21
   0.393701
  31
   0.0
  0
LINE
  8
   0
  62
   230
  10
   9.055118
  20
   0.000000
  30
   0.0
  11
   9.055118
  21
   0.393701
  31
   0.0
  0
LINE
  8
   0
  62
   231
  10
   9.094488
  20
   0.000000
  30
   0.0
  11
   9.094488
  21
   0.393701
  31
   0.0
  0
LINE
  8
   0
  62
   232
  10
   9.133858
  20
   0.000000
  30
   0.0
  11
   9.133858
  21
   0.393701
  31
   0.0
  0
LINE
  8
   0
  62
   233
  10
   9.173228
  20
   0.000000
  30
   0.0
  11
   9.173228
  21
   0.393701
  31
   0.0
  0
LINE
  8
   0
  62
   234
  10
   9.212598
  20
   0.000000
  30
   0.0
  11
   9.212598
  21
   0.393701
  31
   0.0
  0
LINE
  8
   0
  62
   235
  10
   9.251969
  20
   0.000000
  30
   0.0
  11
   9.251969
  21
   0.393701
  31
   0.0
  0
LINE
  8
   0
  62
   236
  10
   9.291339
  20
   0.000000
  30
   0.0
  11
   9.291339
  21
   0.393701
  31
   0.0
  0
LINE
  8
   0
  62
   237
  10
   9.330709
  20
   0.000000
  30
   0.0
  11
   9.330709
  21
   0.393701
  31
   0.0
  0
LINE
  8
   0
  62
   238
  10
   9.370079
  20
   0.000000
  30
   0.0
  11
   9.370079
  21
   0.393701
  31
   0.0
  0
LINE
  8
   0
  62
   239
  10
   9.409449
  20
   0.000000
  30
   0.0
  11
   9.409449
  21
   0.393701
  31
   0.0
  0
LINE
  8
   0
  62
   240
  10
   9.448819
  20
   0.000000
  30
   0.0
  11
   9.448819
  21
   0.393701
  31
   0.0
  0
LINE
  8
   0
  62
   241
  10
   9.488189
  20
   0.000000
  30
   0.0
  11
   9.488189
  21
   0.393701
  31
   0.0
  0
LINE
  8
   0
  62
   242
  10
   9.527559
  20
   0.000000
  30
   0.0
  11
   9.527559
  21
   0.393701
  31
   0.0
  0
LINE
  8
   0
  62
   243
  10
   9.566929
  20
   0.000000
  30
   0.0
  11
   9.566929
  21
   0.393701
  31
   0.0
  0
LINE
  8
   0
  62
   244
  10
   9.606299
  20
   0.000000
  30
   0.0
  11
   9.606299
  21
   0.393701
  31
   0.0
  0
LINE
  8
   0
  62
   245
  10
   9.645669
  20
   0.000000
  30
   0.0
  11
   9.645669
  21
   0.393701
  31
   0.0
  0
LINE
  8
   0
  62
   246
  10
   9.685039
  20
   0.000000
  30
   0.0
  11
   9.685039
  21
   0.393701
  31
   0.0
  0
LINE
  8
   0
  62
   247
  10
   9.724409
  20
   0.000000
  30
   0.0
  11
   9.724409
  21
   0.393701
  31
   0.0
  0
LINE
  8
   0
  62
   248
  10
   9.763780
  20
   0.000000
  30
   0.0
  11
   9.763780
  21
   0.393701
  31
   0.0
  0
LINE
  8
   0
  62
   249
  10
   9.803150
  20
   0.000000
  30
   0.0
  11
   9.803150
  21
   0.393701
  31
   0.0
  0
LINE
  8
   0
  62
   250
  10
   9.842520
  20
   0.000000
  30
   0.0
  11
   9.842520
  21
   0.393701
  31
   0.0
  0
LINE
  8
   0
  62
   251
  10
   9.881890
  20
   0.000000
  30
   0.0
  11
   9.881890
  21
   0.393701
  31
   0.0
  0
LINE
  8
   0
  62
   252
  10
   9.921260
  20
   0.000000
  30
   0.0
  11
   9.921260
  21
   0.393701
  31
   0.0
  0
LINE
  8
   0
  62
   253
  10
   9.960630
  20
   0.000000
  30
   0.0
  11
   9.960630
  21
   0.393701
  31
   0.0
  0
LINE
  8
   0
  62
   254
  10
   10.000000
  20
   0.000000
  30
   0.0
  11
   10.000000
  21
   0.393701
  31
   0.0
  0
ENDSEC
  0
EOF

