999
File generated by Conversation
0
SECTION
2
HEADER
0
SECTION
2
HEADER
9
$ACADVER
1
AC1021
9
$INSBASE
10
0.0
20
0.0
30
0.0
9
$INSUNITS
70
4
9
$EXTMIN
10
0.0
20
0.0
30
0.0
9
$EXTMAX
10
1000.0
20
1000.0
30
0.0
0
ENDSEC
0
SECTION
2
TABLES
0
TABLE
2
LTYPE
70
1
0
LTYPE
2
CONTINUOUS
70
64
3
Solid line
72
65
73
0
40
0.0
0
ENDTAB
0
TABLE
2
LAYER
70
1
0
LAYER
2
0
70
64
62
7
6
CONTINUOUS
0
ENDTAB
0
TABLE
2
STYLE
70
1
0
STYLE
2
STANDARD
70
0
40
0.0
41
1.0
50
0.0
71
0
42
0.2
3
txt
4

0
ENDTAB
0
ENDSEC
0
SECTION
2
ENTITIES
0
ARC
8
0
62
0
10
-65.000000
20
75.000000
30
0.0
40
5.000000
50
179.999985
51
270.000000
0
ARC
8
0
62
0
10
-65.000000
20
105.000000
30
0.0
40
5.000000
50
90.000000
51
179.999985
0
LINE
8
0
62
0
10
-65.000000
20
110.000000
30
0.0
11
-35.000000
21
110.000000
31
0.0
0
ARC
8
0
62
0
10
-35.000000
20
105.000000
30
0.0
40
5.000000
50
0.000000
51
90.000000
0
LINE
8
0
62
0
10
-65.000000
20
70.000000
30
0.0
11
-35.000000
21
70.000000
31
0.0
0
ARC
8
0
62
0
10
-35.000000
20
75.000000
30
0.0
40
5.000000
50
270.000000
51
0.000000
0
LINE
8
0
62
0
10
-70.000000
20
75.000000
30
0.0
11
-70.000000
21
105.000000
31
0.0
0
LINE
8
0
62
0
10
-70.000000
20
75.000000
30
0.0
11
-70.000000
21
70.000000
31
0.0
0
LINE
8
0
62
0
10
-30.000000
20
105.000000
30
0.0
11
-30.000000
21
75.000000
31
0.0
0
LINE
8
0
62
0
10
-70.000000
20
45.000000
30
0.0
11
-30.000002
21
45.000004
31
0.0
0
LINE
8
0
62
0
10
-70.000000
20
70.000000
30
0.0
11
-70.000000
21
57.500000
31
0.0
0
LINE
8
0
62
0
10
-70.000000
20
57.500000
30
0.0
11
-70.000000
21
45.000000
31
0.0
0
LINE
8
0
62
0
10
-30.000000
20
75.000000
30
0.0
11
-30.000004
21
57.500000
31
0.0
0
LINE
8
0
62
0
10
-30.000004
20
57.500000
30
0.0
11
-30.000002
21
45.000004
31
0.0
0
CIRCLE
8
0
62
0
10
-50.000000
20
57.500000
30
0.0
40
7.500000
0
LINE
8
0
62
0
10
-70.000000
20
-74.983681
30
0.0
11
-70.000000
21
-99.983681
31
0.0
0
LINE
8
0
62
0
10
-30.000002
20
-74.983681
30
0.0
11
-30.000002
21
-99.983681
31
0.0
0
LINE
8
0
62
0
10
-70.000000
20
-99.983681
30
0.0
11
-49.772964
21
-99.983681
31
0.0
0
LINE
8
0
62
0
10
-49.772964
20
-99.983681
30
0.0
11
-30.000002
21
-99.983681
31
0.0
0
LINE
8
0
62
0
10
-70.000000
20
-49.983681
30
0.0
11
-70.000000
21
-74.983681
31
0.0
0
LINE
8
0
62
0
10
-30.000002
20
-49.983681
30
0.0
11
-30.000002
21
-74.983681
31
0.0
0
CIRCLE
8
0
62
1
10
25.227036
20
-87.483681
30
0.0
40
7.500000
0
CIRCLE
8
0
62
1
10
25.227036
20
-62.483681
30
0.0
40
7.500000
0
CIRCLE
8
0
62
1
10
25.227036
20
-37.483681
30
0.0
40
7.500000
0
CIRCLE
8
0
62
1
10
25.227036
20
-12.483681
30
0.0
40
7.500000
0
LINE
8
0
62
0
10
5.000000
20
-49.983681
30
0.0
11
5.000000
21
-74.983681
31
0.0
0
LINE
8
0
62
0
10
5.000000
20
-49.983681
30
0.0
11
5.000000
21
0.016319
31
0.0
0
LINE
8
0
62
0
10
45.000000
20
-49.983681
30
0.0
11
45.000000
21
-74.983681
31
0.0
0
LINE
8
0
62
0
10
5.000000
20
0.016319
30
0.0
11
45.000000
21
0.016319
31
0.0
0
LINE
8
0
62
0
10
45.000000
20
-49.983681
30
0.0
11
45.000000
21
0.016319
31
0.0
0
LINE
8
0
62
0
10
70.000000
20
-99.983681
30
0.0
11
80.000000
21
-109.983681
31
0.0
0
LINE
8
0
62
0
10
5.000000
20
-99.983681
30
0.0
11
5.000000
21
-109.983681
31
0.0
0
LINE
8
0
62
0
10
5.000000
20
-109.983681
30
0.0
11
5.000000
21
-119.983681
31
0.0
0
LINE
8
0
62
0
10
45.000000
20
-119.983681
30
0.0
11
75.000000
21
-119.983681
31
0.0
0
LINE
8
0
62
0
10
75.000000
20
-119.983681
30
0.0
11
87.500000
21
-119.983681
31
0.0
0
LINE
8
0
62
0
10
87.500000
20
-119.983681
30
0.0
11
90.000000
21
-119.983681
31
0.0
0
LINE
8
0
62
0
10
90.000000
20
-119.983681
30
0.0
11
80.000000
21
-109.983681
31
0.0
0
LINE
8
0
62
0
10
-70.000000
20
-99.983681
30
0.0
11
-70.000000
21
-109.983681
31
0.0
0
LINE
8
0
62
0
10
-70.000000
20
-109.983681
30
0.0
11
-70.000000
21
-119.983681
31
0.0
0
LINE
8
0
62
0
10
-30.000002
20
-99.983681
30
0.0
11
-30.000002
21
-109.983681
31
0.0
0
LINE
8
0
62
0
10
-70.000000
20
-119.983681
30
0.0
11
-30.000002
21
-119.983681
31
0.0
0
LINE
8
0
62
0
10
-30.000002
20
-109.983681
30
0.0
11
-30.000002
21
-119.983681
31
0.0
0
LINE
8
0
62
0
10
-70.000000
20
-49.983681
30
0.0
11
-70.000000
21
0.016319
31
0.0
0
LINE
8
0
62
0
10
-30.000002
20
-49.983681
30
0.0
11
-30.000000
21
-12.483681
31
0.0
0
LINE
8
0
62
0
10
-30.000000
20
-12.483681
30
0.0
11
-30.000002
21
0.016319
31
0.0
0
LINE
8
0
62
0
10
-70.000000
20
0.016319
30
0.0
11
-70.000000
21
-12.483681
31
0.0
0
LINE
8
0
62
0
10
-70.000000
20
-19.983681
30
0.0
11
-70.000000
21
-4.983681
31
0.0
0
LINE
8
0
62
1
10
-70.000000
20
-19.983681
30
0.0
11
-55.000000
21
-19.983681
31
0.0
0
LINE
8
0
62
1
10
-70.000000
20
-4.983681
30
0.0
11
-55.000000
21
-4.983681
31
0.0
0
LINE
8
0
62
1
10
-55.000000
20
-19.983681
30
0.0
11
-55.000000
21
-4.983681
31
0.0
0
LINE
8
0
62
0
10
-70.000000
20
0.016319
30
0.0
11
-50.000000
21
0.016319
31
0.0
0
LINE
8
0
62
0
10
-50.000000
20
0.016319
30
0.0
11
-30.000002
21
0.016319
31
0.0
0
LINE
8
0
62
1
10
-30.000000
20
-19.983681
30
0.0
11
-45.000000
21
-19.983681
31
0.0
0
LINE
8
0
62
1
10
-30.000000
20
-4.983681
30
0.0
11
-45.000000
21
-4.983681
31
0.0
0
LINE
8
0
62
1
10
-45.000000
20
-19.983681
30
0.0
11
-45.000000
21
-4.983681
31
0.0
0
LINE
8
0
62
1
10
-70.000000
20
-44.983681
30
0.0
11
-55.000000
21
-44.983681
31
0.0
0
LINE
8
0
62
1
10
-70.000000
20
-29.983681
30
0.0
11
-55.000000
21
-29.983681
31
0.0
0
LINE
8
0
62
1
10
-55.000000
20
-44.983681
30
0.0
11
-55.000000
21
-29.983681
31
0.0
0
LINE
8
0
62
1
10
-30.000000
20
-44.983681
30
0.0
11
-45.000000
21
-44.983681
31
0.0
0
LINE
8
0
62
1
10
-30.000000
20
-29.983681
30
0.0
11
-45.000000
21
-29.983681
31
0.0
0
LINE
8
0
62
1
10
-45.000000
20
-44.983681
30
0.0
11
-45.000000
21
-29.983681
31
0.0
0
LINE
8
0
62
1
10
-70.000000
20
-69.983681
30
0.0
11
-55.000000
21
-69.983681
31
0.0
0
LINE
8
0
62
1
10
-70.000000
20
-54.983681
30
0.0
11
-55.000000
21
-54.983681
31
0.0
0
LINE
8
0
62
1
10
-55.000000
20
-69.983681
30
0.0
11
-55.000000
21
-54.983681
31
0.0
0
LINE
8
0
62
1
10
-30.000000
20
-69.983681
30
0.0
11
-45.000000
21
-69.983681
31
0.0
0
LINE
8
0
62
1
10
-30.000000
20
-54.983681
30
0.0
11
-45.000000
21
-54.983681
31
0.0
0
LINE
8
0
62
1
10
-45.000000
20
-69.983681
30
0.0
11
-45.000000
21
-54.983681
31
0.0
0
LINE
8
0
62
1
10
-70.000000
20
-94.983681
30
0.0
11
-55.000000
21
-94.983681
31
0.0
0
LINE
8
0
62
1
10
-70.000000
20
-79.983681
30
0.0
11
-55.000000
21
-79.983681
31
0.0
0
LINE
8
0
62
1
10
-55.000000
20
-94.983681
30
0.0
11
-55.000000
21
-79.983681
31
0.0
0
LINE
8
0
62
1
10
-30.000000
20
-94.983681
30
0.0
11
-45.000000
21
-94.983681
31
0.0
0
LINE
8
0
62
1
10
-30.000000
20
-79.983681
30
0.0
11
-45.000000
21
-79.983681
31
0.0
0
LINE
8
0
62
1
10
-45.000000
20
-94.983681
30
0.0
11
-45.000000
21
-79.983681
31
0.0
0
LINE
8
0
62
0
10
-70.000000
20
45.000000
30
0.0
11
-70.000000
21
25.000000
31
0.0
0
LINE
8
0
62
0
10
-30.000002
20
45.000004
30
0.0
11
-30.000002
21
25.000002
31
0.0
0
LINE
8
0
62
0
10
-70.000000
20
25.000000
30
0.0
11
-30.000002
21
25.000002
31
0.0
0
LINE
8
0
62
0
10
45.000000
20
-74.983681
30
0.0
11
45.000000
21
-99.983681
31
0.0
0
LINE
8
0
62
2
10
45.000000
20
-99.983681
30
0.0
11
45.000000
21
-119.983681
31
0.0
0
LINE
8
0
62
0
10
45.000000
20
-99.983681
30
0.0
11
70.000000
21
-99.983681
31
0.0
0
LINE
8
0
62
0
10
5.000000
20
-74.983681
30
0.0
11
5.000000
21
-99.983681
31
0.0
0
LINE
8
0
62
2
10
45.000000
20
-99.983681
30
0.0
11
25.000000
21
-99.983681
31
0.0
0
LINE
8
0
62
2
10
25.000000
20
-99.983681
30
0.0
11
5.000000
21
-99.983681
31
0.0
0
LINE
8
0
62
0
10
5.000000
20
-119.983681
30
0.0
11
25.000000
21
-119.983681
31
0.0
0
LINE
8
0
62
0
10
25.000000
20
-119.983681
30
0.0
11
45.000000
21
-119.983681
31
0.0
0
LINE
8
0
62
2
10
25.000000
20
-99.983681
30
0.0
11
25.000000
21
-119.983681
31
0.0
0
ENDSEC
0
EOF
