  0
SECTION
  2
HEADER
  9
$ACADVER
  1
AC1003
  9
$EXTMIN
 10
-0.472440945
 20
8.078740157
  9
$EXTMAX
 10
0.748031496
 20
0
  9
$INSUNITS
 70
1
  9
$INSBASE
 10
0.1377952755
 20
4.0393700785
999
Created with OMAX LAYOUT for Windows. (www.omax.com) 3/13/2024
  0
ENDSEC
  0
SECTION
  2
TABLES
  0
TABLE
  2
LAYER
 70
    10
  0
LAYER
  2
0
 70
     0
 62
     7
  6
CONTINUOUS
  0
LAYER
  2
1
 70
     0
 62
     7
  6
CONTINUOUS
  0
LAYER
  2
2
 70
     0
 62
     7
  6
CONTINUOUS
  0
LAYER
  2
3
 70
     0
 62
     7
  6
CONTINUOUS
  0
LAYER
  2
4
 70
     0
 62
     7
  6
CONTINUOUS
  0
LAYER
  2
5
 70
     0
 62
     7
  6
CONTINUOUS
  0
LAYER
  2
6
 70
     0
 62
     7
  6
CONTINUOUS
  0
LAYER
  2
7
 70
     0
 62
     7
  6
CONTINUOUS
  0
LAYER
  2
8
 70
     0
 62
     7
  6
CONTINUOUS
  0
LAYER
  2
9
 70
     0
 62
     7
  6
CONTINUOUS
  0
LAYER
  2
10
 70
     0
 62
     7
  6
CONTINUOUS
  0
LAYER
  2
11
 70
     0
 62
     7
  6
CONTINUOUS
  0
LAYER
  2
12
 70
     0
 62
     7
  6
CONTINUOUS
  0
LAYER
  2
13
 70
     0
 62
     7
  6
CONTINUOUS
  0
LAYER
  2
14
 70
     0
 62
     7
  6
CONTINUOUS
  0
LAYER
  2
15
 70
     0
 62
     7
  6
CONTINUOUS
  0
LAYER
  2
16
 70
     0
 62
     7
  6
CONTINUOUS
  0
LAYER
  2
17
 70
     0
 62
     7
  6
CONTINUOUS
  0
LAYER
  2
18
 70
     0
 62
     7
  6
CONTINUOUS
  0
LAYER
  2
19
 70
     0
 62
     7
  6
CONTINUOUS
  0
LAYER
  2
20
 70
     0
 62
     7
  6
CONTINUOUS
  0
LAYER
  2
21
 70
     0
 62
     7
  6
CONTINUOUS
  0
LAYER
  2
22
 70
     0
 62
     7
  6
CONTINUOUS
  0
LAYER
  2
23
 70
     0
 62
     7
  6
CONTINUOUS
  0
LAYER
  2
24
 70
     0
 62
     7
  6
CONTINUOUS
  0
LAYER
  2
25
 70
     0
 62
     7
  6
CONTINUOUS
  0
LAYER
  2
26
 70
     0
 62
     7
  6
CONTINUOUS
  0
LAYER
  2
27
 70
     0
 62
     7
  6
CONTINUOUS
  0
LAYER
  2
28
 70
     0
 62
     7
  6
CONTINUOUS
  0
LAYER
  2
29
 70
     0
 62
     7
  6
CONTINUOUS
  0
LAYER
  2
30
 70
     0
 62
     7
  6
CONTINUOUS
  0
LAYER
  2
31
 70
     0
 62
     7
  6
CONTINUOUS
  0
ENDTAB
  0
ENDSEC
  0
SECTION
  2
ENTITIES
  0
LINE
  8
0
  6
CONTINUOUS
 62
0
 10
0.295275590999999
 20
7.34055100404051
 30
0.0
 11
0.295275591
 21
5.68700769704051
 31
0.0
  0
LINE
  8
0
  6
CONTINUOUS
 62
0
 10
0.511811024
 20
0.194881713040513
 30
0.0
 11
0.511811024
 21
5.57877472200545
 31
0.0
  0
LINE
  8
0
  6
CONTINUOUS
 62
0
 10
0.334645669999999
 20
5.64763761804051
 30
0.0
 11
0.442948127964933
 21
5.64763761804051
 31
0.0
  0
LINE
  8
0
  6
CONTINUOUS
 62
0
 10
0.708661416999999
 20
0.155511634040513
 30
0.0
 11
0.551181102999999
 21
0.155511634040513
 31
0.0
  0
ARC
  8
0
  6
CONTINUOUS
 62
0
 10
0.551181103
 20
0.194881713040513
 30
0.0
 40
0.039370079
 50
180
 51
269.999999999999
  0
ARC
  8
0
  6
CONTINUOUS
 62
0
 10
0.483972174163249
 20
5.61979876820376
 30
0.0
 40
0.0393700790000002
 50
45.0000000000001
 51
121.399714809918
  0
ARC
  8
0
  6
CONTINUOUS
 62
0
 10
0.483972174163249
 20
5.61979876820376
 30
0.0
 40
0.0393700790000002
 50
328.600285190081
 51
45.0000000000001
  0
ARC
  8
0
  6
CONTINUOUS
 62
0
 10
0.442948127964933
 20
5.68700769704051
 30
0.0
 40
0.039370079
 50
270
 51
301.399714809919
  0
ARC
  8
0
  6
CONTINUOUS
 62
0
 10
0.551181103
 20
5.57877472200545
 30
0.0
 40
0.039370079
 50
148.600285190081
 51
180
  0
ARC
  8
0
  6
CONTINUOUS
 62
0
 10
0.33464567
 20
5.68700769704051
 30
0.0
 40
0.039370079
 50
180
 51
269.999999999999
  0
LINE
  8
0
  6
CONTINUOUS
 62
0
 10
0.531496062999999
 20
7.34055100404051
 30
0.0
 11
0.531496063
 21
5.90941390007558
 31
0.0
  0
LINE
  8
0
  6
CONTINUOUS
 62
0
 10
0.492125983999999
 20
7.37992108304051
 30
0.0
 11
0.334645669999999
 21
7.37992108304051
 31
0.0
  0
LINE
  8
0
  6
CONTINUOUS
 62
0
 10
0.708661417
 20
5.84055100404051
 30
0.0
 11
0.600358959035067
 21
5.84055100404051
 31
0.0
  0
ARC
  8
0
  6
CONTINUOUS
 62
0
 10
0.55933491283675
 20
5.86838985387726
 30
0.0
 40
0.0393700790000002
 50
148.60028519008
 51
225
  0
ARC
  8
0
  6
CONTINUOUS
 62
0
 10
0.559334912836751
 20
5.86838985387726
 30
0.0
 40
0.0393700790000002
 50
225
 51
301.399714809918
  0
ARC
  8
0
  6
CONTINUOUS
 62
0
 10
0.492125984
 20
5.90941390007558
 30
0.0
 40
0.0393700790000001
 50
328.60028519008
 51
359.999999999999
  0
ARC
  8
0
  6
CONTINUOUS
 62
0
 10
0.600358959035066
 20
5.80118092504051
 30
0.0
 40
0.039370079
 50
90.0000000000002
 51
121.399714809919
  0
ARC
  8
0
  6
CONTINUOUS
 62
0
 10
0.334645669999999
 20
7.34055100404051
 30
0.0
 40
0.0393700789999999
 50
89.9999999999998
 51
179.999999999999
  0
ARC
  8
0
  6
CONTINUOUS
 62
0
 10
0.492125983999999
 20
7.34055100404051
 30
0.0
 40
0.0393700790000003
 50
359.999999999998
 51
89.9999999999997
  0
LINE
  8
0
  6
CONTINUOUS
 62
0
 10
0.748031495999999
 20
0.194881713040513
 30
0.0
 11
0.748031496
 21
5.80118092504051
 31
0.0
  0
ARC
  8
0
  6
CONTINUOUS
 62
0
 10
0.708661416999999
 20
5.80118092504051
 30
0.0
 40
0.0393700790000002
 50
359.999999999999
 51
89.9999999999995
  0
ARC
  8
0
  6
CONTINUOUS
 62
0
 10
0.708661416999999
 20
0.194881713040513
 30
0.0
 40
0.039370079
 50
270
 51
3.56222124323914E-13
  0
LINE
  8
5
  6
CONTINUOUS
 62
5
 10
0.472440945
 20
5.492125984
 30
0.0
 11
0.295275591
 21
5.492125984
 31
0.0
  0
LINE
  8
5
  6
CONTINUOUS
 62
5
 10
-0.285433071
 20
5.492125984
 30
0.0
 11
-0.285433071
 21
7.618110236
 31
0.0
  0
LINE
  8
5
  6
CONTINUOUS
 62
5
 10
0.285433071
 20
5.492125984
 30
0.0
 11
0.285433071
 21
7.618110236
 31
0.0
  0
LINE
  8
5
  6
CONTINUOUS
 62
5
 10
-0.472440945
 20
0
 30
0.0
 11
0.472440945
 21
0
 31
0.0
  0
LINE
  8
5
  6
CONTINUOUS
 62
5
 10
-0.472440945
 20
5.492125984
 30
0.0
 11
-0.472440945
 21
0
 31
0.0
  0
LINE
  8
5
  6
CONTINUOUS
 62
5
 10
0.472440945
 20
5.492125984
 30
0.0
 11
0.472440945
 21
0
 31
0.0
  0
LINE
  8
5
  6
CONTINUOUS
 62
5
 10
-0.285433071
 20
7.618110236
 30
0.0
 11
-0.216535433
 21
7.618110236
 31
0.0
  0
LINE
  8
5
  6
CONTINUOUS
 62
5
 10
-0.216535433
 20
8.078740157
 30
0.0
 11
-0.216535433
 21
7.618110236
 31
0.0
  0
LINE
  8
5
  6
CONTINUOUS
 62
5
 10
0.216535433
 20
8.078740157
 30
0.0
 11
0.216535433
 21
7.618110236
 31
0.0
  0
LINE
  8
5
  6
CONTINUOUS
 62
5
 10
-0.216535433
 20
8.078740157
 30
0.0
 11
0.216535433
 21
8.078740157
 31
0.0
  0
LINE
  8
5
  6
CONTINUOUS
 62
5
 10
-0.285433071
 20
5.492125984
 30
0.0
 11
-0.295275591
 21
5.492125984
 31
0.0
  0
LINE
  8
5
  6
CONTINUOUS
 62
5
 10
0.285433071
 20
5.492125984
 30
0.0
 11
-0.285433071
 21
5.492125984
 31
0.0
  0
LINE
  8
5
  6
CONTINUOUS
 62
5
 10
0.216535433
 20
7.618110236
 30
0.0
 11
0.285433071
 21
7.618110236
 31
0.0
  0
LINE
  8
5
  6
CONTINUOUS
 62
5
 10
-0.295275591
 20
5.492125984
 30
0.0
 11
-0.472440945
 21
5.492125984
 31
0.0
  0
LINE
  8
5
  6
CONTINUOUS
 62
5
 10
0.295275591
 20
5.492125984
 30
0.0
 11
0.285433071
 21
5.492125984
 31
0.0
  0
ENDSEC
  0
EOF
