  0
SECTION
  2
HEADER
  9
$ACADVER
  1
AC1003
  9
$EXTMIN
 10
-1.3779527555
 20
0.984251968499999
  9
$EXTMAX
 10
1.3779527555
 20
-0.984251968500011
  9
$INSUNITS
 70
1
  9
$INSBASE
 10
6.66133814775094E-16
 20
-5.6621374255883E-15
999
Created with OMAX LAYOUT for Windows. (www.omax.com) 3/8/2024
  0
ENDSEC
  0
SECTION
  2
TABLES
  0
TABLE
  2
LAYER
 70
    10
  0
LAYER
  2
0
 70
     0
 62
     7
  6
CONTINUOUS
  0
LAYER
  2
1
 70
     0
 62
     7
  6
CONTINUOUS
  0
LAYER
  2
2
 70
     0
 62
     7
  6
CONTINUOUS
  0
LAYER
  2
3
 70
     0
 62
     7
  6
CONTINUOUS
  0
LAYER
  2
4
 70
     0
 62
     7
  6
CONTINUOUS
  0
LAYER
  2
5
 70
     0
 62
     7
  6
CONTINUOUS
  0
LAYER
  2
6
 70
     0
 62
     7
  6
CONTINUOUS
  0
LAYER
  2
7
 70
     0
 62
     7
  6
CONTINUOUS
  0
LAYER
  2
8
 70
     0
 62
     7
  6
CONTINUOUS
  0
LAYER
  2
9
 70
     0
 62
     7
  6
CONTINUOUS
  0
LAYER
  2
10
 70
     0
 62
     7
  6
CONTINUOUS
  0
LAYER
  2
11
 70
     0
 62
     7
  6
CONTINUOUS
  0
LAYER
  2
12
 70
     0
 62
     7
  6
CONTINUOUS
  0
LAYER
  2
13
 70
     0
 62
     7
  6
CONTINUOUS
  0
LAYER
  2
14
 70
     0
 62
     7
  6
CONTINUOUS
  0
LAYER
  2
15
 70
     0
 62
     7
  6
CONTINUOUS
  0
LAYER
  2
16
 70
     0
 62
     7
  6
CONTINUOUS
  0
LAYER
  2
17
 70
     0
 62
     7
  6
CONTINUOUS
  0
LAYER
  2
18
 70
     0
 62
     7
  6
CONTINUOUS
  0
LAYER
  2
19
 70
     0
 62
     7
  6
CONTINUOUS
  0
LAYER
  2
20
 70
     0
 62
     7
  6
CONTINUOUS
  0
LAYER
  2
21
 70
     0
 62
     7
  6
CONTINUOUS
  0
LAYER
  2
22
 70
     0
 62
     7
  6
CONTINUOUS
  0
LAYER
  2
23
 70
     0
 62
     7
  6
CONTINUOUS
  0
LAYER
  2
24
 70
     0
 62
     7
  6
CONTINUOUS
  0
LAYER
  2
25
 70
     0
 62
     7
  6
CONTINUOUS
  0
LAYER
  2
26
 70
     0
 62
     7
  6
CONTINUOUS
  0
LAYER
  2
27
 70
     0
 62
     7
  6
CONTINUOUS
  0
LAYER
  2
28
 70
     0
 62
     7
  6
CONTINUOUS
  0
LAYER
  2
29
 70
     0
 62
     7
  6
CONTINUOUS
  0
LAYER
  2
30
 70
     0
 62
     7
  6
CONTINUOUS
  0
LAYER
  2
31
 70
     0
 62
     7
  6
CONTINUOUS
  0
ENDTAB
  0
ENDSEC
  0
SECTION
  2
ENTITIES
  0
LINE
  8
4
  6
CONTINUOUS
 62
4
 10
1.1811023615
 20
-0.984251968500001
 30
0.0
 11
-1.1811023615
 21
-0.984251968500001
 31
0.0
  0
LINE
  8
4
  6
CONTINUOUS
 62
4
 10
-1.1811023615
 20
0.984251968499999
 30
0.0
 11
1.1811023615
 21
0.984251968499999
 31
0.0
  0
LINE
  8
4
  6
CONTINUOUS
 62
4
 10
-1.3779527555
 20
0.787401574499999
 30
0.0
 11
-1.3779527555
 21
-0.787401574500001
 31
0.0
  0
LINE
  8
4
  6
CONTINUOUS
 62
4
 10
1.3779527555
 20
0.787401574499999
 30
0.0
 11
1.3779527555
 21
-0.787401574500001
 31
0.0
  0
ARC
  8
4
  6
CONTINUOUS
 62
4
 10
-1.1811023615
 20
0.787401574499999
 30
0.0
 40
0.196850394
 50
89.9999999999993
 51
180
  0
ARC
  8
4
  6
CONTINUOUS
 62
4
 10
1.1811023615
 20
0.787401574500001
 30
0.0
 40
0.196850394
 50
359.999999999997
 51
89.9999999999993
  0
ARC
  8
4
  6
CONTINUOUS
 62
4
 10
1.1811023615
 20
-0.787401574500001
 30
0.0
 40
0.196850394
 50
269.999999999996
 51
359.999999999997
  0
ARC
  8
4
  6
CONTINUOUS
 62
4
 10
-1.1811023615
 20
-0.787401574500013
 30
0.0
 40
0.196850394
 50
179.999999999997
 51
269.999999999996
  0
LINE
  8
4
  6
CONTINUOUS
 62
4
 10
0.807086614
 20
0.0787401579999991
 30
0.0
 11
0.807086614
 21
0.370078738726539
 31
0.0
  0
LINE
  8
4
  6
CONTINUOUS
 62
4
 10
1.06496063
 20
0.0393700789999993
 30
0.0
 11
0.846456693
 21
0.0393700789999993
 31
0.0
  0
LINE
  8
4
  6
CONTINUOUS
 62
4
 10
1.06496063
 20
-0.0393700790000007
 30
0.0
 11
0.846456693
 21
-0.0393700790000007
 31
0.0
  0
ARC
  8
4
  6
CONTINUOUS
 62
4
 10
1.06496063
 20
-8.88178419700125E-16
 30
0.0
 40
0.0393700790000002
 50
270
 51
90
  0
ARC
  8
4
  6
CONTINUOUS
 62
4
 10
0.846456693
 20
-0.0787401580000004
 30
0.0
 40
0.0393700789999997
 50
89.9999999999997
 51
180
  0
ARC
  8
4
  6
CONTINUOUS
 62
4
 10
0.846456693000001
 20
0.0787401579999988
 30
0.0
 40
0.0393700789999999
 50
179.999999999998
 51
269.999999999997
  0
ARC
  8
4
  6
CONTINUOUS
 62
4
 10
0.79316718872807
 20
0.395529393228069
 30
0.0
 40
0.01968504
 50
45
 51
115.528779585301
  0
ARC
  8
4
  6
CONTINUOUS
 62
4
 10
0.79316718872807
 20
0.39552939322807
 30
0.0
 40
0.0196850400000001
 50
334.471220414697
 51
44.9999999999987
  0
ARC
  8
4
  6
CONTINUOUS
 62
4
 10
0.76771653422654
 20
0.448818897499999
 30
0.0
 40
0.0393700790000002
 50
269.999999999997
 51
295.528779585299
  0
ARC
  8
4
  6
CONTINUOUS
 62
4
 10
0.846456693
 20
0.37007873872654
 30
0.0
 40
0.0393700790000002
 50
154.471220414697
 51
179.999999999998
  0
LINE
  8
4
  6
CONTINUOUS
 62
4
 10
0.807086614
 20
-0.0787401580000004
 30
0.0
 11
0.807086614
 21
-0.370078738726541
 31
0.0
  0
ARC
  8
4
  6
CONTINUOUS
 62
4
 10
0.79316718872807
 20
-0.395529393228071
 30
0.0
 40
0.0196850399999999
 50
244.471220414696
 51
314.999999999997
  0
ARC
  8
4
  6
CONTINUOUS
 62
4
 10
0.79316718872807
 20
-0.395529393228071
 30
0.0
 40
0.0196850400000005
 50
314.999999999998
 51
25.528779585301
  0
ARC
  8
4
  6
CONTINUOUS
 62
4
 10
0.767716534226541
 20
-0.4488188975
 30
0.0
 40
0.0393700790000005
 50
64.4712204146989
 51
90.0000000000002
  0
ARC
  8
4
  6
CONTINUOUS
 62
4
 10
0.846456693
 20
-0.370078738726541
 30
0.0
 40
0.0393700789999998
 50
179.999999999998
 51
205.528779585299
  0
LINE
  8
4
  6
CONTINUOUS
 62
4
 10
0
 20
0.409448818499999
 30
0.0
 11
0.76771653422654
 21
0.409448818499999
 31
0.0
  0
LINE
  8
4
  6
CONTINUOUS
 62
4
 10
0
 20
-0.4094488185
 30
0.0
 11
0.76771653422654
 21
-0.4094488185
 31
0.0
  0
LINE
  8
4
  6
CONTINUOUS
 62
4
 10
-0.807086614
 20
0.0787401579999991
 30
0.0
 11
-0.807086614
 21
0.370078738726539
 31
0.0
  0
LINE
  8
4
  6
CONTINUOUS
 62
4
 10
-1.06496063
 20
0.0393700789999993
 30
0.0
 11
-0.846456693
 21
0.0393700789999993
 31
0.0
  0
LINE
  8
4
  6
CONTINUOUS
 62
4
 10
-1.06496063
 20
-0.0393700790000007
 30
0.0
 11
-0.846456693
 21
-0.0393700790000007
 31
0.0
  0
ARC
  8
4
  6
CONTINUOUS
 62
4
 10
-1.06496063
 20
-8.88178419700125E-16
 30
0.0
 40
0.0393700790000002
 50
90
 51
270
  0
ARC
  8
4
  6
CONTINUOUS
 62
4
 10
-0.846456692999999
 20
-0.0787401580000001
 30
0.0
 40
0.0393700789999998
 50
359.999999999998
 51
89.9999999999991
  0
ARC
  8
4
  6
CONTINUOUS
 62
4
 10
-0.846456693
 20
0.0787401579999996
 30
0.0
 40
0.0393700790000002
 50
269.999999999997
 51
359.999999999997
  0
ARC
  8
4
  6
CONTINUOUS
 62
4
 10
-0.79316718872807
 20
0.39552939322807
 30
0.0
 40
0.0196850399999998
 50
64.4712204146982
 51
135
  0
ARC
  8
4
  6
CONTINUOUS
 62
4
 10
-0.79316718872807
 20
0.395529393228069
 30
0.0
 40
0.0196850399999996
 50
135.000000000001
 51
205.528779585302
  0
ARC
  8
4
  6
CONTINUOUS
 62
4
 10
-0.76771653422654
 20
0.448818897499999
 30
0.0
 40
0.0393700790000002
 50
244.471220414697
 51
269.999999999998
  0
ARC
  8
4
  6
CONTINUOUS
 62
4
 10
-0.846456693
 20
0.370078738726539
 30
0.0
 40
0.0393700790000008
 50
2.2581938238391E-13
 51
25.5287795853021
  0
LINE
  8
4
  6
CONTINUOUS
 62
4
 10
-0.807086614
 20
-0.0787401580000004
 30
0.0
 11
-0.807086614
 21
-0.370078738726541
 31
0.0
  0
ARC
  8
4
  6
CONTINUOUS
 62
4
 10
-0.79316718872807
 20
-0.395529393228071
 30
0.0
 40
0.0196850399999991
 50
224.999999999998
 51
295.5287795853
  0
ARC
  8
4
  6
CONTINUOUS
 62
4
 10
-0.79316718872807
 20
-0.395529393228071
 30
0.0
 40
0.0196850399999998
 50
154.471220414695
 51
224.999999999996
  0
ARC
  8
4
  6
CONTINUOUS
 62
4
 10
-0.76771653422654
 20
-0.4488188975
 30
0.0
 40
0.0393700789999987
 50
89.9999999999981
 51
115.5287795853
  0
ARC
  8
4
  6
CONTINUOUS
 62
4
 10
-0.846456693
 20
-0.370078738726541
 30
0.0
 40
0.0393700789999996
 50
334.471220414697
 51
359.999999999999
  0
LINE
  8
4
  6
CONTINUOUS
 62
4
 10
0
 20
0.409448818499999
 30
0.0
 11
-0.76771653422654
 21
0.409448818499999
 31
0.0
  0
LINE
  8
4
  6
CONTINUOUS
 62
4
 10
0
 20
-0.4094488185
 30
0.0
 11
-0.76771653422654
 21
-0.4094488185
 31
0.0
  0
ARC
  8
4
  6
CONTINUOUS
 62
4
 10
-1.0826771645
 20
0.6889763775
 30
0.0
 40
0.0669291340000004
 50
359.999999999996
 51
180
  0
ARC
  8
4
  6
CONTINUOUS
 62
4
 10
-1.0826771645
 20
0.688976377499999
 30
0.0
 40
0.0669291340000004
 50
179.999999999998
 51
359.999999999998
  0
ARC
  8
4
  6
CONTINUOUS
 62
4
 10
1.0826771645
 20
0.6889763775
 30
0.0
 40
0.066929134
 50
359.999999999996
 51
180
  0
ARC
  8
4
  6
CONTINUOUS
 62
4
 10
1.0826771645
 20
0.688976377499999
 30
0.0
 40
0.066929134
 50
179.999999999998
 51
359.999999999998
  0
ARC
  8
4
  6
CONTINUOUS
 62
4
 10
1.0826771645
 20
-0.688976377500001
 30
0.0
 40
0.066929134
 50
179.999999999996
 51
359.999999999996
  0
ARC
  8
4
  6
CONTINUOUS
 62
4
 10
1.0826771645
 20
-0.6889763775
 30
0.0
 40
0.066929134
 50
359.999999999996
 51
180
  0
ARC
  8
4
  6
CONTINUOUS
 62
4
 10
-1.0826771645
 20
-0.688976377500001
 30
0.0
 40
0.0669291340000004
 50
179.999999999998
 51
359.999999999998
  0
ARC
  8
4
  6
CONTINUOUS
 62
4
 10
-1.0826771645
 20
-0.6889763775
 30
0.0
 40
0.0669291340000004
 50
359.999999999996
 51
180
  0
ARC
  8
4
  6
CONTINUOUS
 62
4
 10
0.964566929
 20
0.1968503935
 30
0.0
 40
0.066929134
 50
359.999999999996
 51
180
  0
ARC
  8
4
  6
CONTINUOUS
 62
4
 10
0.964566929
 20
0.196850393499998
 30
0.0
 40
0.066929134
 50
179.999999999997
 51
359.999999999998
  0
ARC
  8
4
  6
CONTINUOUS
 62
4
 10
0.964566929
 20
-0.196850393500001
 30
0.0
 40
0.066929134
 50
179.999999999998
 51
359.999999999998
  0
ARC
  8
4
  6
CONTINUOUS
 62
4
 10
0.964566929
 20
-0.1968503935
 30
0.0
 40
0.066929134
 50
359.999999999997
 51
180
  0
ARC
  8
4
  6
CONTINUOUS
 62
4
 10
-0.964566929
 20
0.1968503935
 30
0.0
 40
0.0669291339999996
 50
359.999999999996
 51
180
  0
ARC
  8
4
  6
CONTINUOUS
 62
4
 10
-0.964566929
 20
0.196850393499999
 30
0.0
 40
0.0669291339999996
 50
179.999999999998
 51
359.999999999998
  0
ARC
  8
4
  6
CONTINUOUS
 62
4
 10
-0.964566929
 20
-0.196850393500001
 30
0.0
 40
0.0669291339999996
 50
179.999999999998
 51
359.999999999998
  0
ARC
  8
4
  6
CONTINUOUS
 62
4
 10
-0.964566929
 20
-0.1968503935
 30
0.0
 40
0.0669291339999996
 50
359.999999999996
 51
180
  0
ENDSEC
  0
EOF
