  0
SECTION
  2
HEADER
  9
$ACADVER
  1
AC1003
  9
$EXTMIN
 10
-1.96850393699613
 20
2.27303255585111
  9
$EXTMAX
 10
1.96850393700387
 20
-1.13651627794899
  9
$INSUNITS
 70
1
  9
$INSBASE
 10
3.87001541923837E-12
 20
0.56825813895106
999
Created with OMAX LAYOUT for Windows. (www.omax.com) 2/14/2024
  0
ENDSEC
  0
SECTION
  2
TABLES
  0
TABLE
  2
LAYER
 70
    10
  0
LAYER
  2
0
 70
     0
 62
     7
  6
CONTINUOUS
  0
LAYER
  2
1
 70
     0
 62
     7
  6
CONTINUOUS
  0
LAYER
  2
2
 70
     0
 62
     7
  6
CONTINUOUS
  0
LAYER
  2
3
 70
     0
 62
     7
  6
CONTINUOUS
  0
LAYER
  2
4
 70
     0
 62
     7
  6
CONTINUOUS
  0
LAYER
  2
5
 70
     0
 62
     7
  6
CONTINUOUS
  0
LAYER
  2
6
 70
     0
 62
     7
  6
CONTINUOUS
  0
LAYER
  2
7
 70
     0
 62
     7
  6
CONTINUOUS
  0
LAYER
  2
8
 70
     0
 62
     7
  6
CONTINUOUS
  0
LAYER
  2
9
 70
     0
 62
     7
  6
CONTINUOUS
  0
LAYER
  2
10
 70
     0
 62
     7
  6
CONTINUOUS
  0
LAYER
  2
11
 70
     0
 62
     7
  6
CONTINUOUS
  0
LAYER
  2
12
 70
     0
 62
     7
  6
CONTINUOUS
  0
LAYER
  2
13
 70
     0
 62
     7
  6
CONTINUOUS
  0
LAYER
  2
14
 70
     0
 62
     7
  6
CONTINUOUS
  0
LAYER
  2
15
 70
     0
 62
     7
  6
CONTINUOUS
  0
LAYER
  2
16
 70
     0
 62
     7
  6
CONTINUOUS
  0
LAYER
  2
17
 70
     0
 62
     7
  6
CONTINUOUS
  0
LAYER
  2
18
 70
     0
 62
     7
  6
CONTINUOUS
  0
LAYER
  2
19
 70
     0
 62
     7
  6
CONTINUOUS
  0
LAYER
  2
20
 70
     0
 62
     7
  6
CONTINUOUS
  0
LAYER
  2
21
 70
     0
 62
     7
  6
CONTINUOUS
  0
LAYER
  2
22
 70
     0
 62
     7
  6
CONTINUOUS
  0
LAYER
  2
23
 70
     0
 62
     7
  6
CONTINUOUS
  0
LAYER
  2
24
 70
     0
 62
     7
  6
CONTINUOUS
  0
LAYER
  2
25
 70
     0
 62
     7
  6
CONTINUOUS
  0
LAYER
  2
26
 70
     0
 62
     7
  6
CONTINUOUS
  0
LAYER
  2
27
 70
     0
 62
     7
  6
CONTINUOUS
  0
LAYER
  2
28
 70
     0
 62
     7
  6
CONTINUOUS
  0
LAYER
  2
29
 70
     0
 62
     7
  6
CONTINUOUS
  0
LAYER
  2
30
 70
     0
 62
     7
  6
CONTINUOUS
  0
LAYER
  2
31
 70
     0
 62
     7
  6
CONTINUOUS
  0
ENDTAB
  0
ENDSEC
  0
SECTION
  2
ENTITIES
  0
LINE
  8
0
  6
CONTINUOUS
 62
0
 10
1.96850393700387
 20
-1.13651627791216
 30
0.0
 11
-1.96850393699613
 21
-1.13651627792556
 31
0.0
  0
LINE
  8
0
  6
CONTINUOUS
 62
0
 10
-3.09341441351307E-11
 20
2.27303255585111
 30
0.0
 11
1.96850393700387
 21
-1.13651627791216
 31
0.0
  0
LINE
  8
0
  6
CONTINUOUS
 62
0
 10
-1.96850393699613
 20
-1.13651627792556
 30
0.0
 11
-3.09341441351307E-11
 21
2.27303255585111
 31
0.0
  0
LINE
  8
1
  6
CONTINUOUS
 62
1
 10
3.86712883937434E-12
 20
-1.13651627791886
 30
0.0
 11
-1.96850393699613
 21
-1.13651627792556
 31
0.0
  0
LINE
  8
1
  6
CONTINUOUS
 62
1
 10
0.984251968486467
 20
0.568258138969475
 30
0.0
 11
1.96850393700387
 21
-1.13651627791216
 31
0.0
  0
LINE
  8
1
  6
CONTINUOUS
 62
1
 10
-0.984251968513534
 20
0.568258138962778
 30
0.0
 11
-3.09343661797357E-11
 21
2.27303255585111
 31
0.0
  0
LINE
  8
1
  6
CONTINUOUS
 62
1
 10
-1.96850393699613
 20
-1.13651627792556
 30
0.0
 11
-0.984251968513534
 21
0.568258138962778
 31
0.0
  0
LINE
  8
1
  6
CONTINUOUS
 62
1
 10
-3.09343661797357E-11
 20
2.27303255585111
 30
0.0
 11
0.984251968486467
 21
0.568258138969475
 31
0.0
  0
LINE
  8
1
  6
CONTINUOUS
 62
1
 10
0.984251968486467
 20
0.568258138969475
 30
0.0
 11
-0.984251968513534
 21
0.568258138962778
 31
0.0
  0
LINE
  8
1
  6
CONTINUOUS
 62
1
 10
1.96850393700387
 20
-1.13651627791216
 30
0.0
 11
3.86712883937434E-12
 21
-1.13651627791886
 31
0.0
  0
LINE
  8
1
  6
CONTINUOUS
 62
1
 10
3.86712883937434E-12
 20
-1.13651627791886
 30
0.0
 11
0.984251968486467
 21
0.568258138969475
 31
0.0
  0
LINE
  8
1
  6
CONTINUOUS
 62
1
 10
-0.984251968513534
 20
0.568258138962778
 30
0.0
 11
3.86712883937434E-12
 21
-1.13651627791886
 31
0.0
  0
LINE
  8
2
  6
CONTINUOUS
 62
2
 10
-0.492125984249036
 20
-0.284129069481388
 30
0.0
 11
-1.47637795274903
 21
-0.284129069484737
 31
0.0
  0
LINE
  8
2
  6
CONTINUOUS
 62
2
 10
-0.984251968490335
 20
-1.13651627792556
 30
0.0
 11
-0.492125984249036
 21
-0.284129069481388
 31
0.0
  0
LINE
  8
2
  6
CONTINUOUS
 62
2
 10
-0.984251968490335
 20
-1.13651627792556
 30
0.0
 11
-1.47637795274903
 21
-0.284129069484737
 31
0.0
  0
LINE
  8
2
  6
CONTINUOUS
 62
2
 10
0.492125984252899
 20
-0.284129069508177
 30
0.0
 11
0.984251968511598
 21
-1.13651627794899
 31
0.0
  0
LINE
  8
2
  6
CONTINUOUS
 62
2
 10
1.4763779527471
 20
-0.284129069494782
 30
0.0
 11
0.492125984252899
 21
-0.284129069508177
 31
0.0
  0
LINE
  8
2
  6
CONTINUOUS
 62
2
 10
1.4763779527471
 20
-0.284129069494782
 30
0.0
 11
0.984251968511598
 21
-1.13651627794899
 31
0.0
  0
LINE
  8
2
  6
CONTINUOUS
 62
2
 10
1.93320914831929E-11
 20
0.568258138949385
 30
0.0
 11
0.49212598425483
 21
1.4206453474036
 31
0.0
  0
LINE
  8
2
  6
CONTINUOUS
 62
2
 10
-0.492125984245169
 20
1.42064534738016
 30
0.0
 11
1.93320914831929E-11
 21
0.568258138949385
 31
0.0
  0
LINE
  8
2
  6
CONTINUOUS
 62
2
 10
-0.492125984245169
 20
1.42064534738016
 30
0.0
 11
0.49212598425483
 21
1.4206453474036
 31
0.0
  0
LINE
  8
3
  6
CONTINUOUS
 62
3
 10
-1.72244094487162
 20
-0.710322673703474
 30
0.0
 11
-1.23031496062258
 21
-0.710322673703474
 31
0.0
  0
LINE
  8
3
  6
CONTINUOUS
 62
3
 10
-1.59940944880936
 20
-0.923419475814515
 30
0.0
 11
-1.72244094487162
 21
-0.710322673703474
 31
0.0
  0
LINE
  8
3
  6
CONTINUOUS
 62
3
 10
-1.23031496062258
 20
-0.710322673703474
 30
0.0
 11
-1.4763779527471
 21
-1.13651627792556
 31
0.0
  0
LINE
  8
3
  6
CONTINUOUS
 62
3
 10
-1.4763779527471
 20
-1.13651627792556
 30
0.0
 11
-1.59940944880936
 21
-0.923419475814515
 31
0.0
  0
LINE
  8
3
  6
CONTINUOUS
 62
3
 10
-0.492125984245165
 20
-1.13651627792221
 30
0.0
 11
-0.738188976372582
 21
-0.710322673701798
 31
0.0
  0
LINE
  8
3
  6
CONTINUOUS
 62
3
 10
-0.369094488184357
 20
-0.923419475810328
 30
0.0
 11
-0.492125984245165
 21
-1.13651627792221
 31
0.0
  0
LINE
  8
3
  6
CONTINUOUS
 62
3
 10
-0.738188976372582
 20
-0.710322673701798
 30
0.0
 11
-0.246062992123548
 21
-0.71032267369845
 31
0.0
  0
LINE
  8
3
  6
CONTINUOUS
 62
3
 10
-0.246062992123548
 20
-0.71032267369845
 30
0.0
 11
-0.369094488184357
 21
-0.923419475810328
 31
0.0
  0
LINE
  8
3
  6
CONTINUOUS
 62
3
 10
-0.738188976383217
 20
0.142064534744042
 30
0.0
 11
-0.984251968501933
 21
-0.28412906948139
 31
0.0
  0
LINE
  8
3
  6
CONTINUOUS
 62
3
 10
-0.984251968507733
 20
0.142064534740693
 30
0.0
 11
-0.738188976383217
 21
0.142064534744042
 31
0.0
  0
LINE
  8
3
  6
CONTINUOUS
 62
3
 10
-0.984251968501933
 20
-0.28412906948139
 30
0.0
 11
-1.23031496063225
 21
0.142064534737346
 31
0.0
  0
LINE
  8
3
  6
CONTINUOUS
 62
3
 10
-1.23031496063225
 20
0.142064534737346
 30
0.0
 11
-0.984251968507733
 21
0.142064534740693
 31
0.0
  0
LINE
  8
3
  6
CONTINUOUS
 62
3
 10
1.47637795276257
 20
-1.13651627792891
 30
0.0
 11
1.23031496063515
 21
-0.710322673708499
 31
0.0
  0
LINE
  8
3
  6
CONTINUOUS
 62
3
 10
1.59940944882338
 20
-0.923419475817029
 30
0.0
 11
1.47637795276257
 21
-1.13651627792891
 31
0.0
  0
LINE
  8
3
  6
CONTINUOUS
 62
3
 10
1.23031496063515
 20
-0.710322673708499
 30
0.0
 11
1.72244094488419
 21
-0.710322673705151
 31
0.0
  0
LINE
  8
3
  6
CONTINUOUS
 62
3
 10
1.72244094488419
 20
-0.710322673705151
 30
0.0
 11
1.59940944882338
 21
-0.923419475817029
 31
0.0
  0
LINE
  8
3
  6
CONTINUOUS
 62
3
 10
1.23031496062452
 20
0.142064534737343
 30
0.0
 11
0.984251968505802
 21
-0.28412906948809
 31
0.0
  0
LINE
  8
3
  6
CONTINUOUS
 62
3
 10
0.984251968500002
 20
0.142064534733993
 30
0.0
 11
1.23031496062452
 21
0.142064534737343
 31
0.0
  0
LINE
  8
3
  6
CONTINUOUS
 62
3
 10
0.984251968505802
 20
-0.28412906948809
 30
0.0
 11
0.738188976375486
 21
0.142064534730646
 31
0.0
  0
LINE
  8
3
  6
CONTINUOUS
 62
3
 10
0.738188976375486
 20
0.142064534730646
 30
0.0
 11
0.984251968500002
 21
0.142064534733993
 31
0.0
  0
LINE
  8
3
  6
CONTINUOUS
 62
3
 10
0.24606299213902
 20
-0.710322673725243
 30
0.0
 11
0.738188976388054
 21
-0.710322673715197
 31
0.0
  0
LINE
  8
3
  6
CONTINUOUS
 62
3
 10
0.369094488205629
 20
-0.923419475833773
 30
0.0
 11
0.24606299213902
 21
-0.710322673725243
 31
0.0
  0
LINE
  8
3
  6
CONTINUOUS
 62
3
 10
0.738188976388054
 20
-0.710322673715197
 30
0.0
 11
0.492125984272237
 21
-1.1365162779423
 31
0.0
  0
LINE
  8
3
  6
CONTINUOUS
 62
3
 10
0.492125984272237
 20
-1.1365162779423
 30
0.0
 11
0.369094488205629
 21
-0.923419475833773
 31
0.0
  0
LINE
  8
3
  6
CONTINUOUS
 62
3
 10
0.246062992114854
 20
1.84683895163238
 30
0.0
 11
-3.86357612569554E-12
 21
1.42064534740694
 31
0.0
  0
LINE
  8
3
  6
CONTINUOUS
 62
3
 10
-9.66338120633736E-12
 20
1.84683895162903
 30
0.0
 11
0.246062992114854
 21
1.84683895163238
 31
0.0
  0
LINE
  8
3
  6
CONTINUOUS
 62
3
 10
-3.86357612569554E-12
 20
1.42064534740694
 30
0.0
 11
-0.246062992134179
 21
1.84683895162568
 31
0.0
  0
LINE
  8
3
  6
CONTINUOUS
 62
3
 10
-0.246062992134179
 20
1.84683895162568
 30
0.0
 11
-9.66338120633736E-12
 21
1.84683895162903
 31
0.0
  0
LINE
  8
3
  6
CONTINUOUS
 62
3
 10
-0.738188976370646
 20
0.994451743169791
 30
0.0
 11
-0.246062992121612
 21
0.994451743179837
 31
0.0
  0
LINE
  8
3
  6
CONTINUOUS
 62
3
 10
-0.615157480304036
 20
0.781354941061261
 30
0.0
 11
-0.738188976370646
 21
0.994451743169791
 31
0.0
  0
LINE
  8
3
  6
CONTINUOUS
 62
3
 10
-0.246062992121612
 20
0.994451743179837
 30
0.0
 11
-0.492125984237429
 21
0.56825813895273
 31
0.0
  0
LINE
  8
3
  6
CONTINUOUS
 62
3
 10
-0.492125984237429
 20
0.56825813895273
 30
0.0
 11
-0.615157480304036
 21
0.781354941061261
 31
0.0
  0
LINE
  8
3
  6
CONTINUOUS
 62
3
 10
0.492125984264504
 20
0.568258138976173
 30
0.0
 11
0.246062992128387
 21
0.994451743191559
 31
0.0
  0
LINE
  8
3
  6
CONTINUOUS
 62
3
 10
0.615157480320963
 20
0.781354941090563
 30
0.0
 11
0.492125984264504
 21
0.568258138976173
 31
0.0
  0
LINE
  8
3
  6
CONTINUOUS
 62
3
 10
0.246062992128387
 20
0.994451743191559
 30
0.0
 11
0.738188976377421
 21
0.994451743204952
 31
0.0
  0
LINE
  8
3
  6
CONTINUOUS
 62
3
 10
0.738188976377421
 20
0.994451743204952
 30
0.0
 11
0.615157480320963
 21
0.781354941090563
 31
0.0
  0
LINE
  8
4
  6
CONTINUOUS
 62
4
 10
-1.84547244093388
 20
-0.923419475814514
 30
0.0
 11
-1.59940944880936
 21
-0.923419475814514
 31
0.0
  0
LINE
  8
4
  6
CONTINUOUS
 62
4
 10
-1.78395669290274
 20
-1.02996787687003
 30
0.0
 11
-1.84547244093388
 21
-0.923419475814514
 31
0.0
  0
LINE
  8
4
  6
CONTINUOUS
 62
4
 10
-1.59940944880936
 20
-0.923419475814514
 30
0.0
 11
-1.72244094487162
 21
-1.13651627792556
 31
0.0
  0
LINE
  8
4
  6
CONTINUOUS
 62
4
 10
-1.72244094487162
 20
-1.13651627792556
 30
0.0
 11
-1.78395669290274
 21
-1.02996787687003
 31
0.0
  0
LINE
  8
4
  6
CONTINUOUS
 62
4
 10
-1.23031496062059
 20
-1.13651627792382
 30
0.0
 11
-1.3533464566843
 21
-0.923419475813614
 31
0.0
  0
LINE
  8
4
  6
CONTINUOUS
 62
4
 10
-1.16879921259019
 20
-1.02996787686788
 30
0.0
 11
-1.23031496062059
 21
-1.13651627792382
 31
0.0
  0
LINE
  8
4
  6
CONTINUOUS
 62
4
 10
-1.3533464566843
 20
-0.923419475813614
 30
0.0
 11
-1.10728346455979
 21
-0.923419475811942
 31
0.0
  0
LINE
  8
4
  6
CONTINUOUS
 62
4
 10
-1.10728346455979
 20
-0.923419475811942
 30
0.0
 11
-1.16879921259019
 21
-1.02996787686788
 31
0.0
  0
LINE
  8
4
  6
CONTINUOUS
 62
4
 10
-1.3533464566897
 20
-0.497225871590676
 30
0.0
 11
-1.47637795274906
 21
-0.710322673703393
 31
0.0
  0
LINE
  8
4
  6
CONTINUOUS
 62
4
 10
-1.47637795275196
 20
-0.497225871592351
 30
0.0
 11
-1.3533464566897
 21
-0.497225871590676
 31
0.0
  0
LINE
  8
4
  6
CONTINUOUS
 62
4
 10
-1.47637795274906
 20
-0.710322673703393
 30
0.0
 11
-1.59940944881422
 21
-0.497225871594023
 31
0.0
  0
LINE
  8
4
  6
CONTINUOUS
 62
4
 10
-1.59940944881422
 20
-0.497225871594023
 30
0.0
 11
-1.47637795275196
 21
-0.497225871592351
 31
0.0
  0
LINE
  8
4
  6
CONTINUOUS
 62
4
 10
-0.246062992120645
 20
-1.13651627792057
 30
0.0
 11
-0.369094488184356
 21
-0.923419475810366
 31
0.0
  0
LINE
  8
4
  6
CONTINUOUS
 62
4
 10
-0.184547244090243
 20
-1.02996787686463
 30
0.0
 11
-0.246062992120645
 21
-1.13651627792057
 31
0.0
  0
LINE
  8
4
  6
CONTINUOUS
 62
4
 10
-0.369094488184356
 20
-0.923419475810366
 30
0.0
 11
-0.123031496059838
 21
-0.923419475808694
 31
0.0
  0
LINE
  8
4
  6
CONTINUOUS
 62
4
 10
-0.123031496059838
 20
-0.923419475808694
 30
0.0
 11
-0.184547244090243
 21
-1.02996787686463
 31
0.0
  0
LINE
  8
4
  6
CONTINUOUS
 62
4
 10
-0.369094488189752
 20
-0.497225871587428
 30
0.0
 11
-0.49212598424911
 21
-0.710322673700146
 31
0.0
  0
LINE
  8
4
  6
CONTINUOUS
 62
4
 10
-0.492125984252013
 20
-0.497225871589104
 30
0.0
 11
-0.369094488189752
 21
-0.497225871587428
 31
0.0
  0
LINE
  8
4
  6
CONTINUOUS
 62
4
 10
-0.49212598424911
 20
-0.710322673700146
 30
0.0
 11
-0.61515748031427
 21
-0.497225871590776
 31
0.0
  0
LINE
  8
4
  6
CONTINUOUS
 62
4
 10
-0.61515748031427
 20
-0.497225871590776
 30
0.0
 11
-0.492125984252013
 21
-0.497225871589104
 31
0.0
  0
LINE
  8
4
  6
CONTINUOUS
 62
4
 10
-0.861220472432478
 20
-0.9234194758188
 30
0.0
 11
-0.61515748030796
 21
-0.923419475813779
 31
0.0
  0
LINE
  8
4
  6
CONTINUOUS
 62
4
 10
-0.799704724399174
 20
-1.02996787687307
 30
0.0
 11
-0.861220472432478
 21
-0.9234194758188
 31
0.0
  0
LINE
  8
4
  6
CONTINUOUS
 62
4
 10
-0.61515748030796
 20
-0.923419475813779
 30
0.0
 11
-0.738188976365869
 21
-1.13651627792733
 31
0.0
  0
LINE
  8
4
  6
CONTINUOUS
 62
4
 10
-0.738188976365869
 20
-1.13651627792733
 30
0.0
 11
-0.799704724399174
 21
-1.02996787687307
 31
0.0
  0
LINE
  8
4
  6
CONTINUOUS
 62
4
 10
-0.861220472448341
 20
0.355161336853395
 30
0.0
 11
-0.984251968507699
 21
0.142064534740677
 31
0.0
  0
LINE
  8
4
  6
CONTINUOUS
 62
4
 10
-0.984251968510598
 20
0.355161336851719
 30
0.0
 11
-0.861220472448341
 21
0.355161336853395
 31
0.0
  0
LINE
  8
4
  6
CONTINUOUS
 62
4
 10
-0.984251968507699
 20
0.142064534740677
 30
0.0
 11
-1.10728346457286
 21
0.355161336850047
 31
0.0
  0
LINE
  8
4
  6
CONTINUOUS
 62
4
 10
-1.10728346457286
 20
0.355161336850047
 30
0.0
 11
-0.984251968510598
 21
0.355161336851719
 31
0.0
  0
LINE
  8
4
  6
CONTINUOUS
 62
4
 10
-1.35334645669106
 20
-0.0710322673779785
 30
0.0
 11
-1.10728346456655
 21
-0.0710322673729544
 31
0.0
  0
LINE
  8
4
  6
CONTINUOUS
 62
4
 10
-1.29183070865776
 20
-0.177580668432242
 30
0.0
 11
-1.35334645669106
 21
-0.0710322673779785
 31
0.0
  0
LINE
  8
4
  6
CONTINUOUS
 62
4
 10
-1.10728346456655
 20
-0.0710322673729544
 30
0.0
 11
-1.23031496062446
 21
-0.284129069486508
 31
0.0
  0
LINE
  8
4
  6
CONTINUOUS
 62
4
 10
-1.23031496062446
 20
-0.284129069486508
 30
0.0
 11
-1.29183070865776
 21
-0.177580668432242
 31
0.0
  0
LINE
  8
4
  6
CONTINUOUS
 62
4
 10
-0.738188976373433
 20
-0.284129069474727
 30
0.0
 11
-0.861220472441492
 21
-0.0710322673670304
 31
0.0
  0
LINE
  8
4
  6
CONTINUOUS
 62
4
 10
-0.676673228345205
 20
-0.177580668417529
 30
0.0
 11
-0.738188976373433
 21
-0.284129069474727
 31
0.0
  0
LINE
  8
4
  6
CONTINUOUS
 62
4
 10
-0.861220472441492
 20
-0.0710322673670304
 30
0.0
 11
-0.615157480316974
 21
-0.0710322673603359
 31
0.0
  0
LINE
  8
4
  6
CONTINUOUS
 62
4
 10
-0.615157480316974
 20
-0.0710322673603359
 30
0.0
 11
-0.676673228345205
 21
-0.177580668417529
 31
0.0
  0
LINE
  8
4
  6
CONTINUOUS
 62
4
 10
1.72244094486387
 20
-1.13651627788709
 30
0.0
 11
1.59940944880016
 21
-0.923419475776883
 31
0.0
  0
LINE
  8
4
  6
CONTINUOUS
 62
4
 10
1.78395669289428
 20
-1.02996787683115
 30
0.0
 11
1.72244094486387
 21
-1.13651627788709
 31
0.0
  0
LINE
  8
4
  6
CONTINUOUS
 62
4
 10
1.59940944880016
 20
-0.923419475776883
 30
0.0
 11
1.84547244092468
 21
-0.92341947577521
 31
0.0
  0
LINE
  8
4
  6
CONTINUOUS
 62
4
 10
1.84547244092468
 20
-0.92341947577521
 30
0.0
 11
1.78395669289428
 21
-1.02996787683115
 31
0.0
  0
LINE
  8
4
  6
CONTINUOUS
 62
4
 10
1.59940944879476
 20
-0.497225871553945
 30
0.0
 11
1.4763779527354
 21
-0.710322673666663
 31
0.0
  0
LINE
  8
4
  6
CONTINUOUS
 62
4
 10
1.47637795273251
 20
-0.497225871555621
 30
0.0
 11
1.59940944879476
 21
-0.497225871553945
 31
0.0
  0
LINE
  8
4
  6
CONTINUOUS
 62
4
 10
1.4763779527354
 20
-0.710322673666663
 30
0.0
 11
1.35334645667025
 21
-0.497225871557294
 31
0.0
  0
LINE
  8
4
  6
CONTINUOUS
 62
4
 10
1.35334645667025
 20
-0.497225871557294
 30
0.0
 11
1.47637795273251
 21
-0.497225871555621
 31
0.0
  0
LINE
  8
4
  6
CONTINUOUS
 62
4
 10
1.10728346455204
 20
-0.923419475785317
 30
0.0
 11
1.35334645667656
 21
-0.923419475780296
 31
0.0
  0
LINE
  8
4
  6
CONTINUOUS
 62
4
 10
1.16879921258534
 20
-1.02996787683958
 30
0.0
 11
1.10728346455204
 21
-0.923419475785317
 31
0.0
  0
LINE
  8
4
  6
CONTINUOUS
 62
4
 10
1.35334645667656
 20
-0.923419475780296
 30
0.0
 11
1.23031496061865
 21
-1.13651627789385
 31
0.0
  0
LINE
  8
4
  6
CONTINUOUS
 62
4
 10
1.23031496061865
 20
-1.13651627789385
 30
0.0
 11
1.16879921258534
 21
-1.02996787683958
 31
0.0
  0
LINE
  8
4
  6
CONTINUOUS
 62
4
 10
1.10728346453618
 20
0.355161336886878
 30
0.0
 11
0.984251968476816
 21
0.14206453477416
 31
0.0
  0
LINE
  8
4
  6
CONTINUOUS
 62
4
 10
0.984251968473917
 20
0.355161336885202
 30
0.0
 11
1.10728346453618
 21
0.355161336886878
 31
0.0
  0
LINE
  8
4
  6
CONTINUOUS
 62
4
 10
0.984251968476816
 20
0.14206453477416
 30
0.0
 11
0.861220472411659
 21
0.355161336883529
 31
0.0
  0
LINE
  8
4
  6
CONTINUOUS
 62
4
 10
0.861220472411659
 20
0.355161336883529
 30
0.0
 11
0.984251968473917
 21
0.355161336885202
 31
0.0
  0
LINE
  8
4
  6
CONTINUOUS
 62
4
 10
0.615157480293451
 20
-0.0710322673444943
 30
0.0
 11
0.861220472417969
 21
-0.07103226733947
 31
0.0
  0
LINE
  8
4
  6
CONTINUOUS
 62
4
 10
0.676673228326759
 20
-0.17758066839876
 30
0.0
 11
0.615157480293451
 21
-0.0710322673444943
 31
0.0
  0
LINE
  8
4
  6
CONTINUOUS
 62
4
 10
0.861220472417969
 20
-0.07103226733947
 30
0.0
 11
0.73818897636006
 21
-0.284129069453025
 31
0.0
  0
LINE
  8
4
  6
CONTINUOUS
 62
4
 10
0.73818897636006
 20
-0.284129069453025
 30
0.0
 11
0.676673228326759
 21
-0.17758066839876
 31
0.0
  0
LINE
  8
4
  6
CONTINUOUS
 62
4
 10
1.23031496061108
 20
-0.284129069441243
 30
0.0
 11
1.10728346454303
 21
-0.0710322673335481
 31
0.0
  0
LINE
  8
4
  6
CONTINUOUS
 62
4
 10
1.29183070863931
 20
-0.177580668384047
 30
0.0
 11
1.23031496061108
 21
-0.284129069441243
 31
0.0
  0
LINE
  8
4
  6
CONTINUOUS
 62
4
 10
1.10728346454303
 20
-0.0710322673335481
 30
0.0
 11
1.35334645666754
 21
-0.0710322673268516
 31
0.0
  0
LINE
  8
4
  6
CONTINUOUS
 62
4
 10
1.35334645666754
 20
-0.0710322673268516
 30
0.0
 11
1.29183070863931
 21
-0.177580668384047
 31
0.0
  0
LINE
  8
4
  6
CONTINUOUS
 62
4
 10
0.123031496057891
 20
-0.923419475798613
 30
0.0
 11
0.369094488182409
 21
-0.923419475793589
 31
0.0
  0
LINE
  8
4
  6
CONTINUOUS
 62
4
 10
0.184547244091195
 20
-1.02996787685288
 30
0.0
 11
0.123031496057891
 21
-0.923419475798613
 31
0.0
  0
LINE
  8
4
  6
CONTINUOUS
 62
4
 10
0.369094488182409
 20
-0.923419475793589
 30
0.0
 11
0.246062992124497
 21
-1.13651627790714
 31
0.0
  0
LINE
  8
4
  6
CONTINUOUS
 62
4
 10
0.246062992124497
 20
-1.13651627790714
 30
0.0
 11
0.184547244091195
 21
-1.02996787685288
 31
0.0
  0
LINE
  8
4
  6
CONTINUOUS
 62
4
 10
0.738188976375522
 20
-1.13651627789536
 30
0.0
 11
0.615157480307463
 21
-0.923419475787665
 31
0.0
  0
LINE
  8
4
  6
CONTINUOUS
 62
4
 10
0.79970472440375
 20
-1.02996787683816
 30
0.0
 11
0.738188976375522
 21
-1.13651627789536
 31
0.0
  0
LINE
  8
4
  6
CONTINUOUS
 62
4
 10
0.615157480307463
 20
-0.923419475787665
 30
0.0
 11
0.861220472431981
 21
-0.923419475780971
 31
0.0
  0
LINE
  8
4
  6
CONTINUOUS
 62
4
 10
0.861220472431981
 20
-0.923419475780971
 30
0.0
 11
0.79970472440375
 21
-1.02996787683816
 31
0.0
  0
LINE
  8
4
  6
CONTINUOUS
 62
4
 10
0.615157480293366
 20
-0.497225871564727
 30
0.0
 11
0.492125984238356
 21
-0.710322673679957
 31
0.0
  0
LINE
  8
4
  6
CONTINUOUS
 62
4
 10
0.492125984231105
 20
-0.497225871568916
 30
0.0
 11
0.615157480293366
 21
-0.497225871564727
 31
0.0
  0
LINE
  8
4
  6
CONTINUOUS
 62
4
 10
0.492125984238356
 20
-0.710322673679957
 30
0.0
 11
0.369094488168848
 21
-0.497225871573099
 31
0.0
  0
LINE
  8
4
  6
CONTINUOUS
 62
4
 10
0.369094488168848
 20
-0.497225871573099
 30
0.0
 11
0.492125984231105
 21
-0.497225871568916
 31
0.0
  0
LINE
  8
4
  6
CONTINUOUS
 62
4
 10
0.123031496003321
 20
2.05993575374171
 30
0.0
 11
-5.60369528557203E-11
 21
1.84683895162899
 31
0.0
  0
LINE
  8
4
  6
CONTINUOUS
 62
4
 10
-5.89395199313003E-11
 20
2.05993575374004
 30
0.0
 11
0.123031496003321
 21
2.05993575374171
 31
0.0
  0
LINE
  8
4
  6
CONTINUOUS
 62
4
 10
-5.60369528557203E-11
 20
1.84683895162899
 30
0.0
 11
-0.123031496121197
 21
2.05993575373836
 31
0.0
  0
LINE
  8
4
  6
CONTINUOUS
 62
4
 10
-0.123031496121197
 20
2.05993575373836
 30
0.0
 11
-5.89395199313003E-11
 21
2.05993575374004
 31
0.0
  0
LINE
  8
4
  6
CONTINUOUS
 62
4
 10
-0.369094488239405
 20
1.63374214951034
 30
0.0
 11
-0.123031496114887
 21
1.63374214951536
 31
0.0
  0
LINE
  8
4
  6
CONTINUOUS
 62
4
 10
-0.307578740206097
 20
1.52719374845607
 30
0.0
 11
-0.369094488239405
 21
1.63374214951034
 31
0.0
  0
LINE
  8
4
  6
CONTINUOUS
 62
4
 10
-0.123031496114887
 20
1.63374214951536
 30
0.0
 11
-0.246062992172796
 21
1.42064534740181
 31
0.0
  0
LINE
  8
4
  6
CONTINUOUS
 62
4
 10
-0.246062992172796
 20
1.42064534740181
 30
0.0
 11
-0.307578740206097
 21
1.52719374845607
 31
0.0
  0
LINE
  8
4
  6
CONTINUOUS
 62
4
 10
0.24606299207823
 20
1.42064534741359
 30
0.0
 11
0.123031496010171
 21
1.63374214952129
 31
0.0
  0
LINE
  8
4
  6
CONTINUOUS
 62
4
 10
0.307578740106457
 20
1.52719374847079
 30
0.0
 11
0.24606299207823
 21
1.42064534741359
 31
0.0
  0
LINE
  8
4
  6
CONTINUOUS
 62
4
 10
0.123031496010171
 20
1.63374214952129
 30
0.0
 11
0.369094488134689
 21
1.63374214952798
 31
0.0
  0
LINE
  8
4
  6
CONTINUOUS
 62
4
 10
0.369094488134689
 20
1.63374214952798
 30
0.0
 11
0.307578740106457
 21
1.52719374847079
 31
0.0
  0
LINE
  8
4
  6
CONTINUOUS
 62
4
 10
-0.861220472474965
 20
0.781354941056221
 30
0.0
 11
-0.615157480350447
 21
0.781354941061245
 31
0.0
  0
LINE
  8
4
  6
CONTINUOUS
 62
4
 10
-0.799704724441657
 20
0.674806540001958
 30
0.0
 11
-0.861220472474965
 21
0.781354941056221
 31
0.0
  0
LINE
  8
4
  6
CONTINUOUS
 62
4
 10
-0.615157480350447
 20
0.781354941061245
 30
0.0
 11
-0.738188976408356
 21
0.568258138947692
 31
0.0
  0
LINE
  8
4
  6
CONTINUOUS
 62
4
 10
-0.738188976408356
 20
0.568258138947692
 30
0.0
 11
-0.799704724441657
 21
0.674806540001958
 31
0.0
  0
LINE
  8
4
  6
CONTINUOUS
 62
4
 10
-0.246062992157334
 20
0.568258138959473
 30
0.0
 11
-0.369094488225393
 21
0.781354941067167
 31
0.0
  0
LINE
  8
4
  6
CONTINUOUS
 62
4
 10
-0.184547244129103
 20
0.674806540016671
 30
0.0
 11
-0.246062992157334
 21
0.568258138959473
 31
0.0
  0
LINE
  8
4
  6
CONTINUOUS
 62
4
 10
-0.369094488225393
 20
0.781354941067167
 30
0.0
 11
-0.123031496100875
 21
0.781354941073864
 31
0.0
  0
LINE
  8
4
  6
CONTINUOUS
 62
4
 10
-0.123031496100875
 20
0.781354941073864
 30
0.0
 11
-0.184547244129103
 21
0.674806540016671
 31
0.0
  0
LINE
  8
4
  6
CONTINUOUS
 62
4
 10
-0.36909448823949
 20
1.20754854529011
 30
0.0
 11
-0.4921259842945
 21
0.994451743174878
 31
0.0
  0
LINE
  8
4
  6
CONTINUOUS
 62
4
 10
-0.492125984301747
 20
1.20754854528592
 30
0.0
 11
-0.36909448823949
 21
1.20754854529011
 31
0.0
  0
LINE
  8
4
  6
CONTINUOUS
 62
4
 10
-0.4921259842945
 20
0.994451743174878
 30
0.0
 11
-0.615157480364008
 21
1.20754854528173
 31
0.0
  0
LINE
  8
4
  6
CONTINUOUS
 62
4
 10
-0.615157480364008
 20
1.20754854528173
 30
0.0
 11
-0.492125984301747
 21
1.20754854528592
 31
0.0
  0
LINE
  8
4
  6
CONTINUOUS
 62
4
 10
0.738188976342617
 20
0.568258138982815
 30
0.0
 11
0.615157480274554
 21
0.781354941090509
 31
0.0
  0
LINE
  8
4
  6
CONTINUOUS
 62
4
 10
0.799704724370844
 20
0.67480654004001
 30
0.0
 11
0.738188976342617
 21
0.568258138982815
 31
0.0
  0
LINE
  8
4
  6
CONTINUOUS
 62
4
 10
0.615157480274554
 20
0.781354941090509
 30
0.0
 11
0.861220472399072
 21
0.781354941097203
 31
0.0
  0
LINE
  8
4
  6
CONTINUOUS
 62
4
 10
0.861220472399072
 20
0.781354941097203
 30
0.0
 11
0.799704724370844
 21
0.67480654004001
 31
0.0
  0
LINE
  8
4
  6
CONTINUOUS
 62
4
 10
0.615157480260457
 20
1.20754854531345
 30
0.0
 11
0.492125984205447
 21
0.994451743198217
 31
0.0
  0
LINE
  8
4
  6
CONTINUOUS
 62
4
 10
0.4921259841982
 20
1.20754854530926
 30
0.0
 11
0.615157480260457
 21
1.20754854531345
 31
0.0
  0
LINE
  8
4
  6
CONTINUOUS
 62
4
 10
0.492125984205447
 20
0.994451743198217
 30
0.0
 11
0.369094488135943
 21
1.20754854530508
 31
0.0
  0
LINE
  8
4
  6
CONTINUOUS
 62
4
 10
0.369094488135943
 20
1.20754854530508
 30
0.0
 11
0.4921259841982
 21
1.20754854530926
 31
0.0
  0
LINE
  8
4
  6
CONTINUOUS
 62
4
 10
0.123031496026432
 20
0.781354941072028
 30
0.0
 11
0.369094488150953
 21
0.781354941082073
 31
0.0
  0
LINE
  8
4
  6
CONTINUOUS
 62
4
 10
0.184547244061914
 20
0.674806540019019
 30
0.0
 11
0.123031496026432
 21
0.781354941072028
 31
0.0
  0
LINE
  8
4
  6
CONTINUOUS
 62
4
 10
0.369094488150953
 20
0.781354941082073
 30
0.0
 11
0.246062992097389
 21
0.568258138966009
 31
0.0
  0
LINE
  8
4
  6
CONTINUOUS
 62
4
 10
0.246062992097389
 20
0.568258138966009
 30
0.0
 11
0.184547244061914
 21
0.674806540019019
 31
0.0
  0
LINE
  8
5
  6
CONTINUOUS
 62
5
 10
-1.90698818896501
 20
-1.02996787687004
 30
0.0
 11
-1.78395669290274
 21
-1.02996787687004
 31
0.0
  0
LINE
  8
5
  6
CONTINUOUS
 62
5
 10
-1.84547244093388
 20
-1.13651627792556
 30
0.0
 11
-1.90698818896501
 21
-1.02996787687004
 31
0.0
  0
LINE
  8
5
  6
CONTINUOUS
 62
5
 10
-1.78395669290274
 20
-1.02996787687004
 30
0.0
 11
-1.84547244093388
 21
-1.13651627792556
 31
0.0
  0
LINE
  8
5
  6
CONTINUOUS
 62
5
 10
-1.59940944880837
 20
-1.13651627792472
 30
0.0
 11
-1.66092519684022
 21
-1.02996787686961
 31
0.0
  0
LINE
  8
5
  6
CONTINUOUS
 62
5
 10
-1.53789370077796
 20
-1.02996787686878
 30
0.0
 11
-1.59940944880837
 21
-1.13651627792472
 31
0.0
  0
LINE
  8
5
  6
CONTINUOUS
 62
5
 10
-1.66092519684022
 20
-1.02996787686961
 30
0.0
 11
-1.53789370077796
 21
-1.02996787686878
 31
0.0
  0
LINE
  8
5
  6
CONTINUOUS
 62
5
 10
-1.66092519684289
 20
-0.816871074758132
 30
0.0
 11
-1.72244094487257
 21
-0.923419475814492
 31
0.0
  0
LINE
  8
5
  6
CONTINUOUS
 62
5
 10
-1.78395669290515
 20
-0.816871074759807
 30
0.0
 11
-1.66092519684289
 21
-0.816871074758132
 31
0.0
  0
LINE
  8
5
  6
CONTINUOUS
 62
5
 10
-1.72244094487257
 20
-0.923419475814492
 30
0.0
 11
-1.78395669290515
 21
-0.816871074759807
 31
0.0
  0
LINE
  8
5
  6
CONTINUOUS
 62
5
 10
-1.1072834645584
 20
-1.13651627792302
 30
0.0
 11
-1.16879921259025
 21
-1.02996787686792
 31
0.0
  0
LINE
  8
5
  6
CONTINUOUS
 62
5
 10
-1.04576771652799
 20
-1.02996787686708
 30
0.0
 11
-1.1072834645584
 21
-1.13651627792302
 31
0.0
  0
LINE
  8
5
  6
CONTINUOUS
 62
5
 10
-1.16879921259025
 20
-1.02996787686792
 30
0.0
 11
-1.04576771652799
 21
-1.02996787686708
 31
0.0
  0
LINE
  8
5
  6
CONTINUOUS
 62
5
 10
-1.16879921259292
 20
-0.816871074756435
 30
0.0
 11
-1.2303149606226
 21
-0.923419475812795
 31
0.0
  0
LINE
  8
5
  6
CONTINUOUS
 62
5
 10
-1.29183070865518
 20
-0.816871074758108
 30
0.0
 11
-1.16879921259292
 21
-0.816871074756435
 31
0.0
  0
LINE
  8
5
  6
CONTINUOUS
 62
5
 10
-1.2303149606226
 20
-0.923419475812795
 30
0.0
 11
-1.29183070865518
 21
-0.816871074758108
 31
0.0
  0
LINE
  8
5
  6
CONTINUOUS
 62
5
 10
-1.41486220471431
 20
-1.02996787687211
 30
0.0
 11
-1.29183070865205
 21
-1.02996787686959
 31
0.0
  0
LINE
  8
5
  6
CONTINUOUS
 62
5
 10
-1.35334645668101
 20
-1.13651627792637
 30
0.0
 11
-1.41486220471431
 21
-1.02996787687211
 31
0.0
  0
LINE
  8
5
  6
CONTINUOUS
 62
5
 10
-1.29183070865205
 20
-1.02996787686959
 30
0.0
 11
-1.35334645668101
 21
-1.13651627792637
 31
0.0
  0
LINE
  8
5
  6
CONTINUOUS
 62
5
 10
-1.41486220472228
 20
-0.390677470536065
 30
0.0
 11
-1.47637795275196
 21
-0.497225871592425
 31
0.0
  0
LINE
  8
5
  6
CONTINUOUS
 62
5
 10
-1.53789370078454
 20
-0.390677470537741
 30
0.0
 11
-1.41486220472228
 21
-0.390677470536065
 31
0.0
  0
LINE
  8
5
  6
CONTINUOUS
 62
5
 10
-1.47637795275196
 20
-0.497225871592425
 30
0.0
 11
-1.53789370078454
 21
-0.390677470537741
 31
0.0
  0
LINE
  8
5
  6
CONTINUOUS
 62
5
 10
-1.66092519684367
 20
-0.603774272651735
 30
0.0
 11
-1.53789370078141
 21
-0.603774272649223
 31
0.0
  0
LINE
  8
5
  6
CONTINUOUS
 62
5
 10
-1.59940944881036
 20
-0.710322673706002
 30
0.0
 11
-1.66092519684367
 21
-0.603774272651735
 31
0.0
  0
LINE
  8
5
  6
CONTINUOUS
 62
5
 10
-1.53789370078141
 20
-0.603774272649223
 30
0.0
 11
-1.59940944881036
 21
-0.710322673706002
 31
0.0
  0
LINE
  8
5
  6
CONTINUOUS
 62
5
 10
-1.35334645668485
 20
-0.71032267370014
 30
0.0
 11
-1.41486220471888
 21
-0.603774272646294
 31
0.0
  0
LINE
  8
5
  6
CONTINUOUS
 62
5
 10
-1.29183070865662
 20
-0.603774272642945
 30
0.0
 11
-1.35334645668485
 21
-0.71032267370014
 31
0.0
  0
LINE
  8
5
  6
CONTINUOUS
 62
5
 10
-1.41486220471888
 20
-0.603774272646294
 30
0.0
 11
-1.29183070865662
 21
-0.603774272642945
 31
0.0
  0
LINE
  8
5
  6
CONTINUOUS
 62
5
 10
-0.123031496058399
 20
-1.13651627791967
 30
0.0
 11
-0.184547244090254
 21
-1.02996787686456
 31
0.0
  0
LINE
  8
5
  6
CONTINUOUS
 62
5
 10
-0.0615157480279933
 20
-1.02996787686373
 30
0.0
 11
-0.123031496058399
 21
-1.13651627791967
 31
0.0
  0
LINE
  8
5
  6
CONTINUOUS
 62
5
 10
-0.184547244090254
 20
-1.02996787686456
 30
0.0
 11
-0.0615157480279933
 21
-1.02996787686373
 31
0.0
  0
LINE
  8
5
  6
CONTINUOUS
 62
5
 10
-0.184547244092922
 20
-0.816871074753081
 30
0.0
 11
-0.246062992122603
 21
-0.923419475809441
 31
0.0
  0
LINE
  8
5
  6
CONTINUOUS
 62
5
 10
-0.307578740155183
 20
-0.816871074754755
 30
0.0
 11
-0.184547244092922
 21
-0.816871074753081
 31
0.0
  0
LINE
  8
5
  6
CONTINUOUS
 62
5
 10
-0.246062992122603
 20
-0.923419475809441
 30
0.0
 11
-0.307578740155183
 21
-0.816871074754755
 31
0.0
  0
LINE
  8
5
  6
CONTINUOUS
 62
5
 10
-0.430610236214314
 20
-1.02996787686875
 30
0.0
 11
-0.307578740152053
 21
-1.02996787686624
 31
0.0
  0
LINE
  8
5
  6
CONTINUOUS
 62
5
 10
-0.369094488181009
 20
-1.13651627792302
 30
0.0
 11
-0.430610236214314
 21
-1.02996787686875
 31
0.0
  0
LINE
  8
5
  6
CONTINUOUS
 62
5
 10
-0.307578740152053
 20
-1.02996787686624
 30
0.0
 11
-0.369094488181009
 21
-1.13651627792302
 31
0.0
  0
LINE
  8
5
  6
CONTINUOUS
 62
5
 10
-0.430610236222279
 20
-0.390677470532713
 30
0.0
 11
-0.49212598425196
 21
-0.497225871589073
 31
0.0
  0
LINE
  8
5
  6
CONTINUOUS
 62
5
 10
-0.553641732284536
 20
-0.390677470534387
 30
0.0
 11
-0.430610236222279
 21
-0.390677470532713
 31
0.0
  0
LINE
  8
5
  6
CONTINUOUS
 62
5
 10
-0.49212598425196
 20
-0.497225871589073
 30
0.0
 11
-0.553641732284536
 21
-0.390677470534387
 31
0.0
  0
LINE
  8
5
  6
CONTINUOUS
 62
5
 10
-0.676673228343667
 20
-0.60377427264838
 30
0.0
 11
-0.553641732281406
 21
-0.603774272645869
 31
0.0
  0
LINE
  8
5
  6
CONTINUOUS
 62
5
 10
-0.615157480310362
 20
-0.710322673702648
 30
0.0
 11
-0.676673228343667
 21
-0.60377427264838
 31
0.0
  0
LINE
  8
5
  6
CONTINUOUS
 62
5
 10
-0.553641732281406
 20
-0.603774272645869
 30
0.0
 11
-0.615157480310362
 21
-0.710322673702648
 31
0.0
  0
LINE
  8
5
  6
CONTINUOUS
 62
5
 10
-0.369094488184849
 20
-0.710322673696787
 30
0.0
 11
-0.430610236218882
 21
-0.60377427264294
 31
0.0
  0
LINE
  8
5
  6
CONTINUOUS
 62
5
 10
-0.307578740156622
 20
-0.603774272639592
 30
0.0
 11
-0.369094488184849
 21
-0.710322673696787
 31
0.0
  0
LINE
  8
5
  6
CONTINUOUS
 62
5
 10
-0.430610236218882
 20
-0.60377427264294
 30
0.0
 11
-0.307578740156622
 21
-0.603774272639592
 31
0.0
  0
LINE
  8
5
  6
CONTINUOUS
 62
5
 10
-0.922736220461381
 20
-1.02996787687547
 30
0.0
 11
-0.79970472439912
 21
-1.02996787687296
 31
0.0
  0
LINE
  8
5
  6
CONTINUOUS
 62
5
 10
-0.861220472428077
 20
-1.13651627792974
 30
0.0
 11
-0.922736220461381
 21
-1.02996787687547
 31
0.0
  0
LINE
  8
5
  6
CONTINUOUS
 62
5
 10
-0.79970472439912
 20
-1.02996787687296
 30
0.0
 11
-0.861220472428077
 21
-1.13651627792974
 31
0.0
  0
LINE
  8
5
  6
CONTINUOUS
 62
5
 10
-0.615157480302564
 20
-1.13651627792388
 30
0.0
 11
-0.676673228336597
 21
-1.02996787687003
 31
0.0
  0
LINE
  8
5
  6
CONTINUOUS
 62
5
 10
-0.553641732274336
 20
-1.02996787686668
 30
0.0
 11
-0.615157480302564
 21
-1.13651627792388
 31
0.0
  0
LINE
  8
5
  6
CONTINUOUS
 62
5
 10
-0.676673228336597
 20
-1.02996787687003
 30
0.0
 11
-0.553641732274336
 21
-1.02996787686668
 31
0.0
  0
LINE
  8
5
  6
CONTINUOUS
 62
5
 10
-0.676673228343617
 20
-0.816871074758545
 30
0.0
 11
-0.73818897637112
 21
-0.923419475816161
 31
0.0
  0
LINE
  8
5
  6
CONTINUOUS
 62
5
 10
-0.799704724405874
 20
-0.816871074762731
 30
0.0
 11
-0.676673228343617
 21
-0.816871074758545
 31
0.0
  0
LINE
  8
5
  6
CONTINUOUS
 62
5
 10
-0.73818897637112
 20
-0.923419475816161
 30
0.0
 11
-0.799704724405874
 21
-0.816871074762731
 31
0.0
  0
LINE
  8
5
  6
CONTINUOUS
 62
5
 10
-0.922736220480982
 20
0.461709737908104
 30
0.0
 11
-0.984251968510662
 21
0.355161336851744
 31
0.0
  0
LINE
  8
5
  6
CONTINUOUS
 62
5
 10
-1.04576771654324
 20
0.461709737906429
 30
0.0
 11
-0.922736220480982
 21
0.461709737908104
 31
0.0
  0
LINE
  8
5
  6
CONTINUOUS
 62
5
 10
-0.984251968510662
 20
0.355161336851744
 30
0.0
 11
-1.04576771654324
 21
0.461709737906429
 31
0.0
  0
LINE
  8
5
  6
CONTINUOUS
 62
5
 10
-1.16879921260237
 20
0.248612935792435
 30
0.0
 11
-1.04576771654011
 21
0.248612935794946
 31
0.0
  0
LINE
  8
5
  6
CONTINUOUS
 62
5
 10
-1.10728346456907
 20
0.142064534738168
 30
0.0
 11
-1.16879921260237
 21
0.248612935792435
 31
0.0
  0
LINE
  8
5
  6
CONTINUOUS
 62
5
 10
-1.04576771654011
 20
0.248612935794946
 30
0.0
 11
-1.10728346456907
 21
0.142064534738168
 31
0.0
  0
LINE
  8
5
  6
CONTINUOUS
 62
5
 10
-0.861220472443556
 20
0.14206453474403
 30
0.0
 11
-0.922736220477589
 21
0.248612935797876
 31
0.0
  0
LINE
  8
5
  6
CONTINUOUS
 62
5
 10
-0.799704724415328
 20
0.248612935801224
 30
0.0
 11
-0.861220472443556
 21
0.14206453474403
 31
0.0
  0
LINE
  8
5
  6
CONTINUOUS
 62
5
 10
-0.922736220477589
 20
0.248612935797876
 30
0.0
 11
-0.799704724415328
 21
0.248612935801224
 31
0.0
  0
LINE
  8
5
  6
CONTINUOUS
 62
5
 10
-1.41486220472008
 20
-0.177580668434655
 30
0.0
 11
-1.29183070865782
 21
-0.177580668432143
 31
0.0
  0
LINE
  8
5
  6
CONTINUOUS
 62
5
 10
-1.35334645668678
 20
-0.284129069488922
 30
0.0
 11
-1.41486220472008
 21
-0.177580668434655
 31
0.0
  0
LINE
  8
5
  6
CONTINUOUS
 62
5
 10
-1.29183070865782
 20
-0.177580668432143
 30
0.0
 11
-1.35334645668678
 21
-0.284129069488922
 31
0.0
  0
LINE
  8
5
  6
CONTINUOUS
 62
5
 10
-1.10728346456127
 20
-0.284129069483062
 30
0.0
 11
-1.1687992125953
 21
-0.177580668429213
 31
0.0
  0
LINE
  8
5
  6
CONTINUOUS
 62
5
 10
-1.04576771653304
 20
-0.177580668425865
 30
0.0
 11
-1.10728346456127
 21
-0.284129069483062
 31
0.0
  0
LINE
  8
5
  6
CONTINUOUS
 62
5
 10
-1.1687992125953
 20
-0.177580668429213
 30
0.0
 11
-1.04576771653304
 21
-0.177580668425865
 31
0.0
  0
LINE
  8
5
  6
CONTINUOUS
 62
5
 10
-1.16879921260232
 20
0.0355161336822714
 30
0.0
 11
-1.23031496062982
 21
-0.0710322673753458
 31
0.0
  0
LINE
  8
5
  6
CONTINUOUS
 62
5
 10
-1.29183070866458
 20
0.0355161336780844
 30
0.0
 11
-1.16879921260232
 21
0.0355161336822714
 31
0.0
  0
LINE
  8
5
  6
CONTINUOUS
 62
5
 10
-1.23031496062982
 20
-0.0710322673753458
 30
0.0
 11
-1.29183070866458
 21
0.0355161336780844
 31
0.0
  0
LINE
  8
5
  6
CONTINUOUS
 62
5
 10
-0.6151574803113
 20
-0.284129069471316
 30
0.0
 11
-0.676673228345333
 21
-0.177580668417467
 31
0.0
  0
LINE
  8
5
  6
CONTINUOUS
 62
5
 10
-0.553641732283076
 20
-0.177580668414121
 30
0.0
 11
-0.6151574803113
 21
-0.284129069471316
 31
0.0
  0
LINE
  8
5
  6
CONTINUOUS
 62
5
 10
-0.676673228345333
 20
-0.177580668417467
 30
0.0
 11
-0.553641732283076
 21
-0.177580668414121
 31
0.0
  0
LINE
  8
5
  6
CONTINUOUS
 62
5
 10
-0.676673228352353
 20
0.0355161336940135
 30
0.0
 11
-0.73818897637986
 21
-0.0710322673636022
 31
0.0
  0
LINE
  8
5
  6
CONTINUOUS
 62
5
 10
-0.799704724414614
 20
0.0355161336898283
 30
0.0
 11
-0.676673228352353
 21
0.0355161336940135
 31
0.0
  0
LINE
  8
5
  6
CONTINUOUS
 62
5
 10
-0.73818897637986
 20
-0.0710322673636022
 30
0.0
 11
-0.799704724414614
 21
0.0355161336898283
 31
0.0
  0
LINE
  8
5
  6
CONTINUOUS
 62
5
 10
-0.922736220469393
 20
-0.177580668426681
 30
0.0
 11
-0.799704724407132
 21
-0.177580668421655
 31
0.0
  0
LINE
  8
5
  6
CONTINUOUS
 62
5
 10
-0.861220472433914
 20
-0.284129069479689
 30
0.0
 11
-0.922736220469393
 21
-0.177580668426681
 31
0.0
  0
LINE
  8
5
  6
CONTINUOUS
 62
5
 10
-0.799704724407132
 20
-0.177580668421655
 30
0.0
 11
-0.861220472433914
 21
-0.284129069479689
 31
0.0
  0
LINE
  8
5
  6
CONTINUOUS
 62
5
 10
1.84547244094161
 20
-1.13651627791296
 30
0.0
 11
1.78395669290975
 21
-1.02996787685785
 31
0.0
  0
LINE
  8
5
  6
CONTINUOUS
 62
5
 10
1.90698818897201
 20
-1.02996787685701
 30
0.0
 11
1.84547244094161
 21
-1.13651627791296
 31
0.0
  0
LINE
  8
5
  6
CONTINUOUS
 62
5
 10
1.78395669290975
 20
-1.02996787685785
 30
0.0
 11
1.90698818897201
 21
-1.02996787685701
 31
0.0
  0
LINE
  8
5
  6
CONTINUOUS
 62
5
 10
1.78395669290708
 20
-0.816871074746369
 30
0.0
 11
1.7224409448774
 21
-0.923419475802729
 31
0.0
  0
LINE
  8
5
  6
CONTINUOUS
 62
5
 10
1.66092519684482
 20
-0.816871074748043
 30
0.0
 11
1.78395669290708
 21
-0.816871074746369
 31
0.0
  0
LINE
  8
5
  6
CONTINUOUS
 62
5
 10
1.7224409448774
 20
-0.923419475802729
 30
0.0
 11
1.66092519684482
 21
-0.816871074748043
 31
0.0
  0
LINE
  8
5
  6
CONTINUOUS
 62
5
 10
1.53789370078569
 20
-1.02996787686204
 30
0.0
 11
1.66092519684795
 21
-1.02996787685953
 31
0.0
  0
LINE
  8
5
  6
CONTINUOUS
 62
5
 10
1.599409448819
 20
-1.1365162779163
 30
0.0
 11
1.53789370078569
 21
-1.02996787686204
 31
0.0
  0
LINE
  8
5
  6
CONTINUOUS
 62
5
 10
1.66092519684795
 20
-1.02996787685953
 30
0.0
 11
1.599409448819
 21
-1.1365162779163
 31
0.0
  0
LINE
  8
5
  6
CONTINUOUS
 62
5
 10
1.53789370077773
 20
-0.390677470526001
 30
0.0
 11
1.47637795274805
 21
-0.497225871582361
 31
0.0
  0
LINE
  8
5
  6
CONTINUOUS
 62
5
 10
1.41486220471547
 20
-0.390677470527675
 30
0.0
 11
1.53789370077773
 21
-0.390677470526001
 31
0.0
  0
LINE
  8
5
  6
CONTINUOUS
 62
5
 10
1.47637795274805
 20
-0.497225871582361
 30
0.0
 11
1.41486220471547
 21
-0.390677470527675
 31
0.0
  0
LINE
  8
5
  6
CONTINUOUS
 62
5
 10
1.29183070865634
 20
-0.603774272641668
 30
0.0
 11
1.4148622047186
 21
-0.603774272639157
 31
0.0
  0
LINE
  8
5
  6
CONTINUOUS
 62
5
 10
1.35334645668964
 20
-0.710322673695936
 30
0.0
 11
1.29183070865634
 21
-0.603774272641668
 31
0.0
  0
LINE
  8
5
  6
CONTINUOUS
 62
5
 10
1.4148622047186
 20
-0.603774272639157
 30
0.0
 11
1.35334645668964
 21
-0.710322673695936
 31
0.0
  0
LINE
  8
5
  6
CONTINUOUS
 62
5
 10
1.59940944881516
 20
-0.710322673690075
 30
0.0
 11
1.53789370078112
 21
-0.603774272636228
 31
0.0
  0
LINE
  8
5
  6
CONTINUOUS
 62
5
 10
1.66092519684338
 20
-0.60377427263288
 30
0.0
 11
1.59940944881516
 21
-0.710322673690075
 31
0.0
  0
LINE
  8
5
  6
CONTINUOUS
 62
5
 10
1.53789370078112
 20
-0.603774272636228
 30
0.0
 11
1.66092519684338
 21
-0.60377427263288
 31
0.0
  0
LINE
  8
5
  6
CONTINUOUS
 62
5
 10
1.04576771653862
 20
-1.02996787686876
 30
0.0
 11
1.16879921260088
 21
-1.02996787686625
 31
0.0
  0
LINE
  8
5
  6
CONTINUOUS
 62
5
 10
1.10728346457193
 20
-1.13651627792302
 30
0.0
 11
1.04576771653862
 21
-1.02996787686876
 31
0.0
  0
LINE
  8
5
  6
CONTINUOUS
 62
5
 10
1.16879921260088
 20
-1.02996787686625
 30
0.0
 11
1.10728346457193
 21
-1.13651627792302
 31
0.0
  0
LINE
  8
5
  6
CONTINUOUS
 62
5
 10
1.35334645669744
 20
-1.13651627791717
 30
0.0
 11
1.29183070866341
 21
-1.02996787686332
 31
0.0
  0
LINE
  8
5
  6
CONTINUOUS
 62
5
 10
1.41486220472567
 20
-1.02996787685997
 30
0.0
 11
1.35334645669744
 21
-1.13651627791717
 31
0.0
  0
LINE
  8
5
  6
CONTINUOUS
 62
5
 10
1.29183070866341
 20
-1.02996787686332
 30
0.0
 11
1.41486220472567
 21
-1.02996787685997
 31
0.0
  0
LINE
  8
5
  6
CONTINUOUS
 62
5
 10
1.29183070865639
 20
-0.816871074751832
 30
0.0
 11
1.23031496062888
 21
-0.923419475809449
 31
0.0
  0
LINE
  8
5
  6
CONTINUOUS
 62
5
 10
1.16879921259413
 20
-0.816871074756019
 30
0.0
 11
1.29183070865639
 21
-0.816871074751832
 31
0.0
  0
LINE
  8
5
  6
CONTINUOUS
 62
5
 10
1.23031496062888
 20
-0.923419475809449
 30
0.0
 11
1.16879921259413
 21
-0.816871074756019
 31
0.0
  0
LINE
  8
5
  6
CONTINUOUS
 62
5
 10
1.04576771651902
 20
0.461709737914815
 30
0.0
 11
0.984251968489342
 21
0.355161336858455
 31
0.0
  0
LINE
  8
5
  6
CONTINUOUS
 62
5
 10
0.922736220456763
 20
0.461709737913142
 30
0.0
 11
1.04576771651902
 21
0.461709737914815
 31
0.0
  0
LINE
  8
5
  6
CONTINUOUS
 62
5
 10
0.984251968489342
 20
0.355161336858455
 30
0.0
 11
0.922736220456763
 21
0.461709737913142
 31
0.0
  0
LINE
  8
5
  6
CONTINUOUS
 62
5
 10
0.799704724397632
 20
0.248612935799148
 30
0.0
 11
0.922736220459893
 21
0.248612935801659
 31
0.0
  0
LINE
  8
5
  6
CONTINUOUS
 62
5
 10
0.861220472430936
 20
0.142064534744881
 30
0.0
 11
0.799704724397632
 21
0.248612935799148
 31
0.0
  0
LINE
  8
5
  6
CONTINUOUS
 62
5
 10
0.922736220459893
 20
0.248612935801659
 30
0.0
 11
0.861220472430936
 21
0.142064534744881
 31
0.0
  0
LINE
  8
5
  6
CONTINUOUS
 62
5
 10
1.10728346455645
 20
0.142064534750741
 30
0.0
 11
1.04576771652242
 21
0.248612935804588
 31
0.0
  0
LINE
  8
5
  6
CONTINUOUS
 62
5
 10
1.16879921258468
 20
0.248612935807936
 30
0.0
 11
1.10728346455645
 21
0.142064534750741
 31
0.0
  0
LINE
  8
5
  6
CONTINUOUS
 62
5
 10
1.04576771652242
 20
0.248612935804588
 30
0.0
 11
1.16879921258468
 21
0.248612935807936
 31
0.0
  0
LINE
  8
5
  6
CONTINUOUS
 62
5
 10
0.553641732279921
 20
-0.177580668427944
 30
0.0
 11
0.676673228342182
 21
-0.177580668425433
 31
0.0
  0
LINE
  8
5
  6
CONTINUOUS
 62
5
 10
0.615157480313226
 20
-0.284129069482208
 30
0.0
 11
0.553641732279921
 21
-0.177580668427944
 31
0.0
  0
LINE
  8
5
  6
CONTINUOUS
 62
5
 10
0.676673228342182
 20
-0.177580668425433
 30
0.0
 11
0.615157480313226
 21
-0.284129069482208
 31
0.0
  0
LINE
  8
5
  6
CONTINUOUS
 62
5
 10
0.861220472438735
 20
-0.284129069476349
 30
0.0
 11
0.799704724404702
 21
-0.1775806684225
 31
0.0
  0
LINE
  8
5
  6
CONTINUOUS
 62
5
 10
0.922736220466962
 20
-0.177580668419153
 30
0.0
 11
0.861220472438735
 21
-0.284129069476349
 31
0.0
  0
LINE
  8
5
  6
CONTINUOUS
 62
5
 10
0.799704724404702
 20
-0.1775806684225
 30
0.0
 11
0.922736220466962
 21
-0.177580668419153
 31
0.0
  0
LINE
  8
5
  6
CONTINUOUS
 62
5
 10
0.799704724397682
 20
0.0355161336889842
 30
0.0
 11
0.738188976370179
 21
-0.0710322673686333
 31
0.0
  0
LINE
  8
5
  6
CONTINUOUS
 62
5
 10
0.676673228335424
 20
0.0355161336847973
 30
0.0
 11
0.799704724397682
 21
0.0355161336889842
 31
0.0
  0
LINE
  8
5
  6
CONTINUOUS
 62
5
 10
0.738188976370179
 20
-0.0710322673686333
 30
0.0
 11
0.676673228335424
 21
0.0355161336847973
 31
0.0
  0
LINE
  8
5
  6
CONTINUOUS
 62
5
 10
1.3533464566887
 20
-0.284129069464605
 30
0.0
 11
1.29183070865467
 21
-0.177580668410756
 31
0.0
  0
LINE
  8
5
  6
CONTINUOUS
 62
5
 10
1.41486220471693
 20
-0.17758066840741
 30
0.0
 11
1.3533464566887
 21
-0.284129069464605
 31
0.0
  0
LINE
  8
5
  6
CONTINUOUS
 62
5
 10
1.29183070865467
 20
-0.177580668410756
 30
0.0
 11
1.41486220471693
 21
-0.17758066840741
 31
0.0
  0
LINE
  8
5
  6
CONTINUOUS
 62
5
 10
1.29183070864765
 20
0.035516133700727
 30
0.0
 11
1.23031496062015
 21
-0.0710322673568909
 31
0.0
  0
LINE
  8
5
  6
CONTINUOUS
 62
5
 10
1.16879921258539
 20
0.0355161336965395
 30
0.0
 11
1.29183070864765
 21
0.035516133700727
 31
0.0
  0
LINE
  8
5
  6
CONTINUOUS
 62
5
 10
1.23031496062015
 20
-0.0710322673568909
 30
0.0
 11
1.16879921258539
 21
0.0355161336965395
 31
0.0
  0
LINE
  8
5
  6
CONTINUOUS
 62
5
 10
1.04576771653061
 20
-0.177580668419968
 30
0.0
 11
1.16879921259287
 21
-0.177580668414943
 31
0.0
  0
LINE
  8
5
  6
CONTINUOUS
 62
5
 10
1.10728346456609
 20
-0.284129069472976
 30
0.0
 11
1.04576771653061
 21
-0.177580668419968
 31
0.0
  0
LINE
  8
5
  6
CONTINUOUS
 62
5
 10
1.16879921259287
 20
-0.177580668414943
 30
0.0
 11
1.10728346456609
 21
-0.284129069472976
 31
0.0
  0
LINE
  8
5
  6
CONTINUOUS
 62
5
 10
0.0615157480444246
 20
-1.02996787688216
 30
0.0
 11
0.184547244106685
 21
-1.02996787687965
 31
0.0
  0
LINE
  8
5
  6
CONTINUOUS
 62
5
 10
0.123031496077729
 20
-1.13651627793643
 30
0.0
 11
0.0615157480444246
 21
-1.02996787688216
 31
0.0
  0
LINE
  8
5
  6
CONTINUOUS
 62
5
 10
0.184547244106685
 20
-1.02996787687965
 30
0.0
 11
0.123031496077729
 21
-1.13651627793643
 31
0.0
  0
LINE
  8
5
  6
CONTINUOUS
 62
5
 10
0.369094488203238
 20
-1.13651627793057
 30
0.0
 11
0.307578740169209
 21
-1.02996787687672
 31
0.0
  0
LINE
  8
5
  6
CONTINUOUS
 62
5
 10
0.43061023623147
 20
-1.02996787687337
 30
0.0
 11
0.369094488203238
 21
-1.13651627793057
 31
0.0
  0
LINE
  8
5
  6
CONTINUOUS
 62
5
 10
0.307578740169209
 20
-1.02996787687672
 30
0.0
 11
0.43061023623147
 21
-1.02996787687337
 31
0.0
  0
LINE
  8
5
  6
CONTINUOUS
 62
5
 10
0.307578740162185
 20
-0.816871074765233
 30
0.0
 11
0.246062992134686
 21
-0.92341947582285
 31
0.0
  0
LINE
  8
5
  6
CONTINUOUS
 62
5
 10
0.184547244099928
 20
-0.81687107476942
 30
0.0
 11
0.307578740162185
 21
-0.816871074765233
 31
0.0
  0
LINE
  8
5
  6
CONTINUOUS
 62
5
 10
0.246062992134686
 20
-0.92341947582285
 30
0.0
 11
0.184547244099928
 21
-0.81687107476942
 31
0.0
  0
LINE
  8
5
  6
CONTINUOUS
 62
5
 10
0.861220472453205
 20
-1.13651627791882
 30
0.0
 11
0.799704724419176
 21
-1.02996787686497
 31
0.0
  0
LINE
  8
5
  6
CONTINUOUS
 62
5
 10
0.922736220481436
 20
-1.02996787686162
 30
0.0
 11
0.861220472453205
 21
-1.13651627791882
 31
0.0
  0
LINE
  8
5
  6
CONTINUOUS
 62
5
 10
0.799704724419176
 20
-1.02996787686497
 30
0.0
 11
0.922736220481436
 21
-1.02996787686162
 31
0.0
  0
LINE
  8
5
  6
CONTINUOUS
 62
5
 10
0.799704724412155
 20
-0.81687107475349
 30
0.0
 11
0.738188976384649
 21
-0.923419475811105
 31
0.0
  0
LINE
  8
5
  6
CONTINUOUS
 62
5
 10
0.676673228349895
 20
-0.816871074757674
 30
0.0
 11
0.799704724412155
 21
-0.81687107475349
 31
0.0
  0
LINE
  8
5
  6
CONTINUOUS
 62
5
 10
0.738188976384649
 20
-0.923419475811105
 30
0.0
 11
0.676673228349895
 21
-0.816871074757674
 31
0.0
  0
LINE
  8
5
  6
CONTINUOUS
 62
5
 10
0.553641732295116
 20
-1.02996787687419
 30
0.0
 11
0.676673228357377
 21
-1.02996787686916
 31
0.0
  0
LINE
  8
5
  6
CONTINUOUS
 62
5
 10
0.615157480330595
 20
-1.13651627792719
 30
0.0
 11
0.553641732295116
 21
-1.02996787687419
 31
0.0
  0
LINE
  8
5
  6
CONTINUOUS
 62
5
 10
0.676673228357377
 20
-1.02996787686916
 30
0.0
 11
0.615157480330595
 21
-1.13651627792719
 31
0.0
  0
LINE
  8
5
  6
CONTINUOUS
 62
5
 10
0.553641732274098
 20
-0.390677470538142
 30
0.0
 11
0.492125984246595
 21
-0.497225871595761
 31
0.0
  0
LINE
  8
5
  6
CONTINUOUS
 62
5
 10
0.430610236211844
 20
-0.390677470542332
 30
0.0
 11
0.553641732274098
 21
-0.390677470538142
 31
0.0
  0
LINE
  8
5
  6
CONTINUOUS
 62
5
 10
0.492125984246595
 20
-0.497225871595761
 30
0.0
 11
0.430610236211844
 21
-0.390677470542332
 31
0.0
  0
LINE
  8
5
  6
CONTINUOUS
 62
5
 10
0.307578740157062
 20
-0.603774272658836
 30
0.0
 11
0.430610236219323
 21
-0.603774272653814
 31
0.0
  0
LINE
  8
5
  6
CONTINUOUS
 62
5
 10
0.369094488192541
 20
-0.710322673711848
 30
0.0
 11
0.307578740157062
 21
-0.603774272658836
 31
0.0
  0
LINE
  8
5
  6
CONTINUOUS
 62
5
 10
0.430610236219323
 20
-0.603774272653814
 30
0.0
 11
0.369094488192541
 21
-0.710322673711848
 31
0.0
  0
LINE
  8
5
  6
CONTINUOUS
 62
5
 10
0.615157480318054
 20
-0.710322673700962
 30
0.0
 11
0.553641732281847
 21
-0.603774272648371
 31
0.0
  0
LINE
  8
5
  6
CONTINUOUS
 62
5
 10
0.676673228344107
 20
-0.603774272642512
 30
0.0
 11
0.615157480318054
 21
-0.710322673700962
 31
0.0
  0
LINE
  8
5
  6
CONTINUOUS
 62
5
 10
0.553641732281847
 20
-0.603774272648371
 30
0.0
 11
0.676673228344107
 21
-0.603774272642512
 31
0.0
  0
LINE
  8
5
  6
CONTINUOUS
 62
5
 10
0.0615157480016073
 20
2.16648415479645
 30
0.0
 11
-2.80735434898816E-11
 21
2.05993575374009
 31
0.0
  0
LINE
  8
5
  6
CONTINUOUS
 62
5
 10
-0.0615157480606534
 20
2.16648415479477
 30
0.0
 11
0.0615157480016073
 21
2.16648415479645
 31
0.0
  0
LINE
  8
5
  6
CONTINUOUS
 62
5
 10
-2.80735434898816E-11
 20
2.05993575374009
 30
0.0
 11
-0.0615157480606534
 21
2.16648415479477
 31
0.0
  0
LINE
  8
5
  6
CONTINUOUS
 62
5
 10
-0.184547244119781
 20
1.95338735268078
 30
0.0
 11
-0.0615157480575235
 21
1.95338735268329
 31
0.0
  0
LINE
  8
5
  6
CONTINUOUS
 62
5
 10
-0.12303149608648
 20
1.84683895162651
 30
0.0
 11
-0.184547244119781
 21
1.95338735268078
 31
0.0
  0
LINE
  8
5
  6
CONTINUOUS
 62
5
 10
-0.0615157480575235
 20
1.95338735268329
 30
0.0
 11
-0.12303149608648
 21
1.84683895162651
 31
0.0
  0
LINE
  8
5
  6
CONTINUOUS
 62
5
 10
0.123031496039033
 20
1.84683895163237
 30
0.0
 11
0.0615157480050002
 21
1.95338735268622
 31
0.0
  0
LINE
  8
5
  6
CONTINUOUS
 62
5
 10
0.184547244067261
 20
1.95338735268957
 30
0.0
 11
0.123031496039033
 21
1.84683895163237
 31
0.0
  0
LINE
  8
5
  6
CONTINUOUS
 62
5
 10
0.0615157480050002
 20
1.95338735268622
 30
0.0
 11
0.184547244067261
 21
1.95338735268957
 31
0.0
  0
LINE
  8
5
  6
CONTINUOUS
 62
5
 10
-0.430610236237495
 20
1.52719374845369
 30
0.0
 11
-0.307578740175234
 21
1.5271937484562
 31
0.0
  0
LINE
  8
5
  6
CONTINUOUS
 62
5
 10
-0.36909448820419
 20
1.42064534739942
 30
0.0
 11
-0.430610236237495
 21
1.52719374845369
 31
0.0
  0
LINE
  8
5
  6
CONTINUOUS
 62
5
 10
-0.307578740175234
 20
1.5271937484562
 30
0.0
 11
-0.36909448820419
 21
1.42064534739942
 31
0.0
  0
LINE
  8
5
  6
CONTINUOUS
 62
5
 10
-0.123031496078681
 20
1.42064534740528
 30
0.0
 11
-0.184547244112711
 21
1.52719374845913
 31
0.0
  0
LINE
  8
5
  6
CONTINUOUS
 62
5
 10
-0.06151574805045
 20
1.52719374846248
 30
0.0
 11
-0.123031496078681
 21
1.42064534740528
 31
0.0
  0
LINE
  8
5
  6
CONTINUOUS
 62
5
 10
-0.184547244112711
 20
1.52719374845913
 30
0.0
 11
-0.06151574805045
 21
1.52719374846248
 31
0.0
  0
LINE
  8
5
  6
CONTINUOUS
 62
5
 10
-0.184547244119731
 20
1.74029055057062
 30
0.0
 11
-0.246062992147234
 21
1.633742149513
 31
0.0
  0
LINE
  8
5
  6
CONTINUOUS
 62
5
 10
-0.307578740181988
 20
1.74029055056643
 30
0.0
 11
-0.184547244119731
 21
1.74029055057062
 31
0.0
  0
LINE
  8
5
  6
CONTINUOUS
 62
5
 10
-0.246062992147234
 20
1.633742149513
 30
0.0
 11
-0.307578740181988
 21
1.74029055056643
 31
0.0
  0
LINE
  8
5
  6
CONTINUOUS
 62
5
 10
0.369094488171289
 20
1.42064534741703
 30
0.0
 11
0.307578740137256
 21
1.52719374847088
 31
0.0
  0
LINE
  8
5
  6
CONTINUOUS
 62
5
 10
0.430610236199517
 20
1.52719374847422
 30
0.0
 11
0.369094488171289
 21
1.42064534741703
 31
0.0
  0
LINE
  8
5
  6
CONTINUOUS
 62
5
 10
0.307578740137256
 20
1.52719374847088
 30
0.0
 11
0.430610236199517
 21
1.52719374847422
 31
0.0
  0
LINE
  8
5
  6
CONTINUOUS
 62
5
 10
0.307578740130236
 20
1.74029055058236
 30
0.0
 11
0.246062992102729
 21
1.63374214952474
 31
0.0
  0
LINE
  8
5
  6
CONTINUOUS
 62
5
 10
0.184547244067975
 20
1.74029055057817
 30
0.0
 11
0.307578740130236
 21
1.74029055058236
 31
0.0
  0
LINE
  8
5
  6
CONTINUOUS
 62
5
 10
0.246062992102729
 20
1.63374214952474
 30
0.0
 11
0.184547244067975
 21
1.74029055057817
 31
0.0
  0
LINE
  8
5
  6
CONTINUOUS
 62
5
 10
0.0615157480131963
 20
1.52719374846166
 30
0.0
 11
0.184547244075457
 21
1.52719374846669
 31
0.0
  0
LINE
  8
5
  6
CONTINUOUS
 62
5
 10
0.123031496048675
 20
1.42064534740866
 30
0.0
 11
0.0615157480131963
 21
1.52719374846166
 31
0.0
  0
LINE
  8
5
  6
CONTINUOUS
 62
5
 10
0.184547244075457
 20
1.52719374846669
 30
0.0
 11
0.123031496048675
 21
1.42064534740866
 31
0.0
  0
LINE
  8
5
  6
CONTINUOUS
 62
5
 10
-0.922736220472991
 20
0.674806539999474
 30
0.0
 11
-0.799704724410731
 21
0.674806540001985
 31
0.0
  0
LINE
  8
5
  6
CONTINUOUS
 62
5
 10
-0.861220472439687
 20
0.568258138945207
 30
0.0
 11
-0.922736220472991
 21
0.674806539999474
 31
0.0
  0
LINE
  8
5
  6
CONTINUOUS
 62
5
 10
-0.799704724410731
 20
0.674806540001985
 30
0.0
 11
-0.861220472439687
 21
0.568258138945207
 31
0.0
  0
LINE
  8
5
  6
CONTINUOUS
 62
5
 10
-0.615157480314178
 20
0.568258138951066
 30
0.0
 11
-0.676673228348207
 21
0.674806540004915
 31
0.0
  0
LINE
  8
5
  6
CONTINUOUS
 62
5
 10
-0.553641732285946
 20
0.674806540008263
 30
0.0
 11
-0.615157480314178
 21
0.568258138951066
 31
0.0
  0
LINE
  8
5
  6
CONTINUOUS
 62
5
 10
-0.676673228348207
 20
0.674806540004915
 30
0.0
 11
-0.553641732285946
 21
0.674806540008263
 31
0.0
  0
LINE
  8
5
  6
CONTINUOUS
 62
5
 10
-0.676673228355227
 20
0.8879033421164
 30
0.0
 11
-0.73818897638273
 21
0.781354941058783
 31
0.0
  0
LINE
  8
5
  6
CONTINUOUS
 62
5
 10
-0.799704724417484
 20
0.887903342112213
 30
0.0
 11
-0.676673228355227
 21
0.8879033421164
 31
0.0
  0
LINE
  8
5
  6
CONTINUOUS
 62
5
 10
-0.73818897638273
 20
0.781354941058783
 30
0.0
 11
-0.799704724417484
 21
0.887903342112213
 31
0.0
  0
LINE
  8
5
  6
CONTINUOUS
 62
5
 10
-0.123031496064211
 20
0.568258138962813
 30
0.0
 11
-0.184547244098241
 21
0.674806540016662
 31
0.0
  0
LINE
  8
5
  6
CONTINUOUS
 62
5
 10
-0.0615157480359798
 20
0.674806540020007
 30
0.0
 11
-0.123031496064211
 21
0.568258138962813
 31
0.0
  0
LINE
  8
5
  6
CONTINUOUS
 62
5
 10
-0.184547244098241
 20
0.674806540016662
 30
0.0
 11
-0.0615157480359798
 21
0.674806540020007
 31
0.0
  0
LINE
  8
5
  6
CONTINUOUS
 62
5
 10
-0.184547244105261
 20
0.887903342128141
 30
0.0
 11
-0.246062992132764
 21
0.781354941070526
 31
0.0
  0
LINE
  8
5
  6
CONTINUOUS
 62
5
 10
-0.307578740167521
 20
0.887903342123956
 30
0.0
 11
-0.184547244105261
 21
0.887903342128141
 31
0.0
  0
LINE
  8
5
  6
CONTINUOUS
 62
5
 10
-0.246062992132764
 20
0.781354941070526
 30
0.0
 11
-0.307578740167521
 21
0.887903342123956
 31
0.0
  0
LINE
  8
5
  6
CONTINUOUS
 62
5
 10
-0.4306102362223
 20
0.674806540007448
 30
0.0
 11
-0.307578740160039
 21
0.674806540012473
 31
0.0
  0
LINE
  8
5
  6
CONTINUOUS
 62
5
 10
-0.369094488186821
 20
0.56825813895444
 30
0.0
 11
-0.4306102362223
 21
0.674806540007448
 31
0.0
  0
LINE
  8
5
  6
CONTINUOUS
 62
5
 10
-0.307578740160039
 20
0.674806540012473
 30
0.0
 11
-0.369094488186821
 21
0.56825813895444
 31
0.0
  0
LINE
  8
5
  6
CONTINUOUS
 62
5
 10
-0.430610236243314
 20
1.31409694634349
 30
0.0
 11
-0.492125984270821
 21
1.20754854528587
 31
0.0
  0
LINE
  8
5
  6
CONTINUOUS
 62
5
 10
-0.553641732305572
 20
1.3140969463393
 30
0.0
 11
-0.430610236243314
 21
1.31409694634349
 31
0.0
  0
LINE
  8
5
  6
CONTINUOUS
 62
5
 10
-0.492125984270821
 20
1.20754854528587
 30
0.0
 11
-0.553641732305572
 21
1.3140969463393
 31
0.0
  0
LINE
  8
5
  6
CONTINUOUS
 62
5
 10
-0.676673228360354
 20
1.10100014422279
 30
0.0
 11
-0.553641732298093
 21
1.10100014422782
 31
0.0
  0
LINE
  8
5
  6
CONTINUOUS
 62
5
 10
-0.615157480324871
 20
0.994451743169786
 30
0.0
 11
-0.676673228360354
 21
1.10100014422279
 31
0.0
  0
LINE
  8
5
  6
CONTINUOUS
 62
5
 10
-0.553641732298093
 20
1.10100014422782
 30
0.0
 11
-0.615157480324871
 21
0.994451743169786
 31
0.0
  0
LINE
  8
5
  6
CONTINUOUS
 62
5
 10
-0.369094488199362
 20
0.994451743180669
 30
0.0
 11
-0.430610236235569
 21
1.10100014423326
 31
0.0
  0
LINE
  8
5
  6
CONTINUOUS
 62
5
 10
-0.307578740173309
 20
1.10100014423912
 30
0.0
 11
-0.369094488199362
 21
0.994451743180669
 31
0.0
  0
LINE
  8
5
  6
CONTINUOUS
 62
5
 10
-0.430610236235569
 20
1.10100014423326
 30
0.0
 11
-0.307578740173309
 21
1.10100014423912
 31
0.0
  0
LINE
  8
5
  6
CONTINUOUS
 62
5
 10
0.861220472435789
 20
0.568258138986256
 30
0.0
 11
0.79970472440176
 21
0.674806540040106
 31
0.0
  0
LINE
  8
5
  6
CONTINUOUS
 62
5
 10
0.922736220464021
 20
0.674806540043454
 30
0.0
 11
0.861220472435789
 21
0.568258138986256
 31
0.0
  0
LINE
  8
5
  6
CONTINUOUS
 62
5
 10
0.79970472440176
 20
0.674806540040106
 30
0.0
 11
0.922736220464021
 21
0.674806540043454
 31
0.0
  0
LINE
  8
5
  6
CONTINUOUS
 62
5
 10
0.79970472439474
 20
0.887903342151589
 30
0.0
 11
0.738188976367237
 21
0.781354941093974
 31
0.0
  0
LINE
  8
5
  6
CONTINUOUS
 62
5
 10
0.676673228332483
 20
0.887903342147404
 30
0.0
 11
0.79970472439474
 21
0.887903342151589
 31
0.0
  0
LINE
  8
5
  6
CONTINUOUS
 62
5
 10
0.738188976367237
 20
0.781354941093974
 30
0.0
 11
0.676673228332483
 21
0.887903342147404
 31
0.0
  0
LINE
  8
5
  6
CONTINUOUS
 62
5
 10
0.553641732277701
 20
0.674806540030894
 30
0.0
 11
0.676673228339961
 21
0.674806540035921
 31
0.0
  0
LINE
  8
5
  6
CONTINUOUS
 62
5
 10
0.615157480313179
 20
0.568258138977886
 30
0.0
 11
0.553641732277701
 21
0.674806540030894
 31
0.0
  0
LINE
  8
5
  6
CONTINUOUS
 62
5
 10
0.676673228339961
 20
0.674806540035921
 30
0.0
 11
0.615157480313179
 21
0.568258138977886
 31
0.0
  0
LINE
  8
5
  6
CONTINUOUS
 62
5
 10
0.553641732256686
 20
1.31409694636693
 30
0.0
 11
0.49212598422918
 21
1.20754854530932
 31
0.0
  0
LINE
  8
5
  6
CONTINUOUS
 62
5
 10
0.430610236194426
 20
1.31409694636275
 30
0.0
 11
0.553641732256686
 21
1.31409694636693
 31
0.0
  0
LINE
  8
5
  6
CONTINUOUS
 62
5
 10
0.49212598422918
 20
1.20754854530932
 30
0.0
 11
0.430610236194426
 21
1.31409694636275
 31
0.0
  0
LINE
  8
5
  6
CONTINUOUS
 62
5
 10
0.307578740139647
 20
1.10100014424624
 30
0.0
 11
0.430610236201908
 21
1.10100014425126
 31
0.0
  0
LINE
  8
5
  6
CONTINUOUS
 62
5
 10
0.369094488175126
 20
0.99445174319323
 30
0.0
 11
0.307578740139647
 21
1.10100014424624
 31
0.0
  0
LINE
  8
5
  6
CONTINUOUS
 62
5
 10
0.430610236201908
 20
1.10100014425126
 30
0.0
 11
0.369094488175126
 21
0.99445174319323
 31
0.0
  0
LINE
  8
5
  6
CONTINUOUS
 62
5
 10
0.615157480300638
 20
0.994451743204116
 30
0.0
 11
0.553641732264431
 21
1.1010001442567
 31
0.0
  0
LINE
  8
5
  6
CONTINUOUS
 62
5
 10
0.676673228326692
 20
1.10100014426257
 30
0.0
 11
0.615157480300638
 21
0.994451743204116
 31
0.0
  0
LINE
  8
5
  6
CONTINUOUS
 62
5
 10
0.553641732264431
 20
1.1010001442567
 30
0.0
 11
0.676673228326692
 21
1.10100014426257
 31
0.0
  0
LINE
  8
5
  6
CONTINUOUS
 62
5
 10
0.061515748030633
 20
0.674806540014126
 30
0.0
 11
0.184547244092897
 21
0.674806540019151
 31
0.0
  0
LINE
  8
5
  6
CONTINUOUS
 62
5
 10
0.123031496066115
 20
0.568258138961121
 30
0.0
 11
0.061515748030633
 21
0.674806540014126
 31
0.0
  0
LINE
  8
5
  6
CONTINUOUS
 62
5
 10
0.184547244092897
 20
0.674806540019151
 30
0.0
 11
0.123031496066115
 21
0.568258138961121
 31
0.0
  0
LINE
  8
5
  6
CONTINUOUS
 62
5
 10
0.369094488191625
 20
0.568258138972002
 30
0.0
 11
0.307578740155417
 21
0.674806540024596
 31
0.0
  0
LINE
  8
5
  6
CONTINUOUS
 62
5
 10
0.430610236217678
 20
0.674806540030455
 30
0.0
 11
0.369094488191625
 21
0.568258138972002
 31
0.0
  0
LINE
  8
5
  6
CONTINUOUS
 62
5
 10
0.307578740155417
 20
0.674806540024596
 30
0.0
 11
0.430610236217678
 21
0.674806540030455
 31
0.0
  0
LINE
  8
5
  6
CONTINUOUS
 62
5
 10
0.307578740144045
 20
0.887903342136078
 30
0.0
 11
0.24606299211872
 21
0.781354941077205
 31
0.0
  0
LINE
  8
5
  6
CONTINUOUS
 62
5
 10
0.184547244081788
 20
0.88790334212938
 30
0.0
 11
0.307578740144045
 21
0.887903342136078
 31
0.0
  0
LINE
  8
5
  6
CONTINUOUS
 62
5
 10
0.24606299211872
 20
0.781354941077205
 30
0.0
 11
0.184547244081788
 21
0.88790334212938
 31
0.0
  0
ENDSEC
  0
EOF
