  0
SECTION
  2
HEADER
  9
$ACADVER
  1
AC1003
  9
$EXTMIN
 10
-1.09460433398704
 20
0.788037992191882
  9
$EXTMAX
 10
0.787401574800006
 20
-0.787401734323164
  9
$INSUNITS
 70
1
  9
$INSBASE
 10
-0.153601379593519
 20
0.000318128934359008
999
Created with OMAX LAYOUT for Windows. (www.omax.com) 1/5/2024
  0
ENDSEC
  0
SECTION
  2
TABLES
  0
TABLE
  2
LAYER
 70
    10
  0
LAYER
  2
0
 70
     0
 62
     7
  6
CONTINUOUS
  0
LAYER
  2
1
 70
     0
 62
     7
  6
CONTINUOUS
  0
LAYER
  2
2
 70
     0
 62
     7
  6
CONTINUOUS
  0
LAYER
  2
3
 70
     0
 62
     7
  6
CONTINUOUS
  0
LAYER
  2
4
 70
     0
 62
     7
  6
CONTINUOUS
  0
LAYER
  2
5
 70
     0
 62
     7
  6
CONTINUOUS
  0
LAYER
  2
6
 70
     0
 62
     7
  6
CONTINUOUS
  0
LAYER
  2
7
 70
     0
 62
     7
  6
CONTINUOUS
  0
LAYER
  2
8
 70
     0
 62
     7
  6
CONTINUOUS
  0
LAYER
  2
9
 70
     0
 62
     7
  6
CONTINUOUS
  0
LAYER
  2
10
 70
     0
 62
     7
  6
CONTINUOUS
  0
LAYER
  2
11
 70
     0
 62
     7
  6
CONTINUOUS
  0
LAYER
  2
12
 70
     0
 62
     7
  6
CONTINUOUS
  0
LAYER
  2
13
 70
     0
 62
     7
  6
CONTINUOUS
  0
LAYER
  2
14
 70
     0
 62
     7
  6
CONTINUOUS
  0
LAYER
  2
15
 70
     0
 62
     7
  6
CONTINUOUS
  0
LAYER
  2
16
 70
     0
 62
     7
  6
CONTINUOUS
  0
LAYER
  2
17
 70
     0
 62
     7
  6
CONTINUOUS
  0
LAYER
  2
18
 70
     0
 62
     7
  6
CONTINUOUS
  0
LAYER
  2
19
 70
     0
 62
     7
  6
CONTINUOUS
  0
LAYER
  2
20
 70
     0
 62
     7
  6
CONTINUOUS
  0
LAYER
  2
21
 70
     0
 62
     7
  6
CONTINUOUS
  0
LAYER
  2
22
 70
     0
 62
     7
  6
CONTINUOUS
  0
LAYER
  2
23
 70
     0
 62
     7
  6
CONTINUOUS
  0
LAYER
  2
24
 70
     0
 62
     7
  6
CONTINUOUS
  0
LAYER
  2
25
 70
     0
 62
     7
  6
CONTINUOUS
  0
LAYER
  2
26
 70
     0
 62
     7
  6
CONTINUOUS
  0
LAYER
  2
27
 70
     0
 62
     7
  6
CONTINUOUS
  0
LAYER
  2
28
 70
     0
 62
     7
  6
CONTINUOUS
  0
LAYER
  2
29
 70
     0
 62
     7
  6
CONTINUOUS
  0
LAYER
  2
30
 70
     0
 62
     7
  6
CONTINUOUS
  0
LAYER
  2
31
 70
     0
 62
     7
  6
CONTINUOUS
  0
ENDTAB
  0
ENDSEC
  0
SECTION
  2
ENTITIES
  0
LINE
  8
1
  6
CONTINUOUS
 62
1
 10
-1.09460433398609
 20
-0.417799108004502
 30
0.0
 11
-0.911614636597696
 21
-0.417799108004502
 31
0.0
  0
LINE
  8
1
  6
CONTINUOUS
 62
1
 10
-1.09460433398609
 20
-0.389935515656742
 30
0.0
 11
-1.09460433398609
 21
-0.417799108004502
 31
0.0
  0
LINE
  8
1
  6
CONTINUOUS
 62
1
 10
-0.8818897636
 20
-0.389935515656742
 30
0.0
 11
-1.09460433398609
 21
-0.389935515656742
 31
0.0
  0
LINE
  8
1
  6
CONTINUOUS
 62
1
 10
-0.8818897636
 20
-0.435450665361684
 30
0.0
 11
-0.8818897636
 21
-0.389935515656742
 31
0.0
  0
LINE
  8
1
  6
CONTINUOUS
 62
1
 10
-1.06023453614122
 20
-0.491183805588731
 30
0.0
 11
-0.8818897636
 21
-0.435450665361684
 31
0.0
  0
LINE
  8
1
  6
CONTINUOUS
 62
1
 10
-0.8818897636
 20
-0.491183805588731
 30
0.0
 11
-1.06023453614122
 21
-0.491183805588731
 31
0.0
  0
LINE
  8
1
  6
CONTINUOUS
 62
1
 10
-0.8818897636
 20
-0.519049312214483
 30
0.0
 11
-0.8818897636
 21
-0.491183805588731
 31
0.0
  0
LINE
  8
1
  6
CONTINUOUS
 62
1
 10
-1.09460433398609
 20
-0.519049312214483
 30
0.0
 11
-0.8818897636
 21
-0.519049312214483
 31
0.0
  0
LINE
  8
1
  6
CONTINUOUS
 62
1
 10
-1.09460433398609
 20
-0.473534162509541
 30
0.0
 11
-1.09460433398609
 21
-0.519049312214483
 31
0.0
  0
LINE
  8
1
  6
CONTINUOUS
 62
1
 10
-0.911614636597696
 20
-0.417799108004502
 30
0.0
 11
-1.09460433398609
 21
-0.473534162509541
 31
0.0
  0
LINE
  8
1
  6
CONTINUOUS
 62
1
 10
-0.939226643388592
 20
-0.760272586631375
 30
0.0
 11
-1.03728447000186
 21
-0.760272586631375
 31
0.0
  0
ARC
  8
1
  6
CONTINUOUS
 62
1
 10
-0.939226643388592
 20
-0.730081232246273
 30
0.0
 40
0.0301913543851022
 50
270
 51
90
  0
LINE
  8
1
  6
CONTINUOUS
 62
1
 10
-0.939226643388592
 20
-0.672762644447373
 30
0.0
 11
-0.939226643388592
 21
-0.699889877861171
 31
0.0
  0
ARC
  8
1
  6
CONTINUOUS
 62
1
 10
-0.939226643388592
 20
-0.730082189385268
 30
0.0
 40
0.0573195449378958
 50
269.999999999999
 51
90.0000000000007
  0
LINE
  8
1
  6
CONTINUOUS
 62
1
 10
-1.03728447000186
 20
-0.78740152162561
 30
0.0
 11
-0.939226643388592
 21
-0.787401734323164
 31
0.0
  0
ARC
  8
1
  6
CONTINUOUS
 62
1
 10
-1.03728447000186
 20
-0.730081870338937
 30
0.0
 40
0.0573196512866732
 50
90
 51
270
  0
LINE
  8
1
  6
CONTINUOUS
 62
1
 10
-1.03728447000186
 20
-0.699889877861171
 30
0.0
 11
-1.03728447000186
 21
-0.672762219052263
 31
0.0
  0
ARC
  8
1
  6
CONTINUOUS
 62
1
 10
-1.03728447000186
 20
-0.730081232246273
 30
0.0
 40
0.0301913543851022
 50
90.0000000000002
 51
270
  0
LINE
  8
1
  6
CONTINUOUS
 62
1
 10
-1.03728447000186
 20
-0.566009316407699
 30
0.0
 11
-0.939226643388592
 21
-0.566009529105253
 31
0.0
  0
ARC
  8
1
  6
CONTINUOUS
 62
1
 10
-1.03728447000186
 20
-0.596200564444023
 30
0.0
 40
0.0301912480363251
 50
90
 51
270
  0
LINE
  8
1
  6
CONTINUOUS
 62
1
 10
-0.939226643388592
 20
-0.626391812480349
 30
0.0
 11
-1.03728447000186
 21
-0.626391812480349
 31
0.0
  0
ARC
  8
1
  6
CONTINUOUS
 62
1
 10
-0.939226280954976
 20
-0.596200228978182
 30
0.0
 40
0.0301915835043425
 50
269.99931219517
 51
345.521838354123
  0
LINE
  8
1
  6
CONTINUOUS
 62
1
 10
-0.882404491682088
 20
-0.603748456214687
 30
0.0
 11
-0.90999349148688
 21
-0.603748456214687
 31
0.0
  0
ARC
  8
1
  6
CONTINUOUS
 62
1
 10
-0.939225842188767
 20
-0.596200476277725
 30
0.0
 40
0.0573204839000117
 50
269.999199145474
 51
352.433297341485
  0
LINE
  8
1
  6
CONTINUOUS
 62
1
 10
-1.03728447000186
 20
-0.653521172869692
 30
0.0
 11
-0.939226643388592
 21
-0.653520960172138
 31
0.0
  0
ARC
  8
1
  6
CONTINUOUS
 62
1
 10
-1.03728447000186
 20
-0.596201415234242
 30
0.0
 40
0.0573197576354503
 50
90
 51
270
  0
LINE
  8
1
  6
CONTINUOUS
 62
1
 10
-0.939226643388592
 20
-0.538881657598791
 30
0.0
 11
-1.03728447000186
 21
-0.538881657598791
 31
0.0
  0
ARC
  8
1
  6
CONTINUOUS
 62
1
 10
-0.939225745594408
 20
-0.59620225703168
 30
0.0
 40
0.05732059943992
 50
7.5683051343443
 51
90.0008974054398
  0
LINE
  8
1
  6
CONTINUOUS
 62
1
 10
-0.90999349148688
 20
-0.588652672673359
 30
0.0
 11
-0.882404491682088
 21
-0.588652672673359
 31
0.0
  0
ARC
  8
1
  6
CONTINUOUS
 62
1
 10
-0.939226116630032
 20
-0.59620097136273
 30
0.0
 40
0.0301914422620729
 50
14.478370904535
 51
90.0009996555307
  0
LINE
  8
2
  6
CONTINUOUS
 62
2
 10
-1.09460433398609
 20
-0.270118303814655
 30
0.0
 11
-0.914402298834256
 21
-0.304022276369057
 31
0.0
  0
LINE
  8
2
  6
CONTINUOUS
 62
2
 10
-1.09460433398609
 20
-0.241322032690055
 30
0.0
 11
-1.09460433398609
 21
-0.270118303814655
 31
0.0
  0
LINE
  8
2
  6
CONTINUOUS
 62
2
 10
-0.8818897636
 20
-0.287766883406076
 30
0.0
 11
-1.09460433398609
 21
-0.241322032690055
 31
0.0
  0
LINE
  8
2
  6
CONTINUOUS
 62
2
 10
-0.8818897636
 20
-0.323992892809769
 30
0.0
 11
-0.8818897636
 21
-0.287766883406076
 31
0.0
  0
LINE
  8
2
  6
CONTINUOUS
 62
2
 10
-1.09460433398609
 20
-0.369508680607377
 30
0.0
 11
-0.8818897636
 21
-0.323992892809769
 31
0.0
  0
LINE
  8
2
  6
CONTINUOUS
 62
2
 10
-1.09460433398609
 20
-0.338854709041057
 30
0.0
 11
-1.09460433398609
 21
-0.369508680607377
 31
0.0
  0
LINE
  8
2
  6
CONTINUOUS
 62
2
 10
-0.914402298834256
 20
-0.304022276369057
 30
0.0
 11
-1.09460433398609
 21
-0.338854709041057
 31
0.0
  0
LINE
  8
2
  6
CONTINUOUS
 62
2
 10
-1.00264454626268
 20
-0.192100202701419
 30
0.0
 11
-1.07045252666333
 21
-0.192100202701419
 31
0.0
  0
LINE
  8
2
  6
CONTINUOUS
 62
2
 10
-1.00264454626268
 20
-0.128936473405059
 30
0.0
 11
-1.00264454626268
 21
-0.192100202701419
 31
0.0
  0
LINE
  8
2
  6
CONTINUOUS
 62
2
 10
-0.978494865915472
 20
-0.128936473405059
 30
0.0
 11
-1.00264454626268
 21
-0.128936473405059
 31
0.0
  0
LINE
  8
2
  6
CONTINUOUS
 62
2
 10
-0.978494865915472
 20
-0.192100202701419
 30
0.0
 11
-0.978494865915472
 21
-0.128936473405059
 31
0.0
  0
LINE
  8
2
  6
CONTINUOUS
 62
2
 10
-0.906041570922752
 20
-0.192100202701419
 30
0.0
 11
-0.978494865915472
 21
-0.192100202701419
 31
0.0
  0
LINE
  8
2
  6
CONTINUOUS
 62
2
 10
-0.906041570922752
 20
-0.123362946684798
 30
0.0
 11
-0.906041570922752
 21
-0.192100202701419
 31
0.0
  0
LINE
  8
2
  6
CONTINUOUS
 62
2
 10
-0.8818897636
 20
-0.123362946684798
 30
0.0
 11
-0.906041570922752
 21
-0.123362946684798
 31
0.0
  0
LINE
  8
2
  6
CONTINUOUS
 62
2
 10
-0.8818897636
 20
-0.220896048430907
 30
0.0
 11
-0.8818897636
 21
-0.123362946684798
 31
0.0
  0
LINE
  8
2
  6
CONTINUOUS
 62
2
 10
-1.09460433398609
 20
-0.220896048430907
 30
0.0
 11
-0.8818897636
 21
-0.220896048430907
 31
0.0
  0
LINE
  8
2
  6
CONTINUOUS
 62
2
 10
-1.09460433398609
 20
-0.125221072521623
 30
0.0
 11
-1.09460433398609
 21
-0.220896048430907
 31
0.0
  0
LINE
  8
2
  6
CONTINUOUS
 62
2
 10
-1.07045252666333
 20
-0.125221072521623
 30
0.0
 11
-1.09460433398609
 21
-0.125221072521623
 31
0.0
  0
LINE
  8
2
  6
CONTINUOUS
 62
2
 10
-1.07045252666333
 20
-0.192100202701419
 30
0.0
 11
-1.07045252666333
 21
-0.125221072521623
 31
0.0
  0
LINE
  8
2
  6
CONTINUOUS
 62
2
 10
-1.02632841896535
 20
-0.0759992425329851
 30
0.0
 11
-1.06929332499086
 21
-0.0759992425329851
 31
0.0
  0
LINE
  8
2
  6
CONTINUOUS
 62
2
 10
-1.02632841896535
 20
-0.104794662867367
 30
0.0
 11
-1.02632841896535
 21
-0.0759992425329851
 31
0.0
  0
LINE
  8
2
  6
CONTINUOUS
 62
2
 10
-1.09460433398609
 20
-0.104794662867367
 30
0.0
 11
-1.02632841896535
 21
-0.104794662867367
 31
0.0
  0
LINE
  8
2
  6
CONTINUOUS
 62
2
 10
-1.09460433398609
 20
-0.0444402428719225
 30
0.0
 11
-1.09460433398609
 21
-0.104794662867367
 31
0.0
  0
ARC
  8
2
  6
CONTINUOUS
 62
2
 10
-1.03515793686788
 20
-0.0444399052940845
 30
0.0
 40
0.0594463971191626
 50
32.8552603471068
 51
180.00032536514
  0
ARC
  8
2
  6
CONTINUOUS
 62
2
 10
-0.945071750429768
 20
-0.0511548379050076
 30
0.0
 40
0.0559485282379974
 50
98.6165201815965
 51
135.856609805123
  0
LINE
  8
2
  6
CONTINUOUS
 62
2
 10
-0.8818897636
 20
0.0150072347507857
 30
0.0
 11
-0.953453982814568
 21
0.00416221183777317
 31
0.0
  0
LINE
  8
2
  6
CONTINUOUS
 62
2
 10
-0.8818897636
 20
-0.0103014345713384
 30
0.0
 11
-0.8818897636
 21
0.0150072347507857
 31
0.0
  0
LINE
  8
2
  6
CONTINUOUS
 62
2
 10
-0.949787076973576
 20
-0.0208795220533508
 30
0.0
 11
-0.8818897636
 21
-0.0103014345713384
 31
0.0
  0
ARC
  8
2
  6
CONTINUOUS
 62
2
 10
-0.94507011700648
 20
-0.0511526542183565
 30
0.0
 40
0.0306384112253082
 50
98.8562389430187
 51
180.007764564469
  0
LINE
  8
2
  6
CONTINUOUS
 62
2
 10
-0.975706400974904
 20
-0.0759992425329851
 30
0.0
 11
-0.975708527950448
 21
-0.0511568062505041
 31
0.0
  0
LINE
  8
2
  6
CONTINUOUS
 62
2
 10
-0.8818897636
 20
-0.0759992425329851
 30
0.0
 11
-0.975706400974904
 21
-0.0759992425329851
 31
0.0
  0
LINE
  8
2
  6
CONTINUOUS
 62
2
 10
-0.8818897636
 20
-0.104794662867367
 30
0.0
 11
-0.8818897636
 21
-0.0759992425329851
 31
0.0
  0
LINE
  8
2
  6
CONTINUOUS
 62
2
 10
-1.00101740997013
 20
-0.104794662867367
 30
0.0
 11
-0.8818897636
 21
-0.104794662867367
 31
0.0
  0
LINE
  8
2
  6
CONTINUOUS
 62
2
 10
-1.00101740997013
 20
-0.0444398174768156
 30
0.0
 11
-1.00101740997013
 21
-0.104794662867367
 31
0.0
  0
ARC
  8
2
  6
CONTINUOUS
 62
2
 10
-1.0351553674805
 20
-0.0444398174768156
 30
0.0
 40
0.0341379575103657
 50
359.999999999999
 51
179.999999999999
  0
LINE
  8
2
  6
CONTINUOUS
 62
2
 10
-1.06929332499086
 20
-0.0759992425329851
 30
0.0
 11
-1.06929332499086
 21
-0.0444398174768156
 31
0.0
  0
ARC
  8
2
  6
CONTINUOUS
 62
2
 10
-0.168001451120622
 20
0.0442982539380542
 30
0.0
 40
0.0178753235658838
 50
213.433287883771
 51
270.015999253475
  0
ARC
  8
2
  6
CONTINUOUS
 62
2
 10
-0.165820960181604
 20
0.0444112103108017
 30
0.0
 40
0.0181193539589947
 50
263.104148598815
 51
34.0979167513625
  0
ARC
  8
2
  6
CONTINUOUS
 62
2
 10
-0.168572606642753
 20
0.0391211777467726
 30
0.0
 40
0.0235353121026384
 50
41.0237111689353
 51
127.558530040726
  0
LINE
  8
2
  6
CONTINUOUS
 62
2
 10
-0.182919063436875
 20
0.0577783504485242
 30
0.0
 11
-0.182919063436875
 21
0.0826586707016122
 31
0.0
  0
LINE
  8
2
  6
CONTINUOUS
 62
2
 10
-0.182919063436875
 20
0.0826586707016122
 30
0.0
 11
-0.148953255565661
 21
0.0826586707016122
 31
0.0
  0
ARC
  8
2
  6
CONTINUOUS
 62
2
 10
-0.127472159946109
 20
0.0403569068322276
 30
0.0
 40
0.0137770358788089
 50
199.465441458887
 51
268.514572046554
  0
ARC
  8
2
  6
CONTINUOUS
 62
2
 10
-0.0886708274544479
 20
0.0545965844008252
 30
0.0
 40
0.0551080217414745
 50
160.019185139364
 51
199.980814860636
  0
ARC
  8
2
  6
CONTINUOUS
 62
2
 10
-0.127408635336813
 20
0.0688202220339689
 30
0.0
 40
0.0138422760303487
 50
19.4473483225591
 51
160.559582801478
  0
ARC
  8
2
  6
CONTINUOUS
 62
2
 10
-0.166146426533315
 20
0.0545965845066013
 30
0.0
 40
0.0551080217414703
 50
340.017438400847
 51
19.9825615991529
  0
ARC
  8
2
  6
CONTINUOUS
 62
2
 10
-0.127300123447542
 20
0.0402822049744178
 30
0.0
 40
0.013709835068824
 50
271.354984375417
 51
340.759261725188
  0
LINE
  8
2
  6
CONTINUOUS
 62
2
 10
-0.159298565167827
 20
-0.410052068216236
 30
0.0
 11
-0.159298565167827
 21
-0.353872868238707
 31
0.0
  0
LINE
  8
2
  6
CONTINUOUS
 62
2
 10
-0.159298565167827
 20
-0.353872868238707
 30
0.0
 11
-0.188391365156189
 21
-0.396809828221532
 31
0.0
  0
LINE
  8
2
  6
CONTINUOUS
 62
2
 10
-0.188391365156189
 20
-0.396809828221532
 30
0.0
 11
-0.151072325171117
 21
-0.396809828221532
 31
0.0
  0
LINE
  8
2
  6
CONTINUOUS
 62
2
 10
-0.145454405171117
 20
-0.353872903531964
 30
0.0
 11
-0.111746887295713
 21
-0.353872903531964
 31
0.0
  0
ARC
  8
2
  6
CONTINUOUS
 62
2
 10
-0.0265099570906884
 20
-0.410061641935096
 30
0.0
 40
0.102090688087171
 50
146.60686951312
 51
179.994700000001
  0
ARC
  8
3
  6
CONTINUOUS
 62
3
 10
-1.03728512194365
 20
0.092159123030159
 30
0.0
 40
0.0573184794109999
 50
270.0006516836
 51
333.183935420124
  0
ARC
  8
3
  6
CONTINUOUS
 62
3
 10
-1.03728447000186
 20
0.0921604012583174
 30
0.0
 40
0.0573197576354506
 50
90
 51
270
  0
LINE
  8
3
  6
CONTINUOUS
 62
3
 10
-1.03728447000186
 20
0.122352074689752
 30
0.0
 11
-1.03728447000186
 21
0.149480158893768
 31
0.0
  0
ARC
  8
3
  6
CONTINUOUS
 62
3
 10
-1.03728447000186
 20
0.0921607203046494
 30
0.0
 40
0.0301913543851021
 50
90
 51
270
  0
ARC
  8
3
  6
CONTINUOUS
 62
3
 10
-1.03728365648898
 20
0.092162572775755
 30
0.0
 40
0.0301932068671674
 50
269.998456246976
 51
333.182376586103
  0
LINE
  8
3
  6
CONTINUOUS
 62
3
 10
-0.99038253224104
 20
0.118020914385804
 30
0.0
 11
-1.0103378168119
 21
0.0785408450945636
 31
0.0
  0
ARC
  8
3
  6
CONTINUOUS
 62
3
 10
-0.939228003151664
 20
0.0921596679942104
 30
0.0
 40
0.0573200655205762
 50
89.9986408130521
 51
153.181054524402
  0
ARC
  8
3
  6
CONTINUOUS
 62
3
 10
-0.939226643388592
 20
0.0921602949095406
 30
0.0
 40
0.0573194385891185
 50
269.999999999999
 51
90.0000000000007
  0
LINE
  8
3
  6
CONTINUOUS
 62
3
 10
-0.939226643388592
 20
0.0619691532219925
 30
0.0
 11
-0.939226643388592
 21
0.0348408563204217
 31
0.0
  0
ARC
  8
3
  6
CONTINUOUS
 62
3
 10
-0.939226643388592
 20
0.0921604012583174
 30
0.0
 40
0.030191248036325
 50
270
 51
90
  0
ARC
  8
3
  6
CONTINUOUS
 62
3
 10
-0.939227191710584
 20
0.092160945226859
 30
0.0
 40
0.0301907040727626
 50
89.9989593970415
 51
153.183940738284
  0
LINE
  8
3
  6
CONTINUOUS
 62
3
 10
-0.986130708124952
 20
0.0663011643161586
 30
0.0
 11
-0.966171169603008
 21
0.105780808212289
 31
0.0
  0
LINE
  8
3
  6
CONTINUOUS
 62
3
 10
-1.06766831567386
 20
0.23712239895672
 30
0.0
 11
-0.95434305859272
 21
0.260858789167099
 31
0.0
  0
LINE
  8
3
  6
CONTINUOUS
 62
3
 10
-0.8818897636
 20
0.19718035057693
 30
0.0
 11
-1.06766831567386
 21
0.23712239895672
 31
0.0
  0
LINE
  8
3
  6
CONTINUOUS
 62
3
 10
-0.8818897636
 20
0.169313993160959
 30
0.0
 11
-0.8818897636
 21
0.19718035057693
 31
0.0
  0
LINE
  8
3
  6
CONTINUOUS
 62
3
 10
-1.09460433398609
 20
0.218544756446889
 30
0.0
 11
-0.8818897636
 21
0.169313993160959
 31
0.0
  0
LINE
  8
3
  6
CONTINUOUS
 62
3
 10
-1.09460433398609
 20
0.257557529210713
 30
0.0
 11
-1.09460433398609
 21
0.218544756446889
 31
0.0
  0
LINE
  8
3
  6
CONTINUOUS
 62
3
 10
-0.8818897636
 20
0.306788930589305
 30
0.0
 11
-1.09460433398609
 21
0.257557529210713
 31
0.0
  0
LINE
  8
3
  6
CONTINUOUS
 62
3
 10
-0.8818897636
 20
0.276135384418099
 30
0.0
 11
-0.8818897636
 21
0.306788930589305
 31
0.0
  0
LINE
  8
3
  6
CONTINUOUS
 62
3
 10
-0.930193378245512
 20
0.265917606593548
 30
0.0
 11
-0.8818897636
 21
0.276135384418099
 31
0.0
  0
LINE
  8
3
  6
CONTINUOUS
 62
3
 10
-0.930193378245512
 20
0.222260157330325
 30
0.0
 11
-0.930193378245512
 21
0.265917606593548
 31
0.0
  0
LINE
  8
3
  6
CONTINUOUS
 62
3
 10
-0.95434305859272
 20
0.227370003381593
 30
0.0
 11
-0.930193378245512
 21
0.222260157330325
 31
0.0
  0
LINE
  8
3
  6
CONTINUOUS
 62
3
 10
-0.95434305859272
 20
0.260858789167099
 30
0.0
 11
-0.95434305859272
 21
0.227370003381593
 31
0.0
  0
LINE
  8
3
  6
CONTINUOUS
 62
3
 10
-0.8818897636
 20
0.405241523863873
 30
0.0
 11
-1.07045252666333
 21
0.405241523863873
 31
0.0
  0
LINE
  8
3
  6
CONTINUOUS
 62
3
 10
-0.8818897636
 20
0.376446103529493
 30
0.0
 11
-0.8818897636
 21
0.405241523863873
 31
0.0
  0
LINE
  8
3
  6
CONTINUOUS
 62
3
 10
-1.07045252666333
 20
0.376446103529493
 30
0.0
 11
-0.8818897636
 21
0.376446103529493
 31
0.0
  0
LINE
  8
3
  6
CONTINUOUS
 62
3
 10
-1.07045252666333
 20
0.327214914848453
 30
0.0
 11
-1.07045252666333
 21
0.376446103529493
 31
0.0
  0
LINE
  8
3
  6
CONTINUOUS
 62
3
 10
-1.09460433398609
 20
0.327214914848453
 30
0.0
 11
-1.07045252666333
 21
0.327214914848453
 31
0.0
  0
LINE
  8
3
  6
CONTINUOUS
 62
3
 10
-1.09460433398609
 20
0.455401137370662
 30
0.0
 11
-1.09460433398609
 21
0.327214914848453
 31
0.0
  0
LINE
  8
3
  6
CONTINUOUS
 62
3
 10
-1.07045252666333
 20
0.455401137370662
 30
0.0
 11
-1.09460433398609
 21
0.455401137370662
 31
0.0
  0
LINE
  8
3
  6
CONTINUOUS
 62
3
 10
-1.07045252666333
 20
0.405241523863873
 30
0.0
 11
-1.07045252666333
 21
0.455401137370662
 31
0.0
  0
LINE
  8
3
  6
CONTINUOUS
 62
3
 10
-0.178898213606433
 20
0.62833182295849
 30
0.0
 11
-0.161206863772321
 21
0.601699683423269
 31
0.0
  0
LINE
  8
3
  6
CONTINUOUS
 62
3
 10
-0.160238693613898
 20
0.572152622980961
 30
0.0
 11
-0.160238693613898
 21
0.600242222969725
 31
0.0
  0
LINE
  8
3
  6
CONTINUOUS
 62
3
 10
-0.160238693613898
 20
0.600242222969725
 30
0.0
 11
-0.141579173621361
 21
0.62833182295849
 31
0.0
  0
LINE
  8
3
  6
CONTINUOUS
 62
3
 10
-0.149933847450069
 20
0.135616605975715
 30
0.0
 11
-0.18287893543689
 21
0.135616605975715
 31
0.0
  0
LINE
  8
3
  6
CONTINUOUS
 62
3
 10
-0.18287893543689
 20
0.135616605975715
 30
0.0
 11
-0.182898999436883
 21
0.16370620596448
 31
0.0
  0
LINE
  8
3
  6
CONTINUOUS
 62
3
 10
-0.182898999436883
 20
0.16370620596448
 30
0.0
 11
-0.157156887447179
 21
0.16370620596448
 31
0.0
  0
LINE
  8
3
  6
CONTINUOUS
 62
3
 10
-0.182900202937944
 20
0.164548419451479
 30
0.0
 11
-0.182919063436875
 21
0.191795805953244
 31
0.0
  0
LINE
  8
3
  6
CONTINUOUS
 62
3
 10
-0.182919063436875
 20
0.191795805953244
 30
0.0
 11
-0.152742807450069
 21
0.191795805953244
 31
0.0
  0
ARC
  8
3
  6
CONTINUOUS
 62
3
 10
-0.167344533519705
 20
-0.503025142689521
 30
0.0
 40
0.0161945091199224
 50
210.521999666254
 51
269.441063338046
  0
LINE
  8
3
  6
CONTINUOUS
 62
3
 10
-0.167502513066864
 20
-0.519218881235574
 30
0.0
 11
-0.161777575382293
 21
-0.519274731389108
 31
0.0
  0
ARC
  8
3
  6
CONTINUOUS
 62
3
 10
-0.16163335615264
 20
-0.504491489128422
 30
0.0
 40
0.0147839457156865
 50
269.441063677772
 51
357.350682656724
  0
ARC
  8
3
  6
CONTINUOUS
 62
3
 10
-0.158890611311796
 20
-0.50626549064537
 30
0.0
 40
0.0120747559631735
 50
5.18227244383416
 51
59.3448299999962
  0
LINE
  8
3
  6
CONTINUOUS
 62
3
 10
-0.152734055651359
 20
-0.495878164041756
 30
0.0
 11
-0.174844348419014
 21
-0.48638193824372
 31
0.0
  0
ARC
  8
3
  6
CONTINUOUS
 62
3
 10
-0.168687788730969
 20
-0.475994616886745
 30
0.0
 40
0.0120747535033034
 50
185.182406440217
 51
239.344800865818
  0
ARC
  8
3
  6
CONTINUOUS
 62
3
 10
-0.166004222386348
 20
-0.477729567294387
 30
0.0
 40
0.0147230638875712
 50
91.2613438550511
 51
177.491952931064
  0
LINE
  8
3
  6
CONTINUOUS
 62
3
 10
-0.166328318616796
 20
-0.463010070975867
 30
0.0
 11
-0.160616994619421
 21
-0.463004065377552
 31
0.0
  0
ARC
  8
3
  6
CONTINUOUS
 62
3
 10
-0.161127061289535
 20
-0.478678241220605
 30
0.0
 40
0.0156824729034333
 50
29.2717084966244
 51
88.1361471074762
  0
LINE
  8
3
  6
CONTINUOUS
 62
3
 10
-0.137250792264583
 20
-0.463006761595965
 30
0.0
 11
-0.137250792264583
 21
-0.519185961573493
 31
0.0
  0
LINE
  8
3
  6
CONTINUOUS
 62
3
 10
-0.135565416264583
 20
-0.491096361584729
 30
0.0
 11
-0.104891573064583
 21
-0.491096361584729
 31
0.0
  0
LINE
  8
3
  6
CONTINUOUS
 62
3
 10
-0.103141992278227
 20
-0.519185961573493
 30
0.0
 11
-0.103141992278227
 21
-0.463006761595965
 31
0.0
  0
LINE
  8
3
  6
CONTINUOUS
 62
3
 10
-0.0944194345631256
 20
-0.519185965219582
 30
0.0
 11
-0.0783682383301417
 21
-0.519185965219582
 31
0.0
  0
LINE
  8
3
  6
CONTINUOUS
 62
3
 10
-0.0863938383269309
 20
-0.517500589242054
 30
0.0
 11
-0.0863938383269309
 21
-0.464692141242054
 31
0.0
  0
LINE
  8
3
  6
CONTINUOUS
 62
3
 10
-0.0944194345631256
 20
-0.463006765242054
 30
0.0
 11
-0.0784527122782266
 21
-0.463006765242054
 31
0.0
  0
LINE
  8
3
  6
CONTINUOUS
 62
3
 10
-0.0441501221562819
 20
-0.491095099709755
 30
0.0
 11
-0.0681948197562819
 21
-0.491095099709755
 31
0.0
  0
LINE
  8
3
  6
CONTINUOUS
 62
3
 10
-0.0698721701459929
 20
-0.519184699698519
 30
0.0
 11
-0.0698721701459929
 21
-0.463005499720991
 31
0.0
  0
LINE
  8
3
  6
CONTINUOUS
 62
3
 10
-0.0698721701459929
 20
-0.463005499720991
 30
0.0
 11
-0.0397360421591687
 21
-0.463005499720991
 31
0.0
  0
LINE
  8
3
  6
CONTINUOUS
 62
3
 10
-0.0106907603170217
 20
-0.519185957659039
 30
0.0
 11
-0.0106907603170217
 21
-0.464710699456748
 31
0.0
  0
LINE
  8
3
  6
CONTINUOUS
 62
3
 10
-0.0286480443226382
 20
-0.463006757681511
 30
0.0
 11
0.00726651566299586
 21
-0.463006757681511
 31
0.0
  0
LINE
  8
3
  6
CONTINUOUS
 62
3
 10
0.127462016094447
 20
-0.519186546322739
 30
0.0
 11
0.0945169281076258
 21
-0.519186546322739
 31
0.0
  0
LINE
  8
3
  6
CONTINUOUS
 62
3
 10
0.0945169281076258
 20
-0.519186546322739
 30
0.0
 11
0.0944968641076331
 21
-0.491096946333974
 31
0.0
  0
LINE
  8
3
  6
CONTINUOUS
 62
3
 10
0.0944968641076331
 20
-0.491096946333974
 30
0.0
 11
0.120238976097336
 21
-0.491096946333974
 31
0.0
  0
LINE
  8
3
  6
CONTINUOUS
 62
3
 10
0.0944956606065716
 20
-0.490254732846975
 30
0.0
 11
0.0944768001076413
 21
-0.46300734634521
 31
0.0
  0
LINE
  8
3
  6
CONTINUOUS
 62
3
 10
0.0944768001076413
 20
-0.46300734634521
 30
0.0
 11
0.124653056094447
 21
-0.46300734634521
 31
0.0
  0
LINE
  8
3
  6
CONTINUOUS
 62
3
 10
-0.0983862147006819
 20
-0.628320400472285
 30
0.0
 11
-0.131331302687503
 21
-0.628320400472285
 31
0.0
  0
LINE
  8
3
  6
CONTINUOUS
 62
3
 10
-0.131331302687503
 20
-0.628320400472285
 30
0.0
 11
-0.131351366687496
 21
-0.600230800483519
 31
0.0
  0
LINE
  8
3
  6
CONTINUOUS
 62
3
 10
-0.131351366687496
 20
-0.600230800483519
 30
0.0
 11
-0.105609254697793
 21
-0.600230800483519
 31
0.0
  0
LINE
  8
3
  6
CONTINUOUS
 62
3
 10
-0.131352570188558
 20
-0.599388586996521
 30
0.0
 11
-0.131371430687488
 21
-0.572141200494756
 31
0.0
  0
LINE
  8
3
  6
CONTINUOUS
 62
3
 10
-0.131371430687488
 20
-0.572141200494756
 30
0.0
 11
-0.101195174700682
 21
-0.572141200494756
 31
0.0
  0
LINE
  8
3
  6
CONTINUOUS
 62
3
 10
-0.0948380547006821
 20
-0.628319815745511
 30
0.0
 11
-0.0948380482173139
 21
-0.572140622631431
 31
0.0
  0
LINE
  8
3
  6
CONTINUOUS
 62
3
 10
-0.0948380482173139
 20
-0.572140622631431
 30
0.0
 11
-0.0603413442311124
 21
-0.62831982260896
 31
0.0
  0
LINE
  8
3
  6
CONTINUOUS
 62
3
 10
-0.0603413442311124
 20
-0.62831982260896
 30
0.0
 11
-0.0603413442311124
 21
-0.572140622631431
 31
0.0
  0
LINE
  8
3
  6
CONTINUOUS
 62
3
 10
-0.0312960623889655
 20
-0.628319811808585
 30
0.0
 11
-0.0312960623889655
 21
-0.573844553606295
 31
0.0
  0
LINE
  8
3
  6
CONTINUOUS
 62
3
 10
-0.0492533463945824
 20
-0.572140611831057
 30
0.0
 11
-0.0133387864089483
 21
-0.572140611831057
 31
0.0
  0
LINE
  8
3
  6
CONTINUOUS
 62
3
 10
0.0258293080353441
 20
-0.628320400472285
 30
0.0
 11
-0.00711577995147716
 21
-0.628320400472285
 31
0.0
  0
LINE
  8
3
  6
CONTINUOUS
 62
3
 10
-0.00711577995147716
 20
-0.628320400472285
 30
0.0
 11
-0.00713584395146987
 21
-0.600230800483519
 31
0.0
  0
LINE
  8
3
  6
CONTINUOUS
 62
3
 10
-0.00713584395146987
 20
-0.600230800483519
 30
0.0
 11
0.0186062680382334
 21
-0.600230800483519
 31
0.0
  0
LINE
  8
3
  6
CONTINUOUS
 62
3
 10
-0.00713704745253136
 20
-0.599388586996521
 30
0.0
 11
-0.00715590795146174
 21
-0.572141200494756
 31
0.0
  0
LINE
  8
3
  6
CONTINUOUS
 62
3
 10
-0.00715590795146174
 20
-0.572141200494756
 30
0.0
 11
0.0230203480353442
 21
-0.572141200494756
 31
0.0
  0
LINE
  8
3
  6
CONTINUOUS
 62
3
 10
0.031447228035344
 20
-0.628319815723039
 30
0.0
 11
0.031447228035344
 21
-0.572140615745511
 31
0.0
  0
LINE
  8
3
  6
CONTINUOUS
 62
3
 10
0.031447228035344
 20
-0.572140615745511
 30
0.0
 11
0.0518322520271924
 21
-0.57214061574551
 31
0.0
  0
ARC
  8
3
  6
CONTINUOUS
 62
3
 10
0.0515615770277741
 20
-0.586185394948187
 30
0.0
 40
0.0140473872235111
 50
271.095264000539
 51
88.8959160393193
  0
LINE
  8
3
  6
CONTINUOUS
 62
3
 10
0.0518300900079823
 20
-0.600230215651447
 30
0.0
 11
0.0332909540079819
 21
-0.600230215651447
 31
0.0
  0
LINE
  8
3
  6
CONTINUOUS
 62
3
 10
0.0526304842474606
 20
-0.601830767056614
 30
0.0
 11
0.0658770520215729
 21
-0.628319815723039
 31
0.0
  0
LINE
  8
3
  6
CONTINUOUS
 62
3
 10
-0.0983862147006815
 20
-0.0826511101522842
 30
0.0
 11
-0.131331302687503
 21
-0.0826511101522842
 31
0.0
  0
LINE
  8
3
  6
CONTINUOUS
 62
3
 10
-0.131331302687503
 20
-0.0826511101522842
 30
0.0
 11
-0.131351366687496
 21
-0.0545615101635201
 31
0.0
  0
LINE
  8
3
  6
CONTINUOUS
 62
3
 10
-0.131351366687496
 20
-0.0545615101635201
 30
0.0
 11
-0.105609254697793
 21
-0.0545615101635201
 31
0.0
  0
LINE
  8
3
  6
CONTINUOUS
 62
3
 10
-0.131352570188558
 20
-0.0537192966765204
 30
0.0
 11
-0.131371430687488
 21
-0.026471910174756
 31
0.0
  0
LINE
  8
3
  6
CONTINUOUS
 62
3
 10
-0.131371430687488
 20
-0.026471910174756
 30
0.0
 11
-0.101195174700681
 21
-0.026471910174756
 31
0.0
  0
LINE
  8
3
  6
CONTINUOUS
 62
3
 10
-0.0948380547006816
 20
-0.0826505254255103
 30
0.0
 11
-0.0948380482173135
 21
-0.0264713323114315
 31
0.0
  0
LINE
  8
3
  6
CONTINUOUS
 62
3
 10
-0.0948380482173135
 20
-0.0264713323114315
 30
0.0
 11
-0.060341344231112
 21
-0.0826505322889592
 31
0.0
  0
LINE
  8
3
  6
CONTINUOUS
 62
3
 10
-0.060341344231112
 20
-0.0826505322889592
 30
0.0
 11
-0.060341344231112
 21
-0.0264713323114315
 31
0.0
  0
LINE
  8
3
  6
CONTINUOUS
 62
3
 10
-0.0312960623889651
 20
-0.082650521488585
 30
0.0
 11
-0.0312960623889651
 21
-0.0281752632862941
 31
0.0
  0
LINE
  8
3
  6
CONTINUOUS
 62
3
 10
-0.0492533463945817
 20
-0.0264713215110567
 30
0.0
 11
-0.0133387864089479
 21
-0.0264713215110567
 31
0.0
  0
LINE
  8
3
  6
CONTINUOUS
 62
3
 10
0.0258293080353446
 20
-0.0826511101522842
 30
0.0
 11
-0.00711577995147671
 21
-0.0826511101522842
 31
0.0
  0
LINE
  8
3
  6
CONTINUOUS
 62
3
 10
-0.00711577995147671
 20
-0.0826511101522842
 30
0.0
 11
-0.00713584395146938
 21
-0.0545615101635201
 31
0.0
  0
LINE
  8
3
  6
CONTINUOUS
 62
3
 10
-0.00713584395146938
 20
-0.0545615101635201
 30
0.0
 11
0.0186062680382337
 21
-0.0545615101635201
 31
0.0
  0
LINE
  8
3
  6
CONTINUOUS
 62
3
 10
-0.00713704745253092
 20
-0.0537192966765204
 30
0.0
 11
-0.00715590795146136
 21
-0.026471910174756
 31
0.0
  0
LINE
  8
3
  6
CONTINUOUS
 62
3
 10
-0.00715590795146136
 20
-0.026471910174756
 30
0.0
 11
0.0230203480353445
 21
-0.026471910174756
 31
0.0
  0
LINE
  8
3
  6
CONTINUOUS
 62
3
 10
0.0314472280353444
 20
-0.0826505254030387
 30
0.0
 11
0.0314472280353444
 21
-0.0264713254255103
 31
0.0
  0
LINE
  8
3
  6
CONTINUOUS
 62
3
 10
0.0314472280353444
 20
-0.0264713254255103
 30
0.0
 11
0.0518322520271928
 21
-0.0264713254255099
 31
0.0
  0
ARC
  8
3
  6
CONTINUOUS
 62
3
 10
0.0515615770277745
 20
-0.040516104628187
 30
0.0
 40
0.014047387223511
 50
271.095264000539
 51
88.8959160393194
  0
LINE
  8
3
  6
CONTINUOUS
 62
3
 10
0.0518300900079828
 20
-0.0545609253314469
 30
0.0
 11
0.0332909540079823
 21
-0.0545609253314469
 31
0.0
  0
LINE
  8
3
  6
CONTINUOUS
 62
3
 10
0.0526304842474615
 20
-0.0561614767366143
 30
0.0
 11
0.0658770520215733
 21
-0.0826505254030387
 31
0.0
  0
ARC
  8
3
  6
CONTINUOUS
 62
3
 10
-0.167344533519705
 20
0.47917957988648
 30
0.0
 40
0.0161945091199224
 50
210.521999666257
 51
269.441063338049
  0
LINE
  8
3
  6
CONTINUOUS
 62
3
 10
-0.167502513066864
 20
0.462985841340427
 30
0.0
 11
-0.161777575382293
 21
0.462929991186892
 31
0.0
  0
ARC
  8
3
  6
CONTINUOUS
 62
3
 10
-0.16163335615264
 20
0.477713233447578
 30
0.0
 40
0.0147839457156863
 50
269.441063677774
 51
357.350682656726
  0
ARC
  8
3
  6
CONTINUOUS
 62
3
 10
-0.158890611311796
 20
0.475939231930631
 30
0.0
 40
0.0120747559631736
 50
5.18227244383173
 51
59.3448299999939
  0
LINE
  8
3
  6
CONTINUOUS
 62
3
 10
-0.152734055651359
 20
0.486326558534245
 30
0.0
 11
-0.174844348419013
 21
0.495822784332281
 31
0.0
  0
ARC
  8
3
  6
CONTINUOUS
 62
3
 10
-0.168687788730969
 20
0.506210105689257
 30
0.0
 40
0.0120747535033036
 50
185.182406440219
 51
212.26360365302
  0
ARC
  8
3
  6
CONTINUOUS
 62
3
 10
-0.166004222386347
 20
0.504475155281614
 30
0.0
 40
0.0147230638875711
 50
91.2613438550533
 51
177.491952931065
  0
LINE
  8
3
  6
CONTINUOUS
 62
3
 10
-0.166328318616796
 20
0.519194651600133
 30
0.0
 11
-0.160616994619421
 21
0.519200657198449
 31
0.0
  0
ARC
  8
3
  6
CONTINUOUS
 62
3
 10
-0.161127061289535
 20
0.503526481355395
 30
0.0
 40
0.0156824729034333
 50
29.2717084966233
 51
88.1361471074752
  0
ARC
  8
3
  6
CONTINUOUS
 62
3
 10
0.157810501098493
 20
0.48349640844392
 30
0.0
 40
0.0206598446125362
 50
204.38683723701
 51
324.320000000004
  0
ARC
  8
3
  6
CONTINUOUS
 62
3
 10
0.186399209853975
 20
0.491017259254115
 30
0.0
 40
0.0500489658039823
 50
161.294134617644
 51
198.705865382356
  0
ARC
  8
3
  6
CONTINUOUS
 62
3
 10
0.157810505111293
 20
0.498538112354701
 30
0.0
 40
0.0206598486253362
 50
35.6800299999903
 51
155.613174782252
  0
ARC
  8
3
  6
CONTINUOUS
 62
3
 10
-0.168687788730969
 20
0.506210105689257
 30
0.0
 40
0.0120747535033037
 50
212.263603653021
 51
239.344800865822
  0
LINE
  8
4
  6
CONTINUOUS
 62
4
 10
0.629921259599997
 20
-0.787401574799998
 30
0.0
 11
-0.629921260000005
 21
-0.787401574800002
 31
0.0
  0
LINE
  8
4
  6
CONTINUOUS
 62
4
 10
0.787401574800006
 20
-0.629921259600006
 30
0.0
 11
0.787401574799999
 21
0.629921259599999
 31
0.0
  0
LINE
  8
4
  6
CONTINUOUS
 62
4
 10
-1.09460433398609
 20
0.504620202291093
 30
0.0
 11
-1.09460433398609
 21
0.475825632746928
 31
0.0
  0
LINE
  8
4
  6
CONTINUOUS
 62
4
 10
-0.8818897636
 20
0.504620202291093
 30
0.0
 11
-1.09460433398609
 21
0.504620202291093
 31
0.0
  0
LINE
  8
4
  6
CONTINUOUS
 62
4
 10
-0.8818897636
 20
0.475825632746928
 30
0.0
 11
-0.8818897636
 21
0.504620202291093
 31
0.0
  0
LINE
  8
4
  6
CONTINUOUS
 62
4
 10
-1.09460433398609
 20
0.475825632746928
 30
0.0
 11
-0.8818897636
 21
0.475825632746928
 31
0.0
  0
ARC
  8
4
  6
CONTINUOUS
 62
4
 10
-0.629921259600002
 20
0.629921259600002
 30
0.0
 40
0.1574803152
 50
89.9999999999992
 51
180
  0
ARC
  8
4
  6
CONTINUOUS
 62
4
 10
0.629921259599999
 20
0.629921259600009
 30
0.0
 40
0.1574803152
 50
359.999999999996
 51
89.9999999999992
  0
ARC
  8
4
  6
CONTINUOUS
 62
4
 10
0.629921259600007
 20
-0.629921259599998
 30
0.0
 40
0.1574803152
 50
269.999999999996
 51
359.999999999996
  0
ARC
  8
4
  6
CONTINUOUS
 62
4
 10
-0.62992126004141
 20
-0.629921260041413
 30
0.0
 40
0.15748031475859
 50
179.999999984931
 51
270.000000015064
  0
LINE
  8
4
  6
CONTINUOUS
 62
4
 10
-0.787401574799999
 20
0.629921259600002
 30
0.0
 11
-0.787401574800001
 21
-0.629921259599999
 31
0.0
  0
LINE
  8
4
  6
CONTINUOUS
 62
4
 10
-0.629921259599999
 20
0.787401574800002
 30
0.0
 11
0.629921259599998
 21
0.787401574800002
 31
0.0
  0
LINE
  8
4
  6
CONTINUOUS
 62
4
 10
-1.03728447000186
 20
0.61196419143984
 30
0.0
 11
-0.939226643388592
 21
0.611963978742285
 31
0.0
  0
ARC
  8
4
  6
CONTINUOUS
 62
4
 10
-1.03728447000186
 20
0.581772943403515
 30
0.0
 40
0.0301912480363249
 50
90
 51
270
  0
LINE
  8
4
  6
CONTINUOUS
 62
4
 10
-0.939226643388592
 20
0.55158169536719
 30
0.0
 11
-1.03728447000186
 21
0.55158169536719
 31
0.0
  0
ARC
  8
4
  6
CONTINUOUS
 62
4
 10
-0.939226280954976
 20
0.581773278869357
 30
0.0
 40
0.0301915835043425
 50
269.99931219517
 51
345.521838354123
  0
LINE
  8
4
  6
CONTINUOUS
 62
4
 10
-0.882404491682088
 20
0.574225051632851
 30
0.0
 11
-0.90999349148688
 21
0.574225051632851
 31
0.0
  0
ARC
  8
4
  6
CONTINUOUS
 62
4
 10
-0.939225842188768
 20
0.581773031569814
 30
0.0
 40
0.0573204839000117
 50
269.999199145475
 51
352.433297341486
  0
LINE
  8
4
  6
CONTINUOUS
 62
4
 10
-1.03728447000186
 20
0.524452334977846
 30
0.0
 11
-0.939226643388592
 21
0.524452547675401
 31
0.0
  0
ARC
  8
4
  6
CONTINUOUS
 62
4
 10
-1.03728447000186
 20
0.581772092613297
 30
0.0
 40
0.0573197576354504
 50
90
 51
270
  0
LINE
  8
4
  6
CONTINUOUS
 62
4
 10
-0.939226643388592
 20
0.639091850248747
 30
0.0
 11
-1.03728447000186
 21
0.639091850248747
 31
0.0
  0
ARC
  8
4
  6
CONTINUOUS
 62
4
 10
-0.939225745594408
 20
0.581771250815859
 30
0.0
 40
0.05732059943992
 50
7.56830513434387
 51
90.0008974054394
  0
LINE
  8
4
  6
CONTINUOUS
 62
4
 10
-0.90999349148688
 20
0.589320835174179
 30
0.0
 11
-0.882404491682088
 21
0.589320835174179
 31
0.0
  0
ARC
  8
4
  6
CONTINUOUS
 62
4
 10
-0.939226116630032
 20
0.581772536484808
 30
0.0
 40
0.030191442262073
 50
14.4783709045348
 51
90.0009996555304
  0
LINE
  8
4
  6
CONTINUOUS
 62
4
 10
-1.09460433398609
 20
0.760174399843037
 30
0.0
 11
-0.911614636597696
 21
0.760174399843037
 31
0.0
  0
LINE
  8
4
  6
CONTINUOUS
 62
4
 10
-0.8818897636
 20
0.742522842485855
 30
0.0
 11
-0.8818897636
 21
0.788037992190797
 31
0.0
  0
LINE
  8
4
  6
CONTINUOUS
 62
4
 10
-1.06023453614122
 20
0.686789702258807
 30
0.0
 11
-0.8818897636
 21
0.742522842485855
 31
0.0
  0
LINE
  8
4
  6
CONTINUOUS
 62
4
 10
-0.8818897636
 20
0.686789702258807
 30
0.0
 11
-1.06023453614122
 21
0.686789702258807
 31
0.0
  0
LINE
  8
4
  6
CONTINUOUS
 62
4
 10
-0.8818897636
 20
0.658924195633056
 30
0.0
 11
-0.8818897636
 21
0.686789702258807
 31
0.0
  0
LINE
  8
4
  6
CONTINUOUS
 62
4
 10
-1.09460433398609
 20
0.658924195633056
 30
0.0
 11
-0.8818897636
 21
0.658924195633056
 31
0.0
  0
LINE
  8
4
  6
CONTINUOUS
 62
4
 10
-1.09460433398609
 20
0.704439345337998
 30
0.0
 11
-1.09460433398609
 21
0.658924195633056
 31
0.0
  0
LINE
  8
4
  6
CONTINUOUS
 62
4
 10
-0.911614636597696
 20
0.760174399843037
 30
0.0
 11
-1.09460433398609
 21
0.704439345337998
 31
0.0
  0
LINE
  8
4
  6
CONTINUOUS
 62
4
 10
-0.158501287561527
 20
0.418673930770282
 30
0.0
 11
-0.158501287561527
 21
0.362494714114554
 31
0.0
  0
LINE
  8
4
  6
CONTINUOUS
 62
4
 10
-0.138116257517876
 20
0.418673930770283
 30
0.0
 11
-0.158501287561527
 21
0.418673930770282
 31
0.0
  0
ARC
  8
4
  6
CONTINUOUS
 62
4
 10
-0.138950916581827
 20
0.404629126606351
 30
0.0
 40
0.0140695834961894
 50
273.400991681353
 51
86.5990083186468
  0
LINE
  8
4
  6
CONTINUOUS
 62
4
 10
-0.157658599311354
 20
0.390584322442418
 30
0.0
 11
-0.138116257517876
 21
0.390584322442419
 31
0.0
  0
LINE
  8
4
  6
CONTINUOUS
 62
4
 10
-0.118453531686124
 20
0.37854623478118
 30
0.0
 11
-0.118453531686124
 21
0.418673930770282
 31
0.0
  0
ARC
  8
4
  6
CONTINUOUS
 62
4
 10
-0.102001836697468
 20
0.378811549623246
 30
0.0
 40
0.0164538342025555
 50
180.923923222649
 51
0.472476699574417
  0
LINE
  8
4
  6
CONTINUOUS
 62
4
 10
-0.0855485619306259
 20
0.418673930770282
 30
0.0
 11
-0.0855485619306253
 21
0.37894723091144
 31
0.0
  0
LINE
  8
4
  6
CONTINUOUS
 62
4
 10
-0.0771216794288959
 20
0.418673930770282
 30
0.0
 11
-0.0771216794288959
 21
0.362494714114554
 31
0.0
  0
LINE
  8
4
  6
CONTINUOUS
 62
4
 10
-0.0567366493852435
 20
0.418673930770283
 30
0.0
 11
-0.0771216794288959
 21
0.418673930770282
 31
0.0
  0
ARC
  8
4
  6
CONTINUOUS
 62
4
 10
-0.0570073244650187
 20
0.404629147398062
 30
0.0
 40
0.0140473913938292
 50
271.09526400054
 51
88.895916039319
  0
LINE
  8
4
  6
CONTINUOUS
 62
4
 10
-0.0752779529089022
 20
0.390584322525246
 30
0.0
 11
-0.0567388114050957
 21
0.390584322525246
 31
0.0
  0
LINE
  8
4
  6
CONTINUOUS
 62
4
 10
-0.0426918452213133
 20
0.362494714114554
 30
0.0
 11
-0.0559384169279998
 21
0.388983770644915
 31
0.0
  0
LINE
  8
4
  6
CONTINUOUS
 62
4
 10
-0.0356694431365395
 20
0.418673930770282
 30
0.0
 11
-0.0356694431365395
 21
0.362494714114554
 31
0.0
  0
LINE
  8
4
  6
CONTINUOUS
 62
4
 10
-0.0152844130928889
 20
0.418673930770283
 30
0.0
 11
-0.0356694431365395
 21
0.418673930770282
 31
0.0
  0
ARC
  8
4
  6
CONTINUOUS
 62
4
 10
-0.0161190721568391
 20
0.404629126606351
 30
0.0
 40
0.0140695834961894
 50
273.400991681353
 51
86.5990083186468
  0
LINE
  8
4
  6
CONTINUOUS
 62
4
 10
-0.0348267548863665
 20
0.390584322442418
 30
0.0
 11
-0.0152844130928883
 21
0.390584322442419
 31
0.0
  0
LINE
  8
4
  6
CONTINUOUS
 62
4
 10
0.00437831273886375
 20
0.362494714114554
 30
0.0
 11
0.00437831273886375
 21
0.418673930770282
 31
0.0
  0
LINE
  8
4
  6
CONTINUOUS
 62
4
 10
0.0373234105062587
 20
0.362494714114554
 30
0.0
 11
0.00437831273886375
 21
0.362494714114554
 31
0.0
  0
LINE
  8
4
  6
CONTINUOUS
 62
4
 10
0.0447502591669696
 20
0.362494129365134
 30
0.0
 11
0.0776953569343637
 21
0.362494129365134
 31
0.0
  0
LINE
  8
4
  6
CONTINUOUS
 62
4
 10
0.0447301951610205
 20
0.390583737692999
 30
0.0
 11
0.0447502591669696
 21
0.362494129365134
 31
0.0
  0
LINE
  8
4
  6
CONTINUOUS
 62
4
 10
0.0704723147929131
 20
0.390583737692999
 30
0.0
 11
0.0447301951610205
 21
0.390583737692999
 31
0.0
  0
LINE
  8
4
  6
CONTINUOUS
 62
4
 10
0.0447101311550721
 20
0.418673346020863
 30
0.0
 11
0.0447289916596016
 21
0.391425951430031
 31
0.0
  0
LINE
  8
4
  6
CONTINUOUS
 62
4
 10
0.0748863961004537
 20
0.418673346020863
 30
0.0
 11
0.0447101311550721
 21
0.418673346020863
 31
0.0
  0
ARC
  8
4
  6
CONTINUOUS
 62
4
 10
0.163791820343209
 20
0.378655537796269
 30
0.0
 40
0.0161945139276673
 50
210.521999666256
 51
269.441063338048
  0
LINE
  8
4
  6
CONTINUOUS
 62
4
 10
0.169358780133311
 20
0.362405944272584
 30
0.0
 11
0.163633840749148
 21
0.362461794442699
 31
0.0
  0
ARC
  8
4
  6
CONTINUOUS
 62
4
 10
0.169502999405778
 20
0.377189190922046
 30
0.0
 40
0.0147839501046703
 50
269.441063677774
 51
357.350682656727
  0
ARC
  8
4
  6
CONTINUOUS
 62
4
 10
0.172245745060875
 20
0.375415188878442
 30
0.0
 40
0.0120747595478665
 50
5.18227244383146
 51
59.3448299999935
  0
LINE
  8
4
  6
CONTINUOUS
 62
4
 10
0.156292003217392
 20
0.395298747183021
 30
0.0
 11
0.17840230254904
 21
0.385802518565793
 31
0.0
  0
ARC
  8
4
  6
CONTINUOUS
 62
4
 10
0.162448564733165
 20
0.405686071623733
 30
0.0
 40
0.0120747570879962
 50
185.182406440221
 51
239.344800865822
  0
ARC
  8
4
  6
CONTINUOUS
 62
4
 10
0.16513213187447
 20
0.403951120701027
 30
0.0
 40
0.0147230682584808
 50
91.2613438550526
 51
177.491952931064
  0
LINE
  8
4
  6
CONTINUOUS
 62
4
 10
0.17051936124073
 20
0.418676626989495
 30
0.0
 11
0.164808035547805
 21
0.418670621389397
 31
0.0
  0
ARC
  8
4
  6
CONTINUOUS
 62
4
 10
0.17000929441919
 20
0.403002446493171
 30
0.0
 40
0.0156824775591673
 50
29.2717084966244
 51
88.1361471074761
  0
LINE
  8
4
  6
CONTINUOUS
 62
4
 10
0.235774421721101
 20
0.363267865316115
 30
0.0
 11
0.217952811113375
 21
0.376872149338525
 31
0.0
  0
ARC
  8
4
  6
CONTINUOUS
 62
4
 10
0.21565776170335
 20
0.379004941132443
 30
0.0
 40
0.0167071372412475
 50
195.902080827325
 51
315.740300551128
  0
ARC
  8
4
  6
CONTINUOUS
 62
4
 10
0.246995244896837
 20
0.390478504287847
 30
0.0
 40
0.0500489806622665
 50
161.294116943041
 51
198.705883056959
  0
ARC
  8
4
  6
CONTINUOUS
 62
4
 10
0.215657759640126
 20
0.401973397097769
 30
0.0
 40
0.0167013072407983
 50
15.8327716419897
 51
164.16829435536
  0
ARC
  8
4
  6
CONTINUOUS
 62
4
 10
0.184982931928593
 20
0.390770841236003
 30
0.0
 40
0.0493276317000525
 50
335.0528006703
 51
18.6314696013476
  0
LINE
  8
4
  6
CONTINUOUS
 62
4
 10
0.240949340819114
 20
0.37854623478118
 30
0.0
 11
0.240949340819114
 21
0.418673930770282
 31
0.0
  0
ARC
  8
4
  6
CONTINUOUS
 62
4
 10
0.25740103580777
 20
0.378811549623246
 30
0.0
 40
0.0164538342025555
 50
180.923923222649
 51
0.472476699574417
  0
LINE
  8
4
  6
CONTINUOUS
 62
4
 10
0.273854310574611
 20
0.418673930770282
 30
0.0
 11
0.273854310574612
 21
0.37894723091144
 31
0.0
  0
LINE
  8
4
  6
CONTINUOUS
 62
4
 10
0.30053943848833
 20
0.418673930770282
 30
0.0
 11
0.279472232242431
 21
0.362494714114554
 31
0.0
  0
LINE
  8
4
  6
CONTINUOUS
 62
4
 10
0.321606644734229
 20
0.362494714114554
 30
0.0
 11
0.30053943848833
 21
0.418673930770282
 31
0.0
  0
LINE
  8
4
  6
CONTINUOUS
 62
4
 10
0.315406866895475
 20
0.374533117683638
 30
0.0
 11
0.285672010081185
 21
0.374533117683638
 31
0.0
  0
LINE
  8
4
  6
CONTINUOUS
 62
4
 10
0.330033527235959
 20
0.418673930770282
 30
0.0
 11
0.330033527235959
 21
0.362494714114554
 31
0.0
  0
LINE
  8
4
  6
CONTINUOUS
 62
4
 10
0.350418557279611
 20
0.418673930770283
 30
0.0
 11
0.330033527235959
 21
0.418673930770282
 31
0.0
  0
ARC
  8
4
  6
CONTINUOUS
 62
4
 10
0.350147882199835
 20
0.404629147398062
 30
0.0
 40
0.0140473913938292
 50
271.09526400054
 51
88.895916039319
  0
LINE
  8
4
  6
CONTINUOUS
 62
4
 10
0.331877253755952
 20
0.390584322525246
 30
0.0
 11
0.350416395259759
 21
0.390584322525246
 31
0.0
  0
LINE
  8
4
  6
CONTINUOUS
 62
4
 10
0.364463361443542
 20
0.362494714114554
 30
0.0
 11
0.351216789736854
 21
0.388983770644915
 31
0.0
  0
LINE
  8
4
  6
CONTINUOUS
 62
4
 10
0.370686369748467
 20
0.362494129365134
 30
0.0
 11
0.403631467515861
 21
0.362494129365134
 31
0.0
  0
LINE
  8
4
  6
CONTINUOUS
 62
4
 10
0.370666305742518
 20
0.390583737692999
 30
0.0
 11
0.370686369748467
 21
0.362494129365134
 31
0.0
  0
LINE
  8
4
  6
CONTINUOUS
 62
4
 10
0.396408425374411
 20
0.390583737692999
 30
0.0
 11
0.370666305742518
 21
0.390583737692999
 31
0.0
  0
LINE
  8
4
  6
CONTINUOUS
 62
4
 10
0.370646241736569
 20
0.418673346020863
 30
0.0
 11
0.370665102241099
 21
0.391425951430031
 31
0.0
  0
LINE
  8
4
  6
CONTINUOUS
 62
4
 10
0.400822506681951
 20
0.418673346020863
 30
0.0
 11
0.370646241736569
 21
0.418673346020863
 31
0.0
  0
LINE
  8
4
  6
CONTINUOUS
 62
4
 10
-1.09460433398675
 20
0.788037992189711
 30
0.0
 11
-1.09460433398646
 21
0.76017248556396
 31
0.0
  0
LINE
  8
4
  6
CONTINUOUS
 62
4
 10
-0.881889763600659
 20
0.788037992191882
 30
0.0
 11
-1.09460433398675
 21
0.788037992189711
 31
0.0
  0
ARC
  8
5
  6
CONTINUOUS
 62
5
 10
-0.62992126
 20
-0.629921259999995
 30
0.0
 40
0.0535433072000001
 50
359.999999999996
 51
180
  0
ARC
  8
5
  6
CONTINUOUS
 62
5
 10
-0.62992126
 20
-0.629921260000001
 30
0.0
 40
0.0535433072000001
 50
179.999999999996
 51
359.999999999996
  0
ARC
  8
5
  6
CONTINUOUS
 62
5
 10
-0.62992126
 20
0.62992126
 30
0.0
 40
0.0535433072000001
 50
179.999999999997
 51
359.999999999998
  0
ARC
  8
5
  6
CONTINUOUS
 62
5
 10
-0.62992126
 20
0.629921260000004
 30
0.0
 40
0.0535433072000001
 50
359.999999999996
 51
180
  0
ARC
  8
5
  6
CONTINUOUS
 62
5
 10
0.62992126
 20
-0.629921259999997
 30
0.0
 40
0.0535433071999999
 50
359.999999999996
 51
180
  0
ARC
  8
5
  6
CONTINUOUS
 62
5
 10
0.62992126
 20
-0.62992126
 30
0.0
 40
0.0535433071999999
 50
179.999999999997
 51
359.999999999998
  0
ARC
  8
5
  6
CONTINUOUS
 62
5
 10
0.62992126
 20
0.629921259999999
 30
0.0
 40
0.0535433071999999
 50
179.999999999997
 51
359.999999999996
  0
ARC
  8
5
  6
CONTINUOUS
 62
5
 10
0.62992126
 20
0.629921260000005
 30
0.0
 40
0.0535433071999999
 50
359.999999999996
 51
180
  0
LINE
  8
5
  6
CONTINUOUS
 62
5
 10
-0.138212135475773
 20
0.272749547040569
 30
0.0
 11
-0.158501286845812
 21
0.272749547040569
 31
0.0
  0
ARC
  8
5
  6
CONTINUOUS
 62
5
 10
-0.138216576833197
 20
0.258704743578877
 30
0.0
 40
0.0140448041639322
 50
270.000000002512
 51
89.9818814817914
  0
LINE
  8
5
  6
CONTINUOUS
 62
5
 10
-0.160186663346158
 20
0.244659939414945
 30
0.0
 11
-0.138216576832581
 21
0.244659939414945
 31
0.0
  0
LINE
  8
5
  6
CONTINUOUS
 62
5
 10
-0.160186663346158
 20
0.300769283309313
 30
0.0
 11
-0.160186663346158
 21
0.244659939414945
 31
0.0
  0
LINE
  8
5
  6
CONTINUOUS
 62
5
 10
-0.140724577576136
 20
0.300769283309313
 30
0.0
 11
-0.160186663346158
 21
0.300769283309313
 31
0.0
  0
ARC
  8
5
  6
CONTINUOUS
 62
5
 10
-0.140836807509105
 20
0.286668185157214
 30
0.0
 40
0.0141015447612308
 50
296.191824756092
 51
89.5439953928133
  0
LINE
  8
5
  6
CONTINUOUS
 62
5
 10
-0.118553851001446
 20
0.244590066653586
 30
0.0
 11
-0.118553851001446
 21
0.300769283309313
 31
0.0
  0
LINE
  8
5
  6
CONTINUOUS
 62
5
 10
-0.0856087532340512
 20
0.244590066653586
 30
0.0
 11
-0.118553851001446
 21
0.244590066653586
 31
0.0
  0
LINE
  8
5
  6
CONTINUOUS
 62
5
 10
-0.0787869912104462
 20
0.260641587320211
 30
0.0
 11
-0.0787869912104462
 21
0.300769283309313
 31
0.0
  0
ARC
  8
5
  6
CONTINUOUS
 62
5
 10
-0.0623352962217902
 20
0.260906902162277
 30
0.0
 40
0.0164538342025555
 50
180.923923222649
 51
0.472476699574633
  0
LINE
  8
5
  6
CONTINUOUS
 62
5
 10
-0.0458820214549483
 20
0.300769283309313
 30
0.0
 11
-0.0458820214549476
 21
0.261042583450471
 31
0.0
  0
LINE
  8
5
  6
CONTINUOUS
 62
5
 10
-0.0396590131500223
 20
0.244589481904166
 30
0.0
 11
-0.00671391538262778
 21
0.244589481904166
 31
0.0
  0
LINE
  8
5
  6
CONTINUOUS
 62
5
 10
-0.0396790771559713
 20
0.272679090232031
 30
0.0
 11
-0.0396590131500223
 21
0.244589481904166
 31
0.0
  0
LINE
  8
5
  6
CONTINUOUS
 62
5
 10
-0.0139369575240786
 20
0.272679090232031
 30
0.0
 11
-0.0396790771559713
 21
0.272679090232031
 31
0.0
  0
LINE
  8
5
  6
CONTINUOUS
 62
5
 10
-0.0396991411619198
 20
0.300768698559895
 30
0.0
 11
-0.0396802806573901
 21
0.273521303969062
 31
0.0
  0
LINE
  8
5
  6
CONTINUOUS
 62
5
 10
-0.00952287621653779
 20
0.300768698559895
 30
0.0
 11
-0.0396991411619198
 21
0.300768698559895
 31
0.0
  0
ARC
  8
5
  6
CONTINUOUS
 62
5
 10
0.0793609350828214
 20
0.264051047225331
 30
0.0
 40
0.0206598446125364
 50
204.386837237007
 51
324.320000000001
  0
ARC
  8
5
  6
CONTINUOUS
 62
5
 10
0.107949643838303
 20
0.271571898035527
 30
0.0
 40
0.0500489658039817
 50
161.294134617644
 51
198.705865382356
  0
ARC
  8
5
  6
CONTINUOUS
 62
5
 10
0.0793609390956211
 20
0.279092751136112
 30
0.0
 40
0.0206598486253361
 50
35.6800299999893
 51
155.613174782251
  0
LINE
  8
5
  6
CONTINUOUS
 62
5
 10
0.104865220509424
 20
0.24357339613783
 30
0.0
 11
0.120916416742408
 21
0.24357339613783
 31
0.0
  0
LINE
  8
5
  6
CONTINUOUS
 62
5
 10
0.112890816745619
 20
0.245258772115358
 30
0.0
 11
0.112890816745619
 21
0.298067220115358
 31
0.0
  0
LINE
  8
5
  6
CONTINUOUS
 62
5
 10
0.104865220509424
 20
0.299752596115358
 30
0.0
 11
0.120831942794323
 21
0.299752596115358
 31
0.0
  0
LINE
  8
5
  6
CONTINUOUS
 62
5
 10
0.129406662794323
 20
0.243573399783919
 30
0.0
 11
0.129406662794323
 21
0.299752599761447
 31
0.0
  0
LINE
  8
5
  6
CONTINUOUS
 62
5
 10
0.129406662794323
 20
0.299752599761447
 30
0.0
 11
0.149791686786171
 21
0.299752599761448
 31
0.0
  0
ARC
  8
5
  6
CONTINUOUS
 62
5
 10
0.149521011786753
 20
0.285707820558771
 30
0.0
 40
0.014047387223511
 50
271.095264000539
 51
88.8959160393194
  0
LINE
  8
5
  6
CONTINUOUS
 62
5
 10
0.149789524766961
 20
0.271662999855511
 30
0.0
 11
0.13125038876696
 21
0.271662999855511
 31
0.0
  0
LINE
  8
5
  6
CONTINUOUS
 62
5
 10
0.15058991900644
 20
0.270062448450344
 30
0.0
 11
0.163836486780552
 21
0.243573399783919
 31
0.0
  0
ARC
  8
5
  6
CONTINUOUS
 62
5
 10
0.190914664544767
 20
0.264051047225331
 30
0.0
 40
0.0206598446125361
 50
204.386837237007
 51
324.320000000001
  0
ARC
  8
5
  6
CONTINUOUS
 62
5
 10
0.219503373300248
 20
0.271571898035527
 30
0.0
 40
0.0500489658039817
 50
161.294134617644
 51
198.705865382356
  0
ARC
  8
5
  6
CONTINUOUS
 62
5
 10
0.190914668557567
 20
0.279092751136112
 30
0.0
 40
0.0206598486253361
 50
35.6800299999893
 51
155.613174782251
  0
LINE
  8
5
  6
CONTINUOUS
 62
5
 10
0.213314312256269
 20
0.299752599761447
 30
0.0
 11
0.213314312256269
 21
0.243573399783919
 31
0.0
  0
LINE
  8
5
  6
CONTINUOUS
 62
5
 10
0.213314312256269
 20
0.243573399783919
 30
0.0
 11
0.246259400243091
 21
0.243573399783919
 31
0.0
  0
LINE
  8
5
  6
CONTINUOUS
 62
5
 10
0.286631334685779
 20
0.243572815034673
 30
0.0
 11
0.253686246698957
 21
0.243572815034673
 31
0.0
  0
LINE
  8
5
  6
CONTINUOUS
 62
5
 10
0.253686246698957
 20
0.243572815034673
 30
0.0
 11
0.253666182698964
 21
0.271662415023437
 31
0.0
  0
LINE
  8
5
  6
CONTINUOUS
 62
5
 10
0.253666182698964
 20
0.271662415023437
 30
0.0
 11
0.279408294688667
 21
0.271662415023437
 31
0.0
  0
LINE
  8
5
  6
CONTINUOUS
 62
5
 10
0.253664979197902
 20
0.272504628510437
 30
0.0
 11
0.253646118698972
 21
0.299752015012201
 31
0.0
  0
LINE
  8
5
  6
CONTINUOUS
 62
5
 10
0.253646118698972
 20
0.299752015012201
 30
0.0
 11
0.283822374685779
 21
0.299752015012201
 31
0.0
  0
ARC
  8
5
  6
CONTINUOUS
 62
5
 10
0.307678172534743
 20
0.25973421866789
 30
0.0
 40
0.0161945091199222
 50
210.521999666255
 51
269.441063338047
  0
LINE
  8
5
  6
CONTINUOUS
 62
5
 10
0.307520192987583
 20
0.243540480121838
 30
0.0
 11
0.313245130672155
 21
0.243484629968303
 31
0.0
  0
ARC
  8
5
  6
CONTINUOUS
 62
5
 10
0.313389349901807
 20
0.25826787222899
 30
0.0
 40
0.0147839457156864
 50
269.441063677773
 51
357.350682656725
  0
ARC
  8
5
  6
CONTINUOUS
 62
5
 10
0.31613209474265
 20
0.256493870712043
 30
0.0
 40
0.0120747559631734
 50
5.18227244383255
 51
59.3448299999946
  0
LINE
  8
5
  6
CONTINUOUS
 62
5
 10
0.322288650403087
 20
0.266881197315655
 30
0.0
 11
0.300178357635434
 21
0.276377423113691
 31
0.0
  0
ARC
  8
5
  6
CONTINUOUS
 62
5
 10
0.306334917323478
 20
0.286764744470667
 30
0.0
 40
0.0120747535033039
 50
185.18240644022
 51
239.344800865821
  0
ARC
  8
5
  6
CONTINUOUS
 62
5
 10
0.309018483668099
 20
0.285029794063025
 30
0.0
 40
0.0147230638875713
 50
91.2613438550525
 51
177.491952931064
  0
LINE
  8
5
  6
CONTINUOUS
 62
5
 10
0.308694387437652
 20
0.299749290381545
 30
0.0
 11
0.314405711435026
 21
0.29975529597986
 31
0.0
  0
ARC
  8
5
  6
CONTINUOUS
 62
5
 10
0.313895644764911
 20
0.284081120136807
 30
0.0
 40
0.0156824729034329
 50
29.2717084966239
 51
88.1361471074755
  0
LINE
  8
6
  6
CONTINUOUS
 62
6
 10
0.0325694746629958
 20
-0.491096361584729
 30
0.0
 11
0.0646718746501547
 21
-0.491096361584729
 31
0.0
  0
LINE
  8
6
  6
CONTINUOUS
 62
6
 10
0.048620674656575
 20
-0.507147561578307
 30
0.0
 11
0.048620674656575
 21
-0.475045161591149
 31
0.0
  0
LINE
  8
6
  6
CONTINUOUS
 62
6
 10
-0.412912809769896
 20
-0.628319815723039
 30
0.0
 11
-0.412912809769896
 21
-0.572140615745511
 31
0.0
  0
LINE
  8
6
  6
CONTINUOUS
 62
6
 10
-0.412912809769896
 20
-0.572140615745511
 30
0.0
 11
-0.392527785778049
 21
-0.572140615745509
 31
0.0
  0
ARC
  8
6
  6
CONTINUOUS
 62
6
 10
-0.39336244459421
 20
-0.586185415739892
 30
0.0
 40
0.0140695793192829
 50
273.400991681353
 51
86.5990083186469
  0
LINE
  8
6
  6
CONTINUOUS
 62
6
 10
-0.392527785778048
 20
-0.600230215734274
 30
0.0
 11
-0.412070121769896
 21
-0.600230215734274
 31
0.0
  0
LINE
  8
6
  6
CONTINUOUS
 62
6
 10
-0.370056105783667
 20
-0.628319815723039
 30
0.0
 11
-0.370056105783667
 21
-0.572140615745511
 31
0.0
  0
LINE
  8
6
  6
CONTINUOUS
 62
6
 10
-0.370056105783667
 20
-0.572140615745511
 30
0.0
 11
-0.349671081791818
 21
-0.57214061574551
 31
0.0
  0
ARC
  8
6
  6
CONTINUOUS
 62
6
 10
-0.349941756791238
 20
-0.586185394948187
 30
0.0
 40
0.0140473872235111
 50
271.09526400054
 51
88.8959160393196
  0
LINE
  8
6
  6
CONTINUOUS
 62
6
 10
-0.349673243811028
 20
-0.600230215651447
 30
0.0
 11
-0.368212379811029
 21
-0.600230215651447
 31
0.0
  0
LINE
  8
6
  6
CONTINUOUS
 62
6
 10
-0.34887284957155
 20
-0.601830767056614
 30
0.0
 11
-0.335626281797439
 21
-0.628319815723039
 31
0.0
  0
LINE
  8
6
  6
CONTINUOUS
 62
6
 10
-0.296458187353147
 20
-0.628320400472285
 30
0.0
 11
-0.329403275339967
 21
-0.628320400472285
 31
0.0
  0
LINE
  8
6
  6
CONTINUOUS
 62
6
 10
-0.329403275339967
 20
-0.628320400472285
 30
0.0
 11
-0.329423339339961
 21
-0.600230800483519
 31
0.0
  0
LINE
  8
6
  6
CONTINUOUS
 62
6
 10
-0.329423339339961
 20
-0.600230800483519
 30
0.0
 11
-0.303681227350256
 21
-0.600230800483519
 31
0.0
  0
LINE
  8
6
  6
CONTINUOUS
 62
6
 10
-0.329424542841022
 20
-0.599388586996521
 30
0.0
 11
-0.329443403339952
 21
-0.572141200494756
 31
0.0
  0
LINE
  8
6
  6
CONTINUOUS
 62
6
 10
-0.329443403339952
 20
-0.572141200494756
 30
0.0
 11
-0.299267147353146
 21
-0.572141200494756
 31
0.0
  0
ARC
  8
6
  6
CONTINUOUS
 62
6
 10
-0.275411349504183
 20
-0.612158996839068
 30
0.0
 40
0.0161945091199224
 50
210.521999666255
 51
269.441063338047
  0
LINE
  8
6
  6
CONTINUOUS
 62
6
 10
-0.275569329051342
 20
-0.628352735385121
 30
0.0
 11
-0.26984439136677
 21
-0.628408585538655
 31
0.0
  0
ARC
  8
6
  6
CONTINUOUS
 62
6
 10
-0.269700172137119
 20
-0.613625343277968
 30
0.0
 40
0.0147839457156862
 50
269.441063677774
 51
357.350682656727
  0
ARC
  8
6
  6
CONTINUOUS
 62
6
 10
-0.266957427296273
 20
-0.615399344794915
 30
0.0
 40
0.0120747559631728
 50
5.18227244383148
 51
59.3448299999936
  0
LINE
  8
6
  6
CONTINUOUS
 62
6
 10
-0.260800871635837
 20
-0.605012018191303
 30
0.0
 11
-0.282911164403491
 21
-0.595515792393266
 31
0.0
  0
ARC
  8
6
  6
CONTINUOUS
 62
6
 10
-0.276754604715446
 20
-0.585128471036291
 30
0.0
 40
0.0120747535033035
 50
185.18240644022
 51
239.344800865821
  0
ARC
  8
6
  6
CONTINUOUS
 62
6
 10
-0.274071038370826
 20
-0.586863421443933
 30
0.0
 40
0.014723063887571
 50
91.2613438550524
 51
177.491952931065
  0
LINE
  8
6
  6
CONTINUOUS
 62
6
 10
-0.274395134601274
 20
-0.572143925125413
 30
0.0
 11
-0.268683810603898
 21
-0.572137919527098
 31
0.0
  0
ARC
  8
6
  6
CONTINUOUS
 62
6
 10
-0.269193877274014
 20
-0.587812095370151
 30
0.0
 40
0.0156824729034331
 50
29.2717084966227
 51
88.1361471074745
  0
ARC
  8
6
  6
CONTINUOUS
 62
6
 10
-0.227079730400097
 20
-0.612158996839068
 30
0.0
 40
0.0161945091199224
 50
210.521999666255
 51
269.441063338047
  0
LINE
  8
6
  6
CONTINUOUS
 62
6
 10
-0.227237709947257
 20
-0.628352735385121
 30
0.0
 11
-0.221512772262685
 21
-0.628408585538655
 31
0.0
  0
ARC
  8
6
  6
CONTINUOUS
 62
6
 10
-0.221368553033033
 20
-0.613625343277968
 30
0.0
 40
0.0147839457156864
 50
269.441063677774
 51
357.350682656726
  0
ARC
  8
6
  6
CONTINUOUS
 62
6
 10
-0.218625808192189
 20
-0.615399344794915
 30
0.0
 40
0.0120747559631734
 50
5.18227244383192
 51
59.3448299999941
  0
LINE
  8
6
  6
CONTINUOUS
 62
6
 10
-0.212469252531751
 20
-0.605012018191303
 30
0.0
 11
-0.234579545299406
 21
-0.595515792393266
 31
0.0
  0
ARC
  8
6
  6
CONTINUOUS
 62
6
 10
-0.228422985611361
 20
-0.585128471036291
 30
0.0
 40
0.0120747535033033
 50
185.182406440218
 51
239.344800865819
  0
ARC
  8
6
  6
CONTINUOUS
 62
6
 10
-0.22573941926674
 20
-0.586863421443933
 30
0.0
 40
0.0147230638875712
 50
91.2613438550521
 51
177.491952931064
  0
LINE
  8
6
  6
CONTINUOUS
 62
6
 10
-0.226063515497188
 20
-0.572143925125413
 30
0.0
 11
-0.220352191499813
 21
-0.572137919527098
 31
0.0
  0
ARC
  8
6
  6
CONTINUOUS
 62
6
 10
-0.220862258169927
 20
-0.587812095370151
 30
0.0
 40
0.0156824729034334
 50
29.2717084966235
 51
88.1361471074753
  0
ARC
  8
6
  6
CONTINUOUS
 62
6
 10
-0.391452552721396
 20
0.382972378234167
 30
0.0
 40
0.0206598446125361
 50
204.38683723701
 51
324.320000000004
  0
ARC
  8
6
  6
CONTINUOUS
 62
6
 10
-0.362863843965914
 20
0.390493229044362
 30
0.0
 40
0.0500489658039819
 50
161.294134617644
 51
198.705865382356
  0
ARC
  8
6
  6
CONTINUOUS
 62
6
 10
-0.391452548708596
 20
0.398014082144947
 30
0.0
 40
0.0206598486253359
 50
35.6800299999887
 51
155.613174782251
  0
LINE
  8
6
  6
CONTINUOUS
 62
6
 10
-0.369052905009894
 20
0.418673930770282
 30
0.0
 11
-0.369052905009894
 21
0.362494730792754
 31
0.0
  0
LINE
  8
6
  6
CONTINUOUS
 62
6
 10
-0.369052905009894
 20
0.362494730792754
 30
0.0
 11
-0.336107817023072
 21
0.362494730792754
 31
0.0
  0
LINE
  8
6
  6
CONTINUOUS
 62
6
 10
-0.326181419309577
 20
0.362494727146665
 30
0.0
 11
-0.310130223076593
 21
0.362494727146665
 31
0.0
  0
LINE
  8
6
  6
CONTINUOUS
 62
6
 10
-0.318155823073381
 20
0.364180103124193
 30
0.0
 11
-0.318155823073381
 21
0.416988551124193
 31
0.0
  0
LINE
  8
6
  6
CONTINUOUS
 62
6
 10
-0.326181419309577
 20
0.418673927124193
 30
0.0
 11
-0.310214697024678
 21
0.418673927124193
 31
0.0
  0
ARC
  8
6
  6
CONTINUOUS
 62
6
 10
-0.282988679260461
 20
0.382972378234166
 30
0.0
 40
0.0206598446125364
 50
204.386837237007
 51
324.320000000001
  0
ARC
  8
6
  6
CONTINUOUS
 62
6
 10
-0.25439997050498
 20
0.390493229044362
 30
0.0
 40
0.0500489658039819
 50
161.294134617644
 51
198.705865382356
  0
ARC
  8
6
  6
CONTINUOUS
 62
6
 10
-0.282988675247662
 20
0.398014082144947
 30
0.0
 40
0.0206598486253361
 50
35.6800299999897
 51
155.613174782251
  0
LINE
  8
6
  6
CONTINUOUS
 62
6
 10
-0.26058903154896
 20
0.418673930770282
 30
0.0
 11
-0.26058903154896
 21
0.362494730792754
 31
0.0
  0
LINE
  8
6
  6
CONTINUOUS
 62
6
 10
-0.229168807561528
 20
0.362494730792754
 30
0.0
 11
-0.245615130488201
 21
0.396975163853207
 31
0.0
  0
LINE
  8
6
  6
CONTINUOUS
 62
6
 10
-0.258940952547676
 20
0.38381522773101
 30
0.0
 11
-0.229168807561528
 21
0.418673930770282
 31
0.0
  0
LINE
  8
6
  6
CONTINUOUS
 62
6
 10
-0.39495552576428
 20
0.0264833326609611
 30
0.0
 11
-0.39495552576428
 21
0.0809585908632525
 31
0.0
  0
LINE
  8
6
  6
CONTINUOUS
 62
6
 10
-0.412912809769896
 20
0.0826625326384894
 30
0.0
 11
-0.376998249784262
 21
0.0826625326384894
 31
0.0
  0
LINE
  8
6
  6
CONTINUOUS
 62
6
 10
-0.371380329784263
 20
0.0826625287240364
 30
0.0
 11
-0.35368897995015
 21
0.0560303891888152
 31
0.0
  0
LINE
  8
6
  6
CONTINUOUS
 62
6
 10
-0.352720809791726
 20
0.0264833287465081
 30
0.0
 11
-0.352720809791726
 21
0.0545729287352722
 31
0.0
  0
LINE
  8
6
  6
CONTINUOUS
 62
6
 10
-0.352720809791726
 20
0.0545729287352722
 30
0.0
 11
-0.33406128979919
 21
0.0826625287240364
 31
0.0
  0
LINE
  8
6
  6
CONTINUOUS
 62
6
 10
-0.327038889799191
 20
0.0264833287465081
 30
0.0
 11
-0.327038889799191
 21
0.0826625287240364
 31
0.0
  0
LINE
  8
6
  6
CONTINUOUS
 62
6
 10
-0.327038889799191
 20
0.0826625287240364
 30
0.0
 11
-0.306653865807345
 21
0.0826625287240373
 31
0.0
  0
ARC
  8
6
  6
CONTINUOUS
 62
6
 10
-0.307488524623505
 20
0.0686177287296553
 30
0.0
 40
0.0140695793192831
 50
273.400991681353
 51
86.5990083186469
  0
LINE
  8
6
  6
CONTINUOUS
 62
6
 10
-0.306653865807344
 20
0.0545729287352722
 30
0.0
 11
-0.326196201799191
 21
0.0545729287352722
 31
0.0
  0
LINE
  8
6
  6
CONTINUOUS
 62
6
 10
-0.253440971368669
 20
0.0264827439972624
 30
0.0
 11
-0.286386059355491
 21
0.0264827439972624
 31
0.0
  0
LINE
  8
6
  6
CONTINUOUS
 62
6
 10
-0.286386059355491
 20
0.0264827439972624
 30
0.0
 11
-0.286406123355483
 21
0.0545723439860266
 31
0.0
  0
LINE
  8
6
  6
CONTINUOUS
 62
6
 10
-0.286406123355483
 20
0.0545723439860266
 30
0.0
 11
-0.26066401136578
 21
0.0545723439860266
 31
0.0
  0
LINE
  8
6
  6
CONTINUOUS
 62
6
 10
-0.286407326856545
 20
0.0554145574730264
 30
0.0
 11
-0.286426187355476
 21
0.0826619439747907
 31
0.0
  0
LINE
  8
6
  6
CONTINUOUS
 62
6
 10
-0.286426187355476
 20
0.0826619439747907
 30
0.0
 11
-0.256249931368669
 21
0.0826619439747907
 31
0.0
  0
LINE
  8
6
  6
CONTINUOUS
 62
6
 10
-0.412912809769896
 20
-0.0826505254030387
 30
0.0
 11
-0.412912809769896
 21
-0.0264713254255103
 31
0.0
  0
LINE
  8
6
  6
CONTINUOUS
 62
6
 10
-0.412912809769896
 20
-0.0264713254255103
 30
0.0
 11
-0.392527785778048
 21
-0.0264713254255091
 31
0.0
  0
ARC
  8
6
  6
CONTINUOUS
 62
6
 10
-0.39336244459421
 20
-0.0405161254198915
 30
0.0
 40
0.0140695793192831
 50
273.400991681353
 51
86.5990083186469
  0
LINE
  8
6
  6
CONTINUOUS
 62
6
 10
-0.392527785778048
 20
-0.0545609254142739
 30
0.0
 11
-0.412070121769896
 21
-0.0545609254142744
 31
0.0
  0
LINE
  8
6
  6
CONTINUOUS
 62
6
 10
-0.370056105783666
 20
-0.0826505254030387
 30
0.0
 11
-0.370056105783666
 21
-0.0264713254255103
 31
0.0
  0
LINE
  8
6
  6
CONTINUOUS
 62
6
 10
-0.370056105783666
 20
-0.0264713254255103
 30
0.0
 11
-0.349671081791818
 21
-0.0264713254255099
 31
0.0
  0
ARC
  8
6
  6
CONTINUOUS
 62
6
 10
-0.349941756791237
 20
-0.040516104628187
 30
0.0
 40
0.014047387223511
 50
271.095264000539
 51
88.8959160393194
  0
LINE
  8
6
  6
CONTINUOUS
 62
6
 10
-0.349673243811028
 20
-0.0545609253314469
 30
0.0
 11
-0.368212379811028
 21
-0.0545609253314469
 31
0.0
  0
LINE
  8
6
  6
CONTINUOUS
 62
6
 10
-0.34887284957155
 20
-0.0561614767366143
 30
0.0
 11
-0.335626281797438
 21
-0.0826505254030387
 31
0.0
  0
LINE
  8
6
  6
CONTINUOUS
 62
6
 10
-0.296458187353147
 20
-0.0826511101522842
 30
0.0
 11
-0.329403275339967
 21
-0.0826511101522842
 31
0.0
  0
LINE
  8
6
  6
CONTINUOUS
 62
6
 10
-0.329403275339967
 20
-0.0826511101522842
 30
0.0
 11
-0.32942333933996
 21
-0.0545615101635201
 31
0.0
  0
LINE
  8
6
  6
CONTINUOUS
 62
6
 10
-0.32942333933996
 20
-0.0545615101635201
 30
0.0
 11
-0.303681227350256
 21
-0.0545615101635201
 31
0.0
  0
LINE
  8
6
  6
CONTINUOUS
 62
6
 10
-0.329424542841022
 20
-0.0537192966765204
 30
0.0
 11
-0.329443403339952
 21
-0.026471910174756
 31
0.0
  0
LINE
  8
6
  6
CONTINUOUS
 62
6
 10
-0.329443403339952
 20
-0.026471910174756
 30
0.0
 11
-0.299267147353146
 21
-0.026471910174756
 31
0.0
  0
ARC
  8
6
  6
CONTINUOUS
 62
6
 10
-0.275411349504183
 20
-0.0664897065190677
 30
0.0
 40
0.0161945091199223
 50
210.521999666254
 51
269.441063338047
  0
LINE
  8
6
  6
CONTINUOUS
 62
6
 10
-0.275569329051341
 20
-0.08268344506512
 30
0.0
 11
-0.26984439136677
 21
-0.0827392952186545
 31
0.0
  0
ARC
  8
6
  6
CONTINUOUS
 62
6
 10
-0.269700172137118
 20
-0.0679560529579676
 30
0.0
 40
0.0147839457156863
 50
269.441063677772
 51
357.350682656726
  0
ARC
  8
6
  6
CONTINUOUS
 62
6
 10
-0.266957427296274
 20
-0.0697300544749152
 30
0.0
 40
0.0120747559631732
 50
5.182272443833
 51
59.344829999995
  0
LINE
  8
6
  6
CONTINUOUS
 62
6
 10
-0.260800871635837
 20
-0.0593427278713023
 30
0.0
 11
-0.282911164403491
 21
-0.0498465020732664
 31
0.0
  0
ARC
  8
6
  6
CONTINUOUS
 62
6
 10
-0.276754604715446
 20
-0.0394591807162908
 30
0.0
 40
0.0120747535033037
 50
185.182406440219
 51
239.344800865822
  0
ARC
  8
6
  6
CONTINUOUS
 62
6
 10
-0.274071038370825
 20
-0.0411941311239333
 30
0.0
 40
0.0147230638875715
 50
91.2613438550512
 51
177.491952931063
  0
LINE
  8
6
  6
CONTINUOUS
 62
6
 10
-0.274395134601274
 20
-0.0264746348054132
 30
0.0
 11
-0.268683810603898
 21
-0.026468629207098
 31
0.0
  0
ARC
  8
6
  6
CONTINUOUS
 62
6
 10
-0.269193877274012
 20
-0.042142805050151
 30
0.0
 40
0.0156824729034333
 50
29.2717084966239
 51
88.1361471074757
  0
ARC
  8
6
  6
CONTINUOUS
 62
6
 10
-0.227079730400097
 20
-0.0664897065190675
 30
0.0
 40
0.0161945091199222
 50
210.521999666254
 51
269.441063338047
  0
LINE
  8
6
  6
CONTINUOUS
 62
6
 10
-0.227237709947256
 20
-0.08268344506512
 30
0.0
 11
-0.221512772262685
 21
-0.0827392952186545
 31
0.0
  0
ARC
  8
6
  6
CONTINUOUS
 62
6
 10
-0.221368553033033
 20
-0.0679560529579677
 30
0.0
 40
0.0147839457156863
 50
269.441063677774
 51
357.350682656726
  0
ARC
  8
6
  6
CONTINUOUS
 62
6
 10
-0.218625808192188
 20
-0.0697300544749151
 30
0.0
 40
0.0120747559631732
 50
5.18227244383252
 51
59.3448299999945
  0
LINE
  8
6
  6
CONTINUOUS
 62
6
 10
-0.212469252531751
 20
-0.0593427278713023
 30
0.0
 11
-0.234579545299405
 21
-0.0498465020732664
 31
0.0
  0
ARC
  8
6
  6
CONTINUOUS
 62
6
 10
-0.22842298561136
 20
-0.0394591807162903
 30
0.0
 40
0.012074753503304
 50
185.182406440222
 51
239.344800865823
  0
ARC
  8
6
  6
CONTINUOUS
 62
6
 10
-0.22573941926674
 20
-0.041194131123933
 30
0.0
 40
0.0147230638875713
 50
91.2613438550522
 51
177.491952931064
  0
LINE
  8
6
  6
CONTINUOUS
 62
6
 10
-0.226063515497188
 20
-0.0264746348054132
 30
0.0
 11
-0.220352191499813
 21
-0.026468629207098
 31
0.0
  0
ARC
  8
6
  6
CONTINUOUS
 62
6
 10
-0.220862258169927
 20
-0.0421428050501511
 30
0.0
 40
0.0156824729034333
 50
29.271708496624
 51
88.1361471074758
  0
LINE
  8
6
  6
CONTINUOUS
 62
6
 10
-0.39495552576428
 20
0.463018764916961
 30
0.0
 11
-0.39495552576428
 21
0.517494023119253
 31
0.0
  0
LINE
  8
6
  6
CONTINUOUS
 62
6
 10
-0.412912809769896
 20
0.51919796489449
 30
0.0
 11
-0.376998249784262
 21
0.51919796489449
 31
0.0
  0
LINE
  8
6
  6
CONTINUOUS
 62
6
 10
-0.371380329784263
 20
0.519197960980036
 30
0.0
 11
-0.35368897995015
 21
0.492565821444815
 31
0.0
  0
LINE
  8
6
  6
CONTINUOUS
 62
6
 10
-0.352720809791726
 20
0.463018761002508
 30
0.0
 11
-0.352720809791726
 21
0.491108360991272
 31
0.0
  0
LINE
  8
6
  6
CONTINUOUS
 62
6
 10
-0.352720809791726
 20
0.491108360991272
 30
0.0
 11
-0.33406128979919
 21
0.519197960980036
 31
0.0
  0
LINE
  8
6
  6
CONTINUOUS
 62
6
 10
-0.327038889799191
 20
0.463018761002508
 30
0.0
 11
-0.327038889799191
 21
0.519197960980036
 31
0.0
  0
LINE
  8
6
  6
CONTINUOUS
 62
6
 10
-0.327038889799191
 20
0.519197960980036
 30
0.0
 11
-0.306653865807345
 21
0.519197960980037
 31
0.0
  0
ARC
  8
6
  6
CONTINUOUS
 62
6
 10
-0.307488524623505
 20
0.505153160985656
 30
0.0
 40
0.0140695793192831
 50
273.400991681353
 51
86.5990083186469
  0
LINE
  8
6
  6
CONTINUOUS
 62
6
 10
-0.306653865807344
 20
0.491108360991272
 30
0.0
 11
-0.326196201799191
 21
0.491108360991272
 31
0.0
  0
LINE
  8
6
  6
CONTINUOUS
 62
6
 10
-0.253440971368669
 20
0.463018176253263
 30
0.0
 11
-0.286386059355491
 21
0.463018176253263
 31
0.0
  0
LINE
  8
6
  6
CONTINUOUS
 62
6
 10
-0.286386059355491
 20
0.463018176253263
 30
0.0
 11
-0.286406123355483
 21
0.491107776242027
 31
0.0
  0
LINE
  8
6
  6
CONTINUOUS
 62
6
 10
-0.286406123355483
 20
0.491107776242027
 30
0.0
 11
-0.26066401136578
 21
0.491107776242027
 31
0.0
  0
LINE
  8
6
  6
CONTINUOUS
 62
6
 10
-0.286407326856545
 20
0.491949989729026
 30
0.0
 11
-0.286426187355476
 21
0.519197376230791
 31
0.0
  0
LINE
  8
6
  6
CONTINUOUS
 62
6
 10
-0.286426187355476
 20
0.519197376230791
 30
0.0
 11
-0.256249931368669
 21
0.519197376230791
 31
0.0
  0
LINE
  8
6
  6
CONTINUOUS
 62
6
 10
-0.394955525764279
 20
-0.410052099595039
 30
0.0
 11
-0.394955525764279
 21
-0.355576841392748
 31
0.0
  0
LINE
  8
6
  6
CONTINUOUS
 62
6
 10
-0.412912809769896
 20
-0.353872899617511
 30
0.0
 11
-0.376998249784262
 21
-0.353872899617511
 31
0.0
  0
LINE
  8
6
  6
CONTINUOUS
 62
6
 10
-0.371380329784263
 20
-0.353872903531965
 30
0.0
 11
-0.35368897995015
 21
-0.380505043067185
 31
0.0
  0
LINE
  8
6
  6
CONTINUOUS
 62
6
 10
-0.352720809791726
 20
-0.410052103509493
 30
0.0
 11
-0.352720809791726
 21
-0.381962503520729
 31
0.0
  0
LINE
  8
6
  6
CONTINUOUS
 62
6
 10
-0.352720809791726
 20
-0.381962503520729
 30
0.0
 11
-0.33406128979919
 21
-0.353872903531965
 31
0.0
  0
LINE
  8
6
  6
CONTINUOUS
 62
6
 10
-0.327038889799191
 20
-0.410052103509492
 30
0.0
 11
-0.327038889799191
 21
-0.353872903531965
 31
0.0
  0
LINE
  8
6
  6
CONTINUOUS
 62
6
 10
-0.327038889799191
 20
-0.353872903531965
 30
0.0
 11
-0.306653865807345
 21
-0.353872903531963
 31
0.0
  0
ARC
  8
6
  6
CONTINUOUS
 62
6
 10
-0.307488524623505
 20
-0.367917703526346
 30
0.0
 40
0.0140695793192831
 50
273.400991681353
 51
86.5990083186469
  0
LINE
  8
6
  6
CONTINUOUS
 62
6
 10
-0.306653865807344
 20
-0.381962503520728
 30
0.0
 11
-0.326196201799191
 21
-0.381962503520729
 31
0.0
  0
LINE
  8
6
  6
CONTINUOUS
 62
6
 10
-0.253440971368669
 20
-0.410052688258738
 30
0.0
 11
-0.286386059355491
 21
-0.410052688258738
 31
0.0
  0
LINE
  8
6
  6
CONTINUOUS
 62
6
 10
-0.286386059355491
 20
-0.410052688258738
 30
0.0
 11
-0.286406123355483
 21
-0.381963088269974
 31
0.0
  0
LINE
  8
6
  6
CONTINUOUS
 62
6
 10
-0.286406123355483
 20
-0.381963088269974
 30
0.0
 11
-0.26066401136578
 21
-0.381963088269974
 31
0.0
  0
LINE
  8
6
  6
CONTINUOUS
 62
6
 10
-0.286407326856545
 20
-0.381120874782974
 30
0.0
 11
-0.286426187355476
 21
-0.35387348828121
 31
0.0
  0
LINE
  8
6
  6
CONTINUOUS
 62
6
 10
-0.286426187355476
 20
-0.35387348828121
 30
0.0
 11
-0.256249931368669
 21
-0.35387348828121
 31
0.0
  0
ARC
  8
6
  6
CONTINUOUS
 62
6
 10
-0.391452552721396
 20
0.265228696230374
 30
0.0
 40
0.0206598446125364
 50
204.386837237007
 51
324.320000000001
  0
ARC
  8
6
  6
CONTINUOUS
 62
6
 10
-0.362863843965915
 20
0.272749547040569
 30
0.0
 40
0.0500489658039817
 50
161.294134617644
 51
198.705865382356
  0
ARC
  8
6
  6
CONTINUOUS
 62
6
 10
-0.391452548708595
 20
0.280270400141154
 30
0.0
 40
0.0206598486253361
 50
35.6800299999894
 51
155.613174782251
  0
LINE
  8
6
  6
CONTINUOUS
 62
6
 10
-0.369052905009894
 20
0.300930248766489
 30
0.0
 11
-0.369052905009894
 21
0.244751048788961
 31
0.0
  0
LINE
  8
6
  6
CONTINUOUS
 62
6
 10
-0.369052905009894
 20
0.244751048788961
 30
0.0
 11
-0.336107817023072
 21
0.244751048788961
 31
0.0
  0
LINE
  8
6
  6
CONTINUOUS
 62
6
 10
-0.326181419309576
 20
0.244751045142872
 30
0.0
 11
-0.310130223076593
 21
0.244751045142872
 31
0.0
  0
LINE
  8
6
  6
CONTINUOUS
 62
6
 10
-0.318155823073381
 20
0.2464364211204
 30
0.0
 11
-0.318155823073381
 21
0.2992448691204
 31
0.0
  0
LINE
  8
6
  6
CONTINUOUS
 62
6
 10
-0.326181419309576
 20
0.3009302451204
 30
0.0
 11
-0.310214697024678
 21
0.3009302451204
 31
0.0
  0
ARC
  8
6
  6
CONTINUOUS
 62
6
 10
-0.282988679260462
 20
0.265228696230374
 30
0.0
 40
0.020659844612536
 50
204.386837237007
 51
324.320000000001
  0
ARC
  8
6
  6
CONTINUOUS
 62
6
 10
-0.25439997050498
 20
0.272749547040569
 30
0.0
 40
0.0500489658039817
 50
161.294134617644
 51
198.705865382356
  0
ARC
  8
6
  6
CONTINUOUS
 62
6
 10
-0.282988675247662
 20
0.280270400141154
 30
0.0
 40
0.0206598486253361
 50
35.6800299999894
 51
155.613174782251
  0
LINE
  8
6
  6
CONTINUOUS
 62
6
 10
-0.26058903154896
 20
0.300930248766489
 30
0.0
 11
-0.26058903154896
 21
0.244751048788961
 31
0.0
  0
LINE
  8
6
  6
CONTINUOUS
 62
6
 10
-0.229168807561527
 20
0.244751048788961
 30
0.0
 11
-0.245615130488201
 21
0.279231481849415
 31
0.0
  0
LINE
  8
6
  6
CONTINUOUS
 62
6
 10
-0.258940952547676
 20
0.266071545727218
 30
0.0
 11
-0.229168807561527
 21
0.300930248766489
 31
0.0
  0
ARC
  8
6
  6
CONTINUOUS
 62
6
 10
-0.391452552721396
 20
-0.280440594089626
 30
0.0
 40
0.0206598446125361
 50
204.386837237008
 51
324.320000000002
  0
ARC
  8
6
  6
CONTINUOUS
 62
6
 10
-0.362863843965914
 20
-0.272919743279431
 30
0.0
 40
0.0500489658039817
 50
161.294134617644
 51
198.705865382356
  0
ARC
  8
6
  6
CONTINUOUS
 62
6
 10
-0.391452548708596
 20
-0.265398890178846
 30
0.0
 40
0.0206598486253359
 50
35.6800299999894
 51
155.613174782252
  0
LINE
  8
6
  6
CONTINUOUS
 62
6
 10
-0.369052905009894
 20
-0.244739041553511
 30
0.0
 11
-0.369052905009894
 21
-0.300918241531039
 31
0.0
  0
LINE
  8
6
  6
CONTINUOUS
 62
6
 10
-0.369052905009894
 20
-0.300918241531039
 30
0.0
 11
-0.336107817023072
 21
-0.300918241531039
 31
0.0
  0
LINE
  8
6
  6
CONTINUOUS
 62
6
 10
-0.326181419309577
 20
-0.300918245177128
 30
0.0
 11
-0.310130223076593
 21
-0.300918245177128
 31
0.0
  0
LINE
  8
6
  6
CONTINUOUS
 62
6
 10
-0.318155823073381
 20
-0.2992328691996
 30
0.0
 11
-0.318155823073381
 21
-0.2464244211996
 31
0.0
  0
LINE
  8
6
  6
CONTINUOUS
 62
6
 10
-0.326181419309577
 20
-0.2447390451996
 30
0.0
 11
-0.310214697024678
 21
-0.2447390451996
 31
0.0
  0
ARC
  8
6
  6
CONTINUOUS
 62
6
 10
-0.282988679260462
 20
-0.280440594089626
 30
0.0
 40
0.0206598446125364
 50
204.386837237008
 51
324.320000000002
  0
ARC
  8
6
  6
CONTINUOUS
 62
6
 10
-0.25439997050498
 20
-0.272919743279431
 30
0.0
 40
0.0500489658039817
 50
161.294134617644
 51
198.705865382356
  0
ARC
  8
6
  6
CONTINUOUS
 62
6
 10
-0.282988675247662
 20
-0.265398890178846
 30
0.0
 40
0.0206598486253361
 50
35.6800299999894
 51
155.613174782251
  0
LINE
  8
6
  6
CONTINUOUS
 62
6
 10
-0.26058903154896
 20
-0.244739041553511
 30
0.0
 11
-0.26058903154896
 21
-0.300918241531039
 31
0.0
  0
LINE
  8
6
  6
CONTINUOUS
 62
6
 10
-0.229168807561528
 20
-0.300918241531039
 30
0.0
 11
-0.245615130488201
 21
-0.266437808470585
 31
0.0
  0
LINE
  8
6
  6
CONTINUOUS
 62
6
 10
-0.258940952547676
 20
-0.279597744592782
 30
0.0
 11
-0.229168807561528
 21
-0.244739041553511
 31
0.0
  0
ARC
  8
6
  6
CONTINUOUS
 62
6
 10
-0.391452552721396
 20
-0.162696912085834
 30
0.0
 40
0.0206598446125364
 50
204.386837237007
 51
324.320000000002
  0
ARC
  8
6
  6
CONTINUOUS
 62
6
 10
-0.362863843965914
 20
-0.155176061275638
 30
0.0
 40
0.050048965803982
 50
161.294134617644
 51
198.705865382356
  0
ARC
  8
6
  6
CONTINUOUS
 62
6
 10
-0.391452548708596
 20
-0.147655208175053
 30
0.0
 40
0.0206598486253359
 50
35.6800299999892
 51
155.613174782251
  0
LINE
  8
6
  6
CONTINUOUS
 62
6
 10
-0.369052905009894
 20
-0.126995359549718
 30
0.0
 11
-0.369052905009894
 21
-0.183174559527246
 31
0.0
  0
LINE
  8
6
  6
CONTINUOUS
 62
6
 10
-0.369052905009894
 20
-0.183174559527246
 30
0.0
 11
-0.336107817023072
 21
-0.183174559527246
 31
0.0
  0
LINE
  8
6
  6
CONTINUOUS
 62
6
 10
-0.326181419309577
 20
-0.183174563173335
 30
0.0
 11
-0.310130223076593
 21
-0.183174563173335
 31
0.0
  0
LINE
  8
6
  6
CONTINUOUS
 62
6
 10
-0.318155823073381
 20
-0.181489187195807
 30
0.0
 11
-0.318155823073381
 21
-0.128680739195807
 31
0.0
  0
LINE
  8
6
  6
CONTINUOUS
 62
6
 10
-0.326181419309577
 20
-0.126995363195807
 30
0.0
 11
-0.310214697024678
 21
-0.126995363195807
 31
0.0
  0
ARC
  8
6
  6
CONTINUOUS
 62
6
 10
-0.282988679260461
 20
-0.162696912085835
 30
0.0
 40
0.0206598446125361
 50
204.386837237008
 51
324.320000000001
  0
ARC
  8
6
  6
CONTINUOUS
 62
6
 10
-0.25439997050498
 20
-0.155176061275638
 30
0.0
 40
0.050048965803982
 50
161.294134617644
 51
198.705865382356
  0
ARC
  8
6
  6
CONTINUOUS
 62
6
 10
-0.282988675247662
 20
-0.147655208175053
 30
0.0
 40
0.0206598486253359
 50
35.6800299999892
 51
155.613174782251
  0
LINE
  8
6
  6
CONTINUOUS
 62
6
 10
-0.260589031548961
 20
-0.126995359549718
 30
0.0
 11
-0.260589031548961
 21
-0.183174559527246
 31
0.0
  0
LINE
  8
6
  6
CONTINUOUS
 62
6
 10
-0.229168807561528
 20
-0.183174559527246
 30
0.0
 11
-0.245615130488201
 21
-0.148694126466793
 31
0.0
  0
LINE
  8
6
  6
CONTINUOUS
 62
6
 10
-0.258940952547677
 20
-0.16185406258899
 30
0.0
 11
-0.229168807561528
 21
-0.126995359549718
 31
0.0
  0
LINE
  8
6
  6
CONTINUOUS
 62
6
 10
-0.13507392571938
 20
-0.183174555612792
 30
0.0
 11
-0.13507392571938
 21
-0.128699297410502
 31
0.0
  0
LINE
  8
6
  6
CONTINUOUS
 62
6
 10
-0.153031209724997
 20
-0.126995355635264
 30
0.0
 11
-0.117116649739363
 21
-0.126995355635264
 31
0.0
  0
ARC
  8
6
  6
CONTINUOUS
 62
6
 10
-0.0926393913095101
 20
-0.166567130975975
 30
0.0
 40
0.0167157012503226
 50
196.004825930419
 51
267.948379947901
  0
ARC
  8
6
  6
CONTINUOUS
 62
6
 10
-0.0613019195735929
 20
-0.155124739851654
 30
0.0
 40
0.0500489658039798
 50
161.294116943038
 51
198.705883056962
  0
ARC
  8
6
  6
CONTINUOUS
 62
6
 10
-0.0926393890975843
 20
-0.143719703193026
 30
0.0
 40
0.0167260412268932
 50
16.1288893758942
 51
163.872176621307
  0
ARC
  8
6
  6
CONTINUOUS
 62
6
 10
-0.123976843844884
 20
-0.155124739853342
 30
0.0
 40
0.0500489658039744
 50
341.293755627023
 51
18.7062443729768
  0
ARC
  8
6
  6
CONTINUOUS
 62
6
 10
-0.092639391309512
 20
-0.166567130975972
 30
0.0
 40
0.0167157012503242
 50
272.763973435184
 51
343.994108060193
  0
LINE
  8
6
  6
CONTINUOUS
 62
6
 10
-0.065742249739364
 20
-0.183174559527246
 30
0.0
 11
-0.065742249739364
 21
-0.126995359549718
 31
0.0
  0
LINE
  8
6
  6
CONTINUOUS
 62
6
 10
-0.065742249739364
 20
-0.126995359549718
 30
0.0
 11
-0.0453572257475173
 21
-0.126995359549716
 31
0.0
  0
ARC
  8
6
  6
CONTINUOUS
 62
6
 10
-0.046191884563678
 20
-0.141040159544099
 30
0.0
 40
0.0140695793192831
 50
273.400991681353
 51
86.5990083186469
  0
LINE
  8
6
  6
CONTINUOUS
 62
6
 10
-0.0453572257475169
 20
-0.155084959538481
 30
0.0
 11
-0.0648995617393635
 21
-0.155084959538482
 31
0.0
  0
LINE
  8
6
  6
CONTINUOUS
 62
6
 10
-0.39495552576428
 20
-0.519185957659039
 30
0.0
 11
-0.39495552576428
 21
-0.464710699456748
 31
0.0
  0
LINE
  8
6
  6
CONTINUOUS
 62
6
 10
-0.412912809769896
 20
-0.463006757681511
 30
0.0
 11
-0.376998249784262
 21
-0.463006757681511
 31
0.0
  0
LINE
  8
6
  6
CONTINUOUS
 62
6
 10
-0.371380329784263
 20
-0.463006761595964
 30
0.0
 11
-0.35368897995015
 21
-0.489638901131185
 31
0.0
  0
LINE
  8
6
  6
CONTINUOUS
 62
6
 10
-0.352720809791726
 20
-0.519185961573493
 30
0.0
 11
-0.352720809791726
 21
-0.491096361584728
 31
0.0
  0
LINE
  8
6
  6
CONTINUOUS
 62
6
 10
-0.352720809791726
 20
-0.491096361584728
 30
0.0
 11
-0.33406128979919
 21
-0.463006761595964
 31
0.0
  0
LINE
  8
6
  6
CONTINUOUS
 62
6
 10
-0.327038889799191
 20
-0.519185961573492
 30
0.0
 11
-0.327038889799191
 21
-0.463006761595964
 31
0.0
  0
LINE
  8
6
  6
CONTINUOUS
 62
6
 10
-0.327038889799191
 20
-0.463006761595964
 30
0.0
 11
-0.306653865807345
 21
-0.463006761595963
 31
0.0
  0
ARC
  8
6
  6
CONTINUOUS
 62
6
 10
-0.307488524623505
 20
-0.477051561590345
 30
0.0
 40
0.0140695793192831
 50
273.400991681353
 51
86.5990083186469
  0
LINE
  8
6
  6
CONTINUOUS
 62
6
 10
-0.306653865807344
 20
-0.491096361584728
 30
0.0
 11
-0.326196201799191
 21
-0.491096361584728
 31
0.0
  0
LINE
  8
6
  6
CONTINUOUS
 62
6
 10
-0.253440971368669
 20
-0.519186546322738
 30
0.0
 11
-0.286386059355491
 21
-0.519186546322738
 31
0.0
  0
LINE
  8
6
  6
CONTINUOUS
 62
6
 10
-0.286386059355491
 20
-0.519186546322738
 30
0.0
 11
-0.286406123355483
 21
-0.491096946333974
 31
0.0
  0
LINE
  8
6
  6
CONTINUOUS
 62
6
 10
-0.286406123355483
 20
-0.491096946333974
 30
0.0
 11
-0.26066401136578
 21
-0.491096946333974
 31
0.0
  0
LINE
  8
6
  6
CONTINUOUS
 62
6
 10
-0.286407326856546
 20
-0.490254732846974
 30
0.0
 11
-0.286426187355476
 21
-0.463007346345209
 31
0.0
  0
LINE
  8
6
  6
CONTINUOUS
 62
6
 10
-0.286426187355476
 20
-0.463007346345209
 30
0.0
 11
-0.256249931368669
 21
-0.463007346345209
 31
0.0
  0
ARC
  8
6
  6
CONTINUOUS
 62
6
 10
0.0582144326767192
 20
-0.166567130975975
 30
0.0
 40
0.0167157012503225
 50
196.004825930419
 51
267.948379947901
  0
ARC
  8
6
  6
CONTINUOUS
 62
6
 10
0.0895519044126364
 20
-0.155124739851654
 30
0.0
 40
0.0500489658039796
 50
161.294116943038
 51
198.705883056962
  0
ARC
  8
6
  6
CONTINUOUS
 62
6
 10
0.0582144348886449
 20
-0.143719703193026
 30
0.0
 40
0.0167260412268931
 50
16.1288893758944
 51
163.872176621307
  0
ARC
  8
6
  6
CONTINUOUS
 62
6
 10
0.026876980141346
 20
-0.155124739853342
 30
0.0
 40
0.0500489658039743
 50
341.293755627023
 51
18.7062443729768
  0
ARC
  8
6
  6
CONTINUOUS
 62
6
 10
0.0582144326767172
 20
-0.166567130975972
 30
0.0
 40
0.0167157012503244
 50
272.763973435185
 51
343.994108060195
  0
LINE
  8
6
  6
CONTINUOUS
 62
6
 10
0.11224392436881
 20
-0.155083697663509
 30
0.0
 11
0.0881992267688099
 21
-0.155083697663509
 31
0.0
  0
LINE
  8
6
  6
CONTINUOUS
 62
6
 10
0.086521876379099
 20
-0.183173297652273
 30
0.0
 11
0.086521876379099
 21
-0.126994097674745
 31
0.0
  0
LINE
  8
6
  6
CONTINUOUS
 62
6
 10
0.086521876379099
 20
-0.126994097674745
 30
0.0
 11
0.116658004365923
 21
-0.126994097674745
 31
0.0
  0
ARC
  8
6
  6
CONTINUOUS
 62
6
 10
0.202610569210419
 20
-0.145258660672149
 30
0.0
 40
0.0184648980590048
 50
48.941696866411
 51
146.027978045882
  0
ARC
  8
6
  6
CONTINUOUS
 62
6
 10
0.206369993840721
 20
-0.140899715808458
 30
0.0
 40
0.0127088134930474
 50
1.31476487022691E-6
 51
48.8140713147681
  0
ARC
  8
6
  6
CONTINUOUS
 62
6
 10
0.205050309339377
 20
-0.140899715516826
 30
0.0
 40
0.014028497994391
 50
279.088113900684
 51
359.999999999982
  0
ARC
  8
6
  6
CONTINUOUS
 62
6
 10
0.205822243776122
 20
-0.168758674728224
 30
0.0
 40
0.0140807950981084
 50
19.434425893159
 51
84.1142708141174
  0
ARC
  8
6
  6
CONTINUOUS
 62
6
 10
0.206665990440834
 20
-0.168557203375469
 30
0.0
 40
0.0132183990365453
 50
307.790503302606
 51
19.827771284045
  0
ARC
  8
6
  6
CONTINUOUS
 62
6
 10
0.20281778029156
 20
-0.162602548741595
 30
0.0
 40
0.0202913000994104
 50
216.483006233946
 51
306.074034537
  0
LINE
  8
6
  6
CONTINUOUS
 62
6
 10
0.232691273794638
 20
-0.183174567705057
 30
0.0
 11
0.232691273794638
 21
-0.126995367727529
 31
0.0
  0
LINE
  8
6
  6
CONTINUOUS
 62
6
 10
0.232691273794638
 20
-0.126995367727529
 30
0.0
 11
0.248361281542999
 21
-0.126995368443565
 31
0.0
  0
ARC
  8
6
  6
CONTINUOUS
 62
6
 10
0.246423268003545
 20
-0.147564117767301
 30
0.0
 40
0.0206598486253364
 50
24.3863827720523
 51
84.6174099999923
  0
ARC
  8
6
  6
CONTINUOUS
 62
6
 10
0.21783458051561
 20
-0.155084968358834
 30
0.0
 40
0.0500489658039795
 50
341.29431327019
 51
18.7056867298099
  0
ARC
  8
6
  6
CONTINUOUS
 62
6
 10
0.246423272016344
 20
-0.162605817665287
 30
0.0
 40
0.0206598446125397
 50
275.382450717135
 51
335.613608269933
  0
LINE
  8
6
  6
CONTINUOUS
 62
6
 10
0.248361235177886
 20
-0.183174567705063
 30
0.0
 11
0.234095753794639
 21
-0.183174567705057
 31
0.0
  0
LINE
  8
6
  6
CONTINUOUS
 62
6
 10
0.348820137798886
 20
-0.155015087500105
 30
0.0
 11
0.369109283145585
 21
-0.155015087500105
 31
0.0
  0
ARC
  8
6
  6
CONTINUOUS
 62
6
 10
0.369104841789479
 20
-0.169059886792247
 30
0.0
 40
0.0140447999943822
 50
270.000000002514
 51
89.9818814817912
  0
LINE
  8
6
  6
CONTINUOUS
 62
6
 10
0.369104841790095
 20
-0.18310468678663
 30
0.0
 11
0.347134761798885
 21
-0.18310468678663
 31
0.0
  0
LINE
  8
6
  6
CONTINUOUS
 62
6
 10
0.347134761798885
 20
-0.18310468678663
 30
0.0
 11
0.347134761798885
 21
-0.126995359549718
 31
0.0
  0
LINE
  8
6
  6
CONTINUOUS
 62
6
 10
0.347134761798885
 20
-0.126995359549718
 30
0.0
 11
0.366596841791102
 21
-0.126995359549718
 31
0.0
  0
ARC
  8
6
  6
CONTINUOUS
 62
6
 10
0.366484611891452
 20
-0.141096453515554
 30
0.0
 40
0.0141015405748359
 50
296.191824756091
 51
89.5439953928127
  0
ARC
  8
6
  6
CONTINUOUS
 62
6
 10
0.407626900213713
 20
-0.166567130975975
 30
0.0
 40
0.0167157012503224
 50
196.00482593042
 51
267.948379947902
  0
ARC
  8
6
  6
CONTINUOUS
 62
6
 10
0.438964371949631
 20
-0.155124739851654
 30
0.0
 40
0.0500489658039796
 50
161.294116943038
 51
198.705883056962
  0
ARC
  8
6
  6
CONTINUOUS
 62
6
 10
0.407626902425639
 20
-0.143719703193026
 30
0.0
 40
0.016726041226893
 50
16.1288893758945
 51
163.872176621307
  0
ARC
  8
6
  6
CONTINUOUS
 62
6
 10
0.37628944767834
 20
-0.155124739853342
 30
0.0
 40
0.0500489658039743
 50
341.293755627023
 51
18.7062443729768
  0
ARC
  8
6
  6
CONTINUOUS
 62
6
 10
0.407626900213711
 20
-0.166567130975972
 30
0.0
 40
0.0167157012503245
 50
272.763973435186
 51
343.994108060194
  0
LINE
  8
6
  6
CONTINUOUS
 62
6
 10
0.43311956178386
 20
-0.126995359549718
 30
0.0
 11
0.468030921769896
 21
-0.183174559527246
 31
0.0
  0
LINE
  8
6
  6
CONTINUOUS
 62
6
 10
0.430711881784823
 20
-0.183174559527246
 30
0.0
 11
0.465623241770859
 21
-0.126995359549718
 31
0.0
  0
LINE
  8
6
  6
CONTINUOUS
 62
6
 10
-0.0654378753161555
 20
0.463018764916961
 30
0.0
 11
-0.0654378753161555
 21
0.517494039036242
 31
0.0
  0
LINE
  8
6
  6
CONTINUOUS
 62
6
 10
-0.0833951645686661
 20
0.51919798130935
 30
0.0
 11
-0.0474805940892467
 21
0.51919798130935
 31
0.0
  0
LINE
  8
6
  6
CONTINUOUS
 62
6
 10
-0.0418626724477607
 20
0.519197977394895
 30
0.0
 11
-0.0418626724477607
 21
0.463018761002506
 31
0.0
  0
LINE
  8
6
  6
CONTINUOUS
 62
6
 10
-0.0401772959553149
 20
0.491108369198701
 30
0.0
 11
-0.00950344379280135
 21
0.491108369198701
 31
0.0
  0
LINE
  8
6
  6
CONTINUOUS
 62
6
 10
-0.00775386249523919
 20
0.463018761002506
 30
0.0
 11
-0.00775386249523919
 21
0.519197977394895
 31
0.0
  0
LINE
  8
6
  6
CONTINUOUS
 62
6
 10
0.0314142433934808
 20
0.463018176253091
 30
0.0
 11
-0.00153085421948345
 21
0.463018176253091
 31
0.0
  0
LINE
  8
6
  6
CONTINUOUS
 62
6
 10
-0.00153085421948345
 20
0.463018176253091
 30
0.0
 11
-0.00155091822533848
 21
0.491107784449285
 31
0.0
  0
LINE
  8
6
  6
CONTINUOUS
 62
6
 10
-0.00155091822533848
 20
0.491107784449285
 30
0.0
 11
0.0241912012858879
 21
0.491107784449285
 31
0.0
  0
LINE
  8
6
  6
CONTINUOUS
 62
6
 10
-0.00155212172675174
 20
0.491949998182368
 30
0.0
 11
-0.00157098223119294
 21
0.519197392645478
 31
0.0
  0
LINE
  8
6
  6
CONTINUOUS
 62
6
 10
-0.00157098223119294
 20
0.519197392645478
 30
0.0
 11
0.0286052825727378
 21
0.519197392645478
 31
0.0
  0
LINE
  8
6
  6
CONTINUOUS
 62
6
 10
0.0349624044302088
 20
0.463018760980035
 30
0.0
 11
0.034962410913579
 21
0.519197970508972
 31
0.0
  0
LINE
  8
6
  6
CONTINUOUS
 62
6
 10
0.034962410913579
 20
0.519197970508972
 30
0.0
 11
0.0694591249792857
 21
0.463018754116584
 31
0.0
  0
LINE
  8
6
  6
CONTINUOUS
 62
6
 10
0.0694591249792857
 20
0.463018754116584
 30
0.0
 11
0.0694591249792857
 21
0.519197970508972
 31
0.0
  0
LINE
  8
6
  6
CONTINUOUS
 62
6
 10
-0.39495552576428
 20
0.572152622980961
 30
0.0
 11
-0.39495552576428
 21
0.626627881183253
 31
0.0
  0
LINE
  8
6
  6
CONTINUOUS
 62
6
 10
-0.412912809769896
 20
0.62833182295849
 30
0.0
 11
-0.376998249784262
 21
0.62833182295849
 31
0.0
  0
LINE
  8
6
  6
CONTINUOUS
 62
6
 10
-0.371380329784263
 20
0.628331819044037
 30
0.0
 11
-0.35368897995015
 21
0.601699679508815
 31
0.0
  0
LINE
  8
6
  6
CONTINUOUS
 62
6
 10
-0.352720809791726
 20
0.572152619066508
 30
0.0
 11
-0.352720809791726
 21
0.600242219055273
 31
0.0
  0
LINE
  8
6
  6
CONTINUOUS
 62
6
 10
-0.352720809791726
 20
0.600242219055273
 30
0.0
 11
-0.33406128979919
 21
0.628331819044037
 31
0.0
  0
LINE
  8
6
  6
CONTINUOUS
 62
6
 10
-0.327038889799191
 20
0.572152619066508
 30
0.0
 11
-0.327038889799191
 21
0.628331819044037
 31
0.0
  0
LINE
  8
6
  6
CONTINUOUS
 62
6
 10
-0.327038889799191
 20
0.628331819044037
 30
0.0
 11
-0.306653865807345
 21
0.628331819044038
 31
0.0
  0
ARC
  8
6
  6
CONTINUOUS
 62
6
 10
-0.307488524623505
 20
0.614287019049656
 30
0.0
 40
0.014069579319283
 50
273.400991681353
 51
86.5990083186469
  0
LINE
  8
6
  6
CONTINUOUS
 62
6
 10
-0.306653865807344
 20
0.600242219055273
 30
0.0
 11
-0.326196201799191
 21
0.600242219055273
 31
0.0
  0
LINE
  8
6
  6
CONTINUOUS
 62
6
 10
-0.253440971368669
 20
0.572152034317262
 30
0.0
 11
-0.286386059355491
 21
0.572152034317262
 31
0.0
  0
LINE
  8
6
  6
CONTINUOUS
 62
6
 10
-0.286386059355491
 20
0.572152034317262
 30
0.0
 11
-0.286406123355483
 21
0.600241634306027
 31
0.0
  0
LINE
  8
6
  6
CONTINUOUS
 62
6
 10
-0.286406123355483
 20
0.600241634306027
 30
0.0
 11
-0.26066401136578
 21
0.600241634306027
 31
0.0
  0
LINE
  8
6
  6
CONTINUOUS
 62
6
 10
-0.286407326856545
 20
0.601083847793027
 30
0.0
 11
-0.286426187355476
 21
0.628331234294791
 31
0.0
  0
LINE
  8
6
  6
CONTINUOUS
 62
6
 10
-0.286426187355476
 20
0.628331234294791
 30
0.0
 11
-0.256249931368669
 21
0.628331234294791
 31
0.0
  0
LINE
  8
6
  6
CONTINUOUS
 62
6
 10
-0.39495552576428
 20
0.135617190724961
 30
0.0
 11
-0.39495552576428
 21
0.190092448927253
 31
0.0
  0
LINE
  8
6
  6
CONTINUOUS
 62
6
 10
-0.412912809769896
 20
0.191796390702489
 30
0.0
 11
-0.376998249784262
 21
0.191796390702489
 31
0.0
  0
LINE
  8
6
  6
CONTINUOUS
 62
6
 10
-0.371380329784263
 20
0.191796386788036
 30
0.0
 11
-0.35368897995015
 21
0.165164247252815
 31
0.0
  0
LINE
  8
6
  6
CONTINUOUS
 62
6
 10
-0.352720809791726
 20
0.135617186810508
 30
0.0
 11
-0.352720809791726
 21
0.163706786799272
 31
0.0
  0
LINE
  8
6
  6
CONTINUOUS
 62
6
 10
-0.352720809791726
 20
0.163706786799272
 30
0.0
 11
-0.33406128979919
 21
0.191796386788036
 31
0.0
  0
LINE
  8
6
  6
CONTINUOUS
 62
6
 10
-0.327038889799191
 20
0.135617186810508
 30
0.0
 11
-0.327038889799191
 21
0.191796386788036
 31
0.0
  0
LINE
  8
6
  6
CONTINUOUS
 62
6
 10
-0.327038889799191
 20
0.191796386788036
 30
0.0
 11
-0.306653865807345
 21
0.191796386788037
 31
0.0
  0
ARC
  8
6
  6
CONTINUOUS
 62
6
 10
-0.307488524623505
 20
0.177751586793655
 30
0.0
 40
0.0140695793192832
 50
273.400991681353
 51
86.5990083186469
  0
LINE
  8
6
  6
CONTINUOUS
 62
6
 10
-0.306653865807344
 20
0.163706786799272
 30
0.0
 11
-0.326196201799191
 21
0.163706786799272
 31
0.0
  0
LINE
  8
6
  6
CONTINUOUS
 62
6
 10
-0.253440971368669
 20
0.135616602061262
 30
0.0
 11
-0.286386059355491
 21
0.135616602061262
 31
0.0
  0
LINE
  8
6
  6
CONTINUOUS
 62
6
 10
-0.286386059355491
 20
0.135616602061262
 30
0.0
 11
-0.286406123355483
 21
0.163706202050027
 31
0.0
  0
LINE
  8
6
  6
CONTINUOUS
 62
6
 10
-0.286406123355483
 20
0.163706202050027
 30
0.0
 11
-0.26066401136578
 21
0.163706202050027
 31
0.0
  0
LINE
  8
6
  6
CONTINUOUS
 62
6
 10
-0.286407326856545
 20
0.164548415537026
 30
0.0
 11
-0.286426187355476
 21
0.191795802038791
 31
0.0
  0
LINE
  8
6
  6
CONTINUOUS
 62
6
 10
-0.286426187355476
 20
0.191795802038791
 30
0.0
 11
-0.256249931368669
 21
0.191795802038791
 31
0.0
  0
ARC
  8
9
  6
CONTINUOUS
 62
9
 10
-0.629921260082818
 20
-0.629921260033654
 30
0.0
 40
0.157480314717184
 50
359.999999904793
 51
90.0000000824279
  0
ARC
  8
9
  6
CONTINUOUS
 62
9
 10
-0.62992126031002
 20
0.629921260308739
 30
0.0
 40
0.157480314992259
 50
270.000000000233
 51
2.33567213587955E-10
  0
ARC
  8
9
  6
CONTINUOUS
 62
9
 10
0.629921260172161
 20
0.629921260170871
 30
0.0
 40
0.157480314854396
 50
179.999999949606
 51
270.000000049921
  0
LINE
  8
9
  6
CONTINUOUS
 62
9
 10
-0.692913386000001
 20
-0.409448819716476
 30
0.0
 11
-0.692913386000001
 21
0.409448819716481
 31
0.0
  0
LINE
  8
9
  6
CONTINUOUS
 62
9
 10
-0.409448819717766
 20
0.692913386000003
 30
0.0
 11
0.409448819717766
 21
0.692913386000003
 31
0.0
  0
ARC
  8
9
  6
CONTINUOUS
 62
9
 10
0.6299212604
 20
0.409448819716483
 30
0.0
 40
0.0629921256000001
 50
359.999999999996
 51
90.0000000824278
  0
ARC
  8
9
  6
CONTINUOUS
 62
9
 10
0.409448819717766
 20
0.629921260400006
 30
0.0
 40
0.0629921256000002
 50
359.999999917568
 51
89.999999999999
  0
ARC
  8
9
  6
CONTINUOUS
 62
9
 10
-0.409448819717766
 20
0.629921260400003
 30
0.0
 40
0.0629921256
 50
89.9999999999992
 51
180.000000082429
  0
ARC
  8
9
  6
CONTINUOUS
 62
9
 10
-0.629921260400001
 20
0.409448819716481
 30
0.0
 40
0.0629921256000001
 50
89.9999999175705
 51
180
  0
ARC
  8
9
  6
CONTINUOUS
 62
9
 10
-0.629921260400001
 20
-0.409448819716478
 30
0.0
 40
0.0629921256000002
 50
179.999999999997
 51
270.000000082426
  0
ARC
  8
9
  6
CONTINUOUS
 62
9
 10
-0.409448819765634
 20
-0.629921260400002
 30
0.0
 40
0.0629921256
 50
179.999999904794
 51
269.999999999997
  0
ARC
  8
9
  6
CONTINUOUS
 62
9
 10
0.629921260172162
 20
-0.629921260170875
 30
0.0
 40
0.157480314854397
 50
89.9999999500777
 51
180.000000050391
  0
ARC
  8
9
  6
CONTINUOUS
 62
9
 10
0.629921260400004
 20
-0.409448819716478
 30
0.0
 40
0.0629921256000001
 50
269.999999917568
 51
359.999999999996
  0
ARC
  8
9
  6
CONTINUOUS
 62
9
 10
0.409448819717769
 20
-0.6299212604
 30
0.0
 40
0.0629921256000002
 50
269.999999999996
 51
8.24278339857605E-8
  0
LINE
  8
9
  6
CONTINUOUS
 62
9
 10
-0.409448819765634
 20
-0.692913385999998
 30
0.0
 11
0.409448819717766
 21
-0.692913385999998
 31
0.0
  0
LINE
  8
9
  6
CONTINUOUS
 62
9
 10
0.692913386000001
 20
0.409448819716481
 30
0.0
 11
0.692913386000001
 21
-0.409448819716478
 31
0.0
  0
ARC
  8
9
  6
CONTINUOUS
 62
9
 10
-0.13810441193849
 20
-0.284271036063556
 30
0.0
 40
0.0167157062127964
 50
196.00482593042
 51
267.948379947902
  0
ARC
  8
9
  6
CONTINUOUS
 62
9
 10
-0.106766930899261
 20
-0.272828641542275
 30
0.0
 40
0.0500489806622665
 50
161.294116943038
 51
198.705883056962
  0
ARC
  8
9
  6
CONTINUOUS
 62
9
 10
-0.138104409726563
 20
-0.261423601497778
 30
0.0
 40
0.0167260461924365
 50
16.1288893758945
 51
163.872176621307
  0
ARC
  8
9
  6
CONTINUOUS
 62
9
 10
-0.16944187377717
 20
-0.272828641543963
 30
0.0
 40
0.0500489806622613
 50
341.293755627023
 51
18.7062443729767
  0
ARC
  8
9
  6
CONTINUOUS
 62
9
 10
-0.138104411938492
 20
-0.284271036063554
 30
0.0
 40
0.0167157062127982
 50
272.763973435186
 51
343.994108060196
  0
LINE
  8
9
  6
CONTINUOUS
 62
9
 10
-0.109802781966299
 20
-0.24469925288943
 30
0.0
 11
-0.109802781966299
 21
-0.300878469545158
 31
0.0
  0
LINE
  8
9
  6
CONTINUOUS
 62
9
 10
-0.0894177519226466
 20
-0.244699252889429
 30
0.0
 11
-0.109802781966299
 21
-0.24469925288943
 31
0.0
  0
ARC
  8
9
  6
CONTINUOUS
 62
9
 10
-0.0896884270024218
 20
-0.25874403626165
 30
0.0
 40
0.0140473913938291
 50
271.09526400054
 51
88.8959160393191
  0
LINE
  8
9
  6
CONTINUOUS
 62
9
 10
-0.107959055446305
 20
-0.272788861134465
 30
0.0
 11
-0.0894199139424987
 21
-0.272788861134465
 31
0.0
  0
LINE
  8
9
  6
CONTINUOUS
 62
9
 10
-0.0753729477587164
 20
-0.300878469545158
 30
0.0
 11
-0.088619519465403
 21
-0.274389413014797
 31
0.0
  0
LINE
  8
9
  6
CONTINUOUS
 62
9
 10
-0.0486878198449987
 20
-0.24469925288943
 30
0.0
 11
-0.069755026090897
 21
-0.300878469545158
 31
0.0
  0
LINE
  8
9
  6
CONTINUOUS
 62
9
 10
-0.0276206135991004
 20
-0.300878469545158
 30
0.0
 11
-0.0486878198449987
 21
-0.24469925288943
 31
0.0
  0
LINE
  8
9
  6
CONTINUOUS
 62
9
 10
-0.0338203914378532
 20
-0.288840065976073
 30
0.0
 11
-0.0635552482521442
 21
-0.288840065976073
 31
0.0
  0
LINE
  8
9
  6
CONTINUOUS
 62
9
 10
-0.0212634852284602
 20
-0.244699259775353
 30
0.0
 11
-0.0212634917118304
 21
-0.30087846956763
 31
0.0
  0
LINE
  8
9
  6
CONTINUOUS
 62
9
 10
0.0132332289989501
 20
-0.30087847643108
 30
0.0
 11
-0.0212634852284602
 21
-0.244699259775353
 31
0.0
  0
LINE
  8
9
  6
CONTINUOUS
 62
9
 10
0.0132332289989501
 20
-0.244699259775353
 30
0.0
 11
0.0132332289989501
 21
-0.30087847643108
 31
0.0
  0
LINE
  8
9
  6
CONTINUOUS
 62
9
 10
0.0587323439669508
 20
-0.276040097109659
 30
0.0
 11
0.0350273461078442
 21
-0.276040097109659
 31
0.0
  0
ARC
  8
9
  6
CONTINUOUS
 62
9
 10
0.0587323439669537
 20
-0.277725305072352
 30
0.0
 40
0.001685207962693
 50
1.01695055385114E-10
 51
90.0000000001012
  0
LINE
  8
9
  6
CONTINUOUS
 62
9
 10
0.0604175519296468
 20
-0.281967285676803
 30
0.0
 11
0.0604175519296468
 21
-0.27772530507235
 31
0.0
  0
ARC
  8
9
  6
CONTINUOUS
 62
9
 10
0.0412900214932621
 20
-0.282114072047681
 30
0.0
 40
0.0191280936539297
 50
200.855259280575
 51
0.439684280073572
  0
ARC
  8
9
  6
CONTINUOUS
 62
9
 10
0.0708162006096377
 20
-0.27287579037314
 30
0.0
 40
0.0500439757641955
 50
161.293996529298
 51
198.703982620842
  0
ARC
  8
9
  6
CONTINUOUS
 62
9
 10
0.0422303863635177
 20
-0.265355572885568
 30
0.0
 40
0.0206577887732525
 50
35.6800300000032
 51
155.613174782207
  0
LINE
  8
9
  6
CONTINUOUS
 62
9
 10
0.0668822506368807
 20
-0.300879054294577
 30
0.0
 11
0.0998273484042748
 21
-0.300879054294577
 31
0.0
  0
LINE
  8
9
  6
CONTINUOUS
 62
9
 10
0.0668621866309313
 20
-0.272789445966713
 30
0.0
 11
0.0668822506368807
 21
-0.300879054294577
 31
0.0
  0
LINE
  8
9
  6
CONTINUOUS
 62
9
 10
0.0926043062628243
 20
-0.272789445966713
 30
0.0
 11
0.0668621866309313
 21
-0.272789445966713
 31
0.0
  0
LINE
  8
9
  6
CONTINUOUS
 62
9
 10
0.0668421226249828
 20
-0.244699837638849
 30
0.0
 11
0.0668609831295124
 21
-0.271947232229681
 31
0.0
  0
LINE
  8
9
  6
CONTINUOUS
 62
9
 10
0.0970183875703648
 20
-0.244699837638849
 30
0.0
 11
0.0668421226249828
 21
-0.244699837638849
 31
0.0
  0
ARC
  8
9
  6
CONTINUOUS
 62
9
 10
0.185923811813119
 20
-0.284717645863443
 30
0.0
 40
0.0161945139276673
 50
210.521999666257
 51
269.44106333805
  0
LINE
  8
9
  6
CONTINUOUS
 62
9
 10
0.191490771603222
 20
-0.300967239387127
 30
0.0
 11
0.18576583221906
 21
-0.300911389217013
 31
0.0
  0
ARC
  8
9
  6
CONTINUOUS
 62
9
 10
0.19163499087569
 20
-0.286183992737666
 30
0.0
 40
0.0147839501046702
 50
269.441063677773
 51
357.350682656726
  0
ARC
  8
9
  6
CONTINUOUS
 62
9
 10
0.194377736530786
 20
-0.28795799478127
 30
0.0
 40
0.0120747595478664
 50
5.18227244383161
 51
59.3448299999937
  0
LINE
  8
9
  6
CONTINUOUS
 62
9
 10
0.178423994687303
 20
-0.268074436476691
 30
0.0
 11
0.200534294018951
 21
-0.277570665093919
 31
0.0
  0
ARC
  8
9
  6
CONTINUOUS
 62
9
 10
0.184580556203077
 20
-0.257687112035979
 30
0.0
 40
0.0120747570879963
 50
185.18240644022
 51
239.344800865821
  0
ARC
  8
9
  6
CONTINUOUS
 62
9
 10
0.187264123344382
 20
-0.259422062958685
 30
0.0
 40
0.0147230682584808
 50
91.2613438550527
 51
177.491952931064
  0
LINE
  8
9
  6
CONTINUOUS
 62
9
 10
0.192651352710641
 20
-0.244696556670217
 30
0.0
 11
0.186940027017717
 21
-0.244702562270315
 31
0.0
  0
ARC
  8
9
  6
CONTINUOUS
 62
9
 10
0.192141285889101
 20
-0.26037073716654
 30
0.0
 40
0.0156824775591673
 50
29.2717084966241
 51
88.1361471074758
  0
LINE
  8
9
  6
CONTINUOUS
 62
9
 10
0.21601756200232
 20
-0.300878469545158
 30
0.0
 11
0.21601756200232
 21
-0.24469925288943
 31
0.0
  0
LINE
  8
9
  6
CONTINUOUS
 62
9
 10
0.248376790808963
 20
-0.272788861217294
 30
0.0
 11
0.217702938502666
 21
-0.272788861217294
 31
0.0
  0
LINE
  8
9
  6
CONTINUOUS
 62
9
 10
0.250126372114727
 20
-0.24469925288943
 30
0.0
 11
0.250126372114727
 21
-0.300878469545158
 31
0.0
  0
LINE
  8
9
  6
CONTINUOUS
 62
9
 10
0.276811500028445
 20
-0.24469925288943
 30
0.0
 11
0.255744293782547
 21
-0.300878469545158
 31
0.0
  0
LINE
  8
9
  6
CONTINUOUS
 62
9
 10
0.297878706274343
 20
-0.300878469545158
 30
0.0
 11
0.276811500028445
 21
-0.24469925288943
 31
0.0
  0
LINE
  8
9
  6
CONTINUOUS
 62
9
 10
0.291678928435591
 20
-0.288840065976073
 30
0.0
 11
0.2619440716213
 21
-0.288840065976073
 31
0.0
  0
LINE
  8
9
  6
CONTINUOUS
 62
9
 10
0.304901108359118
 20
-0.24469925288943
 30
0.0
 11
0.304901108359118
 21
-0.300878469545158
 31
0.0
  0
LINE
  8
9
  6
CONTINUOUS
 62
9
 10
0.325286138402768
 20
-0.244699252889429
 30
0.0
 11
0.304901108359118
 21
-0.24469925288943
 31
0.0
  0
ARC
  8
9
  6
CONTINUOUS
 62
9
 10
0.324451479338819
 20
-0.258744057053361
 30
0.0
 40
0.0140695834961894
 50
273.400991681353
 51
86.5990083186468
  0
LINE
  8
9
  6
CONTINUOUS
 62
9
 10
0.305743796609291
 20
-0.272788861217294
 30
0.0
 11
0.325286138402769
 21
-0.272788861217293
 31
0.0
  0
LINE
  8
9
  6
CONTINUOUS
 62
9
 10
0.345553950871628
 20
-0.300879054294577
 30
0.0
 11
0.378499048639022
 21
-0.300879054294577
 31
0.0
  0
LINE
  8
9
  6
CONTINUOUS
 62
9
 10
0.345533886865678
 20
-0.272789445966713
 30
0.0
 11
0.345553950871628
 21
-0.300879054294577
 31
0.0
  0
LINE
  8
9
  6
CONTINUOUS
 62
9
 10
0.371276006497571
 20
-0.272789445966713
 30
0.0
 11
0.345533886865678
 21
-0.272789445966713
 31
0.0
  0
LINE
  8
9
  6
CONTINUOUS
 62
9
 10
0.34551382285973
 20
-0.244699837638849
 30
0.0
 11
0.345532683364259
 21
-0.271947232229681
 31
0.0
  0
LINE
  8
9
  6
CONTINUOUS
 62
9
 10
0.375690087805112
 20
-0.244699837638849
 30
0.0
 11
0.34551382285973
 21
-0.244699837638849
 31
0.0
  0
ENDSEC
  0
EOF
