  0
SECTION
  2
HEADER
  9
$ACADVER
  1
AC1003
  9
$EXTMIN
 10
-0.787402
 20
1.106151
  9
$EXTMAX
 10
0.78859
 20
-0.787402
  9
$INSUNITS
 70
1
  9
$INSBASE
 10
0.000593999999999983
 20
0.1593745
999
File generated by Conversation
  0
ENDSEC
  0
SECTION
  2
TABLES
  0
TABLE
  2
LAYER
 70
    10
  0
LAYER
  2
0
 70
     0
 62
     7
  6
CONTINUOUS
  0
LAYER
  2
1
 70
     0
 62
     7
  6
CONTINUOUS
  0
LAYER
  2
2
 70
     0
 62
     7
  6
CONTINUOUS
  0
LAYER
  2
3
 70
     0
 62
     7
  6
CONTINUOUS
  0
LAYER
  2
4
 70
     0
 62
     7
  6
CONTINUOUS
  0
LAYER
  2
5
 70
     0
 62
     7
  6
CONTINUOUS
  0
LAYER
  2
6
 70
     0
 62
     7
  6
CONTINUOUS
  0
LAYER
  2
7
 70
     0
 62
     7
  6
CONTINUOUS
  0
LAYER
  2
8
 70
     0
 62
     7
  6
CONTINUOUS
  0
LAYER
  2
9
 70
     0
 62
     7
  6
CONTINUOUS
  0
LAYER
  2
10
 70
     0
 62
     7
  6
CONTINUOUS
  0
LAYER
  2
11
 70
     0
 62
     7
  6
CONTINUOUS
  0
LAYER
  2
12
 70
     0
 62
     7
  6
CONTINUOUS
  0
LAYER
  2
13
 70
     0
 62
     7
  6
CONTINUOUS
  0
LAYER
  2
14
 70
     0
 62
     7
  6
CONTINUOUS
  0
LAYER
  2
15
 70
     0
 62
     7
  6
CONTINUOUS
  0
LAYER
  2
16
 70
     0
 62
     7
  6
CONTINUOUS
  0
LAYER
  2
17
 70
     0
 62
     7
  6
CONTINUOUS
  0
LAYER
  2
18
 70
     0
 62
     7
  6
CONTINUOUS
  0
LAYER
  2
19
 70
     0
 62
     7
  6
CONTINUOUS
  0
LAYER
  2
20
 70
     0
 62
     7
  6
CONTINUOUS
  0
LAYER
  2
21
 70
     0
 62
     7
  6
CONTINUOUS
  0
LAYER
  2
22
 70
     0
 62
     7
  6
CONTINUOUS
  0
LAYER
  2
23
 70
     0
 62
     7
  6
CONTINUOUS
  0
LAYER
  2
24
 70
     0
 62
     7
  6
CONTINUOUS
  0
LAYER
  2
25
 70
     0
 62
     7
  6
CONTINUOUS
  0
LAYER
  2
26
 70
     0
 62
     7
  6
CONTINUOUS
  0
LAYER
  2
27
 70
     0
 62
     7
  6
CONTINUOUS
  0
LAYER
  2
28
 70
     0
 62
     7
  6
CONTINUOUS
  0
LAYER
  2
29
 70
     0
 62
     7
  6
CONTINUOUS
  0
LAYER
  2
30
 70
     0
 62
     7
  6
CONTINUOUS
  0
LAYER
  2
31
 70
     0
 62
     7
  6
CONTINUOUS
  0
ENDTAB
  0
ENDSEC
  0
SECTION
  2
ENTITIES
  0
LINE
  8
0
  6
CONTINUOUS
 62
0
 10
0.778748
 20
1.096308
 30
0.0
 11
0.78859
 21
1.106151
 31
0.0
  0
LINE
  8
0
  6
CONTINUOUS
 62
0
 10
0.750438
 20
1.096308
 30
0.0
 11
0.760281
 21
1.106151
 31
0.0
  0
LINE
  8
0
  6
CONTINUOUS
 62
0
 10
0.778748
 20
0.880186
 30
0.0
 11
0.78859
 21
0.890029
 31
0.0
  0
LINE
  8
0
  6
CONTINUOUS
 62
0
 10
0.69381
 20
1.096308
 30
0.0
 11
0.703653
 21
1.106151
 31
0.0
  0
LINE
  8
0
  6
CONTINUOUS
 62
0
 10
0.647566
 20
1.096308
 30
0.0
 11
0.657409
 21
1.106151
 31
0.0
  0
LINE
  8
0
  6
CONTINUOUS
 62
0
 10
0.675878
 20
0.880186
 30
0.0
 11
0.68572
 21
0.890029
 31
0.0
  0
LINE
  8
0
  6
CONTINUOUS
 62
0
 10
0.471377
 20
1.106151
 30
0.0
 11
0.461535
 21
1.096308
 31
0.0
  0
LINE
  8
0
  6
CONTINUOUS
 62
0
 10
0.500633
 20
1.106151
 30
0.0
 11
0.49079
 21
1.096308
 31
0.0
  0
LINE
  8
0
  6
CONTINUOUS
 62
0
 10
0.500633
 20
0.890029
 30
0.0
 11
0.49079
 21
0.880186
 31
0.0
  0
LINE
  8
0
  6
CONTINUOUS
 62
0
 10
0.320386
 20
1.106151
 30
0.0
 11
0.310543
 21
1.096308
 31
0.0
  0
LINE
  8
0
  6
CONTINUOUS
 62
0
 10
0.450626
 20
1.106151
 30
0.0
 11
0.440783
 21
1.096308
 31
0.0
  0
LINE
  8
0
  6
CONTINUOUS
 62
0
 10
0.450626
 20
1.081612
 30
0.0
 11
0.440783
 21
1.071769
 31
0.0
  0
LINE
  8
0
  6
CONTINUOUS
 62
0
 10
0.399662
 20
0.890029
 30
0.0
 11
0.38982
 21
0.880186
 31
0.0
  0
LINE
  8
0
  6
CONTINUOUS
 62
0
 10
0.253154
 20
1.106151
 30
0.0
 11
0.243311
 21
1.096308
 31
0.0
  0
LINE
  8
0
  6
CONTINUOUS
 62
0
 10
0.292792
 20
1.106151
 30
0.0
 11
0.282949
 21
1.096308
 31
0.0
  0
LINE
  8
0
  6
CONTINUOUS
 62
0
 10
0.231447
 20
0.890029
 30
0.0
 11
0.221605
 21
0.880186
 31
0.0
  0
LINE
  8
0
  6
CONTINUOUS
 62
0
 10
0.342812
 20
0.890029
 30
0.0
 11
0.332969
 21
0.880186
 31
0.0
  0
LINE
  8
0
  6
CONTINUOUS
 62
0
 10
0.247274
 20
0.963642
 30
0.0
 11
0.237432
 21
0.9538
 31
0.0
  0
LINE
  8
0
  6
CONTINUOUS
 62
0
 10
-0.075365
 20
1.106151
 30
0.0
 11
-0.085207
 21
1.096308
 31
0.0
  0
LINE
  8
0
  6
CONTINUOUS
 62
0
 10
-0.046108
 20
1.011065
 30
0.0
 11
-0.055951
 21
1.001222
 31
0.0
  0
LINE
  8
0
  6
CONTINUOUS
 62
0
 10
-0.046108
 20
0.890029
 30
0.0
 11
-0.055951
 21
0.880186
 31
0.0
  0
LINE
  8
0
  6
CONTINUOUS
 62
0
 10
0.046356
 20
0.890029
 30
0.0
 11
0.036514
 21
0.880186
 31
0.0
  0
LINE
  8
0
  6
CONTINUOUS
 62
0
 10
-0.193326
 20
1.106151
 30
0.0
 11
-0.203168
 21
1.096308
 31
0.0
  0
LINE
  8
0
  6
CONTINUOUS
 62
0
 10
-0.096118
 20
1.106151
 30
0.0
 11
-0.105961
 21
1.096308
 31
0.0
  0
LINE
  8
0
  6
CONTINUOUS
 62
0
 10
-0.096118
 20
1.081612
 30
0.0
 11
-0.105961
 21
1.071769
 31
0.0
  0
LINE
  8
0
  6
CONTINUOUS
 62
0
 10
-0.099893
 20
1.012718
 30
0.0
 11
-0.109736
 21
1.002875
 31
0.0
  0
LINE
  8
0
  6
CONTINUOUS
 62
0
 10
-0.099893
 20
0.988181
 30
0.0
 11
-0.109736
 21
0.978339
 31
0.0
  0
LINE
  8
0
  6
CONTINUOUS
 62
0
 10
-0.09423
 20
0.914567
 30
0.0
 11
-0.104073
 21
0.904725
 31
0.0
  0
LINE
  8
0
  6
CONTINUOUS
 62
0
 10
-0.09423
 20
0.890029
 30
0.0
 11
-0.104073
 21
0.880186
 31
0.0
  0
LINE
  8
0
  6
CONTINUOUS
 62
0
 10
-0.164069
 20
1.012718
 30
0.0
 11
-0.173911
 21
1.002875
 31
0.0
  0
LINE
  8
0
  6
CONTINUOUS
 62
0
 10
-0.173911
 20
0.904725
 30
0.0
 11
-0.164069
 21
0.914567
 31
0.0
  0
LINE
  8
0
  6
CONTINUOUS
 62
0
 10
-0.261268
 20
0.890029
 30
0.0
 11
-0.27111
 21
0.880186
 31
0.0
  0
LINE
  8
0
  6
CONTINUOUS
 62
0
 10
-0.253179
 20
1.096308
 30
0.0
 11
-0.243336
 21
1.106151
 31
0.0
  0
LINE
  8
0
  6
CONTINUOUS
 62
0
 10
-0.214079
 20
1.106151
 30
0.0
 11
-0.223921
 21
1.096308
 31
0.0
  0
LINE
  8
0
  6
CONTINUOUS
 62
0
 10
-0.313174
 20
1.106151
 30
0.0
 11
-0.323016
 21
1.096308
 31
0.0
  0
LINE
  8
0
  6
CONTINUOUS
 62
0
 10
-0.344319
 20
1.106151
 30
0.0
 11
-0.354161
 21
1.096308
 31
0.0
  0
LINE
  8
0
  6
CONTINUOUS
 62
0
 10
-0.393383
 20
1.106151
 30
0.0
 11
-0.403225
 21
1.096308
 31
0.0
  0
LINE
  8
0
  6
CONTINUOUS
 62
0
 10
-0.365073
 20
1.106151
 30
0.0
 11
-0.374915
 21
1.096308
 31
0.0
  0
LINE
  8
0
  6
CONTINUOUS
 62
0
 10
-0.365073
 20
0.890029
 30
0.0
 11
-0.374915
 21
0.880186
 31
0.0
  0
LINE
  8
0
  6
CONTINUOUS
 62
0
 10
-0.450011
 20
1.106151
 30
0.0
 11
-0.459853
 21
1.096308
 31
0.0
  0
LINE
  8
0
  6
CONTINUOUS
 62
0
 10
-0.496255
 20
1.106151
 30
0.0
 11
-0.506097
 21
1.096308
 31
0.0
  0
LINE
  8
0
  6
CONTINUOUS
 62
0
 10
-0.467943
 20
0.890029
 30
0.0
 11
-0.477785
 21
0.880186
 31
0.0
  0
LINE
  8
0
  6
CONTINUOUS
 62
0
 10
-0.65243
 20
1.047912
 30
0.0
 11
-0.662272
 21
1.03807
 31
0.0
  0
LINE
  8
0
  6
CONTINUOUS
 62
0
 10
-0.65243
 20
0.948284
 30
0.0
 11
-0.662273
 21
0.938441
 31
0.0
  0
LINE
  8
0
  6
CONTINUOUS
 62
0
 10
-0.679992
 20
0.948284
 30
0.0
 11
-0.689835
 21
0.938441
 31
0.0
  0
LINE
  8
0
  6
CONTINUOUS
 62
0
 10
0.09407
 20
0.948284
 30
0.0
 11
0.084228
 21
0.938441
 31
0.0
  0
LINE
  8
0
  6
CONTINUOUS
 62
0
 10
0.066508
 20
0.948284
 30
0.0
 11
0.056665
 21
0.938441
 31
0.0
  0
LINE
  8
0
  6
CONTINUOUS
 62
0
 10
0.182983
 20
1.047912
 30
0.0
 11
0.173141
 21
1.03807
 31
0.0
  0
LINE
  8
0
  6
CONTINUOUS
 62
0
 10
0.548347
 20
0.948284
 30
0.0
 11
0.538504
 21
0.938441
 31
0.0
  0
LINE
  8
0
  6
CONTINUOUS
 62
0
 10
0.637259
 20
1.047912
 30
0.0
 11
0.627416
 21
1.03807
 31
0.0
  0
LINE
  8
0
  6
CONTINUOUS
 62
0
 10
0.637259
 20
0.948284
 30
0.0
 11
0.627416
 21
0.938441
 31
0.0
  0
LINE
  8
0
  6
CONTINUOUS
 62
0
 10
0.548347
 20
1.047912
 30
0.0
 11
0.538504
 21
1.03807
 31
0.0
  0
LINE
  8
0
  6
CONTINUOUS
 62
0
 10
-0.605317
 20
0.948284
 30
0.0
 11
-0.615159
 21
0.938441
 31
0.0
  0
LINE
  8
0
  6
CONTINUOUS
 62
0
 10
-0.605317
 20
1.047912
 30
0.0
 11
-0.615159
 21
1.03807
 31
0.0
  0
LINE
  8
0
  6
CONTINUOUS
 62
0
 10
-0.516405
 20
1.047912
 30
0.0
 11
-0.526247
 21
1.03807
 31
0.0
  0
LINE
  8
0
  6
CONTINUOUS
 62
0
 10
-0.516405
 20
0.948284
 30
0.0
 11
-0.526247
 21
0.938441
 31
0.0
  0
LINE
  8
0
  6
CONTINUOUS
 62
0
 10
-0.741342
 20
0.948284
 30
0.0
 11
-0.751184
 21
0.938441
 31
0.0
  0
LINE
  8
0
  6
CONTINUOUS
 62
0
 10
-0.741342
 20
1.047912
 30
0.0
 11
-0.751184
 21
1.03807
 31
0.0
  0
LINE
  8
0
  6
CONTINUOUS
 62
0
 10
0.15102
 20
1.000259
 30
0.0
 11
0.141177
 21
0.990417
 31
0.0
  0
LINE
  8
0
  6
CONTINUOUS
 62
0
 10
0.110907
 20
1.020534
 30
0.0
 11
0.101065
 21
1.010692
 31
0.0
  0
LINE
  8
0
  6
CONTINUOUS
 62
0
 10
-0.014044
 20
1.106151
 30
0.0
 11
-0.023886
 21
1.096308
 31
0.0
  0
LINE
  8
0
  6
CONTINUOUS
 62
0
 10
0.035337
 20
0.962739
 30
0.0
 11
0.025495
 21
0.952897
 31
0.0
  0
LINE
  8
0
  6
CONTINUOUS
 62
0
 10
-0.751848
 20
1.089093
 30
0.0
 11
-0.76169
 21
1.07925
 31
0.0
  0
LINE
  8
0
  6
CONTINUOUS
 62
0
 10
-0.615823
 20
1.089093
 30
0.0
 11
-0.625666
 21
1.07925
 31
0.0
  0
LINE
  8
0
  6
CONTINUOUS
 62
0
 10
-0.669488
 20
0.907104
 30
0.0
 11
-0.67933
 21
0.897261
 31
0.0
  0
LINE
  8
0
  6
CONTINUOUS
 62
0
 10
-0.533462
 20
0.907104
 30
0.0
 11
-0.543305
 21
0.897261
 31
0.0
  0
LINE
  8
0
  6
CONTINUOUS
 62
0
 10
0.028665
 20
1.003044
 30
0.0
 11
0.018823
 21
0.993201
 31
0.0
  0
LINE
  8
0
  6
CONTINUOUS
 62
0
 10
0.165925
 20
0.907104
 30
0.0
 11
0.156083
 21
0.897261
 31
0.0
  0
LINE
  8
0
  6
CONTINUOUS
 62
0
 10
0.083565
 20
1.089093
 30
0.0
 11
0.073722
 21
1.07925
 31
0.0
  0
LINE
  8
0
  6
CONTINUOUS
 62
0
 10
0.620201
 20
0.907104
 30
0.0
 11
0.610359
 21
0.897261
 31
0.0
  0
LINE
  8
0
  6
CONTINUOUS
 62
0
 10
0.53784
 20
1.089093
 30
0.0
 11
0.527998
 21
1.07925
 31
0.0
  0
LINE
  8
0
  6
CONTINUOUS
 62
0
 10
-0.023886
 20
1.001222
 30
0.0
 11
-0.014043
 21
1.011065
 31
0.0
  0
LINE
  8
1
  6
CONTINUOUS
 62
1
 10
-0.403225
 20
0.910387
 30
0.0
 11
-0.403225
 21
0.952545
 31
0.0
  0
LINE
  8
1
  6
CONTINUOUS
 62
1
 10
-0.374915
 20
1.096308
 30
0.0
 11
-0.403225
 21
1.096308
 31
0.0
  0
LINE
  8
1
  6
CONTINUOUS
 62
1
 10
-0.374915
 20
0.880186
 30
0.0
 11
-0.374915
 21
1.096308
 31
0.0
  0
LINE
  8
1
  6
CONTINUOUS
 62
1
 10
-0.42116
 20
0.880186
 30
0.0
 11
-0.374915
 21
0.880186
 31
0.0
  0
LINE
  8
1
  6
CONTINUOUS
 62
1
 10
-0.467943
 20
1.029892
 30
0.0
 11
-0.42116
 21
0.880186
 31
0.0
  0
LINE
  8
1
  6
CONTINUOUS
 62
1
 10
-0.477785
 20
0.880186
 30
0.0
 11
-0.477785
 21
1.061388
 31
0.0
  0
LINE
  8
1
  6
CONTINUOUS
 62
1
 10
-0.506097
 20
0.880186
 30
0.0
 11
-0.477785
 21
0.880186
 31
0.0
  0
LINE
  8
1
  6
CONTINUOUS
 62
1
 10
-0.506097
 20
1.096308
 30
0.0
 11
-0.506097
 21
0.880186
 31
0.0
  0
LINE
  8
1
  6
CONTINUOUS
 62
1
 10
-0.459853
 20
1.096308
 30
0.0
 11
-0.506097
 21
1.096308
 31
0.0
  0
LINE
  8
1
  6
CONTINUOUS
 62
1
 10
-0.403225
 20
0.910387
 30
0.0
 11
-0.459853
 21
1.096308
 31
0.0
  0
LINE
  8
1
  6
CONTINUOUS
 62
1
 10
-0.751184
 20
0.938441
 30
0.0
 11
-0.751184
 21
1.03807
 31
0.0
  0
LINE
  8
1
  6
CONTINUOUS
 62
1
 10
-0.662273
 20
0.938441
 30
0.0
 11
-0.689835
 21
0.938441
 31
0.0
  0
LINE
  8
1
  6
CONTINUOUS
 62
1
 10
-0.778748
 20
1.03807
 30
0.0
 11
-0.778748
 21
0.938441
 31
0.0
  0
ARC
  8
1
  6
CONTINUOUS
 62
1
 10
-0.72051
 20
1.03807
 30
0.0
 40
0.058238
 50
359.999999999998
 51
128.136475
  0
LINE
  8
1
  6
CONTINUOUS
 62
1
 10
-0.689835
 20
1.03807
 30
0.0
 11
-0.662272
 21
1.03807
 31
0.0
  0
ARC
  8
1
  6
CONTINUOUS
 62
1
 10
-0.72051
 20
1.03807
 30
0.0
 40
0.030675
 50
359.999999999999
 51
121.8862
  0
ARC
  8
1
  6
CONTINUOUS
 62
1
 10
-0.584484
 20
1.03807
 30
0.0
 40
0.0306749999999999
 50
359.999999999999
 51
121.886169
  0
ARC
  8
1
  6
CONTINUOUS
 62
1
 10
-0.584485
 20
1.03807
 30
0.0
 40
0.058238
 50
359.999999999998
 51
128.136475
  0
LINE
  8
1
  6
CONTINUOUS
 62
1
 10
-0.615159
 20
1.03807
 30
0.0
 11
-0.615159
 21
0.938441
 31
0.0
  0
LINE
  8
1
  6
CONTINUOUS
 62
1
 10
-0.526247
 20
1.03807
 30
0.0
 11
-0.526247
 21
0.938441
 31
0.0
  0
LINE
  8
1
  6
CONTINUOUS
 62
1
 10
-0.642723
 20
1.03807
 30
0.0
 11
-0.642723
 21
0.938441
 31
0.0
  0
LINE
  8
1
  6
CONTINUOUS
 62
1
 10
-0.55381
 20
1.03807
 30
0.0
 11
-0.55381
 21
0.938441
 31
0.0
  0
LINE
  8
1
  6
CONTINUOUS
 62
1
 10
-0.477785
 20
1.061388
 30
0.0
 11
-0.467943
 21
1.029892
 31
0.0
  0
LINE
  8
1
  6
CONTINUOUS
 62
1
 10
-0.403225
 20
1.096308
 30
0.0
 11
-0.403225
 21
0.952545
 31
0.0
  0
ARC
  8
1
  6
CONTINUOUS
 62
1
 10
-0.72051
 20
0.938441
 30
0.0
 40
0.030675
 50
328.1138
 51
360
  0
ARC
  8
1
  6
CONTINUOUS
 62
1
 10
-0.72051
 20
1.03807
 30
0.0
 40
0.0306749999999999
 50
359.999999999999
 51
121.883339462371
  0
ARC
  8
1
  6
CONTINUOUS
 62
1
 10
-0.720511
 20
0.938441000000002
 30
0.0
 40
0.0582380000000001
 50
321.863555999998
 51
359.999999999998
  0
ARC
  8
1
  6
CONTINUOUS
 62
1
 10
-0.584484
 20
1.03807
 30
0.0
 40
0.0306749999999999
 50
359.999999999999
 51
121.886928171588
  0
ARC
  8
1
  6
CONTINUOUS
 62
1
 10
-0.584484
 20
0.938441
 30
0.0
 40
0.030675
 50
328.113831
 51
360
  0
ARC
  8
1
  6
CONTINUOUS
 62
1
 10
-0.584485
 20
0.938441000000001
 30
0.0
 40
0.0582380000000001
 50
321.863524999998
 51
359.999999999998
  0
ARC
  8
1
  6
CONTINUOUS
 62
1
 10
-0.72051
 20
1.03807
 30
0.0
 40
0.058238
 50
359.999999999998
 51
180
  0
ARC
  8
1
  6
CONTINUOUS
 62
1
 10
-0.584485
 20
1.03807
 30
0.0
 40
0.058238
 50
359.999999999998
 51
180
  0
ARC
  8
1
  6
CONTINUOUS
 62
1
 10
-0.720511
 20
0.938441
 30
0.0
 40
0.0582380000000001
 50
315
 51
321.863556
  0
ARC
  8
1
  6
CONTINUOUS
 62
1
 10
-0.584484999999998
 20
0.938441
 30
0.0
 40
0.0582379999999993
 50
314.999999999998
 51
321.863524999998
  0
ARC
  8
1
  6
CONTINUOUS
 62
1
 10
-0.72051
 20
0.938441
 30
0.0
 40
0.030675
 50
180.001867992401
 51
328.113799999998
  0
ARC
  8
1
  6
CONTINUOUS
 62
1
 10
-0.720509999999999
 20
1.03807
 30
0.0
 40
0.0582379999999996
 50
359.999999999999
 51
134.999999999999
  0
ARC
  8
1
  6
CONTINUOUS
 62
1
 10
-0.720510500000001
 20
0.938440792893217
 30
0.0
 40
0.0582375000003677
 50
179.999796242206
 51
314.999796242205
  0
ARC
  8
1
  6
CONTINUOUS
 62
1
 10
-0.72051
 20
1.03807
 30
0.0
 40
0.0306749999999998
 50
121.883339462371
 51
180
  0
ARC
  8
1
  6
CONTINUOUS
 62
1
 10
-0.584485000000001
 20
0.938440999999998
 30
0.0
 40
0.0582379999999995
 50
179.999999999999
 51
314.999999999998
  0
ARC
  8
1
  6
CONTINUOUS
 62
1
 10
-0.584484
 20
0.938440999999999
 30
0.0
 40
0.030675
 50
180
 51
328.113830999998
  0
ARC
  8
1
  6
CONTINUOUS
 62
1
 10
-0.584484
 20
1.03807
 30
0.0
 40
0.0306749999999998
 50
121.886928171588
 51
180
  0
LINE
  8
2
  6
CONTINUOUS
 62
2
 10
-0.281833
 20
0.944011
 30
0.0
 11
-0.287626
 21
0.913219
 31
0.0
  0
LINE
  8
2
  6
CONTINUOUS
 62
2
 10
-0.223921
 20
1.096308
 30
0.0
 11
-0.253179
 21
1.096308
 31
0.0
  0
LINE
  8
2
  6
CONTINUOUS
 62
2
 10
-0.27111
 20
0.880186
 30
0.0
 11
-0.223921
 21
1.096308
 31
0.0
  0
LINE
  8
2
  6
CONTINUOUS
 62
2
 10
-0.307917
 20
0.880186
 30
0.0
 11
-0.27111
 21
0.880186
 31
0.0
  0
LINE
  8
2
  6
CONTINUOUS
 62
2
 10
-0.354161
 20
1.096308
 30
0.0
 11
-0.307917
 21
0.880186
 31
0.0
  0
LINE
  8
2
  6
CONTINUOUS
 62
2
 10
-0.323016
 20
1.096308
 30
0.0
 11
-0.354161
 21
1.096308
 31
0.0
  0
LINE
  8
2
  6
CONTINUOUS
 62
2
 10
-0.287626
 20
0.913219
 30
0.0
 11
-0.323016
 21
1.096308
 31
0.0
  0
LINE
  8
2
  6
CONTINUOUS
 62
2
 10
-0.173911
 20
1.002875
 30
0.0
 11
-0.173911
 21
1.071769
 31
0.0
  0
LINE
  8
2
  6
CONTINUOUS
 62
2
 10
-0.109736
 20
1.002875
 30
0.0
 11
-0.173911
 21
1.002875
 31
0.0
  0
LINE
  8
2
  6
CONTINUOUS
 62
2
 10
-0.109736
 20
0.978339
 30
0.0
 11
-0.109736
 21
1.002875
 31
0.0
  0
LINE
  8
2
  6
CONTINUOUS
 62
2
 10
-0.164069
 20
0.978339
 30
0.0
 11
-0.109736
 21
0.978339
 31
0.0
  0
LINE
  8
2
  6
CONTINUOUS
 62
2
 10
-0.173911
 20
0.904725
 30
0.0
 11
-0.173911
 21
0.978339
 31
0.0
  0
LINE
  8
2
  6
CONTINUOUS
 62
2
 10
-0.104073
 20
0.904725
 30
0.0
 11
-0.173911
 21
0.904725
 31
0.0
  0
LINE
  8
2
  6
CONTINUOUS
 62
2
 10
-0.104073
 20
0.880186
 30
0.0
 11
-0.104073
 21
0.904725
 31
0.0
  0
LINE
  8
2
  6
CONTINUOUS
 62
2
 10
-0.203168
 20
0.880186
 30
0.0
 11
-0.104073
 21
0.880186
 31
0.0
  0
LINE
  8
2
  6
CONTINUOUS
 62
2
 10
-0.203168
 20
1.096308
 30
0.0
 11
-0.203168
 21
0.880186
 31
0.0
  0
LINE
  8
2
  6
CONTINUOUS
 62
2
 10
-0.105961
 20
1.096308
 30
0.0
 11
-0.203168
 21
1.096308
 31
0.0
  0
LINE
  8
2
  6
CONTINUOUS
 62
2
 10
-0.105961
 20
1.071769
 30
0.0
 11
-0.105961
 21
1.096308
 31
0.0
  0
LINE
  8
2
  6
CONTINUOUS
 62
2
 10
-0.164069
 20
1.071769
 30
0.0
 11
-0.105961
 21
1.071769
 31
0.0
  0
LINE
  8
2
  6
CONTINUOUS
 62
2
 10
-0.055951
 20
1.001222
 30
0.0
 11
-0.055951
 21
1.070592
 31
0.0
  0
LINE
  8
2
  6
CONTINUOUS
 62
2
 10
-0.023886
 20
1.096308
 30
0.0
 11
-0.085207
 21
1.096308
 31
0.0
  0
ARC
  8
2
  6
CONTINUOUS
 62
2
 10
-0.0238859999999992
 20
1.035909
 30
0.0
 40
0.0603990000000002
 50
302.855254999999
 51
314.999999999999
  0
ARC
  8
2
  6
CONTINUOUS
 62
2
 10
-0.0307080000000004
 20
0.94438
 30
0.0
 40
0.056845
 50
45.8566279999996
 51
225.856628
  0
ARC
  8
2
  6
CONTINUOUS
 62
2
 10
-0.0307079999999992
 20
0.94438
 30
0.0
 40
0.056845
 50
225.856627999998
 51
45.8566279999996
  0
LINE
  8
2
  6
CONTINUOUS
 62
2
 10
0.036514
 20
0.880186
 30
0.0
 11
0.025495
 21
0.952897
 31
0.0
  0
LINE
  8
2
  6
CONTINUOUS
 62
2
 10
0.0108
 20
0.880186
 30
0.0
 11
0.036514
 21
0.880186
 31
0.0
  0
LINE
  8
2
  6
CONTINUOUS
 62
2
 10
5.2E-5
 20
0.949171
 30
0.0
 11
0.0108
 21
0.880186
 31
0.0
  0
ARC
  8
2
  6
CONTINUOUS
 62
2
 10
-0.0307060000000006
 20
0.944378
 30
0.0
 40
0.031129
 50
90.0077509999989
 51
270.007750999998
  0
ARC
  8
2
  6
CONTINUOUS
 62
2
 10
-0.0307059999999994
 20
0.944378
 30
0.0
 40
0.031129
 50
270.007750999998
 51
90.0077509999996
  0
LINE
  8
2
  6
CONTINUOUS
 62
2
 10
-0.046108
 20
0.975506
 30
0.0
 11
-0.03071
 21
0.975508
 31
0.0
  0
LINE
  8
2
  6
CONTINUOUS
 62
2
 10
-0.055951
 20
0.880186
 30
0.0
 11
-0.055951
 21
0.975505
 31
0.0
  0
LINE
  8
2
  6
CONTINUOUS
 62
2
 10
-0.085207
 20
0.880186
 30
0.0
 11
-0.055951
 21
0.880186
 31
0.0
  0
LINE
  8
2
  6
CONTINUOUS
 62
2
 10
-0.085207
 20
1.096308
 30
0.0
 11
-0.085207
 21
0.880186
 31
0.0
  0
ARC
  8
2
  6
CONTINUOUS
 62
2
 10
-0.0238859999999996
 20
1.035907
 30
0.0
 40
0.034685
 50
326.575316999999
 51
146.575317
  0
ARC
  8
2
  6
CONTINUOUS
 62
2
 10
-0.0238860000000004
 20
1.035907
 30
0.0
 40
0.034685
 50
146.575316999999
 51
326.575316999999
  0
LINE
  8
2
  6
CONTINUOUS
 62
2
 10
-0.046108
 20
1.070592
 30
0.0
 11
-0.023886
 21
1.070592
 31
0.0
  0
ARC
  8
2
  6
CONTINUOUS
 62
2
 10
-0.201962
 20
0.0443019999999998
 30
0.0
 40
0.017875
 50
213.433288999998
 51
270.015990999998
  0
ARC
  8
2
  6
CONTINUOUS
 62
2
 10
-0.199782
 20
0.044414
 30
0.0
 40
0.018119
 50
263.104155999998
 51
34.0979159999996
  0
ARC
  8
2
  6
CONTINUOUS
 62
2
 10
-0.202533
 20
0.0391240000000001
 30
0.0
 40
0.023535
 50
41.0237119999996
 51
127.558533
  0
LINE
  8
2
  6
CONTINUOUS
 62
2
 10
-0.21688
 20
0.057782
 30
0.0
 11
-0.21688
 21
0.082662
 31
0.0
  0
LINE
  8
2
  6
CONTINUOUS
 62
2
 10
-0.21688
 20
0.082662
 30
0.0
 11
-0.182914
 21
0.082662
 31
0.0
  0
ARC
  8
2
  6
CONTINUOUS
 62
2
 10
-0.161433
 20
0.0403599999999998
 30
0.0
 40
0.013777
 50
199.465438999998
 51
268.514556999999
  0
ARC
  8
2
  6
CONTINUOUS
 62
2
 10
-0.122632
 20
0.0546
 30
0.0
 40
0.055108
 50
160.01918
 51
199.98082
  0
ARC
  8
2
  6
CONTINUOUS
 62
2
 10
-0.161369
 20
0.0688230000000002
 30
0.0
 40
0.013842
 50
19.4473479999996
 51
160.559586
  0
ARC
  8
2
  6
CONTINUOUS
 62
2
 10
-0.200107002136456
 20
0.0545999941245762
 30
0.0
 40
0.055108
 50
340.0174325
 51
19.9825675
  0
ARC
  8
2
  6
CONTINUOUS
 62
2
 10
-0.161261
 20
0.040285
 30
0.0
 40
0.01371
 50
271.354979999998
 51
340.759246999998
  0
LINE
  8
2
  6
CONTINUOUS
 62
2
 10
-0.193259
 20
-0.519183
 30
0.0
 11
-0.193259
 21
-0.463003
 31
0.0
  0
LINE
  8
2
  6
CONTINUOUS
 62
2
 10
-0.193259
 20
-0.463003
 30
0.0
 11
-0.222352
 21
-0.50594
 31
0.0
  0
LINE
  8
2
  6
CONTINUOUS
 62
2
 10
-0.222352
 20
-0.50594
 30
0.0
 11
-0.185033
 21
-0.50594
 31
0.0
  0
LINE
  8
2
  6
CONTINUOUS
 62
2
 10
-0.179415
 20
-0.463003
 30
0.0
 11
-0.145708
 21
-0.463003
 31
0.0
  0
ARC
  8
2
  6
CONTINUOUS
 62
2
 10
-0.0604710000000004
 20
-0.519192
 30
0.0
 40
0.102091
 50
146.606873
 51
179.994705
  0
LINE
  8
2
  6
CONTINUOUS
 62
2
 10
-0.023886
 20
1.001222
 30
0.0
 11
-0.055951
 21
1.001222
 31
0.0
  0
LINE
  8
2
  6
CONTINUOUS
 62
2
 10
-0.055951
 20
1.070592
 30
0.0
 11
-0.046108
 21
1.070592
 31
0.0
  0
ARC
  8
2
  6
CONTINUOUS
 62
2
 10
-0.0238859999999996
 20
1.035907
 30
0.0
 40
0.034685
 50
326.575316999998
 51
89.9999999999996
  0
LINE
  8
2
  6
CONTINUOUS
 62
2
 10
-0.055951
 20
0.975505
 30
0.0
 11
-0.046108
 21
0.975506
 31
0.0
  0
ARC
  8
2
  6
CONTINUOUS
 62
2
 10
-0.0238859999999992
 20
1.035909
 30
0.0
 40
0.0603990000000001
 50
321.616881999998
 51
90.0003049999996
  0
ARC
  8
2
  6
CONTINUOUS
 62
2
 10
-0.0238859999999979
 20
1.035909
 30
0.0
 40
0.060398999999999
 50
316.154448999998
 51
321.616881999998
  0
LINE
  8
2
  6
CONTINUOUS
 62
2
 10
-0.173911
 20
0.978339
 30
0.0
 11
-0.164069
 21
0.978339
 31
0.0
  0
LINE
  8
2
  6
CONTINUOUS
 62
2
 10
-0.173911
 20
1.071769
 30
0.0
 11
-0.164069
 21
1.071769
 31
0.0
  0
LINE
  8
2
  6
CONTINUOUS
 62
2
 10
-0.253179
 20
1.096308
 30
0.0
 11
-0.281833
 21
0.944011
 31
0.0
  0
ARC
  8
2
  6
CONTINUOUS
 62
2
 10
-0.023885999999997
 20
1.035909
 30
0.0
 40
0.0603989999999986
 50
314.999999999998
 51
316.154448999998
  0
ARC
  8
3
  6
CONTINUOUS
 62
3
 10
0.114901000000002
 20
1.038071
 30
0.0
 40
0.058237
 50
243.183959999998
 51
63.1839599999996
  0
ARC
  8
3
  6
CONTINUOUS
 62
3
 10
0.114901
 20
1.038071
 30
0.0
 40
0.058237
 50
63.1839599999996
 51
243.18396
  0
ARC
  8
3
  6
CONTINUOUS
 62
3
 10
0.114903
 20
1.03807
 30
0.0
 40
0.058238
 50
359.999999999998
 51
128.136475
  0
LINE
  8
3
  6
CONTINUOUS
 62
3
 10
0.145578
 20
1.03807
 30
0.0
 11
0.173141
 21
1.03807
 31
0.0
  0
ARC
  8
3
  6
CONTINUOUS
 62
3
 10
0.114903
 20
1.03807
 30
0.0
 40
0.0306749999999999
 50
359.999999999999
 51
121.8862
  0
ARC
  8
3
  6
CONTINUOUS
 62
3
 10
0.114905
 20
1.038069
 30
0.0
 40
0.0306770000000001
 50
243.182372999998
 51
63.1823729999997
  0
ARC
  8
3
  6
CONTINUOUS
 62
3
 10
0.114905
 20
1.038069
 30
0.0
 40
0.0306770000000001
 50
63.1823729999996
 51
243.182373
  0
LINE
  8
3
  6
CONTINUOUS
 62
3
 10
0.141177
 20
0.990417
 30
0.0
 11
0.101065
 21
1.010692
 31
0.0
  0
ARC
  8
3
  6
CONTINUOUS
 62
3
 10
0.114902
 20
0.938442
 30
0.0
 40
0.0582380000000001
 50
321.863036999998
 51
63.1814579999996
  0
ARC
  8
3
  6
CONTINUOUS
 62
3
 10
0.114903
 20
0.938441
 30
0.0
 40
0.058238
 50
314.999999999998
 51
135
  0
ARC
  8
3
  6
CONTINUOUS
 62
3
 10
0.114903
 20
0.938440999999999
 30
0.0
 40
0.058238
 50
134.999999999998
 51
314.999999999998
  0
LINE
  8
3
  6
CONTINUOUS
 62
3
 10
0.084228
 20
0.938441
 30
0.0
 11
0.056665
 21
0.938441
 31
0.0
  0
ARC
  8
3
  6
CONTINUOUS
 62
3
 10
0.114903
 20
0.938441
 30
0.0
 40
0.030675
 50
328.113830999998
 51
148.113831
  0
ARC
  8
3
  6
CONTINUOUS
 62
3
 10
0.114903
 20
0.938441
 30
0.0
 40
0.030675
 50
148.113830999998
 51
328.113830999998
  0
ARC
  8
3
  6
CONTINUOUS
 62
3
 10
0.114903
 20
0.938442
 30
0.0
 40
0.030675
 50
328.113219999998
 51
63.1837769999996
  0
LINE
  8
3
  6
CONTINUOUS
 62
3
 10
0.088629
 20
0.986097
 30
0.0
 11
0.128741
 21
0.965818
 31
0.0
  0
LINE
  8
3
  6
CONTINUOUS
 62
3
 10
0.284242
 20
0.963642
 30
0.0
 11
0.286303
 21
0.9538
 31
0.0
  0
LINE
  8
3
  6
CONTINUOUS
 62
3
 10
0.262187
 20
1.068941
 30
0.0
 11
0.237432
 21
0.9538
 31
0.0
  0
LINE
  8
3
  6
CONTINUOUS
 62
3
 10
0.193292
 20
0.880186
 30
0.0
 11
0.221605
 21
0.880186
 31
0.0
  0
LINE
  8
3
  6
CONTINUOUS
 62
3
 10
0.243311
 20
1.096308
 30
0.0
 11
0.193292
 21
0.880186
 31
0.0
  0
LINE
  8
3
  6
CONTINUOUS
 62
3
 10
0.282949
 20
1.096308
 30
0.0
 11
0.243311
 21
1.096308
 31
0.0
  0
LINE
  8
3
  6
CONTINUOUS
 62
3
 10
0.332969
 20
0.880186
 30
0.0
 11
0.282949
 21
1.096308
 31
0.0
  0
LINE
  8
3
  6
CONTINUOUS
 62
3
 10
0.301825
 20
0.880186
 30
0.0
 11
0.332969
 21
0.880186
 31
0.0
  0
LINE
  8
3
  6
CONTINUOUS
 62
3
 10
0.291443
 20
0.929263
 30
0.0
 11
0.301825
 21
0.880186
 31
0.0
  0
LINE
  8
3
  6
CONTINUOUS
 62
3
 10
0.239883
 20
0.929263
 30
0.0
 11
0.291443
 21
0.929263
 31
0.0
  0
LINE
  8
3
  6
CONTINUOUS
 62
3
 10
0.286303
 20
0.9538
 30
0.0
 11
0.237432
 21
0.9538
 31
0.0
  0
LINE
  8
3
  6
CONTINUOUS
 62
3
 10
0.38982
 20
0.890029
 30
0.0
 11
0.38982
 21
1.071769
 31
0.0
  0
LINE
  8
3
  6
CONTINUOUS
 62
3
 10
0.360563
 20
0.880186
 30
0.0
 11
0.38982
 21
0.880186
 31
0.0
  0
LINE
  8
3
  6
CONTINUOUS
 62
3
 10
0.360563
 20
1.071769
 30
0.0
 11
0.360563
 21
0.880186
 31
0.0
  0
LINE
  8
3
  6
CONTINUOUS
 62
3
 10
0.310543
 20
1.071769
 30
0.0
 11
0.360563
 21
1.071769
 31
0.0
  0
LINE
  8
3
  6
CONTINUOUS
 62
3
 10
0.310543
 20
1.096308
 30
0.0
 11
0.310543
 21
1.071769
 31
0.0
  0
LINE
  8
3
  6
CONTINUOUS
 62
3
 10
0.320386
 20
1.096308
 30
0.0
 11
0.310543
 21
1.096308
 31
0.0
  0
LINE
  8
3
  6
CONTINUOUS
 62
3
 10
0.440783
 20
1.071769
 30
0.0
 11
0.440783
 21
1.096308
 31
0.0
  0
LINE
  8
3
  6
CONTINUOUS
 62
3
 10
0.399662
 20
1.071769
 30
0.0
 11
0.440783
 21
1.071769
 31
0.0
  0
LINE
  8
3
  6
CONTINUOUS
 62
3
 10
-0.21688
 20
0.628335
 30
0.0
 11
-0.199188
 21
0.601702
 31
0.0
  0
LINE
  8
3
  6
CONTINUOUS
 62
3
 10
-0.19822
 20
0.572155
 30
0.0
 11
-0.19822
 21
0.600245
 31
0.0
  0
LINE
  8
3
  6
CONTINUOUS
 62
3
 10
-0.19822
 20
0.600245
 30
0.0
 11
-0.179561
 21
0.628335
 31
0.0
  0
ARC
  8
3
  6
CONTINUOUS
 62
3
 10
-0.201305
 20
-0.393888
 30
0.0
 40
0.016195
 50
210.522002999998
 51
269.441070999998
  0
LINE
  8
3
  6
CONTINUOUS
 62
3
 10
-0.201463
 20
-0.410082
 30
0.0
 11
-0.195738
 21
-0.410138
 31
0.0
  0
ARC
  8
3
  6
CONTINUOUS
 62
3
 10
-0.195594
 20
-0.395354
 30
0.0
 40
0.014784
 50
269.441070999998
 51
357.350676999998
  0
ARC
  8
3
  6
CONTINUOUS
 62
3
 10
-0.192851
 20
-0.397128
 30
0.0
 40
0.012075
 50
5.18227199999973
 51
59.3448299999998
  0
LINE
  8
3
  6
CONTINUOUS
 62
3
 10
-0.186695
 20
-0.386741
 30
0.0
 11
-0.208805
 21
-0.377245
 31
0.0
  0
ARC
  8
3
  6
CONTINUOUS
 62
3
 10
-0.202649
 20
-0.366857
 30
0.0
 40
0.012075
 50
185.182403999999
 51
239.344802999999
  0
ARC
  8
3
  6
CONTINUOUS
 62
3
 10
-0.199965
 20
-0.368592
 30
0.0
 40
0.014723
 50
91.2613449999996
 51
177.491959
  0
LINE
  8
3
  6
CONTINUOUS
 62
3
 10
-0.200289
 20
-0.353873
 30
0.0
 11
-0.194578
 21
-0.353867
 31
0.0
  0
ARC
  8
3
  6
CONTINUOUS
 62
3
 10
-0.195088
 20
-0.369541
 30
0.0
 40
0.015682
 50
29.2717089999997
 51
88.1361469999997
  0
LINE
  8
3
  6
CONTINUOUS
 62
3
 10
-0.171212
 20
-0.35387
 30
0.0
 11
-0.171212
 21
-0.410049
 31
0.0
  0
LINE
  8
3
  6
CONTINUOUS
 62
3
 10
-0.169526
 20
-0.381959
 30
0.0
 11
-0.138852
 21
-0.381959
 31
0.0
  0
LINE
  8
3
  6
CONTINUOUS
 62
3
 10
-0.137103
 20
-0.410049
 30
0.0
 11
-0.137103
 21
-0.35387
 31
0.0
  0
LINE
  8
3
  6
CONTINUOUS
 62
3
 10
-0.12838
 20
-0.410049
 30
0.0
 11
-0.112329
 21
-0.410049
 31
0.0
  0
LINE
  8
3
  6
CONTINUOUS
 62
3
 10
-0.120355
 20
-0.408363
 30
0.0
 11
-0.120355
 21
-0.355555
 31
0.0
  0
LINE
  8
3
  6
CONTINUOUS
 62
3
 10
-0.12838
 20
-0.35387
 30
0.0
 11
-0.112414
 21
-0.35387
 31
0.0
  0
LINE
  8
3
  6
CONTINUOUS
 62
3
 10
-0.078111
 20
-0.381958
 30
0.0
 11
-0.102156
 21
-0.381958
 31
0.0
  0
LINE
  8
3
  6
CONTINUOUS
 62
3
 10
-0.103833
 20
-0.410048
 30
0.0
 11
-0.103833
 21
-0.353868
 31
0.0
  0
LINE
  8
3
  6
CONTINUOUS
 62
3
 10
-0.103833
 20
-0.353868
 30
0.0
 11
-0.073697
 21
-0.353868
 31
0.0
  0
LINE
  8
3
  6
CONTINUOUS
 62
3
 10
-0.044652
 20
-0.410049
 30
0.0
 11
-0.044652
 21
-0.355574
 31
0.0
  0
LINE
  8
3
  6
CONTINUOUS
 62
3
 10
-0.062609
 20
-0.35387
 30
0.0
 11
-0.026694
 21
-0.35387
 31
0.0
  0
LINE
  8
3
  6
CONTINUOUS
 62
3
 10
-0.132347
 20
-0.628317
 30
0.0
 11
-0.165292
 21
-0.628317
 31
0.0
  0
LINE
  8
3
  6
CONTINUOUS
 62
3
 10
-0.165292
 20
-0.628317
 30
0.0
 11
-0.165312
 21
-0.600228
 31
0.0
  0
LINE
  8
3
  6
CONTINUOUS
 62
3
 10
-0.165312
 20
-0.600228
 30
0.0
 11
-0.13957
 21
-0.600228
 31
0.0
  0
LINE
  8
3
  6
CONTINUOUS
 62
3
 10
-0.165313
 20
-0.599385
 30
0.0
 11
-0.165332
 21
-0.572138
 31
0.0
  0
LINE
  8
3
  6
CONTINUOUS
 62
3
 10
-0.165332
 20
-0.572138
 30
0.0
 11
-0.135156
 21
-0.572138
 31
0.0
  0
LINE
  8
3
  6
CONTINUOUS
 62
3
 10
-0.128799
 20
-0.628317
 30
0.0
 11
-0.128799
 21
-0.572137
 31
0.0
  0
LINE
  8
3
  6
CONTINUOUS
 62
3
 10
-0.128799
 20
-0.572137
 30
0.0
 11
-0.094302
 21
-0.628317
 31
0.0
  0
LINE
  8
3
  6
CONTINUOUS
 62
3
 10
-0.094302
 20
-0.628317
 30
0.0
 11
-0.094302
 21
-0.572137
 31
0.0
  0
LINE
  8
3
  6
CONTINUOUS
 62
3
 10
-0.065257
 20
-0.628317
 30
0.0
 11
-0.065257
 21
-0.573841
 31
0.0
  0
LINE
  8
3
  6
CONTINUOUS
 62
3
 10
-0.083214
 20
-0.572137
 30
0.0
 11
-0.0473
 21
-0.572137
 31
0.0
  0
LINE
  8
3
  6
CONTINUOUS
 62
3
 10
-0.008131
 20
-0.628317
 30
0.0
 11
-0.041077
 21
-0.628317
 31
0.0
  0
LINE
  8
3
  6
CONTINUOUS
 62
3
 10
-0.041077
 20
-0.628317
 30
0.0
 11
-0.041097
 21
-0.600228
 31
0.0
  0
LINE
  8
3
  6
CONTINUOUS
 62
3
 10
-0.041097
 20
-0.600228
 30
0.0
 11
-0.015355
 21
-0.600228
 31
0.0
  0
LINE
  8
3
  6
CONTINUOUS
 62
3
 10
-0.041098
 20
-0.599385
 30
0.0
 11
-0.041117
 21
-0.572138
 31
0.0
  0
LINE
  8
3
  6
CONTINUOUS
 62
3
 10
-0.041117
 20
-0.572138
 30
0.0
 11
-0.01094
 21
-0.572138
 31
0.0
  0
LINE
  8
3
  6
CONTINUOUS
 62
3
 10
-0.002514
 20
-0.628317
 30
0.0
 11
-0.002514
 21
-0.572137
 31
0.0
  0
LINE
  8
3
  6
CONTINUOUS
 62
3
 10
-0.002514
 20
-0.572137
 30
0.0
 11
0.017871
 21
-0.572137
 31
0.0
  0
ARC
  8
3
  6
CONTINUOUS
 62
3
 10
0.0176010000000002
 20
-0.586182
 30
0.0
 40
0.014047
 50
271.095275999998
 51
88.8959199999996
  0
LINE
  8
3
  6
CONTINUOUS
 62
3
 10
0.017869
 20
-0.600227
 30
0.0
 11
-0.00067
 21
-0.600227
 31
0.0
  0
LINE
  8
3
  6
CONTINUOUS
 62
3
 10
0.01867
 20
-0.601828
 30
0.0
 11
0.031916
 21
-0.628317
 31
0.0
  0
LINE
  8
3
  6
CONTINUOUS
 62
3
 10
-0.132347
 20
-0.082648
 30
0.0
 11
-0.165292
 21
-0.082648
 31
0.0
  0
LINE
  8
3
  6
CONTINUOUS
 62
3
 10
-0.165292
 20
-0.082648
 30
0.0
 11
-0.165312
 21
-0.054558
 31
0.0
  0
LINE
  8
3
  6
CONTINUOUS
 62
3
 10
-0.165312
 20
-0.054558
 30
0.0
 11
-0.13957
 21
-0.054558
 31
0.0
  0
LINE
  8
3
  6
CONTINUOUS
 62
3
 10
-0.165313
 20
-0.053716
 30
0.0
 11
-0.165332
 21
-0.026469
 31
0.0
  0
LINE
  8
3
  6
CONTINUOUS
 62
3
 10
-0.165332
 20
-0.026469
 30
0.0
 11
-0.135156
 21
-0.026469
 31
0.0
  0
LINE
  8
3
  6
CONTINUOUS
 62
3
 10
-0.128799
 20
-0.082647
 30
0.0
 11
-0.128799
 21
-0.026468
 31
0.0
  0
LINE
  8
3
  6
CONTINUOUS
 62
3
 10
-0.128799
 20
-0.026468
 30
0.0
 11
-0.094302
 21
-0.082647
 31
0.0
  0
LINE
  8
3
  6
CONTINUOUS
 62
3
 10
-0.094302
 20
-0.082647
 30
0.0
 11
-0.094302
 21
-0.026468
 31
0.0
  0
LINE
  8
3
  6
CONTINUOUS
 62
3
 10
-0.065257
 20
-0.082647
 30
0.0
 11
-0.065257
 21
-0.028172
 31
0.0
  0
LINE
  8
3
  6
CONTINUOUS
 62
3
 10
-0.083214
 20
-0.026468
 30
0.0
 11
-0.0473
 21
-0.026468
 31
0.0
  0
LINE
  8
3
  6
CONTINUOUS
 62
3
 10
-0.008131
 20
-0.082648
 30
0.0
 11
-0.041077
 21
-0.082648
 31
0.0
  0
LINE
  8
3
  6
CONTINUOUS
 62
3
 10
-0.041077
 20
-0.082648
 30
0.0
 11
-0.041097
 21
-0.054558
 31
0.0
  0
LINE
  8
3
  6
CONTINUOUS
 62
3
 10
-0.041097
 20
-0.054558
 30
0.0
 11
-0.015355
 21
-0.054558
 31
0.0
  0
LINE
  8
3
  6
CONTINUOUS
 62
3
 10
-0.041098
 20
-0.053716
 30
0.0
 11
-0.041117
 21
-0.026469
 31
0.0
  0
LINE
  8
3
  6
CONTINUOUS
 62
3
 10
-0.041117
 20
-0.026469
 30
0.0
 11
-0.01094
 21
-0.026469
 31
0.0
  0
LINE
  8
3
  6
CONTINUOUS
 62
3
 10
-0.002514
 20
-0.082647
 30
0.0
 11
-0.002514
 21
-0.026468
 31
0.0
  0
LINE
  8
3
  6
CONTINUOUS
 62
3
 10
-0.002514
 20
-0.026468
 30
0.0
 11
0.017871
 21
-0.026468
 31
0.0
  0
ARC
  8
3
  6
CONTINUOUS
 62
3
 10
0.0176010000000002
 20
-0.040513
 30
0.0
 40
0.014047
 50
271.095275999998
 51
88.8959199999996
  0
LINE
  8
3
  6
CONTINUOUS
 62
3
 10
0.017869
 20
-0.054558
 30
0.0
 11
-0.00067
 21
-0.054558
 31
0.0
  0
LINE
  8
3
  6
CONTINUOUS
 62
3
 10
0.01867
 20
-0.056158
 30
0.0
 11
0.031916
 21
-0.082647
 31
0.0
  0
ARC
  8
3
  6
CONTINUOUS
 62
3
 10
-0.201305
 20
0.479183
 30
0.0
 40
0.016195
 50
210.522002999998
 51
269.441070999998
  0
LINE
  8
3
  6
CONTINUOUS
 62
3
 10
-0.201463
 20
0.462989
 30
0.0
 11
-0.195738
 21
0.462933
 31
0.0
  0
ARC
  8
3
  6
CONTINUOUS
 62
3
 10
-0.195594
 20
0.477716
 30
0.0
 40
0.014784
 50
269.441070999998
 51
357.350676999998
  0
ARC
  8
3
  6
CONTINUOUS
 62
3
 10
-0.192851
 20
0.475942
 30
0.0
 40
0.012075
 50
5.18227199999973
 51
59.3448299999998
  0
LINE
  8
3
  6
CONTINUOUS
 62
3
 10
-0.186695
 20
0.48633
 30
0.0
 11
-0.208805
 21
0.495826
 31
0.0
  0
ARC
  8
3
  6
CONTINUOUS
 62
3
 10
-0.202649
 20
0.506213
 30
0.0
 40
0.0120749999999997
 50
185.182404
 51
212.263611
  0
ARC
  8
3
  6
CONTINUOUS
 62
3
 10
-0.199965
 20
0.504478
 30
0.0
 40
0.014723
 50
91.2613449999996
 51
177.491959
  0
LINE
  8
3
  6
CONTINUOUS
 62
3
 10
-0.200289
 20
0.519198
 30
0.0
 11
-0.194578
 21
0.519204
 31
0.0
  0
ARC
  8
3
  6
CONTINUOUS
 62
3
 10
-0.195088
 20
0.50353
 30
0.0
 40
0.015682
 50
29.2717089999993
 51
88.1361469999993
  0
ARC
  8
3
  6
CONTINUOUS
 62
3
 10
0.12385
 20
0.4835
 30
0.0
 40
0.02066
 50
204.386840999998
 51
324.320006999998
  0
ARC
  8
3
  6
CONTINUOUS
 62
3
 10
0.152438
 20
0.491021
 30
0.0
 40
0.050049
 50
161.294128
 51
198.705872
  0
ARC
  8
3
  6
CONTINUOUS
 62
3
 10
0.12385
 20
0.498541
 30
0.0
 40
0.02066
 50
35.6800309999997
 51
155.613174
  0
ARC
  8
3
  6
CONTINUOUS
 62
3
 10
-0.202649
 20
0.506213
 30
0.0
 40
0.012075
 50
212.263610999998
 51
239.344802999998
  0
LINE
  8
3
  6
CONTINUOUS
 62
3
 10
0.221605
 20
0.880186
 30
0.0
 11
0.232156
 21
0.929263
 31
0.0
  0
LINE
  8
3
  6
CONTINUOUS
 62
3
 10
0.38982
 20
0.880186
 30
0.0
 11
0.38982
 21
0.890029
 31
0.0
  0
LINE
  8
3
  6
CONTINUOUS
 62
3
 10
0.440783
 20
1.096308
 30
0.0
 11
0.320386
 21
1.096308
 31
0.0
  0
LINE
  8
3
  6
CONTINUOUS
 62
3
 10
0.38982
 20
1.071769
 30
0.0
 11
0.399662
 21
1.071769
 31
0.0
  0
LINE
  8
3
  6
CONTINUOUS
 62
3
 10
0.262187
 20
1.068941
 30
0.0
 11
0.265999
 21
1.050737
 31
0.0
  0
LINE
  8
3
  6
CONTINUOUS
 62
3
 10
0.265999
 20
1.050737
 30
0.0
 11
0.284242
 21
0.963642
 31
0.0
  0
LINE
  8
3
  6
CONTINUOUS
 62
3
 10
0.232156
 20
0.929263
 30
0.0
 11
0.239883
 21
0.929263
 31
0.0
  0
ARC
  8
3
  6
CONTINUOUS
 62
3
 10
0.114903
 20
1.03807
 30
0.0
 40
0.030675
 50
179.999999999999
 51
359.999999999999
  0
ARC
  8
3
  6
CONTINUOUS
 62
3
 10
0.114903
 20
1.03807
 30
0.0
 40
0.030675
 50
359.999999999999
 51
180
  0
ARC
  8
3
  6
CONTINUOUS
 62
3
 10
0.114903
 20
1.03807
 30
0.0
 40
0.058238
 50
134.999999999998
 51
314.999999999998
  0
ARC
  8
3
  6
CONTINUOUS
 62
3
 10
0.114903
 20
1.03807
 30
0.0
 40
0.058238
 50
314.999999999998
 51
135
  0
ARC
  8
3
  6
CONTINUOUS
 62
3
 10
0.114903
 20
0.938441
 30
0.0
 40
0.0582380000000004
 50
314.999999999999
 51
321.863555999999
  0
ARC
  8
3
  6
CONTINUOUS
 62
3
 10
0.114903
 20
1.03807
 30
0.0
 40
0.058238
 50
179.999999999998
 51
359.999999999998
  0
ARC
  8
3
  6
CONTINUOUS
 62
3
 10
0.114903
 20
1.03807
 30
0.0
 40
0.058238
 50
359.999999999998
 51
180
  0
LINE
  8
3
  6
CONTINUOUS
 62
3
 10
-0.21688
 20
0.191799
 30
0.0
 11
-0.197195
 21
0.191799
 31
0.0
  0
LINE
  8
3
  6
CONTINUOUS
 62
3
 10
-0.21688
 20
0.13562
 30
0.0
 11
-0.197195
 21
0.13562
 31
0.0
  0
LINE
  8
3
  6
CONTINUOUS
 62
3
 10
-0.21688
 20
0.191799
 30
0.0
 11
-0.21688
 21
0.13562
 31
0.0
  0
LINE
  8
3
  6
CONTINUOUS
 62
3
 10
0.060556
 20
-0.35387
 30
0.0
 11
0.080241
 21
-0.35387
 31
0.0
  0
LINE
  8
3
  6
CONTINUOUS
 62
3
 10
0.060556
 20
-0.410049
 30
0.0
 11
0.080241
 21
-0.410049
 31
0.0
  0
LINE
  8
3
  6
CONTINUOUS
 62
3
 10
0.060556
 20
-0.35387
 30
0.0
 11
0.060556
 21
-0.410049
 31
0.0
  0
LINE
  8
4
  6
CONTINUOUS
 62
4
 10
0.461535
 20
1.096308
 30
0.0
 11
0.49079
 21
1.096308
 31
0.0
  0
LINE
  8
4
  6
CONTINUOUS
 62
4
 10
0.49079
 20
0.880186
 30
0.0
 11
0.461535
 21
0.880186
 31
0.0
  0
LINE
  8
4
  6
CONTINUOUS
 62
4
 10
0.629921
 20
-0.787402
 30
0.0
 11
-0.629921
 21
-0.787402
 31
0.0
  0
LINE
  8
4
  6
CONTINUOUS
 62
4
 10
0.787402
 20
-0.629921
 30
0.0
 11
0.787402
 21
0.629921
 31
0.0
  0
LINE
  8
4
  6
CONTINUOUS
 62
4
 10
0.49079
 20
1.096308
 30
0.0
 11
0.49079
 21
0.880186
 31
0.0
  0
LINE
  8
4
  6
CONTINUOUS
 62
4
 10
0.461535
 20
1.096308
 30
0.0
 11
0.461535
 21
0.880186
 31
0.0
  0
ARC
  8
4
  6
CONTINUOUS
 62
4
 10
-0.629921000000002
 20
0.629921
 30
0.0
 40
0.15748
 50
89.9999999999996
 51
180
  0
ARC
  8
4
  6
CONTINUOUS
 62
4
 10
0.629921
 20
0.629921000000003
 30
0.0
 40
0.15748
 50
359.999999999998
 51
89.9999999999996
  0
ARC
  8
4
  6
CONTINUOUS
 62
4
 10
0.629921000000003
 20
-0.629921
 30
0.0
 40
0.15748
 50
269.999999999998
 51
359.999999999998
  0
ARC
  8
4
  6
CONTINUOUS
 62
4
 10
-0.629921
 20
-0.629921000000003
 30
0.0
 40
0.15748
 50
179.999999999998
 51
269.999999999998
  0
LINE
  8
4
  6
CONTINUOUS
 62
4
 10
-0.787402
 20
0.629921
 30
0.0
 11
-0.787402
 21
-0.629921
 31
0.0
  0
LINE
  8
4
  6
CONTINUOUS
 62
4
 10
-0.629921
 20
0.787402
 30
0.0
 11
0.629921
 21
0.787402
 31
0.0
  0
ARC
  8
4
  6
CONTINUOUS
 62
4
 10
0.569179
 20
1.03807
 30
0.0
 40
0.0306749999999999
 50
359.999999999999
 51
121.886169
  0
LINE
  8
4
  6
CONTINUOUS
 62
4
 10
0.538504
 20
0.938441
 30
0.0
 11
0.538504
 21
1.03807
 31
0.0
  0
ARC
  8
4
  6
CONTINUOUS
 62
4
 10
0.569178
 20
1.03807
 30
0.0
 40
0.058238
 50
359.999999999998
 51
128.136475
  0
LINE
  8
4
  6
CONTINUOUS
 62
4
 10
0.627416
 20
0.938441
 30
0.0
 11
0.627416
 21
1.03807
 31
0.0
  0
LINE
  8
4
  6
CONTINUOUS
 62
4
 10
0.750438
 20
0.952545
 30
0.0
 11
0.750438
 21
0.910387
 31
0.0
  0
LINE
  8
4
  6
CONTINUOUS
 62
4
 10
0.732504
 20
0.880186
 30
0.0
 11
0.778748
 21
0.880186
 31
0.0
  0
LINE
  8
4
  6
CONTINUOUS
 62
4
 10
0.68572
 20
1.029892
 30
0.0
 11
0.732504
 21
0.880186
 31
0.0
  0
LINE
  8
4
  6
CONTINUOUS
 62
4
 10
0.675878
 20
0.890029
 30
0.0
 11
0.675878
 21
1.061388
 31
0.0
  0
LINE
  8
4
  6
CONTINUOUS
 62
4
 10
0.647566
 20
0.880186
 30
0.0
 11
0.675878
 21
0.880186
 31
0.0
  0
LINE
  8
4
  6
CONTINUOUS
 62
4
 10
0.647566
 20
1.096308
 30
0.0
 11
0.647566
 21
0.880186
 31
0.0
  0
LINE
  8
4
  6
CONTINUOUS
 62
4
 10
0.69381
 20
1.096308
 30
0.0
 11
0.647566
 21
1.096308
 31
0.0
  0
LINE
  8
4
  6
CONTINUOUS
 62
4
 10
0.750438
 20
0.910387
 30
0.0
 11
0.69381
 21
1.096308
 31
0.0
  0
LINE
  8
4
  6
CONTINUOUS
 62
4
 10
-0.02773
 20
0.263616
 30
0.0
 11
-0.02773
 21
0.244751
 31
0.0
  0
LINE
  8
4
  6
CONTINUOUS
 62
4
 10
-0.007345
 20
0.30093
 30
0.0
 11
-0.02773
 21
0.30093
 31
0.0
  0
ARC
  8
4
  6
CONTINUOUS
 62
4
 10
-0.00817999901945858
 20
0.286885000058272
 30
0.0
 40
0.01407
 50
273.400996999999
 51
86.5990030000003
  0
LINE
  8
4
  6
CONTINUOUS
 62
4
 10
-0.026887
 20
0.272841
 30
0.0
 11
-0.007345
 21
0.272841
 31
0.0
  0
LINE
  8
4
  6
CONTINUOUS
 62
4
 10
0.012318
 20
0.260803
 30
0.0
 11
0.012318
 21
0.30093
 31
0.0
  0
ARC
  8
4
  6
CONTINUOUS
 62
4
 10
0.028769
 20
0.261068
 30
0.0
 40
0.016454
 50
180.923919999998
 51
0.472476999999613
  0
LINE
  8
4
  6
CONTINUOUS
 62
4
 10
0.045223
 20
0.30093
 30
0.0
 11
0.045223
 21
0.261204
 31
0.0
  0
LINE
  8
4
  6
CONTINUOUS
 62
4
 10
0.05365
 20
0.30093
 30
0.0
 11
0.05365
 21
0.244751
 31
0.0
  0
LINE
  8
4
  6
CONTINUOUS
 62
4
 10
0.074035
 20
0.30093
 30
0.0
 11
0.05365
 21
0.30093
 31
0.0
  0
ARC
  8
4
  6
CONTINUOUS
 62
4
 10
0.0737640000000002
 20
0.286885
 30
0.0
 40
0.014047
 50
271.095275999998
 51
88.8959199999996
  0
LINE
  8
4
  6
CONTINUOUS
 62
4
 10
0.055493
 20
0.272841
 30
0.0
 11
0.074032
 21
0.272841
 31
0.0
  0
LINE
  8
4
  6
CONTINUOUS
 62
4
 10
0.088079
 20
0.244751
 30
0.0
 11
0.074833
 21
0.27124
 31
0.0
  0
LINE
  8
4
  6
CONTINUOUS
 62
4
 10
0.095102
 20
0.30093
 30
0.0
 11
0.095102
 21
0.244751
 31
0.0
  0
LINE
  8
4
  6
CONTINUOUS
 62
4
 10
0.115487
 20
0.30093
 30
0.0
 11
0.095102
 21
0.30093
 31
0.0
  0
ARC
  8
4
  6
CONTINUOUS
 62
4
 10
0.114652000980542
 20
0.286885000058272
 30
0.0
 40
0.01407
 50
273.400996999999
 51
86.5990030000003
  0
LINE
  8
4
  6
CONTINUOUS
 62
4
 10
0.095944
 20
0.272841
 30
0.0
 11
0.115487
 21
0.272841
 31
0.0
  0
LINE
  8
4
  6
CONTINUOUS
 62
4
 10
0.13515
 20
0.244751
 30
0.0
 11
0.13515
 21
0.30093
 31
0.0
  0
LINE
  8
4
  6
CONTINUOUS
 62
4
 10
0.168095
 20
0.244751
 30
0.0
 11
0.13515
 21
0.244751
 31
0.0
  0
LINE
  8
4
  6
CONTINUOUS
 62
4
 10
0.175521
 20
0.24475
 30
0.0
 11
0.208467
 21
0.24475
 31
0.0
  0
LINE
  8
4
  6
CONTINUOUS
 62
4
 10
0.175501
 20
0.27284
 30
0.0
 11
0.175521
 21
0.24475
 31
0.0
  0
LINE
  8
4
  6
CONTINUOUS
 62
4
 10
0.201244
 20
0.27284
 30
0.0
 11
0.175501
 21
0.27284
 31
0.0
  0
LINE
  8
4
  6
CONTINUOUS
 62
4
 10
0.175481
 20
0.30093
 30
0.0
 11
0.1755
 21
0.273682
 31
0.0
  0
LINE
  8
4
  6
CONTINUOUS
 62
4
 10
0.205658
 20
0.30093
 30
0.0
 11
0.175481
 21
0.30093
 31
0.0
  0
LINE
  8
4
  6
CONTINUOUS
 62
4
 10
0.778748
 20
1.096308
 30
0.0
 11
0.750436
 21
1.096308
 31
0.0
  0
LINE
  8
4
  6
CONTINUOUS
 62
4
 10
0.778748
 20
0.880186
 30
0.0
 11
0.778748
 21
1.096308
 31
0.0
  0
LINE
  8
4
  6
CONTINUOUS
 62
4
 10
-0.167797
 20
0.272876
 30
0.0
 11
-0.188111
 21
0.272876
 31
0.0
  0
ARC
  8
4
  6
CONTINUOUS
 62
4
 10
-0.167801
 20
0.258813
 30
0.0
 40
0.014062
 50
269.999999999998
 51
89.9818799999996
  0
LINE
  8
4
  6
CONTINUOUS
 62
4
 10
-0.189799
 20
0.244751
 30
0.0
 11
-0.167801
 21
0.244751
 31
0.0
  0
LINE
  8
4
  6
CONTINUOUS
 62
4
 10
-0.189799
 20
0.30093
 30
0.0
 11
-0.189799
 21
0.244751
 31
0.0
  0
LINE
  8
4
  6
CONTINUOUS
 62
4
 10
-0.170312
 20
0.30093
 30
0.0
 11
-0.189799
 21
0.30093
 31
0.0
  0
ARC
  8
4
  6
CONTINUOUS
 62
4
 10
-0.170425
 20
0.286812
 30
0.0
 40
0.014119
 50
296.191832999998
 51
89.5439989999995
  0
LINE
  8
4
  6
CONTINUOUS
 62
4
 10
-0.128934
 20
0.244681
 30
0.0
 11
-0.145006
 21
0.244681
 31
0.0
  0
LINE
  8
4
  6
CONTINUOUS
 62
4
 10
-0.13697
 20
0.299243
 30
0.0
 11
-0.13697
 21
0.246369
 31
0.0
  0
LINE
  8
4
  6
CONTINUOUS
 62
4
 10
-0.129019
 20
0.30093
 30
0.0
 11
-0.145006
 21
0.30093
 31
0.0
  0
LINE
  8
4
  6
CONTINUOUS
 62
4
 10
-0.083315
 20
0.26955
 30
0.0
 11
-0.10705
 21
0.26955
 31
0.0
  0
ARC
  8
4
  6
CONTINUOUS
 62
4
 10
-0.083315
 20
0.267863
 30
0.0
 40
0.00168700000000001
 50
359.999999999998
 51
89.9999999999993
  0
LINE
  8
4
  6
CONTINUOUS
 62
4
 10
-0.081628
 20
0.263616
 30
0.0
 11
-0.081628
 21
0.267863
 31
0.0
  0
ARC
  8
4
  6
CONTINUOUS
 62
4
 10
-0.100779
 20
0.263469
 30
0.0
 40
0.019152
 50
200.855254999998
 51
0.439683999999563
  0
ARC
  8
4
  6
CONTINUOUS
 62
4
 10
-0.0712160000000002
 20
0.272719
 30
0.0
 40
0.050106
 50
161.293991
 51
198.703979
  0
ARC
  8
4
  6
CONTINUOUS
 62
4
 10
-0.099838
 20
0.280248
 30
0.0
 40
0.020684
 50
35.6800309999997
 51
155.613174
  0
LINE
  8
4
  6
CONTINUOUS
 62
4
 10
-0.02773
 20
0.30093
 30
0.0
 11
-0.02773
 21
0.263616
 31
0.0
  0
LINE
  8
4
  6
CONTINUOUS
 62
4
 10
0.51094
 20
0.938441
 30
0.0
 11
0.51094
 21
1.03807
 31
0.0
  0
ARC
  8
4
  6
CONTINUOUS
 62
4
 10
0.569179
 20
0.938441
 30
0.0
 40
0.0306749999999999
 50
328.113830999998
 51
148.113831
  0
ARC
  8
4
  6
CONTINUOUS
 62
4
 10
0.569179
 20
0.938441
 30
0.0
 40
0.030675
 50
148.113830999998
 51
328.113830999998
  0
ARC
  8
4
  6
CONTINUOUS
 62
4
 10
0.569178
 20
0.938441
 30
0.0
 40
0.058238
 50
314.999999999998
 51
135
  0
ARC
  8
4
  6
CONTINUOUS
 62
4
 10
0.569177999999999
 20
0.938440999999998
 30
0.0
 40
0.058238
 50
134.999999999998
 51
314.999999999998
  0
LINE
  8
4
  6
CONTINUOUS
 62
4
 10
0.599854
 20
1.03807
 30
0.0
 11
0.599854
 21
0.938441
 31
0.0
  0
LINE
  8
4
  6
CONTINUOUS
 62
4
 10
0.750438
 20
1.096308
 30
0.0
 11
0.750438
 21
0.952545
 31
0.0
  0
LINE
  8
4
  6
CONTINUOUS
 62
4
 10
0.675878
 20
1.061388
 30
0.0
 11
0.68572
 21
1.029892
 31
0.0
  0
LINE
  8
4
  6
CONTINUOUS
 62
4
 10
0.675878
 20
0.880186
 30
0.0
 11
0.675878
 21
0.890029
 31
0.0
  0
ARC
  8
4
  6
CONTINUOUS
 62
4
 10
0.569179
 20
1.03807
 30
0.0
 40
0.030675
 50
179.999999999999
 51
359.999999999999
  0
ARC
  8
4
  6
CONTINUOUS
 62
4
 10
0.569179
 20
1.03807
 30
0.0
 40
0.030675
 50
359.999999999999
 51
180
  0
ARC
  8
4
  6
CONTINUOUS
 62
4
 10
0.569179
 20
0.938441
 30
0.0
 40
0.030675
 50
328.113831
 51
360
  0
ARC
  8
4
  6
CONTINUOUS
 62
4
 10
0.569178
 20
0.938441000000001
 30
0.0
 40
0.0582380000000001
 50
321.863524999998
 51
359.999999999998
  0
ARC
  8
4
  6
CONTINUOUS
 62
4
 10
0.569177999999999
 20
1.03807
 30
0.0
 40
0.058238
 50
134.999999999998
 51
314.999999999998
  0
ARC
  8
4
  6
CONTINUOUS
 62
4
 10
0.569178
 20
1.03807
 30
0.0
 40
0.058238
 50
314.999999999998
 51
135
  0
ARC
  8
4
  6
CONTINUOUS
 62
4
 10
0.569178000000002
 20
0.938441
 30
0.0
 40
0.0582379999999993
 50
314.999999999998
 51
321.863524999998
  0
ARC
  8
4
  6
CONTINUOUS
 62
4
 10
0.569178
 20
1.03807
 30
0.0
 40
0.058238
 50
179.999999999998
 51
359.999999999998
  0
ARC
  8
4
  6
CONTINUOUS
 62
4
 10
0.569178
 20
1.03807
 30
0.0
 40
0.058238
 50
359.999999999998
 51
180
  0
ARC
  8
4
  6
CONTINUOUS
 62
4
 10
0.264224
 20
0.260912
 30
0.0
 40
0.016195
 50
210.522002999999
 51
269.441070999999
  0
LINE
  8
4
  6
CONTINUOUS
 62
4
 10
0.269791
 20
0.244662
 30
0.0
 11
0.264066
 21
0.244718
 31
0.0
  0
ARC
  8
4
  6
CONTINUOUS
 62
4
 10
0.269935
 20
0.259446
 30
0.0
 40
0.014784
 50
269.441071
 51
357.350676999999
  0
ARC
  8
4
  6
CONTINUOUS
 62
4
 10
0.272678
 20
0.257672
 30
0.0
 40
0.012075
 50
5.18227199999961
 51
59.3448299999996
  0
LINE
  8
4
  6
CONTINUOUS
 62
4
 10
0.256724
 20
0.277555
 30
0.0
 11
0.278835
 21
0.268059
 31
0.0
  0
ARC
  8
4
  6
CONTINUOUS
 62
4
 10
0.262881
 20
0.287942
 30
0.0
 40
0.012075
 50
185.182403999998
 51
239.344802999998
  0
ARC
  8
4
  6
CONTINUOUS
 62
4
 10
0.265565
 20
0.286207
 30
0.0
 40
0.014723
 50
91.2613449999996
 51
177.491959
  0
LINE
  8
4
  6
CONTINUOUS
 62
4
 10
0.270952
 20
0.300933
 30
0.0
 11
0.26524
 21
0.300927
 31
0.0
  0
ARC
  8
4
  6
CONTINUOUS
 62
4
 10
0.270442
 20
0.285259
 30
0.0
 40
0.015682
 50
29.2717089999996
 51
88.1361469999996
  0
LINE
  8
4
  6
CONTINUOUS
 62
4
 10
0.336207
 20
0.245524
 30
0.0
 11
0.318385
 21
0.259128
 31
0.0
  0
ARC
  8
4
  6
CONTINUOUS
 62
4
 10
0.31609
 20
0.261261
 30
0.0
 40
0.016707
 50
195.902083999998
 51
315.740294999998
  0
ARC
  8
4
  6
CONTINUOUS
 62
4
 10
0.347428
 20
0.272735
 30
0.0
 40
0.050049
 50
161.294113
 51
198.705887
  0
ARC
  8
4
  6
CONTINUOUS
 62
4
 10
0.31609
 20
0.28423
 30
0.0
 40
0.016701
 50
15.8327709999996
 51
164.168289
  0
ARC
  8
4
  6
CONTINUOUS
 62
4
 10
0.285415
 20
0.273027
 30
0.0
 40
0.049328
 50
335.052794999998
 51
18.6314699999997
  0
LINE
  8
4
  6
CONTINUOUS
 62
4
 10
0.341382
 20
0.260803
 30
0.0
 11
0.341382
 21
0.30093
 31
0.0
  0
ARC
  8
4
  6
CONTINUOUS
 62
4
 10
0.357833
 20
0.261068
 30
0.0
 40
0.016454
 50
180.923919999998
 51
0.472476999999613
  0
LINE
  8
4
  6
CONTINUOUS
 62
4
 10
0.374287
 20
0.30093
 30
0.0
 11
0.374287
 21
0.261204
 31
0.0
  0
LINE
  8
4
  6
CONTINUOUS
 62
4
 10
0.400972
 20
0.30093
 30
0.0
 11
0.379905
 21
0.244751
 31
0.0
  0
LINE
  8
4
  6
CONTINUOUS
 62
4
 10
0.422039
 20
0.244751
 30
0.0
 11
0.400972
 21
0.30093
 31
0.0
  0
LINE
  8
4
  6
CONTINUOUS
 62
4
 10
0.415839
 20
0.256789
 30
0.0
 11
0.386104
 21
0.256789
 31
0.0
  0
LINE
  8
4
  6
CONTINUOUS
 62
4
 10
0.430466
 20
0.30093
 30
0.0
 11
0.430466
 21
0.244751
 31
0.0
  0
LINE
  8
4
  6
CONTINUOUS
 62
4
 10
0.450851
 20
0.30093
 30
0.0
 11
0.430466
 21
0.30093
 31
0.0
  0
ARC
  8
4
  6
CONTINUOUS
 62
4
 10
0.45058
 20
0.286885
 30
0.0
 40
0.014047
 50
271.095275999998
 51
88.8959199999997
  0
LINE
  8
4
  6
CONTINUOUS
 62
4
 10
0.43231
 20
0.272841
 30
0.0
 11
0.450849
 21
0.272841
 31
0.0
  0
LINE
  8
4
  6
CONTINUOUS
 62
4
 10
0.464896
 20
0.244751
 30
0.0
 11
0.451649
 21
0.27124
 31
0.0
  0
LINE
  8
4
  6
CONTINUOUS
 62
4
 10
0.471119
 20
0.24475
 30
0.0
 11
0.504064
 21
0.24475
 31
0.0
  0
LINE
  8
4
  6
CONTINUOUS
 62
4
 10
0.471099
 20
0.27284
 30
0.0
 11
0.471119
 21
0.24475
 31
0.0
  0
LINE
  8
4
  6
CONTINUOUS
 62
4
 10
0.496841
 20
0.27284
 30
0.0
 11
0.471099
 21
0.27284
 31
0.0
  0
LINE
  8
4
  6
CONTINUOUS
 62
4
 10
0.471079
 20
0.30093
 30
0.0
 11
0.471097
 21
0.273682
 31
0.0
  0
LINE
  8
4
  6
CONTINUOUS
 62
4
 10
0.501255
 20
0.30093
 30
0.0
 11
0.471079
 21
0.30093
 31
0.0
  0
ARC
  8
5
  6
CONTINUOUS
 62
5
 10
-0.629921
 20
-0.629920999999998
 30
0.0
 40
0.066929
 50
359.999999999998
 51
180
  0
ARC
  8
5
  6
CONTINUOUS
 62
5
 10
-0.629921
 20
-0.629921000000002
 30
0.0
 40
0.066929
 50
179.999999999998
 51
359.999999999998
  0
ARC
  8
5
  6
CONTINUOUS
 62
5
 10
0.629921
 20
-0.629920999999998
 30
0.0
 40
0.066929
 50
359.999999999998
 51
180
  0
ARC
  8
5
  6
CONTINUOUS
 62
5
 10
0.629921
 20
-0.629921000000002
 30
0.0
 40
0.066929
 50
179.999999999998
 51
359.999999999998
  0
ARC
  8
5
  6
CONTINUOUS
 62
5
 10
0.629921
 20
0.629921000000002
 30
0.0
 40
0.066929
 50
359.999999999998
 51
180
  0
ARC
  8
5
  6
CONTINUOUS
 62
5
 10
0.629921
 20
0.629920999999998
 30
0.0
 40
0.066929
 50
179.999999999998
 51
359.999999999998
  0
ARC
  8
5
  6
CONTINUOUS
 62
5
 10
-0.629921
 20
0.629921000000002
 30
0.0
 40
0.066929
 50
359.999999999998
 51
180
  0
ARC
  8
5
  6
CONTINUOUS
 62
5
 10
-0.629921
 20
0.629920999999998
 30
0.0
 40
0.066929
 50
179.999999999998
 51
359.999999999998
  0
LINE
  8
5
  6
CONTINUOUS
 62
5
 10
0.186904
 20
0.390583
 30
0.0
 11
0.166615
 21
0.390583
 31
0.0
  0
ARC
  8
5
  6
CONTINUOUS
 62
5
 10
0.1869
 20
0.376538
 30
0.0
 40
0.014045
 50
269.999999999998
 51
89.9818799999996
  0
LINE
  8
5
  6
CONTINUOUS
 62
5
 10
0.16493
 20
0.362493
 30
0.0
 11
0.1869
 21
0.362493
 31
0.0
  0
LINE
  8
5
  6
CONTINUOUS
 62
5
 10
0.16493
 20
0.418603
 30
0.0
 11
0.16493
 21
0.362493
 31
0.0
  0
LINE
  8
5
  6
CONTINUOUS
 62
5
 10
0.184392
 20
0.418603
 30
0.0
 11
0.16493
 21
0.418603
 31
0.0
  0
ARC
  8
5
  6
CONTINUOUS
 62
5
 10
0.18428
 20
0.404502
 30
0.0
 40
0.014102
 50
296.191832999998
 51
89.5439989999996
  0
LINE
  8
5
  6
CONTINUOUS
 62
5
 10
0.206563
 20
0.362424
 30
0.0
 11
0.206563
 21
0.418603
 31
0.0
  0
LINE
  8
5
  6
CONTINUOUS
 62
5
 10
0.239508
 20
0.362424
 30
0.0
 11
0.206563
 21
0.362424
 31
0.0
  0
LINE
  8
5
  6
CONTINUOUS
 62
5
 10
0.246329
 20
0.378475
 30
0.0
 11
0.246329
 21
0.418603
 31
0.0
  0
ARC
  8
5
  6
CONTINUOUS
 62
5
 10
0.262781
 20
0.37874
 30
0.0
 40
0.016454
 50
180.923919999998
 51
0.472476999999613
  0
LINE
  8
5
  6
CONTINUOUS
 62
5
 10
0.279234
 20
0.418603
 30
0.0
 11
0.279234
 21
0.378876
 31
0.0
  0
LINE
  8
5
  6
CONTINUOUS
 62
5
 10
0.285457
 20
0.362423
 30
0.0
 11
0.318403
 21
0.362423
 31
0.0
  0
LINE
  8
5
  6
CONTINUOUS
 62
5
 10
0.285437
 20
0.390513
 30
0.0
 11
0.285457
 21
0.362423
 31
0.0
  0
LINE
  8
5
  6
CONTINUOUS
 62
5
 10
0.311179
 20
0.390513
 30
0.0
 11
0.285437
 21
0.390513
 31
0.0
  0
LINE
  8
5
  6
CONTINUOUS
 62
5
 10
0.285417
 20
0.418602
 30
0.0
 11
0.285436
 21
0.391355
 31
0.0
  0
LINE
  8
5
  6
CONTINUOUS
 62
5
 10
0.315594
 20
0.418602
 30
0.0
 11
0.285417
 21
0.418602
 31
0.0
  0
ARC
  8
5
  6
CONTINUOUS
 62
5
 10
0.37201
 20
0.382992
 30
0.0
 40
0.02066
 50
204.386840999998
 51
324.320006999998
  0
ARC
  8
5
  6
CONTINUOUS
 62
5
 10
0.400599
 20
0.390513
 30
0.0
 40
0.050049
 50
161.294128
 51
198.705872
  0
ARC
  8
5
  6
CONTINUOUS
 62
5
 10
0.37201
 20
0.398033
 30
0.0
 40
0.02066
 50
35.6800309999996
 51
155.613174
  0
LINE
  8
5
  6
CONTINUOUS
 62
5
 10
0.397514
 20
0.362514
 30
0.0
 11
0.413565
 21
0.362514
 31
0.0
  0
LINE
  8
5
  6
CONTINUOUS
 62
5
 10
0.40554
 20
0.364199
 30
0.0
 11
0.40554
 21
0.417008
 31
0.0
  0
LINE
  8
5
  6
CONTINUOUS
 62
5
 10
0.397514
 20
0.418693
 30
0.0
 11
0.413481
 21
0.418693
 31
0.0
  0
LINE
  8
5
  6
CONTINUOUS
 62
5
 10
0.422056
 20
0.362514
 30
0.0
 11
0.422056
 21
0.418693
 31
0.0
  0
LINE
  8
5
  6
CONTINUOUS
 62
5
 10
0.422056
 20
0.418693
 30
0.0
 11
0.442441
 21
0.418693
 31
0.0
  0
ARC
  8
5
  6
CONTINUOUS
 62
5
 10
0.44217
 20
0.404649
 30
0.0
 40
0.014047
 50
271.095275999998
 51
88.8959199999997
  0
LINE
  8
5
  6
CONTINUOUS
 62
5
 10
0.442438
 20
0.390604
 30
0.0
 11
0.423899
 21
0.390604
 31
0.0
  0
LINE
  8
5
  6
CONTINUOUS
 62
5
 10
0.443239
 20
0.389003
 30
0.0
 11
0.456485
 21
0.362514
 31
0.0
  0
ARC
  8
5
  6
CONTINUOUS
 62
5
 10
0.483564
 20
0.382992
 30
0.0
 40
0.02066
 50
204.386840999998
 51
324.320006999998
  0
ARC
  8
5
  6
CONTINUOUS
 62
5
 10
0.512152
 20
0.390513
 30
0.0
 40
0.050049
 50
161.294128
 51
198.705872
  0
ARC
  8
5
  6
CONTINUOUS
 62
5
 10
0.483564
 20
0.398033
 30
0.0
 40
0.02066
 50
35.6800309999996
 51
155.613174
  0
LINE
  8
5
  6
CONTINUOUS
 62
5
 10
0.505963
 20
0.418693
 30
0.0
 11
0.505963
 21
0.362514
 31
0.0
  0
LINE
  8
5
  6
CONTINUOUS
 62
5
 10
0.505963
 20
0.362514
 30
0.0
 11
0.538908
 21
0.362514
 31
0.0
  0
LINE
  8
5
  6
CONTINUOUS
 62
5
 10
0.57928
 20
0.362514
 30
0.0
 11
0.546335
 21
0.362514
 31
0.0
  0
LINE
  8
5
  6
CONTINUOUS
 62
5
 10
0.546335
 20
0.362514
 30
0.0
 11
0.546315
 21
0.390603
 31
0.0
  0
LINE
  8
5
  6
CONTINUOUS
 62
5
 10
0.546315
 20
0.390603
 30
0.0
 11
0.572057
 21
0.390603
 31
0.0
  0
LINE
  8
5
  6
CONTINUOUS
 62
5
 10
0.546314
 20
0.391445
 30
0.0
 11
0.546295
 21
0.418693
 31
0.0
  0
LINE
  8
5
  6
CONTINUOUS
 62
5
 10
0.546295
 20
0.418693
 30
0.0
 11
0.576471
 21
0.418693
 31
0.0
  0
ARC
  8
5
  6
CONTINUOUS
 62
5
 10
0.600327
 20
0.378675
 30
0.0
 40
0.0161949999999999
 50
210.522002999998
 51
269.441070999998
  0
LINE
  8
5
  6
CONTINUOUS
 62
5
 10
0.600169
 20
0.362481
 30
0.0
 11
0.605894
 21
0.362425
 31
0.0
  0
ARC
  8
5
  6
CONTINUOUS
 62
5
 10
0.606038
 20
0.377209
 30
0.0
 40
0.014784
 50
269.441071
 51
357.350676999999
  0
ARC
  8
5
  6
CONTINUOUS
 62
5
 10
0.608781
 20
0.375435
 30
0.0
 40
0.0120749999999999
 50
5.18227199999904
 51
59.344829999999
  0
LINE
  8
5
  6
CONTINUOUS
 62
5
 10
0.614938
 20
0.385822
 30
0.0
 11
0.592827
 21
0.395318
 31
0.0
  0
ARC
  8
5
  6
CONTINUOUS
 62
5
 10
0.598984
 20
0.405705
 30
0.0
 40
0.0120750000000001
 50
185.182403999999
 51
239.344802999999
  0
ARC
  8
5
  6
CONTINUOUS
 62
5
 10
0.601667
 20
0.403971
 30
0.0
 40
0.014723
 50
91.2613449999995
 51
177.491959
  0
LINE
  8
5
  6
CONTINUOUS
 62
5
 10
0.601343
 20
0.41869
 30
0.0
 11
0.607055
 21
0.418696
 31
0.0
  0
ARC
  8
5
  6
CONTINUOUS
 62
5
 10
0.606545
 20
0.403022
 30
0.0
 40
0.015682
 50
29.2717089999997
 51
88.1361469999997
  0
LINE
  8
5
  6
CONTINUOUS
 62
5
 10
-0.189799
 20
0.362495
 30
0.0
 11
-0.168758
 21
0.418604
 31
0.0
  0
LINE
  8
5
  6
CONTINUOUS
 62
5
 10
-0.168758
 20
0.418604
 30
0.0
 11
-0.147717
 21
0.362495
 31
0.0
  0
LINE
  8
5
  6
CONTINUOUS
 62
5
 10
-0.183607
 20
0.374518
 30
0.0
 11
-0.153909
 21
0.374518
 31
0.0
  0
LINE
  8
5
  6
CONTINUOUS
 62
5
 10
-0.142106
 20
0.418604
 30
0.0
 11
-0.142106
 21
0.362495
 31
0.0
  0
LINE
  8
5
  6
CONTINUOUS
 62
5
 10
-0.142106
 20
0.362495
 30
0.0
 11
-0.109202
 21
0.362495
 31
0.0
  0
LINE
  8
5
  6
CONTINUOUS
 62
5
 10
-0.102388
 20
0.418604
 30
0.0
 11
-0.102388
 21
0.362495
 31
0.0
  0
LINE
  8
5
  6
CONTINUOUS
 62
5
 10
-0.102388
 20
0.362495
 30
0.0
 11
-0.069484
 21
0.362495
 31
0.0
  0
LINE
  8
5
  6
CONTINUOUS
 62
5
 10
-0.004424
 20
0.390549
 30
0.0
 11
-0.028439
 21
0.390549
 31
0.0
  0
LINE
  8
5
  6
CONTINUOUS
 62
5
 10
-0.030114
 20
0.362495
 30
0.0
 11
-0.030114
 21
0.418604
 31
0.0
  0
LINE
  8
5
  6
CONTINUOUS
 62
5
 10
-0.030114
 20
0.418604
 30
0.0
 11
-1.6E-5
 21
0.418604
 31
0.0
  0
ARC
  8
5
  6
CONTINUOUS
 62
5
 10
0.024431
 20
0.37908
 30
0.0
 40
0.016695
 50
196.004821999998
 51
267.948394999998
  0
ARC
  8
5
  6
CONTINUOUS
 62
5
 10
0.0557299999999999
 20
0.390508
 30
0.0
 40
0.0499869999999999
 50
161.294113
 51
198.705887
  0
ARC
  8
5
  6
CONTINUOUS
 62
5
 10
0.024431
 20
0.401899
 30
0.0
 40
0.016705
 50
16.1288889999996
 51
163.872177
  0
ARC
  8
5
  6
CONTINUOUS
 62
5
 10
-0.00686699916058533
 20
0.390508002479055
 30
0.0
 40
0.0499870000000001
 50
341.293758999999
 51
18.7062410000003
  0
ARC
  8
5
  6
CONTINUOUS
 62
5
 10
0.0244310000000004
 20
0.37908
 30
0.0
 40
0.016695
 50
272.763976999998
 51
343.994109999999
  0
LINE
  8
5
  6
CONTINUOUS
 62
5
 10
0.049892
 20
0.418603
 30
0.0
 11
0.049892
 21
0.378525
 31
0.0
  0
ARC
  8
5
  6
CONTINUOUS
 62
5
 10
0.066323
 20
0.37879
 30
0.0
 40
0.016433
 50
180.923919999998
 51
0.472476999999613
  0
LINE
  8
5
  6
CONTINUOUS
 62
5
 10
0.082756
 20
0.378926
 30
0.0
 11
0.082756
 21
0.418603
 31
0.0
  0
LINE
  8
5
  6
CONTINUOUS
 62
5
 10
0.091173
 20
0.362493
 30
0.0
 11
0.091173
 21
0.418603
 31
0.0
  0
LINE
  8
5
  6
CONTINUOUS
 62
5
 10
0.091173
 20
0.418603
 30
0.0
 11
0.111532
 21
0.418603
 31
0.0
  0
ARC
  8
5
  6
CONTINUOUS
 62
5
 10
0.111262
 20
0.404575
 30
0.0
 40
0.01403
 50
271.095275999998
 51
88.8959199999996
  0
LINE
  8
5
  6
CONTINUOUS
 62
5
 10
0.11153
 20
0.390548
 30
0.0
 11
0.093014
 21
0.390548
 31
0.0
  0
LINE
  8
5
  6
CONTINUOUS
 62
5
 10
0.11233
 20
0.38895
 30
0.0
 11
0.12556
 21
0.362493
 31
0.0
  0
LINE
  8
6
  6
CONTINUOUS
 62
6
 10
-0.365073
 20
1.106151
 30
0.0
 11
-0.393383
 21
1.106151
 31
0.0
  0
LINE
  8
6
  6
CONTINUOUS
 62
6
 10
-0.365073
 20
0.890029
 30
0.0
 11
-0.365073
 21
1.106151
 31
0.0
  0
LINE
  8
6
  6
CONTINUOUS
 62
6
 10
-0.450011
 20
1.106151
 30
0.0
 11
-0.496255
 21
1.106151
 31
0.0
  0
LINE
  8
6
  6
CONTINUOUS
 62
6
 10
-0.403225
 20
0.952545
 30
0.0
 11
-0.450011
 21
1.106151
 31
0.0
  0
LINE
  8
6
  6
CONTINUOUS
 62
6
 10
-0.741342
 20
0.948284
 30
0.0
 11
-0.741342
 21
1.047912
 31
0.0
  0
LINE
  8
6
  6
CONTINUOUS
 62
6
 10
-0.65243
 20
0.948284
 30
0.0
 11
-0.679992
 21
0.948284
 31
0.0
  0
ARC
  8
6
  6
CONTINUOUS
 62
6
 10
-0.710668
 20
1.047912
 30
0.0
 40
0.058238
 50
359.999999999998
 51
135
  0
ARC
  8
6
  6
CONTINUOUS
 62
6
 10
-0.574643
 20
1.047912
 30
0.0
 40
0.058238
 50
359.999999999998
 51
135
  0
LINE
  8
6
  6
CONTINUOUS
 62
6
 10
-0.605317
 20
1.047912
 30
0.0
 11
-0.605317
 21
0.948284
 31
0.0
  0
LINE
  8
6
  6
CONTINUOUS
 62
6
 10
-0.516405
 20
1.047912
 30
0.0
 11
-0.516405
 21
0.948284
 31
0.0
  0
LINE
  8
6
  6
CONTINUOUS
 62
6
 10
-0.214079
 20
1.106151
 30
0.0
 11
-0.243336
 21
1.106151
 31
0.0
  0
LINE
  8
6
  6
CONTINUOUS
 62
6
 10
-0.261268
 20
0.890029
 30
0.0
 11
-0.214079
 21
1.106151
 31
0.0
  0
LINE
  8
6
  6
CONTINUOUS
 62
6
 10
-0.313174
 20
1.106151
 30
0.0
 11
-0.344319
 21
1.106151
 31
0.0
  0
LINE
  8
6
  6
CONTINUOUS
 62
6
 10
-0.281833
 20
0.944011
 30
0.0
 11
-0.313174
 21
1.106151
 31
0.0
  0
LINE
  8
6
  6
CONTINUOUS
 62
6
 10
-0.099893
 20
1.012718
 30
0.0
 11
-0.164069
 21
1.012718
 31
0.0
  0
LINE
  8
6
  6
CONTINUOUS
 62
6
 10
-0.099893
 20
0.988181
 30
0.0
 11
-0.099893
 21
1.012718
 31
0.0
  0
LINE
  8
6
  6
CONTINUOUS
 62
6
 10
-0.09423
 20
0.914567
 30
0.0
 11
-0.164069
 21
0.914567
 31
0.0
  0
LINE
  8
6
  6
CONTINUOUS
 62
6
 10
-0.09423
 20
0.890029
 30
0.0
 11
-0.09423
 21
0.914567
 31
0.0
  0
LINE
  8
6
  6
CONTINUOUS
 62
6
 10
-0.096118
 20
1.106151
 30
0.0
 11
-0.193326
 21
1.106151
 31
0.0
  0
LINE
  8
6
  6
CONTINUOUS
 62
6
 10
-0.096118
 20
1.081612
 30
0.0
 11
-0.096118
 21
1.106151
 31
0.0
  0
LINE
  8
6
  6
CONTINUOUS
 62
6
 10
-0.014044
 20
1.106151
 30
0.0
 11
-0.075365
 21
1.106151
 31
0.0
  0
ARC
  8
6
  6
CONTINUOUS
 62
6
 10
-0.0208660000000002
 20
0.954223
 30
0.0
 40
0.056845
 50
44.5064389999996
 51
224.506439
  0
ARC
  8
6
  6
CONTINUOUS
 62
6
 10
-0.0208659999999992
 20
0.954223
 30
0.0
 40
0.056845
 50
224.506438999998
 51
44.5064389999996
  0
LINE
  8
6
  6
CONTINUOUS
 62
6
 10
0.046356
 20
0.890029
 30
0.0
 11
0.035337
 21
0.962739
 31
0.0
  0
ARC
  8
6
  6
CONTINUOUS
 62
6
 10
-0.0140429999999994
 20
1.045749
 30
0.0
 40
0.0346849999999999
 50
303.424682999998
 51
123.424683
  0
ARC
  8
6
  6
CONTINUOUS
 62
6
 10
-0.0140430000000006
 20
1.045749
 30
0.0
 40
0.0346849999999998
 50
123.424682999999
 51
303.424682999999
  0
LINE
  8
6
  6
CONTINUOUS
 62
6
 10
-0.014043
 20
1.011065
 30
0.0
 11
-0.046108
 21
1.011065
 31
0.0
  0
ARC
  8
6
  6
CONTINUOUS
 62
6
 10
0.124745
 20
1.047912
 30
0.0
 40
0.058238
 50
359.999999999998
 51
135
  0
ARC
  8
6
  6
CONTINUOUS
 62
6
 10
0.124747
 20
1.047912
 30
0.0
 40
0.0306770000000001
 50
243.182372999998
 51
63.1823729999997
  0
ARC
  8
6
  6
CONTINUOUS
 62
6
 10
0.124747
 20
1.047912
 30
0.0
 40
0.0306770000000001
 50
63.1823729999996
 51
243.182373
  0
LINE
  8
6
  6
CONTINUOUS
 62
6
 10
0.15102
 20
1.000259
 30
0.0
 11
0.110907
 21
1.020534
 31
0.0
  0
ARC
  8
6
  6
CONTINUOUS
 62
6
 10
0.124745
 20
0.948285000000001
 30
0.0
 40
0.0582380000000001
 50
314.999602999998
 51
63.1815189999996
  0
LINE
  8
6
  6
CONTINUOUS
 62
6
 10
0.09407
 20
0.948284
 30
0.0
 11
0.066508
 21
0.948284
 31
0.0
  0
ARC
  8
6
  6
CONTINUOUS
 62
6
 10
0.124745
 20
0.948284
 30
0.0
 40
0.030675
 50
301.886168999998
 51
121.886169
  0
ARC
  8
6
  6
CONTINUOUS
 62
6
 10
0.124745
 20
0.948284
 30
0.0
 40
0.030675
 50
121.886168999998
 51
301.886168999998
  0
LINE
  8
6
  6
CONTINUOUS
 62
6
 10
0.265999
 20
1.050737
 30
0.0
 11
0.247274
 21
0.963642
 31
0.0
  0
LINE
  8
6
  6
CONTINUOUS
 62
6
 10
0.292792
 20
1.106151
 30
0.0
 11
0.253154
 21
1.106151
 31
0.0
  0
LINE
  8
6
  6
CONTINUOUS
 62
6
 10
0.342812
 20
0.890029
 30
0.0
 11
0.292792
 21
1.106151
 31
0.0
  0
LINE
  8
6
  6
CONTINUOUS
 62
6
 10
0.284242
 20
0.963642
 30
0.0
 11
0.247274
 21
0.963642
 31
0.0
  0
LINE
  8
6
  6
CONTINUOUS
 62
6
 10
0.38982
 20
0.890029
 30
0.0
 11
0.399662
 21
0.890029
 31
0.0
  0
LINE
  8
6
  6
CONTINUOUS
 62
6
 10
0.450626
 20
1.106151
 30
0.0
 11
0.320386
 21
1.106151
 31
0.0
  0
LINE
  8
6
  6
CONTINUOUS
 62
6
 10
0.450626
 20
1.081612
 30
0.0
 11
0.450626
 21
1.106151
 31
0.0
  0
LINE
  8
6
  6
CONTINUOUS
 62
6
 10
0.471377
 20
1.106151
 30
0.0
 11
0.500633
 21
1.106151
 31
0.0
  0
LINE
  8
6
  6
CONTINUOUS
 62
6
 10
0.500633
 20
1.106151
 30
0.0
 11
0.500633
 21
0.890029
 31
0.0
  0
LINE
  8
6
  6
CONTINUOUS
 62
6
 10
0.548347
 20
0.948284
 30
0.0
 11
0.548347
 21
1.047912
 31
0.0
  0
ARC
  8
6
  6
CONTINUOUS
 62
6
 10
0.579021
 20
1.047912
 30
0.0
 40
0.058238
 50
359.999999999998
 51
135
  0
LINE
  8
6
  6
CONTINUOUS
 62
6
 10
0.637259
 20
0.948284
 30
0.0
 11
0.637259
 21
1.047912
 31
0.0
  0
LINE
  8
6
  6
CONTINUOUS
 62
6
 10
0.703653
 20
1.106151
 30
0.0
 11
0.657409
 21
1.106151
 31
0.0
  0
LINE
  8
6
  6
CONTINUOUS
 62
6
 10
0.750438
 20
0.952545
 30
0.0
 11
0.703653
 21
1.106151
 31
0.0
  0
LINE
  8
6
  6
CONTINUOUS
 62
6
 10
0.78859
 20
1.106151
 30
0.0
 11
0.760279
 21
1.106151
 31
0.0
  0
LINE
  8
6
  6
CONTINUOUS
 62
6
 10
0.78859
 20
0.890029
 30
0.0
 11
0.78859
 21
1.106151
 31
0.0
  0
ARC
  8
6
  6
CONTINUOUS
 62
6
 10
0.579022
 20
0.948284
 30
0.0
 40
0.0306749999999999
 50
301.886168999998
 51
121.886169
  0
ARC
  8
6
  6
CONTINUOUS
 62
6
 10
0.579022
 20
0.948284
 30
0.0
 40
0.0306749999999999
 50
121.886168999998
 51
301.886168999998
  0
LINE
  8
6
  6
CONTINUOUS
 62
6
 10
-0.001391
 20
-0.381959
 30
0.0
 11
0.030711
 21
-0.381959
 31
0.0
  0
LINE
  8
6
  6
CONTINUOUS
 62
6
 10
0.01466
 20
-0.39801
 30
0.0
 11
0.01466
 21
-0.365908
 31
0.0
  0
LINE
  8
6
  6
CONTINUOUS
 62
6
 10
-0.171841
 20
-0.183175
 30
0.0
 11
-0.171841
 21
-0.128699
 31
0.0
  0
LINE
  8
6
  6
CONTINUOUS
 62
6
 10
-0.189799
 20
-0.126995
 30
0.0
 11
-0.153884
 21
-0.126995
 31
0.0
  0
ARC
  8
6
  6
CONTINUOUS
 62
6
 10
-0.129407
 20
-0.166567
 30
0.0
 40
0.016716
 50
196.004821999998
 51
267.948394999998
  0
ARC
  8
6
  6
CONTINUOUS
 62
6
 10
-0.0980690000000001
 20
-0.155125
 30
0.0
 40
0.050049
 50
161.294113
 51
198.705887
  0
ARC
  8
6
  6
CONTINUOUS
 62
6
 10
-0.129407
 20
-0.14372
 30
0.0
 40
0.016726
 50
16.1288889999996
 51
163.872177
  0
ARC
  8
6
  6
CONTINUOUS
 62
6
 10
-0.160743999159544
 20
-0.15512499751787
 30
0.0
 40
0.050049
 50
341.293758999999
 51
18.7062410000003
  0
ARC
  8
6
  6
CONTINUOUS
 62
6
 10
-0.129407
 20
-0.166567
 30
0.0
 40
0.016716
 50
272.763976999998
 51
343.994109999998
  0
LINE
  8
6
  6
CONTINUOUS
 62
6
 10
-0.10251
 20
-0.183175
 30
0.0
 11
-0.10251
 21
-0.126995
 31
0.0
  0
LINE
  8
6
  6
CONTINUOUS
 62
6
 10
-0.10251
 20
-0.126995
 30
0.0
 11
-0.082125
 21
-0.126995
 31
0.0
  0
ARC
  8
6
  6
CONTINUOUS
 62
6
 10
-0.0829589990194586
 20
-0.141039999941728
 30
0.0
 40
0.01407
 50
273.400996999999
 51
86.5990030000003
  0
LINE
  8
6
  6
CONTINUOUS
 62
6
 10
-0.082125
 20
-0.155085
 30
0.0
 11
-0.101667
 21
-0.155085
 31
0.0
  0
ARC
  8
6
  6
CONTINUOUS
 62
6
 10
-0.0063619999999999
 20
-0.166567
 30
0.0
 40
0.016716
 50
196.004821999998
 51
267.948394999998
  0
ARC
  8
6
  6
CONTINUOUS
 62
6
 10
0.024975
 20
-0.155125
 30
0.0
 40
0.050049
 50
161.294113
 51
198.705887
  0
ARC
  8
6
  6
CONTINUOUS
 62
6
 10
-0.00636200000000002
 20
-0.14372
 30
0.0
 40
0.016726
 50
16.1288889999996
 51
163.872177
  0
ARC
  8
6
  6
CONTINUOUS
 62
6
 10
-0.0376999991595441
 20
-0.15512499751787
 30
0.0
 40
0.050049
 50
341.293758999999
 51
18.7062410000003
  0
ARC
  8
6
  6
CONTINUOUS
 62
6
 10
-0.00636199999999968
 20
-0.166567
 30
0.0
 40
0.016716
 50
272.763976999998
 51
343.994109999998
  0
LINE
  8
6
  6
CONTINUOUS
 62
6
 10
0.047667
 20
-0.155084
 30
0.0
 11
0.023622
 21
-0.155084
 31
0.0
  0
LINE
  8
6
  6
CONTINUOUS
 62
6
 10
0.021945
 20
-0.183173
 30
0.0
 11
0.021945
 21
-0.126994
 31
0.0
  0
LINE
  8
6
  6
CONTINUOUS
 62
6
 10
0.021945
 20
-0.126994
 30
0.0
 11
0.052081
 21
-0.126994
 31
0.0
  0
ARC
  8
6
  6
CONTINUOUS
 62
6
 10
0.11032
 20
-0.145259
 30
0.0
 40
0.018465
 50
48.9416959999996
 51
146.027985
  0
ARC
  8
6
  6
CONTINUOUS
 62
6
 10
0.11408
 20
-0.1409
 30
0.0
 40
0.012709
 50
9.99999523690247E-7
 51
48.8140719999995
  0
ARC
  8
6
  6
CONTINUOUS
 62
6
 10
0.11276
 20
-0.1409
 30
0.0
 40
0.014028
 50
279.088103999998
 51
359.999999999998
  0
ARC
  8
6
  6
CONTINUOUS
 62
6
 10
0.113532
 20
-0.168759
 30
0.0
 40
0.014081
 50
19.4344249999996
 51
84.1142729999996
  0
ARC
  8
6
  6
CONTINUOUS
 62
6
 10
0.114376
 20
-0.168557
 30
0.0
 40
0.013218
 50
307.790496999998
 51
19.8277719999996
  0
ARC
  8
6
  6
CONTINUOUS
 62
6
 10
0.110528
 20
-0.162603
 30
0.0
 40
0.020291
 50
216.483001999998
 51
306.074035999998
  0
LINE
  8
6
  6
CONTINUOUS
 62
6
 10
0.140401
 20
-0.183175
 30
0.0
 11
0.140401
 21
-0.126995
 31
0.0
  0
LINE
  8
6
  6
CONTINUOUS
 62
6
 10
0.140401
 20
-0.126995
 30
0.0
 11
0.156071
 21
-0.126995
 31
0.0
  0
ARC
  8
6
  6
CONTINUOUS
 62
6
 10
0.154133
 20
-0.147564
 30
0.0
 40
0.02066
 50
24.3863829999996
 51
84.6174089999996
  0
ARC
  8
6
  6
CONTINUOUS
 62
6
 10
0.125543999859928
 20
-0.155085000413689
 30
0.0
 40
0.0500489999999999
 50
341.2943125
 51
18.7056875
  0
ARC
  8
6
  6
CONTINUOUS
 62
6
 10
0.154133
 20
-0.162606
 30
0.0
 40
0.02066
 50
275.382445999998
 51
335.613616999998
  0
LINE
  8
6
  6
CONTINUOUS
 62
6
 10
0.156071
 20
-0.183175
 30
0.0
 11
0.141806
 21
-0.183175
 31
0.0
  0
LINE
  8
6
  6
CONTINUOUS
 62
6
 10
0.226507
 20
-0.155015
 30
0.0
 11
0.246796
 21
-0.155015
 31
0.0
  0
ARC
  8
6
  6
CONTINUOUS
 62
6
 10
0.246792
 20
-0.16906
 30
0.0
 40
0.014045
 50
269.999999999998
 51
89.9818799999996
  0
LINE
  8
6
  6
CONTINUOUS
 62
6
 10
0.246792
 20
-0.183105
 30
0.0
 11
0.224822
 21
-0.183105
 31
0.0
  0
LINE
  8
6
  6
CONTINUOUS
 62
6
 10
0.224822
 20
-0.183105
 30
0.0
 11
0.224822
 21
-0.126995
 31
0.0
  0
LINE
  8
6
  6
CONTINUOUS
 62
6
 10
0.224822
 20
-0.126995
 30
0.0
 11
0.244284
 21
-0.126995
 31
0.0
  0
ARC
  8
6
  6
CONTINUOUS
 62
6
 10
0.244172
 20
-0.141096
 30
0.0
 40
0.014102
 50
296.191832999998
 51
89.5439989999996
  0
ARC
  8
6
  6
CONTINUOUS
 62
6
 10
0.285314
 20
-0.166567
 30
0.0
 40
0.016716
 50
196.004821999998
 51
267.948394999998
  0
ARC
  8
6
  6
CONTINUOUS
 62
6
 10
0.316651
 20
-0.155125
 30
0.0
 40
0.050049
 50
161.294113
 51
198.705887
  0
ARC
  8
6
  6
CONTINUOUS
 62
6
 10
0.285314
 20
-0.14372
 30
0.0
 40
0.016726
 50
16.1288889999996
 51
163.872177
  0
ARC
  8
6
  6
CONTINUOUS
 62
6
 10
0.253976000840456
 20
-0.15512499751787
 30
0.0
 40
0.050049
 50
341.293758999999
 51
18.7062410000003
  0
ARC
  8
6
  6
CONTINUOUS
 62
6
 10
0.285314
 20
-0.166567
 30
0.0
 40
0.016716
 50
272.763976999998
 51
343.994109999999
  0
LINE
  8
6
  6
CONTINUOUS
 62
6
 10
0.310807
 20
-0.126995
 30
0.0
 11
0.345718
 21
-0.183175
 31
0.0
  0
LINE
  8
6
  6
CONTINUOUS
 62
6
 10
0.308399
 20
-0.183175
 30
0.0
 11
0.34331
 21
-0.126995
 31
0.0
  0
LINE
  8
6
  6
CONTINUOUS
 62
6
 10
-0.412913
 20
-0.62832
 30
0.0
 11
-0.412913
 21
-0.572141
 31
0.0
  0
LINE
  8
6
  6
CONTINUOUS
 62
6
 10
-0.412913
 20
-0.572141
 30
0.0
 11
-0.392528
 21
-0.572141
 31
0.0
  0
ARC
  8
6
  6
CONTINUOUS
 62
6
 10
-0.393361999019458
 20
-0.586184999941728
 30
0.0
 40
0.01407
 50
273.400996999999
 51
86.5990030000003
  0
LINE
  8
6
  6
CONTINUOUS
 62
6
 10
-0.392528
 20
-0.60023
 30
0.0
 11
-0.41207
 21
-0.60023
 31
0.0
  0
LINE
  8
6
  6
CONTINUOUS
 62
6
 10
-0.370056
 20
-0.62832
 30
0.0
 11
-0.370056
 21
-0.572141
 31
0.0
  0
LINE
  8
6
  6
CONTINUOUS
 62
6
 10
-0.370056
 20
-0.572141
 30
0.0
 11
-0.349671
 21
-0.572141
 31
0.0
  0
ARC
  8
6
  6
CONTINUOUS
 62
6
 10
-0.349942
 20
-0.586185
 30
0.0
 40
0.014047
 50
271.095275999998
 51
88.8959199999997
  0
LINE
  8
6
  6
CONTINUOUS
 62
6
 10
-0.349673
 20
-0.60023
 30
0.0
 11
-0.368212
 21
-0.60023
 31
0.0
  0
LINE
  8
6
  6
CONTINUOUS
 62
6
 10
-0.348873
 20
-0.601831
 30
0.0
 11
-0.335626
 21
-0.62832
 31
0.0
  0
LINE
  8
6
  6
CONTINUOUS
 62
6
 10
-0.296458
 20
-0.62832
 30
0.0
 11
-0.329403
 21
-0.62832
 31
0.0
  0
LINE
  8
6
  6
CONTINUOUS
 62
6
 10
-0.329403
 20
-0.62832
 30
0.0
 11
-0.329423
 21
-0.600231
 31
0.0
  0
LINE
  8
6
  6
CONTINUOUS
 62
6
 10
-0.329423
 20
-0.600231
 30
0.0
 11
-0.303681
 21
-0.600231
 31
0.0
  0
LINE
  8
6
  6
CONTINUOUS
 62
6
 10
-0.329425
 20
-0.599389
 30
0.0
 11
-0.329443
 21
-0.572141
 31
0.0
  0
LINE
  8
6
  6
CONTINUOUS
 62
6
 10
-0.329443
 20
-0.572141
 30
0.0
 11
-0.299267
 21
-0.572141
 31
0.0
  0
ARC
  8
6
  6
CONTINUOUS
 62
6
 10
-0.275411
 20
-0.612159
 30
0.0
 40
0.016195
 50
210.522003
 51
269.441071
  0
LINE
  8
6
  6
CONTINUOUS
 62
6
 10
-0.275569
 20
-0.628353
 30
0.0
 11
-0.269844
 21
-0.628409
 31
0.0
  0
ARC
  8
6
  6
CONTINUOUS
 62
6
 10
-0.2697
 20
-0.613625
 30
0.0
 40
0.014784
 50
269.441071
 51
357.350677
  0
ARC
  8
6
  6
CONTINUOUS
 62
6
 10
-0.266957
 20
-0.615399
 30
0.0
 40
0.012075
 50
5.18227199999976
 51
59.3448299999997
  0
LINE
  8
6
  6
CONTINUOUS
 62
6
 10
-0.260801
 20
-0.605012
 30
0.0
 11
-0.282911
 21
-0.595516
 31
0.0
  0
ARC
  8
6
  6
CONTINUOUS
 62
6
 10
-0.276755
 20
-0.585128
 30
0.0
 40
0.012075
 50
185.182403999998
 51
239.344802999998
  0
ARC
  8
6
  6
CONTINUOUS
 62
6
 10
-0.274071
 20
-0.586863
 30
0.0
 40
0.014723
 50
91.2613449999996
 51
177.491959
  0
LINE
  8
6
  6
CONTINUOUS
 62
6
 10
-0.274395
 20
-0.572144
 30
0.0
 11
-0.268684
 21
-0.572138
 31
0.0
  0
ARC
  8
6
  6
CONTINUOUS
 62
6
 10
-0.269194
 20
-0.587812
 30
0.0
 40
0.015682
 50
29.2717089999993
 51
88.1361469999993
  0
ARC
  8
6
  6
CONTINUOUS
 62
6
 10
-0.22708
 20
-0.612159
 30
0.0
 40
0.016195
 50
210.522003
 51
269.441071
  0
LINE
  8
6
  6
CONTINUOUS
 62
6
 10
-0.227238
 20
-0.628353
 30
0.0
 11
-0.221513
 21
-0.628409
 31
0.0
  0
ARC
  8
6
  6
CONTINUOUS
 62
6
 10
-0.221369
 20
-0.613625
 30
0.0
 40
0.014784
 50
269.441070999999
 51
357.350676999998
  0
ARC
  8
6
  6
CONTINUOUS
 62
6
 10
-0.218626
 20
-0.615399
 30
0.0
 40
0.012075
 50
5.18227199999973
 51
59.3448299999998
  0
LINE
  8
6
  6
CONTINUOUS
 62
6
 10
-0.212469
 20
-0.605012
 30
0.0
 11
-0.23458
 21
-0.595516
 31
0.0
  0
ARC
  8
6
  6
CONTINUOUS
 62
6
 10
-0.228423
 20
-0.585128
 30
0.0
 40
0.012075
 50
185.182403999998
 51
239.344802999998
  0
ARC
  8
6
  6
CONTINUOUS
 62
6
 10
-0.225739
 20
-0.586863
 30
0.0
 40
0.014723
 50
91.2613449999996
 51
177.491959
  0
LINE
  8
6
  6
CONTINUOUS
 62
6
 10
-0.226064
 20
-0.572144
 30
0.0
 11
-0.220352
 21
-0.572138
 31
0.0
  0
ARC
  8
6
  6
CONTINUOUS
 62
6
 10
-0.220862
 20
-0.587812
 30
0.0
 40
0.015682
 50
29.2717089999993
 51
88.1361469999993
  0
ARC
  8
6
  6
CONTINUOUS
 62
6
 10
-0.391453
 20
0.382972
 30
0.0
 40
0.02066
 50
204.386840999998
 51
324.320006999998
  0
ARC
  8
6
  6
CONTINUOUS
 62
6
 10
-0.362864
 20
0.390493
 30
0.0
 40
0.050049
 50
161.294128
 51
198.705872
  0
ARC
  8
6
  6
CONTINUOUS
 62
6
 10
-0.391453
 20
0.398014
 30
0.0
 40
0.02066
 50
35.6800309999996
 51
155.613174
  0
LINE
  8
6
  6
CONTINUOUS
 62
6
 10
-0.369053
 20
0.418674
 30
0.0
 11
-0.369053
 21
0.362495
 31
0.0
  0
LINE
  8
6
  6
CONTINUOUS
 62
6
 10
-0.369053
 20
0.362495
 30
0.0
 11
-0.336108
 21
0.362495
 31
0.0
  0
LINE
  8
6
  6
CONTINUOUS
 62
6
 10
-0.326181
 20
0.362495
 30
0.0
 11
-0.31013
 21
0.362495
 31
0.0
  0
LINE
  8
6
  6
CONTINUOUS
 62
6
 10
-0.318156
 20
0.36418
 30
0.0
 11
-0.318156
 21
0.416989
 31
0.0
  0
LINE
  8
6
  6
CONTINUOUS
 62
6
 10
-0.326181
 20
0.418674
 30
0.0
 11
-0.310215
 21
0.418674
 31
0.0
  0
ARC
  8
6
  6
CONTINUOUS
 62
6
 10
-0.282989
 20
0.382972
 30
0.0
 40
0.02066
 50
204.386840999998
 51
324.320006999998
  0
ARC
  8
6
  6
CONTINUOUS
 62
6
 10
-0.2544
 20
0.390493
 30
0.0
 40
0.050049
 50
161.294128
 51
198.705872
  0
ARC
  8
6
  6
CONTINUOUS
 62
6
 10
-0.282989
 20
0.398014
 30
0.0
 40
0.02066
 50
35.6800309999996
 51
155.613174
  0
LINE
  8
6
  6
CONTINUOUS
 62
6
 10
-0.260589
 20
0.418674
 30
0.0
 11
-0.260589
 21
0.362495
 31
0.0
  0
LINE
  8
6
  6
CONTINUOUS
 62
6
 10
-0.229169
 20
0.362495
 30
0.0
 11
-0.245615
 21
0.396975
 31
0.0
  0
LINE
  8
6
  6
CONTINUOUS
 62
6
 10
-0.258941
 20
0.383815
 30
0.0
 11
-0.229169
 21
0.418674
 31
0.0
  0
LINE
  8
6
  6
CONTINUOUS
 62
6
 10
-0.394956
 20
0.026483
 30
0.0
 11
-0.394956
 21
0.080959
 31
0.0
  0
LINE
  8
6
  6
CONTINUOUS
 62
6
 10
-0.412913
 20
0.082663
 30
0.0
 11
-0.376998
 21
0.082663
 31
0.0
  0
LINE
  8
6
  6
CONTINUOUS
 62
6
 10
-0.37138
 20
0.082663
 30
0.0
 11
-0.353689
 21
0.05603
 31
0.0
  0
LINE
  8
6
  6
CONTINUOUS
 62
6
 10
-0.352721
 20
0.026483
 30
0.0
 11
-0.352721
 21
0.054573
 31
0.0
  0
LINE
  8
6
  6
CONTINUOUS
 62
6
 10
-0.352721
 20
0.054573
 30
0.0
 11
-0.334061
 21
0.082663
 31
0.0
  0
LINE
  8
6
  6
CONTINUOUS
 62
6
 10
-0.327039
 20
0.026483
 30
0.0
 11
-0.327039
 21
0.082663
 31
0.0
  0
LINE
  8
6
  6
CONTINUOUS
 62
6
 10
-0.327039
 20
0.082663
 30
0.0
 11
-0.306654
 21
0.082663
 31
0.0
  0
ARC
  8
6
  6
CONTINUOUS
 62
6
 10
-0.307488999019458
 20
0.0686180000582721
 30
0.0
 40
0.01407
 50
273.400996999999
 51
86.5990030000003
  0
LINE
  8
6
  6
CONTINUOUS
 62
6
 10
-0.306654
 20
0.054573
 30
0.0
 11
-0.326196
 21
0.054573
 31
0.0
  0
LINE
  8
6
  6
CONTINUOUS
 62
6
 10
-0.253441
 20
0.026483
 30
0.0
 11
-0.286386
 21
0.026483
 31
0.0
  0
LINE
  8
6
  6
CONTINUOUS
 62
6
 10
-0.286386
 20
0.026483
 30
0.0
 11
-0.286406
 21
0.054572
 31
0.0
  0
LINE
  8
6
  6
CONTINUOUS
 62
6
 10
-0.286406
 20
0.054572
 30
0.0
 11
-0.260664
 21
0.054572
 31
0.0
  0
LINE
  8
6
  6
CONTINUOUS
 62
6
 10
-0.286407
 20
0.055415
 30
0.0
 11
-0.286426
 21
0.082662
 31
0.0
  0
LINE
  8
6
  6
CONTINUOUS
 62
6
 10
-0.286426
 20
0.082662
 30
0.0
 11
-0.25625
 21
0.082662
 31
0.0
  0
LINE
  8
6
  6
CONTINUOUS
 62
6
 10
-0.412913
 20
-0.082651
 30
0.0
 11
-0.412913
 21
-0.026471
 31
0.0
  0
LINE
  8
6
  6
CONTINUOUS
 62
6
 10
-0.412913
 20
-0.026471
 30
0.0
 11
-0.392528
 21
-0.026471
 31
0.0
  0
ARC
  8
6
  6
CONTINUOUS
 62
6
 10
-0.393361999019458
 20
-0.0405159999417279
 30
0.0
 40
0.01407
 50
273.400996999999
 51
86.5990030000003
  0
LINE
  8
6
  6
CONTINUOUS
 62
6
 10
-0.392528
 20
-0.054561
 30
0.0
 11
-0.41207
 21
-0.054561
 31
0.0
  0
LINE
  8
6
  6
CONTINUOUS
 62
6
 10
-0.370056
 20
-0.082651
 30
0.0
 11
-0.370056
 21
-0.026471
 31
0.0
  0
LINE
  8
6
  6
CONTINUOUS
 62
6
 10
-0.370056
 20
-0.026471
 30
0.0
 11
-0.349671
 21
-0.026471
 31
0.0
  0
ARC
  8
6
  6
CONTINUOUS
 62
6
 10
-0.349942
 20
-0.040516
 30
0.0
 40
0.014047
 50
271.095275999998
 51
88.8959199999997
  0
LINE
  8
6
  6
CONTINUOUS
 62
6
 10
-0.349673
 20
-0.054561
 30
0.0
 11
-0.368212
 21
-0.054561
 31
0.0
  0
LINE
  8
6
  6
CONTINUOUS
 62
6
 10
-0.348873
 20
-0.056161
 30
0.0
 11
-0.335626
 21
-0.082651
 31
0.0
  0
LINE
  8
6
  6
CONTINUOUS
 62
6
 10
-0.296458
 20
-0.082651
 30
0.0
 11
-0.329403
 21
-0.082651
 31
0.0
  0
LINE
  8
6
  6
CONTINUOUS
 62
6
 10
-0.329403
 20
-0.082651
 30
0.0
 11
-0.329423
 21
-0.054562
 31
0.0
  0
LINE
  8
6
  6
CONTINUOUS
 62
6
 10
-0.329423
 20
-0.054562
 30
0.0
 11
-0.303681
 21
-0.054562
 31
0.0
  0
LINE
  8
6
  6
CONTINUOUS
 62
6
 10
-0.329425
 20
-0.053719
 30
0.0
 11
-0.329443
 21
-0.026472
 31
0.0
  0
LINE
  8
6
  6
CONTINUOUS
 62
6
 10
-0.329443
 20
-0.026472
 30
0.0
 11
-0.299267
 21
-0.026472
 31
0.0
  0
ARC
  8
6
  6
CONTINUOUS
 62
6
 10
-0.275411
 20
-0.0664900000000002
 30
0.0
 40
0.016195
 50
210.522002999998
 51
269.441070999998
  0
LINE
  8
6
  6
CONTINUOUS
 62
6
 10
-0.275569
 20
-0.082683
 30
0.0
 11
-0.269844
 21
-0.082739
 31
0.0
  0
ARC
  8
6
  6
CONTINUOUS
 62
6
 10
-0.2697
 20
-0.067956
 30
0.0
 40
0.014784
 50
269.441071
 51
357.350676999998
  0
ARC
  8
6
  6
CONTINUOUS
 62
6
 10
-0.266957
 20
-0.0697299999999999
 30
0.0
 40
0.012075
 50
5.18227199999965
 51
59.3448299999996
  0
LINE
  8
6
  6
CONTINUOUS
 62
6
 10
-0.260801
 20
-0.059343
 30
0.0
 11
-0.282911
 21
-0.049847
 31
0.0
  0
ARC
  8
6
  6
CONTINUOUS
 62
6
 10
-0.276755
 20
-0.0394590000000002
 30
0.0
 40
0.012075
 50
185.182403999998
 51
239.344802999998
  0
ARC
  8
6
  6
CONTINUOUS
 62
6
 10
-0.274071
 20
-0.041194
 30
0.0
 40
0.014723
 50
91.2613449999996
 51
177.491959
  0
LINE
  8
6
  6
CONTINUOUS
 62
6
 10
-0.274395
 20
-0.026475
 30
0.0
 11
-0.268684
 21
-0.026469
 31
0.0
  0
ARC
  8
6
  6
CONTINUOUS
 62
6
 10
-0.269194
 20
-0.0421429999999999
 30
0.0
 40
0.015682
 50
29.2717089999996
 51
88.1361469999996
  0
ARC
  8
6
  6
CONTINUOUS
 62
6
 10
-0.22708
 20
-0.0664900000000003
 30
0.0
 40
0.016195
 50
210.522002999998
 51
269.441070999998
  0
LINE
  8
6
  6
CONTINUOUS
 62
6
 10
-0.227238
 20
-0.082683
 30
0.0
 11
-0.221513
 21
-0.082739
 31
0.0
  0
ARC
  8
6
  6
CONTINUOUS
 62
6
 10
-0.221369
 20
-0.067956
 30
0.0
 40
0.014784
 50
269.441070999998
 51
357.350676999998
  0
ARC
  8
6
  6
CONTINUOUS
 62
6
 10
-0.218626
 20
-0.0697299999999999
 30
0.0
 40
0.012075
 50
5.18227199999961
 51
59.3448299999996
  0
LINE
  8
6
  6
CONTINUOUS
 62
6
 10
-0.212469
 20
-0.059343
 30
0.0
 11
-0.23458
 21
-0.049847
 31
0.0
  0
ARC
  8
6
  6
CONTINUOUS
 62
6
 10
-0.228423
 20
-0.0394590000000002
 30
0.0
 40
0.012075
 50
185.182403999998
 51
239.344802999998
  0
ARC
  8
6
  6
CONTINUOUS
 62
6
 10
-0.225739
 20
-0.041194
 30
0.0
 40
0.014723
 50
91.2613449999996
 51
177.491959
  0
LINE
  8
6
  6
CONTINUOUS
 62
6
 10
-0.226064
 20
-0.026475
 30
0.0
 11
-0.220352
 21
-0.026469
 31
0.0
  0
ARC
  8
6
  6
CONTINUOUS
 62
6
 10
-0.220862
 20
-0.042143
 30
0.0
 40
0.015682
 50
29.2717089999996
 51
88.1361469999996
  0
LINE
  8
6
  6
CONTINUOUS
 62
6
 10
-0.394956
 20
0.463019
 30
0.0
 11
-0.394956
 21
0.517494
 31
0.0
  0
LINE
  8
6
  6
CONTINUOUS
 62
6
 10
-0.412913
 20
0.519198
 30
0.0
 11
-0.376998
 21
0.519198
 31
0.0
  0
LINE
  8
6
  6
CONTINUOUS
 62
6
 10
-0.37138
 20
0.519198
 30
0.0
 11
-0.353689
 21
0.492566
 31
0.0
  0
LINE
  8
6
  6
CONTINUOUS
 62
6
 10
-0.352721
 20
0.463019
 30
0.0
 11
-0.352721
 21
0.491108
 31
0.0
  0
LINE
  8
6
  6
CONTINUOUS
 62
6
 10
-0.352721
 20
0.491108
 30
0.0
 11
-0.334061
 21
0.519198
 31
0.0
  0
LINE
  8
6
  6
CONTINUOUS
 62
6
 10
-0.327039
 20
0.463019
 30
0.0
 11
-0.327039
 21
0.519198
 31
0.0
  0
LINE
  8
6
  6
CONTINUOUS
 62
6
 10
-0.327039
 20
0.519198
 30
0.0
 11
-0.306654
 21
0.519198
 31
0.0
  0
ARC
  8
6
  6
CONTINUOUS
 62
6
 10
-0.307488999019458
 20
0.505153000058272
 30
0.0
 40
0.01407
 50
273.400996999999
 51
86.5990030000003
  0
LINE
  8
6
  6
CONTINUOUS
 62
6
 10
-0.306654
 20
0.491108
 30
0.0
 11
-0.326196
 21
0.491108
 31
0.0
  0
LINE
  8
6
  6
CONTINUOUS
 62
6
 10
-0.253441
 20
0.463018
 30
0.0
 11
-0.286386
 21
0.463018
 31
0.0
  0
LINE
  8
6
  6
CONTINUOUS
 62
6
 10
-0.286386
 20
0.463018
 30
0.0
 11
-0.286406
 21
0.491108
 31
0.0
  0
LINE
  8
6
  6
CONTINUOUS
 62
6
 10
-0.286406
 20
0.491108
 30
0.0
 11
-0.260664
 21
0.491108
 31
0.0
  0
LINE
  8
6
  6
CONTINUOUS
 62
6
 10
-0.286407
 20
0.49195
 30
0.0
 11
-0.286426
 21
0.519197
 31
0.0
  0
LINE
  8
6
  6
CONTINUOUS
 62
6
 10
-0.286426
 20
0.519197
 30
0.0
 11
-0.25625
 21
0.519197
 31
0.0
  0
LINE
  8
6
  6
CONTINUOUS
 62
6
 10
-0.394956
 20
-0.410052
 30
0.0
 11
-0.394956
 21
-0.355577
 31
0.0
  0
LINE
  8
6
  6
CONTINUOUS
 62
6
 10
-0.412913
 20
-0.353873
 30
0.0
 11
-0.376998
 21
-0.353873
 31
0.0
  0
LINE
  8
6
  6
CONTINUOUS
 62
6
 10
-0.37138
 20
-0.353873
 30
0.0
 11
-0.353689
 21
-0.380505
 31
0.0
  0
LINE
  8
6
  6
CONTINUOUS
 62
6
 10
-0.352721
 20
-0.410052
 30
0.0
 11
-0.352721
 21
-0.381963
 31
0.0
  0
LINE
  8
6
  6
CONTINUOUS
 62
6
 10
-0.352721
 20
-0.381963
 30
0.0
 11
-0.334061
 21
-0.353873
 31
0.0
  0
LINE
  8
6
  6
CONTINUOUS
 62
6
 10
-0.327039
 20
-0.410052
 30
0.0
 11
-0.327039
 21
-0.353873
 31
0.0
  0
LINE
  8
6
  6
CONTINUOUS
 62
6
 10
-0.327039
 20
-0.353873
 30
0.0
 11
-0.306654
 21
-0.353873
 31
0.0
  0
ARC
  8
6
  6
CONTINUOUS
 62
6
 10
-0.307488999019458
 20
-0.367917999941728
 30
0.0
 40
0.01407
 50
273.400996999999
 51
86.5990030000003
  0
LINE
  8
6
  6
CONTINUOUS
 62
6
 10
-0.306654
 20
-0.381963
 30
0.0
 11
-0.326196
 21
-0.381963
 31
0.0
  0
LINE
  8
6
  6
CONTINUOUS
 62
6
 10
-0.253441
 20
-0.410053
 30
0.0
 11
-0.286386
 21
-0.410053
 31
0.0
  0
LINE
  8
6
  6
CONTINUOUS
 62
6
 10
-0.286386
 20
-0.410053
 30
0.0
 11
-0.286406
 21
-0.381963
 31
0.0
  0
LINE
  8
6
  6
CONTINUOUS
 62
6
 10
-0.286406
 20
-0.381963
 30
0.0
 11
-0.260664
 21
-0.381963
 31
0.0
  0
LINE
  8
6
  6
CONTINUOUS
 62
6
 10
-0.286407
 20
-0.381121
 30
0.0
 11
-0.286426
 21
-0.353873
 31
0.0
  0
LINE
  8
6
  6
CONTINUOUS
 62
6
 10
-0.286426
 20
-0.353873
 30
0.0
 11
-0.25625
 21
-0.353873
 31
0.0
  0
ARC
  8
6
  6
CONTINUOUS
 62
6
 10
-0.391453
 20
0.265229
 30
0.0
 40
0.02066
 50
204.386840999998
 51
324.320006999998
  0
ARC
  8
6
  6
CONTINUOUS
 62
6
 10
-0.362864
 20
0.27275
 30
0.0
 40
0.050049
 50
161.294128
 51
198.705872
  0
ARC
  8
6
  6
CONTINUOUS
 62
6
 10
-0.391453
 20
0.28027
 30
0.0
 40
0.02066
 50
35.6800309999996
 51
155.613174
  0
LINE
  8
6
  6
CONTINUOUS
 62
6
 10
-0.369053
 20
0.30093
 30
0.0
 11
-0.369053
 21
0.244751
 31
0.0
  0
LINE
  8
6
  6
CONTINUOUS
 62
6
 10
-0.369053
 20
0.244751
 30
0.0
 11
-0.336108
 21
0.244751
 31
0.0
  0
LINE
  8
6
  6
CONTINUOUS
 62
6
 10
-0.326181
 20
0.244751
 30
0.0
 11
-0.31013
 21
0.244751
 31
0.0
  0
LINE
  8
6
  6
CONTINUOUS
 62
6
 10
-0.318156
 20
0.246436
 30
0.0
 11
-0.318156
 21
0.299245
 31
0.0
  0
LINE
  8
6
  6
CONTINUOUS
 62
6
 10
-0.326181
 20
0.30093
 30
0.0
 11
-0.310215
 21
0.30093
 31
0.0
  0
ARC
  8
6
  6
CONTINUOUS
 62
6
 10
-0.282989
 20
0.265229
 30
0.0
 40
0.02066
 50
204.386840999998
 51
324.320006999998
  0
ARC
  8
6
  6
CONTINUOUS
 62
6
 10
-0.2544
 20
0.27275
 30
0.0
 40
0.050049
 50
161.294128
 51
198.705872
  0
ARC
  8
6
  6
CONTINUOUS
 62
6
 10
-0.282989
 20
0.28027
 30
0.0
 40
0.02066
 50
35.6800309999996
 51
155.613174
  0
LINE
  8
6
  6
CONTINUOUS
 62
6
 10
-0.260589
 20
0.30093
 30
0.0
 11
-0.260589
 21
0.244751
 31
0.0
  0
LINE
  8
6
  6
CONTINUOUS
 62
6
 10
-0.229169
 20
0.244751
 30
0.0
 11
-0.245615
 21
0.279231
 31
0.0
  0
LINE
  8
6
  6
CONTINUOUS
 62
6
 10
-0.258941
 20
0.266072
 30
0.0
 11
-0.229169
 21
0.30093
 31
0.0
  0
ARC
  8
6
  6
CONTINUOUS
 62
6
 10
-0.391453
 20
-0.280441
 30
0.0
 40
0.02066
 50
204.386840999998
 51
324.320006999998
  0
ARC
  8
6
  6
CONTINUOUS
 62
6
 10
-0.362864
 20
-0.27292
 30
0.0
 40
0.050049
 50
161.294128
 51
198.705872
  0
ARC
  8
6
  6
CONTINUOUS
 62
6
 10
-0.391453
 20
-0.265399
 30
0.0
 40
0.02066
 50
35.6800309999996
 51
155.613174
  0
LINE
  8
6
  6
CONTINUOUS
 62
6
 10
-0.369053
 20
-0.244739
 30
0.0
 11
-0.369053
 21
-0.300918
 31
0.0
  0
LINE
  8
6
  6
CONTINUOUS
 62
6
 10
-0.369053
 20
-0.300918
 30
0.0
 11
-0.336108
 21
-0.300918
 31
0.0
  0
LINE
  8
6
  6
CONTINUOUS
 62
6
 10
-0.326181
 20
-0.300918
 30
0.0
 11
-0.31013
 21
-0.300918
 31
0.0
  0
LINE
  8
6
  6
CONTINUOUS
 62
6
 10
-0.318156
 20
-0.299233
 30
0.0
 11
-0.318156
 21
-0.246424
 31
0.0
  0
LINE
  8
6
  6
CONTINUOUS
 62
6
 10
-0.326181
 20
-0.244739
 30
0.0
 11
-0.310215
 21
-0.244739
 31
0.0
  0
ARC
  8
6
  6
CONTINUOUS
 62
6
 10
-0.282989
 20
-0.280441
 30
0.0
 40
0.02066
 50
204.386840999998
 51
324.320006999998
  0
ARC
  8
6
  6
CONTINUOUS
 62
6
 10
-0.2544
 20
-0.27292
 30
0.0
 40
0.050049
 50
161.294128
 51
198.705872
  0
ARC
  8
6
  6
CONTINUOUS
 62
6
 10
-0.282989
 20
-0.265399
 30
0.0
 40
0.02066
 50
35.6800309999996
 51
155.613174
  0
LINE
  8
6
  6
CONTINUOUS
 62
6
 10
-0.260589
 20
-0.244739
 30
0.0
 11
-0.260589
 21
-0.300918
 31
0.0
  0
LINE
  8
6
  6
CONTINUOUS
 62
6
 10
-0.229169
 20
-0.300918
 30
0.0
 11
-0.245615
 21
-0.266438
 31
0.0
  0
LINE
  8
6
  6
CONTINUOUS
 62
6
 10
-0.258941
 20
-0.279598
 30
0.0
 11
-0.229169
 21
-0.244739
 31
0.0
  0
ARC
  8
6
  6
CONTINUOUS
 62
6
 10
-0.391453
 20
-0.162697
 30
0.0
 40
0.02066
 50
204.386840999998
 51
324.320006999998
  0
ARC
  8
6
  6
CONTINUOUS
 62
6
 10
-0.362864
 20
-0.155176
 30
0.0
 40
0.050049
 50
161.294128
 51
198.705872
  0
ARC
  8
6
  6
CONTINUOUS
 62
6
 10
-0.391453
 20
-0.147655
 30
0.0
 40
0.02066
 50
35.6800309999996
 51
155.613174
  0
LINE
  8
6
  6
CONTINUOUS
 62
6
 10
-0.369053
 20
-0.126995
 30
0.0
 11
-0.369053
 21
-0.183175
 31
0.0
  0
LINE
  8
6
  6
CONTINUOUS
 62
6
 10
-0.369053
 20
-0.183175
 30
0.0
 11
-0.336108
 21
-0.183175
 31
0.0
  0
LINE
  8
6
  6
CONTINUOUS
 62
6
 10
-0.326181
 20
-0.183175
 30
0.0
 11
-0.31013
 21
-0.183175
 31
0.0
  0
LINE
  8
6
  6
CONTINUOUS
 62
6
 10
-0.318156
 20
-0.181489
 30
0.0
 11
-0.318156
 21
-0.128681
 31
0.0
  0
LINE
  8
6
  6
CONTINUOUS
 62
6
 10
-0.326181
 20
-0.126995
 30
0.0
 11
-0.310215
 21
-0.126995
 31
0.0
  0
ARC
  8
6
  6
CONTINUOUS
 62
6
 10
-0.282989
 20
-0.162697
 30
0.0
 40
0.02066
 50
204.386840999998
 51
324.320006999998
  0
ARC
  8
6
  6
CONTINUOUS
 62
6
 10
-0.2544
 20
-0.155176
 30
0.0
 40
0.050049
 50
161.294128
 51
198.705872
  0
ARC
  8
6
  6
CONTINUOUS
 62
6
 10
-0.282989
 20
-0.147655
 30
0.0
 40
0.02066
 50
35.6800309999996
 51
155.613174
  0
LINE
  8
6
  6
CONTINUOUS
 62
6
 10
-0.260589
 20
-0.126995
 30
0.0
 11
-0.260589
 21
-0.183175
 31
0.0
  0
LINE
  8
6
  6
CONTINUOUS
 62
6
 10
-0.229169
 20
-0.183175
 30
0.0
 11
-0.245615
 21
-0.148694
 31
0.0
  0
LINE
  8
6
  6
CONTINUOUS
 62
6
 10
-0.258941
 20
-0.161854
 30
0.0
 11
-0.229169
 21
-0.126995
 31
0.0
  0
LINE
  8
6
  6
CONTINUOUS
 62
6
 10
-0.394956
 20
-0.519186
 30
0.0
 11
-0.394956
 21
-0.464711
 31
0.0
  0
LINE
  8
6
  6
CONTINUOUS
 62
6
 10
-0.412913
 20
-0.463007
 30
0.0
 11
-0.376998
 21
-0.463007
 31
0.0
  0
LINE
  8
6
  6
CONTINUOUS
 62
6
 10
-0.37138
 20
-0.463007
 30
0.0
 11
-0.353689
 21
-0.489639
 31
0.0
  0
LINE
  8
6
  6
CONTINUOUS
 62
6
 10
-0.352721
 20
-0.519186
 30
0.0
 11
-0.352721
 21
-0.491096
 31
0.0
  0
LINE
  8
6
  6
CONTINUOUS
 62
6
 10
-0.352721
 20
-0.491096
 30
0.0
 11
-0.334061
 21
-0.463007
 31
0.0
  0
LINE
  8
6
  6
CONTINUOUS
 62
6
 10
-0.327039
 20
-0.519186
 30
0.0
 11
-0.327039
 21
-0.463007
 31
0.0
  0
LINE
  8
6
  6
CONTINUOUS
 62
6
 10
-0.327039
 20
-0.463007
 30
0.0
 11
-0.306654
 21
-0.463007
 31
0.0
  0
ARC
  8
6
  6
CONTINUOUS
 62
6
 10
-0.307488999019458
 20
-0.477051999941728
 30
0.0
 40
0.01407
 50
273.400996999999
 51
86.5990030000003
  0
LINE
  8
6
  6
CONTINUOUS
 62
6
 10
-0.306654
 20
-0.491096
 30
0.0
 11
-0.326196
 21
-0.491096
 31
0.0
  0
LINE
  8
6
  6
CONTINUOUS
 62
6
 10
-0.253441
 20
-0.519187
 30
0.0
 11
-0.286386
 21
-0.519187
 31
0.0
  0
LINE
  8
6
  6
CONTINUOUS
 62
6
 10
-0.286386
 20
-0.519187
 30
0.0
 11
-0.286406
 21
-0.491097
 31
0.0
  0
LINE
  8
6
  6
CONTINUOUS
 62
6
 10
-0.286406
 20
-0.491097
 30
0.0
 11
-0.260664
 21
-0.491097
 31
0.0
  0
LINE
  8
6
  6
CONTINUOUS
 62
6
 10
-0.286407
 20
-0.490255
 30
0.0
 11
-0.286426
 21
-0.463007
 31
0.0
  0
LINE
  8
6
  6
CONTINUOUS
 62
6
 10
-0.286426
 20
-0.463007
 30
0.0
 11
-0.25625
 21
-0.463007
 31
0.0
  0
LINE
  8
6
  6
CONTINUOUS
 62
6
 10
-0.099399
 20
0.463022
 30
0.0
 11
-0.099399
 21
0.517497
 31
0.0
  0
LINE
  8
6
  6
CONTINUOUS
 62
6
 10
-0.117356
 20
0.519201
 30
0.0
 11
-0.081441
 21
0.519201
 31
0.0
  0
LINE
  8
6
  6
CONTINUOUS
 62
6
 10
-0.075823
 20
0.519201
 30
0.0
 11
-0.075823
 21
0.463022
 31
0.0
  0
LINE
  8
6
  6
CONTINUOUS
 62
6
 10
-0.074138
 20
0.491112
 30
0.0
 11
-0.043464
 21
0.491112
 31
0.0
  0
LINE
  8
6
  6
CONTINUOUS
 62
6
 10
-0.041715
 20
0.463022
 30
0.0
 11
-0.041715
 21
0.519201
 31
0.0
  0
LINE
  8
6
  6
CONTINUOUS
 62
6
 10
-0.002547
 20
0.463021
 30
0.0
 11
-0.035492
 21
0.463021
 31
0.0
  0
LINE
  8
6
  6
CONTINUOUS
 62
6
 10
-0.035492
 20
0.463021
 30
0.0
 11
-0.035512
 21
0.491111
 31
0.0
  0
LINE
  8
6
  6
CONTINUOUS
 62
6
 10
-0.035512
 20
0.491111
 30
0.0
 11
-0.00977
 21
0.491111
 31
0.0
  0
LINE
  8
6
  6
CONTINUOUS
 62
6
 10
-0.035513
 20
0.491953
 30
0.0
 11
-0.035532
 21
0.519201
 31
0.0
  0
LINE
  8
6
  6
CONTINUOUS
 62
6
 10
-0.035532
 20
0.519201
 30
0.0
 11
-0.005356
 21
0.519201
 31
0.0
  0
LINE
  8
6
  6
CONTINUOUS
 62
6
 10
0.001002
 20
0.463022
 30
0.0
 11
0.001002
 21
0.519201
 31
0.0
  0
LINE
  8
6
  6
CONTINUOUS
 62
6
 10
0.001002
 20
0.519201
 30
0.0
 11
0.035498
 21
0.463022
 31
0.0
  0
LINE
  8
6
  6
CONTINUOUS
 62
6
 10
0.035498
 20
0.463022
 30
0.0
 11
0.035498
 21
0.519201
 31
0.0
  0
LINE
  8
6
  6
CONTINUOUS
 62
6
 10
-0.394956
 20
0.572153
 30
0.0
 11
-0.394956
 21
0.626628
 31
0.0
  0
LINE
  8
6
  6
CONTINUOUS
 62
6
 10
-0.412913
 20
0.628332
 30
0.0
 11
-0.376998
 21
0.628332
 31
0.0
  0
LINE
  8
6
  6
CONTINUOUS
 62
6
 10
-0.37138
 20
0.628332
 30
0.0
 11
-0.353689
 21
0.6017
 31
0.0
  0
LINE
  8
6
  6
CONTINUOUS
 62
6
 10
-0.352721
 20
0.572153
 30
0.0
 11
-0.352721
 21
0.600242
 31
0.0
  0
LINE
  8
6
  6
CONTINUOUS
 62
6
 10
-0.352721
 20
0.600242
 30
0.0
 11
-0.334061
 21
0.628332
 31
0.0
  0
LINE
  8
6
  6
CONTINUOUS
 62
6
 10
-0.327039
 20
0.572153
 30
0.0
 11
-0.327039
 21
0.628332
 31
0.0
  0
LINE
  8
6
  6
CONTINUOUS
 62
6
 10
-0.327039
 20
0.628332
 30
0.0
 11
-0.306654
 21
0.628332
 31
0.0
  0
ARC
  8
6
  6
CONTINUOUS
 62
6
 10
-0.307488999019458
 20
0.614287000058272
 30
0.0
 40
0.01407
 50
273.400996999999
 51
86.5990030000003
  0
LINE
  8
6
  6
CONTINUOUS
 62
6
 10
-0.306654
 20
0.600242
 30
0.0
 11
-0.326196
 21
0.600242
 31
0.0
  0
LINE
  8
6
  6
CONTINUOUS
 62
6
 10
-0.253441
 20
0.572152
 30
0.0
 11
-0.286386
 21
0.572152
 31
0.0
  0
LINE
  8
6
  6
CONTINUOUS
 62
6
 10
-0.286386
 20
0.572152
 30
0.0
 11
-0.286406
 21
0.600242
 31
0.0
  0
LINE
  8
6
  6
CONTINUOUS
 62
6
 10
-0.286406
 20
0.600242
 30
0.0
 11
-0.260664
 21
0.600242
 31
0.0
  0
LINE
  8
6
  6
CONTINUOUS
 62
6
 10
-0.286407
 20
0.601084
 30
0.0
 11
-0.286426
 21
0.628331
 31
0.0
  0
LINE
  8
6
  6
CONTINUOUS
 62
6
 10
-0.286426
 20
0.628331
 30
0.0
 11
-0.25625
 21
0.628331
 31
0.0
  0
LINE
  8
6
  6
CONTINUOUS
 62
6
 10
-0.394956
 20
0.135617
 30
0.0
 11
-0.394956
 21
0.190092
 31
0.0
  0
LINE
  8
6
  6
CONTINUOUS
 62
6
 10
-0.412913
 20
0.191796
 30
0.0
 11
-0.376998
 21
0.191796
 31
0.0
  0
LINE
  8
6
  6
CONTINUOUS
 62
6
 10
-0.37138
 20
0.191796
 30
0.0
 11
-0.353689
 21
0.165164
 31
0.0
  0
LINE
  8
6
  6
CONTINUOUS
 62
6
 10
-0.352721
 20
0.135617
 30
0.0
 11
-0.352721
 21
0.163707
 31
0.0
  0
LINE
  8
6
  6
CONTINUOUS
 62
6
 10
-0.352721
 20
0.163707
 30
0.0
 11
-0.334061
 21
0.191796
 31
0.0
  0
LINE
  8
6
  6
CONTINUOUS
 62
6
 10
-0.327039
 20
0.135617
 30
0.0
 11
-0.327039
 21
0.191796
 31
0.0
  0
LINE
  8
6
  6
CONTINUOUS
 62
6
 10
-0.327039
 20
0.191796
 30
0.0
 11
-0.306654
 21
0.191796
 31
0.0
  0
ARC
  8
6
  6
CONTINUOUS
 62
6
 10
-0.307488999019458
 20
0.177752000058272
 30
0.0
 40
0.01407
 50
273.400996999999
 51
86.5990030000003
  0
LINE
  8
6
  6
CONTINUOUS
 62
6
 10
-0.306654
 20
0.163707
 30
0.0
 11
-0.326196
 21
0.163707
 31
0.0
  0
LINE
  8
6
  6
CONTINUOUS
 62
6
 10
-0.253441
 20
0.135617
 30
0.0
 11
-0.286386
 21
0.135617
 31
0.0
  0
LINE
  8
6
  6
CONTINUOUS
 62
6
 10
-0.286386
 20
0.135617
 30
0.0
 11
-0.286406
 21
0.163706
 31
0.0
  0
LINE
  8
6
  6
CONTINUOUS
 62
6
 10
-0.286406
 20
0.163706
 30
0.0
 11
-0.260664
 21
0.163706
 31
0.0
  0
LINE
  8
6
  6
CONTINUOUS
 62
6
 10
-0.286407
 20
0.164548
 30
0.0
 11
-0.286426
 21
0.191796
 31
0.0
  0
LINE
  8
6
  6
CONTINUOUS
 62
6
 10
-0.286426
 20
0.191796
 30
0.0
 11
-0.25625
 21
0.191796
 31
0.0
  0
LINE
  8
6
  6
CONTINUOUS
 62
6
 10
0.68572
 20
0.890029
 30
0.0
 11
0.68572
 21
1.029892
 31
0.0
  0
LINE
  8
6
  6
CONTINUOUS
 62
6
 10
0.399662
 20
0.890029
 30
0.0
 11
0.399662
 21
1.071769
 31
0.0
  0
LINE
  8
6
  6
CONTINUOUS
 62
6
 10
0.231447
 20
0.890029
 30
0.0
 11
0.239883
 21
0.929263
 31
0.0
  0
LINE
  8
6
  6
CONTINUOUS
 62
6
 10
-0.046108
 20
1.011065
 30
0.0
 11
-0.046108
 21
1.070592
 31
0.0
  0
LINE
  8
6
  6
CONTINUOUS
 62
6
 10
-0.046108
 20
0.890029
 30
0.0
 11
-0.046108
 21
0.975506
 31
0.0
  0
ARC
  8
6
  6
CONTINUOUS
 62
6
 10
-0.0140429999999991
 20
1.045752
 30
0.0
 40
0.0603990000000001
 50
308.383117999999
 51
314.999999999999
  0
LINE
  8
6
  6
CONTINUOUS
 62
6
 10
-0.164069
 20
0.914567
 30
0.0
 11
-0.164069
 21
0.978339
 31
0.0
  0
LINE
  8
6
  6
CONTINUOUS
 62
6
 10
-0.164069
 20
1.012718
 30
0.0
 11
-0.164069
 21
1.071769
 31
0.0
  0
LINE
  8
6
  6
CONTINUOUS
 62
6
 10
-0.467943
 20
0.890029
 30
0.0
 11
-0.467943
 21
1.029892
 31
0.0
  0
ARC
  8
6
  6
CONTINUOUS
 62
6
 10
-0.710667999999998
 20
0.948284000000001
 30
0.0
 40
0.0582379999999999
 50
308.136443999998
 51
314.999999999998
  0
ARC
  8
6
  6
CONTINUOUS
 62
6
 10
0.124746
 20
1.047912
 30
0.0
 40
0.030675
 50
179.999999999999
 51
359.999999999999
  0
ARC
  8
6
  6
CONTINUOUS
 62
6
 10
0.124746
 20
1.047912
 30
0.0
 40
0.030675
 50
359.999999999999
 51
180
  0
ARC
  8
6
  6
CONTINUOUS
 62
6
 10
0.124745000000001
 20
0.948284000000001
 30
0.0
 40
0.0582379999999999
 50
308.136443999998
 51
314.999999999998
  0
ARC
  8
6
  6
CONTINUOUS
 62
6
 10
0.579022
 20
1.047912
 30
0.0
 40
0.030675
 50
179.999999999999
 51
359.999999999999
  0
ARC
  8
6
  6
CONTINUOUS
 62
6
 10
0.579022
 20
1.047912
 30
0.0
 40
0.030675
 50
359.999999999999
 51
180
  0
ARC
  8
6
  6
CONTINUOUS
 62
6
 10
0.579021000000002
 20
0.948284000000001
 30
0.0
 40
0.0582379999999999
 50
308.136474999998
 51
314.999999999998
  0
ARC
  8
6
  6
CONTINUOUS
 62
6
 10
-0.574642999999998
 20
0.948284000000001
 30
0.0
 40
0.0582379999999999
 50
308.136474999998
 51
314.999999999998
  0
ARC
  8
6
  6
CONTINUOUS
 62
6
 10
-0.710667999999999
 20
0.948284000000001
 30
0.0
 40
0.0582380000000001
 50
314.999999999998
 51
359.999999999998
  0
ARC
  8
6
  6
CONTINUOUS
 62
6
 10
-0.574643
 20
0.948284000000001
 30
0.0
 40
0.0582380000000001
 50
314.999999999998
 51
359.999999999998
  0
ARC
  8
6
  6
CONTINUOUS
 62
6
 10
-0.0140429999999992
 20
1.045752
 30
0.0
 40
0.0603990000000001
 50
314.999999999998
 51
90.0003049999996
  0
ARC
  8
6
  6
CONTINUOUS
 62
6
 10
0.124745
 20
1.047912
 30
0.0
 40
0.0582379999999999
 50
141.863524999999
 51
321.863524999998
  0
ARC
  8
6
  6
CONTINUOUS
 62
6
 10
0.124745
 20
1.047912
 30
0.0
 40
0.0582379999999999
 50
321.863524999998
 51
141.863525
  0
ARC
  8
6
  6
CONTINUOUS
 62
6
 10
0.579021000000001
 20
0.948284000000001
 30
0.0
 40
0.0582380000000001
 50
314.999999999998
 51
359.999999999998
  0
ARC
  8
6
  6
CONTINUOUS
 62
6
 10
0.579021
 20
1.047912
 30
0.0
 40
0.0582379999999999
 50
141.863524999999
 51
321.863524999998
  0
ARC
  8
6
  6
CONTINUOUS
 62
6
 10
0.579021000000001
 20
1.047912
 30
0.0
 40
0.0582379999999999
 50
321.863524999998
 51
141.863525
  0
ARC
  8
6
  6
CONTINUOUS
 62
6
 10
-0.710667
 20
0.948284
 30
0.0
 40
0.030675
 50
180
 51
301.886199999998
  0
ARC
  8
6
  6
CONTINUOUS
 62
6
 10
-0.710668
 20
1.047912
 30
0.0
 40
0.0582379999999997
 50
359.999999999999
 51
141.863525
  0
ARC
  8
6
  6
CONTINUOUS
 62
6
 10
-0.710667
 20
1.047912
 30
0.0
 40
0.0306749999999997
 50
148.110839274792
 51
180
  0
ARC
  8
6
  6
CONTINUOUS
 62
6
 10
-0.574643
 20
1.047912
 30
0.0
 40
0.0582379999999999
 50
359.999999999999
 51
141.863525
  0
ARC
  8
6
  6
CONTINUOUS
 62
6
 10
-0.574642
 20
1.047912
 30
0.0
 40
0.0306749999999997
 50
148.113071828411
 51
180
  0
ARC
  8
6
  6
CONTINUOUS
 62
6
 10
-0.574642
 20
0.948284
 30
0.0
 40
0.0306749999999999
 50
179.999999999999
 51
301.886168999998
  0
ARC
  8
9
  6
CONTINUOUS
 62
9
 10
0.30354
 20
-0.284718
 30
0.0
 40
0.016195
 50
210.522002999999
 51
269.441070999999
  0
LINE
  8
9
  6
CONTINUOUS
 62
9
 10
0.309107
 20
-0.300967
 30
0.0
 11
0.303382
 21
-0.300911
 31
0.0
  0
ARC
  8
9
  6
CONTINUOUS
 62
9
 10
0.309251
 20
-0.286184
 30
0.0
 40
0.014784
 50
269.441071
 51
357.350676999999
  0
ARC
  8
9
  6
CONTINUOUS
 62
9
 10
0.311994
 20
-0.287958
 30
0.0
 40
0.012075
 50
5.18227199999961
 51
59.3448299999996
  0
LINE
  8
9
  6
CONTINUOUS
 62
9
 10
0.29604
 20
-0.268074
 30
0.0
 11
0.31815
 21
-0.277571
 31
0.0
  0
ARC
  8
9
  6
CONTINUOUS
 62
9
 10
0.302197
 20
-0.257687
 30
0.0
 40
0.012075
 50
185.182403999998
 51
239.344802999998
  0
ARC
  8
9
  6
CONTINUOUS
 62
9
 10
0.30488
 20
-0.259422
 30
0.0
 40
0.014723
 50
91.2613449999996
 51
177.491959
  0
LINE
  8
9
  6
CONTINUOUS
 62
9
 10
0.310267
 20
-0.244697
 30
0.0
 11
0.304556
 21
-0.244703
 31
0.0
  0
ARC
  8
9
  6
CONTINUOUS
 62
9
 10
0.309757
 20
-0.260371
 30
0.0
 40
0.015682
 50
29.2717089999995
 51
88.1361469999995
  0
LINE
  8
9
  6
CONTINUOUS
 62
9
 10
0.333634
 20
-0.300878
 30
0.0
 11
0.333634
 21
-0.244699
 31
0.0
  0
LINE
  8
9
  6
CONTINUOUS
 62
9
 10
0.365993
 20
-0.272789
 30
0.0
 11
0.335319
 21
-0.272789
 31
0.0
  0
LINE
  8
9
  6
CONTINUOUS
 62
9
 10
0.367742
 20
-0.244699
 30
0.0
 11
0.367742
 21
-0.300878
 31
0.0
  0
LINE
  8
9
  6
CONTINUOUS
 62
9
 10
0.394428
 20
-0.244699
 30
0.0
 11
0.37336
 21
-0.300878
 31
0.0
  0
LINE
  8
9
  6
CONTINUOUS
 62
9
 10
0.415495
 20
-0.300878
 30
0.0
 11
0.394428
 21
-0.244699
 31
0.0
  0
LINE
  8
9
  6
CONTINUOUS
 62
9
 10
0.409295
 20
-0.28884
 30
0.0
 11
0.37956
 21
-0.28884
 31
0.0
  0
LINE
  8
9
  6
CONTINUOUS
 62
9
 10
0.422517
 20
-0.244699
 30
0.0
 11
0.422517
 21
-0.300878
 31
0.0
  0
LINE
  8
9
  6
CONTINUOUS
 62
9
 10
0.442902
 20
-0.244699
 30
0.0
 11
0.422517
 21
-0.244699
 31
0.0
  0
ARC
  8
9
  6
CONTINUOUS
 62
9
 10
0.442068000980542
 20
-0.258743999941728
 30
0.0
 40
0.01407
 50
273.400996999999
 51
86.5990030000003
  0
LINE
  8
9
  6
CONTINUOUS
 62
9
 10
0.42336
 20
-0.272789
 30
0.0
 11
0.442902
 21
-0.272789
 31
0.0
  0
LINE
  8
9
  6
CONTINUOUS
 62
9
 10
0.46317
 20
-0.300879
 30
0.0
 11
0.496115
 21
-0.300879
 31
0.0
  0
LINE
  8
9
  6
CONTINUOUS
 62
9
 10
0.46315
 20
-0.272789
 30
0.0
 11
0.46317
 21
-0.300879
 31
0.0
  0
LINE
  8
9
  6
CONTINUOUS
 62
9
 10
0.488892
 20
-0.272789
 30
0.0
 11
0.46315
 21
-0.272789
 31
0.0
  0
LINE
  8
9
  6
CONTINUOUS
 62
9
 10
0.46313
 20
-0.2447
 30
0.0
 11
0.463149
 21
-0.271947
 31
0.0
  0
LINE
  8
9
  6
CONTINUOUS
 62
9
 10
0.493306
 20
-0.2447
 30
0.0
 11
0.46313
 21
-0.2447
 31
0.0
  0
LINE
  8
9
  6
CONTINUOUS
 62
9
 10
-0.167797
 20
-0.272794
 30
0.0
 11
-0.188111
 21
-0.272794
 31
0.0
  0
ARC
  8
9
  6
CONTINUOUS
 62
9
 10
-0.167801
 20
-0.286856
 30
0.0
 40
0.014062
 50
269.999999999998
 51
89.9818799999996
  0
LINE
  8
9
  6
CONTINUOUS
 62
9
 10
-0.189799
 20
-0.300918
 30
0.0
 11
-0.167801
 21
-0.300918
 31
0.0
  0
LINE
  8
9
  6
CONTINUOUS
 62
9
 10
-0.189799
 20
-0.244739
 30
0.0
 11
-0.189799
 21
-0.300918
 31
0.0
  0
LINE
  8
9
  6
CONTINUOUS
 62
9
 10
-0.170312
 20
-0.244739
 30
0.0
 11
-0.189799
 21
-0.244739
 31
0.0
  0
ARC
  8
9
  6
CONTINUOUS
 62
9
 10
-0.170425
 20
-0.258858
 30
0.0
 40
0.014119
 50
296.191832999998
 51
89.5439989999995
  0
LINE
  8
9
  6
CONTINUOUS
 62
9
 10
-0.128934
 20
-0.300988
 30
0.0
 11
-0.145006
 21
-0.300988
 31
0.0
  0
LINE
  8
9
  6
CONTINUOUS
 62
9
 10
-0.13697
 20
-0.246427
 30
0.0
 11
-0.13697
 21
-0.299301
 31
0.0
  0
LINE
  8
9
  6
CONTINUOUS
 62
9
 10
-0.129019
 20
-0.244739
 30
0.0
 11
-0.145006
 21
-0.244739
 31
0.0
  0
LINE
  8
9
  6
CONTINUOUS
 62
9
 10
-0.083315
 20
-0.276119
 30
0.0
 11
-0.10705
 21
-0.276119
 31
0.0
  0
ARC
  8
9
  6
CONTINUOUS
 62
9
 10
-0.083315
 20
-0.277806
 30
0.0
 40
0.00168700000000001
 50
359.999999999998
 51
89.9999999999993
  0
LINE
  8
9
  6
CONTINUOUS
 62
9
 10
-0.081628
 20
-0.282053
 30
0.0
 11
-0.081628
 21
-0.277806
 31
0.0
  0
ARC
  8
9
  6
CONTINUOUS
 62
9
 10
-0.100779
 20
-0.2822
 30
0.0
 40
0.019152
 50
200.855254999998
 51
0.439683999999563
  0
ARC
  8
9
  6
CONTINUOUS
 62
9
 10
-0.0712160000000002
 20
-0.272951
 30
0.0
 40
0.050106
 50
161.293991
 51
198.703979
  0
ARC
  8
9
  6
CONTINUOUS
 62
9
 10
-0.099838
 20
-0.265421
 30
0.0
 40
0.020684
 50
35.6800309999997
 51
155.613174
  0
ARC
  8
9
  6
CONTINUOUS
 62
9
 10
-0.629921
 20
-0.629920999999997
 30
0.0
 40
0.15748
 50
359.999999999998
 51
89.9999999999996
  0
ARC
  8
9
  6
CONTINUOUS
 62
9
 10
-0.629920999999996
 20
0.629921
 30
0.0
 40
0.15748
 50
269.999999999998
 51
359.999999999998
  0
ARC
  8
9
  6
CONTINUOUS
 62
9
 10
0.629921
 20
0.629920999999996
 30
0.0
 40
0.15748
 50
179.999999999998
 51
269.999999999998
  0
LINE
  8
9
  6
CONTINUOUS
 62
9
 10
-0.692913
 20
-0.409449
 30
0.0
 11
-0.692913
 21
0.409449
 31
0.0
  0
LINE
  8
9
  6
CONTINUOUS
 62
9
 10
-0.409449
 20
0.692913
 30
0.0
 11
0.409449
 21
0.692913
 31
0.0
  0
ARC
  8
9
  6
CONTINUOUS
 62
9
 10
0.629921
 20
0.409449000000002
 30
0.0
 40
0.062992
 50
359.999999999998
 51
89.9999999999996
  0
ARC
  8
9
  6
CONTINUOUS
 62
9
 10
0.409449
 20
0.629921000000002
 30
0.0
 40
0.062992
 50
359.999999999998
 51
89.9999999999996
  0
ARC
  8
9
  6
CONTINUOUS
 62
9
 10
-0.409449
 20
0.629921
 30
0.0
 40
0.062992
 50
89.9999999999996
 51
180
  0
ARC
  8
9
  6
CONTINUOUS
 62
9
 10
-0.629921
 20
0.409449
 30
0.0
 40
0.062992
 50
89.9999999999996
 51
180
  0
ARC
  8
9
  6
CONTINUOUS
 62
9
 10
-0.629921
 20
-0.409449000000002
 30
0.0
 40
0.062992
 50
179.999999999998
 51
269.999999999998
  0
ARC
  8
9
  6
CONTINUOUS
 62
9
 10
-0.409449
 20
-0.629921000000002
 30
0.0
 40
0.062992
 50
179.999999999998
 51
269.999999999998
  0
ARC
  8
9
  6
CONTINUOUS
 62
9
 10
0.629920999999998
 20
-0.629921
 30
0.0
 40
0.15748
 50
89.9999999999996
 51
180
  0
ARC
  8
9
  6
CONTINUOUS
 62
9
 10
0.629921000000002
 20
-0.409449
 30
0.0
 40
0.062992
 50
269.999999999998
 51
359.999999999998
  0
ARC
  8
9
  6
CONTINUOUS
 62
9
 10
0.409449000000002
 20
-0.629921
 30
0.0
 40
0.062992
 50
269.999999999998
 51
359.999999999998
  0
LINE
  8
9
  6
CONTINUOUS
 62
9
 10
-0.409449
 20
-0.692913
 30
0.0
 11
0.409449
 21
-0.692913
 31
0.0
  0
LINE
  8
9
  6
CONTINUOUS
 62
9
 10
0.692913
 20
0.409449
 30
0.0
 11
0.692913
 21
-0.409449
 31
0.0
  0
ARC
  8
9
  6
CONTINUOUS
 62
9
 10
-0.00901899999999992
 20
-0.284271
 30
0.0
 40
0.016716
 50
196.004821999998
 51
267.948394999998
  0
ARC
  8
9
  6
CONTINUOUS
 62
9
 10
0.022319
 20
-0.272829
 30
0.0
 40
0.050049
 50
161.294113
 51
198.705887
  0
ARC
  8
9
  6
CONTINUOUS
 62
9
 10
-0.00901900000000004
 20
-0.261424
 30
0.0
 40
0.016726
 50
16.1288889999996
 51
163.872177
  0
ARC
  8
9
  6
CONTINUOUS
 62
9
 10
-0.0403559991595441
 20
-0.27282899751787
 30
0.0
 40
0.050049
 50
341.293758999999
 51
18.7062410000003
  0
ARC
  8
9
  6
CONTINUOUS
 62
9
 10
-0.00901899999999966
 20
-0.284271
 30
0.0
 40
0.016716
 50
272.763976999998
 51
343.994109999999
  0
LINE
  8
9
  6
CONTINUOUS
 62
9
 10
0.019283
 20
-0.244699
 30
0.0
 11
0.019283
 21
-0.300878
 31
0.0
  0
LINE
  8
9
  6
CONTINUOUS
 62
9
 10
0.039668
 20
-0.244699
 30
0.0
 11
0.019283
 21
-0.244699
 31
0.0
  0
ARC
  8
9
  6
CONTINUOUS
 62
9
 10
0.0393970000000002
 20
-0.258744
 30
0.0
 40
0.014047
 50
271.095275999998
 51
88.8959199999996
  0
LINE
  8
9
  6
CONTINUOUS
 62
9
 10
0.021127
 20
-0.272789
 30
0.0
 11
0.039666
 21
-0.272789
 31
0.0
  0
LINE
  8
9
  6
CONTINUOUS
 62
9
 10
0.053713
 20
-0.300878
 30
0.0
 11
0.040466
 21
-0.274389
 31
0.0
  0
LINE
  8
9
  6
CONTINUOUS
 62
9
 10
0.080398
 20
-0.244699
 30
0.0
 11
0.059331
 21
-0.300878
 31
0.0
  0
LINE
  8
9
  6
CONTINUOUS
 62
9
 10
0.101465
 20
-0.300878
 30
0.0
 11
0.080398
 21
-0.244699
 31
0.0
  0
LINE
  8
9
  6
CONTINUOUS
 62
9
 10
0.095265
 20
-0.28884
 30
0.0
 11
0.065531
 21
-0.28884
 31
0.0
  0
LINE
  8
9
  6
CONTINUOUS
 62
9
 10
0.107822
 20
-0.244699
 30
0.0
 11
0.107822
 21
-0.300878
 31
0.0
  0
LINE
  8
9
  6
CONTINUOUS
 62
9
 10
0.142319
 20
-0.300878
 30
0.0
 11
0.107822
 21
-0.244699
 31
0.0
  0
LINE
  8
9
  6
CONTINUOUS
 62
9
 10
0.142319
 20
-0.244699
 30
0.0
 11
0.142319
 21
-0.300878
 31
0.0
  0
LINE
  8
9
  6
CONTINUOUS
 62
9
 10
0.187818
 20
-0.27604
 30
0.0
 11
0.164113
 21
-0.27604
 31
0.0
  0
ARC
  8
9
  6
CONTINUOUS
 62
9
 10
0.187818
 20
-0.277725
 30
0.0
 40
0.00168500000000001
 50
359.999999999998
 51
89.9999999999993
  0
LINE
  8
9
  6
CONTINUOUS
 62
9
 10
0.189503
 20
-0.281967
 30
0.0
 11
0.189503
 21
-0.277725
 31
0.0
  0
ARC
  8
9
  6
CONTINUOUS
 62
9
 10
0.170376
 20
-0.282114
 30
0.0
 40
0.019128
 50
200.855254999998
 51
0.439683999999614
  0
ARC
  8
9
  6
CONTINUOUS
 62
9
 10
0.199902
 20
-0.272876
 30
0.0
 40
0.050044
 50
161.293991
 51
198.703979
  0
ARC
  8
9
  6
CONTINUOUS
 62
9
 10
0.171316
 20
-0.265356
 30
0.0
 40
0.020658
 50
35.6800309999995
 51
155.613174
  0
LINE
  8
9
  6
CONTINUOUS
 62
9
 10
0.195968
 20
-0.300879
 30
0.0
 11
0.228913
 21
-0.300879
 31
0.0
  0
LINE
  8
9
  6
CONTINUOUS
 62
9
 10
0.195948
 20
-0.272789
 30
0.0
 11
0.195968
 21
-0.300879
 31
0.0
  0
LINE
  8
9
  6
CONTINUOUS
 62
9
 10
0.22169
 20
-0.272789
 30
0.0
 11
0.195948
 21
-0.272789
 31
0.0
  0
LINE
  8
9
  6
CONTINUOUS
 62
9
 10
0.195928
 20
-0.2447
 30
0.0
 11
0.195947
 21
-0.271947
 31
0.0
  0
LINE
  8
9
  6
CONTINUOUS
 62
9
 10
0.226104
 20
-0.2447
 30
0.0
 11
0.195928
 21
-0.2447
 31
0.0
  0
ENDSEC
  0
EOF
