  0
SECTION
  2
HEADER
  9
$ACADVER
  1
AC1003
  9
$EXTMIN
 10
-1.17334449098755
 20
0.866141731800007
  9
$EXTMAX
 10
0.866141731800008
 20
-0.866141731799999
  9
$INSUNITS
 70
1
  9
$INSBASE
 10
-0.153601379593769
 20
4.32986979603811E-15
999
Created with OMAX LAYOUT for Windows. (www.omax.com) 1/5/2024
  0
ENDSEC
  0
SECTION
  2
TABLES
  0
TABLE
  2
LAYER
 70
    10
  0
LAYER
  2
0
 70
     0
 62
     7
  6
CONTINUOUS
  0
LAYER
  2
1
 70
     0
 62
     7
  6
CONTINUOUS
  0
LAYER
  2
2
 70
     0
 62
     7
  6
CONTINUOUS
  0
LAYER
  2
3
 70
     0
 62
     7
  6
CONTINUOUS
  0
LAYER
  2
4
 70
     0
 62
     7
  6
CONTINUOUS
  0
LAYER
  2
5
 70
     0
 62
     7
  6
CONTINUOUS
  0
LAYER
  2
6
 70
     0
 62
     7
  6
CONTINUOUS
  0
LAYER
  2
7
 70
     0
 62
     7
  6
CONTINUOUS
  0
LAYER
  2
8
 70
     0
 62
     7
  6
CONTINUOUS
  0
LAYER
  2
9
 70
     0
 62
     7
  6
CONTINUOUS
  0
LAYER
  2
10
 70
     0
 62
     7
  6
CONTINUOUS
  0
LAYER
  2
11
 70
     0
 62
     7
  6
CONTINUOUS
  0
LAYER
  2
12
 70
     0
 62
     7
  6
CONTINUOUS
  0
LAYER
  2
13
 70
     0
 62
     7
  6
CONTINUOUS
  0
LAYER
  2
14
 70
     0
 62
     7
  6
CONTINUOUS
  0
LAYER
  2
15
 70
     0
 62
     7
  6
CONTINUOUS
  0
LAYER
  2
16
 70
     0
 62
     7
  6
CONTINUOUS
  0
LAYER
  2
17
 70
     0
 62
     7
  6
CONTINUOUS
  0
LAYER
  2
18
 70
     0
 62
     7
  6
CONTINUOUS
  0
LAYER
  2
19
 70
     0
 62
     7
  6
CONTINUOUS
  0
LAYER
  2
20
 70
     0
 62
     7
  6
CONTINUOUS
  0
LAYER
  2
21
 70
     0
 62
     7
  6
CONTINUOUS
  0
LAYER
  2
22
 70
     0
 62
     7
  6
CONTINUOUS
  0
LAYER
  2
23
 70
     0
 62
     7
  6
CONTINUOUS
  0
LAYER
  2
24
 70
     0
 62
     7
  6
CONTINUOUS
  0
LAYER
  2
25
 70
     0
 62
     7
  6
CONTINUOUS
  0
LAYER
  2
26
 70
     0
 62
     7
  6
CONTINUOUS
  0
LAYER
  2
27
 70
     0
 62
     7
  6
CONTINUOUS
  0
LAYER
  2
28
 70
     0
 62
     7
  6
CONTINUOUS
  0
LAYER
  2
29
 70
     0
 62
     7
  6
CONTINUOUS
  0
LAYER
  2
30
 70
     0
 62
     7
  6
CONTINUOUS
  0
LAYER
  2
31
 70
     0
 62
     7
  6
CONTINUOUS
  0
ENDTAB
  0
ENDSEC
  0
SECTION
  2
ENTITIES
  0
LINE
  8
1
  6
CONTINUOUS
 62
1
 10
-1.09460433398609
 20
-0.417799108004502
 30
0.0
 11
-0.911614636597696
 21
-0.417799108004502
 31
0.0
  0
LINE
  8
1
  6
CONTINUOUS
 62
1
 10
-1.09460433398609
 20
-0.389935515656742
 30
0.0
 11
-1.09460433398609
 21
-0.417799108004502
 31
0.0
  0
LINE
  8
1
  6
CONTINUOUS
 62
1
 10
-0.8818897636
 20
-0.389935515656742
 30
0.0
 11
-1.09460433398609
 21
-0.389935515656742
 31
0.0
  0
LINE
  8
1
  6
CONTINUOUS
 62
1
 10
-0.8818897636
 20
-0.435450665361684
 30
0.0
 11
-0.8818897636
 21
-0.389935515656742
 31
0.0
  0
LINE
  8
1
  6
CONTINUOUS
 62
1
 10
-1.06023453614122
 20
-0.491183805588731
 30
0.0
 11
-0.8818897636
 21
-0.435450665361684
 31
0.0
  0
LINE
  8
1
  6
CONTINUOUS
 62
1
 10
-0.8818897636
 20
-0.491183805588731
 30
0.0
 11
-1.06023453614122
 21
-0.491183805588731
 31
0.0
  0
LINE
  8
1
  6
CONTINUOUS
 62
1
 10
-0.8818897636
 20
-0.519049312214483
 30
0.0
 11
-0.8818897636
 21
-0.491183805588731
 31
0.0
  0
LINE
  8
1
  6
CONTINUOUS
 62
1
 10
-1.09460433398609
 20
-0.519049312214483
 30
0.0
 11
-0.8818897636
 21
-0.519049312214483
 31
0.0
  0
LINE
  8
1
  6
CONTINUOUS
 62
1
 10
-1.09460433398609
 20
-0.473534162509541
 30
0.0
 11
-1.09460433398609
 21
-0.519049312214483
 31
0.0
  0
LINE
  8
1
  6
CONTINUOUS
 62
1
 10
-0.911614636597696
 20
-0.417799108004502
 30
0.0
 11
-1.09460433398609
 21
-0.473534162509541
 31
0.0
  0
LINE
  8
1
  6
CONTINUOUS
 62
1
 10
-0.939226643388592
 20
-0.760272586631375
 30
0.0
 11
-1.03728447000186
 21
-0.760272586631375
 31
0.0
  0
ARC
  8
1
  6
CONTINUOUS
 62
1
 10
-0.939226643388592
 20
-0.730081232246273
 30
0.0
 40
0.0301913543851022
 50
270
 51
90
  0
LINE
  8
1
  6
CONTINUOUS
 62
1
 10
-0.939226643388592
 20
-0.672762644447373
 30
0.0
 11
-0.939226643388592
 21
-0.699889877861171
 31
0.0
  0
ARC
  8
1
  6
CONTINUOUS
 62
1
 10
-0.939226643388592
 20
-0.730082189385268
 30
0.0
 40
0.0573195449378958
 50
269.999999999999
 51
90.0000000000007
  0
LINE
  8
1
  6
CONTINUOUS
 62
1
 10
-1.03728447000186
 20
-0.78740152162561
 30
0.0
 11
-0.939226643388592
 21
-0.787401734323164
 31
0.0
  0
ARC
  8
1
  6
CONTINUOUS
 62
1
 10
-1.03728447000186
 20
-0.730081870338937
 30
0.0
 40
0.0573196512866732
 50
90
 51
270
  0
LINE
  8
1
  6
CONTINUOUS
 62
1
 10
-1.03728447000186
 20
-0.699889877861171
 30
0.0
 11
-1.03728447000186
 21
-0.672762219052263
 31
0.0
  0
ARC
  8
1
  6
CONTINUOUS
 62
1
 10
-1.03728447000186
 20
-0.730081232246273
 30
0.0
 40
0.0301913543851022
 50
90.0000000000002
 51
270
  0
LINE
  8
1
  6
CONTINUOUS
 62
1
 10
-1.03728447000186
 20
-0.566009316407699
 30
0.0
 11
-0.939226643388592
 21
-0.566009529105253
 31
0.0
  0
ARC
  8
1
  6
CONTINUOUS
 62
1
 10
-1.03728447000186
 20
-0.596200564444023
 30
0.0
 40
0.0301912480363251
 50
90
 51
270
  0
LINE
  8
1
  6
CONTINUOUS
 62
1
 10
-0.939226643388592
 20
-0.626391812480349
 30
0.0
 11
-1.03728447000186
 21
-0.626391812480349
 31
0.0
  0
ARC
  8
1
  6
CONTINUOUS
 62
1
 10
-0.939226280954976
 20
-0.596200228978182
 30
0.0
 40
0.0301915835043425
 50
269.99931219517
 51
345.521838354123
  0
LINE
  8
1
  6
CONTINUOUS
 62
1
 10
-0.882404491682088
 20
-0.603748456214687
 30
0.0
 11
-0.90999349148688
 21
-0.603748456214687
 31
0.0
  0
ARC
  8
1
  6
CONTINUOUS
 62
1
 10
-0.939225842188767
 20
-0.596200476277725
 30
0.0
 40
0.0573204839000117
 50
269.999199145474
 51
352.433297341485
  0
LINE
  8
1
  6
CONTINUOUS
 62
1
 10
-1.03728447000186
 20
-0.653521172869692
 30
0.0
 11
-0.939226643388592
 21
-0.653520960172138
 31
0.0
  0
ARC
  8
1
  6
CONTINUOUS
 62
1
 10
-1.03728447000186
 20
-0.596201415234242
 30
0.0
 40
0.0573197576354503
 50
90
 51
270
  0
LINE
  8
1
  6
CONTINUOUS
 62
1
 10
-0.939226643388592
 20
-0.538881657598791
 30
0.0
 11
-1.03728447000186
 21
-0.538881657598791
 31
0.0
  0
ARC
  8
1
  6
CONTINUOUS
 62
1
 10
-0.939225745594408
 20
-0.59620225703168
 30
0.0
 40
0.05732059943992
 50
7.5683051343443
 51
90.0008974054398
  0
LINE
  8
1
  6
CONTINUOUS
 62
1
 10
-0.90999349148688
 20
-0.588652672673359
 30
0.0
 11
-0.882404491682088
 21
-0.588652672673359
 31
0.0
  0
ARC
  8
1
  6
CONTINUOUS
 62
1
 10
-0.939226116630032
 20
-0.59620097136273
 30
0.0
 40
0.0301914422620729
 50
14.478370904535
 51
90.0009996555307
  0
LINE
  8
2
  6
CONTINUOUS
 62
2
 10
-1.09460433398609
 20
-0.270118303814655
 30
0.0
 11
-0.914402298834256
 21
-0.304022276369057
 31
0.0
  0
LINE
  8
2
  6
CONTINUOUS
 62
2
 10
-1.09460433398609
 20
-0.241322032690055
 30
0.0
 11
-1.09460433398609
 21
-0.270118303814655
 31
0.0
  0
LINE
  8
2
  6
CONTINUOUS
 62
2
 10
-0.8818897636
 20
-0.287766883406076
 30
0.0
 11
-1.09460433398609
 21
-0.241322032690055
 31
0.0
  0
LINE
  8
2
  6
CONTINUOUS
 62
2
 10
-0.8818897636
 20
-0.323992892809769
 30
0.0
 11
-0.8818897636
 21
-0.287766883406076
 31
0.0
  0
LINE
  8
2
  6
CONTINUOUS
 62
2
 10
-1.09460433398609
 20
-0.369508680607377
 30
0.0
 11
-0.8818897636
 21
-0.323992892809769
 31
0.0
  0
LINE
  8
2
  6
CONTINUOUS
 62
2
 10
-1.09460433398609
 20
-0.338854709041057
 30
0.0
 11
-1.09460433398609
 21
-0.369508680607377
 31
0.0
  0
LINE
  8
2
  6
CONTINUOUS
 62
2
 10
-0.914402298834256
 20
-0.304022276369057
 30
0.0
 11
-1.09460433398609
 21
-0.338854709041057
 31
0.0
  0
LINE
  8
2
  6
CONTINUOUS
 62
2
 10
-1.00264454626268
 20
-0.192100202701419
 30
0.0
 11
-1.07045252666333
 21
-0.192100202701419
 31
0.0
  0
LINE
  8
2
  6
CONTINUOUS
 62
2
 10
-1.00264454626268
 20
-0.128936473405059
 30
0.0
 11
-1.00264454626268
 21
-0.192100202701419
 31
0.0
  0
LINE
  8
2
  6
CONTINUOUS
 62
2
 10
-0.978494865915472
 20
-0.128936473405059
 30
0.0
 11
-1.00264454626268
 21
-0.128936473405059
 31
0.0
  0
LINE
  8
2
  6
CONTINUOUS
 62
2
 10
-0.978494865915472
 20
-0.192100202701419
 30
0.0
 11
-0.978494865915472
 21
-0.128936473405059
 31
0.0
  0
LINE
  8
2
  6
CONTINUOUS
 62
2
 10
-0.906041570922752
 20
-0.192100202701419
 30
0.0
 11
-0.978494865915472
 21
-0.192100202701419
 31
0.0
  0
LINE
  8
2
  6
CONTINUOUS
 62
2
 10
-0.906041570922752
 20
-0.123362946684798
 30
0.0
 11
-0.906041570922752
 21
-0.192100202701419
 31
0.0
  0
LINE
  8
2
  6
CONTINUOUS
 62
2
 10
-0.8818897636
 20
-0.123362946684798
 30
0.0
 11
-0.906041570922752
 21
-0.123362946684798
 31
0.0
  0
LINE
  8
2
  6
CONTINUOUS
 62
2
 10
-0.8818897636
 20
-0.220896048430907
 30
0.0
 11
-0.8818897636
 21
-0.123362946684798
 31
0.0
  0
LINE
  8
2
  6
CONTINUOUS
 62
2
 10
-1.09460433398609
 20
-0.220896048430907
 30
0.0
 11
-0.8818897636
 21
-0.220896048430907
 31
0.0
  0
LINE
  8
2
  6
CONTINUOUS
 62
2
 10
-1.09460433398609
 20
-0.125221072521623
 30
0.0
 11
-1.09460433398609
 21
-0.220896048430907
 31
0.0
  0
LINE
  8
2
  6
CONTINUOUS
 62
2
 10
-1.07045252666333
 20
-0.125221072521623
 30
0.0
 11
-1.09460433398609
 21
-0.125221072521623
 31
0.0
  0
LINE
  8
2
  6
CONTINUOUS
 62
2
 10
-1.07045252666333
 20
-0.192100202701419
 30
0.0
 11
-1.07045252666333
 21
-0.125221072521623
 31
0.0
  0
LINE
  8
2
  6
CONTINUOUS
 62
2
 10
-1.02632841896535
 20
-0.0759992425329851
 30
0.0
 11
-1.06929332499086
 21
-0.0759992425329851
 31
0.0
  0
LINE
  8
2
  6
CONTINUOUS
 62
2
 10
-1.02632841896535
 20
-0.104794662867367
 30
0.0
 11
-1.02632841896535
 21
-0.0759992425329851
 31
0.0
  0
LINE
  8
2
  6
CONTINUOUS
 62
2
 10
-1.09460433398609
 20
-0.104794662867367
 30
0.0
 11
-1.02632841896535
 21
-0.104794662867367
 31
0.0
  0
LINE
  8
2
  6
CONTINUOUS
 62
2
 10
-1.09460433398609
 20
-0.0444402428719225
 30
0.0
 11
-1.09460433398609
 21
-0.104794662867367
 31
0.0
  0
ARC
  8
2
  6
CONTINUOUS
 62
2
 10
-1.03515793686788
 20
-0.0444399052940845
 30
0.0
 40
0.0594463971191626
 50
32.8552603471068
 51
180.00032536514
  0
ARC
  8
2
  6
CONTINUOUS
 62
2
 10
-0.945071750429768
 20
-0.0511548379050076
 30
0.0
 40
0.0559485282379974
 50
98.6165201815965
 51
135.856609805123
  0
LINE
  8
2
  6
CONTINUOUS
 62
2
 10
-0.8818897636
 20
0.0150072347507857
 30
0.0
 11
-0.953453982814568
 21
0.00416221183777317
 31
0.0
  0
LINE
  8
2
  6
CONTINUOUS
 62
2
 10
-0.8818897636
 20
-0.0103014345713384
 30
0.0
 11
-0.8818897636
 21
0.0150072347507857
 31
0.0
  0
LINE
  8
2
  6
CONTINUOUS
 62
2
 10
-0.949787076973576
 20
-0.0208795220533508
 30
0.0
 11
-0.8818897636
 21
-0.0103014345713384
 31
0.0
  0
ARC
  8
2
  6
CONTINUOUS
 62
2
 10
-0.94507011700648
 20
-0.0511526542183565
 30
0.0
 40
0.0306384112253082
 50
98.8562389430187
 51
180.007764564469
  0
LINE
  8
2
  6
CONTINUOUS
 62
2
 10
-0.975706400974904
 20
-0.0759992425329851
 30
0.0
 11
-0.975708527950448
 21
-0.0511568062505041
 31
0.0
  0
LINE
  8
2
  6
CONTINUOUS
 62
2
 10
-0.8818897636
 20
-0.0759992425329851
 30
0.0
 11
-0.975706400974904
 21
-0.0759992425329851
 31
0.0
  0
LINE
  8
2
  6
CONTINUOUS
 62
2
 10
-0.8818897636
 20
-0.104794662867367
 30
0.0
 11
-0.8818897636
 21
-0.0759992425329851
 31
0.0
  0
LINE
  8
2
  6
CONTINUOUS
 62
2
 10
-1.00101740997013
 20
-0.104794662867367
 30
0.0
 11
-0.8818897636
 21
-0.104794662867367
 31
0.0
  0
LINE
  8
2
  6
CONTINUOUS
 62
2
 10
-1.00101740997013
 20
-0.0444398174768156
 30
0.0
 11
-1.00101740997013
 21
-0.104794662867367
 31
0.0
  0
ARC
  8
2
  6
CONTINUOUS
 62
2
 10
-1.0351553674805
 20
-0.0444398174768156
 30
0.0
 40
0.0341379575103657
 50
359.999999999999
 51
179.999999999999
  0
LINE
  8
2
  6
CONTINUOUS
 62
2
 10
-1.06929332499086
 20
-0.0759992425329851
 30
0.0
 11
-1.06929332499086
 21
-0.0444398174768156
 31
0.0
  0
ARC
  8
2
  6
CONTINUOUS
 62
2
 10
-0.123195313494974
 20
0.132837511712805
 30
0.0
 40
0.0154764706198128
 50
213.433287883771
 51
270.015999253475
  0
ARC
  8
2
  6
CONTINUOUS
 62
2
 10
-0.121307442552101
 20
0.132935309438128
 30
0.0
 40
0.0156877523454499
 50
263.104148598815
 51
34.0979167513625
  0
ARC
  8
2
  6
CONTINUOUS
 62
2
 10
-0.123689820440542
 20
0.128355194664077
 30
0.0
 40
0.0203768935953579
 50
41.0237111689353
 51
127.558530040726
  0
LINE
  8
2
  6
CONTINUOUS
 62
2
 10
-0.136110995154067
 20
0.144508590942649
 30
0.0
 11
-0.136110995154067
 21
0.166049993759176
 31
0.0
  0
LINE
  8
2
  6
CONTINUOUS
 62
2
 10
-0.136110995154067
 20
0.166049993759176
 30
0.0
 11
-0.106703369291545
 21
0.166049993759176
 31
0.0
  0
ARC
  8
2
  6
CONTINUOUS
 62
2
 10
-0.0881050181057856
 20
0.129425089976159
 30
0.0
 40
0.0119281695920423
 50
199.465441458887
 51
268.514572046554
  0
ARC
  8
2
  6
CONTINUOUS
 62
2
 10
-0.0545107908402779
 20
0.141753815143776
 30
0.0
 40
0.0477125729363416
 50
160.019185139364
 51
199.980814860636
  0
ARC
  8
2
  6
CONTINUOUS
 62
2
 10
-0.0880500184440568
 20
0.154068652921389
 30
0.0
 40
0.0119846545717305
 50
19.4473483225591
 51
160.559582801478
  0
ARC
  8
2
  6
CONTINUOUS
 62
2
 10
-0.121589231601202
 20
0.141753815235357
 30
0.0
 40
0.047712572936338
 50
340.017438400847
 51
19.9825615991529
  0
ARC
  8
2
  6
CONTINUOUS
 62
2
 10
-0.0879560687563767
 20
0.12936041304299
 30
0.0
 40
0.0118699870725749
 50
271.354984375417
 51
340.759261725188
  0
LINE
  8
2
  6
CONTINUOUS
 62
2
 10
-0.115660347302078
 20
-0.260539390585281
 30
0.0
 11
-0.115660347302078
 21
-0.211899390604737
 31
0.0
  0
LINE
  8
2
  6
CONTINUOUS
 62
2
 10
-0.115660347302078
 20
-0.211899390604737
 30
0.0
 11
-0.140848918720574
 21
-0.249074247732724
 31
0.0
  0
LINE
  8
2
  6
CONTINUOUS
 62
2
 10
-0.140848918720574
 20
-0.249074247732724
 30
0.0
 11
-0.108538061590641
 21
-0.249074247732724
 31
0.0
  0
LINE
  8
2
  6
CONTINUOUS
 62
2
 10
-0.103674061590641
 20
-0.211899421161669
 30
0.0
 11
-0.0744900634301182
 21
-0.211899421161669
 31
0.0
  0
ARC
  8
2
  6
CONTINUOUS
 62
2
 10
-0.000691855460399487
 20
-0.26054767951936
 30
0.0
 40
0.0883902061360784
 50
146.60686951312
 51
179.994700000001
  0
ARC
  8
3
  6
CONTINUOUS
 62
3
 10
-1.03728512194365
 20
0.092159123030159
 30
0.0
 40
0.0573184794109999
 50
270.0006516836
 51
333.183935420124
  0
ARC
  8
3
  6
CONTINUOUS
 62
3
 10
-1.03728447000186
 20
0.0921604012583174
 30
0.0
 40
0.0573197576354506
 50
90
 51
270
  0
LINE
  8
3
  6
CONTINUOUS
 62
3
 10
-1.03728447000186
 20
0.122352074689752
 30
0.0
 11
-1.03728447000186
 21
0.149480158893768
 31
0.0
  0
ARC
  8
3
  6
CONTINUOUS
 62
3
 10
-1.03728447000186
 20
0.0921607203046494
 30
0.0
 40
0.0301913543851021
 50
90
 51
270
  0
ARC
  8
3
  6
CONTINUOUS
 62
3
 10
-1.03728365648898
 20
0.092162572775755
 30
0.0
 40
0.0301932068671674
 50
269.998456246976
 51
333.182376586103
  0
LINE
  8
3
  6
CONTINUOUS
 62
3
 10
-0.99038253224104
 20
0.118020914385804
 30
0.0
 11
-1.0103378168119
 21
0.0785408450945636
 31
0.0
  0
ARC
  8
3
  6
CONTINUOUS
 62
3
 10
-0.939228003151664
 20
0.0921596679942104
 30
0.0
 40
0.0573200655205762
 50
89.9986408130521
 51
153.181054524402
  0
ARC
  8
3
  6
CONTINUOUS
 62
3
 10
-0.939226643388592
 20
0.0921602949095406
 30
0.0
 40
0.0573194385891185
 50
269.999999999999
 51
90.0000000000007
  0
LINE
  8
3
  6
CONTINUOUS
 62
3
 10
-0.939226643388592
 20
0.0619691532219925
 30
0.0
 11
-0.939226643388592
 21
0.0348408563204217
 31
0.0
  0
ARC
  8
3
  6
CONTINUOUS
 62
3
 10
-0.939226643388592
 20
0.0921604012583174
 30
0.0
 40
0.030191248036325
 50
270
 51
90
  0
ARC
  8
3
  6
CONTINUOUS
 62
3
 10
-0.939227191710584
 20
0.092160945226859
 30
0.0
 40
0.0301907040727626
 50
89.9989593970415
 51
153.183940738284
  0
LINE
  8
3
  6
CONTINUOUS
 62
3
 10
-0.986130708124952
 20
0.0663011643161586
 30
0.0
 11
-0.966171169603008
 21
0.105780808212289
 31
0.0
  0
LINE
  8
3
  6
CONTINUOUS
 62
3
 10
-1.06766831567386
 20
0.23712239895672
 30
0.0
 11
-0.95434305859272
 21
0.260858789167099
 31
0.0
  0
LINE
  8
3
  6
CONTINUOUS
 62
3
 10
-0.8818897636
 20
0.19718035057693
 30
0.0
 11
-1.06766831567386
 21
0.23712239895672
 31
0.0
  0
LINE
  8
3
  6
CONTINUOUS
 62
3
 10
-0.8818897636
 20
0.169313993160959
 30
0.0
 11
-0.8818897636
 21
0.19718035057693
 31
0.0
  0
LINE
  8
3
  6
CONTINUOUS
 62
3
 10
-1.09460433398609
 20
0.218544756446889
 30
0.0
 11
-0.8818897636
 21
0.169313993160959
 31
0.0
  0
LINE
  8
3
  6
CONTINUOUS
 62
3
 10
-1.09460433398609
 20
0.257557529210713
 30
0.0
 11
-1.09460433398609
 21
0.218544756446889
 31
0.0
  0
LINE
  8
3
  6
CONTINUOUS
 62
3
 10
-0.8818897636
 20
0.306788930589305
 30
0.0
 11
-1.09460433398609
 21
0.257557529210713
 31
0.0
  0
LINE
  8
3
  6
CONTINUOUS
 62
3
 10
-0.8818897636
 20
0.276135384418099
 30
0.0
 11
-0.8818897636
 21
0.306788930589305
 31
0.0
  0
LINE
  8
3
  6
CONTINUOUS
 62
3
 10
-0.930193378245512
 20
0.265917606593548
 30
0.0
 11
-0.8818897636
 21
0.276135384418099
 31
0.0
  0
LINE
  8
3
  6
CONTINUOUS
 62
3
 10
-0.930193378245512
 20
0.222260157330325
 30
0.0
 11
-0.930193378245512
 21
0.265917606593548
 31
0.0
  0
LINE
  8
3
  6
CONTINUOUS
 62
3
 10
-0.95434305859272
 20
0.227370003381593
 30
0.0
 11
-0.930193378245512
 21
0.222260157330325
 31
0.0
  0
LINE
  8
3
  6
CONTINUOUS
 62
3
 10
-0.95434305859272
 20
0.260858789167099
 30
0.0
 11
-0.95434305859272
 21
0.227370003381593
 31
0.0
  0
LINE
  8
3
  6
CONTINUOUS
 62
3
 10
-0.8818897636
 20
0.405241523863873
 30
0.0
 11
-1.07045252666333
 21
0.405241523863873
 31
0.0
  0
LINE
  8
3
  6
CONTINUOUS
 62
3
 10
-0.8818897636
 20
0.376446103529493
 30
0.0
 11
-0.8818897636
 21
0.405241523863873
 31
0.0
  0
LINE
  8
3
  6
CONTINUOUS
 62
3
 10
-1.07045252666333
 20
0.376446103529493
 30
0.0
 11
-0.8818897636
 21
0.376446103529493
 31
0.0
  0
LINE
  8
3
  6
CONTINUOUS
 62
3
 10
-1.07045252666333
 20
0.327214914848453
 30
0.0
 11
-1.07045252666333
 21
0.376446103529493
 31
0.0
  0
LINE
  8
3
  6
CONTINUOUS
 62
3
 10
-1.09460433398609
 20
0.327214914848453
 30
0.0
 11
-1.07045252666333
 21
0.327214914848453
 31
0.0
  0
LINE
  8
3
  6
CONTINUOUS
 62
3
 10
-1.09460433398609
 20
0.455401137370662
 30
0.0
 11
-1.09460433398609
 21
0.327214914848453
 31
0.0
  0
LINE
  8
3
  6
CONTINUOUS
 62
3
 10
-1.07045252666333
 20
0.455401137370662
 30
0.0
 11
-1.09460433398609
 21
0.455401137370662
 31
0.0
  0
LINE
  8
3
  6
CONTINUOUS
 62
3
 10
-1.07045252666333
 20
0.405241523863873
 30
0.0
 11
-1.07045252666333
 21
0.455401137370662
 31
0.0
  0
LINE
  8
3
  6
CONTINUOUS
 62
3
 10
-0.132629739889616
 20
0.638494281427468
 30
0.0
 11
-0.117312553886055
 21
0.615436151959745
 31
0.0
  0
LINE
  8
3
  6
CONTINUOUS
 62
3
 10
-0.11647431132465
 20
0.589854281446924
 30
0.0
 11
-0.11647431132465
 21
0.614174281437196
 31
0.0
  0
LINE
  8
3
  6
CONTINUOUS
 62
3
 10
-0.11647431132465
 20
0.614174281437196
 30
0.0
 11
-0.100318882759683
 21
0.638494281427468
 31
0.0
  0
LINE
  8
3
  6
CONTINUOUS
 62
3
 10
-0.107552366594062
 20
0.211901019970521
 30
0.0
 11
-0.136076252296938
 21
0.211901019970521
 31
0.0
  0
LINE
  8
3
  6
CONTINUOUS
 62
3
 10
-0.136076252296938
 20
0.211901019970521
 30
0.0
 11
-0.136093623725503
 21
0.236221019960793
 31
0.0
  0
LINE
  8
3
  6
CONTINUOUS
 62
3
 10
-0.136093623725503
 20
0.236221019960793
 30
0.0
 11
-0.113806080877274
 21
0.236221019960793
 31
0.0
  0
LINE
  8
3
  6
CONTINUOUS
 62
3
 10
-0.136094665717764
 20
0.236950209127026
 30
0.0
 11
-0.136110995154067
 21
0.260541019951065
 31
0.0
  0
LINE
  8
3
  6
CONTINUOUS
 62
3
 10
-0.136110995154067
 20
0.260541019951065
 30
0.0
 11
-0.109984366594062
 21
0.260541019951065
 31
0.0
  0
ARC
  8
3
  6
CONTINUOUS
 62
3
 10
-0.12262655366734
 20
-0.34103555896042
 30
0.0
 40
0.0140212200172488
 50
210.521999666255
 51
269.441063338047
  0
LINE
  8
3
  6
CONTINUOUS
 62
3
 10
-0.12276333249605
 20
-0.355056111814146
 30
0.0
 11
-0.117806676492092
 21
-0.355104466925431
 31
0.0
  0
ARC
  8
3
  6
CONTINUOUS
 62
3
 10
-0.117681811358193
 20
-0.342305122976784
 30
0.0
 40
0.0127999530005944
 50
269.441063677772
 51
357.350682656724
  0
ARC
  8
3
  6
CONTINUOUS
 62
3
 10
-0.11530714050032
 20
-0.34384105502609
 30
0.0
 40
0.0104543341672498
 50
5.18227244383406
 51
59.3448299999961
  0
LINE
  8
3
  6
CONTINUOUS
 62
3
 10
-0.109976789279162
 20
-0.334847698659325
 30
0.0
 11
-0.129119899900508
 21
-0.326625858141545
 31
0.0
  0
ARC
  8
3
  6
CONTINUOUS
 62
3
 10
-0.123789545192244
 20
-0.317632506317324
 30
0.0
 40
0.0104543320374922
 50
185.182406440217
 51
239.344800865818
  0
ARC
  8
3
  6
CONTINUOUS
 62
3
 10
-0.121466111127637
 20
-0.319134627882382
 30
0.0
 40
0.0127472414611006
 50
91.2613438550513
 51
177.491952931064
  0
LINE
  8
3
  6
CONTINUOUS
 62
3
 10
-0.121746713924562
 20
-0.306390475225655
 30
0.0
 11
-0.116801844662766
 21
-0.306385275573434
 31
0.0
  0
ARC
  8
3
  6
CONTINUOUS
 62
3
 10
-0.117243460827366
 20
-0.319955990589064
 30
0.0
 40
0.0135778986176911
 50
29.2717084966243
 51
88.1361471074761
  0
LINE
  8
3
  6
CONTINUOUS
 62
3
 10
-0.0965713664334688
 20
-0.30638760996167
 30
0.0
 11
-0.0965713664334688
 21
-0.355027609942214
 31
0.0
  0
LINE
  8
3
  6
CONTINUOUS
 62
3
 10
-0.0951121664334688
 20
-0.330707609951942
 30
0.0
 11
-0.0685547264334684
 21
-0.330707609951942
 31
0.0
  0
LINE
  8
3
  6
CONTINUOUS
 62
3
 10
-0.0670399378738526
 20
-0.355027609942214
 30
0.0
 11
-0.0670399378738526
 21
-0.30638760996167
 31
0.0
  0
LINE
  8
3
  6
CONTINUOUS
 62
3
 10
-0.0594879398521201
 20
-0.355027613099001
 30
0.0
 11
-0.045590800256463
 21
-0.355027613099001
 31
0.0
  0
LINE
  8
3
  6
CONTINUOUS
 62
3
 10
-0.0525393716822545
 20
-0.353568413118457
 30
0.0
 11
-0.0525393716822545
 21
-0.307846813118457
 31
0.0
  0
LINE
  8
3
  6
CONTINUOUS
 62
3
 10
-0.0594879398521201
 20
-0.306387613118457
 30
0.0
 11
-0.0456639378738526
 21
-0.306387613118457
 31
0.0
  0
LINE
  8
3
  6
CONTINUOUS
 62
3
 10
-0.0159647256470606
 20
-0.330706517419497
 30
0.0
 11
-0.0367826456470606
 21
-0.330706517419497
 31
0.0
  0
LINE
  8
3
  6
CONTINUOUS
 62
3
 10
-0.0382348970667238
 20
-0.355026517409769
 30
0.0
 11
-0.0382348970667238
 21
-0.306386517429225
 31
0.0
  0
LINE
  8
3
  6
CONTINUOUS
 62
3
 10
-0.0382348970667238
 20
-0.306386517429225
 30
0.0
 11
-0.0121430113638457
 21
-0.306386517429225
 31
0.0
  0
LINE
  8
3
  6
CONTINUOUS
 62
3
 10
0.0130044188025153
 20
-0.355027606553076
 30
0.0
 11
0.0130044188025153
 21
-0.307862880836807
 31
0.0
  0
LINE
  8
3
  6
CONTINUOUS
 62
3
 10
-0.0025430132369795
 20
-0.306387606572532
 30
0.0
 11
0.0285518438934396
 21
-0.306387606572532
 31
0.0
  0
LINE
  8
3
  6
CONTINUOUS
 62
3
 10
0.0951218996782456
 20
-0.355028116218617
 30
0.0
 11
0.0665980139753703
 21
-0.355028116218617
 31
0.0
  0
LINE
  8
3
  6
CONTINUOUS
 62
3
 10
0.0665980139753703
 20
-0.355028116218617
 30
0.0
 11
0.0665806425468052
 21
-0.330708116228345
 31
0.0
  0
LINE
  8
3
  6
CONTINUOUS
 62
3
 10
0.0665806425468052
 20
-0.330708116228345
 30
0.0
 11
0.0888681853950328
 21
-0.330708116228345
 31
0.0
  0
LINE
  8
3
  6
CONTINUOUS
 62
3
 10
0.0665796005545442
 20
-0.329978927062111
 30
0.0
 11
0.0665632711182408
 21
-0.306388116238073
 31
0.0
  0
LINE
  8
3
  6
CONTINUOUS
 62
3
 10
0.0665632711182408
 20
-0.306388116238073
 30
0.0
 11
0.0926898996782456
 21
-0.306388116238073
 31
0.0
  0
LINE
  8
3
  6
CONTINUOUS
 62
3
 10
-0.062922381529658
 20
-0.449516301629479
 30
0.0
 11
-0.0914462672325336
 21
-0.449516301629479
 31
0.0
  0
LINE
  8
3
  6
CONTINUOUS
 62
3
 10
-0.0914462672325336
 20
-0.449516301629479
 30
0.0
 11
-0.0914636386610984
 21
-0.425196301639207
 31
0.0
  0
LINE
  8
3
  6
CONTINUOUS
 62
3
 10
-0.0914636386610984
 20
-0.425196301639207
 30
0.0
 11
-0.0691760958128711
 21
-0.425196301639207
 31
0.0
  0
LINE
  8
3
  6
CONTINUOUS
 62
3
 10
-0.09146468065336
 20
-0.424467112472974
 30
0.0
 11
-0.0914810100896632
 21
-0.400876301648935
 31
0.0
  0
LINE
  8
3
  6
CONTINUOUS
 62
3
 10
-0.0914810100896632
 20
-0.400876301648935
 30
0.0
 11
-0.0653543815296583
 21
-0.400876301648935
 31
0.0
  0
LINE
  8
3
  6
CONTINUOUS
 62
3
 10
-0.0598503815296582
 20
-0.449515795372532
 30
0.0
 11
-0.0598503759163524
 21
-0.400875801334368
 31
0.0
  0
LINE
  8
3
  6
CONTINUOUS
 62
3
 10
-0.0598503759163524
 20
-0.400875801334368
 30
0.0
 11
-0.029983099737823
 21
-0.449515801314912
 31
0.0
  0
LINE
  8
3
  6
CONTINUOUS
 62
3
 10
-0.029983099737823
 20
-0.449515801314912
 30
0.0
 11
-0.029983099737823
 21
-0.400875801334368
 31
0.0
  0
LINE
  8
3
  6
CONTINUOUS
 62
3
 10
-0.004835669571462
 20
-0.449515791963939
 30
0.0
 11
-0.004835669571462
 21
-0.40235106624767
 31
0.0
  0
LINE
  8
3
  6
CONTINUOUS
 62
3
 10
-0.0203831016109571
 20
-0.400875791983395
 30
0.0
 11
0.010711755519462
 21
-0.400875791983395
 31
0.0
  0
LINE
  8
3
  6
CONTINUOUS
 62
3
 10
0.0446235256011004
 20
-0.449516301629479
 30
0.0
 11
0.0160996398982249
 21
-0.449516301629479
 31
0.0
  0
LINE
  8
3
  6
CONTINUOUS
 62
3
 10
0.0160996398982249
 20
-0.449516301629479
 30
0.0
 11
0.0160822684696598
 21
-0.425196301639207
 31
0.0
  0
LINE
  8
3
  6
CONTINUOUS
 62
3
 10
0.0160822684696598
 20
-0.425196301639207
 30
0.0
 11
0.0383698113178877
 21
-0.425196301639207
 31
0.0
  0
LINE
  8
3
  6
CONTINUOUS
 62
3
 10
0.0160812264773987
 20
-0.424467112472974
 30
0.0
 11
0.0160648970410954
 21
-0.400876301648935
 31
0.0
  0
LINE
  8
3
  6
CONTINUOUS
 62
3
 10
0.0160648970410954
 20
-0.400876301648935
 30
0.0
 11
0.0421915256011005
 21
-0.400876301648935
 31
0.0
  0
LINE
  8
3
  6
CONTINUOUS
 62
3
 10
0.0494875256011003
 20
-0.449515795353076
 30
0.0
 11
0.0494875256011003
 21
-0.400875795372532
 31
0.0
  0
LINE
  8
3
  6
CONTINUOUS
 62
3
 10
0.0494875256011003
 20
-0.400875795372532
 30
0.0
 11
0.0671368970226141
 21
-0.400875795372531
 31
0.0
  0
ARC
  8
3
  6
CONTINUOUS
 62
3
 10
0.0669025463737671
 20
-0.413035777366191
 30
0.0
 40
0.0121622400203559
 50
271.095264000539
 51
88.8959160393193
  0
LINE
  8
3
  6
CONTINUOUS
 62
3
 10
0.0671350251445102
 20
-0.425195795291092
 30
0.0
 11
0.0510838251445098
 21
-0.425195795291092
 31
0.0
  0
LINE
  8
3
  6
CONTINUOUS
 62
3
 10
0.0678280071700325
 20
-0.426581554083444
 30
0.0
 11
0.0792968970177487
 21
-0.449515795353076
 31
0.0
  0
LINE
  8
3
  6
CONTINUOUS
 62
3
 10
-0.138416924099344
 20
-0.495363987561669
 30
0.0
 11
-0.138416924099344
 21
-0.530106571177423
 31
0.0
  0
ARC
  8
3
  6
CONTINUOUS
 62
3
 10
-0.124173036562928
 20
-0.529876861425648
 30
0.0
 40
0.0142457396691126
 50
180.923923222649
 51
0.472476699574404
  0
LINE
  8
3
  6
CONTINUOUS
 62
3
 10
-0.109927781253596
 20
-0.529759388483731
 30
0.0
 11
-0.109927781253596
 21
-0.495363987561669
 31
0.0
  0
ARC
  8
3
  6
CONTINUOUS
 62
3
 10
-0.12262655366734
 20
-0.62450012536042
 30
0.0
 40
0.014021220017249
 50
210.521999666259
 51
269.441063338051
  0
LINE
  8
3
  6
CONTINUOUS
 62
3
 10
-0.12276333249605
 20
-0.638520678214145
 30
0.0
 11
-0.117806676492091
 21
-0.638569033325431
 31
0.0
  0
ARC
  8
3
  6
CONTINUOUS
 62
3
 10
-0.117681811358194
 20
-0.625769689376784
 30
0.0
 40
0.0127999530005943
 50
269.441063677774
 51
357.350682656726
  0
ARC
  8
3
  6
CONTINUOUS
 62
3
 10
-0.11530714050032
 20
-0.627305621426089
 30
0.0
 40
0.0104543341672496
 50
5.18227244383198
 51
59.3448299999942
  0
LINE
  8
3
  6
CONTINUOUS
 62
3
 10
-0.109976789279162
 20
-0.618312265059325
 30
0.0
 11
-0.129119899900507
 21
-0.610090424541545
 31
0.0
  0
ARC
  8
3
  6
CONTINUOUS
 62
3
 10
-0.123789545192243
 20
-0.601097072717324
 30
0.0
 40
0.0104543320374924
 50
185.18240644022
 51
239.344800865821
  0
ARC
  8
3
  6
CONTINUOUS
 62
3
 10
-0.121466111127637
 20
-0.602599194282382
 30
0.0
 40
0.0127472414611007
 50
91.2613438550544
 51
177.491952931066
  0
LINE
  8
3
  6
CONTINUOUS
 62
3
 10
-0.121746713924562
 20
-0.589855041625655
 30
0.0
 11
-0.116801844662766
 21
-0.589849841973434
 31
0.0
  0
ARC
  8
3
  6
CONTINUOUS
 62
3
 10
-0.117243460827366
 20
-0.603420556989064
 30
0.0
 40
0.0135778986176912
 50
29.2717084966242
 51
88.1361471074759
  0
LINE
  8
3
  6
CONTINUOUS
 62
3
 10
-0.096571366433468
 20
-0.58985217636167
 30
0.0
 11
-0.096571366433468
 21
-0.638492176342213
 31
0.0
  0
LINE
  8
3
  6
CONTINUOUS
 62
3
 10
-0.095112166433468
 20
-0.614172176351942
 30
0.0
 11
-0.068554726433468
 21
-0.614172176351942
 31
0.0
  0
LINE
  8
3
  6
CONTINUOUS
 62
3
 10
-0.0670399378738523
 20
-0.638492176342213
 30
0.0
 11
-0.0670399378738523
 21
-0.58985217636167
 31
0.0
  0
LINE
  8
3
  6
CONTINUOUS
 62
3
 10
-0.0594879398521201
 20
-0.638492179499001
 30
0.0
 11
-0.0455908002564626
 21
-0.638492179499001
 31
0.0
  0
LINE
  8
3
  6
CONTINUOUS
 62
3
 10
-0.0525393716822538
 20
-0.637032979518457
 30
0.0
 11
-0.0525393716822538
 21
-0.591311379518457
 31
0.0
  0
LINE
  8
3
  6
CONTINUOUS
 62
3
 10
-0.0594879398521201
 20
-0.589852179518457
 30
0.0
 11
-0.0456639378738522
 21
-0.589852179518457
 31
0.0
  0
LINE
  8
3
  6
CONTINUOUS
 62
3
 10
-0.0159647256470602
 20
-0.614171083819498
 30
0.0
 11
-0.0367826456470602
 21
-0.614171083819498
 31
0.0
  0
LINE
  8
3
  6
CONTINUOUS
 62
3
 10
-0.0382348970667238
 20
-0.63849108380977
 30
0.0
 11
-0.0382348970667238
 21
-0.589851083829226
 31
0.0
  0
LINE
  8
3
  6
CONTINUOUS
 62
3
 10
-0.0382348970667238
 20
-0.589851083829226
 30
0.0
 11
-0.0121430113638457
 21
-0.589851083829226
 31
0.0
  0
LINE
  8
3
  6
CONTINUOUS
 62
3
 10
0.0130044188025156
 20
-0.638492172953076
 30
0.0
 11
0.0130044188025156
 21
-0.591327447236808
 31
0.0
  0
LINE
  8
3
  6
CONTINUOUS
 62
3
 10
-0.00254301323697914
 20
-0.589852172972532
 30
0.0
 11
0.0285518438934396
 21
-0.589852172972532
 31
0.0
  0
LINE
  8
3
  6
CONTINUOUS
 62
3
 10
0.0660741295966076
 20
-0.58985217636167
 30
0.0
 11
0.0660741295966076
 21
-0.624594759977424
 31
0.0
  0
ARC
  8
3
  6
CONTINUOUS
 62
3
 10
0.080318017133024
 20
-0.624365050225648
 30
0.0
 40
0.0142457396691126
 50
180.92392322265
 51
0.472476699574849
  0
LINE
  8
3
  6
CONTINUOUS
 62
3
 10
0.0945632724423552
 20
-0.624247577283732
 30
0.0
 11
0.0945632724423552
 21
-0.58985217636167
 31
0.0
  0
LINE
  8
3
  6
CONTINUOUS
 62
3
 10
-0.0629223815296577
 20
0.0229246423705209
 30
0.0
 11
-0.0914462672325336
 21
0.0229246423705209
 31
0.0
  0
LINE
  8
3
  6
CONTINUOUS
 62
3
 10
-0.0914462672325336
 20
0.0229246423705209
 30
0.0
 11
-0.0914636386610984
 21
0.0472446423607929
 31
0.0
  0
LINE
  8
3
  6
CONTINUOUS
 62
3
 10
-0.0914636386610984
 20
0.0472446423607929
 30
0.0
 11
-0.0691760958128707
 21
0.0472446423607929
 31
0.0
  0
LINE
  8
3
  6
CONTINUOUS
 62
3
 10
-0.09146468065336
 20
0.0479738315270264
 30
0.0
 11
-0.0914810100896632
 21
0.0715646423510648
 31
0.0
  0
LINE
  8
3
  6
CONTINUOUS
 62
3
 10
-0.0914810100896632
 20
0.0715646423510648
 30
0.0
 11
-0.0653543815296576
 21
0.0715646423510648
 31
0.0
  0
LINE
  8
3
  6
CONTINUOUS
 62
3
 10
-0.0598503815296578
 20
0.022925148627468
 30
0.0
 11
-0.0598503759163521
 21
0.0715651426656315
 31
0.0
  0
LINE
  8
3
  6
CONTINUOUS
 62
3
 10
-0.0598503759163521
 20
0.0715651426656315
 30
0.0
 11
-0.0299830997378226
 21
0.022925142685088
 31
0.0
  0
LINE
  8
3
  6
CONTINUOUS
 62
3
 10
-0.0299830997378226
 20
0.022925142685088
 30
0.0
 11
-0.0299830997378226
 21
0.0715651426656315
 31
0.0
  0
LINE
  8
3
  6
CONTINUOUS
 62
3
 10
-0.00483566957146167
 20
0.0229251520360614
 30
0.0
 11
-0.00483566957146167
 21
0.0700898777523305
 31
0.0
  0
LINE
  8
3
  6
CONTINUOUS
 62
3
 10
-0.0203831016109565
 20
0.0715651520166054
 30
0.0
 11
0.0107117555194624
 21
0.0715651520166054
 31
0.0
  0
LINE
  8
3
  6
CONTINUOUS
 62
3
 10
0.0446235256011008
 20
0.0229246423705209
 30
0.0
 11
0.0160996398982253
 21
0.0229246423705209
 31
0.0
  0
LINE
  8
3
  6
CONTINUOUS
 62
3
 10
0.0160996398982253
 20
0.0229246423705209
 30
0.0
 11
0.0160822684696602
 21
0.0472446423607929
 31
0.0
  0
LINE
  8
3
  6
CONTINUOUS
 62
3
 10
0.0160822684696602
 20
0.0472446423607929
 30
0.0
 11
0.038369811317888
 21
0.0472446423607929
 31
0.0
  0
LINE
  8
3
  6
CONTINUOUS
 62
3
 10
0.0160812264773991
 20
0.0479738315270264
 30
0.0
 11
0.0160648970410957
 21
0.0715646423510648
 31
0.0
  0
LINE
  8
3
  6
CONTINUOUS
 62
3
 10
0.0160648970410957
 20
0.0715646423510648
 30
0.0
 11
0.0421915256011008
 21
0.0715646423510648
 31
0.0
  0
LINE
  8
3
  6
CONTINUOUS
 62
3
 10
0.0494875256011007
 20
0.022925148646924
 30
0.0
 11
0.0494875256011007
 21
0.071565148627468
 31
0.0
  0
LINE
  8
3
  6
CONTINUOUS
 62
3
 10
0.0494875256011007
 20
0.071565148627468
 30
0.0
 11
0.0671368970226144
 21
0.0715651486274684
 31
0.0
  0
ARC
  8
3
  6
CONTINUOUS
 62
3
 10
0.0669025463737675
 20
0.0594051666338086
 30
0.0
 40
0.0121622400203558
 50
271.095264000539
 51
88.8959160393194
  0
LINE
  8
3
  6
CONTINUOUS
 62
3
 10
0.0671350251445105
 20
0.0472451487089082
 30
0.0
 11
0.0510838251445101
 21
0.0472451487089082
 31
0.0
  0
LINE
  8
3
  6
CONTINUOUS
 62
3
 10
0.0678280071700332
 20
0.0458593899165555
 30
0.0
 11
0.0792968970177491
 21
0.022925148646924
 31
0.0
  0
ARC
  8
3
  6
CONTINUOUS
 62
3
 10
-0.122626553667341
 20
0.50935814023958
 30
0.0
 40
0.0140212200172488
 50
210.521999666257
 51
269.441063338049
  0
LINE
  8
3
  6
CONTINUOUS
 62
3
 10
-0.12276333249605
 20
0.495337587385855
 30
0.0
 11
-0.117806676492092
 21
0.495289232274569
 31
0.0
  0
ARC
  8
3
  6
CONTINUOUS
 62
3
 10
-0.117681811358193
 20
0.508088576223216
 30
0.0
 40
0.0127999530005942
 50
269.441063677774
 51
357.350682656726
  0
ARC
  8
3
  6
CONTINUOUS
 62
3
 10
-0.11530714050032
 20
0.506552644173911
 30
0.0
 40
0.0104543341672499
 50
5.18227244383158
 51
59.3448299999937
  0
LINE
  8
3
  6
CONTINUOUS
 62
3
 10
-0.109976789279162
 20
0.515546000540676
 30
0.0
 11
-0.129119899900507
 21
0.523767841058456
 31
0.0
  0
ARC
  8
3
  6
CONTINUOUS
 62
3
 10
-0.123789545192244
 20
0.532761192882677
 30
0.0
 40
0.0104543320374923
 50
185.182406440219
 51
212.26360365302
  0
ARC
  8
3
  6
CONTINUOUS
 62
3
 10
-0.121466111127637
 20
0.531259071317619
 30
0.0
 40
0.0127472414611006
 50
91.2613438550533
 51
177.491952931065
  0
LINE
  8
3
  6
CONTINUOUS
 62
3
 10
-0.121746713924562
 20
0.544003223974346
 30
0.0
 11
-0.116801844662766
 21
0.544008423626567
 31
0.0
  0
ARC
  8
3
  6
CONTINUOUS
 62
3
 10
-0.117243460827366
 20
0.530437708610936
 30
0.0
 40
0.0135778986176912
 50
29.2717084966232
 51
88.1361471074751
  0
ARC
  8
3
  6
CONTINUOUS
 62
3
 10
0.158892956824606
 20
0.513095654142126
 30
0.0
 40
0.0178873113528451
 50
204.38683723701
 51
324.320000000004
  0
ARC
  8
3
  6
CONTINUOUS
 62
3
 10
0.183645085617231
 20
0.519607213285153
 30
0.0
 40
0.0433324379255258
 50
161.294134617644
 51
198.705865382356
  0
ARC
  8
3
  6
CONTINUOUS
 62
3
 10
0.158892960298891
 20
0.526118774411201
 30
0.0
 40
0.0178873148271308
 50
35.68002999999
 51
155.613174782251
  0
ARC
  8
3
  6
CONTINUOUS
 62
3
 10
-0.123789545192244
 20
0.532761192882677
 30
0.0
 40
0.0104543320374924
 50
212.263603653021
 51
239.344800865822
  0
LINE
  8
4
  6
CONTINUOUS
 62
4
 10
0.629921259599997
 20
-0.787401574799998
 30
0.0
 11
-0.629921260000005
 21
-0.787401574800002
 31
0.0
  0
LINE
  8
4
  6
CONTINUOUS
 62
4
 10
0.787401574800006
 20
-0.629921259600006
 30
0.0
 11
0.787401574799999
 21
0.629921259599999
 31
0.0
  0
LINE
  8
4
  6
CONTINUOUS
 62
4
 10
-1.09460433398609
 20
0.504620202291093
 30
0.0
 11
-1.09460433398609
 21
0.475825632746928
 31
0.0
  0
LINE
  8
4
  6
CONTINUOUS
 62
4
 10
-0.8818897636
 20
0.504620202291093
 30
0.0
 11
-1.09460433398609
 21
0.504620202291093
 31
0.0
  0
LINE
  8
4
  6
CONTINUOUS
 62
4
 10
-0.8818897636
 20
0.475825632746928
 30
0.0
 11
-0.8818897636
 21
0.504620202291093
 31
0.0
  0
LINE
  8
4
  6
CONTINUOUS
 62
4
 10
-1.09460433398609
 20
0.475825632746928
 30
0.0
 11
-0.8818897636
 21
0.475825632746928
 31
0.0
  0
ARC
  8
4
  6
CONTINUOUS
 62
4
 10
-0.629921259600002
 20
0.629921259600002
 30
0.0
 40
0.1574803152
 50
89.9999999999992
 51
180
  0
ARC
  8
4
  6
CONTINUOUS
 62
4
 10
0.629921259599999
 20
0.629921259600009
 30
0.0
 40
0.1574803152
 50
359.999999999996
 51
89.9999999999992
  0
ARC
  8
4
  6
CONTINUOUS
 62
4
 10
0.629921259600007
 20
-0.629921259599998
 30
0.0
 40
0.1574803152
 50
269.999999999996
 51
359.999999999996
  0
ARC
  8
4
  6
CONTINUOUS
 62
4
 10
-0.62992126004141
 20
-0.629921260041413
 30
0.0
 40
0.15748031475859
 50
179.999999984931
 51
270.000000015064
  0
LINE
  8
4
  6
CONTINUOUS
 62
4
 10
-0.787401574799999
 20
0.629921259600002
 30
0.0
 11
-0.787401574800001
 21
-0.629921259599999
 31
0.0
  0
LINE
  8
4
  6
CONTINUOUS
 62
4
 10
-0.629921259599999
 20
0.787401574800002
 30
0.0
 11
0.629921259599998
 21
0.787401574800002
 31
0.0
  0
LINE
  8
4
  6
CONTINUOUS
 62
4
 10
-1.03728447000186
 20
0.61196419143984
 30
0.0
 11
-0.939226643388592
 21
0.611963978742285
 31
0.0
  0
ARC
  8
4
  6
CONTINUOUS
 62
4
 10
-1.03728447000186
 20
0.581772943403515
 30
0.0
 40
0.0301912480363249
 50
90
 51
270
  0
LINE
  8
4
  6
CONTINUOUS
 62
4
 10
-0.939226643388592
 20
0.55158169536719
 30
0.0
 11
-1.03728447000186
 21
0.55158169536719
 31
0.0
  0
ARC
  8
4
  6
CONTINUOUS
 62
4
 10
-0.939226280954976
 20
0.581773278869357
 30
0.0
 40
0.0301915835043425
 50
269.99931219517
 51
345.521838354123
  0
LINE
  8
4
  6
CONTINUOUS
 62
4
 10
-0.882404491682088
 20
0.574225051632851
 30
0.0
 11
-0.90999349148688
 21
0.574225051632851
 31
0.0
  0
ARC
  8
4
  6
CONTINUOUS
 62
4
 10
-0.939225842188768
 20
0.581773031569814
 30
0.0
 40
0.0573204839000117
 50
269.999199145475
 51
352.433297341486
  0
LINE
  8
4
  6
CONTINUOUS
 62
4
 10
-1.03728447000186
 20
0.524452334977846
 30
0.0
 11
-0.939226643388592
 21
0.524452547675401
 31
0.0
  0
ARC
  8
4
  6
CONTINUOUS
 62
4
 10
-1.03728447000186
 20
0.581772092613297
 30
0.0
 40
0.0573197576354504
 50
90
 51
270
  0
LINE
  8
4
  6
CONTINUOUS
 62
4
 10
-0.939226643388592
 20
0.639091850248747
 30
0.0
 11
-1.03728447000186
 21
0.639091850248747
 31
0.0
  0
ARC
  8
4
  6
CONTINUOUS
 62
4
 10
-0.939225745594408
 20
0.581771250815859
 30
0.0
 40
0.05732059943992
 50
7.56830513434387
 51
90.0008974054394
  0
LINE
  8
4
  6
CONTINUOUS
 62
4
 10
-0.90999349148688
 20
0.589320835174179
 30
0.0
 11
-0.882404491682088
 21
0.589320835174179
 31
0.0
  0
ARC
  8
4
  6
CONTINUOUS
 62
4
 10
-0.939226116630032
 20
0.581772536484808
 30
0.0
 40
0.030191442262073
 50
14.4783709045348
 51
90.0009996555304
  0
LINE
  8
4
  6
CONTINUOUS
 62
4
 10
-1.09460433398609
 20
0.760174399843037
 30
0.0
 11
-0.911614636597696
 21
0.760174399843037
 31
0.0
  0
LINE
  8
4
  6
CONTINUOUS
 62
4
 10
-0.8818897636
 20
0.742522842485855
 30
0.0
 11
-0.8818897636
 21
0.788037992190797
 31
0.0
  0
LINE
  8
4
  6
CONTINUOUS
 62
4
 10
-1.06023453614122
 20
0.686789702258807
 30
0.0
 11
-0.8818897636
 21
0.742522842485855
 31
0.0
  0
LINE
  8
4
  6
CONTINUOUS
 62
4
 10
-0.8818897636
 20
0.686789702258807
 30
0.0
 11
-1.06023453614122
 21
0.686789702258807
 31
0.0
  0
LINE
  8
4
  6
CONTINUOUS
 62
4
 10
-0.8818897636
 20
0.658924195633056
 30
0.0
 11
-0.8818897636
 21
0.686789702258807
 31
0.0
  0
LINE
  8
4
  6
CONTINUOUS
 62
4
 10
-1.09460433398609
 20
0.658924195633056
 30
0.0
 11
-0.8818897636
 21
0.658924195633056
 31
0.0
  0
LINE
  8
4
  6
CONTINUOUS
 62
4
 10
-1.09460433398609
 20
0.704439345337998
 30
0.0
 11
-1.09460433398609
 21
0.658924195633056
 31
0.0
  0
LINE
  8
4
  6
CONTINUOUS
 62
4
 10
-0.911614636597696
 20
0.760174399843037
 30
0.0
 11
-1.09460433398609
 21
0.704439345337998
 31
0.0
  0
LINE
  8
4
  6
CONTINUOUS
 62
4
 10
-0.11497006366026
 20
0.456972296848933
 30
0.0
 11
-0.11497006366026
 21
0.408332282428389
 31
0.0
  0
LINE
  8
4
  6
CONTINUOUS
 62
4
 10
-0.0973206869990904
 20
0.456972296848934
 30
0.0
 11
-0.11497006366026
 21
0.456972296848933
 31
0.0
  0
ARC
  8
4
  6
CONTINUOUS
 62
4
 10
-0.0980433355393071
 20
0.444812293243798
 30
0.0
 40
0.0121814575724584
 50
273.400991681353
 51
86.5990083186468
  0
LINE
  8
4
  6
CONTINUOUS
 62
4
 10
-0.11424046344366
 20
0.432652289638661
 30
0.0
 11
-0.0973206869990904
 21
0.432652289638662
 31
0.0
  0
LINE
  8
4
  6
CONTINUOUS
 62
4
 10
-0.0802966819499544
 20
0.422229702918975
 30
0.0
 11
-0.0802966819499544
 21
0.456972296848933
 31
0.0
  0
ARC
  8
4
  6
CONTINUOUS
 62
4
 10
-0.0660527901848841
 20
0.422459412738945
 30
0.0
 40
0.0142457438983165
 50
180.923923222649
 51
0.472476699574417
  0
LINE
  8
4
  6
CONTINUOUS
 62
4
 10
-0.0518075306464926
 20
0.456972296848933
 30
0.0
 11
-0.0518075306464921
 21
0.422576885715737
 31
0.0
  0
LINE
  8
4
  6
CONTINUOUS
 62
4
 10
-0.0445115284804926
 20
0.456972296848933
 30
0.0
 11
-0.0445115284804926
 21
0.408332282428389
 31
0.0
  0
LINE
  8
4
  6
CONTINUOUS
 62
4
 10
-0.0268621518193218
 20
0.456972296848934
 30
0.0
 11
-0.0445115284804926
 21
0.456972296848933
 31
0.0
  0
ARC
  8
4
  6
CONTINUOUS
 62
4
 10
-0.0270965025377419
 20
0.44481231124528
 30
0.0
 40
0.0121622436310209
 50
271.09526400054
 51
88.895916039319
  0
LINE
  8
4
  6
CONTINUOUS
 62
4
 10
-0.0429152284631821
 20
0.432652289710373
 30
0.0
 11
-0.0268640236979816
 21
0.432652289710373
 31
0.0
  0
LINE
  8
4
  6
CONTINUOUS
 62
4
 10
-0.0147021482141874
 20
0.408332282428389
 30
0.0
 11
-0.0261710414667298
 21
0.431266530506624
 31
0.0
  0
LINE
  8
4
  6
CONTINUOUS
 62
4
 10
-0.00862214640918838
 20
0.456972296848933
 30
0.0
 11
-0.00862214640918838
 21
0.408332282428389
 31
0.0
  0
LINE
  8
4
  6
CONTINUOUS
 62
4
 10
0.00902723025198096
 20
0.456972296848934
 30
0.0
 11
-0.00862214640918838
 21
0.456972296848933
 31
0.0
  0
ARC
  8
4
  6
CONTINUOUS
 62
4
 10
0.00830458171176429
 20
0.444812293243798
 30
0.0
 40
0.0121814575724584
 50
273.400991681353
 51
86.5990083186468
  0
LINE
  8
4
  6
CONTINUOUS
 62
4
 10
-0.00789254619258836
 20
0.432652289638661
 30
0.0
 11
0.00902723025198146
 21
0.432652289638662
 31
0.0
  0
LINE
  8
4
  6
CONTINUOUS
 62
4
 10
0.0260512353011174
 20
0.408332282428389
 30
0.0
 11
0.0260512353011174
 21
0.456972296848933
 31
0.0
  0
LINE
  8
4
  6
CONTINUOUS
 62
4
 10
0.0545751294720222
 20
0.408332282428389
 30
0.0
 11
0.0260512353011174
 21
0.408332282428389
 31
0.0
  0
LINE
  8
4
  6
CONTINUOUS
 62
4
 10
0.0610053014726377
 20
0.408331776151836
 30
0.0
 11
0.0895291956435416
 21
0.408331776151836
 31
0.0
  0
LINE
  8
4
  6
CONTINUOUS
 62
4
 10
0.0609879300389155
 20
0.432651783362108
 30
0.0
 11
0.0610053014726377
 21
0.408331776151836
 31
0.0
  0
LINE
  8
4
  6
CONTINUOUS
 62
4
 10
0.0832754795037576
 20
0.432651783362108
 30
0.0
 11
0.0609879300389155
 21
0.432651783362108
 31
0.0
  0
LINE
  8
4
  6
CONTINUOUS
 62
4
 10
0.060970558605194
 20
0.45697179057238
 30
0.0
 11
0.060986888046345
 21
0.43338097274482
 31
0.0
  0
LINE
  8
4
  6
CONTINUOUS
 62
4
 10
0.0870971949215416
 20
0.45697179057238
 30
0.0
 11
0.060970558605194
 21
0.45697179057238
 31
0.0
  0
ARC
  8
4
  6
CONTINUOUS
 62
4
 10
0.164071588205312
 20
0.422324337564073
 30
0.0
 40
0.0140212241797985
 50
210.521999666257
 51
269.441063338049
  0
LINE
  8
4
  6
CONTINUOUS
 62
4
 10
0.168891466811462
 20
0.408255425422355
 30
0.0
 11
0.163934809335996
 21
0.408303780547996
 31
0.0
  0
ARC
  8
4
  6
CONTINUOUS
 62
4
 10
0.169016331982429
 20
0.421054773170807
 30
0.0
 40
0.0127999568005803
 50
269.441063677774
 51
357.350682656726
  0
ARC
  8
4
  6
CONTINUOUS
 62
4
 10
0.171391003545283
 20
0.419518840665522
 30
0.0
 40
0.0104543372708801
 50
5.18227244383146
 51
59.3448299999935
  0
LINE
  8
4
  6
CONTINUOUS
 62
4
 10
0.157578240044432
 20
0.436734042660829
 30
0.0
 11
0.176721356348889
 21
0.42851219970219
 31
0.0
  0
ARC
  8
4
  6
CONTINUOUS
 62
4
 10
0.162908596335145
 20
0.445727397154951
 30
0.0
 40
0.0104543351411223
 50
185.182406440221
 51
239.344800865822
  0
ARC
  8
4
  6
CONTINUOUS
 62
4
 10
0.165232031089522
 20
0.44422527514395
 30
0.0
 40
0.0127472452454379
 50
91.2613438550526
 51
177.491952931064
  0
LINE
  8
4
  6
CONTINUOUS
 62
4
 10
0.169896298939097
 20
0.456974631237862
 30
0.0
 11
0.164951428209292
 21
0.456969431584097
 31
0.0
  0
ARC
  8
4
  6
CONTINUOUS
 62
4
 10
0.169454682643391
 20
0.443403912193425
 30
0.0
 40
0.0135779026486297
 50
29.2717084966245
 51
88.1361471074762
  0
LINE
  8
4
  6
CONTINUOUS
 62
4
 10
0.22639418680089
 20
0.409001677408096
 30
0.0
 11
0.210964220906755
 21
0.420780278293299
 31
0.0
  0
ARC
  8
4
  6
CONTINUOUS
 62
4
 10
0.208977165140499
 20
0.422626851275047
 30
0.0
 40
0.0144650538885259
 50
195.902080827325
 51
315.740300551128
  0
ARC
  8
4
  6
CONTINUOUS
 62
4
 10
0.236109185221441
 20
0.432560672188817
 30
0.0
 40
0.0433324507898411
 50
161.294116943041
 51
198.705883056959
  0
ARC
  8
4
  6
CONTINUOUS
 62
4
 10
0.208977163354158
 20
0.442512960335935
 30
0.0
 40
0.0144600062690895
 50
15.8327716419898
 51
164.168294355361
  0
ARC
  8
4
  6
CONTINUOUS
 62
4
 10
0.182418870963221
 20
0.432813777771635
 30
0.0
 40
0.0427079062338116
 50
335.0528006703
 51
18.6314696013476
  0
LINE
  8
4
  6
CONTINUOUS
 62
4
 10
0.230874636236399
 20
0.422229702918975
 30
0.0
 11
0.230874636236399
 21
0.456972296848933
 31
0.0
  0
ARC
  8
4
  6
CONTINUOUS
 62
4
 10
0.245118528001469
 20
0.422459412738945
 30
0.0
 40
0.0142457438983165
 50
180.923923222649
 51
0.472476699574417
  0
LINE
  8
4
  6
CONTINUOUS
 62
4
 10
0.25936378753986
 20
0.456972296848933
 30
0.0
 11
0.259363787539861
 21
0.422576885715737
 31
0.0
  0
LINE
  8
4
  6
CONTINUOUS
 62
4
 10
0.282467794391565
 20
0.456972296848933
 30
0.0
 11
0.26422778898386
 21
0.408332282428389
 31
0.0
  0
LINE
  8
4
  6
CONTINUOUS
 62
4
 10
0.300707799799269
 20
0.408332282428389
 30
0.0
 11
0.282467794391565
 21
0.456972296848933
 31
0.0
  0
LINE
  8
4
  6
CONTINUOUS
 62
4
 10
0.295340026778703
 20
0.418755142661363
 30
0.0
 11
0.269595562004426
 21
0.418755142661363
 31
0.0
  0
LINE
  8
4
  6
CONTINUOUS
 62
4
 10
0.308003801965269
 20
0.456972296848933
 30
0.0
 11
0.308003801965269
 21
0.408332282428389
 31
0.0
  0
LINE
  8
4
  6
CONTINUOUS
 62
4
 10
0.32565317862644
 20
0.456972296848934
 30
0.0
 11
0.308003801965269
 21
0.456972296848933
 31
0.0
  0
ARC
  8
4
  6
CONTINUOUS
 62
4
 10
0.325418827908019
 20
0.44481231124528
 30
0.0
 40
0.0121622436310209
 50
271.09526400054
 51
88.895916039319
  0
LINE
  8
4
  6
CONTINUOUS
 62
4
 10
0.309600101982579
 20
0.432652289710373
 30
0.0
 11
0.32565130674778
 21
0.432652289710373
 31
0.0
  0
LINE
  8
4
  6
CONTINUOUS
 62
4
 10
0.337813182231574
 20
0.408332282428389
 30
0.0
 11
0.326344288979031
 21
0.431266530506624
 31
0.0
  0
LINE
  8
4
  6
CONTINUOUS
 62
4
 10
0.343201068209865
 20
0.408331776151836
 30
0.0
 11
0.371724962380769
 21
0.408331776151836
 31
0.0
  0
LINE
  8
4
  6
CONTINUOUS
 62
4
 10
0.343183696776142
 20
0.432651783362108
 30
0.0
 11
0.343201068209865
 21
0.408331776151836
 31
0.0
  0
LINE
  8
4
  6
CONTINUOUS
 62
4
 10
0.365471246240985
 20
0.432651783362108
 30
0.0
 11
0.343183696776142
 21
0.432651783362108
 31
0.0
  0
LINE
  8
4
  6
CONTINUOUS
 62
4
 10
0.343166325342421
 20
0.45697179057238
 30
0.0
 11
0.343182654783572
 21
0.43338097274482
 31
0.0
  0
LINE
  8
4
  6
CONTINUOUS
 62
4
 10
0.369292961658769
 20
0.45697179057238
 30
0.0
 11
0.343166325342421
 21
0.45697179057238
 31
0.0
  0
LINE
  8
4
  6
CONTINUOUS
 62
4
 10
-1.09460433398675
 20
0.788037992189711
 30
0.0
 11
-1.09460433398646
 21
0.76017248556396
 31
0.0
  0
LINE
  8
4
  6
CONTINUOUS
 62
4
 10
-0.881889763600659
 20
0.788037992191882
 30
0.0
 11
-1.09460433398675
 21
0.788037992189711
 31
0.0
  0
ARC
  8
5
  6
CONTINUOUS
 62
5
 10
-0.62992126
 20
-0.629921259999995
 30
0.0
 40
0.0535433072000001
 50
359.999999999996
 51
180
  0
ARC
  8
5
  6
CONTINUOUS
 62
5
 10
-0.62992126
 20
-0.629921260000001
 30
0.0
 40
0.0535433072000001
 50
179.999999999996
 51
359.999999999996
  0
ARC
  8
5
  6
CONTINUOUS
 62
5
 10
-0.62992126
 20
0.62992126
 30
0.0
 40
0.0535433072000001
 50
179.999999999997
 51
359.999999999998
  0
ARC
  8
5
  6
CONTINUOUS
 62
5
 10
-0.62992126
 20
0.629921260000004
 30
0.0
 40
0.0535433072000001
 50
359.999999999996
 51
180
  0
ARC
  8
5
  6
CONTINUOUS
 62
5
 10
0.62992126
 20
-0.629921259999997
 30
0.0
 40
0.0535433071999999
 50
359.999999999996
 51
180
  0
ARC
  8
5
  6
CONTINUOUS
 62
5
 10
0.62992126
 20
-0.62992126
 30
0.0
 40
0.0535433071999999
 50
179.999999999997
 51
359.999999999998
  0
ARC
  8
5
  6
CONTINUOUS
 62
5
 10
0.62992126
 20
0.629921259999999
 30
0.0
 40
0.0535433071999999
 50
179.999999999997
 51
359.999999999996
  0
ARC
  8
5
  6
CONTINUOUS
 62
5
 10
0.62992126
 20
0.629921260000005
 30
0.0
 40
0.0535433071999999
 50
359.999999999996
 51
180
  0
LINE
  8
5
  6
CONTINUOUS
 62
5
 10
-0.0974036982180488
 20
0.33063083907429
 30
0.0
 11
-0.114970063040593
 21
0.33063083907429
 31
0.0
  0
ARC
  8
5
  6
CONTINUOUS
 62
5
 10
-0.0974075435491519
 20
0.318470836077154
 30
0.0
 40
0.0121600036051361
 50
270.000000002512
 51
89.9818814817914
  0
LINE
  8
5
  6
CONTINUOUS
 62
5
 10
-0.116429263473793
 20
0.306310832472018
 30
0.0
 11
-0.0974075435486184
 21
0.306310832472018
 31
0.0
  0
LINE
  8
5
  6
CONTINUOUS
 62
5
 10
-0.116429263473793
 20
0.354890350995281
 30
0.0
 11
-0.116429263473793
 21
0.306310832472018
 31
0.0
  0
LINE
  8
5
  6
CONTINUOUS
 62
5
 10
-0.0995789727638176
 20
0.354890350995281
 30
0.0
 11
-0.116429263473793
 21
0.354890350995281
 31
0.0
  0
ARC
  8
5
  6
CONTINUOUS
 62
5
 10
-0.0996761415369511
 20
0.34268160800645
 30
0.0
 40
0.0122091296634033
 50
296.191824756092
 51
89.5439953928133
  0
LINE
  8
5
  6
CONTINUOUS
 62
5
 10
-0.0803835385000168
 20
0.306250336574737
 30
0.0
 11
-0.0803835385000168
 21
0.354890350995281
 31
0.0
  0
LINE
  8
5
  6
CONTINUOUS
 62
5
 10
-0.0518596443291119
 20
0.306250336574737
 30
0.0
 11
-0.0803835385000168
 21
0.306250336574737
 31
0.0
  0
LINE
  8
5
  6
CONTINUOUS
 62
5
 10
-0.0459533568627873
 20
0.320147757065322
 30
0.0
 11
-0.0459533568627873
 21
0.354890350995281
 31
0.0
  0
ARC
  8
5
  6
CONTINUOUS
 62
5
 10
-0.0317094650977172
 20
0.320377466885292
 30
0.0
 40
0.0142457438983165
 50
180.923923222648
 51
0.472476699574582
  0
LINE
  8
5
  6
CONTINUOUS
 62
5
 10
-0.0174642055593258
 20
0.354890350995281
 30
0.0
 11
-0.0174642055593253
 21
0.320494939862084
 31
0.0
  0
LINE
  8
5
  6
CONTINUOUS
 62
5
 10
-0.012076319581035
 20
0.306249830298184
 30
0.0
 11
0.0164475745898694
 21
0.306249830298184
 31
0.0
  0
LINE
  8
5
  6
CONTINUOUS
 62
5
 10
-0.012093691014757
 20
0.330569837508456
 30
0.0
 11
-0.012076319581035
 21
0.306249830298184
 31
0.0
  0
LINE
  8
5
  6
CONTINUOUS
 62
5
 10
0.0101938584500851
 20
0.330569837508456
 30
0.0
 11
-0.012093691014757
 21
0.330569837508456
 31
0.0
  0
LINE
  8
5
  6
CONTINUOUS
 62
5
 10
-0.0121110624484787
 20
0.354889844718728
 30
0.0
 11
-0.0120947330073274
 21
0.331299026891167
 31
0.0
  0
LINE
  8
5
  6
CONTINUOUS
 62
5
 10
0.0140155738678694
 20
0.354889844718728
 30
0.0
 11
-0.0121110624484787
 21
0.354889844718728
 31
0.0
  0
ARC
  8
5
  6
CONTINUOUS
 62
5
 10
0.0909712546465353
 20
0.323099670403088
 30
0.0
 40
0.0178873113528454
 50
204.386837237007
 51
324.320000000001
  0
ARC
  8
5
  6
CONTINUOUS
 62
5
 10
0.11572338343916
 20
0.329611229546115
 30
0.0
 40
0.0433324379255252
 50
161.294134617644
 51
198.705865382356
  0
ARC
  8
5
  6
CONTINUOUS
 62
5
 10
0.0909712581208208
 20
0.336122790672162
 30
0.0
 40
0.0178873148271308
 50
35.6800299999892
 51
155.613174782251
  0
LINE
  8
5
  6
CONTINUOUS
 62
5
 10
0.11305288705052
 20
0.305370102361961
 30
0.0
 11
0.126950026646178
 21
0.305370102361961
 31
0.0
  0
LINE
  8
5
  6
CONTINUOUS
 62
5
 10
0.120001455220386
 20
0.306829302342505
 30
0.0
 11
0.120001455220386
 21
0.352550902342505
 31
0.0
  0
LINE
  8
5
  6
CONTINUOUS
 62
5
 10
0.11305288705052
 20
0.354010102342505
 30
0.0
 11
0.126876889028788
 21
0.354010102342505
 31
0.0
  0
LINE
  8
5
  6
CONTINUOUS
 62
5
 10
0.134300889028788
 20
0.305370105518749
 30
0.0
 11
0.134300889028788
 21
0.354010105499293
 31
0.0
  0
LINE
  8
5
  6
CONTINUOUS
 62
5
 10
0.134300889028788
 20
0.354010105499293
 30
0.0
 11
0.151950260450302
 21
0.354010105499293
 31
0.0
  0
ARC
  8
5
  6
CONTINUOUS
 62
5
 10
0.151715909801455
 20
0.341850123505633
 30
0.0
 40
0.0121622400203559
 50
271.095264000539
 51
88.8959160393193
  0
LINE
  8
5
  6
CONTINUOUS
 62
5
 10
0.151948388572198
 20
0.329690105580733
 30
0.0
 11
0.135897188572197
 21
0.329690105580733
 31
0.0
  0
LINE
  8
5
  6
CONTINUOUS
 62
5
 10
0.15264137059772
 20
0.328304346788381
 30
0.0
 11
0.164110260445436
 21
0.305370105518749
 31
0.0
  0
ARC
  8
5
  6
CONTINUOUS
 62
5
 10
0.187554570198003
 20
0.323099670403088
 30
0.0
 40
0.0178873113528451
 50
204.386837237007
 51
324.320000000001
  0
ARC
  8
5
  6
CONTINUOUS
 62
5
 10
0.212306698990628
 20
0.329611229546115
 30
0.0
 40
0.0433324379255252
 50
161.294134617644
 51
198.705865382356
  0
ARC
  8
5
  6
CONTINUOUS
 62
5
 10
0.187554573672289
 20
0.336122790672162
 30
0.0
 40
0.0178873148271308
 50
35.6800299999892
 51
155.613174782251
  0
LINE
  8
5
  6
CONTINUOUS
 62
5
 10
0.206948204580256
 20
0.354010105499293
 30
0.0
 11
0.206948204580256
 21
0.305370105518749
 31
0.0
  0
LINE
  8
5
  6
CONTINUOUS
 62
5
 10
0.206948204580256
 20
0.305370105518749
 30
0.0
 11
0.235472090283132
 21
0.305370105518749
 31
0.0
  0
LINE
  8
5
  6
CONTINUOUS
 62
5
 10
0.270426146077667
 20
0.305369599242345
 30
0.0
 11
0.241902260374791
 21
0.305369599242345
 31
0.0
  0
LINE
  8
5
  6
CONTINUOUS
 62
5
 10
0.241902260374791
 20
0.305369599242345
 30
0.0
 11
0.241884888946226
 21
0.329689599232617
 31
0.0
  0
LINE
  8
5
  6
CONTINUOUS
 62
5
 10
0.241884888946226
 20
0.329689599232617
 30
0.0
 11
0.264172431794454
 21
0.329689599232617
 31
0.0
  0
LINE
  8
5
  6
CONTINUOUS
 62
5
 10
0.241883846953965
 20
0.330418788398851
 30
0.0
 11
0.241867517517662
 21
0.354009599222889
 31
0.0
  0
LINE
  8
5
  6
CONTINUOUS
 62
5
 10
0.241867517517662
 20
0.354009599222889
 30
0.0
 11
0.267994146077667
 21
0.354009599222889
 31
0.0
  0
ARC
  8
5
  6
CONTINUOUS
 62
5
 10
0.28864851650967
 20
0.319362156500542
 30
0.0
 40
0.0140212200172487
 50
210.521999666255
 51
269.441063338047
  0
LINE
  8
5
  6
CONTINUOUS
 62
5
 10
0.288511737680961
 20
0.305341603646817
 30
0.0
 11
0.293468393684919
 21
0.305293248535532
 31
0.0
  0
ARC
  8
5
  6
CONTINUOUS
 62
5
 10
0.293593258818817
 20
0.318092592484178
 30
0.0
 40
0.0127999530005943
 50
269.441063677773
 51
357.350682656725
  0
ARC
  8
5
  6
CONTINUOUS
 62
5
 10
0.29596792967669
 20
0.316556660434873
 30
0.0
 40
0.0104543341672496
 50
5.18227244383237
 51
59.3448299999944
  0
LINE
  8
5
  6
CONTINUOUS
 62
5
 10
0.301298280897848
 20
0.325550016801637
 30
0.0
 11
0.282155170276503
 21
0.333771857319417
 31
0.0
  0
ARC
  8
5
  6
CONTINUOUS
 62
5
 10
0.287485524984766
 20
0.342765209143639
 30
0.0
 40
0.0104543320374925
 50
185.18240644022
 51
239.344800865821
  0
ARC
  8
5
  6
CONTINUOUS
 62
5
 10
0.289808959049373
 20
0.341263087578581
 30
0.0
 40
0.0127472414611007
 50
91.2613438550524
 51
177.491952931064
  0
LINE
  8
5
  6
CONTINUOUS
 62
5
 10
0.289528356252449
 20
0.354007240235308
 30
0.0
 11
0.294473225514245
 21
0.354012439887529
 31
0.0
  0
ARC
  8
5
  6
CONTINUOUS
 62
5
 10
0.294031609349643
 20
0.340441724871898
 30
0.0
 40
0.0135778986176909
 50
29.2717084966238
 51
88.1361471074755
  0
LINE
  8
6
  6
CONTINUOUS
 62
6
 10
0.748031495800008
 20
-0.866141731799998
 30
0.0
 11
-1.05523425496985
 21
-0.866141731799999
 31
0.0
  0
LINE
  8
6
  6
CONTINUOUS
 62
6
 10
0.866141731800008
 20
-0.748031495799998
 30
0.0
 11
0.866141731799996
 21
0.748031495800006
 31
0.0
  0
LINE
  8
6
  6
CONTINUOUS
 62
6
 10
0.748031495799996
 20
0.866141731800007
 30
0.0
 11
-1.05523425498755
 21
0.866141731800003
 31
0.0
  0
LINE
  8
6
  6
CONTINUOUS
 62
6
 10
-1.17334449096985
 20
-0.748031495799998
 30
0.0
 11
-1.17334449098755
 21
0.748031495800004
 31
0.0
  0
ARC
  8
6
  6
CONTINUOUS
 62
6
 10
-1.05523425498755
 20
0.748031495800003
 30
0.0
 40
0.118110236
 50
89.9999999999999
 51
179.999999999999
  0
ARC
  8
6
  6
CONTINUOUS
 62
6
 10
-1.05523425496985
 20
-0.748031495799998
 30
0.0
 40
0.118110236
 50
180
 51
270
  0
LINE
  8
6
  6
CONTINUOUS
 62
6
 10
0.0334158438934395
 20
-0.330707609951942
 30
0.0
 11
0.0612101295966074
 21
-0.330707609951942
 31
0.0
  0
LINE
  8
6
  6
CONTINUOUS
 62
6
 10
0.0473129867450233
 20
-0.344604752803525
 30
0.0
 11
0.0473129867450233
 21
-0.316810467100358
 31
0.0
  0
LINE
  8
6
  6
CONTINUOUS
 62
6
 10
0.0334158438934395
 20
-0.614172176351942
 30
0.0
 11
0.0612101295966078
 21
-0.614172176351942
 31
0.0
  0
LINE
  8
6
  6
CONTINUOUS
 62
6
 10
0.0473129867450236
 20
-0.628069319203525
 30
0.0
 11
0.0473129867450236
 21
-0.600275033500358
 31
0.0
  0
LINE
  8
6
  6
CONTINUOUS
 62
6
 10
-0.335239779857982
 20
-0.449515795353076
 30
0.0
 11
-0.335239779857982
 21
-0.400875795372532
 31
0.0
  0
LINE
  8
6
  6
CONTINUOUS
 62
6
 10
-0.335239779857982
 20
-0.400875795372532
 30
0.0
 11
-0.31759040843647
 21
-0.400875795372531
 31
0.0
  0
ARC
  8
6
  6
CONTINUOUS
 62
6
 10
-0.31831305676215
 20
-0.413035795367667
 30
0.0
 40
0.0121814539560892
 50
273.400991681353
 51
86.5990083186469
  0
LINE
  8
6
  6
CONTINUOUS
 62
6
 10
-0.317590408436469
 20
-0.425195795362803
 30
0.0
 11
-0.334510179857982
 21
-0.425195795362803
 31
0.0
  0
LINE
  8
6
  6
CONTINUOUS
 62
6
 10
-0.298134408441334
 20
-0.449515795353076
 30
0.0
 11
-0.298134408441334
 21
-0.400875795372532
 31
0.0
  0
LINE
  8
6
  6
CONTINUOUS
 62
6
 10
-0.298134408441334
 20
-0.400875795372532
 30
0.0
 11
-0.280485037019819
 21
-0.400875795372531
 31
0.0
  0
ARC
  8
6
  6
CONTINUOUS
 62
6
 10
-0.280719387668667
 20
-0.413035777366191
 30
0.0
 40
0.0121622400203559
 50
271.095264000539
 51
88.8959160393195
  0
LINE
  8
6
  6
CONTINUOUS
 62
6
 10
-0.280486908897923
 20
-0.425195795291092
 30
0.0
 11
-0.296538108897924
 21
-0.425195795291092
 31
0.0
  0
LINE
  8
6
  6
CONTINUOUS
 62
6
 10
-0.279793926872401
 20
-0.426581554083444
 30
0.0
 11
-0.268325037024686
 21
-0.449515795353076
 31
0.0
  0
LINE
  8
6
  6
CONTINUOUS
 62
6
 10
-0.234413266943047
 20
-0.449516301629479
 30
0.0
 11
-0.262937152645922
 21
-0.449516301629479
 31
0.0
  0
LINE
  8
6
  6
CONTINUOUS
 62
6
 10
-0.262937152645922
 20
-0.449516301629479
 30
0.0
 11
-0.262954524074488
 21
-0.425196301639207
 31
0.0
  0
LINE
  8
6
  6
CONTINUOUS
 62
6
 10
-0.262954524074488
 20
-0.425196301639207
 30
0.0
 11
-0.240666981226259
 21
-0.425196301639207
 31
0.0
  0
LINE
  8
6
  6
CONTINUOUS
 62
6
 10
-0.262955566066749
 20
-0.424467112472974
 30
0.0
 11
-0.262971895503052
 21
-0.400876301648935
 31
0.0
  0
LINE
  8
6
  6
CONTINUOUS
 62
6
 10
-0.262971895503052
 20
-0.400876301648935
 30
0.0
 11
-0.236845266943047
 21
-0.400876301648935
 31
0.0
  0
ARC
  8
6
  6
CONTINUOUS
 62
6
 10
-0.216190896511044
 20
-0.435523744371283
 30
0.0
 40
0.0140212200172488
 50
210.521999666256
 51
269.441063338048
  0
LINE
  8
6
  6
CONTINUOUS
 62
6
 10
-0.216327675339754
 20
-0.449544297225008
 30
0.0
 11
-0.211371019335795
 21
-0.449592652336293
 31
0.0
  0
ARC
  8
6
  6
CONTINUOUS
 62
6
 10
-0.211246154201898
 20
-0.436793308387647
 30
0.0
 40
0.0127999530005941
 50
269.441063677773
 51
357.350682656726
  0
ARC
  8
6
  6
CONTINUOUS
 62
6
 10
-0.208871483344023
 20
-0.438329240436951
 30
0.0
 40
0.0104543341672493
 50
5.18227244383072
 51
59.3448299999928
  0
LINE
  8
6
  6
CONTINUOUS
 62
6
 10
-0.203541132122866
 20
-0.429335884070187
 30
0.0
 11
-0.222684242744211
 21
-0.421114043552407
 31
0.0
  0
ARC
  8
6
  6
CONTINUOUS
 62
6
 10
-0.217353888035947
 20
-0.412120691728186
 30
0.0
 40
0.0104543320374924
 50
185.18240644022
 51
239.344800865821
  0
ARC
  8
6
  6
CONTINUOUS
 62
6
 10
-0.215030453971341
 20
-0.413622813293244
 30
0.0
 40
0.0127472414611005
 50
91.2613438550527
 51
177.491952931065
  0
LINE
  8
6
  6
CONTINUOUS
 62
6
 10
-0.215311056768266
 20
-0.400878660636517
 30
0.0
 11
-0.210366187506469
 21
-0.400873460984296
 31
0.0
  0
ARC
  8
6
  6
CONTINUOUS
 62
6
 10
-0.21080780367107
 20
-0.414444175999927
 30
0.0
 40
0.0135778986176909
 50
29.2717084966233
 51
88.1361471074751
  0
ARC
  8
6
  6
CONTINUOUS
 62
6
 10
-0.174345338845169
 20
-0.435523744371283
 30
0.0
 40
0.0140212200172488
 50
210.521999666256
 51
269.441063338048
  0
LINE
  8
6
  6
CONTINUOUS
 62
6
 10
-0.174482117673878
 20
-0.449544297225008
 30
0.0
 11
-0.16952546166992
 21
-0.449592652336293
 31
0.0
  0
ARC
  8
6
  6
CONTINUOUS
 62
6
 10
-0.169400596536022
 20
-0.436793308387647
 30
0.0
 40
0.0127999530005944
 50
269.441063677774
 51
357.350682656726
  0
ARC
  8
6
  6
CONTINUOUS
 62
6
 10
-0.167025925678149
 20
-0.438329240436951
 30
0.0
 40
0.0104543341672497
 50
5.18227244383195
 51
59.3448299999942
  0
LINE
  8
6
  6
CONTINUOUS
 62
6
 10
-0.16169557445699
 20
-0.429335884070187
 30
0.0
 11
-0.180838685078337
 21
-0.421114043552407
 31
0.0
  0
ARC
  8
6
  6
CONTINUOUS
 62
6
 10
-0.175508330370073
 20
-0.412120691728186
 30
0.0
 40
0.0104543320374922
 50
185.182406440218
 51
239.344800865819
  0
ARC
  8
6
  6
CONTINUOUS
 62
6
 10
-0.173184896305466
 20
-0.413622813293244
 30
0.0
 40
0.0127472414611006
 50
91.2613438550522
 51
177.491952931064
  0
LINE
  8
6
  6
CONTINUOUS
 62
6
 10
-0.17346549910239
 20
-0.400878660636517
 30
0.0
 11
-0.168520629840594
 21
-0.400873460984296
 31
0.0
  0
ARC
  8
6
  6
CONTINUOUS
 62
6
 10
-0.168962246005195
 20
-0.414444175999927
 30
0.0
 40
0.0135778986176913
 50
29.2717084966234
 51
88.1361471074752
  0
ARC
  8
6
  6
CONTINUOUS
 62
6
 10
-0.316659470725082
 20
0.426061861752729
 30
0.0
 40
0.0178873113528451
 50
204.38683723701
 51
324.320000000004
  0
ARC
  8
6
  6
CONTINUOUS
 62
6
 10
-0.291907341932456
 20
0.432573420895756
 30
0.0
 40
0.0433324379255255
 50
161.294134617644
 51
198.705865382356
  0
ARC
  8
6
  6
CONTINUOUS
 62
6
 10
-0.316659467250796
 20
0.439084982021803
 30
0.0
 40
0.0178873148271306
 50
35.6800299999888
 51
155.613174782251
  0
LINE
  8
6
  6
CONTINUOUS
 62
6
 10
-0.297265836342829
 20
0.456972296848933
 30
0.0
 11
-0.297265836342829
 21
0.408332296868389
 31
0.0
  0
LINE
  8
6
  6
CONTINUOUS
 62
6
 10
-0.297265836342829
 20
0.408332296868389
 30
0.0
 11
-0.268741950639953
 21
0.408332296868389
 31
0.0
  0
LINE
  8
6
  6
CONTINUOUS
 62
6
 10
-0.260147666905325
 20
0.408332293711602
 30
0.0
 11
-0.246250527309667
 21
0.408332293711602
 31
0.0
  0
LINE
  8
6
  6
CONTINUOUS
 62
6
 10
-0.253199098735458
 20
0.409791493692146
 30
0.0
 11
-0.253199098735458
 21
0.455513093692146
 31
0.0
  0
LINE
  8
6
  6
CONTINUOUS
 62
6
 10
-0.260147666905325
 20
0.456972293692146
 30
0.0
 11
-0.246323664927057
 21
0.456972293692146
 31
0.0
  0
ARC
  8
6
  6
CONTINUOUS
 62
6
 10
-0.222751355174489
 20
0.426061861752729
 30
0.0
 40
0.0178873113528454
 50
204.386837237007
 51
324.320000000001
  0
ARC
  8
6
  6
CONTINUOUS
 62
6
 10
-0.197999226381864
 20
0.432573420895756
 30
0.0
 40
0.0433324379255255
 50
161.294134617644
 51
198.705865382356
  0
ARC
  8
6
  6
CONTINUOUS
 62
6
 10
-0.222751351700203
 20
0.439084982021803
 30
0.0
 40
0.0178873148271308
 50
35.6800299999897
 51
155.613174782251
  0
LINE
  8
6
  6
CONTINUOUS
 62
6
 10
-0.203357720792236
 20
0.456972296848933
 30
0.0
 11
-0.203357720792236
 21
0.408332296868389
 31
0.0
  0
LINE
  8
6
  6
CONTINUOUS
 62
6
 10
-0.176154063660261
 20
0.408332296868389
 30
0.0
 11
-0.190393304289414
 21
0.438185485665318
 31
0.0
  0
LINE
  8
6
  6
CONTINUOUS
 62
6
 10
-0.201930812566017
 20
0.426791601576837
 30
0.0
 11
-0.176154063660261
 21
0.456972296848933
 31
0.0
  0
LINE
  8
6
  6
CONTINUOUS
 62
6
 10
-0.319692347818487
 20
0.117413337446924
 30
0.0
 11
-0.319692347818487
 21
0.164578063163193
 31
0.0
  0
LINE
  8
6
  6
CONTINUOUS
 62
6
 10
-0.335239779857982
 20
0.166053337427468
 30
0.0
 11
-0.304144922727562
 21
0.166053337427468
 31
0.0
  0
LINE
  8
6
  6
CONTINUOUS
 62
6
 10
-0.299280922727563
 20
0.166053334038331
 30
0.0
 11
-0.283963736724002
 21
0.142995204570607
 31
0.0
  0
LINE
  8
6
  6
CONTINUOUS
 62
6
 10
-0.283125494162597
 20
0.117413334057787
 30
0.0
 11
-0.283125494162597
 21
0.141733334048059
 31
0.0
  0
LINE
  8
6
  6
CONTINUOUS
 62
6
 10
-0.283125494162597
 20
0.141733334048059
 30
0.0
 11
-0.26697006559763
 21
0.166053334038331
 31
0.0
  0
LINE
  8
6
  6
CONTINUOUS
 62
6
 10
-0.260890065597631
 20
0.117413334057787
 30
0.0
 11
-0.260890065597631
 21
0.166053334038331
 31
0.0
  0
LINE
  8
6
  6
CONTINUOUS
 62
6
 10
-0.260890065597631
 20
0.166053334038331
 30
0.0
 11
-0.243240694176119
 21
0.166053334038332
 31
0.0
  0
ARC
  8
6
  6
CONTINUOUS
 62
6
 10
-0.243963342501799
 20
0.153893334043196
 30
0.0
 40
0.0121814539560893
 50
273.400991681353
 51
86.5990083186469
  0
LINE
  8
6
  6
CONTINUOUS
 62
6
 10
-0.243240694176118
 20
0.141733334048059
 30
0.0
 11
-0.260160465597631
 21
0.141733334048059
 31
0.0
  0
LINE
  8
6
  6
CONTINUOUS
 62
6
 10
-0.197168924099344
 20
0.117412827781384
 30
0.0
 11
-0.22569280980222
 21
0.117412827781384
 31
0.0
  0
LINE
  8
6
  6
CONTINUOUS
 62
6
 10
-0.22569280980222
 20
0.117412827781384
 30
0.0
 11
-0.225710181230785
 21
0.141732827771656
 31
0.0
  0
LINE
  8
6
  6
CONTINUOUS
 62
6
 10
-0.225710181230785
 20
0.141732827771656
 30
0.0
 11
-0.203422638382557
 21
0.141732827771656
 31
0.0
  0
LINE
  8
6
  6
CONTINUOUS
 62
6
 10
-0.225711223223046
 20
0.142462016937889
 30
0.0
 11
-0.22572755265935
 21
0.166052827761928
 31
0.0
  0
LINE
  8
6
  6
CONTINUOUS
 62
6
 10
-0.22572755265935
 20
0.166052827761928
 30
0.0
 11
-0.199600924099344
 21
0.166052827761928
 31
0.0
  0
LINE
  8
6
  6
CONTINUOUS
 62
6
 10
-0.335239779857982
 20
0.022925148646924
 30
0.0
 11
-0.335239779857982
 21
0.071565148627468
 31
0.0
  0
LINE
  8
6
  6
CONTINUOUS
 62
6
 10
-0.335239779857982
 20
0.071565148627468
 30
0.0
 11
-0.317590408436469
 21
0.0715651486274691
 31
0.0
  0
ARC
  8
6
  6
CONTINUOUS
 62
6
 10
-0.31831305676215
 20
0.0594051486323328
 30
0.0
 40
0.0121814539560893
 50
273.400991681353
 51
86.5990083186469
  0
LINE
  8
6
  6
CONTINUOUS
 62
6
 10
-0.317590408436469
 20
0.0472451486371965
 30
0.0
 11
-0.334510179857982
 21
0.0472451486371961
 31
0.0
  0
LINE
  8
6
  6
CONTINUOUS
 62
6
 10
-0.298134408441333
 20
0.022925148646924
 30
0.0
 11
-0.298134408441333
 21
0.071565148627468
 31
0.0
  0
LINE
  8
6
  6
CONTINUOUS
 62
6
 10
-0.298134408441333
 20
0.071565148627468
 30
0.0
 11
-0.280485037019819
 21
0.0715651486274684
 31
0.0
  0
ARC
  8
6
  6
CONTINUOUS
 62
6
 10
-0.280719387668666
 20
0.0594051666338086
 30
0.0
 40
0.0121622400203558
 50
271.095264000539
 51
88.8959160393193
  0
LINE
  8
6
  6
CONTINUOUS
 62
6
 10
-0.280486908897923
 20
0.0472451487089082
 30
0.0
 11
-0.296538108897923
 21
0.0472451487089082
 31
0.0
  0
LINE
  8
6
  6
CONTINUOUS
 62
6
 10
-0.279793926872401
 20
0.0458593899165555
 30
0.0
 11
-0.268325037024685
 21
0.022925148646924
 31
0.0
  0
LINE
  8
6
  6
CONTINUOUS
 62
6
 10
-0.234413266943047
 20
0.0229246423705209
 30
0.0
 11
-0.262937152645922
 21
0.0229246423705209
 31
0.0
  0
LINE
  8
6
  6
CONTINUOUS
 62
6
 10
-0.262937152645922
 20
0.0229246423705209
 30
0.0
 11
-0.262954524074487
 21
0.0472446423607929
 31
0.0
  0
LINE
  8
6
  6
CONTINUOUS
 62
6
 10
-0.262954524074487
 20
0.0472446423607929
 30
0.0
 11
-0.240666981226259
 21
0.0472446423607929
 31
0.0
  0
LINE
  8
6
  6
CONTINUOUS
 62
6
 10
-0.262955566066749
 20
0.0479738315270264
 30
0.0
 11
-0.262971895503052
 21
0.0715646423510648
 31
0.0
  0
LINE
  8
6
  6
CONTINUOUS
 62
6
 10
-0.262971895503052
 20
0.0715646423510648
 30
0.0
 11
-0.236845266943047
 21
0.0715646423510648
 31
0.0
  0
ARC
  8
6
  6
CONTINUOUS
 62
6
 10
-0.216190896511044
 20
0.0369171996287171
 30
0.0
 40
0.0140212200172487
 50
210.521999666254
 51
269.441063338047
  0
LINE
  8
6
  6
CONTINUOUS
 62
6
 10
-0.216327675339753
 20
0.0228966467749921
 30
0.0
 11
-0.211371019335795
 21
0.0228482916637068
 31
0.0
  0
ARC
  8
6
  6
CONTINUOUS
 62
6
 10
-0.211246154201897
 20
0.0356476356123535
 30
0.0
 40
0.0127999530005942
 50
269.441063677772
 51
357.350682656726
  0
ARC
  8
6
  6
CONTINUOUS
 62
6
 10
-0.208871483344023
 20
0.0341117035630483
 30
0.0
 40
0.0104543341672495
 50
5.18227244383275
 51
59.3448299999948
  0
LINE
  8
6
  6
CONTINUOUS
 62
6
 10
-0.203541132122866
 20
0.0431050599298127
 30
0.0
 11
-0.222684242744211
 21
0.0513269004475927
 31
0.0
  0
ARC
  8
6
  6
CONTINUOUS
 62
6
 10
-0.217353888035947
 20
0.0603202522718139
 30
0.0
 40
0.0104543320374924
 50
185.182406440219
 51
239.344800865821
  0
ARC
  8
6
  6
CONTINUOUS
 62
6
 10
-0.21503045397134
 20
0.0588181307067555
 30
0.0
 40
0.0127472414611009
 50
91.2613438550512
 51
177.491952931063
  0
LINE
  8
6
  6
CONTINUOUS
 62
6
 10
-0.215311056768266
 20
0.0715622833634828
 30
0.0
 11
-0.210366187506469
 21
0.0715674830157038
 31
0.0
  0
ARC
  8
6
  6
CONTINUOUS
 62
6
 10
-0.21080780367107
 20
0.0579967680000735
 30
0.0
 40
0.0135778986176912
 50
29.2717084966239
 51
88.1361471074757
  0
ARC
  8
6
  6
CONTINUOUS
 62
6
 10
-0.174345338845169
 20
0.0369171996287172
 30
0.0
 40
0.0140212200172487
 50
210.521999666254
 51
269.441063338047
  0
LINE
  8
6
  6
CONTINUOUS
 62
6
 10
-0.174482117673878
 20
0.0228966467749921
 30
0.0
 11
-0.16952546166992
 21
0.0228482916637068
 31
0.0
  0
ARC
  8
6
  6
CONTINUOUS
 62
6
 10
-0.169400596536022
 20
0.0356476356123535
 30
0.0
 40
0.0127999530005942
 50
269.441063677774
 51
357.350682656726
  0
ARC
  8
6
  6
CONTINUOUS
 62
6
 10
-0.167025925678148
 20
0.0341117035630482
 30
0.0
 40
0.0104543341672495
 50
5.1822724438326
 51
59.3448299999946
  0
LINE
  8
6
  6
CONTINUOUS
 62
6
 10
-0.16169557445699
 20
0.0431050599298127
 30
0.0
 11
-0.180838685078336
 21
0.0513269004475927
 31
0.0
  0
ARC
  8
6
  6
CONTINUOUS
 62
6
 10
-0.175508330370072
 20
0.0603202522718143
 30
0.0
 40
0.0104543320374926
 50
185.182406440221
 51
239.344800865822
  0
ARC
  8
6
  6
CONTINUOUS
 62
6
 10
-0.173184896305466
 20
0.0588181307067557
 30
0.0
 40
0.0127472414611007
 50
91.2613438550521
 51
177.491952931064
  0
LINE
  8
6
  6
CONTINUOUS
 62
6
 10
-0.17346549910239
 20
0.0715622833634828
 30
0.0
 11
-0.168520629840594
 21
0.0715674830157038
 31
0.0
  0
ARC
  8
6
  6
CONTINUOUS
 62
6
 10
-0.168962246005195
 20
0.0579967680000734
 30
0.0
 40
0.0135778986176912
 50
29.271708496624
 51
88.1361471074758
  0
LINE
  8
6
  6
CONTINUOUS
 62
6
 10
-0.319692347818487
 20
0.495366092646924
 30
0.0
 11
-0.319692347818487
 21
0.542530818363193
 31
0.0
  0
LINE
  8
6
  6
CONTINUOUS
 62
6
 10
-0.335239779857982
 20
0.544006092627468
 30
0.0
 11
-0.304144922727563
 21
0.544006092627468
 31
0.0
  0
LINE
  8
6
  6
CONTINUOUS
 62
6
 10
-0.299280922727563
 20
0.544006089238331
 30
0.0
 11
-0.283963736724002
 21
0.520947959770607
 31
0.0
  0
LINE
  8
6
  6
CONTINUOUS
 62
6
 10
-0.283125494162597
 20
0.495366089257787
 30
0.0
 11
-0.283125494162597
 21
0.519686089248059
 31
0.0
  0
LINE
  8
6
  6
CONTINUOUS
 62
6
 10
-0.283125494162597
 20
0.519686089248059
 30
0.0
 11
-0.26697006559763
 21
0.544006089238331
 31
0.0
  0
LINE
  8
6
  6
CONTINUOUS
 62
6
 10
-0.260890065597631
 20
0.495366089257787
 30
0.0
 11
-0.260890065597631
 21
0.544006089238331
 31
0.0
  0
LINE
  8
6
  6
CONTINUOUS
 62
6
 10
-0.260890065597631
 20
0.544006089238331
 30
0.0
 11
-0.243240694176119
 21
0.544006089238332
 31
0.0
  0
ARC
  8
6
  6
CONTINUOUS
 62
6
 10
-0.243963342501799
 20
0.531846089243196
 30
0.0
 40
0.0121814539560893
 50
273.400991681353
 51
86.5990083186469
  0
LINE
  8
6
  6
CONTINUOUS
 62
6
 10
-0.243240694176118
 20
0.519686089248059
 30
0.0
 11
-0.260160465597631
 21
0.519686089248059
 31
0.0
  0
LINE
  8
6
  6
CONTINUOUS
 62
6
 10
-0.197168924099344
 20
0.495365582981384
 30
0.0
 11
-0.22569280980222
 21
0.495365582981384
 31
0.0
  0
LINE
  8
6
  6
CONTINUOUS
 62
6
 10
-0.22569280980222
 20
0.495365582981384
 30
0.0
 11
-0.225710181230785
 21
0.519685582971656
 31
0.0
  0
LINE
  8
6
  6
CONTINUOUS
 62
6
 10
-0.225710181230785
 20
0.519685582971656
 30
0.0
 11
-0.203422638382557
 21
0.519685582971656
 31
0.0
  0
LINE
  8
6
  6
CONTINUOUS
 62
6
 10
-0.225711223223046
 20
0.520414772137889
 30
0.0
 11
-0.22572755265935
 21
0.544005582961928
 31
0.0
  0
LINE
  8
6
  6
CONTINUOUS
 62
6
 10
-0.22572755265935
 20
0.544005582961928
 30
0.0
 11
-0.199600924099344
 21
0.544005582961928
 31
0.0
  0
LINE
  8
6
  6
CONTINUOUS
 62
6
 10
-0.319692347818486
 20
-0.260539417753076
 30
0.0
 11
-0.319692347818486
 21
-0.213374692036807
 31
0.0
  0
LINE
  8
6
  6
CONTINUOUS
 62
6
 10
-0.335239779857982
 20
-0.211899417772532
 30
0.0
 11
-0.304144922727562
 21
-0.211899417772532
 31
0.0
  0
LINE
  8
6
  6
CONTINUOUS
 62
6
 10
-0.299280922727563
 20
-0.21189942116167
 30
0.0
 11
-0.283963736724002
 21
-0.234957550629393
 31
0.0
  0
LINE
  8
6
  6
CONTINUOUS
 62
6
 10
-0.283125494162597
 20
-0.260539421142214
 30
0.0
 11
-0.283125494162597
 21
-0.236219421151942
 31
0.0
  0
LINE
  8
6
  6
CONTINUOUS
 62
6
 10
-0.283125494162597
 20
-0.236219421151942
 30
0.0
 11
-0.26697006559763
 21
-0.21189942116167
 31
0.0
  0
LINE
  8
6
  6
CONTINUOUS
 62
6
 10
-0.260890065597631
 20
-0.260539421142213
 30
0.0
 11
-0.260890065597631
 21
-0.21189942116167
 31
0.0
  0
LINE
  8
6
  6
CONTINUOUS
 62
6
 10
-0.260890065597631
 20
-0.21189942116167
 30
0.0
 11
-0.243240694176119
 21
-0.211899421161668
 31
0.0
  0
ARC
  8
6
  6
CONTINUOUS
 62
6
 10
-0.243963342501799
 20
-0.224059421156805
 30
0.0
 40
0.0121814539560892
 50
273.400991681353
 51
86.5990083186469
  0
LINE
  8
6
  6
CONTINUOUS
 62
6
 10
-0.243240694176118
 20
-0.236219421151941
 30
0.0
 11
-0.260160465597631
 21
-0.236219421151942
 31
0.0
  0
LINE
  8
6
  6
CONTINUOUS
 62
6
 10
-0.197168924099344
 20
-0.260539927418616
 30
0.0
 11
-0.22569280980222
 21
-0.260539927418616
 31
0.0
  0
LINE
  8
6
  6
CONTINUOUS
 62
6
 10
-0.22569280980222
 20
-0.260539927418616
 30
0.0
 11
-0.225710181230785
 21
-0.236219927428345
 31
0.0
  0
LINE
  8
6
  6
CONTINUOUS
 62
6
 10
-0.225710181230785
 20
-0.236219927428345
 30
0.0
 11
-0.203422638382557
 21
-0.236219927428345
 31
0.0
  0
LINE
  8
6
  6
CONTINUOUS
 62
6
 10
-0.225711223223046
 20
-0.235490738262111
 30
0.0
 11
-0.22572755265935
 21
-0.211899927438073
 31
0.0
  0
LINE
  8
6
  6
CONTINUOUS
 62
6
 10
-0.22572755265935
 20
-0.211899927438073
 30
0.0
 11
-0.199600924099344
 21
-0.211899927438073
 31
0.0
  0
LINE
  8
6
  6
CONTINUOUS
 62
6
 10
-0.319692347818486
 20
-0.638492172953076
 30
0.0
 11
-0.319692347818486
 21
-0.591327447236808
 31
0.0
  0
LINE
  8
6
  6
CONTINUOUS
 62
6
 10
-0.335239779857982
 20
-0.589852172972532
 30
0.0
 11
-0.304144922727562
 21
-0.589852172972532
 31
0.0
  0
LINE
  8
6
  6
CONTINUOUS
 62
6
 10
-0.299280922727563
 20
-0.58985217636167
 30
0.0
 11
-0.283963736724002
 21
-0.612910305829394
 31
0.0
  0
LINE
  8
6
  6
CONTINUOUS
 62
6
 10
-0.283125494162597
 20
-0.638492176342213
 30
0.0
 11
-0.283125494162597
 21
-0.614172176351942
 31
0.0
  0
LINE
  8
6
  6
CONTINUOUS
 62
6
 10
-0.283125494162597
 20
-0.614172176351942
 30
0.0
 11
-0.26697006559763
 21
-0.58985217636167
 31
0.0
  0
LINE
  8
6
  6
CONTINUOUS
 62
6
 10
-0.260890065597631
 20
-0.638492176342213
 30
0.0
 11
-0.260890065597631
 21
-0.58985217636167
 31
0.0
  0
LINE
  8
6
  6
CONTINUOUS
 62
6
 10
-0.260890065597631
 20
-0.58985217636167
 30
0.0
 11
-0.243240694176119
 21
-0.589852176361668
 31
0.0
  0
ARC
  8
6
  6
CONTINUOUS
 62
6
 10
-0.243963342501799
 20
-0.602012176356805
 30
0.0
 40
0.0121814539560891
 50
273.400991681353
 51
86.5990083186469
  0
LINE
  8
6
  6
CONTINUOUS
 62
6
 10
-0.243240694176118
 20
-0.614172176351941
 30
0.0
 11
-0.260160465597631
 21
-0.614172176351942
 31
0.0
  0
LINE
  8
6
  6
CONTINUOUS
 62
6
 10
-0.197168924099344
 20
-0.638492682618616
 30
0.0
 11
-0.225692809802219
 21
-0.638492682618616
 31
0.0
  0
LINE
  8
6
  6
CONTINUOUS
 62
6
 10
-0.225692809802219
 20
-0.638492682618616
 30
0.0
 11
-0.225710181230785
 21
-0.614172682628345
 31
0.0
  0
LINE
  8
6
  6
CONTINUOUS
 62
6
 10
-0.225710181230785
 20
-0.614172682628345
 30
0.0
 11
-0.203422638382557
 21
-0.614172682628345
 31
0.0
  0
LINE
  8
6
  6
CONTINUOUS
 62
6
 10
-0.225711223223046
 20
-0.613443493462111
 30
0.0
 11
-0.22572755265935
 21
-0.589852682638073
 31
0.0
  0
LINE
  8
6
  6
CONTINUOUS
 62
6
 10
-0.22572755265935
 20
-0.589852682638073
 30
0.0
 11
-0.199600924099344
 21
-0.589852682638073
 31
0.0
  0
ARC
  8
6
  6
CONTINUOUS
 62
6
 10
-0.316659470725082
 20
0.324119279931264
 30
0.0
 40
0.0178873113528454
 50
204.386837237007
 51
324.320000000001
  0
ARC
  8
6
  6
CONTINUOUS
 62
6
 10
-0.291907341932457
 20
0.33063083907429
 30
0.0
 40
0.0433324379255252
 50
161.294134617644
 51
198.705865382356
  0
ARC
  8
6
  6
CONTINUOUS
 62
6
 10
-0.316659467250795
 20
0.337142400200337
 30
0.0
 40
0.0178873148271308
 50
35.6800299999893
 51
155.613174782251
  0
LINE
  8
6
  6
CONTINUOUS
 62
6
 10
-0.297265836342829
 20
0.355029715027468
 30
0.0
 11
-0.297265836342829
 21
0.306389715046924
 31
0.0
  0
LINE
  8
6
  6
CONTINUOUS
 62
6
 10
-0.297265836342829
 20
0.306389715046924
 30
0.0
 11
-0.268741950639953
 21
0.306389715046924
 31
0.0
  0
LINE
  8
6
  6
CONTINUOUS
 62
6
 10
-0.260147666905324
 20
0.306389711890137
 30
0.0
 11
-0.246250527309667
 21
0.306389711890137
 31
0.0
  0
LINE
  8
6
  6
CONTINUOUS
 62
6
 10
-0.253199098735458
 20
0.307848911870681
 30
0.0
 11
-0.253199098735458
 21
0.353570511870681
 31
0.0
  0
LINE
  8
6
  6
CONTINUOUS
 62
6
 10
-0.260147666905324
 20
0.355029711870681
 30
0.0
 11
-0.246323664927057
 21
0.355029711870681
 31
0.0
  0
ARC
  8
6
  6
CONTINUOUS
 62
6
 10
-0.222751355174489
 20
0.324119279931264
 30
0.0
 40
0.0178873113528451
 50
204.386837237007
 51
324.320000000001
  0
ARC
  8
6
  6
CONTINUOUS
 62
6
 10
-0.197999226381864
 20
0.33063083907429
 30
0.0
 40
0.0433324379255252
 50
161.294134617644
 51
198.705865382356
  0
ARC
  8
6
  6
CONTINUOUS
 62
6
 10
-0.222751351700203
 20
0.337142400200337
 30
0.0
 40
0.0178873148271308
 50
35.6800299999893
 51
155.613174782251
  0
LINE
  8
6
  6
CONTINUOUS
 62
6
 10
-0.203357720792236
 20
0.355029715027468
 30
0.0
 11
-0.203357720792236
 21
0.306389715046924
 31
0.0
  0
LINE
  8
6
  6
CONTINUOUS
 62
6
 10
-0.17615406366026
 20
0.306389715046924
 30
0.0
 11
-0.190393304289414
 21
0.336242903843853
 31
0.0
  0
LINE
  8
6
  6
CONTINUOUS
 62
6
 10
-0.201930812566017
 20
0.324849019755371
 30
0.0
 11
-0.17615406366026
 21
0.355029715027468
 31
0.0
  0
ARC
  8
6
  6
CONTINUOUS
 62
6
 10
-0.316659470725082
 20
-0.148321664068736
 30
0.0
 40
0.0178873113528451
 50
204.386837237007
 51
324.320000000001
  0
ARC
  8
6
  6
CONTINUOUS
 62
6
 10
-0.291907341932457
 20
-0.14181010492571
 30
0.0
 40
0.0433324379255253
 50
161.294134617644
 51
198.705865382356
  0
ARC
  8
6
  6
CONTINUOUS
 62
6
 10
-0.316659467250796
 20
-0.135298543799663
 30
0.0
 40
0.0178873148271306
 50
35.6800299999894
 51
155.613174782252
  0
LINE
  8
6
  6
CONTINUOUS
 62
6
 10
-0.297265836342829
 20
-0.117411228972532
 30
0.0
 11
-0.297265836342829
 21
-0.166051228953076
 31
0.0
  0
LINE
  8
6
  6
CONTINUOUS
 62
6
 10
-0.297265836342829
 20
-0.166051228953076
 30
0.0
 11
-0.268741950639953
 21
-0.166051228953076
 31
0.0
  0
LINE
  8
6
  6
CONTINUOUS
 62
6
 10
-0.260147666905325
 20
-0.166051232109863
 30
0.0
 11
-0.246250527309667
 21
-0.166051232109863
 31
0.0
  0
LINE
  8
6
  6
CONTINUOUS
 62
6
 10
-0.253199098735458
 20
-0.164592032129319
 30
0.0
 11
-0.253199098735458
 21
-0.118870432129319
 31
0.0
  0
LINE
  8
6
  6
CONTINUOUS
 62
6
 10
-0.260147666905325
 20
-0.117411232129319
 30
0.0
 11
-0.246323664927057
 21
-0.117411232129319
 31
0.0
  0
ARC
  8
6
  6
CONTINUOUS
 62
6
 10
-0.222751355174489
 20
-0.148321664068736
 30
0.0
 40
0.0178873113528454
 50
204.386837237007
 51
324.320000000001
  0
ARC
  8
6
  6
CONTINUOUS
 62
6
 10
-0.197999226381864
 20
-0.14181010492571
 30
0.0
 40
0.0433324379255253
 50
161.294134617644
 51
198.705865382356
  0
ARC
  8
6
  6
CONTINUOUS
 62
6
 10
-0.222751351700203
 20
-0.135298543799663
 30
0.0
 40
0.0178873148271308
 50
35.6800299999893
 51
155.613174782251
  0
LINE
  8
6
  6
CONTINUOUS
 62
6
 10
-0.203357720792236
 20
-0.117411228972532
 30
0.0
 11
-0.203357720792236
 21
-0.166051228953076
 31
0.0
  0
LINE
  8
6
  6
CONTINUOUS
 62
6
 10
-0.176154063660261
 20
-0.166051228953076
 30
0.0
 11
-0.190393304289414
 21
-0.136198040156147
 31
0.0
  0
LINE
  8
6
  6
CONTINUOUS
 62
6
 10
-0.201930812566017
 20
-0.147591924244629
 30
0.0
 11
-0.176154063660261
 21
-0.117411228972532
 31
0.0
  0
ARC
  8
6
  6
CONTINUOUS
 62
6
 10
-0.316659470725082
 20
-0.0463790822472715
 30
0.0
 40
0.0178873113528454
 50
204.386837237007
 51
324.320000000002
  0
ARC
  8
6
  6
CONTINUOUS
 62
6
 10
-0.291907341932456
 20
-0.0398675231042444
 30
0.0
 40
0.0433324379255255
 50
161.294134617644
 51
198.705865382356
  0
ARC
  8
6
  6
CONTINUOUS
 62
6
 10
-0.316659467250796
 20
-0.0333559619781967
 30
0.0
 40
0.0178873148271306
 50
35.6800299999892
 51
155.613174782251
  0
LINE
  8
6
  6
CONTINUOUS
 62
6
 10
-0.297265836342829
 20
-0.0154686471510664
 30
0.0
 11
-0.297265836342829
 21
-0.0641086471316104
 31
0.0
  0
LINE
  8
6
  6
CONTINUOUS
 62
6
 10
-0.297265836342829
 20
-0.0641086471316104
 30
0.0
 11
-0.268741950639953
 21
-0.0641086471316104
 31
0.0
  0
LINE
  8
6
  6
CONTINUOUS
 62
6
 10
-0.260147666905325
 20
-0.0641086502883978
 30
0.0
 11
-0.246250527309667
 21
-0.0641086502883978
 31
0.0
  0
LINE
  8
6
  6
CONTINUOUS
 62
6
 10
-0.253199098735458
 20
-0.0626494503078536
 30
0.0
 11
-0.253199098735458
 21
-0.0169278503078536
 31
0.0
  0
LINE
  8
6
  6
CONTINUOUS
 62
6
 10
-0.260147666905325
 20
-0.0154686503078536
 30
0.0
 11
-0.246323664927057
 21
-0.0154686503078536
 31
0.0
  0
ARC
  8
6
  6
CONTINUOUS
 62
6
 10
-0.222751355174489
 20
-0.0463790822472716
 30
0.0
 40
0.0178873113528451
 50
204.386837237007
 51
324.32
  0
ARC
  8
6
  6
CONTINUOUS
 62
6
 10
-0.197999226381864
 20
-0.0398675231042444
 30
0.0
 40
0.0433324379255255
 50
161.294134617644
 51
198.705865382356
  0
ARC
  8
6
  6
CONTINUOUS
 62
6
 10
-0.222751351700203
 20
-0.0333559619781967
 30
0.0
 40
0.0178873148271306
 50
35.6800299999892
 51
155.613174782251
  0
LINE
  8
6
  6
CONTINUOUS
 62
6
 10
-0.203357720792237
 20
-0.0154686471510664
 30
0.0
 11
-0.203357720792237
 21
-0.0641086471316104
 31
0.0
  0
LINE
  8
6
  6
CONTINUOUS
 62
6
 10
-0.176154063660261
 20
-0.0641086471316104
 30
0.0
 11
-0.190393304289414
 21
-0.0342554583346814
 31
0.0
  0
LINE
  8
6
  6
CONTINUOUS
 62
6
 10
-0.201930812566018
 20
-0.0456493424231636
 30
0.0
 11
-0.176154063660261
 21
-0.0154686471510664
 31
0.0
  0
LINE
  8
6
  6
CONTINUOUS
 62
6
 10
-0.0946866334938992
 20
-0.0641086437424731
 30
0.0
 11
-0.0946866334938992
 21
-0.016943918026204
 31
0.0
  0
LINE
  8
6
  6
CONTINUOUS
 62
6
 10
-0.110234065533394
 20
-0.0154686437619291
 30
0.0
 11
-0.0791392084029752
 21
-0.0154686437619291
 31
0.0
  0
ARC
  8
6
  6
CONTINUOUS
 62
6
 10
-0.0579467768619768
 20
-0.0497299211131939
 30
0.0
 40
0.0144724686149979
 50
196.004825930419
 51
267.948379947901
  0
ARC
  8
6
  6
CONTINUOUS
 62
6
 10
-0.0308147667010095
 20
-0.0398230889709244
 30
0.0
 40
0.0433324379255236
 50
161.294116943038
 51
198.705883056962
  0
ARC
  8
6
  6
CONTINUOUS
 62
6
 10
-0.0579467749468895
 20
-0.029948598357394
 30
0.0
 40
0.0144814209756651
 50
16.1288893758942
 51
163.872176621307
  0
ARC
  8
6
  6
CONTINUOUS
 62
6
 10
-0.0850787703990968
 20
-0.0398230889723859
 30
0.0
 40
0.043332437925519
 50
341.293755627023
 51
18.7062443729768
  0
ARC
  8
6
  6
CONTINUOUS
 62
6
 10
-0.0579467768619784
 20
-0.0497299211131915
 30
0.0
 40
0.0144724686149993
 50
272.763973435184
 51
343.994108060193
  0
LINE
  8
6
  6
CONTINUOUS
 62
6
 10
-0.0346592084029758
 20
-0.0641086471316104
 30
0.0
 11
-0.0346592084029758
 21
-0.0154686471510664
 31
0.0
  0
LINE
  8
6
  6
CONTINUOUS
 62
6
 10
-0.0346592084029758
 20
-0.0154686471510664
 30
0.0
 11
-0.0170098369814635
 21
-0.0154686471510653
 31
0.0
  0
ARC
  8
6
  6
CONTINUOUS
 62
6
 10
-0.0177324853071439
 20
-0.0276286471462016
 30
0.0
 40
0.0121814539560893
 50
273.400991681353
 51
86.5990083186469
  0
LINE
  8
6
  6
CONTINUOUS
 62
6
 10
-0.0170098369814632
 20
-0.0397886471413379
 30
0.0
 11
-0.0339296084029754
 21
-0.0397886471413384
 31
0.0
  0
LINE
  8
6
  6
CONTINUOUS
 62
6
 10
-0.319692347818487
 20
-0.355027606553076
 30
0.0
 11
-0.319692347818487
 21
-0.307862880836807
 31
0.0
  0
LINE
  8
6
  6
CONTINUOUS
 62
6
 10
-0.335239779857982
 20
-0.306387606572532
 30
0.0
 11
-0.304144922727563
 21
-0.306387606572532
 31
0.0
  0
LINE
  8
6
  6
CONTINUOUS
 62
6
 10
-0.299280922727563
 20
-0.306387609961669
 30
0.0
 11
-0.283963736724002
 21
-0.329445739429393
 31
0.0
  0
LINE
  8
6
  6
CONTINUOUS
 62
6
 10
-0.283125494162597
 20
-0.355027609942214
 30
0.0
 11
-0.283125494162597
 21
-0.330707609951941
 31
0.0
  0
LINE
  8
6
  6
CONTINUOUS
 62
6
 10
-0.283125494162597
 20
-0.330707609951941
 30
0.0
 11
-0.26697006559763
 21
-0.306387609961669
 31
0.0
  0
LINE
  8
6
  6
CONTINUOUS
 62
6
 10
-0.260890065597631
 20
-0.355027609942213
 30
0.0
 11
-0.260890065597631
 21
-0.306387609961669
 31
0.0
  0
LINE
  8
6
  6
CONTINUOUS
 62
6
 10
-0.260890065597631
 20
-0.306387609961669
 30
0.0
 11
-0.243240694176119
 21
-0.306387609961668
 31
0.0
  0
ARC
  8
6
  6
CONTINUOUS
 62
6
 10
-0.243963342501799
 20
-0.318547609956804
 30
0.0
 40
0.0121814539560892
 50
273.400991681353
 51
86.5990083186469
  0
LINE
  8
6
  6
CONTINUOUS
 62
6
 10
-0.243240694176118
 20
-0.330707609951941
 30
0.0
 11
-0.260160465597631
 21
-0.330707609951941
 31
0.0
  0
LINE
  8
6
  6
CONTINUOUS
 62
6
 10
-0.197168924099344
 20
-0.355028116218616
 30
0.0
 11
-0.22569280980222
 21
-0.355028116218616
 31
0.0
  0
LINE
  8
6
  6
CONTINUOUS
 62
6
 10
-0.22569280980222
 20
-0.355028116218616
 30
0.0
 11
-0.225710181230785
 21
-0.330708116228344
 31
0.0
  0
LINE
  8
6
  6
CONTINUOUS
 62
6
 10
-0.225710181230785
 20
-0.330708116228344
 30
0.0
 11
-0.203422638382557
 21
-0.330708116228344
 31
0.0
  0
LINE
  8
6
  6
CONTINUOUS
 62
6
 10
-0.225711223223046
 20
-0.329978927062111
 30
0.0
 11
-0.22572755265935
 21
-0.306388116238072
 31
0.0
  0
LINE
  8
6
  6
CONTINUOUS
 62
6
 10
-0.22572755265935
 20
-0.306388116238072
 30
0.0
 11
-0.199600924099344
 21
-0.306388116238072
 31
0.0
  0
LINE
  8
6
  6
CONTINUOUS
 62
6
 10
-0.319692347818487
 20
-0.544003984153076
 30
0.0
 11
-0.319692347818487
 21
-0.496839258436807
 31
0.0
  0
LINE
  8
6
  6
CONTINUOUS
 62
6
 10
-0.335239779857982
 20
-0.495363984172532
 30
0.0
 11
-0.304144922727563
 21
-0.495363984172532
 31
0.0
  0
LINE
  8
6
  6
CONTINUOUS
 62
6
 10
-0.299280922727563
 20
-0.495363987561669
 30
0.0
 11
-0.283963736724002
 21
-0.518422117029393
 31
0.0
  0
LINE
  8
6
  6
CONTINUOUS
 62
6
 10
-0.283125494162597
 20
-0.544003987542213
 30
0.0
 11
-0.283125494162597
 21
-0.519683987551941
 31
0.0
  0
LINE
  8
6
  6
CONTINUOUS
 62
6
 10
-0.283125494162597
 20
-0.519683987551941
 30
0.0
 11
-0.26697006559763
 21
-0.495363987561669
 31
0.0
  0
LINE
  8
6
  6
CONTINUOUS
 62
6
 10
-0.260890065597631
 20
-0.544003987542213
 30
0.0
 11
-0.260890065597631
 21
-0.495363987561669
 31
0.0
  0
LINE
  8
6
  6
CONTINUOUS
 62
6
 10
-0.260890065597631
 20
-0.495363987561669
 30
0.0
 11
-0.243240694176119
 21
-0.495363987561668
 31
0.0
  0
ARC
  8
6
  6
CONTINUOUS
 62
6
 10
-0.243963342501799
 20
-0.507523987556804
 30
0.0
 40
0.0121814539560894
 50
273.400991681353
 51
86.5990083186469
  0
LINE
  8
6
  6
CONTINUOUS
 62
6
 10
-0.243240694176118
 20
-0.519683987551941
 30
0.0
 11
-0.260160465597631
 21
-0.519683987551941
 31
0.0
  0
LINE
  8
6
  6
CONTINUOUS
 62
6
 10
-0.197168924099344
 20
-0.544004493818616
 30
0.0
 11
-0.22569280980222
 21
-0.544004493818616
 31
0.0
  0
LINE
  8
6
  6
CONTINUOUS
 62
6
 10
-0.22569280980222
 20
-0.544004493818616
 30
0.0
 11
-0.225710181230785
 21
-0.519684493828344
 31
0.0
  0
LINE
  8
6
  6
CONTINUOUS
 62
6
 10
-0.225710181230785
 20
-0.519684493828344
 30
0.0
 11
-0.203422638382557
 21
-0.519684493828344
 31
0.0
  0
LINE
  8
6
  6
CONTINUOUS
 62
6
 10
-0.225711223223046
 20
-0.518955304662111
 30
0.0
 11
-0.22572755265935
 21
-0.495364493838073
 31
0.0
  0
LINE
  8
6
  6
CONTINUOUS
 62
6
 10
-0.22572755265935
 20
-0.495364493838073
 30
0.0
 11
-0.199600924099344
 21
-0.495364493838073
 31
0.0
  0
ARC
  8
6
  6
CONTINUOUS
 62
6
 10
0.072662594554672
 20
-0.049729921113194
 30
0.0
 40
0.0144724686149978
 50
196.004825930419
 51
267.948379947901
  0
ARC
  8
6
  6
CONTINUOUS
 62
6
 10
0.0997946047156392
 20
-0.0398230889709244
 30
0.0
 40
0.0433324379255234
 50
161.294116943038
 51
198.705883056962
  0
ARC
  8
6
  6
CONTINUOUS
 62
6
 10
0.0726625964697591
 20
-0.029948598357394
 30
0.0
 40
0.014481420975665
 50
16.1288893758944
 51
163.872176621307
  0
ARC
  8
6
  6
CONTINUOUS
 62
6
 10
0.0455306010175522
 20
-0.0398230889723859
 30
0.0
 40
0.0433324379255189
 50
341.293755627023
 51
18.7062443729768
  0
ARC
  8
6
  6
CONTINUOUS
 62
6
 10
0.0726625945546702
 20
-0.0497299211131913
 30
0.0
 40
0.0144724686149994
 50
272.763973435186
 51
343.994108060196
  0
LINE
  8
6
  6
CONTINUOUS
 62
6
 10
0.119441375240465
 20
-0.0397875546088942
 30
0.0
 11
0.0986234552404648
 21
-0.0397875546088942
 31
0.0
  0
LINE
  8
6
  6
CONTINUOUS
 62
6
 10
0.0971712038208016
 20
-0.0641075545991664
 30
0.0
 11
0.0971712038208016
 21
-0.0154675546186223
 31
0.0
  0
LINE
  8
6
  6
CONTINUOUS
 62
6
 10
0.0971712038208016
 20
-0.0154675546186223
 30
0.0
 11
0.12326308952368
 21
-0.0154675546186223
 31
0.0
  0
ARC
  8
6
  6
CONTINUOUS
 62
6
 10
0.19768089458385
 20
-0.0312810290752494
 30
0.0
 40
0.0159869247264111
 50
48.941696866411
 51
146.027978045882
  0
ARC
  8
6
  6
CONTINUOUS
 62
6
 10
0.200935807683678
 20
-0.0275070508382879
 30
0.0
 40
0.0110033017255822
 50
1.31476494656023E-6
 51
48.8140713147681
  0
ARC
  8
6
  6
CONTINUOUS
 62
6
 10
0.199793223699831
 20
-0.0275070505857924
 30
0.0
 40
0.0121458857094294
 50
279.088113900684
 51
359.999999999982
  0
ARC
  8
6
  6
CONTINUOUS
 62
6
 10
0.200461565203506
 20
-0.0516273615913319
 30
0.0
 40
0.0121911645871068
 50
19.4344258931589
 51
84.1142708141173
  0
ARC
  8
6
  6
CONTINUOUS
 62
6
 10
0.20119208179633
 20
-0.0514529275196821
 30
0.0
 40
0.0114445013303422
 50
307.790503302606
 51
19.827771284045
  0
ARC
  8
6
  6
CONTINUOUS
 62
6
 10
0.197860298117305
 20
-0.0462973823821294
 30
0.0
 40
0.0175682251942947
 50
216.483006233946
 51
306.074034537
  0
LINE
  8
6
  6
CONTINUOUS
 62
6
 10
0.223724794656766
 20
-0.0641086542119662
 30
0.0
 11
0.223724794656766
 21
-0.0154686542314222
 31
0.0
  0
LINE
  8
6
  6
CONTINUOUS
 62
6
 10
0.223724794656766
 20
-0.0154686542314222
 30
0.0
 11
0.237291900932403
 21
-0.0154686548513672
 31
0.0
  0
ARC
  8
6
  6
CONTINUOUS
 62
6
 10
0.23561396713201
 20
-0.0332770958242988
 30
0.0
 40
0.0178873148271311
 50
24.3863827720524
 51
84.6174099999924
  0
ARC
  8
6
  6
CONTINUOUS
 62
6
 10
0.210861856752846
 20
-0.0397886547780073
 30
0.0
 40
0.0433324379255234
 50
341.29431327019
 51
18.7056867298099
  0
ARC
  8
6
  6
CONTINUOUS
 62
6
 10
0.235613970606295
 20
-0.0463002126190915
 30
0.0
 40
0.0178873113528482
 50
275.382450717135
 51
335.613608269933
  0
LINE
  8
6
  6
CONTINUOUS
 62
6
 10
0.237291860789449
 20
-0.0641086542119713
 30
0.0
 11
0.224940794656767
 21
-0.0641086542119662
 31
0.0
  0
LINE
  8
6
  6
CONTINUOUS
 62
6
 10
0.324269265656115
 20
-0.0397281518700168
 30
0.0
 11
0.341835625263646
 21
-0.0397281518700168
 31
0.0
  0
ARC
  8
6
  6
CONTINUOUS
 62
6
 10
0.341831779933685
 20
-0.0518881512571528
 30
0.0
 40
0.0121599999951361
 50
270.000000002514
 51
89.9818814817913
  0
LINE
  8
6
  6
CONTINUOUS
 62
6
 10
0.341831779934218
 20
-0.0640481512522888
 30
0.0
 11
0.322810065656114
 21
-0.0640481512522888
 31
0.0
  0
LINE
  8
6
  6
CONTINUOUS
 62
6
 10
0.322810065656114
 20
-0.0640481512522888
 30
0.0
 11
0.322810065656114
 21
-0.0154686471510664
 31
0.0
  0
LINE
  8
6
  6
CONTINUOUS
 62
6
 10
0.322810065656114
 20
-0.0154686471510664
 30
0.0
 11
0.339660351363662
 21
-0.0154686471510664
 31
0.0
  0
ARC
  8
6
  6
CONTINUOUS
 62
6
 10
0.339563182619375
 20
-0.0276773865154273
 30
0.0
 40
0.012209126038819
 50
296.191824756091
 51
89.5439953928127
  0
ARC
  8
6
  6
CONTINUOUS
 62
6
 10
0.375184211469818
 20
-0.0497299211131941
 30
0.0
 40
0.0144724686149978
 50
196.00482593042
 51
267.948379947902
  0
ARC
  8
6
  6
CONTINUOUS
 62
6
 10
0.402316221630786
 20
-0.0398230889709244
 30
0.0
 40
0.0433324379255234
 50
161.294116943038
 51
198.705883056962
  0
ARC
  8
6
  6
CONTINUOUS
 62
6
 10
0.375184213384906
 20
-0.029948598357394
 30
0.0
 40
0.0144814209756649
 50
16.1288893758944
 51
163.872176621307
  0
ARC
  8
6
  6
CONTINUOUS
 62
6
 10
0.348052217932698
 20
-0.0398230889723859
 30
0.0
 40
0.0433324379255189
 50
341.293755627023
 51
18.7062443729768
  0
ARC
  8
6
  6
CONTINUOUS
 62
6
 10
0.375184211469816
 20
-0.0497299211131913
 30
0.0
 40
0.0144724686149996
 50
272.763973435186
 51
343.994108060193
  0
LINE
  8
6
  6
CONTINUOUS
 62
6
 10
0.39725577992882
 20
-0.0154686471510664
 30
0.0
 11
0.427482065631015
 21
-0.0641086471316104
 31
0.0
  0
LINE
  8
6
  6
CONTINUOUS
 62
6
 10
0.395171208501082
 20
-0.0641086471316104
 30
0.0
 11
0.425397494203278
 21
-0.0154686471510664
 31
0.0
  0
LINE
  8
6
  6
CONTINUOUS
 62
6
 10
-0.0343956807638343
 20
0.495366092646924
 30
0.0
 11
-0.0343956807638343
 21
0.542530832144137
 31
0.0
  0
LINE
  8
6
  6
CONTINUOUS
 62
6
 10
-0.0499431173460946
 20
0.544006106839468
 30
0.0
 11
-0.018848251130147
 21
0.544006106839468
 31
0.0
  0
LINE
  8
6
  6
CONTINUOUS
 62
6
 10
-0.013984249708947
 20
0.54400610345033
 30
0.0
 11
-0.013984249708947
 21
0.495366089257785
 31
0.0
  0
LINE
  8
6
  6
CONTINUOUS
 62
6
 10
-0.012525049282587
 20
0.519686096354057
 30
0.0
 11
0.014032398477165
 21
0.519686096354057
 31
0.0
  0
LINE
  8
6
  6
CONTINUOUS
 62
6
 10
0.0155471874793833
 20
0.495366089257785
 30
0.0
 11
0.0155471874793833
 21
0.54400610345033
 31
0.0
  0
LINE
  8
6
  6
CONTINUOUS
 62
6
 10
0.0494589674696171
 20
0.495365582981235
 30
0.0
 11
0.0209350734324186
 21
0.495365582981235
 31
0.0
  0
LINE
  8
6
  6
CONTINUOUS
 62
6
 10
0.0209350734324186
 20
0.495365582981235
 30
0.0
 11
0.0209177019987778
 21
0.519685590077507
 31
0.0
  0
LINE
  8
6
  6
CONTINUOUS
 62
6
 10
0.0209177019987778
 20
0.519685590077507
 30
0.0
 11
0.043205251359147
 21
0.519685590077507
 31
0.0
  0
LINE
  8
6
  6
CONTINUOUS
 62
6
 10
0.0209166600062123
 20
0.5204147794568
 30
0.0
 11
0.0209003305651376
 21
0.544005597173778
 31
0.0
  0
LINE
  8
6
  6
CONTINUOUS
 62
6
 10
0.0209003305651376
 20
0.544005597173778
 30
0.0
 11
0.047026966759017
 21
0.544005597173778
 31
0.0
  0
LINE
  8
6
  6
CONTINUOUS
 62
6
 10
0.052530968367217
 20
0.495366089238329
 30
0.0
 11
0.0525309739805246
 21
0.544006097488492
 31
0.0
  0
LINE
  8
6
  6
CONTINUOUS
 62
6
 10
0.0525309739805246
 20
0.544006097488492
 30
0.0
 11
0.0823982588858984
 21
0.495366083295948
 31
0.0
  0
LINE
  8
6
  6
CONTINUOUS
 62
6
 10
0.0823982588858984
 20
0.495366083295948
 30
0.0
 11
0.0823982588858984
 21
0.544006097488492
 31
0.0
  0
LINE
  8
6
  6
CONTINUOUS
 62
6
 10
-0.319692347818487
 20
0.589854281446924
 30
0.0
 11
-0.319692347818487
 21
0.637019007163193
 31
0.0
  0
LINE
  8
6
  6
CONTINUOUS
 62
6
 10
-0.335239779857982
 20
0.638494281427468
 30
0.0
 11
-0.304144922727563
 21
0.638494281427468
 31
0.0
  0
LINE
  8
6
  6
CONTINUOUS
 62
6
 10
-0.299280922727563
 20
0.638494278038331
 30
0.0
 11
-0.283963736724002
 21
0.615436148570607
 31
0.0
  0
LINE
  8
6
  6
CONTINUOUS
 62
6
 10
-0.283125494162597
 20
0.589854278057787
 30
0.0
 11
-0.283125494162597
 21
0.614174278048059
 31
0.0
  0
LINE
  8
6
  6
CONTINUOUS
 62
6
 10
-0.283125494162597
 20
0.614174278048059
 30
0.0
 11
-0.26697006559763
 21
0.638494278038331
 31
0.0
  0
LINE
  8
6
  6
CONTINUOUS
 62
6
 10
-0.260890065597631
 20
0.589854278057787
 30
0.0
 11
-0.260890065597631
 21
0.638494278038331
 31
0.0
  0
LINE
  8
6
  6
CONTINUOUS
 62
6
 10
-0.260890065597631
 20
0.638494278038331
 30
0.0
 11
-0.243240694176119
 21
0.638494278038332
 31
0.0
  0
ARC
  8
6
  6
CONTINUOUS
 62
6
 10
-0.243963342501799
 20
0.626334278043196
 30
0.0
 40
0.0121814539560893
 50
273.400991681353
 51
86.5990083186469
  0
LINE
  8
6
  6
CONTINUOUS
 62
6
 10
-0.243240694176118
 20
0.614174278048059
 30
0.0
 11
-0.260160465597631
 21
0.614174278048059
 31
0.0
  0
LINE
  8
6
  6
CONTINUOUS
 62
6
 10
-0.197168924099344
 20
0.589853771781384
 30
0.0
 11
-0.22569280980222
 21
0.589853771781384
 31
0.0
  0
LINE
  8
6
  6
CONTINUOUS
 62
6
 10
-0.22569280980222
 20
0.589853771781384
 30
0.0
 11
-0.225710181230785
 21
0.614173771771656
 31
0.0
  0
LINE
  8
6
  6
CONTINUOUS
 62
6
 10
-0.225710181230785
 20
0.614173771771656
 30
0.0
 11
-0.203422638382557
 21
0.614173771771656
 31
0.0
  0
LINE
  8
6
  6
CONTINUOUS
 62
6
 10
-0.225711223223046
 20
0.61490296093789
 30
0.0
 11
-0.22572755265935
 21
0.638493771761928
 31
0.0
  0
LINE
  8
6
  6
CONTINUOUS
 62
6
 10
-0.22572755265935
 20
0.638493771761928
 30
0.0
 11
-0.199600924099344
 21
0.638493771761928
 31
0.0
  0
LINE
  8
6
  6
CONTINUOUS
 62
6
 10
-0.319692347818487
 20
0.211901526246924
 30
0.0
 11
-0.319692347818487
 21
0.259066251963193
 31
0.0
  0
LINE
  8
6
  6
CONTINUOUS
 62
6
 10
-0.335239779857982
 20
0.260541526227468
 30
0.0
 11
-0.304144922727563
 21
0.260541526227468
 31
0.0
  0
LINE
  8
6
  6
CONTINUOUS
 62
6
 10
-0.299280922727563
 20
0.260541522838331
 30
0.0
 11
-0.283963736724002
 21
0.237483393370607
 31
0.0
  0
LINE
  8
6
  6
CONTINUOUS
 62
6
 10
-0.283125494162597
 20
0.211901522857787
 30
0.0
 11
-0.283125494162597
 21
0.236221522848059
 31
0.0
  0
LINE
  8
6
  6
CONTINUOUS
 62
6
 10
-0.283125494162597
 20
0.236221522848059
 30
0.0
 11
-0.26697006559763
 21
0.260541522838331
 31
0.0
  0
LINE
  8
6
  6
CONTINUOUS
 62
6
 10
-0.260890065597631
 20
0.211901522857787
 30
0.0
 11
-0.260890065597631
 21
0.260541522838331
 31
0.0
  0
LINE
  8
6
  6
CONTINUOUS
 62
6
 10
-0.260890065597631
 20
0.260541522838331
 30
0.0
 11
-0.243240694176119
 21
0.260541522838332
 31
0.0
  0
ARC
  8
6
  6
CONTINUOUS
 62
6
 10
-0.243963342501799
 20
0.248381522843196
 30
0.0
 40
0.0121814539560893
 50
273.400991681353
 51
86.5990083186469
  0
LINE
  8
6
  6
CONTINUOUS
 62
6
 10
-0.243240694176118
 20
0.236221522848059
 30
0.0
 11
-0.260160465597631
 21
0.236221522848059
 31
0.0
  0
LINE
  8
6
  6
CONTINUOUS
 62
6
 10
-0.197168924099344
 20
0.211901016581384
 30
0.0
 11
-0.22569280980222
 21
0.211901016581384
 31
0.0
  0
LINE
  8
6
  6
CONTINUOUS
 62
6
 10
-0.22569280980222
 20
0.211901016581384
 30
0.0
 11
-0.225710181230785
 21
0.236221016571656
 31
0.0
  0
LINE
  8
6
  6
CONTINUOUS
 62
6
 10
-0.225710181230785
 20
0.236221016571656
 30
0.0
 11
-0.203422638382557
 21
0.236221016571656
 31
0.0
  0
LINE
  8
6
  6
CONTINUOUS
 62
6
 10
-0.225711223223046
 20
0.236950205737889
 30
0.0
 11
-0.22572755265935
 21
0.260541016561928
 31
0.0
  0
LINE
  8
6
  6
CONTINUOUS
 62
6
 10
-0.22572755265935
 20
0.260541016561928
 30
0.0
 11
-0.199600924099344
 21
0.260541016561928
 31
0.0
  0
ARC
  8
6
  6
CONTINUOUS
 62
6
 10
0.748031495799996
 20
0.748031495800008
 30
0.0
 40
0.118110236
 50
359.999999999999
 51
89.9999999999999
  0
ARC
  8
6
  6
CONTINUOUS
 62
6
 10
0.748031495800009
 20
-0.748031495799998
 30
0.0
 40
0.118110236
 50
269.999999999999
 51
359.999999999999
  0
ARC
  8
9
  6
CONTINUOUS
 62
9
 10
-0.629921260082818
 20
-0.629921260033654
 30
0.0
 40
0.157480314717184
 50
359.999999904793
 51
90.0000000824279
  0
ARC
  8
9
  6
CONTINUOUS
 62
9
 10
-0.62992126031002
 20
0.629921260308739
 30
0.0
 40
0.157480314992259
 50
270.000000000233
 51
2.33567213587955E-10
  0
ARC
  8
9
  6
CONTINUOUS
 62
9
 10
0.629921260172161
 20
0.629921260170871
 30
0.0
 40
0.157480314854396
 50
179.999999949606
 51
270.000000049921
  0
LINE
  8
9
  6
CONTINUOUS
 62
9
 10
-0.692913386000001
 20
-0.409448819716476
 30
0.0
 11
-0.692913386000001
 21
0.409448819716481
 31
0.0
  0
LINE
  8
9
  6
CONTINUOUS
 62
9
 10
-0.409448819717766
 20
0.692913386000003
 30
0.0
 11
0.409448819717766
 21
0.692913386000003
 31
0.0
  0
ARC
  8
9
  6
CONTINUOUS
 62
9
 10
0.6299212604
 20
0.409448819716483
 30
0.0
 40
0.0629921256000001
 50
359.999999999996
 51
90.0000000824278
  0
ARC
  8
9
  6
CONTINUOUS
 62
9
 10
0.409448819717766
 20
0.629921260400006
 30
0.0
 40
0.0629921256000002
 50
359.999999917568
 51
89.999999999999
  0
ARC
  8
9
  6
CONTINUOUS
 62
9
 10
-0.409448819717766
 20
0.629921260400003
 30
0.0
 40
0.0629921256
 50
89.9999999999992
 51
180.000000082429
  0
ARC
  8
9
  6
CONTINUOUS
 62
9
 10
-0.629921260400001
 20
0.409448819716481
 30
0.0
 40
0.0629921256000001
 50
89.9999999175705
 51
180
  0
ARC
  8
9
  6
CONTINUOUS
 62
9
 10
-0.629921260400001
 20
-0.409448819716478
 30
0.0
 40
0.0629921256000002
 50
179.999999999997
 51
270.000000082426
  0
ARC
  8
9
  6
CONTINUOUS
 62
9
 10
-0.409448819765634
 20
-0.629921260400002
 30
0.0
 40
0.0629921256
 50
179.999999904794
 51
269.999999999997
  0
ARC
  8
9
  6
CONTINUOUS
 62
9
 10
0.629921260172162
 20
-0.629921260170875
 30
0.0
 40
0.157480314854397
 50
89.9999999500777
 51
180.000000050391
  0
ARC
  8
9
  6
CONTINUOUS
 62
9
 10
0.629921260400004
 20
-0.409448819716478
 30
0.0
 40
0.0629921256000001
 50
269.999999917568
 51
359.999999999996
  0
ARC
  8
9
  6
CONTINUOUS
 62
9
 10
0.409448819717769
 20
-0.6299212604
 30
0.0
 40
0.0629921256000002
 50
269.999999999996
 51
8.24278339857605E-8
  0
LINE
  8
9
  6
CONTINUOUS
 62
9
 10
-0.409448819765634
 20
-0.692913385999998
 30
0.0
 11
0.409448819717766
 21
-0.692913385999998
 31
0.0
  0
LINE
  8
9
  6
CONTINUOUS
 62
9
 10
0.692913386000001
 20
0.409448819716481
 30
0.0
 11
0.692913386000001
 21
-0.409448819716478
 31
0.0
  0
ARC
  8
9
  6
CONTINUOUS
 62
9
 10
-0.0973104310862016
 20
-0.151638064046164
 30
0.0
 40
0.014472472911512
 50
196.00482593042
 51
267.948379947902
  0
ARC
  8
9
  6
CONTINUOUS
 62
9
 10
-0.0701784128704189
 20
-0.141731228962804
 30
0.0
 40
0.043332450789841
 50
161.294116943038
 51
198.705883056962
  0
ARC
  8
9
  6
CONTINUOUS
 62
9
 10
-0.0973104291711136
 20
-0.131856735417785
 30
0.0
 40
0.0144814252748368
 50
16.1288893758946
 51
163.872176621307
  0
ARC
  8
9
  6
CONTINUOUS
 62
9
 10
-0.124442432678132
 20
-0.141731228964266
 30
0.0
 40
0.0433324507898365
 50
341.293755627023
 51
18.7062443729767
  0
ARC
  8
9
  6
CONTINUOUS
 62
9
 10
-0.0973104310862039
 20
-0.151638064046163
 30
0.0
 40
0.0144724729115136
 50
272.763973435186
 51
343.994108060196
  0
LINE
  8
9
  6
CONTINUOUS
 62
9
 10
-0.0728068553527031
 20
-0.117376779912722
 30
0.0
 11
-0.0728068553527031
 21
-0.166016794333266
 31
0.0
  0
LINE
  8
9
  6
CONTINUOUS
 62
9
 10
-0.0551574786915322
 20
-0.117376779912721
 30
0.0
 11
-0.0728068553527031
 21
-0.117376779912722
 31
0.0
  0
ARC
  8
9
  6
CONTINUOUS
 62
9
 10
-0.0553918294099523
 20
-0.129536765516375
 30
0.0
 40
0.0121622436310209
 50
271.09526400054
 51
88.895916039319
  0
LINE
  8
9
  6
CONTINUOUS
 62
9
 10
-0.0712105553353925
 20
-0.141696787051281
 30
0.0
 11
-0.055159350570192
 21
-0.141696787051281
 31
0.0
  0
LINE
  8
9
  6
CONTINUOUS
 62
9
 10
-0.0429974750863978
 20
-0.166016794333266
 30
0.0
 11
-0.0544663683389403
 21
-0.143082546255031
 31
0.0
  0
LINE
  8
9
  6
CONTINUOUS
 62
9
 10
-0.0198934682346942
 20
-0.117376779912722
 30
0.0
 11
-0.0381334736423983
 21
-0.166016794333266
 31
0.0
  0
LINE
  8
9
  6
CONTINUOUS
 62
9
 10
-0.00165346282699
 20
-0.166016794333266
 30
0.0
 11
-0.0198934682346942
 21
-0.117376779912722
 31
0.0
  0
LINE
  8
9
  6
CONTINUOUS
 62
9
 10
-0.00702123584755521
 20
-0.155593934100292
 30
0.0
 11
-0.0327657006218331
 21
-0.155593934100292
 31
0.0
  0
LINE
  8
9
  6
CONTINUOUS
 62
9
 10
0.00385054442031751
 20
-0.11737678587456
 30
0.0
 11
0.00385053880701
 21
-0.166016794352722
 31
0.0
  0
LINE
  8
9
  6
CONTINUOUS
 62
9
 10
0.0337178294656944
 20
-0.166016800295103
 30
0.0
 11
0.00385054442031751
 21
-0.11737678587456
 31
0.0
  0
LINE
  8
9
  6
CONTINUOUS
 62
9
 10
0.0337178294656944
 20
-0.11737678587456
 30
0.0
 11
0.0337178294656944
 21
-0.166016800295103
 31
0.0
  0
LINE
  8
9
  6
CONTINUOUS
 62
9
 10
0.0731110025981625
 20
-0.144511709973527
 30
0.0
 11
0.0525871949279403
 21
-0.144511709973527
 31
0.0
  0
ARC
  8
9
  6
CONTINUOUS
 62
9
 10
0.0731110025981651
 20
-0.145970764486681
 30
0.0
 40
0.00145905451315412
 50
1.01389722135694E-10
 51
90.0000000001009
  0
LINE
  8
9
  6
CONTINUOUS
 62
9
 10
0.0745700571113192
 20
-0.149643474966725
 30
0.0
 11
0.0745700571113192
 21
-0.145970764486679
 31
0.0
  0
ARC
  8
9
  6
CONTINUOUS
 62
9
 10
0.0580094246988649
 20
-0.149770562733719
 30
0.0
 40
0.0165611200466924
 50
200.855259280575
 51
0.439684280073687
  0
ARC
  8
9
  6
CONTINUOUS
 62
9
 10
0.0835732161416144
 20
-0.141772050461388
 30
0.0
 40
0.043328117544758
 50
161.293996529298
 51
198.703982620842
  0
ARC
  8
9
  6
CONTINUOUS
 62
9
 10
0.0588235934177009
 20
-0.135261039649638
 30
0.0
 40
0.0178855314054134
 50
35.6800300000032
 51
155.613174782207
  0
LINE
  8
9
  6
CONTINUOUS
 62
9
 10
0.080167198849184
 20
-0.166017300609819
 30
0.0
 11
0.108691093020088
 21
-0.166017300609819
 31
0.0
  0
LINE
  8
9
  6
CONTINUOUS
 62
9
 10
0.0801498274154616
 20
-0.141697293399547
 30
0.0
 11
0.080167198849184
 21
-0.166017300609819
 31
0.0
  0
LINE
  8
9
  6
CONTINUOUS
 62
9
 10
0.102437376880304
 20
-0.141697293399547
 30
0.0
 11
0.0801498274154616
 21
-0.141697293399547
 31
0.0
  0
LINE
  8
9
  6
CONTINUOUS
 62
9
 10
0.08013245598174
 20
-0.117377286189275
 30
0.0
 11
0.0801487854228912
 21
-0.140968104016835
 31
0.0
  0
LINE
  8
9
  6
CONTINUOUS
 62
9
 10
0.106259092298088
 20
-0.117377286189275
 30
0.0
 11
0.08013245598174
 21
-0.117377286189275
 31
0.0
  0
ARC
  8
9
  6
CONTINUOUS
 62
9
 10
0.183233485581858
 20
-0.152024739197582
 30
0.0
 40
0.0140212241797985
 50
210.521999666257
 51
269.44106333805
  0
LINE
  8
9
  6
CONTINUOUS
 62
9
 10
0.188053364188008
 20
-0.166093651339299
 30
0.0
 11
0.183096706712542
 21
-0.166045296213659
 31
0.0
  0
ARC
  8
9
  6
CONTINUOUS
 62
9
 10
0.188178229358975
 20
-0.153294303590848
 30
0.0
 40
0.0127999568005803
 50
269.441063677773
 51
357.350682656726
  0
ARC
  8
9
  6
CONTINUOUS
 62
9
 10
0.19055290092183
 20
-0.154830236096133
 30
0.0
 40
0.01045433727088
 50
5.18227244383174
 51
59.3448299999938
  0
LINE
  8
9
  6
CONTINUOUS
 62
9
 10
0.176740137420978
 20
-0.137615034100827
 30
0.0
 11
0.195883253725435
 21
-0.145836877059466
 31
0.0
  0
ARC
  8
9
  6
CONTINUOUS
 62
9
 10
0.182070493711691
 20
-0.128621679606704
 30
0.0
 40
0.0104543351411223
 50
185.18240644022
 51
239.344800865822
  0
ARC
  8
9
  6
CONTINUOUS
 62
9
 10
0.184393928466068
 20
-0.130123801617705
 30
0.0
 40
0.0127472452454379
 50
91.2613438550526
 51
177.491952931064
  0
LINE
  8
9
  6
CONTINUOUS
 62
9
 10
0.189058196315643
 20
-0.117374445523793
 30
0.0
 11
0.184113325585838
 21
-0.117379645177558
 31
0.0
  0
ARC
  8
9
  6
CONTINUOUS
 62
9
 10
0.188616580019938
 20
-0.130945164568229
 30
0.0
 40
0.0135779026486297
 50
29.2717084966243
 51
88.136147107476
  0
LINE
  8
9
  6
CONTINUOUS
 62
9
 10
0.209288680550863
 20
-0.166016794333266
 30
0.0
 11
0.209288680550863
 21
-0.117376779912722
 31
0.0
  0
LINE
  8
9
  6
CONTINUOUS
 62
9
 10
0.237305328868303
 20
-0.141696787122994
 30
0.0
 11
0.210747880984063
 21
-0.141696787122994
 31
0.0
  0
LINE
  8
9
  6
CONTINUOUS
 62
9
 10
0.238820117877622
 20
-0.117376779912722
 30
0.0
 11
0.238820117877622
 21
-0.166016794333266
 31
0.0
  0
LINE
  8
9
  6
CONTINUOUS
 62
9
 10
0.261924124729326
 20
-0.117376779912722
 30
0.0
 11
0.243684119321622
 21
-0.166016794333266
 31
0.0
  0
LINE
  8
9
  6
CONTINUOUS
 62
9
 10
0.28016413013703
 20
-0.166016794333266
 30
0.0
 11
0.261924124729326
 21
-0.117376779912722
 31
0.0
  0
LINE
  8
9
  6
CONTINUOUS
 62
9
 10
0.274796357116466
 20
-0.155593934100292
 30
0.0
 11
0.249051892342188
 21
-0.155593934100292
 31
0.0
  0
LINE
  8
9
  6
CONTINUOUS
 62
9
 10
0.28624413194203
 20
-0.117376779912722
 30
0.0
 11
0.28624413194203
 21
-0.166016794333266
 31
0.0
  0
LINE
  8
9
  6
CONTINUOUS
 62
9
 10
0.303893508603199
 20
-0.117376779912721
 30
0.0
 11
0.28624413194203
 21
-0.117376779912722
 31
0.0
  0
ARC
  8
9
  6
CONTINUOUS
 62
9
 10
0.303170860062983
 20
-0.129536783517857
 30
0.0
 40
0.0121814575724584
 50
273.400991681353
 51
86.5990083186468
  0
LINE
  8
9
  6
CONTINUOUS
 62
9
 10
0.28697373215863
 20
-0.141696787122994
 30
0.0
 11
0.3038935086032
 21
-0.141696787122993
 31
0.0
  0
LINE
  8
9
  6
CONTINUOUS
 62
9
 10
0.321441398186627
 20
-0.166017300609819
 30
0.0
 11
0.349965292357531
 21
-0.166017300609819
 31
0.0
  0
LINE
  8
9
  6
CONTINUOUS
 62
9
 10
0.321424026752905
 20
-0.141697293399547
 30
0.0
 11
0.321441398186627
 21
-0.166017300609819
 31
0.0
  0
LINE
  8
9
  6
CONTINUOUS
 62
9
 10
0.343711576217747
 20
-0.141697293399547
 30
0.0
 11
0.321424026752905
 21
-0.141697293399547
 31
0.0
  0
LINE
  8
9
  6
CONTINUOUS
 62
9
 10
0.321406655319183
 20
-0.117377286189275
 30
0.0
 11
0.321422984760334
 21
-0.140968104016835
 31
0.0
  0
LINE
  8
9
  6
CONTINUOUS
 62
9
 10
0.347533291635531
 20
-0.117377286189275
 30
0.0
 11
0.321406655319183
 21
-0.117377286189275
 31
0.0
  0
ENDSEC
  0
EOF
