999
File generated by Conversation
0
SECTION
2
HEADER
0
SECTION
2
HEADER
9
$ACADVER
1
AC1021
9
$INSBASE
10
0.0
20
0.0
30
0.0
9
$INSUNITS
70
4
9
$EXTMIN
10
0.0
20
0.0
30
0.0
9
$EXTMAX
10
1000.0
20
1000.0
30
0.0
0
ENDSEC
0
SECTION
2
TABLES
0
TABLE
2
LTYPE
70
1
0
LTYPE
2
CONTINUOUS
70
64
3
Solid line
72
65
73
0
40
0.0
0
ENDTAB
0
TABLE
2
LAYER
70
1
0
LAYER
2
0
70
64
62
7
6
CONTINUOUS
0
ENDTAB
0
TABLE
2
STYLE
70
1
0
STYLE
2
STANDARD
70
0
40
0.0
41
1.0
50
0.0
71
0
42
0.2
3
txt
4

0
ENDTAB
0
ENDSEC
0
SECTION
2
ENTITIES
0
LINE
8
0
62
0
10
20.030199
20
28.096222
30
0.0
11
19.780199
21
27.846222
31
0.0
0
LINE
8
0
62
0
10
19.311129
20
28.096222
30
0.0
11
19.061127
21
27.846222
31
0.0
0
LINE
8
0
62
0
10
20.030199
20
22.606728
30
0.0
11
19.780199
21
22.356728
31
0.0
0
LINE
8
0
62
0
10
17.872782
20
28.096222
30
0.0
11
17.622782
21
27.846222
31
0.0
0
LINE
8
0
62
0
10
16.698177
20
28.096222
30
0.0
11
16.448177
21
27.846222
31
0.0
0
LINE
8
0
62
0
10
17.417299
20
22.606728
30
0.0
11
17.167299
21
22.356728
31
0.0
0
LINE
8
0
62
0
10
11.722980
20
27.846222
30
0.0
11
11.972980
21
28.096222
31
0.0
0
LINE
8
0
62
0
10
12.466078
20
27.846222
30
0.0
11
12.716078
21
28.096222
31
0.0
0
LINE
8
0
62
0
10
12.466078
20
22.356728
30
0.0
11
12.716078
21
22.606728
31
0.0
0
LINE
8
0
62
0
10
7.887805
20
27.846222
30
0.0
11
8.137805
21
28.096222
31
0.0
0
LINE
8
0
62
0
10
11.195888
20
27.846222
30
0.0
11
11.445889
21
28.096222
31
0.0
0
LINE
8
0
62
0
10
11.195888
20
27.222939
30
0.0
11
11.445889
21
27.472940
31
0.0
0
LINE
8
0
62
0
10
9.901426
20
22.356728
30
0.0
11
10.151426
21
22.606728
31
0.0
0
LINE
8
0
62
0
10
6.180110
20
27.846222
30
0.0
11
6.430110
21
28.096222
31
0.0
0
LINE
8
0
62
0
10
7.186908
20
27.846222
30
0.0
11
7.436908
21
28.096222
31
0.0
0
LINE
8
0
62
0
10
5.628763
20
22.356728
30
0.0
11
5.878763
21
22.606728
31
0.0
0
LINE
8
0
62
0
10
8.457416
20
22.356728
30
0.0
11
8.707416
21
22.606728
31
0.0
0
LINE
8
0
62
0
10
6.030765
20
24.226519
30
0.0
11
6.280764
21
24.476519
31
0.0
0
LINE
8
0
62
0
10
-2.164263
20
27.846222
30
0.0
11
-1.914263
21
28.096222
31
0.0
0
LINE
8
0
62
0
10
-1.421144
20
25.431038
30
0.0
11
-1.171144
21
25.681038
31
0.0
0
LINE
8
0
62
0
10
-1.421144
20
22.356728
30
0.0
11
-1.171144
21
22.606728
31
0.0
0
LINE
8
0
62
0
10
0.927447
20
22.356728
30
0.0
11
1.177447
21
22.606728
31
0.0
0
LINE
8
0
62
0
10
-5.160475
20
27.846222
30
0.0
11
-4.910475
21
28.096222
31
0.0
0
LINE
8
0
62
0
10
-2.691404
20
27.846222
30
0.0
11
-2.441404
21
28.096222
31
0.0
0
LINE
8
0
62
0
10
-2.691404
20
27.222939
30
0.0
11
-2.441404
21
27.472940
31
0.0
0
LINE
8
0
62
0
10
-2.787287
20
25.473030
30
0.0
11
-2.537287
21
25.723030
31
0.0
0
LINE
8
0
62
0
10
-2.787287
20
24.849802
30
0.0
11
-2.537287
21
25.099802
31
0.0
0
LINE
8
0
62
0
10
-2.643452
20
22.980009
30
0.0
11
-2.393452
21
23.230011
31
0.0
0
LINE
8
0
62
0
10
-2.643452
20
22.356728
30
0.0
11
-2.393452
21
22.606728
31
0.0
0
LINE
8
0
62
0
10
-4.417345
20
25.473030
30
0.0
11
-4.167345
21
25.723030
31
0.0
0
LINE
8
0
62
0
10
-4.167345
20
23.230011
30
0.0
11
-4.417345
21
22.980009
31
0.0
0
LINE
8
0
62
0
10
-6.886201
20
22.356728
30
0.0
11
-6.636201
21
22.606728
31
0.0
0
LINE
8
0
62
0
10
-6.180747
20
28.096222
30
0.0
11
-6.430747
21
27.846222
31
0.0
0
LINE
8
0
62
0
10
-5.687605
20
27.846222
30
0.0
11
-5.437605
21
28.096222
31
0.0
0
LINE
8
0
62
0
10
-8.204617
20
27.846222
30
0.0
11
-7.954617
21
28.096222
31
0.0
0
LINE
8
0
62
0
10
-8.995699
20
27.846222
30
0.0
11
-8.745699
21
28.096222
31
0.0
0
LINE
8
0
62
0
10
-10.241923
20
27.846222
30
0.0
11
-9.991923
21
28.096222
31
0.0
0
LINE
8
0
62
0
10
-9.522852
20
27.846222
30
0.0
11
-9.272852
21
28.096222
31
0.0
0
LINE
8
0
62
0
10
-9.522852
20
22.356728
30
0.0
11
-9.272852
21
22.606728
31
0.0
0
LINE
8
0
62
0
10
-11.680269
20
27.846222
30
0.0
11
-11.430270
21
28.096222
31
0.0
0
LINE
8
0
62
0
10
-12.854873
20
27.846222
30
0.0
11
-12.604873
21
28.096222
31
0.0
0
LINE
8
0
62
0
10
-12.135752
20
22.356728
30
0.0
11
-11.885752
21
22.606728
31
0.0
0
LINE
8
0
62
0
10
-16.821720
20
26.366976
30
0.0
11
-16.571720
21
26.616976
31
0.0
0
LINE
8
0
62
0
10
-16.821732
20
23.836412
30
0.0
11
-16.571732
21
24.086412
31
0.0
0
LINE
8
0
62
0
10
-17.521799
20
23.836412
30
0.0
11
-17.271801
21
24.086412
31
0.0
0
LINE
8
0
62
0
10
2.139387
20
23.836412
30
0.0
11
2.389387
21
24.086412
31
0.0
0
LINE
8
0
62
0
10
1.439291
20
23.836412
30
0.0
11
1.689291
21
24.086412
31
0.0
0
LINE
8
0
62
0
10
4.397771
20
26.366976
30
0.0
11
4.647770
21
26.616976
31
0.0
0
LINE
8
0
62
0
10
13.678006
20
23.836412
30
0.0
11
13.928006
21
24.086412
31
0.0
0
LINE
8
0
62
0
10
15.936368
20
26.366976
30
0.0
11
16.186367
21
26.616976
31
0.0
0
LINE
8
0
62
0
10
15.936368
20
23.836412
30
0.0
11
16.186367
21
24.086412
31
0.0
0
LINE
8
0
62
0
10
13.678006
20
26.366976
30
0.0
11
13.928006
21
26.616976
31
0.0
0
LINE
8
0
62
0
10
-15.625046
20
23.836412
30
0.0
11
-15.375046
21
24.086412
31
0.0
0
LINE
8
0
62
0
10
-15.625046
20
26.366976
30
0.0
11
-15.375046
21
26.616976
31
0.0
0
LINE
8
0
62
0
10
-13.366683
20
26.366976
30
0.0
11
-13.116683
21
26.616976
31
0.0
0
LINE
8
0
62
0
10
-13.366683
20
23.836412
30
0.0
11
-13.116683
21
24.086412
31
0.0
0
LINE
8
0
62
0
10
-19.080086
20
23.836412
30
0.0
11
-18.830088
21
24.086412
31
0.0
0
LINE
8
0
62
0
10
-19.080086
20
26.366976
30
0.0
11
-18.830088
21
26.616976
31
0.0
0
LINE
8
0
62
0
10
3.585907
20
25.156586
30
0.0
11
3.835907
21
25.406586
31
0.0
0
LINE
8
0
62
0
10
2.567050
20
25.671568
30
0.0
11
2.817050
21
25.921568
31
0.0
0
LINE
8
0
62
0
10
-0.606705
20
27.846222
30
0.0
11
-0.356705
21
28.096222
31
0.0
0
LINE
8
0
62
0
10
0.647571
20
24.203575
30
0.0
11
0.897571
21
24.453575
31
0.0
0
LINE
8
0
62
0
10
-19.346939
20
27.412958
30
0.0
11
-19.096939
21
27.662958
31
0.0
0
LINE
8
0
62
0
10
-15.891910
20
27.412958
30
0.0
11
-15.641910
21
27.662958
31
0.0
0
LINE
8
0
62
0
10
-17.254990
20
22.790432
30
0.0
11
-17.004990
21
23.040434
31
0.0
0
LINE
8
0
62
0
10
-13.799943
20
22.790430
30
0.0
11
-13.549943
21
23.040430
31
0.0
0
LINE
8
0
62
0
10
0.478093
20
25.227306
30
0.0
11
0.728094
21
25.477308
31
0.0
0
LINE
8
0
62
0
10
3.964502
20
22.790436
30
0.0
11
4.214502
21
23.040436
31
0.0
0
LINE
8
0
62
0
10
1.872545
20
27.412958
30
0.0
11
2.122545
21
27.662958
31
0.0
0
LINE
8
0
62
0
10
15.503108
20
22.790430
30
0.0
11
15.753108
21
23.040430
31
0.0
0
LINE
8
0
62
0
10
13.411142
20
27.412958
30
0.0
11
13.661142
21
27.662958
31
0.0
0
LINE
8
0
62
0
10
-0.356694
20
25.681038
30
0.0
11
-0.606694
21
25.431038
31
0.0
0
LINE
8
0
62
1
10
-10.241923
20
24.194635
30
0.0
11
-10.241923
21
23.123833
31
0.0
0
LINE
8
0
62
1
10
-10.241923
20
27.846222
30
0.0
11
-9.522852
21
27.846222
31
0.0
0
LINE
8
0
62
1
10
-9.522852
20
27.846222
30
0.0
11
-9.522852
21
22.356728
31
0.0
0
LINE
8
0
62
1
10
-9.522852
20
22.356728
30
0.0
11
-10.697454
21
22.356728
31
0.0
0
LINE
8
0
62
1
10
-10.697454
20
22.356728
30
0.0
11
-11.885752
21
26.159252
31
0.0
0
LINE
8
0
62
1
10
-12.135752
20
26.959246
30
0.0
11
-12.135752
21
22.356728
31
0.0
0
LINE
8
0
62
1
10
-12.135752
20
22.356728
30
0.0
11
-12.854873
21
22.356728
31
0.0
0
LINE
8
0
62
1
10
-12.854873
20
22.356728
30
0.0
11
-12.854873
21
27.846222
31
0.0
0
LINE
8
0
62
1
10
-12.854873
20
27.846222
30
0.0
11
-11.680269
21
27.846222
31
0.0
0
LINE
8
0
62
1
10
-11.680269
20
27.846222
30
0.0
11
-10.241923
21
23.123833
31
0.0
0
LINE
8
0
62
1
10
-19.080086
20
26.366976
30
0.0
11
-19.080086
21
23.836412
31
0.0
0
ARC
8
0
62
1
10
-18.300943
20
23.836412
30
0.0
40
0.779144
50
180.000000
51
328.113800
0
LINE
8
0
62
1
10
-17.521799
20
23.836412
30
0.0
11
-16.821732
21
23.836412
31
0.0
0
ARC
8
0
62
1
10
-18.300968
20
23.836412
30
0.0
40
1.479237
50
180.000000
51
315.000000
0
LINE
8
0
62
1
10
-19.780207
20
23.836412
30
0.0
11
-19.780199
21
26.366976
31
0.0
0
ARC
8
0
62
1
10
-18.300961
20
26.366976
30
0.0
40
1.479240
50
0.000000
51
128.136475
0
LINE
8
0
62
1
10
-16.821720
20
26.366976
30
0.0
11
-17.521799
21
26.366976
31
0.0
0
ARC
8
0
62
1
10
-18.300943
20
26.366976
30
0.0
40
0.779144
50
0.000000
51
121.886200
0
ARC
8
0
62
1
10
-14.845903
20
26.366976
30
0.0
40
0.779141
50
0.000000
51
121.886169
0
ARC
8
0
62
1
10
-14.845926
20
26.366976
30
0.0
40
1.479243
50
0.000000
51
128.136475
0
ARC
8
0
62
1
10
-14.845903
20
23.836412
30
0.0
40
0.779141
50
180.000000
51
328.113831
0
LINE
8
0
62
1
10
-15.625046
20
23.836412
30
0.0
11
-15.625046
21
26.366976
31
0.0
0
ARC
8
0
62
1
10
-14.845926
20
23.836412
30
0.0
40
1.479243
50
180.000000
51
315.000000
0
LINE
8
0
62
1
10
-13.366683
20
23.836412
30
0.0
11
-13.366683
21
26.366976
31
0.0
0
LINE
8
0
62
1
10
-16.325169
20
23.836412
30
0.0
11
-16.325169
21
26.366976
31
0.0
0
LINE
8
0
62
1
10
-14.066763
20
23.836412
30
0.0
11
-14.066763
21
26.366976
31
0.0
0
LINE
8
0
62
1
10
-11.885752
20
26.159252
30
0.0
11
-12.135752
21
26.959246
31
0.0
0
LINE
8
0
62
1
10
-10.241923
20
24.194635
30
0.0
11
-10.241923
21
27.846222
31
0.0
0
ARC
8
0
62
1
10
-18.300943
20
23.836412
30
0.0
40
0.779144
50
328.113800
51
0.000000
0
ARC
8
0
62
1
10
-18.300943
20
26.366976
30
0.0
40
0.779144
50
121.886200
51
180.000000
0
ARC
8
0
62
1
10
-18.300961
20
26.366976
30
0.0
40
1.479240
50
128.136475
51
135.000000
0
ARC
8
0
62
1
10
-18.300968
20
23.836412
30
0.0
40
1.479237
50
321.863556
51
0.000000
0
ARC
8
0
62
1
10
-14.845903
20
26.366976
30
0.0
40
0.779141
50
121.886169
51
180.000000
0
ARC
8
0
62
1
10
-14.845903
20
23.836412
30
0.0
40
0.779141
50
328.113831
51
0.000000
0
ARC
8
0
62
1
10
-14.845926
20
26.366976
30
0.0
40
1.479243
50
128.136475
51
135.000000
0
ARC
8
0
62
1
10
-14.845926
20
23.836412
30
0.0
40
1.479243
50
321.863525
51
0.000000
0
ARC
8
0
62
1
10
-18.300961
20
26.366976
30
0.0
40
1.479240
50
135.000000
51
180.000000
0
ARC
8
0
62
1
10
-14.845926
20
26.366976
30
0.0
40
1.479243
50
135.000000
51
180.000000
0
ARC
8
0
62
1
10
-18.300968
20
23.836412
30
0.0
40
1.479237
50
315.000000
51
321.863556
0
ARC
8
0
62
1
10
-14.845926
20
23.836412
30
0.0
40
1.479243
50
315.000000
51
321.863525
0
LINE
8
0
62
2
10
-7.305701
20
23.195774
30
0.0
11
-7.158555
21
23.977873
31
0.0
0
LINE
8
0
62
2
10
-6.430747
20
27.846222
30
0.0
11
-5.687605
21
27.846222
31
0.0
0
LINE
8
0
62
2
10
-5.687605
20
27.846222
30
0.0
11
-6.886201
21
22.356728
31
0.0
0
LINE
8
0
62
2
10
-6.886201
20
22.356728
30
0.0
11
-7.821080
21
22.356728
31
0.0
0
LINE
8
0
62
2
10
-7.821080
20
22.356728
30
0.0
11
-8.995699
21
27.846222
31
0.0
0
LINE
8
0
62
2
10
-8.995699
20
27.846222
30
0.0
11
-8.204617
21
27.846222
31
0.0
0
LINE
8
0
62
2
10
-8.204617
20
27.846222
30
0.0
11
-7.305701
21
23.195774
31
0.0
0
LINE
8
0
62
2
10
-4.417345
20
27.222939
30
0.0
11
-4.417345
21
25.473030
31
0.0
0
LINE
8
0
62
2
10
-4.417345
20
25.473030
30
0.0
11
-2.787287
21
25.473030
31
0.0
0
LINE
8
0
62
2
10
-2.787287
20
25.473030
30
0.0
11
-2.787287
21
24.849802
31
0.0
0
LINE
8
0
62
2
10
-2.787287
20
24.849802
30
0.0
11
-4.167345
21
24.849802
31
0.0
0
LINE
8
0
62
2
10
-4.417345
20
24.849802
30
0.0
11
-4.417345
21
22.980009
31
0.0
0
LINE
8
0
62
2
10
-4.417345
20
22.980009
30
0.0
11
-2.643452
21
22.980009
31
0.0
0
LINE
8
0
62
2
10
-2.643452
20
22.980009
30
0.0
11
-2.643452
21
22.356728
31
0.0
0
LINE
8
0
62
2
10
-2.643452
20
22.356728
30
0.0
11
-5.160475
21
22.356728
31
0.0
0
LINE
8
0
62
2
10
-5.160475
20
22.356728
30
0.0
11
-5.160475
21
27.846222
31
0.0
0
LINE
8
0
62
2
10
-5.160475
20
27.846222
30
0.0
11
-2.691404
21
27.846222
31
0.0
0
LINE
8
0
62
2
10
-2.691404
20
27.846222
30
0.0
11
-2.691404
21
27.222939
31
0.0
0
LINE
8
0
62
2
10
-2.691404
20
27.222939
30
0.0
11
-4.167345
21
27.222939
31
0.0
0
LINE
8
0
62
2
10
-1.421144
20
27.193026
30
0.0
11
-1.421144
21
25.431038
31
0.0
0
LINE
8
0
62
2
10
-2.164263
20
27.846222
30
0.0
11
-0.606705
21
27.846222
31
0.0
0
ARC
8
0
62
2
10
-0.606696
20
26.312096
30
0.0
40
1.534125
50
302.855255
51
315.000000
0
ARC
8
0
62
2
10
-0.779988
20
23.987255
30
0.0
40
1.443856
50
8.616516
51
45.856628
0
LINE
8
0
62
2
10
0.647571
20
24.203575
30
0.0
11
0.927447
21
22.356728
31
0.0
0
LINE
8
0
62
2
10
0.927447
20
22.356728
30
0.0
11
0.274310
21
22.356728
31
0.0
0
LINE
8
0
62
2
10
0.274310
20
22.356728
30
0.0
11
0.001323
21
24.108944
31
0.0
0
ARC
8
0
62
2
10
-0.779931
20
23.987213
30
0.0
40
0.790681
50
8.856232
51
90.007751
0
LINE
8
0
62
2
10
-0.780039
20
24.777895
30
0.0
11
-1.171144
21
24.777861
31
0.0
0
LINE
8
0
62
2
10
-1.421144
20
24.777840
30
0.0
11
-1.421144
21
22.356728
31
0.0
0
LINE
8
0
62
2
10
-1.421144
20
22.356728
30
0.0
11
-2.164263
21
22.356728
31
0.0
0
LINE
8
0
62
2
10
-2.164263
20
22.356728
30
0.0
11
-2.164263
21
27.846222
31
0.0
0
ARC
8
0
62
2
10
-0.606694
20
26.312033
30
0.0
40
0.880993
50
270.000000
51
326.575317
0
LINE
8
0
62
2
10
-0.606694
20
27.193026
30
0.0
11
-1.171144
21
27.193026
31
0.0
0
ARC
8
0
62
1
10
-5.577670
20
0.149069
30
0.0
40
0.408630
50
213.433289
51
270.015991
0
ARC
8
0
62
1
10
-5.527824
20
0.151651
30
0.0
40
0.414209
50
263.104156
51
34.097916
0
ARC
8
0
62
1
10
-5.590726
20
0.030721
30
0.0
40
0.538017
50
41.023712
51
127.558533
0
LINE
8
0
62
1
10
-5.918687
20
1.025988
30
0.0
11
-5.918687
21
0.457224
31
0.0
0
LINE
8
0
62
1
10
-5.142229
20
1.025988
30
0.0
11
-5.918687
21
1.025988
31
0.0
0
ARC
8
0
62
1
10
-4.651171
20
0.058970
30
0.0
40
0.314943
50
199.465439
51
268.514557
0
ARC
8
0
62
1
10
-3.764172
20
0.384489
30
0.0
40
1.259770
50
160.019180
51
199.980820
0
ARC
8
0
62
1
10
-4.649718
20
0.709641
30
0.0
40
0.316435
50
19.447348
51
160.559586
0
ARC
8
0
62
1
10
-5.535264
20
0.384489
30
0.0
40
1.259770
50
340.017426
51
19.982561
0
ARC
8
0
62
1
10
-4.647237
20
0.057262
30
0.0
40
0.313407
50
271.354980
51
340.759247
0
LINE
8
0
62
1
10
-5.378723
20
-11.847923
30
0.0
11
-5.378723
21
-13.132179
31
0.0
0
LINE
8
0
62
1
10
-6.043784
20
-12.829462
30
0.0
11
-5.378723
21
-11.847923
31
0.0
0
LINE
8
0
62
1
10
-5.190670
20
-12.829462
30
0.0
11
-6.043784
21
-12.829462
31
0.0
0
LINE
8
0
62
1
10
-4.291691
20
-11.847923
30
0.0
11
-5.062245
21
-11.847923
31
0.0
0
ARC
8
0
62
1
10
-2.343174
20
-13.132397
30
0.0
40
2.333793
50
146.606873
51
179.994705
0
LINE
8
0
62
2
10
-1.421144
20
25.431038
30
0.0
11
-0.606694
21
25.431038
31
0.0
0
LINE
8
0
62
2
10
-1.171144
20
27.193026
30
0.0
11
-1.421144
21
27.193026
31
0.0
0
ARC
8
0
62
2
10
-0.606694
20
26.312033
30
0.0
40
0.880993
50
326.575317
51
90.000000
0
LINE
8
0
62
2
10
-1.171144
20
24.777861
30
0.0
11
-1.421144
21
24.777840
31
0.0
0
ARC
8
0
62
2
10
-0.606696
20
26.312096
30
0.0
40
1.534125
50
321.616882
51
90.000305
0
ARC
8
0
62
2
10
-0.606696
20
26.312096
30
0.0
40
1.534125
50
316.154449
51
321.616882
0
LINE
8
0
62
2
10
-4.167345
20
24.849802
30
0.0
11
-4.417345
21
24.849802
31
0.0
0
LINE
8
0
62
2
10
-4.167345
20
27.222939
30
0.0
11
-4.417345
21
27.222939
31
0.0
0
LINE
8
0
62
2
10
-7.158555
20
23.977873
30
0.0
11
-6.430747
21
27.846222
31
0.0
0
ARC
8
0
62
2
10
-0.606696
20
26.312096
30
0.0
40
1.534125
50
315.000000
51
316.154449
0
ARC
8
0
62
3
10
2.918495
20
26.366991
30
0.0
40
1.479210
50
180.000610
51
243.183960
0
ARC
8
0
62
3
10
2.918528
20
26.366976
30
0.0
40
1.479243
50
0.000000
51
128.136475
0
LINE
8
0
62
3
10
4.397771
20
26.366976
30
0.0
11
3.697680
21
26.366976
31
0.0
0
ARC
8
0
62
3
10
2.918536
20
26.366976
30
0.0
40
0.779144
50
0.000000
51
121.886200
0
ARC
8
0
62
3
10
2.918584
20
26.366955
30
0.0
40
0.779192
50
179.998413
51
243.182373
0
LINE
8
0
62
3
10
2.567050
20
25.671568
30
0.0
11
3.585907
21
25.156586
31
0.0
0
ARC
8
0
62
3
10
2.918516
20
23.836437
30
0.0
40
1.479257
50
321.863037
51
63.181458
0
ARC
8
0
62
3
10
2.918525
20
23.836412
30
0.0
40
1.479234
50
180.000000
51
315.000000
0
LINE
8
0
62
3
10
1.439291
20
23.836412
30
0.0
11
2.139387
21
23.836412
31
0.0
0
ARC
8
0
62
3
10
2.918528
20
23.836412
30
0.0
40
0.779141
50
180.000000
51
328.113831
0
ARC
8
0
62
3
10
2.918536
20
23.836416
30
0.0
40
0.779138
50
328.113220
51
63.183777
0
LINE
8
0
62
3
10
3.270028
20
24.531765
30
0.0
11
2.251183
21
25.046858
31
0.0
0
LINE
8
0
62
3
10
7.272103
20
24.226519
30
0.0
11
7.219739
21
24.476519
31
0.0
0
LINE
8
0
62
3
10
6.030765
20
24.226519
30
0.0
11
6.659541
21
27.151089
31
0.0
0
LINE
8
0
62
3
10
5.628763
20
22.356728
30
0.0
11
4.909619
21
22.356728
31
0.0
0
LINE
8
0
62
3
10
4.909619
20
22.356728
30
0.0
11
6.180110
21
27.846222
31
0.0
0
LINE
8
0
62
3
10
6.180110
20
27.846222
30
0.0
11
7.186908
21
27.846222
31
0.0
0
LINE
8
0
62
3
10
7.186908
20
27.846222
30
0.0
11
8.457416
21
22.356728
31
0.0
0
LINE
8
0
62
3
10
8.457416
20
22.356728
30
0.0
11
7.666344
21
22.356728
31
0.0
0
LINE
8
0
62
3
10
7.666344
20
22.356728
30
0.0
11
7.402655
21
23.603292
31
0.0
0
LINE
8
0
62
3
10
7.402655
20
23.603292
30
0.0
11
6.093022
21
23.603292
31
0.0
0
LINE
8
0
62
3
10
6.030765
20
24.226519
30
0.0
11
7.272103
21
24.226519
31
0.0
0
LINE
8
0
62
3
10
9.901426
20
27.222939
30
0.0
11
9.901426
21
22.606728
31
0.0
0
LINE
8
0
62
3
10
9.901426
20
22.356728
30
0.0
11
9.158307
21
22.356728
31
0.0
0
LINE
8
0
62
3
10
9.158307
20
22.356728
30
0.0
11
9.158307
21
27.222939
31
0.0
0
LINE
8
0
62
3
10
9.158307
20
27.222939
30
0.0
11
7.887805
21
27.222939
31
0.0
0
LINE
8
0
62
3
10
7.887805
20
27.222939
30
0.0
11
7.887805
21
27.846222
31
0.0
0
LINE
8
0
62
3
10
7.887805
20
27.846222
30
0.0
11
8.137805
21
27.846222
31
0.0
0
LINE
8
0
62
3
10
11.195888
20
27.846222
30
0.0
11
11.195888
21
27.222939
31
0.0
0
LINE
8
0
62
3
10
11.195888
20
27.222939
30
0.0
11
10.151426
21
27.222939
31
0.0
0
LINE
8
0
62
3
10
-5.514263
20
15.391251
30
0.0
11
-5.918687
21
16.000063
31
0.0
0
LINE
8
0
62
3
10
-5.492130
20
15.357933
30
0.0
11
-5.492130
21
14.715805
31
0.0
0
LINE
8
0
62
3
10
-5.065573
20
16.000063
30
0.0
11
-5.492130
21
15.357933
31
0.0
0
ARC
8
0
62
3
10
-5.562653
20
-10.267942
30
0.0
40
0.370207
50
210.522003
51
269.441071
0
LINE
8
0
62
3
10
-5.435392
20
-10.639410
30
0.0
11
-5.566264
21
-10.638132
31
0.0
0
ARC
8
0
62
3
10
-5.432095
20
-10.301464
30
0.0
40
0.337961
50
269.441071
51
357.350677
0
ARC
8
0
62
3
10
-5.369397
20
-10.342018
30
0.0
40
0.276029
50
5.182272
51
59.344830
0
LINE
8
0
62
3
10
-5.734098
20
-9.887480
30
0.0
11
-5.228658
21
-10.104565
31
0.0
0
ARC
8
0
62
3
10
-5.593360
20
-9.650024
30
0.0
40
0.276029
50
185.182404
51
239.344803
0
ARC
8
0
62
3
10
-5.532013
20
-9.689686
30
0.0
40
0.336569
50
91.261345
51
177.491959
0
LINE
8
0
62
3
10
-5.408862
20
-9.353062
30
0.0
11
-5.539422
21
-9.353199
31
0.0
0
ARC
8
0
62
3
10
-5.420521
20
-9.711374
30
0.0
40
0.358501
50
29.271709
51
88.136147
0
LINE
8
0
62
3
10
-4.874710
20
-10.637381
30
0.0
11
-4.874710
21
-9.353123
31
0.0
0
LINE
8
0
62
3
10
-4.134978
20
-9.995253
30
0.0
11
-4.836182
21
-9.995253
31
0.0
0
LINE
8
0
62
3
10
-4.094983
20
-9.353123
30
0.0
11
-4.094983
21
-10.637381
31
0.0
0
LINE
8
0
62
3
10
-3.528655
20
-10.637381
30
0.0
11
-3.895586
21
-10.637381
31
0.0
0
LINE
8
0
62
3
10
-3.712121
20
-9.391651
30
0.0
11
-3.712121
21
-10.598852
31
0.0
0
LINE
8
0
62
3
10
-3.530586
20
-9.353123
30
0.0
11
-3.895586
21
-9.353123
31
0.0
0
LINE
8
0
62
3
10
-3.296091
20
-9.995222
30
0.0
11
-2.746428
21
-9.995222
31
0.0
0
LINE
8
0
62
3
10
-3.334435
20
-9.353094
30
0.0
11
-3.334435
21
-10.637352
31
0.0
0
LINE
8
0
62
3
10
-2.645523
20
-9.353094
30
0.0
11
-3.334435
21
-9.353094
31
0.0
0
LINE
8
0
62
3
10
-1.981548
20
-9.392075
30
0.0
11
-1.981548
21
-10.637379
31
0.0
0
LINE
8
0
62
3
10
-1.571045
20
-9.353123
30
0.0
11
-2.392051
21
-9.353123
31
0.0
0
LINE
8
0
62
3
10
-4.739390
20
-15.626993
30
0.0
11
-3.986266
21
-15.626993
31
0.0
0
LINE
8
0
62
3
10
-4.739849
20
-14.984863
30
0.0
11
-4.739390
21
-15.626993
31
0.0
0
LINE
8
0
62
3
10
-4.151384
20
-14.984863
30
0.0
11
-4.739849
21
-14.984863
31
0.0
0
LINE
8
0
62
3
10
-4.740307
20
-14.342737
30
0.0
11
-4.739876
21
-14.965612
31
0.0
0
LINE
8
0
62
3
10
-4.050478
20
-14.342737
30
0.0
11
-4.740307
21
-14.342737
31
0.0
0
LINE
8
0
62
3
10
-3.905155
20
-14.342724
30
0.0
11
-3.905155
21
-15.626980
31
0.0
0
LINE
8
0
62
3
10
-3.116560
20
-15.626980
30
0.0
11
-3.905155
21
-14.342724
31
0.0
0
LINE
8
0
62
3
10
-3.116560
20
-14.342724
30
0.0
11
-3.116560
21
-15.626980
31
0.0
0
LINE
8
0
62
3
10
-2.452585
20
-14.381676
30
0.0
11
-2.452585
21
-15.626980
31
0.0
0
LINE
8
0
62
3
10
-2.042081
20
-14.342724
30
0.0
11
-2.863088
21
-14.342724
31
0.0
0
LINE
8
0
62
3
10
-1.899824
20
-15.626993
30
0.0
11
-1.146699
21
-15.626993
31
0.0
0
LINE
8
0
62
3
10
-1.900282
20
-14.984863
30
0.0
11
-1.899824
21
-15.626993
31
0.0
0
LINE
8
0
62
3
10
-1.311818
20
-14.984863
30
0.0
11
-1.900282
21
-14.984863
31
0.0
0
LINE
8
0
62
3
10
-1.900741
20
-14.342737
30
0.0
11
-1.900310
21
-14.965612
31
0.0
0
LINE
8
0
62
3
10
-1.210912
20
-14.342737
30
0.0
11
-1.900741
21
-14.342737
31
0.0
0
LINE
8
0
62
3
10
-1.018273
20
-14.342724
30
0.0
11
-1.018273
21
-15.626980
31
0.0
0
LINE
8
0
62
3
10
-0.552272
20
-14.342724
30
0.0
11
-1.018273
21
-14.342724
31
0.0
0
ARC
8
0
62
3
10
-0.558459
20
-14.663788
30
0.0
40
0.321124
50
271.095276
51
88.895920
0
LINE
8
0
62
3
10
-0.976126
20
-14.984850
30
0.0
11
-0.552321
21
-14.984850
31
0.0
0
LINE
8
0
62
3
10
-0.231208
20
-15.626980
30
0.0
11
-0.534024
21
-15.021441
31
0.0
0
LINE
8
0
62
3
10
-4.739390
20
-2.752994
30
0.0
11
-3.986266
21
-2.752994
31
0.0
0
LINE
8
0
62
3
10
-4.739849
20
-2.110865
30
0.0
11
-4.739390
21
-2.752994
31
0.0
0
LINE
8
0
62
3
10
-4.151384
20
-2.110865
30
0.0
11
-4.739849
21
-2.110865
31
0.0
0
LINE
8
0
62
3
10
-4.740307
20
-1.468737
30
0.0
11
-4.739876
21
-2.091612
31
0.0
0
LINE
8
0
62
3
10
-4.050478
20
-1.468737
30
0.0
11
-4.740307
21
-1.468737
31
0.0
0
LINE
8
0
62
3
10
-3.905155
20
-1.468724
30
0.0
11
-3.905155
21
-2.752980
31
0.0
0
LINE
8
0
62
3
10
-3.116560
20
-2.752980
30
0.0
11
-3.905155
21
-1.468724
31
0.0
0
LINE
8
0
62
3
10
-3.116560
20
-1.468724
30
0.0
11
-3.116560
21
-2.752980
31
0.0
0
LINE
8
0
62
3
10
-2.452585
20
-1.507676
30
0.0
11
-2.452585
21
-2.752980
31
0.0
0
LINE
8
0
62
3
10
-2.042081
20
-1.468723
30
0.0
11
-2.863088
21
-1.468723
31
0.0
0
LINE
8
0
62
3
10
-1.899824
20
-2.752994
30
0.0
11
-1.146699
21
-2.752994
31
0.0
0
LINE
8
0
62
3
10
-1.900282
20
-2.110865
30
0.0
11
-1.899824
21
-2.752994
31
0.0
0
LINE
8
0
62
3
10
-1.311818
20
-2.110865
30
0.0
11
-1.900282
21
-2.110865
31
0.0
0
LINE
8
0
62
3
10
-1.900741
20
-1.468737
30
0.0
11
-1.900310
21
-2.091612
31
0.0
0
LINE
8
0
62
3
10
-1.210912
20
-1.468737
30
0.0
11
-1.900741
21
-1.468737
31
0.0
0
LINE
8
0
62
3
10
-1.018273
20
-1.468723
30
0.0
11
-1.018273
21
-2.752980
31
0.0
0
LINE
8
0
62
3
10
-0.552272
20
-1.468723
30
0.0
11
-1.018273
21
-1.468723
31
0.0
0
ARC
8
0
62
3
10
-0.558459
20
-1.789787
30
0.0
40
0.321124
50
271.095276
51
88.895920
0
LINE
8
0
62
3
10
-0.976126
20
-2.110852
30
0.0
11
-0.552321
21
-2.110852
31
0.0
0
LINE
8
0
62
3
10
-0.231208
20
-2.752980
30
0.0
11
-0.534024
21
-2.147440
31
0.0
0
ARC
8
0
62
3
10
-5.562653
20
12.590456
30
0.0
40
0.370207
50
210.522003
51
269.441071
0
LINE
8
0
62
3
10
-5.435392
20
12.218990
30
0.0
11
-5.566264
21
12.220268
31
0.0
0
ARC
8
0
62
3
10
-5.432095
20
12.556934
30
0.0
40
0.337961
50
269.441071
51
357.350677
0
ARC
8
0
62
3
10
-5.369397
20
12.516380
30
0.0
40
0.276029
50
5.182272
51
59.344830
0
LINE
8
0
62
3
10
-5.734098
20
12.970919
30
0.0
11
-5.228658
21
12.753834
31
0.0
0
ARC
8
0
62
3
10
-5.593360
20
13.208372
30
0.0
40
0.276029
50
185.182404
51
212.263611
0
ARC
8
0
62
3
10
-5.532013
20
13.168713
30
0.0
40
0.336569
50
91.261345
51
177.491959
0
LINE
8
0
62
3
10
-5.408862
20
13.505337
30
0.0
11
-5.539422
21
13.505201
31
0.0
0
ARC
8
0
62
3
10
-5.420521
20
13.147024
30
0.0
40
0.358501
50
29.271709
51
88.136147
0
ARC
8
0
62
3
10
-5.593360
20
13.208372
30
0.0
40
0.276029
50
212.263611
51
239.344803
0
LINE
8
0
62
3
10
5.896771
20
23.603292
30
0.0
11
5.628763
21
22.356728
31
0.0
0
LINE
8
0
62
3
10
9.901426
20
22.606728
30
0.0
11
9.901426
21
22.356728
31
0.0
0
LINE
8
0
62
3
10
8.137805
20
27.846222
30
0.0
11
11.195888
21
27.846222
31
0.0
0
LINE
8
0
62
3
10
10.151426
20
27.222939
30
0.0
11
9.901426
21
27.222939
31
0.0
0
LINE
8
0
62
3
10
6.756385
20
26.688726
30
0.0
11
6.659541
21
27.151089
31
0.0
0
LINE
8
0
62
3
10
7.219739
20
24.476519
30
0.0
11
6.756385
21
26.688726
31
0.0
0
LINE
8
0
62
3
10
6.093022
20
23.603292
30
0.0
11
5.896771
21
23.603292
31
0.0
0
ARC
8
0
62
3
10
2.918536
20
26.366976
30
0.0
40
0.779144
50
121.886200
51
180.000000
0
ARC
8
0
62
3
10
2.918528
20
26.366976
30
0.0
40
1.479243
50
128.136475
51
135.000000
0
ARC
8
0
62
3
10
2.918525
20
23.836412
30
0.0
40
1.479234
50
315.000000
51
321.863556
0
ARC
8
0
62
3
10
2.918528
20
26.366976
30
0.0
40
1.479243
50
135.000000
51
180.000000
0
LINE
8
0
62
3
10
-5.468687
20
3.520863
30
0.0
11
-5.918687
21
3.520863
31
0.0
0
LINE
8
0
62
3
10
-5.468687
20
2.236607
30
0.0
11
-5.918687
21
2.236607
31
0.0
0
LINE
8
0
62
3
10
-5.918687
20
2.236607
30
0.0
11
-5.918687
21
3.520863
31
0.0
0
LINE
8
0
62
3
10
0.873500
20
-9.353136
30
0.0
11
0.423500
21
-9.353136
31
0.0
0
LINE
8
0
62
3
10
0.873500
20
-10.637392
30
0.0
11
0.423500
21
-10.637392
31
0.0
0
LINE
8
0
62
3
10
0.423500
20
-10.637392
30
0.0
11
0.423500
21
-9.353136
31
0.0
0
LINE
8
0
62
4
10
12.466078
20
27.846222
30
0.0
11
11.722980
21
27.846222
31
0.0
0
LINE
8
0
62
4
10
11.722980
20
22.356728
30
0.0
11
12.466078
21
22.356728
31
0.0
0
LINE
8
0
62
6
10
-16.000000
20
-20.000000
30
0.0
11
16.000000
21
-20.000000
31
0.0
0
LINE
8
0
62
6
10
20.000000
20
16.000000
30
0.0
11
20.000000
21
-16.000000
31
0.0
0
LINE
8
0
62
4
10
12.466078
20
22.356728
30
0.0
11
12.466078
21
27.846222
31
0.0
0
LINE
8
0
62
4
10
11.722980
20
22.356728
30
0.0
11
11.722980
21
27.846222
31
0.0
0
ARC
8
0
62
6
10
-16.000000
20
16.000000
30
0.0
40
4.000000
50
90.000000
51
180.000000
0
ARC
8
0
62
6
10
16.000000
20
16.000000
30
0.0
40
4.000000
50
0.000000
51
90.000000
0
ARC
8
0
62
6
10
16.000000
20
-16.000000
30
0.0
40
4.000000
50
270.000000
51
0.000000
0
ARC
8
0
62
6
10
-16.000000
20
-16.000000
30
0.0
40
4.000000
50
180.000000
51
270.000000
0
LINE
8
0
62
6
10
-20.000000
20
-16.000000
30
0.0
11
-20.000000
21
16.000000
31
0.0
0
LINE
8
0
62
6
10
16.000000
20
20.000000
30
0.0
11
-16.000000
21
20.000000
31
0.0
0
ARC
8
0
62
4
10
14.457148
20
26.366976
30
0.0
40
0.779141
50
0.000000
51
121.886169
0
LINE
8
0
62
4
10
13.678006
20
26.366976
30
0.0
11
13.678006
21
23.836412
31
0.0
0
ARC
8
0
62
4
10
14.457125
20
26.366976
30
0.0
40
1.479243
50
0.000000
51
128.136475
0
LINE
8
0
62
4
10
15.936368
20
26.366976
30
0.0
11
15.936368
21
23.836412
31
0.0
0
LINE
8
0
62
4
10
19.061127
20
23.123833
30
0.0
11
19.061127
21
24.194635
31
0.0
0
LINE
8
0
62
4
10
19.780199
20
22.356728
30
0.0
11
18.605597
21
22.356728
31
0.0
0
LINE
8
0
62
4
10
18.605597
20
22.356728
30
0.0
11
17.417299
21
26.159252
31
0.0
0
LINE
8
0
62
4
10
17.167299
20
26.959246
30
0.0
11
17.167299
21
22.606728
31
0.0
0
LINE
8
0
62
4
10
17.167299
20
22.356728
30
0.0
11
16.448177
21
22.356728
31
0.0
0
LINE
8
0
62
4
10
16.448177
20
22.356728
30
0.0
11
16.448177
21
27.846222
31
0.0
0
LINE
8
0
62
4
10
16.448177
20
27.846222
30
0.0
11
17.622782
21
27.846222
31
0.0
0
LINE
8
0
62
4
10
17.622782
20
27.846222
30
0.0
11
19.061127
21
23.123833
31
0.0
0
LINE
8
0
62
6
10
-1.594723
20
4.731344
30
0.0
11
-1.594723
21
5.162594
31
0.0
0
LINE
8
0
62
6
10
-1.594723
20
6.015602
30
0.0
11
-1.128722
21
6.015602
31
0.0
0
ARC
8
0
62
6
10
-1.147802
20
5.694537
30
0.0
40
0.321630
50
273.401001
51
86.599007
0
LINE
8
0
62
6
10
-1.128722
20
5.373472
30
0.0
11
-1.575459
21
5.373472
31
0.0
0
LINE
8
0
62
6
10
-0.679231
20
6.015602
30
0.0
11
-0.679231
21
5.098282
31
0.0
0
ARC
8
0
62
6
10
-0.303146
20
5.104347
30
0.0
40
0.376134
50
180.923920
51
0.472477
0
LINE
8
0
62
6
10
0.072976
20
5.107449
30
0.0
11
0.072976
21
6.015602
31
0.0
0
LINE
8
0
62
6
10
0.265615
20
4.731344
30
0.0
11
0.265615
21
6.015602
31
0.0
0
LINE
8
0
62
6
10
0.265615
20
6.015602
30
0.0
11
0.731617
21
6.015602
31
0.0
0
ARC
8
0
62
6
10
0.725428
20
5.694538
30
0.0
40
0.321124
50
271.095276
51
88.895920
0
LINE
8
0
62
6
10
0.731566
20
5.373472
30
0.0
11
0.307762
21
5.373472
31
0.0
0
LINE
8
0
62
6
10
0.749863
20
5.336884
30
0.0
11
1.052681
21
4.731344
31
0.0
0
LINE
8
0
62
6
10
1.213213
20
4.731344
30
0.0
11
1.213213
21
6.015602
31
0.0
0
LINE
8
0
62
6
10
1.213213
20
6.015602
30
0.0
11
1.679214
21
6.015602
31
0.0
0
ARC
8
0
62
6
10
1.660134
20
5.694537
30
0.0
40
0.321630
50
273.401001
51
86.599007
0
LINE
8
0
62
6
10
1.679214
20
5.373472
30
0.0
11
1.232477
21
5.373472
31
0.0
0
LINE
8
0
62
6
10
2.128704
20
6.015602
30
0.0
11
2.128704
21
4.731344
31
0.0
0
LINE
8
0
62
6
10
2.128704
20
4.731344
30
0.0
11
2.881829
21
4.731344
31
0.0
0
LINE
8
0
62
6
10
3.804732
20
4.731331
30
0.0
11
3.051607
21
4.731331
31
0.0
0
LINE
8
0
62
6
10
3.051607
20
4.731331
30
0.0
11
3.051148
21
5.373459
31
0.0
0
LINE
8
0
62
6
10
3.051148
20
5.373459
30
0.0
11
3.639613
21
5.373459
31
0.0
0
LINE
8
0
62
6
10
3.051121
20
5.392713
30
0.0
11
3.050689
21
6.015588
31
0.0
0
LINE
8
0
62
6
10
3.050689
20
6.015588
30
0.0
11
3.740519
21
6.015588
31
0.0
0
LINE
8
0
62
4
10
19.061079
20
27.846222
30
0.0
11
19.780199
21
27.846222
31
0.0
0
LINE
8
0
62
4
10
19.780199
20
27.846222
30
0.0
11
19.780199
21
22.356728
31
0.0
0
LINE
8
0
62
6
10
-5.261037
20
5.374272
30
0.0
11
-4.796649
21
5.374272
31
0.0
0
ARC
8
0
62
6
10
-4.796751
20
5.052809
30
0.0
40
0.321464
50
270.000000
51
89.981880
0
LINE
8
0
62
6
10
-4.796751
20
4.731345
30
0.0
11
-5.299613
21
4.731345
31
0.0
0
LINE
8
0
62
6
10
-5.299613
20
4.731345
30
0.0
11
-5.299613
21
6.015602
31
0.0
0
LINE
8
0
62
6
10
-5.299613
20
6.015602
30
0.0
11
-4.854155
21
6.015602
31
0.0
0
ARC
8
0
62
6
10
-4.856724
20
5.692848
30
0.0
40
0.322762
50
296.191833
51
89.543999
0
LINE
8
0
62
6
10
-4.275640
20
4.729746
30
0.0
11
-3.908253
21
4.729746
31
0.0
0
LINE
8
0
62
6
10
-4.091948
20
4.768321
30
0.0
11
-4.091948
21
5.977026
31
0.0
0
LINE
8
0
62
6
10
-4.275640
20
6.015602
30
0.0
11
-3.910186
21
6.015602
31
0.0
0
LINE
8
0
62
6
10
-3.407969
20
5.298258
30
0.0
11
-2.865398
21
5.298258
31
0.0
0
ARC
8
0
62
6
10
-2.865398
20
5.259686
30
0.0
40
0.038572
50
0.000000
51
90.000000
0
LINE
8
0
62
6
10
-2.826827
20
5.259686
30
0.0
11
-2.826827
21
5.162594
31
0.0
0
ARC
8
0
62
6
10
-3.264626
20
5.159234
30
0.0
40
0.437813
50
200.855255
51
0.439684
0
ARC
8
0
62
6
10
-2.588817
20
5.370684
30
0.0
40
1.145430
50
161.293991
51
198.703979
0
ARC
8
0
62
6
10
-3.243103
20
5.542810
30
0.0
40
0.472825
50
35.680031
51
155.613174
0
LINE
8
0
62
6
10
-1.594723
20
5.162594
30
0.0
11
-1.594723
21
6.015602
31
0.0
0
LINE
8
0
62
4
10
12.977882
20
26.366976
30
0.0
11
12.977882
21
23.836412
31
0.0
0
ARC
8
0
62
4
10
14.457148
20
23.836412
30
0.0
40
0.779141
50
180.000000
51
328.113831
0
ARC
8
0
62
4
10
14.457125
20
23.836412
30
0.0
40
1.479243
50
180.000000
51
315.000000
0
LINE
8
0
62
4
10
15.236288
20
23.836412
30
0.0
11
15.236288
21
26.366976
31
0.0
0
LINE
8
0
62
4
10
19.061127
20
24.194635
30
0.0
11
19.061127
21
27.846222
31
0.0
0
LINE
8
0
62
4
10
17.417299
20
26.159252
30
0.0
11
17.167299
21
26.959246
31
0.0
0
LINE
8
0
62
4
10
17.167299
20
22.606728
30
0.0
11
17.167299
21
22.356728
31
0.0
0
ARC
8
0
62
4
10
14.457148
20
26.366976
30
0.0
40
0.779141
50
121.886169
51
180.000000
0
ARC
8
0
62
4
10
14.457148
20
23.836412
30
0.0
40
0.779141
50
328.113831
51
0.000000
0
ARC
8
0
62
4
10
14.457125
20
23.836412
30
0.0
40
1.479243
50
321.863525
51
0.000000
0
ARC
8
0
62
4
10
14.457125
20
26.366976
30
0.0
40
1.479243
50
128.136475
51
135.000000
0
ARC
8
0
62
4
10
14.457125
20
23.836412
30
0.0
40
1.479243
50
315.000000
51
321.863525
0
ARC
8
0
62
4
10
14.457125
20
26.366976
30
0.0
40
1.479243
50
135.000000
51
180.000000
0
ARC
8
0
62
6
10
5.079351
20
5.100780
30
0.0
40
0.370207
50
210.522003
51
269.441071
0
LINE
8
0
62
6
10
5.075739
20
4.730592
30
0.0
11
5.206612
21
4.729315
31
0.0
0
ARC
8
0
62
6
10
5.209908
20
5.067261
30
0.0
40
0.337961
50
269.441071
51
357.350677
0
ARC
8
0
62
6
10
5.272608
20
5.026707
30
0.0
40
0.276029
50
5.182272
51
59.344830
0
LINE
8
0
62
6
10
5.413346
20
5.264160
30
0.0
11
4.907906
21
5.481245
31
0.0
0
ARC
8
0
62
6
10
5.048645
20
5.718699
30
0.0
40
0.276029
50
185.182404
51
239.344803
0
ARC
8
0
62
6
10
5.109991
20
5.679038
30
0.0
40
0.336569
50
91.261345
51
177.491959
0
LINE
8
0
62
6
10
5.102582
20
6.015527
30
0.0
11
5.233143
21
6.015663
31
0.0
0
ARC
8
0
62
6
10
5.221482
20
5.657351
30
0.0
40
0.358501
50
29.271709
51
88.136147
0
LINE
8
0
62
6
10
6.317472
20
5.060013
30
0.0
11
6.724874
21
4.749019
31
0.0
0
ARC
8
0
62
6
10
6.265007
20
5.108768
30
0.0
40
0.381925
50
195.902084
51
315.740295
0
ARC
8
0
62
6
10
6.981381
20
5.371054
30
0.0
40
1.144120
50
161.294113
51
198.705887
0
ARC
8
0
62
6
10
6.265007
20
5.633827
30
0.0
40
0.381792
50
15.832771
51
164.168289
0
ARC
8
0
62
6
10
5.563780
20
5.377736
30
0.0
40
1.127630
50
335.052795
51
18.631470
0
LINE
8
0
62
6
10
6.843173
20
6.015602
30
0.0
11
6.843173
21
5.098282
31
0.0
0
ARC
8
0
62
6
10
7.219258
20
5.104347
30
0.0
40
0.376134
50
180.923920
51
0.472477
0
LINE
8
0
62
6
10
7.595380
20
5.107449
30
0.0
11
7.595380
21
6.015602
31
0.0
0
LINE
8
0
62
6
10
7.723805
20
4.731344
30
0.0
11
8.205403
21
6.015602
31
0.0
0
LINE
8
0
62
6
10
8.205403
20
6.015602
30
0.0
11
8.686999
21
4.731344
31
0.0
0
LINE
8
0
62
6
10
7.865533
20
5.006542
30
0.0
11
8.545272
21
5.006542
31
0.0
0
LINE
8
0
62
6
10
8.879638
20
4.731344
30
0.0
11
8.879638
21
6.015602
31
0.0
0
LINE
8
0
62
6
10
8.879638
20
6.015602
30
0.0
11
9.345638
21
6.015602
31
0.0
0
ARC
8
0
62
6
10
9.339451
20
5.694538
30
0.0
40
0.321124
50
271.095276
51
88.895920
0
LINE
8
0
62
6
10
9.345590
20
5.373472
30
0.0
11
8.921784
21
5.373472
31
0.0
0
LINE
8
0
62
6
10
9.363886
20
5.336884
30
0.0
11
9.666703
21
4.731344
31
0.0
0
LINE
8
0
62
6
10
10.562086
20
4.731331
30
0.0
11
9.808961
21
4.731331
31
0.0
0
LINE
8
0
62
6
10
9.808961
20
4.731331
30
0.0
11
9.808502
21
5.373459
31
0.0
0
LINE
8
0
62
6
10
9.808502
20
5.373459
30
0.0
11
10.396967
21
5.373459
31
0.0
0
LINE
8
0
62
6
10
9.808475
20
5.392713
30
0.0
11
9.808043
21
6.015588
31
0.0
0
LINE
8
0
62
6
10
9.808043
20
6.015588
30
0.0
11
10.497873
21
6.015588
31
0.0
0
LINE
8
0
62
5
10
2.848009
20
10.565063
30
0.0
11
3.311819
21
10.565063
31
0.0
0
ARC
8
0
62
5
10
3.311718
20
10.244001
30
0.0
40
0.321064
50
270.000000
51
89.981880
0
LINE
8
0
62
5
10
3.311718
20
9.922937
30
0.0
11
2.809482
21
9.922937
31
0.0
0
LINE
8
0
62
5
10
2.809482
20
9.922937
30
0.0
11
2.809482
21
11.205597
31
0.0
0
LINE
8
0
62
5
10
2.809482
20
11.205597
30
0.0
11
3.254385
21
11.205597
31
0.0
0
ARC
8
0
62
5
10
3.251820
20
10.883244
30
0.0
40
0.322361
50
296.191833
51
89.543999
0
LINE
8
0
62
5
10
3.761208
20
11.205597
30
0.0
11
3.761208
21
9.921339
31
0.0
0
LINE
8
0
62
5
10
3.761208
20
9.921339
30
0.0
11
4.514333
21
9.921339
31
0.0
0
LINE
8
0
62
5
10
4.670279
20
11.205597
30
0.0
11
4.670279
21
10.288277
31
0.0
0
ARC
8
0
62
5
10
5.046364
20
10.294342
30
0.0
40
0.376134
50
180.923920
51
0.472477
0
LINE
8
0
62
5
10
5.422486
20
10.297443
30
0.0
11
5.422486
21
11.205597
31
0.0
0
LINE
8
0
62
5
10
6.317868
20
9.921326
30
0.0
11
5.564743
21
9.921326
31
0.0
0
LINE
8
0
62
5
10
5.564743
20
9.921326
30
0.0
11
5.564285
21
10.563454
31
0.0
0
LINE
8
0
62
5
10
5.564285
20
10.563454
30
0.0
11
6.152750
21
10.563454
31
0.0
0
LINE
8
0
62
5
10
5.564258
20
10.582706
30
0.0
11
5.563827
21
11.205582
31
0.0
0
LINE
8
0
62
5
10
5.563827
20
11.205582
30
0.0
11
6.253656
21
11.205582
31
0.0
0
ARC
8
0
62
5
10
7.543331
20
10.391527
30
0.0
40
0.472284
50
204.386841
51
324.320007
0
ARC
8
0
62
5
10
8.196870
20
10.563454
30
0.0
40
1.144120
50
161.294128
51
198.705872
0
ARC
8
0
62
5
10
7.543331
20
10.735382
30
0.0
40
0.472284
50
35.680031
51
155.613174
0
LINE
8
0
62
5
10
8.493289
20
9.923407
30
0.0
11
8.126359
21
9.923407
31
0.0
0
LINE
8
0
62
5
10
8.309825
20
11.169136
30
0.0
11
8.309825
21
9.961935
31
0.0
0
LINE
8
0
62
5
10
8.491359
20
11.207664
30
0.0
11
8.126359
21
11.207664
31
0.0
0
LINE
8
0
62
5
10
8.687377
20
11.207664
30
0.0
11
8.687377
21
9.923407
31
0.0
0
LINE
8
0
62
5
10
9.153378
20
11.207664
30
0.0
11
8.687377
21
11.207664
31
0.0
0
ARC
8
0
62
5
10
9.147190
20
10.886600
30
0.0
40
0.321124
50
271.095276
51
88.895920
0
LINE
8
0
62
5
10
8.729524
20
10.565536
30
0.0
11
9.153329
21
10.565536
31
0.0
0
LINE
8
0
62
5
10
9.474442
20
9.923407
30
0.0
11
9.171626
21
10.528948
31
0.0
0
ARC
8
0
62
5
10
10.093450
20
10.391527
30
0.0
40
0.472284
50
204.386841
51
324.320007
0
ARC
8
0
62
5
10
10.746986
20
10.563454
30
0.0
40
1.144120
50
161.294128
51
198.705872
0
ARC
8
0
62
5
10
10.093450
20
10.735382
30
0.0
40
0.472284
50
35.680031
51
155.613174
0
LINE
8
0
62
5
10
10.605505
20
9.923407
30
0.0
11
10.605505
21
11.207664
31
0.0
0
LINE
8
0
62
5
10
11.358630
20
9.923407
30
0.0
11
10.605505
21
9.923407
31
0.0
0
LINE
8
0
62
5
10
11.528408
20
9.923395
30
0.0
11
12.281533
21
9.923395
31
0.0
0
LINE
8
0
62
5
10
11.527949
20
10.565523
30
0.0
11
11.528408
21
9.923395
31
0.0
0
LINE
8
0
62
5
10
12.116413
20
10.565523
30
0.0
11
11.527949
21
10.565523
31
0.0
0
LINE
8
0
62
5
10
11.527491
20
11.207651
30
0.0
11
11.527922
21
10.584776
31
0.0
0
LINE
8
0
62
5
10
12.217319
20
11.207651
30
0.0
11
11.527491
21
11.207651
31
0.0
0
ARC
8
0
62
5
10
12.762663
20
10.292845
30
0.0
40
0.370207
50
210.522003
51
269.441071
0
LINE
8
0
62
5
10
12.889925
20
9.921379
30
0.0
11
12.759051
21
9.922655
31
0.0
0
ARC
8
0
62
5
10
12.893221
20
10.259323
30
0.0
40
0.337961
50
269.441071
51
357.350677
0
ARC
8
0
62
5
10
12.955919
20
10.218771
30
0.0
40
0.276029
50
5.182272
51
59.344830
0
LINE
8
0
62
5
10
12.591217
20
10.673309
30
0.0
11
13.096659
21
10.456224
31
0.0
0
ARC
8
0
62
5
10
12.731956
20
10.910763
30
0.0
40
0.276029
50
185.182404
51
239.344803
0
ARC
8
0
62
5
10
12.793302
20
10.871101
30
0.0
40
0.336569
50
91.261345
51
177.491959
0
LINE
8
0
62
5
10
12.916454
20
11.207726
30
0.0
11
12.785893
21
11.207588
31
0.0
0
ARC
8
0
62
5
10
12.904795
20
10.849415
30
0.0
40
0.358501
50
29.271709
51
88.136147
0
LINE
8
0
62
5
10
-4.818615
20
11.205626
30
0.0
11
-5.299613
21
9.922964
31
0.0
0
LINE
8
0
62
5
10
-4.337618
20
9.922964
30
0.0
11
-4.818615
21
11.205626
31
0.0
0
LINE
8
0
62
5
10
-4.479167
20
10.197821
30
0.0
11
-5.158062
21
10.197821
31
0.0
0
LINE
8
0
62
5
10
-4.209352
20
9.922964
30
0.0
11
-4.209352
21
11.205626
31
0.0
0
LINE
8
0
62
5
10
-3.457163
20
9.922964
30
0.0
11
-4.209352
21
9.922964
31
0.0
0
LINE
8
0
62
5
10
-3.301412
20
9.922964
30
0.0
11
-3.301412
21
11.205626
31
0.0
0
LINE
8
0
62
5
10
-2.549223
20
9.922964
30
0.0
11
-3.301412
21
9.922964
31
0.0
0
LINE
8
0
62
5
10
-1.610927
20
10.564295
30
0.0
11
-1.061949
21
10.564295
31
0.0
0
LINE
8
0
62
5
10
-1.649223
20
11.205626
30
0.0
11
-1.649223
21
9.922964
31
0.0
0
LINE
8
0
62
5
10
-0.961168
20
11.205626
30
0.0
11
-1.649223
21
11.205626
31
0.0
0
ARC
8
0
62
5
10
-0.402314
20
10.302109
30
0.0
40
0.381646
50
196.004822
51
267.948395
0
ARC
8
0
62
5
10
0.313170
20
10.563358
30
0.0
40
1.142697
50
161.294113
51
198.705887
0
ARC
8
0
62
5
10
-0.402314
20
10.823753
30
0.0
40
0.381882
50
16.128889
51
163.872177
0
ARC
8
0
62
5
10
-1.117798
20
10.563358
30
0.0
40
1.142697
50
341.293762
51
18.706244
0
ARC
8
0
62
5
10
-0.402314
20
10.302109
30
0.0
40
0.381646
50
272.763977
51
343.994110
0
LINE
8
0
62
5
10
0.179723
20
10.289417
30
0.0
11
0.179723
21
11.205597
31
0.0
0
ARC
8
0
62
5
10
0.555342
20
10.295475
30
0.0
40
0.375667
50
180.923920
51
0.472477
0
LINE
8
0
62
5
10
0.930995
20
11.205597
30
0.0
11
0.930995
21
10.298573
31
0.0
0
LINE
8
0
62
5
10
1.123395
20
11.205597
30
0.0
11
1.123395
21
9.922937
31
0.0
0
LINE
8
0
62
5
10
1.588816
20
11.205597
30
0.0
11
1.123395
21
11.205597
31
0.0
0
ARC
8
0
62
5
10
1.582637
20
10.884932
30
0.0
40
0.320724
50
271.095276
51
88.895920
0
LINE
8
0
62
5
10
1.165490
20
10.564266
30
0.0
11
1.588767
21
10.564266
31
0.0
0
LINE
8
0
62
5
10
1.909482
20
9.922937
30
0.0
11
1.607041
21
10.527723
31
0.0
0
LINE
8
0
62
0
10
-9.991923
20
28.096222
30
0.0
11
-9.272852
21
28.096222
31
0.0
0
LINE
8
0
62
0
10
-9.272852
20
28.096222
30
0.0
11
-9.272852
21
22.606728
31
0.0
0
LINE
8
0
62
0
10
-12.604873
20
28.096222
30
0.0
11
-11.430270
21
28.096222
31
0.0
0
LINE
8
0
62
0
10
-11.430270
20
28.096222
30
0.0
11
-10.241923
21
24.194635
31
0.0
0
LINE
8
0
62
0
10
-18.830088
20
26.616976
30
0.0
11
-18.830088
21
24.086412
31
0.0
0
ARC
8
0
62
0
10
-18.050943
20
24.086412
30
0.0
40
0.779144
50
180.000000
51
301.886200
0
LINE
8
0
62
0
10
-17.271801
20
24.086412
30
0.0
11
-16.571732
21
24.086412
31
0.0
0
ARC
8
0
62
0
10
-18.050961
20
26.616976
30
0.0
40
1.479240
50
0.000000
51
135.000000
0
ARC
8
0
62
0
10
-14.595926
20
26.616976
30
0.0
40
1.479243
50
0.000000
51
135.000000
0
ARC
8
0
62
0
10
-14.595903
20
24.086412
30
0.0
40
0.779141
50
180.000000
51
301.886169
0
LINE
8
0
62
0
10
-15.375046
20
24.086412
30
0.0
11
-15.375046
21
26.616976
31
0.0
0
LINE
8
0
62
0
10
-13.116683
20
24.086412
30
0.0
11
-13.116683
21
26.616976
31
0.0
0
LINE
8
0
62
0
10
-6.180747
20
28.096222
30
0.0
11
-5.437605
21
28.096222
31
0.0
0
LINE
8
0
62
0
10
-5.437605
20
28.096222
30
0.0
11
-6.636201
21
22.606728
31
0.0
0
LINE
8
0
62
0
10
-8.745699
20
28.096222
30
0.0
11
-7.954617
21
28.096222
31
0.0
0
LINE
8
0
62
0
10
-7.954617
20
28.096222
30
0.0
11
-7.158555
21
23.977873
31
0.0
0
LINE
8
0
62
0
10
-4.167345
20
25.723030
30
0.0
11
-2.537287
21
25.723030
31
0.0
0
LINE
8
0
62
0
10
-2.537287
20
25.723030
30
0.0
11
-2.537287
21
25.099802
31
0.0
0
LINE
8
0
62
0
10
-4.167345
20
23.230011
30
0.0
11
-2.393452
21
23.230011
31
0.0
0
LINE
8
0
62
0
10
-2.393452
20
23.230011
30
0.0
11
-2.393452
21
22.606728
31
0.0
0
LINE
8
0
62
0
10
-4.910475
20
28.096222
30
0.0
11
-2.441404
21
28.096222
31
0.0
0
LINE
8
0
62
0
10
-2.441404
20
28.096222
30
0.0
11
-2.441404
21
27.472940
31
0.0
0
LINE
8
0
62
0
10
-1.914263
20
28.096222
30
0.0
11
-0.356705
21
28.096222
31
0.0
0
ARC
8
0
62
0
10
-0.529988
20
24.237255
30
0.0
40
1.443856
50
8.616516
51
44.506439
0
LINE
8
0
62
0
10
0.897571
20
24.453575
30
0.0
11
1.177447
21
22.606728
31
0.0
0
ARC
8
0
62
0
10
-0.356694
20
26.562033
30
0.0
40
0.880993
50
270.000000
51
303.424683
0
LINE
8
0
62
0
10
-1.171144
20
25.681038
30
0.0
11
-0.356694
21
25.681038
31
0.0
0
ARC
8
0
62
0
10
3.168528
20
26.616976
30
0.0
40
1.479243
50
0.000000
51
135.000000
0
ARC
8
0
62
0
10
3.168584
20
26.616955
30
0.0
40
0.779192
50
179.998413
51
243.182373
0
LINE
8
0
62
0
10
2.817050
20
25.921568
30
0.0
11
3.835907
21
25.406586
31
0.0
0
ARC
8
0
62
0
10
3.168516
20
24.086435
30
0.0
40
1.479258
50
314.999603
51
63.181519
0
LINE
8
0
62
0
10
1.689291
20
24.086412
30
0.0
11
2.389387
21
24.086412
31
0.0
0
ARC
8
0
62
0
10
3.168528
20
24.086412
30
0.0
40
0.779141
50
180.000000
51
301.886169
0
LINE
8
0
62
0
10
6.280764
20
24.476519
30
0.0
11
6.756385
21
26.688726
31
0.0
0
LINE
8
0
62
0
10
6.430110
20
28.096222
30
0.0
11
7.436908
21
28.096222
31
0.0
0
LINE
8
0
62
0
10
7.436908
20
28.096222
30
0.0
11
8.707416
21
22.606728
31
0.0
0
LINE
8
0
62
0
10
6.280764
20
24.476519
30
0.0
11
7.219739
21
24.476519
31
0.0
0
LINE
8
0
62
0
10
10.151426
20
22.606728
30
0.0
11
9.901426
21
22.606728
31
0.0
0
LINE
8
0
62
0
10
8.137805
20
28.096222
30
0.0
11
11.445889
21
28.096222
31
0.0
0
LINE
8
0
62
0
10
11.445889
20
28.096222
30
0.0
11
11.445889
21
27.472940
31
0.0
0
LINE
8
0
62
0
10
12.716078
20
28.096222
30
0.0
11
11.972980
21
28.096222
31
0.0
0
LINE
8
0
62
0
10
12.716078
20
22.606728
30
0.0
11
12.716078
21
28.096222
31
0.0
0
LINE
8
0
62
0
10
13.928006
20
26.616976
30
0.0
11
13.928006
21
24.086412
31
0.0
0
ARC
8
0
62
0
10
14.707125
20
26.616976
30
0.0
40
1.479243
50
0.000000
51
135.000000
0
LINE
8
0
62
0
10
16.186367
20
26.616976
30
0.0
11
16.186367
21
24.086412
31
0.0
0
LINE
8
0
62
0
10
16.698177
20
28.096222
30
0.0
11
17.872782
21
28.096222
31
0.0
0
LINE
8
0
62
0
10
17.872782
20
28.096222
30
0.0
11
19.061127
21
24.194635
31
0.0
0
LINE
8
0
62
0
10
19.311079
20
28.096222
30
0.0
11
20.030199
21
28.096222
31
0.0
0
LINE
8
0
62
0
10
20.030199
20
28.096222
30
0.0
11
20.030199
21
22.606728
31
0.0
0
ARC
8
0
62
0
10
14.707148
20
24.086412
30
0.0
40
0.779141
50
180.000000
51
301.886169
0
LINE
8
0
62
0
10
-0.258758
20
-9.995253
30
0.0
11
-0.992619
21
-9.995253
31
0.0
0
LINE
8
0
62
0
10
-0.625689
20
-9.628321
30
0.0
11
-0.625689
21
-10.362181
31
0.0
0
LINE
8
0
62
0
10
-4.889109
20
-4.205729
30
0.0
11
-4.889109
21
-5.451035
31
0.0
0
LINE
8
0
62
0
10
-4.478605
20
-4.166778
30
0.0
11
-5.299613
21
-4.166778
31
0.0
0
ARC
8
0
62
0
10
-3.919055
20
-5.071388
30
0.0
40
0.382121
50
196.004822
51
267.948395
0
ARC
8
0
62
0
10
-3.202681
20
-4.809815
30
0.0
40
1.144120
50
161.294113
51
198.705887
0
ARC
8
0
62
0
10
-3.919055
20
-4.549096
30
0.0
40
0.382357
50
16.128889
51
163.872177
0
ARC
8
0
62
0
10
-4.635430
20
-4.809815
30
0.0
40
1.144120
50
341.293762
51
18.706244
0
ARC
8
0
62
0
10
-3.919055
20
-5.071388
30
0.0
40
0.382121
50
272.763977
51
343.994110
0
LINE
8
0
62
0
10
-3.304187
20
-4.166778
30
0.0
11
-3.304187
21
-5.451035
31
0.0
0
LINE
8
0
62
0
10
-2.838184
20
-4.166778
30
0.0
11
-3.304187
21
-4.166778
31
0.0
0
ARC
8
0
62
0
10
-2.857265
20
-4.487842
30
0.0
40
0.321630
50
273.401001
51
86.599007
0
LINE
8
0
62
0
10
-3.284923
20
-4.808906
30
0.0
11
-2.838184
21
-4.808906
31
0.0
0
ARC
8
0
62
0
10
-1.106259
20
-5.071388
30
0.0
40
0.382121
50
196.004822
51
267.948395
0
ARC
8
0
62
0
10
-0.389885
20
-4.809815
30
0.0
40
1.144120
50
161.294113
51
198.705887
0
ARC
8
0
62
0
10
-1.106259
20
-4.549096
30
0.0
40
0.382357
50
16.128889
51
163.872177
0
ARC
8
0
62
0
10
-1.822634
20
-4.809815
30
0.0
40
1.144120
50
341.293762
51
18.706244
0
ARC
8
0
62
0
10
-1.106259
20
-5.071388
30
0.0
40
0.382121
50
272.763977
51
343.994110
0
LINE
8
0
62
0
10
-0.420807
20
-4.808877
30
0.0
11
0.128855
21
-4.808877
31
0.0
0
LINE
8
0
62
0
10
-0.459151
20
-4.166749
30
0.0
11
-0.459151
21
-5.451005
31
0.0
0
LINE
8
0
62
0
10
0.229761
20
-4.166749
30
0.0
11
-0.459151
21
-4.166749
31
0.0
0
ARC
8
0
62
0
10
1.561110
20
-4.584276
30
0.0
40
0.422107
50
48.941696
51
146.027985
0
ARC
8
0
62
0
10
1.647051
20
-4.484631
30
0.0
40
0.290524
50
0.000001
51
48.814072
0
ARC
8
0
62
0
10
1.616883
20
-4.484631
30
0.0
40
0.320692
50
279.088104
51
0.000000
0
ARC
8
0
62
0
10
1.634529
20
-5.121487
30
0.0
40
0.321887
50
19.434425
51
84.114273
0
ARC
8
0
62
0
10
1.653817
20
-5.116881
30
0.0
40
0.302172
50
307.790497
51
19.827772
0
ARC
8
0
62
0
10
1.565846
20
-4.980758
30
0.0
40
0.463859
50
216.483002
51
306.074036
0
LINE
8
0
62
0
10
2.248755
20
-4.166778
30
0.0
11
2.248755
21
-5.451035
31
0.0
0
LINE
8
0
62
0
10
2.606972
20
-4.166778
30
0.0
11
2.248755
21
-4.166778
31
0.0
0
ARC
8
0
62
0
10
2.562668
20
-4.636980
30
0.0
40
0.472284
50
24.386383
51
84.617409
0
ARC
8
0
62
0
10
1.909131
20
-4.808906
30
0.0
40
1.144120
50
341.294312
51
18.705687
0
ARC
8
0
62
0
10
2.562668
20
-4.980833
30
0.0
40
0.472284
50
275.382446
51
335.613617
0
LINE
8
0
62
0
10
2.280861
20
-5.451035
30
0.0
11
2.606970
21
-5.451035
31
0.0
0
LINE
8
0
62
0
10
4.680951
20
-4.807308
30
0.0
11
4.217141
21
-4.807308
31
0.0
0
ARC
8
0
62
0
10
4.680849
20
-5.128372
30
0.0
40
0.321064
50
270.000000
51
89.981880
0
LINE
8
0
62
0
10
4.178613
20
-5.449436
30
0.0
11
4.680849
21
-5.449436
31
0.0
0
LINE
8
0
62
0
10
4.178613
20
-4.166778
30
0.0
11
4.178613
21
-5.449436
31
0.0
0
LINE
8
0
62
0
10
4.623517
20
-4.166778
30
0.0
11
4.178613
21
-4.166778
31
0.0
0
ARC
8
0
62
0
10
4.620951
20
-4.489128
30
0.0
40
0.322361
50
296.191833
51
89.543999
0
ARC
8
0
62
0
10
5.561463
20
-5.071388
30
0.0
40
0.382121
50
196.004822
51
267.948395
0
ARC
8
0
62
0
10
6.277838
20
-4.809815
30
0.0
40
1.144120
50
161.294113
51
198.705887
0
ARC
8
0
62
0
10
5.561463
20
-4.549096
30
0.0
40
0.382357
50
16.128889
51
163.872177
0
ARC
8
0
62
0
10
4.845089
20
-4.809815
30
0.0
40
1.144120
50
341.293762
51
18.706244
0
ARC
8
0
62
0
10
5.561463
20
-5.071388
30
0.0
40
0.382121
50
272.763977
51
343.994110
0
LINE
8
0
62
0
10
6.942300
20
-5.451035
30
0.0
11
6.144225
21
-4.166778
31
0.0
0
LINE
8
0
62
0
10
6.887259
20
-4.166778
30
0.0
11
6.089186
21
-5.451035
31
0.0
0
LINE
8
0
62
0
10
-10.400001
20
-14.342798
30
0.0
11
-10.400001
21
-15.627054
31
0.0
0
LINE
8
0
62
0
10
-9.933998
20
-14.342798
30
0.0
11
-10.400001
21
-14.342798
31
0.0
0
ARC
8
0
62
0
10
-9.953077
20
-14.663860
30
0.0
40
0.321630
50
273.401001
51
86.599007
0
LINE
8
0
62
0
10
-10.380736
20
-14.984926
30
0.0
11
-9.933998
21
-14.984926
31
0.0
0
LINE
8
0
62
0
10
-9.420295
20
-14.342798
30
0.0
11
-9.420295
21
-15.627054
31
0.0
0
LINE
8
0
62
0
10
-8.954295
20
-14.342798
30
0.0
11
-9.420295
21
-14.342798
31
0.0
0
ARC
8
0
62
0
10
-8.960482
20
-14.663860
30
0.0
40
0.321124
50
271.095276
51
88.895920
0
LINE
8
0
62
0
10
-9.378148
20
-14.984926
30
0.0
11
-8.954345
21
-14.984926
31
0.0
0
LINE
8
0
62
0
10
-8.633229
20
-15.627054
30
0.0
11
-8.936047
21
-15.021515
31
0.0
0
LINE
8
0
62
0
10
-8.490973
20
-15.627068
30
0.0
11
-7.737847
21
-15.627068
31
0.0
0
LINE
8
0
62
0
10
-8.491429
20
-14.984940
30
0.0
11
-8.490973
21
-15.627068
31
0.0
0
LINE
8
0
62
0
10
-7.902966
20
-14.984940
30
0.0
11
-8.491429
21
-14.984940
31
0.0
0
LINE
8
0
62
0
10
-8.491889
20
-14.342812
30
0.0
11
-8.491458
21
-14.965687
31
0.0
0
LINE
8
0
62
0
10
-7.802060
20
-14.342812
30
0.0
11
-8.491889
21
-14.342812
31
0.0
0
ARC
8
0
62
0
10
-7.256717
20
-15.257618
30
0.0
40
0.370207
50
210.522003
51
269.441071
0
LINE
8
0
62
0
10
-7.129456
20
-15.629084
30
0.0
11
-7.260328
21
-15.627808
31
0.0
0
ARC
8
0
62
0
10
-7.126160
20
-15.291140
30
0.0
40
0.337961
50
269.441071
51
357.350677
0
ARC
8
0
62
0
10
-7.063460
20
-15.331692
30
0.0
40
0.276029
50
5.182272
51
59.344830
0
LINE
8
0
62
0
10
-7.428162
20
-14.877153
30
0.0
11
-6.922721
21
-15.094238
31
0.0
0
ARC
8
0
62
0
10
-7.287423
20
-14.639702
30
0.0
40
0.276029
50
185.182404
51
239.344803
0
ARC
8
0
62
0
10
-7.226077
20
-14.679359
30
0.0
40
0.336569
50
91.261345
51
177.491959
0
LINE
8
0
62
0
10
-7.102925
20
-14.342735
30
0.0
11
-7.233485
21
-14.342873
31
0.0
0
ARC
8
0
62
0
10
-7.114584
20
-14.701048
30
0.0
40
0.358501
50
29.271709
51
88.136147
0
ARC
8
0
62
0
10
-6.151856
20
-15.257618
30
0.0
40
0.370207
50
210.522003
51
269.441071
0
LINE
8
0
62
0
10
-6.024595
20
-15.629084
30
0.0
11
-6.155468
21
-15.627808
31
0.0
0
ARC
8
0
62
0
10
-6.021298
20
-15.291140
30
0.0
40
0.337961
50
269.441071
51
357.350677
0
ARC
8
0
62
0
10
-5.958600
20
-15.331692
30
0.0
40
0.276029
50
5.182272
51
59.344830
0
LINE
8
0
62
0
10
-6.323303
20
-14.877153
30
0.0
11
-5.817860
21
-15.094238
31
0.0
0
ARC
8
0
62
0
10
-6.182563
20
-14.639702
30
0.0
40
0.276029
50
185.182404
51
239.344803
0
ARC
8
0
62
0
10
-6.121216
20
-14.679359
30
0.0
40
0.336569
50
91.261345
51
177.491959
0
LINE
8
0
62
0
10
-5.998064
20
-14.342735
30
0.0
11
-6.128625
21
-14.342873
31
0.0
0
ARC
8
0
62
0
10
-6.009724
20
-14.701048
30
0.0
40
0.358501
50
29.271709
51
88.136147
0
ARC
8
0
62
0
10
-9.909418
20
10.391085
30
0.0
40
0.472284
50
204.386841
51
324.320007
0
ARC
8
0
62
0
10
-9.255880
20
10.563011
30
0.0
40
1.144120
50
161.294128
51
198.705872
0
ARC
8
0
62
0
10
-9.909418
20
10.734936
30
0.0
40
0.472284
50
35.680031
51
155.613174
0
LINE
8
0
62
0
10
-9.397363
20
9.922964
30
0.0
11
-9.397363
21
11.207222
31
0.0
0
LINE
8
0
62
0
10
-8.644238
20
9.922964
30
0.0
11
-9.397363
21
9.922964
31
0.0
0
LINE
8
0
62
0
10
-8.050389
20
9.922964
30
0.0
11
-8.417320
21
9.922964
31
0.0
0
LINE
8
0
62
0
10
-8.233855
20
11.168694
30
0.0
11
-8.233855
21
9.961494
31
0.0
0
LINE
8
0
62
0
10
-8.052320
20
11.207222
30
0.0
11
-8.417320
21
11.207222
31
0.0
0
ARC
8
0
62
0
10
-7.429934
20
10.391085
30
0.0
40
0.472284
50
204.386841
51
324.320007
0
ARC
8
0
62
0
10
-6.776398
20
10.563011
30
0.0
40
1.144120
50
161.294128
51
198.705872
0
ARC
8
0
62
0
10
-7.429934
20
10.734936
30
0.0
40
0.472284
50
35.680031
51
155.613174
0
LINE
8
0
62
0
10
-6.917877
20
9.922964
30
0.0
11
-6.917877
21
11.207222
31
0.0
0
LINE
8
0
62
0
10
-6.575575
20
10.711187
30
0.0
11
-6.199612
21
9.922964
31
0.0
0
LINE
8
0
62
0
10
-6.199612
20
11.207222
30
0.0
11
-6.880203
21
10.410353
31
0.0
0
LINE
8
0
62
0
10
-9.989496
20
0.987049
30
0.0
11
-9.989496
21
-0.258255
31
0.0
0
LINE
8
0
62
0
10
-9.578993
20
1.026001
30
0.0
11
-10.400001
21
1.026001
31
0.0
0
LINE
8
0
62
0
10
-9.046143
20
0.417191
30
0.0
11
-9.450567
21
1.026001
31
0.0
0
LINE
8
0
62
0
10
-9.024011
20
0.383873
30
0.0
11
-9.024011
21
-0.258255
31
0.0
0
LINE
8
0
62
0
10
-8.597454
20
1.026001
30
0.0
11
-9.024011
21
0.383873
31
0.0
0
LINE
8
0
62
0
10
-8.436921
20
1.026001
30
0.0
11
-8.436921
21
-0.258255
31
0.0
0
LINE
8
0
62
0
10
-7.970921
20
1.026001
30
0.0
11
-8.436921
21
1.026001
31
0.0
0
ARC
8
0
62
0
10
-7.990001
20
0.704937
30
0.0
40
0.321630
50
273.401001
51
86.599007
0
LINE
8
0
62
0
10
-8.417658
20
0.383873
30
0.0
11
-7.970921
21
0.383873
31
0.0
0
LINE
8
0
62
0
10
-7.507599
20
-0.258268
30
0.0
11
-6.754474
21
-0.258268
31
0.0
0
LINE
8
0
62
0
10
-7.508057
20
0.383859
30
0.0
11
-7.507599
21
-0.258268
31
0.0
0
LINE
8
0
62
0
10
-6.919593
20
0.383859
30
0.0
11
-7.508057
21
0.383859
31
0.0
0
LINE
8
0
62
0
10
-7.508516
20
1.025988
30
0.0
11
-7.508084
21
0.403113
31
0.0
0
LINE
8
0
62
0
10
-6.818686
20
1.025988
30
0.0
11
-7.508516
21
1.025988
31
0.0
0
LINE
8
0
62
0
10
-10.400001
20
-1.468799
30
0.0
11
-10.400001
21
-2.753055
31
0.0
0
LINE
8
0
62
0
10
-9.933998
20
-1.468799
30
0.0
11
-10.400001
21
-1.468799
31
0.0
0
ARC
8
0
62
0
10
-9.953077
20
-1.789863
30
0.0
40
0.321630
50
273.401001
51
86.599007
0
LINE
8
0
62
0
10
-10.380736
20
-2.110926
30
0.0
11
-9.933998
21
-2.110926
31
0.0
0
LINE
8
0
62
0
10
-9.420295
20
-1.468799
30
0.0
11
-9.420295
21
-2.753055
31
0.0
0
LINE
8
0
62
0
10
-8.954295
20
-1.468799
30
0.0
11
-9.420295
21
-1.468799
31
0.0
0
ARC
8
0
62
0
10
-8.960482
20
-1.789862
30
0.0
40
0.321124
50
271.095276
51
88.895920
0
LINE
8
0
62
0
10
-9.378148
20
-2.110926
30
0.0
11
-8.954345
21
-2.110926
31
0.0
0
LINE
8
0
62
0
10
-8.633229
20
-2.753055
30
0.0
11
-8.936047
21
-2.147516
31
0.0
0
LINE
8
0
62
0
10
-8.490973
20
-2.753068
30
0.0
11
-7.737847
21
-2.753068
31
0.0
0
LINE
8
0
62
0
10
-8.491429
20
-2.110940
30
0.0
11
-8.490973
21
-2.753068
31
0.0
0
LINE
8
0
62
0
10
-7.902966
20
-2.110940
30
0.0
11
-8.491429
21
-2.110940
31
0.0
0
LINE
8
0
62
0
10
-8.491889
20
-1.468812
30
0.0
11
-8.491458
21
-2.091687
31
0.0
0
LINE
8
0
62
0
10
-7.802060
20
-1.468812
30
0.0
11
-8.491889
21
-1.468812
31
0.0
0
ARC
8
0
62
0
10
-7.256717
20
-2.383618
30
0.0
40
0.370207
50
210.522003
51
269.441071
0
LINE
8
0
62
0
10
-7.129456
20
-2.755084
30
0.0
11
-7.260328
21
-2.753807
31
0.0
0
ARC
8
0
62
0
10
-7.126160
20
-2.417140
30
0.0
40
0.337961
50
269.441071
51
357.350677
0
ARC
8
0
62
0
10
-7.063460
20
-2.457693
30
0.0
40
0.276029
50
5.182272
51
59.344830
0
LINE
8
0
62
0
10
-7.428162
20
-2.003155
30
0.0
11
-6.922721
21
-2.220238
31
0.0
0
ARC
8
0
62
0
10
-7.287423
20
-1.765701
30
0.0
40
0.276029
50
185.182404
51
239.344803
0
ARC
8
0
62
0
10
-7.226077
20
-1.805362
30
0.0
40
0.336569
50
91.261345
51
177.491959
0
LINE
8
0
62
0
10
-7.102925
20
-1.468737
30
0.0
11
-7.233485
21
-1.468874
31
0.0
0
ARC
8
0
62
0
10
-7.114584
20
-1.827048
30
0.0
40
0.358501
50
29.271709
51
88.136147
0
ARC
8
0
62
0
10
-6.151856
20
-2.383618
30
0.0
40
0.370207
50
210.522003
51
269.441071
0
LINE
8
0
62
0
10
-6.024595
20
-2.755084
30
0.0
11
-6.155468
21
-2.753807
31
0.0
0
ARC
8
0
62
0
10
-6.021298
20
-2.417140
30
0.0
40
0.337961
50
269.441071
51
357.350677
0
ARC
8
0
62
0
10
-5.958600
20
-2.457693
30
0.0
40
0.276029
50
5.182272
51
59.344830
0
LINE
8
0
62
0
10
-6.323303
20
-2.003155
30
0.0
11
-5.817860
21
-2.220238
31
0.0
0
ARC
8
0
62
0
10
-6.182563
20
-1.765701
30
0.0
40
0.276029
50
185.182404
51
239.344803
0
ARC
8
0
62
0
10
-6.121216
20
-1.805362
30
0.0
40
0.336569
50
91.261345
51
177.491959
0
LINE
8
0
62
0
10
-5.998064
20
-1.468737
30
0.0
11
-6.128625
21
-1.468874
31
0.0
0
ARC
8
0
62
0
10
-6.009724
20
-1.827048
30
0.0
40
0.358501
50
29.271709
51
88.136147
0
LINE
8
0
62
0
10
-9.989496
20
13.466249
30
0.0
11
-9.989496
21
12.220943
31
0.0
0
LINE
8
0
62
0
10
-9.578993
20
13.505201
30
0.0
11
-10.400001
21
13.505201
31
0.0
0
LINE
8
0
62
0
10
-9.046143
20
12.896391
30
0.0
11
-9.450567
21
13.505201
31
0.0
0
LINE
8
0
62
0
10
-9.024011
20
12.863071
30
0.0
11
-9.024011
21
12.220943
31
0.0
0
LINE
8
0
62
0
10
-8.597454
20
13.505201
30
0.0
11
-9.024011
21
12.863071
31
0.0
0
LINE
8
0
62
0
10
-8.436921
20
13.505201
30
0.0
11
-8.436921
21
12.220943
31
0.0
0
LINE
8
0
62
0
10
-7.970921
20
13.505201
30
0.0
11
-8.436921
21
13.505201
31
0.0
0
ARC
8
0
62
0
10
-7.990001
20
13.184137
30
0.0
40
0.321630
50
273.401001
51
86.599007
0
LINE
8
0
62
0
10
-8.417658
20
12.863071
30
0.0
11
-7.970921
21
12.863071
31
0.0
0
LINE
8
0
62
0
10
-7.507599
20
12.220930
30
0.0
11
-6.754474
21
12.220930
31
0.0
0
LINE
8
0
62
0
10
-7.508057
20
12.863058
30
0.0
11
-7.507599
21
12.220930
31
0.0
0
LINE
8
0
62
0
10
-6.919593
20
12.863058
30
0.0
11
-7.508057
21
12.863058
31
0.0
0
LINE
8
0
62
0
10
-7.508516
20
13.505188
30
0.0
11
-7.508084
21
12.882313
31
0.0
0
LINE
8
0
62
0
10
-6.818686
20
13.505188
30
0.0
11
-7.508516
21
13.505188
31
0.0
0
LINE
8
0
62
0
10
-9.989496
20
-9.392149
30
0.0
11
-9.989496
21
-10.637455
31
0.0
0
LINE
8
0
62
0
10
-9.578993
20
-9.353199
30
0.0
11
-10.400001
21
-9.353199
31
0.0
0
LINE
8
0
62
0
10
-9.046143
20
-9.962009
30
0.0
11
-9.450567
21
-9.353199
31
0.0
0
LINE
8
0
62
0
10
-9.024011
20
-9.995327
30
0.0
11
-9.024011
21
-10.637455
31
0.0
0
LINE
8
0
62
0
10
-8.597454
20
-9.353199
30
0.0
11
-9.024011
21
-9.995327
31
0.0
0
LINE
8
0
62
0
10
-8.436921
20
-9.353199
30
0.0
11
-8.436921
21
-10.637455
31
0.0
0
LINE
8
0
62
0
10
-7.970921
20
-9.353199
30
0.0
11
-8.436921
21
-9.353199
31
0.0
0
ARC
8
0
62
0
10
-7.990001
20
-9.674263
30
0.0
40
0.321630
50
273.401001
51
86.599007
0
LINE
8
0
62
0
10
-8.417658
20
-9.995327
30
0.0
11
-7.970921
21
-9.995327
31
0.0
0
LINE
8
0
62
0
10
-7.507599
20
-10.637470
30
0.0
11
-6.754474
21
-10.637470
31
0.0
0
LINE
8
0
62
0
10
-7.508057
20
-9.995338
30
0.0
11
-7.507599
21
-10.637470
31
0.0
0
LINE
8
0
62
0
10
-6.919593
20
-9.995338
30
0.0
11
-7.508057
21
-9.995338
31
0.0
0
LINE
8
0
62
0
10
-7.508516
20
-9.353210
30
0.0
11
-7.508084
21
-9.976088
31
0.0
0
LINE
8
0
62
0
10
-6.818686
20
-9.353210
30
0.0
11
-7.508516
21
-9.353210
31
0.0
0
ARC
8
0
62
0
10
-9.909418
20
5.199464
30
0.0
40
0.472284
50
204.386841
51
324.320007
0
ARC
8
0
62
0
10
-9.255880
20
5.371390
30
0.0
40
1.144120
50
161.294128
51
198.705872
0
ARC
8
0
62
0
10
-9.909418
20
5.543317
30
0.0
40
0.472284
50
35.680031
51
155.613174
0
LINE
8
0
62
0
10
-9.397363
20
4.731345
30
0.0
11
-9.397363
21
6.015602
31
0.0
0
LINE
8
0
62
0
10
-8.644238
20
4.731345
30
0.0
11
-9.397363
21
4.731345
31
0.0
0
LINE
8
0
62
0
10
-8.050389
20
4.731345
30
0.0
11
-8.417320
21
4.731345
31
0.0
0
LINE
8
0
62
0
10
-8.233855
20
5.977074
30
0.0
11
-8.233855
21
4.769872
31
0.0
0
LINE
8
0
62
0
10
-8.052320
20
6.015601
30
0.0
11
-8.417320
21
6.015601
31
0.0
0
ARC
8
0
62
0
10
-7.429934
20
5.199464
30
0.0
40
0.472284
50
204.386841
51
324.320007
0
ARC
8
0
62
0
10
-6.776398
20
5.371390
30
0.0
40
1.144120
50
161.294128
51
198.705872
0
ARC
8
0
62
0
10
-7.429934
20
5.543317
30
0.0
40
0.472284
50
35.680031
51
155.613174
0
LINE
8
0
62
0
10
-6.917877
20
4.731345
30
0.0
11
-6.917877
21
6.015602
31
0.0
0
LINE
8
0
62
0
10
-6.575575
20
5.519568
30
0.0
11
-6.199612
21
4.731345
31
0.0
0
LINE
8
0
62
0
10
-6.199612
20
6.015602
30
0.0
11
-6.880203
21
5.218731
31
0.0
0
ARC
8
0
62
0
10
-9.909418
20
-7.674535
30
0.0
40
0.472284
50
204.386841
51
324.320007
0
ARC
8
0
62
0
10
-9.255880
20
-7.502608
30
0.0
40
1.144120
50
161.294128
51
198.705872
0
ARC
8
0
62
0
10
-9.909418
20
-7.330682
30
0.0
40
0.472284
50
35.680031
51
155.613174
0
LINE
8
0
62
0
10
-9.397363
20
-8.142654
30
0.0
11
-9.397363
21
-6.858398
31
0.0
0
LINE
8
0
62
0
10
-8.644238
20
-8.142654
30
0.0
11
-9.397363
21
-8.142654
31
0.0
0
LINE
8
0
62
0
10
-8.050389
20
-8.142654
30
0.0
11
-8.417320
21
-8.142654
31
0.0
0
LINE
8
0
62
0
10
-8.233855
20
-6.896926
30
0.0
11
-8.233855
21
-8.104127
31
0.0
0
LINE
8
0
62
0
10
-8.052320
20
-6.858398
30
0.0
11
-8.417320
21
-6.858398
31
0.0
0
ARC
8
0
62
0
10
-7.429934
20
-7.674535
30
0.0
40
0.472284
50
204.386841
51
324.320007
0
ARC
8
0
62
0
10
-6.776398
20
-7.502608
30
0.0
40
1.144120
50
161.294128
51
198.705872
0
ARC
8
0
62
0
10
-7.429934
20
-7.330682
30
0.0
40
0.472284
50
35.680031
51
155.613174
0
LINE
8
0
62
0
10
-6.917877
20
-8.142654
30
0.0
11
-6.917877
21
-6.858398
31
0.0
0
LINE
8
0
62
0
10
-6.575575
20
-7.354431
30
0.0
11
-6.199612
21
-8.142654
31
0.0
0
LINE
8
0
62
0
10
-6.199612
20
-6.858398
30
0.0
11
-6.880203
21
-7.655268
31
0.0
0
ARC
8
0
62
0
10
-9.909418
20
-4.982915
30
0.0
40
0.472284
50
204.386841
51
324.320007
0
ARC
8
0
62
0
10
-9.255880
20
-4.810988
30
0.0
40
1.144120
50
161.294128
51
198.705872
0
ARC
8
0
62
0
10
-9.909418
20
-4.639061
30
0.0
40
0.472284
50
35.680031
51
155.613174
0
LINE
8
0
62
0
10
-9.397363
20
-5.451035
30
0.0
11
-9.397363
21
-4.166778
31
0.0
0
LINE
8
0
62
0
10
-8.644238
20
-5.451035
30
0.0
11
-9.397363
21
-5.451035
31
0.0
0
LINE
8
0
62
0
10
-8.050389
20
-5.451035
30
0.0
11
-8.417320
21
-5.451035
31
0.0
0
LINE
8
0
62
0
10
-8.233855
20
-4.205305
30
0.0
11
-8.233855
21
-5.412506
31
0.0
0
LINE
8
0
62
0
10
-8.052320
20
-4.166778
30
0.0
11
-8.417320
21
-4.166778
31
0.0
0
ARC
8
0
62
0
10
-7.429934
20
-4.982915
30
0.0
40
0.472284
50
204.386841
51
324.320007
0
ARC
8
0
62
0
10
-6.776398
20
-4.810988
30
0.0
40
1.144120
50
161.294128
51
198.705872
0
ARC
8
0
62
0
10
-7.429934
20
-4.639061
30
0.0
40
0.472284
50
35.680031
51
155.613174
0
LINE
8
0
62
0
10
-6.917877
20
-5.451035
30
0.0
11
-6.917877
21
-4.166778
31
0.0
0
LINE
8
0
62
0
10
-6.575575
20
-4.662811
30
0.0
11
-6.199612
21
-5.451035
31
0.0
0
LINE
8
0
62
0
10
-6.199612
20
-4.166778
30
0.0
11
-6.880203
21
-4.963647
31
0.0
0
LINE
8
0
62
0
10
-9.989496
20
-11.886950
30
0.0
11
-9.989496
21
-13.132256
31
0.0
0
LINE
8
0
62
0
10
-9.578993
20
-11.847998
30
0.0
11
-10.400001
21
-11.847998
31
0.0
0
LINE
8
0
62
0
10
-9.046143
20
-12.456808
30
0.0
11
-9.450567
21
-11.847998
31
0.0
0
LINE
8
0
62
0
10
-9.024011
20
-12.490126
30
0.0
11
-9.024011
21
-13.132256
31
0.0
0
LINE
8
0
62
0
10
-8.597454
20
-11.847998
30
0.0
11
-9.024011
21
-12.490126
31
0.0
0
LINE
8
0
62
0
10
-8.436921
20
-11.847998
30
0.0
11
-8.436921
21
-13.132256
31
0.0
0
LINE
8
0
62
0
10
-7.970921
20
-11.847998
30
0.0
11
-8.436921
21
-11.847998
31
0.0
0
ARC
8
0
62
0
10
-7.990001
20
-12.169062
30
0.0
40
0.321630
50
273.401001
51
86.599007
0
LINE
8
0
62
0
10
-8.417658
20
-12.490126
30
0.0
11
-7.970921
21
-12.490126
31
0.0
0
LINE
8
0
62
0
10
-7.507599
20
-13.132267
30
0.0
11
-6.754474
21
-13.132267
31
0.0
0
LINE
8
0
62
0
10
-7.508057
20
-12.490141
30
0.0
11
-7.507599
21
-13.132267
31
0.0
0
LINE
8
0
62
0
10
-6.919593
20
-12.490141
30
0.0
11
-7.508057
21
-12.490141
31
0.0
0
LINE
8
0
62
0
10
-7.508516
20
-11.848011
30
0.0
11
-7.508084
21
-12.470886
31
0.0
0
LINE
8
0
62
0
10
-6.818686
20
-11.848011
30
0.0
11
-7.508516
21
-11.848011
31
0.0
0
LINE
8
0
62
0
10
-9.989496
20
15.961048
30
0.0
11
-9.989496
21
14.715744
31
0.0
0
LINE
8
0
62
0
10
-9.578993
20
16.000000
30
0.0
11
-10.400001
21
16.000000
31
0.0
0
LINE
8
0
62
0
10
-9.046143
20
15.391190
30
0.0
11
-9.450567
21
16.000000
31
0.0
0
LINE
8
0
62
0
10
-9.024011
20
15.357872
30
0.0
11
-9.024011
21
14.715744
31
0.0
0
LINE
8
0
62
0
10
-8.597454
20
16.000000
30
0.0
11
-9.024011
21
15.357872
31
0.0
0
LINE
8
0
62
0
10
-8.436921
20
16.000000
30
0.0
11
-8.436921
21
14.715744
31
0.0
0
LINE
8
0
62
0
10
-7.970921
20
16.000000
30
0.0
11
-8.436921
21
16.000000
31
0.0
0
ARC
8
0
62
0
10
-7.990001
20
15.678936
30
0.0
40
0.321630
50
273.401001
51
86.599007
0
LINE
8
0
62
0
10
-8.417658
20
15.357872
30
0.0
11
-7.970921
21
15.357872
31
0.0
0
LINE
8
0
62
0
10
-7.507599
20
14.715731
30
0.0
11
-6.754474
21
14.715731
31
0.0
0
LINE
8
0
62
0
10
-7.508057
20
15.357861
30
0.0
11
-7.507599
21
14.715731
31
0.0
0
LINE
8
0
62
0
10
-6.919593
20
15.357861
30
0.0
11
-7.508057
21
15.357861
31
0.0
0
LINE
8
0
62
0
10
-7.508516
20
15.999989
30
0.0
11
-7.508084
21
15.377113
31
0.0
0
LINE
8
0
62
0
10
-6.818686
20
15.999989
30
0.0
11
-7.508516
21
15.999989
31
0.0
0
LINE
8
0
62
0
10
-9.989496
20
3.481850
30
0.0
11
-9.989496
21
2.236546
31
0.0
0
LINE
8
0
62
0
10
-9.578993
20
3.520801
30
0.0
11
-10.400001
21
3.520801
31
0.0
0
LINE
8
0
62
0
10
-9.046143
20
2.911991
30
0.0
11
-9.450567
21
3.520801
31
0.0
0
LINE
8
0
62
0
10
-9.024011
20
2.878673
30
0.0
11
-9.024011
21
2.236545
31
0.0
0
LINE
8
0
62
0
10
-8.597454
20
3.520801
30
0.0
11
-9.024011
21
2.878673
31
0.0
0
LINE
8
0
62
0
10
-8.436921
20
3.520801
30
0.0
11
-8.436921
21
2.236545
31
0.0
0
LINE
8
0
62
0
10
-7.970921
20
3.520801
30
0.0
11
-8.436921
21
3.520801
31
0.0
0
ARC
8
0
62
0
10
-7.990001
20
3.199738
30
0.0
40
0.321630
50
273.401001
51
86.599007
0
LINE
8
0
62
0
10
-8.417658
20
2.878673
30
0.0
11
-7.970921
21
2.878673
31
0.0
0
LINE
8
0
62
0
10
-7.507599
20
2.236532
30
0.0
11
-6.754474
21
2.236532
31
0.0
0
LINE
8
0
62
0
10
-7.508057
20
2.878659
30
0.0
11
-7.507599
21
2.236532
31
0.0
0
LINE
8
0
62
0
10
-6.919593
20
2.878659
30
0.0
11
-7.508057
21
2.878659
31
0.0
0
LINE
8
0
62
0
10
-7.508516
20
3.520787
30
0.0
11
-7.508084
21
2.897913
31
0.0
0
LINE
8
0
62
0
10
-6.818686
20
3.520787
30
0.0
11
-7.508516
21
3.520787
31
0.0
0
LINE
8
0
62
0
10
17.417299
20
26.159252
30
0.0
11
17.417299
21
22.606728
31
0.0
0
LINE
8
0
62
0
10
10.151426
20
27.222939
30
0.0
11
10.151426
21
22.606728
31
0.0
0
LINE
8
0
62
0
10
6.093022
20
23.603292
30
0.0
11
5.878763
21
22.606728
31
0.0
0
LINE
8
0
62
0
10
-1.171144
20
27.193026
30
0.0
11
-1.171144
21
25.681038
31
0.0
0
LINE
8
0
62
0
10
-1.171144
20
24.777861
30
0.0
11
-1.171144
21
22.606728
31
0.0
0
ARC
8
0
62
0
10
-0.356696
20
26.562099
30
0.0
40
1.534125
50
308.383118
51
315.000000
0
LINE
8
0
62
0
10
-4.167345
20
24.849802
30
0.0
11
-4.167345
21
23.230011
31
0.0
0
LINE
8
0
62
0
10
-4.167345
20
27.222939
30
0.0
11
-4.167345
21
25.723030
31
0.0
0
LINE
8
0
62
0
10
-11.885752
20
26.159252
30
0.0
11
-11.885752
21
22.606728
31
0.0
0
ARC
8
0
62
0
10
-18.050943
20
26.616976
30
0.0
40
0.779144
50
148.113800
51
180.000000
0
ARC
8
0
62
0
10
-18.050968
20
24.086412
30
0.0
40
1.479237
50
308.136444
51
315.000000
0
ARC
8
0
62
0
10
3.168536
20
26.616976
30
0.0
40
0.779144
50
148.113800
51
180.000000
0
ARC
8
0
62
0
10
3.168525
20
24.086412
30
0.0
40
1.479234
50
308.136444
51
315.000000
0
ARC
8
0
62
0
10
14.707148
20
26.616976
30
0.0
40
0.779141
50
148.113831
51
180.000000
0
ARC
8
0
62
0
10
14.707125
20
24.086412
30
0.0
40
1.479243
50
308.136475
51
315.000000
0
ARC
8
0
62
0
10
-14.595903
20
26.616976
30
0.0
40
0.779141
50
148.113831
51
180.000000
0
ARC
8
0
62
0
10
-14.595926
20
24.086412
30
0.0
40
1.479243
50
308.136475
51
315.000000
0
ARC
8
0
62
0
10
-18.050961
20
26.616976
30
0.0
40
1.479240
50
135.000000
51
141.863525
0
ARC
8
0
62
0
10
-14.595926
20
26.616976
30
0.0
40
1.479243
50
135.000000
51
141.863525
0
ARC
8
0
62
0
10
-18.050968
20
24.086412
30
0.0
40
1.479237
50
315.000000
51
0.000000
0
ARC
8
0
62
0
10
-14.595926
20
24.086412
30
0.0
40
1.479243
50
315.000000
51
0.000000
0
ARC
8
0
62
0
10
-0.356696
20
26.562099
30
0.0
40
1.534125
50
315.000000
51
90.000305
0
ARC
8
0
62
0
10
3.168528
20
26.616976
30
0.0
40
1.479243
50
135.000000
51
141.863525
0
ARC
8
0
62
0
10
14.707125
20
24.086412
30
0.0
40
1.479243
50
315.000000
51
0.000000
0
ARC
8
0
62
0
10
14.707125
20
26.616976
30
0.0
40
1.479243
50
135.000000
51
141.863525
0
ARC
8
0
62
2
10
5.978107
20
-7.772308
30
0.0
40
0.370207
50
210.522003
51
269.441071
0
LINE
8
0
62
2
10
5.974495
20
-8.142497
30
0.0
11
6.105368
21
-8.143775
31
0.0
0
ARC
8
0
62
2
10
6.108665
20
-7.805830
30
0.0
40
0.337961
50
269.441071
51
357.350677
0
ARC
8
0
62
2
10
6.171364
20
-7.846383
30
0.0
40
0.276029
50
5.182272
51
59.344830
0
LINE
8
0
62
2
10
6.312103
20
-7.608929
30
0.0
11
5.806662
21
-7.391846
31
0.0
0
ARC
8
0
62
2
10
5.947400
20
-7.154391
30
0.0
40
0.276029
50
185.182404
51
239.344803
0
ARC
8
0
62
2
10
6.008747
20
-7.194052
30
0.0
40
0.336569
50
91.261345
51
177.491959
0
LINE
8
0
62
2
10
6.001338
20
-6.857564
30
0.0
11
6.131899
21
-6.857427
31
0.0
0
ARC
8
0
62
2
10
6.120239
20
-7.215739
30
0.0
40
0.358501
50
29.271709
51
88.136147
0
LINE
8
0
62
2
10
6.666051
20
-6.857489
30
0.0
11
6.666051
21
-8.141746
31
0.0
0
LINE
8
0
62
2
10
6.704578
20
-7.499617
30
0.0
11
7.405783
21
-7.499617
31
0.0
0
LINE
8
0
62
2
10
7.445778
20
-8.141746
30
0.0
11
7.445778
21
-6.857489
31
0.0
0
LINE
8
0
62
2
10
7.574204
20
-8.141746
30
0.0
11
8.055800
21
-6.857489
31
0.0
0
LINE
8
0
62
2
10
8.055800
20
-6.857489
30
0.0
11
8.537396
21
-8.141746
31
0.0
0
LINE
8
0
62
2
10
7.715931
20
-7.866548
30
0.0
11
8.395669
21
-7.866548
31
0.0
0
LINE
8
0
62
2
10
8.697929
20
-8.141746
30
0.0
11
8.697929
21
-6.857489
31
0.0
0
LINE
8
0
62
2
10
8.697929
20
-6.857489
30
0.0
11
9.163930
21
-6.857489
31
0.0
0
ARC
8
0
62
2
10
9.144851
20
-7.178553
30
0.0
40
0.321630
50
273.401001
51
86.599007
0
LINE
8
0
62
2
10
9.163930
20
-7.499617
30
0.0
11
8.717193
21
-7.499617
31
0.0
0
LINE
8
0
62
2
10
10.380378
20
-8.141758
30
0.0
11
9.627254
21
-8.141758
31
0.0
0
LINE
8
0
62
2
10
9.627254
20
-8.141758
30
0.0
11
9.626795
21
-7.499630
31
0.0
0
LINE
8
0
62
2
10
9.626795
20
-7.499630
30
0.0
11
10.215260
21
-7.499630
31
0.0
0
LINE
8
0
62
2
10
9.626766
20
-7.480377
30
0.0
11
9.626335
21
-6.857502
31
0.0
0
LINE
8
0
62
2
10
9.626335
20
-6.857502
30
0.0
11
10.316165
21
-6.857502
31
0.0
0
LINE
8
0
62
2
10
-5.261037
20
-7.499726
30
0.0
11
-4.796649
21
-7.499726
31
0.0
0
ARC
8
0
62
2
10
-4.796751
20
-7.821190
30
0.0
40
0.321464
50
270.000000
51
89.981880
0
LINE
8
0
62
2
10
-4.796751
20
-8.142654
30
0.0
11
-5.299613
21
-8.142654
31
0.0
0
LINE
8
0
62
2
10
-5.299613
20
-8.142654
30
0.0
11
-5.299613
21
-6.858398
31
0.0
0
LINE
8
0
62
2
10
-5.299613
20
-6.858398
30
0.0
11
-4.854155
21
-6.858398
31
0.0
0
ARC
8
0
62
2
10
-4.856724
20
-7.181150
30
0.0
40
0.322762
50
296.191833
51
89.543999
0
LINE
8
0
62
2
10
-4.275640
20
-8.144255
30
0.0
11
-3.908253
21
-8.144255
31
0.0
0
LINE
8
0
62
2
10
-4.091948
20
-8.105679
30
0.0
11
-4.091948
21
-6.896973
31
0.0
0
LINE
8
0
62
2
10
-4.275640
20
-6.858398
30
0.0
11
-3.910186
21
-6.858398
31
0.0
0
LINE
8
0
62
2
10
-3.407969
20
-7.575742
30
0.0
11
-2.865398
21
-7.575742
31
0.0
0
ARC
8
0
62
2
10
-2.865398
20
-7.614314
30
0.0
40
0.038572
50
0.000000
51
90.000000
0
LINE
8
0
62
2
10
-2.826827
20
-7.614314
30
0.0
11
-2.826827
21
-7.711406
31
0.0
0
ARC
8
0
62
2
10
-3.264626
20
-7.714767
30
0.0
40
0.437813
50
200.855255
51
0.439684
0
ARC
8
0
62
2
10
-2.588817
20
-7.503316
30
0.0
40
1.145430
50
161.293991
51
198.703979
0
ARC
8
0
62
2
10
-3.243103
20
-7.331190
30
0.0
40
0.472825
50
35.680031
51
155.613174
0
ARC
8
0
62
2
10
-16.000000
20
-16.000000
30
0.0
40
4.000000
50
0.000000
51
90.000000
0
ARC
8
0
62
2
10
-16.000000
20
16.000000
30
0.0
40
4.000000
50
270.000000
51
0.000000
0
ARC
8
0
62
2
10
16.000000
20
16.000000
30
0.0
40
4.000000
50
180.000000
51
270.000000
0
LINE
8
0
62
2
10
-17.600000
20
10.400001
30
0.0
11
-17.600000
21
-10.400001
31
0.0
0
LINE
8
0
62
2
10
10.400001
20
17.600000
30
0.0
11
-10.400001
21
17.600000
31
0.0
0
ARC
8
0
62
2
10
16.000000
20
10.400001
30
0.0
40
1.600000
50
0.000000
51
90.000000
0
ARC
8
0
62
2
10
10.400001
20
16.000000
30
0.0
40
1.600000
50
0.000000
51
90.000000
0
ARC
8
0
62
2
10
-10.400001
20
16.000000
30
0.0
40
1.600000
50
90.000000
51
180.000000
0
ARC
8
0
62
2
10
-16.000000
20
10.400001
30
0.0
40
1.600000
50
90.000000
51
180.000000
0
ARC
8
0
62
2
10
-16.000000
20
-10.400001
30
0.0
40
1.600000
50
180.000000
51
270.000000
0
ARC
8
0
62
2
10
-10.400001
20
-16.000000
30
0.0
40
1.600000
50
180.000000
51
270.000000
0
ARC
8
0
62
2
10
16.000000
20
-16.000000
30
0.0
40
4.000000
50
90.000000
51
180.000000
0
ARC
8
0
62
2
10
16.000000
20
-10.400001
30
0.0
40
1.600000
50
270.000000
51
0.000000
0
ARC
8
0
62
2
10
10.400001
20
-16.000000
30
0.0
40
1.600000
50
270.000000
51
0.000000
0
LINE
8
0
62
2
10
10.400001
20
-17.600000
30
0.0
11
-10.400001
21
-17.600000
31
0.0
0
LINE
8
0
62
2
10
17.600000
20
-10.400001
30
0.0
11
17.600000
21
10.400001
31
0.0
0
ARC
8
0
62
2
10
-1.166978
20
-7.762100
30
0.0
40
0.382121
50
196.004822
51
267.948395
0
ARC
8
0
62
2
10
-0.450603
20
-7.500526
30
0.0
40
1.144120
50
161.294113
51
198.705887
0
ARC
8
0
62
2
10
-1.166978
20
-7.239807
30
0.0
40
0.382358
50
16.128889
51
163.872177
0
ARC
8
0
62
2
10
-1.883353
20
-7.500526
30
0.0
40
1.144120
50
341.293762
51
18.706244
0
ARC
8
0
62
2
10
-1.166978
20
-7.762100
30
0.0
40
0.382121
50
272.763977
51
343.994110
0
LINE
8
0
62
2
10
-0.520003
20
-8.141746
30
0.0
11
-0.520003
21
-6.857489
31
0.0
0
LINE
8
0
62
2
10
-0.520003
20
-6.857489
30
0.0
11
-0.054001
21
-6.857489
31
0.0
0
ARC
8
0
62
2
10
-0.060189
20
-7.178553
30
0.0
40
0.321124
50
271.095276
51
88.895920
0
LINE
8
0
62
2
10
-0.054051
20
-7.499617
30
0.0
11
-0.477855
21
-7.499617
31
0.0
0
LINE
8
0
62
2
10
-0.035754
20
-7.536205
30
0.0
11
0.267063
21
-8.141746
31
0.0
0
LINE
8
0
62
2
10
0.395488
20
-8.141746
30
0.0
11
0.877085
21
-6.857489
31
0.0
0
LINE
8
0
62
2
10
0.877085
20
-6.857489
30
0.0
11
1.358681
21
-8.141746
31
0.0
0
LINE
8
0
62
2
10
0.537215
20
-7.866548
30
0.0
11
1.216954
21
-7.866548
31
0.0
0
LINE
8
0
62
2
10
1.504005
20
-8.141746
30
0.0
11
1.504005
21
-6.857489
31
0.0
0
LINE
8
0
62
2
10
1.504005
20
-6.857489
30
0.0
11
2.292600
21
-8.141746
31
0.0
0
LINE
8
0
62
2
10
2.292600
20
-8.141746
30
0.0
11
2.292600
21
-6.857489
31
0.0
0
LINE
8
0
62
2
10
2.790813
20
-7.573940
30
0.0
11
3.332709
21
-7.573940
31
0.0
0
ARC
8
0
62
2
10
3.332709
20
-7.612464
30
0.0
40
0.038524
50
0.000000
51
90.000000
0
LINE
8
0
62
2
10
3.371233
20
-7.612464
30
0.0
11
3.371233
21
-7.709436
31
0.0
0
ARC
8
0
62
2
10
2.933978
20
-7.712791
30
0.0
40
0.437269
50
200.855255
51
0.439684
0
ARC
8
0
62
2
10
3.608946
20
-7.501605
30
0.0
40
1.144005
50
161.293991
51
198.703979
0
ARC
8
0
62
2
10
2.955474
20
-7.329693
30
0.0
40
0.472237
50
35.680031
51
155.613174
0
LINE
8
0
62
2
10
4.272141
20
-8.141758
30
0.0
11
3.519017
21
-8.141758
31
0.0
0
LINE
8
0
62
2
10
3.519017
20
-8.141758
30
0.0
11
3.518558
21
-7.499630
31
0.0
0
LINE
8
0
62
2
10
3.518558
20
-7.499630
30
0.0
11
4.107022
21
-7.499630
31
0.0
0
LINE
8
0
62
2
10
3.518530
20
-7.480377
30
0.0
11
3.518100
21
-6.857502
31
0.0
0
LINE
8
0
62
2
10
3.518100
20
-6.857502
30
0.0
11
4.207929
21
-6.857502
31
0.0
0
CIRCLE
8
0
62
5
10
16.000000
20
16.000000
30
0.0
40
1.700001
0
CIRCLE
8
0
62
5
10
-16.000000
20
15.999999
30
0.0
40
1.700001
0
CIRCLE
8
0
62
5
10
-15.999999
20
-16.000002
30
0.0
40
1.700001
0
CIRCLE
8
0
62
5
10
16.000000
20
-16.000000
30
0.0
40
1.700001
0
ARC
8
0
62
3
10
-5.421834
20
7.583937
30
0.0
40
0.472284
50
204.386841
51
324.320007
0
ARC
8
0
62
3
10
-4.768296
20
7.755865
30
0.0
40
1.144120
50
161.294128
51
198.705872
0
ARC
8
0
62
3
10
-5.421834
20
7.927792
30
0.0
40
0.472284
50
35.680031
51
155.613174
0
LINE
8
0
62
0
10
-9.989496
20
8.361048
30
0.0
11
-9.989496
21
7.115744
31
0.0
0
LINE
8
0
62
0
10
-9.578993
20
8.400000
30
0.0
11
-10.400001
21
8.400000
31
0.0
0
LINE
8
0
62
0
10
-9.046143
20
7.791189
30
0.0
11
-9.450567
21
8.400000
31
0.0
0
LINE
8
0
62
0
10
-9.024011
20
7.757873
30
0.0
11
-9.024011
21
7.115744
31
0.0
0
LINE
8
0
62
0
10
-8.597454
20
8.400000
30
0.0
11
-9.024011
21
7.757873
31
0.0
0
LINE
8
0
62
0
10
-8.436921
20
8.400000
30
0.0
11
-8.436921
21
7.115744
31
0.0
0
LINE
8
0
62
0
10
-7.970921
20
8.400000
30
0.0
11
-8.436921
21
8.400000
31
0.0
0
ARC
8
0
62
0
10
-7.990001
20
8.078937
30
0.0
40
0.321630
50
273.401001
51
86.599007
0
LINE
8
0
62
0
10
-8.417658
20
7.757873
30
0.0
11
-7.970921
21
7.757873
31
0.0
0
LINE
8
0
62
0
10
-7.507599
20
7.115730
30
0.0
11
-6.754474
21
7.115730
31
0.0
0
LINE
8
0
62
0
10
-7.508057
20
7.757858
30
0.0
11
-7.507599
21
7.115730
31
0.0
0
LINE
8
0
62
0
10
-6.919593
20
7.757858
30
0.0
11
-7.508057
21
7.757858
31
0.0
0
LINE
8
0
62
0
10
-7.508516
20
8.399986
30
0.0
11
-7.508084
21
7.777111
31
0.0
0
LINE
8
0
62
0
10
-6.818686
20
8.399986
30
0.0
11
-7.508516
21
8.399986
31
0.0
0
ENDSEC
0
EOF
