  0
SECTION
  2
HEADER
  9
$ACADVER
  1
AC1003
  9
$EXTMIN
 10
-1.36825541748381
 20
0.985047490238493
  9
$EXTMAX
 10
0.984251968500001
 20
-0.984252167903958
  9
$INSUNITS
 70
1
  9
$INSBASE
 10
-0.192001724491902
 20
0.000397661167267249
999
Created with OMAX LAYOUT for Windows. (www.omax.com) 1/5/2024
  0
ENDSEC
  0
SECTION
  2
TABLES
  0
TABLE
  2
LAYER
 70
    10
  0
LAYER
  2
0
 70
     0
 62
     7
  6
CONTINUOUS
  0
LAYER
  2
1
 70
     0
 62
     7
  6
CONTINUOUS
  0
LAYER
  2
2
 70
     0
 62
     7
  6
CONTINUOUS
  0
LAYER
  2
3
 70
     0
 62
     7
  6
CONTINUOUS
  0
LAYER
  2
4
 70
     0
 62
     7
  6
CONTINUOUS
  0
LAYER
  2
5
 70
     0
 62
     7
  6
CONTINUOUS
  0
LAYER
  2
6
 70
     0
 62
     7
  6
CONTINUOUS
  0
LAYER
  2
7
 70
     0
 62
     7
  6
CONTINUOUS
  0
LAYER
  2
8
 70
     0
 62
     7
  6
CONTINUOUS
  0
LAYER
  2
9
 70
     0
 62
     7
  6
CONTINUOUS
  0
LAYER
  2
10
 70
     0
 62
     7
  6
CONTINUOUS
  0
LAYER
  2
11
 70
     0
 62
     7
  6
CONTINUOUS
  0
LAYER
  2
12
 70
     0
 62
     7
  6
CONTINUOUS
  0
LAYER
  2
13
 70
     0
 62
     7
  6
CONTINUOUS
  0
LAYER
  2
14
 70
     0
 62
     7
  6
CONTINUOUS
  0
LAYER
  2
15
 70
     0
 62
     7
  6
CONTINUOUS
  0
LAYER
  2
16
 70
     0
 62
     7
  6
CONTINUOUS
  0
LAYER
  2
17
 70
     0
 62
     7
  6
CONTINUOUS
  0
LAYER
  2
18
 70
     0
 62
     7
  6
CONTINUOUS
  0
LAYER
  2
19
 70
     0
 62
     7
  6
CONTINUOUS
  0
LAYER
  2
20
 70
     0
 62
     7
  6
CONTINUOUS
  0
LAYER
  2
21
 70
     0
 62
     7
  6
CONTINUOUS
  0
LAYER
  2
22
 70
     0
 62
     7
  6
CONTINUOUS
  0
LAYER
  2
23
 70
     0
 62
     7
  6
CONTINUOUS
  0
LAYER
  2
24
 70
     0
 62
     7
  6
CONTINUOUS
  0
LAYER
  2
25
 70
     0
 62
     7
  6
CONTINUOUS
  0
LAYER
  2
26
 70
     0
 62
     7
  6
CONTINUOUS
  0
LAYER
  2
27
 70
     0
 62
     7
  6
CONTINUOUS
  0
LAYER
  2
28
 70
     0
 62
     7
  6
CONTINUOUS
  0
LAYER
  2
29
 70
     0
 62
     7
  6
CONTINUOUS
  0
LAYER
  2
30
 70
     0
 62
     7
  6
CONTINUOUS
  0
LAYER
  2
31
 70
     0
 62
     7
  6
CONTINUOUS
  0
ENDTAB
  0
ENDSEC
  0
SECTION
  2
ENTITIES
  0
LINE
  8
1
  6
CONTINUOUS
 62
1
 10
-1.13951829574712
 20
-0.52224888500563
 30
0.0
 11
-1.36825541748261
 21
-0.52224888500563
 31
0.0
  0
LINE
  8
1
  6
CONTINUOUS
 62
1
 10
-1.36825541748261
 20
-0.52224888500563
 30
0.0
 11
-1.36825541748261
 21
-0.48741939457093
 31
0.0
  0
LINE
  8
1
  6
CONTINUOUS
 62
1
 10
-1.36825541748261
 20
-0.48741939457093
 30
0.0
 11
-1.1023622045
 21
-0.48741939457093
 31
0.0
  0
LINE
  8
1
  6
CONTINUOUS
 62
1
 10
-1.1023622045
 20
-0.48741939457093
 30
0.0
 11
-1.1023622045
 21
-0.544313331702108
 31
0.0
  0
LINE
  8
1
  6
CONTINUOUS
 62
1
 10
-1.1023622045
 20
-0.544313331702108
 30
0.0
 11
-1.32529317017653
 21
-0.613979756985917
 31
0.0
  0
LINE
  8
1
  6
CONTINUOUS
 62
1
 10
-1.32529317017653
 20
-0.613979756985917
 30
0.0
 11
-1.1023622045
 21
-0.613979756985917
 31
0.0
  0
LINE
  8
1
  6
CONTINUOUS
 62
1
 10
-1.1023622045
 20
-0.613979756985917
 30
0.0
 11
-1.1023622045
 21
-0.648811640268107
 31
0.0
  0
LINE
  8
1
  6
CONTINUOUS
 62
1
 10
-1.1023622045
 20
-0.648811640268107
 30
0.0
 11
-1.36825541748261
 21
-0.648811640268107
 31
0.0
  0
LINE
  8
1
  6
CONTINUOUS
 62
1
 10
-1.36825541748261
 20
-0.648811640268107
 30
0.0
 11
-1.36825541748261
 21
-0.591917703136929
 31
0.0
  0
LINE
  8
1
  6
CONTINUOUS
 62
1
 10
-1.36825541748261
 20
-0.591917703136929
 30
0.0
 11
-1.13951829574712
 21
-0.52224888500563
 31
0.0
  0
LINE
  8
1
  6
CONTINUOUS
 62
1
 10
-1.29911010120752
 20
-0.950340733289222
 30
0.0
 11
-1.17403330423574
 21
-0.950340733289222
 31
0.0
  0
ARC
  8
1
  6
CONTINUOUS
 62
1
 10
-1.17403330423574
 20
-0.912601540307844
 30
0.0
 40
0.0377391929813777
 50
270
 51
90
  0
LINE
  8
1
  6
CONTINUOUS
 62
1
 10
-1.17403330423574
 20
-0.874862347326467
 30
0.0
 11
-1.17403330423574
 21
-0.840953305559219
 31
0.0
  0
ARC
  8
1
  6
CONTINUOUS
 62
1
 10
-1.17403330423574
 20
-0.912602736731588
 30
0.0
 40
0.0716494311723698
 50
270
 51
90.0000000000004
  0
LINE
  8
1
  6
CONTINUOUS
 62
1
 10
-1.17403330423574
 20
-0.984252167903958
 30
0.0
 11
-1.23531944586903
 21
-0.984252034967987
 31
0.0
  0
ARC
  8
1
  6
CONTINUOUS
 62
1
 10
-1.29660558750232
 20
-0.912602337923674
 30
0.0
 40
0.0716495641083414
 50
90
 51
270
  0
LINE
  8
1
  6
CONTINUOUS
 62
1
 10
-1.29660558750232
 20
-0.840952773815332
 30
0.0
 11
-1.29660558750232
 21
-0.874862347326467
 31
0.0
  0
ARC
  8
1
  6
CONTINUOUS
 62
1
 10
-1.29660558750232
 20
-0.912601540307844
 30
0.0
 40
0.0377391929813777
 50
90
 51
270
  0
LINE
  8
1
  6
CONTINUOUS
 62
1
 10
-1.23531944586903
 20
-0.707511645509626
 30
0.0
 11
-1.29660558750232
 21
-0.707511645509626
 31
0.0
  0
ARC
  8
1
  6
CONTINUOUS
 62
1
 10
-1.29660558750232
 20
-0.745250705555032
 30
0.0
 40
0.0377390600454064
 50
90
 51
270
  0
LINE
  8
1
  6
CONTINUOUS
 62
1
 10
-1.29660558750232
 20
-0.782989765600439
 30
0.0
 11
-1.17403330423574
 21
-0.782989765600439
 31
0.0
  0
ARC
  8
1
  6
CONTINUOUS
 62
1
 10
-1.17403285119372
 20
-0.74525028622273
 30
0.0
 40
0.037739479380428
 50
269.999312195173
 51
345.521838354126
  0
LINE
  8
1
  6
CONTINUOUS
 62
1
 10
-1.1374918643586
 20
-0.754685570268362
 30
0.0
 11
-1.10300561460261
 21
-0.754685570268362
 31
0.0
  0
ARC
  8
1
  6
CONTINUOUS
 62
1
 10
-1.17403230273596
 20
-0.745250595347159
 30
0.0
 40
0.0716506048750147
 50
269.999199145477
 51
352.433297341488
  0
LINE
  8
1
  6
CONTINUOUS
 62
1
 10
-1.17403330423574
 20
-0.816901200215175
 30
0.0
 11
-1.29660558750232
 21
-0.816901466087118
 31
0.0
  0
ARC
  8
1
  6
CONTINUOUS
 62
1
 10
-1.29660558750232
 20
-0.745251769042805
 30
0.0
 40
0.0716496970443129
 50
90
 51
270
  0
LINE
  8
1
  6
CONTINUOUS
 62
1
 10
-1.29660558750232
 20
-0.673602071998492
 30
0.0
 11
-1.17403330423574
 21
-0.673602071998492
 31
0.0
  0
ARC
  8
1
  6
CONTINUOUS
 62
1
 10
-1.17403218199301
 20
-0.745252821289603
 30
0.0
 40
0.0716507492998998
 50
7.56830513434498
 51
90.0008974054405
  0
LINE
  8
1
  6
CONTINUOUS
 62
1
 10
-1.10300561460261
 20
-0.735815840841702
 30
0.0
 11
-1.1374918643586
 21
-0.735815840841702
 31
0.0
  0
ARC
  8
1
  6
CONTINUOUS
 62
1
 10
-1.17403264578754
 20
-0.745251214203416
 30
0.0
 40
0.0377393028275911
 50
14.4783709045359
 51
90.0009996555315
  0
LINE
  8
1
  6
CONTINUOUS
 62
1
 10
-1.17403330423574
 20
-0.707511911381569
 30
0.0
 11
-1.23531944586903
 21
-0.707511645509626
 31
0.0
  0
LINE
  8
1
  6
CONTINUOUS
 62
1
 10
-1.23531944586903
 20
-0.984252034967987
 30
0.0
 11
-1.29660558750232
 21
-0.984251902032015
 31
0.0
  0
ARC
  8
2
  6
CONTINUOUS
 62
2
 10
-0.153994141868718
 20
0.166046889641004
 30
0.0
 40
0.019345588274766
 50
213.433287883773
 51
270.015999253477
  0
ARC
  8
2
  6
CONTINUOUS
 62
2
 10
-0.151634303190127
 20
0.166169136797657
 30
0.0
 40
0.0196096904318124
 50
263.104148598819
 51
34.0979167513633
  0
ARC
  8
2
  6
CONTINUOUS
 62
2
 10
-0.154612275550678
 20
0.160443993330093
 30
0.0
 40
0.0254711169941974
 50
41.0237111689361
 51
127.558530040726
  0
LINE
  8
2
  6
CONTINUOUS
 62
2
 10
-0.170138743942584
 20
0.180635738678309
 30
0.0
 11
-0.170138743942584
 21
0.207562492198967
 31
0.0
  0
LINE
  8
2
  6
CONTINUOUS
 62
2
 10
-0.170138743942584
 20
0.207562492198967
 30
0.0
 11
-0.133379211614431
 21
0.207562492198967
 31
0.0
  0
ARC
  8
2
  6
CONTINUOUS
 62
2
 10
-0.110131272632232
 20
0.161781362470196
 30
0.0
 40
0.0149102119900529
 50
199.46544145889
 51
268.514572046557
  0
ARC
  8
2
  6
CONTINUOUS
 62
2
 10
-0.0681384885503473
 20
0.177192268929717
 30
0.0
 40
0.059640716170427
 50
160.019185139364
 51
199.980814860636
  0
ARC
  8
2
  6
CONTINUOUS
 62
2
 10
-0.110062523055071
 20
0.192585816151734
 30
0.0
 40
0.0149808182146631
 50
19.4473483225599
 51
160.559582801478
  0
ARC
  8
2
  6
CONTINUOUS
 62
2
 10
-0.151986539501502
 20
0.177192269044193
 30
0.0
 40
0.0596407161704225
 50
340.017438400847
 51
19.9825615991516
  0
ARC
  8
2
  6
CONTINUOUS
 62
2
 10
-0.109945085945471
 20
0.161700516303735
 30
0.0
 40
0.0148374838407186
 50
271.354984375421
 51
340.759261725192
  0
LINE
  8
2
  6
CONTINUOUS
 62
2
 10
-0.144575434127597
 20
-0.325674238231604
 30
0.0
 11
-0.144575434127597
 21
-0.264874238255924
 31
0.0
  0
LINE
  8
2
  6
CONTINUOUS
 62
2
 10
-0.144575434127597
 20
-0.264874238255924
 30
0.0
 11
-0.176061148400717
 21
-0.311342809665908
 31
0.0
  0
LINE
  8
2
  6
CONTINUOUS
 62
2
 10
-0.176061148400717
 20
-0.311342809665908
 30
0.0
 11
-0.135672576988301
 21
-0.311342809665908
 31
0.0
  0
LINE
  8
2
  6
CONTINUOUS
 62
2
 10
-0.129592576988301
 20
-0.264874276452089
 30
0.0
 11
-0.0931125792876477
 21
-0.264874276452089
 31
0.0
  0
ARC
  8
2
  6
CONTINUOUS
 62
2
 10
-0.000864819325498714
 20
-0.325684599399202
 30
0.0
 40
0.110487757670098
 50
146.60686951312
 51
179.994700000001
  0
LINE
  8
2
  6
CONTINUOUS
 62
2
 10
-1.14300287354282
 20
-0.380027845461324
 30
0.0
 11
-1.36825541748261
 21
-0.337647879768322
 31
0.0
  0
LINE
  8
2
  6
CONTINUOUS
 62
2
 10
-1.36825541748261
 20
-0.337647879768322
 30
0.0
 11
-1.36825541748261
 21
-0.301652540862572
 31
0.0
  0
LINE
  8
2
  6
CONTINUOUS
 62
2
 10
-1.36825541748261
 20
-0.301652540862572
 30
0.0
 11
-1.1023622045
 21
-0.359708604257598
 31
0.0
  0
LINE
  8
2
  6
CONTINUOUS
 62
2
 10
-1.1023622045
 20
-0.359708604257598
 30
0.0
 11
-1.1023622045
 21
-0.404991116012214
 31
0.0
  0
LINE
  8
2
  6
CONTINUOUS
 62
2
 10
-1.1023622045
 20
-0.404991116012214
 30
0.0
 11
-1.36825541748261
 21
-0.461885850759224
 31
0.0
  0
LINE
  8
2
  6
CONTINUOUS
 62
2
 10
-1.36825541748261
 20
-0.461885850759224
 30
0.0
 11
-1.36825541748261
 21
-0.423568386301324
 31
0.0
  0
LINE
  8
2
  6
CONTINUOUS
 62
2
 10
-1.36825541748261
 20
-0.423568386301324
 30
0.0
 11
-1.14300287354282
 21
-0.380027845461324
 31
0.0
  0
LINE
  8
2
  6
CONTINUOUS
 62
2
 10
-1.33806565832916
 20
-0.240125253376777
 30
0.0
 11
-1.25330568282835
 21
-0.240125253376777
 31
0.0
  0
LINE
  8
2
  6
CONTINUOUS
 62
2
 10
-1.25330568282835
 20
-0.240125253376777
 30
0.0
 11
-1.25330568282835
 21
-0.161170591756326
 31
0.0
  0
LINE
  8
2
  6
CONTINUOUS
 62
2
 10
-1.25330568282835
 20
-0.161170591756326
 30
0.0
 11
-1.22311858239434
 21
-0.161170591756326
 31
0.0
  0
LINE
  8
2
  6
CONTINUOUS
 62
2
 10
-1.22311858239434
 20
-0.161170591756326
 30
0.0
 11
-1.22311858239434
 21
-0.240125253376777
 31
0.0
  0
LINE
  8
2
  6
CONTINUOUS
 62
2
 10
-1.22311858239434
 20
-0.240125253376777
 30
0.0
 11
-1.13255196365344
 21
-0.240125253376777
 31
0.0
  0
LINE
  8
2
  6
CONTINUOUS
 62
2
 10
-1.13255196365344
 20
-0.240125253376777
 30
0.0
 11
-1.13255196365344
 21
-0.154203683356
 31
0.0
  0
LINE
  8
2
  6
CONTINUOUS
 62
2
 10
-1.13255196365344
 20
-0.154203683356
 30
0.0
 11
-1.1023622045
 21
-0.154203683356
 31
0.0
  0
LINE
  8
2
  6
CONTINUOUS
 62
2
 10
-1.1023622045
 20
-0.154203683356
 30
0.0
 11
-1.1023622045
 21
-0.276120060538636
 31
0.0
  0
LINE
  8
2
  6
CONTINUOUS
 62
2
 10
-1.1023622045
 20
-0.276120060538636
 30
0.0
 11
-1.36825541748261
 21
-0.276120060538636
 31
0.0
  0
LINE
  8
2
  6
CONTINUOUS
 62
2
 10
-1.36825541748261
 20
-0.276120060538636
 30
0.0
 11
-1.36825541748261
 21
-0.156526340652032
 31
0.0
  0
LINE
  8
2
  6
CONTINUOUS
 62
2
 10
-1.36825541748261
 20
-0.156526340652032
 30
0.0
 11
-1.33806565832916
 21
-0.156526340652032
 31
0.0
  0
LINE
  8
2
  6
CONTINUOUS
 62
2
 10
-1.33806565832916
 20
-0.156526340652032
 30
0.0
 11
-1.33806565832916
 21
-0.240125253376777
 31
0.0
  0
LINE
  8
2
  6
CONTINUOUS
 62
2
 10
-1.33661665623858
 20
-0.0949990531662341
 30
0.0
 11
-1.28291052370669
 21
-0.0949990531662341
 31
0.0
  0
LINE
  8
2
  6
CONTINUOUS
 62
2
 10
-1.28291052370669
 20
-0.0949990531662341
 30
0.0
 11
-1.28291052370669
 21
-0.130993328584212
 31
0.0
  0
LINE
  8
2
  6
CONTINUOUS
 62
2
 10
-1.28291052370669
 20
-0.130993328584212
 30
0.0
 11
-1.36825541748261
 21
-0.130993328584212
 31
0.0
  0
LINE
  8
2
  6
CONTINUOUS
 62
2
 10
-1.36825541748261
 20
-0.130993328584212
 30
0.0
 11
-1.36825541748261
 21
-0.0555503035899059
 31
0.0
  0
ARC
  8
2
  6
CONTINUOUS
 62
2
 10
-1.29394742108485
 20
-0.055549881617609
 30
0.0
 40
0.0743079963989533
 50
32.8552603471074
 51
180.00032536514
  0
ARC
  8
2
  6
CONTINUOUS
 62
2
 10
-1.18133968803721
 20
-0.0639435473812621
 30
0.0
 40
0.0699356602974967
 50
98.6165201815971
 51
135.856609805123
  0
LINE
  8
2
  6
CONTINUOUS
 62
2
 10
-1.19181747851821
 20
0.00520276479721371
 30
0.0
 11
-1.1023622045
 21
0.0187590434384794
 31
0.0
  0
LINE
  8
2
  6
CONTINUOUS
 62
2
 10
-1.1023622045
 20
0.0187590434384794
 30
0.0
 11
-1.1023622045
 21
-0.0128767932141758
 31
0.0
  0
LINE
  8
2
  6
CONTINUOUS
 62
2
 10
-1.1023622045
 20
-0.0128767932141758
 30
0.0
 11
-1.18723384621697
 21
-0.0260994025666912
 31
0.0
  0
ARC
  8
2
  6
CONTINUOUS
 62
2
 10
-1.1813376462581
 20
-0.0639408177729484
 30
0.0
 40
0.0382980140316352
 50
98.8562389430193
 51
180.007764564469
  0
LINE
  8
2
  6
CONTINUOUS
 62
2
 10
-1.21963565993806
 20
-0.0639460078131329
 30
0.0
 11
-1.21963300121863
 21
-0.0949990531662341
 31
0.0
  0
LINE
  8
2
  6
CONTINUOUS
 62
2
 10
-1.21963300121863
 20
-0.0949990531662341
 30
0.0
 11
-1.1023622045
 21
-0.0949990531662341
 31
0.0
  0
LINE
  8
2
  6
CONTINUOUS
 62
2
 10
-1.1023622045
 20
-0.0949990531662341
 30
0.0
 11
-1.1023622045
 21
-0.130993328584212
 31
0.0
  0
LINE
  8
2
  6
CONTINUOUS
 62
2
 10
-1.1023622045
 20
-0.130993328584212
 30
0.0
 11
-1.25127176246266
 21
-0.130993328584212
 31
0.0
  0
LINE
  8
2
  6
CONTINUOUS
 62
2
 10
-1.25127176246266
 20
-0.130993328584212
 30
0.0
 11
-1.25127176246266
 21
-0.0555497718460223
 31
0.0
  0
ARC
  8
2
  6
CONTINUOUS
 62
2
 10
-1.29394420935062
 20
-0.0555497718460217
 30
0.0
 40
0.0426724468879572
 50
359.999999999999
 51
90
  0
ARC
  8
2
  6
CONTINUOUS
 62
2
 10
-1.29394420935062
 20
-0.0555497718460224
 30
0.0
 40
0.0426724468879574
 50
89.9999999999993
 51
180
  0
LINE
  8
2
  6
CONTINUOUS
 62
2
 10
-1.33661665623858
 20
-0.0555497718460223
 30
0.0
 11
-1.33661665623858
 21
-0.0949990531662341
 31
0.0
  0
ARC
  8
3
  6
CONTINUOUS
 62
3
 10
-1.29660640242956
 20
0.115198903787696
 30
0.0
 40
0.0716480992637497
 50
270.000651683603
 51
333.183935420127
  0
ARC
  8
3
  6
CONTINUOUS
 62
3
 10
-1.29660558750232
 20
0.115200501572894
 30
0.0
 40
0.0716496970443132
 50
90
 51
270
  0
LINE
  8
3
  6
CONTINUOUS
 62
3
 10
-1.29660558750232
 20
0.186850198617207
 30
0.0
 11
-1.29660558750232
 21
0.152940093362187
 31
0.0
  0
ARC
  8
3
  6
CONTINUOUS
 62
3
 10
-1.29660558750232
 20
0.115200900380809
 30
0.0
 40
0.0377391929813776
 50
90
 51
270
  0
ARC
  8
3
  6
CONTINUOUS
 62
3
 10
-1.29660457061123
 20
0.115203215969691
 30
0.0
 40
0.0377415085839593
 50
269.998456246977
 51
333.182376586104
  0
LINE
  8
3
  6
CONTINUOUS
 62
3
 10
-1.26292227101487
 20
0.0981760563682017
 30
0.0
 11
-1.2379781653013
 21
0.147526142982252
 31
0.0
  0
ARC
  8
3
  6
CONTINUOUS
 62
3
 10
-1.17403500393958
 20
0.11519958499276
 30
0.0
 40
0.0716500819007204
 50
89.9986408130526
 51
153.181054524402
  0
ARC
  8
3
  6
CONTINUOUS
 62
3
 10
-1.17403330423574
 20
0.115200368636923
 30
0.0
 40
0.0716492982363981
 50
270
 51
90.0000000000004
  0
LINE
  8
3
  6
CONTINUOUS
 62
3
 10
-1.17403330423574
 20
0.0435510704005244
 30
0.0
 11
-1.17403330423574
 21
0.0774614415274879
 31
0.0
  0
ARC
  8
3
  6
CONTINUOUS
 62
3
 10
-1.17403330423574
 20
0.115200501572894
 30
0.0
 40
0.0377390600454063
 50
270
 51
90
  0
ARC
  8
3
  6
CONTINUOUS
 62
3
 10
-1.17403398963823
 20
0.115201181533571
 30
0.0
 40
0.0377383800909533
 50
89.9989593970421
 51
153.183940738284
  0
LINE
  8
3
  6
CONTINUOUS
 62
3
 10
-1.20771396200376
 20
0.132226010265359
 30
0.0
 11
-1.23266338515619
 21
0.0828764553951955
 31
0.0
  0
LINE
  8
3
  6
CONTINUOUS
 62
3
 10
-1.1929288232409
 20
0.326073486458871
 30
0.0
 11
-1.33458539459232
 21
0.296402998695897
 31
0.0
  0
LINE
  8
3
  6
CONTINUOUS
 62
3
 10
-1.33458539459232
 20
0.296402998695897
 30
0.0
 11
-1.1023622045
 21
0.24647543822116
 31
0.0
  0
LINE
  8
3
  6
CONTINUOUS
 62
3
 10
-1.1023622045
 20
0.24647543822116
 30
0.0
 11
-1.1023622045
 21
0.211642491451196
 31
0.0
  0
LINE
  8
3
  6
CONTINUOUS
 62
3
 10
-1.1023622045
 20
0.211642491451196
 30
0.0
 11
-1.36825541748261
 21
0.273180945558609
 31
0.0
  0
LINE
  8
3
  6
CONTINUOUS
 62
3
 10
-1.36825541748261
 20
0.273180945558609
 30
0.0
 11
-1.36825541748261
 21
0.321946911513389
 31
0.0
  0
LINE
  8
3
  6
CONTINUOUS
 62
3
 10
-1.36825541748261
 20
0.321946911513389
 30
0.0
 11
-1.1023622045
 21
0.383486163236629
 31
0.0
  0
LINE
  8
3
  6
CONTINUOUS
 62
3
 10
-1.1023622045
 20
0.383486163236629
 30
0.0
 11
-1.1023622045
 21
0.345169230522621
 31
0.0
  0
LINE
  8
3
  6
CONTINUOUS
 62
3
 10
-1.1023622045
 20
0.345169230522621
 30
0.0
 11
-1.16274172280689
 21
0.332397008241932
 31
0.0
  0
LINE
  8
3
  6
CONTINUOUS
 62
3
 10
-1.16274172280689
 20
0.332397008241932
 30
0.0
 11
-1.16274172280689
 21
0.277825196662903
 31
0.0
  0
LINE
  8
3
  6
CONTINUOUS
 62
3
 10
-1.16274172280689
 20
0.277825196662903
 30
0.0
 11
-1.1929288232409
 21
0.284212504226989
 31
0.0
  0
LINE
  8
3
  6
CONTINUOUS
 62
3
 10
-1.1929288232409
 20
0.284212504226989
 30
0.0
 11
-1.1929288232409
 21
0.326073486458871
 31
0.0
  0
LINE
  8
3
  6
CONTINUOUS
 62
3
 10
-0.114962689514121
 20
0.798117851784332
 30
0.0
 11
-0.09581620700967
 21
0.769295189949678
 31
0.0
  0
LINE
  8
3
  6
CONTINUOUS
 62
3
 10
-0.0947684038079135
 20
0.737317851808652
 30
0.0
 11
-0.0947684038079135
 21
0.767717851796492
 31
0.0
  0
LINE
  8
3
  6
CONTINUOUS
 62
3
 10
-0.0947684038079135
 20
0.767717851796492
 30
0.0
 11
-0.074574118101705
 21
0.798117851784332
 31
0.0
  0
LINE
  8
3
  6
CONTINUOUS
 62
3
 10
-0.0786529769120725
 20
0.264876274963148
 30
0.0
 11
-0.114307834040667
 21
0.264876274963148
 31
0.0
  0
LINE
  8
3
  6
CONTINUOUS
 62
3
 10
-0.114307834040667
 20
0.264876274963148
 30
0.0
 11
-0.114329548326374
 21
0.295276274950988
 31
0.0
  0
LINE
  8
3
  6
CONTINUOUS
 62
3
 10
-0.114329548326374
 20
0.295276274950988
 30
0.0
 11
-0.0864701197660884
 21
0.295276274950988
 31
0.0
  0
LINE
  8
3
  6
CONTINUOUS
 62
3
 10
-0.1143308508167
 20
0.29618776140878
 30
0.0
 11
-0.114351262612079
 21
0.325676274938828
 31
0.0
  0
LINE
  8
3
  6
CONTINUOUS
 62
3
 10
-0.114351262612079
 20
0.325676274938828
 30
0.0
 11
-0.0816929769120729
 21
0.325676274938828
 31
0.0
  0
ARC
  8
3
  6
CONTINUOUS
 62
3
 10
-0.153283192084175
 20
-0.426294448700528
 30
0.0
 40
0.017526525021561
 50
210.521999666258
 51
269.44106333805
  0
LINE
  8
3
  6
CONTINUOUS
 62
3
 10
-0.153454165620062
 20
-0.443820139767685
 30
0.0
 11
-0.147258345615115
 21
-0.443880583656791
 31
0.0
  0
ARC
  8
3
  6
CONTINUOUS
 62
3
 10
-0.147102264197742
 20
-0.427881403720983
 30
0.0
 40
0.015999941250743
 50
269.441063677775
 51
357.350682656728
  0
ARC
  8
3
  6
CONTINUOUS
 62
3
 10
-0.1441339256254
 20
-0.429801318782615
 30
0.0
 40
0.0130679177090623
 50
5.18227244383485
 51
59.3448299999969
  0
LINE
  8
3
  6
CONTINUOUS
 62
3
 10
-0.137470986598953
 20
-0.418559623324159
 30
0.0
 11
-0.161399874875635
 21
-0.408282322676934
 31
0.0
  0
ARC
  8
3
  6
CONTINUOUS
 62
3
 10
-0.154736931490305
 20
-0.397040632896657
 30
0.0
 40
0.0130679150468652
 50
185.182406440221
 51
239.344800865822
  0
ARC
  8
3
  6
CONTINUOUS
 62
3
 10
-0.151832638909546
 20
-0.39891828485298
 30
0.0
 40
0.0159340518263758
 50
91.2613438550525
 51
177.491952931064
  0
LINE
  8
3
  6
CONTINUOUS
 62
3
 10
-0.152183392405703
 20
-0.382988094032071
 30
0.0
 11
-0.146002305828457
 21
-0.382981594466795
 31
0.0
  0
ARC
  8
3
  6
CONTINUOUS
 62
3
 10
-0.146554326034208
 20
-0.399944988236333
 30
0.0
 40
0.0169723732721139
 50
29.2717084966252
 51
88.136147107477
  0
LINE
  8
3
  6
CONTINUOUS
 62
3
 10
-0.120714208041836
 20
-0.38298451245209
 30
0.0
 11
-0.120714208041836
 21
-0.44378451242777
 31
0.0
  0
LINE
  8
3
  6
CONTINUOUS
 62
3
 10
-0.118890208041836
 20
-0.41338451243993
 30
0.0
 11
-0.0856934080418355
 21
-0.41338451243993
 31
0.0
  0
LINE
  8
3
  6
CONTINUOUS
 62
3
 10
-0.0837999223423158
 20
-0.44378451242777
 30
0.0
 11
-0.0837999223423158
 21
-0.38298451245209
 31
0.0
  0
LINE
  8
3
  6
CONTINUOUS
 62
3
 10
-0.0743599248151501
 20
-0.443784516373754
 30
0.0
 11
-0.0569885003205788
 21
-0.443784516373754
 31
0.0
  0
LINE
  8
3
  6
CONTINUOUS
 62
3
 10
-0.0656742146028182
 20
-0.441960516398074
 30
0.0
 11
-0.0656742146028182
 21
-0.384808516398074
 31
0.0
  0
LINE
  8
3
  6
CONTINUOUS
 62
3
 10
-0.0743599248151501
 20
-0.382984516398074
 30
0.0
 11
-0.0570799223423157
 21
-0.382984516398074
 31
0.0
  0
LINE
  8
3
  6
CONTINUOUS
 62
3
 10
-0.0199559070588258
 20
-0.413383146774374
 30
0.0
 11
-0.0459783070588258
 21
-0.413383146774374
 31
0.0
  0
LINE
  8
3
  6
CONTINUOUS
 62
3
 10
-0.0477936213334047
 20
-0.443783146762214
 30
0.0
 11
-0.0477936213334047
 21
-0.382983146786534
 31
0.0
  0
LINE
  8
3
  6
CONTINUOUS
 62
3
 10
-0.0477936213334047
 20
-0.382983146786534
 30
0.0
 11
-0.0151787642048071
 21
-0.382983146786534
 31
0.0
  0
LINE
  8
3
  6
CONTINUOUS
 62
3
 10
0.0162555235031441
 20
-0.443784508191348
 30
0.0
 11
0.0162555235031441
 21
-0.384828601046011
 31
0.0
  0
LINE
  8
3
  6
CONTINUOUS
 62
3
 10
-0.0031787665462244
 20
-0.382984508215668
 30
0.0
 11
0.0356898048667995
 21
-0.382984508215668
 31
0.0
  0
LINE
  8
3
  6
CONTINUOUS
 62
3
 10
0.118902374597807
 20
-0.443785145273274
 30
0.0
 11
0.0832475174692129
 21
-0.443785145273274
 31
0.0
  0
LINE
  8
3
  6
CONTINUOUS
 62
3
 10
0.0832475174692129
 20
-0.443785145273274
 30
0.0
 11
0.0832258031835065
 21
-0.413385145285434
 31
0.0
  0
LINE
  8
3
  6
CONTINUOUS
 62
3
 10
0.0832258031835065
 20
-0.413385145285434
 30
0.0
 11
0.111085231743791
 21
-0.413385145285434
 31
0.0
  0
LINE
  8
3
  6
CONTINUOUS
 62
3
 10
0.0832245006931802
 20
-0.412473658827642
 30
0.0
 11
0.083204088897801
 21
-0.382985145297594
 31
0.0
  0
LINE
  8
3
  6
CONTINUOUS
 62
3
 10
0.083204088897801
 20
-0.382985145297594
 30
0.0
 11
0.115862374597807
 21
-0.382985145297594
 31
0.0
  0
LINE
  8
3
  6
CONTINUOUS
 62
3
 10
-0.0786529769120725
 20
-0.561895377036852
 30
0.0
 11
-0.114307834040667
 21
-0.561895377036852
 31
0.0
  0
LINE
  8
3
  6
CONTINUOUS
 62
3
 10
-0.114307834040667
 20
-0.561895377036852
 30
0.0
 11
-0.114329548326373
 21
-0.531495377049011
 31
0.0
  0
LINE
  8
3
  6
CONTINUOUS
 62
3
 10
-0.114329548326373
 20
-0.531495377049011
 30
0.0
 11
-0.0864701197660889
 21
-0.531495377049011
 31
0.0
  0
LINE
  8
3
  6
CONTINUOUS
 62
3
 10
-0.1143308508167
 20
-0.53058389059122
 30
0.0
 11
-0.114351262612079
 21
-0.501095377061172
 31
0.0
  0
LINE
  8
3
  6
CONTINUOUS
 62
3
 10
-0.114351262612079
 20
-0.501095377061172
 30
0.0
 11
-0.0816929769120729
 21
-0.501095377061172
 31
0.0
  0
LINE
  8
3
  6
CONTINUOUS
 62
3
 10
-0.0748129769120727
 20
-0.561894744215668
 30
0.0
 11
-0.0748129698954405
 21
-0.501094751667963
 31
0.0
  0
LINE
  8
3
  6
CONTINUOUS
 62
3
 10
-0.0748129698954405
 20
-0.501094751667963
 30
0.0
 11
-0.0374788746722787
 21
-0.561894751643643
 31
0.0
  0
LINE
  8
3
  6
CONTINUOUS
 62
3
 10
-0.0374788746722787
 20
-0.561894751643643
 30
0.0
 11
-0.0374788746722787
 21
-0.501094751667963
 31
0.0
  0
LINE
  8
3
  6
CONTINUOUS
 62
3
 10
-0.00604458696432753
 20
-0.561894739954926
 30
0.0
 11
-0.00604458696432753
 21
-0.50293883280959
 31
0.0
  0
LINE
  8
3
  6
CONTINUOUS
 62
3
 10
-0.0254788770136964
 20
-0.501094739979246
 30
0.0
 11
0.0133896943993275
 21
-0.501094739979246
 31
0.0
  0
LINE
  8
3
  6
CONTINUOUS
 62
3
 10
0.0557794070013755
 20
-0.561895377036852
 30
0.0
 11
0.0201245498727811
 21
-0.561895377036852
 31
0.0
  0
LINE
  8
3
  6
CONTINUOUS
 62
3
 10
0.0201245498727811
 20
-0.561895377036852
 30
0.0
 11
0.0201028355870747
 21
-0.531495377049011
 31
0.0
  0
LINE
  8
3
  6
CONTINUOUS
 62
3
 10
0.0201028355870747
 20
-0.531495377049011
 30
0.0
 11
0.0479622641473596
 21
-0.531495377049011
 31
0.0
  0
LINE
  8
3
  6
CONTINUOUS
 62
3
 10
0.0201015330967484
 20
-0.53058389059122
 30
0.0
 11
0.0200811213013692
 21
-0.501095377061172
 31
0.0
  0
LINE
  8
3
  6
CONTINUOUS
 62
3
 10
0.0200811213013692
 20
-0.501095377061172
 30
0.0
 11
0.0527394070013756
 21
-0.501095377061172
 31
0.0
  0
LINE
  8
3
  6
CONTINUOUS
 62
3
 10
0.0618594070013754
 20
-0.561894744191348
 30
0.0
 11
0.0618594070013754
 21
-0.501094744215668
 31
0.0
  0
LINE
  8
3
  6
CONTINUOUS
 62
3
 10
0.0618594070013754
 20
-0.501094744215668
 30
0.0
 11
0.0839211212782676
 21
-0.501094744215667
 31
0.0
  0
ARC
  8
3
  6
CONTINUOUS
 62
3
 10
0.0836281829672082
 20
-0.516294721707742
 30
0.0
 40
0.0152028000254448
 50
271.095264000543
 51
88.8959160393202
  0
LINE
  8
3
  6
CONTINUOUS
 62
3
 10
0.0839187814306377
 20
-0.531494744113868
 30
0.0
 11
0.0638547814306372
 21
-0.531494744113868
 31
0.0
  0
LINE
  8
3
  6
CONTINUOUS
 62
3
 10
0.0847850089625406
 20
-0.533226942604308
 30
0.0
 11
0.0991211212721859
 21
-0.561894744191348
 31
0.0
  0
LINE
  8
3
  6
CONTINUOUS
 62
3
 10
-0.17302115512418
 20
-0.619204984452089
 30
0.0
 11
-0.17302115512418
 21
-0.662633213971782
 31
0.0
  0
ARC
  8
3
  6
CONTINUOUS
 62
3
 10
-0.15521629570366
 20
-0.662346076782063
 30
0.0
 40
0.0178071745863907
 50
180.923923222652
 51
0.47247669957532
  0
LINE
  8
3
  6
CONTINUOUS
 62
3
 10
-0.137409726566995
 20
-0.662199235604667
 30
0.0
 11
-0.137409726566995
 21
-0.619204984452089
 31
0.0
  0
ARC
  8
3
  6
CONTINUOUS
 62
3
 10
-0.153283192084175
 20
-0.780625156700527
 30
0.0
 40
0.0175265250215614
 50
210.521999666259
 51
269.441063338051
  0
LINE
  8
3
  6
CONTINUOUS
 62
3
 10
-0.153454165620062
 20
-0.798150847767684
 30
0.0
 11
-0.147258345615114
 21
-0.798211291656791
 31
0.0
  0
ARC
  8
3
  6
CONTINUOUS
 62
3
 10
-0.147102264197742
 20
-0.782212111720983
 30
0.0
 40
0.0159999412507428
 50
269.441063677776
 51
357.350682656729
  0
ARC
  8
3
  6
CONTINUOUS
 62
3
 10
-0.1441339256254
 20
-0.784132026782614
 30
0.0
 40
0.013067917709062
 50
5.18227244383307
 51
59.3448299999952
  0
LINE
  8
3
  6
CONTINUOUS
 62
3
 10
-0.137470986598952
 20
-0.772890331324159
 30
0.0
 11
-0.161399874875634
 21
-0.762613030676934
 31
0.0
  0
ARC
  8
3
  6
CONTINUOUS
 62
3
 10
-0.154736931490304
 20
-0.751371340896657
 30
0.0
 40
0.0130679150468656
 50
185.182406440223
 51
239.344800865824
  0
ARC
  8
3
  6
CONTINUOUS
 62
3
 10
-0.151832638909546
 20
-0.75324899285298
 30
0.0
 40
0.0159340518263758
 50
91.2613438550543
 51
177.491952931066
  0
LINE
  8
3
  6
CONTINUOUS
 62
3
 10
-0.152183392405703
 20
-0.737318802032071
 30
0.0
 11
-0.146002305828457
 21
-0.737312302466795
 31
0.0
  0
ARC
  8
3
  6
CONTINUOUS
 62
3
 10
-0.146554326034208
 20
-0.754275696236333
 30
0.0
 40
0.0169723732721139
 50
29.2717084966256
 51
88.1361471074773
  0
LINE
  8
3
  6
CONTINUOUS
 62
3
 10
-0.120714208041835
 20
-0.73731522045209
 30
0.0
 11
-0.120714208041835
 21
-0.798115220427769
 31
0.0
  0
LINE
  8
3
  6
CONTINUOUS
 62
3
 10
-0.118890208041835
 20
-0.76771522043993
 30
0.0
 11
-0.085693408041835
 21
-0.76771522043993
 31
0.0
  0
LINE
  8
3
  6
CONTINUOUS
 62
3
 10
-0.0837999223423154
 20
-0.798115220427769
 30
0.0
 11
-0.0837999223423154
 21
-0.73731522045209
 31
0.0
  0
LINE
  8
3
  6
CONTINUOUS
 62
3
 10
-0.0743599248151501
 20
-0.798115224373754
 30
0.0
 11
-0.0569885003205783
 21
-0.798115224373754
 31
0.0
  0
LINE
  8
3
  6
CONTINUOUS
 62
3
 10
-0.0656742146028173
 20
-0.796291224398074
 30
0.0
 11
-0.0656742146028173
 21
-0.739139224398074
 31
0.0
  0
LINE
  8
3
  6
CONTINUOUS
 62
3
 10
-0.0743599248151501
 20
-0.737315224398074
 30
0.0
 11
-0.0570799223423153
 21
-0.737315224398074
 31
0.0
  0
LINE
  8
3
  6
CONTINUOUS
 62
3
 10
-0.0199559070588253
 20
-0.767713854774375
 30
0.0
 11
-0.0459783070588253
 21
-0.767713854774375
 31
0.0
  0
LINE
  8
3
  6
CONTINUOUS
 62
3
 10
-0.0477936213334047
 20
-0.798113854762215
 30
0.0
 11
-0.0477936213334047
 21
-0.737313854786535
 31
0.0
  0
LINE
  8
3
  6
CONTINUOUS
 62
3
 10
-0.0477936213334047
 20
-0.737313854786535
 30
0.0
 11
-0.0151787642048071
 21
-0.737313854786535
 31
0.0
  0
LINE
  8
3
  6
CONTINUOUS
 62
3
 10
0.0162555235031445
 20
-0.798115216191348
 30
0.0
 11
0.0162555235031445
 21
-0.739159309046012
 31
0.0
  0
LINE
  8
3
  6
CONTINUOUS
 62
3
 10
-0.00317876654622395
 20
-0.737315216215668
 30
0.0
 11
0.0356898048667995
 21
-0.737315216215668
 31
0.0
  0
LINE
  8
3
  6
CONTINUOUS
 62
3
 10
0.0825926619957595
 20
-0.73731522045209
 30
0.0
 11
0.0825926619957595
 21
-0.780743449971783
 31
0.0
  0
ARC
  8
3
  6
CONTINUOUS
 62
3
 10
0.10039752141628
 20
-0.780456312782063
 30
0.0
 40
0.0178071745863907
 50
180.923923222652
 51
0.47247669957532
  0
LINE
  8
3
  6
CONTINUOUS
 62
3
 10
0.118204090552944
 20
-0.780309471604668
 30
0.0
 11
0.118204090552944
 21
-0.73731522045209
 31
0.0
  0
LINE
  8
3
  6
CONTINUOUS
 62
3
 10
-0.0786529769120721
 20
0.0286558029631484
 30
0.0
 11
-0.114307834040667
 21
0.0286558029631484
 31
0.0
  0
LINE
  8
3
  6
CONTINUOUS
 62
3
 10
-0.114307834040667
 20
0.0286558029631484
 30
0.0
 11
-0.114329548326373
 21
0.0590558029509884
 31
0.0
  0
LINE
  8
3
  6
CONTINUOUS
 62
3
 10
-0.114329548326373
 20
0.0590558029509884
 30
0.0
 11
-0.0864701197660884
 21
0.0590558029509884
 31
0.0
  0
LINE
  8
3
  6
CONTINUOUS
 62
3
 10
-0.1143308508167
 20
0.0599672894087803
 30
0.0
 11
-0.114351262612079
 21
0.0894558029388283
 31
0.0
  0
LINE
  8
3
  6
CONTINUOUS
 62
3
 10
-0.114351262612079
 20
0.0894558029388283
 30
0.0
 11
-0.081692976912072
 21
0.0894558029388283
 31
0.0
  0
LINE
  8
3
  6
CONTINUOUS
 62
3
 10
-0.0748129769120722
 20
0.0286564357843323
 30
0.0
 11
-0.0748129698954401
 21
0.0894564283320366
 31
0.0
  0
LINE
  8
3
  6
CONTINUOUS
 62
3
 10
-0.0748129698954401
 20
0.0894564283320366
 30
0.0
 11
-0.0374788746722783
 21
0.0286564283563573
 31
0.0
  0
LINE
  8
3
  6
CONTINUOUS
 62
3
 10
-0.0374788746722783
 20
0.0286564283563573
 30
0.0
 11
-0.0374788746722783
 21
0.0894564283320366
 31
0.0
  0
LINE
  8
3
  6
CONTINUOUS
 62
3
 10
-0.00604458696432708
 20
0.028656440045074
 30
0.0
 11
-0.00604458696432708
 21
0.0876123471904104
 31
0.0
  0
LINE
  8
3
  6
CONTINUOUS
 62
3
 10
-0.0254788770136956
 20
0.089456440020754
 30
0.0
 11
0.0133896943993279
 21
0.089456440020754
 31
0.0
  0
LINE
  8
3
  6
CONTINUOUS
 62
3
 10
0.055779407001376
 20
0.0286558029631484
 30
0.0
 11
0.0201245498727816
 21
0.0286558029631484
 31
0.0
  0
LINE
  8
3
  6
CONTINUOUS
 62
3
 10
0.0201245498727816
 20
0.0286558029631484
 30
0.0
 11
0.0201028355870752
 21
0.0590558029509884
 31
0.0
  0
LINE
  8
3
  6
CONTINUOUS
 62
3
 10
0.0201028355870752
 20
0.0590558029509884
 30
0.0
 11
0.04796226414736
 21
0.0590558029509884
 31
0.0
  0
LINE
  8
3
  6
CONTINUOUS
 62
3
 10
0.0201015330967489
 20
0.0599672894087803
 30
0.0
 11
0.0200811213013696
 21
0.0894558029388283
 31
0.0
  0
LINE
  8
3
  6
CONTINUOUS
 62
3
 10
0.0200811213013696
 20
0.0894558029388283
 30
0.0
 11
0.052739407001376
 21
0.0894558029388283
 31
0.0
  0
LINE
  8
3
  6
CONTINUOUS
 62
3
 10
0.0618594070013758
 20
0.0286564358086522
 30
0.0
 11
0.0618594070013758
 21
0.0894564357843323
 31
0.0
  0
LINE
  8
3
  6
CONTINUOUS
 62
3
 10
0.0618594070013758
 20
0.0894564357843323
 30
0.0
 11
0.083921121278268
 21
0.0894564357843327
 31
0.0
  0
ARC
  8
3
  6
CONTINUOUS
 62
3
 10
0.0836281829672087
 20
0.074256458292258
 30
0.0
 40
0.0152028000254448
 50
271.095264000543
 51
88.8959160393202
  0
LINE
  8
3
  6
CONTINUOUS
 62
3
 10
0.0839187814306381
 20
0.0590564358861325
 30
0.0
 11
0.0638547814306376
 21
0.0590564358861325
 31
0.0
  0
LINE
  8
3
  6
CONTINUOUS
 62
3
 10
0.0847850089625415
 20
0.0573242373956916
 30
0.0
 11
0.0991211212721863
 21
0.0286564358086522
 31
0.0
  0
ARC
  8
3
  6
CONTINUOUS
 62
3
 10
-0.153283192084176
 20
0.636697675299473
 30
0.0
 40
0.0175265250215609
 50
210.521999666259
 51
269.441063338051
  0
LINE
  8
3
  6
CONTINUOUS
 62
3
 10
-0.153454165620062
 20
0.619171984232316
 30
0.0
 11
-0.147258345615115
 21
0.619111540343209
 31
0.0
  0
ARC
  8
3
  6
CONTINUOUS
 62
3
 10
-0.147102264197742
 20
0.635110720279017
 30
0.0
 40
0.0159999412507428
 50
269.441063677776
 51
357.350682656729
  0
ARC
  8
3
  6
CONTINUOUS
 62
3
 10
-0.1441339256254
 20
0.633190805217386
 30
0.0
 40
0.0130679177090624
 50
5.1822724438319
 51
59.344829999994
  0
LINE
  8
3
  6
CONTINUOUS
 62
3
 10
-0.137470986598953
 20
0.644432500675842
 30
0.0
 11
-0.161399874875634
 21
0.654709801323067
 31
0.0
  0
ARC
  8
3
  6
CONTINUOUS
 62
3
 10
-0.154736931490305
 20
0.665951491103344
 30
0.0
 40
0.0130679150468654
 50
185.182406440223
 51
239.344800865824
  0
ARC
  8
3
  6
CONTINUOUS
 62
3
 10
-0.151832638909546
 20
0.664073839147021
 30
0.0
 40
0.0159340518263757
 50
91.2613438550539
 51
177.491952931065
  0
LINE
  8
3
  6
CONTINUOUS
 62
3
 10
-0.152183392405703
 20
0.680004029967929
 30
0.0
 11
-0.146002305828457
 21
0.680010529533206
 31
0.0
  0
ARC
  8
3
  6
CONTINUOUS
 62
3
 10
-0.146554326034208
 20
0.663047135763667
 30
0.0
 40
0.016972373272114
 50
29.2717084966249
 51
88.1361471074767
  0
ARC
  8
3
  6
CONTINUOUS
 62
3
 10
0.198616196030757
 20
0.641369567677655
 30
0.0
 40
0.0223591391910564
 50
204.386837237011
 51
324.320000000005
  0
ARC
  8
3
  6
CONTINUOUS
 62
3
 10
0.229556357021539
 20
0.649509016606438
 30
0.0
 40
0.0541655474069072
 50
161.294134617644
 51
198.705865382356
  0
ARC
  8
3
  6
CONTINUOUS
 62
3
 10
0.198616200373614
 20
0.657648468013998
 30
0.0
 40
0.0223591435339135
 50
35.6800299999901
 51
155.613174782251
  0
LINE
  8
3
  6
CONTINUOUS
 62
3
 10
-1.33806565832916
 20
0.506551904829839
 30
0.0
 11
-1.1023622045
 21
0.506551904829839
 31
0.0
  0
LINE
  8
3
  6
CONTINUOUS
 62
3
 10
-1.1023622045
 20
0.506551904829839
 30
0.0
 11
-1.1023622045
 21
0.470557629411864
 31
0.0
  0
LINE
  8
3
  6
CONTINUOUS
 62
3
 10
-1.1023622045
 20
0.470557629411864
 30
0.0
 11
-1.33806565832916
 21
0.470557629411864
 31
0.0
  0
LINE
  8
3
  6
CONTINUOUS
 62
3
 10
-1.33806565832916
 20
0.470557629411864
 30
0.0
 11
-1.33806565832916
 21
0.409018643560564
 31
0.0
  0
LINE
  8
3
  6
CONTINUOUS
 62
3
 10
-1.33806565832916
 20
0.409018643560564
 30
0.0
 11
-1.36825541748261
 21
0.409018643560564
 31
0.0
  0
LINE
  8
3
  6
CONTINUOUS
 62
3
 10
-1.36825541748261
 20
0.409018643560564
 30
0.0
 11
-1.36825541748261
 21
0.569251421713325
 31
0.0
  0
LINE
  8
3
  6
CONTINUOUS
 62
3
 10
-1.36825541748261
 20
0.569251421713325
 30
0.0
 11
-1.33806565832916
 21
0.569251421713325
 31
0.0
  0
LINE
  8
3
  6
CONTINUOUS
 62
3
 10
-1.33806565832916
 20
0.569251421713325
 30
0.0
 11
-1.33806565832916
 21
0.506551904829839
 31
0.0
  0
LINE
  8
4
  6
CONTINUOUS
 62
4
 10
-1.2353088109913
 20
0.594782040933657
 30
0.0
 11
-1.36825541748261
 21
0.594782040933657
 31
0.0
  0
LINE
  8
4
  6
CONTINUOUS
 62
4
 10
-1.36825541748261
 20
0.594782040933657
 30
0.0
 11
-1.36825541748261
 21
0.630775252863863
 31
0.0
  0
LINE
  8
4
  6
CONTINUOUS
 62
4
 10
-1.36825541748261
 20
0.630775252863863
 30
0.0
 11
-1.1023622045
 21
0.630775252863863
 31
0.0
  0
LINE
  8
4
  6
CONTINUOUS
 62
4
 10
-1.1023622045
 20
0.630775252863863
 30
0.0
 11
-1.1023622045
 21
0.594782040933657
 31
0.0
  0
LINE
  8
4
  6
CONTINUOUS
 62
4
 10
-1.1023622045
 20
0.594782040933657
 30
0.0
 11
-1.2353088109913
 21
0.594782040933657
 31
0.0
  0
LINE
  8
4
  6
CONTINUOUS
 62
4
 10
0.984251968500001
 20
-0.787401574500001
 30
0.0
 11
0.984251968499998
 21
0.787401574499998
 31
0.0
  0
ARC
  8
4
  6
CONTINUOUS
 62
4
 10
-0.7874015745
 20
0.7874015745
 30
0.0
 40
0.196850394
 50
89.9999999999998
 51
180
  0
ARC
  8
4
  6
CONTINUOUS
 62
4
 10
0.787401574499998
 20
0.787401574500002
 30
0.0
 40
0.196850394
 50
359.999999999999
 51
89.9999999999998
  0
ARC
  8
4
  6
CONTINUOUS
 62
4
 10
0.787401574500003
 20
-0.7874015745
 30
0.0
 40
0.196850394
 50
269.999999999999
 51
359.999999999999
  0
ARC
  8
4
  6
CONTINUOUS
 62
4
 10
-0.787401574754693
 20
-0.787401575103521
 30
0.0
 40
0.196850393396481
 50
224.239167879735
 51
269.9999999286
  0
ARC
  8
4
  6
CONTINUOUS
 62
4
 10
-0.787401575103523
 20
-0.787401574745308
 30
0.0
 40
0.196850393396477
 50
180.000000074131
 51
224.239168025266
  0
LINE
  8
4
  6
CONTINUOUS
 62
4
 10
-0.984251968500001
 20
-0.787401574500002
 30
0.0
 11
-0.984251968499999
 21
0.787401574499999
 31
0.0
  0
LINE
  8
4
  6
CONTINUOUS
 62
4
 10
-0.787401574500002
 20
-0.984251968500001
 30
0.0
 11
0.787401574500001
 21
-0.9842519685
 31
0.0
  0
LINE
  8
4
  6
CONTINUOUS
 62
4
 10
0.787401574499998
 20
0.9842519685
 30
0.0
 11
-0.787401574499999
 21
0.9842519685
 31
0.0
  0
LINE
  8
4
  6
CONTINUOUS
 62
4
 10
0.964797336005342
 20
0.54081473822782
 30
0.0
 11
0.0656885624905039
 21
0.54081473822782
 31
0.0
  0
LINE
  8
4
  6
CONTINUOUS
 62
4
 10
0.964797336005342
 20
0.54081473822782
 30
0.0
 11
0.927235583266068
 21
0.562501026283074
 31
0.0
  0
LINE
  8
4
  6
CONTINUOUS
 62
4
 10
0.964797336005342
 20
0.54081473822782
 30
0.0
 11
0.927235583266068
 21
0.519128450172566
 31
0.0
  0
LINE
  8
4
  6
CONTINUOUS
 62
4
 10
-1.23531944586903
 20
0.764955239299797
 30
0.0
 11
-1.29660558750232
 21
0.764955239299797
 31
0.0
  0
ARC
  8
4
  6
CONTINUOUS
 62
4
 10
-1.29660558750232
 20
0.727216179254391
 30
0.0
 40
0.0377390600454062
 50
90
 51
270
  0
LINE
  8
4
  6
CONTINUOUS
 62
4
 10
-1.29660558750232
 20
0.689477119208985
 30
0.0
 11
-1.17403330423574
 21
0.689477119208985
 31
0.0
  0
ARC
  8
4
  6
CONTINUOUS
 62
4
 10
-1.17403285119372
 20
0.727216598586693
 30
0.0
 40
0.037739479380428
 50
269.999312195173
 51
345.521838354126
  0
LINE
  8
4
  6
CONTINUOUS
 62
4
 10
-1.1374918643586
 20
0.717781314541061
 30
0.0
 11
-1.10300561460261
 21
0.717781314541061
 31
0.0
  0
ARC
  8
4
  6
CONTINUOUS
 62
4
 10
-1.17403230273596
 20
0.727216289462264
 30
0.0
 40
0.0716506048750146
 50
269.999199145477
 51
352.433297341488
  0
LINE
  8
4
  6
CONTINUOUS
 62
4
 10
-1.17403330423574
 20
0.655565684594249
 30
0.0
 11
-1.29660558750232
 21
0.655565418722305
 31
0.0
  0
ARC
  8
4
  6
CONTINUOUS
 62
4
 10
-1.29660558750232
 20
0.727215115766618
 30
0.0
 40
0.071649697044313
 50
90
 51
270
  0
LINE
  8
4
  6
CONTINUOUS
 62
4
 10
-1.29660558750232
 20
0.798864812810931
 30
0.0
 11
-1.17403330423574
 21
0.798864812810931
 31
0.0
  0
ARC
  8
4
  6
CONTINUOUS
 62
4
 10
-1.17403218199301
 20
0.72721406351982
 30
0.0
 40
0.0716507492999
 50
7.56830513434457
 51
90.0008974054401
  0
LINE
  8
4
  6
CONTINUOUS
 62
4
 10
-1.10300561460261
 20
0.736651043967721
 30
0.0
 11
-1.1374918643586
 21
0.736651043967721
 31
0.0
  0
ARC
  8
4
  6
CONTINUOUS
 62
4
 10
-1.17403264578754
 20
0.727215670606007
 30
0.0
 40
0.0377393028275913
 50
14.4783709045357
 51
90.0009996555313
  0
LINE
  8
4
  6
CONTINUOUS
 62
4
 10
-1.17403330423574
 20
0.764954973427854
 30
0.0
 11
-1.23531944586903
 21
0.764955239299797
 31
0.0
  0
LINE
  8
4
  6
CONTINUOUS
 62
4
 10
-1.13951829574712
 20
0.950217999803794
 30
0.0
 11
-1.36825541748261
 21
0.950217999803794
 31
0.0
  0
LINE
  8
4
  6
CONTINUOUS
 62
4
 10
-1.36825541748261
 20
0.950217999803794
 30
0.0
 11
-1.36825541748261
 21
0.985047490238493
 31
0.0
  0
LINE
  8
4
  6
CONTINUOUS
 62
4
 10
-1.36825541748261
 20
0.985047490238493
 30
0.0
 11
-1.2353088109913
 21
0.985047490238493
 31
0.0
  0
LINE
  8
4
  6
CONTINUOUS
 62
4
 10
-1.1023622045
 20
0.985047490238493
 30
0.0
 11
-1.1023622045
 21
0.928153553107316
 31
0.0
  0
LINE
  8
4
  6
CONTINUOUS
 62
4
 10
-1.1023622045
 20
0.928153553107316
 30
0.0
 11
-1.32529317017653
 21
0.858487127823506
 31
0.0
  0
LINE
  8
4
  6
CONTINUOUS
 62
4
 10
-1.32529317017653
 20
0.858487127823506
 30
0.0
 11
-1.1023622045
 21
0.858487127823506
 31
0.0
  0
LINE
  8
4
  6
CONTINUOUS
 62
4
 10
-1.1023622045
 20
0.858487127823506
 30
0.0
 11
-1.1023622045
 21
0.823655244541317
 31
0.0
  0
LINE
  8
4
  6
CONTINUOUS
 62
4
 10
-1.1023622045
 20
0.823655244541317
 30
0.0
 11
-1.36825541748261
 21
0.823655244541317
 31
0.0
  0
LINE
  8
4
  6
CONTINUOUS
 62
4
 10
-1.36825541748261
 20
0.823655244541317
 30
0.0
 11
-1.36825541748261
 21
0.880549181672495
 31
0.0
  0
LINE
  8
4
  6
CONTINUOUS
 62
4
 10
-1.36825541748261
 20
0.880549181672495
 30
0.0
 11
-1.13951829574712
 21
0.950217999803794
 31
0.0
  0
LINE
  8
4
  6
CONTINUOUS
 62
4
 10
-1.2353088109913
 20
0.985047490238493
 30
0.0
 11
-1.1023622045
 21
0.985047490238493
 31
0.0
  0
LINE
  8
4
  6
CONTINUOUS
 62
4
 10
-0.143712579575325
 20
0.571215371061164
 30
0.0
 11
-0.143712579575325
 21
0.510415371085484
 31
0.0
  0
LINE
  8
4
  6
CONTINUOUS
 62
4
 10
-0.141888579575325
 20
0.540815371073324
 30
0.0
 11
-0.108691779575326
 21
0.540815371073324
 31
0.0
  0
LINE
  8
4
  6
CONTINUOUS
 62
4
 10
-0.106798293875805
 20
0.510415371085484
 30
0.0
 11
-0.106798293875805
 21
0.571215371061164
 31
0.0
  0
LINE
  8
4
  6
CONTINUOUS
 62
4
 10
-0.0644085812737574
 20
0.51041473823998
 30
0.0
 11
-0.100063438402352
 21
0.51041473823998
 31
0.0
  0
LINE
  8
4
  6
CONTINUOUS
 62
4
 10
-0.100063438402352
 20
0.51041473823998
 30
0.0
 11
-0.100085152688058
 21
0.54081473822782
 31
0.0
  0
LINE
  8
4
  6
CONTINUOUS
 62
4
 10
-0.100085152688058
 20
0.54081473822782
 30
0.0
 11
-0.0722257241277733
 21
0.54081473822782
 31
0.0
  0
LINE
  8
4
  6
CONTINUOUS
 62
4
 10
-0.100086455178384
 20
0.541726224685612
 30
0.0
 11
-0.100106866973764
 21
0.57121473821566
 31
0.0
  0
LINE
  8
4
  6
CONTINUOUS
 62
4
 10
-0.100106866973764
 20
0.57121473821566
 30
0.0
 11
-0.0674485812737573
 21
0.57121473821566
 31
0.0
  0
LINE
  8
4
  6
CONTINUOUS
 62
4
 10
-0.0583285812737571
 20
0.510415371085484
 30
0.0
 11
-0.0583285812737571
 21
0.571215371061164
 31
0.0
  0
LINE
  8
4
  6
CONTINUOUS
 62
4
 10
-0.0583285812737571
 20
0.571215371061164
 30
0.0
 11
-0.0362668669968649
 21
0.571215371061165
 31
0.0
  0
ARC
  8
4
  6
CONTINUOUS
 62
4
 10
-0.0365598053079245
 20
0.55601539356909
 30
0.0
 40
0.0152028000254448
 50
271.095264000542
 51
88.8959160393192
  0
LINE
  8
4
  6
CONTINUOUS
 62
4
 10
-0.0362692068444952
 20
0.540815371162964
 30
0.0
 11
-0.0563332068444957
 21
0.540815371162964
 31
0.0
  0
LINE
  8
4
  6
CONTINUOUS
 62
4
 10
-0.0354029793125918
 20
0.539083172672523
 30
0.0
 11
-0.021066867002947
 21
0.510415371085484
 31
0.0
  0
LINE
  8
4
  6
CONTINUOUS
 62
4
 10
0.0213228455991006
 20
0.51041473823998
 30
0.0
 11
-0.0143320115294943
 21
0.51041473823998
 31
0.0
  0
LINE
  8
4
  6
CONTINUOUS
 62
4
 10
-0.0143320115294943
 20
0.51041473823998
 30
0.0
 11
-0.0143537258152002
 21
0.54081473822782
 31
0.0
  0
LINE
  8
4
  6
CONTINUOUS
 62
4
 10
-0.0143537258152002
 20
0.54081473822782
 30
0.0
 11
0.0135057027450842
 21
0.54081473822782
 31
0.0
  0
LINE
  8
4
  6
CONTINUOUS
 62
4
 10
-0.0143550283055269
 20
0.541726224685612
 30
0.0
 11
-0.0143754401009057
 21
0.57121473821566
 31
0.0
  0
LINE
  8
4
  6
CONTINUOUS
 62
4
 10
-0.0143754401009057
 20
0.57121473821566
 30
0.0
 11
0.0182828455991006
 21
0.57121473821566
 31
0.0
  0
ARC
  8
5
  6
CONTINUOUS
 62
5
 10
-0.787401575
 20
-0.787401574999999
 30
0.0
 40
0.066929134
 50
359.999999999999
 51
180
  0
ARC
  8
5
  6
CONTINUOUS
 62
5
 10
-0.787401575
 20
-0.787401575000001
 30
0.0
 40
0.066929134
 50
179.999999999999
 51
359.999999999999
  0
ARC
  8
5
  6
CONTINUOUS
 62
5
 10
-0.787401575
 20
0.787401575
 30
0.0
 40
0.066929134
 50
180
 51
1.52666624710249E-13
  0
ARC
  8
5
  6
CONTINUOUS
 62
5
 10
-0.787401575
 20
0.787401574999999
 30
0.0
 40
0.066929134
 50
359.999999999999
 51
180
  0
ARC
  8
5
  6
CONTINUOUS
 62
5
 10
0.787401575
 20
-0.787401575000001
 30
0.0
 40
0.066929134
 50
359.999999999999
 51
180
  0
ARC
  8
5
  6
CONTINUOUS
 62
5
 10
0.787401575
 20
-0.787401575
 30
0.0
 40
0.066929134
 50
180
 51
1.52666624710249E-13
  0
ARC
  8
5
  6
CONTINUOUS
 62
5
 10
0.787401575
 20
0.787401574999999
 30
0.0
 40
0.066929134
 50
179.999999999999
 51
359.999999999999
  0
ARC
  8
5
  6
CONTINUOUS
 62
5
 10
0.787401575
 20
0.787401575000001
 30
0.0
 40
0.066929134
 50
359.999999999999
 51
180
  0
ARC
  8
5
  6
CONTINUOUS
 62
5
 10
-0.120487192384616
 20
0.405149099914077
 30
0.0
 40
0.0223591391910567
 50
204.386837237011
 51
324.320000000005
  0
ARC
  8
5
  6
CONTINUOUS
 62
5
 10
-0.0895470313938347
 20
0.41328854884286
 30
0.0
 40
0.0541655474069066
 50
161.294134617644
 51
198.705865382356
  0
ARC
  8
5
  6
CONTINUOUS
 62
5
 10
-0.120487188041758
 20
0.421428000250419
 30
0.0
 40
0.0223591435339135
 50
35.6800299999901
 51
155.613174782251
  0
LINE
  8
5
  6
CONTINUOUS
 62
5
 10
-0.0928851518796341
 20
0.382987139862668
 30
0.0
 11
-0.0755137273850628
 21
0.382987139862668
 31
0.0
  0
LINE
  8
5
  6
CONTINUOUS
 62
5
 10
-0.0841994416673018
 20
0.384811139838348
 30
0.0
 11
-0.0841994416673018
 21
0.441963139838348
 31
0.0
  0
LINE
  8
5
  6
CONTINUOUS
 62
5
 10
-0.0928851518796341
 20
0.443787139838348
 30
0.0
 11
-0.0756051494067997
 21
0.443787139838348
 31
0.0
  0
LINE
  8
5
  6
CONTINUOUS
 62
5
 10
-0.0663251494067993
 20
0.382987143808652
 30
0.0
 11
-0.0663251494067993
 21
0.443787143784332
 31
0.0
  0
LINE
  8
5
  6
CONTINUOUS
 62
5
 10
-0.0663251494067993
 20
0.443787143784332
 30
0.0
 11
-0.0442634351299076
 21
0.443787143784333
 31
0.0
  0
ARC
  8
5
  6
CONTINUOUS
 62
5
 10
-0.0445563734409669
 20
0.428587166292258
 30
0.0
 40
0.0152028000254448
 50
271.095264000543
 51
88.8959160393202
  0
LINE
  8
5
  6
CONTINUOUS
 62
5
 10
-0.0442657749775375
 20
0.413387143886133
 30
0.0
 11
-0.0643297749775384
 21
0.413387143886133
 31
0.0
  0
LINE
  8
5
  6
CONTINUOUS
 62
5
 10
-0.0433995474456341
 20
0.411654945395692
 30
0.0
 11
-0.0290634351359893
 21
0.382987143808652
 31
0.0
  0
ARC
  8
5
  6
CONTINUOUS
 62
5
 10
0.00024195205471951
 20
0.405149099914077
 30
0.0
 40
0.0223591391910564
 50
204.386837237011
 51
324.320000000004
  0
ARC
  8
5
  6
CONTINUOUS
 62
5
 10
0.0311821130455008
 20
0.41328854884286
 30
0.0
 40
0.0541655474069066
 50
161.294134617644
 51
198.705865382356
  0
ARC
  8
5
  6
CONTINUOUS
 62
5
 10
0.000241956397576959
 20
0.421428000250419
 30
0.0
 40
0.0223591435339135
 50
35.6800299999901
 51
155.613174782251
  0
LINE
  8
5
  6
CONTINUOUS
 62
5
 10
0.0244839950325355
 20
0.443787143784332
 30
0.0
 11
0.0244839950325355
 21
0.382987143808652
 31
0.0
  0
LINE
  8
5
  6
CONTINUOUS
 62
5
 10
0.0244839950325355
 20
0.382987143808652
 30
0.0
 11
0.0601388521611308
 21
0.382987143808652
 31
0.0
  0
LINE
  8
5
  6
CONTINUOUS
 62
5
 10
0.103831421904299
 20
0.382986510963148
 30
0.0
 11
0.0681765647757042
 21
0.382986510963148
 31
0.0
  0
LINE
  8
5
  6
CONTINUOUS
 62
5
 10
0.0681765647757042
 20
0.382986510963148
 30
0.0
 11
0.0681548504899978
 21
0.413386510950988
 31
0.0
  0
LINE
  8
5
  6
CONTINUOUS
 62
5
 10
0.0681548504899978
 20
0.413386510950988
 30
0.0
 11
0.0960142790502827
 21
0.413386510950988
 31
0.0
  0
LINE
  8
5
  6
CONTINUOUS
 62
5
 10
0.0681535479996716
 20
0.41429799740878
 30
0.0
 11
0.0681331362042923
 21
0.443786510938828
 31
0.0
  0
LINE
  8
5
  6
CONTINUOUS
 62
5
 10
0.0681331362042923
 20
0.443786510938828
 30
0.0
 11
0.100791421904299
 21
0.443786510938828
 31
0.0
  0
ARC
  8
5
  6
CONTINUOUS
 62
5
 10
0.126609384944303
 20
0.400477207535894
 30
0.0
 40
0.0175265250215609
 50
210.521999666259
 51
269.441063338051
  0
LINE
  8
5
  6
CONTINUOUS
 62
5
 10
0.126438411408416
 20
0.382951516468738
 30
0.0
 11
0.132634231413364
 21
0.382891072579631
 31
0.0
  0
ARC
  8
5
  6
CONTINUOUS
 62
5
 10
0.132790312830736
 20
0.398890252515439
 30
0.0
 40
0.0159999412507428
 50
269.441063677776
 51
357.350682656729
  0
ARC
  8
5
  6
CONTINUOUS
 62
5
 10
0.135758651403078
 20
0.396970337453808
 30
0.0
 40
0.013067917709062
 50
5.18227244383307
 51
59.3448299999952
  0
LINE
  8
5
  6
CONTINUOUS
 62
5
 10
0.142421590429525
 20
0.408212032912263
 30
0.0
 11
0.118492702152844
 21
0.418489333559488
 31
0.0
  0
ARC
  8
5
  6
CONTINUOUS
 62
5
 10
0.125155645538173
 20
0.429731023339765
 30
0.0
 40
0.0130679150468655
 50
185.182406440223
 51
239.344800865824
  0
ARC
  8
5
  6
CONTINUOUS
 62
5
 10
0.128059938118932
 20
0.427853371383442
 30
0.0
 40
0.0159340518263759
 50
91.2613438550531
 51
177.491952931064
  0
LINE
  8
5
  6
CONTINUOUS
 62
5
 10
0.127709184622776
 20
0.443783562204351
 30
0.0
 11
0.133890271200021
 21
0.443790061769627
 31
0.0
  0
ARC
  8
5
  6
CONTINUOUS
 62
5
 10
0.13333825099427
 20
0.426826668000089
 30
0.0
 40
0.0169723732721135
 50
29.2717084966245
 51
88.1361471074762
  0
LINE
  8
6
  6
CONTINUOUS
 62
6
 10
0.0417698048667994
 20
-0.41338451243993
 30
0.0
 11
0.0765126619957592
 21
-0.41338451243993
 31
0.0
  0
LINE
  8
6
  6
CONTINUOUS
 62
6
 10
0.0591412334312791
 20
-0.430755941004409
 30
0.0
 11
0.0591412334312791
 21
-0.39601308387545
 31
0.0
  0
LINE
  8
6
  6
CONTINUOUS
 62
6
 10
0.0417698048667994
 20
-0.76771522043993
 30
0.0
 11
0.0765126619957597
 21
-0.76771522043993
 31
0.0
  0
LINE
  8
6
  6
CONTINUOUS
 62
6
 10
0.0591412334312795
 20
-0.785086649004409
 30
0.0
 11
0.0591412334312795
 21
-0.75034379187545
 31
0.0
  0
ARC
  8
6
  6
CONTINUOUS
 62
6
 10
-0.395824338406352
 20
0.532577327190909
 30
0.0
 40
0.0223591391910564
 50
204.386837237011
 51
324.320000000005
  0
ARC
  8
6
  6
CONTINUOUS
 62
6
 10
-0.36488417741557
 20
0.540716776119692
 30
0.0
 40
0.0541655474069068
 50
161.294134617644
 51
198.705865382356
  0
ARC
  8
6
  6
CONTINUOUS
 62
6
 10
-0.395824334063495
 20
0.548856227527251
 30
0.0
 40
0.0223591435339133
 50
35.6800299999902
 51
155.613174782252
  0
LINE
  8
6
  6
CONTINUOUS
 62
6
 10
-0.371582295428536
 20
0.571215371061164
 30
0.0
 11
-0.371582295428536
 21
0.510415371085484
 31
0.0
  0
LINE
  8
6
  6
CONTINUOUS
 62
6
 10
-0.371582295428536
 20
0.510415371085484
 30
0.0
 11
-0.335927438299941
 21
0.510415371085484
 31
0.0
  0
LINE
  8
6
  6
CONTINUOUS
 62
6
 10
-0.325184583631656
 20
0.5104153671395
 30
0.0
 11
-0.307813159137084
 21
0.5104153671395
 31
0.0
  0
LINE
  8
6
  6
CONTINUOUS
 62
6
 10
-0.316498873419323
 20
0.51223936711518
 30
0.0
 11
-0.316498873419323
 21
0.56939136711518
 31
0.0
  0
LINE
  8
6
  6
CONTINUOUS
 62
6
 10
-0.325184583631656
 20
0.57121536711518
 30
0.0
 11
-0.307904581158821
 21
0.57121536711518
 31
0.0
  0
ARC
  8
6
  6
CONTINUOUS
 62
6
 10
-0.278439193968111
 20
0.532577327190909
 30
0.0
 40
0.0223591391910567
 50
204.386837237011
 51
324.320000000005
  0
ARC
  8
6
  6
CONTINUOUS
 62
6
 10
-0.24749903297733
 20
0.540716776119692
 30
0.0
 40
0.0541655474069068
 50
161.294134617644
 51
198.705865382356
  0
ARC
  8
6
  6
CONTINUOUS
 62
6
 10
-0.278439189625254
 20
0.548856227527251
 30
0.0
 40
0.0223591435339135
 50
35.6800299999901
 51
155.613174782251
  0
LINE
  8
6
  6
CONTINUOUS
 62
6
 10
-0.254197150990295
 20
0.571215371061164
 30
0.0
 11
-0.254197150990295
 21
0.510415371085484
 31
0.0
  0
LINE
  8
6
  6
CONTINUOUS
 62
6
 10
-0.220192579575326
 20
0.510415371085484
 30
0.0
 11
-0.237991630361768
 21
0.547731857081645
 31
0.0
  0
LINE
  8
6
  6
CONTINUOUS
 62
6
 10
-0.252413515707521
 20
0.533489501971043
 30
0.0
 11
-0.220192579575326
 21
0.571215371061164
 31
0.0
  0
LINE
  8
6
  6
CONTINUOUS
 62
6
 10
-0.419049724822477
 20
0.264876907808652
 30
0.0
 11
-0.419049724822477
 21
0.325676907784332
 31
0.0
  0
LINE
  8
6
  6
CONTINUOUS
 62
6
 10
-0.419049724822477
 20
0.325676907784332
 30
0.0
 11
-0.396988010545587
 21
0.325676907784334
 31
0.0
  0
ARC
  8
6
  6
CONTINUOUS
 62
6
 10
-0.397891320952688
 20
0.310476907790413
 30
0.0
 40
0.0152268174451116
 50
273.400991681353
 51
86.5990083186456
  0
LINE
  8
6
  6
CONTINUOUS
 62
6
 10
-0.396988010545586
 20
0.295276907796493
 30
0.0
 11
-0.418137724822477
 21
0.295276907796492
 31
0.0
  0
LINE
  8
6
  6
CONTINUOUS
 62
6
 10
-0.372668010551667
 20
0.264876907808652
 30
0.0
 11
-0.372668010551667
 21
0.325676907784332
 31
0.0
  0
LINE
  8
6
  6
CONTINUOUS
 62
6
 10
-0.372668010551667
 20
0.325676907784332
 30
0.0
 11
-0.350606296274774
 21
0.325676907784333
 31
0.0
  0
ARC
  8
6
  6
CONTINUOUS
 62
6
 10
-0.350899234585834
 20
0.310476930292258
 30
0.0
 40
0.0152028000254448
 50
271.095264000543
 51
88.8959160393202
  0
LINE
  8
6
  6
CONTINUOUS
 62
6
 10
-0.350608636122404
 20
0.295276907886133
 30
0.0
 11
-0.370672636122405
 21
0.295276907886133
 31
0.0
  0
LINE
  8
6
  6
CONTINUOUS
 62
6
 10
-0.349742408590501
 20
0.293544709395692
 30
0.0
 11
-0.335406296280856
 21
0.264876907808652
 31
0.0
  0
LINE
  8
6
  6
CONTINUOUS
 62
6
 10
-0.293016583678809
 20
0.264876274963148
 30
0.0
 11
-0.328671440807403
 21
0.264876274963148
 31
0.0
  0
LINE
  8
6
  6
CONTINUOUS
 62
6
 10
-0.328671440807403
 20
0.264876274963148
 30
0.0
 11
-0.32869315509311
 21
0.295276274950988
 31
0.0
  0
LINE
  8
6
  6
CONTINUOUS
 62
6
 10
-0.32869315509311
 20
0.295276274950988
 30
0.0
 11
-0.300833726532825
 21
0.295276274950988
 31
0.0
  0
LINE
  8
6
  6
CONTINUOUS
 62
6
 10
-0.328694457583436
 20
0.29618776140878
 30
0.0
 11
-0.328714869378815
 21
0.325676274938828
 31
0.0
  0
LINE
  8
6
  6
CONTINUOUS
 62
6
 10
-0.328714869378815
 20
0.325676274938828
 30
0.0
 11
-0.296056583678809
 21
0.325676274938828
 31
0.0
  0
ARC
  8
6
  6
CONTINUOUS
 62
6
 10
-0.270238620638805
 20
0.282366971535894
 30
0.0
 40
0.0175265250215609
 50
210.521999666258
 51
269.441063338051
  0
LINE
  8
6
  6
CONTINUOUS
 62
6
 10
-0.270409594174692
 20
0.264841280468737
 30
0.0
 11
-0.264213774169744
 21
0.264780836579631
 31
0.0
  0
ARC
  8
6
  6
CONTINUOUS
 62
6
 10
-0.264057692752372
 20
0.280780016515439
 30
0.0
 40
0.0159999412507428
 50
269.441063677776
 51
357.350682656729
  0
ARC
  8
6
  6
CONTINUOUS
 62
6
 10
-0.261089354180029
 20
0.278860101453808
 30
0.0
 40
0.0130679177090619
 50
5.18227244383333
 51
59.3448299999954
  0
LINE
  8
6
  6
CONTINUOUS
 62
6
 10
-0.254426415153582
 20
0.290101796912263
 30
0.0
 11
-0.278355303430264
 21
0.300379097559488
 31
0.0
  0
ARC
  8
6
  6
CONTINUOUS
 62
6
 10
-0.271692360044934
 20
0.311620787339765
 30
0.0
 40
0.0130679150468656
 50
185.182406440223
 51
239.344800865824
  0
ARC
  8
6
  6
CONTINUOUS
 62
6
 10
-0.268788067464175
 20
0.309743135383442
 30
0.0
 40
0.0159340518263759
 50
91.2613438550529
 51
177.491952931064
  0
LINE
  8
6
  6
CONTINUOUS
 62
6
 10
-0.269138820960332
 20
0.325673326204351
 30
0.0
 11
-0.262957734383087
 21
0.325679825769627
 31
0.0
  0
ARC
  8
6
  6
CONTINUOUS
 62
6
 10
-0.263509754588838
 20
0.308716432000089
 30
0.0
 40
0.0169723732721136
 50
29.2717084966241
 51
88.1361471074759
  0
ARC
  8
6
  6
CONTINUOUS
 62
6
 10
-0.217931673556461
 20
0.282366971535894
 30
0.0
 40
0.0175265250215609
 50
210.521999666258
 51
269.441063338051
  0
LINE
  8
6
  6
CONTINUOUS
 62
6
 10
-0.218102647092348
 20
0.264841280468737
 30
0.0
 11
-0.2119068270874
 21
0.264780836579631
 31
0.0
  0
ARC
  8
6
  6
CONTINUOUS
 62
6
 10
-0.211750745670028
 20
0.280780016515439
 30
0.0
 40
0.0159999412507426
 50
269.441063677777
 51
357.35068265673
  0
ARC
  8
6
  6
CONTINUOUS
 62
6
 10
-0.208782407097686
 20
0.278860101453808
 30
0.0
 40
0.0130679177090614
 50
5.18227244382971
 51
59.3448299999918
  0
LINE
  8
6
  6
CONTINUOUS
 62
6
 10
-0.202119468071238
 20
0.290101796912263
 30
0.0
 11
-0.22604835634792
 21
0.300379097559488
 31
0.0
  0
ARC
  8
6
  6
CONTINUOUS
 62
6
 10
-0.219385412962591
 20
0.311620787339766
 30
0.0
 40
0.0130679150468659
 50
185.182406440224
 51
239.344800865825
  0
ARC
  8
6
  6
CONTINUOUS
 62
6
 10
-0.216481120381832
 20
0.309743135383442
 30
0.0
 40
0.0159340518263759
 50
91.2613438550529
 51
177.491952931064
  0
LINE
  8
6
  6
CONTINUOUS
 62
6
 10
-0.216831873877989
 20
0.325673326204351
 30
0.0
 11
-0.210650787300743
 21
0.325679825769627
 31
0.0
  0
ARC
  8
6
  6
CONTINUOUS
 62
6
 10
-0.211202807506494
 20
0.308716432000089
 30
0.0
 40
0.016972373272114
 50
29.2717084966249
 51
88.1361471074767
  0
LINE
  8
6
  6
CONTINUOUS
 62
6
 10
-0.419049724822477
 20
0.737317851808653
 30
0.0
 11
-0.419049724822477
 21
0.798117851784332
 31
0.0
  0
LINE
  8
6
  6
CONTINUOUS
 62
6
 10
-0.419049724822477
 20
0.798117851784332
 30
0.0
 11
-0.396988010545587
 21
0.798117851784333
 31
0.0
  0
ARC
  8
6
  6
CONTINUOUS
 62
6
 10
-0.397891320952687
 20
0.782917851790413
 30
0.0
 40
0.0152268174451114
 50
273.400991681353
 51
86.5990083186456
  0
LINE
  8
6
  6
CONTINUOUS
 62
6
 10
-0.396988010545586
 20
0.767717851796493
 30
0.0
 11
-0.418137724822477
 21
0.767717851796492
 31
0.0
  0
LINE
  8
6
  6
CONTINUOUS
 62
6
 10
-0.372668010551667
 20
0.737317851808652
 30
0.0
 11
-0.372668010551667
 21
0.798117851784332
 31
0.0
  0
LINE
  8
6
  6
CONTINUOUS
 62
6
 10
-0.372668010551667
 20
0.798117851784332
 30
0.0
 11
-0.350606296274774
 21
0.798117851784333
 31
0.0
  0
ARC
  8
6
  6
CONTINUOUS
 62
6
 10
-0.350899234585834
 20
0.782917874292258
 30
0.0
 40
0.0152028000254452
 50
271.095264000542
 51
88.8959160393192
  0
LINE
  8
6
  6
CONTINUOUS
 62
6
 10
-0.350608636122404
 20
0.767717851886132
 30
0.0
 11
-0.370672636122405
 21
0.767717851886132
 31
0.0
  0
LINE
  8
6
  6
CONTINUOUS
 62
6
 10
-0.349742408590501
 20
0.765985653395692
 30
0.0
 11
-0.335406296280856
 21
0.737317851808652
 31
0.0
  0
LINE
  8
6
  6
CONTINUOUS
 62
6
 10
-0.293016583678809
 20
0.737317218963149
 30
0.0
 11
-0.328671440807403
 21
0.737317218963149
 31
0.0
  0
LINE
  8
6
  6
CONTINUOUS
 62
6
 10
-0.328671440807403
 20
0.737317218963149
 30
0.0
 11
-0.32869315509311
 21
0.767717218950988
 31
0.0
  0
LINE
  8
6
  6
CONTINUOUS
 62
6
 10
-0.32869315509311
 20
0.767717218950988
 30
0.0
 11
-0.300833726532824
 21
0.767717218950988
 31
0.0
  0
LINE
  8
6
  6
CONTINUOUS
 62
6
 10
-0.328694457583436
 20
0.768628705408781
 30
0.0
 11
-0.328714869378815
 21
0.798117218938828
 31
0.0
  0
LINE
  8
6
  6
CONTINUOUS
 62
6
 10
-0.328714869378815
 20
0.798117218938828
 30
0.0
 11
-0.296056583678809
 21
0.798117218938828
 31
0.0
  0
ARC
  8
6
  6
CONTINUOUS
 62
6
 10
-0.270238620638805
 20
0.754807915535894
 30
0.0
 40
0.0175265250215611
 50
210.521999666258
 51
269.44106333805
  0
LINE
  8
6
  6
CONTINUOUS
 62
6
 10
-0.270409594174692
 20
0.737282224468737
 30
0.0
 11
-0.264213774169744
 21
0.737221780579631
 31
0.0
  0
ARC
  8
6
  6
CONTINUOUS
 62
6
 10
-0.264057692752372
 20
0.753220960515439
 30
0.0
 40
0.0159999412507425
 50
269.441063677777
 51
357.35068265673
  0
ARC
  8
6
  6
CONTINUOUS
 62
6
 10
-0.261089354180029
 20
0.751301045453808
 30
0.0
 40
0.0130679177090617
 50
5.18227244383124
 51
59.3448299999933
  0
LINE
  8
6
  6
CONTINUOUS
 62
6
 10
-0.254426415153582
 20
0.762542740912263
 30
0.0
 11
-0.278355303430264
 21
0.772820041559488
 31
0.0
  0
ARC
  8
6
  6
CONTINUOUS
 62
6
 10
-0.271692360044934
 20
0.784061731339765
 30
0.0
 40
0.0130679150468654
 50
185.182406440223
 51
239.344800865824
  0
ARC
  8
6
  6
CONTINUOUS
 62
6
 10
-0.268788067464175
 20
0.782184079383442
 30
0.0
 40
0.0159340518263758
 50
91.2613438550527
 51
177.491952931064
  0
LINE
  8
6
  6
CONTINUOUS
 62
6
 10
-0.269138820960332
 20
0.798114270204351
 30
0.0
 11
-0.262957734383086
 21
0.798120769769627
 31
0.0
  0
ARC
  8
6
  6
CONTINUOUS
 62
6
 10
-0.263509754588838
 20
0.781157376000089
 30
0.0
 40
0.0169723732721136
 50
29.2717084966241
 51
88.1361471074759
  0
ARC
  8
6
  6
CONTINUOUS
 62
6
 10
-0.217931673556461
 20
0.754807915535894
 30
0.0
 40
0.0175265250215611
 50
210.521999666258
 51
269.44106333805
  0
LINE
  8
6
  6
CONTINUOUS
 62
6
 10
-0.218102647092348
 20
0.737282224468737
 30
0.0
 11
-0.2119068270874
 21
0.737221780579631
 31
0.0
  0
ARC
  8
6
  6
CONTINUOUS
 62
6
 10
-0.211750745670028
 20
0.753220960515439
 30
0.0
 40
0.0159999412507428
 50
269.441063677776
 51
357.350682656729
  0
ARC
  8
6
  6
CONTINUOUS
 62
6
 10
-0.208782407097685
 20
0.751301045453807
 30
0.0
 40
0.0130679177090623
 50
5.18227244383485
 51
59.3448299999969
  0
LINE
  8
6
  6
CONTINUOUS
 62
6
 10
-0.202119468071238
 20
0.762542740912263
 30
0.0
 11
-0.22604835634792
 21
0.772820041559488
 31
0.0
  0
ARC
  8
6
  6
CONTINUOUS
 62
6
 10
-0.219385412962591
 20
0.784061731339765
 30
0.0
 40
0.0130679150468654
 50
185.182406440223
 51
239.344800865824
  0
ARC
  8
6
  6
CONTINUOUS
 62
6
 10
-0.216481120381832
 20
0.782184079383442
 30
0.0
 40
0.0159340518263758
 50
91.2613438550527
 51
177.491952931064
  0
LINE
  8
6
  6
CONTINUOUS
 62
6
 10
-0.216831873877988
 20
0.798114270204351
 30
0.0
 11
-0.210650787300743
 21
0.798120769769627
 31
0.0
  0
ARC
  8
6
  6
CONTINUOUS
 62
6
 10
-0.211202807506494
 20
0.781157376000089
 30
0.0
 40
0.0169723732721136
 50
29.2717084966241
 51
88.1361471074759
  0
LINE
  8
6
  6
CONTINUOUS
 62
6
 10
-0.399615434773109
 20
0.146766671808652
 30
0.0
 11
-0.399615434773109
 21
0.205722578953989
 31
0.0
  0
LINE
  8
6
  6
CONTINUOUS
 62
6
 10
-0.419049724822477
 20
0.207566671784332
 30
0.0
 11
-0.380181153409453
 21
0.207566671784332
 31
0.0
  0
LINE
  8
6
  6
CONTINUOUS
 62
6
 10
-0.374101153409454
 20
0.207566667547911
 30
0.0
 11
-0.354954670905003
 21
0.178744005713256
 31
0.0
  0
LINE
  8
6
  6
CONTINUOUS
 62
6
 10
-0.353906867703246
 20
0.146766667572231
 30
0.0
 11
-0.353906867703246
 21
0.177166667560071
 31
0.0
  0
LINE
  8
6
  6
CONTINUOUS
 62
6
 10
-0.353906867703246
 20
0.177166667560071
 30
0.0
 11
-0.333712581997038
 21
0.207566667547911
 31
0.0
  0
LINE
  8
6
  6
CONTINUOUS
 62
6
 10
-0.326112581997039
 20
0.146766667572231
 30
0.0
 11
-0.326112581997039
 21
0.207566667547911
 31
0.0
  0
LINE
  8
6
  6
CONTINUOUS
 62
6
 10
-0.326112581997039
 20
0.207566667547911
 30
0.0
 11
-0.304050867720149
 21
0.207566667547912
 31
0.0
  0
ARC
  8
6
  6
CONTINUOUS
 62
6
 10
-0.304954178127249
 20
0.192366667553992
 30
0.0
 40
0.0152268174451116
 50
273.400991681353
 51
86.5990083186456
  0
LINE
  8
6
  6
CONTINUOUS
 62
6
 10
-0.304050867720148
 20
0.177166667560071
 30
0.0
 11
-0.325200581997039
 21
0.177166667560071
 31
0.0
  0
LINE
  8
6
  6
CONTINUOUS
 62
6
 10
-0.24646115512418
 20
0.146766034726727
 30
0.0
 11
-0.282116012252775
 21
0.146766034726727
 31
0.0
  0
LINE
  8
6
  6
CONTINUOUS
 62
6
 10
-0.282116012252775
 20
0.146766034726727
 30
0.0
 11
-0.282137726538481
 21
0.177166034714567
 31
0.0
  0
LINE
  8
6
  6
CONTINUOUS
 62
6
 10
-0.282137726538481
 20
0.177166034714567
 30
0.0
 11
-0.254278297978196
 21
0.177166034714567
 31
0.0
  0
LINE
  8
6
  6
CONTINUOUS
 62
6
 10
-0.282139029028807
 20
0.178077521172359
 30
0.0
 11
-0.282159440824187
 21
0.207566034702407
 31
0.0
  0
LINE
  8
6
  6
CONTINUOUS
 62
6
 10
-0.282159440824187
 20
0.207566034702407
 30
0.0
 11
-0.24950115512418
 21
0.207566034702407
 31
0.0
  0
LINE
  8
6
  6
CONTINUOUS
 62
6
 10
-0.419049724822477
 20
0.0286564358086522
 30
0.0
 11
-0.419049724822477
 21
0.0894564357843323
 31
0.0
  0
LINE
  8
6
  6
CONTINUOUS
 62
6
 10
-0.419049724822477
 20
0.0894564357843323
 30
0.0
 11
-0.396988010545586
 21
0.0894564357843336
 31
0.0
  0
ARC
  8
6
  6
CONTINUOUS
 62
6
 10
-0.397891320952687
 20
0.0742564357904133
 30
0.0
 40
0.0152268174451116
 50
273.400991681353
 51
86.5990083186456
  0
LINE
  8
6
  6
CONTINUOUS
 62
6
 10
-0.396988010545586
 20
0.0590564357964929
 30
0.0
 11
-0.418137724822477
 21
0.0590564357964924
 31
0.0
  0
LINE
  8
6
  6
CONTINUOUS
 62
6
 10
-0.372668010551666
 20
0.0286564358086522
 30
0.0
 11
-0.372668010551666
 21
0.0894564357843323
 31
0.0
  0
LINE
  8
6
  6
CONTINUOUS
 62
6
 10
-0.372668010551666
 20
0.0894564357843323
 30
0.0
 11
-0.350606296274774
 21
0.0894564357843327
 31
0.0
  0
ARC
  8
6
  6
CONTINUOUS
 62
6
 10
-0.350899234585833
 20
0.074256458292258
 30
0.0
 40
0.0152028000254448
 50
271.095264000543
 51
88.8959160393202
  0
LINE
  8
6
  6
CONTINUOUS
 62
6
 10
-0.350608636122404
 20
0.0590564358861325
 30
0.0
 11
-0.370672636122404
 21
0.0590564358861325
 31
0.0
  0
LINE
  8
6
  6
CONTINUOUS
 62
6
 10
-0.349742408590501
 20
0.0573242373956916
 30
0.0
 11
-0.335406296280856
 21
0.0286564358086522
 31
0.0
  0
LINE
  8
6
  6
CONTINUOUS
 62
6
 10
-0.293016583678809
 20
0.0286558029631484
 30
0.0
 11
-0.328671440807403
 21
0.0286558029631484
 31
0.0
  0
LINE
  8
6
  6
CONTINUOUS
 62
6
 10
-0.328671440807403
 20
0.0286558029631484
 30
0.0
 11
-0.328693155093109
 21
0.0590558029509884
 31
0.0
  0
LINE
  8
6
  6
CONTINUOUS
 62
6
 10
-0.328693155093109
 20
0.0590558029509884
 30
0.0
 11
-0.300833726532824
 21
0.0590558029509884
 31
0.0
  0
LINE
  8
6
  6
CONTINUOUS
 62
6
 10
-0.328694457583436
 20
0.0599672894087803
 30
0.0
 11
-0.328714869378815
 21
0.0894558029388283
 31
0.0
  0
LINE
  8
6
  6
CONTINUOUS
 62
6
 10
-0.328714869378815
 20
0.0894558029388283
 30
0.0
 11
-0.296056583678809
 21
0.0894558029388283
 31
0.0
  0
ARC
  8
6
  6
CONTINUOUS
 62
6
 10
-0.270238620638805
 20
0.0461464995358943
 30
0.0
 40
0.0175265250215609
 50
210.521999666258
 51
269.441063338051
  0
LINE
  8
6
  6
CONTINUOUS
 62
6
 10
-0.270409594174691
 20
0.0286208084687374
 30
0.0
 11
-0.264213774169744
 21
0.0285603645796308
 31
0.0
  0
ARC
  8
6
  6
CONTINUOUS
 62
6
 10
-0.264057692752371
 20
0.0445595445154391
 30
0.0
 40
0.0159999412507428
 50
269.441063677776
 51
357.350682656729
  0
ARC
  8
6
  6
CONTINUOUS
 62
6
 10
-0.261089354180029
 20
0.0426396294538075
 30
0.0
 40
0.0130679177090619
 50
5.18227244383333
 51
59.3448299999954
  0
LINE
  8
6
  6
CONTINUOUS
 62
6
 10
-0.254426415153582
 20
0.0538813249122631
 30
0.0
 11
-0.278355303430264
 21
0.0641586255594881
 31
0.0
  0
ARC
  8
6
  6
CONTINUOUS
 62
6
 10
-0.271692360044934
 20
0.0754003153397651
 30
0.0
 40
0.0130679150468655
 50
185.182406440223
 51
239.344800865824
  0
ARC
  8
6
  6
CONTINUOUS
 62
6
 10
-0.268788067464175
 20
0.0735226633834416
 30
0.0
 40
0.0159340518263761
 50
91.2613438550521
 51
177.491952931063
  0
LINE
  8
6
  6
CONTINUOUS
 62
6
 10
-0.269138820960332
 20
0.0894528542043508
 30
0.0
 11
-0.262957734383086
 21
0.089459353769627
 31
0.0
  0
ARC
  8
6
  6
CONTINUOUS
 62
6
 10
-0.263509754588837
 20
0.0724959600000887
 30
0.0
 40
0.016972373272114
 50
29.2717084966249
 51
88.1361471074767
  0
ARC
  8
6
  6
CONTINUOUS
 62
6
 10
-0.217931673556461
 20
0.0461464995358943
 30
0.0
 40
0.0175265250215609
 50
210.521999666258
 51
269.441063338051
  0
LINE
  8
6
  6
CONTINUOUS
 62
6
 10
-0.218102647092347
 20
0.0286208084687374
 30
0.0
 11
-0.2119068270874
 21
0.0285603645796308
 31
0.0
  0
ARC
  8
6
  6
CONTINUOUS
 62
6
 10
-0.211750745670028
 20
0.0445595445154391
 30
0.0
 40
0.0159999412507428
 50
269.441063677776
 51
357.350682656729
  0
ARC
  8
6
  6
CONTINUOUS
 62
6
 10
-0.208782407097685
 20
0.0426396294538075
 30
0.0
 40
0.0130679177090619
 50
5.18227244383333
 51
59.3448299999954
  0
LINE
  8
6
  6
CONTINUOUS
 62
6
 10
-0.202119468071238
 20
0.0538813249122631
 30
0.0
 11
-0.22604835634792
 21
0.0641586255594881
 31
0.0
  0
ARC
  8
6
  6
CONTINUOUS
 62
6
 10
-0.21938541296259
 20
0.0754003153397656
 30
0.0
 40
0.0130679150468658
 50
185.182406440225
 51
239.344800865826
  0
ARC
  8
6
  6
CONTINUOUS
 62
6
 10
-0.216481120381832
 20
0.0735226633834419
 30
0.0
 40
0.0159340518263759
 50
91.2613438550529
 51
177.491952931064
  0
LINE
  8
6
  6
CONTINUOUS
 62
6
 10
-0.216831873877988
 20
0.0894528542043508
 30
0.0
 11
-0.210650787300743
 21
0.089459353769627
 31
0.0
  0
ARC
  8
6
  6
CONTINUOUS
 62
6
 10
-0.211202807506494
 20
0.0724959600000887
 30
0.0
 40
0.016972373272114
 50
29.2717084966249
 51
88.1361471074767
  0
LINE
  8
6
  6
CONTINUOUS
 62
6
 10
-0.399615434773109
 20
0.619207615808652
 30
0.0
 11
-0.399615434773109
 21
0.678163522953989
 31
0.0
  0
LINE
  8
6
  6
CONTINUOUS
 62
6
 10
-0.419049724822477
 20
0.680007615784332
 30
0.0
 11
-0.380181153409454
 21
0.680007615784332
 31
0.0
  0
LINE
  8
6
  6
CONTINUOUS
 62
6
 10
-0.374101153409454
 20
0.680007611547911
 30
0.0
 11
-0.354954670905003
 21
0.651184949713256
 31
0.0
  0
LINE
  8
6
  6
CONTINUOUS
 62
6
 10
-0.353906867703246
 20
0.619207611572231
 30
0.0
 11
-0.353906867703246
 21
0.649607611560071
 31
0.0
  0
LINE
  8
6
  6
CONTINUOUS
 62
6
 10
-0.353906867703246
 20
0.649607611560071
 30
0.0
 11
-0.333712581997038
 21
0.680007611547911
 31
0.0
  0
LINE
  8
6
  6
CONTINUOUS
 62
6
 10
-0.326112581997039
 20
0.619207611572231
 30
0.0
 11
-0.326112581997039
 21
0.680007611547911
 31
0.0
  0
LINE
  8
6
  6
CONTINUOUS
 62
6
 10
-0.326112581997039
 20
0.680007611547911
 30
0.0
 11
-0.304050867720149
 21
0.680007611547912
 31
0.0
  0
ARC
  8
6
  6
CONTINUOUS
 62
6
 10
-0.304954178127249
 20
0.664807611553992
 30
0.0
 40
0.0152268174451116
 50
273.400991681353
 51
86.5990083186456
  0
LINE
  8
6
  6
CONTINUOUS
 62
6
 10
-0.304050867720148
 20
0.649607611560071
 30
0.0
 11
-0.325200581997039
 21
0.649607611560071
 31
0.0
  0
LINE
  8
6
  6
CONTINUOUS
 62
6
 10
-0.24646115512418
 20
0.619206978726727
 30
0.0
 11
-0.282116012252775
 21
0.619206978726727
 31
0.0
  0
LINE
  8
6
  6
CONTINUOUS
 62
6
 10
-0.282116012252775
 20
0.619206978726727
 30
0.0
 11
-0.282137726538481
 21
0.649606978714567
 31
0.0
  0
LINE
  8
6
  6
CONTINUOUS
 62
6
 10
-0.282137726538481
 20
0.649606978714567
 30
0.0
 11
-0.254278297978196
 21
0.649606978714567
 31
0.0
  0
LINE
  8
6
  6
CONTINUOUS
 62
6
 10
-0.282139029028807
 20
0.650518465172359
 30
0.0
 11
-0.282159440824187
 21
0.680006978702407
 31
0.0
  0
LINE
  8
6
  6
CONTINUOUS
 62
6
 10
-0.282159440824187
 20
0.680006978702407
 30
0.0
 11
-0.24950115512418
 21
0.680006978702407
 31
0.0
  0
LINE
  8
6
  6
CONTINUOUS
 62
6
 10
-0.399615434773108
 20
-0.325674272191348
 30
0.0
 11
-0.399615434773108
 21
-0.266718365046011
 31
0.0
  0
LINE
  8
6
  6
CONTINUOUS
 62
6
 10
-0.419049724822477
 20
-0.264874272215668
 30
0.0
 11
-0.380181153409453
 21
-0.264874272215668
 31
0.0
  0
LINE
  8
6
  6
CONTINUOUS
 62
6
 10
-0.374101153409454
 20
-0.26487427645209
 30
0.0
 11
-0.354954670905003
 21
-0.293696938286744
 31
0.0
  0
LINE
  8
6
  6
CONTINUOUS
 62
6
 10
-0.353906867703246
 20
-0.32567427642777
 30
0.0
 11
-0.353906867703246
 21
-0.29527427643993
 31
0.0
  0
LINE
  8
6
  6
CONTINUOUS
 62
6
 10
-0.353906867703246
 20
-0.29527427643993
 30
0.0
 11
-0.333712581997038
 21
-0.26487427645209
 31
0.0
  0
LINE
  8
6
  6
CONTINUOUS
 62
6
 10
-0.326112581997039
 20
-0.325674276427769
 30
0.0
 11
-0.326112581997039
 21
-0.26487427645209
 31
0.0
  0
LINE
  8
6
  6
CONTINUOUS
 62
6
 10
-0.326112581997039
 20
-0.26487427645209
 30
0.0
 11
-0.304050867720149
 21
-0.264874276452088
 31
0.0
  0
ARC
  8
6
  6
CONTINUOUS
 62
6
 10
-0.304954178127249
 20
-0.280074276446009
 30
0.0
 40
0.0152268174451115
 50
273.400991681353
 51
86.5990083186456
  0
LINE
  8
6
  6
CONTINUOUS
 62
6
 10
-0.304050867720148
 20
-0.295274276439929
 30
0.0
 11
-0.325200581997039
 21
-0.29527427643993
 31
0.0
  0
LINE
  8
6
  6
CONTINUOUS
 62
6
 10
-0.24646115512418
 20
-0.325674909273273
 30
0.0
 11
-0.282116012252775
 21
-0.325674909273273
 31
0.0
  0
LINE
  8
6
  6
CONTINUOUS
 62
6
 10
-0.282116012252775
 20
-0.325674909273273
 30
0.0
 11
-0.282137726538481
 21
-0.295274909285434
 31
0.0
  0
LINE
  8
6
  6
CONTINUOUS
 62
6
 10
-0.282137726538481
 20
-0.295274909285434
 30
0.0
 11
-0.254278297978196
 21
-0.295274909285434
 31
0.0
  0
LINE
  8
6
  6
CONTINUOUS
 62
6
 10
-0.282139029028807
 20
-0.294363422827641
 30
0.0
 11
-0.282159440824187
 21
-0.264874909297594
 31
0.0
  0
LINE
  8
6
  6
CONTINUOUS
 62
6
 10
-0.282159440824187
 20
-0.264874909297594
 30
0.0
 11
-0.24950115512418
 21
-0.264874909297594
 31
0.0
  0
LINE
  8
6
  6
CONTINUOUS
 62
6
 10
-0.419049724822477
 20
-0.561894744191348
 30
0.0
 11
-0.419049724822477
 21
-0.501094744215668
 31
0.0
  0
LINE
  8
6
  6
CONTINUOUS
 62
6
 10
-0.419049724822477
 20
-0.501094744215668
 30
0.0
 11
-0.396988010545587
 21
-0.501094744215666
 31
0.0
  0
ARC
  8
6
  6
CONTINUOUS
 62
6
 10
-0.397891320952687
 20
-0.516294744209587
 30
0.0
 40
0.0152268174451115
 50
273.400991681353
 51
86.5990083186456
  0
LINE
  8
6
  6
CONTINUOUS
 62
6
 10
-0.396988010545586
 20
-0.531494744203507
 30
0.0
 11
-0.418137724822477
 21
-0.531494744203507
 31
0.0
  0
LINE
  8
6
  6
CONTINUOUS
 62
6
 10
-0.372668010551667
 20
-0.561894744191348
 30
0.0
 11
-0.372668010551667
 21
-0.501094744215668
 31
0.0
  0
LINE
  8
6
  6
CONTINUOUS
 62
6
 10
-0.372668010551667
 20
-0.501094744215668
 30
0.0
 11
-0.350606296274774
 21
-0.501094744215667
 31
0.0
  0
ARC
  8
6
  6
CONTINUOUS
 62
6
 10
-0.350899234585834
 20
-0.516294721707742
 30
0.0
 40
0.0152028000254448
 50
271.095264000543
 51
88.8959160393202
  0
LINE
  8
6
  6
CONTINUOUS
 62
6
 10
-0.350608636122404
 20
-0.531494744113868
 30
0.0
 11
-0.370672636122405
 21
-0.531494744113868
 31
0.0
  0
LINE
  8
6
  6
CONTINUOUS
 62
6
 10
-0.349742408590501
 20
-0.533226942604308
 30
0.0
 11
-0.335406296280857
 21
-0.561894744191348
 31
0.0
  0
LINE
  8
6
  6
CONTINUOUS
 62
6
 10
-0.293016583678809
 20
-0.561895377036852
 30
0.0
 11
-0.328671440807403
 21
-0.561895377036852
 31
0.0
  0
LINE
  8
6
  6
CONTINUOUS
 62
6
 10
-0.328671440807403
 20
-0.561895377036852
 30
0.0
 11
-0.32869315509311
 21
-0.531495377049011
 31
0.0
  0
LINE
  8
6
  6
CONTINUOUS
 62
6
 10
-0.32869315509311
 20
-0.531495377049011
 30
0.0
 11
-0.300833726532824
 21
-0.531495377049011
 31
0.0
  0
LINE
  8
6
  6
CONTINUOUS
 62
6
 10
-0.328694457583436
 20
-0.53058389059122
 30
0.0
 11
-0.328714869378815
 21
-0.501095377061172
 31
0.0
  0
LINE
  8
6
  6
CONTINUOUS
 62
6
 10
-0.328714869378815
 20
-0.501095377061172
 30
0.0
 11
-0.296056583678809
 21
-0.501095377061172
 31
0.0
  0
ARC
  8
6
  6
CONTINUOUS
 62
6
 10
-0.270238620638805
 20
-0.544404680464106
 30
0.0
 40
0.017526525021561
 50
210.521999666258
 51
269.44106333805
  0
LINE
  8
6
  6
CONTINUOUS
 62
6
 10
-0.270409594174692
 20
-0.561930371531263
 30
0.0
 11
-0.264213774169744
 21
-0.561990815420369
 31
0.0
  0
ARC
  8
6
  6
CONTINUOUS
 62
6
 10
-0.264057692752372
 20
-0.545991635484561
 30
0.0
 40
0.0159999412507426
 50
269.441063677777
 51
357.35068265673
  0
ARC
  8
6
  6
CONTINUOUS
 62
6
 10
-0.261089354180029
 20
-0.547911550546192
 30
0.0
 40
0.0130679177090617
 50
5.18227244383124
 51
59.3448299999933
  0
LINE
  8
6
  6
CONTINUOUS
 62
6
 10
-0.254426415153582
 20
-0.536669855087737
 30
0.0
 11
-0.278355303430264
 21
-0.526392554440512
 31
0.0
  0
ARC
  8
6
  6
CONTINUOUS
 62
6
 10
-0.271692360044934
 20
-0.515150864660235
 30
0.0
 40
0.0130679150468656
 50
185.182406440223
 51
239.344800865824
  0
ARC
  8
6
  6
CONTINUOUS
 62
6
 10
-0.268788067464176
 20
-0.517028516616558
 30
0.0
 40
0.0159340518263756
 50
91.2613438550535
 51
177.491952931065
  0
LINE
  8
6
  6
CONTINUOUS
 62
6
 10
-0.269138820960332
 20
-0.501098325795649
 30
0.0
 11
-0.262957734383086
 21
-0.501091826230373
 31
0.0
  0
ARC
  8
6
  6
CONTINUOUS
 62
6
 10
-0.263509754588838
 20
-0.518055219999911
 30
0.0
 40
0.0169723732721136
 50
29.2717084966241
 51
88.1361471074759
  0
ARC
  8
6
  6
CONTINUOUS
 62
6
 10
-0.217931673556461
 20
-0.544404680464106
 30
0.0
 40
0.017526525021561
 50
210.521999666258
 51
269.44106333805
  0
LINE
  8
6
  6
CONTINUOUS
 62
6
 10
-0.218102647092348
 20
-0.561930371531263
 30
0.0
 11
-0.2119068270874
 21
-0.561990815420369
 31
0.0
  0
ARC
  8
6
  6
CONTINUOUS
 62
6
 10
-0.211750745670028
 20
-0.545991635484561
 30
0.0
 40
0.0159999412507429
 50
269.441063677776
 51
357.350682656729
  0
ARC
  8
6
  6
CONTINUOUS
 62
6
 10
-0.208782407097686
 20
-0.547911550546192
 30
0.0
 40
0.013067917709062
 50
5.18227244383307
 51
59.3448299999952
  0
LINE
  8
6
  6
CONTINUOUS
 62
6
 10
-0.202119468071238
 20
-0.536669855087737
 30
0.0
 11
-0.226048356347921
 21
-0.526392554440512
 31
0.0
  0
ARC
  8
6
  6
CONTINUOUS
 62
6
 10
-0.219385412962591
 20
-0.515150864660235
 30
0.0
 40
0.0130679150468653
 50
185.182406440221
 51
239.344800865822
  0
ARC
  8
6
  6
CONTINUOUS
 62
6
 10
-0.216481120381832
 20
-0.517028516616558
 30
0.0
 40
0.0159340518263758
 50
91.2613438550527
 51
177.491952931064
  0
LINE
  8
6
  6
CONTINUOUS
 62
6
 10
-0.216831873877988
 20
-0.501098325795649
 30
0.0
 11
-0.210650787300743
 21
-0.501091826230373
 31
0.0
  0
ARC
  8
6
  6
CONTINUOUS
 62
6
 10
-0.211202807506494
 20
-0.518055219999911
 30
0.0
 40
0.016972373272114
 50
29.2717084966249
 51
88.1361471074767
  0
LINE
  8
6
  6
CONTINUOUS
 62
6
 10
-0.399615434773108
 20
-0.798115216191348
 30
0.0
 11
-0.399615434773108
 21
-0.739159309046012
 31
0.0
  0
LINE
  8
6
  6
CONTINUOUS
 62
6
 10
-0.419049724822477
 20
-0.737315216215668
 30
0.0
 11
-0.380181153409453
 21
-0.737315216215668
 31
0.0
  0
LINE
  8
6
  6
CONTINUOUS
 62
6
 10
-0.374101153409454
 20
-0.73731522045209
 30
0.0
 11
-0.354954670905003
 21
-0.766137882286745
 31
0.0
  0
LINE
  8
6
  6
CONTINUOUS
 62
6
 10
-0.353906867703246
 20
-0.798115220427769
 30
0.0
 11
-0.353906867703246
 21
-0.76771522043993
 31
0.0
  0
LINE
  8
6
  6
CONTINUOUS
 62
6
 10
-0.353906867703246
 20
-0.76771522043993
 30
0.0
 11
-0.333712581997038
 21
-0.73731522045209
 31
0.0
  0
LINE
  8
6
  6
CONTINUOUS
 62
6
 10
-0.326112581997039
 20
-0.798115220427769
 30
0.0
 11
-0.326112581997039
 21
-0.73731522045209
 31
0.0
  0
LINE
  8
6
  6
CONTINUOUS
 62
6
 10
-0.326112581997039
 20
-0.73731522045209
 30
0.0
 11
-0.304050867720149
 21
-0.737315220452088
 31
0.0
  0
ARC
  8
6
  6
CONTINUOUS
 62
6
 10
-0.304954178127249
 20
-0.752515220446009
 30
0.0
 40
0.0152268174451115
 50
273.400991681353
 51
86.5990083186456
  0
LINE
  8
6
  6
CONTINUOUS
 62
6
 10
-0.304050867720148
 20
-0.767715220439929
 30
0.0
 11
-0.325200581997039
 21
-0.76771522043993
 31
0.0
  0
LINE
  8
6
  6
CONTINUOUS
 62
6
 10
-0.24646115512418
 20
-0.798115853273273
 30
0.0
 11
-0.282116012252774
 21
-0.798115853273273
 31
0.0
  0
LINE
  8
6
  6
CONTINUOUS
 62
6
 10
-0.282116012252774
 20
-0.798115853273273
 30
0.0
 11
-0.282137726538481
 21
-0.767715853285434
 31
0.0
  0
LINE
  8
6
  6
CONTINUOUS
 62
6
 10
-0.282137726538481
 20
-0.767715853285434
 30
0.0
 11
-0.254278297978196
 21
-0.767715853285434
 31
0.0
  0
LINE
  8
6
  6
CONTINUOUS
 62
6
 10
-0.282139029028807
 20
-0.766804366827642
 30
0.0
 11
-0.282159440824187
 21
-0.737315853297594
 31
0.0
  0
LINE
  8
6
  6
CONTINUOUS
 62
6
 10
-0.282159440824187
 20
-0.737315853297594
 30
0.0
 11
-0.24950115512418
 21
-0.737315853297594
 31
0.0
  0
ARC
  8
6
  6
CONTINUOUS
 62
6
 10
-0.395824338406352
 20
0.405149099914077
 30
0.0
 40
0.0223591391910567
 50
204.386837237011
 51
324.320000000005
  0
ARC
  8
6
  6
CONTINUOUS
 62
6
 10
-0.364884177415571
 20
0.41328854884286
 30
0.0
 40
0.0541655474069066
 50
161.294134617644
 51
198.705865382356
  0
ARC
  8
6
  6
CONTINUOUS
 62
6
 10
-0.395824334063494
 20
0.421428000250419
 30
0.0
 40
0.0223591435339135
 50
35.6800299999901
 51
155.613174782251
  0
LINE
  8
6
  6
CONTINUOUS
 62
6
 10
-0.371582295428536
 20
0.443787143784332
 30
0.0
 11
-0.371582295428536
 21
0.382987143808652
 31
0.0
  0
LINE
  8
6
  6
CONTINUOUS
 62
6
 10
-0.371582295428536
 20
0.382987143808652
 30
0.0
 11
-0.335927438299941
 21
0.382987143808652
 31
0.0
  0
LINE
  8
6
  6
CONTINUOUS
 62
6
 10
-0.325184583631655
 20
0.382987139862668
 30
0.0
 11
-0.307813159137084
 21
0.382987139862668
 31
0.0
  0
LINE
  8
6
  6
CONTINUOUS
 62
6
 10
-0.316498873419323
 20
0.384811139838348
 30
0.0
 11
-0.316498873419323
 21
0.441963139838348
 31
0.0
  0
LINE
  8
6
  6
CONTINUOUS
 62
6
 10
-0.325184583631655
 20
0.443787139838348
 30
0.0
 11
-0.307904581158821
 21
0.443787139838348
 31
0.0
  0
ARC
  8
6
  6
CONTINUOUS
 62
6
 10
-0.278439193968111
 20
0.405149099914077
 30
0.0
 40
0.0223591391910564
 50
204.386837237011
 51
324.320000000004
  0
ARC
  8
6
  6
CONTINUOUS
 62
6
 10
-0.24749903297733
 20
0.41328854884286
 30
0.0
 40
0.0541655474069066
 50
161.294134617644
 51
198.705865382356
  0
ARC
  8
6
  6
CONTINUOUS
 62
6
 10
-0.278439189625254
 20
0.421428000250419
 30
0.0
 40
0.0223591435339135
 50
35.6800299999901
 51
155.613174782251
  0
LINE
  8
6
  6
CONTINUOUS
 62
6
 10
-0.254197150990295
 20
0.443787143784332
 30
0.0
 11
-0.254197150990295
 21
0.382987143808652
 31
0.0
  0
LINE
  8
6
  6
CONTINUOUS
 62
6
 10
-0.220192579575325
 20
0.382987143808652
 30
0.0
 11
-0.237991630361768
 21
0.420303629804814
 31
0.0
  0
LINE
  8
6
  6
CONTINUOUS
 62
6
 10
-0.252413515707521
 20
0.406061274694211
 30
0.0
 11
-0.220192579575325
 21
0.443787143784332
 31
0.0
  0
ARC
  8
6
  6
CONTINUOUS
 62
6
 10
-0.395824338406352
 20
-0.185402080085923
 30
0.0
 40
0.0223591391910564
 50
204.386837237011
 51
324.320000000005
  0
ARC
  8
6
  6
CONTINUOUS
 62
6
 10
-0.364884177415571
 20
-0.17726263115714
 30
0.0
 40
0.0541655474069066
 50
161.294134617644
 51
198.705865382356
  0
ARC
  8
6
  6
CONTINUOUS
 62
6
 10
-0.395824334063495
 20
-0.169123179749581
 30
0.0
 40
0.0223591435339133
 50
35.6800299999902
 51
155.613174782252
  0
LINE
  8
6
  6
CONTINUOUS
 62
6
 10
-0.371582295428536
 20
-0.146764036215668
 30
0.0
 11
-0.371582295428536
 21
-0.207564036191348
 31
0.0
  0
LINE
  8
6
  6
CONTINUOUS
 62
6
 10
-0.371582295428536
 20
-0.207564036191348
 30
0.0
 11
-0.335927438299941
 21
-0.207564036191348
 31
0.0
  0
LINE
  8
6
  6
CONTINUOUS
 62
6
 10
-0.325184583631656
 20
-0.207564040137332
 30
0.0
 11
-0.307813159137084
 21
-0.207564040137332
 31
0.0
  0
LINE
  8
6
  6
CONTINUOUS
 62
6
 10
-0.316498873419323
 20
-0.205740040161652
 30
0.0
 11
-0.316498873419323
 21
-0.148588040161652
 31
0.0
  0
LINE
  8
6
  6
CONTINUOUS
 62
6
 10
-0.325184583631656
 20
-0.146764040161652
 30
0.0
 11
-0.307904581158821
 21
-0.146764040161652
 31
0.0
  0
ARC
  8
6
  6
CONTINUOUS
 62
6
 10
-0.278439193968111
 20
-0.185402080085923
 30
0.0
 40
0.0223591391910567
 50
204.386837237011
 51
324.320000000005
  0
ARC
  8
6
  6
CONTINUOUS
 62
6
 10
-0.24749903297733
 20
-0.17726263115714
 30
0.0
 40
0.0541655474069066
 50
161.294134617644
 51
198.705865382356
  0
ARC
  8
6
  6
CONTINUOUS
 62
6
 10
-0.278439189625254
 20
-0.169123179749581
 30
0.0
 40
0.0223591435339135
 50
35.6800299999901
 51
155.613174782251
  0
LINE
  8
6
  6
CONTINUOUS
 62
6
 10
-0.254197150990295
 20
-0.146764036215668
 30
0.0
 11
-0.254197150990295
 21
-0.207564036191348
 31
0.0
  0
LINE
  8
6
  6
CONTINUOUS
 62
6
 10
-0.220192579575326
 20
-0.207564036191348
 30
0.0
 11
-0.237991630361768
 21
-0.170247550195186
 31
0.0
  0
LINE
  8
6
  6
CONTINUOUS
 62
6
 10
-0.252413515707521
 20
-0.184489905305789
 30
0.0
 11
-0.220192579575326
 21
-0.146764036215668
 31
0.0
  0
ARC
  8
6
  6
CONTINUOUS
 62
6
 10
-0.395824338406352
 20
-0.0579738528090913
 30
0.0
 40
0.0223591391910567
 50
204.386837237011
 51
324.320000000005
  0
ARC
  8
6
  6
CONTINUOUS
 62
6
 10
-0.36488417741557
 20
-0.0498344038803082
 30
0.0
 40
0.0541655474069069
 50
161.294134617644
 51
198.705865382356
  0
ARC
  8
6
  6
CONTINUOUS
 62
6
 10
-0.395824334063495
 20
-0.0416949524727488
 30
0.0
 40
0.0223591435339133
 50
35.68002999999
 51
155.613174782251
  0
LINE
  8
6
  6
CONTINUOUS
 62
6
 10
-0.371582295428536
 20
-0.0193358089388357
 30
0.0
 11
-0.371582295428536
 21
-0.0801358089145158
 31
0.0
  0
LINE
  8
6
  6
CONTINUOUS
 62
6
 10
-0.371582295428536
 20
-0.0801358089145158
 30
0.0
 11
-0.335927438299941
 21
-0.0801358089145158
 31
0.0
  0
LINE
  8
6
  6
CONTINUOUS
 62
6
 10
-0.325184583631656
 20
-0.0801358128605
 30
0.0
 11
-0.307813159137084
 21
-0.0801358128605
 31
0.0
  0
LINE
  8
6
  6
CONTINUOUS
 62
6
 10
-0.316498873419323
 20
-0.0783118128848198
 30
0.0
 11
-0.316498873419323
 21
-0.0211598128848198
 31
0.0
  0
LINE
  8
6
  6
CONTINUOUS
 62
6
 10
-0.325184583631656
 20
-0.0193358128848198
 30
0.0
 11
-0.307904581158821
 21
-0.0193358128848198
 31
0.0
  0
ARC
  8
6
  6
CONTINUOUS
 62
6
 10
-0.278439193968111
 20
-0.0579738528090914
 30
0.0
 40
0.0223591391910564
 50
204.386837237011
 51
324.320000000004
  0
ARC
  8
6
  6
CONTINUOUS
 62
6
 10
-0.24749903297733
 20
-0.0498344038803082
 30
0.0
 40
0.0541655474069069
 50
161.294134617644
 51
198.705865382356
  0
ARC
  8
6
  6
CONTINUOUS
 62
6
 10
-0.278439189625254
 20
-0.0416949524727488
 30
0.0
 40
0.0223591435339133
 50
35.68002999999
 51
155.613174782251
  0
LINE
  8
6
  6
CONTINUOUS
 62
6
 10
-0.254197150990296
 20
-0.0193358089388357
 30
0.0
 11
-0.254197150990296
 21
-0.0801358089145158
 31
0.0
  0
LINE
  8
6
  6
CONTINUOUS
 62
6
 10
-0.220192579575326
 20
-0.0801358089145158
 30
0.0
 11
-0.237991630361768
 21
-0.0428193229183545
 31
0.0
  0
LINE
  8
6
  6
CONTINUOUS
 62
6
 10
-0.252413515707522
 20
-0.0570616780289573
 30
0.0
 11
-0.220192579575326
 21
-0.0193358089388357
 31
0.0
  0
LINE
  8
6
  6
CONTINUOUS
 62
6
 10
-0.118358291867374
 20
-0.0801358046780941
 30
0.0
 11
-0.118358291867374
 21
-0.0211798975327578
 31
0.0
  0
LINE
  8
6
  6
CONTINUOUS
 62
6
 10
-0.137792581916742
 20
-0.0193358047024141
 30
0.0
 11
-0.098924010503719
 21
-0.0193358047024141
 31
0.0
  0
ARC
  8
6
  6
CONTINUOUS
 62
6
 10
-0.072433471077471
 20
-0.0621624013914944
 30
0.0
 40
0.0180905857687474
 50
196.004825930423
 51
267.948379947905
  0
ARC
  8
6
  6
CONTINUOUS
 62
6
 10
-0.0385184583762619
 20
-0.0497788612136582
 30
0.0
 40
0.0541655474069045
 50
161.294116943038
 51
198.705883056962
  0
ARC
  8
6
  6
CONTINUOUS
 62
6
 10
-0.0724334686836119
 20
-0.0374357479467456
 30
0.0
 40
0.0181017762195814
 50
16.128889375895
 51
163.872176621307
  0
ARC
  8
6
  6
CONTINUOUS
 62
6
 10
-0.106348462998871
 20
-0.0497788612154862
 30
0.0
 40
0.0541655474068987
 50
341.293755627024
 51
18.7062443729764
  0
ARC
  8
6
  6
CONTINUOUS
 62
6
 10
-0.0724334710774738
 20
-0.0621624013914921
 30
0.0
 40
0.0180905857687491
 50
272.763973435188
 51
343.994108060197
  0
LINE
  8
6
  6
CONTINUOUS
 62
6
 10
-0.0433240105037198
 20
-0.0801358089145158
 30
0.0
 11
-0.0433240105037198
 21
-0.0193358089388357
 31
0.0
  0
LINE
  8
6
  6
CONTINUOUS
 62
6
 10
-0.0433240105037198
 20
-0.0193358089388357
 30
0.0
 11
-0.0212622962268294
 21
-0.0193358089388344
 31
0.0
  0
ARC
  8
6
  6
CONTINUOUS
 62
6
 10
-0.0221656066339299
 20
-0.0345358089327548
 30
0.0
 40
0.0152268174451116
 50
273.400991681353
 51
86.5990083186456
  0
LINE
  8
6
  6
CONTINUOUS
 62
6
 10
-0.021262296226829
 20
-0.0497358089266751
 30
0.0
 11
-0.0424120105037193
 21
-0.0497358089266758
 31
0.0
  0
LINE
  8
6
  6
CONTINUOUS
 62
6
 10
-0.399615434773109
 20
-0.443784508191348
 30
0.0
 11
-0.399615434773109
 21
-0.384828601046011
 31
0.0
  0
LINE
  8
6
  6
CONTINUOUS
 62
6
 10
-0.419049724822477
 20
-0.382984508215668
 30
0.0
 11
-0.380181153409454
 21
-0.382984508215668
 31
0.0
  0
LINE
  8
6
  6
CONTINUOUS
 62
6
 10
-0.374101153409454
 20
-0.382984512452089
 30
0.0
 11
-0.354954670905003
 21
-0.411807174286744
 31
0.0
  0
LINE
  8
6
  6
CONTINUOUS
 62
6
 10
-0.353906867703246
 20
-0.44378451242777
 30
0.0
 11
-0.353906867703246
 21
-0.413384512439929
 31
0.0
  0
LINE
  8
6
  6
CONTINUOUS
 62
6
 10
-0.353906867703246
 20
-0.413384512439929
 30
0.0
 11
-0.333712581997038
 21
-0.382984512452089
 31
0.0
  0
LINE
  8
6
  6
CONTINUOUS
 62
6
 10
-0.326112581997039
 20
-0.443784512427769
 30
0.0
 11
-0.326112581997039
 21
-0.382984512452089
 31
0.0
  0
LINE
  8
6
  6
CONTINUOUS
 62
6
 10
-0.326112581997039
 20
-0.382984512452089
 30
0.0
 11
-0.304050867720149
 21
-0.382984512452088
 31
0.0
  0
ARC
  8
6
  6
CONTINUOUS
 62
6
 10
-0.304954178127249
 20
-0.398184512446008
 30
0.0
 40
0.0152268174451115
 50
273.400991681353
 51
86.5990083186456
  0
LINE
  8
6
  6
CONTINUOUS
 62
6
 10
-0.304050867720148
 20
-0.413384512439929
 30
0.0
 11
-0.325200581997039
 21
-0.413384512439929
 31
0.0
  0
LINE
  8
6
  6
CONTINUOUS
 62
6
 10
-0.24646115512418
 20
-0.443785145273273
 30
0.0
 11
-0.282116012252775
 21
-0.443785145273273
 31
0.0
  0
LINE
  8
6
  6
CONTINUOUS
 62
6
 10
-0.282116012252775
 20
-0.443785145273273
 30
0.0
 11
-0.282137726538481
 21
-0.413385145285433
 31
0.0
  0
LINE
  8
6
  6
CONTINUOUS
 62
6
 10
-0.282137726538481
 20
-0.413385145285433
 30
0.0
 11
-0.254278297978196
 21
-0.413385145285433
 31
0.0
  0
LINE
  8
6
  6
CONTINUOUS
 62
6
 10
-0.282139029028808
 20
-0.412473658827641
 30
0.0
 11
-0.282159440824187
 21
-0.382985145297593
 31
0.0
  0
LINE
  8
6
  6
CONTINUOUS
 62
6
 10
-0.282159440824187
 20
-0.382985145297593
 30
0.0
 11
-0.24950115512418
 21
-0.382985145297593
 31
0.0
  0
LINE
  8
6
  6
CONTINUOUS
 62
6
 10
-0.399615434773109
 20
-0.680004980191348
 30
0.0
 11
-0.399615434773109
 21
-0.621049073046011
 31
0.0
  0
LINE
  8
6
  6
CONTINUOUS
 62
6
 10
-0.419049724822477
 20
-0.619204980215668
 30
0.0
 11
-0.380181153409454
 21
-0.619204980215668
 31
0.0
  0
LINE
  8
6
  6
CONTINUOUS
 62
6
 10
-0.374101153409454
 20
-0.619204984452089
 30
0.0
 11
-0.354954670905003
 21
-0.648027646286744
 31
0.0
  0
LINE
  8
6
  6
CONTINUOUS
 62
6
 10
-0.353906867703246
 20
-0.680004984427769
 30
0.0
 11
-0.353906867703246
 21
-0.649604984439929
 31
0.0
  0
LINE
  8
6
  6
CONTINUOUS
 62
6
 10
-0.353906867703246
 20
-0.649604984439929
 30
0.0
 11
-0.333712581997038
 21
-0.619204984452089
 31
0.0
  0
LINE
  8
6
  6
CONTINUOUS
 62
6
 10
-0.326112581997039
 20
-0.680004984427769
 30
0.0
 11
-0.326112581997039
 21
-0.619204984452089
 31
0.0
  0
LINE
  8
6
  6
CONTINUOUS
 62
6
 10
-0.326112581997039
 20
-0.619204984452089
 30
0.0
 11
-0.304050867720149
 21
-0.619204984452088
 31
0.0
  0
ARC
  8
6
  6
CONTINUOUS
 62
6
 10
-0.304954178127249
 20
-0.634404984446008
 30
0.0
 40
0.0152268174451118
 50
273.400991681353
 51
86.5990083186456
  0
LINE
  8
6
  6
CONTINUOUS
 62
6
 10
-0.304050867720148
 20
-0.649604984439929
 30
0.0
 11
-0.325200581997039
 21
-0.649604984439929
 31
0.0
  0
LINE
  8
6
  6
CONTINUOUS
 62
6
 10
-0.24646115512418
 20
-0.680005617273273
 30
0.0
 11
-0.282116012252775
 21
-0.680005617273273
 31
0.0
  0
LINE
  8
6
  6
CONTINUOUS
 62
6
 10
-0.282116012252775
 20
-0.680005617273273
 30
0.0
 11
-0.282137726538481
 21
-0.649605617285433
 31
0.0
  0
LINE
  8
6
  6
CONTINUOUS
 62
6
 10
-0.282137726538481
 20
-0.649605617285433
 30
0.0
 11
-0.254278297978196
 21
-0.649605617285433
 31
0.0
  0
LINE
  8
6
  6
CONTINUOUS
 62
6
 10
-0.282139029028807
 20
-0.648694130827641
 30
0.0
 11
-0.282159440824187
 21
-0.619205617297594
 31
0.0
  0
LINE
  8
6
  6
CONTINUOUS
 62
6
 10
-0.282159440824187
 20
-0.619205617297594
 30
0.0
 11
-0.24950115512418
 21
-0.619205617297594
 31
0.0
  0
ARC
  8
6
  6
CONTINUOUS
 62
6
 10
0.0908282431933397
 20
-0.0621624013914945
 30
0.0
 40
0.0180905857687473
 50
196.004825930423
 51
267.948379947905
  0
ARC
  8
6
  6
CONTINUOUS
 62
6
 10
0.124743255894549
 20
-0.0497788612136582
 30
0.0
 40
0.0541655474069043
 50
161.294116943038
 51
198.705883056962
  0
ARC
  8
6
  6
CONTINUOUS
 62
6
 10
0.0908282455871989
 20
-0.0374357479467456
 30
0.0
 40
0.0181017762195813
 50
16.1288893758952
 51
163.872176621307
  0
ARC
  8
6
  6
CONTINUOUS
 62
6
 10
0.0569132512719399
 20
-0.0497788612154862
 30
0.0
 40
0.0541655474068986
 50
341.293755627024
 51
18.7062443729764
  0
ARC
  8
6
  6
CONTINUOUS
 62
6
 10
0.0908282431933369
 20
-0.0621624013914919
 30
0.0
 40
0.0180905857687493
 50
272.763973435188
 51
343.994108060197
  0
LINE
  8
6
  6
CONTINUOUS
 62
6
 10
0.149301719050581
 20
-0.0497344432611205
 30
0.0
 11
0.123279319050581
 21
-0.0497344432611205
 31
0.0
  0
LINE
  8
6
  6
CONTINUOUS
 62
6
 10
0.121464004776002
 20
-0.0801344432489607
 30
0.0
 11
0.121464004776002
 21
-0.0193344432732806
 31
0.0
  0
LINE
  8
6
  6
CONTINUOUS
 62
6
 10
0.121464004776002
 20
-0.0193344432732806
 30
0.0
 11
0.1540788619046
 21
-0.0193344432732806
 31
0.0
  0
ARC
  8
6
  6
CONTINUOUS
 62
6
 10
0.247101118229812
 20
-0.0391012863440645
 30
0.0
 40
0.0199836559080138
 50
48.9416968664118
 51
146.027978045882
  0
ARC
  8
6
  6
CONTINUOUS
 62
6
 10
0.251169759604597
 20
-0.0343838135478628
 30
0.0
 40
0.0137541271569777
 50
1.31476553178229E-6
 51
48.8140713147687
  0
ARC
  8
6
  6
CONTINUOUS
 62
6
 10
0.249741529624788
 20
-0.0343838132322434
 30
0.0
 40
0.0151823571367868
 50
279.088113900688
 51
359.999999999986
  0
ARC
  8
6
  6
CONTINUOUS
 62
6
 10
0.250576956504382
 20
-0.0645342019891679
 30
0.0
 40
0.0152389557338835
 50
19.4344258931598
 51
84.1142708141182
  0
ARC
  8
6
  6
CONTINUOUS
 62
6
 10
0.251490102245412
 20
-0.0643161593996056
 30
0.0
 40
0.0143056266629278
 50
307.790503302608
 51
19.8277712840456
  0
ARC
  8
6
  6
CONTINUOUS
 62
6
 10
0.247325372646631
 20
-0.0578717279776637
 30
0.0
 40
0.0219602814928684
 50
216.48300623395
 51
306.074034537004
  0
LINE
  8
6
  6
CONTINUOUS
 62
6
 10
0.279655993320958
 20
-0.0801358177649605
 30
0.0
 11
0.279655993320958
 21
-0.0193358177892805
 31
0.0
  0
LINE
  8
6
  6
CONTINUOUS
 62
6
 10
0.279655993320958
 20
-0.0193358177892805
 30
0.0
 11
0.296614876165504
 21
-0.0193358185642117
 31
0.0
  0
ARC
  8
6
  6
CONTINUOUS
 62
6
 10
0.294517458915013
 20
-0.0415963697803767
 30
0.0
 40
0.0223591435339139
 50
24.3863827720534
 51
84.6174099999934
  0
ARC
  8
6
  6
CONTINUOUS
 62
6
 10
0.263577320941057
 20
-0.0497358184725126
 30
0.0
 40
0.0541655474069042
 50
341.294313270191
 51
18.7056867298093
  0
ARC
  8
6
  6
CONTINUOUS
 62
6
 10
0.294517463257869
 20
-0.0578752657738671
 30
0.0
 40
0.0223591391910603
 50
275.382450717138
 51
335.613608269933
  0
LINE
  8
6
  6
CONTINUOUS
 62
6
 10
0.296614825986811
 20
-0.0801358177649669
 30
0.0
 11
0.281175993320959
 21
-0.0801358177649605
 31
0.0
  0
LINE
  8
6
  6
CONTINUOUS
 62
6
 10
0.405336582070144
 20
-0.0496601898375237
 30
0.0
 11
0.427294531579558
 21
-0.0496601898375237
 31
0.0
  0
ARC
  8
6
  6
CONTINUOUS
 62
6
 10
0.427289724917106
 20
-0.0648601890714437
 30
0.0
 40
0.0151999999939201
 50
270.000000002515
 51
89.9818814817919
  0
LINE
  8
6
  6
CONTINUOUS
 62
6
 10
0.427289724917773
 20
-0.0800601890653638
 30
0.0
 11
0.403512582070143
 21
-0.0800601890653638
 31
0.0
  0
LINE
  8
6
  6
CONTINUOUS
 62
6
 10
0.403512582070143
 20
-0.0800601890653638
 30
0.0
 11
0.403512582070143
 21
-0.0193358089388358
 31
0.0
  0
LINE
  8
6
  6
CONTINUOUS
 62
6
 10
0.403512582070143
 20
-0.0193358089388358
 30
0.0
 11
0.424575439204577
 21
-0.0193358089388358
 31
0.0
  0
ARC
  8
6
  6
CONTINUOUS
 62
6
 10
0.424453978274219
 20
-0.0345967331442873
 30
0.0
 40
0.0152614075485237
 50
296.191824756095
 51
89.5439953928137
  0
ARC
  8
6
  6
CONTINUOUS
 62
6
 10
0.468980264337273
 20
-0.0621624013914945
 30
0.0
 40
0.0180905857687473
 50
196.004825930423
 51
267.948379947905
  0
ARC
  8
6
  6
CONTINUOUS
 62
6
 10
0.502895277038482
 20
-0.0497788612136582
 30
0.0
 40
0.0541655474069043
 50
161.294116943038
 51
198.705883056962
  0
ARC
  8
6
  6
CONTINUOUS
 62
6
 10
0.468980266731132
 20
-0.0374357479467456
 30
0.0
 40
0.0181017762195812
 50
16.1288893758952
 51
163.872176621307
  0
ARC
  8
6
  6
CONTINUOUS
 62
6
 10
0.435065272415873
 20
-0.0497788612154862
 30
0.0
 40
0.0541655474068986
 50
341.293755627024
 51
18.7062443729764
  0
ARC
  8
6
  6
CONTINUOUS
 62
6
 10
0.46898026433727
 20
-0.0621624013914918
 30
0.0
 40
0.0180905857687495
 50
272.763973435188
 51
343.994108060197
  0
LINE
  8
6
  6
CONTINUOUS
 62
6
 10
0.496569724911025
 20
-0.0193358089388358
 30
0.0
 11
0.534352582038769
 21
-0.0801358089145158
 31
0.0
  0
LINE
  8
6
  6
CONTINUOUS
 62
6
 10
0.493964010626353
 20
-0.0801358089145158
 30
0.0
 11
0.531746867754097
 21
-0.0193358089388358
 31
0.0
  0
LINE
  8
6
  6
CONTINUOUS
 62
6
 10
-0.0429946009547929
 20
0.619207615808652
 30
0.0
 11
-0.0429946009547929
 21
0.678163540180168
 31
0.0
  0
LINE
  8
6
  6
CONTINUOUS
 62
6
 10
-0.0624288966826182
 20
0.680007633549332
 30
0.0
 11
-0.0235603139126838
 21
0.680007633549332
 31
0.0
  0
LINE
  8
6
  6
CONTINUOUS
 62
6
 10
-0.0174803121361838
 20
0.680007629312909
 30
0.0
 11
-0.0174803121361838
 21
0.619207611572229
 31
0.0
  0
LINE
  8
6
  6
CONTINUOUS
 62
6
 10
-0.0156563116032338
 20
0.649607620442569
 30
0.0
 11
0.0175404980964562
 21
0.649607620442569
 31
0.0
  0
LINE
  8
6
  6
CONTINUOUS
 62
6
 10
0.0194339843492291
 20
0.619207611572229
 30
0.0
 11
0.0194339843492291
 21
0.680007629312909
 31
0.0
  0
LINE
  8
6
  6
CONTINUOUS
 62
6
 10
0.0618237093370213
 20
0.619206978726541
 30
0.0
 11
0.0261688417905232
 21
0.619206978726541
 31
0.0
  0
LINE
  8
6
  6
CONTINUOUS
 62
6
 10
0.0261688417905232
 20
0.619206978726541
 30
0.0
 11
0.0261471274984723
 21
0.649606987596881
 31
0.0
  0
LINE
  8
6
  6
CONTINUOUS
 62
6
 10
0.0261471274984723
 20
0.649606987596881
 30
0.0
 11
0.0540065641989338
 21
0.649606987596881
 31
0.0
  0
LINE
  8
6
  6
CONTINUOUS
 62
6
 10
0.0261458250077653
 20
0.650518474320997
 30
0.0
 11
0.026125413206422
 21
0.68000699646722
 31
0.0
  0
LINE
  8
6
  6
CONTINUOUS
 62
6
 10
0.026125413206422
 20
0.68000699646722
 30
0.0
 11
0.0587837084487713
 21
0.68000699646722
 31
0.0
  0
LINE
  8
6
  6
CONTINUOUS
 62
6
 10
0.0656637104590213
 20
0.619207611547909
 30
0.0
 11
0.0656637174756557
 21
0.680007621860612
 31
0.0
  0
LINE
  8
6
  6
CONTINUOUS
 62
6
 10
0.0656637174756557
 20
0.680007621860612
 30
0.0
 11
0.102997823607373
 21
0.619207604119932
 31
0.0
  0
LINE
  8
6
  6
CONTINUOUS
 62
6
 10
0.102997823607373
 20
0.619207604119932
 30
0.0
 11
0.102997823607373
 21
0.680007621860612
 31
0.0
  0
LINE
  8
9
  6
CONTINUOUS
 62
9
 10
-0.143712579575325
 20
-0.146764036215668
 30
0.0
 11
-0.143712579575325
 21
-0.207564036191348
 31
0.0
  0
LINE
  8
9
  6
CONTINUOUS
 62
9
 10
-0.141888579575325
 20
-0.177164036203508
 30
0.0
 11
-0.108691779575326
 21
-0.177164036203508
 31
0.0
  0
LINE
  8
9
  6
CONTINUOUS
 62
9
 10
-0.106798293875805
 20
-0.207564036191348
 30
0.0
 11
-0.106798293875805
 21
-0.146764036215668
 31
0.0
  0
LINE
  8
9
  6
CONTINUOUS
 62
9
 10
-0.0644085812737574
 20
-0.207564669036852
 30
0.0
 11
-0.100063438402352
 21
-0.207564669036852
 31
0.0
  0
LINE
  8
9
  6
CONTINUOUS
 62
9
 10
-0.100063438402352
 20
-0.207564669036852
 30
0.0
 11
-0.100085152688058
 21
-0.177164669049012
 31
0.0
  0
LINE
  8
9
  6
CONTINUOUS
 62
9
 10
-0.100085152688058
 20
-0.177164669049012
 30
0.0
 11
-0.0722257241277733
 21
-0.177164669049012
 31
0.0
  0
LINE
  8
9
  6
CONTINUOUS
 62
9
 10
-0.100086455178384
 20
-0.17625318259122
 30
0.0
 11
-0.100106866973764
 21
-0.146764669061172
 31
0.0
  0
LINE
  8
9
  6
CONTINUOUS
 62
9
 10
-0.100106866973764
 20
-0.146764669061172
 30
0.0
 11
-0.0674485812737573
 21
-0.146764669061172
 31
0.0
  0
LINE
  8
9
  6
CONTINUOUS
 62
9
 10
-0.0583285812737571
 20
-0.207564036191348
 30
0.0
 11
-0.0583285812737571
 21
-0.146764036215668
 31
0.0
  0
LINE
  8
9
  6
CONTINUOUS
 62
9
 10
-0.0583285812737571
 20
-0.146764036215668
 30
0.0
 11
-0.0362668669968649
 21
-0.146764036215667
 31
0.0
  0
ARC
  8
9
  6
CONTINUOUS
 62
9
 10
-0.0365598053079245
 20
-0.161964013707742
 30
0.0
 40
0.0152028000254448
 50
271.095264000542
 51
88.8959160393192
  0
LINE
  8
9
  6
CONTINUOUS
 62
9
 10
-0.0362692068444952
 20
-0.177164036113867
 30
0.0
 11
-0.0563332068444957
 21
-0.177164036113867
 31
0.0
  0
LINE
  8
9
  6
CONTINUOUS
 62
9
 10
-0.0354029793125918
 20
-0.178896234604308
 30
0.0
 11
-0.021066867002947
 21
-0.207564036191348
 31
0.0
  0
LINE
  8
9
  6
CONTINUOUS
 62
9
 10
0.0213228455991006
 20
-0.207564669036852
 30
0.0
 11
-0.0143320115294943
 21
-0.207564669036852
 31
0.0
  0
LINE
  8
9
  6
CONTINUOUS
 62
9
 10
-0.0143320115294943
 20
-0.207564669036852
 30
0.0
 11
-0.0143537258152002
 21
-0.177164669049012
 31
0.0
  0
LINE
  8
9
  6
CONTINUOUS
 62
9
 10
-0.0143537258152002
 20
-0.177164669049012
 30
0.0
 11
0.0135057027450842
 21
-0.177164669049012
 31
0.0
  0
LINE
  8
9
  6
CONTINUOUS
 62
9
 10
-0.0143550283055269
 20
-0.17625318259122
 30
0.0
 11
-0.0143754401009057
 21
-0.146764669061172
 31
0.0
  0
LINE
  8
9
  6
CONTINUOUS
 62
9
 10
-0.0143754401009057
 20
-0.146764669061172
 30
0.0
 11
0.0182828455991006
 21
-0.146764669061172
 31
0.0
  0
LINE
  8
9
  6
CONTINUOUS
 62
9
 10
0.065688562490504
 20
-0.177164669049012
 30
0.0
 11
0.840033347985063
 21
-0.5202006097193
 31
0.0
  0
LINE
  8
9
  6
CONTINUOUS
 62
9
 10
0.840033347985063
 20
-0.5202006097193
 30
0.0
 11
0.814474357767525
 21
-0.485158943413007
 31
0.0
  0
LINE
  8
9
  6
CONTINUOUS
 62
9
 10
0.840033347985063
 20
-0.5202006097193
 30
0.0
 11
0.796906879664106
 21
-0.524814511389619
 31
0.0
  0
ARC
  8
9
  6
CONTINUOUS
 62
9
 10
-0.787401575103522
 20
-0.787401575042076
 30
0.0
 40
0.19685039339648
 50
359.999999904796
 51
90.0000000824285
  0
ARC
  8
9
  6
CONTINUOUS
 62
9
 10
-0.787401575103521
 20
0.787401575042078
 30
0.0
 40
0.19685039339648
 50
269.999999917571
 51
315.760832061112
  0
ARC
  8
9
  6
CONTINUOUS
 62
9
 10
-0.787401575043686
 20
0.787401575103523
 30
0.0
 40
0.196850393396479
 50
315.760832036149
 51
8.24288326799305E-8
  0
ARC
  8
9
  6
CONTINUOUS
 62
9
 10
0.787401575103523
 20
0.787401575042076
 30
0.0
 40
0.19685039339648
 50
224.239167938887
 51
270.000000082428
  0
ARC
  8
9
  6
CONTINUOUS
 62
9
 10
0.787401575043686
 20
0.78740157510352
 30
0.0
 40
0.196850393396479
 50
179.999999917571
 51
224.23916796385
  0
LINE
  8
9
  6
CONTINUOUS
 62
9
 10
-0.866141732500001
 20
0.511811024645598
 30
0.0
 11
-0.866141732500001
 21
-0.511811024645598
 31
0.0
  0
LINE
  8
9
  6
CONTINUOUS
 62
9
 10
0.511811024647208
 20
0.866141732500001
 30
0.0
 11
-0.511811024647208
 21
0.866141732500001
 31
0.0
  0
ARC
  8
9
  6
CONTINUOUS
 62
9
 10
0.7874015755
 20
0.511811024645598
 30
0.0
 40
0.078740157
 50
359.999999999999
 51
90.0000000824285
  0
ARC
  8
9
  6
CONTINUOUS
 62
9
 10
0.511811024647207
 20
0.787401575500002
 30
0.0
 40
0.078740157
 50
359.999999917571
 51
89.9999999999997
  0
ARC
  8
9
  6
CONTINUOUS
 62
9
 10
-0.511811024647207
 20
0.787401575500001
 30
0.0
 40
0.078740157
 50
89.9999999999998
 51
180.000000082429
  0
ARC
  8
9
  6
CONTINUOUS
 62
9
 10
-0.787401575500001
 20
0.511811024645598
 30
0.0
 40
0.078740157
 50
89.9999999175711
 51
180
  0
ARC
  8
9
  6
CONTINUOUS
 62
9
 10
-0.787401575500001
 20
-0.511811024645598
 30
0.0
 40
0.078740157
 50
180
 51
270.000000082429
  0
ARC
  8
9
  6
CONTINUOUS
 62
9
 10
-0.511811024707042
 20
-0.787401575500002
 30
0.0
 40
0.078740157
 50
179.999999904796
 51
269.999999999999
  0
ARC
  8
9
  6
CONTINUOUS
 62
9
 10
0.787401575103521
 20
-0.78740157504208
 30
0.0
 40
0.19685039339648
 50
89.9999999175711
 51
135.760832061112
  0
ARC
  8
9
  6
CONTINUOUS
 62
9
 10
0.787401575043686
 20
-0.787401575103525
 30
0.0
 40
0.196850393396479
 50
135.760832036149
 51
180.000000082428
  0
ARC
  8
9
  6
CONTINUOUS
 62
9
 10
0.787401575500002
 20
-0.5118110246456
 30
0.0
 40
0.078740157
 50
269.999999917571
 51
359.999999999999
  0
ARC
  8
9
  6
CONTINUOUS
 62
9
 10
0.511811024647208
 20
-0.787401575500003
 30
0.0
 40
0.078740157
 50
269.999999999999
 51
8.24285209855717E-8
  0
LINE
  8
9
  6
CONTINUOUS
 62
9
 10
0.511811024647207
 20
-0.866141732500001
 30
0.0
 11
-0.511811024707042
 21
-0.866141732500001
 31
0.0
  0
LINE
  8
9
  6
CONTINUOUS
 62
9
 10
0.866141732500001
 20
-0.5118110246456
 30
0.0
 11
0.866141732500001
 21
0.511811024645598
 31
0.0
  0
ENDSEC
  0
EOF
