  0
SECTION
  2
HEADER
  9
$ACADVER
  1
AC1003
  9
$EXTMIN
 10
-5.00000000958067E-7
 20
0.99999850000451
  9
$EXTMAX
 10
9.75444548244956
 20
-0.501655633160081
  9
$INSUNITS
 70
1
  9
$INSBASE
 10
4.87722249122478
 20
0.249171433422214
999
Created with OMAX LAYOUT for Windows. (www.omax.com) 1/5/2024
  0
ENDSEC
  0
SECTION
  2
TABLES
  0
TABLE
  2
LAYER
 70
    10
  0
LAYER
  2
0
 70
     0
 62
     7
  6
CONTINUOUS
  0
LAYER
  2
1
 70
     0
 62
     7
  6
CONTINUOUS
  0
LAYER
  2
2
 70
     0
 62
     7
  6
CONTINUOUS
  0
LAYER
  2
3
 70
     0
 62
     7
  6
CONTINUOUS
  0
LAYER
  2
4
 70
     0
 62
     7
  6
CONTINUOUS
  0
LAYER
  2
5
 70
     0
 62
     7
  6
CONTINUOUS
  0
LAYER
  2
6
 70
     0
 62
     7
  6
CONTINUOUS
  0
LAYER
  2
7
 70
     0
 62
     7
  6
CONTINUOUS
  0
LAYER
  2
8
 70
     0
 62
     7
  6
CONTINUOUS
  0
LAYER
  2
9
 70
     0
 62
     7
  6
CONTINUOUS
  0
LAYER
  2
10
 70
     0
 62
     7
  6
CONTINUOUS
  0
LAYER
  2
11
 70
     0
 62
     7
  6
CONTINUOUS
  0
LAYER
  2
12
 70
     0
 62
     7
  6
CONTINUOUS
  0
LAYER
  2
13
 70
     0
 62
     7
  6
CONTINUOUS
  0
LAYER
  2
14
 70
     0
 62
     7
  6
CONTINUOUS
  0
LAYER
  2
15
 70
     0
 62
     7
  6
CONTINUOUS
  0
LAYER
  2
16
 70
     0
 62
     7
  6
CONTINUOUS
  0
LAYER
  2
17
 70
     0
 62
     7
  6
CONTINUOUS
  0
LAYER
  2
18
 70
     0
 62
     7
  6
CONTINUOUS
  0
LAYER
  2
19
 70
     0
 62
     7
  6
CONTINUOUS
  0
LAYER
  2
20
 70
     0
 62
     7
  6
CONTINUOUS
  0
LAYER
  2
21
 70
     0
 62
     7
  6
CONTINUOUS
  0
LAYER
  2
22
 70
     0
 62
     7
  6
CONTINUOUS
  0
LAYER
  2
23
 70
     0
 62
     7
  6
CONTINUOUS
  0
LAYER
  2
24
 70
     0
 62
     7
  6
CONTINUOUS
  0
LAYER
  2
25
 70
     0
 62
     7
  6
CONTINUOUS
  0
LAYER
  2
26
 70
     0
 62
     7
  6
CONTINUOUS
  0
LAYER
  2
27
 70
     0
 62
     7
  6
CONTINUOUS
  0
LAYER
  2
28
 70
     0
 62
     7
  6
CONTINUOUS
  0
LAYER
  2
29
 70
     0
 62
     7
  6
CONTINUOUS
  0
LAYER
  2
30
 70
     0
 62
     7
  6
CONTINUOUS
  0
LAYER
  2
31
 70
     0
 62
     7
  6
CONTINUOUS
  0
ENDTAB
  0
ENDSEC
  0
SECTION
  2
ENTITIES
  0
LINE
  8
1
  6
CONTINUOUS
 62
1
 10
1.7376905
 20
0.139670332390153
 30
0.0
 11
1.7376905
 21
0.999998500000002
 31
0.0
  0
LINE
  8
1
  6
CONTINUOUS
 62
1
 10
1.7376905
 20
0.999998500000002
 30
0.0
 11
1.8686915
 21
0.999998500000002
 31
0.0
  0
LINE
  8
1
  6
CONTINUOUS
 62
1
 10
1.8686915
 20
0.999998500000002
 30
0.0
 11
1.8686915
 21
-8.1499999997181E-5
 31
0.0
  0
LINE
  8
1
  6
CONTINUOUS
 62
1
 10
1.8686915
 20
-8.1499999997181E-5
 30
0.0
 11
1.6547015
 21
-8.1499999997181E-5
 31
0.0
  0
LINE
  8
1
  6
CONTINUOUS
 62
1
 10
1.6547015
 20
-8.1499999997181E-5
 30
0.0
 11
1.3926715
 21
0.838408500000003
 31
0.0
  0
LINE
  8
1
  6
CONTINUOUS
 62
1
 10
1.3926715
 20
0.838408500000003
 30
0.0
 11
1.3926715
 21
-8.1499999997181E-5
 31
0.0
  0
LINE
  8
1
  6
CONTINUOUS
 62
1
 10
1.3926715
 20
-8.1499999997181E-5
 30
0.0
 11
1.2616615
 21
-8.1499999997181E-5
 31
0.0
  0
LINE
  8
1
  6
CONTINUOUS
 62
1
 10
1.2616615
 20
-8.1499999997181E-5
 30
0.0
 11
1.2616615
 21
0.999998500000002
 31
0.0
  0
LINE
  8
1
  6
CONTINUOUS
 62
1
 10
1.2616615
 20
0.999998500000002
 30
0.0
 11
1.4756515
 21
0.999998500000002
 31
0.0
  0
LINE
  8
1
  6
CONTINUOUS
 62
1
 10
1.4756515
 20
0.999998500000002
 30
0.0
 11
1.7376905
 21
0.139670332390153
 31
0.0
  0
LINE
  8
1
  6
CONTINUOUS
 62
1
 10
0.1275475
 20
0.7399285
 30
0.0
 11
0.1275475
 21
0.2694885
 31
0.0
  0
ARC
  8
1
  6
CONTINUOUS
 62
1
 10
0.2694925
 20
0.269488499999997
 30
0.0
 40
0.141945
 50
179.999999999997
 51
359.999999999997
  0
LINE
  8
1
  6
CONTINUOUS
 62
1
 10
0.4114375
 20
0.2694885
 30
0.0
 11
0.5389765
 21
0.2694885
 31
0.0
  0
ARC
  8
1
  6
CONTINUOUS
 62
1
 10
0.269488000000001
 20
0.269488499999992
 30
0.0
 40
0.269488500000001
 50
179.999999999998
 51
269.999999999997
  0
LINE
  8
1
  6
CONTINUOUS
 62
1
 10
-4.99999999847844E-7
 20
0.2694885
 30
0.0
 11
4.99999999847844E-7
 21
0.730508500000001
 31
0.0
  0
ARC
  8
1
  6
CONTINUOUS
 62
1
 10
0.2694895
 20
0.730508500000005
 30
0.0
 40
0.269489
 50
359.999999999997
 51
180
  0
LINE
  8
1
  6
CONTINUOUS
 62
1
 10
0.5389785
 20
0.730508500000001
 30
0.0
 11
0.4114375
 21
0.730508500000001
 31
0.0
  0
ARC
  8
1
  6
CONTINUOUS
 62
1
 10
0.2694925
 20
0.730508500000006
 30
0.0
 40
0.141945
 50
359.999999999997
 51
180
  0
LINE
  8
1
  6
CONTINUOUS
 62
1
 10
1.0408785
 20
0.499998500000002
 30
0.0
 11
1.0408785
 21
0.730508500000003
 31
0.0
  0
ARC
  8
1
  6
CONTINUOUS
 62
1
 10
0.898934
 20
0.730508500000007
 30
0.0
 40
0.1419445
 50
359.999999999997
 51
180
  0
LINE
  8
1
  6
CONTINUOUS
 62
1
 10
0.7569895
 20
0.730508500000003
 30
0.0
 11
0.7569895
 21
0.269488500000004
 31
0.0
  0
ARC
  8
1
  6
CONTINUOUS
 62
1
 10
0.898935577196513
 20
0.269486796014161
 30
0.0
 40
0.141946077206741
 50
179.999312195171
 51
255.521838354124
  0
LINE
  8
1
  6
CONTINUOUS
 62
1
 10
0.8634475
 20
0.132048500000002
 30
0.0
 11
0.8634475
 21
0.00233850000000269
 31
0.0
  0
ARC
  8
1
  6
CONTINUOUS
 62
1
 10
0.898934414514865
 20
0.269484733149783
 30
0.0
 40
0.26949291454119
 50
179.999199145475
 51
262.433297341486
  0
LINE
  8
1
  6
CONTINUOUS
 62
1
 10
0.6294415
 20
0.269488500000004
 30
0.0
 11
0.6294405
 21
0.730508500000003
 31
0.0
  0
ARC
  8
1
  6
CONTINUOUS
 62
1
 10
0.89893
 20
0.730508500000007
 30
0.0
 40
0.2694895
 50
359.999999999997
 51
180
  0
LINE
  8
1
  6
CONTINUOUS
 62
1
 10
1.1684195
 20
0.730508500000003
 30
0.0
 11
1.1684195
 21
0.269488500000004
 31
0.0
  0
ARC
  8
1
  6
CONTINUOUS
 62
1
 10
0.898926042279663
 20
0.269484279010306
 30
0.0
 40
0.269493457753397
 50
277.568305134343
 51
0.000897405440123873
  0
LINE
  8
1
  6
CONTINUOUS
 62
1
 10
0.9344205
 20
0.00233850000000269
 30
0.0
 11
0.9344205
 21
0.132048500000002
 31
0.0
  0
ARC
  8
1
  6
CONTINUOUS
 62
1
 10
0.898932086867021
 20
0.269486023438578
 30
0.0
 40
0.141945413154587
 50
284.478370904534
 51
0.000999655530671451
  0
LINE
  8
1
  6
CONTINUOUS
 62
1
 10
1.0408775
 20
0.269488500000004
 30
0.0
 11
1.0408785
 21
0.499998500000002
 31
0.0
  0
ARC
  8
1
  6
CONTINUOUS
 62
1
 10
0.269488000000011
 20
0.269488499999998
 30
0.0
 40
0.269488499999998
 50
269.999999999997
 51
359.999999999999
  0
LINE
  8
2
  6
CONTINUOUS
 62
2
 10
2.27261358296253
 20
0.152776558468033
 30
0.0
 11
2.43201350000001
 21
0.999998500000002
 31
0.0
  0
LINE
  8
2
  6
CONTINUOUS
 62
2
 10
2.43201350000001
 20
0.999998500000002
 30
0.0
 11
2.56739950000001
 21
0.999998500000002
 31
0.0
  0
LINE
  8
2
  6
CONTINUOUS
 62
2
 10
2.56739950000001
 20
0.999998500000002
 30
0.0
 11
2.3490385
 21
-8.1499999997181E-5
 31
0.0
  0
LINE
  8
2
  6
CONTINUOUS
 62
2
 10
2.3490385
 20
-8.1499999997181E-5
 30
0.0
 11
2.17872150000001
 21
-8.1499999997181E-5
 31
0.0
  0
LINE
  8
2
  6
CONTINUOUS
 62
2
 10
2.17872150000001
 20
-8.1499999997181E-5
 30
0.0
 11
1.9647285
 21
0.999998500000002
 31
0.0
  0
LINE
  8
2
  6
CONTINUOUS
 62
2
 10
1.9647285
 20
0.999998500000002
 30
0.0
 11
2.10884850000001
 21
0.999998500000002
 31
0.0
  0
LINE
  8
2
  6
CONTINUOUS
 62
2
 10
2.10884850000001
 20
0.999998500000002
 30
0.0
 11
2.27261358296253
 21
0.152776558468033
 31
0.0
  0
LINE
  8
2
  6
CONTINUOUS
 62
2
 10
2.7988165
 20
0.886448500000002
 30
0.0
 11
2.7988165
 21
0.567648500000003
 31
0.0
  0
LINE
  8
2
  6
CONTINUOUS
 62
2
 10
2.7988165
 20
0.567648500000003
 30
0.0
 11
3.0957815
 21
0.567648500000003
 31
0.0
  0
LINE
  8
2
  6
CONTINUOUS
 62
2
 10
3.0957815
 20
0.567648500000003
 30
0.0
 11
3.0957815
 21
0.454108500000002
 31
0.0
  0
LINE
  8
2
  6
CONTINUOUS
 62
2
 10
3.0957815
 20
0.454108500000002
 30
0.0
 11
2.7988165
 21
0.454108500000002
 31
0.0
  0
LINE
  8
2
  6
CONTINUOUS
 62
2
 10
2.7988165
 20
0.454108500000002
 30
0.0
 11
2.7988165
 21
0.113468500000003
 31
0.0
  0
LINE
  8
2
  6
CONTINUOUS
 62
2
 10
2.7988165
 20
0.113468500000003
 30
0.0
 11
3.12198550000001
 21
0.113468500000003
 31
0.0
  0
LINE
  8
2
  6
CONTINUOUS
 62
2
 10
3.12198550000001
 20
0.113468500000003
 30
0.0
 11
3.12198550000001
 21
-8.1499999997181E-5
 31
0.0
  0
LINE
  8
2
  6
CONTINUOUS
 62
2
 10
3.12198550000001
 20
-8.1499999997181E-5
 30
0.0
 11
2.66343250000002
 21
-8.1499999997181E-5
 31
0.0
  0
LINE
  8
2
  6
CONTINUOUS
 62
2
 10
2.66343250000002
 20
-8.1499999997181E-5
 30
0.0
 11
2.66343250000002
 21
0.999998500000002
 31
0.0
  0
LINE
  8
2
  6
CONTINUOUS
 62
2
 10
2.66343250000002
 20
0.999998500000002
 30
0.0
 11
3.11324950000001
 21
0.999998500000002
 31
0.0
  0
LINE
  8
2
  6
CONTINUOUS
 62
2
 10
3.11324950000001
 20
0.999998500000002
 30
0.0
 11
3.11324950000001
 21
0.886448500000002
 31
0.0
  0
LINE
  8
2
  6
CONTINUOUS
 62
2
 10
3.11324950000001
 20
0.886448500000002
 30
0.0
 11
2.7988165
 21
0.886448500000002
 31
0.0
  0
LINE
  8
2
  6
CONTINUOUS
 62
2
 10
3.34466650000001
 20
0.880998500000003
 30
0.0
 11
3.34466650000001
 21
0.678998500000003
 31
0.0
  0
LINE
  8
2
  6
CONTINUOUS
 62
2
 10
3.34466650000001
 20
0.678998500000003
 30
0.0
 11
3.20928450000001
 21
0.678998500000003
 31
0.0
  0
LINE
  8
2
  6
CONTINUOUS
 62
2
 10
3.20928450000001
 20
0.678998500000003
 30
0.0
 11
3.20928450000001
 21
0.999998500000002
 31
0.0
  0
LINE
  8
2
  6
CONTINUOUS
 62
2
 10
3.20928450000001
 20
0.999998500000002
 30
0.0
 11
3.49304150000001
 21
0.999998500000002
 31
0.0
  0
ARC
  8
2
  6
CONTINUOUS
 62
2
 10
3.4930430871261
 20
0.720510580004365
 30
0.0
 40
0.279487920000147
 50
302.855260347105
 51
90.0003253651402
  0
ARC
  8
2
  6
CONTINUOUS
 62
2
 10
3.46147275419901
 20
0.296969338003372
 30
0.0
 40
0.263042649211563
 50
8.61652018159699
 51
45.8566098051228
  0
LINE
  8
2
  6
CONTINUOUS
 62
2
 10
3.72154650000001
 20
0.336378500000003
 30
0.0
 11
3.77253450000001
 21
-8.1499999997181E-5
 31
0.0
  0
LINE
  8
2
  6
CONTINUOUS
 62
2
 10
3.77253450000001
 20
-8.1499999997181E-5
 30
0.0
 11
3.65354550000001
 21
-8.1499999997181E-5
 31
0.0
  0
LINE
  8
2
  6
CONTINUOUS
 62
2
 10
3.65354550000001
 20
-8.1499999997181E-5
 30
0.0
 11
3.60381250000001
 21
0.319138499999993
 31
0.0
  0
ARC
  8
2
  6
CONTINUOUS
 62
2
 10
3.46148302082692
 20
0.296961658444988
 30
0.0
 40
0.144046842877719
 50
8.85623894301896
 51
90.0077645644686
  0
LINE
  8
2
  6
CONTINUOUS
 62
2
 10
3.46146350000001
 20
0.441008500000003
 30
0.0
 11
3.34466650000001
 21
0.440998500000003
 31
0.0
  0
LINE
  8
2
  6
CONTINUOUS
 62
2
 10
3.34466650000001
 20
0.440998500000003
 30
0.0
 11
3.34466650000001
 21
-8.1499999997181E-5
 31
0.0
  0
LINE
  8
2
  6
CONTINUOUS
 62
2
 10
3.34466650000001
 20
-8.1499999997181E-5
 30
0.0
 11
3.20928450000001
 21
-8.1499999997181E-5
 31
0.0
  0
LINE
  8
2
  6
CONTINUOUS
 62
2
 10
3.20928450000001
 20
-8.1499999997181E-5
 30
0.0
 11
3.20928450000001
 21
0.559998500000003
 31
0.0
  0
LINE
  8
2
  6
CONTINUOUS
 62
2
 10
3.20928450000001
 20
0.559998500000003
 30
0.0
 11
3.4930435
 21
0.559998500000003
 31
0.0
  0
ARC
  8
2
  6
CONTINUOUS
 62
2
 10
3.4930435
 20
0.720498500000002
 30
0.0
 40
0.160499999999999
 50
269.999999999997
 51
359.999999999998
  0
ARC
  8
2
  6
CONTINUOUS
 62
2
 10
3.4930435
 20
0.720498500000009
 30
0.0
 40
0.160499999999999
 50
359.999999999997
 51
89.9999999999996
  0
LINE
  8
2
  6
CONTINUOUS
 62
2
 10
3.4930435
 20
0.880998500000003
 30
0.0
 11
3.34466650000001
 21
0.880998500000003
 31
0.0
  0
ARC
  8
3
  6
CONTINUOUS
 62
3
 10
4.13526499039562
 20
0.730511565111828
 30
0.0
 40
0.269483490413042
 50
180.0006516836
 51
243.183935420125
  0
ARC
  8
3
  6
CONTINUOUS
 62
3
 10
4.13527100000001
 20
0.730508500000005
 30
0.0
 40
0.2694895
 50
359.999999999997
 51
180
  0
LINE
  8
3
  6
CONTINUOUS
 62
3
 10
4.40476050000001
 20
0.730508500000001
 30
0.0
 11
4.27721750000001
 21
0.730508500000001
 31
0.0
  0
ARC
  8
3
  6
CONTINUOUS
 62
3
 10
4.13527250000001
 20
0.730508500000006
 30
0.0
 40
0.141945
 50
359.999999999997
 51
180
  0
ARC
  8
3
  6
CONTINUOUS
 62
3
 10
4.13528120941423
 20
0.730504675259852
 30
0.0
 40
0.141953709465742
 50
179.998456246975
 51
243.182376586103
  0
LINE
  8
3
  6
CONTINUOUS
 62
3
 10
4.07123850000001
 20
0.603818500000001
 30
0.0
 11
4.25685450000001
 21
0.509998500000002
 31
0.0
  0
ARC
  8
3
  6
CONTINUOUS
 62
3
 10
4.13526755255037
 20
0.269494892941712
 30
0.0
 40
0.269490947525463
 50
359.998640813051
 51
63.1810545244016
  0
ARC
  8
3
  6
CONTINUOUS
 62
3
 10
4.13527050000001
 20
0.269488499999997
 30
0.0
 40
0.269488
 50
179.999999999998
 51
359.999999999999
  0
LINE
  8
3
  6
CONTINUOUS
 62
3
 10
3.86578250000001
 20
0.269488500000002
 30
0.0
 11
3.99332650000001
 21
0.269488500000002
 31
0.0
  0
ARC
  8
3
  6
CONTINUOUS
 62
3
 10
4.13527100000001
 20
0.269488499999998
 30
0.0
 40
0.1419445
 50
179.999999999997
 51
359.999999999997
  0
ARC
  8
3
  6
CONTINUOUS
 62
3
 10
4.13527355747437
 20
0.269491077942162
 30
0.0
 40
0.141941942549054
 50
359.998959397039
 51
63.1839407382832
  0
LINE
  8
3
  6
CONTINUOUS
 62
3
 10
4.19930750000001
 20
0.396168500000002
 30
0.0
 11
4.01369350000001
 21
0.490008500000002
 31
0.0
  0
LINE
  8
3
  6
CONTINUOUS
 62
3
 10
4.92840841166671
 20
0.340558500000002
 30
0.0
 11
4.81681150000001
 21
0.873358500000003
 31
0.0
  0
LINE
  8
3
  6
CONTINUOUS
 62
3
 10
4.81681150000001
 20
0.873358500000003
 30
0.0
 11
4.62902350000002
 21
-8.1499999997181E-5
 31
0.0
  0
LINE
  8
3
  6
CONTINUOUS
 62
3
 10
4.62902350000002
 20
-8.1499999997181E-5
 30
0.0
 11
4.49800950000001
 21
-8.1499999997181E-5
 31
0.0
  0
LINE
  8
3
  6
CONTINUOUS
 62
3
 10
4.49800950000001
 20
-8.1499999997181E-5
 30
0.0
 11
4.72946850000001
 21
0.999998500000002
 31
0.0
  0
LINE
  8
3
  6
CONTINUOUS
 62
3
 10
4.72946850000001
 20
0.999998500000002
 30
0.0
 11
4.91288750000001
 21
0.999998500000002
 31
0.0
  0
LINE
  8
3
  6
CONTINUOUS
 62
3
 10
4.91288750000001
 20
0.999998500000002
 30
0.0
 11
5.1443495
 21
-8.1499999997181E-5
 31
0.0
  0
LINE
  8
3
  6
CONTINUOUS
 62
3
 10
5.1443495
 20
-8.1499999997181E-5
 30
0.0
 11
5.00023150000001
 21
-8.1499999997181E-5
 31
0.0
  0
LINE
  8
3
  6
CONTINUOUS
 62
3
 10
5.00023150000001
 20
-8.1499999997181E-5
 30
0.0
 11
4.95219250000001
 21
0.227018500000003
 31
0.0
  0
LINE
  8
3
  6
CONTINUOUS
 62
3
 10
4.95219250000001
 20
0.227018500000003
 30
0.0
 11
4.74693650000002
 21
0.227018500000003
 31
0.0
  0
LINE
  8
3
  6
CONTINUOUS
 62
3
 10
4.74693650000002
 20
0.227018500000003
 30
0.0
 11
4.77096050000001
 21
0.340558500000002
 31
0.0
  0
LINE
  8
3
  6
CONTINUOUS
 62
3
 10
4.77096050000001
 20
0.340558500000002
 30
0.0
 11
4.92840841166671
 21
0.340558500000002
 31
0.0
  0
LINE
  8
3
  6
CONTINUOUS
 62
3
 10
5.6072255
 20
0.886448500000003
 30
0.0
 11
5.6072255
 21
-8.1499999997181E-5
 31
0.0
  0
LINE
  8
3
  6
CONTINUOUS
 62
3
 10
5.6072255
 20
-8.1499999997181E-5
 30
0.0
 11
5.47184350000001
 21
-8.1499999997181E-5
 31
0.0
  0
LINE
  8
3
  6
CONTINUOUS
 62
3
 10
5.47184350000001
 20
-8.1499999997181E-5
 30
0.0
 11
5.47184350000001
 21
0.886448500000003
 31
0.0
  0
LINE
  8
3
  6
CONTINUOUS
 62
3
 10
5.47184350000001
 20
0.886448500000003
 30
0.0
 11
5.24038250000001
 21
0.886448500000003
 31
0.0
  0
LINE
  8
3
  6
CONTINUOUS
 62
3
 10
5.24038250000001
 20
0.886448500000003
 30
0.0
 11
5.24038250000001
 21
0.999998500000002
 31
0.0
  0
LINE
  8
3
  6
CONTINUOUS
 62
3
 10
5.24038250000001
 20
0.999998500000002
 30
0.0
 11
5.8430515
 21
0.999998500000002
 31
0.0
  0
LINE
  8
3
  6
CONTINUOUS
 62
3
 10
5.8430515
 20
0.999998500000002
 30
0.0
 11
5.8430515
 21
0.886448500000003
 31
0.0
  0
LINE
  8
3
  6
CONTINUOUS
 62
3
 10
5.8430515
 20
0.886448500000003
 30
0.0
 11
5.6072255
 21
0.886448500000003
 31
0.0
  0
LINE
  8
4
  6
CONTINUOUS
 62
4
 10
5.93907750000001
 20
0.499958500000004
 30
0.0
 11
5.93907750000001
 21
0.999998500000002
 31
0.0
  0
LINE
  8
4
  6
CONTINUOUS
 62
4
 10
5.93907750000001
 20
0.999998500000002
 30
0.0
 11
6.07445550000001
 21
0.999998500000002
 31
0.0
  0
LINE
  8
4
  6
CONTINUOUS
 62
4
 10
6.07445550000001
 20
0.999998500000002
 30
0.0
 11
6.07445550000001
 21
-8.14999999962929E-5
 31
0.0
  0
LINE
  8
4
  6
CONTINUOUS
 62
4
 10
6.07445550000001
 20
-8.14999999962929E-5
 30
0.0
 11
5.93907750000001
 21
-8.14999999962929E-5
 31
0.0
  0
LINE
  8
4
  6
CONTINUOUS
 62
4
 10
5.93907750000001
 20
-8.14999999962929E-5
 30
0.0
 11
5.93907750000001
 21
0.499958500000004
 31
0.0
  0
LINE
  8
4
  6
CONTINUOUS
 62
4
 10
6.57913450000001
 20
0.499998500000002
 30
0.0
 11
6.57913450000001
 21
0.730508500000003
 31
0.0
  0
ARC
  8
4
  6
CONTINUOUS
 62
4
 10
6.43719000000001
 20
0.730508500000007
 30
0.0
 40
0.1419445
 50
359.999999999997
 51
180
  0
LINE
  8
4
  6
CONTINUOUS
 62
4
 10
6.29524550000001
 20
0.730508500000003
 30
0.0
 11
6.29524550000001
 21
0.269488500000004
 31
0.0
  0
ARC
  8
4
  6
CONTINUOUS
 62
4
 10
6.43719157719652
 20
0.26948679601416
 30
0.0
 40
0.141946077206741
 50
179.999312195171
 51
255.521838354124
  0
LINE
  8
4
  6
CONTINUOUS
 62
4
 10
6.40170350000001
 20
0.132048500000002
 30
0.0
 11
6.40170350000001
 21
0.00233850000000269
 31
0.0
  0
ARC
  8
4
  6
CONTINUOUS
 62
4
 10
6.43719041451488
 20
0.269484733149782
 30
0.0
 40
0.26949291454119
 50
179.999199145475
 51
262.433297341486
  0
LINE
  8
4
  6
CONTINUOUS
 62
4
 10
6.16769750000001
 20
0.269488500000004
 30
0.0
 11
6.16769650000001
 21
0.730508500000003
 31
0.0
  0
ARC
  8
4
  6
CONTINUOUS
 62
4
 10
6.43718600000001
 20
0.730508500000007
 30
0.0
 40
0.2694895
 50
359.999999999997
 51
180
  0
LINE
  8
4
  6
CONTINUOUS
 62
4
 10
6.70667550000001
 20
0.730508500000003
 30
0.0
 11
6.70667550000001
 21
0.269488500000004
 31
0.0
  0
ARC
  8
4
  6
CONTINUOUS
 62
4
 10
6.43718204227967
 20
0.269484279010307
 30
0.0
 40
0.269493457753397
 50
277.568305134343
 51
0.000897405440053901
  0
LINE
  8
4
  6
CONTINUOUS
 62
4
 10
6.47267650000001
 20
0.00233850000000269
 30
0.0
 11
6.47267650000001
 21
0.132048500000002
 31
0.0
  0
ARC
  8
4
  6
CONTINUOUS
 62
4
 10
6.43718808686703
 20
0.26948602343858
 30
0.0
 40
0.141945413154587
 50
284.478370904533
 51
0.000999655530455173
  0
LINE
  8
4
  6
CONTINUOUS
 62
4
 10
6.57913350000001
 20
0.269488500000004
 30
0.0
 11
6.57913450000001
 21
0.499998500000002
 31
0.0
  0
LINE
  8
4
  6
CONTINUOUS
 62
4
 10
7.27594650000001
 20
0.139670332390153
 30
0.0
 11
7.27594650000001
 21
0.999998500000002
 31
0.0
  0
LINE
  8
4
  6
CONTINUOUS
 62
4
 10
7.27594650000001
 20
0.999998500000002
 30
0.0
 11
7.40694750000001
 21
0.999998500000002
 31
0.0
  0
LINE
  8
4
  6
CONTINUOUS
 62
4
 10
7.40694750000001
 20
0.999998500000002
 30
0.0
 11
7.40694750000001
 21
-8.1499999997181E-5
 31
0.0
  0
LINE
  8
4
  6
CONTINUOUS
 62
4
 10
7.40694750000001
 20
-8.1499999997181E-5
 30
0.0
 11
7.19295750000001
 21
-8.1499999997181E-5
 31
0.0
  0
LINE
  8
4
  6
CONTINUOUS
 62
4
 10
7.19295750000001
 20
-8.1499999997181E-5
 30
0.0
 11
6.93092750000001
 21
0.838408500000003
 31
0.0
  0
LINE
  8
4
  6
CONTINUOUS
 62
4
 10
6.93092750000001
 20
0.838408500000003
 30
0.0
 11
6.93092750000001
 21
-8.1499999997181E-5
 31
0.0
  0
LINE
  8
4
  6
CONTINUOUS
 62
4
 10
6.93092750000001
 20
-8.1499999997181E-5
 30
0.0
 11
6.79991750000001
 21
-8.1499999997181E-5
 31
0.0
  0
LINE
  8
4
  6
CONTINUOUS
 62
4
 10
6.79991750000001
 20
-8.1499999997181E-5
 30
0.0
 11
6.79991750000001
 21
0.999998500000002
 31
0.0
  0
LINE
  8
4
  6
CONTINUOUS
 62
4
 10
6.79991750000001
 20
0.999998500000002
 30
0.0
 11
7.01390750000001
 21
0.999998500000002
 31
0.0
  0
LINE
  8
4
  6
CONTINUOUS
 62
4
 10
7.01390750000001
 20
0.999998500000002
 30
0.0
 11
7.27594650000001
 21
0.139670332390153
 31
0.0
  0
LINE
  8
5
  6
CONTINUOUS
 62
5
 10
8.74220248244954
 20
0.499998500000002
 30
0.0
 11
8.74220248244954
 21
0.730508500000003
 31
0.0
  0
ARC
  8
5
  6
CONTINUOUS
 62
5
 10
8.60025798244954
 20
0.730508500000008
 30
0.0
 40
0.141944499999999
 50
359.999999999997
 51
180
  0
LINE
  8
5
  6
CONTINUOUS
 62
5
 10
8.45831348244954
 20
0.730508500000003
 30
0.0
 11
8.45831348244954
 21
0.269488500000004
 31
0.0
  0
ARC
  8
5
  6
CONTINUOUS
 62
5
 10
8.60025959245881
 20
0.269486821430201
 30
0.0
 40
0.141946110019195
 50
179.999322454378
 51
255.521828094918
  0
LINE
  8
5
  6
CONTINUOUS
 62
5
 10
8.56477148244954
 20
0.132048500000004
 30
0.0
 11
8.56477148244954
 21
0.00234850000000414
 31
0.0
  0
ARC
  8
5
  6
CONTINUOUS
 62
5
 10
8.60025318893841
 20
0.269489162347184
 30
0.0
 40
0.26948670648968
 50
180.000140822151
 51
262.434239018162
  0
LINE
  8
5
  6
CONTINUOUS
 62
5
 10
8.33076648244954
 20
0.269488500000004
 30
0.0
 11
8.33076448244954
 21
0.730508500000003
 31
0.0
  0
ARC
  8
5
  6
CONTINUOUS
 62
5
 10
8.60025398244954
 20
0.730508500000007
 30
0.0
 40
0.269489500000001
 50
359.999999999997
 51
180
  0
LINE
  8
5
  6
CONTINUOUS
 62
5
 10
8.86974348244954
 20
0.730508500000003
 30
0.0
 11
8.86974348244954
 21
0.269488500000004
 31
0.0
  0
ARC
  8
5
  6
CONTINUOUS
 62
5
 10
8.60025573290655
 20
0.269489279010307
 30
0.0
 40
0.269487749544124
 50
277.567242103554
 51
359.999834374649
  0
LINE
  8
5
  6
CONTINUOUS
 62
5
 10
8.63574448244954
 20
0.00234850000000414
 30
0.0
 11
8.63574448244954
 21
0.132048500000004
 31
0.0
  0
ARC
  8
5
  6
CONTINUOUS
 62
5
 10
8.6002559708785
 20
0.269486099685824
 30
0.0
 40
0.141945511591343
 50
284.478401682145
 51
0.000968877919340453
  0
LINE
  8
5
  6
CONTINUOUS
 62
5
 10
8.74220148244954
 20
0.269488500000004
 30
0.0
 11
8.74220248244954
 21
0.499998500000002
 31
0.0
  0
LINE
  8
5
  6
CONTINUOUS
 62
5
 10
8.96306548244954
 20
0.0795785000000025
 30
0.0
 11
8.96306548244954
 21
0.159158500000002
 31
0.0
  0
LINE
  8
5
  6
CONTINUOUS
 62
5
 10
8.96306548244954
 20
0.159158500000002
 30
0.0
 11
9.12222648244954
 21
0.159158500000002
 31
0.0
  0
LINE
  8
5
  6
CONTINUOUS
 62
5
 10
9.12222648244954
 20
0.159158500000002
 30
0.0
 11
9.12222648244954
 21
-1.49999999748962E-6
 31
0.0
  0
LINE
  8
5
  6
CONTINUOUS
 62
5
 10
9.12222648244954
 20
-1.49999999748962E-6
 30
0.0
 11
8.96306548244954
 21
-1.49999999748962E-6
 31
0.0
  0
LINE
  8
5
  6
CONTINUOUS
 62
5
 10
8.96306548244954
 20
-1.49999999748962E-6
 30
0.0
 11
8.96306548244954
 21
0.0795785000000025
 31
0.0
  0
LINE
  8
5
  6
CONTINUOUS
 62
5
 10
9.62690448244952
 20
0.499998500000002
 30
0.0
 11
9.62690448244952
 21
0.730508500000003
 31
0.0
  0
ARC
  8
5
  6
CONTINUOUS
 62
5
 10
9.48495998244954
 20
0.730508500000008
 30
0.0
 40
0.141944499999999
 50
359.999999999997
 51
180
  0
LINE
  8
5
  6
CONTINUOUS
 62
5
 10
9.34301548244954
 20
0.730508500000003
 30
0.0
 11
9.34301548244954
 21
0.269488500000004
 31
0.0
  0
ARC
  8
5
  6
CONTINUOUS
 62
5
 10
9.48496159245881
 20
0.269486821430201
 30
0.0
 40
0.141946110019195
 50
179.999322454378
 51
255.521828094918
  0
LINE
  8
5
  6
CONTINUOUS
 62
5
 10
9.44947348244954
 20
0.132048500000004
 30
0.0
 11
9.44947348244954
 21
0.00234850000000414
 31
0.0
  0
ARC
  8
5
  6
CONTINUOUS
 62
5
 10
9.48495518893841
 20
0.269489162347184
 30
0.0
 40
0.26948670648968
 50
180.000140822151
 51
262.434239018162
  0
LINE
  8
5
  6
CONTINUOUS
 62
5
 10
9.21546848244954
 20
0.269488500000004
 30
0.0
 11
9.21546648244954
 21
0.730508500000003
 31
0.0
  0
ARC
  8
5
  6
CONTINUOUS
 62
5
 10
9.48495598244954
 20
0.730508500000007
 30
0.0
 40
0.269489500000001
 50
359.999999999997
 51
180
  0
LINE
  8
5
  6
CONTINUOUS
 62
5
 10
9.75444548244952
 20
0.730508500000003
 30
0.0
 11
9.75444548244952
 21
0.269488500000004
 31
0.0
  0
ARC
  8
5
  6
CONTINUOUS
 62
5
 10
9.48495773290656
 20
0.269489279010307
 30
0.0
 40
0.269487749544124
 50
277.567242103554
 51
359.999834374649
  0
LINE
  8
5
  6
CONTINUOUS
 62
5
 10
9.52044648244954
 20
0.00234850000000414
 30
0.0
 11
9.52044648244954
 21
0.132048500000004
 31
0.0
  0
ARC
  8
5
  6
CONTINUOUS
 62
5
 10
9.4849579708785
 20
0.269486099685824
 30
0.0
 40
0.141945511591343
 50
284.478401682145
 51
0.000968877919340453
  0
LINE
  8
5
  6
CONTINUOUS
 62
5
 10
9.62690348244952
 20
0.269488500000004
 30
0.0
 11
9.62690448244952
 21
0.499998500000002
 31
0.0
  0
LINE
  8
5
  6
CONTINUOUS
 62
5
 10
8.03615173787292
 20
0.0764290292340151
 30
0.0
 11
8.11585169639166
 21
0.50004
 31
0.0
  0
LINE
  8
5
  6
CONTINUOUS
 62
5
 10
8.11585169639166
 20
0.50004
 30
0.0
 11
8.18354469639166
 21
0.50004
 31
0.0
  0
LINE
  8
5
  6
CONTINUOUS
 62
5
 10
8.18354469639166
 20
0.50004
 30
0.0
 11
8.07436419639165
 21
0
 31
0.0
  0
LINE
  8
5
  6
CONTINUOUS
 62
5
 10
8.07436419639165
 20
0
 30
0.0
 11
7.98920569639166
 21
0
 31
0.0
  0
LINE
  8
5
  6
CONTINUOUS
 62
5
 10
7.98920569639166
 20
0
 30
0.0
 11
7.88220919639165
 21
0.50004
 31
0.0
  0
LINE
  8
5
  6
CONTINUOUS
 62
5
 10
7.88220919639165
 20
0.50004
 30
0.0
 11
7.95426919639166
 21
0.50004
 31
0.0
  0
LINE
  8
5
  6
CONTINUOUS
 62
5
 10
7.95426919639166
 20
0.50004
 30
0.0
 11
8.03615173787292
 21
0.0764290292340151
 31
0.0
  0
LINE
  8
6
  6
CONTINUOUS
 62
6
 10
-4.99999999792333E-7
 20
-0.263576465518032
 30
0.0
 11
-4.99999999792333E-7
 21
-0.433217987079332
 31
0.0
  0
ARC
  8
6
  6
CONTINUOUS
 62
6
 10
0.0695497321114063
 20
-0.432096357431993
 30
0.0
 40
0.0695592757280886
 50
180.923923222649
 51
0.472476699574773
  0
LINE
  8
6
  6
CONTINUOUS
 62
6
 10
0.139106642801503
 20
-0.43152275908279
 30
0.0
 11
0.1391066428015
 21
-0.263576465518032
 31
0.0
  0
LINE
  8
6
  6
CONTINUOUS
 62
6
 10
0.1659816428015
 20
-0.501076465518032
 30
0.0
 11
0.16598167021022
 21
-0.263576494628562
 31
0.0
  0
LINE
  8
6
  6
CONTINUOUS
 62
6
 10
0.16598167021022
 20
-0.263576494628562
 30
0.0
 11
0.311817979675695
 21
-0.501076494533559
 31
0.0
  0
LINE
  8
6
  6
CONTINUOUS
 62
6
 10
0.311817979675695
 20
-0.501076494533559
 30
0.0
 11
0.311817979675695
 21
-0.263576494628562
 31
0.0
  0
LINE
  8
6
  6
CONTINUOUS
 62
6
 10
0.366125092353203
 20
-0.501076499995082
 30
0.0
 11
0.366125092353203
 21
-0.263576500090082
 31
0.0
  0
LINE
  8
6
  6
CONTINUOUS
 62
6
 10
0.366125092353203
 20
-0.263576500090082
 30
0.0
 11
0.432370728464708
 21
-0.263576503117157
 31
0.0
  0
ARC
  8
6
  6
CONTINUOUS
 62
6
 10
0.424177692329978
 20
-0.3505317813053
 30
0.0
 40
0.0873404044293503
 50
24.3863827720528
 51
84.6174099999929
  0
ARC
  8
6
  6
CONTINUOUS
 62
6
 10
0.303317778369212
 20
-0.382326502758955
 30
0.0
 40
0.21158416955822
 50
341.29431327019
 51
18.7056867298094
  0
ARC
  8
6
  6
CONTINUOUS
 62
6
 10
0.424177709294261
 20
-0.414121218779873
 30
0.0
 40
0.0873403874650791
 50
275.382450717136
 51
335.613608269931
  0
LINE
  8
6
  6
CONTINUOUS
 62
6
 10
0.43237053245419
 20
-0.501076499995107
 30
0.0
 11
0.372062592353203
 21
-0.501076499995082
 31
0.0
  0
ARC
  8
6
  6
CONTINUOUS
 62
6
 10
0.648731061788487
 20
-0.430867842286231
 30
0.0
 40
0.0706663506591695
 50
196.004825930421
 51
267.948379947903
  0
ARC
  8
6
  6
CONTINUOUS
 62
6
 10
0.781211580152584
 20
-0.382494638466557
 30
0.0
 40
0.21158416955822
 50
161.294116943038
 51
198.705883056962
  0
ARC
  8
6
  6
CONTINUOUS
 62
6
 10
0.648731071139499
 20
-0.334279352267679
 30
0.0
 40
0.070710063357739
 50
16.1288893758948
 51
163.872176621307
  0
ARC
  8
6
  6
CONTINUOUS
 62
6
 10
0.516250624595519
 20
-0.382494638473695
 30
0.0
 40
0.211584169558198
 50
341.293755627023
 51
18.7062443729764
  0
ARC
  8
6
  6
CONTINUOUS
 62
6
 10
0.648731061788478
 20
-0.43086784228622
 30
0.0
 40
0.070666350659177
 50
272.763973435186
 51
343.994108060195
  0
LINE
  8
6
  6
CONTINUOUS
 62
6
 10
0.756502392154705
 20
-0.501076465423032
 30
0.0
 11
0.892216677814705
 21
-0.263576465518032
 31
0.0
  0
LINE
  8
6
  6
CONTINUOUS
 62
6
 10
0.927841677814705
 20
-0.501076465423032
 30
0.0
 11
0.927841677814705
 21
-0.263576465518032
 31
0.0
  0
LINE
  8
6
  6
CONTINUOUS
 62
6
 10
0.927841677814705
 20
-0.263576465518032
 30
0.0
 11
1.01402024920882
 21
-0.26357646551803
 31
0.0
  0
ARC
  8
6
  6
CONTINUOUS
 62
6
 10
1.01287595893124
 20
-0.322951377596447
 30
0.0
 40
0.0593859375993938
 50
271.095264000541
 51
88.8959160393194
  0
LINE
  8
6
  6
CONTINUOUS
 62
6
 10
1.01401110917901
 20
-0.382326465120374
 30
0.0
 11
0.935636109179008
 21
-0.382326465120374
 31
0.0
  0
LINE
  8
6
  6
CONTINUOUS
 62
6
 10
1.01739481047551
 20
-0.389092865473659
 30
0.0
 11
1.07339524918506
 21
-0.501076465423032
 31
0.0
  0
LINE
  8
6
  6
CONTINUOUS
 62
6
 10
1.23898006403681
 20
-0.501078937475782
 30
0.0
 11
1.09970327837823
 21
-0.501078937475782
 31
0.0
  0
LINE
  8
6
  6
CONTINUOUS
 62
6
 10
1.09970327837823
 20
-0.501078937475782
 30
0.0
 11
1.09961845694969
 21
-0.382328937523282
 31
0.0
  0
LINE
  8
6
  6
CONTINUOUS
 62
6
 10
1.09961845694969
 20
-0.382328937523282
 30
0.0
 11
1.20844434976331
 21
-0.382328937523282
 31
0.0
  0
LINE
  8
6
  6
CONTINUOUS
 62
6
 10
1.09961336909686
 20
-0.378768443547532
 30
0.0
 11
1.09953363552116
 21
-0.263578937570782
 31
0.0
  0
LINE
  8
6
  6
CONTINUOUS
 62
6
 10
1.09953363552116
 20
-0.263578937570782
 30
0.0
 11
1.22710506403681
 21
-0.263578937570782
 31
0.0
  0
LINE
  8
6
  6
CONTINUOUS
 62
6
 10
1.28141217671431
 20
-0.501076499995082
 30
0.0
 11
1.28141217671431
 21
-0.263576500090082
 31
0.0
  0
LINE
  8
6
  6
CONTINUOUS
 62
6
 10
1.28141217671431
 20
-0.263576500090082
 30
0.0
 11
1.34765781282582
 21
-0.263576503117157
 31
0.0
  0
ARC
  8
6
  6
CONTINUOUS
 62
6
 10
1.33946477669109
 20
-0.3505317813053
 30
0.0
 40
0.0873404044293504
 50
24.3863827720529
 51
84.617409999993
  0
ARC
  8
6
  6
CONTINUOUS
 62
6
 10
1.21860486273032
 20
-0.382326502758955
 30
0.0
 40
0.21158416955822
 50
341.29431327019
 51
18.7056867298094
  0
ARC
  8
6
  6
CONTINUOUS
 62
6
 10
1.33946479365537
 20
-0.414121218779874
 30
0.0
 40
0.0873403874650789
 50
275.382450717137
 51
335.613608269932
  0
LINE
  8
6
  6
CONTINUOUS
 62
6
 10
1.3476576168153
 20
-0.501076499995107
 30
0.0
 11
1.28734967671431
 21
-0.501076499995082
 31
0.0
  0
ARC
  8
6
  6
CONTINUOUS
 62
6
 10
1.5640181461496
 20
-0.430867842286232
 30
0.0
 40
0.0706663506591694
 50
196.004825930422
 51
267.948379947904
  0
ARC
  8
6
  6
CONTINUOUS
 62
6
 10
1.69649866451369
 20
-0.382494638466557
 30
0.0
 40
0.21158416955822
 50
161.294116943038
 51
198.705883056962
  0
ARC
  8
6
  6
CONTINUOUS
 62
6
 10
1.56401815550061
 20
-0.334279352267679
 30
0.0
 40
0.0707100633577389
 50
16.1288893758948
 51
163.872176621307
  0
ARC
  8
6
  6
CONTINUOUS
 62
6
 10
1.43153770895663
 20
-0.382494638473695
 30
0.0
 40
0.211584169558198
 50
341.293755627023
 51
18.7062443729764
  0
ARC
  8
6
  6
CONTINUOUS
 62
6
 10
1.56401814614959
 20
-0.43086784228622
 30
0.0
 40
0.070666350659177
 50
272.763973435186
 51
343.994108060196
  0
LINE
  8
6
  6
CONTINUOUS
 62
6
 10
1.94678947651582
 20
-0.263576465518032
 30
0.0
 11
2.0082850122055
 21
-0.501076465423032
 31
0.0
  0
LINE
  8
6
  6
CONTINUOUS
 62
6
 10
2.0082850122055
 20
-0.501076465423032
 30
0.0
 11
2.06978054789519
 21
-0.303103251216504
 31
0.0
  0
LINE
  8
6
  6
CONTINUOUS
 62
6
 10
2.06978054789519
 20
-0.303103251216504
 30
0.0
 11
2.13127608358488
 21
-0.501076465423032
 31
0.0
  0
LINE
  8
6
  6
CONTINUOUS
 62
6
 10
2.13127608358488
 20
-0.501076465423032
 30
0.0
 11
2.19277161927457
 21
-0.263576465518032
 31
0.0
  0
LINE
  8
6
  6
CONTINUOUS
 62
6
 10
2.22964660961506
 20
-0.501076480837032
 30
0.0
 11
2.29750373654698
 21
-0.501076480837032
 31
0.0
  0
LINE
  8
6
  6
CONTINUOUS
 62
6
 10
2.26357516513198
 20
-0.493951480932032
 30
0.0
 11
2.26357516513198
 21
-0.270701480932032
 31
0.0
  0
LINE
  8
6
  6
CONTINUOUS
 62
6
 10
2.22964660961506
 20
-0.263576480932032
 30
0.0
 11
2.29714661927456
 21
-0.263576480932032
 31
0.0
  0
LINE
  8
6
  6
CONTINUOUS
 62
6
 10
2.42056180563375
 20
-0.501076448874509
 30
0.0
 11
2.42056180563375
 21
-0.270779936588039
 31
0.0
  0
LINE
  8
6
  6
CONTINUOUS
 62
6
 10
2.3446466101284
 20
-0.263576448969509
 30
0.0
 11
2.49647696721053
 21
-0.263576448969509
 31
0.0
  0
LINE
  8
6
  6
CONTINUOUS
 62
6
 10
2.52022696721053
 20
-0.263576465518032
 30
0.0
 11
2.52022696721053
 21
-0.501076465423032
 31
0.0
  0
LINE
  8
6
  6
CONTINUOUS
 62
6
 10
2.52735196721053
 20
-0.382326465470532
 30
0.0
 11
2.65702696721053
 21
-0.382326465470532
 31
0.0
  0
LINE
  8
6
  6
CONTINUOUS
 62
6
 10
2.66442339572428
 20
-0.501076465423032
 30
0.0
 11
2.66442339572428
 21
-0.263576465518032
 31
0.0
  0
LINE
  8
6
  6
CONTINUOUS
 62
6
 10
2.96317339572428
 20
-0.263576465518032
 30
0.0
 11
2.96317339572428
 21
-0.433217987079332
 31
0.0
  0
ARC
  8
6
  6
CONTINUOUS
 62
6
 10
3.03272362783569
 20
-0.432096357431993
 30
0.0
 40
0.0695592757280885
 50
180.923923222649
 51
0.472476699574773
  0
LINE
  8
6
  6
CONTINUOUS
 62
6
 10
3.10228053852578
 20
-0.43152275908279
 30
0.0
 11
3.10228053852578
 21
-0.263576465518032
 31
0.0
  0
LINE
  8
6
  6
CONTINUOUS
 62
6
 10
3.40103053852578
 20
-0.263576465518032
 30
0.0
 11
3.40103053852578
 21
-0.501076465423032
 31
0.0
  0
LINE
  8
6
  6
CONTINUOUS
 62
6
 10
3.53386089561551
 20
-0.501076465423032
 30
0.0
 11
3.46433335348097
 21
-0.355308942000527
 31
0.0
  0
LINE
  8
6
  6
CONTINUOUS
 62
6
 10
3.40799786384912
 20
-0.410943141651319
 30
0.0
 11
3.53386089561551
 21
-0.263576465518032
 31
0.0
  0
LINE
  8
6
  6
CONTINUOUS
 62
6
 10
3.69944571046726
 20
-0.501078937475782
 30
0.0
 11
3.56016892480868
 21
-0.501078937475782
 31
0.0
  0
LINE
  8
6
  6
CONTINUOUS
 62
6
 10
3.56016892480868
 20
-0.501078937475782
 30
0.0
 11
3.56008410338014
 21
-0.382328937523282
 31
0.0
  0
LINE
  8
6
  6
CONTINUOUS
 62
6
 10
3.56008410338014
 20
-0.382328937523282
 30
0.0
 11
3.66890999619376
 21
-0.382328937523282
 31
0.0
  0
LINE
  8
6
  6
CONTINUOUS
 62
6
 10
3.56007901552731
 20
-0.378768443547532
 30
0.0
 11
3.55999928195161
 21
-0.263578937570782
 31
0.0
  0
LINE
  8
6
  6
CONTINUOUS
 62
6
 10
3.55999928195161
 20
-0.263578937570782
 30
0.0
 11
3.68757071046726
 21
-0.263578937570782
 31
0.0
  0
LINE
  8
6
  6
CONTINUOUS
 62
6
 10
3.71132071046725
 20
-0.263576465518032
 30
0.0
 11
3.78611165775027
 21
-0.376164988309652
 31
0.0
  0
LINE
  8
6
  6
CONTINUOUS
 62
6
 10
3.79020463900713
 20
-0.501076465423032
 30
0.0
 11
3.79020463900713
 21
-0.382326465470532
 31
0.0
  0
LINE
  8
6
  6
CONTINUOUS
 62
6
 10
3.79020463900713
 20
-0.382326465470532
 30
0.0
 11
3.869088567547
 21
-0.263576465518032
 31
0.0
  0
ENDSEC
  0
EOF
