  0
SECTION
  2
HEADER
  9
$ACADVER
  1
AC1003
  9
$EXTMIN
 10
-1.10615048254121
 20
0.788590550289638
  9
$EXTMAX
 10
0.787401574800026
 20
-0.787401574800024
  9
$INSUNITS
 70
1
  9
$INSBASE
 10
-0.159374453870594
 20
0.000594487744806971
999
Created with OMAX LAYOUT for Windows. (www.omax.com) 1/5/2024
  0
ENDSEC
  0
SECTION
  2
TABLES
  0
TABLE
  2
LAYER
 70
    10
  0
LAYER
  2
0
 70
     0
 62
     7
  6
CONTINUOUS
  0
LAYER
  2
1
 70
     0
 62
     7
  6
CONTINUOUS
  0
LAYER
  2
2
 70
     0
 62
     7
  6
CONTINUOUS
  0
LAYER
  2
3
 70
     0
 62
     7
  6
CONTINUOUS
  0
LAYER
  2
4
 70
     0
 62
     7
  6
CONTINUOUS
  0
LAYER
  2
5
 70
     0
 62
     7
  6
CONTINUOUS
  0
LAYER
  2
6
 70
     0
 62
     7
  6
CONTINUOUS
  0
LAYER
  2
7
 70
     0
 62
     7
  6
CONTINUOUS
  0
LAYER
  2
8
 70
     0
 62
     7
  6
CONTINUOUS
  0
LAYER
  2
9
 70
     0
 62
     7
  6
CONTINUOUS
  0
LAYER
  2
10
 70
     0
 62
     7
  6
CONTINUOUS
  0
LAYER
  2
11
 70
     0
 62
     7
  6
CONTINUOUS
  0
LAYER
  2
12
 70
     0
 62
     7
  6
CONTINUOUS
  0
LAYER
  2
13
 70
     0
 62
     7
  6
CONTINUOUS
  0
LAYER
  2
14
 70
     0
 62
     7
  6
CONTINUOUS
  0
LAYER
  2
15
 70
     0
 62
     7
  6
CONTINUOUS
  0
LAYER
  2
16
 70
     0
 62
     7
  6
CONTINUOUS
  0
LAYER
  2
17
 70
     0
 62
     7
  6
CONTINUOUS
  0
LAYER
  2
18
 70
     0
 62
     7
  6
CONTINUOUS
  0
LAYER
  2
19
 70
     0
 62
     7
  6
CONTINUOUS
  0
LAYER
  2
20
 70
     0
 62
     7
  6
CONTINUOUS
  0
LAYER
  2
21
 70
     0
 62
     7
  6
CONTINUOUS
  0
LAYER
  2
22
 70
     0
 62
     7
  6
CONTINUOUS
  0
LAYER
  2
23
 70
     0
 62
     7
  6
CONTINUOUS
  0
LAYER
  2
24
 70
     0
 62
     7
  6
CONTINUOUS
  0
LAYER
  2
25
 70
     0
 62
     7
  6
CONTINUOUS
  0
LAYER
  2
26
 70
     0
 62
     7
  6
CONTINUOUS
  0
LAYER
  2
27
 70
     0
 62
     7
  6
CONTINUOUS
  0
LAYER
  2
28
 70
     0
 62
     7
  6
CONTINUOUS
  0
LAYER
  2
29
 70
     0
 62
     7
  6
CONTINUOUS
  0
LAYER
  2
30
 70
     0
 62
     7
  6
CONTINUOUS
  0
LAYER
  2
31
 70
     0
 62
     7
  6
CONTINUOUS
  0
ENDTAB
  0
ENDSEC
  0
SECTION
  2
ENTITIES
  0
LINE
  8
0
  6
CONTINUOUS
 62
0
 10
-1.09630796254092
 20
0.778748030287432
 30
0.0
 11
-1.10615048254092
 21
0.788590550287432
 31
0.0
  0
LINE
  8
0
  6
CONTINUOUS
 62
0
 10
-1.09630796254025
 20
0.750438119557798
 30
0.0
 11
-1.10615048254025
 21
0.760280639557798
 31
0.0
  0
LINE
  8
0
  6
CONTINUOUS
 62
0
 10
-0.880186135045826
 20
0.778748030288535
 30
0.0
 11
-0.890028655045826
 21
0.788590550288535
 31
0.0
  0
LINE
  8
0
  6
CONTINUOUS
 62
0
 10
-1.09630796254025
 20
0.693810302228375
 30
0.0
 11
-1.10615048254025
 21
0.703652822228375
 31
0.0
  0
LINE
  8
0
  6
CONTINUOUS
 62
0
 10
-1.09630796254025
 20
0.64756609189967
 30
0.0
 11
-1.10615048254025
 21
0.65740861189967
 31
0.0
  0
LINE
  8
0
  6
CONTINUOUS
 62
0
 10
-0.880186135045826
 20
0.67587794757126
 30
0.0
 11
-0.890028655045826
 21
0.68572046757126
 31
0.0
  0
LINE
  8
0
  6
CONTINUOUS
 62
0
 10
-1.10615048254025
 20
0.471377180433892
 30
0.0
 11
-1.09630796254025
 21
0.461534660433892
 31
0.0
  0
LINE
  8
0
  6
CONTINUOUS
 62
0
 10
-1.10615048254025
 20
0.500632980732409
 30
0.0
 11
-1.09630796254025
 21
0.490790460732409
 31
0.0
  0
LINE
  8
0
  6
CONTINUOUS
 62
0
 10
-0.890028655045826
 20
0.500632980732409
 30
0.0
 11
-0.880186135045826
 21
0.490790460732409
 31
0.0
  0
LINE
  8
0
  6
CONTINUOUS
 62
0
 10
-1.10615048254025
 20
0.320386019465557
 30
0.0
 11
-1.09630796254025
 21
0.310543499465557
 31
0.0
  0
LINE
  8
0
  6
CONTINUOUS
 62
0
 10
-1.10615048254025
 20
0.45062552595927
 30
0.0
 11
-1.09630796254025
 21
0.44078300595927
 31
0.0
  0
LINE
  8
0
  6
CONTINUOUS
 62
0
 10
-1.08161181212188
 20
0.45062552595927
 30
0.0
 11
-1.07176929212188
 21
0.44078300595927
 31
0.0
  0
LINE
  8
0
  6
CONTINUOUS
 62
0
 10
-0.890028655045826
 20
0.399662456914094
 30
0.0
 11
-0.880186135045826
 21
0.389819936914094
 31
0.0
  0
LINE
  8
0
  6
CONTINUOUS
 62
0
 10
-1.10615048254025
 20
0.253153989307928
 30
0.0
 11
-1.09630796254025
 21
0.243311469307928
 31
0.0
  0
LINE
  8
0
  6
CONTINUOUS
 62
0
 10
-1.10615048254025
 20
0.292791667770849
 30
0.0
 11
-1.09630796254025
 21
0.282949147770849
 31
0.0
  0
LINE
  8
0
  6
CONTINUOUS
 62
0
 10
-0.890028655045826
 20
0.231447368874887
 30
0.0
 11
-0.880186135045826
 21
0.221604848874887
 31
0.0
  0
LINE
  8
0
  6
CONTINUOUS
 62
0
 10
-0.890028655045826
 20
0.342811656607253
 30
0.0
 11
-0.880186135045826
 21
0.332969136607253
 31
0.0
  0
LINE
  8
0
  6
CONTINUOUS
 62
0
 10
-0.96364250525551
 20
0.247274211821369
 30
0.0
 11
-0.95379998525551
 21
0.237431691821369
 31
0.0
  0
LINE
  8
0
  6
CONTINUOUS
 62
0
 10
-1.10615048254025
 20
-0.0753646734068284
 30
0.0
 11
-1.09630796254025
 21
-0.0852071934068284
 31
0.0
  0
LINE
  8
0
  6
CONTINUOUS
 62
0
 10
-1.01106448532248
 20
-0.046108008690157
 30
0.0
 11
-1.00122196532248
 21
-0.055950528690157
 31
0.0
  0
LINE
  8
0
  6
CONTINUOUS
 62
0
 10
-0.890028655045826
 20
-0.046108008690157
 30
0.0
 11
-0.880186135045826
 21
-0.055950528690157
 31
0.0
  0
LINE
  8
0
  6
CONTINUOUS
 62
0
 10
-0.890028655045826
 20
0.0463562082588683
 30
0.0
 11
-0.880186135045826
 21
0.0365136882588683
 31
0.0
  0
LINE
  8
0
  6
CONTINUOUS
 62
0
 10
-1.10615048254025
 20
-0.193325768300719
 30
0.0
 11
-1.09630796254025
 21
-0.203168288300719
 31
0.0
  0
LINE
  8
0
  6
CONTINUOUS
 62
0
 10
-1.10615048254025
 20
-0.096118272822302
 30
0.0
 11
-1.09630796254025
 21
-0.105960792822302
 31
0.0
  0
LINE
  8
0
  6
CONTINUOUS
 62
0
 10
-1.08161181212188
 20
-0.096118272822302
 30
0.0
 11
-1.07176929212188
 21
-0.105960792822302
 31
0.0
  0
LINE
  8
0
  6
CONTINUOUS
 62
0
 10
-1.01271768504683
 20
-0.09989318691185
 30
0.0
 11
-1.00287516504683
 21
-0.10973570691185
 31
0.0
  0
LINE
  8
0
  6
CONTINUOUS
 62
0
 10
-0.988181175673867
 20
-0.09989318691185
 30
0.0
 11
-0.978338655673867
 21
-0.10973570691185
 31
0.0
  0
LINE
  8
0
  6
CONTINUOUS
 62
0
 10
-0.914567325464182
 20
-0.094230383568452
 30
0.0
 11
-0.904724805464182
 21
-0.104072903568452
 31
0.0
  0
LINE
  8
0
  6
CONTINUOUS
 62
0
 10
-0.890028655045826
 20
-0.094230383568452
 30
0.0
 11
-0.880186135045826
 21
-0.104072903568452
 31
0.0
  0
LINE
  8
0
  6
CONTINUOUS
 62
0
 10
-1.01271768504683
 20
-0.164068671374973
 30
0.0
 11
-1.00287516504683
 21
-0.173911191374973
 31
0.0
  0
LINE
  8
0
  6
CONTINUOUS
 62
0
 10
-0.904724805464182
 20
-0.173911191374973
 30
0.0
 11
-0.914567325464182
 21
-0.164068671374973
 31
0.0
  0
LINE
  8
0
  6
CONTINUOUS
 62
0
 10
-0.890028655045826
 20
-0.261267738776365
 30
0.0
 11
-0.880186135045826
 21
-0.271110258776365
 31
0.0
  0
LINE
  8
0
  6
CONTINUOUS
 62
0
 10
-1.09630796254025
 20
-0.253178984641944
 30
0.0
 11
-1.10615048254025
 21
-0.243336464641944
 31
0.0
  0
LINE
  8
0
  6
CONTINUOUS
 62
0
 10
-1.10615048254025
 20
-0.214078935507116
 30
0.0
 11
-1.09630796254025
 21
-0.223921455507116
 31
0.0
  0
LINE
  8
0
  6
CONTINUOUS
 62
0
 10
-1.10615048254025
 20
-0.313173888030307
 30
0.0
 11
-1.09630796254025
 21
-0.323016408030307
 31
0.0
  0
LINE
  8
0
  6
CONTINUOUS
 62
0
 10
-1.10615048254025
 20
-0.344318874209911
 30
0.0
 11
-1.09630796254025
 21
-0.354161394209911
 31
0.0
  0
LINE
  8
0
  6
CONTINUOUS
 62
0
 10
-1.10615048254025
 20
-0.3933828165652
 30
0.0
 11
-1.09630796254025
 21
-0.4032253365652
 31
0.0
  0
LINE
  8
0
  6
CONTINUOUS
 62
0
 10
-1.10615048254025
 20
-0.365072905834462
 30
0.0
 11
-1.09630796254025
 21
-0.374915425834462
 31
0.0
  0
LINE
  8
0
  6
CONTINUOUS
 62
0
 10
-0.890028655045826
 20
-0.365072905834462
 30
0.0
 11
-0.880186135045826
 21
-0.374915425834462
 31
0.0
  0
LINE
  8
0
  6
CONTINUOUS
 62
0
 10
-1.10615048254025
 20
-0.450010633894623
 30
0.0
 11
-1.09630796254025
 21
-0.459853153894623
 31
0.0
  0
LINE
  8
0
  6
CONTINUOUS
 62
0
 10
-1.10615048254025
 20
-0.496254844223327
 30
0.0
 11
-1.09630796254025
 21
-0.506097364223327
 31
0.0
  0
LINE
  8
0
  6
CONTINUOUS
 62
0
 10
-0.890028655045826
 20
-0.467942988551737
 30
0.0
 11
-0.880186135045826
 21
-0.477785508551737
 31
0.0
  0
LINE
  8
0
  6
CONTINUOUS
 62
0
 10
-1.04791247028976
 20
-0.652429920876344
 30
0.0
 11
-1.03806995028976
 21
-0.662272440876343
 31
0.0
  0
LINE
  8
0
  6
CONTINUOUS
 62
0
 10
-0.948283955659445
 20
-0.652430353085422
 30
0.0
 11
-0.938441435659445
 21
-0.662272873085422
 31
0.0
  0
LINE
  8
0
  6
CONTINUOUS
 62
0
 10
-0.948283955659445
 20
-0.679992109901687
 30
0.0
 11
-0.938441435659445
 21
-0.689834629901687
 31
0.0
  0
LINE
  8
0
  6
CONTINUOUS
 62
0
 10
-0.948283955659445
 20
0.0940703616627433
 30
0.0
 11
-0.938441435659445
 21
0.0842278416627433
 31
0.0
  0
LINE
  8
0
  6
CONTINUOUS
 62
0
 10
-0.948283955659445
 20
0.0665075243237824
 30
0.0
 11
-0.938441435659445
 21
0.0566650043237824
 31
0.0
  0
LINE
  8
0
  6
CONTINUOUS
 62
0
 10
-1.04791247028976
 20
0.182983116615685
 30
0.0
 11
-1.03806995028976
 21
0.173140596615685
 31
0.0
  0
LINE
  8
0
  6
CONTINUOUS
 62
0
 10
-0.948283955659445
 20
0.548346701927205
 30
0.0
 11
-0.938441435659445
 21
0.538504181927205
 31
0.0
  0
LINE
  8
0
  6
CONTINUOUS
 62
0
 10
-1.04791247028976
 20
0.637258592461991
 30
0.0
 11
-1.03806995028976
 21
0.627416072461991
 31
0.0
  0
LINE
  8
0
  6
CONTINUOUS
 62
0
 10
-0.948283955659445
 20
0.637258592461991
 30
0.0
 11
-0.938441435659445
 21
0.627416072461991
 31
0.0
  0
LINE
  8
0
  6
CONTINUOUS
 62
0
 10
-1.04791247028976
 20
0.548346701927205
 30
0.0
 11
-1.03806995028976
 21
0.538504181927205
 31
0.0
  0
LINE
  8
0
  6
CONTINUOUS
 62
0
 10
-0.948283955659445
 20
-0.605316754195793
 30
0.0
 11
-0.938441435659445
 21
-0.615159274195792
 31
0.0
  0
LINE
  8
0
  6
CONTINUOUS
 62
0
 10
-1.04791247028976
 20
-0.605316754195792
 30
0.0
 11
-1.03806995028976
 21
-0.615159274195792
 31
0.0
  0
LINE
  8
0
  6
CONTINUOUS
 62
0
 10
-1.04791247028976
 20
-0.516404863661007
 30
0.0
 11
-1.03806995028976
 21
-0.526247383661007
 31
0.0
  0
LINE
  8
0
  6
CONTINUOUS
 62
0
 10
-0.948283955659445
 20
-0.516404863661007
 30
0.0
 11
-0.938441435659445
 21
-0.526247383661006
 31
0.0
  0
LINE
  8
0
  6
CONTINUOUS
 62
0
 10
-0.948283955659445
 20
-0.741342027515668
 30
0.0
 11
-0.938441435659445
 21
-0.751184547515669
 31
0.0
  0
LINE
  8
0
  6
CONTINUOUS
 62
0
 10
-1.04791247028976
 20
-0.741342027515668
 30
0.0
 11
-1.03806995028976
 21
-0.751184547515668
 31
0.0
  0
LINE
  8
0
  6
CONTINUOUS
 62
0
 10
-1.00025925836591
 20
0.151019958650933
 30
0.0
 11
-0.99041673836591
 21
0.141177438650933
 31
0.0
  0
LINE
  8
0
  6
CONTINUOUS
 62
0
 10
-1.02053418622721
 20
0.110907498515536
 30
0.0
 11
-1.01069166622721
 21
0.101064978515536
 31
0.0
  0
LINE
  8
0
  6
CONTINUOUS
 62
0
 10
-1.10615048254024
 20
-0.0140434976965493
 30
0.0
 11
-1.09630796254024
 21
-0.0238860176965493
 31
0.0
  0
LINE
  8
0
  6
CONTINUOUS
 62
0
 10
-0.962739188281942
 20
0.0353374700176424
 30
0.0
 11
-0.952896668281938
 21
0.0254949500176421
 31
0.0
  0
LINE
  8
0
  6
CONTINUOUS
 62
0
 10
-1.08909281086592
 20
-0.751848057598457
 30
0.0
 11
-1.07925029086592
 21
-0.761690577598457
 31
0.0
  0
LINE
  8
0
  6
CONTINUOUS
 62
0
 10
-1.08909288727041
 20
-0.615823184839883
 30
0.0
 11
-1.07925036727041
 21
-0.625665704839883
 31
0.0
  0
LINE
  8
0
  6
CONTINUOUS
 62
0
 10
-0.907103691487777
 20
-0.669487777007433
 30
0.0
 11
-0.897261171487775
 21
-0.679330297007434
 31
0.0
  0
LINE
  8
0
  6
CONTINUOUS
 62
0
 10
-0.907103538678791
 20
-0.533462350878573
 30
0.0
 11
-0.897261018678791
 21
-0.543304870878573
 31
0.0
  0
LINE
  8
0
  6
CONTINUOUS
 62
0
 10
-1.00304360900369
 20
0.0286651106817324
 30
0.0
 11
-0.993201089003689
 21
0.0188225906817312
 31
0.0
  0
LINE
  8
0
  6
CONTINUOUS
 62
0
 10
-0.907103767892269
 20
0.165925292132372
 30
0.0
 11
-0.897261247892268
 21
0.156082772132372
 31
0.0
  0
LINE
  8
0
  6
CONTINUOUS
 62
0
 10
-1.08909288727041
 20
0.0835647954368092
 30
0.0
 11
-1.07925036727042
 21
0.0737222754368097
 31
0.0
  0
LINE
  8
0
  6
CONTINUOUS
 62
0
 10
-0.907103538678791
 20
0.620201105244425
 30
0.0
 11
-0.89726101867879
 21
0.610358585244425
 31
0.0
  0
LINE
  8
0
  6
CONTINUOUS
 62
0
 10
-1.08909288727041
 20
0.537840271283114
 30
0.0
 11
-1.07925036727041
 21
0.527997751283115
 31
0.0
  0
LINE
  8
0
  6
CONTINUOUS
 62
0
 10
-1.00122196532248
 20
-0.0238855854874787
 30
0.0
 11
-1.01106448532248
 21
-0.0140430654874763
 31
0.0
  0
LINE
  8
1
  6
CONTINUOUS
 62
1
 10
-0.910387140377249
 20
-0.4032253365652
 30
0.0
 11
-0.952544686752191
 21
-0.4032253365652
 31
0.0
  0
LINE
  8
1
  6
CONTINUOUS
 62
1
 10
-1.09630796254025
 20
-0.374915425834462
 30
0.0
 11
-1.09630796254025
 21
-0.4032253365652
 31
0.0
  0
LINE
  8
1
  6
CONTINUOUS
 62
1
 10
-0.880186135045826
 20
-0.374915425834462
 30
0.0
 11
-1.09630796254025
 21
-0.374915425834462
 31
0.0
  0
LINE
  8
1
  6
CONTINUOUS
 62
1
 10
-0.880186135045826
 20
-0.421159636163166
 30
0.0
 11
-0.880186135045826
 21
-0.374915425834462
 31
0.0
  0
LINE
  8
1
  6
CONTINUOUS
 62
1
 10
-1.02989179143743
 20
-0.467942988551737
 30
0.0
 11
-0.880186135045826
 21
-0.421159636163166
 31
0.0
  0
LINE
  8
1
  6
CONTINUOUS
 62
1
 10
-0.880186135045826
 20
-0.477785508551737
 30
0.0
 11
-1.06138763006201
 21
-0.477785508551737
 31
0.0
  0
LINE
  8
1
  6
CONTINUOUS
 62
1
 10
-0.880186135045826
 20
-0.506097364223327
 30
0.0
 11
-0.880186135045826
 21
-0.477785508551737
 31
0.0
  0
LINE
  8
1
  6
CONTINUOUS
 62
1
 10
-1.09630796254025
 20
-0.506097364223327
 30
0.0
 11
-0.880186135045826
 21
-0.506097364223327
 31
0.0
  0
LINE
  8
1
  6
CONTINUOUS
 62
1
 10
-1.09630796254025
 20
-0.459853153894623
 30
0.0
 11
-1.09630796254025
 21
-0.506097364223327
 31
0.0
  0
LINE
  8
1
  6
CONTINUOUS
 62
1
 10
-0.910387140377249
 20
-0.4032253365652
 30
0.0
 11
-1.09630796254025
 21
-0.459853153894623
 31
0.0
  0
LINE
  8
1
  6
CONTINUOUS
 62
1
 10
-0.938441435659445
 20
-0.751184547515668
 30
0.0
 11
-1.03806995028976
 21
-0.751184547515668
 31
0.0
  0
ARC
  8
1
  6
CONTINUOUS
 62
1
 10
-0.938441435659445
 20
-0.720509588708678
 30
0.0
 40
0.0306749588069906
 50
269.999999999998
 51
58.113794935865
  0
LINE
  8
1
  6
CONTINUOUS
 62
1
 10
-0.938441435659445
 20
-0.662272873085422
 30
0.0
 11
-0.938441435659445
 21
-0.689834629901687
 31
0.0
  0
ARC
  8
1
  6
CONTINUOUS
 62
1
 10
-0.938441435659443
 20
-0.720510561179103
 30
0.0
 40
0.0582376880936816
 50
269.999999999997
 51
44.9999999999994
  0
LINE
  8
1
  6
CONTINUOUS
 62
1
 10
-1.03806995028976
 20
-0.778748033168247
 30
0.0
 11
-0.938441435659445
 21
-0.778748249272785
 31
0.0
  0
ARC
  8
1
  6
CONTINUOUS
 62
1
 10
-1.03806995028976
 20
-0.720510237022295
 30
0.0
 40
0.0582377961459515
 50
89.9999999999995
 51
218.136459642311
  0
LINE
  8
1
  6
CONTINUOUS
 62
1
 10
-1.03806995028976
 20
-0.689834629901687
 30
0.0
 11
-1.03806995028976
 21
-0.662272440876343
 31
0.0
  0
ARC
  8
1
  6
CONTINUOUS
 62
1
 10
-1.03806995028976
 20
-0.720509588708678
 30
0.0
 40
0.0306749588069907
 50
89.9999999999997
 51
211.886205064135
  0
ARC
  8
1
  6
CONTINUOUS
 62
1
 10
-1.03806995028976
 20
-0.584484423441071
 30
0.0
 40
0.0306748507547212
 50
89.9999999999998
 51
211.886158046851
  0
ARC
  8
1
  6
CONTINUOUS
 62
1
 10
-1.03806995028976
 20
-0.584485287859228
 30
0.0
 40
0.058237904198221
 50
89.9999999999996
 51
218.136472437912
  0
ARC
  8
1
  6
CONTINUOUS
 62
1
 10
-0.938441435659444
 20
-0.584484423441071
 30
0.0
 40
0.0306748507547213
 50
269.999999999998
 51
58.1138419531482
  0
LINE
  8
1
  6
CONTINUOUS
 62
1
 10
-1.03806995028976
 20
-0.615159274195793
 30
0.0
 11
-0.938441435659445
 21
-0.615159274195793
 31
0.0
  0
ARC
  8
1
  6
CONTINUOUS
 62
1
 10
-0.938441435659443
 20
-0.584485287859228
 30
0.0
 40
0.0582379041982209
 50
269.999999999998
 51
45.0000000000003
  0
LINE
  8
1
  6
CONTINUOUS
 62
1
 10
-1.03806995028976
 20
-0.526247383661006
 30
0.0
 11
-0.938441435659445
 21
-0.526247383661006
 31
0.0
  0
LINE
  8
1
  6
CONTINUOUS
 62
1
 10
-1.03806995028976
 20
-0.642723192057449
 30
0.0
 11
-0.938441435659445
 21
-0.642723192057449
 31
0.0
  0
LINE
  8
1
  6
CONTINUOUS
 62
1
 10
-1.03806995028976
 20
-0.553809572686351
 30
0.0
 11
-0.938441435659445
 21
-0.553809572686351
 31
0.0
  0
LINE
  8
1
  6
CONTINUOUS
 62
1
 10
-1.06138763006201
 20
-0.477785508551737
 30
0.0
 11
-1.02989179143743
 21
-0.467942988551737
 31
0.0
  0
LINE
  8
1
  6
CONTINUOUS
 62
1
 10
-1.09630796254025
 20
-0.4032253365652
 30
0.0
 11
-0.952544686752191
 21
-0.4032253365652
 31
0.0
  0
ARC
  8
1
  6
CONTINUOUS
 62
1
 10
-0.938441435659445
 20
-0.720509588708678
 30
0.0
 40
0.0306749588069911
 50
58.1137949358645
 51
89.9999999999991
  0
ARC
  8
1
  6
CONTINUOUS
 62
1
 10
-1.03806995028976
 20
-0.720509588708678
 30
0.0
 40
0.0306749588069908
 50
211.886205064133
 51
269.999999999998
  0
ARC
  8
1
  6
CONTINUOUS
 62
1
 10
-1.03806995028976
 20
-0.720510237022297
 30
0.0
 40
0.0582377961459489
 50
218.136459642311
 51
224.999999999999
  0
ARC
  8
1
  6
CONTINUOUS
 62
1
 10
-0.938441435659446
 20
-0.720510561179103
 30
0.0
 40
0.0582376880936823
 50
51.8635531533368
 51
89.9999999999994
  0
ARC
  8
1
  6
CONTINUOUS
 62
1
 10
-1.03806995028976
 20
-0.584484423441071
 30
0.0
 40
0.0306748507547213
 50
211.88615804685
 51
269.999999999998
  0
ARC
  8
1
  6
CONTINUOUS
 62
1
 10
-0.938441435659444
 20
-0.584484423441069
 30
0.0
 40
0.0306748507547198
 50
58.1138419531476
 51
90.0000000000006
  0
ARC
  8
1
  6
CONTINUOUS
 62
1
 10
-1.03806995028976
 20
-0.58448528785923
 30
0.0
 40
0.0582379041982179
 50
218.136472437913
 51
225.000000000002
  0
ARC
  8
1
  6
CONTINUOUS
 62
1
 10
-0.938441435659444
 20
-0.584485287859226
 30
0.0
 40
0.0582379041982189
 50
51.8635275620864
 51
90.0000000000003
  0
ARC
  8
1
  6
CONTINUOUS
 62
1
 10
-1.03806995028976
 20
-0.720510237022295
 30
0.0
 40
0.0582377961459521
 50
224.999999999998
 51
269.999999999998
  0
ARC
  8
1
  6
CONTINUOUS
 62
1
 10
-1.03806995028976
 20
-0.584485287859228
 30
0.0
 40
0.0582379041982214
 50
225
 51
269.999999999998
  0
ARC
  8
1
  6
CONTINUOUS
 62
1
 10
-0.938441435659443
 20
-0.7205105611791
 30
0.0
 40
0.0582376880936774
 50
44.9999999999992
 51
51.8635531533385
  0
ARC
  8
1
  6
CONTINUOUS
 62
1
 10
-0.93844143565944
 20
-0.584485287859225
 30
0.0
 40
0.058237904198216
 50
45.0000000000016
 51
51.863527562089
  0
LINE
  8
2
  6
CONTINUOUS
 62
2
 10
-0.944010722968038
 20
-0.281832831010642
 30
0.0
 11
-0.91321945532356
 21
-0.287626030250895
 31
0.0
  0
LINE
  8
2
  6
CONTINUOUS
 62
2
 10
-1.09630796254025
 20
-0.223921455507116
 30
0.0
 11
-1.09630796254025
 21
-0.253178984641944
 31
0.0
  0
LINE
  8
2
  6
CONTINUOUS
 62
2
 10
-0.880186135045826
 20
-0.271110258776365
 30
0.0
 11
-1.09630796254025
 21
-0.223921455507116
 31
0.0
  0
LINE
  8
2
  6
CONTINUOUS
 62
2
 10
-0.880186135045826
 20
-0.307916535567587
 30
0.0
 11
-0.880186135045826
 21
-0.271110258776365
 31
0.0
  0
LINE
  8
2
  6
CONTINUOUS
 62
2
 10
-1.09630796254025
 20
-0.354161394209911
 30
0.0
 11
-0.880186135045826
 21
-0.307916535567587
 31
0.0
  0
LINE
  8
2
  6
CONTINUOUS
 62
2
 10
-1.09630796254025
 20
-0.323016408030307
 30
0.0
 11
-1.09630796254025
 21
-0.354161394209911
 31
0.0
  0
LINE
  8
2
  6
CONTINUOUS
 62
2
 10
-0.91321945532356
 20
-0.287626030250895
 30
0.0
 11
-1.09630796254025
 21
-0.323016408030307
 31
0.0
  0
LINE
  8
2
  6
CONTINUOUS
 62
2
 10
-1.00287516504683
 20
-0.173911191374973
 30
0.0
 11
-1.07176929212188
 21
-0.173911191374973
 31
0.0
  0
LINE
  8
2
  6
CONTINUOUS
 62
2
 10
-1.00287516504683
 20
-0.10973570691185
 30
0.0
 11
-1.00287516504683
 21
-0.173911191374973
 31
0.0
  0
LINE
  8
2
  6
CONTINUOUS
 62
2
 10
-0.978338655673867
 20
-0.10973570691185
 30
0.0
 11
-1.00287516504683
 21
-0.10973570691185
 31
0.0
  0
LINE
  8
2
  6
CONTINUOUS
 62
2
 10
-0.978338655673867
 20
-0.164068671374973
 30
0.0
 11
-0.978338655673867
 21
-0.10973570691185
 31
0.0
  0
LINE
  8
2
  6
CONTINUOUS
 62
2
 10
-0.904724805464182
 20
-0.173911191374973
 30
0.0
 11
-0.978338655673867
 21
-0.173911191374973
 31
0.0
  0
LINE
  8
2
  6
CONTINUOUS
 62
2
 10
-0.904724805464182
 20
-0.104072903568452
 30
0.0
 11
-0.904724805464182
 21
-0.173911191374973
 31
0.0
  0
LINE
  8
2
  6
CONTINUOUS
 62
2
 10
-0.880186135045826
 20
-0.104072903568452
 30
0.0
 11
-0.904724805464182
 21
-0.104072903568452
 31
0.0
  0
LINE
  8
2
  6
CONTINUOUS
 62
2
 10
-0.880186135045826
 20
-0.203168288300719
 30
0.0
 11
-0.880186135045826
 21
-0.104072903568452
 31
0.0
  0
LINE
  8
2
  6
CONTINUOUS
 62
2
 10
-1.09630796254025
 20
-0.203168288300719
 30
0.0
 11
-0.880186135045826
 21
-0.203168288300719
 31
0.0
  0
LINE
  8
2
  6
CONTINUOUS
 62
2
 10
-1.09630796254025
 20
-0.105960792822302
 30
0.0
 11
-1.09630796254025
 21
-0.203168288300719
 31
0.0
  0
LINE
  8
2
  6
CONTINUOUS
 62
2
 10
-1.07176929212188
 20
-0.105960792822302
 30
0.0
 11
-1.09630796254025
 21
-0.105960792822302
 31
0.0
  0
LINE
  8
2
  6
CONTINUOUS
 62
2
 10
-1.07176929212188
 20
-0.164068671374973
 30
0.0
 11
-1.07176929212188
 21
-0.105960792822302
 31
0.0
  0
LINE
  8
2
  6
CONTINUOUS
 62
2
 10
-1.00122196532248
 20
-0.055950528690157
 30
0.0
 11
-1.07059152238362
 21
-0.055950528690157
 31
0.0
  0
LINE
  8
2
  6
CONTINUOUS
 62
2
 10
-1.09630796254025
 20
-0.0238860176965522
 30
0.0
 11
-1.09630796254025
 21
-0.0852071934068284
 31
0.0
  0
ARC
  8
2
  6
CONTINUOUS
 62
2
 10
-1.03590935439682
 20
-0.0238856747113951
 30
0.0
 40
0.0603986081443897
 50
32.8552603471039
 51
44.9999999999992
  0
ARC
  8
2
  6
CONTINUOUS
 62
2
 10
-0.944380169491108
 20
-0.0307081669588308
 30
0.0
 40
0.0568447104797386
 50
98.616520181594
 51
135.856609805123
  0
LINE
  8
2
  6
CONTINUOUS
 62
2
 10
-0.880186135045826
 20
0.0365136882588683
 30
0.0
 11
-0.952896668281942
 21
0.0254949500176424
 31
0.0
  0
LINE
  8
2
  6
CONTINUOUS
 62
2
 10
-0.880186135045826
 20
0.0107996252521757
 30
0.0
 11
-0.880186135045826
 21
0.0365136882588683
 31
0.0
  0
LINE
  8
2
  6
CONTINUOUS
 62
2
 10
-0.949171026027315
 20
5.20982075596434E-5
 30
0.0
 11
-0.880186135045826
 21
0.0107996252521757
 31
0.0
  0
ARC
  8
2
  6
CONTINUOUS
 62
2
 10
-0.944378509903684
 20
-0.0307059482939369
 30
0.0
 40
0.0311291765934066
 50
98.8562389430161
 51
180.007764564469
  0
LINE
  8
2
  6
CONTINUOUS
 62
2
 10
-0.975506367869005
 20
-0.046108008690157
 30
0.0
 11
-0.975507686211243
 21
-0.0307101668332401
 31
0.0
  0
LINE
  8
2
  6
CONTINUOUS
 62
2
 10
-0.880186135045826
 20
-0.055950528690157
 30
0.0
 11
-0.975505525165854
 21
-0.055950528690157
 31
0.0
  0
LINE
  8
2
  6
CONTINUOUS
 62
2
 10
-0.880186135045826
 20
-0.0852071934068284
 30
0.0
 11
-0.880186135045826
 21
-0.055950528690157
 31
0.0
  0
LINE
  8
2
  6
CONTINUOUS
 62
2
 10
-1.09630796254025
 20
-0.0852071934068284
 30
0.0
 11
-0.880186135045826
 21
-0.0852071934068284
 31
0.0
  0
ARC
  8
2
  6
CONTINUOUS
 62
2
 10
-1.03590674385305
 20
-0.0238855854874742
 30
0.0
 40
0.03468477853057
 50
359.999999999993
 51
56.5753290044399
  0
LINE
  8
2
  6
CONTINUOUS
 62
2
 10
-1.07059152238362
 20
-0.046108008690157
 30
0.0
 11
-1.07059152238362
 21
-0.0238855854874763
 31
0.0
  0
ARC
  8
2
  6
CONTINUOUS
 62
2
 10
-0.201962240052416
 20
0.0443015272112309
 30
0.0
 40
0.0178753235658838
 50
213.433287883759
 51
270.015999253463
  0
ARC
  8
2
  6
CONTINUOUS
 62
2
 10
-0.199781749113398
 20
0.0444144835839802
 30
0.0
 40
0.0181193539589947
 50
263.104148598808
 51
34.0979167513601
  0
ARC
  8
2
  6
CONTINUOUS
 62
2
 10
-0.202533395574547
 20
0.0391244510199522
 30
0.0
 40
0.0235353121026384
 50
41.0237111689329
 51
127.558530040726
  0
LINE
  8
2
  6
CONTINUOUS
 62
2
 10
-0.216879852368669
 20
0.0577816237217027
 30
0.0
 11
-0.216879852368669
 21
0.0826619439747907
 31
0.0
  0
LINE
  8
2
  6
CONTINUOUS
 62
2
 10
-0.216879852368669
 20
0.0826619439747907
 30
0.0
 11
-0.182914044497455
 21
0.0826619439747907
 31
0.0
  0
ARC
  8
2
  6
CONTINUOUS
 62
2
 10
-0.161432948877903
 20
0.0403601801054048
 30
0.0
 40
0.0137770358788089
 50
199.465441458875
 51
268.514572046544
  0
ARC
  8
2
  6
CONTINUOUS
 62
2
 10
-0.122631616386242
 20
0.0545998576740037
 30
0.0
 40
0.0551080217414745
 50
160.019185139364
 51
199.980814860636
  0
ARC
  8
2
  6
CONTINUOUS
 62
2
 10
-0.161369424268607
 20
0.0688234953071474
 30
0.0
 40
0.0138422760303487
 50
19.4473483225567
 51
160.559582801478
  0
ARC
  8
2
  6
CONTINUOUS
 62
2
 10
-0.200107215465109
 20
0.0545998577797834
 30
0.0
 40
0.0551080217414703
 50
340.017438400847
 51
19.9825615991529
  0
ARC
  8
2
  6
CONTINUOUS
 62
2
 10
-0.161260912379336
 20
0.0402854782475963
 30
0.0
 40
0.013709835068824
 50
271.354984375407
 51
340.759261725178
  0
LINE
  8
2
  6
CONTINUOUS
 62
2
 10
-0.193259354099621
 20
-0.519182653007057
 30
0.0
 11
-0.193259354099621
 21
-0.463003453029529
 31
0.0
  0
LINE
  8
2
  6
CONTINUOUS
 62
2
 10
-0.193259354099621
 20
-0.463003453029529
 30
0.0
 11
-0.222352154087983
 21
-0.505940413012353
 31
0.0
  0
LINE
  8
2
  6
CONTINUOUS
 62
2
 10
-0.222352154087983
 20
-0.505940413012353
 30
0.0
 11
-0.185033114102911
 21
-0.505940413012353
 31
0.0
  0
LINE
  8
2
  6
CONTINUOUS
 62
2
 10
-0.179415194102911
 20
-0.463003488322785
 30
0.0
 11
-0.145707676227507
 21
-0.463003488322785
 31
0.0
  0
ARC
  8
2
  6
CONTINUOUS
 62
2
 10
-0.0604707460224859
 20
-0.519192226725918
 30
0.0
 40
0.102090688087171
 50
146.60686951312
 51
179.994700000001
  0
LINE
  8
2
  6
CONTINUOUS
 62
2
 10
-1.00122196532248
 20
-0.0238855854874763
 30
0.0
 11
-1.00122196532248
 21
-0.055950528690157
 31
0.0
  0
LINE
  8
2
  6
CONTINUOUS
 62
2
 10
-1.07059152238362
 20
-0.055950528690157
 30
0.0
 11
-1.07059152238362
 21
-0.046108008690157
 31
0.0
  0
ARC
  8
2
  6
CONTINUOUS
 62
2
 10
-1.03590674385305
 20
-0.0238855854874735
 30
0.0
 40
0.0346847785305703
 50
56.5753290044357
 51
179.999999999998
  0
LINE
  8
2
  6
CONTINUOUS
 62
2
 10
-0.975505525165854
 20
-0.055950528690157
 30
0.0
 11
-0.975506367869005
 21
-0.046108008690157
 31
0.0
  0
ARC
  8
2
  6
CONTINUOUS
 62
2
 10
-1.03590935439682
 20
-0.0238856747113982
 30
0.0
 40
0.0603986081443939
 50
51.6168731434333
 51
180.00032536514
  0
ARC
  8
2
  6
CONTINUOUS
 62
2
 10
-1.03590935439682
 20
-0.0238856747113998
 30
0.0
 40
0.0603986081443957
 50
46.154452264574
 51
51.6168731434338
  0
LINE
  8
2
  6
CONTINUOUS
 62
2
 10
-0.978338655673867
 20
-0.173911191374973
 30
0.0
 11
-0.978338655673867
 21
-0.164068671374973
 31
0.0
  0
LINE
  8
2
  6
CONTINUOUS
 62
2
 10
-1.07176929212188
 20
-0.173911191374973
 30
0.0
 11
-1.07176929212188
 21
-0.164068671374973
 31
0.0
  0
LINE
  8
2
  6
CONTINUOUS
 62
2
 10
-1.09630796254025
 20
-0.253178984641944
 30
0.0
 11
-0.944010722968038
 21
-0.281832831010642
 31
0.0
  0
ARC
  8
2
  6
CONTINUOUS
 62
2
 10
-1.03590935439683
 20
-0.0238856747114089
 30
0.0
 40
0.0603986081444084
 50
44.9999999999997
 51
46.1544522645736
  0
ARC
  8
3
  6
CONTINUOUS
 62
3
 10
-1.03807061267433
 20
0.114901393714677
 30
0.0
 40
0.0582366054992007
 50
270.000651683589
 51
333.183935420116
  0
ARC
  8
3
  6
CONTINUOUS
 62
3
 10
-1.03806995028976
 20
0.114902692417464
 30
0.0
 40
0.0582379041982214
 50
89.9999999999995
 51
218.136472437913
  0
LINE
  8
3
  6
CONTINUOUS
 62
3
 10
-1.03806995028976
 20
0.145577975381264
 30
0.0
 11
-1.03806995028976
 21
0.173140596615686
 31
0.0
  0
ARC
  8
3
  6
CONTINUOUS
 62
3
 10
-1.03806995028976
 20
0.114903016574273
 30
0.0
 40
0.0306749588069905
 50
89.9999999999997
 51
211.886205064135
  0
ARC
  8
3
  6
CONTINUOUS
 62
3
 10
-1.03806912374604
 20
0.114904898718218
 30
0.0
 40
0.030676840962071
 50
269.99845624697
 51
333.182376586097
  0
LINE
  8
3
  6
CONTINUOUS
 62
3
 10
-0.99041673836591
 20
0.141177438650933
 30
0.0
 11
-1.01069166622721
 21
0.10106497851554
 31
0.0
  0
ARC
  8
3
  6
CONTINUOUS
 62
3
 10
-0.938442399508838
 20
0.11490220523456
 30
0.0
 40
0.0582384734579751
 50
51.8630504489859
 51
153.18146629567
  0
ARC
  8
3
  6
CONTINUOUS
 62
3
 10
-0.938441435659443
 20
0.114902584365195
 30
0.0
 40
0.058237580041412
 50
269.999999999997
 51
45
  0
LINE
  8
3
  6
CONTINUOUS
 62
3
 10
-0.938441435659445
 20
0.0842278416627433
 30
0.0
 11
-0.938441435659445
 21
0.0566650043237824
 31
0.0
  0
ARC
  8
3
  6
CONTINUOUS
 62
3
 10
-0.938441435659445
 20
0.114902692417464
 30
0.0
 40
0.030674850754721
 50
269.999999999998
 51
58.1138419531486
  0
ARC
  8
3
  6
CONTINUOUS
 62
3
 10
-0.938441654220917
 20
0.114902985562833
 30
0.0
 40
0.0306747172985047
 50
58.1132060817713
 51
153.183793366055
  0
LINE
  8
3
  6
CONTINUOUS
 62
3
 10
-0.986096808628676
 20
0.0886292428112305
 30
0.0
 11
-0.965817558676601
 21
0.128741270737544
 31
0.0
  0
LINE
  8
3
  6
CONTINUOUS
 62
3
 10
-0.963642505255511
 20
0.284241735365953
 30
0.0
 11
-0.953799985255511
 21
0.286303287233479
 31
0.0
  0
LINE
  8
3
  6
CONTINUOUS
 62
3
 10
-1.06894048370466
 20
0.262186688069272
 30
0.0
 11
-0.95379998525551
 21
0.237431691821369
 31
0.0
  0
LINE
  8
3
  6
CONTINUOUS
 62
3
 10
-0.880186135045826
 20
0.193292128785139
 30
0.0
 11
-0.880186135045826
 21
0.221604848874887
 31
0.0
  0
LINE
  8
3
  6
CONTINUOUS
 62
3
 10
-1.09630796254025
 20
0.243311469307928
 30
0.0
 11
-0.880186135045826
 21
0.193292128785139
 31
0.0
  0
LINE
  8
3
  6
CONTINUOUS
 62
3
 10
-1.09630796254025
 20
0.282949147770849
 30
0.0
 11
-1.09630796254025
 21
0.243311469307928
 31
0.0
  0
LINE
  8
3
  6
CONTINUOUS
 62
3
 10
-0.880186135045826
 20
0.332969136607253
 30
0.0
 11
-1.09630796254025
 21
0.282949147770849
 31
0.0
  0
LINE
  8
3
  6
CONTINUOUS
 62
3
 10
-0.880186135045826
 20
0.301824582636732
 30
0.0
 11
-0.880186135045826
 21
0.332969136607253
 31
0.0
  0
LINE
  8
3
  6
CONTINUOUS
 62
3
 10
-0.929263475882545
 20
0.291443136681405
 30
0.0
 11
-0.880186135045826
 21
0.301824582636732
 31
0.0
  0
LINE
  8
3
  6
CONTINUOUS
 62
3
 10
-0.929263475882546
 20
0.239882783482971
 30
0.0
 11
-0.929263475882545
 21
0.291443136681405
 31
0.0
  0
LINE
  8
3
  6
CONTINUOUS
 62
3
 10
-0.953799985255511
 20
0.286303287233479
 30
0.0
 11
-0.95379998525551
 21
0.237431691821369
 31
0.0
  0
LINE
  8
3
  6
CONTINUOUS
 62
3
 10
-0.890028655045825
 20
0.389819936914094
 30
0.0
 11
-1.07176929212188
 21
0.389819936914094
 31
0.0
  0
LINE
  8
3
  6
CONTINUOUS
 62
3
 10
-0.880186135045826
 20
0.360563272197425
 30
0.0
 11
-0.880186135045826
 21
0.389819936914094
 31
0.0
  0
LINE
  8
3
  6
CONTINUOUS
 62
3
 10
-1.07176929212188
 20
0.360563272197425
 30
0.0
 11
-0.880186135045826
 21
0.360563272197425
 31
0.0
  0
LINE
  8
3
  6
CONTINUOUS
 62
3
 10
-1.07176929212188
 20
0.310543499465557
 30
0.0
 11
-1.07176929212188
 21
0.360563272197425
 31
0.0
  0
LINE
  8
3
  6
CONTINUOUS
 62
3
 10
-1.09630796254025
 20
0.310543499465557
 30
0.0
 11
-1.07176929212188
 21
0.310543499465557
 31
0.0
  0
LINE
  8
3
  6
CONTINUOUS
 62
3
 10
-1.09630796254025
 20
0.320386019465556
 30
0.0
 11
-1.09630796254025
 21
0.310543499465557
 31
0.0
  0
LINE
  8
3
  6
CONTINUOUS
 62
3
 10
-1.07176929212188
 20
0.44078300595927
 30
0.0
 11
-1.09630796254025
 21
0.44078300595927
 31
0.0
  0
LINE
  8
3
  6
CONTINUOUS
 62
3
 10
-1.07176929212188
 20
0.399662456914094
 30
0.0
 11
-1.07176929212188
 21
0.44078300595927
 31
0.0
  0
LINE
  8
3
  6
CONTINUOUS
 62
3
 10
-0.216879852368669
 20
0.62833450756797
 30
0.0
 11
-0.199188502534557
 21
0.601702368032748
 31
0.0
  0
LINE
  8
3
  6
CONTINUOUS
 62
3
 10
-0.198220332376134
 20
0.572155307590441
 30
0.0
 11
-0.198220332376134
 21
0.600244907579204
 31
0.0
  0
LINE
  8
3
  6
CONTINUOUS
 62
3
 10
-0.198220332376134
 20
0.600244907579204
 30
0.0
 11
-0.179560812383597
 21
0.62833450756797
 31
0.0
  0
LINE
  8
3
  6
CONTINUOUS
 62
3
 10
-0.183894636381863
 20
0.135619879248893
 30
0.0
 11
-0.216839724368684
 21
0.135619879248893
 31
0.0
  0
LINE
  8
3
  6
CONTINUOUS
 62
3
 10
-0.216839724368684
 20
0.135619879248893
 30
0.0
 11
-0.216859788368677
 21
0.163709479237658
 31
0.0
  0
LINE
  8
3
  6
CONTINUOUS
 62
3
 10
-0.216859788368677
 20
0.163709479237658
 30
0.0
 11
-0.191117676378973
 21
0.163709479237658
 31
0.0
  0
LINE
  8
3
  6
CONTINUOUS
 62
3
 10
-0.216860991869738
 20
0.164551692724657
 30
0.0
 11
-0.216879852368669
 21
0.191799079226422
 31
0.0
  0
LINE
  8
3
  6
CONTINUOUS
 62
3
 10
-0.216879852368669
 20
0.191799079226422
 30
0.0
 11
-0.186703596381863
 21
0.191799079226422
 31
0.0
  0
ARC
  8
3
  6
CONTINUOUS
 62
3
 10
-0.201305322451499
 20
-0.393888011352343
 30
0.0
 40
0.0161945091199224
 50
210.521999666246
 51
269.441063338041
  0
LINE
  8
3
  6
CONTINUOUS
 62
3
 10
-0.201463301998658
 20
-0.410081749898396
 30
0.0
 11
-0.195738364314087
 21
-0.41013760005193
 31
0.0
  0
ARC
  8
3
  6
CONTINUOUS
 62
3
 10
-0.195594145084434
 20
-0.395354357791244
 30
0.0
 40
0.0147839457156865
 50
269.44106367777
 51
357.350682656722
  0
ARC
  8
3
  6
CONTINUOUS
 62
3
 10
-0.19285140024359
 20
-0.397128359308191
 30
0.0
 40
0.0120747559631735
 50
5.18227244383122
 51
59.3448299999933
  0
LINE
  8
3
  6
CONTINUOUS
 62
3
 10
-0.186694844583153
 20
-0.386741032704577
 30
0.0
 11
-0.208805137350808
 21
-0.377244806906542
 31
0.0
  0
ARC
  8
3
  6
CONTINUOUS
 62
3
 10
-0.202648577662763
 20
-0.366857485549567
 30
0.0
 40
0.0120747535033034
 50
185.182406440216
 51
239.344800865817
  0
ARC
  8
3
  6
CONTINUOUS
 62
3
 10
-0.199965011318142
 20
-0.368592435957209
 30
0.0
 40
0.0147230638875712
 50
91.2613438550487
 51
177.491952931064
  0
LINE
  8
3
  6
CONTINUOUS
 62
3
 10
-0.20028910754859
 20
-0.353872939638689
 30
0.0
 11
-0.194577783551215
 21
-0.353866934040374
 31
0.0
  0
ARC
  8
3
  6
CONTINUOUS
 62
3
 10
-0.195087850221329
 20
-0.369541109883426
 30
0.0
 40
0.0156824729034333
 50
29.2717084966225
 51
88.1361471074743
  0
LINE
  8
3
  6
CONTINUOUS
 62
3
 10
-0.171211581196377
 20
-0.353869630258786
 30
0.0
 11
-0.171211581196377
 21
-0.410048830236315
 31
0.0
  0
LINE
  8
3
  6
CONTINUOUS
 62
3
 10
-0.169526205196377
 20
-0.381959230247551
 30
0.0
 11
-0.138852361996377
 21
-0.381959230247551
 31
0.0
  0
LINE
  8
3
  6
CONTINUOUS
 62
3
 10
-0.137102781210021
 20
-0.410048830236315
 30
0.0
 11
-0.137102781210021
 21
-0.353869630258786
 31
0.0
  0
LINE
  8
3
  6
CONTINUOUS
 62
3
 10
-0.12838022349492
 20
-0.410048833882404
 30
0.0
 11
-0.112329027261936
 21
-0.410048833882404
 31
0.0
  0
LINE
  8
3
  6
CONTINUOUS
 62
3
 10
-0.120354627258725
 20
-0.408363457904876
 30
0.0
 11
-0.120354627258725
 21
-0.355555009904876
 31
0.0
  0
LINE
  8
3
  6
CONTINUOUS
 62
3
 10
-0.12838022349492
 20
-0.353869633904875
 30
0.0
 11
-0.112413501210021
 21
-0.353869633904875
 31
0.0
  0
LINE
  8
3
  6
CONTINUOUS
 62
3
 10
-0.0781109110880759
 20
-0.381957968372577
 30
0.0
 11
-0.102155608688076
 21
-0.381957968372577
 31
0.0
  0
LINE
  8
3
  6
CONTINUOUS
 62
3
 10
-0.103832959077787
 20
-0.41004756836134
 30
0.0
 11
-0.103832959077787
 21
-0.353868368383813
 31
0.0
  0
LINE
  8
3
  6
CONTINUOUS
 62
3
 10
-0.103832959077787
 20
-0.353868368383813
 30
0.0
 11
-0.0736968310909627
 21
-0.353868368383813
 31
0.0
  0
LINE
  8
3
  6
CONTINUOUS
 62
3
 10
-0.0446515492488157
 20
-0.410048826321861
 30
0.0
 11
-0.0446515492488157
 21
-0.35557356811957
 31
0.0
  0
LINE
  8
3
  6
CONTINUOUS
 62
3
 10
-0.0626088332544322
 20
-0.353869626344332
 30
0.0
 11
-0.0266942732687982
 21
-0.353869626344332
 31
0.0
  0
LINE
  8
3
  6
CONTINUOUS
 62
3
 10
0.093501227162653
 20
-0.41004941498556
 30
0.0
 11
0.0605561391758318
 21
-0.41004941498556
 31
0.0
  0
LINE
  8
3
  6
CONTINUOUS
 62
3
 10
0.0605561391758318
 20
-0.41004941498556
 30
0.0
 11
0.0605360751758391
 21
-0.381959814996796
 31
0.0
  0
LINE
  8
3
  6
CONTINUOUS
 62
3
 10
0.0605360751758391
 20
-0.381959814996796
 30
0.0
 11
0.086278187165542
 21
-0.381959814996796
 31
0.0
  0
LINE
  8
3
  6
CONTINUOUS
 62
3
 10
0.0605348716747776
 20
-0.381117601509797
 30
0.0
 11
0.0605160111758473
 21
-0.353870215008031
 31
0.0
  0
LINE
  8
3
  6
CONTINUOUS
 62
3
 10
0.0605160111758473
 20
-0.353870215008031
 30
0.0
 11
0.090692267162653
 21
-0.353870215008031
 31
0.0
  0
LINE
  8
3
  6
CONTINUOUS
 62
3
 10
-0.132347003632476
 20
-0.628317127199106
 30
0.0
 11
-0.165292091619297
 21
-0.628317127199106
 31
0.0
  0
LINE
  8
3
  6
CONTINUOUS
 62
3
 10
-0.165292091619297
 20
-0.628317127199106
 30
0.0
 11
-0.16531215561929
 21
-0.60022752721034
 31
0.0
  0
LINE
  8
3
  6
CONTINUOUS
 62
3
 10
-0.16531215561929
 20
-0.60022752721034
 30
0.0
 11
-0.139570043629587
 21
-0.60022752721034
 31
0.0
  0
LINE
  8
3
  6
CONTINUOUS
 62
3
 10
-0.165313359120352
 20
-0.599385313723342
 30
0.0
 11
-0.165332219619282
 21
-0.572137927221578
 31
0.0
  0
LINE
  8
3
  6
CONTINUOUS
 62
3
 10
-0.165332219619282
 20
-0.572137927221578
 30
0.0
 11
-0.135155963632476
 21
-0.572137927221578
 31
0.0
  0
LINE
  8
3
  6
CONTINUOUS
 62
3
 10
-0.128798843632476
 20
-0.628316542472333
 30
0.0
 11
-0.128798837149108
 21
-0.572137349358252
 31
0.0
  0
LINE
  8
3
  6
CONTINUOUS
 62
3
 10
-0.128798837149108
 20
-0.572137349358252
 30
0.0
 11
-0.0943021331629064
 21
-0.628316549335782
 31
0.0
  0
LINE
  8
3
  6
CONTINUOUS
 62
3
 10
-0.0943021331629064
 20
-0.628316549335782
 30
0.0
 11
-0.0943021331629064
 21
-0.572137349358252
 31
0.0
  0
LINE
  8
3
  6
CONTINUOUS
 62
3
 10
-0.0652568513207595
 20
-0.628316538535406
 30
0.0
 11
-0.0652568513207595
 21
-0.573841280333117
 31
0.0
  0
LINE
  8
3
  6
CONTINUOUS
 62
3
 10
-0.0832141353263764
 20
-0.572137338557879
 30
0.0
 11
-0.0472995753407423
 21
-0.572137338557879
 31
0.0
  0
LINE
  8
3
  6
CONTINUOUS
 62
3
 10
-0.00813148089644992
 20
-0.628317127199106
 30
0.0
 11
-0.0410765688832712
 21
-0.628317127199106
 31
0.0
  0
LINE
  8
3
  6
CONTINUOUS
 62
3
 10
-0.0410765688832712
 20
-0.628317127199106
 30
0.0
 11
-0.0410966328832639
 21
-0.60022752721034
 31
0.0
  0
LINE
  8
3
  6
CONTINUOUS
 62
3
 10
-0.0410966328832639
 20
-0.60022752721034
 30
0.0
 11
-0.0153545208935606
 21
-0.60022752721034
 31
0.0
  0
LINE
  8
3
  6
CONTINUOUS
 62
3
 10
-0.0410978363843254
 20
-0.599385313723342
 30
0.0
 11
-0.0411166968832558
 21
-0.572137927221578
 31
0.0
  0
LINE
  8
3
  6
CONTINUOUS
 62
3
 10
-0.0411166968832558
 20
-0.572137927221578
 30
0.0
 11
-0.0109404408964498
 21
-0.572137927221578
 31
0.0
  0
LINE
  8
3
  6
CONTINUOUS
 62
3
 10
-0.00251356089645002
 20
-0.62831654244986
 30
0.0
 11
-0.00251356089645002
 21
-0.572137342472332
 31
0.0
  0
LINE
  8
3
  6
CONTINUOUS
 62
3
 10
-0.00251356089645002
 20
-0.572137342472332
 30
0.0
 11
0.0178714630953984
 21
-0.572137342472332
 31
0.0
  0
ARC
  8
3
  6
CONTINUOUS
 62
3
 10
0.0176007880959813
 20
-0.586182121675009
 30
0.0
 40
0.0140473872235111
 50
271.095264000527
 51
88.8959160393169
  0
LINE
  8
3
  6
CONTINUOUS
 62
3
 10
0.0178693010761883
 20
-0.600226942378268
 30
0.0
 11
-0.000669834923812125
 21
-0.600226942378268
 31
0.0
  0
LINE
  8
3
  6
CONTINUOUS
 62
3
 10
0.0186696953156666
 20
-0.601827493783436
 30
0.0
 11
0.0319162630897789
 21
-0.62831654244986
 31
0.0
  0
LINE
  8
3
  6
CONTINUOUS
 62
3
 10
-0.132347003632476
 20
-0.0826478368791057
 30
0.0
 11
-0.165292091619297
 21
-0.0826478368791057
 31
0.0
  0
LINE
  8
3
  6
CONTINUOUS
 62
3
 10
-0.165292091619297
 20
-0.0826478368791057
 30
0.0
 11
-0.16531215561929
 21
-0.0545582368903416
 31
0.0
  0
LINE
  8
3
  6
CONTINUOUS
 62
3
 10
-0.16531215561929
 20
-0.0545582368903416
 30
0.0
 11
-0.139570043629587
 21
-0.0545582368903416
 31
0.0
  0
LINE
  8
3
  6
CONTINUOUS
 62
3
 10
-0.165313359120352
 20
-0.0537160234033419
 30
0.0
 11
-0.165332219619282
 21
-0.0264686369015775
 31
0.0
  0
LINE
  8
3
  6
CONTINUOUS
 62
3
 10
-0.165332219619282
 20
-0.0264686369015775
 30
0.0
 11
-0.135155963632475
 21
-0.0264686369015775
 31
0.0
  0
LINE
  8
3
  6
CONTINUOUS
 62
3
 10
-0.128798843632476
 20
-0.0826472521523318
 30
0.0
 11
-0.128798837149108
 21
-0.026468059038253
 31
0.0
  0
LINE
  8
3
  6
CONTINUOUS
 62
3
 10
-0.128798837149108
 20
-0.026468059038253
 30
0.0
 11
-0.094302133162906
 21
-0.0826472590157807
 31
0.0
  0
LINE
  8
3
  6
CONTINUOUS
 62
3
 10
-0.094302133162906
 20
-0.0826472590157807
 30
0.0
 11
-0.094302133162906
 21
-0.026468059038253
 31
0.0
  0
LINE
  8
3
  6
CONTINUOUS
 62
3
 10
-0.0652568513207591
 20
-0.0826472482154065
 30
0.0
 11
-0.0652568513207591
 21
-0.0281719900131156
 31
0.0
  0
LINE
  8
3
  6
CONTINUOUS
 62
3
 10
-0.0832141353263757
 20
-0.0264680482378782
 30
0.0
 11
-0.0472995753407419
 21
-0.0264680482378782
 31
0.0
  0
LINE
  8
3
  6
CONTINUOUS
 62
3
 10
-0.00813148089644942
 20
-0.0826478368791057
 30
0.0
 11
-0.0410765688832707
 21
-0.0826478368791057
 31
0.0
  0
LINE
  8
3
  6
CONTINUOUS
 62
3
 10
-0.0410765688832707
 20
-0.0826478368791057
 30
0.0
 11
-0.0410966328832634
 21
-0.0545582368903416
 31
0.0
  0
LINE
  8
3
  6
CONTINUOUS
 62
3
 10
-0.0410966328832634
 20
-0.0545582368903416
 30
0.0
 11
-0.0153545208935603
 21
-0.0545582368903416
 31
0.0
  0
LINE
  8
3
  6
CONTINUOUS
 62
3
 10
-0.0410978363843249
 20
-0.0537160234033419
 30
0.0
 11
-0.0411166968832554
 21
-0.0264686369015775
 31
0.0
  0
LINE
  8
3
  6
CONTINUOUS
 62
3
 10
-0.0411166968832554
 20
-0.0264686369015775
 30
0.0
 11
-0.0109404408964495
 21
-0.0264686369015775
 31
0.0
  0
LINE
  8
3
  6
CONTINUOUS
 62
3
 10
-0.00251356089644962
 20
-0.0826472521298602
 30
0.0
 11
-0.00251356089644962
 21
-0.0264680521523318
 31
0.0
  0
LINE
  8
3
  6
CONTINUOUS
 62
3
 10
-0.00251356089644962
 20
-0.0264680521523318
 30
0.0
 11
0.0178714630953988
 21
-0.0264680521523314
 31
0.0
  0
ARC
  8
3
  6
CONTINUOUS
 62
3
 10
0.0176007880959817
 20
-0.0405128313550085
 30
0.0
 40
0.014047387223511
 50
271.095264000527
 51
88.895916039317
  0
LINE
  8
3
  6
CONTINUOUS
 62
3
 10
0.0178693010761888
 20
-0.0545576520582684
 30
0.0
 11
-0.000669834923811723
 21
-0.0545576520582684
 31
0.0
  0
LINE
  8
3
  6
CONTINUOUS
 62
3
 10
0.0186696953156675
 20
-0.0561582034634358
 30
0.0
 11
0.0319162630897793
 21
-0.0826472521298602
 31
0.0
  0
ARC
  8
3
  6
CONTINUOUS
 62
3
 10
-0.201305322451499
 20
0.479182853159658
 30
0.0
 40
0.0161945091199224
 50
210.521999666255
 51
269.441063338047
  0
LINE
  8
3
  6
CONTINUOUS
 62
3
 10
-0.201463301998658
 20
0.462989114613606
 30
0.0
 11
-0.195738364314087
 21
0.46293326446007
 31
0.0
  0
ARC
  8
3
  6
CONTINUOUS
 62
3
 10
-0.195594145084434
 20
0.477716506720756
 30
0.0
 40
0.0147839457156863
 50
269.441063677768
 51
357.35068265672
  0
ARC
  8
3
  6
CONTINUOUS
 62
3
 10
-0.19285140024359
 20
0.475942505203809
 30
0.0
 40
0.0120747559631736
 50
5.18227244382925
 51
59.3448299999914
  0
LINE
  8
3
  6
CONTINUOUS
 62
3
 10
-0.186694844583153
 20
0.486329831807423
 30
0.0
 11
-0.208805137350807
 21
0.49582605760546
 31
0.0
  0
ARC
  8
3
  6
CONTINUOUS
 62
3
 10
-0.202648577662763
 20
0.506213378962435
 30
0.0
 40
0.0120747535033035
 50
185.182406440209
 51
212.263603653009
  0
ARC
  8
3
  6
CONTINUOUS
 62
3
 10
-0.199965011318141
 20
0.504478428554793
 30
0.0
 40
0.0147230638875711
 50
91.2613438550533
 51
177.491952931065
  0
LINE
  8
3
  6
CONTINUOUS
 62
3
 10
-0.20028910754859
 20
0.519197924873311
 30
0.0
 11
-0.194577783551215
 21
0.519203930471628
 31
0.0
  0
ARC
  8
3
  6
CONTINUOUS
 62
3
 10
-0.195087850221329
 20
0.503529754628574
 30
0.0
 40
0.0156824729034334
 50
29.2717084966219
 51
88.1361471074738
  0
ARC
  8
3
  6
CONTINUOUS
 62
3
 10
0.123849712166699
 20
0.483499681717098
 30
0.0
 40
0.0206598446125362
 50
204.386837236998
 51
324.319999999994
  0
ARC
  8
3
  6
CONTINUOUS
 62
3
 10
0.152438420922181
 20
0.491020532527293
 30
0.0
 40
0.0500489658039823
 50
161.294134617644
 51
198.705865382356
  0
ARC
  8
3
  6
CONTINUOUS
 62
3
 10
0.123849716179499
 20
0.49854138562788
 30
0.0
 40
0.0206598486253362
 50
35.6800299999878
 51
155.613174782252
  0
ARC
  8
3
  6
CONTINUOUS
 62
3
 10
-0.202648577662763
 20
0.506213378962435
 30
0.0
 40
0.0120747535033034
 50
212.263603653014
 51
239.344800865816
  0
LINE
  8
3
  6
CONTINUOUS
 62
3
 10
-0.880186135045826
 20
0.221604848874887
 30
0.0
 11
-0.929263475882546
 21
0.232156387253076
 31
0.0
  0
LINE
  8
3
  6
CONTINUOUS
 62
3
 10
-0.880186135045826
 20
0.389819936914094
 30
0.0
 11
-0.890028655045825
 21
0.389819936914094
 31
0.0
  0
LINE
  8
3
  6
CONTINUOUS
 62
3
 10
-1.09630796254025
 20
0.44078300595927
 30
0.0
 11
-1.09630796254025
 21
0.320386019465556
 31
0.0
  0
LINE
  8
3
  6
CONTINUOUS
 62
3
 10
-1.07176929212188
 20
0.389819936914094
 30
0.0
 11
-1.07176929212188
 21
0.399662456914094
 31
0.0
  0
LINE
  8
3
  6
CONTINUOUS
 62
3
 10
-1.06894048370466
 20
0.262186688069272
 30
0.0
 11
-1.05073724917499
 21
0.265999422220653
 31
0.0
  0
LINE
  8
3
  6
CONTINUOUS
 62
3
 10
-1.05073724917499
 20
0.265999422220653
 30
0.0
 11
-0.963642505255511
 21
0.284241735365953
 31
0.0
  0
LINE
  8
3
  6
CONTINUOUS
 62
3
 10
-0.929263475882546
 20
0.232156387253076
 30
0.0
 11
-0.929263475882546
 21
0.239882783482971
 31
0.0
  0
ARC
  8
3
  6
CONTINUOUS
 62
3
 10
-1.03806995028976
 20
0.114903016574273
 30
0.0
 40
0.0306749588069905
 50
211.886205064133
 51
269.999999999998
  0
ARC
  8
3
  6
CONTINUOUS
 62
3
 10
-1.03806995028976
 20
0.114902692417461
 30
0.0
 40
0.0582379041982179
 50
218.136472437912
 51
224.999999999999
  0
ARC
  8
3
  6
CONTINUOUS
 62
3
 10
-0.938441435659442
 20
0.114902584365199
 30
0.0
 40
0.0582375800414066
 50
44.9999999999995
 51
51.863565949035
  0
ARC
  8
3
  6
CONTINUOUS
 62
3
 10
-1.03806995028976
 20
0.114902692417464
 30
0.0
 40
0.0582379041982219
 50
224.999999999998
 51
269.999999999998
  0
LINE
  8
4
  6
CONTINUOUS
 62
4
 10
-1.09630796254025
 20
0.461534660433892
 30
0.0
 11
-1.09630796254025
 21
0.490790460732409
 31
0.0
  0
LINE
  8
4
  6
CONTINUOUS
 62
4
 10
-0.880186135045826
 20
0.490790460732409
 30
0.0
 11
-0.880186135045826
 21
0.461534660433892
 31
0.0
  0
LINE
  8
4
  6
CONTINUOUS
 62
4
 10
0.629921259599997
 20
-0.787401574799998
 30
0.0
 11
-0.629921260000005
 21
-0.787401574800002
 31
0.0
  0
LINE
  8
4
  6
CONTINUOUS
 62
4
 10
0.787401574800006
 20
-0.629921259600006
 30
0.0
 11
0.787401574799999
 21
0.629921259599999
 31
0.0
  0
LINE
  8
4
  6
CONTINUOUS
 62
4
 10
-1.09630796254025
 20
0.490790460732409
 30
0.0
 11
-0.880186135045826
 21
0.490790460732409
 31
0.0
  0
LINE
  8
4
  6
CONTINUOUS
 62
4
 10
-1.09630796254025
 20
0.461534660433892
 30
0.0
 11
-0.880186135045826
 21
0.461534660433892
 31
0.0
  0
ARC
  8
4
  6
CONTINUOUS
 62
4
 10
-0.629921259600009
 20
0.629921259600002
 30
0.0
 40
0.1574803152
 50
89.9999999999968
 51
180
  0
ARC
  8
4
  6
CONTINUOUS
 62
4
 10
0.629921259599999
 20
0.62992125960003
 30
0.0
 40
0.1574803152
 50
359.999999999988
 51
89.9999999999967
  0
ARC
  8
4
  6
CONTINUOUS
 62
4
 10
0.629921259600028
 20
-0.629921259599998
 30
0.0
 40
0.1574803152
 50
269.999999999985
 51
359.999999999991
  0
ARC
  8
4
  6
CONTINUOUS
 62
4
 10
-0.62992126004141
 20
-0.629921260041436
 30
0.0
 40
0.15748031475859
 50
179.999999984919
 51
270.000000015052
  0
LINE
  8
4
  6
CONTINUOUS
 62
4
 10
-0.787401574799999
 20
0.629921259600002
 30
0.0
 11
-0.787401574800001
 21
-0.629921259599999
 31
0.0
  0
LINE
  8
4
  6
CONTINUOUS
 62
4
 10
-0.629921259599999
 20
0.787401574800002
 30
0.0
 11
0.629921259599998
 21
0.787401574800002
 31
0.0
  0
ARC
  8
4
  6
CONTINUOUS
 62
4
 10
-1.03806995028976
 20
0.569179032681926
 30
0.0
 40
0.0306748507547209
 50
89.9999999999997
 51
211.886158046851
  0
LINE
  8
4
  6
CONTINUOUS
 62
4
 10
-0.938441435659445
 20
0.538504181927205
 30
0.0
 11
-1.03806995028976
 21
0.538504181927205
 31
0.0
  0
ARC
  8
4
  6
CONTINUOUS
 62
4
 10
-1.03806995028976
 20
0.56917816826377
 30
0.0
 40
0.0582379041982211
 50
89.9999999999996
 51
218.136472437913
  0
LINE
  8
4
  6
CONTINUOUS
 62
4
 10
-0.938441435659445
 20
0.627416072461991
 30
0.0
 11
-1.03806995028976
 21
0.627416072461991
 31
0.0
  0
LINE
  8
4
  6
CONTINUOUS
 62
4
 10
-0.952544686752194
 20
0.750438119557798
 30
0.0
 11
-0.910387140377249
 21
0.750438119557798
 31
0.0
  0
LINE
  8
4
  6
CONTINUOUS
 62
4
 10
-0.880186135045826
 20
0.732503819959832
 30
0.0
 11
-0.880186135045826
 21
0.778748030288535
 31
0.0
  0
LINE
  8
4
  6
CONTINUOUS
 62
4
 10
-1.02989179143743
 20
0.68572046757126
 30
0.0
 11
-0.880186135045826
 21
0.732503819959832
 31
0.0
  0
LINE
  8
4
  6
CONTINUOUS
 62
4
 10
-0.890028655045826
 20
0.675877947571261
 30
0.0
 11
-1.06138763006201
 21
0.67587794757126
 31
0.0
  0
LINE
  8
4
  6
CONTINUOUS
 62
4
 10
-0.880186135045826
 20
0.64756609189967
 30
0.0
 11
-0.880186135045826
 21
0.67587794757126
 31
0.0
  0
LINE
  8
4
  6
CONTINUOUS
 62
4
 10
-1.09630796254025
 20
0.64756609189967
 30
0.0
 11
-0.880186135045826
 21
0.64756609189967
 31
0.0
  0
LINE
  8
4
  6
CONTINUOUS
 62
4
 10
-1.09630796254025
 20
0.693810302228375
 30
0.0
 11
-1.09630796254025
 21
0.64756609189967
 31
0.0
  0
LINE
  8
4
  6
CONTINUOUS
 62
4
 10
-0.910387140377249
 20
0.750438119557798
 30
0.0
 11
-1.09630796254025
 21
0.693810302228375
 31
0.0
  0
LINE
  8
4
  6
CONTINUOUS
 62
4
 10
-0.0277300922764662
 20
0.381359503538408
 30
0.0
 11
-0.0277300922764662
 21
0.362494714114554
 31
0.0
  0
LINE
  8
4
  6
CONTINUOUS
 62
4
 10
-0.00734506223281519
 20
0.418673930770283
 30
0.0
 11
-0.0277300922764662
 21
0.418673930770282
 31
0.0
  0
ARC
  8
4
  6
CONTINUOUS
 62
4
 10
-0.00817972129676528
 20
0.404629126606351
 30
0.0
 40
0.0140695834961894
 50
273.400991681353
 51
86.599008318647
  0
LINE
  8
4
  6
CONTINUOUS
 62
4
 10
-0.0268874040262932
 20
0.390584322442418
 30
0.0
 11
-0.00734506223281519
 21
0.390584322442419
 31
0.0
  0
LINE
  8
4
  6
CONTINUOUS
 62
4
 10
0.0123176635989368
 20
0.37854623478118
 30
0.0
 11
0.0123176635989368
 21
0.418673930770282
 31
0.0
  0
ARC
  8
4
  6
CONTINUOUS
 62
4
 10
0.0287693585875928
 20
0.378811549623246
 30
0.0
 40
0.0164538342025555
 50
180.923923222638
 51
0.472476699571987
  0
LINE
  8
4
  6
CONTINUOUS
 62
4
 10
0.0452226333544349
 20
0.418673930770282
 30
0.0
 11
0.0452226333544355
 21
0.37894723091144
 31
0.0
  0
LINE
  8
4
  6
CONTINUOUS
 62
4
 10
0.0536495158561649
 20
0.418673930770282
 30
0.0
 11
0.0536495158561649
 21
0.362494714114554
 31
0.0
  0
LINE
  8
4
  6
CONTINUOUS
 62
4
 10
0.074034545899817
 20
0.418673930770283
 30
0.0
 11
0.0536495158561649
 21
0.418673930770282
 31
0.0
  0
ARC
  8
4
  6
CONTINUOUS
 62
4
 10
0.0737638708200431
 20
0.404629147398062
 30
0.0
 40
0.0140473913938292
 50
271.095264000528
 51
88.8959160393166
  0
LINE
  8
4
  6
CONTINUOUS
 62
4
 10
0.0554932423761586
 20
0.390584322525246
 30
0.0
 11
0.074032383879965
 21
0.390584322525246
 31
0.0
  0
LINE
  8
4
  6
CONTINUOUS
 62
4
 10
0.088079350063747
 20
0.362494714114554
 30
0.0
 11
0.074832778357061
 21
0.388983770644915
 31
0.0
  0
LINE
  8
4
  6
CONTINUOUS
 62
4
 10
0.095101752148521
 20
0.418673930770282
 30
0.0
 11
0.095101752148521
 21
0.362494714114554
 31
0.0
  0
LINE
  8
4
  6
CONTINUOUS
 62
4
 10
0.115486782192172
 20
0.418673930770283
 30
0.0
 11
0.095101752148521
 21
0.418673930770282
 31
0.0
  0
ARC
  8
4
  6
CONTINUOUS
 62
4
 10
0.114652123128222
 20
0.404629126606351
 30
0.0
 40
0.0140695834961894
 50
273.400991681353
 51
86.599008318647
  0
LINE
  8
4
  6
CONTINUOUS
 62
4
 10
0.095944440398694
 20
0.390584322442418
 30
0.0
 11
0.115486782192172
 21
0.390584322442419
 31
0.0
  0
LINE
  8
4
  6
CONTINUOUS
 62
4
 10
0.135149508023925
 20
0.362494714114554
 30
0.0
 11
0.135149508023925
 21
0.418673930770282
 31
0.0
  0
LINE
  8
4
  6
CONTINUOUS
 62
4
 10
0.168094605791319
 20
0.362494714114554
 30
0.0
 11
0.135149508023925
 21
0.362494714114554
 31
0.0
  0
LINE
  8
4
  6
CONTINUOUS
 62
4
 10
0.17552145445203
 20
0.362494129365134
 30
0.0
 11
0.208466552219424
 21
0.362494129365134
 31
0.0
  0
LINE
  8
4
  6
CONTINUOUS
 62
4
 10
0.175501390446081
 20
0.390583737692999
 30
0.0
 11
0.17552145445203
 21
0.362494129365134
 31
0.0
  0
LINE
  8
4
  6
CONTINUOUS
 62
4
 10
0.201243510077974
 20
0.390583737692999
 30
0.0
 11
0.175501390446081
 21
0.390583737692999
 31
0.0
  0
LINE
  8
4
  6
CONTINUOUS
 62
4
 10
0.175481326440133
 20
0.418673346020863
 30
0.0
 11
0.175500186944662
 21
0.391425951430031
 31
0.0
  0
LINE
  8
4
  6
CONTINUOUS
 62
4
 10
0.205657591385514
 20
0.418673346020863
 30
0.0
 11
0.175481326440133
 21
0.418673346020863
 31
0.0
  0
LINE
  8
4
  6
CONTINUOUS
 62
4
 10
-1.09630796254092
 20
0.778748030287432
 30
0.0
 11
-1.09630796254062
 21
0.750436174615842
 31
0.0
  0
LINE
  8
4
  6
CONTINUOUS
 62
4
 10
-0.880186135046496
 20
0.778748030289638
 30
0.0
 11
-1.09630796254092
 21
0.778748030287432
 31
0.0
  0
LINE
  8
4
  6
CONTINUOUS
 62
4
 10
-0.16779683749812
 20
0.39061931625089
 30
0.0
 11
-0.188111253391177
 21
0.39061931625089
 31
0.0
  0
ARC
  8
4
  6
CONTINUOUS
 62
4
 10
-0.167801284386027
 20
0.376557023873379
 30
0.0
 40
0.0140622930806252
 50
270.000000002506
 51
89.98188148179
  0
LINE
  8
4
  6
CONTINUOUS
 62
4
 10
-0.189798728561527
 20
0.362494730792754
 30
0.0
 11
-0.167801284385409
 21
0.362494730792754
 31
0.0
  0
LINE
  8
4
  6
CONTINUOUS
 62
4
 10
-0.189798728561527
 20
0.418673943346707
 30
0.0
 11
-0.189798728561527
 21
0.362494730792754
 31
0.0
  0
LINE
  8
4
  6
CONTINUOUS
 62
4
 10
-0.170312408149803
 20
0.418673943346707
 30
0.0
 11
-0.189798728561527
 21
0.418673943346707
 31
0.0
  0
ARC
  8
4
  6
CONTINUOUS
 62
4
 10
-0.170424777834094
 20
0.404555286179332
 30
0.0
 40
0.0141191043326348
 50
296.191824756086
 51
89.5439953928122
  0
LINE
  8
4
  6
CONTINUOUS
 62
4
 10
-0.128934381139034
 20
0.362424767373577
 30
0.0
 11
-0.145005569465897
 21
0.362424767373577
 31
0.0
  0
LINE
  8
4
  6
CONTINUOUS
 62
4
 10
-0.136969977185105
 20
0.416986464525727
 30
0.0
 11
-0.136969977185105
 21
0.364112242521427
 31
0.0
  0
LINE
  8
4
  6
CONTINUOUS
 62
4
 10
-0.129018960301152
 20
0.418673939696077
 30
0.0
 11
-0.145005569465897
 21
0.418673939696077
 31
0.0
  0
LINE
  8
4
  6
CONTINUOUS
 62
4
 10
-0.0833151646395682
 20
0.387294072778566
 30
0.0
 11
-0.107049680513161
 21
0.387294072778566
 31
0.0
  0
ARC
  8
4
  6
CONTINUOUS
 62
4
 10
-0.0833151646395653
 20
0.385606766355736
 30
0.0
 40
0.00168730642282994
 50
9.96276948421632E-11
 51
90.0000000000993
  0
LINE
  8
4
  6
CONTINUOUS
 62
4
 10
-0.0816278582167354
 20
0.381359503538408
 30
0.0
 11
-0.0816278582167354
 21
0.385606766355739
 31
0.0
  0
ARC
  8
4
  6
CONTINUOUS
 62
4
 10
-0.100779206698743
 20
0.381212534385729
 30
0.0
 40
0.0191519124008844
 50
200.855259280572
 51
0.439684280072809
  0
ARC
  8
4
  6
CONTINUOUS
 62
4
 10
-0.0712162608976359
 20
0.390462319783405
 30
0.0
 40
0.0501062916863623
 50
161.293996529298
 51
198.703982620842
  0
ARC
  8
4
  6
CONTINUOUS
 62
4
 10
-0.0998376708642873
 20
0.397991901620641
 30
0.0
 40
0.0206835123321359
 50
35.680030000002
 51
155.613174782207
  0
LINE
  8
4
  6
CONTINUOUS
 62
4
 10
0.349671404758734
 20
0.342079800685319
 30
0.0
 11
0.272065105551373
 21
0.342079800685319
 31
0.0
  0
LINE
  8
4
  6
CONTINUOUS
 62
4
 10
0.359372192175054
 20
0.351780588101639
 30
0.0
 11
0.359372192175054
 21
0.429386887284359
 31
0.0
  0
ARC
  8
4
  6
CONTINUOUS
 62
4
 10
0.272065105576013
 20
0.429386887284359
 30
0.0
 40
0.0097007874163199
 50
89.9999999999978
 51
180.000000000001
  0
ARC
  8
4
  6
CONTINUOUS
 62
4
 10
0.349671404758734
 20
0.42938688728436
 30
0.0
 40
0.00970078741632
 50
359.999999999991
 51
89.9999999999976
  0
ARC
  8
4
  6
CONTINUOUS
 62
4
 10
0.349671404758734
 20
0.351780588101639
 30
0.0
 40
0.00970078741632008
 50
269.99999999999
 51
359.99999999999
  0
ARC
  8
4
  6
CONTINUOUS
 62
4
 10
0.272065105548823
 20
0.351780588074448
 30
0.0
 40
0.00970078738912937
 50
179.999999984922
 51
270.000000015055
  0
LINE
  8
4
  6
CONTINUOUS
 62
4
 10
0.262364318159693
 20
0.429386887284359
 30
0.0
 11
0.262364318159693
 21
0.351780588101639
 31
0.0
  0
LINE
  8
4
  6
CONTINUOUS
 62
4
 10
0.272065105576014
 20
0.439087674700679
 30
0.0
 11
0.349671404758734
 21
0.439087674700679
 31
0.0
  0
LINE
  8
4
  6
CONTINUOUS
 62
4
 10
-0.0277300922764662
 20
0.418673930770282
 30
0.0
 11
-0.0277300922764662
 21
0.381359503538408
 31
0.0
  0
LINE
  8
4
  6
CONTINUOUS
 62
4
 10
-0.938441435659445
 20
0.510940264065548
 30
0.0
 11
-1.03806995028976
 21
0.510940264065548
 31
0.0
  0
ARC
  8
4
  6
CONTINUOUS
 62
4
 10
-0.938441435659444
 20
0.569179032681926
 30
0.0
 40
0.030674850754721
 50
269.999999999998
 51
58.1138419531486
  0
ARC
  8
4
  6
CONTINUOUS
 62
4
 10
-0.938441435659443
 20
0.56917816826377
 30
0.0
 40
0.058237904198221
 50
269.999999999998
 51
44.9999999999999
  0
LINE
  8
4
  6
CONTINUOUS
 62
4
 10
-1.03806995028976
 20
0.599853883436647
 30
0.0
 11
-0.938441435659445
 21
0.599853883436647
 31
0.0
  0
LINE
  8
4
  6
CONTINUOUS
 62
4
 10
-1.09630796254025
 20
0.750438119557798
 30
0.0
 11
-0.952544686752194
 21
0.750438119557798
 31
0.0
  0
LINE
  8
4
  6
CONTINUOUS
 62
4
 10
-1.06138763006201
 20
0.67587794757126
 30
0.0
 11
-1.02989179143743
 21
0.68572046757126
 31
0.0
  0
LINE
  8
4
  6
CONTINUOUS
 62
4
 10
-0.880186135045826
 20
0.67587794757126
 30
0.0
 11
-0.890028655045826
 21
0.675877947571261
 31
0.0
  0
ARC
  8
4
  6
CONTINUOUS
 62
4
 10
-1.03806995028976
 20
0.569179032681926
 30
0.0
 40
0.0306748507547212
 50
211.88615804685
 51
269.999999999999
  0
ARC
  8
4
  6
CONTINUOUS
 62
4
 10
-0.938441435659444
 20
0.569179032681928
 30
0.0
 40
0.0306748507547193
 50
58.1138419531473
 51
90
  0
ARC
  8
4
  6
CONTINUOUS
 62
4
 10
-0.938441435659444
 20
0.569178168263772
 30
0.0
 40
0.058237904198219
 50
51.8635275620862
 51
90.0000000000002
  0
ARC
  8
4
  6
CONTINUOUS
 62
4
 10
-1.03806995028976
 20
0.569178168263768
 30
0.0
 40
0.0582379041982173
 50
218.136472437914
 51
225.000000000003
  0
ARC
  8
4
  6
CONTINUOUS
 62
4
 10
-0.938441435659441
 20
0.569178168263774
 30
0.0
 40
0.0582379041982156
 50
44.9999999999998
 51
51.8635275620877
  0
ARC
  8
4
  6
CONTINUOUS
 62
4
 10
-1.03806995028976
 20
0.56917816826377
 30
0.0
 40
0.0582379041982214
 50
225
 51
269.999999999998
  0
ARC
  8
5
  6
CONTINUOUS
 62
5
 10
-0.62992126
 20
-0.629921259999992
 30
0.0
 40
0.0535433072000001
 50
359.99999999999
 51
180
  0
ARC
  8
5
  6
CONTINUOUS
 62
5
 10
-0.62992126
 20
-0.629921260000013
 30
0.0
 40
0.0535433072000001
 50
179.999999999984
 51
359.999999999986
  0
ARC
  8
5
  6
CONTINUOUS
 62
5
 10
-0.62992126
 20
0.629921259999997
 30
0.0
 40
0.0535433072000001
 50
179.999999999985
 51
359.999999999987
  0
ARC
  8
5
  6
CONTINUOUS
 62
5
 10
-0.62992126
 20
0.629921260000016
 30
0.0
 40
0.0535433072000001
 50
359.99999999999
 51
180
  0
ARC
  8
5
  6
CONTINUOUS
 62
5
 10
0.62992126
 20
-0.629921259999997
 30
0.0
 40
0.0535433071999999
 50
359.99999999999
 51
180
  0
ARC
  8
5
  6
CONTINUOUS
 62
5
 10
0.62992126
 20
-0.629921260000012
 30
0.0
 40
0.0535433071999999
 50
179.999999999985
 51
359.999999999987
  0
ARC
  8
5
  6
CONTINUOUS
 62
5
 10
0.62992126
 20
0.629921259999997
 30
0.0
 40
0.0535433071999999
 50
179.999999999985
 51
359.999999999986
  0
ARC
  8
5
  6
CONTINUOUS
 62
5
 10
0.62992126
 20
0.629921260000017
 30
0.0
 40
0.0535433071999999
 50
359.99999999999
 51
180
  0
LINE
  8
5
  6
CONTINUOUS
 62
5
 10
0.186904320047779
 20
0.272839396108691
 30
0.0
 11
0.16661516867774
 21
0.272839396108691
 31
0.0
  0
ARC
  8
5
  6
CONTINUOUS
 62
5
 10
0.186899878690356
 20
0.258794592646999
 30
0.0
 40
0.0140448041639322
 50
270.000000002502
 51
89.9818814817889
  0
LINE
  8
5
  6
CONTINUOUS
 62
5
 10
0.164929792177394
 20
0.244749788483067
 30
0.0
 11
0.186899878690971
 21
0.244749788483067
 31
0.0
  0
LINE
  8
5
  6
CONTINUOUS
 62
5
 10
0.164929792177394
 20
0.300859132377435
 30
0.0
 11
0.164929792177394
 21
0.244749788483067
 31
0.0
  0
LINE
  8
5
  6
CONTINUOUS
 62
5
 10
0.184391877947416
 20
0.300859132377435
 30
0.0
 11
0.164929792177394
 21
0.300859132377435
 31
0.0
  0
ARC
  8
5
  6
CONTINUOUS
 62
5
 10
0.184279648014448
 20
0.286758034225336
 30
0.0
 40
0.0141015447612308
 50
296.191824756081
 51
89.5439953928108
  0
LINE
  8
5
  6
CONTINUOUS
 62
5
 10
0.206562604522106
 20
0.244679915721708
 30
0.0
 11
0.206562604522106
 21
0.300859132377435
 31
0.0
  0
LINE
  8
5
  6
CONTINUOUS
 62
5
 10
0.239507702289501
 20
0.244679915721708
 30
0.0
 11
0.206562604522106
 21
0.244679915721708
 31
0.0
  0
LINE
  8
5
  6
CONTINUOUS
 62
5
 10
0.246329464313106
 20
0.260731436388333
 30
0.0
 11
0.246329464313106
 21
0.300859132377435
 31
0.0
  0
ARC
  8
5
  6
CONTINUOUS
 62
5
 10
0.262781159301762
 20
0.260996751230399
 30
0.0
 40
0.0164538342025555
 50
180.923923222637
 51
0.472476699572178
  0
LINE
  8
5
  6
CONTINUOUS
 62
5
 10
0.279234434068604
 20
0.300859132377435
 30
0.0
 11
0.279234434068605
 21
0.261132432518593
 31
0.0
  0
LINE
  8
5
  6
CONTINUOUS
 62
5
 10
0.28545744237353
 20
0.244679330972288
 30
0.0
 11
0.318402540140925
 21
0.244679330972288
 31
0.0
  0
LINE
  8
5
  6
CONTINUOUS
 62
5
 10
0.285437378367581
 20
0.272768939300153
 30
0.0
 11
0.28545744237353
 21
0.244679330972288
 31
0.0
  0
LINE
  8
5
  6
CONTINUOUS
 62
5
 10
0.311179497999474
 20
0.272768939300153
 30
0.0
 11
0.285437378367581
 21
0.272768939300153
 31
0.0
  0
LINE
  8
5
  6
CONTINUOUS
 62
5
 10
0.285417314361633
 20
0.300858547628017
 30
0.0
 11
0.285436174866162
 21
0.273611153037184
 31
0.0
  0
LINE
  8
5
  6
CONTINUOUS
 62
5
 10
0.315593579307015
 20
0.300858547628017
 30
0.0
 11
0.285417314361633
 21
0.300858547628017
 31
0.0
  0
ARC
  8
5
  6
CONTINUOUS
 62
5
 10
0.372009834047974
 20
0.265248088489957
 30
0.0
 40
0.0206598446125364
 50
204.386837236997
 51
324.319999999991
  0
ARC
  8
5
  6
CONTINUOUS
 62
5
 10
0.400598542803455
 20
0.272768939300153
 30
0.0
 40
0.0500489658039817
 50
161.294134617644
 51
198.705865382356
  0
ARC
  8
5
  6
CONTINUOUS
 62
5
 10
0.372009838060773
 20
0.280289792400738
 30
0.0
 40
0.0206598486253361
 50
35.680029999987
 51
155.613174782251
  0
LINE
  8
5
  6
CONTINUOUS
 62
5
 10
0.397514119474577
 20
0.244770437402456
 30
0.0
 11
0.413565315707561
 21
0.244770437402456
 31
0.0
  0
LINE
  8
5
  6
CONTINUOUS
 62
5
 10
0.405539715710772
 20
0.246455813379984
 30
0.0
 11
0.405539715710772
 21
0.299264261379984
 31
0.0
  0
LINE
  8
5
  6
CONTINUOUS
 62
5
 10
0.397514119474577
 20
0.300949637379984
 30
0.0
 11
0.413480841759476
 21
0.300949637379984
 31
0.0
  0
LINE
  8
5
  6
CONTINUOUS
 62
5
 10
0.422055561759476
 20
0.244770441048545
 30
0.0
 11
0.422055561759476
 21
0.300949641026073
 31
0.0
  0
LINE
  8
5
  6
CONTINUOUS
 62
5
 10
0.422055561759476
 20
0.300949641026073
 30
0.0
 11
0.442440585751324
 21
0.300949641026074
 31
0.0
  0
ARC
  8
5
  6
CONTINUOUS
 62
5
 10
0.442169910751906
 20
0.286904861823397
 30
0.0
 40
0.014047387223511
 50
271.095264000527
 51
88.8959160393169
  0
LINE
  8
5
  6
CONTINUOUS
 62
5
 10
0.442438423732114
 20
0.272860041120137
 30
0.0
 11
0.423899287732113
 21
0.272860041120137
 31
0.0
  0
LINE
  8
5
  6
CONTINUOUS
 62
5
 10
0.443238817971593
 20
0.27125948971497
 30
0.0
 11
0.456485385745705
 21
0.244770441048545
 31
0.0
  0
ARC
  8
5
  6
CONTINUOUS
 62
5
 10
0.48356356350992
 20
0.265248088489957
 30
0.0
 40
0.020659844612536
 50
204.386837236996
 51
324.319999999991
  0
ARC
  8
5
  6
CONTINUOUS
 62
5
 10
0.512152272265401
 20
0.272768939300153
 30
0.0
 40
0.0500489658039817
 50
161.294134617644
 51
198.705865382356
  0
ARC
  8
5
  6
CONTINUOUS
 62
5
 10
0.483563567522719
 20
0.280289792400738
 30
0.0
 40
0.020659848625336
 50
35.6800299999869
 51
155.613174782251
  0
LINE
  8
5
  6
CONTINUOUS
 62
5
 10
0.505963211221422
 20
0.300949641026073
 30
0.0
 11
0.505963211221422
 21
0.244770441048545
 31
0.0
  0
LINE
  8
5
  6
CONTINUOUS
 62
5
 10
0.505963211221422
 20
0.244770441048545
 30
0.0
 11
0.538908299208244
 21
0.244770441048545
 31
0.0
  0
LINE
  8
5
  6
CONTINUOUS
 62
5
 10
0.579280233650931
 20
0.244769856299299
 30
0.0
 11
0.54633514566411
 21
0.244769856299299
 31
0.0
  0
LINE
  8
5
  6
CONTINUOUS
 62
5
 10
0.54633514566411
 20
0.244769856299299
 30
0.0
 11
0.546315081664117
 21
0.272859456288063
 31
0.0
  0
LINE
  8
5
  6
CONTINUOUS
 62
5
 10
0.546315081664117
 20
0.272859456288063
 30
0.0
 11
0.57205719365382
 21
0.272859456288063
 31
0.0
  0
LINE
  8
5
  6
CONTINUOUS
 62
5
 10
0.546313878163054
 20
0.273701669775063
 30
0.0
 11
0.546295017664124
 21
0.300949056276827
 31
0.0
  0
LINE
  8
5
  6
CONTINUOUS
 62
5
 10
0.546295017664124
 20
0.300949056276827
 30
0.0
 11
0.576471273650931
 21
0.300949056276827
 31
0.0
  0
ARC
  8
5
  6
CONTINUOUS
 62
5
 10
0.600327071499896
 20
0.260931259932516
 30
0.0
 40
0.0161945091199225
 50
210.521999666245
 51
269.441063338038
  0
LINE
  8
5
  6
CONTINUOUS
 62
5
 10
0.600169091952735
 20
0.244737521386464
 30
0.0
 11
0.605894029637307
 21
0.244681671232929
 31
0.0
  0
ARC
  8
5
  6
CONTINUOUS
 62
5
 10
0.60603824886696
 20
0.259464913493616
 30
0.0
 40
0.0147839457156864
 50
269.441063677766
 51
357.35068265672
  0
ARC
  8
5
  6
CONTINUOUS
 62
5
 10
0.608780993707802
 20
0.257690911976669
 30
0.0
 40
0.0120747559631734
 50
5.18227244383179
 51
59.3448299999938
  0
LINE
  8
5
  6
CONTINUOUS
 62
5
 10
0.614937549368239
 20
0.268078238580281
 30
0.0
 11
0.592827256600586
 21
0.277574464378317
 31
0.0
  0
ARC
  8
5
  6
CONTINUOUS
 62
5
 10
0.59898381628863
 20
0.287961785735293
 30
0.0
 40
0.012074753503304
 50
185.182406440214
 51
239.344800865815
  0
ARC
  8
5
  6
CONTINUOUS
 62
5
 10
0.601667382633251
 20
0.286226835327651
 30
0.0
 40
0.0147230638875712
 50
91.2613438550499
 51
177.491952931064
  0
LINE
  8
5
  6
CONTINUOUS
 62
5
 10
0.601343286402804
 20
0.300946331646171
 30
0.0
 11
0.607054610400178
 21
0.300952337244486
 31
0.0
  0
ARC
  8
5
  6
CONTINUOUS
 62
5
 10
0.606544543730063
 20
0.285278161401433
 30
0.0
 40
0.0156824729034329
 50
29.2717084966205
 51
88.1361471074721
  0
LINE
  8
5
  6
CONTINUOUS
 62
5
 10
-0.189798728561527
 20
0.244751048788961
 30
0.0
 11
-0.168757724594318
 21
0.300860392701517
 31
0.0
  0
LINE
  8
5
  6
CONTINUOUS
 62
5
 10
-0.168757724594318
 20
0.300860392701517
 30
0.0
 11
-0.147716720627109
 21
0.244751048788961
 31
0.0
  0
LINE
  8
5
  6
CONTINUOUS
 62
5
 10
-0.183606661679075
 20
0.256774479627366
 30
0.0
 11
-0.153908787509561
 21
0.256774479627366
 31
0.0
  0
LINE
  8
5
  6
CONTINUOUS
 62
5
 10
-0.142105786233609
 20
0.300860392701517
 30
0.0
 11
-0.142105786233609
 21
0.244751048788961
 31
0.0
  0
LINE
  8
5
  6
CONTINUOUS
 62
5
 10
-0.142105786233609
 20
0.244751048788961
 30
0.0
 11
-0.109201663839175
 21
0.244751048788961
 31
0.0
  0
LINE
  8
5
  6
CONTINUOUS
 62
5
 10
-0.102388386362956
 20
0.300860392701517
 30
0.0
 11
-0.102388386362956
 21
0.244751048788961
 31
0.0
  0
LINE
  8
5
  6
CONTINUOUS
 62
5
 10
-0.102388386362956
 20
0.244751048788961
 30
0.0
 11
-0.0694842639685215
 21
0.244751048788961
 31
0.0
  0
LINE
  8
5
  6
CONTINUOUS
 62
5
 10
-0.00442412107712968
 20
0.272805720745239
 30
0.0
 11
-0.0284389202813097
 21
0.272805720745239
 31
0.0
  0
LINE
  8
5
  6
CONTINUOUS
 62
5
 10
-0.0301141849685215
 20
0.244751048788961
 30
0.0
 11
-0.0301141849685215
 21
0.300860392701517
 31
0.0
  0
LINE
  8
5
  6
CONTINUOUS
 62
5
 10
-0.0301141849685215
 20
0.300860392701517
 30
0.0
 11
-1.5529770834341E-5
 21
0.300860392701517
 31
0.0
  0
ARC
  8
5
  6
CONTINUOUS
 62
5
 10
0.0244312923951371
 20
0.261336566515849
 30
0.0
 40
0.0166949161000702
 50
196.004825930415
 51
267.948379947897
  0
ARC
  8
5
  6
CONTINUOUS
 62
5
 10
0.0557297975302028
 20
0.272764729591032
 30
0.0
 40
0.0499867323829201
 50
161.294116943038
 51
198.705883056962
  0
ARC
  8
5
  6
CONTINUOUS
 62
5
 10
0.0244312946043121
 20
0.284155584648957
 30
0.0
 40
0.0167052432193896
 50
16.1288893758936
 51
163.872176621307
  0
ARC
  8
5
  6
CONTINUOUS
 62
5
 10
-0.00686719356326065
 20
0.272764729589346
 30
0.0
 40
0.0499867323829151
 50
341.293755627023
 51
18.7062443729769
  0
ARC
  8
5
  6
CONTINUOUS
 62
5
 10
0.0244312923951353
 20
0.261336566515851
 30
0.0
 40
0.0166949161000719
 50
272.763973435184
 51
343.994108060191
  0
LINE
  8
5
  6
CONTINUOUS
 62
5
 10
0.0498922550976657
 20
0.300859132395624
 30
0.0
 11
0.0498922550976657
 21
0.260781345115878
 31
0.0
  0
ARC
  8
5
  6
CONTINUOUS
 62
5
 10
0.0663234883368151
 20
0.261046329973353
 30
0.0
 40
0.0164333697924077
 50
180.923923222644
 51
0.472476699573641
  0
LINE
  8
5
  6
CONTINUOUS
 62
5
 10
0.0827562993893064
 20
0.261181842508325
 30
0.0
 11
0.0827562993893059
 21
0.300859132395624
 31
0.0
  0
LINE
  8
5
  6
CONTINUOUS
 62
5
 10
0.0911727009795558
 20
0.244749788483067
 30
0.0
 11
0.0911727009795558
 21
0.300859132395624
 31
0.0
  0
LINE
  8
5
  6
CONTINUOUS
 62
5
 10
0.0911727009795558
 20
0.300859132395624
 30
0.0
 11
0.111532377199257
 21
0.300859132395624
 31
0.0
  0
ARC
  8
5
  6
CONTINUOUS
 62
5
 10
0.111262038770853
 20
0.286831817183337
 30
0.0
 40
0.0140299199901762
 50
271.095264000535
 51
88.8959160393182
  0
LINE
  8
5
  6
CONTINUOUS
 62
5
 10
0.111530217868411
 20
0.27280446052207
 30
0.0
 11
0.0930141343698607
 21
0.27280446052207
 31
0.0
  0
LINE
  8
5
  6
CONTINUOUS
 62
5
 10
0.112329616857121
 20
0.271205899323652
 30
0.0
 11
0.125559713177394
 21
0.244749788483067
 31
0.0
  0
LINE
  8
6
  6
CONTINUOUS
 62
6
 10
-1.10615048254025
 20
-0.365072905834462
 30
0.0
 11
-1.10615048254025
 21
-0.3933828165652
 31
0.0
  0
LINE
  8
6
  6
CONTINUOUS
 62
6
 10
-0.890028655045826
 20
-0.365072905834462
 30
0.0
 11
-1.10615048254025
 21
-0.365072905834462
 31
0.0
  0
LINE
  8
6
  6
CONTINUOUS
 62
6
 10
-1.10615048254025
 20
-0.450010633894623
 30
0.0
 11
-1.10615048254025
 21
-0.496254844223327
 31
0.0
  0
LINE
  8
6
  6
CONTINUOUS
 62
6
 10
-0.952544686752191
 20
-0.4032253365652
 30
0.0
 11
-1.10615048254025
 21
-0.450010633894623
 31
0.0
  0
LINE
  8
6
  6
CONTINUOUS
 62
6
 10
-0.948283955659445
 20
-0.741342027515668
 30
0.0
 11
-1.04791247028976
 21
-0.741342027515668
 31
0.0
  0
ARC
  8
6
  6
CONTINUOUS
 62
6
 10
-0.948283955659445
 20
-0.710667068708678
 30
0.0
 40
0.0306749588069905
 50
269.999999999998
 51
31.8862050641349
  0
LINE
  8
6
  6
CONTINUOUS
 62
6
 10
-0.948283955659445
 20
-0.652430353085422
 30
0.0
 11
-0.948283955659445
 21
-0.679992109901687
 31
0.0
  0
ARC
  8
6
  6
CONTINUOUS
 62
6
 10
-1.04791247028976
 20
-0.710667717022295
 30
0.0
 40
0.0582377961459516
 50
89.9999999999999
 51
224.999999999999
  0
ARC
  8
6
  6
CONTINUOUS
 62
6
 10
-1.04791247028976
 20
-0.574642767859228
 30
0.0
 40
0.0582379041982211
 50
89.9999999999998
 51
224.999999999999
  0
ARC
  8
6
  6
CONTINUOUS
 62
6
 10
-0.948283955659444
 20
-0.574641903441071
 30
0.0
 40
0.0306748507547213
 50
269.999999999998
 51
31.8861580468514
  0
LINE
  8
6
  6
CONTINUOUS
 62
6
 10
-1.04791247028976
 20
-0.605316754195793
 30
0.0
 11
-0.948283955659445
 21
-0.605316754195793
 31
0.0
  0
LINE
  8
6
  6
CONTINUOUS
 62
6
 10
-1.04791247028976
 20
-0.516404863661006
 30
0.0
 11
-0.948283955659445
 21
-0.516404863661006
 31
0.0
  0
LINE
  8
6
  6
CONTINUOUS
 62
6
 10
-1.10615048254025
 20
-0.214078935507116
 30
0.0
 11
-1.10615048254025
 21
-0.243336464641944
 31
0.0
  0
LINE
  8
6
  6
CONTINUOUS
 62
6
 10
-0.890028655045826
 20
-0.261267738776365
 30
0.0
 11
-1.10615048254025
 21
-0.214078935507116
 31
0.0
  0
LINE
  8
6
  6
CONTINUOUS
 62
6
 10
-1.10615048254025
 20
-0.313173888030307
 30
0.0
 11
-1.10615048254025
 21
-0.344318874209911
 31
0.0
  0
LINE
  8
6
  6
CONTINUOUS
 62
6
 10
-0.944010722968038
 20
-0.281832831010642
 30
0.0
 11
-1.10615048254025
 21
-0.313173888030307
 31
0.0
  0
LINE
  8
6
  6
CONTINUOUS
 62
6
 10
-1.01271768504683
 20
-0.09989318691185
 30
0.0
 11
-1.01271768504683
 21
-0.164068671374973
 31
0.0
  0
LINE
  8
6
  6
CONTINUOUS
 62
6
 10
-0.988181175673867
 20
-0.09989318691185
 30
0.0
 11
-1.01271768504683
 21
-0.09989318691185
 31
0.0
  0
LINE
  8
6
  6
CONTINUOUS
 62
6
 10
-0.914567325464182
 20
-0.094230383568452
 30
0.0
 11
-0.914567325464182
 21
-0.164068671374973
 31
0.0
  0
LINE
  8
6
  6
CONTINUOUS
 62
6
 10
-0.890028655045826
 20
-0.094230383568452
 30
0.0
 11
-0.914567325464182
 21
-0.094230383568452
 31
0.0
  0
LINE
  8
6
  6
CONTINUOUS
 62
6
 10
-1.10615048254025
 20
-0.096118272822302
 30
0.0
 11
-1.10615048254025
 21
-0.193325768300719
 31
0.0
  0
LINE
  8
6
  6
CONTINUOUS
 62
6
 10
-1.08161181212188
 20
-0.096118272822302
 30
0.0
 11
-1.10615048254025
 21
-0.096118272822302
 31
0.0
  0
LINE
  8
6
  6
CONTINUOUS
 62
6
 10
-1.10615048254025
 20
-0.0140434976965522
 30
0.0
 11
-1.10615048254025
 21
-0.0753646734068284
 31
0.0
  0
ARC
  8
6
  6
CONTINUOUS
 62
6
 10
-0.954222689491108
 20
-0.020865646958831
 30
0.0
 40
0.0568447104797388
 50
98.616520181594
 51
134.506436902242
  0
LINE
  8
6
  6
CONTINUOUS
 62
6
 10
-0.890028655045826
 20
0.0463562082588683
 30
0.0
 11
-0.962739188281942
 21
0.0353374700176424
 31
0.0
  0
ARC
  8
6
  6
CONTINUOUS
 62
6
 10
-1.04574926385305
 20
-0.0140430654874745
 30
0.0
 40
0.0346847785305699
 50
359.999999999994
 51
33.4246709955618
  0
LINE
  8
6
  6
CONTINUOUS
 62
6
 10
-1.01106448532248
 20
-0.0140430654874763
 30
0.0
 11
-1.01106448532248
 21
-0.046108008690157
 31
0.0
  0
ARC
  8
6
  6
CONTINUOUS
 62
6
 10
-1.04791247028976
 20
0.124745212417464
 30
0.0
 40
0.0582379041982215
 50
89.9999999999998
 51
225
  0
ARC
  8
6
  6
CONTINUOUS
 62
6
 10
-1.04791164374604
 20
0.124747418718218
 30
0.0
 40
0.030676840962071
 50
269.99845624697
 51
333.182376586097
  0
LINE
  8
6
  6
CONTINUOUS
 62
6
 10
-1.00025925836591
 20
0.151019958650933
 30
0.0
 11
-1.02053418622721
 21
0.11090749851554
 31
0.0
  0
ARC
  8
6
  6
CONTINUOUS
 62
6
 10
-0.948284887887365
 20
0.124744747251815
 30
0.0
 40
0.0582384917448086
 50
44.9995999153757
 51
153.181499662293
  0
LINE
  8
6
  6
CONTINUOUS
 62
6
 10
-0.948283955659445
 20
0.0940703616627433
 30
0.0
 11
-0.948283955659445
 21
0.0665075243237824
 31
0.0
  0
ARC
  8
6
  6
CONTINUOUS
 62
6
 10
-0.948283955659445
 20
0.124745212417464
 30
0.0
 40
0.030674850754721
 50
269.999999999998
 51
31.8861580468514
  0
LINE
  8
6
  6
CONTINUOUS
 62
6
 10
-1.05073724917499
 20
0.265999422220653
 30
0.0
 11
-0.96364250525551
 21
0.247274211821369
 31
0.0
  0
LINE
  8
6
  6
CONTINUOUS
 62
6
 10
-1.10615048254025
 20
0.292791667770849
 30
0.0
 11
-1.10615048254025
 21
0.253153989307928
 31
0.0
  0
LINE
  8
6
  6
CONTINUOUS
 62
6
 10
-0.890028655045826
 20
0.342811656607253
 30
0.0
 11
-1.10615048254025
 21
0.292791667770849
 31
0.0
  0
LINE
  8
6
  6
CONTINUOUS
 62
6
 10
-0.963642505255511
 20
0.284241735365953
 30
0.0
 11
-0.96364250525551
 21
0.247274211821369
 31
0.0
  0
LINE
  8
6
  6
CONTINUOUS
 62
6
 10
-0.890028655045825
 20
0.389819936914094
 30
0.0
 11
-0.890028655045826
 21
0.399662456914094
 31
0.0
  0
LINE
  8
6
  6
CONTINUOUS
 62
6
 10
-1.10615048254025
 20
0.45062552595927
 30
0.0
 11
-1.10615048254025
 21
0.320386019465557
 31
0.0
  0
LINE
  8
6
  6
CONTINUOUS
 62
6
 10
-1.08161181212188
 20
0.45062552595927
 30
0.0
 11
-1.10615048254025
 21
0.45062552595927
 31
0.0
  0
LINE
  8
6
  6
CONTINUOUS
 62
6
 10
-1.10615048254025
 20
0.471377180433892
 30
0.0
 11
-1.10615048254025
 21
0.500632980732409
 31
0.0
  0
LINE
  8
6
  6
CONTINUOUS
 62
6
 10
-1.10615048254025
 20
0.500632980732409
 30
0.0
 11
-0.890028655045826
 21
0.500632980732409
 31
0.0
  0
LINE
  8
6
  6
CONTINUOUS
 62
6
 10
-0.948283955659445
 20
0.548346701927205
 30
0.0
 11
-1.04791247028976
 21
0.548346701927205
 31
0.0
  0
ARC
  8
6
  6
CONTINUOUS
 62
6
 10
-1.04791247028976
 20
0.57902068826377
 30
0.0
 40
0.0582379041982213
 50
89.9999999999998
 51
225.000000000001
  0
LINE
  8
6
  6
CONTINUOUS
 62
6
 10
-0.948283955659445
 20
0.637258592461991
 30
0.0
 11
-1.04791247028976
 21
0.637258592461991
 31
0.0
  0
LINE
  8
6
  6
CONTINUOUS
 62
6
 10
-1.10615048254025
 20
0.703652822228375
 30
0.0
 11
-1.10615048254025
 21
0.65740861189967
 31
0.0
  0
LINE
  8
6
  6
CONTINUOUS
 62
6
 10
-0.952544686752194
 20
0.750438119557798
 30
0.0
 11
-1.10615048254025
 21
0.703652822228375
 31
0.0
  0
LINE
  8
6
  6
CONTINUOUS
 62
6
 10
-1.10615048254092
 20
0.788590550287432
 30
0.0
 11
-1.10615048254062
 21
0.760278694615842
 31
0.0
  0
LINE
  8
6
  6
CONTINUOUS
 62
6
 10
-0.890028655046496
 20
0.788590550289638
 30
0.0
 11
-1.10615048254092
 21
0.788590550287432
 31
0.0
  0
ARC
  8
6
  6
CONTINUOUS
 62
6
 10
-0.948283955659444
 20
0.579021552681926
 30
0.0
 40
0.0306748507547209
 50
269.999999999998
 51
31.8861580468514
  0
LINE
  8
6
  6
CONTINUOUS
 62
6
 10
-0.00139131426879822
 20
-0.381959230247551
 30
0.0
 11
0.0307110857183607
 21
-0.381959230247551
 31
0.0
  0
LINE
  8
6
  6
CONTINUOUS
 62
6
 10
0.014659885724781
 20
-0.398010430241128
 30
0.0
 11
0.014659885724781
 21
-0.365908030253971
 31
0.0
  0
LINE
  8
6
  6
CONTINUOUS
 62
6
 10
-0.17184144455591
 20
-0.183174563173335
 30
0.0
 11
-0.17184144455591
 21
-0.128699304971045
 31
0.0
  0
LINE
  8
6
  6
CONTINUOUS
 62
6
 10
-0.189798728561527
 20
-0.126995363195807
 30
0.0
 11
-0.153884168575893
 21
-0.126995363195807
 31
0.0
  0
ARC
  8
6
  6
CONTINUOUS
 62
6
 10
-0.12940691014604
 20
-0.166567138536518
 30
0.0
 40
0.0167157012503226
 50
196.004825930407
 51
267.948379947892
  0
ARC
  8
6
  6
CONTINUOUS
 62
6
 10
-0.0980694384101229
 20
-0.155124747412197
 30
0.0
 40
0.0500489658039798
 50
161.294116943038
 51
198.705883056962
  0
ARC
  8
6
  6
CONTINUOUS
 62
6
 10
-0.129406907934114
 20
-0.143719710753569
 30
0.0
 40
0.0167260412268932
 50
16.1288893758918
 51
163.872176621307
  0
ARC
  8
6
  6
CONTINUOUS
 62
6
 10
-0.160744362681414
 20
-0.155124747413885
 30
0.0
 40
0.0500489658039744
 50
341.293755627023
 51
18.7062443729769
  0
ARC
  8
6
  6
CONTINUOUS
 62
6
 10
-0.129406910146041
 20
-0.166567138536515
 30
0.0
 40
0.0167157012503242
 50
272.763973435181
 51
343.99410806019
  0
LINE
  8
6
  6
CONTINUOUS
 62
6
 10
-0.102509768575894
 20
-0.183174567087789
 30
0.0
 11
-0.102509768575894
 21
-0.126995367110261
 31
0.0
  0
LINE
  8
6
  6
CONTINUOUS
 62
6
 10
-0.102509768575894
 20
-0.126995367110261
 30
0.0
 11
-0.0821247445840473
 21
-0.126995367110259
 31
0.0
  0
ARC
  8
6
  6
CONTINUOUS
 62
6
 10
-0.0829594034002068
 20
-0.141040167104642
 30
0.0
 40
0.0140695793192831
 50
273.400991681353
 51
86.599008318647
  0
LINE
  8
6
  6
CONTINUOUS
 62
6
 10
-0.0821247445840469
 20
-0.155084967099024
 30
0.0
 11
-0.101667080575893
 21
-0.155084967099025
 31
0.0
  0
ARC
  8
6
  6
CONTINUOUS
 62
6
 10
-0.00636245454894242
 20
-0.166567138536518
 30
0.0
 40
0.0167157012503225
 50
196.004825930407
 51
267.94837994789
  0
ARC
  8
6
  6
CONTINUOUS
 62
6
 10
0.0249750171869743
 20
-0.155124747412197
 30
0.0
 40
0.0500489658039796
 50
161.294116943038
 51
198.705883056962
  0
ARC
  8
6
  6
CONTINUOUS
 62
6
 10
-0.00636245233701728
 20
-0.143719710753569
 30
0.0
 40
0.0167260412268931
 50
16.128889375892
 51
163.872176621307
  0
ARC
  8
6
  6
CONTINUOUS
 62
6
 10
-0.0376999070843147
 20
-0.155124747413885
 30
0.0
 40
0.0500489658039743
 50
341.293755627023
 51
18.7062443729769
  0
ARC
  8
6
  6
CONTINUOUS
 62
6
 10
-0.00636245454894264
 20
-0.166567138536515
 30
0.0
 40
0.0167157012503244
 50
272.763973435173
 51
343.994108060184
  0
LINE
  8
6
  6
CONTINUOUS
 62
6
 10
0.0476670371431479
 20
-0.155083705224052
 30
0.0
 11
0.0236223395431478
 21
-0.155083705224052
 31
0.0
  0
LINE
  8
6
  6
CONTINUOUS
 62
6
 10
0.0219449891534369
 20
-0.183173305212816
 30
0.0
 11
0.0219449891534369
 21
-0.126994105235288
 31
0.0
  0
LINE
  8
6
  6
CONTINUOUS
 62
6
 10
0.0219449891534369
 20
-0.126994105235288
 30
0.0
 11
0.0520811171402609
 21
-0.126994105235288
 31
0.0
  0
ARC
  8
6
  6
CONTINUOUS
 62
6
 10
0.110320373877098
 20
-0.145258668232692
 30
0.0
 40
0.0184648980590048
 50
48.9416968664086
 51
146.027978045882
  0
ARC
  8
6
  6
CONTINUOUS
 62
6
 10
0.1140797985074
 20
-0.140899723369001
 30
0.0
 40
0.0127088134930474
 50
1.31476251025534E-6
 51
48.8140713147658
  0
ARC
  8
6
  6
CONTINUOUS
 62
6
 10
0.112760114006056
 20
-0.140899723077369
 30
0.0
 40
0.014028497994391
 50
279.088113900673
 51
359.999999999973
  0
ARC
  8
6
  6
CONTINUOUS
 62
6
 10
0.113532048442801
 20
-0.168758682288767
 30
0.0
 40
0.0140807950981084
 50
19.4344258931564
 51
84.1142708141147
  0
ARC
  8
6
  6
CONTINUOUS
 62
6
 10
0.114375795107513
 20
-0.168557210936012
 30
0.0
 40
0.0132183990365453
 50
307.790503302595
 51
19.8277712840428
  0
ARC
  8
6
  6
CONTINUOUS
 62
6
 10
0.110527584958239
 20
-0.162602556302138
 30
0.0
 40
0.0202913000994104
 50
216.483006233934
 51
306.074034536988
  0
LINE
  8
6
  6
CONTINUOUS
 62
6
 10
0.140401078461317
 20
-0.1831745752656
 30
0.0
 11
0.140401078461317
 21
-0.126995375288072
 31
0.0
  0
LINE
  8
6
  6
CONTINUOUS
 62
6
 10
0.140401078461317
 20
-0.126995375288072
 30
0.0
 11
0.156071086209678
 21
-0.126995376004108
 31
0.0
  0
ARC
  8
6
  6
CONTINUOUS
 62
6
 10
0.154133072670224
 20
-0.147564125327844
 30
0.0
 40
0.0206598486253364
 50
24.3863827720499
 51
84.6174099999899
  0
ARC
  8
6
  6
CONTINUOUS
 62
6
 10
0.125544385182289
 20
-0.155084975919377
 30
0.0
 40
0.0500489658039795
 50
341.29431327019
 51
18.70568672981
  0
ARC
  8
6
  6
CONTINUOUS
 62
6
 10
0.154133076683023
 20
-0.16260582522583
 30
0.0
 40
0.0206598446125397
 50
275.382450717124
 51
335.613608269921
  0
LINE
  8
6
  6
CONTINUOUS
 62
6
 10
0.156071039844565
 20
-0.183174575265606
 30
0.0
 11
0.141805558461318
 21
-0.1831745752656
 31
0.0
  0
LINE
  8
6
  6
CONTINUOUS
 62
6
 10
0.226507192015602
 20
-0.155015095060648
 30
0.0
 11
0.246796337362301
 21
-0.155015095060648
 31
0.0
  0
ARC
  8
6
  6
CONTINUOUS
 62
6
 10
0.246791896006195
 20
-0.16905989435279
 30
0.0
 40
0.0140447999943822
 50
270.000000002503
 51
89.9818814817889
  0
LINE
  8
6
  6
CONTINUOUS
 62
6
 10
0.24679189600681
 20
-0.183104694347173
 30
0.0
 11
0.224821816015601
 21
-0.183104694347173
 31
0.0
  0
LINE
  8
6
  6
CONTINUOUS
 62
6
 10
0.224821816015601
 20
-0.183104694347173
 30
0.0
 11
0.224821816015601
 21
-0.126995367110261
 31
0.0
  0
LINE
  8
6
  6
CONTINUOUS
 62
6
 10
0.224821816015601
 20
-0.126995367110261
 30
0.0
 11
0.244283896007818
 21
-0.126995367110261
 31
0.0
  0
ARC
  8
6
  6
CONTINUOUS
 62
6
 10
0.244171666108168
 20
-0.141096461076097
 30
0.0
 40
0.0141015405748359
 50
296.191824756079
 51
89.5439953928102
  0
ARC
  8
6
  6
CONTINUOUS
 62
6
 10
0.285313954430429
 20
-0.166567138536518
 30
0.0
 40
0.0167157012503225
 50
196.004825930414
 51
267.948379947896
  0
ARC
  8
6
  6
CONTINUOUS
 62
6
 10
0.316651426166347
 20
-0.155124747412197
 30
0.0
 40
0.0500489658039796
 50
161.294116943038
 51
198.705883056962
  0
ARC
  8
6
  6
CONTINUOUS
 62
6
 10
0.285313956642355
 20
-0.143719710753569
 30
0.0
 40
0.016726041226893
 50
16.1288893758921
 51
163.872176621307
  0
ARC
  8
6
  6
CONTINUOUS
 62
6
 10
0.253976501895056
 20
-0.155124747413885
 30
0.0
 40
0.0500489658039743
 50
341.293755627023
 51
18.7062443729769
  0
ARC
  8
6
  6
CONTINUOUS
 62
6
 10
0.285313954430427
 20
-0.166567138536515
 30
0.0
 40
0.0167157012503245
 50
272.763973435181
 51
343.994108060186
  0
LINE
  8
6
  6
CONTINUOUS
 62
6
 10
0.310806616000576
 20
-0.126995367110261
 30
0.0
 11
0.345717975986612
 21
-0.183174567087789
 31
0.0
  0
LINE
  8
6
  6
CONTINUOUS
 62
6
 10
0.308398936001539
 20
-0.183174567087789
 30
0.0
 11
0.343310295987575
 21
-0.126995367110261
 31
0.0
  0
LINE
  8
6
  6
CONTINUOUS
 62
6
 10
-0.412912809769896
 20
-0.628319815723039
 30
0.0
 11
-0.412912809769896
 21
-0.572140615745511
 31
0.0
  0
LINE
  8
6
  6
CONTINUOUS
 62
6
 10
-0.412912809769896
 20
-0.572140615745511
 30
0.0
 11
-0.392527785778049
 21
-0.572140615745509
 31
0.0
  0
ARC
  8
6
  6
CONTINUOUS
 62
6
 10
-0.39336244459421
 20
-0.586185415739892
 30
0.0
 40
0.0140695793192829
 50
273.400991681353
 51
86.599008318647
  0
LINE
  8
6
  6
CONTINUOUS
 62
6
 10
-0.392527785778048
 20
-0.600230215734274
 30
0.0
 11
-0.412070121769896
 21
-0.600230215734274
 31
0.0
  0
LINE
  8
6
  6
CONTINUOUS
 62
6
 10
-0.370056105783667
 20
-0.628319815723039
 30
0.0
 11
-0.370056105783667
 21
-0.572140615745511
 31
0.0
  0
LINE
  8
6
  6
CONTINUOUS
 62
6
 10
-0.370056105783667
 20
-0.572140615745511
 30
0.0
 11
-0.349671081791818
 21
-0.57214061574551
 31
0.0
  0
ARC
  8
6
  6
CONTINUOUS
 62
6
 10
-0.349941756791238
 20
-0.586185394948187
 30
0.0
 40
0.0140473872235111
 50
271.095264000529
 51
88.895916039317
  0
LINE
  8
6
  6
CONTINUOUS
 62
6
 10
-0.349673243811028
 20
-0.600230215651447
 30
0.0
 11
-0.368212379811029
 21
-0.600230215651447
 31
0.0
  0
LINE
  8
6
  6
CONTINUOUS
 62
6
 10
-0.34887284957155
 20
-0.601830767056614
 30
0.0
 11
-0.335626281797439
 21
-0.628319815723039
 31
0.0
  0
LINE
  8
6
  6
CONTINUOUS
 62
6
 10
-0.296458187353147
 20
-0.628320400472285
 30
0.0
 11
-0.329403275339967
 21
-0.628320400472285
 31
0.0
  0
LINE
  8
6
  6
CONTINUOUS
 62
6
 10
-0.329403275339967
 20
-0.628320400472285
 30
0.0
 11
-0.329423339339961
 21
-0.600230800483519
 31
0.0
  0
LINE
  8
6
  6
CONTINUOUS
 62
6
 10
-0.329423339339961
 20
-0.600230800483519
 30
0.0
 11
-0.303681227350256
 21
-0.600230800483519
 31
0.0
  0
LINE
  8
6
  6
CONTINUOUS
 62
6
 10
-0.329424542841022
 20
-0.599388586996521
 30
0.0
 11
-0.329443403339952
 21
-0.572141200494756
 31
0.0
  0
LINE
  8
6
  6
CONTINUOUS
 62
6
 10
-0.329443403339952
 20
-0.572141200494756
 30
0.0
 11
-0.299267147353146
 21
-0.572141200494756
 31
0.0
  0
ARC
  8
6
  6
CONTINUOUS
 62
6
 10
-0.275411349504183
 20
-0.612158996839068
 30
0.0
 40
0.0161945091199225
 50
210.52199966625
 51
269.441063338042
  0
LINE
  8
6
  6
CONTINUOUS
 62
6
 10
-0.275569329051342
 20
-0.628352735385121
 30
0.0
 11
-0.26984439136677
 21
-0.628408585538655
 31
0.0
  0
ARC
  8
6
  6
CONTINUOUS
 62
6
 10
-0.269700172137119
 20
-0.613625343277968
 30
0.0
 40
0.0147839457156862
 50
269.441063677771
 51
357.350682656724
  0
ARC
  8
6
  6
CONTINUOUS
 62
6
 10
-0.266957427296273
 20
-0.615399344794915
 30
0.0
 40
0.0120747559631728
 50
5.18227244383148
 51
59.3448299999936
  0
LINE
  8
6
  6
CONTINUOUS
 62
6
 10
-0.260800871635837
 20
-0.605012018191303
 30
0.0
 11
-0.282911164403491
 21
-0.595515792393266
 31
0.0
  0
ARC
  8
6
  6
CONTINUOUS
 62
6
 10
-0.276754604715446
 20
-0.585128471036291
 30
0.0
 40
0.0120747535033035
 50
185.182406440219
 51
239.34480086582
  0
ARC
  8
6
  6
CONTINUOUS
 62
6
 10
-0.274071038370826
 20
-0.586863421443933
 30
0.0
 40
0.014723063887571
 50
91.261343855052
 51
177.491952931065
  0
LINE
  8
6
  6
CONTINUOUS
 62
6
 10
-0.274395134601274
 20
-0.572143925125413
 30
0.0
 11
-0.268683810603898
 21
-0.572137919527098
 31
0.0
  0
ARC
  8
6
  6
CONTINUOUS
 62
6
 10
-0.269193877274014
 20
-0.587812095370151
 30
0.0
 40
0.0156824729034332
 50
29.2717084966196
 51
88.1361471074714
  0
ARC
  8
6
  6
CONTINUOUS
 62
6
 10
-0.227079730400097
 20
-0.612158996839068
 30
0.0
 40
0.0161945091199224
 50
210.521999666244
 51
269.441063338037
  0
LINE
  8
6
  6
CONTINUOUS
 62
6
 10
-0.227237709947257
 20
-0.628352735385121
 30
0.0
 11
-0.221512772262685
 21
-0.628408585538655
 31
0.0
  0
ARC
  8
6
  6
CONTINUOUS
 62
6
 10
-0.221368553033033
 20
-0.613625343277968
 30
0.0
 40
0.0147839457156864
 50
269.441063677772
 51
357.350682656724
  0
ARC
  8
6
  6
CONTINUOUS
 62
6
 10
-0.218625808192189
 20
-0.615399344794915
 30
0.0
 40
0.0120747559631734
 50
5.18227244382965
 51
59.3448299999918
  0
LINE
  8
6
  6
CONTINUOUS
 62
6
 10
-0.212469252531751
 20
-0.605012018191303
 30
0.0
 11
-0.234579545299406
 21
-0.595515792393266
 31
0.0
  0
ARC
  8
6
  6
CONTINUOUS
 62
6
 10
-0.228422985611361
 20
-0.585128471036291
 30
0.0
 40
0.0120747535033035
 50
185.182406440207
 51
239.344800865808
  0
ARC
  8
6
  6
CONTINUOUS
 62
6
 10
-0.22573941926674
 20
-0.586863421443933
 30
0.0
 40
0.0147230638875712
 50
91.2613438550497
 51
177.491952931064
  0
LINE
  8
6
  6
CONTINUOUS
 62
6
 10
-0.226063515497188
 20
-0.572143925125413
 30
0.0
 11
-0.220352191499813
 21
-0.572137919527098
 31
0.0
  0
ARC
  8
6
  6
CONTINUOUS
 62
6
 10
-0.220862258169927
 20
-0.587812095370151
 30
0.0
 40
0.0156824729034335
 50
29.2717084966216
 51
88.1361471074733
  0
ARC
  8
6
  6
CONTINUOUS
 62
6
 10
-0.391452552721396
 20
0.382972378234167
 30
0.0
 40
0.0206598446125361
 50
204.386837236998
 51
324.319999999994
  0
ARC
  8
6
  6
CONTINUOUS
 62
6
 10
-0.362863843965914
 20
0.390493229044362
 30
0.0
 40
0.0500489658039819
 50
161.294134617644
 51
198.705865382356
  0
ARC
  8
6
  6
CONTINUOUS
 62
6
 10
-0.391452548708596
 20
0.398014082144947
 30
0.0
 40
0.0206598486253359
 50
35.6800299999865
 51
155.613174782251
  0
LINE
  8
6
  6
CONTINUOUS
 62
6
 10
-0.369052905009894
 20
0.418673930770282
 30
0.0
 11
-0.369052905009894
 21
0.362494730792754
 31
0.0
  0
LINE
  8
6
  6
CONTINUOUS
 62
6
 10
-0.369052905009894
 20
0.362494730792754
 30
0.0
 11
-0.336107817023072
 21
0.362494730792754
 31
0.0
  0
LINE
  8
6
  6
CONTINUOUS
 62
6
 10
-0.326181419309577
 20
0.362494727146665
 30
0.0
 11
-0.310130223076593
 21
0.362494727146665
 31
0.0
  0
LINE
  8
6
  6
CONTINUOUS
 62
6
 10
-0.318155823073381
 20
0.364180103124193
 30
0.0
 11
-0.318155823073381
 21
0.416988551124193
 31
0.0
  0
LINE
  8
6
  6
CONTINUOUS
 62
6
 10
-0.326181419309577
 20
0.418673927124193
 30
0.0
 11
-0.310214697024678
 21
0.418673927124193
 31
0.0
  0
ARC
  8
6
  6
CONTINUOUS
 62
6
 10
-0.282988679260461
 20
0.382972378234166
 30
0.0
 40
0.0206598446125364
 50
204.386837236996
 51
324.319999999992
  0
ARC
  8
6
  6
CONTINUOUS
 62
6
 10
-0.25439997050498
 20
0.390493229044362
 30
0.0
 40
0.0500489658039819
 50
161.294134617644
 51
198.705865382356
  0
ARC
  8
6
  6
CONTINUOUS
 62
6
 10
-0.282988675247662
 20
0.398014082144947
 30
0.0
 40
0.0206598486253361
 50
35.6800299999873
 51
155.613174782251
  0
LINE
  8
6
  6
CONTINUOUS
 62
6
 10
-0.26058903154896
 20
0.418673930770282
 30
0.0
 11
-0.26058903154896
 21
0.362494730792754
 31
0.0
  0
LINE
  8
6
  6
CONTINUOUS
 62
6
 10
-0.229168807561528
 20
0.362494730792754
 30
0.0
 11
-0.245615130488201
 21
0.396975163853207
 31
0.0
  0
LINE
  8
6
  6
CONTINUOUS
 62
6
 10
-0.258940952547676
 20
0.38381522773101
 30
0.0
 11
-0.229168807561528
 21
0.418673930770282
 31
0.0
  0
LINE
  8
6
  6
CONTINUOUS
 62
6
 10
-0.39495552576428
 20
0.0264833326609611
 30
0.0
 11
-0.39495552576428
 21
0.0809585908632525
 31
0.0
  0
LINE
  8
6
  6
CONTINUOUS
 62
6
 10
-0.412912809769896
 20
0.0826625326384894
 30
0.0
 11
-0.376998249784262
 21
0.0826625326384894
 31
0.0
  0
LINE
  8
6
  6
CONTINUOUS
 62
6
 10
-0.371380329784263
 20
0.0826625287240364
 30
0.0
 11
-0.35368897995015
 21
0.0560303891888152
 31
0.0
  0
LINE
  8
6
  6
CONTINUOUS
 62
6
 10
-0.352720809791726
 20
0.0264833287465081
 30
0.0
 11
-0.352720809791726
 21
0.0545729287352722
 31
0.0
  0
LINE
  8
6
  6
CONTINUOUS
 62
6
 10
-0.352720809791726
 20
0.0545729287352722
 30
0.0
 11
-0.33406128979919
 21
0.0826625287240364
 31
0.0
  0
LINE
  8
6
  6
CONTINUOUS
 62
6
 10
-0.327038889799191
 20
0.0264833287465081
 30
0.0
 11
-0.327038889799191
 21
0.0826625287240364
 31
0.0
  0
LINE
  8
6
  6
CONTINUOUS
 62
6
 10
-0.327038889799191
 20
0.0826625287240364
 30
0.0
 11
-0.306653865807345
 21
0.0826625287240373
 31
0.0
  0
ARC
  8
6
  6
CONTINUOUS
 62
6
 10
-0.307488524623505
 20
0.0686177287296553
 30
0.0
 40
0.0140695793192831
 50
273.400991681353
 51
86.599008318647
  0
LINE
  8
6
  6
CONTINUOUS
 62
6
 10
-0.306653865807344
 20
0.0545729287352722
 30
0.0
 11
-0.326196201799191
 21
0.0545729287352722
 31
0.0
  0
LINE
  8
6
  6
CONTINUOUS
 62
6
 10
-0.253440971368669
 20
0.0264827439972624
 30
0.0
 11
-0.286386059355491
 21
0.0264827439972624
 31
0.0
  0
LINE
  8
6
  6
CONTINUOUS
 62
6
 10
-0.286386059355491
 20
0.0264827439972624
 30
0.0
 11
-0.286406123355483
 21
0.0545723439860266
 31
0.0
  0
LINE
  8
6
  6
CONTINUOUS
 62
6
 10
-0.286406123355483
 20
0.0545723439860266
 30
0.0
 11
-0.26066401136578
 21
0.0545723439860266
 31
0.0
  0
LINE
  8
6
  6
CONTINUOUS
 62
6
 10
-0.286407326856545
 20
0.0554145574730264
 30
0.0
 11
-0.286426187355476
 21
0.0826619439747907
 31
0.0
  0
LINE
  8
6
  6
CONTINUOUS
 62
6
 10
-0.286426187355476
 20
0.0826619439747907
 30
0.0
 11
-0.256249931368669
 21
0.0826619439747907
 31
0.0
  0
LINE
  8
6
  6
CONTINUOUS
 62
6
 10
-0.412912809769896
 20
-0.0826505254030387
 30
0.0
 11
-0.412912809769896
 21
-0.0264713254255103
 31
0.0
  0
LINE
  8
6
  6
CONTINUOUS
 62
6
 10
-0.412912809769896
 20
-0.0264713254255103
 30
0.0
 11
-0.392527785778048
 21
-0.0264713254255091
 31
0.0
  0
ARC
  8
6
  6
CONTINUOUS
 62
6
 10
-0.39336244459421
 20
-0.0405161254198915
 30
0.0
 40
0.0140695793192831
 50
273.400991681353
 51
86.599008318647
  0
LINE
  8
6
  6
CONTINUOUS
 62
6
 10
-0.392527785778048
 20
-0.0545609254142739
 30
0.0
 11
-0.412070121769896
 21
-0.0545609254142744
 31
0.0
  0
LINE
  8
6
  6
CONTINUOUS
 62
6
 10
-0.370056105783666
 20
-0.0826505254030387
 30
0.0
 11
-0.370056105783666
 21
-0.0264713254255103
 31
0.0
  0
LINE
  8
6
  6
CONTINUOUS
 62
6
 10
-0.370056105783666
 20
-0.0264713254255103
 30
0.0
 11
-0.349671081791818
 21
-0.0264713254255099
 31
0.0
  0
ARC
  8
6
  6
CONTINUOUS
 62
6
 10
-0.349941756791237
 20
-0.040516104628187
 30
0.0
 40
0.014047387223511
 50
271.095264000528
 51
88.8959160393168
  0
LINE
  8
6
  6
CONTINUOUS
 62
6
 10
-0.349673243811028
 20
-0.0545609253314469
 30
0.0
 11
-0.368212379811028
 21
-0.0545609253314469
 31
0.0
  0
LINE
  8
6
  6
CONTINUOUS
 62
6
 10
-0.34887284957155
 20
-0.0561614767366143
 30
0.0
 11
-0.335626281797438
 21
-0.0826505254030387
 31
0.0
  0
LINE
  8
6
  6
CONTINUOUS
 62
6
 10
-0.296458187353147
 20
-0.0826511101522842
 30
0.0
 11
-0.329403275339967
 21
-0.0826511101522842
 31
0.0
  0
LINE
  8
6
  6
CONTINUOUS
 62
6
 10
-0.329403275339967
 20
-0.0826511101522842
 30
0.0
 11
-0.32942333933996
 21
-0.0545615101635201
 31
0.0
  0
LINE
  8
6
  6
CONTINUOUS
 62
6
 10
-0.32942333933996
 20
-0.0545615101635201
 30
0.0
 11
-0.303681227350256
 21
-0.0545615101635201
 31
0.0
  0
LINE
  8
6
  6
CONTINUOUS
 62
6
 10
-0.329424542841022
 20
-0.0537192966765204
 30
0.0
 11
-0.329443403339952
 21
-0.026471910174756
 31
0.0
  0
LINE
  8
6
  6
CONTINUOUS
 62
6
 10
-0.329443403339952
 20
-0.026471910174756
 30
0.0
 11
-0.299267147353146
 21
-0.026471910174756
 31
0.0
  0
ARC
  8
6
  6
CONTINUOUS
 62
6
 10
-0.275411349504183
 20
-0.0664897065190691
 30
0.0
 40
0.0161945091199223
 50
210.521999666242
 51
269.441063338037
  0
LINE
  8
6
  6
CONTINUOUS
 62
6
 10
-0.275569329051341
 20
-0.08268344506512
 30
0.0
 11
-0.26984439136677
 21
-0.0827392952186545
 31
0.0
  0
ARC
  8
6
  6
CONTINUOUS
 62
6
 10
-0.269700172137118
 20
-0.0679560529579676
 30
0.0
 40
0.0147839457156863
 50
269.44106367776
 51
357.350682656722
  0
ARC
  8
6
  6
CONTINUOUS
 62
6
 10
-0.266957427296274
 20
-0.0697300544749145
 30
0.0
 40
0.0120747559631732
 50
5.18227244383021
 51
59.3448299999923
  0
LINE
  8
6
  6
CONTINUOUS
 62
6
 10
-0.260800871635837
 20
-0.0593427278713023
 30
0.0
 11
-0.282911164403491
 21
-0.0498465020732664
 31
0.0
  0
ARC
  8
6
  6
CONTINUOUS
 62
6
 10
-0.276754604715446
 20
-0.039459180716292
 30
0.0
 40
0.0120747535033037
 50
185.182406440212
 51
239.344800865815
  0
ARC
  8
6
  6
CONTINUOUS
 62
6
 10
-0.274071038370825
 20
-0.0411941311239333
 30
0.0
 40
0.0147230638875715
 50
91.2613438550486
 51
177.491952931063
  0
LINE
  8
6
  6
CONTINUOUS
 62
6
 10
-0.274395134601274
 20
-0.0264746348054132
 30
0.0
 11
-0.268683810603898
 21
-0.026468629207098
 31
0.0
  0
ARC
  8
6
  6
CONTINUOUS
 62
6
 10
-0.269193877274012
 20
-0.0421428050501504
 30
0.0
 40
0.0156824729034333
 50
29.2717084966215
 51
88.1361471074733
  0
ARC
  8
6
  6
CONTINUOUS
 62
6
 10
-0.227079730400097
 20
-0.066489706519069
 30
0.0
 40
0.0161945091199222
 50
210.521999666243
 51
269.441063338038
  0
LINE
  8
6
  6
CONTINUOUS
 62
6
 10
-0.227237709947256
 20
-0.08268344506512
 30
0.0
 11
-0.221512772262685
 21
-0.0827392952186545
 31
0.0
  0
ARC
  8
6
  6
CONTINUOUS
 62
6
 10
-0.221368553033033
 20
-0.0679560529579677
 30
0.0
 40
0.0147839457156863
 50
269.441063677762
 51
357.350682656716
  0
ARC
  8
6
  6
CONTINUOUS
 62
6
 10
-0.218625808192188
 20
-0.069730054474915
 30
0.0
 40
0.0120747559631732
 50
5.18227244383032
 51
59.3448299999924
  0
LINE
  8
6
  6
CONTINUOUS
 62
6
 10
-0.212469252531751
 20
-0.0593427278713023
 30
0.0
 11
-0.234579545299405
 21
-0.0498465020732664
 31
0.0
  0
ARC
  8
6
  6
CONTINUOUS
 62
6
 10
-0.22842298561136
 20
-0.0394591807162915
 30
0.0
 40
0.012074753503304
 50
185.182406440211
 51
239.344800865814
  0
ARC
  8
6
  6
CONTINUOUS
 62
6
 10
-0.22573941926674
 20
-0.041194131123933
 30
0.0
 40
0.0147230638875713
 50
91.2613438550498
 51
177.491952931064
  0
LINE
  8
6
  6
CONTINUOUS
 62
6
 10
-0.226063515497188
 20
-0.0264746348054132
 30
0.0
 11
-0.220352191499813
 21
-0.026468629207098
 31
0.0
  0
ARC
  8
6
  6
CONTINUOUS
 62
6
 10
-0.220862258169927
 20
-0.0421428050501508
 30
0.0
 40
0.0156824729034333
 50
29.2717084966216
 51
88.1361471074732
  0
LINE
  8
6
  6
CONTINUOUS
 62
6
 10
-0.39495552576428
 20
0.463018764916961
 30
0.0
 11
-0.39495552576428
 21
0.517494023119253
 31
0.0
  0
LINE
  8
6
  6
CONTINUOUS
 62
6
 10
-0.412912809769896
 20
0.51919796489449
 30
0.0
 11
-0.376998249784262
 21
0.51919796489449
 31
0.0
  0
LINE
  8
6
  6
CONTINUOUS
 62
6
 10
-0.371380329784263
 20
0.519197960980036
 30
0.0
 11
-0.35368897995015
 21
0.492565821444815
 31
0.0
  0
LINE
  8
6
  6
CONTINUOUS
 62
6
 10
-0.352720809791726
 20
0.463018761002508
 30
0.0
 11
-0.352720809791726
 21
0.491108360991272
 31
0.0
  0
LINE
  8
6
  6
CONTINUOUS
 62
6
 10
-0.352720809791726
 20
0.491108360991272
 30
0.0
 11
-0.33406128979919
 21
0.519197960980036
 31
0.0
  0
LINE
  8
6
  6
CONTINUOUS
 62
6
 10
-0.327038889799191
 20
0.463018761002508
 30
0.0
 11
-0.327038889799191
 21
0.519197960980036
 31
0.0
  0
LINE
  8
6
  6
CONTINUOUS
 62
6
 10
-0.327038889799191
 20
0.519197960980036
 30
0.0
 11
-0.306653865807345
 21
0.519197960980037
 31
0.0
  0
ARC
  8
6
  6
CONTINUOUS
 62
6
 10
-0.307488524623505
 20
0.505153160985656
 30
0.0
 40
0.0140695793192831
 50
273.400991681353
 51
86.599008318647
  0
LINE
  8
6
  6
CONTINUOUS
 62
6
 10
-0.306653865807344
 20
0.491108360991272
 30
0.0
 11
-0.326196201799191
 21
0.491108360991272
 31
0.0
  0
LINE
  8
6
  6
CONTINUOUS
 62
6
 10
-0.253440971368669
 20
0.463018176253263
 30
0.0
 11
-0.286386059355491
 21
0.463018176253263
 31
0.0
  0
LINE
  8
6
  6
CONTINUOUS
 62
6
 10
-0.286386059355491
 20
0.463018176253263
 30
0.0
 11
-0.286406123355483
 21
0.491107776242027
 31
0.0
  0
LINE
  8
6
  6
CONTINUOUS
 62
6
 10
-0.286406123355483
 20
0.491107776242027
 30
0.0
 11
-0.26066401136578
 21
0.491107776242027
 31
0.0
  0
LINE
  8
6
  6
CONTINUOUS
 62
6
 10
-0.286407326856545
 20
0.491949989729026
 30
0.0
 11
-0.286426187355476
 21
0.519197376230791
 31
0.0
  0
LINE
  8
6
  6
CONTINUOUS
 62
6
 10
-0.286426187355476
 20
0.519197376230791
 30
0.0
 11
-0.256249931368669
 21
0.519197376230791
 31
0.0
  0
LINE
  8
6
  6
CONTINUOUS
 62
6
 10
-0.394955525764279
 20
-0.410052099595039
 30
0.0
 11
-0.394955525764279
 21
-0.355576841392748
 31
0.0
  0
LINE
  8
6
  6
CONTINUOUS
 62
6
 10
-0.412912809769896
 20
-0.353872899617511
 30
0.0
 11
-0.376998249784262
 21
-0.353872899617511
 31
0.0
  0
LINE
  8
6
  6
CONTINUOUS
 62
6
 10
-0.371380329784263
 20
-0.353872903531965
 30
0.0
 11
-0.35368897995015
 21
-0.380505043067185
 31
0.0
  0
LINE
  8
6
  6
CONTINUOUS
 62
6
 10
-0.352720809791726
 20
-0.410052103509493
 30
0.0
 11
-0.352720809791726
 21
-0.381962503520729
 31
0.0
  0
LINE
  8
6
  6
CONTINUOUS
 62
6
 10
-0.352720809791726
 20
-0.381962503520729
 30
0.0
 11
-0.33406128979919
 21
-0.353872903531965
 31
0.0
  0
LINE
  8
6
  6
CONTINUOUS
 62
6
 10
-0.327038889799191
 20
-0.410052103509492
 30
0.0
 11
-0.327038889799191
 21
-0.353872903531965
 31
0.0
  0
LINE
  8
6
  6
CONTINUOUS
 62
6
 10
-0.327038889799191
 20
-0.353872903531965
 30
0.0
 11
-0.306653865807345
 21
-0.353872903531963
 31
0.0
  0
ARC
  8
6
  6
CONTINUOUS
 62
6
 10
-0.307488524623505
 20
-0.367917703526346
 30
0.0
 40
0.0140695793192831
 50
273.400991681353
 51
86.599008318647
  0
LINE
  8
6
  6
CONTINUOUS
 62
6
 10
-0.306653865807344
 20
-0.381962503520728
 30
0.0
 11
-0.326196201799191
 21
-0.381962503520729
 31
0.0
  0
LINE
  8
6
  6
CONTINUOUS
 62
6
 10
-0.253440971368669
 20
-0.410052688258738
 30
0.0
 11
-0.286386059355491
 21
-0.410052688258738
 31
0.0
  0
LINE
  8
6
  6
CONTINUOUS
 62
6
 10
-0.286386059355491
 20
-0.410052688258738
 30
0.0
 11
-0.286406123355483
 21
-0.381963088269974
 31
0.0
  0
LINE
  8
6
  6
CONTINUOUS
 62
6
 10
-0.286406123355483
 20
-0.381963088269974
 30
0.0
 11
-0.26066401136578
 21
-0.381963088269974
 31
0.0
  0
LINE
  8
6
  6
CONTINUOUS
 62
6
 10
-0.286407326856545
 20
-0.381120874782974
 30
0.0
 11
-0.286426187355476
 21
-0.35387348828121
 31
0.0
  0
LINE
  8
6
  6
CONTINUOUS
 62
6
 10
-0.286426187355476
 20
-0.35387348828121
 30
0.0
 11
-0.256249931368669
 21
-0.35387348828121
 31
0.0
  0
ARC
  8
6
  6
CONTINUOUS
 62
6
 10
-0.391452552721396
 20
0.265228696230374
 30
0.0
 40
0.0206598446125364
 50
204.386837236996
 51
324.319999999992
  0
ARC
  8
6
  6
CONTINUOUS
 62
6
 10
-0.362863843965915
 20
0.272749547040569
 30
0.0
 40
0.0500489658039817
 50
161.294134617644
 51
198.705865382356
  0
ARC
  8
6
  6
CONTINUOUS
 62
6
 10
-0.391452548708595
 20
0.280270400141154
 30
0.0
 40
0.0206598486253361
 50
35.6800299999868
 51
155.613174782251
  0
LINE
  8
6
  6
CONTINUOUS
 62
6
 10
-0.369052905009894
 20
0.300930248766489
 30
0.0
 11
-0.369052905009894
 21
0.244751048788961
 31
0.0
  0
LINE
  8
6
  6
CONTINUOUS
 62
6
 10
-0.369052905009894
 20
0.244751048788961
 30
0.0
 11
-0.336107817023072
 21
0.244751048788961
 31
0.0
  0
LINE
  8
6
  6
CONTINUOUS
 62
6
 10
-0.326181419309576
 20
0.244751045142872
 30
0.0
 11
-0.310130223076593
 21
0.244751045142872
 31
0.0
  0
LINE
  8
6
  6
CONTINUOUS
 62
6
 10
-0.318155823073381
 20
0.2464364211204
 30
0.0
 11
-0.318155823073381
 21
0.2992448691204
 31
0.0
  0
LINE
  8
6
  6
CONTINUOUS
 62
6
 10
-0.326181419309576
 20
0.3009302451204
 30
0.0
 11
-0.310214697024678
 21
0.3009302451204
 31
0.0
  0
ARC
  8
6
  6
CONTINUOUS
 62
6
 10
-0.282988679260462
 20
0.265228696230374
 30
0.0
 40
0.020659844612536
 50
204.386837236995
 51
324.319999999989
  0
ARC
  8
6
  6
CONTINUOUS
 62
6
 10
-0.25439997050498
 20
0.272749547040569
 30
0.0
 40
0.0500489658039817
 50
161.294134617644
 51
198.705865382356
  0
ARC
  8
6
  6
CONTINUOUS
 62
6
 10
-0.282988675247662
 20
0.280270400141154
 30
0.0
 40
0.0206598486253361
 50
35.6800299999868
 51
155.613174782251
  0
LINE
  8
6
  6
CONTINUOUS
 62
6
 10
-0.26058903154896
 20
0.300930248766489
 30
0.0
 11
-0.26058903154896
 21
0.244751048788961
 31
0.0
  0
LINE
  8
6
  6
CONTINUOUS
 62
6
 10
-0.229168807561527
 20
0.244751048788961
 30
0.0
 11
-0.245615130488201
 21
0.279231481849415
 31
0.0
  0
LINE
  8
6
  6
CONTINUOUS
 62
6
 10
-0.258940952547676
 20
0.266071545727218
 30
0.0
 11
-0.229168807561527
 21
0.300930248766489
 31
0.0
  0
ARC
  8
6
  6
CONTINUOUS
 62
6
 10
-0.391452552721396
 20
-0.280440594089626
 30
0.0
 40
0.0206598446125361
 50
204.386837236996
 51
324.319999999992
  0
ARC
  8
6
  6
CONTINUOUS
 62
6
 10
-0.362863843965914
 20
-0.272919743279431
 30
0.0
 40
0.0500489658039817
 50
161.294134617644
 51
198.705865382356
  0
ARC
  8
6
  6
CONTINUOUS
 62
6
 10
-0.391452548708596
 20
-0.265398890178846
 30
0.0
 40
0.0206598486253359
 50
35.6800299999868
 51
155.613174782252
  0
LINE
  8
6
  6
CONTINUOUS
 62
6
 10
-0.369052905009894
 20
-0.244739041553511
 30
0.0
 11
-0.369052905009894
 21
-0.300918241531039
 31
0.0
  0
LINE
  8
6
  6
CONTINUOUS
 62
6
 10
-0.369052905009894
 20
-0.300918241531039
 30
0.0
 11
-0.336107817023072
 21
-0.300918241531039
 31
0.0
  0
LINE
  8
6
  6
CONTINUOUS
 62
6
 10
-0.326181419309577
 20
-0.300918245177128
 30
0.0
 11
-0.310130223076593
 21
-0.300918245177128
 31
0.0
  0
LINE
  8
6
  6
CONTINUOUS
 62
6
 10
-0.318155823073381
 20
-0.2992328691996
 30
0.0
 11
-0.318155823073381
 21
-0.2464244211996
 31
0.0
  0
LINE
  8
6
  6
CONTINUOUS
 62
6
 10
-0.326181419309577
 20
-0.2447390451996
 30
0.0
 11
-0.310214697024678
 21
-0.2447390451996
 31
0.0
  0
ARC
  8
6
  6
CONTINUOUS
 62
6
 10
-0.282988679260462
 20
-0.280440594089626
 30
0.0
 40
0.0206598446125364
 50
204.386837236997
 51
324.319999999993
  0
ARC
  8
6
  6
CONTINUOUS
 62
6
 10
-0.25439997050498
 20
-0.272919743279431
 30
0.0
 40
0.0500489658039817
 50
161.294134617644
 51
198.705865382356
  0
ARC
  8
6
  6
CONTINUOUS
 62
6
 10
-0.282988675247662
 20
-0.265398890178846
 30
0.0
 40
0.0206598486253361
 50
35.6800299999868
 51
155.613174782251
  0
LINE
  8
6
  6
CONTINUOUS
 62
6
 10
-0.26058903154896
 20
-0.244739041553511
 30
0.0
 11
-0.26058903154896
 21
-0.300918241531039
 31
0.0
  0
LINE
  8
6
  6
CONTINUOUS
 62
6
 10
-0.229168807561528
 20
-0.300918241531039
 30
0.0
 11
-0.245615130488201
 21
-0.266437808470585
 31
0.0
  0
LINE
  8
6
  6
CONTINUOUS
 62
6
 10
-0.258940952547676
 20
-0.279597744592782
 30
0.0
 11
-0.229168807561528
 21
-0.244739041553511
 31
0.0
  0
ARC
  8
6
  6
CONTINUOUS
 62
6
 10
-0.391452552721396
 20
-0.162696912085834
 30
0.0
 40
0.0206598446125364
 50
204.386837236995
 51
324.319999999991
  0
ARC
  8
6
  6
CONTINUOUS
 62
6
 10
-0.362863843965914
 20
-0.155176061275638
 30
0.0
 40
0.050048965803982
 50
161.294134617644
 51
198.705865382356
  0
ARC
  8
6
  6
CONTINUOUS
 62
6
 10
-0.391452548708596
 20
-0.147655208175053
 30
0.0
 40
0.0206598486253359
 50
35.6800299999867
 51
155.613174782251
  0
LINE
  8
6
  6
CONTINUOUS
 62
6
 10
-0.369052905009894
 20
-0.126995359549718
 30
0.0
 11
-0.369052905009894
 21
-0.183174559527246
 31
0.0
  0
LINE
  8
6
  6
CONTINUOUS
 62
6
 10
-0.369052905009894
 20
-0.183174559527246
 30
0.0
 11
-0.336107817023072
 21
-0.183174559527246
 31
0.0
  0
LINE
  8
6
  6
CONTINUOUS
 62
6
 10
-0.326181419309577
 20
-0.183174563173335
 30
0.0
 11
-0.310130223076593
 21
-0.183174563173335
 31
0.0
  0
LINE
  8
6
  6
CONTINUOUS
 62
6
 10
-0.318155823073381
 20
-0.181489187195807
 30
0.0
 11
-0.318155823073381
 21
-0.128680739195807
 31
0.0
  0
LINE
  8
6
  6
CONTINUOUS
 62
6
 10
-0.326181419309577
 20
-0.126995363195807
 30
0.0
 11
-0.310214697024678
 21
-0.126995363195807
 31
0.0
  0
ARC
  8
6
  6
CONTINUOUS
 62
6
 10
-0.282988679260461
 20
-0.162696912085835
 30
0.0
 40
0.0206598446125361
 50
204.386837236996
 51
324.319999999992
  0
ARC
  8
6
  6
CONTINUOUS
 62
6
 10
-0.25439997050498
 20
-0.155176061275638
 30
0.0
 40
0.050048965803982
 50
161.294134617644
 51
198.705865382356
  0
ARC
  8
6
  6
CONTINUOUS
 62
6
 10
-0.282988675247662
 20
-0.147655208175053
 30
0.0
 40
0.0206598486253359
 50
35.6800299999867
 51
155.613174782251
  0
LINE
  8
6
  6
CONTINUOUS
 62
6
 10
-0.260589031548961
 20
-0.126995359549718
 30
0.0
 11
-0.260589031548961
 21
-0.183174559527246
 31
0.0
  0
LINE
  8
6
  6
CONTINUOUS
 62
6
 10
-0.229168807561528
 20
-0.183174559527246
 30
0.0
 11
-0.245615130488201
 21
-0.148694126466793
 31
0.0
  0
LINE
  8
6
  6
CONTINUOUS
 62
6
 10
-0.258940952547677
 20
-0.16185406258899
 30
0.0
 11
-0.229168807561528
 21
-0.126995359549718
 31
0.0
  0
LINE
  8
6
  6
CONTINUOUS
 62
6
 10
-0.39495552576428
 20
-0.519185957659039
 30
0.0
 11
-0.39495552576428
 21
-0.464710699456748
 31
0.0
  0
LINE
  8
6
  6
CONTINUOUS
 62
6
 10
-0.412912809769896
 20
-0.463006757681511
 30
0.0
 11
-0.376998249784262
 21
-0.463006757681511
 31
0.0
  0
LINE
  8
6
  6
CONTINUOUS
 62
6
 10
-0.371380329784263
 20
-0.463006761595964
 30
0.0
 11
-0.35368897995015
 21
-0.489638901131185
 31
0.0
  0
LINE
  8
6
  6
CONTINUOUS
 62
6
 10
-0.352720809791726
 20
-0.519185961573493
 30
0.0
 11
-0.352720809791726
 21
-0.491096361584728
 31
0.0
  0
LINE
  8
6
  6
CONTINUOUS
 62
6
 10
-0.352720809791726
 20
-0.491096361584728
 30
0.0
 11
-0.33406128979919
 21
-0.463006761595964
 31
0.0
  0
LINE
  8
6
  6
CONTINUOUS
 62
6
 10
-0.327038889799191
 20
-0.519185961573492
 30
0.0
 11
-0.327038889799191
 21
-0.463006761595964
 31
0.0
  0
LINE
  8
6
  6
CONTINUOUS
 62
6
 10
-0.327038889799191
 20
-0.463006761595964
 30
0.0
 11
-0.306653865807345
 21
-0.463006761595963
 31
0.0
  0
ARC
  8
6
  6
CONTINUOUS
 62
6
 10
-0.307488524623505
 20
-0.477051561590345
 30
0.0
 40
0.0140695793192831
 50
273.400991681353
 51
86.599008318647
  0
LINE
  8
6
  6
CONTINUOUS
 62
6
 10
-0.306653865807344
 20
-0.491096361584728
 30
0.0
 11
-0.326196201799191
 21
-0.491096361584728
 31
0.0
  0
LINE
  8
6
  6
CONTINUOUS
 62
6
 10
-0.253440971368669
 20
-0.519186546322738
 30
0.0
 11
-0.286386059355491
 21
-0.519186546322738
 31
0.0
  0
LINE
  8
6
  6
CONTINUOUS
 62
6
 10
-0.286386059355491
 20
-0.519186546322738
 30
0.0
 11
-0.286406123355483
 21
-0.491096946333974
 31
0.0
  0
LINE
  8
6
  6
CONTINUOUS
 62
6
 10
-0.286406123355483
 20
-0.491096946333974
 30
0.0
 11
-0.26066401136578
 21
-0.491096946333974
 31
0.0
  0
LINE
  8
6
  6
CONTINUOUS
 62
6
 10
-0.286407326856546
 20
-0.490254732846974
 30
0.0
 11
-0.286426187355476
 21
-0.463007346345209
 31
0.0
  0
LINE
  8
6
  6
CONTINUOUS
 62
6
 10
-0.286426187355476
 20
-0.463007346345209
 30
0.0
 11
-0.256249931368669
 21
-0.463007346345209
 31
0.0
  0
LINE
  8
6
  6
CONTINUOUS
 62
6
 10
-0.0993986642479495
 20
0.463022038190139
 30
0.0
 11
-0.0993986642479495
 21
0.517497312309421
 31
0.0
  0
LINE
  8
6
  6
CONTINUOUS
 62
6
 10
-0.11735595350046
 20
0.519201254582529
 30
0.0
 11
-0.0814413830210407
 21
0.519201254582529
 31
0.0
  0
LINE
  8
6
  6
CONTINUOUS
 62
6
 10
-0.0758234613795547
 20
0.519201250668074
 30
0.0
 11
-0.0758234613795547
 21
0.463022034275684
 31
0.0
  0
LINE
  8
6
  6
CONTINUOUS
 62
6
 10
-0.0741380848871089
 20
0.491111642471879
 30
0.0
 11
-0.0434642327245954
 21
0.491111642471879
 31
0.0
  0
LINE
  8
6
  6
CONTINUOUS
 62
6
 10
-0.0417146514270332
 20
0.463022034275684
 30
0.0
 11
-0.0417146514270332
 21
0.519201250668074
 31
0.0
  0
LINE
  8
6
  6
CONTINUOUS
 62
6
 10
-0.00254654553831322
 20
0.463021449526269
 30
0.0
 11
-0.0354916431512775
 21
0.463021449526269
 31
0.0
  0
LINE
  8
6
  6
CONTINUOUS
 62
6
 10
-0.0354916431512775
 20
0.463021449526269
 30
0.0
 11
-0.0355117071571325
 21
0.491111057722463
 31
0.0
  0
LINE
  8
6
  6
CONTINUOUS
 62
6
 10
-0.0355117071571325
 20
0.491111057722463
 30
0.0
 11
-0.00976958764590612
 21
0.491111057722463
 31
0.0
  0
LINE
  8
6
  6
CONTINUOUS
 62
6
 10
-0.0355129106585458
 20
0.491953271455546
 30
0.0
 11
-0.035531771162987
 21
0.519200665918657
 31
0.0
  0
LINE
  8
6
  6
CONTINUOUS
 62
6
 10
-0.035531771162987
 20
0.519200665918657
 30
0.0
 11
-0.00535550635905622
 21
0.519200665918657
 31
0.0
  0
LINE
  8
6
  6
CONTINUOUS
 62
6
 10
0.00100161549841478
 20
0.463022034253214
 30
0.0
 11
0.00100162198178498
 21
0.51920124378215
 31
0.0
  0
LINE
  8
6
  6
CONTINUOUS
 62
6
 10
0.00100162198178498
 20
0.51920124378215
 30
0.0
 11
0.0354983360474917
 21
0.463022027389762
 31
0.0
  0
LINE
  8
6
  6
CONTINUOUS
 62
6
 10
0.0354983360474917
 20
0.463022027389762
 30
0.0
 11
0.0354983360474917
 21
0.51920124378215
 31
0.0
  0
LINE
  8
6
  6
CONTINUOUS
 62
6
 10
-0.39495552576428
 20
0.572152622980961
 30
0.0
 11
-0.39495552576428
 21
0.626627881183253
 31
0.0
  0
LINE
  8
6
  6
CONTINUOUS
 62
6
 10
-0.412912809769896
 20
0.62833182295849
 30
0.0
 11
-0.376998249784262
 21
0.62833182295849
 31
0.0
  0
LINE
  8
6
  6
CONTINUOUS
 62
6
 10
-0.371380329784263
 20
0.628331819044037
 30
0.0
 11
-0.35368897995015
 21
0.601699679508815
 31
0.0
  0
LINE
  8
6
  6
CONTINUOUS
 62
6
 10
-0.352720809791726
 20
0.572152619066508
 30
0.0
 11
-0.352720809791726
 21
0.600242219055273
 31
0.0
  0
LINE
  8
6
  6
CONTINUOUS
 62
6
 10
-0.352720809791726
 20
0.600242219055273
 30
0.0
 11
-0.33406128979919
 21
0.628331819044037
 31
0.0
  0
LINE
  8
6
  6
CONTINUOUS
 62
6
 10
-0.327038889799191
 20
0.572152619066508
 30
0.0
 11
-0.327038889799191
 21
0.628331819044037
 31
0.0
  0
LINE
  8
6
  6
CONTINUOUS
 62
6
 10
-0.327038889799191
 20
0.628331819044037
 30
0.0
 11
-0.306653865807345
 21
0.628331819044038
 31
0.0
  0
ARC
  8
6
  6
CONTINUOUS
 62
6
 10
-0.307488524623505
 20
0.614287019049656
 30
0.0
 40
0.014069579319283
 50
273.400991681353
 51
86.599008318647
  0
LINE
  8
6
  6
CONTINUOUS
 62
6
 10
-0.306653865807344
 20
0.600242219055273
 30
0.0
 11
-0.326196201799191
 21
0.600242219055273
 31
0.0
  0
LINE
  8
6
  6
CONTINUOUS
 62
6
 10
-0.253440971368669
 20
0.572152034317262
 30
0.0
 11
-0.286386059355491
 21
0.572152034317262
 31
0.0
  0
LINE
  8
6
  6
CONTINUOUS
 62
6
 10
-0.286386059355491
 20
0.572152034317262
 30
0.0
 11
-0.286406123355483
 21
0.600241634306027
 31
0.0
  0
LINE
  8
6
  6
CONTINUOUS
 62
6
 10
-0.286406123355483
 20
0.600241634306027
 30
0.0
 11
-0.26066401136578
 21
0.600241634306027
 31
0.0
  0
LINE
  8
6
  6
CONTINUOUS
 62
6
 10
-0.286407326856545
 20
0.601083847793027
 30
0.0
 11
-0.286426187355476
 21
0.628331234294791
 31
0.0
  0
LINE
  8
6
  6
CONTINUOUS
 62
6
 10
-0.286426187355476
 20
0.628331234294791
 30
0.0
 11
-0.256249931368669
 21
0.628331234294791
 31
0.0
  0
LINE
  8
6
  6
CONTINUOUS
 62
6
 10
-0.39495552576428
 20
0.135617190724961
 30
0.0
 11
-0.39495552576428
 21
0.190092448927253
 31
0.0
  0
LINE
  8
6
  6
CONTINUOUS
 62
6
 10
-0.412912809769896
 20
0.191796390702489
 30
0.0
 11
-0.376998249784262
 21
0.191796390702489
 31
0.0
  0
LINE
  8
6
  6
CONTINUOUS
 62
6
 10
-0.371380329784263
 20
0.191796386788036
 30
0.0
 11
-0.35368897995015
 21
0.165164247252815
 31
0.0
  0
LINE
  8
6
  6
CONTINUOUS
 62
6
 10
-0.352720809791726
 20
0.135617186810508
 30
0.0
 11
-0.352720809791726
 21
0.163706786799272
 31
0.0
  0
LINE
  8
6
  6
CONTINUOUS
 62
6
 10
-0.352720809791726
 20
0.163706786799272
 30
0.0
 11
-0.33406128979919
 21
0.191796386788036
 31
0.0
  0
LINE
  8
6
  6
CONTINUOUS
 62
6
 10
-0.327038889799191
 20
0.135617186810508
 30
0.0
 11
-0.327038889799191
 21
0.191796386788036
 31
0.0
  0
LINE
  8
6
  6
CONTINUOUS
 62
6
 10
-0.327038889799191
 20
0.191796386788036
 30
0.0
 11
-0.306653865807345
 21
0.191796386788037
 31
0.0
  0
ARC
  8
6
  6
CONTINUOUS
 62
6
 10
-0.307488524623505
 20
0.177751586793655
 30
0.0
 40
0.0140695793192832
 50
273.400991681353
 51
86.599008318647
  0
LINE
  8
6
  6
CONTINUOUS
 62
6
 10
-0.306653865807344
 20
0.163706786799272
 30
0.0
 11
-0.326196201799191
 21
0.163706786799272
 31
0.0
  0
LINE
  8
6
  6
CONTINUOUS
 62
6
 10
-0.253440971368669
 20
0.135616602061262
 30
0.0
 11
-0.286386059355491
 21
0.135616602061262
 31
0.0
  0
LINE
  8
6
  6
CONTINUOUS
 62
6
 10
-0.286386059355491
 20
0.135616602061262
 30
0.0
 11
-0.286406123355483
 21
0.163706202050027
 31
0.0
  0
LINE
  8
6
  6
CONTINUOUS
 62
6
 10
-0.286406123355483
 20
0.163706202050027
 30
0.0
 11
-0.26066401136578
 21
0.163706202050027
 31
0.0
  0
LINE
  8
6
  6
CONTINUOUS
 62
6
 10
-0.286407326856545
 20
0.164548415537026
 30
0.0
 11
-0.286426187355476
 21
0.191795802038791
 31
0.0
  0
LINE
  8
6
  6
CONTINUOUS
 62
6
 10
-0.286426187355476
 20
0.191795802038791
 30
0.0
 11
-0.256249931368669
 21
0.191795802038791
 31
0.0
  0
LINE
  8
6
  6
CONTINUOUS
 62
6
 10
-0.890028655045826
 20
0.68572046757126
 30
0.0
 11
-1.02989179143743
 21
0.68572046757126
 31
0.0
  0
LINE
  8
6
  6
CONTINUOUS
 62
6
 10
-0.890028655045826
 20
0.399662456914094
 30
0.0
 11
-1.07176929212188
 21
0.399662456914094
 31
0.0
  0
LINE
  8
6
  6
CONTINUOUS
 62
6
 10
-0.890028655045826
 20
0.231447368874887
 30
0.0
 11
-0.929263475882546
 21
0.239882783482971
 31
0.0
  0
LINE
  8
6
  6
CONTINUOUS
 62
6
 10
-1.01106448532248
 20
-0.046108008690157
 30
0.0
 11
-1.07059152238362
 21
-0.046108008690157
 31
0.0
  0
LINE
  8
6
  6
CONTINUOUS
 62
6
 10
-0.890028655045826
 20
-0.046108008690157
 30
0.0
 11
-0.975506367869005
 21
-0.046108008690157
 31
0.0
  0
ARC
  8
6
  6
CONTINUOUS
 62
6
 10
-1.04575187439682
 20
-0.0140431547113955
 30
0.0
 40
0.0603986081443906
 50
38.3831268565643
 51
45.0000000000004
  0
LINE
  8
6
  6
CONTINUOUS
 62
6
 10
-0.914567325464182
 20
-0.164068671374973
 30
0.0
 11
-0.978338655673867
 21
-0.164068671374973
 31
0.0
  0
LINE
  8
6
  6
CONTINUOUS
 62
6
 10
-1.01271768504683
 20
-0.164068671374973
 30
0.0
 11
-1.07176929212188
 21
-0.164068671374973
 31
0.0
  0
LINE
  8
6
  6
CONTINUOUS
 62
6
 10
-0.890028655045826
 20
-0.467942988551737
 30
0.0
 11
-1.02989179143743
 21
-0.467942988551737
 31
0.0
  0
ARC
  8
6
  6
CONTINUOUS
 62
6
 10
-1.04791247028976
 20
-0.710667068708678
 30
0.0
 40
0.0306749588069908
 50
238.113794935864
 51
269.999999999999
  0
ARC
  8
6
  6
CONTINUOUS
 62
6
 10
-0.948283955659444
 20
-0.7106680411791
 30
0.0
 40
0.0582376880936789
 50
38.1364468466612
 51
44.9999999999991
  0
ARC
  8
6
  6
CONTINUOUS
 62
6
 10
-1.04791247028976
 20
0.124745536574273
 30
0.0
 40
0.0306749588069908
 50
238.113794935864
 51
269.999999999999
  0
ARC
  8
6
  6
CONTINUOUS
 62
6
 10
-0.948283955659444
 20
0.124745104365197
 30
0.0
 40
0.0582375800414092
 50
38.1364340509655
 51
45.0000000000004
  0
ARC
  8
6
  6
CONTINUOUS
 62
6
 10
-1.04791247028976
 20
0.579021552681926
 30
0.0
 40
0.0306748507547209
 50
238.113841953147
 51
269.999999999999
  0
ARC
  8
6
  6
CONTINUOUS
 62
6
 10
-0.948283955659441
 20
0.579020688263773
 30
0.0
 40
0.0582379041982159
 50
38.1364724379132
 51
45.0000000000012
  0
ARC
  8
6
  6
CONTINUOUS
 62
6
 10
-1.04791247028976
 20
-0.574641903441071
 30
0.0
 40
0.0306748507547214
 50
238.113841953147
 51
269.999999999998
  0
ARC
  8
6
  6
CONTINUOUS
 62
6
 10
-0.948283955659442
 20
-0.574642767859224
 30
0.0
 40
0.0582379041982165
 50
38.1364724379119
 51
44.9999999999997
  0
ARC
  8
6
  6
CONTINUOUS
 62
6
 10
-1.04791247028976
 20
-0.710667717022298
 30
0.0
 40
0.058237796145949
 50
224.999999999998
 51
231.863540357687
  0
ARC
  8
6
  6
CONTINUOUS
 62
6
 10
-1.04791247028976
 20
-0.57464276785923
 30
0.0
 40
0.0582379041982183
 50
225
 51
231.863527562087
  0
ARC
  8
6
  6
CONTINUOUS
 62
6
 10
-0.948283955659446
 20
-0.710668041179103
 30
0.0
 40
0.0582376880936825
 50
45.0000000000002
 51
89.9999999999997
  0
ARC
  8
6
  6
CONTINUOUS
 62
6
 10
-0.948283955659444
 20
-0.574642767859227
 30
0.0
 40
0.0582379041982198
 50
44.9999999999997
 51
89.9999999999999
  0
ARC
  8
6
  6
CONTINUOUS
 62
6
 10
-1.04575187439682
 20
-0.0140431547113983
 30
0.0
 40
0.0603986081443941
 50
45.0000000000008
 51
180.000325365139
  0
ARC
  8
6
  6
CONTINUOUS
 62
6
 10
-1.04791247028976
 20
0.12474521241746
 30
0.0
 40
0.0582379041982177
 50
224.999999999998
 51
231.863527562085
  0
ARC
  8
6
  6
CONTINUOUS
 62
6
 10
-0.948283955659445
 20
0.579020688263771
 30
0.0
 40
0.0582379041982199
 50
44.9999999999997
 51
89.9999999999998
  0
ARC
  8
6
  6
CONTINUOUS
 62
6
 10
-1.04791247028976
 20
0.579020688263768
 30
0.0
 40
0.0582379041982188
 50
225.000000000003
 51
231.863527562088
  0
LINE
  8
9
  6
CONTINUOUS
 62
9
 10
-0.16779683749812
 20
-0.272793672295417
 30
0.0
 11
-0.188111253391176
 21
-0.272793672295417
 31
0.0
  0
ARC
  8
9
  6
CONTINUOUS
 62
9
 10
-0.167801284386026
 20
-0.286855964672928
 30
0.0
 40
0.0140622930806252
 50
270.000000002506
 51
89.98188148179
  0
LINE
  8
9
  6
CONTINUOUS
 62
9
 10
-0.189798728561527
 20
-0.300918257753553
 30
0.0
 11
-0.167801284385408
 21
-0.300918257753553
 31
0.0
  0
LINE
  8
9
  6
CONTINUOUS
 62
9
 10
-0.189798728561527
 20
-0.2447390451996
 30
0.0
 11
-0.189798728561527
 21
-0.300918257753553
 31
0.0
  0
LINE
  8
9
  6
CONTINUOUS
 62
9
 10
-0.170312408149802
 20
-0.2447390451996
 30
0.0
 11
-0.189798728561527
 21
-0.2447390451996
 31
0.0
  0
ARC
  8
9
  6
CONTINUOUS
 62
9
 10
-0.170424777834093
 20
-0.258857702366975
 30
0.0
 40
0.0141191043326348
 50
296.191824756086
 51
89.5439953928122
  0
LINE
  8
9
  6
CONTINUOUS
 62
9
 10
-0.128934381139033
 20
-0.300988221172731
 30
0.0
 11
-0.145005569465896
 21
-0.300988221172731
 31
0.0
  0
LINE
  8
9
  6
CONTINUOUS
 62
9
 10
-0.136969977185104
 20
-0.24642652402058
 30
0.0
 11
-0.136969977185104
 21
-0.29930074602488
 31
0.0
  0
LINE
  8
9
  6
CONTINUOUS
 62
9
 10
-0.129018960301151
 20
-0.24473904885023
 30
0.0
 11
-0.145005569465896
 21
-0.24473904885023
 31
0.0
  0
LINE
  8
9
  6
CONTINUOUS
 62
9
 10
-0.0833151646395673
 20
-0.276118915767741
 30
0.0
 11
-0.10704968051316
 21
-0.276118915767741
 31
0.0
  0
ARC
  8
9
  6
CONTINUOUS
 62
9
 10
-0.0833151646395644
 20
-0.277806222190571
 30
0.0
 40
0.00168730642282994
 50
9.96276948421632E-11
 51
90.0000000000993
  0
LINE
  8
9
  6
CONTINUOUS
 62
9
 10
-0.0816278582167344
 20
-0.282053485007899
 30
0.0
 11
-0.0816278582167344
 21
-0.277806222190568
 31
0.0
  0
ARC
  8
9
  6
CONTINUOUS
 62
9
 10
-0.100779206698742
 20
-0.282200454160578
 30
0.0
 40
0.0191519124008844
 50
200.855259280572
 51
0.439684280072809
  0
ARC
  8
9
  6
CONTINUOUS
 62
9
 10
-0.071216260897635
 20
-0.272950668762902
 30
0.0
 40
0.0501062916863623
 50
161.293996529298
 51
198.703982620842
  0
ARC
  8
9
  6
CONTINUOUS
 62
9
 10
-0.0998376708642863
 20
-0.265421086925666
 30
0.0
 40
0.0206835123321359
 50
35.680030000002
 51
155.613174782207
  0
ARC
  8
9
  6
CONTINUOUS
 62
9
 10
-0.629921260082818
 20
-0.629921260033631
 30
0.0
 40
0.157480314717184
 50
359.999999904786
 51
90.0000000824255
  0
ARC
  8
9
  6
CONTINUOUS
 62
9
 10
-0.629921260309997
 20
0.629921260308739
 30
0.0
 40
0.157480314992259
 50
270.000000000221
 51
2.31175436467494E-10
  0
ARC
  8
9
  6
CONTINUOUS
 62
9
 10
0.629921260172161
 20
0.629921260170851
 30
0.0
 40
0.157480314854396
 50
179.999999949594
 51
270.000000049909
  0
LINE
  8
9
  6
CONTINUOUS
 62
9
 10
-0.692913386000001
 20
-0.409448819716476
 30
0.0
 11
-0.692913386000001
 21
0.409448819716481
 31
0.0
  0
LINE
  8
9
  6
CONTINUOUS
 62
9
 10
-0.409448819717766
 20
0.692913386000003
 30
0.0
 11
0.409448819717766
 21
0.692913386000003
 31
0.0
  0
ARC
  8
9
  6
CONTINUOUS
 62
9
 10
0.6299212604
 20
0.409448819716495
 30
0.0
 40
0.0629921256000001
 50
359.999999999985
 51
90.0000000824253
  0
ARC
  8
9
  6
CONTINUOUS
 62
9
 10
0.409448819717766
 20
0.629921260400018
 30
0.0
 40
0.0629921256000002
 50
359.999999917556
 51
89.9999999999962
  0
ARC
  8
9
  6
CONTINUOUS
 62
9
 10
-0.409448819717766
 20
0.629921260400003
 30
0.0
 40
0.0629921256
 50
89.9999999999967
 51
180.000000082429
  0
ARC
  8
9
  6
CONTINUOUS
 62
9
 10
-0.629921260400001
 20
0.409448819716481
 30
0.0
 40
0.0629921256000001
 50
89.9999999175681
 51
180
  0
ARC
  8
9
  6
CONTINUOUS
 62
9
 10
-0.629921260400001
 20
-0.40944881971649
 30
0.0
 40
0.0629921256000002
 50
179.999999999986
 51
270.000000082416
  0
ARC
  8
9
  6
CONTINUOUS
 62
9
 10
-0.409448819765634
 20
-0.62992126040001
 30
0.0
 40
0.0629921256000001
 50
179.999999904782
 51
269.999999999985
  0
ARC
  8
9
  6
CONTINUOUS
 62
9
 10
0.62992126017215
 20
-0.629921260170875
 30
0.0
 40
0.157480314854397
 50
89.9999999500753
 51
180.000000050391
  0
ARC
  8
9
  6
CONTINUOUS
 62
9
 10
0.629921260400015
 20
-0.409448819716478
 30
0.0
 40
0.0629921256000001
 50
269.999999917556
 51
359.999999999986
  0
ARC
  8
9
  6
CONTINUOUS
 62
9
 10
0.409448819717781
 20
-0.6299212604
 30
0.0
 40
0.0629921256000003
 50
269.999999999985
 51
8.24255948752648E-8
  0
LINE
  8
9
  6
CONTINUOUS
 62
9
 10
-0.409448819765634
 20
-0.692913385999998
 30
0.0
 11
0.409448819717766
 21
-0.692913385999998
 31
0.0
  0
LINE
  8
9
  6
CONTINUOUS
 62
9
 10
0.692913386000001
 20
0.409448819716481
 30
0.0
 11
0.692913386000001
 21
-0.409448819716478
 31
0.0
  0
ARC
  8
9
  6
CONTINUOUS
 62
9
 10
-0.00901859265342846
 20
-0.28427105228607
 30
0.0
 40
0.0167157062127964
 50
196.004825930413
 51
267.948379947897
  0
ARC
  8
9
  6
CONTINUOUS
 62
9
 10
0.0223188883858002
 20
-0.272828657764789
 30
0.0
 40
0.0500489806622666
 50
161.294116943038
 51
198.705883056962
  0
ARC
  8
9
  6
CONTINUOUS
 62
9
 10
-0.0090185904415019
 20
-0.261423617720292
 30
0.0
 40
0.0167260461924365
 50
16.1288893758921
 51
163.872176621307
  0
ARC
  8
9
  6
CONTINUOUS
 62
9
 10
-0.0403560544921078
 20
-0.272828657766477
 30
0.0
 40
0.0500489806622614
 50
341.293755627023
 51
18.7062443729769
  0
ARC
  8
9
  6
CONTINUOUS
 62
9
 10
-0.00901859265342915
 20
-0.284271052286068
 30
0.0
 40
0.0167157062127982
 50
272.76397343518
 51
343.99410806019
  0
LINE
  8
9
  6
CONTINUOUS
 62
9
 10
0.0192830373187623
 20
-0.244699269111944
 30
0.0
 11
0.0192830373187623
 21
-0.300878485767672
 31
0.0
  0
LINE
  8
9
  6
CONTINUOUS
 62
9
 10
0.0396680673624147
 20
-0.244699269111943
 30
0.0
 11
0.0192830373187623
 21
-0.244699269111944
 31
0.0
  0
ARC
  8
9
  6
CONTINUOUS
 62
9
 10
0.0393973922826407
 20
-0.258744052484164
 30
0.0
 40
0.0140473913938291
 50
271.095264000529
 51
88.8959160393167
  0
LINE
  8
9
  6
CONTINUOUS
 62
9
 10
0.0211267638387563
 20
-0.272788877356979
 30
0.0
 11
0.0396659053425626
 21
-0.272788877356979
 31
0.0
  0
LINE
  8
9
  6
CONTINUOUS
 62
9
 10
0.0537128715263449
 20
-0.300878485767672
 30
0.0
 11
0.0404662998196583
 21
-0.274389429237311
 31
0.0
  0
LINE
  8
9
  6
CONTINUOUS
 62
9
 10
0.0803979994400628
 20
-0.244699269111944
 30
0.0
 11
0.0593307931941638
 21
-0.300878485767672
 31
0.0
  0
LINE
  8
9
  6
CONTINUOUS
 62
9
 10
0.101465205685961
 20
-0.300878485767672
 30
0.0
 11
0.0803979994400628
 21
-0.244699269111944
 31
0.0
  0
LINE
  8
9
  6
CONTINUOUS
 62
9
 10
0.0952654278472078
 20
-0.288840082198587
 30
0.0
 11
0.0655305710329168
 21
-0.288840082198587
 31
0.0
  0
LINE
  8
9
  6
CONTINUOUS
 62
9
 10
0.107822334056601
 20
-0.244699275997867
 30
0.0
 11
0.107822327573231
 21
-0.300878485790144
 31
0.0
  0
LINE
  8
9
  6
CONTINUOUS
 62
9
 10
0.142319048284012
 20
-0.300878492653594
 30
0.0
 11
0.107822334056601
 21
-0.244699275997867
 31
0.0
  0
LINE
  8
9
  6
CONTINUOUS
 62
9
 10
0.142319048284012
 20
-0.244699275997867
 30
0.0
 11
0.142319048284012
 21
-0.300878492653594
 31
0.0
  0
LINE
  8
9
  6
CONTINUOUS
 62
9
 10
0.187818163252012
 20
-0.276040113332173
 30
0.0
 11
0.164113165392906
 21
-0.276040113332173
 31
0.0
  0
ARC
  8
9
  6
CONTINUOUS
 62
9
 10
0.187818163252015
 20
-0.277725321294866
 30
0.0
 40
0.001685207962693
 50
1.01491499885501E-10
 51
90.000000000101
  0
LINE
  8
9
  6
CONTINUOUS
 62
9
 10
0.189503371214708
 20
-0.281967301899317
 30
0.0
 11
0.189503371214708
 21
-0.277725321294864
 31
0.0
  0
ARC
  8
9
  6
CONTINUOUS
 62
9
 10
0.170375840778324
 20
-0.282114088270195
 30
0.0
 40
0.0191280936539297
 50
200.855259280566
 51
0.439684280071168
  0
ARC
  8
9
  6
CONTINUOUS
 62
9
 10
0.199902019894699
 20
-0.272875806595654
 30
0.0
 40
0.0500439757641956
 50
161.293996529298
 51
198.703982620842
  0
ARC
  8
9
  6
CONTINUOUS
 62
9
 10
0.171316205648579
 20
-0.265355589108082
 30
0.0
 40
0.0206577887732525
 50
35.6800300000009
 51
155.613174782207
  0
LINE
  8
9
  6
CONTINUOUS
 62
9
 10
0.195968069921942
 20
-0.300879070517091
 30
0.0
 11
0.228913167689336
 21
-0.300879070517091
 31
0.0
  0
LINE
  8
9
  6
CONTINUOUS
 62
9
 10
0.195948005915993
 20
-0.272789462189227
 30
0.0
 11
0.195968069921942
 21
-0.300879070517091
 31
0.0
  0
LINE
  8
9
  6
CONTINUOUS
 62
9
 10
0.221690125547886
 20
-0.272789462189227
 30
0.0
 11
0.195948005915993
 21
-0.272789462189227
 31
0.0
  0
LINE
  8
9
  6
CONTINUOUS
 62
9
 10
0.195927941910044
 20
-0.244699853861363
 30
0.0
 11
0.195946802414574
 21
-0.271947248452195
 31
0.0
  0
LINE
  8
9
  6
CONTINUOUS
 62
9
 10
0.226104206855426
 20
-0.244699853861363
 30
0.0
 11
0.195927941910044
 21
-0.244699853861363
 31
0.0
  0
ARC
  8
9
  6
CONTINUOUS
 62
9
 10
0.287220382443808
 20
-0.316883950391582
 30
0.0
 40
0.0110236220302029
 50
359.999999904786
 51
90.0000000824258
  0
ARC
  8
9
  6
CONTINUOUS
 62
9
 10
0.287220382427904
 20
-0.228694973967615
 30
0.0
 40
0.0110236220494581
 50
270.000000000221
 51
2.30214908953692E-10
  0
ARC
  8
9
  6
CONTINUOUS
 62
9
 10
0.375409358861657
 20
-0.228694973977267
 30
0.0
 40
0.0110236220398077
 50
179.999999949603
 51
270.000000049918
  0
LINE
  8
9
  6
CONTINUOUS
 62
9
 10
0.282810933629605
 20
-0.30145087956938
 30
0.0
 11
0.282810933629605
 21
-0.244128044809074
 31
0.0
  0
LINE
  8
9
  6
CONTINUOUS
 62
9
 10
0.302653453269362
 20
-0.224285525169228
 30
0.0
 11
0.359976288029849
 21
-0.224285525169228
 31
0.0
  0
ARC
  8
9
  6
CONTINUOUS
 62
9
 10
0.375409358877605
 20
-0.244128044809073
 30
0.0
 40
0.00440944879199993
 50
359.999999999987
 51
90.0000000824256
  0
ARC
  8
9
  6
CONTINUOUS
 62
9
 10
0.359976288029849
 20
-0.228694973961226
 30
0.0
 40
0.00440944879200001
 50
359.999999917561
 51
89.9999999999968
  0
ARC
  8
9
  6
CONTINUOUS
 62
9
 10
0.302653453269362
 20
-0.228694973961228
 30
0.0
 40
0.00440944879200006
 50
89.9999999999976
 51
180.000000082428
  0
ARC
  8
9
  6
CONTINUOUS
 62
9
 10
0.287220382421605
 20
-0.244128044809074
 30
0.0
 40
0.00440944879199994
 50
89.9999999175683
 51
179.999999999999
  0
ARC
  8
9
  6
CONTINUOUS
 62
9
 10
0.287220382421605
 20
-0.301450879569382
 30
0.0
 40
0.00440944879200006
 50
179.999999999994
 51
270.000000082424
  0
ARC
  8
9
  6
CONTINUOUS
 62
9
 10
0.302653453266011
 20
-0.316883950417228
 30
0.0
 40
0.00440944879200001
 50
179.999999904792
 51
269.999999999994
  0
ARC
  8
9
  6
CONTINUOUS
 62
9
 10
0.375409358861656
 20
-0.316883950401188
 30
0.0
 40
0.0110236220398077
 50
89.9999999500748
 51
180.000000050391
  0
ARC
  8
9
  6
CONTINUOUS
 62
9
 10
0.375409358877606
 20
-0.30145087956938
 30
0.0
 40
0.004409448792
 50
269.999999917564
 51
359.999999999992
  0
ARC
  8
9
  6
CONTINUOUS
 62
9
 10
0.359976288029849
 20
-0.316883950417228
 30
0.0
 40
0.00440944879199996
 50
269.999999999992
 51
8.24260147084827E-8
  0
LINE
  8
9
  6
CONTINUOUS
 62
9
 10
0.302653453266011
 20
-0.321293399209228
 30
0.0
 11
0.359976288029849
 21
-0.321293399209228
 31
0.0
  0
LINE
  8
9
  6
CONTINUOUS
 62
9
 10
0.379818807669605
 20
-0.244128044809074
 30
0.0
 11
0.379818807669605
 21
-0.30145087956938
 31
0.0
  0
ENDSEC
  0
EOF
