  0
SECTION
  2
HEADER
  9
$ACADVER
  1
AC1003
  9
$EXTMIN
 10
-1.09630796254121
 20
0.787401574800014
  9
$EXTMAX
 10
0.787401574800012
 20
-0.787401574800009
  9
$INSUNITS
 70
1
  9
$INSBASE
 10
-0.154453193870601
 20
2.4980018054066E-15
999
Created with OMAX LAYOUT for Windows. (www.omax.com) 1/5/2024
  0
ENDSEC
  0
SECTION
  2
TABLES
  0
TABLE
  2
LAYER
 70
    10
  0
LAYER
  2
0
 70
     0
 62
     7
  6
CONTINUOUS
  0
LAYER
  2
1
 70
     0
 62
     7
  6
CONTINUOUS
  0
LAYER
  2
2
 70
     0
 62
     7
  6
CONTINUOUS
  0
LAYER
  2
3
 70
     0
 62
     7
  6
CONTINUOUS
  0
LAYER
  2
4
 70
     0
 62
     7
  6
CONTINUOUS
  0
LAYER
  2
5
 70
     0
 62
     7
  6
CONTINUOUS
  0
LAYER
  2
6
 70
     0
 62
     7
  6
CONTINUOUS
  0
LAYER
  2
7
 70
     0
 62
     7
  6
CONTINUOUS
  0
LAYER
  2
8
 70
     0
 62
     7
  6
CONTINUOUS
  0
LAYER
  2
9
 70
     0
 62
     7
  6
CONTINUOUS
  0
LAYER
  2
10
 70
     0
 62
     7
  6
CONTINUOUS
  0
LAYER
  2
11
 70
     0
 62
     7
  6
CONTINUOUS
  0
LAYER
  2
12
 70
     0
 62
     7
  6
CONTINUOUS
  0
LAYER
  2
13
 70
     0
 62
     7
  6
CONTINUOUS
  0
LAYER
  2
14
 70
     0
 62
     7
  6
CONTINUOUS
  0
LAYER
  2
15
 70
     0
 62
     7
  6
CONTINUOUS
  0
LAYER
  2
16
 70
     0
 62
     7
  6
CONTINUOUS
  0
LAYER
  2
17
 70
     0
 62
     7
  6
CONTINUOUS
  0
LAYER
  2
18
 70
     0
 62
     7
  6
CONTINUOUS
  0
LAYER
  2
19
 70
     0
 62
     7
  6
CONTINUOUS
  0
LAYER
  2
20
 70
     0
 62
     7
  6
CONTINUOUS
  0
LAYER
  2
21
 70
     0
 62
     7
  6
CONTINUOUS
  0
LAYER
  2
22
 70
     0
 62
     7
  6
CONTINUOUS
  0
LAYER
  2
23
 70
     0
 62
     7
  6
CONTINUOUS
  0
LAYER
  2
24
 70
     0
 62
     7
  6
CONTINUOUS
  0
LAYER
  2
25
 70
     0
 62
     7
  6
CONTINUOUS
  0
LAYER
  2
26
 70
     0
 62
     7
  6
CONTINUOUS
  0
LAYER
  2
27
 70
     0
 62
     7
  6
CONTINUOUS
  0
LAYER
  2
28
 70
     0
 62
     7
  6
CONTINUOUS
  0
LAYER
  2
29
 70
     0
 62
     7
  6
CONTINUOUS
  0
LAYER
  2
30
 70
     0
 62
     7
  6
CONTINUOUS
  0
LAYER
  2
31
 70
     0
 62
     7
  6
CONTINUOUS
  0
ENDTAB
  0
ENDSEC
  0
SECTION
  2
ENTITIES
  0
LINE
  8
1
  6
CONTINUOUS
 62
1
 10
-1.09630796254025
 20
-0.4032253365652
 30
0.0
 11
-0.910387140377249
 21
-0.4032253365652
 31
0.0
  0
LINE
  8
1
  6
CONTINUOUS
 62
1
 10
-1.09630796254025
 20
-0.374915425834462
 30
0.0
 11
-1.09630796254025
 21
-0.4032253365652
 31
0.0
  0
LINE
  8
1
  6
CONTINUOUS
 62
1
 10
-0.880186135045826
 20
-0.374915425834462
 30
0.0
 11
-1.09630796254025
 21
-0.374915425834462
 31
0.0
  0
LINE
  8
1
  6
CONTINUOUS
 62
1
 10
-0.880186135045826
 20
-0.421159636163166
 30
0.0
 11
-0.880186135045826
 21
-0.374915425834462
 31
0.0
  0
LINE
  8
1
  6
CONTINUOUS
 62
1
 10
-1.06138763006201
 20
-0.477785508551737
 30
0.0
 11
-0.880186135045826
 21
-0.421159636163166
 31
0.0
  0
LINE
  8
1
  6
CONTINUOUS
 62
1
 10
-0.880186135045826
 20
-0.477785508551737
 30
0.0
 11
-1.06138763006201
 21
-0.477785508551737
 31
0.0
  0
LINE
  8
1
  6
CONTINUOUS
 62
1
 10
-0.880186135045826
 20
-0.506097364223327
 30
0.0
 11
-0.880186135045826
 21
-0.477785508551737
 31
0.0
  0
LINE
  8
1
  6
CONTINUOUS
 62
1
 10
-1.09630796254025
 20
-0.506097364223327
 30
0.0
 11
-0.880186135045826
 21
-0.506097364223327
 31
0.0
  0
LINE
  8
1
  6
CONTINUOUS
 62
1
 10
-1.09630796254025
 20
-0.459853153894623
 30
0.0
 11
-1.09630796254025
 21
-0.506097364223327
 31
0.0
  0
LINE
  8
1
  6
CONTINUOUS
 62
1
 10
-0.910387140377249
 20
-0.4032253365652
 30
0.0
 11
-1.09630796254025
 21
-0.459853153894623
 31
0.0
  0
LINE
  8
1
  6
CONTINUOUS
 62
1
 10
-0.938441435659445
 20
-0.751184547515668
 30
0.0
 11
-1.03806995028976
 21
-0.751184547515668
 31
0.0
  0
ARC
  8
1
  6
CONTINUOUS
 62
1
 10
-0.938441435659445
 20
-0.720509588708678
 30
0.0
 40
0.0306749588069907
 50
270
 51
90
  0
LINE
  8
1
  6
CONTINUOUS
 62
1
 10
-0.938441435659445
 20
-0.662272873085422
 30
0.0
 11
-0.938441435659445
 21
-0.689834629901687
 31
0.0
  0
ARC
  8
1
  6
CONTINUOUS
 62
1
 10
-0.938441435659445
 20
-0.720510561179103
 30
0.0
 40
0.058237688093682
 50
269.999999999999
 51
90.000000000001
  0
LINE
  8
1
  6
CONTINUOUS
 62
1
 10
-1.03806995028976
 20
-0.778748033168247
 30
0.0
 11
-0.938441435659445
 21
-0.778748249272785
 31
0.0
  0
ARC
  8
1
  6
CONTINUOUS
 62
1
 10
-1.03806995028976
 20
-0.720510237022295
 30
0.0
 40
0.0582377961459515
 50
90
 51
270
  0
LINE
  8
1
  6
CONTINUOUS
 62
1
 10
-1.03806995028976
 20
-0.689834629901687
 30
0.0
 11
-1.03806995028976
 21
-0.662272440876343
 31
0.0
  0
ARC
  8
1
  6
CONTINUOUS
 62
1
 10
-1.03806995028976
 20
-0.720509588708678
 30
0.0
 40
0.0306749588069907
 50
90.0000000000001
 51
270
  0
LINE
  8
1
  6
CONTINUOUS
 62
1
 10
-1.03806995028976
 20
-0.553809572686351
 30
0.0
 11
-0.938441435659445
 21
-0.553809788790889
 31
0.0
  0
ARC
  8
1
  6
CONTINUOUS
 62
1
 10
-1.03806995028976
 20
-0.584484423441071
 30
0.0
 40
0.0306748507547213
 50
90
 51
270
  0
LINE
  8
1
  6
CONTINUOUS
 62
1
 10
-0.938441435659445
 20
-0.615159274195793
 30
0.0
 11
-1.03806995028976
 21
-0.615159274195793
 31
0.0
  0
ARC
  8
1
  6
CONTINUOUS
 62
1
 10
-0.938441067420376
 20
-0.584484082601746
 30
0.0
 40
0.0306751915962577
 50
269.999312195167
 51
345.52183835412
  0
LINE
  8
1
  6
CONTINUOUS
 62
1
 10
-0.880709108030525
 20
-0.592153217168953
 30
0.0
 11
-0.908740027801241
 21
-0.592153217168953
 31
0.0
  0
ARC
  8
1
  6
CONTINUOUS
 62
1
 10
-0.938440621626017
 20
-0.584484333862527
 30
0.0
 40
0.0582386420960718
 50
269.999199145471
 51
352.433297341481
  0
LINE
  8
1
  6
CONTINUOUS
 62
1
 10
-1.03806995028976
 20
-0.642723192057449
 30
0.0
 11
-0.938441435659445
 21
-0.64272297595291
 31
0.0
  0
ARC
  8
1
  6
CONTINUOUS
 62
1
 10
-1.03806995028976
 20
-0.584485287859228
 30
0.0
 40
0.0582379041982209
 50
90
 51
270
  0
LINE
  8
1
  6
CONTINUOUS
 62
1
 10
-0.938441435659445
 20
-0.526247383661006
 30
0.0
 11
-1.03806995028976
 21
-0.526247383661006
 31
0.0
  0
ARC
  8
1
  6
CONTINUOUS
 62
1
 10
-0.938440523484415
 20
-0.584486143140558
 30
0.0
 40
0.0582387594866953
 50
7.56830513434376
 51
90.0008974054392
  0
LINE
  8
1
  6
CONTINUOUS
 62
1
 10
-0.908740027801241
 20
-0.576815629713189
 30
0.0
 11
-0.880709108030525
 21
-0.576815629713189
 31
0.0
  0
ARC
  8
1
  6
CONTINUOUS
 62
1
 10
-0.938440900463279
 20
-0.584484836877792
 30
0.0
 40
0.0306750480915726
 50
14.4783709045344
 51
90.00099965553
  0
LINE
  8
2
  6
CONTINUOUS
 62
2
 10
-1.09630796254025
 20
-0.253178984641944
 30
0.0
 11
-0.91321945532356
 21
-0.287626030250895
 31
0.0
  0
LINE
  8
2
  6
CONTINUOUS
 62
2
 10
-1.09630796254025
 20
-0.223921455507116
 30
0.0
 11
-1.09630796254025
 21
-0.253178984641944
 31
0.0
  0
LINE
  8
2
  6
CONTINUOUS
 62
2
 10
-0.880186135045826
 20
-0.271110258776365
 30
0.0
 11
-1.09630796254025
 21
-0.223921455507116
 31
0.0
  0
LINE
  8
2
  6
CONTINUOUS
 62
2
 10
-0.880186135045826
 20
-0.307916535567587
 30
0.0
 11
-0.880186135045826
 21
-0.271110258776365
 31
0.0
  0
LINE
  8
2
  6
CONTINUOUS
 62
2
 10
-1.09630796254025
 20
-0.354161394209911
 30
0.0
 11
-0.880186135045826
 21
-0.307916535567587
 31
0.0
  0
LINE
  8
2
  6
CONTINUOUS
 62
2
 10
-1.09630796254025
 20
-0.323016408030307
 30
0.0
 11
-1.09630796254025
 21
-0.354161394209911
 31
0.0
  0
LINE
  8
2
  6
CONTINUOUS
 62
2
 10
-0.91321945532356
 20
-0.287626030250895
 30
0.0
 11
-1.09630796254025
 21
-0.323016408030307
 31
0.0
  0
LINE
  8
2
  6
CONTINUOUS
 62
2
 10
-1.00287516504683
 20
-0.173911191374973
 30
0.0
 11
-1.07176929212188
 21
-0.173911191374973
 31
0.0
  0
LINE
  8
2
  6
CONTINUOUS
 62
2
 10
-1.00287516504683
 20
-0.10973570691185
 30
0.0
 11
-1.00287516504683
 21
-0.173911191374973
 31
0.0
  0
LINE
  8
2
  6
CONTINUOUS
 62
2
 10
-0.978338655673867
 20
-0.10973570691185
 30
0.0
 11
-1.00287516504683
 21
-0.10973570691185
 31
0.0
  0
LINE
  8
2
  6
CONTINUOUS
 62
2
 10
-0.978338655673867
 20
-0.173911191374973
 30
0.0
 11
-0.978338655673867
 21
-0.10973570691185
 31
0.0
  0
LINE
  8
2
  6
CONTINUOUS
 62
2
 10
-0.904724805464182
 20
-0.173911191374973
 30
0.0
 11
-0.978338655673867
 21
-0.173911191374973
 31
0.0
  0
LINE
  8
2
  6
CONTINUOUS
 62
2
 10
-0.904724805464182
 20
-0.104072903568452
 30
0.0
 11
-0.904724805464182
 21
-0.173911191374973
 31
0.0
  0
LINE
  8
2
  6
CONTINUOUS
 62
2
 10
-0.880186135045826
 20
-0.104072903568452
 30
0.0
 11
-0.904724805464182
 21
-0.104072903568452
 31
0.0
  0
LINE
  8
2
  6
CONTINUOUS
 62
2
 10
-0.880186135045826
 20
-0.203168288300719
 30
0.0
 11
-0.880186135045826
 21
-0.104072903568452
 31
0.0
  0
LINE
  8
2
  6
CONTINUOUS
 62
2
 10
-1.09630796254025
 20
-0.203168288300719
 30
0.0
 11
-0.880186135045826
 21
-0.203168288300719
 31
0.0
  0
LINE
  8
2
  6
CONTINUOUS
 62
2
 10
-1.09630796254025
 20
-0.105960792822302
 30
0.0
 11
-1.09630796254025
 21
-0.203168288300719
 31
0.0
  0
LINE
  8
2
  6
CONTINUOUS
 62
2
 10
-1.07176929212188
 20
-0.105960792822302
 30
0.0
 11
-1.09630796254025
 21
-0.105960792822302
 31
0.0
  0
LINE
  8
2
  6
CONTINUOUS
 62
2
 10
-1.07176929212188
 20
-0.173911191374973
 30
0.0
 11
-1.07176929212188
 21
-0.105960792822302
 31
0.0
  0
LINE
  8
2
  6
CONTINUOUS
 62
2
 10
-1.0269384054791
 20
-0.055950528690157
 30
0.0
 11
-1.07059152238362
 21
-0.055950528690157
 31
0.0
  0
LINE
  8
2
  6
CONTINUOUS
 62
2
 10
-1.0269384054791
 20
-0.0852071934068284
 30
0.0
 11
-1.0269384054791
 21
-0.055950528690157
 31
0.0
  0
LINE
  8
2
  6
CONTINUOUS
 62
2
 10
-1.09630796254025
 20
-0.0852071934068284
 30
0.0
 11
-1.0269384054791
 21
-0.0852071934068284
 31
0.0
  0
LINE
  8
2
  6
CONTINUOUS
 62
2
 10
-1.09630796254025
 20
-0.0238860176965522
 30
0.0
 11
-1.09630796254025
 21
-0.0852071934068284
 31
0.0
  0
ARC
  8
2
  6
CONTINUOUS
 62
2
 10
-1.03590935439682
 20
-0.0238856747113994
 30
0.0
 40
0.0603986081443939
 50
32.855260347106
 51
180.00032536514
  0
ARC
  8
2
  6
CONTINUOUS
 62
2
 10
-0.944380169491108
 20
-0.0307081669588306
 30
0.0
 40
0.0568447104797386
 50
98.6165201815958
 51
135.856609805123
  0
LINE
  8
2
  6
CONTINUOUS
 62
2
 10
-0.880186135045826
 20
0.0365136882588683
 30
0.0
 11
-0.952896668281942
 21
0.0254949500176424
 31
0.0
  0
LINE
  8
2
  6
CONTINUOUS
 62
2
 10
-0.880186135045826
 20
0.0107996252521757
 30
0.0
 11
-0.880186135045826
 21
0.0365136882588683
 31
0.0
  0
LINE
  8
2
  6
CONTINUOUS
 62
2
 10
-0.949171026027315
 20
5.20982075596434E-5
 30
0.0
 11
-0.880186135045826
 21
0.0107996252521757
 31
0.0
  0
ARC
  8
2
  6
CONTINUOUS
 62
2
 10
-0.944378509903684
 20
-0.0307059482939368
 30
0.0
 40
0.0311291765934066
 50
98.856238943018
 51
180.007764564469
  0
LINE
  8
2
  6
CONTINUOUS
 62
2
 10
-0.975505525165854
 20
-0.055950528690157
 30
0.0
 11
-0.975507686211243
 21
-0.0307101668332401
 31
0.0
  0
LINE
  8
2
  6
CONTINUOUS
 62
2
 10
-0.880186135045826
 20
-0.055950528690157
 30
0.0
 11
-0.975505525165854
 21
-0.055950528690157
 31
0.0
  0
LINE
  8
2
  6
CONTINUOUS
 62
2
 10
-0.880186135045826
 20
-0.0852071934068284
 30
0.0
 11
-0.880186135045826
 21
-0.055950528690157
 31
0.0
  0
LINE
  8
2
  6
CONTINUOUS
 62
2
 10
-1.00122196532248
 20
-0.0852071934068284
 30
0.0
 11
-0.880186135045826
 21
-0.0852071934068284
 31
0.0
  0
LINE
  8
2
  6
CONTINUOUS
 62
2
 10
-1.00122196532248
 20
-0.0238855854874763
 30
0.0
 11
-1.00122196532248
 21
-0.0852071934068284
 31
0.0
  0
ARC
  8
2
  6
CONTINUOUS
 62
2
 10
-1.03590674385305
 20
-0.0238855854874749
 30
0.0
 40
0.0346847785305713
 50
359.999999999995
 51
179.999999999999
  0
LINE
  8
2
  6
CONTINUOUS
 62
2
 10
-1.07059152238362
 20
-0.055950528690157
 30
0.0
 11
-1.07059152238362
 21
-0.0238855854874763
 31
0.0
  0
ARC
  8
2
  6
CONTINUOUS
 62
2
 10
-0.168001451120622
 20
0.0442982539380536
 30
0.0
 40
0.0178753235658838
 50
213.433287883767
 51
270.015999253471
  0
ARC
  8
2
  6
CONTINUOUS
 62
2
 10
-0.165820960181604
 20
0.0444112103108017
 30
0.0
 40
0.0181193539589947
 50
263.104148598811
 51
34.0979167513617
  0
ARC
  8
2
  6
CONTINUOUS
 62
2
 10
-0.168572606642753
 20
0.039121177746773
 30
0.0
 40
0.0235353121026384
 50
41.0237111689345
 51
127.558530040726
  0
LINE
  8
2
  6
CONTINUOUS
 62
2
 10
-0.182919063436875
 20
0.0577783504485242
 30
0.0
 11
-0.182919063436875
 21
0.0826586707016122
 31
0.0
  0
LINE
  8
2
  6
CONTINUOUS
 62
2
 10
-0.182919063436875
 20
0.0826586707016122
 30
0.0
 11
-0.148953255565661
 21
0.0826586707016122
 31
0.0
  0
ARC
  8
2
  6
CONTINUOUS
 62
2
 10
-0.127472159946109
 20
0.0403569068322272
 30
0.0
 40
0.0137770358788089
 50
199.465441458883
 51
268.51457204655
  0
ARC
  8
2
  6
CONTINUOUS
 62
2
 10
-0.0886708274544479
 20
0.0545965844008252
 30
0.0
 40
0.0551080217414745
 50
160.019185139364
 51
199.980814860636
  0
ARC
  8
2
  6
CONTINUOUS
 62
2
 10
-0.127408635336813
 20
0.0688202220339689
 30
0.0
 40
0.0138422760303487
 50
19.4473483225583
 51
160.559582801478
  0
ARC
  8
2
  6
CONTINUOUS
 62
2
 10
-0.166146426533315
 20
0.0545965845066025
 30
0.0
 40
0.0551080217414703
 50
340.017438400847
 51
19.9825615991529
  0
ARC
  8
2
  6
CONTINUOUS
 62
2
 10
-0.127300123447542
 20
0.0402822049744178
 30
0.0
 40
0.013709835068824
 50
271.354984375415
 51
340.759261725184
  0
LINE
  8
2
  6
CONTINUOUS
 62
2
 10
-0.159298565167827
 20
-0.519185926280236
 30
0.0
 11
-0.159298565167827
 21
-0.463006726302707
 31
0.0
  0
LINE
  8
2
  6
CONTINUOUS
 62
2
 10
-0.159298565167827
 20
-0.463006726302707
 30
0.0
 11
-0.188391365156189
 21
-0.505943686285532
 31
0.0
  0
LINE
  8
2
  6
CONTINUOUS
 62
2
 10
-0.188391365156189
 20
-0.505943686285532
 30
0.0
 11
-0.151072325171117
 21
-0.505943686285532
 31
0.0
  0
LINE
  8
2
  6
CONTINUOUS
 62
2
 10
-0.145454405171117
 20
-0.463006761595964
 30
0.0
 11
-0.111746887295713
 21
-0.463006761595964
 31
0.0
  0
ARC
  8
2
  6
CONTINUOUS
 62
2
 10
-0.0265099570906896
 20
-0.519195499999096
 30
0.0
 40
0.102090688087171
 50
146.60686951312
 51
179.994700000001
  0
ARC
  8
3
  6
CONTINUOUS
 62
3
 10
-1.03807061267433
 20
0.114901393714677
 30
0.0
 40
0.0582366054992007
 50
270.000651683596
 51
333.18393542012
  0
ARC
  8
3
  6
CONTINUOUS
 62
3
 10
-1.03806995028976
 20
0.114902692417464
 30
0.0
 40
0.0582379041982214
 50
90
 51
270
  0
LINE
  8
3
  6
CONTINUOUS
 62
3
 10
-1.03806995028976
 20
0.145577975381264
 30
0.0
 11
-1.03806995028976
 21
0.173140596615686
 31
0.0
  0
ARC
  8
3
  6
CONTINUOUS
 62
3
 10
-1.03806995028976
 20
0.114903016574273
 30
0.0
 40
0.0306749588069905
 50
90
 51
270
  0
ARC
  8
3
  6
CONTINUOUS
 62
3
 10
-1.03806912374604
 20
0.114904898718218
 30
0.0
 40
0.030676840962071
 50
269.998456246973
 51
333.182376586099
  0
LINE
  8
3
  6
CONTINUOUS
 62
3
 10
-0.99041673836591
 20
0.141177438650933
 30
0.0
 11
-1.01069166622721
 21
0.10106497851554
 31
0.0
  0
ARC
  8
3
  6
CONTINUOUS
 62
3
 10
-0.938442817203171
 20
0.11490194740795
 30
0.0
 40
0.0582382170150437
 50
89.9986408130514
 51
153.181054524402
  0
ARC
  8
3
  6
CONTINUOUS
 62
3
 10
-0.938441435659445
 20
0.114902584365195
 30
0.0
 40
0.0582375800414124
 50
269.999999999999
 51
90.000000000001
  0
LINE
  8
3
  6
CONTINUOUS
 62
3
 10
-0.938441435659445
 20
0.0842278416627433
 30
0.0
 11
-0.938441435659445
 21
0.0566650043237824
 31
0.0
  0
ARC
  8
3
  6
CONTINUOUS
 62
3
 10
-0.938441435659445
 20
0.114902692417464
 30
0.0
 40
0.0306748507547211
 50
270
 51
90
  0
ARC
  8
3
  6
CONTINUOUS
 62
3
 10
-0.938441992764447
 20
0.114903245099281
 30
0.0
 40
0.0306742980779629
 50
89.9989593970406
 51
153.183940738284
  0
LINE
  8
3
  6
CONTINUOUS
 62
3
 10
-0.986096808628676
 20
0.0886292428112305
 30
0.0
 11
-0.965817558676601
 21
0.128741270737544
 31
0.0
  0
LINE
  8
3
  6
CONTINUOUS
 62
3
 10
-1.06894048370466
 20
0.262186688069272
 30
0.0
 11
-0.953799985255511
 21
0.286303287233479
 31
0.0
  0
LINE
  8
3
  6
CONTINUOUS
 62
3
 10
-0.880186135045826
 20
0.221604848874887
 30
0.0
 11
-1.06894048370466
 21
0.262186688069272
 31
0.0
  0
LINE
  8
3
  6
CONTINUOUS
 62
3
 10
-0.880186135045826
 20
0.193292128785139
 30
0.0
 11
-0.880186135045826
 21
0.221604848874887
 31
0.0
  0
LINE
  8
3
  6
CONTINUOUS
 62
3
 10
-1.09630796254025
 20
0.243311469307928
 30
0.0
 11
-0.880186135045826
 21
0.193292128785139
 31
0.0
  0
LINE
  8
3
  6
CONTINUOUS
 62
3
 10
-1.09630796254025
 20
0.282949147770849
 30
0.0
 11
-1.09630796254025
 21
0.243311469307928
 31
0.0
  0
LINE
  8
3
  6
CONTINUOUS
 62
3
 10
-0.880186135045826
 20
0.332969136607253
 30
0.0
 11
-1.09630796254025
 21
0.282949147770849
 31
0.0
  0
LINE
  8
3
  6
CONTINUOUS
 62
3
 10
-0.880186135045826
 20
0.301824582636732
 30
0.0
 11
-0.880186135045826
 21
0.332969136607253
 31
0.0
  0
LINE
  8
3
  6
CONTINUOUS
 62
3
 10
-0.929263475882545
 20
0.291443136681405
 30
0.0
 11
-0.880186135045826
 21
0.301824582636732
 31
0.0
  0
LINE
  8
3
  6
CONTINUOUS
 62
3
 10
-0.929263475882545
 20
0.247086383397476
 30
0.0
 11
-0.929263475882545
 21
0.291443136681405
 31
0.0
  0
LINE
  8
3
  6
CONTINUOUS
 62
3
 10
-0.953799985255511
 20
0.252278078845562
 30
0.0
 11
-0.929263475882545
 21
0.247086383397476
 31
0.0
  0
LINE
  8
3
  6
CONTINUOUS
 62
3
 10
-0.953799985255511
 20
0.286303287233479
 30
0.0
 11
-0.953799985255511
 21
0.252278078845562
 31
0.0
  0
LINE
  8
3
  6
CONTINUOUS
 62
3
 10
-0.880186135045826
 20
0.389819936914094
 30
0.0
 11
-1.07176929212188
 21
0.389819936914094
 31
0.0
  0
LINE
  8
3
  6
CONTINUOUS
 62
3
 10
-0.880186135045826
 20
0.360563272197425
 30
0.0
 11
-0.880186135045826
 21
0.389819936914094
 31
0.0
  0
LINE
  8
3
  6
CONTINUOUS
 62
3
 10
-1.07176929212188
 20
0.360563272197425
 30
0.0
 11
-0.880186135045826
 21
0.360563272197425
 31
0.0
  0
LINE
  8
3
  6
CONTINUOUS
 62
3
 10
-1.07176929212188
 20
0.310543499465557
 30
0.0
 11
-1.07176929212188
 21
0.360563272197425
 31
0.0
  0
LINE
  8
3
  6
CONTINUOUS
 62
3
 10
-1.09630796254025
 20
0.310543499465557
 30
0.0
 11
-1.07176929212188
 21
0.310543499465557
 31
0.0
  0
LINE
  8
3
  6
CONTINUOUS
 62
3
 10
-1.09630796254025
 20
0.44078300595927
 30
0.0
 11
-1.09630796254025
 21
0.310543499465557
 31
0.0
  0
LINE
  8
3
  6
CONTINUOUS
 62
3
 10
-1.07176929212188
 20
0.44078300595927
 30
0.0
 11
-1.09630796254025
 21
0.44078300595927
 31
0.0
  0
LINE
  8
3
  6
CONTINUOUS
 62
3
 10
-1.07176929212188
 20
0.389819936914094
 30
0.0
 11
-1.07176929212188
 21
0.44078300595927
 31
0.0
  0
LINE
  8
3
  6
CONTINUOUS
 62
3
 10
-0.182919063436875
 20
0.628331234294791
 30
0.0
 11
-0.165227713602763
 21
0.60169909475957
 31
0.0
  0
LINE
  8
3
  6
CONTINUOUS
 62
3
 10
-0.16425954344434
 20
0.572152034317262
 30
0.0
 11
-0.16425954344434
 21
0.600241634306026
 31
0.0
  0
LINE
  8
3
  6
CONTINUOUS
 62
3
 10
-0.16425954344434
 20
0.600241634306026
 30
0.0
 11
-0.145600023451803
 21
0.628331234294791
 31
0.0
  0
LINE
  8
3
  6
CONTINUOUS
 62
3
 10
-0.149933847450069
 20
0.135616605975715
 30
0.0
 11
-0.18287893543689
 21
0.135616605975715
 31
0.0
  0
LINE
  8
3
  6
CONTINUOUS
 62
3
 10
-0.18287893543689
 20
0.135616605975715
 30
0.0
 11
-0.182898999436883
 21
0.16370620596448
 31
0.0
  0
LINE
  8
3
  6
CONTINUOUS
 62
3
 10
-0.182898999436883
 20
0.16370620596448
 30
0.0
 11
-0.157156887447179
 21
0.16370620596448
 31
0.0
  0
LINE
  8
3
  6
CONTINUOUS
 62
3
 10
-0.182900202937944
 20
0.164548419451479
 30
0.0
 11
-0.182919063436875
 21
0.191795805953244
 31
0.0
  0
LINE
  8
3
  6
CONTINUOUS
 62
3
 10
-0.182919063436875
 20
0.191795805953244
 30
0.0
 11
-0.152742807450069
 21
0.191795805953244
 31
0.0
  0
ARC
  8
3
  6
CONTINUOUS
 62
3
 10
-0.167344533519705
 20
-0.393891284625521
 30
0.0
 40
0.0161945091199224
 50
210.52199966625
 51
269.441063338044
  0
LINE
  8
3
  6
CONTINUOUS
 62
3
 10
-0.167502513066864
 20
-0.410085023171574
 30
0.0
 11
-0.161777575382293
 21
-0.410140873325108
 31
0.0
  0
ARC
  8
3
  6
CONTINUOUS
 62
3
 10
-0.16163335615264
 20
-0.395357631064422
 30
0.0
 40
0.0147839457156865
 50
269.44106367777
 51
357.350682656722
  0
ARC
  8
3
  6
CONTINUOUS
 62
3
 10
-0.158890611311796
 20
-0.39713163258137
 30
0.0
 40
0.0120747559631735
 50
5.18227244383299
 51
59.344829999995
  0
LINE
  8
3
  6
CONTINUOUS
 62
3
 10
-0.152734055651359
 20
-0.386744305977756
 30
0.0
 11
-0.174844348419014
 21
-0.37724808017972
 31
0.0
  0
ARC
  8
3
  6
CONTINUOUS
 62
3
 10
-0.168687788730969
 20
-0.366860758822745
 30
0.0
 40
0.0120747535033034
 50
185.182406440216
 51
239.344800865817
  0
ARC
  8
3
  6
CONTINUOUS
 62
3
 10
-0.166004222386348
 20
-0.368595709230387
 30
0.0
 40
0.0147230638875712
 50
91.2613438550503
 51
177.491952931064
  0
LINE
  8
3
  6
CONTINUOUS
 62
3
 10
-0.166328318616796
 20
-0.353876212911867
 30
0.0
 11
-0.160616994619421
 21
-0.353870207313552
 31
0.0
  0
ARC
  8
3
  6
CONTINUOUS
 62
3
 10
-0.161127061289535
 20
-0.369544383156605
 30
0.0
 40
0.0156824729034333
 50
29.2717084966236
 51
88.1361471074754
  0
LINE
  8
3
  6
CONTINUOUS
 62
3
 10
-0.137250792264583
 20
-0.353872903531965
 30
0.0
 11
-0.137250792264583
 21
-0.410052103509493
 31
0.0
  0
LINE
  8
3
  6
CONTINUOUS
 62
3
 10
-0.135565416264583
 20
-0.381962503520729
 30
0.0
 11
-0.104891573064583
 21
-0.381962503520729
 31
0.0
  0
LINE
  8
3
  6
CONTINUOUS
 62
3
 10
-0.103141992278227
 20
-0.410052103509493
 30
0.0
 11
-0.103141992278227
 21
-0.353872903531965
 31
0.0
  0
LINE
  8
3
  6
CONTINUOUS
 62
3
 10
-0.0944194345631256
 20
-0.410052107155582
 30
0.0
 11
-0.0783682383301417
 21
-0.410052107155582
 31
0.0
  0
LINE
  8
3
  6
CONTINUOUS
 62
3
 10
-0.0863938383269309
 20
-0.408366731178054
 30
0.0
 11
-0.0863938383269309
 21
-0.355558283178054
 31
0.0
  0
LINE
  8
3
  6
CONTINUOUS
 62
3
 10
-0.0944194345631256
 20
-0.353872907178054
 30
0.0
 11
-0.0784527122782266
 21
-0.353872907178054
 31
0.0
  0
LINE
  8
3
  6
CONTINUOUS
 62
3
 10
-0.0441501221562819
 20
-0.381961241645755
 30
0.0
 11
-0.0681948197562819
 21
-0.381961241645755
 31
0.0
  0
LINE
  8
3
  6
CONTINUOUS
 62
3
 10
-0.0698721701459929
 20
-0.410050841634519
 30
0.0
 11
-0.0698721701459929
 21
-0.353871641656991
 31
0.0
  0
LINE
  8
3
  6
CONTINUOUS
 62
3
 10
-0.0698721701459929
 20
-0.353871641656991
 30
0.0
 11
-0.0397360421591687
 21
-0.353871641656991
 31
0.0
  0
LINE
  8
3
  6
CONTINUOUS
 62
3
 10
-0.0106907603170217
 20
-0.410052099595039
 30
0.0
 11
-0.0106907603170217
 21
-0.355576841392748
 31
0.0
  0
LINE
  8
3
  6
CONTINUOUS
 62
3
 10
-0.0286480443226382
 20
-0.353872899617511
 30
0.0
 11
0.00726651566299586
 21
-0.353872899617511
 31
0.0
  0
LINE
  8
3
  6
CONTINUOUS
 62
3
 10
0.127462016094447
 20
-0.410052688258739
 30
0.0
 11
0.0945169281076258
 21
-0.410052688258739
 31
0.0
  0
LINE
  8
3
  6
CONTINUOUS
 62
3
 10
0.0945169281076258
 20
-0.410052688258739
 30
0.0
 11
0.0944968641076331
 21
-0.381963088269974
 31
0.0
  0
LINE
  8
3
  6
CONTINUOUS
 62
3
 10
0.0944968641076331
 20
-0.381963088269974
 30
0.0
 11
0.120238976097336
 21
-0.381963088269974
 31
0.0
  0
LINE
  8
3
  6
CONTINUOUS
 62
3
 10
0.0944956606065716
 20
-0.381120874782975
 30
0.0
 11
0.0944768001076413
 21
-0.35387348828121
 31
0.0
  0
LINE
  8
3
  6
CONTINUOUS
 62
3
 10
0.0944768001076413
 20
-0.35387348828121
 30
0.0
 11
0.124653056094447
 21
-0.35387348828121
 31
0.0
  0
LINE
  8
3
  6
CONTINUOUS
 62
3
 10
-0.0983862147006819
 20
-0.628320400472285
 30
0.0
 11
-0.131331302687503
 21
-0.628320400472285
 31
0.0
  0
LINE
  8
3
  6
CONTINUOUS
 62
3
 10
-0.131331302687503
 20
-0.628320400472285
 30
0.0
 11
-0.131351366687496
 21
-0.600230800483519
 31
0.0
  0
LINE
  8
3
  6
CONTINUOUS
 62
3
 10
-0.131351366687496
 20
-0.600230800483519
 30
0.0
 11
-0.105609254697793
 21
-0.600230800483519
 31
0.0
  0
LINE
  8
3
  6
CONTINUOUS
 62
3
 10
-0.131352570188558
 20
-0.599388586996521
 30
0.0
 11
-0.131371430687488
 21
-0.572141200494756
 31
0.0
  0
LINE
  8
3
  6
CONTINUOUS
 62
3
 10
-0.131371430687488
 20
-0.572141200494756
 30
0.0
 11
-0.101195174700682
 21
-0.572141200494756
 31
0.0
  0
LINE
  8
3
  6
CONTINUOUS
 62
3
 10
-0.0948380547006821
 20
-0.628319815745511
 30
0.0
 11
-0.0948380482173139
 21
-0.572140622631431
 31
0.0
  0
LINE
  8
3
  6
CONTINUOUS
 62
3
 10
-0.0948380482173139
 20
-0.572140622631431
 30
0.0
 11
-0.0603413442311124
 21
-0.62831982260896
 31
0.0
  0
LINE
  8
3
  6
CONTINUOUS
 62
3
 10
-0.0603413442311124
 20
-0.62831982260896
 30
0.0
 11
-0.0603413442311124
 21
-0.572140622631431
 31
0.0
  0
LINE
  8
3
  6
CONTINUOUS
 62
3
 10
-0.0312960623889655
 20
-0.628319811808585
 30
0.0
 11
-0.0312960623889655
 21
-0.573844553606295
 31
0.0
  0
LINE
  8
3
  6
CONTINUOUS
 62
3
 10
-0.0492533463945824
 20
-0.572140611831057
 30
0.0
 11
-0.0133387864089483
 21
-0.572140611831057
 31
0.0
  0
LINE
  8
3
  6
CONTINUOUS
 62
3
 10
0.0258293080353441
 20
-0.628320400472285
 30
0.0
 11
-0.00711577995147716
 21
-0.628320400472285
 31
0.0
  0
LINE
  8
3
  6
CONTINUOUS
 62
3
 10
-0.00711577995147716
 20
-0.628320400472285
 30
0.0
 11
-0.00713584395146987
 21
-0.600230800483519
 31
0.0
  0
LINE
  8
3
  6
CONTINUOUS
 62
3
 10
-0.00713584395146987
 20
-0.600230800483519
 30
0.0
 11
0.0186062680382334
 21
-0.600230800483519
 31
0.0
  0
LINE
  8
3
  6
CONTINUOUS
 62
3
 10
-0.00713704745253136
 20
-0.599388586996521
 30
0.0
 11
-0.00715590795146174
 21
-0.572141200494756
 31
0.0
  0
LINE
  8
3
  6
CONTINUOUS
 62
3
 10
-0.00715590795146174
 20
-0.572141200494756
 30
0.0
 11
0.0230203480353442
 21
-0.572141200494756
 31
0.0
  0
LINE
  8
3
  6
CONTINUOUS
 62
3
 10
0.031447228035344
 20
-0.628319815723039
 30
0.0
 11
0.031447228035344
 21
-0.572140615745511
 31
0.0
  0
LINE
  8
3
  6
CONTINUOUS
 62
3
 10
0.031447228035344
 20
-0.572140615745511
 30
0.0
 11
0.0518322520271924
 21
-0.57214061574551
 31
0.0
  0
ARC
  8
3
  6
CONTINUOUS
 62
3
 10
0.0515615770277745
 20
-0.586185394948187
 30
0.0
 40
0.0140473872235111
 50
271.095264000535
 51
88.8959160393185
  0
LINE
  8
3
  6
CONTINUOUS
 62
3
 10
0.0518300900079823
 20
-0.600230215651447
 30
0.0
 11
0.0332909540079819
 21
-0.600230215651447
 31
0.0
  0
LINE
  8
3
  6
CONTINUOUS
 62
3
 10
0.0526304842474606
 20
-0.601830767056614
 30
0.0
 11
0.0658770520215729
 21
-0.628319815723039
 31
0.0
  0
LINE
  8
3
  6
CONTINUOUS
 62
3
 10
-0.0983862147006815
 20
-0.0826511101522842
 30
0.0
 11
-0.131331302687503
 21
-0.0826511101522842
 31
0.0
  0
LINE
  8
3
  6
CONTINUOUS
 62
3
 10
-0.131331302687503
 20
-0.0826511101522842
 30
0.0
 11
-0.131351366687496
 21
-0.0545615101635201
 31
0.0
  0
LINE
  8
3
  6
CONTINUOUS
 62
3
 10
-0.131351366687496
 20
-0.0545615101635201
 30
0.0
 11
-0.105609254697793
 21
-0.0545615101635201
 31
0.0
  0
LINE
  8
3
  6
CONTINUOUS
 62
3
 10
-0.131352570188558
 20
-0.0537192966765204
 30
0.0
 11
-0.131371430687488
 21
-0.026471910174756
 31
0.0
  0
LINE
  8
3
  6
CONTINUOUS
 62
3
 10
-0.131371430687488
 20
-0.026471910174756
 30
0.0
 11
-0.101195174700681
 21
-0.026471910174756
 31
0.0
  0
LINE
  8
3
  6
CONTINUOUS
 62
3
 10
-0.0948380547006816
 20
-0.0826505254255103
 30
0.0
 11
-0.0948380482173135
 21
-0.0264713323114315
 31
0.0
  0
LINE
  8
3
  6
CONTINUOUS
 62
3
 10
-0.0948380482173135
 20
-0.0264713323114315
 30
0.0
 11
-0.060341344231112
 21
-0.0826505322889592
 31
0.0
  0
LINE
  8
3
  6
CONTINUOUS
 62
3
 10
-0.060341344231112
 20
-0.0826505322889592
 30
0.0
 11
-0.060341344231112
 21
-0.0264713323114315
 31
0.0
  0
LINE
  8
3
  6
CONTINUOUS
 62
3
 10
-0.0312960623889651
 20
-0.082650521488585
 30
0.0
 11
-0.0312960623889651
 21
-0.0281752632862941
 31
0.0
  0
LINE
  8
3
  6
CONTINUOUS
 62
3
 10
-0.0492533463945817
 20
-0.0264713215110567
 30
0.0
 11
-0.0133387864089479
 21
-0.0264713215110567
 31
0.0
  0
LINE
  8
3
  6
CONTINUOUS
 62
3
 10
0.0258293080353446
 20
-0.0826511101522842
 30
0.0
 11
-0.00711577995147671
 21
-0.0826511101522842
 31
0.0
  0
LINE
  8
3
  6
CONTINUOUS
 62
3
 10
-0.00711577995147671
 20
-0.0826511101522842
 30
0.0
 11
-0.00713584395146938
 21
-0.0545615101635201
 31
0.0
  0
LINE
  8
3
  6
CONTINUOUS
 62
3
 10
-0.00713584395146938
 20
-0.0545615101635201
 30
0.0
 11
0.0186062680382337
 21
-0.0545615101635201
 31
0.0
  0
LINE
  8
3
  6
CONTINUOUS
 62
3
 10
-0.00713704745253092
 20
-0.0537192966765204
 30
0.0
 11
-0.00715590795146136
 21
-0.026471910174756
 31
0.0
  0
LINE
  8
3
  6
CONTINUOUS
 62
3
 10
-0.00715590795146136
 20
-0.026471910174756
 30
0.0
 11
0.0230203480353445
 21
-0.026471910174756
 31
0.0
  0
LINE
  8
3
  6
CONTINUOUS
 62
3
 10
0.0314472280353444
 20
-0.0826505254030387
 30
0.0
 11
0.0314472280353444
 21
-0.0264713254255103
 31
0.0
  0
LINE
  8
3
  6
CONTINUOUS
 62
3
 10
0.0314472280353444
 20
-0.0264713254255103
 30
0.0
 11
0.0518322520271928
 21
-0.0264713254255099
 31
0.0
  0
ARC
  8
3
  6
CONTINUOUS
 62
3
 10
0.0515615770277749
 20
-0.040516104628187
 30
0.0
 40
0.014047387223511
 50
271.095264000535
 51
88.8959160393186
  0
LINE
  8
3
  6
CONTINUOUS
 62
3
 10
0.0518300900079828
 20
-0.0545609253314469
 30
0.0
 11
0.0332909540079823
 21
-0.0545609253314469
 31
0.0
  0
LINE
  8
3
  6
CONTINUOUS
 62
3
 10
0.0526304842474615
 20
-0.0561614767366143
 30
0.0
 11
0.0658770520215733
 21
-0.0826505254030387
 31
0.0
  0
ARC
  8
3
  6
CONTINUOUS
 62
3
 10
-0.167344533519705
 20
0.47917957988648
 30
0.0
 40
0.0161945091199224
 50
210.521999666255
 51
269.441063338047
  0
LINE
  8
3
  6
CONTINUOUS
 62
3
 10
-0.167502513066864
 20
0.462985841340427
 30
0.0
 11
-0.161777575382293
 21
0.462929991186892
 31
0.0
  0
ARC
  8
3
  6
CONTINUOUS
 62
3
 10
-0.16163335615264
 20
0.477713233447578
 30
0.0
 40
0.0147839457156863
 50
269.441063677774
 51
357.350682656726
  0
ARC
  8
3
  6
CONTINUOUS
 62
3
 10
-0.158890611311796
 20
0.475939231930631
 30
0.0
 40
0.0120747559631736
 50
5.18227244383068
 51
59.3448299999929
  0
LINE
  8
3
  6
CONTINUOUS
 62
3
 10
-0.152734055651359
 20
0.486326558534245
 30
0.0
 11
-0.174844348419013
 21
0.495822784332281
 31
0.0
  0
ARC
  8
3
  6
CONTINUOUS
 62
3
 10
-0.168687788730969
 20
0.506210105689257
 30
0.0
 40
0.0120747535033039
 50
185.182406440216
 51
212.263603653017
  0
ARC
  8
3
  6
CONTINUOUS
 62
3
 10
-0.166004222386347
 20
0.504475155281614
 30
0.0
 40
0.0147230638875711
 50
91.2613438550533
 51
177.491952931065
  0
LINE
  8
3
  6
CONTINUOUS
 62
3
 10
-0.166328318616796
 20
0.519194651600133
 30
0.0
 11
-0.160616994619421
 21
0.519200657198449
 31
0.0
  0
ARC
  8
3
  6
CONTINUOUS
 62
3
 10
-0.161127061289535
 20
0.503526481355395
 30
0.0
 40
0.0156824729034334
 50
29.2717084966219
 51
88.1361471074738
  0
ARC
  8
3
  6
CONTINUOUS
 62
3
 10
0.157810501098493
 20
0.48349640844392
 30
0.0
 40
0.0206598446125362
 50
204.386837237006
 51
324.320000000001
  0
ARC
  8
3
  6
CONTINUOUS
 62
3
 10
0.186399209853975
 20
0.491017259254115
 30
0.0
 40
0.0500489658039823
 50
161.294134617644
 51
198.705865382356
  0
ARC
  8
3
  6
CONTINUOUS
 62
3
 10
0.157810505111293
 20
0.498538112354701
 30
0.0
 40
0.0206598486253362
 50
35.6800299999895
 51
155.613174782252
  0
ARC
  8
3
  6
CONTINUOUS
 62
3
 10
-0.168687788730969
 20
0.506210105689257
 30
0.0
 40
0.0120747535033036
 50
212.263603653018
 51
239.34480086582
  0
LINE
  8
4
  6
CONTINUOUS
 62
4
 10
0.629921259599997
 20
-0.787401574799998
 30
0.0
 11
-0.629921260000005
 21
-0.787401574800002
 31
0.0
  0
LINE
  8
4
  6
CONTINUOUS
 62
4
 10
0.787401574800006
 20
-0.629921259600006
 30
0.0
 11
0.787401574799999
 21
0.629921259599999
 31
0.0
  0
LINE
  8
4
  6
CONTINUOUS
 62
4
 10
-1.09630796254025
 20
0.490790460732409
 30
0.0
 11
-1.09630796254025
 21
0.461534660433892
 31
0.0
  0
LINE
  8
4
  6
CONTINUOUS
 62
4
 10
-0.880186135045826
 20
0.490790460732409
 30
0.0
 11
-1.09630796254025
 21
0.490790460732409
 31
0.0
  0
LINE
  8
4
  6
CONTINUOUS
 62
4
 10
-0.880186135045826
 20
0.461534660433892
 30
0.0
 11
-0.880186135045826
 21
0.490790460732409
 31
0.0
  0
LINE
  8
4
  6
CONTINUOUS
 62
4
 10
-1.09630796254025
 20
0.461534660433892
 30
0.0
 11
-0.880186135045826
 21
0.461534660433892
 31
0.0
  0
ARC
  8
4
  6
CONTINUOUS
 62
4
 10
-0.629921259600004
 20
0.629921259600002
 30
0.0
 40
0.1574803152
 50
89.9999999999984
 51
180
  0
ARC
  8
4
  6
CONTINUOUS
 62
4
 10
0.629921259599999
 20
0.629921259600015
 30
0.0
 40
0.1574803152
 50
359.999999999992
 51
89.9999999999983
  0
ARC
  8
4
  6
CONTINUOUS
 62
4
 10
0.629921259600014
 20
-0.629921259599998
 30
0.0
 40
0.1574803152
 50
269.999999999992
 51
359.999999999992
  0
ARC
  8
4
  6
CONTINUOUS
 62
4
 10
-0.62992126004141
 20
-0.629921260041421
 30
0.0
 40
0.15748031475859
 50
179.999999984927
 51
270.00000001506
  0
LINE
  8
4
  6
CONTINUOUS
 62
4
 10
-0.787401574799999
 20
0.629921259600002
 30
0.0
 11
-0.787401574800001
 21
-0.629921259599999
 31
0.0
  0
LINE
  8
4
  6
CONTINUOUS
 62
4
 10
-0.629921259599999
 20
0.787401574800002
 30
0.0
 11
0.629921259599998
 21
0.787401574800002
 31
0.0
  0
LINE
  8
4
  6
CONTINUOUS
 62
4
 10
-1.03806995028976
 20
0.599853883436647
 30
0.0
 11
-0.938441435659445
 21
0.599853667332108
 31
0.0
  0
ARC
  8
4
  6
CONTINUOUS
 62
4
 10
-1.03806995028976
 20
0.569179032681926
 30
0.0
 40
0.030674850754721
 50
90
 51
270
  0
LINE
  8
4
  6
CONTINUOUS
 62
4
 10
-0.938441435659445
 20
0.538504181927205
 30
0.0
 11
-1.03806995028976
 21
0.538504181927205
 31
0.0
  0
ARC
  8
4
  6
CONTINUOUS
 62
4
 10
-0.938441067420376
 20
0.569179373521252
 30
0.0
 40
0.0306751915962576
 50
269.999312195167
 51
345.521838354119
  0
LINE
  8
4
  6
CONTINUOUS
 62
4
 10
-0.880709108030525
 20
0.561510238954044
 30
0.0
 11
-0.908740027801241
 21
0.561510238954044
 31
0.0
  0
ARC
  8
4
  6
CONTINUOUS
 62
4
 10
-0.938440621626017
 20
0.569179122260471
 30
0.0
 40
0.0582386420960715
 50
269.999199145472
 51
352.433297341482
  0
LINE
  8
4
  6
CONTINUOUS
 62
4
 10
-1.03806995028976
 20
0.510940264065548
 30
0.0
 11
-0.938441435659445
 21
0.510940480170088
 31
0.0
  0
ARC
  8
4
  6
CONTINUOUS
 62
4
 10
-1.03806995028976
 20
0.56917816826377
 30
0.0
 40
0.0582379041982211
 50
90
 51
270
  0
LINE
  8
4
  6
CONTINUOUS
 62
4
 10
-0.938441435659445
 20
0.627416072461991
 30
0.0
 11
-1.03806995028976
 21
0.627416072461991
 31
0.0
  0
ARC
  8
4
  6
CONTINUOUS
 62
4
 10
-0.938440523484415
 20
0.56917731298244
 30
0.0
 40
0.0582387594866955
 50
7.56830513434325
 51
90.0008974054388
  0
LINE
  8
4
  6
CONTINUOUS
 62
4
 10
-0.908740027801241
 20
0.576847826409808
 30
0.0
 11
-0.880709108030525
 21
0.576847826409808
 31
0.0
  0
ARC
  8
4
  6
CONTINUOUS
 62
4
 10
-0.938440900463279
 20
0.569178619245205
 30
0.0
 40
0.0306750480915725
 50
14.4783709045341
 51
90.0009996555297
  0
LINE
  8
4
  6
CONTINUOUS
 62
4
 10
-1.09630796254025
 20
0.750438119557798
 30
0.0
 11
-0.910387140377249
 21
0.750438119557798
 31
0.0
  0
LINE
  8
4
  6
CONTINUOUS
 62
4
 10
-0.880186135045826
 20
0.732503819959832
 30
0.0
 11
-0.880186135045826
 21
0.778748030288535
 31
0.0
  0
LINE
  8
4
  6
CONTINUOUS
 62
4
 10
-1.06138763006201
 20
0.67587794757126
 30
0.0
 11
-0.880186135045826
 21
0.732503819959832
 31
0.0
  0
LINE
  8
4
  6
CONTINUOUS
 62
4
 10
-0.880186135045826
 20
0.67587794757126
 30
0.0
 11
-1.06138763006201
 21
0.67587794757126
 31
0.0
  0
LINE
  8
4
  6
CONTINUOUS
 62
4
 10
-0.880186135045826
 20
0.64756609189967
 30
0.0
 11
-0.880186135045826
 21
0.67587794757126
 31
0.0
  0
LINE
  8
4
  6
CONTINUOUS
 62
4
 10
-1.09630796254025
 20
0.64756609189967
 30
0.0
 11
-0.880186135045826
 21
0.64756609189967
 31
0.0
  0
LINE
  8
4
  6
CONTINUOUS
 62
4
 10
-1.09630796254025
 20
0.693810302228375
 30
0.0
 11
-1.09630796254025
 21
0.64756609189967
 31
0.0
  0
LINE
  8
4
  6
CONTINUOUS
 62
4
 10
-0.910387140377249
 20
0.750438119557798
 30
0.0
 11
-1.09630796254025
 21
0.693810302228375
 31
0.0
  0
LINE
  8
4
  6
CONTINUOUS
 62
4
 10
-0.0277300922764662
 20
0.418673930770282
 30
0.0
 11
-0.0277300922764662
 21
0.362494714114554
 31
0.0
  0
LINE
  8
4
  6
CONTINUOUS
 62
4
 10
-0.00734506223281519
 20
0.418673930770283
 30
0.0
 11
-0.0277300922764662
 21
0.418673930770282
 31
0.0
  0
ARC
  8
4
  6
CONTINUOUS
 62
4
 10
-0.008179721296766
 20
0.404629126606351
 30
0.0
 40
0.0140695834961894
 50
273.400991681353
 51
86.599008318647
  0
LINE
  8
4
  6
CONTINUOUS
 62
4
 10
-0.0268874040262932
 20
0.390584322442418
 30
0.0
 11
-0.00734506223281519
 21
0.390584322442419
 31
0.0
  0
LINE
  8
4
  6
CONTINUOUS
 62
4
 10
0.0123176635989368
 20
0.37854623478118
 30
0.0
 11
0.0123176635989368
 21
0.418673930770282
 31
0.0
  0
ARC
  8
4
  6
CONTINUOUS
 62
4
 10
0.0287693585875928
 20
0.378811549623246
 30
0.0
 40
0.0164538342025555
 50
180.923923222645
 51
0.472476699573615
  0
LINE
  8
4
  6
CONTINUOUS
 62
4
 10
0.0452226333544349
 20
0.418673930770282
 30
0.0
 11
0.0452226333544355
 21
0.37894723091144
 31
0.0
  0
LINE
  8
4
  6
CONTINUOUS
 62
4
 10
0.0536495158561649
 20
0.418673930770282
 30
0.0
 11
0.0536495158561649
 21
0.362494714114554
 31
0.0
  0
LINE
  8
4
  6
CONTINUOUS
 62
4
 10
0.074034545899817
 20
0.418673930770283
 30
0.0
 11
0.0536495158561649
 21
0.418673930770282
 31
0.0
  0
ARC
  8
4
  6
CONTINUOUS
 62
4
 10
0.0737638708200422
 20
0.404629147398062
 30
0.0
 40
0.0140473913938292
 50
271.095264000536
 51
88.8959160393182
  0
LINE
  8
4
  6
CONTINUOUS
 62
4
 10
0.0554932423761586
 20
0.390584322525246
 30
0.0
 11
0.074032383879965
 21
0.390584322525246
 31
0.0
  0
LINE
  8
4
  6
CONTINUOUS
 62
4
 10
0.088079350063747
 20
0.362494714114554
 30
0.0
 11
0.074832778357061
 21
0.388983770644915
 31
0.0
  0
LINE
  8
4
  6
CONTINUOUS
 62
4
 10
0.095101752148521
 20
0.418673930770282
 30
0.0
 11
0.095101752148521
 21
0.362494714114554
 31
0.0
  0
LINE
  8
4
  6
CONTINUOUS
 62
4
 10
0.115486782192172
 20
0.418673930770283
 30
0.0
 11
0.095101752148521
 21
0.418673930770282
 31
0.0
  0
ARC
  8
4
  6
CONTINUOUS
 62
4
 10
0.114652123128222
 20
0.404629126606351
 30
0.0
 40
0.0140695834961894
 50
273.400991681353
 51
86.599008318647
  0
LINE
  8
4
  6
CONTINUOUS
 62
4
 10
0.095944440398694
 20
0.390584322442418
 30
0.0
 11
0.115486782192172
 21
0.390584322442419
 31
0.0
  0
LINE
  8
4
  6
CONTINUOUS
 62
4
 10
0.135149508023925
 20
0.362494714114554
 30
0.0
 11
0.135149508023925
 21
0.418673930770282
 31
0.0
  0
LINE
  8
4
  6
CONTINUOUS
 62
4
 10
0.168094605791319
 20
0.362494714114554
 30
0.0
 11
0.135149508023925
 21
0.362494714114554
 31
0.0
  0
LINE
  8
4
  6
CONTINUOUS
 62
4
 10
0.17552145445203
 20
0.362494129365134
 30
0.0
 11
0.208466552219424
 21
0.362494129365134
 31
0.0
  0
LINE
  8
4
  6
CONTINUOUS
 62
4
 10
0.175501390446081
 20
0.390583737692999
 30
0.0
 11
0.17552145445203
 21
0.362494129365134
 31
0.0
  0
LINE
  8
4
  6
CONTINUOUS
 62
4
 10
0.201243510077974
 20
0.390583737692999
 30
0.0
 11
0.175501390446081
 21
0.390583737692999
 31
0.0
  0
LINE
  8
4
  6
CONTINUOUS
 62
4
 10
0.175481326440133
 20
0.418673346020863
 30
0.0
 11
0.175500186944662
 21
0.391425951430031
 31
0.0
  0
LINE
  8
4
  6
CONTINUOUS
 62
4
 10
0.205657591385514
 20
0.418673346020863
 30
0.0
 11
0.175481326440133
 21
0.418673346020863
 31
0.0
  0
LINE
  8
4
  6
CONTINUOUS
 62
4
 10
-1.09630796254092
 20
0.778748030287432
 30
0.0
 11
-1.09630796254062
 21
0.750436174615842
 31
0.0
  0
LINE
  8
4
  6
CONTINUOUS
 62
4
 10
-0.880186135046496
 20
0.778748030289638
 30
0.0
 11
-1.09630796254092
 21
0.778748030287432
 31
0.0
  0
LINE
  8
4
  6
CONTINUOUS
 62
4
 10
-0.16779683749812
 20
0.39061931625089
 30
0.0
 11
-0.188111253391177
 21
0.39061931625089
 31
0.0
  0
ARC
  8
4
  6
CONTINUOUS
 62
4
 10
-0.167801284386027
 20
0.376557023873379
 30
0.0
 40
0.0140622930806252
 50
270.000000002514
 51
89.9818814817917
  0
LINE
  8
4
  6
CONTINUOUS
 62
4
 10
-0.189798728561527
 20
0.362494730792754
 30
0.0
 11
-0.167801284385409
 21
0.362494730792754
 31
0.0
  0
LINE
  8
4
  6
CONTINUOUS
 62
4
 10
-0.189798728561527
 20
0.418673943346707
 30
0.0
 11
-0.189798728561527
 21
0.362494730792754
 31
0.0
  0
LINE
  8
4
  6
CONTINUOUS
 62
4
 10
-0.170312408149803
 20
0.418673943346707
 30
0.0
 11
-0.189798728561527
 21
0.418673943346707
 31
0.0
  0
ARC
  8
4
  6
CONTINUOUS
 62
4
 10
-0.170424777834094
 20
0.404555286179332
 30
0.0
 40
0.0141191043326348
 50
296.191824756094
 51
89.5439953928138
  0
LINE
  8
4
  6
CONTINUOUS
 62
4
 10
-0.128934381139034
 20
0.362424767373577
 30
0.0
 11
-0.145005569465897
 21
0.362424767373577
 31
0.0
  0
LINE
  8
4
  6
CONTINUOUS
 62
4
 10
-0.136969977185105
 20
0.416986464525727
 30
0.0
 11
-0.136969977185105
 21
0.364112242521427
 31
0.0
  0
LINE
  8
4
  6
CONTINUOUS
 62
4
 10
-0.129018960301152
 20
0.418673939696077
 30
0.0
 11
-0.145005569465897
 21
0.418673939696077
 31
0.0
  0
LINE
  8
4
  6
CONTINUOUS
 62
4
 10
-0.0833151646395682
 20
0.387294072778566
 30
0.0
 11
-0.107049680513161
 21
0.387294072778566
 31
0.0
  0
ARC
  8
4
  6
CONTINUOUS
 62
4
 10
-0.0833151646395653
 20
0.385606766355736
 30
0.0
 40
0.00168730642282994
 50
9.96595003889778E-11
 51
90.0000000000993
  0
LINE
  8
4
  6
CONTINUOUS
 62
4
 10
-0.0816278582167354
 20
0.381359503538408
 30
0.0
 11
-0.0816278582167354
 21
0.385606766355739
 31
0.0
  0
ARC
  8
4
  6
CONTINUOUS
 62
4
 10
-0.100779206698743
 20
0.381212534385729
 30
0.0
 40
0.0191519124008844
 50
200.855259280577
 51
0.439684280074132
  0
ARC
  8
4
  6
CONTINUOUS
 62
4
 10
-0.0712162608976351
 20
0.390462319783405
 30
0.0
 40
0.0501062916863623
 50
161.293996529298
 51
198.703982620842
  0
ARC
  8
4
  6
CONTINUOUS
 62
4
 10
-0.099837670864287
 20
0.397991901620641
 30
0.0
 40
0.0206835123321359
 50
35.6800300000037
 51
155.613174782207
  0
LINE
  8
4
  6
CONTINUOUS
 62
4
 10
0.364766134026275
 20
0.342079800685319
 30
0.0
 11
0.287159834818914
 21
0.342079800685319
 31
0.0
  0
LINE
  8
4
  6
CONTINUOUS
 62
4
 10
0.374466921442595
 20
0.351780588101639
 30
0.0
 11
0.374466921442595
 21
0.429386887284359
 31
0.0
  0
ARC
  8
4
  6
CONTINUOUS
 62
4
 10
0.287159834843554
 20
0.429386887284359
 30
0.0
 40
0.00970078741631991
 50
89.9999999999995
 51
180.000000000001
  0
ARC
  8
4
  6
CONTINUOUS
 62
4
 10
0.364766134026275
 20
0.42938688728436
 30
0.0
 40
0.00970078741632
 50
359.999999999993
 51
89.999999999999
  0
ARC
  8
4
  6
CONTINUOUS
 62
4
 10
0.364766134026275
 20
0.351780588101639
 30
0.0
 40
0.00970078741632011
 50
269.999999999992
 51
359.999999999992
  0
ARC
  8
4
  6
CONTINUOUS
 62
4
 10
0.287159834816364
 20
0.351780588074448
 30
0.0
 40
0.00970078738912934
 50
179.999999984929
 51
270.000000015062
  0
LINE
  8
4
  6
CONTINUOUS
 62
4
 10
0.277459047427234
 20
0.429386887284359
 30
0.0
 11
0.277459047427234
 21
0.351780588101639
 31
0.0
  0
LINE
  8
4
  6
CONTINUOUS
 62
4
 10
0.287159834843555
 20
0.439087674700679
 30
0.0
 11
0.364766134026275
 21
0.439087674700679
 31
0.0
  0
ARC
  8
5
  6
CONTINUOUS
 62
5
 10
-0.62992126
 20
-0.629921259999992
 30
0.0
 40
0.0535433072000001
 50
359.999999999992
 51
180
  0
ARC
  8
5
  6
CONTINUOUS
 62
5
 10
-0.62992126
 20
-0.629921260000005
 30
0.0
 40
0.0535433072000001
 50
179.999999999992
 51
359.999999999992
  0
ARC
  8
5
  6
CONTINUOUS
 62
5
 10
-0.62992126
 20
0.629921259999997
 30
0.0
 40
0.0535433072000001
 50
179.999999999993
 51
359.999999999994
  0
ARC
  8
5
  6
CONTINUOUS
 62
5
 10
-0.62992126
 20
0.629921260000008
 30
0.0
 40
0.0535433072000001
 50
359.999999999992
 51
180
  0
ARC
  8
5
  6
CONTINUOUS
 62
5
 10
0.62992126
 20
-0.629921259999997
 30
0.0
 40
0.0535433071999999
 50
359.999999999992
 51
180
  0
ARC
  8
5
  6
CONTINUOUS
 62
5
 10
0.62992126
 20
-0.629921260000004
 30
0.0
 40
0.0535433071999999
 50
179.999999999993
 51
359.999999999994
  0
ARC
  8
5
  6
CONTINUOUS
 62
5
 10
0.62992126
 20
0.629921259999997
 30
0.0
 40
0.0535433071999999
 50
179.999999999993
 51
359.999999999992
  0
ARC
  8
5
  6
CONTINUOUS
 62
5
 10
0.62992126
 20
0.629921260000009
 30
0.0
 40
0.0535433071999999
 50
359.999999999992
 51
180
  0
LINE
  8
5
  6
CONTINUOUS
 62
5
 10
0.186904320047779
 20
0.272839396108691
 30
0.0
 11
0.16661516867774
 21
0.272839396108691
 31
0.0
  0
ARC
  8
5
  6
CONTINUOUS
 62
5
 10
0.186899878690356
 20
0.258794592646999
 30
0.0
 40
0.0140448041639322
 50
270.000000002509
 51
89.9818814817906
  0
LINE
  8
5
  6
CONTINUOUS
 62
5
 10
0.164929792177394
 20
0.244749788483067
 30
0.0
 11
0.186899878690971
 21
0.244749788483067
 31
0.0
  0
LINE
  8
5
  6
CONTINUOUS
 62
5
 10
0.164929792177394
 20
0.300859132377435
 30
0.0
 11
0.164929792177394
 21
0.244749788483067
 31
0.0
  0
LINE
  8
5
  6
CONTINUOUS
 62
5
 10
0.184391877947416
 20
0.300859132377435
 30
0.0
 11
0.164929792177394
 21
0.300859132377435
 31
0.0
  0
ARC
  8
5
  6
CONTINUOUS
 62
5
 10
0.184279648014448
 20
0.286758034225336
 30
0.0
 40
0.0141015447612308
 50
296.191824756088
 51
89.5439953928125
  0
LINE
  8
5
  6
CONTINUOUS
 62
5
 10
0.206562604522106
 20
0.244679915721708
 30
0.0
 11
0.206562604522106
 21
0.300859132377435
 31
0.0
  0
LINE
  8
5
  6
CONTINUOUS
 62
5
 10
0.239507702289501
 20
0.244679915721708
 30
0.0
 11
0.206562604522106
 21
0.244679915721708
 31
0.0
  0
LINE
  8
5
  6
CONTINUOUS
 62
5
 10
0.246329464313106
 20
0.260731436388333
 30
0.0
 11
0.246329464313106
 21
0.300859132377435
 31
0.0
  0
ARC
  8
5
  6
CONTINUOUS
 62
5
 10
0.262781159301762
 20
0.260996751230399
 30
0.0
 40
0.0164538342025555
 50
180.923923222645
 51
0.472476699573984
  0
LINE
  8
5
  6
CONTINUOUS
 62
5
 10
0.279234434068604
 20
0.300859132377435
 30
0.0
 11
0.279234434068605
 21
0.261132432518593
 31
0.0
  0
LINE
  8
5
  6
CONTINUOUS
 62
5
 10
0.28545744237353
 20
0.244679330972288
 30
0.0
 11
0.318402540140925
 21
0.244679330972288
 31
0.0
  0
LINE
  8
5
  6
CONTINUOUS
 62
5
 10
0.285437378367581
 20
0.272768939300153
 30
0.0
 11
0.28545744237353
 21
0.244679330972288
 31
0.0
  0
LINE
  8
5
  6
CONTINUOUS
 62
5
 10
0.311179497999474
 20
0.272768939300153
 30
0.0
 11
0.285437378367581
 21
0.272768939300153
 31
0.0
  0
LINE
  8
5
  6
CONTINUOUS
 62
5
 10
0.285417314361633
 20
0.300858547628017
 30
0.0
 11
0.285436174866162
 21
0.273611153037184
 31
0.0
  0
LINE
  8
5
  6
CONTINUOUS
 62
5
 10
0.315593579307015
 20
0.300858547628017
 30
0.0
 11
0.285417314361633
 21
0.300858547628017
 31
0.0
  0
ARC
  8
5
  6
CONTINUOUS
 62
5
 10
0.372009834047974
 20
0.265248088489957
 30
0.0
 40
0.0206598446125364
 50
204.386837237005
 51
324.319999999999
  0
ARC
  8
5
  6
CONTINUOUS
 62
5
 10
0.400598542803455
 20
0.272768939300153
 30
0.0
 40
0.0500489658039817
 50
161.294134617644
 51
198.705865382356
  0
ARC
  8
5
  6
CONTINUOUS
 62
5
 10
0.372009838060773
 20
0.280289792400738
 30
0.0
 40
0.0206598486253361
 50
35.6800299999885
 51
155.613174782251
  0
LINE
  8
5
  6
CONTINUOUS
 62
5
 10
0.397514119474577
 20
0.244770437402456
 30
0.0
 11
0.413565315707561
 21
0.244770437402456
 31
0.0
  0
LINE
  8
5
  6
CONTINUOUS
 62
5
 10
0.405539715710772
 20
0.246455813379984
 30
0.0
 11
0.405539715710772
 21
0.299264261379984
 31
0.0
  0
LINE
  8
5
  6
CONTINUOUS
 62
5
 10
0.397514119474577
 20
0.300949637379984
 30
0.0
 11
0.413480841759476
 21
0.300949637379984
 31
0.0
  0
LINE
  8
5
  6
CONTINUOUS
 62
5
 10
0.422055561759476
 20
0.244770441048545
 30
0.0
 11
0.422055561759476
 21
0.300949641026073
 31
0.0
  0
LINE
  8
5
  6
CONTINUOUS
 62
5
 10
0.422055561759476
 20
0.300949641026073
 30
0.0
 11
0.442440585751324
 21
0.300949641026074
 31
0.0
  0
ARC
  8
5
  6
CONTINUOUS
 62
5
 10
0.442169910751906
 20
0.286904861823397
 30
0.0
 40
0.014047387223511
 50
271.095264000535
 51
88.8959160393185
  0
LINE
  8
5
  6
CONTINUOUS
 62
5
 10
0.442438423732114
 20
0.272860041120137
 30
0.0
 11
0.423899287732113
 21
0.272860041120137
 31
0.0
  0
LINE
  8
5
  6
CONTINUOUS
 62
5
 10
0.443238817971593
 20
0.27125948971497
 30
0.0
 11
0.456485385745705
 21
0.244770441048545
 31
0.0
  0
ARC
  8
5
  6
CONTINUOUS
 62
5
 10
0.48356356350992
 20
0.265248088489957
 30
0.0
 40
0.0206598446125361
 50
204.386837237003
 51
324.319999999997
  0
ARC
  8
5
  6
CONTINUOUS
 62
5
 10
0.512152272265401
 20
0.272768939300153
 30
0.0
 40
0.0500489658039817
 50
161.294134617644
 51
198.705865382356
  0
ARC
  8
5
  6
CONTINUOUS
 62
5
 10
0.483563567522719
 20
0.280289792400738
 30
0.0
 40
0.020659848625336
 50
35.6800299999885
 51
155.613174782251
  0
LINE
  8
5
  6
CONTINUOUS
 62
5
 10
0.505963211221422
 20
0.300949641026073
 30
0.0
 11
0.505963211221422
 21
0.244770441048545
 31
0.0
  0
LINE
  8
5
  6
CONTINUOUS
 62
5
 10
0.505963211221422
 20
0.244770441048545
 30
0.0
 11
0.538908299208244
 21
0.244770441048545
 31
0.0
  0
LINE
  8
5
  6
CONTINUOUS
 62
5
 10
0.579280233650931
 20
0.244769856299299
 30
0.0
 11
0.54633514566411
 21
0.244769856299299
 31
0.0
  0
LINE
  8
5
  6
CONTINUOUS
 62
5
 10
0.54633514566411
 20
0.244769856299299
 30
0.0
 11
0.546315081664117
 21
0.272859456288063
 31
0.0
  0
LINE
  8
5
  6
CONTINUOUS
 62
5
 10
0.546315081664117
 20
0.272859456288063
 30
0.0
 11
0.57205719365382
 21
0.272859456288063
 31
0.0
  0
LINE
  8
5
  6
CONTINUOUS
 62
5
 10
0.546313878163054
 20
0.273701669775063
 30
0.0
 11
0.546295017664124
 21
0.300949056276827
 31
0.0
  0
LINE
  8
5
  6
CONTINUOUS
 62
5
 10
0.546295017664124
 20
0.300949056276827
 30
0.0
 11
0.576471273650931
 21
0.300949056276827
 31
0.0
  0
ARC
  8
5
  6
CONTINUOUS
 62
5
 10
0.600327071499896
 20
0.260931259932516
 30
0.0
 40
0.0161945091199224
 50
210.521999666252
 51
269.441063338044
  0
LINE
  8
5
  6
CONTINUOUS
 62
5
 10
0.600169091952735
 20
0.244737521386464
 30
0.0
 11
0.605894029637307
 21
0.244681671232929
 31
0.0
  0
ARC
  8
5
  6
CONTINUOUS
 62
5
 10
0.60603824886696
 20
0.259464913493616
 30
0.0
 40
0.0147839457156863
 50
269.44106367777
 51
357.350682656722
  0
ARC
  8
5
  6
CONTINUOUS
 62
5
 10
0.608780993707802
 20
0.257690911976669
 30
0.0
 40
0.0120747559631734
 50
5.18227244383177
 51
59.3448299999938
  0
LINE
  8
5
  6
CONTINUOUS
 62
5
 10
0.614937549368239
 20
0.268078238580281
 30
0.0
 11
0.592827256600586
 21
0.277574464378317
 31
0.0
  0
ARC
  8
5
  6
CONTINUOUS
 62
5
 10
0.59898381628863
 20
0.287961785735293
 30
0.0
 40
0.012074753503304
 50
185.182406440217
 51
239.344800865818
  0
ARC
  8
5
  6
CONTINUOUS
 62
5
 10
0.601667382633251
 20
0.286226835327651
 30
0.0
 40
0.0147230638875713
 50
91.2613438550515
 51
177.491952931064
  0
LINE
  8
5
  6
CONTINUOUS
 62
5
 10
0.601343286402804
 20
0.300946331646171
 30
0.0
 11
0.607054610400178
 21
0.300952337244486
 31
0.0
  0
ARC
  8
5
  6
CONTINUOUS
 62
5
 10
0.606544543730063
 20
0.285278161401433
 30
0.0
 40
0.0156824729034329
 50
29.2717084966228
 51
88.1361471074744
  0
LINE
  8
5
  6
CONTINUOUS
 62
5
 10
-0.189798728561527
 20
0.244751048788961
 30
0.0
 11
-0.168757724594318
 21
0.300860392701517
 31
0.0
  0
LINE
  8
5
  6
CONTINUOUS
 62
5
 10
-0.168757724594318
 20
0.300860392701517
 30
0.0
 11
-0.147716720627109
 21
0.244751048788961
 31
0.0
  0
LINE
  8
5
  6
CONTINUOUS
 62
5
 10
-0.183606661679075
 20
0.256774479627366
 30
0.0
 11
-0.153908787509561
 21
0.256774479627366
 31
0.0
  0
LINE
  8
5
  6
CONTINUOUS
 62
5
 10
-0.142105786233609
 20
0.300860392701517
 30
0.0
 11
-0.142105786233609
 21
0.244751048788961
 31
0.0
  0
LINE
  8
5
  6
CONTINUOUS
 62
5
 10
-0.142105786233609
 20
0.244751048788961
 30
0.0
 11
-0.109201663839175
 21
0.244751048788961
 31
0.0
  0
LINE
  8
5
  6
CONTINUOUS
 62
5
 10
-0.102388386362956
 20
0.300860392701517
 30
0.0
 11
-0.102388386362956
 21
0.244751048788961
 31
0.0
  0
LINE
  8
5
  6
CONTINUOUS
 62
5
 10
-0.102388386362956
 20
0.244751048788961
 30
0.0
 11
-0.0694842639685215
 21
0.244751048788961
 31
0.0
  0
LINE
  8
5
  6
CONTINUOUS
 62
5
 10
-0.00442412107712968
 20
0.272805720745239
 30
0.0
 11
-0.0284389202813097
 21
0.272805720745239
 31
0.0
  0
LINE
  8
5
  6
CONTINUOUS
 62
5
 10
-0.0301141849685215
 20
0.244751048788961
 30
0.0
 11
-0.0301141849685215
 21
0.300860392701517
 31
0.0
  0
LINE
  8
5
  6
CONTINUOUS
 62
5
 10
-0.0301141849685215
 20
0.300860392701517
 30
0.0
 11
-1.5529770834341E-5
 21
0.300860392701517
 31
0.0
  0
ARC
  8
5
  6
CONTINUOUS
 62
5
 10
0.0244312923951367
 20
0.261336566515849
 30
0.0
 40
0.0166949161000702
 50
196.004825930423
 51
267.948379947905
  0
ARC
  8
5
  6
CONTINUOUS
 62
5
 10
0.0557297975302027
 20
0.272764729591032
 30
0.0
 40
0.04998673238292
 50
161.294116943038
 51
198.705883056962
  0
ARC
  8
5
  6
CONTINUOUS
 62
5
 10
0.0244312946043121
 20
0.284155584648957
 30
0.0
 40
0.0167052432193896
 50
16.1288893758952
 51
163.872176621307
  0
ARC
  8
5
  6
CONTINUOUS
 62
5
 10
-0.00686719356326118
 20
0.272764729589345
 30
0.0
 40
0.049986732382915
 50
341.293755627024
 51
18.7062443729764
  0
ARC
  8
5
  6
CONTINUOUS
 62
5
 10
0.0244312923951341
 20
0.261336566515851
 30
0.0
 40
0.0166949161000719
 50
272.763973435188
 51
343.994108060197
  0
LINE
  8
5
  6
CONTINUOUS
 62
5
 10
0.0498922550976657
 20
0.300859132395624
 30
0.0
 11
0.0498922550976657
 21
0.260781345115878
 31
0.0
  0
ARC
  8
5
  6
CONTINUOUS
 62
5
 10
0.0663234883368151
 20
0.261046329973353
 30
0.0
 40
0.0164333697924077
 50
180.923923222652
 51
0.472476699575231
  0
LINE
  8
5
  6
CONTINUOUS
 62
5
 10
0.0827562993893064
 20
0.261181842508325
 30
0.0
 11
0.0827562993893059
 21
0.300859132395624
 31
0.0
  0
LINE
  8
5
  6
CONTINUOUS
 62
5
 10
0.0911727009795558
 20
0.244749788483067
 30
0.0
 11
0.0911727009795558
 21
0.300859132395624
 31
0.0
  0
LINE
  8
5
  6
CONTINUOUS
 62
5
 10
0.0911727009795558
 20
0.300859132395624
 30
0.0
 11
0.111532377199257
 21
0.300859132395624
 31
0.0
  0
ARC
  8
5
  6
CONTINUOUS
 62
5
 10
0.111262038770853
 20
0.286831817183337
 30
0.0
 40
0.0140299199901762
 50
271.095264000543
 51
88.8959160393197
  0
LINE
  8
5
  6
CONTINUOUS
 62
5
 10
0.111530217868411
 20
0.27280446052207
 30
0.0
 11
0.0930141343698607
 21
0.27280446052207
 31
0.0
  0
LINE
  8
5
  6
CONTINUOUS
 62
5
 10
0.112329616857121
 20
0.271205899323652
 30
0.0
 11
0.125559713177394
 21
0.244749788483067
 31
0.0
  0
LINE
  8
6
  6
CONTINUOUS
 62
6
 10
-0.17184144455591
 20
-0.183174563173335
 30
0.0
 11
-0.17184144455591
 21
-0.128699304971045
 31
0.0
  0
LINE
  8
6
  6
CONTINUOUS
 62
6
 10
-0.189798728561527
 20
-0.126995363195807
 30
0.0
 11
-0.153884168575893
 21
-0.126995363195807
 31
0.0
  0
ARC
  8
6
  6
CONTINUOUS
 62
6
 10
-0.12940691014604
 20
-0.166567138536518
 30
0.0
 40
0.0167157012503226
 50
196.004825930415
 51
267.948379947897
  0
ARC
  8
6
  6
CONTINUOUS
 62
6
 10
-0.0980694384101229
 20
-0.155124747412197
 30
0.0
 40
0.0500489658039798
 50
161.294116943038
 51
198.705883056962
  0
ARC
  8
6
  6
CONTINUOUS
 62
6
 10
-0.129406907934114
 20
-0.143719710753569
 30
0.0
 40
0.0167260412268932
 50
16.1288893758934
 51
163.872176621307
  0
ARC
  8
6
  6
CONTINUOUS
 62
6
 10
-0.160744362681414
 20
-0.155124747413885
 30
0.0
 40
0.0500489658039744
 50
341.293755627023
 51
18.7062443729769
  0
ARC
  8
6
  6
CONTINUOUS
 62
6
 10
-0.129406910146041
 20
-0.166567138536515
 30
0.0
 40
0.0167157012503242
 50
272.763973435181
 51
343.99410806019
  0
LINE
  8
6
  6
CONTINUOUS
 62
6
 10
-0.102509768575894
 20
-0.183174567087789
 30
0.0
 11
-0.102509768575894
 21
-0.126995367110261
 31
0.0
  0
LINE
  8
6
  6
CONTINUOUS
 62
6
 10
-0.102509768575894
 20
-0.126995367110261
 30
0.0
 11
-0.0821247445840473
 21
-0.126995367110259
 31
0.0
  0
ARC
  8
6
  6
CONTINUOUS
 62
6
 10
-0.0829594034002076
 20
-0.141040167104642
 30
0.0
 40
0.0140695793192831
 50
273.400991681353
 51
86.599008318647
  0
LINE
  8
6
  6
CONTINUOUS
 62
6
 10
-0.0821247445840469
 20
-0.155084967099024
 30
0.0
 11
-0.101667080575893
 21
-0.155084967099025
 31
0.0
  0
ARC
  8
6
  6
CONTINUOUS
 62
6
 10
0.0214469138401894
 20
-0.166567138536518
 30
0.0
 40
0.0167157012503225
 50
196.004825930415
 51
267.948379947897
  0
ARC
  8
6
  6
CONTINUOUS
 62
6
 10
0.0527843855761064
 20
-0.155124747412197
 30
0.0
 40
0.0500489658039796
 50
161.294116943038
 51
198.705883056962
  0
ARC
  8
6
  6
CONTINUOUS
 62
6
 10
0.0214469160521149
 20
-0.143719710753569
 30
0.0
 40
0.0167260412268931
 50
16.1288893758936
 51
163.872176621307
  0
ARC
  8
6
  6
CONTINUOUS
 62
6
 10
-0.00989053869518355
 20
-0.155124747413885
 30
0.0
 40
0.0500489658039743
 50
341.293755627023
 51
18.7062443729769
  0
ARC
  8
6
  6
CONTINUOUS
 62
6
 10
0.021446913840188
 20
-0.166567138536515
 30
0.0
 40
0.0167157012503244
 50
272.763973435181
 51
343.994108060191
  0
LINE
  8
6
  6
CONTINUOUS
 62
6
 10
0.07547640553228
 20
-0.155083705224052
 30
0.0
 11
0.0514317079322799
 21
-0.155083705224052
 31
0.0
  0
LINE
  8
6
  6
CONTINUOUS
 62
6
 10
0.049754357542569
 20
-0.183173305212816
 30
0.0
 11
0.049754357542569
 21
-0.126994105235288
 31
0.0
  0
LINE
  8
6
  6
CONTINUOUS
 62
6
 10
0.049754357542569
 20
-0.126994105235288
 30
0.0
 11
0.079890485529393
 21
-0.126994105235288
 31
0.0
  0
ARC
  8
6
  6
CONTINUOUS
 62
6
 10
0.165843050373889
 20
-0.145258668232692
 30
0.0
 40
0.0184648980590048
 50
48.9416968664102
 51
146.027978045882
  0
ARC
  8
6
  6
CONTINUOUS
 62
6
 10
0.169602475004191
 20
-0.140899723369001
 30
0.0
 40
0.0127088134930474
 50
1.31476410689379E-6
 51
48.8140713147673
  0
ARC
  8
6
  6
CONTINUOUS
 62
6
 10
0.168282790502847
 20
-0.140899723077369
 30
0.0
 40
0.014028497994391
 50
279.08811390068
 51
359.999999999979
  0
ARC
  8
6
  6
CONTINUOUS
 62
6
 10
0.169054724939592
 20
-0.168758682288767
 30
0.0
 40
0.0140807950981084
 50
19.4344258931581
 51
84.1142708141165
  0
ARC
  8
6
  6
CONTINUOUS
 62
6
 10
0.169898471604304
 20
-0.168557210936012
 30
0.0
 40
0.0132183990365453
 50
307.790503302602
 51
19.8277712840443
  0
ARC
  8
6
  6
CONTINUOUS
 62
6
 10
0.16605026145503
 20
-0.162602556302138
 30
0.0
 40
0.0202913000994104
 50
216.483006233942
 51
306.074034536996
  0
LINE
  8
6
  6
CONTINUOUS
 62
6
 10
0.195923754958108
 20
-0.1831745752656
 30
0.0
 11
0.195923754958108
 21
-0.126995375288072
 31
0.0
  0
LINE
  8
6
  6
CONTINUOUS
 62
6
 10
0.195923754958108
 20
-0.126995375288072
 30
0.0
 11
0.211593762706469
 21
-0.126995376004108
 31
0.0
  0
ARC
  8
6
  6
CONTINUOUS
 62
6
 10
0.209655749167015
 20
-0.147564125327844
 30
0.0
 40
0.0206598486253364
 50
24.3863827720515
 51
84.6174099999915
  0
ARC
  8
6
  6
CONTINUOUS
 62
6
 10
0.18106706167908
 20
-0.155084975919377
 30
0.0
 40
0.0500489658039795
 50
341.29431327019
 51
18.70568672981
  0
ARC
  8
6
  6
CONTINUOUS
 62
6
 10
0.209655753179814
 20
-0.16260582522583
 30
0.0
 40
0.0206598446125397
 50
275.382450717131
 51
335.613608269929
  0
LINE
  8
6
  6
CONTINUOUS
 62
6
 10
0.211593716341356
 20
-0.183174575265606
 30
0.0
 11
0.197328234958109
 21
-0.1831745752656
 31
0.0
  0
LINE
  8
6
  6
CONTINUOUS
 62
6
 10
0.312052618962356
 20
-0.155015095060648
 30
0.0
 11
0.332341764309055
 21
-0.155015095060648
 31
0.0
  0
ARC
  8
6
  6
CONTINUOUS
 62
6
 10
0.332337322952949
 20
-0.16905989435279
 30
0.0
 40
0.0140447999943822
 50
270.000000002511
 51
89.9818814817905
  0
LINE
  8
6
  6
CONTINUOUS
 62
6
 10
0.332337322953565
 20
-0.183104694347173
 30
0.0
 11
0.310367242962355
 21
-0.183104694347173
 31
0.0
  0
LINE
  8
6
  6
CONTINUOUS
 62
6
 10
0.310367242962355
 20
-0.183104694347173
 30
0.0
 11
0.310367242962355
 21
-0.126995367110261
 31
0.0
  0
LINE
  8
6
  6
CONTINUOUS
 62
6
 10
0.310367242962355
 20
-0.126995367110261
 30
0.0
 11
0.329829322954572
 21
-0.126995367110261
 31
0.0
  0
ARC
  8
6
  6
CONTINUOUS
 62
6
 10
0.329717093054922
 20
-0.141096461076097
 30
0.0
 40
0.0141015405748359
 50
296.191824756087
 51
89.543995392812
  0
ARC
  8
6
  6
CONTINUOUS
 62
6
 10
0.370859381377183
 20
-0.166567138536518
 30
0.0
 40
0.0167157012503225
 50
196.004825930417
 51
267.948379947899
  0
ARC
  8
6
  6
CONTINUOUS
 62
6
 10
0.402196853113101
 20
-0.155124747412197
 30
0.0
 40
0.0500489658039796
 50
161.294116943038
 51
198.705883056962
  0
ARC
  8
6
  6
CONTINUOUS
 62
6
 10
0.370859383589109
 20
-0.143719710753569
 30
0.0
 40
0.016726041226893
 50
16.1288893758937
 51
163.872176621307
  0
ARC
  8
6
  6
CONTINUOUS
 62
6
 10
0.33952192884181
 20
-0.155124747413885
 30
0.0
 40
0.0500489658039743
 50
341.293755627023
 51
18.7062443729769
  0
ARC
  8
6
  6
CONTINUOUS
 62
6
 10
0.370859381377181
 20
-0.166567138536515
 30
0.0
 40
0.0167157012503245
 50
272.763973435184
 51
343.99410806019
  0
LINE
  8
6
  6
CONTINUOUS
 62
6
 10
0.39635204294733
 20
-0.126995367110261
 30
0.0
 11
0.431263402933366
 21
-0.183174567087789
 31
0.0
  0
LINE
  8
6
  6
CONTINUOUS
 62
6
 10
0.393944362948293
 20
-0.183174567087789
 30
0.0
 11
0.428855722934329
 21
-0.126995367110261
 31
0.0
  0
LINE
  8
6
  6
CONTINUOUS
 62
6
 10
0.0325694746629958
 20
-0.381962503520729
 30
0.0
 11
0.0646718746501547
 21
-0.381962503520729
 31
0.0
  0
LINE
  8
6
  6
CONTINUOUS
 62
6
 10
0.048620674656575
 20
-0.398013703514307
 30
0.0
 11
0.048620674656575
 21
-0.365911303527149
 31
0.0
  0
LINE
  8
6
  6
CONTINUOUS
 62
6
 10
-0.412912809769896
 20
-0.628319815723039
 30
0.0
 11
-0.412912809769896
 21
-0.572140615745511
 31
0.0
  0
LINE
  8
6
  6
CONTINUOUS
 62
6
 10
-0.412912809769896
 20
-0.572140615745511
 30
0.0
 11
-0.392527785778049
 21
-0.572140615745509
 31
0.0
  0
ARC
  8
6
  6
CONTINUOUS
 62
6
 10
-0.39336244459421
 20
-0.586185415739892
 30
0.0
 40
0.0140695793192829
 50
273.400991681353
 51
86.599008318647
  0
LINE
  8
6
  6
CONTINUOUS
 62
6
 10
-0.392527785778048
 20
-0.600230215734274
 30
0.0
 11
-0.412070121769896
 21
-0.600230215734274
 31
0.0
  0
LINE
  8
6
  6
CONTINUOUS
 62
6
 10
-0.370056105783667
 20
-0.628319815723039
 30
0.0
 11
-0.370056105783667
 21
-0.572140615745511
 31
0.0
  0
LINE
  8
6
  6
CONTINUOUS
 62
6
 10
-0.370056105783667
 20
-0.572140615745511
 30
0.0
 11
-0.349671081791818
 21
-0.57214061574551
 31
0.0
  0
ARC
  8
6
  6
CONTINUOUS
 62
6
 10
-0.349941756791238
 20
-0.586185394948187
 30
0.0
 40
0.0140473872235111
 50
271.095264000536
 51
88.8959160393188
  0
LINE
  8
6
  6
CONTINUOUS
 62
6
 10
-0.349673243811028
 20
-0.600230215651447
 30
0.0
 11
-0.368212379811029
 21
-0.600230215651447
 31
0.0
  0
LINE
  8
6
  6
CONTINUOUS
 62
6
 10
-0.34887284957155
 20
-0.601830767056614
 30
0.0
 11
-0.335626281797439
 21
-0.628319815723039
 31
0.0
  0
LINE
  8
6
  6
CONTINUOUS
 62
6
 10
-0.296458187353147
 20
-0.628320400472285
 30
0.0
 11
-0.329403275339967
 21
-0.628320400472285
 31
0.0
  0
LINE
  8
6
  6
CONTINUOUS
 62
6
 10
-0.329403275339967
 20
-0.628320400472285
 30
0.0
 11
-0.329423339339961
 21
-0.600230800483519
 31
0.0
  0
LINE
  8
6
  6
CONTINUOUS
 62
6
 10
-0.329423339339961
 20
-0.600230800483519
 30
0.0
 11
-0.303681227350256
 21
-0.600230800483519
 31
0.0
  0
LINE
  8
6
  6
CONTINUOUS
 62
6
 10
-0.329424542841022
 20
-0.599388586996521
 30
0.0
 11
-0.329443403339952
 21
-0.572141200494756
 31
0.0
  0
LINE
  8
6
  6
CONTINUOUS
 62
6
 10
-0.329443403339952
 20
-0.572141200494756
 30
0.0
 11
-0.299267147353146
 21
-0.572141200494756
 31
0.0
  0
ARC
  8
6
  6
CONTINUOUS
 62
6
 10
-0.275411349504183
 20
-0.612158996839068
 30
0.0
 40
0.0161945091199225
 50
210.521999666251
 51
269.441063338043
  0
LINE
  8
6
  6
CONTINUOUS
 62
6
 10
-0.275569329051342
 20
-0.628352735385121
 30
0.0
 11
-0.26984439136677
 21
-0.628408585538655
 31
0.0
  0
ARC
  8
6
  6
CONTINUOUS
 62
6
 10
-0.269700172137119
 20
-0.613625343277968
 30
0.0
 40
0.0147839457156862
 50
269.441063677771
 51
357.350682656724
  0
ARC
  8
6
  6
CONTINUOUS
 62
6
 10
-0.266957427296273
 20
-0.615399344794915
 30
0.0
 40
0.0120747559631728
 50
5.18227244383148
 51
59.3448299999936
  0
LINE
  8
6
  6
CONTINUOUS
 62
6
 10
-0.260800871635837
 20
-0.605012018191303
 30
0.0
 11
-0.282911164403491
 21
-0.595515792393266
 31
0.0
  0
ARC
  8
6
  6
CONTINUOUS
 62
6
 10
-0.276754604715446
 20
-0.585128471036291
 30
0.0
 40
0.0120747535033035
 50
185.182406440219
 51
239.34480086582
  0
ARC
  8
6
  6
CONTINUOUS
 62
6
 10
-0.274071038370826
 20
-0.586863421443933
 30
0.0
 40
0.014723063887571
 50
91.261343855052
 51
177.491952931065
  0
LINE
  8
6
  6
CONTINUOUS
 62
6
 10
-0.274395134601274
 20
-0.572143925125413
 30
0.0
 11
-0.268683810603898
 21
-0.572137919527098
 31
0.0
  0
ARC
  8
6
  6
CONTINUOUS
 62
6
 10
-0.269193877274014
 20
-0.587812095370151
 30
0.0
 40
0.0156824729034331
 50
29.2717084966209
 51
88.1361471074727
  0
ARC
  8
6
  6
CONTINUOUS
 62
6
 10
-0.227079730400097
 20
-0.612158996839068
 30
0.0
 40
0.0161945091199224
 50
210.521999666251
 51
269.441063338044
  0
LINE
  8
6
  6
CONTINUOUS
 62
6
 10
-0.227237709947257
 20
-0.628352735385121
 30
0.0
 11
-0.221512772262685
 21
-0.628408585538655
 31
0.0
  0
ARC
  8
6
  6
CONTINUOUS
 62
6
 10
-0.221368553033033
 20
-0.613625343277968
 30
0.0
 40
0.0147839457156864
 50
269.441063677772
 51
357.350682656724
  0
ARC
  8
6
  6
CONTINUOUS
 62
6
 10
-0.218625808192189
 20
-0.615399344794915
 30
0.0
 40
0.0120747559631734
 50
5.18227244383104
 51
59.3448299999932
  0
LINE
  8
6
  6
CONTINUOUS
 62
6
 10
-0.212469252531751
 20
-0.605012018191303
 30
0.0
 11
-0.234579545299406
 21
-0.595515792393266
 31
0.0
  0
ARC
  8
6
  6
CONTINUOUS
 62
6
 10
-0.228422985611361
 20
-0.585128471036291
 30
0.0
 40
0.0120747535033035
 50
185.182406440214
 51
239.344800865815
  0
ARC
  8
6
  6
CONTINUOUS
 62
6
 10
-0.22573941926674
 20
-0.586863421443933
 30
0.0
 40
0.0147230638875712
 50
91.2613438550513
 51
177.491952931064
  0
LINE
  8
6
  6
CONTINUOUS
 62
6
 10
-0.226063515497188
 20
-0.572143925125413
 30
0.0
 11
-0.220352191499813
 21
-0.572137919527098
 31
0.0
  0
ARC
  8
6
  6
CONTINUOUS
 62
6
 10
-0.220862258169927
 20
-0.587812095370151
 30
0.0
 40
0.0156824729034335
 50
29.2717084966216
 51
88.1361471074733
  0
ARC
  8
6
  6
CONTINUOUS
 62
6
 10
-0.391452552721396
 20
0.382972378234167
 30
0.0
 40
0.0206598446125361
 50
204.386837237006
 51
324.32
  0
ARC
  8
6
  6
CONTINUOUS
 62
6
 10
-0.362863843965914
 20
0.390493229044362
 30
0.0
 40
0.0500489658039819
 50
161.294134617644
 51
198.705865382356
  0
ARC
  8
6
  6
CONTINUOUS
 62
6
 10
-0.391452548708596
 20
0.398014082144947
 30
0.0
 40
0.0206598486253359
 50
35.680029999988
 51
155.613174782251
  0
LINE
  8
6
  6
CONTINUOUS
 62
6
 10
-0.369052905009894
 20
0.418673930770282
 30
0.0
 11
-0.369052905009894
 21
0.362494730792754
 31
0.0
  0
LINE
  8
6
  6
CONTINUOUS
 62
6
 10
-0.369052905009894
 20
0.362494730792754
 30
0.0
 11
-0.336107817023072
 21
0.362494730792754
 31
0.0
  0
LINE
  8
6
  6
CONTINUOUS
 62
6
 10
-0.326181419309577
 20
0.362494727146665
 30
0.0
 11
-0.310130223076593
 21
0.362494727146665
 31
0.0
  0
LINE
  8
6
  6
CONTINUOUS
 62
6
 10
-0.318155823073381
 20
0.364180103124193
 30
0.0
 11
-0.318155823073381
 21
0.416988551124193
 31
0.0
  0
LINE
  8
6
  6
CONTINUOUS
 62
6
 10
-0.326181419309577
 20
0.418673927124193
 30
0.0
 11
-0.310214697024678
 21
0.418673927124193
 31
0.0
  0
ARC
  8
6
  6
CONTINUOUS
 62
6
 10
-0.282988679260461
 20
0.382972378234166
 30
0.0
 40
0.0206598446125364
 50
204.386837237004
 51
324.319999999998
  0
ARC
  8
6
  6
CONTINUOUS
 62
6
 10
-0.25439997050498
 20
0.390493229044362
 30
0.0
 40
0.0500489658039819
 50
161.294134617644
 51
198.705865382356
  0
ARC
  8
6
  6
CONTINUOUS
 62
6
 10
-0.282988675247662
 20
0.398014082144947
 30
0.0
 40
0.0206598486253361
 50
35.6800299999889
 51
155.613174782251
  0
LINE
  8
6
  6
CONTINUOUS
 62
6
 10
-0.26058903154896
 20
0.418673930770282
 30
0.0
 11
-0.26058903154896
 21
0.362494730792754
 31
0.0
  0
LINE
  8
6
  6
CONTINUOUS
 62
6
 10
-0.229168807561528
 20
0.362494730792754
 30
0.0
 11
-0.245615130488201
 21
0.396975163853207
 31
0.0
  0
LINE
  8
6
  6
CONTINUOUS
 62
6
 10
-0.258940952547676
 20
0.38381522773101
 30
0.0
 11
-0.229168807561528
 21
0.418673930770282
 31
0.0
  0
LINE
  8
6
  6
CONTINUOUS
 62
6
 10
-0.39495552576428
 20
0.0264833326609611
 30
0.0
 11
-0.39495552576428
 21
0.0809585908632525
 31
0.0
  0
LINE
  8
6
  6
CONTINUOUS
 62
6
 10
-0.412912809769896
 20
0.0826625326384894
 30
0.0
 11
-0.376998249784262
 21
0.0826625326384894
 31
0.0
  0
LINE
  8
6
  6
CONTINUOUS
 62
6
 10
-0.371380329784263
 20
0.0826625287240364
 30
0.0
 11
-0.35368897995015
 21
0.0560303891888152
 31
0.0
  0
LINE
  8
6
  6
CONTINUOUS
 62
6
 10
-0.352720809791726
 20
0.0264833287465081
 30
0.0
 11
-0.352720809791726
 21
0.0545729287352722
 31
0.0
  0
LINE
  8
6
  6
CONTINUOUS
 62
6
 10
-0.352720809791726
 20
0.0545729287352722
 30
0.0
 11
-0.33406128979919
 21
0.0826625287240364
 31
0.0
  0
LINE
  8
6
  6
CONTINUOUS
 62
6
 10
-0.327038889799191
 20
0.0264833287465081
 30
0.0
 11
-0.327038889799191
 21
0.0826625287240364
 31
0.0
  0
LINE
  8
6
  6
CONTINUOUS
 62
6
 10
-0.327038889799191
 20
0.0826625287240364
 30
0.0
 11
-0.306653865807345
 21
0.0826625287240373
 31
0.0
  0
ARC
  8
6
  6
CONTINUOUS
 62
6
 10
-0.307488524623505
 20
0.0686177287296553
 30
0.0
 40
0.0140695793192831
 50
273.400991681353
 51
86.599008318647
  0
LINE
  8
6
  6
CONTINUOUS
 62
6
 10
-0.306653865807344
 20
0.0545729287352722
 30
0.0
 11
-0.326196201799191
 21
0.0545729287352722
 31
0.0
  0
LINE
  8
6
  6
CONTINUOUS
 62
6
 10
-0.253440971368669
 20
0.0264827439972624
 30
0.0
 11
-0.286386059355491
 21
0.0264827439972624
 31
0.0
  0
LINE
  8
6
  6
CONTINUOUS
 62
6
 10
-0.286386059355491
 20
0.0264827439972624
 30
0.0
 11
-0.286406123355483
 21
0.0545723439860266
 31
0.0
  0
LINE
  8
6
  6
CONTINUOUS
 62
6
 10
-0.286406123355483
 20
0.0545723439860266
 30
0.0
 11
-0.26066401136578
 21
0.0545723439860266
 31
0.0
  0
LINE
  8
6
  6
CONTINUOUS
 62
6
 10
-0.286407326856545
 20
0.0554145574730264
 30
0.0
 11
-0.286426187355476
 21
0.0826619439747907
 31
0.0
  0
LINE
  8
6
  6
CONTINUOUS
 62
6
 10
-0.286426187355476
 20
0.0826619439747907
 30
0.0
 11
-0.256249931368669
 21
0.0826619439747907
 31
0.0
  0
LINE
  8
6
  6
CONTINUOUS
 62
6
 10
-0.412912809769896
 20
-0.0826505254030387
 30
0.0
 11
-0.412912809769896
 21
-0.0264713254255103
 31
0.0
  0
LINE
  8
6
  6
CONTINUOUS
 62
6
 10
-0.412912809769896
 20
-0.0264713254255103
 30
0.0
 11
-0.392527785778048
 21
-0.0264713254255091
 31
0.0
  0
ARC
  8
6
  6
CONTINUOUS
 62
6
 10
-0.39336244459421
 20
-0.0405161254198915
 30
0.0
 40
0.0140695793192831
 50
273.400991681353
 51
86.599008318647
  0
LINE
  8
6
  6
CONTINUOUS
 62
6
 10
-0.392527785778048
 20
-0.0545609254142739
 30
0.0
 11
-0.412070121769896
 21
-0.0545609254142744
 31
0.0
  0
LINE
  8
6
  6
CONTINUOUS
 62
6
 10
-0.370056105783666
 20
-0.0826505254030387
 30
0.0
 11
-0.370056105783666
 21
-0.0264713254255103
 31
0.0
  0
LINE
  8
6
  6
CONTINUOUS
 62
6
 10
-0.370056105783666
 20
-0.0264713254255103
 30
0.0
 11
-0.349671081791818
 21
-0.0264713254255099
 31
0.0
  0
ARC
  8
6
  6
CONTINUOUS
 62
6
 10
-0.349941756791237
 20
-0.040516104628187
 30
0.0
 40
0.014047387223511
 50
271.095264000536
 51
88.8959160393186
  0
LINE
  8
6
  6
CONTINUOUS
 62
6
 10
-0.349673243811028
 20
-0.0545609253314469
 30
0.0
 11
-0.368212379811028
 21
-0.0545609253314469
 31
0.0
  0
LINE
  8
6
  6
CONTINUOUS
 62
6
 10
-0.34887284957155
 20
-0.0561614767366143
 30
0.0
 11
-0.335626281797438
 21
-0.0826505254030387
 31
0.0
  0
LINE
  8
6
  6
CONTINUOUS
 62
6
 10
-0.296458187353147
 20
-0.0826511101522842
 30
0.0
 11
-0.329403275339967
 21
-0.0826511101522842
 31
0.0
  0
LINE
  8
6
  6
CONTINUOUS
 62
6
 10
-0.329403275339967
 20
-0.0826511101522842
 30
0.0
 11
-0.32942333933996
 21
-0.0545615101635201
 31
0.0
  0
LINE
  8
6
  6
CONTINUOUS
 62
6
 10
-0.32942333933996
 20
-0.0545615101635201
 30
0.0
 11
-0.303681227350256
 21
-0.0545615101635201
 31
0.0
  0
LINE
  8
6
  6
CONTINUOUS
 62
6
 10
-0.329424542841022
 20
-0.0537192966765204
 30
0.0
 11
-0.329443403339952
 21
-0.026471910174756
 31
0.0
  0
LINE
  8
6
  6
CONTINUOUS
 62
6
 10
-0.329443403339952
 20
-0.026471910174756
 30
0.0
 11
-0.299267147353146
 21
-0.026471910174756
 31
0.0
  0
ARC
  8
6
  6
CONTINUOUS
 62
6
 10
-0.275411349504183
 20
-0.0664897065190682
 30
0.0
 40
0.0161945091199223
 50
210.52199966625
 51
269.441063338045
  0
LINE
  8
6
  6
CONTINUOUS
 62
6
 10
-0.275569329051341
 20
-0.08268344506512
 30
0.0
 11
-0.26984439136677
 21
-0.0827392952186545
 31
0.0
  0
ARC
  8
6
  6
CONTINUOUS
 62
6
 10
-0.269700172137118
 20
-0.0679560529579676
 30
0.0
 40
0.0147839457156863
 50
269.441063677768
 51
357.350682656726
  0
ARC
  8
6
  6
CONTINUOUS
 62
6
 10
-0.266957427296274
 20
-0.0697300544749151
 30
0.0
 40
0.0120747559631732
 50
5.18227244383233
 51
59.3448299999944
  0
LINE
  8
6
  6
CONTINUOUS
 62
6
 10
-0.260800871635837
 20
-0.0593427278713023
 30
0.0
 11
-0.282911164403491
 21
-0.0498465020732664
 31
0.0
  0
ARC
  8
6
  6
CONTINUOUS
 62
6
 10
-0.276754604715446
 20
-0.0394591807162912
 30
0.0
 40
0.0120747535033037
 50
185.182406440215
 51
239.344800865818
  0
ARC
  8
6
  6
CONTINUOUS
 62
6
 10
-0.274071038370825
 20
-0.0411941311239333
 30
0.0
 40
0.0147230638875715
 50
91.2613438550503
 51
177.491952931063
  0
LINE
  8
6
  6
CONTINUOUS
 62
6
 10
-0.274395134601274
 20
-0.0264746348054132
 30
0.0
 11
-0.268683810603898
 21
-0.026468629207098
 31
0.0
  0
ARC
  8
6
  6
CONTINUOUS
 62
6
 10
-0.269193877274012
 20
-0.0421428050501508
 30
0.0
 40
0.0156824729034333
 50
29.271708496623
 51
88.1361471074748
  0
ARC
  8
6
  6
CONTINUOUS
 62
6
 10
-0.227079730400097
 20
-0.066489706519068
 30
0.0
 40
0.0161945091199222
 50
210.521999666251
 51
269.441063338045
  0
LINE
  8
6
  6
CONTINUOUS
 62
6
 10
-0.227237709947256
 20
-0.08268344506512
 30
0.0
 11
-0.221512772262685
 21
-0.0827392952186545
 31
0.0
  0
ARC
  8
6
  6
CONTINUOUS
 62
6
 10
-0.221368553033033
 20
-0.0679560529579677
 30
0.0
 40
0.0147839457156863
 50
269.44106367777
 51
357.350682656723
  0
ARC
  8
6
  6
CONTINUOUS
 62
6
 10
-0.218625808192188
 20
-0.0697300544749151
 30
0.0
 40
0.0120747559631732
 50
5.18227244383194
 51
59.344829999994
  0
LINE
  8
6
  6
CONTINUOUS
 62
6
 10
-0.212469252531751
 20
-0.0593427278713023
 30
0.0
 11
-0.234579545299405
 21
-0.0498465020732664
 31
0.0
  0
ARC
  8
6
  6
CONTINUOUS
 62
6
 10
-0.22842298561136
 20
-0.0394591807162907
 30
0.0
 40
0.012074753503304
 50
185.182406440218
 51
239.34480086582
  0
ARC
  8
6
  6
CONTINUOUS
 62
6
 10
-0.22573941926674
 20
-0.041194131123933
 30
0.0
 40
0.0147230638875713
 50
91.2613438550514
 51
177.491952931064
  0
LINE
  8
6
  6
CONTINUOUS
 62
6
 10
-0.226063515497188
 20
-0.0264746348054132
 30
0.0
 11
-0.220352191499813
 21
-0.026468629207098
 31
0.0
  0
ARC
  8
6
  6
CONTINUOUS
 62
6
 10
-0.220862258169927
 20
-0.0421428050501509
 30
0.0
 40
0.0156824729034333
 50
29.2717084966232
 51
88.1361471074748
  0
LINE
  8
6
  6
CONTINUOUS
 62
6
 10
-0.39495552576428
 20
0.463018764916961
 30
0.0
 11
-0.39495552576428
 21
0.517494023119253
 31
0.0
  0
LINE
  8
6
  6
CONTINUOUS
 62
6
 10
-0.412912809769896
 20
0.51919796489449
 30
0.0
 11
-0.376998249784262
 21
0.51919796489449
 31
0.0
  0
LINE
  8
6
  6
CONTINUOUS
 62
6
 10
-0.371380329784263
 20
0.519197960980036
 30
0.0
 11
-0.35368897995015
 21
0.492565821444815
 31
0.0
  0
LINE
  8
6
  6
CONTINUOUS
 62
6
 10
-0.352720809791726
 20
0.463018761002508
 30
0.0
 11
-0.352720809791726
 21
0.491108360991272
 31
0.0
  0
LINE
  8
6
  6
CONTINUOUS
 62
6
 10
-0.352720809791726
 20
0.491108360991272
 30
0.0
 11
-0.33406128979919
 21
0.519197960980036
 31
0.0
  0
LINE
  8
6
  6
CONTINUOUS
 62
6
 10
-0.327038889799191
 20
0.463018761002508
 30
0.0
 11
-0.327038889799191
 21
0.519197960980036
 31
0.0
  0
LINE
  8
6
  6
CONTINUOUS
 62
6
 10
-0.327038889799191
 20
0.519197960980036
 30
0.0
 11
-0.306653865807345
 21
0.519197960980037
 31
0.0
  0
ARC
  8
6
  6
CONTINUOUS
 62
6
 10
-0.307488524623505
 20
0.505153160985656
 30
0.0
 40
0.0140695793192831
 50
273.400991681353
 51
86.599008318647
  0
LINE
  8
6
  6
CONTINUOUS
 62
6
 10
-0.306653865807344
 20
0.491108360991272
 30
0.0
 11
-0.326196201799191
 21
0.491108360991272
 31
0.0
  0
LINE
  8
6
  6
CONTINUOUS
 62
6
 10
-0.253440971368669
 20
0.463018176253263
 30
0.0
 11
-0.286386059355491
 21
0.463018176253263
 31
0.0
  0
LINE
  8
6
  6
CONTINUOUS
 62
6
 10
-0.286386059355491
 20
0.463018176253263
 30
0.0
 11
-0.286406123355483
 21
0.491107776242027
 31
0.0
  0
LINE
  8
6
  6
CONTINUOUS
 62
6
 10
-0.286406123355483
 20
0.491107776242027
 30
0.0
 11
-0.26066401136578
 21
0.491107776242027
 31
0.0
  0
LINE
  8
6
  6
CONTINUOUS
 62
6
 10
-0.286407326856545
 20
0.491949989729026
 30
0.0
 11
-0.286426187355476
 21
0.519197376230791
 31
0.0
  0
LINE
  8
6
  6
CONTINUOUS
 62
6
 10
-0.286426187355476
 20
0.519197376230791
 30
0.0
 11
-0.256249931368669
 21
0.519197376230791
 31
0.0
  0
LINE
  8
6
  6
CONTINUOUS
 62
6
 10
-0.394955525764279
 20
-0.410052099595039
 30
0.0
 11
-0.394955525764279
 21
-0.355576841392748
 31
0.0
  0
LINE
  8
6
  6
CONTINUOUS
 62
6
 10
-0.412912809769896
 20
-0.353872899617511
 30
0.0
 11
-0.376998249784262
 21
-0.353872899617511
 31
0.0
  0
LINE
  8
6
  6
CONTINUOUS
 62
6
 10
-0.371380329784263
 20
-0.353872903531965
 30
0.0
 11
-0.35368897995015
 21
-0.380505043067185
 31
0.0
  0
LINE
  8
6
  6
CONTINUOUS
 62
6
 10
-0.352720809791726
 20
-0.410052103509493
 30
0.0
 11
-0.352720809791726
 21
-0.381962503520729
 31
0.0
  0
LINE
  8
6
  6
CONTINUOUS
 62
6
 10
-0.352720809791726
 20
-0.381962503520729
 30
0.0
 11
-0.33406128979919
 21
-0.353872903531965
 31
0.0
  0
LINE
  8
6
  6
CONTINUOUS
 62
6
 10
-0.327038889799191
 20
-0.410052103509492
 30
0.0
 11
-0.327038889799191
 21
-0.353872903531965
 31
0.0
  0
LINE
  8
6
  6
CONTINUOUS
 62
6
 10
-0.327038889799191
 20
-0.353872903531965
 30
0.0
 11
-0.306653865807345
 21
-0.353872903531963
 31
0.0
  0
ARC
  8
6
  6
CONTINUOUS
 62
6
 10
-0.307488524623505
 20
-0.367917703526346
 30
0.0
 40
0.0140695793192831
 50
273.400991681353
 51
86.599008318647
  0
LINE
  8
6
  6
CONTINUOUS
 62
6
 10
-0.306653865807344
 20
-0.381962503520728
 30
0.0
 11
-0.326196201799191
 21
-0.381962503520729
 31
0.0
  0
LINE
  8
6
  6
CONTINUOUS
 62
6
 10
-0.253440971368669
 20
-0.410052688258738
 30
0.0
 11
-0.286386059355491
 21
-0.410052688258738
 31
0.0
  0
LINE
  8
6
  6
CONTINUOUS
 62
6
 10
-0.286386059355491
 20
-0.410052688258738
 30
0.0
 11
-0.286406123355483
 21
-0.381963088269974
 31
0.0
  0
LINE
  8
6
  6
CONTINUOUS
 62
6
 10
-0.286406123355483
 20
-0.381963088269974
 30
0.0
 11
-0.26066401136578
 21
-0.381963088269974
 31
0.0
  0
LINE
  8
6
  6
CONTINUOUS
 62
6
 10
-0.286407326856545
 20
-0.381120874782974
 30
0.0
 11
-0.286426187355476
 21
-0.35387348828121
 31
0.0
  0
LINE
  8
6
  6
CONTINUOUS
 62
6
 10
-0.286426187355476
 20
-0.35387348828121
 30
0.0
 11
-0.256249931368669
 21
-0.35387348828121
 31
0.0
  0
ARC
  8
6
  6
CONTINUOUS
 62
6
 10
-0.391452552721396
 20
0.265228696230374
 30
0.0
 40
0.0206598446125364
 50
204.386837237004
 51
324.319999999998
  0
ARC
  8
6
  6
CONTINUOUS
 62
6
 10
-0.362863843965915
 20
0.272749547040569
 30
0.0
 40
0.0500489658039817
 50
161.294134617644
 51
198.705865382356
  0
ARC
  8
6
  6
CONTINUOUS
 62
6
 10
-0.391452548708595
 20
0.280270400141154
 30
0.0
 40
0.0206598486253361
 50
35.6800299999886
 51
155.613174782251
  0
LINE
  8
6
  6
CONTINUOUS
 62
6
 10
-0.369052905009894
 20
0.300930248766489
 30
0.0
 11
-0.369052905009894
 21
0.244751048788961
 31
0.0
  0
LINE
  8
6
  6
CONTINUOUS
 62
6
 10
-0.369052905009894
 20
0.244751048788961
 30
0.0
 11
-0.336107817023072
 21
0.244751048788961
 31
0.0
  0
LINE
  8
6
  6
CONTINUOUS
 62
6
 10
-0.326181419309576
 20
0.244751045142872
 30
0.0
 11
-0.310130223076593
 21
0.244751045142872
 31
0.0
  0
LINE
  8
6
  6
CONTINUOUS
 62
6
 10
-0.318155823073381
 20
0.2464364211204
 30
0.0
 11
-0.318155823073381
 21
0.2992448691204
 31
0.0
  0
LINE
  8
6
  6
CONTINUOUS
 62
6
 10
-0.326181419309576
 20
0.3009302451204
 30
0.0
 11
-0.310214697024678
 21
0.3009302451204
 31
0.0
  0
ARC
  8
6
  6
CONTINUOUS
 62
6
 10
-0.282988679260462
 20
0.265228696230374
 30
0.0
 40
0.020659844612536
 50
204.386837237003
 51
324.319999999997
  0
ARC
  8
6
  6
CONTINUOUS
 62
6
 10
-0.25439997050498
 20
0.272749547040569
 30
0.0
 40
0.0500489658039817
 50
161.294134617644
 51
198.705865382356
  0
ARC
  8
6
  6
CONTINUOUS
 62
6
 10
-0.282988675247662
 20
0.280270400141154
 30
0.0
 40
0.0206598486253361
 50
35.6800299999886
 51
155.613174782251
  0
LINE
  8
6
  6
CONTINUOUS
 62
6
 10
-0.26058903154896
 20
0.300930248766489
 30
0.0
 11
-0.26058903154896
 21
0.244751048788961
 31
0.0
  0
LINE
  8
6
  6
CONTINUOUS
 62
6
 10
-0.229168807561527
 20
0.244751048788961
 30
0.0
 11
-0.245615130488201
 21
0.279231481849415
 31
0.0
  0
LINE
  8
6
  6
CONTINUOUS
 62
6
 10
-0.258940952547676
 20
0.266071545727218
 30
0.0
 11
-0.229168807561527
 21
0.300930248766489
 31
0.0
  0
ARC
  8
6
  6
CONTINUOUS
 62
6
 10
-0.391452552721396
 20
-0.280440594089626
 30
0.0
 40
0.0206598446125361
 50
204.386837237004
 51
324.319999999998
  0
ARC
  8
6
  6
CONTINUOUS
 62
6
 10
-0.362863843965914
 20
-0.272919743279431
 30
0.0
 40
0.0500489658039817
 50
161.294134617644
 51
198.705865382356
  0
ARC
  8
6
  6
CONTINUOUS
 62
6
 10
-0.391452548708596
 20
-0.265398890178846
 30
0.0
 40
0.0206598486253359
 50
35.6800299999885
 51
155.613174782252
  0
LINE
  8
6
  6
CONTINUOUS
 62
6
 10
-0.369052905009894
 20
-0.244739041553511
 30
0.0
 11
-0.369052905009894
 21
-0.300918241531039
 31
0.0
  0
LINE
  8
6
  6
CONTINUOUS
 62
6
 10
-0.369052905009894
 20
-0.300918241531039
 30
0.0
 11
-0.336107817023072
 21
-0.300918241531039
 31
0.0
  0
LINE
  8
6
  6
CONTINUOUS
 62
6
 10
-0.326181419309577
 20
-0.300918245177128
 30
0.0
 11
-0.310130223076593
 21
-0.300918245177128
 31
0.0
  0
LINE
  8
6
  6
CONTINUOUS
 62
6
 10
-0.318155823073381
 20
-0.2992328691996
 30
0.0
 11
-0.318155823073381
 21
-0.2464244211996
 31
0.0
  0
LINE
  8
6
  6
CONTINUOUS
 62
6
 10
-0.326181419309577
 20
-0.2447390451996
 30
0.0
 11
-0.310214697024678
 21
-0.2447390451996
 31
0.0
  0
ARC
  8
6
  6
CONTINUOUS
 62
6
 10
-0.282988679260462
 20
-0.280440594089626
 30
0.0
 40
0.0206598446125364
 50
204.386837237005
 51
324.319999999999
  0
ARC
  8
6
  6
CONTINUOUS
 62
6
 10
-0.25439997050498
 20
-0.272919743279431
 30
0.0
 40
0.0500489658039817
 50
161.294134617644
 51
198.705865382356
  0
ARC
  8
6
  6
CONTINUOUS
 62
6
 10
-0.282988675247662
 20
-0.265398890178846
 30
0.0
 40
0.0206598486253361
 50
35.6800299999886
 51
155.613174782251
  0
LINE
  8
6
  6
CONTINUOUS
 62
6
 10
-0.26058903154896
 20
-0.244739041553511
 30
0.0
 11
-0.26058903154896
 21
-0.300918241531039
 31
0.0
  0
LINE
  8
6
  6
CONTINUOUS
 62
6
 10
-0.229168807561528
 20
-0.300918241531039
 30
0.0
 11
-0.245615130488201
 21
-0.266437808470585
 31
0.0
  0
LINE
  8
6
  6
CONTINUOUS
 62
6
 10
-0.258940952547676
 20
-0.279597744592782
 30
0.0
 11
-0.229168807561528
 21
-0.244739041553511
 31
0.0
  0
ARC
  8
6
  6
CONTINUOUS
 62
6
 10
-0.391452552721396
 20
-0.162696912085834
 30
0.0
 40
0.0206598446125364
 50
204.386837237003
 51
324.319999999998
  0
ARC
  8
6
  6
CONTINUOUS
 62
6
 10
-0.362863843965914
 20
-0.155176061275638
 30
0.0
 40
0.050048965803982
 50
161.294134617644
 51
198.705865382356
  0
ARC
  8
6
  6
CONTINUOUS
 62
6
 10
-0.391452548708596
 20
-0.147655208175053
 30
0.0
 40
0.0206598486253359
 50
35.6800299999883
 51
155.613174782251
  0
LINE
  8
6
  6
CONTINUOUS
 62
6
 10
-0.369052905009894
 20
-0.126995359549718
 30
0.0
 11
-0.369052905009894
 21
-0.183174559527246
 31
0.0
  0
LINE
  8
6
  6
CONTINUOUS
 62
6
 10
-0.369052905009894
 20
-0.183174559527246
 30
0.0
 11
-0.336107817023072
 21
-0.183174559527246
 31
0.0
  0
LINE
  8
6
  6
CONTINUOUS
 62
6
 10
-0.326181419309577
 20
-0.183174563173335
 30
0.0
 11
-0.310130223076593
 21
-0.183174563173335
 31
0.0
  0
LINE
  8
6
  6
CONTINUOUS
 62
6
 10
-0.318155823073381
 20
-0.181489187195807
 30
0.0
 11
-0.318155823073381
 21
-0.128680739195807
 31
0.0
  0
LINE
  8
6
  6
CONTINUOUS
 62
6
 10
-0.326181419309577
 20
-0.126995363195807
 30
0.0
 11
-0.310214697024678
 21
-0.126995363195807
 31
0.0
  0
ARC
  8
6
  6
CONTINUOUS
 62
6
 10
-0.282988679260461
 20
-0.162696912085835
 30
0.0
 40
0.0206598446125361
 50
204.386837237004
 51
324.319999999998
  0
ARC
  8
6
  6
CONTINUOUS
 62
6
 10
-0.25439997050498
 20
-0.155176061275638
 30
0.0
 40
0.050048965803982
 50
161.294134617644
 51
198.705865382356
  0
ARC
  8
6
  6
CONTINUOUS
 62
6
 10
-0.282988675247662
 20
-0.147655208175053
 30
0.0
 40
0.0206598486253359
 50
35.6800299999883
 51
155.613174782251
  0
LINE
  8
6
  6
CONTINUOUS
 62
6
 10
-0.260589031548961
 20
-0.126995359549718
 30
0.0
 11
-0.260589031548961
 21
-0.183174559527246
 31
0.0
  0
LINE
  8
6
  6
CONTINUOUS
 62
6
 10
-0.229168807561528
 20
-0.183174559527246
 30
0.0
 11
-0.245615130488201
 21
-0.148694126466793
 31
0.0
  0
LINE
  8
6
  6
CONTINUOUS
 62
6
 10
-0.258940952547677
 20
-0.16185406258899
 30
0.0
 11
-0.229168807561528
 21
-0.126995359549718
 31
0.0
  0
LINE
  8
6
  6
CONTINUOUS
 62
6
 10
-0.39495552576428
 20
-0.519185957659039
 30
0.0
 11
-0.39495552576428
 21
-0.464710699456748
 31
0.0
  0
LINE
  8
6
  6
CONTINUOUS
 62
6
 10
-0.412912809769896
 20
-0.463006757681511
 30
0.0
 11
-0.376998249784262
 21
-0.463006757681511
 31
0.0
  0
LINE
  8
6
  6
CONTINUOUS
 62
6
 10
-0.371380329784263
 20
-0.463006761595964
 30
0.0
 11
-0.35368897995015
 21
-0.489638901131185
 31
0.0
  0
LINE
  8
6
  6
CONTINUOUS
 62
6
 10
-0.352720809791726
 20
-0.519185961573493
 30
0.0
 11
-0.352720809791726
 21
-0.491096361584728
 31
0.0
  0
LINE
  8
6
  6
CONTINUOUS
 62
6
 10
-0.352720809791726
 20
-0.491096361584728
 30
0.0
 11
-0.33406128979919
 21
-0.463006761595964
 31
0.0
  0
LINE
  8
6
  6
CONTINUOUS
 62
6
 10
-0.327038889799191
 20
-0.519185961573492
 30
0.0
 11
-0.327038889799191
 21
-0.463006761595964
 31
0.0
  0
LINE
  8
6
  6
CONTINUOUS
 62
6
 10
-0.327038889799191
 20
-0.463006761595964
 30
0.0
 11
-0.306653865807345
 21
-0.463006761595963
 31
0.0
  0
ARC
  8
6
  6
CONTINUOUS
 62
6
 10
-0.307488524623505
 20
-0.477051561590345
 30
0.0
 40
0.0140695793192831
 50
273.400991681353
 51
86.599008318647
  0
LINE
  8
6
  6
CONTINUOUS
 62
6
 10
-0.306653865807344
 20
-0.491096361584728
 30
0.0
 11
-0.326196201799191
 21
-0.491096361584728
 31
0.0
  0
LINE
  8
6
  6
CONTINUOUS
 62
6
 10
-0.253440971368669
 20
-0.519186546322738
 30
0.0
 11
-0.286386059355491
 21
-0.519186546322738
 31
0.0
  0
LINE
  8
6
  6
CONTINUOUS
 62
6
 10
-0.286386059355491
 20
-0.519186546322738
 30
0.0
 11
-0.286406123355483
 21
-0.491096946333974
 31
0.0
  0
LINE
  8
6
  6
CONTINUOUS
 62
6
 10
-0.286406123355483
 20
-0.491096946333974
 30
0.0
 11
-0.26066401136578
 21
-0.491096946333974
 31
0.0
  0
LINE
  8
6
  6
CONTINUOUS
 62
6
 10
-0.286407326856546
 20
-0.490254732846974
 30
0.0
 11
-0.286426187355476
 21
-0.463007346345209
 31
0.0
  0
LINE
  8
6
  6
CONTINUOUS
 62
6
 10
-0.286426187355476
 20
-0.463007346345209
 30
0.0
 11
-0.256249931368669
 21
-0.463007346345209
 31
0.0
  0
LINE
  8
6
  6
CONTINUOUS
 62
6
 10
-0.0654378753161555
 20
0.463018764916961
 30
0.0
 11
-0.0654378753161555
 21
0.517494039036242
 31
0.0
  0
LINE
  8
6
  6
CONTINUOUS
 62
6
 10
-0.0833951645686661
 20
0.51919798130935
 30
0.0
 11
-0.0474805940892467
 21
0.51919798130935
 31
0.0
  0
LINE
  8
6
  6
CONTINUOUS
 62
6
 10
-0.0418626724477607
 20
0.519197977394895
 30
0.0
 11
-0.0418626724477607
 21
0.463018761002506
 31
0.0
  0
LINE
  8
6
  6
CONTINUOUS
 62
6
 10
-0.0401772959553149
 20
0.491108369198701
 30
0.0
 11
-0.00950344379280135
 21
0.491108369198701
 31
0.0
  0
LINE
  8
6
  6
CONTINUOUS
 62
6
 10
-0.00775386249523919
 20
0.463018761002506
 30
0.0
 11
-0.00775386249523919
 21
0.519197977394895
 31
0.0
  0
LINE
  8
6
  6
CONTINUOUS
 62
6
 10
0.0314142433934808
 20
0.463018176253091
 30
0.0
 11
-0.00153085421948345
 21
0.463018176253091
 31
0.0
  0
LINE
  8
6
  6
CONTINUOUS
 62
6
 10
-0.00153085421948345
 20
0.463018176253091
 30
0.0
 11
-0.00155091822533848
 21
0.491107784449285
 31
0.0
  0
LINE
  8
6
  6
CONTINUOUS
 62
6
 10
-0.00155091822533848
 20
0.491107784449285
 30
0.0
 11
0.0241912012858879
 21
0.491107784449285
 31
0.0
  0
LINE
  8
6
  6
CONTINUOUS
 62
6
 10
-0.00155212172675174
 20
0.491949998182368
 30
0.0
 11
-0.00157098223119294
 21
0.519197392645478
 31
0.0
  0
LINE
  8
6
  6
CONTINUOUS
 62
6
 10
-0.00157098223119294
 20
0.519197392645478
 30
0.0
 11
0.0286052825727378
 21
0.519197392645478
 31
0.0
  0
LINE
  8
6
  6
CONTINUOUS
 62
6
 10
0.0349624044302088
 20
0.463018760980035
 30
0.0
 11
0.034962410913579
 21
0.519197970508972
 31
0.0
  0
LINE
  8
6
  6
CONTINUOUS
 62
6
 10
0.034962410913579
 20
0.519197970508972
 30
0.0
 11
0.0694591249792857
 21
0.463018754116584
 31
0.0
  0
LINE
  8
6
  6
CONTINUOUS
 62
6
 10
0.0694591249792857
 20
0.463018754116584
 30
0.0
 11
0.0694591249792857
 21
0.519197970508972
 31
0.0
  0
LINE
  8
6
  6
CONTINUOUS
 62
6
 10
-0.39495552576428
 20
0.572152622980961
 30
0.0
 11
-0.39495552576428
 21
0.626627881183253
 31
0.0
  0
LINE
  8
6
  6
CONTINUOUS
 62
6
 10
-0.412912809769896
 20
0.62833182295849
 30
0.0
 11
-0.376998249784262
 21
0.62833182295849
 31
0.0
  0
LINE
  8
6
  6
CONTINUOUS
 62
6
 10
-0.371380329784263
 20
0.628331819044037
 30
0.0
 11
-0.35368897995015
 21
0.601699679508815
 31
0.0
  0
LINE
  8
6
  6
CONTINUOUS
 62
6
 10
-0.352720809791726
 20
0.572152619066508
 30
0.0
 11
-0.352720809791726
 21
0.600242219055273
 31
0.0
  0
LINE
  8
6
  6
CONTINUOUS
 62
6
 10
-0.352720809791726
 20
0.600242219055273
 30
0.0
 11
-0.33406128979919
 21
0.628331819044037
 31
0.0
  0
LINE
  8
6
  6
CONTINUOUS
 62
6
 10
-0.327038889799191
 20
0.572152619066508
 30
0.0
 11
-0.327038889799191
 21
0.628331819044037
 31
0.0
  0
LINE
  8
6
  6
CONTINUOUS
 62
6
 10
-0.327038889799191
 20
0.628331819044037
 30
0.0
 11
-0.306653865807345
 21
0.628331819044038
 31
0.0
  0
ARC
  8
6
  6
CONTINUOUS
 62
6
 10
-0.307488524623505
 20
0.614287019049656
 30
0.0
 40
0.014069579319283
 50
273.400991681353
 51
86.599008318647
  0
LINE
  8
6
  6
CONTINUOUS
 62
6
 10
-0.306653865807344
 20
0.600242219055273
 30
0.0
 11
-0.326196201799191
 21
0.600242219055273
 31
0.0
  0
LINE
  8
6
  6
CONTINUOUS
 62
6
 10
-0.253440971368669
 20
0.572152034317262
 30
0.0
 11
-0.286386059355491
 21
0.572152034317262
 31
0.0
  0
LINE
  8
6
  6
CONTINUOUS
 62
6
 10
-0.286386059355491
 20
0.572152034317262
 30
0.0
 11
-0.286406123355483
 21
0.600241634306027
 31
0.0
  0
LINE
  8
6
  6
CONTINUOUS
 62
6
 10
-0.286406123355483
 20
0.600241634306027
 30
0.0
 11
-0.26066401136578
 21
0.600241634306027
 31
0.0
  0
LINE
  8
6
  6
CONTINUOUS
 62
6
 10
-0.286407326856545
 20
0.601083847793027
 30
0.0
 11
-0.286426187355476
 21
0.628331234294791
 31
0.0
  0
LINE
  8
6
  6
CONTINUOUS
 62
6
 10
-0.286426187355476
 20
0.628331234294791
 30
0.0
 11
-0.256249931368669
 21
0.628331234294791
 31
0.0
  0
LINE
  8
6
  6
CONTINUOUS
 62
6
 10
-0.39495552576428
 20
0.135617190724961
 30
0.0
 11
-0.39495552576428
 21
0.190092448927253
 31
0.0
  0
LINE
  8
6
  6
CONTINUOUS
 62
6
 10
-0.412912809769896
 20
0.191796390702489
 30
0.0
 11
-0.376998249784262
 21
0.191796390702489
 31
0.0
  0
LINE
  8
6
  6
CONTINUOUS
 62
6
 10
-0.371380329784263
 20
0.191796386788036
 30
0.0
 11
-0.35368897995015
 21
0.165164247252815
 31
0.0
  0
LINE
  8
6
  6
CONTINUOUS
 62
6
 10
-0.352720809791726
 20
0.135617186810508
 30
0.0
 11
-0.352720809791726
 21
0.163706786799272
 31
0.0
  0
LINE
  8
6
  6
CONTINUOUS
 62
6
 10
-0.352720809791726
 20
0.163706786799272
 30
0.0
 11
-0.33406128979919
 21
0.191796386788036
 31
0.0
  0
LINE
  8
6
  6
CONTINUOUS
 62
6
 10
-0.327038889799191
 20
0.135617186810508
 30
0.0
 11
-0.327038889799191
 21
0.191796386788036
 31
0.0
  0
LINE
  8
6
  6
CONTINUOUS
 62
6
 10
-0.327038889799191
 20
0.191796386788036
 30
0.0
 11
-0.306653865807345
 21
0.191796386788037
 31
0.0
  0
ARC
  8
6
  6
CONTINUOUS
 62
6
 10
-0.307488524623505
 20
0.177751586793655
 30
0.0
 40
0.0140695793192832
 50
273.400991681353
 51
86.599008318647
  0
LINE
  8
6
  6
CONTINUOUS
 62
6
 10
-0.306653865807344
 20
0.163706786799272
 30
0.0
 11
-0.326196201799191
 21
0.163706786799272
 31
0.0
  0
LINE
  8
6
  6
CONTINUOUS
 62
6
 10
-0.253440971368669
 20
0.135616602061262
 30
0.0
 11
-0.286386059355491
 21
0.135616602061262
 31
0.0
  0
LINE
  8
6
  6
CONTINUOUS
 62
6
 10
-0.286386059355491
 20
0.135616602061262
 30
0.0
 11
-0.286406123355483
 21
0.163706202050027
 31
0.0
  0
LINE
  8
6
  6
CONTINUOUS
 62
6
 10
-0.286406123355483
 20
0.163706202050027
 30
0.0
 11
-0.26066401136578
 21
0.163706202050027
 31
0.0
  0
LINE
  8
6
  6
CONTINUOUS
 62
6
 10
-0.286407326856545
 20
0.164548415537026
 30
0.0
 11
-0.286426187355476
 21
0.191795802038791
 31
0.0
  0
LINE
  8
6
  6
CONTINUOUS
 62
6
 10
-0.286426187355476
 20
0.191795802038791
 30
0.0
 11
-0.256249931368669
 21
0.191795802038791
 31
0.0
  0
LINE
  8
9
  6
CONTINUOUS
 62
9
 10
-0.16779683749812
 20
-0.272793672295417
 30
0.0
 11
-0.188111253391176
 21
-0.272793672295417
 31
0.0
  0
ARC
  8
9
  6
CONTINUOUS
 62
9
 10
-0.167801284386026
 20
-0.286855964672928
 30
0.0
 40
0.0140622930806252
 50
270.000000002514
 51
89.9818814817917
  0
LINE
  8
9
  6
CONTINUOUS
 62
9
 10
-0.189798728561527
 20
-0.300918257753553
 30
0.0
 11
-0.167801284385408
 21
-0.300918257753553
 31
0.0
  0
LINE
  8
9
  6
CONTINUOUS
 62
9
 10
-0.189798728561527
 20
-0.2447390451996
 30
0.0
 11
-0.189798728561527
 21
-0.300918257753553
 31
0.0
  0
LINE
  8
9
  6
CONTINUOUS
 62
9
 10
-0.170312408149802
 20
-0.2447390451996
 30
0.0
 11
-0.189798728561527
 21
-0.2447390451996
 31
0.0
  0
ARC
  8
9
  6
CONTINUOUS
 62
9
 10
-0.170424777834093
 20
-0.258857702366975
 30
0.0
 40
0.0141191043326348
 50
296.191824756094
 51
89.5439953928137
  0
LINE
  8
9
  6
CONTINUOUS
 62
9
 10
-0.128934381139033
 20
-0.300988221172731
 30
0.0
 11
-0.145005569465896
 21
-0.300988221172731
 31
0.0
  0
LINE
  8
9
  6
CONTINUOUS
 62
9
 10
-0.136969977185104
 20
-0.24642652402058
 30
0.0
 11
-0.136969977185104
 21
-0.29930074602488
 31
0.0
  0
LINE
  8
9
  6
CONTINUOUS
 62
9
 10
-0.129018960301151
 20
-0.24473904885023
 30
0.0
 11
-0.145005569465896
 21
-0.24473904885023
 31
0.0
  0
LINE
  8
9
  6
CONTINUOUS
 62
9
 10
-0.0833151646395673
 20
-0.276118915767741
 30
0.0
 11
-0.10704968051316
 21
-0.276118915767741
 31
0.0
  0
ARC
  8
9
  6
CONTINUOUS
 62
9
 10
-0.0833151646395644
 20
-0.277806222190571
 30
0.0
 40
0.00168730642282994
 50
9.98885003260432E-11
 51
90.0000000000995
  0
LINE
  8
9
  6
CONTINUOUS
 62
9
 10
-0.0816278582167344
 20
-0.282053485007899
 30
0.0
 11
-0.0816278582167344
 21
-0.277806222190568
 31
0.0
  0
ARC
  8
9
  6
CONTINUOUS
 62
9
 10
-0.100779206698742
 20
-0.282200454160578
 30
0.0
 40
0.0191519124008844
 50
200.855259280577
 51
0.439684280074132
  0
ARC
  8
9
  6
CONTINUOUS
 62
9
 10
-0.0712162608976342
 20
-0.272950668762902
 30
0.0
 40
0.0501062916863623
 50
161.293996529298
 51
198.703982620842
  0
ARC
  8
9
  6
CONTINUOUS
 62
9
 10
-0.0998376708642861
 20
-0.265421086925666
 30
0.0
 40
0.0206835123321359
 50
35.6800300000037
 51
155.613174782207
  0
ARC
  8
9
  6
CONTINUOUS
 62
9
 10
-0.629921260082818
 20
-0.629921260033646
 30
0.0
 40
0.157480314717184
 50
359.999999904789
 51
90.0000000824271
  0
ARC
  8
9
  6
CONTINUOUS
 62
9
 10
-0.629921260310013
 20
0.629921260308739
 30
0.0
 40
0.157480314992259
 50
270.000000000229
 51
2.32746630480137E-10
  0
ARC
  8
9
  6
CONTINUOUS
 62
9
 10
0.629921260172161
 20
0.629921260170865
 30
0.0
 40
0.157480314854396
 50
179.999999949602
 51
270.000000049917
  0
LINE
  8
9
  6
CONTINUOUS
 62
9
 10
-0.692913386000001
 20
-0.409448819716476
 30
0.0
 11
-0.692913386000001
 21
0.409448819716481
 31
0.0
  0
LINE
  8
9
  6
CONTINUOUS
 62
9
 10
-0.409448819717766
 20
0.692913386000003
 30
0.0
 11
0.409448819717766
 21
0.692913386000003
 31
0.0
  0
ARC
  8
9
  6
CONTINUOUS
 62
9
 10
0.6299212604
 20
0.409448819716487
 30
0.0
 40
0.0629921256000001
 50
359.999999999992
 51
90.000000082427
  0
ARC
  8
9
  6
CONTINUOUS
 62
9
 10
0.409448819717766
 20
0.62992126040001
 30
0.0
 40
0.0629921256000002
 50
359.999999917564
 51
89.999999999998
  0
ARC
  8
9
  6
CONTINUOUS
 62
9
 10
-0.409448819717766
 20
0.629921260400003
 30
0.0
 40
0.0629921256
 50
89.9999999999984
 51
180.000000082429
  0
ARC
  8
9
  6
CONTINUOUS
 62
9
 10
-0.629921260400001
 20
0.409448819716481
 30
0.0
 40
0.0629921256000001
 50
89.9999999175697
 51
180
  0
ARC
  8
9
  6
CONTINUOUS
 62
9
 10
-0.629921260400001
 20
-0.409448819716482
 30
0.0
 40
0.0629921256000002
 50
179.999999999994
 51
270.000000082424
  0
ARC
  8
9
  6
CONTINUOUS
 62
9
 10
-0.409448819765634
 20
-0.629921260400004
 30
0.0
 40
0.0629921256
 50
179.99999990479
 51
269.999999999993
  0
ARC
  8
9
  6
CONTINUOUS
 62
9
 10
0.629921260172158
 20
-0.629921260170875
 30
0.0
 40
0.157480314854397
 50
89.9999999500769
 51
180.000000050391
  0
ARC
  8
9
  6
CONTINUOUS
 62
9
 10
0.629921260400007
 20
-0.409448819716478
 30
0.0
 40
0.0629921256000001
 50
269.999999917564
 51
359.999999999992
  0
ARC
  8
9
  6
CONTINUOUS
 62
9
 10
0.409448819717773
 20
-0.6299212604
 30
0.0
 40
0.0629921256000002
 50
269.999999999993
 51
8.24271088192932E-8
  0
LINE
  8
9
  6
CONTINUOUS
 62
9
 10
-0.409448819765634
 20
-0.692913385999998
 30
0.0
 11
0.409448819717766
 21
-0.692913385999998
 31
0.0
  0
LINE
  8
9
  6
CONTINUOUS
 62
9
 10
0.692913386000001
 20
0.409448819716481
 30
0.0
 11
0.692913386000001
 21
-0.409448819716478
 31
0.0
  0
ARC
  8
9
  6
CONTINUOUS
 62
9
 10
-0.00901859265342869
 20
-0.28427105228607
 30
0.0
 40
0.0167157062127964
 50
196.004825930416
 51
267.948379947898
  0
ARC
  8
9
  6
CONTINUOUS
 62
9
 10
0.0223188883858002
 20
-0.272828657764789
 30
0.0
 40
0.0500489806622666
 50
161.294116943038
 51
198.705883056962
  0
ARC
  8
9
  6
CONTINUOUS
 62
9
 10
-0.00901859044150176
 20
-0.261423617720292
 30
0.0
 40
0.0167260461924365
 50
16.1288893758937
 51
163.872176621307
  0
ARC
  8
9
  6
CONTINUOUS
 62
9
 10
-0.0403560544921086
 20
-0.272828657766477
 30
0.0
 40
0.0500489806622614
 50
341.293755627023
 51
18.7062443729769
  0
ARC
  8
9
  6
CONTINUOUS
 62
9
 10
-0.00901859265343049
 20
-0.284271052286068
 30
0.0
 40
0.0167157062127982
 50
272.763973435186
 51
343.994108060196
  0
LINE
  8
9
  6
CONTINUOUS
 62
9
 10
0.0192830373187623
 20
-0.244699269111944
 30
0.0
 11
0.0192830373187623
 21
-0.300878485767672
 31
0.0
  0
LINE
  8
9
  6
CONTINUOUS
 62
9
 10
0.0396680673624147
 20
-0.244699269111943
 30
0.0
 11
0.0192830373187623
 21
-0.244699269111944
 31
0.0
  0
ARC
  8
9
  6
CONTINUOUS
 62
9
 10
0.0393973922826399
 20
-0.258744052484164
 30
0.0
 40
0.0140473913938291
 50
271.095264000537
 51
88.8959160393183
  0
LINE
  8
9
  6
CONTINUOUS
 62
9
 10
0.0211267638387563
 20
-0.272788877356979
 30
0.0
 11
0.0396659053425626
 21
-0.272788877356979
 31
0.0
  0
LINE
  8
9
  6
CONTINUOUS
 62
9
 10
0.0537128715263449
 20
-0.300878485767672
 30
0.0
 11
0.0404662998196583
 21
-0.274389429237311
 31
0.0
  0
LINE
  8
9
  6
CONTINUOUS
 62
9
 10
0.0803979994400628
 20
-0.244699269111944
 30
0.0
 11
0.0593307931941638
 21
-0.300878485767672
 31
0.0
  0
LINE
  8
9
  6
CONTINUOUS
 62
9
 10
0.101465205685961
 20
-0.300878485767672
 30
0.0
 11
0.0803979994400628
 21
-0.244699269111944
 31
0.0
  0
LINE
  8
9
  6
CONTINUOUS
 62
9
 10
0.0952654278472078
 20
-0.288840082198587
 30
0.0
 11
0.0655305710329168
 21
-0.288840082198587
 31
0.0
  0
LINE
  8
9
  6
CONTINUOUS
 62
9
 10
0.107822334056601
 20
-0.244699275997867
 30
0.0
 11
0.107822327573231
 21
-0.300878485790144
 31
0.0
  0
LINE
  8
9
  6
CONTINUOUS
 62
9
 10
0.142319048284012
 20
-0.300878492653594
 30
0.0
 11
0.107822334056601
 21
-0.244699275997867
 31
0.0
  0
LINE
  8
9
  6
CONTINUOUS
 62
9
 10
0.142319048284012
 20
-0.244699275997867
 30
0.0
 11
0.142319048284012
 21
-0.300878492653594
 31
0.0
  0
LINE
  8
9
  6
CONTINUOUS
 62
9
 10
0.187818163252012
 20
-0.276040113332173
 30
0.0
 11
0.164113165392906
 21
-0.276040113332173
 31
0.0
  0
ARC
  8
9
  6
CONTINUOUS
 62
9
 10
0.187818163252015
 20
-0.277725321294866
 30
0.0
 40
0.001685207962693
 50
1.01491499885501E-10
 51
90.000000000101
  0
LINE
  8
9
  6
CONTINUOUS
 62
9
 10
0.189503371214708
 20
-0.281967301899317
 30
0.0
 11
0.189503371214708
 21
-0.277725321294864
 31
0.0
  0
ARC
  8
9
  6
CONTINUOUS
 62
9
 10
0.170375840778324
 20
-0.282114088270195
 30
0.0
 40
0.0191280936539297
 50
200.855259280572
 51
0.439684280072834
  0
ARC
  8
9
  6
CONTINUOUS
 62
9
 10
0.199902019894699
 20
-0.272875806595654
 30
0.0
 40
0.0500439757641955
 50
161.293996529298
 51
198.703982620842
  0
ARC
  8
9
  6
CONTINUOUS
 62
9
 10
0.171316205648579
 20
-0.265355589108082
 30
0.0
 40
0.0206577887732525
 50
35.6800300000024
 51
155.613174782207
  0
LINE
  8
9
  6
CONTINUOUS
 62
9
 10
0.195968069921942
 20
-0.300879070517091
 30
0.0
 11
0.228913167689336
 21
-0.300879070517091
 31
0.0
  0
LINE
  8
9
  6
CONTINUOUS
 62
9
 10
0.195948005915993
 20
-0.272789462189227
 30
0.0
 11
0.195968069921942
 21
-0.300879070517091
 31
0.0
  0
LINE
  8
9
  6
CONTINUOUS
 62
9
 10
0.221690125547886
 20
-0.272789462189227
 30
0.0
 11
0.195948005915993
 21
-0.272789462189227
 31
0.0
  0
LINE
  8
9
  6
CONTINUOUS
 62
9
 10
0.195927941910044
 20
-0.244699853861363
 30
0.0
 11
0.195946802414574
 21
-0.271947248452195
 31
0.0
  0
LINE
  8
9
  6
CONTINUOUS
 62
9
 10
0.226104206855426
 20
-0.244699853861363
 30
0.0
 11
0.195927941910044
 21
-0.244699853861363
 31
0.0
  0
ARC
  8
9
  6
CONTINUOUS
 62
9
 10
0.281868496241437
 20
-0.316883950391582
 30
0.0
 40
0.0110236220302029
 50
359.99999990479
 51
90.0000000824272
  0
ARC
  8
9
  6
CONTINUOUS
 62
9
 10
0.281868496225533
 20
-0.228694973967615
 30
0.0
 40
0.0110236220494581
 50
270.000000000229
 51
2.32523991652435E-10
  0
ARC
  8
9
  6
CONTINUOUS
 62
9
 10
0.370057472659286
 20
-0.228694973977267
 30
0.0
 40
0.0110236220398077
 50
179.999999949603
 51
270.000000049918
  0
LINE
  8
9
  6
CONTINUOUS
 62
9
 10
0.277459047427234
 20
-0.30145087956938
 30
0.0
 11
0.277459047427234
 21
-0.244128044809074
 31
0.0
  0
LINE
  8
9
  6
CONTINUOUS
 62
9
 10
0.297301567066991
 20
-0.224285525169228
 30
0.0
 11
0.354624401827478
 21
-0.224285525169228
 31
0.0
  0
ARC
  8
9
  6
CONTINUOUS
 62
9
 10
0.370057472675234
 20
-0.244128044809073
 30
0.0
 40
0.00440944879199999
 50
359.999999999992
 51
90.000000082427
  0
ARC
  8
9
  6
CONTINUOUS
 62
9
 10
0.354624401827478
 20
-0.228694973961226
 30
0.0
 40
0.00440944879199999
 50
359.999999917564
 51
89.9999999999978
  0
ARC
  8
9
  6
CONTINUOUS
 62
9
 10
0.297301567066991
 20
-0.228694973961228
 30
0.0
 40
0.00440944879200002
 50
89.9999999999979
 51
180.000000082428
  0
ARC
  8
9
  6
CONTINUOUS
 62
9
 10
0.281868496219234
 20
-0.244128044809074
 30
0.0
 40
0.004409448792
 50
89.9999999175698
 51
180
  0
ARC
  8
9
  6
CONTINUOUS
 62
9
 10
0.281868496219234
 20
-0.301450879569382
 30
0.0
 40
0.00440944879200002
 50
179.999999999995
 51
270.000000082426
  0
ARC
  8
9
  6
CONTINUOUS
 62
9
 10
0.29730156706364
 20
-0.316883950417228
 30
0.0
 40
0.00440944879200001
 50
179.999999904792
 51
269.999999999994
  0
ARC
  8
9
  6
CONTINUOUS
 62
9
 10
0.370057472659285
 20
-0.316883950401188
 30
0.0
 40
0.0110236220398078
 50
89.9999999500769
 51
180.000000050391
  0
ARC
  8
9
  6
CONTINUOUS
 62
9
 10
0.370057472675235
 20
-0.30145087956938
 30
0.0
 40
0.004409448792
 50
269.999999917564
 51
359.999999999992
  0
ARC
  8
9
  6
CONTINUOUS
 62
9
 10
0.354624401827478
 20
-0.316883950417228
 30
0.0
 40
0.00440944879199999
 50
269.999999999994
 51
8.24270134026527E-8
  0
LINE
  8
9
  6
CONTINUOUS
 62
9
 10
0.29730156706364
 20
-0.321293399209228
 30
0.0
 11
0.354624401827478
 21
-0.321293399209228
 31
0.0
  0
LINE
  8
9
  6
CONTINUOUS
 62
9
 10
0.374466921467234
 20
-0.244128044809074
 30
0.0
 11
0.374466921467234
 21
-0.30145087956938
 31
0.0
  0
ENDSEC
  0
EOF
