999
File generated by Conversation
0
SECTION
2
HEADER
0
SECTION
2
HEADER
9
$ACADVER
1
AC1021
9
$INSBASE
10
0.0
20
0.0
30
0.0
9
$INSUNITS
70
4
9
$EXTMIN
10
0.0
20
0.0
30
0.0
9
$EXTMAX
10
1000.0
20
1000.0
30
0.0
0
ENDSEC
0
SECTION
2
TABLES
0
TABLE
2
LTYPE
70
1
0
LTYPE
2
CONTINUOUS
70
64
3
Solid line
72
65
73
0
40
0.0
0
ENDTAB
0
TABLE
2
LAYER
70
1
0
LAYER
2
0
70
64
62
7
6
CONTINUOUS
0
ENDTAB
0
TABLE
2
STYLE
70
1
0
STYLE
2
STANDARD
70
0
40
0.0
41
1.0
50
0.0
71
0
42
0.2
3
txt
4

0
ENDTAB
0
ENDSEC
0
SECTION
2
ENTITIES
0
LINE
8
0
62
0
10
20.030199
20
28.096222
30
0.0
11
19.780199
21
27.846222
31
0.0
0
LINE
8
0
62
0
10
19.311129
20
28.096222
30
0.0
11
19.061127
21
27.846222
31
0.0
0
LINE
8
0
62
0
10
20.030199
20
22.606728
30
0.0
11
19.780199
21
22.356728
31
0.0
0
LINE
8
0
62
0
10
17.872782
20
28.096222
30
0.0
11
17.622782
21
27.846222
31
0.0
0
LINE
8
0
62
0
10
16.698177
20
28.096222
30
0.0
11
16.448177
21
27.846222
31
0.0
0
LINE
8
0
62
0
10
17.417299
20
22.606728
30
0.0
11
17.167299
21
22.356728
31
0.0
0
LINE
8
0
62
0
10
11.722980
20
27.846222
30
0.0
11
11.972980
21
28.096222
31
0.0
0
LINE
8
0
62
0
10
12.466078
20
27.846222
30
0.0
11
12.716078
21
28.096222
31
0.0
0
LINE
8
0
62
0
10
12.466078
20
22.356728
30
0.0
11
12.716078
21
22.606728
31
0.0
0
LINE
8
0
62
0
10
7.887805
20
27.846222
30
0.0
11
8.137805
21
28.096222
31
0.0
0
LINE
8
0
62
0
10
11.195888
20
27.846222
30
0.0
11
11.445889
21
28.096222
31
0.0
0
LINE
8
0
62
0
10
11.195888
20
27.222939
30
0.0
11
11.445889
21
27.472940
31
0.0
0
LINE
8
0
62
0
10
9.901426
20
22.356728
30
0.0
11
10.151426
21
22.606728
31
0.0
0
LINE
8
0
62
0
10
6.180110
20
27.846222
30
0.0
11
6.430110
21
28.096222
31
0.0
0
LINE
8
0
62
0
10
7.186908
20
27.846222
30
0.0
11
7.436908
21
28.096222
31
0.0
0
LINE
8
0
62
0
10
5.628763
20
22.356728
30
0.0
11
5.878763
21
22.606728
31
0.0
0
LINE
8
0
62
0
10
8.457416
20
22.356728
30
0.0
11
8.707416
21
22.606728
31
0.0
0
LINE
8
0
62
0
10
6.030765
20
24.226519
30
0.0
11
6.280764
21
24.476519
31
0.0
0
LINE
8
0
62
0
10
-2.164263
20
27.846222
30
0.0
11
-1.914263
21
28.096222
31
0.0
0
LINE
8
0
62
0
10
-1.421144
20
25.431038
30
0.0
11
-1.171144
21
25.681038
31
0.0
0
LINE
8
0
62
0
10
-1.421144
20
22.356728
30
0.0
11
-1.171144
21
22.606728
31
0.0
0
LINE
8
0
62
0
10
0.927447
20
22.356728
30
0.0
11
1.177447
21
22.606728
31
0.0
0
LINE
8
0
62
0
10
-5.160475
20
27.846222
30
0.0
11
-4.910475
21
28.096222
31
0.0
0
LINE
8
0
62
0
10
-2.691404
20
27.846222
30
0.0
11
-2.441404
21
28.096222
31
0.0
0
LINE
8
0
62
0
10
-2.691404
20
27.222939
30
0.0
11
-2.441404
21
27.472940
31
0.0
0
LINE
8
0
62
0
10
-2.787287
20
25.473030
30
0.0
11
-2.537287
21
25.723030
31
0.0
0
LINE
8
0
62
0
10
-2.787287
20
24.849802
30
0.0
11
-2.537287
21
25.099802
31
0.0
0
LINE
8
0
62
0
10
-2.643452
20
22.980009
30
0.0
11
-2.393452
21
23.230011
31
0.0
0
LINE
8
0
62
0
10
-2.643452
20
22.356728
30
0.0
11
-2.393452
21
22.606728
31
0.0
0
LINE
8
0
62
0
10
-4.417345
20
25.473030
30
0.0
11
-4.167345
21
25.723030
31
0.0
0
LINE
8
0
62
0
10
-4.167345
20
23.230011
30
0.0
11
-4.417345
21
22.980009
31
0.0
0
LINE
8
0
62
0
10
-6.886201
20
22.356728
30
0.0
11
-6.636201
21
22.606728
31
0.0
0
LINE
8
0
62
0
10
-6.180747
20
28.096222
30
0.0
11
-6.430747
21
27.846222
31
0.0
0
LINE
8
0
62
0
10
-5.687605
20
27.846222
30
0.0
11
-5.437605
21
28.096222
31
0.0
0
LINE
8
0
62
0
10
-8.204617
20
27.846222
30
0.0
11
-7.954617
21
28.096222
31
0.0
0
LINE
8
0
62
0
10
-8.995699
20
27.846222
30
0.0
11
-8.745699
21
28.096222
31
0.0
0
LINE
8
0
62
0
10
-10.241923
20
27.846222
30
0.0
11
-9.991923
21
28.096222
31
0.0
0
LINE
8
0
62
0
10
-9.522852
20
27.846222
30
0.0
11
-9.272852
21
28.096222
31
0.0
0
LINE
8
0
62
0
10
-9.522852
20
22.356728
30
0.0
11
-9.272852
21
22.606728
31
0.0
0
LINE
8
0
62
0
10
-11.680269
20
27.846222
30
0.0
11
-11.430270
21
28.096222
31
0.0
0
LINE
8
0
62
0
10
-12.854873
20
27.846222
30
0.0
11
-12.604873
21
28.096222
31
0.0
0
LINE
8
0
62
0
10
-12.135752
20
22.356728
30
0.0
11
-11.885752
21
22.606728
31
0.0
0
LINE
8
0
62
0
10
-16.821720
20
26.366976
30
0.0
11
-16.571720
21
26.616976
31
0.0
0
LINE
8
0
62
0
10
-16.821732
20
23.836412
30
0.0
11
-16.571732
21
24.086412
31
0.0
0
LINE
8
0
62
0
10
-17.521799
20
23.836412
30
0.0
11
-17.271801
21
24.086412
31
0.0
0
LINE
8
0
62
0
10
2.139387
20
23.836412
30
0.0
11
2.389387
21
24.086412
31
0.0
0
LINE
8
0
62
0
10
1.439291
20
23.836412
30
0.0
11
1.689291
21
24.086412
31
0.0
0
LINE
8
0
62
0
10
4.397771
20
26.366976
30
0.0
11
4.647770
21
26.616976
31
0.0
0
LINE
8
0
62
0
10
13.678006
20
23.836412
30
0.0
11
13.928006
21
24.086412
31
0.0
0
LINE
8
0
62
0
10
15.936368
20
26.366976
30
0.0
11
16.186367
21
26.616976
31
0.0
0
LINE
8
0
62
0
10
15.936368
20
23.836412
30
0.0
11
16.186367
21
24.086412
31
0.0
0
LINE
8
0
62
0
10
13.678006
20
26.366976
30
0.0
11
13.928006
21
26.616976
31
0.0
0
LINE
8
0
62
0
10
-15.625046
20
23.836412
30
0.0
11
-15.375046
21
24.086412
31
0.0
0
LINE
8
0
62
0
10
-15.625046
20
26.366976
30
0.0
11
-15.375046
21
26.616976
31
0.0
0
LINE
8
0
62
0
10
-13.366683
20
26.366976
30
0.0
11
-13.116683
21
26.616976
31
0.0
0
LINE
8
0
62
0
10
-13.366683
20
23.836412
30
0.0
11
-13.116683
21
24.086412
31
0.0
0
LINE
8
0
62
0
10
-19.080086
20
23.836412
30
0.0
11
-18.830088
21
24.086412
31
0.0
0
LINE
8
0
62
0
10
-19.080086
20
26.366976
30
0.0
11
-18.830088
21
26.616976
31
0.0
0
LINE
8
0
62
0
10
3.585907
20
25.156586
30
0.0
11
3.835907
21
25.406586
31
0.0
0
LINE
8
0
62
0
10
2.567050
20
25.671568
30
0.0
11
2.817050
21
25.921568
31
0.0
0
LINE
8
0
62
0
10
-0.606705
20
27.846222
30
0.0
11
-0.356705
21
28.096222
31
0.0
0
LINE
8
0
62
0
10
0.647571
20
24.203575
30
0.0
11
0.897571
21
24.453575
31
0.0
0
LINE
8
0
62
0
10
-19.346939
20
27.412958
30
0.0
11
-19.096939
21
27.662958
31
0.0
0
LINE
8
0
62
0
10
-15.891910
20
27.412958
30
0.0
11
-15.641910
21
27.662958
31
0.0
0
LINE
8
0
62
0
10
-17.254990
20
22.790432
30
0.0
11
-17.004990
21
23.040434
31
0.0
0
LINE
8
0
62
0
10
-13.799943
20
22.790430
30
0.0
11
-13.549943
21
23.040430
31
0.0
0
LINE
8
0
62
0
10
0.478093
20
25.227306
30
0.0
11
0.728094
21
25.477308
31
0.0
0
LINE
8
0
62
0
10
3.964502
20
22.790436
30
0.0
11
4.214502
21
23.040436
31
0.0
0
LINE
8
0
62
0
10
1.872545
20
27.412958
30
0.0
11
2.122545
21
27.662958
31
0.0
0
LINE
8
0
62
0
10
15.503108
20
22.790430
30
0.0
11
15.753108
21
23.040430
31
0.0
0
LINE
8
0
62
0
10
13.411142
20
27.412958
30
0.0
11
13.661142
21
27.662958
31
0.0
0
LINE
8
0
62
0
10
-0.356694
20
25.681038
30
0.0
11
-0.606694
21
25.431038
31
0.0
0
LINE
8
0
62
1
10
-10.241923
20
24.194635
30
0.0
11
-10.241923
21
23.123833
31
0.0
0
LINE
8
0
62
1
10
-10.241923
20
27.846222
30
0.0
11
-9.522852
21
27.846222
31
0.0
0
LINE
8
0
62
1
10
-9.522852
20
27.846222
30
0.0
11
-9.522852
21
22.356728
31
0.0
0
LINE
8
0
62
1
10
-9.522852
20
22.356728
30
0.0
11
-10.697454
21
22.356728
31
0.0
0
LINE
8
0
62
1
10
-10.697454
20
22.356728
30
0.0
11
-11.885752
21
26.159252
31
0.0
0
LINE
8
0
62
1
10
-12.135752
20
26.959246
30
0.0
11
-12.135752
21
22.356728
31
0.0
0
LINE
8
0
62
1
10
-12.135752
20
22.356728
30
0.0
11
-12.854873
21
22.356728
31
0.0
0
LINE
8
0
62
1
10
-12.854873
20
22.356728
30
0.0
11
-12.854873
21
27.846222
31
0.0
0
LINE
8
0
62
1
10
-12.854873
20
27.846222
30
0.0
11
-11.680269
21
27.846222
31
0.0
0
LINE
8
0
62
1
10
-11.680269
20
27.846222
30
0.0
11
-10.241923
21
23.123833
31
0.0
0
LINE
8
0
62
1
10
-19.080086
20
26.366976
30
0.0
11
-19.080086
21
23.836412
31
0.0
0
ARC
8
0
62
1
10
-18.300943
20
23.836412
30
0.0
40
0.779144
50
180.000000
51
328.113800
0
LINE
8
0
62
1
10
-17.521799
20
23.836412
30
0.0
11
-16.821732
21
23.836412
31
0.0
0
ARC
8
0
62
1
10
-18.300968
20
23.836412
30
0.0
40
1.479237
50
180.000000
51
315.000000
0
LINE
8
0
62
1
10
-19.780207
20
23.836412
30
0.0
11
-19.780199
21
26.366976
31
0.0
0
ARC
8
0
62
1
10
-18.300961
20
26.366976
30
0.0
40
1.479240
50
0.000000
51
128.136475
0
LINE
8
0
62
1
10
-16.821720
20
26.366976
30
0.0
11
-17.521799
21
26.366976
31
0.0
0
ARC
8
0
62
1
10
-18.300943
20
26.366976
30
0.0
40
0.779144
50
0.000000
51
121.886200
0
ARC
8
0
62
1
10
-14.845903
20
26.366976
30
0.0
40
0.779141
50
0.000000
51
121.886169
0
ARC
8
0
62
1
10
-14.845926
20
26.366976
30
0.0
40
1.479243
50
0.000000
51
128.136475
0
ARC
8
0
62
1
10
-14.845903
20
23.836412
30
0.0
40
0.779141
50
180.000000
51
328.113831
0
LINE
8
0
62
1
10
-15.625046
20
23.836412
30
0.0
11
-15.625046
21
26.366976
31
0.0
0
ARC
8
0
62
1
10
-14.845926
20
23.836412
30
0.0
40
1.479243
50
180.000000
51
315.000000
0
LINE
8
0
62
1
10
-13.366683
20
23.836412
30
0.0
11
-13.366683
21
26.366976
31
0.0
0
LINE
8
0
62
1
10
-16.325169
20
23.836412
30
0.0
11
-16.325169
21
26.366976
31
0.0
0
LINE
8
0
62
1
10
-14.066763
20
23.836412
30
0.0
11
-14.066763
21
26.366976
31
0.0
0
LINE
8
0
62
1
10
-11.885752
20
26.159252
30
0.0
11
-12.135752
21
26.959246
31
0.0
0
LINE
8
0
62
1
10
-10.241923
20
24.194635
30
0.0
11
-10.241923
21
27.846222
31
0.0
0
ARC
8
0
62
1
10
-18.300943
20
23.836412
30
0.0
40
0.779144
50
328.113800
51
0.000000
0
ARC
8
0
62
1
10
-18.300943
20
26.366976
30
0.0
40
0.779144
50
121.886200
51
180.000000
0
ARC
8
0
62
1
10
-18.300961
20
26.366976
30
0.0
40
1.479240
50
128.136475
51
135.000000
0
ARC
8
0
62
1
10
-18.300968
20
23.836412
30
0.0
40
1.479237
50
321.863556
51
0.000000
0
ARC
8
0
62
1
10
-14.845903
20
26.366976
30
0.0
40
0.779141
50
121.886169
51
180.000000
0
ARC
8
0
62
1
10
-14.845903
20
23.836412
30
0.0
40
0.779141
50
328.113831
51
0.000000
0
ARC
8
0
62
1
10
-14.845926
20
26.366976
30
0.0
40
1.479243
50
128.136475
51
135.000000
0
ARC
8
0
62
1
10
-14.845926
20
23.836412
30
0.0
40
1.479243
50
321.863525
51
0.000000
0
ARC
8
0
62
1
10
-18.300961
20
26.366976
30
0.0
40
1.479240
50
135.000000
51
180.000000
0
ARC
8
0
62
1
10
-14.845926
20
26.366976
30
0.0
40
1.479243
50
135.000000
51
180.000000
0
ARC
8
0
62
1
10
-18.300968
20
23.836412
30
0.0
40
1.479237
50
315.000000
51
321.863556
0
ARC
8
0
62
1
10
-14.845926
20
23.836412
30
0.0
40
1.479243
50
315.000000
51
321.863525
0
LINE
8
0
62
2
10
-7.305701
20
23.195774
30
0.0
11
-7.158555
21
23.977873
31
0.0
0
LINE
8
0
62
2
10
-6.430747
20
27.846222
30
0.0
11
-5.687605
21
27.846222
31
0.0
0
LINE
8
0
62
2
10
-5.687605
20
27.846222
30
0.0
11
-6.886201
21
22.356728
31
0.0
0
LINE
8
0
62
2
10
-6.886201
20
22.356728
30
0.0
11
-7.821080
21
22.356728
31
0.0
0
LINE
8
0
62
2
10
-7.821080
20
22.356728
30
0.0
11
-8.995699
21
27.846222
31
0.0
0
LINE
8
0
62
2
10
-8.995699
20
27.846222
30
0.0
11
-8.204617
21
27.846222
31
0.0
0
LINE
8
0
62
2
10
-8.204617
20
27.846222
30
0.0
11
-7.305701
21
23.195774
31
0.0
0
LINE
8
0
62
2
10
-4.417345
20
27.222939
30
0.0
11
-4.417345
21
25.473030
31
0.0
0
LINE
8
0
62
2
10
-4.417345
20
25.473030
30
0.0
11
-2.787287
21
25.473030
31
0.0
0
LINE
8
0
62
2
10
-2.787287
20
25.473030
30
0.0
11
-2.787287
21
24.849802
31
0.0
0
LINE
8
0
62
2
10
-2.787287
20
24.849802
30
0.0
11
-4.167345
21
24.849802
31
0.0
0
LINE
8
0
62
2
10
-4.417345
20
24.849802
30
0.0
11
-4.417345
21
22.980009
31
0.0
0
LINE
8
0
62
2
10
-4.417345
20
22.980009
30
0.0
11
-2.643452
21
22.980009
31
0.0
0
LINE
8
0
62
2
10
-2.643452
20
22.980009
30
0.0
11
-2.643452
21
22.356728
31
0.0
0
LINE
8
0
62
2
10
-2.643452
20
22.356728
30
0.0
11
-5.160475
21
22.356728
31
0.0
0
LINE
8
0
62
2
10
-5.160475
20
22.356728
30
0.0
11
-5.160475
21
27.846222
31
0.0
0
LINE
8
0
62
2
10
-5.160475
20
27.846222
30
0.0
11
-2.691404
21
27.846222
31
0.0
0
LINE
8
0
62
2
10
-2.691404
20
27.846222
30
0.0
11
-2.691404
21
27.222939
31
0.0
0
LINE
8
0
62
2
10
-2.691404
20
27.222939
30
0.0
11
-4.167345
21
27.222939
31
0.0
0
LINE
8
0
62
2
10
-1.421144
20
27.193026
30
0.0
11
-1.421144
21
25.431038
31
0.0
0
LINE
8
0
62
2
10
-2.164263
20
27.846222
30
0.0
11
-0.606705
21
27.846222
31
0.0
0
ARC
8
0
62
2
10
-0.606696
20
26.312096
30
0.0
40
1.534125
50
302.855255
51
315.000000
0
ARC
8
0
62
2
10
-0.779988
20
23.987255
30
0.0
40
1.443856
50
8.616516
51
45.856628
0
LINE
8
0
62
2
10
0.647571
20
24.203575
30
0.0
11
0.927447
21
22.356728
31
0.0
0
LINE
8
0
62
2
10
0.927447
20
22.356728
30
0.0
11
0.274310
21
22.356728
31
0.0
0
LINE
8
0
62
2
10
0.274310
20
22.356728
30
0.0
11
0.001323
21
24.108944
31
0.0
0
ARC
8
0
62
2
10
-0.779931
20
23.987213
30
0.0
40
0.790681
50
8.856232
51
90.007751
0
LINE
8
0
62
2
10
-0.780039
20
24.777895
30
0.0
11
-1.171144
21
24.777861
31
0.0
0
LINE
8
0
62
2
10
-1.421144
20
24.777840
30
0.0
11
-1.421144
21
22.356728
31
0.0
0
LINE
8
0
62
2
10
-1.421144
20
22.356728
30
0.0
11
-2.164263
21
22.356728
31
0.0
0
LINE
8
0
62
2
10
-2.164263
20
22.356728
30
0.0
11
-2.164263
21
27.846222
31
0.0
0
ARC
8
0
62
2
10
-0.606694
20
26.312033
30
0.0
40
0.880993
50
270.000000
51
326.575317
0
LINE
8
0
62
2
10
-0.606694
20
27.193026
30
0.0
11
-1.171144
21
27.193026
31
0.0
0
ARC
8
0
62
3
10
-5.095437
20
-1.436025
30
0.0
40
0.449493
50
213.433289
51
270.015991
0
ARC
8
0
62
3
10
-5.040606
20
-1.433185
30
0.0
40
0.455630
50
263.104156
51
34.097916
0
ARC
8
0
62
3
10
-5.109798
20
-1.566208
30
0.0
40
0.591819
50
41.023712
51
127.558533
0
LINE
8
0
62
3
10
-5.470555
20
-0.471414
30
0.0
11
-5.470555
21
-1.097054
31
0.0
0
LINE
8
0
62
3
10
-4.616452
20
-0.471414
30
0.0
11
-5.470555
21
-0.471414
31
0.0
0
ARC
8
0
62
3
10
-4.076288
20
-1.535134
30
0.0
40
0.346437
50
199.465439
51
268.514557
0
ARC
8
0
62
3
10
-3.100589
20
-1.177063
30
0.0
40
1.385747
50
160.019180
51
199.980820
0
ARC
8
0
62
3
10
-4.074689
20
-0.819396
30
0.0
40
0.348079
50
19.447348
51
160.559586
0
ARC
8
0
62
3
10
-5.048790
20
-1.177063
30
0.0
40
1.385747
50
340.017426
51
19.982561
0
ARC
8
0
62
3
10
-4.071960
20
-1.537013
30
0.0
40
0.344748
50
271.354980
51
340.759247
0
LINE
8
0
62
3
10
-4.876595
20
-11.766972
30
0.0
11
-4.876595
21
-13.179653
31
0.0
0
LINE
8
0
62
3
10
-5.608162
20
-12.846664
30
0.0
11
-4.876595
21
-11.766972
31
0.0
0
LINE
8
0
62
3
10
-4.669737
20
-12.846664
30
0.0
11
-5.608162
21
-12.846664
31
0.0
0
LINE
8
0
62
3
10
-3.680860
20
-11.766972
30
0.0
11
-4.528469
21
-11.766972
31
0.0
0
ARC
8
0
62
3
10
-1.537491
20
-13.179893
30
0.0
40
2.567172
50
146.606873
51
179.994705
0
LINE
8
0
62
2
10
-1.421144
20
25.431038
30
0.0
11
-0.606694
21
25.431038
31
0.0
0
LINE
8
0
62
2
10
-1.171144
20
27.193026
30
0.0
11
-1.421144
21
27.193026
31
0.0
0
ARC
8
0
62
2
10
-0.606694
20
26.312033
30
0.0
40
0.880993
50
326.575317
51
90.000000
0
LINE
8
0
62
2
10
-1.171144
20
24.777861
30
0.0
11
-1.421144
21
24.777840
31
0.0
0
ARC
8
0
62
2
10
-0.606696
20
26.312096
30
0.0
40
1.534125
50
321.616882
51
90.000305
0
ARC
8
0
62
2
10
-0.606696
20
26.312096
30
0.0
40
1.534125
50
316.154449
51
321.616882
0
LINE
8
0
62
2
10
-4.167345
20
24.849802
30
0.0
11
-4.417345
21
24.849802
31
0.0
0
LINE
8
0
62
2
10
-4.167345
20
27.222939
30
0.0
11
-4.417345
21
27.222939
31
0.0
0
LINE
8
0
62
2
10
-7.158555
20
23.977873
30
0.0
11
-6.430747
21
27.846222
31
0.0
0
ARC
8
0
62
2
10
-0.606696
20
26.312096
30
0.0
40
1.534125
50
315.000000
51
316.154449
0
ARC
8
0
62
3
10
2.918495
20
26.366991
30
0.0
40
1.479210
50
180.000610
51
243.183960
0
ARC
8
0
62
3
10
2.918528
20
26.366976
30
0.0
40
1.479243
50
0.000000
51
128.136475
0
LINE
8
0
62
3
10
4.397771
20
26.366976
30
0.0
11
3.697680
21
26.366976
31
0.0
0
ARC
8
0
62
3
10
2.918536
20
26.366976
30
0.0
40
0.779144
50
0.000000
51
121.886200
0
ARC
8
0
62
3
10
2.918584
20
26.366955
30
0.0
40
0.779192
50
179.998413
51
243.182373
0
LINE
8
0
62
3
10
2.567050
20
25.671568
30
0.0
11
3.585907
21
25.156586
31
0.0
0
ARC
8
0
62
3
10
2.918516
20
23.836437
30
0.0
40
1.479257
50
321.863037
51
63.181458
0
ARC
8
0
62
3
10
2.918525
20
23.836412
30
0.0
40
1.479234
50
180.000000
51
315.000000
0
LINE
8
0
62
3
10
1.439291
20
23.836412
30
0.0
11
2.139387
21
23.836412
31
0.0
0
ARC
8
0
62
3
10
2.918528
20
23.836412
30
0.0
40
0.779141
50
180.000000
51
328.113831
0
ARC
8
0
62
3
10
2.918536
20
23.836416
30
0.0
40
0.779138
50
328.113220
51
63.183777
0
LINE
8
0
62
3
10
3.270028
20
24.531765
30
0.0
11
2.251183
21
25.046858
31
0.0
0
LINE
8
0
62
3
10
7.272103
20
24.226519
30
0.0
11
7.219739
21
24.476519
31
0.0
0
LINE
8
0
62
3
10
6.030765
20
24.226519
30
0.0
11
6.659541
21
27.151089
31
0.0
0
LINE
8
0
62
3
10
5.628763
20
22.356728
30
0.0
11
4.909619
21
22.356728
31
0.0
0
LINE
8
0
62
3
10
4.909619
20
22.356728
30
0.0
11
6.180110
21
27.846222
31
0.0
0
LINE
8
0
62
3
10
6.180110
20
27.846222
30
0.0
11
7.186908
21
27.846222
31
0.0
0
LINE
8
0
62
3
10
7.186908
20
27.846222
30
0.0
11
8.457416
21
22.356728
31
0.0
0
LINE
8
0
62
3
10
8.457416
20
22.356728
30
0.0
11
7.666344
21
22.356728
31
0.0
0
LINE
8
0
62
3
10
7.666344
20
22.356728
30
0.0
11
7.402655
21
23.603292
31
0.0
0
LINE
8
0
62
3
10
7.402655
20
23.603292
30
0.0
11
6.093022
21
23.603292
31
0.0
0
LINE
8
0
62
3
10
6.030765
20
24.226519
30
0.0
11
7.272103
21
24.226519
31
0.0
0
LINE
8
0
62
3
10
9.901426
20
27.222939
30
0.0
11
9.901426
21
22.606728
31
0.0
0
LINE
8
0
62
3
10
9.901426
20
22.356728
30
0.0
11
9.158307
21
22.356728
31
0.0
0
LINE
8
0
62
3
10
9.158307
20
22.356728
30
0.0
11
9.158307
21
27.222939
31
0.0
0
LINE
8
0
62
3
10
9.158307
20
27.222939
30
0.0
11
7.887805
21
27.222939
31
0.0
0
LINE
8
0
62
3
10
7.887805
20
27.222939
30
0.0
11
7.887805
21
27.846222
31
0.0
0
LINE
8
0
62
3
10
7.887805
20
27.846222
30
0.0
11
8.137805
21
27.846222
31
0.0
0
LINE
8
0
62
3
10
11.195888
20
27.846222
30
0.0
11
11.195888
21
27.222939
31
0.0
0
LINE
8
0
62
3
10
11.195888
20
27.222939
30
0.0
11
10.151426
21
27.222939
31
0.0
0
LINE
8
0
62
3
10
-5.025689
20
15.330376
30
0.0
11
-5.470555
21
16.000069
31
0.0
0
LINE
8
0
62
3
10
-5.001342
20
15.293726
30
0.0
11
-5.001342
21
14.587385
31
0.0
0
LINE
8
0
62
3
10
-4.532130
20
16.000069
30
0.0
11
-5.001342
21
15.293726
31
0.0
0
ARC
8
0
62
3
10
-5.078918
20
-10.028993
30
0.0
40
0.407228
50
210.522003
51
269.441071
0
LINE
8
0
62
3
10
-4.938931
20
-10.437607
30
0.0
11
-5.082891
21
-10.436201
31
0.0
0
ARC
8
0
62
3
10
-4.935304
20
-10.065866
30
0.0
40
0.371757
50
269.441071
51
357.350677
0
ARC
8
0
62
3
10
-4.866337
20
-10.110476
30
0.0
40
0.303632
50
5.182272
51
59.344830
0
LINE
8
0
62
3
10
-5.267508
20
-9.610484
30
0.0
11
-4.711524
21
-9.849277
31
0.0
0
ARC
8
0
62
3
10
-5.112696
20
-9.349283
30
0.0
40
0.303632
50
185.182404
51
239.344803
0
ARC
8
0
62
3
10
-5.045214
20
-9.392910
30
0.0
40
0.370226
50
91.261345
51
177.491959
0
LINE
8
0
62
3
10
-4.909748
20
-9.022624
30
0.0
11
-5.053364
21
-9.022775
31
0.0
0
ARC
8
0
62
3
10
-4.922573
20
-9.416768
30
0.0
40
0.394351
50
29.271709
51
88.136147
0
LINE
8
0
62
3
10
-4.322181
20
-10.435374
30
0.0
11
-4.322181
21
-9.022691
31
0.0
0
LINE
8
0
62
3
10
-3.508475
20
-9.729033
30
0.0
11
-4.279800
21
-9.729033
31
0.0
0
LINE
8
0
62
3
10
-3.464481
20
-9.022691
30
0.0
11
-3.464481
21
-10.435374
31
0.0
0
LINE
8
0
62
3
10
-2.841520
20
-10.435374
30
0.0
11
-3.245144
21
-10.435374
31
0.0
0
LINE
8
0
62
3
10
-3.043333
20
-9.065072
30
0.0
11
-3.043333
21
-10.392993
31
0.0
0
LINE
8
0
62
3
10
-2.843645
20
-9.022691
30
0.0
11
-3.245144
21
-9.022691
31
0.0
0
LINE
8
0
62
3
10
-2.585700
20
-9.729000
30
0.0
11
-1.981071
21
-9.729000
31
0.0
0
LINE
8
0
62
3
10
-2.627878
20
-9.022659
30
0.0
11
-2.627878
21
-10.435343
31
0.0
0
LINE
8
0
62
3
10
-1.870075
20
-9.022659
30
0.0
11
-2.627878
21
-9.022659
31
0.0
0
LINE
8
0
62
3
10
-1.139702
20
-9.065538
30
0.0
11
-1.139702
21
-10.435372
31
0.0
0
LINE
8
0
62
3
10
-0.688149
20
-9.022691
30
0.0
11
-1.591256
21
-9.022691
31
0.0
0
LINE
8
0
62
4
10
2.527948
20
-1.884095
30
0.0
11
3.356384
21
-1.884095
31
0.0
0
LINE
8
0
62
4
10
2.527443
20
-1.177754
30
0.0
11
2.527948
21
-1.884095
31
0.0
0
LINE
8
0
62
4
10
3.174755
20
-1.177754
30
0.0
11
2.527443
21
-1.177754
31
0.0
0
LINE
8
0
62
4
10
2.526939
20
-0.471413
30
0.0
11
2.527413
21
-1.156575
31
0.0
0
LINE
8
0
62
4
10
3.285751
20
-0.471413
30
0.0
11
2.526939
21
-0.471413
31
0.0
0
LINE
8
0
62
4
10
3.445606
20
-0.471398
30
0.0
11
3.445606
21
-1.884080
31
0.0
0
LINE
8
0
62
4
10
4.313061
20
-1.884080
30
0.0
11
3.445606
21
-0.471398
31
0.0
0
LINE
8
0
62
4
10
4.313061
20
-0.471398
30
0.0
11
4.313061
21
-1.884080
31
0.0
0
LINE
8
0
62
4
10
5.043433
20
-0.514246
30
0.0
11
5.043433
21
-1.884080
31
0.0
0
LINE
8
0
62
4
10
5.494987
20
-0.471397
30
0.0
11
4.591880
21
-0.471397
31
0.0
0
LINE
8
0
62
4
10
5.651470
20
-1.884095
30
0.0
11
6.479908
21
-1.884095
31
0.0
0
LINE
8
0
62
4
10
5.650967
20
-1.177754
30
0.0
11
5.651470
21
-1.884095
31
0.0
0
LINE
8
0
62
4
10
6.298277
20
-1.177754
30
0.0
11
5.650967
21
-1.177754
31
0.0
0
LINE
8
0
62
4
10
5.650462
20
-0.471413
30
0.0
11
5.650936
21
-1.156575
31
0.0
0
LINE
8
0
62
4
10
6.409274
20
-0.471413
30
0.0
11
5.650462
21
-0.471413
31
0.0
0
LINE
8
0
62
4
10
6.621176
20
-0.471397
30
0.0
11
6.621176
21
-1.884080
31
0.0
0
LINE
8
0
62
4
10
7.133778
20
-0.471397
30
0.0
11
6.621176
21
-0.471397
31
0.0
0
ARC
8
0
62
4
10
7.126972
20
-0.824568
30
0.0
40
0.353236
50
271.095276
51
88.895920
0
LINE
8
0
62
4
10
6.667538
20
-1.177739
30
0.0
11
7.133724
21
-1.177739
31
0.0
0
LINE
8
0
62
4
10
7.486948
20
-1.884080
30
0.0
11
7.153851
21
-1.217986
31
0.0
0
ARC
8
0
62
3
10
-5.078918
20
12.249501
30
0.0
40
0.407228
50
210.522003
51
269.441071
0
LINE
8
0
62
3
10
-4.938931
20
11.840889
30
0.0
11
-5.082891
21
11.842295
31
0.0
0
ARC
8
0
62
3
10
-4.935304
20
12.212627
30
0.0
40
0.371757
50
269.441071
51
357.350677
0
ARC
8
0
62
3
10
-4.866337
20
12.168017
30
0.0
40
0.303632
50
5.182272
51
59.344830
0
LINE
8
0
62
3
10
-5.267508
20
12.668010
30
0.0
11
-4.711524
21
12.429216
31
0.0
0
ARC
8
0
62
3
10
-5.112696
20
12.929209
30
0.0
40
0.303632
50
185.182404
51
212.263611
0
ARC
8
0
62
3
10
-5.045214
20
12.885583
30
0.0
40
0.370226
50
91.261345
51
177.491959
0
LINE
8
0
62
3
10
-4.909748
20
13.255870
30
0.0
11
-5.053364
21
13.255721
31
0.0
0
ARC
8
0
62
3
10
-4.922573
20
12.861726
30
0.0
40
0.394351
50
29.271709
51
88.136147
0
ARC
8
0
62
3
10
-5.112696
20
12.929209
30
0.0
40
0.303632
50
212.263611
51
239.344803
0
LINE
8
0
62
3
10
5.896771
20
23.603292
30
0.0
11
5.628763
21
22.356728
31
0.0
0
LINE
8
0
62
3
10
9.901426
20
22.606728
30
0.0
11
9.901426
21
22.356728
31
0.0
0
LINE
8
0
62
3
10
8.137805
20
27.846222
30
0.0
11
11.195888
21
27.846222
31
0.0
0
LINE
8
0
62
3
10
10.151426
20
27.222939
30
0.0
11
9.901426
21
27.222939
31
0.0
0
LINE
8
0
62
3
10
6.756385
20
26.688726
30
0.0
11
6.659541
21
27.151089
31
0.0
0
LINE
8
0
62
3
10
7.219739
20
24.476519
30
0.0
11
6.756385
21
26.688726
31
0.0
0
LINE
8
0
62
3
10
6.093022
20
23.603292
30
0.0
11
5.896771
21
23.603292
31
0.0
0
ARC
8
0
62
3
10
2.918536
20
26.366976
30
0.0
40
0.779144
50
121.886200
51
180.000000
0
ARC
8
0
62
3
10
2.918528
20
26.366976
30
0.0
40
1.479243
50
128.136475
51
135.000000
0
ARC
8
0
62
3
10
2.918525
20
23.836412
30
0.0
40
1.479234
50
315.000000
51
321.863556
0
ARC
8
0
62
3
10
2.918528
20
26.366976
30
0.0
40
1.479243
50
135.000000
51
180.000000
0
LINE
8
0
62
3
10
-4.975555
20
2.272949
30
0.0
11
-5.470555
21
2.272949
31
0.0
0
LINE
8
0
62
3
10
-4.975555
20
0.860267
30
0.0
11
-5.470555
21
0.860267
31
0.0
0
LINE
8
0
62
3
10
-5.470555
20
0.860267
30
0.0
11
-5.470555
21
2.272949
31
0.0
0
LINE
8
0
62
3
10
2.000850
20
-9.022706
30
0.0
11
1.505850
21
-9.022706
31
0.0
0
LINE
8
0
62
3
10
2.000850
20
-10.435388
30
0.0
11
1.505850
21
-10.435388
31
0.0
0
LINE
8
0
62
3
10
1.505850
20
-10.435388
30
0.0
11
1.505850
21
-9.022706
31
0.0
0
LINE
8
0
62
4
10
12.466078
20
27.846222
30
0.0
11
11.722980
21
27.846222
31
0.0
0
LINE
8
0
62
4
10
11.722980
20
22.356728
30
0.0
11
12.466078
21
22.356728
31
0.0
0
LINE
8
0
62
6
10
-16.000000
20
-20.000000
30
0.0
11
16.000000
21
-20.000000
31
0.0
0
LINE
8
0
62
6
10
20.000000
20
16.000000
30
0.0
11
20.000000
21
-16.000000
31
0.0
0
LINE
8
0
62
4
10
12.466078
20
22.356728
30
0.0
11
12.466078
21
27.846222
31
0.0
0
LINE
8
0
62
4
10
11.722980
20
22.356728
30
0.0
11
11.722980
21
27.846222
31
0.0
0
ARC
8
0
62
6
10
-16.000000
20
16.000000
30
0.0
40
4.000000
50
90.000000
51
180.000000
0
ARC
8
0
62
6
10
16.000000
20
16.000000
30
0.0
40
4.000000
50
0.000000
51
90.000000
0
ARC
8
0
62
6
10
16.000000
20
-16.000000
30
0.0
40
4.000000
50
270.000000
51
0.000000
0
ARC
8
0
62
6
10
-16.000000
20
-16.000000
30
0.0
40
4.000000
50
180.000000
51
270.000000
0
LINE
8
0
62
6
10
-20.000000
20
-16.000000
30
0.0
11
-20.000000
21
16.000000
31
0.0
0
LINE
8
0
62
6
10
16.000000
20
20.000000
30
0.0
11
-16.000000
21
20.000000
31
0.0
0
ARC
8
0
62
4
10
14.457148
20
26.366976
30
0.0
40
0.779141
50
0.000000
51
121.886169
0
LINE
8
0
62
4
10
13.678006
20
26.366976
30
0.0
11
13.678006
21
23.836412
31
0.0
0
ARC
8
0
62
4
10
14.457125
20
26.366976
30
0.0
40
1.479243
50
0.000000
51
128.136475
0
LINE
8
0
62
4
10
15.936368
20
26.366976
30
0.0
11
15.936368
21
23.836412
31
0.0
0
LINE
8
0
62
4
10
19.061127
20
23.123833
30
0.0
11
19.061127
21
24.194635
31
0.0
0
LINE
8
0
62
4
10
19.780199
20
22.356728
30
0.0
11
18.605597
21
22.356728
31
0.0
0
LINE
8
0
62
4
10
18.605597
20
22.356728
30
0.0
11
17.417299
21
26.159252
31
0.0
0
LINE
8
0
62
4
10
17.167299
20
26.959246
30
0.0
11
17.167299
21
22.606728
31
0.0
0
LINE
8
0
62
4
10
17.167299
20
22.356728
30
0.0
11
16.448177
21
22.356728
31
0.0
0
LINE
8
0
62
4
10
16.448177
20
22.356728
30
0.0
11
16.448177
21
27.846222
31
0.0
0
LINE
8
0
62
4
10
16.448177
20
27.846222
30
0.0
11
17.622782
21
27.846222
31
0.0
0
LINE
8
0
62
4
10
17.622782
20
27.846222
30
0.0
11
19.061127
21
23.123833
31
0.0
0
LINE
8
0
62
6
10
-0.714195
20
3.604478
30
0.0
11
-0.714195
21
4.078853
31
0.0
0
LINE
8
0
62
6
10
-0.714195
20
5.017162
30
0.0
11
-0.201594
21
5.017162
31
0.0
0
ARC
8
0
62
6
10
-0.222582
20
4.663990
30
0.0
40
0.353793
50
273.401001
51
86.599007
0
LINE
8
0
62
6
10
-0.201594
20
4.310819
30
0.0
11
-0.693005
21
4.310819
31
0.0
0
LINE
8
0
62
6
10
0.292846
20
5.017162
30
0.0
11
0.292846
21
4.008109
31
0.0
0
ARC
8
0
62
6
10
0.706540
20
4.014781
30
0.0
40
0.413747
50
180.923920
51
0.472477
0
LINE
8
0
62
6
10
1.120274
20
4.018193
30
0.0
11
1.120274
21
5.017162
31
0.0
0
LINE
8
0
62
6
10
1.332177
20
3.604478
30
0.0
11
1.332177
21
5.017162
31
0.0
0
LINE
8
0
62
6
10
1.332177
20
5.017162
30
0.0
11
1.844779
21
5.017162
31
0.0
0
ARC
8
0
62
6
10
1.837971
20
4.663991
30
0.0
40
0.353236
50
271.095276
51
88.895920
0
LINE
8
0
62
6
10
1.844723
20
4.310819
30
0.0
11
1.378539
21
4.310819
31
0.0
0
LINE
8
0
62
6
10
1.864850
20
4.270572
30
0.0
11
2.197949
21
3.604478
31
0.0
0
LINE
8
0
62
6
10
2.374535
20
3.604478
30
0.0
11
2.374535
21
5.017162
31
0.0
0
LINE
8
0
62
6
10
2.374535
20
5.017162
30
0.0
11
2.887136
21
5.017162
31
0.0
0
ARC
8
0
62
6
10
2.866148
20
4.663990
30
0.0
40
0.353793
50
273.401001
51
86.599007
0
LINE
8
0
62
6
10
2.887136
20
4.310819
30
0.0
11
2.395725
21
4.310819
31
0.0
0
LINE
8
0
62
6
10
3.381575
20
5.017162
30
0.0
11
3.381575
21
3.604478
31
0.0
0
LINE
8
0
62
6
10
3.381575
20
3.604478
30
0.0
11
4.210012
21
3.604478
31
0.0
0
LINE
8
0
62
6
10
5.225206
20
3.604464
30
0.0
11
4.396768
21
3.604464
31
0.0
0
LINE
8
0
62
6
10
4.396768
20
3.604464
30
0.0
11
4.396263
21
4.310804
31
0.0
0
LINE
8
0
62
6
10
4.396263
20
4.310804
30
0.0
11
5.043575
21
4.310804
31
0.0
0
LINE
8
0
62
6
10
4.396234
20
4.331984
30
0.0
11
4.395759
21
5.017146
31
0.0
0
LINE
8
0
62
6
10
4.395759
20
5.017146
30
0.0
11
5.154572
21
5.017146
31
0.0
0
LINE
8
0
62
4
10
19.061079
20
27.846222
30
0.0
11
19.780199
21
27.846222
31
0.0
0
LINE
8
0
62
4
10
19.780199
20
27.846222
30
0.0
11
19.780199
21
22.356728
31
0.0
0
LINE
8
0
62
6
10
-4.747140
20
4.311698
30
0.0
11
-4.236314
21
4.311698
31
0.0
0
ARC
8
0
62
6
10
-4.236426
20
3.958089
30
0.0
40
0.353610
50
270.000000
51
89.981880
0
LINE
8
0
62
6
10
-4.236426
20
3.604479
30
0.0
11
-4.789574
21
3.604479
31
0.0
0
LINE
8
0
62
6
10
-4.789574
20
3.604479
30
0.0
11
-4.789574
21
5.017162
31
0.0
0
LINE
8
0
62
6
10
-4.789574
20
5.017162
30
0.0
11
-4.299570
21
5.017162
31
0.0
0
ARC
8
0
62
6
10
-4.302396
20
4.662132
30
0.0
40
0.355038
50
296.191833
51
89.543999
0
LINE
8
0
62
6
10
-3.663204
20
3.602720
30
0.0
11
-3.259078
21
3.602720
31
0.0
0
LINE
8
0
62
6
10
-3.461143
20
3.645153
30
0.0
11
-3.461143
21
4.974728
31
0.0
0
LINE
8
0
62
6
10
-3.663204
20
5.017162
30
0.0
11
-3.261204
21
5.017162
31
0.0
0
LINE
8
0
62
6
10
-2.708766
20
4.228083
30
0.0
11
-2.111938
21
4.228083
31
0.0
0
ARC
8
0
62
6
10
-2.111938
20
4.185654
30
0.0
40
0.042429
50
0.000000
51
90.000000
0
LINE
8
0
62
6
10
-2.069510
20
4.185654
30
0.0
11
-2.069510
21
4.078853
31
0.0
0
ARC
8
0
62
6
10
-2.551088
20
4.075157
30
0.0
40
0.481594
50
200.855255
51
0.439684
0
ARC
8
0
62
6
10
-1.807698
20
4.307752
30
0.0
40
1.259973
50
161.293991
51
198.703979
0
ARC
8
0
62
6
10
-2.527413
20
4.497090
30
0.0
40
0.520108
50
35.680031
51
155.613174
0
LINE
8
0
62
6
10
-0.714195
20
4.078853
30
0.0
11
-0.714195
21
5.017162
31
0.0
0
LINE
8
0
62
4
10
12.977882
20
26.366976
30
0.0
11
12.977882
21
23.836412
31
0.0
0
ARC
8
0
62
4
10
14.457148
20
23.836412
30
0.0
40
0.779141
50
180.000000
51
328.113831
0
ARC
8
0
62
4
10
14.457125
20
23.836412
30
0.0
40
1.479243
50
180.000000
51
315.000000
0
LINE
8
0
62
4
10
15.236288
20
23.836412
30
0.0
11
15.236288
21
26.366976
31
0.0
0
LINE
8
0
62
4
10
19.061127
20
24.194635
30
0.0
11
19.061127
21
27.846222
31
0.0
0
LINE
8
0
62
4
10
17.417299
20
26.159252
30
0.0
11
17.167299
21
26.959246
31
0.0
0
LINE
8
0
62
4
10
17.167299
20
22.606728
30
0.0
11
17.167299
21
22.356728
31
0.0
0
ARC
8
0
62
4
10
14.457148
20
26.366976
30
0.0
40
0.779141
50
121.886169
51
180.000000
0
ARC
8
0
62
4
10
14.457148
20
23.836412
30
0.0
40
0.779141
50
328.113831
51
0.000000
0
ARC
8
0
62
4
10
14.457125
20
23.836412
30
0.0
40
1.479243
50
321.863525
51
0.000000
0
ARC
8
0
62
4
10
14.457125
20
26.366976
30
0.0
40
1.479243
50
128.136475
51
135.000000
0
ARC
8
0
62
4
10
14.457125
20
23.836412
30
0.0
40
1.479243
50
315.000000
51
321.863525
0
ARC
8
0
62
4
10
14.457125
20
26.366976
30
0.0
40
1.479243
50
135.000000
51
180.000000
0
ARC
8
0
62
6
10
6.627286
20
4.010858
30
0.0
40
0.407228
50
210.522003
51
269.441071
0
LINE
8
0
62
6
10
6.623313
20
3.603650
30
0.0
11
6.767274
21
3.602245
31
0.0
0
ARC
8
0
62
6
10
6.770899
20
3.973987
30
0.0
40
0.371757
50
269.441071
51
357.350677
0
ARC
8
0
62
6
10
6.839869
20
3.929378
30
0.0
40
0.303632
50
5.182272
51
59.344830
0
LINE
8
0
62
6
10
6.994681
20
4.190576
30
0.0
11
6.438697
21
4.429369
31
0.0
0
ARC
8
0
62
6
10
6.593510
20
4.690568
30
0.0
40
0.303632
50
185.182404
51
239.344803
0
ARC
8
0
62
6
10
6.660991
20
4.646941
30
0.0
40
0.370226
50
91.261345
51
177.491959
0
LINE
8
0
62
6
10
6.652841
20
5.017079
30
0.0
11
6.796458
21
5.017229
31
0.0
0
ARC
8
0
62
6
10
6.783630
20
4.623085
30
0.0
40
0.394351
50
29.271709
51
88.136147
0
LINE
8
0
62
6
10
7.989220
20
3.966013
30
0.0
11
8.437363
21
3.623920
31
0.0
0
ARC
8
0
62
6
10
7.931508
20
4.019644
30
0.0
40
0.420117
50
195.902084
51
315.740295
0
ARC
8
0
62
6
10
8.719520
20
4.308159
30
0.0
40
1.258532
50
161.294113
51
198.705887
0
ARC
8
0
62
6
10
7.931508
20
4.597209
30
0.0
40
0.419971
50
15.832771
51
164.168289
0
ARC
8
0
62
6
10
7.160158
20
4.315509
30
0.0
40
1.240393
50
335.052795
51
18.631470
0
LINE
8
0
62
6
10
8.567492
20
5.017162
30
0.0
11
8.567492
21
4.008109
31
0.0
0
ARC
8
0
62
6
10
8.981184
20
4.014781
30
0.0
40
0.413747
50
180.923920
51
0.472477
0
LINE
8
0
62
6
10
9.394918
20
4.018193
30
0.0
11
9.394918
21
5.017162
31
0.0
0
LINE
8
0
62
6
10
9.536186
20
3.604478
30
0.0
11
10.065945
21
5.017162
31
0.0
0
LINE
8
0
62
6
10
10.065945
20
5.017162
30
0.0
11
10.595699
21
3.604478
31
0.0
0
LINE
8
0
62
6
10
9.692087
20
3.907196
30
0.0
11
10.439800
21
3.907196
31
0.0
0
LINE
8
0
62
6
10
10.807602
20
3.604478
30
0.0
11
10.807602
21
5.017162
31
0.0
0
LINE
8
0
62
6
10
10.807602
20
5.017162
30
0.0
11
11.320203
21
5.017162
31
0.0
0
ARC
8
0
62
6
10
11.313396
20
4.663991
30
0.0
40
0.353236
50
271.095276
51
88.895920
0
LINE
8
0
62
6
10
11.320149
20
4.310819
30
0.0
11
10.853964
21
4.310819
31
0.0
0
LINE
8
0
62
6
10
11.340275
20
4.270572
30
0.0
11
11.673374
21
3.604478
31
0.0
0
LINE
8
0
62
6
10
12.658296
20
3.604464
30
0.0
11
11.829858
21
3.604464
31
0.0
0
LINE
8
0
62
6
10
11.829858
20
3.604464
30
0.0
11
11.829353
21
4.310804
31
0.0
0
LINE
8
0
62
6
10
11.829353
20
4.310804
30
0.0
11
12.476665
21
4.310804
31
0.0
0
LINE
8
0
62
6
10
11.829323
20
4.331984
30
0.0
11
11.828848
21
5.017146
31
0.0
0
LINE
8
0
62
6
10
11.828848
20
5.017146
30
0.0
11
12.587662
21
5.017146
31
0.0
0
LINE
8
0
62
5
10
4.172811
20
10.021569
30
0.0
11
4.683002
21
10.021569
31
0.0
0
ARC
8
0
62
5
10
4.682890
20
9.668401
30
0.0
40
0.353170
50
270.000000
51
89.981880
0
LINE
8
0
62
5
10
4.682890
20
9.315230
30
0.0
11
4.130431
21
9.315230
31
0.0
0
LINE
8
0
62
5
10
4.130431
20
9.315230
30
0.0
11
4.130431
21
10.726156
31
0.0
0
LINE
8
0
62
5
10
4.130431
20
10.726156
30
0.0
11
4.619824
21
10.726156
31
0.0
0
ARC
8
0
62
5
10
4.617002
20
10.371568
30
0.0
40
0.354597
50
296.191833
51
89.543999
0
LINE
8
0
62
5
10
5.177329
20
10.726156
30
0.0
11
5.177329
21
9.313473
31
0.0
0
LINE
8
0
62
5
10
5.177329
20
9.313473
30
0.0
11
6.005767
21
9.313473
31
0.0
0
LINE
8
0
62
5
10
6.177307
20
10.726156
30
0.0
11
6.177307
21
9.717104
31
0.0
0
ARC
8
0
62
5
10
6.591001
20
9.723776
30
0.0
40
0.413747
50
180.923920
51
0.472477
0
LINE
8
0
62
5
10
7.004735
20
9.727187
30
0.0
11
7.004735
21
10.726156
31
0.0
0
LINE
8
0
62
5
10
7.989655
20
9.313457
30
0.0
11
7.161218
21
9.313457
31
0.0
0
LINE
8
0
62
5
10
7.161218
20
9.313457
30
0.0
11
7.160714
21
10.019798
31
0.0
0
LINE
8
0
62
5
10
7.160714
20
10.019798
30
0.0
11
7.808025
21
10.019798
31
0.0
0
LINE
8
0
62
5
10
7.160685
20
10.040977
30
0.0
11
7.160210
21
10.726139
31
0.0
0
LINE
8
0
62
5
10
7.160210
20
10.726139
30
0.0
11
7.919022
21
10.726139
31
0.0
0
ARC
8
0
62
5
10
9.337666
20
9.830679
30
0.0
40
0.519512
50
204.386841
51
324.320007
0
ARC
8
0
62
5
10
10.056558
20
10.019798
30
0.0
40
1.258532
50
161.294128
51
198.705872
0
ARC
8
0
62
5
10
9.337666
20
10.208920
30
0.0
40
0.519512
50
35.680031
51
155.613174
0
LINE
8
0
62
5
10
10.382618
20
9.315746
30
0.0
11
9.978995
21
9.315746
31
0.0
0
LINE
8
0
62
5
10
10.180808
20
10.686049
30
0.0
11
10.180808
21
9.358128
31
0.0
0
LINE
8
0
62
5
10
10.380495
20
10.728430
30
0.0
11
9.978995
21
10.728430
31
0.0
0
LINE
8
0
62
5
10
10.596115
20
10.728430
30
0.0
11
10.596115
21
9.315746
31
0.0
0
LINE
8
0
62
5
10
11.108716
20
10.728430
30
0.0
11
10.596115
21
10.728430
31
0.0
0
ARC
8
0
62
5
10
11.101910
20
10.375259
30
0.0
40
0.353236
50
271.095276
51
88.895920
0
LINE
8
0
62
5
10
10.642477
20
10.022089
30
0.0
11
11.108663
21
10.022089
31
0.0
0
LINE
8
0
62
5
10
11.461886
20
9.315746
30
0.0
11
11.128789
21
9.981842
31
0.0
0
ARC
8
0
62
5
10
12.142796
20
9.830679
30
0.0
40
0.519512
50
204.386841
51
324.320007
0
ARC
8
0
62
5
10
12.861686
20
10.019798
30
0.0
40
1.258532
50
161.294128
51
198.705872
0
ARC
8
0
62
5
10
12.142796
20
10.208920
30
0.0
40
0.519512
50
35.680031
51
155.613174
0
LINE
8
0
62
5
10
12.706057
20
9.315746
30
0.0
11
12.706057
21
10.728430
31
0.0
0
LINE
8
0
62
5
10
13.534493
20
9.315746
30
0.0
11
12.706057
21
9.315746
31
0.0
0
LINE
8
0
62
5
10
13.721250
20
9.315734
30
0.0
11
14.549687
21
9.315734
31
0.0
0
LINE
8
0
62
5
10
13.720745
20
10.022075
30
0.0
11
13.721250
21
9.315734
31
0.0
0
LINE
8
0
62
5
10
14.368055
20
10.022075
30
0.0
11
13.720745
21
10.022075
31
0.0
0
LINE
8
0
62
5
10
13.720241
20
10.728415
30
0.0
11
13.720715
21
10.043253
31
0.0
0
LINE
8
0
62
5
10
14.479051
20
10.728415
30
0.0
11
13.720241
21
10.728415
31
0.0
0
ARC
8
0
62
5
10
15.078930
20
9.722129
30
0.0
40
0.407228
50
210.522003
51
269.441071
0
LINE
8
0
62
5
10
15.218918
20
9.313517
30
0.0
11
15.074957
21
9.314920
31
0.0
0
ARC
8
0
62
5
10
15.222544
20
9.685255
30
0.0
40
0.371757
50
269.441071
51
357.350677
0
ARC
8
0
62
5
10
15.291512
20
9.640648
30
0.0
40
0.303632
50
5.182272
51
59.344830
0
LINE
8
0
62
5
10
14.890340
20
10.140639
30
0.0
11
15.446325
21
9.901846
31
0.0
0
ARC
8
0
62
5
10
15.045152
20
10.401838
30
0.0
40
0.303632
50
185.182404
51
239.344803
0
ARC
8
0
62
5
10
15.112633
20
10.358211
30
0.0
40
0.370226
50
91.261345
51
177.491959
0
LINE
8
0
62
5
10
15.248100
20
10.728498
30
0.0
11
15.104484
21
10.728347
31
0.0
0
ARC
8
0
62
5
10
15.235275
20
10.334355
30
0.0
40
0.394351
50
29.271709
51
88.136147
0
LINE
8
0
62
5
10
-4.260476
20
10.726188
30
0.0
11
-4.789574
21
9.315260
31
0.0
0
LINE
8
0
62
5
10
-3.731380
20
9.315260
30
0.0
11
-4.260476
21
10.726188
31
0.0
0
LINE
8
0
62
5
10
-3.887084
20
9.617602
30
0.0
11
-4.633868
21
9.617602
31
0.0
0
LINE
8
0
62
5
10
-3.590287
20
9.315260
30
0.0
11
-3.590287
21
10.726188
31
0.0
0
LINE
8
0
62
5
10
-2.762879
20
9.315260
30
0.0
11
-3.590287
21
9.315260
31
0.0
0
LINE
8
0
62
5
10
-2.591553
20
9.315260
30
0.0
11
-2.591553
21
10.726188
31
0.0
0
LINE
8
0
62
5
10
-1.764145
20
9.315260
30
0.0
11
-2.591553
21
9.315260
31
0.0
0
LINE
8
0
62
5
10
-0.732019
20
10.020723
30
0.0
11
-0.128144
21
10.020723
31
0.0
0
LINE
8
0
62
5
10
-0.774145
20
10.726188
30
0.0
11
-0.774145
21
9.315260
31
0.0
0
LINE
8
0
62
5
10
-0.017284
20
10.726188
30
0.0
11
-0.774145
21
10.726188
31
0.0
0
ARC
8
0
62
5
10
0.597455
20
9.732319
30
0.0
40
0.419811
50
196.004822
51
267.948395
0
ARC
8
0
62
5
10
1.384487
20
10.019693
30
0.0
40
1.256967
50
161.294113
51
198.705887
0
ARC
8
0
62
5
10
0.597455
20
10.306129
30
0.0
40
0.420070
50
16.128889
51
163.872177
0
ARC
8
0
62
5
10
-0.189577
20
10.019693
30
0.0
40
1.256967
50
341.293762
51
18.706244
0
ARC
8
0
62
5
10
0.597455
20
9.732319
30
0.0
40
0.419811
50
272.763977
51
343.994110
0
LINE
8
0
62
5
10
1.237696
20
9.718358
30
0.0
11
1.237696
21
10.726156
31
0.0
0
ARC
8
0
62
5
10
1.650877
20
9.725022
30
0.0
40
0.413234
50
180.923920
51
0.472477
0
LINE
8
0
62
5
10
2.064095
20
10.726156
30
0.0
11
2.064095
21
9.728429
31
0.0
0
LINE
8
0
62
5
10
2.275735
20
10.726156
30
0.0
11
2.275735
21
9.315230
31
0.0
0
LINE
8
0
62
5
10
2.787698
20
10.726156
30
0.0
11
2.275735
21
10.726156
31
0.0
0
ARC
8
0
62
5
10
2.780901
20
10.373425
30
0.0
40
0.352796
50
271.095276
51
88.895920
0
LINE
8
0
62
5
10
2.322040
20
10.020692
30
0.0
11
2.787644
21
10.020692
31
0.0
0
LINE
8
0
62
5
10
3.140431
20
9.315230
30
0.0
11
2.807745
21
9.980495
31
0.0
0
LINE
8
0
62
0
10
-9.991923
20
28.096222
30
0.0
11
-9.272852
21
28.096222
31
0.0
0
LINE
8
0
62
0
10
-9.272852
20
28.096222
30
0.0
11
-9.272852
21
22.606728
31
0.0
0
LINE
8
0
62
0
10
-12.604873
20
28.096222
30
0.0
11
-11.430270
21
28.096222
31
0.0
0
LINE
8
0
62
0
10
-11.430270
20
28.096222
30
0.0
11
-10.241923
21
24.194635
31
0.0
0
LINE
8
0
62
0
10
-18.830088
20
26.616976
30
0.0
11
-18.830088
21
24.086412
31
0.0
0
ARC
8
0
62
0
10
-18.050943
20
24.086412
30
0.0
40
0.779144
50
180.000000
51
301.886200
0
LINE
8
0
62
0
10
-17.271801
20
24.086412
30
0.0
11
-16.571732
21
24.086412
31
0.0
0
ARC
8
0
62
0
10
-18.050961
20
26.616976
30
0.0
40
1.479240
50
0.000000
51
135.000000
0
ARC
8
0
62
0
10
-14.595926
20
26.616976
30
0.0
40
1.479243
50
0.000000
51
135.000000
0
ARC
8
0
62
0
10
-14.595903
20
24.086412
30
0.0
40
0.779141
50
180.000000
51
301.886169
0
LINE
8
0
62
0
10
-15.375046
20
24.086412
30
0.0
11
-15.375046
21
26.616976
31
0.0
0
LINE
8
0
62
0
10
-13.116683
20
24.086412
30
0.0
11
-13.116683
21
26.616976
31
0.0
0
LINE
8
0
62
0
10
-6.180747
20
28.096222
30
0.0
11
-5.437605
21
28.096222
31
0.0
0
LINE
8
0
62
0
10
-5.437605
20
28.096222
30
0.0
11
-6.636201
21
22.606728
31
0.0
0
LINE
8
0
62
0
10
-8.745699
20
28.096222
30
0.0
11
-7.954617
21
28.096222
31
0.0
0
LINE
8
0
62
0
10
-7.954617
20
28.096222
30
0.0
11
-7.158555
21
23.977873
31
0.0
0
LINE
8
0
62
0
10
-4.167345
20
25.723030
30
0.0
11
-2.537287
21
25.723030
31
0.0
0
LINE
8
0
62
0
10
-2.537287
20
25.723030
30
0.0
11
-2.537287
21
25.099802
31
0.0
0
LINE
8
0
62
0
10
-4.167345
20
23.230011
30
0.0
11
-2.393452
21
23.230011
31
0.0
0
LINE
8
0
62
0
10
-2.393452
20
23.230011
30
0.0
11
-2.393452
21
22.606728
31
0.0
0
LINE
8
0
62
0
10
-4.910475
20
28.096222
30
0.0
11
-2.441404
21
28.096222
31
0.0
0
LINE
8
0
62
0
10
-2.441404
20
28.096222
30
0.0
11
-2.441404
21
27.472940
31
0.0
0
LINE
8
0
62
0
10
-1.914263
20
28.096222
30
0.0
11
-0.356705
21
28.096222
31
0.0
0
ARC
8
0
62
0
10
-0.529988
20
24.237255
30
0.0
40
1.443856
50
8.616516
51
44.506439
0
LINE
8
0
62
0
10
0.897571
20
24.453575
30
0.0
11
1.177447
21
22.606728
31
0.0
0
ARC
8
0
62
0
10
-0.356694
20
26.562033
30
0.0
40
0.880993
50
270.000000
51
303.424683
0
LINE
8
0
62
0
10
-1.171144
20
25.681038
30
0.0
11
-0.356694
21
25.681038
31
0.0
0
ARC
8
0
62
0
10
3.168528
20
26.616976
30
0.0
40
1.479243
50
0.000000
51
135.000000
0
ARC
8
0
62
0
10
3.168584
20
26.616955
30
0.0
40
0.779192
50
179.998413
51
243.182373
0
LINE
8
0
62
0
10
2.817050
20
25.921568
30
0.0
11
3.835907
21
25.406586
31
0.0
0
ARC
8
0
62
0
10
3.168516
20
24.086435
30
0.0
40
1.479258
50
314.999603
51
63.181519
0
LINE
8
0
62
0
10
1.689291
20
24.086412
30
0.0
11
2.389387
21
24.086412
31
0.0
0
ARC
8
0
62
0
10
3.168528
20
24.086412
30
0.0
40
0.779141
50
180.000000
51
301.886169
0
LINE
8
0
62
0
10
6.280764
20
24.476519
30
0.0
11
6.756385
21
26.688726
31
0.0
0
LINE
8
0
62
0
10
6.430110
20
28.096222
30
0.0
11
7.436908
21
28.096222
31
0.0
0
LINE
8
0
62
0
10
7.436908
20
28.096222
30
0.0
11
8.707416
21
22.606728
31
0.0
0
LINE
8
0
62
0
10
6.280764
20
24.476519
30
0.0
11
7.219739
21
24.476519
31
0.0
0
LINE
8
0
62
0
10
10.151426
20
22.606728
30
0.0
11
9.901426
21
22.606728
31
0.0
0
LINE
8
0
62
0
10
8.137805
20
28.096222
30
0.0
11
11.445889
21
28.096222
31
0.0
0
LINE
8
0
62
0
10
11.445889
20
28.096222
30
0.0
11
11.445889
21
27.472940
31
0.0
0
LINE
8
0
62
0
10
12.716078
20
28.096222
30
0.0
11
11.972980
21
28.096222
31
0.0
0
LINE
8
0
62
0
10
12.716078
20
22.606728
30
0.0
11
12.716078
21
28.096222
31
0.0
0
LINE
8
0
62
0
10
13.928006
20
26.616976
30
0.0
11
13.928006
21
24.086412
31
0.0
0
ARC
8
0
62
0
10
14.707125
20
26.616976
30
0.0
40
1.479243
50
0.000000
51
135.000000
0
LINE
8
0
62
0
10
16.186367
20
26.616976
30
0.0
11
16.186367
21
24.086412
31
0.0
0
LINE
8
0
62
0
10
16.698177
20
28.096222
30
0.0
11
17.872782
21
28.096222
31
0.0
0
LINE
8
0
62
0
10
17.872782
20
28.096222
30
0.0
11
19.061127
21
24.194635
31
0.0
0
LINE
8
0
62
0
10
19.311079
20
28.096222
30
0.0
11
20.030199
21
28.096222
31
0.0
0
LINE
8
0
62
0
10
20.030199
20
28.096222
30
0.0
11
20.030199
21
22.606728
31
0.0
0
ARC
8
0
62
0
10
14.707148
20
24.086412
30
0.0
40
0.779141
50
180.000000
51
301.886169
0
LINE
8
0
62
0
10
0.755367
20
-9.729033
30
0.0
11
-0.051881
21
-9.729033
31
0.0
0
LINE
8
0
62
0
10
0.351743
20
-9.325409
30
0.0
11
0.351743
21
-10.132655
31
0.0
0
LINE
8
0
62
0
10
-4.338020
20
-3.360558
30
0.0
11
-4.338020
21
-4.730394
31
0.0
0
LINE
8
0
62
0
10
-3.886465
20
-3.317712
30
0.0
11
-4.789574
21
-3.317712
31
0.0
0
ARC
8
0
62
0
10
-3.270960
20
-4.312782
30
0.0
40
0.420333
50
196.004822
51
267.948395
0
ARC
8
0
62
0
10
-2.482949
20
-4.025052
30
0.0
40
1.258532
50
161.294113
51
198.705887
0
ARC
8
0
62
0
10
-3.270960
20
-3.738262
30
0.0
40
0.420593
50
16.128889
51
163.872177
0
ARC
8
0
62
0
10
-4.058972
20
-4.025052
30
0.0
40
1.258532
50
341.293762
51
18.706244
0
ARC
8
0
62
0
10
-3.270960
20
-4.312782
30
0.0
40
0.420333
50
272.763977
51
343.994110
0
LINE
8
0
62
0
10
-2.594605
20
-3.317712
30
0.0
11
-2.594605
21
-4.730394
31
0.0
0
LINE
8
0
62
0
10
-2.082003
20
-3.317712
30
0.0
11
-2.594605
21
-3.317712
31
0.0
0
ARC
8
0
62
0
10
-2.102991
20
-3.670882
30
0.0
40
0.353793
50
273.401001
51
86.599007
0
LINE
8
0
62
0
10
-2.573415
20
-4.024053
30
0.0
11
-2.082003
21
-4.024053
31
0.0
0
ARC
8
0
62
0
10
-0.176884
20
-4.312782
30
0.0
40
0.420333
50
196.004822
51
267.948395
0
ARC
8
0
62
0
10
0.611127
20
-4.025052
30
0.0
40
1.258532
50
161.294113
51
198.705887
0
ARC
8
0
62
0
10
-0.176884
20
-3.738262
30
0.0
40
0.420593
50
16.128889
51
163.872177
0
ARC
8
0
62
0
10
-0.964897
20
-4.025052
30
0.0
40
1.258532
50
341.293762
51
18.706244
0
ARC
8
0
62
0
10
-0.176884
20
-4.312782
30
0.0
40
0.420333
50
272.763977
51
343.994110
0
LINE
8
0
62
0
10
0.577113
20
-4.024021
30
0.0
11
1.181741
21
-4.024021
31
0.0
0
LINE
8
0
62
0
10
0.534934
20
-3.317680
30
0.0
11
0.534934
21
-4.730361
31
0.0
0
LINE
8
0
62
0
10
1.292737
20
-3.317680
30
0.0
11
0.534934
21
-3.317680
31
0.0
0
ARC
8
0
62
0
10
2.757221
20
-3.776960
30
0.0
40
0.464318
50
48.941696
51
146.027985
0
ARC
8
0
62
0
10
2.851757
20
-3.667350
30
0.0
40
0.319576
50
0.000001
51
48.814072
0
ARC
8
0
62
0
10
2.818572
20
-3.667350
30
0.0
40
0.352761
50
279.088104
51
0.000000
0
ARC
8
0
62
0
10
2.837982
20
-4.367892
30
0.0
40
0.354076
50
19.434425
51
84.114273
0
ARC
8
0
62
0
10
2.859199
20
-4.362825
30
0.0
40
0.332389
50
307.790497
51
19.827772
0
ARC
8
0
62
0
10
2.762431
20
-4.213090
30
0.0
40
0.510245
50
216.483002
51
306.074036
0
LINE
8
0
62
0
10
3.513631
20
-3.317712
30
0.0
11
3.513631
21
-4.730394
31
0.0
0
LINE
8
0
62
0
10
3.907670
20
-3.317712
30
0.0
11
3.513631
21
-3.317712
31
0.0
0
ARC
8
0
62
0
10
3.858935
20
-3.834934
30
0.0
40
0.519512
50
24.386383
51
84.617409
0
ARC
8
0
62
0
10
3.140045
20
-4.024053
30
0.0
40
1.258532
50
341.294312
51
18.705687
0
ARC
8
0
62
0
10
3.858935
20
-4.213172
30
0.0
40
0.519512
50
275.382446
51
335.613617
0
LINE
8
0
62
0
10
3.548947
20
-4.730394
30
0.0
11
3.907668
21
-4.730394
31
0.0
0
LINE
8
0
62
0
10
6.189047
20
-4.022295
30
0.0
11
5.678856
21
-4.022295
31
0.0
0
ARC
8
0
62
0
10
6.188934
20
-4.375465
30
0.0
40
0.353170
50
270.000000
51
89.981880
0
LINE
8
0
62
0
10
5.636475
20
-4.728636
30
0.0
11
6.188934
21
-4.728636
31
0.0
0
LINE
8
0
62
0
10
5.636475
20
-3.317712
30
0.0
11
5.636475
21
-4.728636
31
0.0
0
LINE
8
0
62
0
10
6.125869
20
-3.317712
30
0.0
11
5.636475
21
-3.317712
31
0.0
0
ARC
8
0
62
0
10
6.123047
20
-3.672297
30
0.0
40
0.354597
50
296.191833
51
89.543999
0
ARC
8
0
62
0
10
7.157610
20
-4.312782
30
0.0
40
0.420333
50
196.004822
51
267.948395
0
ARC
8
0
62
0
10
7.945622
20
-4.025052
30
0.0
40
1.258532
50
161.294113
51
198.705887
0
ARC
8
0
62
0
10
7.157610
20
-3.738262
30
0.0
40
0.420593
50
16.128889
51
163.872177
0
ARC
8
0
62
0
10
6.369598
20
-4.025052
30
0.0
40
1.258532
50
341.293762
51
18.706244
0
ARC
8
0
62
0
10
7.157610
20
-4.312782
30
0.0
40
0.420333
50
272.763977
51
343.994110
0
LINE
8
0
62
0
10
8.676531
20
-4.730394
30
0.0
11
7.798648
21
-3.317712
31
0.0
0
LINE
8
0
62
0
10
8.615986
20
-3.317712
30
0.0
11
7.738105
21
-4.730394
31
0.0
0
ARC
8
0
62
0
10
-9.860360
20
9.830193
30
0.0
40
0.519512
50
204.386841
51
324.320007
0
ARC
8
0
62
0
10
-9.141468
20
10.019312
30
0.0
40
1.258532
50
161.294128
51
198.705872
0
ARC
8
0
62
0
10
-9.860360
20
10.208428
30
0.0
40
0.519512
50
35.680031
51
155.613174
0
LINE
8
0
62
0
10
-9.297099
20
9.315260
30
0.0
11
-9.297099
21
10.727943
31
0.0
0
LINE
8
0
62
0
10
-8.468662
20
9.315260
30
0.0
11
-9.297099
21
9.315260
31
0.0
0
LINE
8
0
62
0
10
-7.815428
20
9.315260
30
0.0
11
-8.219052
21
9.315260
31
0.0
0
LINE
8
0
62
0
10
-8.017241
20
10.685562
30
0.0
11
-8.017241
21
9.357643
31
0.0
0
LINE
8
0
62
0
10
-7.817552
20
10.727943
30
0.0
11
-8.219052
21
10.727943
31
0.0
0
ARC
8
0
62
0
10
-7.132928
20
9.830193
30
0.0
40
0.519512
50
204.386841
51
324.320007
0
ARC
8
0
62
0
10
-6.414039
20
10.019312
30
0.0
40
1.258532
50
161.294128
51
198.705872
0
ARC
8
0
62
0
10
-7.132928
20
10.208428
30
0.0
40
0.519512
50
35.680031
51
155.613174
0
LINE
8
0
62
0
10
-6.569665
20
9.315260
30
0.0
11
-6.569665
21
10.727943
31
0.0
0
LINE
8
0
62
0
10
-6.193132
20
10.182305
30
0.0
11
-5.779573
21
9.315260
31
0.0
0
LINE
8
0
62
0
10
-5.779573
20
10.727943
30
0.0
11
-6.528222
21
9.851387
31
0.0
0
LINE
8
0
62
0
10
-9.948445
20
-0.514247
30
0.0
11
-9.948445
21
-1.884081
31
0.0
0
LINE
8
0
62
0
10
-9.496892
20
-0.471400
30
0.0
11
-10.400001
21
-0.471400
31
0.0
0
LINE
8
0
62
0
10
-8.910757
20
-1.141091
30
0.0
11
-9.355624
21
-0.471400
31
0.0
0
LINE
8
0
62
0
10
-8.886412
20
-1.177740
30
0.0
11
-8.886412
21
-1.884081
31
0.0
0
LINE
8
0
62
0
10
-8.417199
20
-0.471400
30
0.0
11
-8.886412
21
-1.177740
31
0.0
0
LINE
8
0
62
0
10
-8.240613
20
-0.471400
30
0.0
11
-8.240613
21
-1.884081
31
0.0
0
LINE
8
0
62
0
10
-7.728013
20
-0.471400
30
0.0
11
-8.240613
21
-0.471400
31
0.0
0
ARC
8
0
62
0
10
-7.749001
20
-0.824570
30
0.0
40
0.353793
50
273.401001
51
86.599007
0
LINE
8
0
62
0
10
-8.219423
20
-1.177740
30
0.0
11
-7.728013
21
-1.177740
31
0.0
0
LINE
8
0
62
0
10
-7.218359
20
-1.884096
30
0.0
11
-6.389921
21
-1.884096
31
0.0
0
LINE
8
0
62
0
10
-7.218863
20
-1.177756
30
0.0
11
-7.218359
21
-1.884096
31
0.0
0
LINE
8
0
62
0
10
-6.571552
20
-1.177756
30
0.0
11
-7.218863
21
-1.177756
31
0.0
0
LINE
8
0
62
0
10
-7.219367
20
-0.471414
30
0.0
11
-7.218892
21
-1.156577
31
0.0
0
LINE
8
0
62
0
10
-6.460555
20
-0.471414
30
0.0
11
-7.219367
21
-0.471414
31
0.0
0
LINE
8
0
62
0
10
-9.948445
20
13.212873
30
0.0
11
-9.948445
21
11.843038
31
0.0
0
LINE
8
0
62
0
10
-9.496892
20
13.255721
30
0.0
11
-10.400001
21
13.255721
31
0.0
0
LINE
8
0
62
0
10
-8.910757
20
12.586029
30
0.0
11
-9.355624
21
13.255721
31
0.0
0
LINE
8
0
62
0
10
-8.886412
20
12.549378
30
0.0
11
-8.886412
21
11.843038
31
0.0
0
LINE
8
0
62
0
10
-8.417199
20
13.255721
30
0.0
11
-8.886412
21
12.549378
31
0.0
0
LINE
8
0
62
0
10
-8.240613
20
13.255721
30
0.0
11
-8.240613
21
11.843038
31
0.0
0
LINE
8
0
62
0
10
-7.728013
20
13.255721
30
0.0
11
-8.240613
21
13.255721
31
0.0
0
ARC
8
0
62
0
10
-7.749001
20
12.902551
30
0.0
40
0.353793
50
273.401001
51
86.599007
0
LINE
8
0
62
0
10
-8.219423
20
12.549378
30
0.0
11
-7.728013
21
12.549378
31
0.0
0
LINE
8
0
62
0
10
-7.218359
20
11.843022
30
0.0
11
-6.389921
21
11.843022
31
0.0
0
LINE
8
0
62
0
10
-7.218863
20
12.549363
30
0.0
11
-7.218359
21
11.843022
31
0.0
0
LINE
8
0
62
0
10
-6.571552
20
12.549363
30
0.0
11
-7.218863
21
12.549363
31
0.0
0
LINE
8
0
62
0
10
-7.219367
20
13.255707
30
0.0
11
-7.218892
21
12.570543
31
0.0
0
LINE
8
0
62
0
10
-6.460555
20
13.255707
30
0.0
11
-7.219367
21
13.255707
31
0.0
0
LINE
8
0
62
0
10
-9.948445
20
-9.065619
30
0.0
11
-9.948445
21
-10.435456
31
0.0
0
LINE
8
0
62
0
10
-9.496892
20
-9.022775
30
0.0
11
-10.400001
21
-9.022775
31
0.0
0
LINE
8
0
62
0
10
-8.910757
20
-9.692467
30
0.0
11
-9.355624
21
-9.022775
31
0.0
0
LINE
8
0
62
0
10
-8.886412
20
-9.729115
30
0.0
11
-8.886412
21
-10.435456
31
0.0
0
LINE
8
0
62
0
10
-8.417199
20
-9.022775
30
0.0
11
-8.886412
21
-9.729115
31
0.0
0
LINE
8
0
62
0
10
-8.240613
20
-9.022775
30
0.0
11
-8.240613
21
-10.435456
31
0.0
0
LINE
8
0
62
0
10
-7.728013
20
-9.022775
30
0.0
11
-8.240613
21
-9.022775
31
0.0
0
ARC
8
0
62
0
10
-7.749001
20
-9.375945
30
0.0
40
0.353793
50
273.401001
51
86.599007
0
LINE
8
0
62
0
10
-8.219423
20
-9.729115
30
0.0
11
-7.728013
21
-9.729115
31
0.0
0
LINE
8
0
62
0
10
-7.218359
20
-10.435473
30
0.0
11
-6.389921
21
-10.435473
31
0.0
0
LINE
8
0
62
0
10
-7.218863
20
-9.729128
30
0.0
11
-7.218359
21
-10.435473
31
0.0
0
LINE
8
0
62
0
10
-6.571552
20
-9.729128
30
0.0
11
-7.218863
21
-9.729128
31
0.0
0
LINE
8
0
62
0
10
-7.219367
20
-9.022787
30
0.0
11
-7.218892
21
-9.707952
31
0.0
0
LINE
8
0
62
0
10
-6.460555
20
-9.022787
30
0.0
11
-7.219367
21
-9.022787
31
0.0
0
ARC
8
0
62
0
10
-9.860360
20
4.119410
30
0.0
40
0.519512
50
204.386841
51
324.320007
0
ARC
8
0
62
0
10
-9.141468
20
4.308528
30
0.0
40
1.258532
50
161.294128
51
198.705872
0
ARC
8
0
62
0
10
-9.860360
20
4.497648
30
0.0
40
0.519512
50
35.680031
51
155.613174
0
LINE
8
0
62
0
10
-9.297099
20
3.604479
30
0.0
11
-9.297099
21
5.017162
31
0.0
0
LINE
8
0
62
0
10
-8.468662
20
3.604479
30
0.0
11
-9.297099
21
3.604479
31
0.0
0
LINE
8
0
62
0
10
-7.815428
20
3.604479
30
0.0
11
-8.219052
21
3.604479
31
0.0
0
LINE
8
0
62
0
10
-8.017241
20
4.974781
30
0.0
11
-8.017241
21
3.646859
31
0.0
0
LINE
8
0
62
0
10
-7.817552
20
5.017160
30
0.0
11
-8.219052
21
5.017160
31
0.0
0
ARC
8
0
62
0
10
-7.132928
20
4.119410
30
0.0
40
0.519512
50
204.386841
51
324.320007
0
ARC
8
0
62
0
10
-6.414039
20
4.308528
30
0.0
40
1.258532
50
161.294128
51
198.705872
0
ARC
8
0
62
0
10
-7.132928
20
4.497648
30
0.0
40
0.519512
50
35.680031
51
155.613174
0
LINE
8
0
62
0
10
-6.569665
20
3.604479
30
0.0
11
-6.569665
21
5.017162
31
0.0
0
LINE
8
0
62
0
10
-6.193132
20
4.471524
30
0.0
11
-5.779573
21
3.604479
31
0.0
0
LINE
8
0
62
0
10
-5.779573
20
5.017162
30
0.0
11
-6.528222
21
4.140604
31
0.0
0
ARC
8
0
62
0
10
-9.860360
20
-7.176244
30
0.0
40
0.519512
50
204.386841
51
324.320007
0
ARC
8
0
62
0
10
-9.141468
20
-6.987124
30
0.0
40
1.258532
50
161.294128
51
198.705872
0
ARC
8
0
62
0
10
-9.860360
20
-6.798006
30
0.0
40
0.519512
50
35.680031
51
155.613174
0
LINE
8
0
62
0
10
-9.297099
20
-7.691176
30
0.0
11
-9.297099
21
-6.278494
31
0.0
0
LINE
8
0
62
0
10
-8.468662
20
-7.691176
30
0.0
11
-9.297099
21
-7.691176
31
0.0
0
LINE
8
0
62
0
10
-7.815428
20
-7.691176
30
0.0
11
-8.219052
21
-7.691176
31
0.0
0
LINE
8
0
62
0
10
-8.017241
20
-6.320874
30
0.0
11
-8.017241
21
-7.648796
31
0.0
0
LINE
8
0
62
0
10
-7.817552
20
-6.278494
30
0.0
11
-8.219052
21
-6.278494
31
0.0
0
ARC
8
0
62
0
10
-7.132928
20
-7.176244
30
0.0
40
0.519512
50
204.386841
51
324.320007
0
ARC
8
0
62
0
10
-6.414039
20
-6.987124
30
0.0
40
1.258532
50
161.294128
51
198.705872
0
ARC
8
0
62
0
10
-7.132928
20
-6.798006
30
0.0
40
0.519512
50
35.680031
51
155.613174
0
LINE
8
0
62
0
10
-6.569665
20
-7.691176
30
0.0
11
-6.569665
21
-6.278494
31
0.0
0
LINE
8
0
62
0
10
-6.193132
20
-6.824130
30
0.0
11
-5.779573
21
-7.691176
31
0.0
0
LINE
8
0
62
0
10
-5.779573
20
-6.278494
30
0.0
11
-6.528222
21
-7.155051
31
0.0
0
ARC
8
0
62
0
10
-9.860360
20
-4.215462
30
0.0
40
0.519512
50
204.386841
51
324.320007
0
ARC
8
0
62
0
10
-9.141468
20
-4.026342
30
0.0
40
1.258532
50
161.294128
51
198.705872
0
ARC
8
0
62
0
10
-9.860360
20
-3.837223
30
0.0
40
0.519512
50
35.680031
51
155.613174
0
LINE
8
0
62
0
10
-9.297099
20
-4.730394
30
0.0
11
-9.297099
21
-3.317712
31
0.0
0
LINE
8
0
62
0
10
-8.468662
20
-4.730394
30
0.0
11
-9.297099
21
-4.730394
31
0.0
0
LINE
8
0
62
0
10
-7.815428
20
-4.730394
30
0.0
11
-8.219052
21
-4.730394
31
0.0
0
LINE
8
0
62
0
10
-8.017241
20
-3.360091
30
0.0
11
-8.017241
21
-4.688013
31
0.0
0
LINE
8
0
62
0
10
-7.817552
20
-3.317712
30
0.0
11
-8.219052
21
-3.317712
31
0.0
0
ARC
8
0
62
0
10
-7.132928
20
-4.215462
30
0.0
40
0.519512
50
204.386841
51
324.320007
0
ARC
8
0
62
0
10
-6.414039
20
-4.026342
30
0.0
40
1.258532
50
161.294128
51
198.705872
0
ARC
8
0
62
0
10
-7.132928
20
-3.837223
30
0.0
40
0.519512
50
35.680031
51
155.613174
0
LINE
8
0
62
0
10
-6.569665
20
-4.730394
30
0.0
11
-6.569665
21
-3.317712
31
0.0
0
LINE
8
0
62
0
10
-6.193132
20
-3.863348
30
0.0
11
-5.779573
21
-4.730394
31
0.0
0
LINE
8
0
62
0
10
-5.779573
20
-3.317712
30
0.0
11
-6.528222
21
-4.194267
31
0.0
0
LINE
8
0
62
0
10
-9.948445
20
-11.809900
30
0.0
11
-9.948445
21
-13.179737
31
0.0
0
LINE
8
0
62
0
10
-9.496892
20
-11.767054
30
0.0
11
-10.400001
21
-11.767054
31
0.0
0
LINE
8
0
62
0
10
-8.910757
20
-12.436745
30
0.0
11
-9.355624
21
-11.767054
31
0.0
0
LINE
8
0
62
0
10
-8.886412
20
-12.473394
30
0.0
11
-8.886412
21
-13.179737
31
0.0
0
LINE
8
0
62
0
10
-8.417199
20
-11.767054
30
0.0
11
-8.886412
21
-12.473394
31
0.0
0
LINE
8
0
62
0
10
-8.240613
20
-11.767054
30
0.0
11
-8.240613
21
-13.179737
31
0.0
0
LINE
8
0
62
0
10
-7.728013
20
-11.767054
30
0.0
11
-8.240613
21
-11.767054
31
0.0
0
ARC
8
0
62
0
10
-7.749001
20
-12.120224
30
0.0
40
0.353793
50
273.401001
51
86.599007
0
LINE
8
0
62
0
10
-8.219423
20
-12.473394
30
0.0
11
-7.728013
21
-12.473394
31
0.0
0
LINE
8
0
62
0
10
-7.218359
20
-13.179749
30
0.0
11
-6.389921
21
-13.179749
31
0.0
0
LINE
8
0
62
0
10
-7.218863
20
-12.473411
30
0.0
11
-7.218359
21
-13.179749
31
0.0
0
LINE
8
0
62
0
10
-6.571552
20
-12.473411
30
0.0
11
-7.218863
21
-12.473411
31
0.0
0
LINE
8
0
62
0
10
-7.219367
20
-11.767068
30
0.0
11
-7.218892
21
-12.452230
31
0.0
0
LINE
8
0
62
0
10
-6.460555
20
-11.767068
30
0.0
11
-7.219367
21
-11.767068
31
0.0
0
LINE
8
0
62
0
10
-9.496892
20
16.000000
30
0.0
11
-10.400001
21
16.000000
31
0.0
0
LINE
8
0
62
0
10
-8.910757
20
15.330309
30
0.0
11
-9.355624
21
16.000000
31
0.0
0
LINE
8
0
62
0
10
-8.886412
20
15.293659
30
0.0
11
-8.886412
21
14.587318
31
0.0
0
LINE
8
0
62
0
10
-8.417199
20
16.000000
30
0.0
11
-8.886412
21
15.293659
31
0.0
0
LINE
8
0
62
0
10
-8.240613
20
16.000000
30
0.0
11
-8.240613
21
14.587318
31
0.0
0
LINE
8
0
62
0
10
-7.728013
20
16.000000
30
0.0
11
-8.240613
21
16.000000
31
0.0
0
ARC
8
0
62
0
10
-7.749001
20
15.646830
30
0.0
40
0.353793
50
273.401001
51
86.599007
0
LINE
8
0
62
0
10
-8.219423
20
15.293659
30
0.0
11
-7.728013
21
15.293659
31
0.0
0
LINE
8
0
62
0
10
-7.218359
20
14.587303
30
0.0
11
-6.389921
21
14.587303
31
0.0
0
LINE
8
0
62
0
10
-7.218863
20
15.293646
30
0.0
11
-7.218359
21
14.587303
31
0.0
0
LINE
8
0
62
0
10
-6.571552
20
15.293646
30
0.0
11
-7.218863
21
15.293646
31
0.0
0
LINE
8
0
62
0
10
-7.219367
20
15.999987
30
0.0
11
-7.218892
21
15.314825
31
0.0
0
LINE
8
0
62
0
10
-6.460555
20
15.999987
30
0.0
11
-7.219367
21
15.999987
31
0.0
0
LINE
8
0
62
0
10
-9.948445
20
2.230034
30
0.0
11
-9.948445
21
0.860200
31
0.0
0
LINE
8
0
62
0
10
-9.496892
20
2.272881
30
0.0
11
-10.400001
21
2.272881
31
0.0
0
LINE
8
0
62
0
10
-8.910757
20
1.603189
30
0.0
11
-9.355624
21
2.272881
31
0.0
0
LINE
8
0
62
0
10
-8.886412
20
1.566540
30
0.0
11
-8.886412
21
0.860199
31
0.0
0
LINE
8
0
62
0
10
-8.417199
20
2.272881
30
0.0
11
-8.886412
21
1.566540
31
0.0
0
LINE
8
0
62
0
10
-8.240613
20
2.272881
30
0.0
11
-8.240613
21
0.860199
31
0.0
0
LINE
8
0
62
0
10
-7.728013
20
2.272881
30
0.0
11
-8.240613
21
2.272881
31
0.0
0
ARC
8
0
62
0
10
-7.749001
20
1.919711
30
0.0
40
0.353793
50
273.401001
51
86.599007
0
LINE
8
0
62
0
10
-8.219423
20
1.566540
30
0.0
11
-7.728013
21
1.566540
31
0.0
0
LINE
8
0
62
0
10
-7.218359
20
0.860184
30
0.0
11
-6.389921
21
0.860184
31
0.0
0
LINE
8
0
62
0
10
-7.218863
20
1.566524
30
0.0
11
-7.218359
21
0.860184
31
0.0
0
LINE
8
0
62
0
10
-6.571552
20
1.566524
30
0.0
11
-7.218863
21
1.566524
31
0.0
0
LINE
8
0
62
0
10
-7.219367
20
2.272865
30
0.0
11
-7.218892
21
1.587704
31
0.0
0
LINE
8
0
62
0
10
-6.460555
20
2.272865
30
0.0
11
-7.219367
21
2.272865
31
0.0
0
LINE
8
0
62
0
10
17.417299
20
26.159252
30
0.0
11
17.417299
21
22.606728
31
0.0
0
LINE
8
0
62
0
10
10.151426
20
27.222939
30
0.0
11
10.151426
21
22.606728
31
0.0
0
LINE
8
0
62
0
10
6.093022
20
23.603292
30
0.0
11
5.878763
21
22.606728
31
0.0
0
LINE
8
0
62
0
10
-1.171144
20
27.193026
30
0.0
11
-1.171144
21
25.681038
31
0.0
0
LINE
8
0
62
0
10
-1.171144
20
24.777861
30
0.0
11
-1.171144
21
22.606728
31
0.0
0
ARC
8
0
62
0
10
-0.356696
20
26.562099
30
0.0
40
1.534125
50
308.383118
51
315.000000
0
LINE
8
0
62
0
10
-4.167345
20
24.849802
30
0.0
11
-4.167345
21
23.230011
31
0.0
0
LINE
8
0
62
0
10
-4.167345
20
27.222939
30
0.0
11
-4.167345
21
25.723030
31
0.0
0
LINE
8
0
62
0
10
-11.885752
20
26.159252
30
0.0
11
-11.885752
21
22.606728
31
0.0
0
ARC
8
0
62
0
10
-18.050943
20
26.616976
30
0.0
40
0.779144
50
148.113800
51
180.000000
0
ARC
8
0
62
0
10
-18.050968
20
24.086412
30
0.0
40
1.479237
50
308.136444
51
315.000000
0
ARC
8
0
62
0
10
3.168536
20
26.616976
30
0.0
40
0.779144
50
148.113800
51
180.000000
0
ARC
8
0
62
0
10
3.168525
20
24.086412
30
0.0
40
1.479234
50
308.136444
51
315.000000
0
ARC
8
0
62
0
10
14.707148
20
26.616976
30
0.0
40
0.779141
50
148.113831
51
180.000000
0
ARC
8
0
62
0
10
14.707125
20
24.086412
30
0.0
40
1.479243
50
308.136475
51
315.000000
0
ARC
8
0
62
0
10
-14.595903
20
26.616976
30
0.0
40
0.779141
50
148.113831
51
180.000000
0
ARC
8
0
62
0
10
-14.595926
20
24.086412
30
0.0
40
1.479243
50
308.136475
51
315.000000
0
ARC
8
0
62
0
10
-18.050961
20
26.616976
30
0.0
40
1.479240
50
135.000000
51
141.863525
0
ARC
8
0
62
0
10
-14.595926
20
26.616976
30
0.0
40
1.479243
50
135.000000
51
141.863525
0
ARC
8
0
62
0
10
-18.050968
20
24.086412
30
0.0
40
1.479237
50
315.000000
51
0.000000
0
ARC
8
0
62
0
10
-14.595926
20
24.086412
30
0.0
40
1.479243
50
315.000000
51
0.000000
0
ARC
8
0
62
0
10
-0.356696
20
26.562099
30
0.0
40
1.534125
50
315.000000
51
90.000305
0
ARC
8
0
62
0
10
3.168528
20
26.616976
30
0.0
40
1.479243
50
135.000000
51
141.863525
0
ARC
8
0
62
0
10
14.707125
20
24.086412
30
0.0
40
1.479243
50
315.000000
51
0.000000
0
ARC
8
0
62
0
10
14.707125
20
26.616976
30
0.0
40
1.479243
50
135.000000
51
141.863525
0
ARC
8
0
62
2
10
7.615918
20
-7.283794
30
0.0
40
0.407228
50
210.522003
51
269.441071
0
LINE
8
0
62
2
10
7.611945
20
-7.691003
30
0.0
11
7.755906
21
-7.692409
31
0.0
0
ARC
8
0
62
2
10
7.759532
20
-7.320669
30
0.0
40
0.371757
50
269.441071
51
357.350677
0
ARC
8
0
62
2
10
7.828501
20
-7.365277
30
0.0
40
0.303632
50
5.182272
51
59.344830
0
LINE
8
0
62
2
10
7.983314
20
-7.104078
30
0.0
11
7.427329
21
-6.865287
31
0.0
0
ARC
8
0
62
2
10
7.582140
20
-6.604086
30
0.0
40
0.303632
50
185.182404
51
239.344803
0
ARC
8
0
62
2
10
7.649622
20
-6.647713
30
0.0
40
0.370226
50
91.261345
51
177.491959
0
LINE
8
0
62
2
10
7.641472
20
-6.277576
30
0.0
11
7.785089
21
-6.277426
31
0.0
0
ARC
8
0
62
2
10
7.772263
20
-6.671568
30
0.0
40
0.394351
50
29.271709
51
88.136147
0
LINE
8
0
62
2
10
8.372656
20
-6.277494
30
0.0
11
8.372656
21
-7.690176
31
0.0
0
LINE
8
0
62
2
10
8.415036
20
-6.983835
30
0.0
11
9.186362
21
-6.983835
31
0.0
0
LINE
8
0
62
2
10
9.230356
20
-7.690176
30
0.0
11
9.230356
21
-6.277494
31
0.0
0
LINE
8
0
62
2
10
9.371625
20
-7.690176
30
0.0
11
9.901381
21
-6.277494
31
0.0
0
LINE
8
0
62
2
10
9.901381
20
-6.277494
30
0.0
11
10.431137
21
-7.690176
31
0.0
0
LINE
8
0
62
2
10
9.527525
20
-7.387459
30
0.0
11
10.275236
21
-7.387459
31
0.0
0
LINE
8
0
62
2
10
10.607723
20
-7.690176
30
0.0
11
10.607723
21
-6.277494
31
0.0
0
LINE
8
0
62
2
10
10.607723
20
-6.277494
30
0.0
11
11.120323
21
-6.277494
31
0.0
0
ARC
8
0
62
2
10
11.099337
20
-6.630664
30
0.0
40
0.353793
50
273.401001
51
86.599007
0
LINE
8
0
62
2
10
11.120323
20
-6.983835
30
0.0
11
10.628913
21
-6.983835
31
0.0
0
LINE
8
0
62
2
10
12.458416
20
-7.690190
30
0.0
11
11.629979
21
-7.690190
31
0.0
0
LINE
8
0
62
2
10
11.629979
20
-7.690190
30
0.0
11
11.629475
21
-6.983849
31
0.0
0
LINE
8
0
62
2
10
11.629475
20
-6.983849
30
0.0
11
12.276786
21
-6.983849
31
0.0
0
LINE
8
0
62
2
10
11.629443
20
-6.962671
30
0.0
11
11.628969
21
-6.277508
31
0.0
0
LINE
8
0
62
2
10
11.628969
20
-6.277508
30
0.0
11
12.387782
21
-6.277508
31
0.0
0
LINE
8
0
62
2
10
-4.747140
20
-6.983954
30
0.0
11
-4.236314
21
-6.983954
31
0.0
0
ARC
8
0
62
2
10
-4.236426
20
-7.337565
30
0.0
40
0.353610
50
270.000000
51
89.981880
0
LINE
8
0
62
2
10
-4.236426
20
-7.691176
30
0.0
11
-4.789574
21
-7.691176
31
0.0
0
LINE
8
0
62
2
10
-4.789574
20
-7.691176
30
0.0
11
-4.789574
21
-6.278494
31
0.0
0
LINE
8
0
62
2
10
-4.789574
20
-6.278494
30
0.0
11
-4.299570
21
-6.278494
31
0.0
0
ARC
8
0
62
2
10
-4.302396
20
-6.633521
30
0.0
40
0.355038
50
296.191833
51
89.543999
0
LINE
8
0
62
2
10
-3.663204
20
-7.692936
30
0.0
11
-3.259078
21
-7.692936
31
0.0
0
LINE
8
0
62
2
10
-3.461143
20
-7.650502
30
0.0
11
-3.461143
21
-6.320926
31
0.0
0
LINE
8
0
62
2
10
-3.663204
20
-6.278494
30
0.0
11
-3.261204
21
-6.278494
31
0.0
0
LINE
8
0
62
2
10
-2.708766
20
-7.067572
30
0.0
11
-2.111938
21
-7.067572
31
0.0
0
ARC
8
0
62
2
10
-2.111938
20
-7.110002
30
0.0
40
0.042429
50
0.000000
51
90.000000
0
LINE
8
0
62
2
10
-2.069510
20
-7.110002
30
0.0
11
-2.069510
21
-7.216803
31
0.0
0
ARC
8
0
62
2
10
-2.551088
20
-7.220500
30
0.0
40
0.481594
50
200.855255
51
0.439684
0
ARC
8
0
62
2
10
-1.807698
20
-6.987904
30
0.0
40
1.259973
50
161.293991
51
198.703979
0
ARC
8
0
62
2
10
-2.527413
20
-6.798565
30
0.0
40
0.520108
50
35.680031
51
155.613174
0
ARC
8
0
62
2
10
-16.000000
20
-16.000000
30
0.0
40
4.000000
50
0.000000
51
90.000000
0
ARC
8
0
62
2
10
-16.000000
20
16.000000
30
0.0
40
4.000000
50
270.000000
51
0.000000
0
ARC
8
0
62
2
10
16.000000
20
16.000000
30
0.0
40
4.000000
50
180.000000
51
270.000000
0
LINE
8
0
62
2
10
-17.600000
20
10.400001
30
0.0
11
-17.600000
21
-10.400001
31
0.0
0
LINE
8
0
62
2
10
10.400001
20
17.600000
30
0.0
11
-10.400001
21
17.600000
31
0.0
0
ARC
8
0
62
2
10
16.000000
20
10.400001
30
0.0
40
1.600000
50
0.000000
51
90.000000
0
ARC
8
0
62
2
10
10.400001
20
16.000000
30
0.0
40
1.600000
50
0.000000
51
90.000000
0
ARC
8
0
62
2
10
-10.400001
20
16.000000
30
0.0
40
1.600000
50
90.000000
51
180.000000
0
ARC
8
0
62
2
10
-16.000000
20
10.400001
30
0.0
40
1.600000
50
90.000000
51
180.000000
0
ARC
8
0
62
2
10
-16.000000
20
-10.400001
30
0.0
40
1.600000
50
180.000000
51
270.000000
0
ARC
8
0
62
2
10
-10.400001
20
-16.000000
30
0.0
40
1.600000
50
180.000000
51
270.000000
0
ARC
8
0
62
2
10
16.000000
20
-16.000000
30
0.0
40
4.000000
50
90.000000
51
180.000000
0
ARC
8
0
62
2
10
16.000000
20
-10.400001
30
0.0
40
1.600000
50
270.000000
51
0.000000
0
ARC
8
0
62
2
10
10.400001
20
-16.000000
30
0.0
40
1.600000
50
270.000000
51
0.000000
0
LINE
8
0
62
2
10
10.400001
20
-17.600000
30
0.0
11
-10.400001
21
-17.600000
31
0.0
0
LINE
8
0
62
2
10
17.600000
20
-10.400001
30
0.0
11
17.600000
21
10.400001
31
0.0
0
ARC
8
0
62
2
10
-0.243675
20
-7.272566
30
0.0
40
0.420333
50
196.004822
51
267.948395
0
ARC
8
0
62
2
10
0.544337
20
-6.984835
30
0.0
40
1.258532
50
161.294113
51
198.705887
0
ARC
8
0
62
2
10
-0.243675
20
-6.698044
30
0.0
40
0.420594
50
16.128889
51
163.872177
0
ARC
8
0
62
2
10
-1.031688
20
-6.984835
30
0.0
40
1.258532
50
341.293762
51
18.706244
0
ARC
8
0
62
2
10
-0.243675
20
-7.272566
30
0.0
40
0.420333
50
272.763977
51
343.994110
0
LINE
8
0
62
2
10
0.467997
20
-7.690176
30
0.0
11
0.467997
21
-6.277494
31
0.0
0
LINE
8
0
62
2
10
0.467997
20
-6.277494
30
0.0
11
0.980599
21
-6.277494
31
0.0
0
ARC
8
0
62
2
10
0.973793
20
-6.630664
30
0.0
40
0.353236
50
271.095276
51
88.895920
0
LINE
8
0
62
2
10
0.980544
20
-6.983835
30
0.0
11
0.514360
21
-6.983835
31
0.0
0
LINE
8
0
62
2
10
1.000671
20
-7.024081
30
0.0
11
1.333770
21
-7.690176
31
0.0
0
LINE
8
0
62
2
10
1.475037
20
-7.690176
30
0.0
11
2.004794
21
-6.277494
31
0.0
0
LINE
8
0
62
2
10
2.004794
20
-6.277494
30
0.0
11
2.534549
21
-7.690176
31
0.0
0
LINE
8
0
62
2
10
1.630937
20
-7.387459
30
0.0
11
2.378650
21
-7.387459
31
0.0
0
LINE
8
0
62
2
10
2.694406
20
-7.690176
30
0.0
11
2.694406
21
-6.277494
31
0.0
0
LINE
8
0
62
2
10
2.694406
20
-6.277494
30
0.0
11
3.561860
21
-7.690176
31
0.0
0
LINE
8
0
62
2
10
3.561860
20
-7.690176
30
0.0
11
3.561860
21
-6.277494
31
0.0
0
LINE
8
0
62
2
10
4.109895
20
-7.065590
30
0.0
11
4.705980
21
-7.065590
31
0.0
0
ARC
8
0
62
2
10
4.705980
20
-7.107966
30
0.0
40
0.042376
50
0.000000
51
90.000000
0
LINE
8
0
62
2
10
4.748357
20
-7.107966
30
0.0
11
4.748357
21
-7.214635
31
0.0
0
ARC
8
0
62
2
10
4.267376
20
-7.218326
30
0.0
40
0.480996
50
200.855255
51
0.439684
0
ARC
8
0
62
2
10
5.009841
20
-6.986022
30
0.0
40
1.258405
50
161.293991
51
198.703979
0
ARC
8
0
62
2
10
4.291022
20
-6.796918
30
0.0
40
0.519461
50
35.680031
51
155.613174
0
LINE
8
0
62
2
10
5.739356
20
-7.690190
30
0.0
11
4.910919
21
-7.690190
31
0.0
0
LINE
8
0
62
2
10
4.910919
20
-7.690190
30
0.0
11
4.910414
21
-6.983849
31
0.0
0
LINE
8
0
62
2
10
4.910414
20
-6.983849
30
0.0
11
5.557724
21
-6.983849
31
0.0
0
LINE
8
0
62
2
10
4.910383
20
-6.962671
30
0.0
11
4.909910
21
-6.277508
31
0.0
0
LINE
8
0
62
2
10
4.909910
20
-6.277508
30
0.0
11
5.668723
21
-6.277508
31
0.0
0
CIRCLE
8
0
62
5
10
16.000000
20
16.000000
30
0.0
40
1.700001
0
CIRCLE
8
0
62
5
10
-16.000000
20
15.999999
30
0.0
40
1.700001
0
CIRCLE
8
0
62
5
10
-15.999999
20
-16.000002
30
0.0
40
1.700001
0
CIRCLE
8
0
62
5
10
16.000000
20
-16.000000
30
0.0
40
1.700001
0
ARC
8
0
62
3
10
-4.924017
20
6.742331
30
0.0
40
0.519512
50
204.386841
51
324.320007
0
ARC
8
0
62
3
10
-4.205125
20
6.931451
30
0.0
40
1.258532
50
161.294128
51
198.705872
0
ARC
8
0
62
3
10
-4.924017
20
7.120571
30
0.0
40
0.519512
50
35.680031
51
155.613174
0
LINE
8
0
62
0
10
-9.948445
20
7.597152
30
0.0
11
-9.948445
21
6.227318
31
0.0
0
LINE
8
0
62
0
10
-9.496892
20
7.639999
30
0.0
11
-10.400001
21
7.639999
31
0.0
0
LINE
8
0
62
0
10
-8.910757
20
6.970307
30
0.0
11
-9.355624
21
7.639999
31
0.0
0
LINE
8
0
62
0
10
-8.886412
20
6.933660
30
0.0
11
-8.886412
21
6.227318
31
0.0
0
LINE
8
0
62
0
10
-8.417199
20
7.639999
30
0.0
11
-8.886412
21
6.933660
31
0.0
0
LINE
8
0
62
0
10
-8.240613
20
7.639999
30
0.0
11
-8.240613
21
6.227318
31
0.0
0
LINE
8
0
62
0
10
-7.728013
20
7.639999
30
0.0
11
-8.240613
21
7.639999
31
0.0
0
ARC
8
0
62
0
10
-7.749001
20
7.286829
30
0.0
40
0.353793
50
273.401001
51
86.599007
0
LINE
8
0
62
0
10
-8.219423
20
6.933660
30
0.0
11
-7.728013
21
6.933660
31
0.0
0
LINE
8
0
62
0
10
-7.218359
20
6.227302
30
0.0
11
-6.389921
21
6.227302
31
0.0
0
LINE
8
0
62
0
10
-7.218863
20
6.933643
30
0.0
11
-7.218359
21
6.227302
31
0.0
0
LINE
8
0
62
0
10
-6.571552
20
6.933643
30
0.0
11
-7.218863
21
6.933643
31
0.0
0
LINE
8
0
62
0
10
-7.219367
20
7.639984
30
0.0
11
-7.218892
21
6.954822
31
0.0
0
LINE
8
0
62
0
10
-6.460555
20
7.639984
30
0.0
11
-7.219367
21
7.639984
31
0.0
0
LINE
8
0
62
0
10
-9.948445
20
15.957151
30
0.0
11
-9.948445
21
14.587318
31
0.0
0
LINE
8
0
62
0
10
-1.986297
20
-0.471400
30
0.0
11
-2.889406
21
-0.471400
31
0.0
0
LINE
8
0
62
0
10
-2.437851
20
-0.514247
30
0.0
11
-2.437851
21
-1.884081
31
0.0
0
LINE
8
0
62
0
10
-0.529585
20
-1.884081
30
0.0
11
0.298852
21
-1.884081
31
0.0
0
LINE
8
0
62
0
10
-0.530089
20
-1.177736
30
0.0
11
-0.529585
21
-1.884081
31
0.0
0
LINE
8
0
62
0
10
0.117221
20
-1.177736
30
0.0
11
-0.530089
21
-1.177736
31
0.0
0
LINE
8
0
62
0
10
-0.530594
20
-0.471395
30
0.0
11
-0.530119
21
-1.156560
31
0.0
0
LINE
8
0
62
0
10
0.228219
20
-0.471395
30
0.0
11
-0.530594
21
-0.471395
31
0.0
0
LINE
8
0
62
0
10
0.554155
20
-1.906329
30
0.0
11
0.554155
21
-0.493647
31
0.0
0
LINE
8
0
62
0
10
0.554155
20
-0.493647
30
0.0
11
1.421610
21
-1.906329
31
0.0
0
LINE
8
0
62
0
10
1.421610
20
-1.906329
30
0.0
11
1.421610
21
-0.493647
31
0.0
0
LINE
8
0
62
0
10
-1.773996
20
-1.884081
30
0.0
11
-1.773996
21
-0.471398
31
0.0
0
LINE
8
0
62
0
10
-0.960290
20
-1.177740
30
0.0
11
-1.731615
21
-1.177740
31
0.0
0
LINE
8
0
62
0
10
-0.916296
20
-0.471398
30
0.0
11
-0.916296
21
-1.884081
31
0.0
0
LINE
8
0
62
4
10
3.413974
20
-13.179752
30
0.0
11
4.242410
21
-13.179752
31
0.0
0
LINE
8
0
62
4
10
3.413469
20
-12.473410
30
0.0
11
3.413974
21
-13.179752
31
0.0
0
LINE
8
0
62
4
10
4.060780
20
-12.473410
30
0.0
11
3.413469
21
-12.473410
31
0.0
0
LINE
8
0
62
4
10
3.412965
20
-11.767068
30
0.0
11
3.413440
21
-12.452230
31
0.0
0
LINE
8
0
62
4
10
4.171777
20
-11.767068
30
0.0
11
3.412965
21
-11.767068
31
0.0
0
LINE
8
0
62
4
10
4.331632
20
-11.767055
30
0.0
11
4.331632
21
-13.179736
31
0.0
0
LINE
8
0
62
4
10
5.199087
20
-13.179736
30
0.0
11
4.331632
21
-11.767055
31
0.0
0
LINE
8
0
62
4
10
5.199087
20
-11.767055
30
0.0
11
5.199087
21
-13.179736
31
0.0
0
LINE
8
0
62
4
10
5.929460
20
-11.809901
30
0.0
11
5.929460
21
-13.179736
31
0.0
0
LINE
8
0
62
4
10
6.381014
20
-11.767054
30
0.0
11
5.477906
21
-11.767054
31
0.0
0
LINE
8
0
62
4
10
6.537497
20
-13.179752
30
0.0
11
7.365934
21
-13.179752
31
0.0
0
LINE
8
0
62
4
10
6.536992
20
-12.473410
30
0.0
11
6.537497
21
-13.179752
31
0.0
0
LINE
8
0
62
4
10
7.184303
20
-12.473410
30
0.0
11
6.536992
21
-12.473410
31
0.0
0
LINE
8
0
62
4
10
6.536488
20
-11.767068
30
0.0
11
6.536962
21
-12.452230
31
0.0
0
LINE
8
0
62
4
10
7.295300
20
-11.767068
30
0.0
11
6.536488
21
-11.767068
31
0.0
0
LINE
8
0
62
4
10
7.507202
20
-11.767054
30
0.0
11
7.507202
21
-13.179736
31
0.0
0
LINE
8
0
62
4
10
8.019804
20
-11.767054
30
0.0
11
7.507202
21
-11.767054
31
0.0
0
ARC
8
0
62
4
10
8.012998
20
-12.120224
30
0.0
40
0.353236
50
271.095276
51
88.895920
0
LINE
8
0
62
4
10
7.553564
20
-12.473395
30
0.0
11
8.019750
21
-12.473395
31
0.0
0
LINE
8
0
62
4
10
8.372974
20
-13.179736
30
0.0
11
8.039877
21
-12.513641
31
0.0
0
LINE
8
0
62
0
10
-1.100271
20
-11.767056
30
0.0
11
-2.003380
21
-11.767056
31
0.0
0
LINE
8
0
62
0
10
-1.551825
20
-11.809904
30
0.0
11
-1.551825
21
-13.179737
31
0.0
0
LINE
8
0
62
0
10
0.356441
20
-13.179737
30
0.0
11
1.184878
21
-13.179737
31
0.0
0
LINE
8
0
62
0
10
0.355937
20
-12.473392
30
0.0
11
0.356441
21
-13.179737
31
0.0
0
LINE
8
0
62
0
10
1.003247
20
-12.473392
30
0.0
11
0.355937
21
-12.473392
31
0.0
0
LINE
8
0
62
0
10
0.355433
20
-11.767052
30
0.0
11
0.355908
21
-12.452216
31
0.0
0
LINE
8
0
62
0
10
1.114245
20
-11.767052
30
0.0
11
0.355433
21
-11.767052
31
0.0
0
LINE
8
0
62
0
10
1.440181
20
-13.201985
30
0.0
11
1.440181
21
-11.789303
31
0.0
0
LINE
8
0
62
0
10
1.440181
20
-11.789303
30
0.0
11
2.307635
21
-13.201985
31
0.0
0
LINE
8
0
62
0
10
2.307635
20
-13.201985
30
0.0
11
2.307635
21
-11.789303
31
0.0
0
LINE
8
0
62
0
10
-0.887970
20
-13.179737
30
0.0
11
-0.887970
21
-11.767054
31
0.0
0
LINE
8
0
62
0
10
-0.074265
20
-12.473396
30
0.0
11
-0.845589
21
-12.473396
31
0.0
0
LINE
8
0
62
0
10
-0.030270
20
-11.767054
30
0.0
11
-0.030270
21
-13.179737
31
0.0
0
LINE
8
0
62
0
10
-9.948445
20
-14.554181
30
0.0
11
-9.948445
21
-15.924018
31
0.0
0
LINE
8
0
62
0
10
-9.496892
20
-14.511334
30
0.0
11
-10.400001
21
-14.511334
31
0.0
0
LINE
8
0
62
0
10
-8.910757
20
-15.181026
30
0.0
11
-9.355624
21
-14.511334
31
0.0
0
LINE
8
0
62
0
10
-8.886412
20
-15.217675
30
0.0
11
-8.886412
21
-15.924018
31
0.0
0
LINE
8
0
62
0
10
-8.417199
20
-14.511334
30
0.0
11
-8.886412
21
-15.217675
31
0.0
0
LINE
8
0
62
0
10
-8.240613
20
-14.511334
30
0.0
11
-8.240613
21
-15.924018
31
0.0
0
LINE
8
0
62
0
10
-7.728013
20
-14.511334
30
0.0
11
-8.240613
21
-14.511334
31
0.0
0
ARC
8
0
62
0
10
-7.749001
20
-14.864505
30
0.0
40
0.353793
50
273.401001
51
86.599007
0
LINE
8
0
62
0
10
-8.219423
20
-15.217675
30
0.0
11
-7.728013
21
-15.217675
31
0.0
0
LINE
8
0
62
0
10
-7.218359
20
-15.924030
30
0.0
11
-6.389921
21
-15.924030
31
0.0
0
LINE
8
0
62
0
10
-7.218863
20
-15.217691
30
0.0
11
-7.218359
21
-15.924030
31
0.0
0
LINE
8
0
62
0
10
-6.571552
20
-15.217691
30
0.0
11
-7.218863
21
-15.217691
31
0.0
0
LINE
8
0
62
0
10
-7.219367
20
-14.511349
30
0.0
11
-7.218892
21
-15.196511
31
0.0
0
LINE
8
0
62
0
10
-6.460555
20
-14.511349
30
0.0
11
-7.219367
21
-14.511349
31
0.0
0
LINE
8
0
62
3
10
-5.163119
20
-15.924030
30
0.0
11
-5.104170
21
-15.924030
31
0.0
0
ARC
8
0
62
3
10
-5.104170
20
-15.704031
30
0.0
40
0.220000
50
270.000000
51
345.000061
0
ARC
8
0
62
3
10
-4.949815
20
-14.758621
30
0.0
40
0.197273
50
0.000000
51
270.000000
0
ARC
8
0
62
3
10
-4.949815
20
-14.758621
30
0.0
40
0.197273
50
270.000000
51
0.000000
0
LINE
8
0
62
3
10
-4.891666
20
-15.760970
30
0.0
11
-4.789798
21
-15.380795
31
0.0
0
ARC
8
0
62
3
10
-4.886391
20
-15.354913
30
0.0
40
0.100000
50
345.000061
51
90.000000
0
LINE
8
0
62
3
10
-4.886391
20
-15.254912
30
0.0
11
-5.012946
21
-15.254912
31
0.0
0
LINE
8
0
62
3
10
-5.163119
20
-15.924030
30
0.0
11
-5.112566
21
-15.346197
31
0.0
0
ARC
8
0
62
3
10
-5.012946
20
-15.354913
30
0.0
40
0.100000
50
90.000000
51
174.999985
0
ENDSEC
0
EOF
