999
File generated by Conversation
0
SECTION
2
HEADER
0
SECTION
2
HEADER
9
$ACADVER
1
AC1021
9
$INSBASE
10
0.0
20
0.0
30
0.0
9
$EXTMIN
10
0.0
20
0.0
30
0.0
9
$EXTMAX
10
1000.0
20
1000.0
30
0.0
0
ENDSEC
0
SECTION
2
TABLES
0
TABLE
2
LTYPE
70
1
0
LTYPE
2
CONTINUOUS
70
64
3
Solid line
72
65
73
0
40
0.0
0
ENDTAB
0
TABLE
2
LAYER
70
1
0
LAYER
2
0
70
64
62
7
6
CONTINUOUS
0
ENDTAB
0
TABLE
2
STYLE
70
1
0
STYLE
2
STANDARD
70
0
40
0.0
41
1.0
50
0.0
71
0
42
0.2
3
txt
4

0
ENDTAB
0
ENDSEC
0
SECTION
2
ENTITIES
0
LINE
8
0
62
0
10
0.778748
20
1.096308
30
0.0
11
0.788590
21
1.106151
31
0.0
0
LINE
8
0
62
0
10
0.750438
20
1.096308
30
0.0
11
0.760281
21
1.106151
31
0.0
0
LINE
8
0
62
0
10
0.778748
20
0.880186
30
0.0
11
0.788590
21
0.890029
31
0.0
0
LINE
8
0
62
0
10
0.693810
20
1.096308
30
0.0
11
0.703653
21
1.106151
31
0.0
0
LINE
8
0
62
0
10
0.647566
20
1.096308
30
0.0
11
0.657409
21
1.106151
31
0.0
0
LINE
8
0
62
0
10
0.675878
20
0.880186
30
0.0
11
0.685720
21
0.890029
31
0.0
0
LINE
8
0
62
0
10
0.471377
20
1.106151
30
0.0
11
0.461535
21
1.096308
31
0.0
0
LINE
8
0
62
0
10
0.500633
20
1.106151
30
0.0
11
0.490790
21
1.096308
31
0.0
0
LINE
8
0
62
0
10
0.500633
20
0.890029
30
0.0
11
0.490790
21
0.880186
31
0.0
0
LINE
8
0
62
0
10
0.320386
20
1.106151
30
0.0
11
0.310543
21
1.096308
31
0.0
0
LINE
8
0
62
0
10
0.450626
20
1.106151
30
0.0
11
0.440783
21
1.096308
31
0.0
0
LINE
8
0
62
0
10
0.450626
20
1.081612
30
0.0
11
0.440783
21
1.071769
31
0.0
0
LINE
8
0
62
0
10
0.399662
20
0.890029
30
0.0
11
0.389820
21
0.880186
31
0.0
0
LINE
8
0
62
0
10
0.253154
20
1.106151
30
0.0
11
0.243311
21
1.096308
31
0.0
0
LINE
8
0
62
0
10
0.292792
20
1.106151
30
0.0
11
0.282949
21
1.096308
31
0.0
0
LINE
8
0
62
0
10
0.231447
20
0.890029
30
0.0
11
0.221605
21
0.880186
31
0.0
0
LINE
8
0
62
0
10
0.342812
20
0.890029
30
0.0
11
0.332969
21
0.880186
31
0.0
0
LINE
8
0
62
0
10
0.247274
20
0.963642
30
0.0
11
0.237432
21
0.953800
31
0.0
0
LINE
8
0
62
0
10
-0.075365
20
1.106151
30
0.0
11
-0.085207
21
1.096308
31
0.0
0
LINE
8
0
62
0
10
-0.046108
20
1.011065
30
0.0
11
-0.055951
21
1.001222
31
0.0
0
LINE
8
0
62
0
10
-0.046108
20
0.890029
30
0.0
11
-0.055951
21
0.880186
31
0.0
0
LINE
8
0
62
0
10
0.046356
20
0.890029
30
0.0
11
0.036514
21
0.880186
31
0.0
0
LINE
8
0
62
0
10
-0.193326
20
1.106151
30
0.0
11
-0.203168
21
1.096308
31
0.0
0
LINE
8
0
62
0
10
-0.096118
20
1.106151
30
0.0
11
-0.105961
21
1.096308
31
0.0
0
LINE
8
0
62
0
10
-0.096118
20
1.081612
30
0.0
11
-0.105961
21
1.071769
31
0.0
0
LINE
8
0
62
0
10
-0.099893
20
1.012718
30
0.0
11
-0.109736
21
1.002875
31
0.0
0
LINE
8
0
62
0
10
-0.099893
20
0.988181
30
0.0
11
-0.109736
21
0.978339
31
0.0
0
LINE
8
0
62
0
10
-0.094230
20
0.914567
30
0.0
11
-0.104073
21
0.904725
31
0.0
0
LINE
8
0
62
0
10
-0.094230
20
0.890029
30
0.0
11
-0.104073
21
0.880186
31
0.0
0
LINE
8
0
62
0
10
-0.164069
20
1.012718
30
0.0
11
-0.173911
21
1.002875
31
0.0
0
LINE
8
0
62
0
10
-0.173911
20
0.904725
30
0.0
11
-0.164069
21
0.914567
31
0.0
0
LINE
8
0
62
0
10
-0.261268
20
0.890029
30
0.0
11
-0.271110
21
0.880186
31
0.0
0
LINE
8
0
62
0
10
-0.253179
20
1.096308
30
0.0
11
-0.243336
21
1.106151
31
0.0
0
LINE
8
0
62
0
10
-0.214079
20
1.106151
30
0.0
11
-0.223921
21
1.096308
31
0.0
0
LINE
8
0
62
0
10
-0.313174
20
1.106151
30
0.0
11
-0.323016
21
1.096308
31
0.0
0
LINE
8
0
62
0
10
-0.344319
20
1.106151
30
0.0
11
-0.354161
21
1.096308
31
0.0
0
LINE
8
0
62
0
10
-0.393383
20
1.106151
30
0.0
11
-0.403225
21
1.096308
31
0.0
0
LINE
8
0
62
0
10
-0.365073
20
1.106151
30
0.0
11
-0.374915
21
1.096308
31
0.0
0
LINE
8
0
62
0
10
-0.365073
20
0.890029
30
0.0
11
-0.374915
21
0.880186
31
0.0
0
LINE
8
0
62
0
10
-0.450011
20
1.106151
30
0.0
11
-0.459853
21
1.096308
31
0.0
0
LINE
8
0
62
0
10
-0.496255
20
1.106151
30
0.0
11
-0.506097
21
1.096308
31
0.0
0
LINE
8
0
62
0
10
-0.467943
20
0.890029
30
0.0
11
-0.477785
21
0.880186
31
0.0
0
LINE
8
0
62
0
10
-0.652430
20
1.047912
30
0.0
11
-0.662272
21
1.038070
31
0.0
0
LINE
8
0
62
0
10
-0.652430
20
0.948284
30
0.0
11
-0.662273
21
0.938441
31
0.0
0
LINE
8
0
62
0
10
-0.679992
20
0.948284
30
0.0
11
-0.689835
21
0.938441
31
0.0
0
LINE
8
0
62
0
10
0.094070
20
0.948284
30
0.0
11
0.084228
21
0.938441
31
0.0
0
LINE
8
0
62
0
10
0.066508
20
0.948284
30
0.0
11
0.056665
21
0.938441
31
0.0
0
LINE
8
0
62
0
10
0.182983
20
1.047912
30
0.0
11
0.173141
21
1.038070
31
0.0
0
LINE
8
0
62
0
10
0.548347
20
0.948284
30
0.0
11
0.538504
21
0.938441
31
0.0
0
LINE
8
0
62
0
10
0.637259
20
1.047912
30
0.0
11
0.627416
21
1.038070
31
0.0
0
LINE
8
0
62
0
10
0.637259
20
0.948284
30
0.0
11
0.627416
21
0.938441
31
0.0
0
LINE
8
0
62
0
10
0.548347
20
1.047912
30
0.0
11
0.538504
21
1.038070
31
0.0
0
LINE
8
0
62
0
10
-0.605317
20
0.948284
30
0.0
11
-0.615159
21
0.938441
31
0.0
0
LINE
8
0
62
0
10
-0.605317
20
1.047912
30
0.0
11
-0.615159
21
1.038070
31
0.0
0
LINE
8
0
62
0
10
-0.516405
20
1.047912
30
0.0
11
-0.526247
21
1.038070
31
0.0
0
LINE
8
0
62
0
10
-0.516405
20
0.948284
30
0.0
11
-0.526247
21
0.938441
31
0.0
0
LINE
8
0
62
0
10
-0.741342
20
0.948284
30
0.0
11
-0.751184
21
0.938441
31
0.0
0
LINE
8
0
62
0
10
-0.741342
20
1.047912
30
0.0
11
-0.751184
21
1.038070
31
0.0
0
LINE
8
0
62
0
10
0.151020
20
1.000259
30
0.0
11
0.141177
21
0.990417
31
0.0
0
LINE
8
0
62
0
10
0.110907
20
1.020534
30
0.0
11
0.101065
21
1.010692
31
0.0
0
LINE
8
0
62
0
10
-0.014044
20
1.106151
30
0.0
11
-0.023886
21
1.096308
31
0.0
0
LINE
8
0
62
0
10
0.035337
20
0.962739
30
0.0
11
0.025495
21
0.952897
31
0.0
0
LINE
8
0
62
0
10
-0.751848
20
1.089093
30
0.0
11
-0.761690
21
1.079250
31
0.0
0
LINE
8
0
62
0
10
-0.615823
20
1.089093
30
0.0
11
-0.625666
21
1.079250
31
0.0
0
LINE
8
0
62
0
10
-0.669488
20
0.907104
30
0.0
11
-0.679330
21
0.897261
31
0.0
0
LINE
8
0
62
0
10
-0.533462
20
0.907104
30
0.0
11
-0.543305
21
0.897261
31
0.0
0
LINE
8
0
62
0
10
0.028665
20
1.003044
30
0.0
11
0.018823
21
0.993201
31
0.0
0
LINE
8
0
62
0
10
0.165925
20
0.907104
30
0.0
11
0.156083
21
0.897261
31
0.0
0
LINE
8
0
62
0
10
0.083565
20
1.089093
30
0.0
11
0.073722
21
1.079250
31
0.0
0
LINE
8
0
62
0
10
0.620201
20
0.907104
30
0.0
11
0.610359
21
0.897261
31
0.0
0
LINE
8
0
62
0
10
0.537840
20
1.089093
30
0.0
11
0.527998
21
1.079250
31
0.0
0
LINE
8
0
62
0
10
-0.023886
20
1.001222
30
0.0
11
-0.014043
21
1.011065
31
0.0
0
LINE
8
0
62
1
10
-0.403225
20
0.910387
30
0.0
11
-0.403225
21
0.952545
31
0.0
0
LINE
8
0
62
1
10
-0.374915
20
1.096308
30
0.0
11
-0.403225
21
1.096308
31
0.0
0
LINE
8
0
62
1
10
-0.374915
20
0.880186
30
0.0
11
-0.374915
21
1.096308
31
0.0
0
LINE
8
0
62
1
10
-0.421160
20
0.880186
30
0.0
11
-0.374915
21
0.880186
31
0.0
0
LINE
8
0
62
1
10
-0.467943
20
1.029892
30
0.0
11
-0.421160
21
0.880186
31
0.0
0
LINE
8
0
62
1
10
-0.477785
20
0.880186
30
0.0
11
-0.477785
21
1.061388
31
0.0
0
LINE
8
0
62
1
10
-0.506097
20
0.880186
30
0.0
11
-0.477785
21
0.880186
31
0.0
0
LINE
8
0
62
1
10
-0.506097
20
1.096308
30
0.0
11
-0.506097
21
0.880186
31
0.0
0
LINE
8
0
62
1
10
-0.459853
20
1.096308
30
0.0
11
-0.506097
21
1.096308
31
0.0
0
LINE
8
0
62
1
10
-0.403225
20
0.910387
30
0.0
11
-0.459853
21
1.096308
31
0.0
0
LINE
8
0
62
1
10
-0.751184
20
0.938441
30
0.0
11
-0.751184
21
1.038070
31
0.0
0
ARC
8
0
62
1
10
-0.720510
20
0.938441
30
0.0
40
0.030675
50
540.000000
51
328.113800
0
LINE
8
0
62
1
10
-0.662273
20
0.938441
30
0.0
11
-0.689835
21
0.938441
31
0.0
0
ARC
8
0
62
1
10
-0.720511
20
0.938441
30
0.0
40
0.058238
50
540.000000
51
315.000000
0
LINE
8
0
62
1
10
-0.778748
20
1.038070
30
0.0
11
-0.778748
21
0.938441
31
0.0
0
ARC
8
0
62
1
10
-0.720510
20
1.038070
30
0.0
40
0.058238
50
360.000000
51
488.136475
0
LINE
8
0
62
1
10
-0.689835
20
1.038070
30
0.0
11
-0.662272
21
1.038070
31
0.0
0
ARC
8
0
62
1
10
-0.720510
20
1.038070
30
0.0
40
0.030675
50
360.000000
51
481.886200
0
ARC
8
0
62
1
10
-0.584484
20
1.038070
30
0.0
40
0.030675
50
360.000000
51
481.886169
0
ARC
8
0
62
1
10
-0.584485
20
1.038070
30
0.0
40
0.058238
50
360.000000
51
488.136475
0
ARC
8
0
62
1
10
-0.584484
20
0.938441
30
0.0
40
0.030675
50
540.000000
51
328.113831
0
LINE
8
0
62
1
10
-0.615159
20
1.038070
30
0.0
11
-0.615159
21
0.938441
31
0.0
0
ARC
8
0
62
1
10
-0.584485
20
0.938441
30
0.0
40
0.058238
50
540.000000
51
315.000000
0
LINE
8
0
62
1
10
-0.526247
20
1.038070
30
0.0
11
-0.526247
21
0.938441
31
0.0
0
LINE
8
0
62
1
10
-0.642723
20
1.038070
30
0.0
11
-0.642723
21
0.938441
31
0.0
0
LINE
8
0
62
1
10
-0.553810
20
1.038070
30
0.0
11
-0.553810
21
0.938441
31
0.0
0
LINE
8
0
62
1
10
-0.477785
20
1.061388
30
0.0
11
-0.467943
21
1.029892
31
0.0
0
LINE
8
0
62
1
10
-0.403225
20
1.096308
30
0.0
11
-0.403225
21
0.952545
31
0.0
0
ARC
8
0
62
1
10
-0.720510
20
0.938441
30
0.0
40
0.030675
50
328.113800
51
360.000000
0
ARC
8
0
62
1
10
-0.720510
20
1.038070
30
0.0
40
0.030675
50
481.886200
51
540.000000
0
ARC
8
0
62
1
10
-0.720510
20
1.038070
30
0.0
40
0.058238
50
488.136475
51
495.000000
0
ARC
8
0
62
1
10
-0.720511
20
0.938441
30
0.0
40
0.058238
50
321.863556
51
360.000000
0
ARC
8
0
62
1
10
-0.584484
20
1.038070
30
0.0
40
0.030675
50
481.886169
51
540.000000
0
ARC
8
0
62
1
10
-0.584484
20
0.938441
30
0.0
40
0.030675
50
328.113831
51
360.000000
0
ARC
8
0
62
1
10
-0.584485
20
1.038070
30
0.0
40
0.058238
50
488.136475
51
495.000000
0
ARC
8
0
62
1
10
-0.584485
20
0.938441
30
0.0
40
0.058238
50
321.863525
51
360.000000
0
ARC
8
0
62
1
10
-0.720510
20
1.038070
30
0.0
40
0.058238
50
495.000000
51
540.000000
0
ARC
8
0
62
1
10
-0.584485
20
1.038070
30
0.0
40
0.058238
50
495.000000
51
540.000000
0
ARC
8
0
62
1
10
-0.720511
20
0.938441
30
0.0
40
0.058238
50
315.000000
51
321.863556
0
ARC
8
0
62
1
10
-0.584485
20
0.938441
30
0.0
40
0.058238
50
315.000000
51
321.863525
0
LINE
8
0
62
2
10
-0.281833
20
0.944011
30
0.0
11
-0.287626
21
0.913219
31
0.0
0
LINE
8
0
62
2
10
-0.223921
20
1.096308
30
0.0
11
-0.253179
21
1.096308
31
0.0
0
LINE
8
0
62
2
10
-0.271110
20
0.880186
30
0.0
11
-0.223921
21
1.096308
31
0.0
0
LINE
8
0
62
2
10
-0.307917
20
0.880186
30
0.0
11
-0.271110
21
0.880186
31
0.0
0
LINE
8
0
62
2
10
-0.354161
20
1.096308
30
0.0
11
-0.307917
21
0.880186
31
0.0
0
LINE
8
0
62
2
10
-0.323016
20
1.096308
30
0.0
11
-0.354161
21
1.096308
31
0.0
0
LINE
8
0
62
2
10
-0.287626
20
0.913219
30
0.0
11
-0.323016
21
1.096308
31
0.0
0
LINE
8
0
62
2
10
-0.173911
20
1.002875
30
0.0
11
-0.173911
21
1.071769
31
0.0
0
LINE
8
0
62
2
10
-0.109736
20
1.002875
30
0.0
11
-0.173911
21
1.002875
31
0.0
0
LINE
8
0
62
2
10
-0.109736
20
0.978339
30
0.0
11
-0.109736
21
1.002875
31
0.0
0
LINE
8
0
62
2
10
-0.164069
20
0.978339
30
0.0
11
-0.109736
21
0.978339
31
0.0
0
LINE
8
0
62
2
10
-0.173911
20
0.904725
30
0.0
11
-0.173911
21
0.978339
31
0.0
0
LINE
8
0
62
2
10
-0.104073
20
0.904725
30
0.0
11
-0.173911
21
0.904725
31
0.0
0
LINE
8
0
62
2
10
-0.104073
20
0.880186
30
0.0
11
-0.104073
21
0.904725
31
0.0
0
LINE
8
0
62
2
10
-0.203168
20
0.880186
30
0.0
11
-0.104073
21
0.880186
31
0.0
0
LINE
8
0
62
2
10
-0.203168
20
1.096308
30
0.0
11
-0.203168
21
0.880186
31
0.0
0
LINE
8
0
62
2
10
-0.105961
20
1.096308
30
0.0
11
-0.203168
21
1.096308
31
0.0
0
LINE
8
0
62
2
10
-0.105961
20
1.071769
30
0.0
11
-0.105961
21
1.096308
31
0.0
0
LINE
8
0
62
2
10
-0.164069
20
1.071769
30
0.0
11
-0.105961
21
1.071769
31
0.0
0
LINE
8
0
62
2
10
-0.055951
20
1.001222
30
0.0
11
-0.055951
21
1.070592
31
0.0
0
LINE
8
0
62
2
10
-0.023886
20
1.096308
30
0.0
11
-0.085207
21
1.096308
31
0.0
0
ARC
8
0
62
2
10
-0.023886
20
1.035909
30
0.0
40
0.060399
50
302.855255
51
315.000000
0
ARC
8
0
62
2
10
-0.030708
20
0.944380
30
0.0
40
0.056845
50
368.616516
51
405.856628
0
LINE
8
0
62
2
10
0.036514
20
0.880186
30
0.0
11
0.025495
21
0.952897
31
0.0
0
LINE
8
0
62
2
10
0.010800
20
0.880186
30
0.0
11
0.036514
21
0.880186
31
0.0
0
LINE
8
0
62
2
10
0.000052
20
0.949171
30
0.0
11
0.010800
21
0.880186
31
0.0
0
ARC
8
0
62
2
10
-0.030706
20
0.944378
30
0.0
40
0.031129
50
368.856232
51
450.007751
0
LINE
8
0
62
2
10
-0.046108
20
0.975506
30
0.0
11
-0.030710
21
0.975508
31
0.0
0
LINE
8
0
62
2
10
-0.055951
20
0.880186
30
0.0
11
-0.055951
21
0.975505
31
0.0
0
LINE
8
0
62
2
10
-0.085207
20
0.880186
30
0.0
11
-0.055951
21
0.880186
31
0.0
0
LINE
8
0
62
2
10
-0.085207
20
1.096308
30
0.0
11
-0.085207
21
0.880186
31
0.0
0
ARC
8
0
62
2
10
-0.023886
20
1.035907
30
0.0
40
0.034685
50
630.000000
51
326.575317
0
LINE
8
0
62
2
10
-0.046108
20
1.070592
30
0.0
11
-0.023886
21
1.070592
31
0.0
0
ARC
8
0
62
2
10
-0.201962
20
0.044302
30
0.0
40
0.017875
50
213.433289
51
270.015991
0
ARC
8
0
62
2
10
-0.199782
20
0.044414
30
0.0
40
0.018119
50
263.104156
51
34.097916
0
ARC
8
0
62
2
10
-0.202533
20
0.039124
30
0.0
40
0.023535
50
41.023712
51
127.558533
0
LINE
8
0
62
2
10
-0.216880
20
0.057782
30
0.0
11
-0.216880
21
0.082662
31
0.0
0
LINE
8
0
62
2
10
-0.216880
20
0.082662
30
0.0
11
-0.182914
21
0.082662
31
0.0
0
ARC
8
0
62
2
10
-0.161433
20
0.040360
30
0.0
40
0.013777
50
199.465439
51
268.514557
0
ARC
8
0
62
2
10
-0.122632
20
0.054600
30
0.0
40
0.055108
50
160.019180
51
199.980820
0
ARC
8
0
62
2
10
-0.161369
20
0.068823
30
0.0
40
0.013842
50
19.447348
51
160.559586
0
ARC
8
0
62
2
10
-0.200107
20
0.054600
30
0.0
40
0.055108
50
340.017426
51
19.982561
0
ARC
8
0
62
2
10
-0.161261
20
0.040285
30
0.0
40
0.013710
50
271.354980
51
340.759247
0
LINE
8
0
62
2
10
-0.193259
20
-0.519183
30
0.0
11
-0.193259
21
-0.463003
31
0.0
0
LINE
8
0
62
2
10
-0.193259
20
-0.463003
30
0.0
11
-0.222352
21
-0.505940
31
0.0
0
LINE
8
0
62
2
10
-0.222352
20
-0.505940
30
0.0
11
-0.185033
21
-0.505940
31
0.0
0
LINE
8
0
62
2
10
-0.179415
20
-0.463003
30
0.0
11
-0.145708
21
-0.463003
31
0.0
0
ARC
8
0
62
2
10
-0.060471
20
-0.519192
30
0.0
40
0.102091
50
146.606873
51
179.994705
0
LINE
8
0
62
2
10
-0.023886
20
1.001222
30
0.0
11
-0.055951
21
1.001222
31
0.0
0
LINE
8
0
62
2
10
-0.055951
20
1.070592
30
0.0
11
-0.046108
21
1.070592
31
0.0
0
ARC
8
0
62
2
10
-0.023886
20
1.035907
30
0.0
40
0.034685
50
326.575317
51
450.000000
0
LINE
8
0
62
2
10
-0.055951
20
0.975505
30
0.0
11
-0.046108
21
0.975506
31
0.0
0
ARC
8
0
62
2
10
-0.023886
20
1.035909
30
0.0
40
0.060399
50
321.616882
51
450.000305
0
ARC
8
0
62
2
10
-0.023886
20
1.035909
30
0.0
40
0.060399
50
316.154449
51
321.616882
0
LINE
8
0
62
2
10
-0.173911
20
0.978339
30
0.0
11
-0.164069
21
0.978339
31
0.0
0
LINE
8
0
62
2
10
-0.173911
20
1.071769
30
0.0
11
-0.164069
21
1.071769
31
0.0
0
LINE
8
0
62
2
10
-0.253179
20
1.096308
30
0.0
11
-0.281833
21
0.944011
31
0.0
0
ARC
8
0
62
2
10
-0.023886
20
1.035909
30
0.0
40
0.060399
50
315.000000
51
316.154449
0
ARC
8
0
62
3
10
0.114901
20
1.038071
30
0.0
40
0.058237
50
540.000610
51
603.183960
0
ARC
8
0
62
3
10
0.114903
20
1.038070
30
0.0
40
0.058238
50
360.000000
51
488.136475
0
LINE
8
0
62
3
10
0.145578
20
1.038070
30
0.0
11
0.173141
21
1.038070
31
0.0
0
ARC
8
0
62
3
10
0.114903
20
1.038070
30
0.0
40
0.030675
50
360.000000
51
481.886200
0
ARC
8
0
62
3
10
0.114905
20
1.038069
30
0.0
40
0.030677
50
539.998413
51
603.182373
0
LINE
8
0
62
3
10
0.141177
20
0.990417
30
0.0
11
0.101065
21
1.010692
31
0.0
0
ARC
8
0
62
3
10
0.114902
20
0.938442
30
0.0
40
0.058238
50
321.863037
51
423.181458
0
ARC
8
0
62
3
10
0.114903
20
0.938441
30
0.0
40
0.058238
50
540.000000
51
315.000000
0
LINE
8
0
62
3
10
0.084228
20
0.938441
30
0.0
11
0.056665
21
0.938441
31
0.0
0
ARC
8
0
62
3
10
0.114903
20
0.938441
30
0.0
40
0.030675
50
540.000000
51
328.113831
0
ARC
8
0
62
3
10
0.114903
20
0.938442
30
0.0
40
0.030675
50
328.113220
51
423.183777
0
LINE
8
0
62
3
10
0.088629
20
0.986097
30
0.0
11
0.128741
21
0.965818
31
0.0
0
LINE
8
0
62
3
10
0.284242
20
0.963642
30
0.0
11
0.286303
21
0.953800
31
0.0
0
LINE
8
0
62
3
10
0.262187
20
1.068941
30
0.0
11
0.237432
21
0.953800
31
0.0
0
LINE
8
0
62
3
10
0.193292
20
0.880186
30
0.0
11
0.221605
21
0.880186
31
0.0
0
LINE
8
0
62
3
10
0.243311
20
1.096308
30
0.0
11
0.193292
21
0.880186
31
0.0
0
LINE
8
0
62
3
10
0.282949
20
1.096308
30
0.0
11
0.243311
21
1.096308
31
0.0
0
LINE
8
0
62
3
10
0.332969
20
0.880186
30
0.0
11
0.282949
21
1.096308
31
0.0
0
LINE
8
0
62
3
10
0.301825
20
0.880186
30
0.0
11
0.332969
21
0.880186
31
0.0
0
LINE
8
0
62
3
10
0.291443
20
0.929263
30
0.0
11
0.301825
21
0.880186
31
0.0
0
LINE
8
0
62
3
10
0.239883
20
0.929263
30
0.0
11
0.291443
21
0.929263
31
0.0
0
LINE
8
0
62
3
10
0.286303
20
0.953800
30
0.0
11
0.237432
21
0.953800
31
0.0
0
LINE
8
0
62
3
10
0.389820
20
0.890029
30
0.0
11
0.389820
21
1.071769
31
0.0
0
LINE
8
0
62
3
10
0.360563
20
0.880186
30
0.0
11
0.389820
21
0.880186
31
0.0
0
LINE
8
0
62
3
10
0.360563
20
1.071769
30
0.0
11
0.360563
21
0.880186
31
0.0
0
LINE
8
0
62
3
10
0.310543
20
1.071769
30
0.0
11
0.360563
21
1.071769
31
0.0
0
LINE
8
0
62
3
10
0.310543
20
1.096308
30
0.0
11
0.310543
21
1.071769
31
0.0
0
LINE
8
0
62
3
10
0.320386
20
1.096308
30
0.0
11
0.310543
21
1.096308
31
0.0
0
LINE
8
0
62
3
10
0.440783
20
1.071769
30
0.0
11
0.440783
21
1.096308
31
0.0
0
LINE
8
0
62
3
10
0.399662
20
1.071769
30
0.0
11
0.440783
21
1.071769
31
0.0
0
LINE
8
0
62
3
10
-0.216880
20
0.628335
30
0.0
11
-0.199188
21
0.601702
31
0.0
0
LINE
8
0
62
3
10
-0.198220
20
0.572155
30
0.0
11
-0.198220
21
0.600245
31
0.0
0
LINE
8
0
62
3
10
-0.198220
20
0.600245
30
0.0
11
-0.179561
21
0.628335
31
0.0
0
ARC
8
0
62
3
10
-0.201305
20
-0.393888
30
0.0
40
0.016195
50
210.522003
51
269.441071
0
LINE
8
0
62
3
10
-0.201463
20
-0.410082
30
0.0
11
-0.195738
21
-0.410138
31
0.0
0
ARC
8
0
62
3
10
-0.195594
20
-0.395354
30
0.0
40
0.014784
50
269.441071
51
357.350677
0
ARC
8
0
62
3
10
-0.192851
20
-0.397128
30
0.0
40
0.012075
50
5.182272
51
59.344830
0
LINE
8
0
62
3
10
-0.186695
20
-0.386741
30
0.0
11
-0.208805
21
-0.377245
31
0.0
0
ARC
8
0
62
3
10
-0.202649
20
-0.366857
30
0.0
40
0.012075
50
185.182404
51
239.344803
0
ARC
8
0
62
3
10
-0.199965
20
-0.368592
30
0.0
40
0.014723
50
91.261345
51
177.491959
0
LINE
8
0
62
3
10
-0.200289
20
-0.353873
30
0.0
11
-0.194578
21
-0.353867
31
0.0
0
ARC
8
0
62
3
10
-0.195088
20
-0.369541
30
0.0
40
0.015682
50
29.271709
51
88.136147
0
LINE
8
0
62
3
10
-0.171212
20
-0.353870
30
0.0
11
-0.171212
21
-0.410049
31
0.0
0
LINE
8
0
62
3
10
-0.169526
20
-0.381959
30
0.0
11
-0.138852
21
-0.381959
31
0.0
0
LINE
8
0
62
3
10
-0.137103
20
-0.410049
30
0.0
11
-0.137103
21
-0.353870
31
0.0
0
LINE
8
0
62
3
10
-0.128380
20
-0.410049
30
0.0
11
-0.112329
21
-0.410049
31
0.0
0
LINE
8
0
62
3
10
-0.120355
20
-0.408363
30
0.0
11
-0.120355
21
-0.355555
31
0.0
0
LINE
8
0
62
3
10
-0.128380
20
-0.353870
30
0.0
11
-0.112414
21
-0.353870
31
0.0
0
LINE
8
0
62
3
10
-0.078111
20
-0.381958
30
0.0
11
-0.102156
21
-0.381958
31
0.0
0
LINE
8
0
62
3
10
-0.103833
20
-0.410048
30
0.0
11
-0.103833
21
-0.353868
31
0.0
0
LINE
8
0
62
3
10
-0.103833
20
-0.353868
30
0.0
11
-0.073697
21
-0.353868
31
0.0
0
LINE
8
0
62
3
10
-0.044652
20
-0.410049
30
0.0
11
-0.044652
21
-0.355574
31
0.0
0
LINE
8
0
62
3
10
-0.062609
20
-0.353870
30
0.0
11
-0.026694
21
-0.353870
31
0.0
0
LINE
8
0
62
3
10
-0.132347
20
-0.628317
30
0.0
11
-0.165292
21
-0.628317
31
0.0
0
LINE
8
0
62
3
10
-0.165292
20
-0.628317
30
0.0
11
-0.165312
21
-0.600228
31
0.0
0
LINE
8
0
62
3
10
-0.165312
20
-0.600228
30
0.0
11
-0.139570
21
-0.600228
31
0.0
0
LINE
8
0
62
3
10
-0.165313
20
-0.599385
30
0.0
11
-0.165332
21
-0.572138
31
0.0
0
LINE
8
0
62
3
10
-0.165332
20
-0.572138
30
0.0
11
-0.135156
21
-0.572138
31
0.0
0
LINE
8
0
62
3
10
-0.128799
20
-0.628317
30
0.0
11
-0.128799
21
-0.572137
31
0.0
0
LINE
8
0
62
3
10
-0.128799
20
-0.572137
30
0.0
11
-0.094302
21
-0.628317
31
0.0
0
LINE
8
0
62
3
10
-0.094302
20
-0.628317
30
0.0
11
-0.094302
21
-0.572137
31
0.0
0
LINE
8
0
62
3
10
-0.065257
20
-0.628317
30
0.0
11
-0.065257
21
-0.573841
31
0.0
0
LINE
8
0
62
3
10
-0.083214
20
-0.572137
30
0.0
11
-0.047300
21
-0.572137
31
0.0
0
LINE
8
0
62
3
10
-0.008131
20
-0.628317
30
0.0
11
-0.041077
21
-0.628317
31
0.0
0
LINE
8
0
62
3
10
-0.041077
20
-0.628317
30
0.0
11
-0.041097
21
-0.600228
31
0.0
0
LINE
8
0
62
3
10
-0.041097
20
-0.600228
30
0.0
11
-0.015355
21
-0.600228
31
0.0
0
LINE
8
0
62
3
10
-0.041098
20
-0.599385
30
0.0
11
-0.041117
21
-0.572138
31
0.0
0
LINE
8
0
62
3
10
-0.041117
20
-0.572138
30
0.0
11
-0.010940
21
-0.572138
31
0.0
0
LINE
8
0
62
3
10
-0.002514
20
-0.628317
30
0.0
11
-0.002514
21
-0.572137
31
0.0
0
LINE
8
0
62
3
10
-0.002514
20
-0.572137
30
0.0
11
0.017871
21
-0.572137
31
0.0
0
ARC
8
0
62
3
10
0.017601
20
-0.586182
30
0.0
40
0.014047
50
271.095276
51
88.895920
0
LINE
8
0
62
3
10
0.017869
20
-0.600227
30
0.0
11
-0.000670
21
-0.600227
31
0.0
0
LINE
8
0
62
3
10
0.018670
20
-0.601828
30
0.0
11
0.031916
21
-0.628317
31
0.0
0
LINE
8
0
62
3
10
-0.132347
20
-0.082648
30
0.0
11
-0.165292
21
-0.082648
31
0.0
0
LINE
8
0
62
3
10
-0.165292
20
-0.082648
30
0.0
11
-0.165312
21
-0.054558
31
0.0
0
LINE
8
0
62
3
10
-0.165312
20
-0.054558
30
0.0
11
-0.139570
21
-0.054558
31
0.0
0
LINE
8
0
62
3
10
-0.165313
20
-0.053716
30
0.0
11
-0.165332
21
-0.026469
31
0.0
0
LINE
8
0
62
3
10
-0.165332
20
-0.026469
30
0.0
11
-0.135156
21
-0.026469
31
0.0
0
LINE
8
0
62
3
10
-0.128799
20
-0.082647
30
0.0
11
-0.128799
21
-0.026468
31
0.0
0
LINE
8
0
62
3
10
-0.128799
20
-0.026468
30
0.0
11
-0.094302
21
-0.082647
31
0.0
0
LINE
8
0
62
3
10
-0.094302
20
-0.082647
30
0.0
11
-0.094302
21
-0.026468
31
0.0
0
LINE
8
0
62
3
10
-0.065257
20
-0.082647
30
0.0
11
-0.065257
21
-0.028172
31
0.0
0
LINE
8
0
62
3
10
-0.083214
20
-0.026468
30
0.0
11
-0.047300
21
-0.026468
31
0.0
0
LINE
8
0
62
3
10
-0.008131
20
-0.082648
30
0.0
11
-0.041077
21
-0.082648
31
0.0
0
LINE
8
0
62
3
10
-0.041077
20
-0.082648
30
0.0
11
-0.041097
21
-0.054558
31
0.0
0
LINE
8
0
62
3
10
-0.041097
20
-0.054558
30
0.0
11
-0.015355
21
-0.054558
31
0.0
0
LINE
8
0
62
3
10
-0.041098
20
-0.053716
30
0.0
11
-0.041117
21
-0.026469
31
0.0
0
LINE
8
0
62
3
10
-0.041117
20
-0.026469
30
0.0
11
-0.010940
21
-0.026469
31
0.0
0
LINE
8
0
62
3
10
-0.002514
20
-0.082647
30
0.0
11
-0.002514
21
-0.026468
31
0.0
0
LINE
8
0
62
3
10
-0.002514
20
-0.026468
30
0.0
11
0.017871
21
-0.026468
31
0.0
0
ARC
8
0
62
3
10
0.017601
20
-0.040513
30
0.0
40
0.014047
50
271.095276
51
88.895920
0
LINE
8
0
62
3
10
0.017869
20
-0.054558
30
0.0
11
-0.000670
21
-0.054558
31
0.0
0
LINE
8
0
62
3
10
0.018670
20
-0.056158
30
0.0
11
0.031916
21
-0.082647
31
0.0
0
ARC
8
0
62
3
10
-0.201305
20
0.479183
30
0.0
40
0.016195
50
210.522003
51
269.441071
0
LINE
8
0
62
3
10
-0.201463
20
0.462989
30
0.0
11
-0.195738
21
0.462933
31
0.0
0
ARC
8
0
62
3
10
-0.195594
20
0.477716
30
0.0
40
0.014784
50
269.441071
51
357.350677
0
ARC
8
0
62
3
10
-0.192851
20
0.475942
30
0.0
40
0.012075
50
5.182272
51
59.344830
0
LINE
8
0
62
3
10
-0.186695
20
0.486330
30
0.0
11
-0.208805
21
0.495826
31
0.0
0
ARC
8
0
62
3
10
-0.202649
20
0.506213
30
0.0
40
0.012075
50
185.182404
51
212.263611
0
ARC
8
0
62
3
10
-0.199965
20
0.504478
30
0.0
40
0.014723
50
91.261345
51
177.491959
0
LINE
8
0
62
3
10
-0.200289
20
0.519198
30
0.0
11
-0.194578
21
0.519204
31
0.0
0
ARC
8
0
62
3
10
-0.195088
20
0.503530
30
0.0
40
0.015682
50
29.271709
51
88.136147
0
ARC
8
0
62
3
10
0.123850
20
0.483500
30
0.0
40
0.020660
50
204.386841
51
324.320007
0
ARC
8
0
62
3
10
0.152438
20
0.491021
30
0.0
40
0.050049
50
161.294128
51
198.705872
0
ARC
8
0
62
3
10
0.123850
20
0.498541
30
0.0
40
0.020660
50
35.680031
51
155.613174
0
ARC
8
0
62
3
10
-0.202649
20
0.506213
30
0.0
40
0.012075
50
212.263611
51
239.344803
0
LINE
8
0
62
3
10
0.221605
20
0.880186
30
0.0
11
0.232156
21
0.929263
31
0.0
0
LINE
8
0
62
3
10
0.389820
20
0.880186
30
0.0
11
0.389820
21
0.890029
31
0.0
0
LINE
8
0
62
3
10
0.440783
20
1.096308
30
0.0
11
0.320386
21
1.096308
31
0.0
0
LINE
8
0
62
3
10
0.389820
20
1.071769
30
0.0
11
0.399662
21
1.071769
31
0.0
0
LINE
8
0
62
3
10
0.262187
20
1.068941
30
0.0
11
0.265999
21
1.050737
31
0.0
0
LINE
8
0
62
3
10
0.265999
20
1.050737
30
0.0
11
0.284242
21
0.963642
31
0.0
0
LINE
8
0
62
3
10
0.232156
20
0.929263
30
0.0
11
0.239883
21
0.929263
31
0.0
0
ARC
8
0
62
3
10
0.114903
20
1.038070
30
0.0
40
0.030675
50
481.886200
51
540.000000
0
ARC
8
0
62
3
10
0.114903
20
1.038070
30
0.0
40
0.058238
50
488.136475
51
495.000000
0
ARC
8
0
62
3
10
0.114903
20
0.938441
30
0.0
40
0.058238
50
315.000000
51
321.863556
0
ARC
8
0
62
3
10
0.114903
20
1.038070
30
0.0
40
0.058238
50
495.000000
51
540.000000
0
LINE
8
0
62
3
10
-0.216880
20
0.191799
30
0.0
11
-0.197195
21
0.191799
31
0.0
0
LINE
8
0
62
3
10
-0.216880
20
0.135620
30
0.0
11
-0.197195
21
0.135620
31
0.0
0
LINE
8
0
62
3
10
-0.216880
20
0.191799
30
0.0
11
-0.216880
21
0.135620
31
0.0
0
LINE
8
0
62
3
10
0.060556
20
-0.353870
30
0.0
11
0.080241
21
-0.353870
31
0.0
0
LINE
8
0
62
3
10
0.060556
20
-0.410049
30
0.0
11
0.080241
21
-0.410049
31
0.0
0
LINE
8
0
62
3
10
0.060556
20
-0.353870
30
0.0
11
0.060556
21
-0.410049
31
0.0
0
LINE
8
0
62
4
10
0.461535
20
1.096308
30
0.0
11
0.490790
21
1.096308
31
0.0
0
LINE
8
0
62
4
10
0.490790
20
0.880186
30
0.0
11
0.461535
21
0.880186
31
0.0
0
LINE
8
0
62
4
10
0.629921
20
-0.787402
30
0.0
11
-0.629921
21
-0.787402
31
0.0
0
LINE
8
0
62
4
10
0.787402
20
-0.629921
30
0.0
11
0.787402
21
0.629921
31
0.0
0
LINE
8
0
62
4
10
0.490790
20
1.096308
30
0.0
11
0.490790
21
0.880186
31
0.0
0
LINE
8
0
62
4
10
0.461535
20
1.096308
30
0.0
11
0.461535
21
0.880186
31
0.0
0
ARC
8
0
62
4
10
-0.629921
20
0.629921
30
0.0
40
0.157480
50
90.000000
51
180.000000
0
ARC
8
0
62
4
10
0.629921
20
0.629921
30
0.0
40
0.157480
50
360.000000
51
90.000000
0
ARC
8
0
62
4
10
0.629921
20
-0.629921
30
0.0
40
0.157480
50
270.000000
51
360.000000
0
ARC
8
0
62
4
10
-0.629921
20
-0.629921
30
0.0
40
0.157480
50
180.000000
51
270.000000
0
LINE
8
0
62
4
10
-0.787402
20
0.629921
30
0.0
11
-0.787402
21
-0.629921
31
0.0
0
LINE
8
0
62
4
10
-0.629921
20
0.787402
30
0.0
11
0.629921
21
0.787402
31
0.0
0
ARC
8
0
62
4
10
0.569179
20
1.038070
30
0.0
40
0.030675
50
360.000000
51
481.886169
0
LINE
8
0
62
4
10
0.538504
20
0.938441
30
0.0
11
0.538504
21
1.038070
31
0.0
0
ARC
8
0
62
4
10
0.569178
20
1.038070
30
0.0
40
0.058238
50
360.000000
51
488.136475
0
LINE
8
0
62
4
10
0.627416
20
0.938441
30
0.0
11
0.627416
21
1.038070
31
0.0
0
LINE
8
0
62
4
10
0.750438
20
0.952545
30
0.0
11
0.750438
21
0.910387
31
0.0
0
LINE
8
0
62
4
10
0.732504
20
0.880186
30
0.0
11
0.778748
21
0.880186
31
0.0
0
LINE
8
0
62
4
10
0.685720
20
1.029892
30
0.0
11
0.732504
21
0.880186
31
0.0
0
LINE
8
0
62
4
10
0.675878
20
0.890029
30
0.0
11
0.675878
21
1.061388
31
0.0
0
LINE
8
0
62
4
10
0.647566
20
0.880186
30
0.0
11
0.675878
21
0.880186
31
0.0
0
LINE
8
0
62
4
10
0.647566
20
1.096308
30
0.0
11
0.647566
21
0.880186
31
0.0
0
LINE
8
0
62
4
10
0.693810
20
1.096308
30
0.0
11
0.647566
21
1.096308
31
0.0
0
LINE
8
0
62
4
10
0.750438
20
0.910387
30
0.0
11
0.693810
21
1.096308
31
0.0
0
LINE
8
0
62
4
10
-0.027730
20
0.263616
30
0.0
11
-0.027730
21
0.244751
31
0.0
0
LINE
8
0
62
4
10
-0.007345
20
0.300930
30
0.0
11
-0.027730
21
0.300930
31
0.0
0
ARC
8
0
62
4
10
-0.008180
20
0.286885
30
0.0
40
0.014070
50
273.401001
51
86.599007
0
LINE
8
0
62
4
10
-0.026887
20
0.272841
30
0.0
11
-0.007345
21
0.272841
31
0.0
0
LINE
8
0
62
4
10
0.012318
20
0.260803
30
0.0
11
0.012318
21
0.300930
31
0.0
0
ARC
8
0
62
4
10
0.028769
20
0.261068
30
0.0
40
0.016454
50
180.923920
51
0.472477
0
LINE
8
0
62
4
10
0.045223
20
0.300930
30
0.0
11
0.045223
21
0.261204
31
0.0
0
LINE
8
0
62
4
10
0.053650
20
0.300930
30
0.0
11
0.053650
21
0.244751
31
0.0
0
LINE
8
0
62
4
10
0.074035
20
0.300930
30
0.0
11
0.053650
21
0.300930
31
0.0
0
ARC
8
0
62
4
10
0.073764
20
0.286885
30
0.0
40
0.014047
50
271.095276
51
88.895920
0
LINE
8
0
62
4
10
0.055493
20
0.272841
30
0.0
11
0.074032
21
0.272841
31
0.0
0
LINE
8
0
62
4
10
0.088079
20
0.244751
30
0.0
11
0.074833
21
0.271240
31
0.0
0
LINE
8
0
62
4
10
0.095102
20
0.300930
30
0.0
11
0.095102
21
0.244751
31
0.0
0
LINE
8
0
62
4
10
0.115487
20
0.300930
30
0.0
11
0.095102
21
0.300930
31
0.0
0
ARC
8
0
62
4
10
0.114652
20
0.286885
30
0.0
40
0.014070
50
273.401001
51
86.599007
0
LINE
8
0
62
4
10
0.095944
20
0.272841
30
0.0
11
0.115487
21
0.272841
31
0.0
0
LINE
8
0
62
4
10
0.135150
20
0.244751
30
0.0
11
0.135150
21
0.300930
31
0.0
0
LINE
8
0
62
4
10
0.168095
20
0.244751
30
0.0
11
0.135150
21
0.244751
31
0.0
0
LINE
8
0
62
4
10
0.175521
20
0.244750
30
0.0
11
0.208467
21
0.244750
31
0.0
0
LINE
8
0
62
4
10
0.175501
20
0.272840
30
0.0
11
0.175521
21
0.244750
31
0.0
0
LINE
8
0
62
4
10
0.201244
20
0.272840
30
0.0
11
0.175501
21
0.272840
31
0.0
0
LINE
8
0
62
4
10
0.175481
20
0.300930
30
0.0
11
0.175500
21
0.273682
31
0.0
0
LINE
8
0
62
4
10
0.205658
20
0.300930
30
0.0
11
0.175481
21
0.300930
31
0.0
0
LINE
8
0
62
4
10
0.778748
20
1.096308
30
0.0
11
0.750436
21
1.096308
31
0.0
0
LINE
8
0
62
4
10
0.778748
20
0.880186
30
0.0
11
0.778748
21
1.096308
31
0.0
0
LINE
8
0
62
4
10
-0.167797
20
0.272876
30
0.0
11
-0.188111
21
0.272876
31
0.0
0
ARC
8
0
62
4
10
-0.167801
20
0.258813
30
0.0
40
0.014062
50
270.000000
51
89.981880
0
LINE
8
0
62
4
10
-0.189799
20
0.244751
30
0.0
11
-0.167801
21
0.244751
31
0.0
0
LINE
8
0
62
4
10
-0.189799
20
0.300930
30
0.0
11
-0.189799
21
0.244751
31
0.0
0
LINE
8
0
62
4
10
-0.170312
20
0.300930
30
0.0
11
-0.189799
21
0.300930
31
0.0
0
ARC
8
0
62
4
10
-0.170425
20
0.286812
30
0.0
40
0.014119
50
296.191833
51
89.543999
0
LINE
8
0
62
4
10
-0.128934
20
0.244681
30
0.0
11
-0.145006
21
0.244681
31
0.0
0
LINE
8
0
62
4
10
-0.136970
20
0.299243
30
0.0
11
-0.136970
21
0.246369
31
0.0
0
LINE
8
0
62
4
10
-0.129019
20
0.300930
30
0.0
11
-0.145006
21
0.300930
31
0.0
0
LINE
8
0
62
4
10
-0.083315
20
0.269550
30
0.0
11
-0.107050
21
0.269550
31
0.0
0
ARC
8
0
62
4
10
-0.083315
20
0.267863
30
0.0
40
0.001687
50
0.000000
51
90.000000
0
LINE
8
0
62
4
10
-0.081628
20
0.263616
30
0.0
11
-0.081628
21
0.267863
31
0.0
0
ARC
8
0
62
4
10
-0.100779
20
0.263469
30
0.0
40
0.019152
50
200.855255
51
0.439684
0
ARC
8
0
62
4
10
-0.071216
20
0.272719
30
0.0
40
0.050106
50
161.293991
51
198.703979
0
ARC
8
0
62
4
10
-0.099838
20
0.280248
30
0.0
40
0.020684
50
35.680031
51
155.613174
0
LINE
8
0
62
4
10
-0.027730
20
0.300930
30
0.0
11
-0.027730
21
0.263616
31
0.0
0
LINE
8
0
62
4
10
0.510940
20
0.938441
30
0.0
11
0.510940
21
1.038070
31
0.0
0
ARC
8
0
62
4
10
0.569179
20
0.938441
30
0.0
40
0.030675
50
540.000000
51
328.113831
0
ARC
8
0
62
4
10
0.569178
20
0.938441
30
0.0
40
0.058238
50
540.000000
51
315.000000
0
LINE
8
0
62
4
10
0.599854
20
1.038070
30
0.0
11
0.599854
21
0.938441
31
0.0
0
LINE
8
0
62
4
10
0.750438
20
1.096308
30
0.0
11
0.750438
21
0.952545
31
0.0
0
LINE
8
0
62
4
10
0.675878
20
1.061388
30
0.0
11
0.685720
21
1.029892
31
0.0
0
LINE
8
0
62
4
10
0.675878
20
0.880186
30
0.0
11
0.675878
21
0.890029
31
0.0
0
ARC
8
0
62
4
10
0.569179
20
1.038070
30
0.0
40
0.030675
50
481.886169
51
540.000000
0
ARC
8
0
62
4
10
0.569179
20
0.938441
30
0.0
40
0.030675
50
328.113831
51
360.000000
0
ARC
8
0
62
4
10
0.569178
20
0.938441
30
0.0
40
0.058238
50
321.863525
51
360.000000
0
ARC
8
0
62
4
10
0.569178
20
1.038070
30
0.0
40
0.058238
50
488.136475
51
495.000000
0
ARC
8
0
62
4
10
0.569178
20
0.938441
30
0.0
40
0.058238
50
315.000000
51
321.863525
0
ARC
8
0
62
4
10
0.569178
20
1.038070
30
0.0
40
0.058238
50
495.000000
51
540.000000
0
ARC
8
0
62
4
10
0.264224
20
0.260912
30
0.0
40
0.016195
50
210.522003
51
269.441071
0
LINE
8
0
62
4
10
0.269791
20
0.244662
30
0.0
11
0.264066
21
0.244718
31
0.0
0
ARC
8
0
62
4
10
0.269935
20
0.259446
30
0.0
40
0.014784
50
269.441071
51
357.350677
0
ARC
8
0
62
4
10
0.272678
20
0.257672
30
0.0
40
0.012075
50
5.182272
51
59.344830
0
LINE
8
0
62
4
10
0.256724
20
0.277555
30
0.0
11
0.278835
21
0.268059
31
0.0
0
ARC
8
0
62
4
10
0.262881
20
0.287942
30
0.0
40
0.012075
50
185.182404
51
239.344803
0
ARC
8
0
62
4
10
0.265565
20
0.286207
30
0.0
40
0.014723
50
91.261345
51
177.491959
0
LINE
8
0
62
4
10
0.270952
20
0.300933
30
0.0
11
0.265240
21
0.300927
31
0.0
0
ARC
8
0
62
4
10
0.270442
20
0.285259
30
0.0
40
0.015682
50
29.271709
51
88.136147
0
LINE
8
0
62
4
10
0.336207
20
0.245524
30
0.0
11
0.318385
21
0.259128
31
0.0
0
ARC
8
0
62
4
10
0.316090
20
0.261261
30
0.0
40
0.016707
50
195.902084
51
315.740295
0
ARC
8
0
62
4
10
0.347428
20
0.272735
30
0.0
40
0.050049
50
161.294113
51
198.705887
0
ARC
8
0
62
4
10
0.316090
20
0.284230
30
0.0
40
0.016701
50
15.832771
51
164.168289
0
ARC
8
0
62
4
10
0.285415
20
0.273027
30
0.0
40
0.049328
50
335.052795
51
18.631470
0
LINE
8
0
62
4
10
0.341382
20
0.260803
30
0.0
11
0.341382
21
0.300930
31
0.0
0
ARC
8
0
62
4
10
0.357833
20
0.261068
30
0.0
40
0.016454
50
180.923920
51
0.472477
0
LINE
8
0
62
4
10
0.374287
20
0.300930
30
0.0
11
0.374287
21
0.261204
31
0.0
0
LINE
8
0
62
4
10
0.400972
20
0.300930
30
0.0
11
0.379905
21
0.244751
31
0.0
0
LINE
8
0
62
4
10
0.422039
20
0.244751
30
0.0
11
0.400972
21
0.300930
31
0.0
0
LINE
8
0
62
4
10
0.415839
20
0.256789
30
0.0
11
0.386104
21
0.256789
31
0.0
0
LINE
8
0
62
4
10
0.430466
20
0.300930
30
0.0
11
0.430466
21
0.244751
31
0.0
0
LINE
8
0
62
4
10
0.450851
20
0.300930
30
0.0
11
0.430466
21
0.300930
31
0.0
0
ARC
8
0
62
4
10
0.450580
20
0.286885
30
0.0
40
0.014047
50
271.095276
51
88.895920
0
LINE
8
0
62
4
10
0.432310
20
0.272841
30
0.0
11
0.450849
21
0.272841
31
0.0
0
LINE
8
0
62
4
10
0.464896
20
0.244751
30
0.0
11
0.451649
21
0.271240
31
0.0
0
LINE
8
0
62
4
10
0.471119
20
0.244750
30
0.0
11
0.504064
21
0.244750
31
0.0
0
LINE
8
0
62
4
10
0.471099
20
0.272840
30
0.0
11
0.471119
21
0.244750
31
0.0
0
LINE
8
0
62
4
10
0.496841
20
0.272840
30
0.0
11
0.471099
21
0.272840
31
0.0
0
LINE
8
0
62
4
10
0.471079
20
0.300930
30
0.0
11
0.471097
21
0.273682
31
0.0
0
LINE
8
0
62
4
10
0.501255
20
0.300930
30
0.0
11
0.471079
21
0.300930
31
0.0
0
ARC
8
0
62
5
10
-0.629921
20
-0.629921
30
0.0
40
0.066929
50
360.000000
51
180.000000
0
ARC
8
0
62
5
10
-0.629921
20
-0.629921
30
0.0
40
0.066929
50
180.000000
51
360.000000
0
ARC
8
0
62
5
10
0.629921
20
-0.629921
30
0.0
40
0.066929
50
360.000000
51
180.000000
0
ARC
8
0
62
5
10
0.629921
20
-0.629921
30
0.0
40
0.066929
50
180.000000
51
360.000000
0
ARC
8
0
62
5
10
0.629921
20
0.629921
30
0.0
40
0.066929
50
360.000000
51
180.000000
0
ARC
8
0
62
5
10
0.629921
20
0.629921
30
0.0
40
0.066929
50
180.000000
51
360.000000
0
ARC
8
0
62
5
10
-0.629921
20
0.629921
30
0.0
40
0.066929
50
360.000000
51
180.000000
0
ARC
8
0
62
5
10
-0.629921
20
0.629921
30
0.0
40
0.066929
50
180.000000
51
360.000000
0
LINE
8
0
62
5
10
0.186904
20
0.390583
30
0.0
11
0.166615
21
0.390583
31
0.0
0
ARC
8
0
62
5
10
0.186900
20
0.376538
30
0.0
40
0.014045
50
270.000000
51
89.981880
0
LINE
8
0
62
5
10
0.164930
20
0.362493
30
0.0
11
0.186900
21
0.362493
31
0.0
0
LINE
8
0
62
5
10
0.164930
20
0.418603
30
0.0
11
0.164930
21
0.362493
31
0.0
0
LINE
8
0
62
5
10
0.184392
20
0.418603
30
0.0
11
0.164930
21
0.418603
31
0.0
0
ARC
8
0
62
5
10
0.184280
20
0.404502
30
0.0
40
0.014102
50
296.191833
51
89.543999
0
LINE
8
0
62
5
10
0.206563
20
0.362424
30
0.0
11
0.206563
21
0.418603
31
0.0
0
LINE
8
0
62
5
10
0.239508
20
0.362424
30
0.0
11
0.206563
21
0.362424
31
0.0
0
LINE
8
0
62
5
10
0.246329
20
0.378475
30
0.0
11
0.246329
21
0.418603
31
0.0
0
ARC
8
0
62
5
10
0.262781
20
0.378740
30
0.0
40
0.016454
50
180.923920
51
0.472477
0
LINE
8
0
62
5
10
0.279234
20
0.418603
30
0.0
11
0.279234
21
0.378876
31
0.0
0
LINE
8
0
62
5
10
0.285457
20
0.362423
30
0.0
11
0.318403
21
0.362423
31
0.0
0
LINE
8
0
62
5
10
0.285437
20
0.390513
30
0.0
11
0.285457
21
0.362423
31
0.0
0
LINE
8
0
62
5
10
0.311179
20
0.390513
30
0.0
11
0.285437
21
0.390513
31
0.0
0
LINE
8
0
62
5
10
0.285417
20
0.418602
30
0.0
11
0.285436
21
0.391355
31
0.0
0
LINE
8
0
62
5
10
0.315594
20
0.418602
30
0.0
11
0.285417
21
0.418602
31
0.0
0
ARC
8
0
62
5
10
0.372010
20
0.382992
30
0.0
40
0.020660
50
204.386841
51
324.320007
0
ARC
8
0
62
5
10
0.400599
20
0.390513
30
0.0
40
0.050049
50
161.294128
51
198.705872
0
ARC
8
0
62
5
10
0.372010
20
0.398033
30
0.0
40
0.020660
50
35.680031
51
155.613174
0
LINE
8
0
62
5
10
0.397514
20
0.362514
30
0.0
11
0.413565
21
0.362514
31
0.0
0
LINE
8
0
62
5
10
0.405540
20
0.364199
30
0.0
11
0.405540
21
0.417008
31
0.0
0
LINE
8
0
62
5
10
0.397514
20
0.418693
30
0.0
11
0.413481
21
0.418693
31
0.0
0
LINE
8
0
62
5
10
0.422056
20
0.362514
30
0.0
11
0.422056
21
0.418693
31
0.0
0
LINE
8
0
62
5
10
0.422056
20
0.418693
30
0.0
11
0.442441
21
0.418693
31
0.0
0
ARC
8
0
62
5
10
0.442170
20
0.404649
30
0.0
40
0.014047
50
271.095276
51
88.895920
0
LINE
8
0
62
5
10
0.442438
20
0.390604
30
0.0
11
0.423899
21
0.390604
31
0.0
0
LINE
8
0
62
5
10
0.443239
20
0.389003
30
0.0
11
0.456485
21
0.362514
31
0.0
0
ARC
8
0
62
5
10
0.483564
20
0.382992
30
0.0
40
0.020660
50
204.386841
51
324.320007
0
ARC
8
0
62
5
10
0.512152
20
0.390513
30
0.0
40
0.050049
50
161.294128
51
198.705872
0
ARC
8
0
62
5
10
0.483564
20
0.398033
30
0.0
40
0.020660
50
35.680031
51
155.613174
0
LINE
8
0
62
5
10
0.505963
20
0.418693
30
0.0
11
0.505963
21
0.362514
31
0.0
0
LINE
8
0
62
5
10
0.505963
20
0.362514
30
0.0
11
0.538908
21
0.362514
31
0.0
0
LINE
8
0
62
5
10
0.579280
20
0.362514
30
0.0
11
0.546335
21
0.362514
31
0.0
0
LINE
8
0
62
5
10
0.546335
20
0.362514
30
0.0
11
0.546315
21
0.390603
31
0.0
0
LINE
8
0
62
5
10
0.546315
20
0.390603
30
0.0
11
0.572057
21
0.390603
31
0.0
0
LINE
8
0
62
5
10
0.546314
20
0.391445
30
0.0
11
0.546295
21
0.418693
31
0.0
0
LINE
8
0
62
5
10
0.546295
20
0.418693
30
0.0
11
0.576471
21
0.418693
31
0.0
0
ARC
8
0
62
5
10
0.600327
20
0.378675
30
0.0
40
0.016195
50
210.522003
51
269.441071
0
LINE
8
0
62
5
10
0.600169
20
0.362481
30
0.0
11
0.605894
21
0.362425
31
0.0
0
ARC
8
0
62
5
10
0.606038
20
0.377209
30
0.0
40
0.014784
50
269.441071
51
357.350677
0
ARC
8
0
62
5
10
0.608781
20
0.375435
30
0.0
40
0.012075
50
5.182272
51
59.344830
0
LINE
8
0
62
5
10
0.614938
20
0.385822
30
0.0
11
0.592827
21
0.395318
31
0.0
0
ARC
8
0
62
5
10
0.598984
20
0.405705
30
0.0
40
0.012075
50
185.182404
51
239.344803
0
ARC
8
0
62
5
10
0.601667
20
0.403971
30
0.0
40
0.014723
50
91.261345
51
177.491959
0
LINE
8
0
62
5
10
0.601343
20
0.418690
30
0.0
11
0.607055
21
0.418696
31
0.0
0
ARC
8
0
62
5
10
0.606545
20
0.403022
30
0.0
40
0.015682
50
29.271709
51
88.136147
0
LINE
8
0
62
5
10
-0.189799
20
0.362495
30
0.0
11
-0.168758
21
0.418604
31
0.0
0
LINE
8
0
62
5
10
-0.168758
20
0.418604
30
0.0
11
-0.147717
21
0.362495
31
0.0
0
LINE
8
0
62
5
10
-0.183607
20
0.374518
30
0.0
11
-0.153909
21
0.374518
31
0.0
0
LINE
8
0
62
5
10
-0.142106
20
0.418604
30
0.0
11
-0.142106
21
0.362495
31
0.0
0
LINE
8
0
62
5
10
-0.142106
20
0.362495
30
0.0
11
-0.109202
21
0.362495
31
0.0
0
LINE
8
0
62
5
10
-0.102388
20
0.418604
30
0.0
11
-0.102388
21
0.362495
31
0.0
0
LINE
8
0
62
5
10
-0.102388
20
0.362495
30
0.0
11
-0.069484
21
0.362495
31
0.0
0
LINE
8
0
62
5
10
-0.004424
20
0.390549
30
0.0
11
-0.028439
21
0.390549
31
0.0
0
LINE
8
0
62
5
10
-0.030114
20
0.362495
30
0.0
11
-0.030114
21
0.418604
31
0.0
0
LINE
8
0
62
5
10
-0.030114
20
0.418604
30
0.0
11
-0.000016
21
0.418604
31
0.0
0
ARC
8
0
62
5
10
0.024431
20
0.379080
30
0.0
40
0.016695
50
196.004822
51
267.948395
0
ARC
8
0
62
5
10
0.055730
20
0.390508
30
0.0
40
0.049987
50
161.294113
51
198.705887
0
ARC
8
0
62
5
10
0.024431
20
0.401899
30
0.0
40
0.016705
50
16.128889
51
163.872177
0
ARC
8
0
62
5
10
-0.006867
20
0.390508
30
0.0
40
0.049987
50
341.293762
51
18.706244
0
ARC
8
0
62
5
10
0.024431
20
0.379080
30
0.0
40
0.016695
50
272.763977
51
343.994110
0
LINE
8
0
62
5
10
0.049892
20
0.418603
30
0.0
11
0.049892
21
0.378525
31
0.0
0
ARC
8
0
62
5
10
0.066323
20
0.378790
30
0.0
40
0.016433
50
180.923920
51
0.472477
0
LINE
8
0
62
5
10
0.082756
20
0.378926
30
0.0
11
0.082756
21
0.418603
31
0.0
0
LINE
8
0
62
5
10
0.091173
20
0.362493
30
0.0
11
0.091173
21
0.418603
31
0.0
0
LINE
8
0
62
5
10
0.091173
20
0.418603
30
0.0
11
0.111532
21
0.418603
31
0.0
0
ARC
8
0
62
5
10
0.111262
20
0.404575
30
0.0
40
0.014030
50
271.095276
51
88.895920
0
LINE
8
0
62
5
10
0.111530
20
0.390548
30
0.0
11
0.093014
21
0.390548
31
0.0
0
LINE
8
0
62
5
10
0.112330
20
0.388950
30
0.0
11
0.125560
21
0.362493
31
0.0
0
LINE
8
0
62
6
10
-0.365073
20
1.106151
30
0.0
11
-0.393383
21
1.106151
31
0.0
0
LINE
8
0
62
6
10
-0.365073
20
0.890029
30
0.0
11
-0.365073
21
1.106151
31
0.0
0
LINE
8
0
62
6
10
-0.450011
20
1.106151
30
0.0
11
-0.496255
21
1.106151
31
0.0
0
LINE
8
0
62
6
10
-0.403225
20
0.952545
30
0.0
11
-0.450011
21
1.106151
31
0.0
0
LINE
8
0
62
6
10
-0.741342
20
0.948284
30
0.0
11
-0.741342
21
1.047912
31
0.0
0
ARC
8
0
62
6
10
-0.710667
20
0.948284
30
0.0
40
0.030675
50
540.000000
51
301.886200
0
LINE
8
0
62
6
10
-0.652430
20
0.948284
30
0.0
11
-0.679992
21
0.948284
31
0.0
0
ARC
8
0
62
6
10
-0.710668
20
1.047912
30
0.0
40
0.058238
50
360.000000
51
495.000000
0
ARC
8
0
62
6
10
-0.574643
20
1.047912
30
0.0
40
0.058238
50
360.000000
51
495.000000
0
ARC
8
0
62
6
10
-0.574642
20
0.948284
30
0.0
40
0.030675
50
540.000000
51
301.886169
0
LINE
8
0
62
6
10
-0.605317
20
1.047912
30
0.0
11
-0.605317
21
0.948284
31
0.0
0
LINE
8
0
62
6
10
-0.516405
20
1.047912
30
0.0
11
-0.516405
21
0.948284
31
0.0
0
LINE
8
0
62
6
10
-0.214079
20
1.106151
30
0.0
11
-0.243336
21
1.106151
31
0.0
0
LINE
8
0
62
6
10
-0.261268
20
0.890029
30
0.0
11
-0.214079
21
1.106151
31
0.0
0
LINE
8
0
62
6
10
-0.313174
20
1.106151
30
0.0
11
-0.344319
21
1.106151
31
0.0
0
LINE
8
0
62
6
10
-0.281833
20
0.944011
30
0.0
11
-0.313174
21
1.106151
31
0.0
0
LINE
8
0
62
6
10
-0.099893
20
1.012718
30
0.0
11
-0.164069
21
1.012718
31
0.0
0
LINE
8
0
62
6
10
-0.099893
20
0.988181
30
0.0
11
-0.099893
21
1.012718
31
0.0
0
LINE
8
0
62
6
10
-0.094230
20
0.914567
30
0.0
11
-0.164069
21
0.914567
31
0.0
0
LINE
8
0
62
6
10
-0.094230
20
0.890029
30
0.0
11
-0.094230
21
0.914567
31
0.0
0
LINE
8
0
62
6
10
-0.096118
20
1.106151
30
0.0
11
-0.193326
21
1.106151
31
0.0
0
LINE
8
0
62
6
10
-0.096118
20
1.081612
30
0.0
11
-0.096118
21
1.106151
31
0.0
0
LINE
8
0
62
6
10
-0.014044
20
1.106151
30
0.0
11
-0.075365
21
1.106151
31
0.0
0
ARC
8
0
62
6
10
-0.020866
20
0.954223
30
0.0
40
0.056845
50
368.616516
51
404.506439
0
LINE
8
0
62
6
10
0.046356
20
0.890029
30
0.0
11
0.035337
21
0.962739
31
0.0
0
ARC
8
0
62
6
10
-0.014043
20
1.045749
30
0.0
40
0.034685
50
630.000000
51
303.424683
0
LINE
8
0
62
6
10
-0.014043
20
1.011065
30
0.0
11
-0.046108
21
1.011065
31
0.0
0
ARC
8
0
62
6
10
0.124745
20
1.047912
30
0.0
40
0.058238
50
360.000000
51
495.000000
0
ARC
8
0
62
6
10
0.124747
20
1.047912
30
0.0
40
0.030677
50
539.998413
51
603.182373
0
LINE
8
0
62
6
10
0.151020
20
1.000259
30
0.0
11
0.110907
21
1.020534
31
0.0
0
ARC
8
0
62
6
10
0.124745
20
0.948285
30
0.0
40
0.058238
50
314.999603
51
423.181519
0
LINE
8
0
62
6
10
0.094070
20
0.948284
30
0.0
11
0.066508
21
0.948284
31
0.0
0
ARC
8
0
62
6
10
0.124745
20
0.948284
30
0.0
40
0.030675
50
540.000000
51
301.886169
0
LINE
8
0
62
6
10
0.265999
20
1.050737
30
0.0
11
0.247274
21
0.963642
31
0.0
0
LINE
8
0
62
6
10
0.292792
20
1.106151
30
0.0
11
0.253154
21
1.106151
31
0.0
0
LINE
8
0
62
6
10
0.342812
20
0.890029
30
0.0
11
0.292792
21
1.106151
31
0.0
0
LINE
8
0
62
6
10
0.284242
20
0.963642
30
0.0
11
0.247274
21
0.963642
31
0.0
0
LINE
8
0
62
6
10
0.389820
20
0.890029
30
0.0
11
0.399662
21
0.890029
31
0.0
0
LINE
8
0
62
6
10
0.450626
20
1.106151
30
0.0
11
0.320386
21
1.106151
31
0.0
0
LINE
8
0
62
6
10
0.450626
20
1.081612
30
0.0
11
0.450626
21
1.106151
31
0.0
0
LINE
8
0
62
6
10
0.471377
20
1.106151
30
0.0
11
0.500633
21
1.106151
31
0.0
0
LINE
8
0
62
6
10
0.500633
20
1.106151
30
0.0
11
0.500633
21
0.890029
31
0.0
0
LINE
8
0
62
6
10
0.548347
20
0.948284
30
0.0
11
0.548347
21
1.047912
31
0.0
0
ARC
8
0
62
6
10
0.579021
20
1.047912
30
0.0
40
0.058238
50
360.000000
51
495.000000
0
LINE
8
0
62
6
10
0.637259
20
0.948284
30
0.0
11
0.637259
21
1.047912
31
0.0
0
LINE
8
0
62
6
10
0.703653
20
1.106151
30
0.0
11
0.657409
21
1.106151
31
0.0
0
LINE
8
0
62
6
10
0.750438
20
0.952545
30
0.0
11
0.703653
21
1.106151
31
0.0
0
LINE
8
0
62
6
10
0.788590
20
1.106151
30
0.0
11
0.760279
21
1.106151
31
0.0
0
LINE
8
0
62
6
10
0.788590
20
0.890029
30
0.0
11
0.788590
21
1.106151
31
0.0
0
ARC
8
0
62
6
10
0.579022
20
0.948284
30
0.0
40
0.030675
50
540.000000
51
301.886169
0
LINE
8
0
62
6
10
-0.001391
20
-0.381959
30
0.0
11
0.030711
21
-0.381959
31
0.0
0
LINE
8
0
62
6
10
0.014660
20
-0.398010
30
0.0
11
0.014660
21
-0.365908
31
0.0
0
LINE
8
0
62
6
10
-0.171841
20
-0.183175
30
0.0
11
-0.171841
21
-0.128699
31
0.0
0
LINE
8
0
62
6
10
-0.189799
20
-0.126995
30
0.0
11
-0.153884
21
-0.126995
31
0.0
0
ARC
8
0
62
6
10
-0.129407
20
-0.166567
30
0.0
40
0.016716
50
196.004822
51
267.948395
0
ARC
8
0
62
6
10
-0.098069
20
-0.155125
30
0.0
40
0.050049
50
161.294113
51
198.705887
0
ARC
8
0
62
6
10
-0.129407
20
-0.143720
30
0.0
40
0.016726
50
16.128889
51
163.872177
0
ARC
8
0
62
6
10
-0.160744
20
-0.155125
30
0.0
40
0.050049
50
341.293762
51
18.706244
0
ARC
8
0
62
6
10
-0.129407
20
-0.166567
30
0.0
40
0.016716
50
272.763977
51
343.994110
0
LINE
8
0
62
6
10
-0.102510
20
-0.183175
30
0.0
11
-0.102510
21
-0.126995
31
0.0
0
LINE
8
0
62
6
10
-0.102510
20
-0.126995
30
0.0
11
-0.082125
21
-0.126995
31
0.0
0
ARC
8
0
62
6
10
-0.082959
20
-0.141040
30
0.0
40
0.014070
50
273.401001
51
86.599007
0
LINE
8
0
62
6
10
-0.082125
20
-0.155085
30
0.0
11
-0.101667
21
-0.155085
31
0.0
0
ARC
8
0
62
6
10
-0.006362
20
-0.166567
30
0.0
40
0.016716
50
196.004822
51
267.948395
0
ARC
8
0
62
6
10
0.024975
20
-0.155125
30
0.0
40
0.050049
50
161.294113
51
198.705887
0
ARC
8
0
62
6
10
-0.006362
20
-0.143720
30
0.0
40
0.016726
50
16.128889
51
163.872177
0
ARC
8
0
62
6
10
-0.037700
20
-0.155125
30
0.0
40
0.050049
50
341.293762
51
18.706244
0
ARC
8
0
62
6
10
-0.006362
20
-0.166567
30
0.0
40
0.016716
50
272.763977
51
343.994110
0
LINE
8
0
62
6
10
0.047667
20
-0.155084
30
0.0
11
0.023622
21
-0.155084
31
0.0
0
LINE
8
0
62
6
10
0.021945
20
-0.183173
30
0.0
11
0.021945
21
-0.126994
31
0.0
0
LINE
8
0
62
6
10
0.021945
20
-0.126994
30
0.0
11
0.052081
21
-0.126994
31
0.0
0
ARC
8
0
62
6
10
0.110320
20
-0.145259
30
0.0
40
0.018465
50
48.941696
51
146.027985
0
ARC
8
0
62
6
10
0.114080
20
-0.140900
30
0.0
40
0.012709
50
0.000001
51
48.814072
0
ARC
8
0
62
6
10
0.112760
20
-0.140900
30
0.0
40
0.014028
50
279.088104
51
360.000000
0
ARC
8
0
62
6
10
0.113532
20
-0.168759
30
0.0
40
0.014081
50
19.434425
51
84.114273
0
ARC
8
0
62
6
10
0.114376
20
-0.168557
30
0.0
40
0.013218
50
307.790497
51
19.827772
0
ARC
8
0
62
6
10
0.110528
20
-0.162603
30
0.0
40
0.020291
50
216.483002
51
306.074036
0
LINE
8
0
62
6
10
0.140401
20
-0.183175
30
0.0
11
0.140401
21
-0.126995
31
0.0
0
LINE
8
0
62
6
10
0.140401
20
-0.126995
30
0.0
11
0.156071
21
-0.126995
31
0.0
0
ARC
8
0
62
6
10
0.154133
20
-0.147564
30
0.0
40
0.020660
50
24.386383
51
84.617409
0
ARC
8
0
62
6
10
0.125544
20
-0.155085
30
0.0
40
0.050049
50
341.294312
51
18.705687
0
ARC
8
0
62
6
10
0.154133
20
-0.162606
30
0.0
40
0.020660
50
275.382446
51
335.613617
0
LINE
8
0
62
6
10
0.156071
20
-0.183175
30
0.0
11
0.141806
21
-0.183175
31
0.0
0
LINE
8
0
62
6
10
0.226507
20
-0.155015
30
0.0
11
0.246796
21
-0.155015
31
0.0
0
ARC
8
0
62
6
10
0.246792
20
-0.169060
30
0.0
40
0.014045
50
270.000000
51
89.981880
0
LINE
8
0
62
6
10
0.246792
20
-0.183105
30
0.0
11
0.224822
21
-0.183105
31
0.0
0
LINE
8
0
62
6
10
0.224822
20
-0.183105
30
0.0
11
0.224822
21
-0.126995
31
0.0
0
LINE
8
0
62
6
10
0.224822
20
-0.126995
30
0.0
11
0.244284
21
-0.126995
31
0.0
0
ARC
8
0
62
6
10
0.244172
20
-0.141096
30
0.0
40
0.014102
50
296.191833
51
89.543999
0
ARC
8
0
62
6
10
0.285314
20
-0.166567
30
0.0
40
0.016716
50
196.004822
51
267.948395
0
ARC
8
0
62
6
10
0.316651
20
-0.155125
30
0.0
40
0.050049
50
161.294113
51
198.705887
0
ARC
8
0
62
6
10
0.285314
20
-0.143720
30
0.0
40
0.016726
50
16.128889
51
163.872177
0
ARC
8
0
62
6
10
0.253976
20
-0.155125
30
0.0
40
0.050049
50
341.293762
51
18.706244
0
ARC
8
0
62
6
10
0.285314
20
-0.166567
30
0.0
40
0.016716
50
272.763977
51
343.994110
0
LINE
8
0
62
6
10
0.310807
20
-0.126995
30
0.0
11
0.345718
21
-0.183175
31
0.0
0
LINE
8
0
62
6
10
0.308399
20
-0.183175
30
0.0
11
0.343310
21
-0.126995
31
0.0
0
LINE
8
0
62
6
10
-0.412913
20
-0.628320
30
0.0
11
-0.412913
21
-0.572141
31
0.0
0
LINE
8
0
62
6
10
-0.412913
20
-0.572141
30
0.0
11
-0.392528
21
-0.572141
31
0.0
0
ARC
8
0
62
6
10
-0.393362
20
-0.586185
30
0.0
40
0.014070
50
273.401001
51
86.599007
0
LINE
8
0
62
6
10
-0.392528
20
-0.600230
30
0.0
11
-0.412070
21
-0.600230
31
0.0
0
LINE
8
0
62
6
10
-0.370056
20
-0.628320
30
0.0
11
-0.370056
21
-0.572141
31
0.0
0
LINE
8
0
62
6
10
-0.370056
20
-0.572141
30
0.0
11
-0.349671
21
-0.572141
31
0.0
0
ARC
8
0
62
6
10
-0.349942
20
-0.586185
30
0.0
40
0.014047
50
271.095276
51
88.895920
0
LINE
8
0
62
6
10
-0.349673
20
-0.600230
30
0.0
11
-0.368212
21
-0.600230
31
0.0
0
LINE
8
0
62
6
10
-0.348873
20
-0.601831
30
0.0
11
-0.335626
21
-0.628320
31
0.0
0
LINE
8
0
62
6
10
-0.296458
20
-0.628320
30
0.0
11
-0.329403
21
-0.628320
31
0.0
0
LINE
8
0
62
6
10
-0.329403
20
-0.628320
30
0.0
11
-0.329423
21
-0.600231
31
0.0
0
LINE
8
0
62
6
10
-0.329423
20
-0.600231
30
0.0
11
-0.303681
21
-0.600231
31
0.0
0
LINE
8
0
62
6
10
-0.329425
20
-0.599389
30
0.0
11
-0.329443
21
-0.572141
31
0.0
0
LINE
8
0
62
6
10
-0.329443
20
-0.572141
30
0.0
11
-0.299267
21
-0.572141
31
0.0
0
ARC
8
0
62
6
10
-0.275411
20
-0.612159
30
0.0
40
0.016195
50
210.522003
51
269.441071
0
LINE
8
0
62
6
10
-0.275569
20
-0.628353
30
0.0
11
-0.269844
21
-0.628409
31
0.0
0
ARC
8
0
62
6
10
-0.269700
20
-0.613625
30
0.0
40
0.014784
50
269.441071
51
357.350677
0
ARC
8
0
62
6
10
-0.266957
20
-0.615399
30
0.0
40
0.012075
50
5.182272
51
59.344830
0
LINE
8
0
62
6
10
-0.260801
20
-0.605012
30
0.0
11
-0.282911
21
-0.595516
31
0.0
0
ARC
8
0
62
6
10
-0.276755
20
-0.585128
30
0.0
40
0.012075
50
185.182404
51
239.344803
0
ARC
8
0
62
6
10
-0.274071
20
-0.586863
30
0.0
40
0.014723
50
91.261345
51
177.491959
0
LINE
8
0
62
6
10
-0.274395
20
-0.572144
30
0.0
11
-0.268684
21
-0.572138
31
0.0
0
ARC
8
0
62
6
10
-0.269194
20
-0.587812
30
0.0
40
0.015682
50
29.271709
51
88.136147
0
ARC
8
0
62
6
10
-0.227080
20
-0.612159
30
0.0
40
0.016195
50
210.522003
51
269.441071
0
LINE
8
0
62
6
10
-0.227238
20
-0.628353
30
0.0
11
-0.221513
21
-0.628409
31
0.0
0
ARC
8
0
62
6
10
-0.221369
20
-0.613625
30
0.0
40
0.014784
50
269.441071
51
357.350677
0
ARC
8
0
62
6
10
-0.218626
20
-0.615399
30
0.0
40
0.012075
50
5.182272
51
59.344830
0
LINE
8
0
62
6
10
-0.212469
20
-0.605012
30
0.0
11
-0.234580
21
-0.595516
31
0.0
0
ARC
8
0
62
6
10
-0.228423
20
-0.585128
30
0.0
40
0.012075
50
185.182404
51
239.344803
0
ARC
8
0
62
6
10
-0.225739
20
-0.586863
30
0.0
40
0.014723
50
91.261345
51
177.491959
0
LINE
8
0
62
6
10
-0.226064
20
-0.572144
30
0.0
11
-0.220352
21
-0.572138
31
0.0
0
ARC
8
0
62
6
10
-0.220862
20
-0.587812
30
0.0
40
0.015682
50
29.271709
51
88.136147
0
ARC
8
0
62
6
10
-0.391453
20
0.382972
30
0.0
40
0.020660
50
204.386841
51
324.320007
0
ARC
8
0
62
6
10
-0.362864
20
0.390493
30
0.0
40
0.050049
50
161.294128
51
198.705872
0
ARC
8
0
62
6
10
-0.391453
20
0.398014
30
0.0
40
0.020660
50
35.680031
51
155.613174
0
LINE
8
0
62
6
10
-0.369053
20
0.418674
30
0.0
11
-0.369053
21
0.362495
31
0.0
0
LINE
8
0
62
6
10
-0.369053
20
0.362495
30
0.0
11
-0.336108
21
0.362495
31
0.0
0
LINE
8
0
62
6
10
-0.326181
20
0.362495
30
0.0
11
-0.310130
21
0.362495
31
0.0
0
LINE
8
0
62
6
10
-0.318156
20
0.364180
30
0.0
11
-0.318156
21
0.416989
31
0.0
0
LINE
8
0
62
6
10
-0.326181
20
0.418674
30
0.0
11
-0.310215
21
0.418674
31
0.0
0
ARC
8
0
62
6
10
-0.282989
20
0.382972
30
0.0
40
0.020660
50
204.386841
51
324.320007
0
ARC
8
0
62
6
10
-0.254400
20
0.390493
30
0.0
40
0.050049
50
161.294128
51
198.705872
0
ARC
8
0
62
6
10
-0.282989
20
0.398014
30
0.0
40
0.020660
50
35.680031
51
155.613174
0
LINE
8
0
62
6
10
-0.260589
20
0.418674
30
0.0
11
-0.260589
21
0.362495
31
0.0
0
LINE
8
0
62
6
10
-0.229169
20
0.362495
30
0.0
11
-0.245615
21
0.396975
31
0.0
0
LINE
8
0
62
6
10
-0.258941
20
0.383815
30
0.0
11
-0.229169
21
0.418674
31
0.0
0
LINE
8
0
62
6
10
-0.394956
20
0.026483
30
0.0
11
-0.394956
21
0.080959
31
0.0
0
LINE
8
0
62
6
10
-0.412913
20
0.082663
30
0.0
11
-0.376998
21
0.082663
31
0.0
0
LINE
8
0
62
6
10
-0.371380
20
0.082663
30
0.0
11
-0.353689
21
0.056030
31
0.0
0
LINE
8
0
62
6
10
-0.352721
20
0.026483
30
0.0
11
-0.352721
21
0.054573
31
0.0
0
LINE
8
0
62
6
10
-0.352721
20
0.054573
30
0.0
11
-0.334061
21
0.082663
31
0.0
0
LINE
8
0
62
6
10
-0.327039
20
0.026483
30
0.0
11
-0.327039
21
0.082663
31
0.0
0
LINE
8
0
62
6
10
-0.327039
20
0.082663
30
0.0
11
-0.306654
21
0.082663
31
0.0
0
ARC
8
0
62
6
10
-0.307489
20
0.068618
30
0.0
40
0.014070
50
273.401001
51
86.599007
0
LINE
8
0
62
6
10
-0.306654
20
0.054573
30
0.0
11
-0.326196
21
0.054573
31
0.0
0
LINE
8
0
62
6
10
-0.253441
20
0.026483
30
0.0
11
-0.286386
21
0.026483
31
0.0
0
LINE
8
0
62
6
10
-0.286386
20
0.026483
30
0.0
11
-0.286406
21
0.054572
31
0.0
0
LINE
8
0
62
6
10
-0.286406
20
0.054572
30
0.0
11
-0.260664
21
0.054572
31
0.0
0
LINE
8
0
62
6
10
-0.286407
20
0.055415
30
0.0
11
-0.286426
21
0.082662
31
0.0
0
LINE
8
0
62
6
10
-0.286426
20
0.082662
30
0.0
11
-0.256250
21
0.082662
31
0.0
0
LINE
8
0
62
6
10
-0.412913
20
-0.082651
30
0.0
11
-0.412913
21
-0.026471
31
0.0
0
LINE
8
0
62
6
10
-0.412913
20
-0.026471
30
0.0
11
-0.392528
21
-0.026471
31
0.0
0
ARC
8
0
62
6
10
-0.393362
20
-0.040516
30
0.0
40
0.014070
50
273.401001
51
86.599007
0
LINE
8
0
62
6
10
-0.392528
20
-0.054561
30
0.0
11
-0.412070
21
-0.054561
31
0.0
0
LINE
8
0
62
6
10
-0.370056
20
-0.082651
30
0.0
11
-0.370056
21
-0.026471
31
0.0
0
LINE
8
0
62
6
10
-0.370056
20
-0.026471
30
0.0
11
-0.349671
21
-0.026471
31
0.0
0
ARC
8
0
62
6
10
-0.349942
20
-0.040516
30
0.0
40
0.014047
50
271.095276
51
88.895920
0
LINE
8
0
62
6
10
-0.349673
20
-0.054561
30
0.0
11
-0.368212
21
-0.054561
31
0.0
0
LINE
8
0
62
6
10
-0.348873
20
-0.056161
30
0.0
11
-0.335626
21
-0.082651
31
0.0
0
LINE
8
0
62
6
10
-0.296458
20
-0.082651
30
0.0
11
-0.329403
21
-0.082651
31
0.0
0
LINE
8
0
62
6
10
-0.329403
20
-0.082651
30
0.0
11
-0.329423
21
-0.054562
31
0.0
0
LINE
8
0
62
6
10
-0.329423
20
-0.054562
30
0.0
11
-0.303681
21
-0.054562
31
0.0
0
LINE
8
0
62
6
10
-0.329425
20
-0.053719
30
0.0
11
-0.329443
21
-0.026472
31
0.0
0
LINE
8
0
62
6
10
-0.329443
20
-0.026472
30
0.0
11
-0.299267
21
-0.026472
31
0.0
0
ARC
8
0
62
6
10
-0.275411
20
-0.066490
30
0.0
40
0.016195
50
210.522003
51
269.441071
0
LINE
8
0
62
6
10
-0.275569
20
-0.082683
30
0.0
11
-0.269844
21
-0.082739
31
0.0
0
ARC
8
0
62
6
10
-0.269700
20
-0.067956
30
0.0
40
0.014784
50
269.441071
51
357.350677
0
ARC
8
0
62
6
10
-0.266957
20
-0.069730
30
0.0
40
0.012075
50
5.182272
51
59.344830
0
LINE
8
0
62
6
10
-0.260801
20
-0.059343
30
0.0
11
-0.282911
21
-0.049847
31
0.0
0
ARC
8
0
62
6
10
-0.276755
20
-0.039459
30
0.0
40
0.012075
50
185.182404
51
239.344803
0
ARC
8
0
62
6
10
-0.274071
20
-0.041194
30
0.0
40
0.014723
50
91.261345
51
177.491959
0
LINE
8
0
62
6
10
-0.274395
20
-0.026475
30
0.0
11
-0.268684
21
-0.026469
31
0.0
0
ARC
8
0
62
6
10
-0.269194
20
-0.042143
30
0.0
40
0.015682
50
29.271709
51
88.136147
0
ARC
8
0
62
6
10
-0.227080
20
-0.066490
30
0.0
40
0.016195
50
210.522003
51
269.441071
0
LINE
8
0
62
6
10
-0.227238
20
-0.082683
30
0.0
11
-0.221513
21
-0.082739
31
0.0
0
ARC
8
0
62
6
10
-0.221369
20
-0.067956
30
0.0
40
0.014784
50
269.441071
51
357.350677
0
ARC
8
0
62
6
10
-0.218626
20
-0.069730
30
0.0
40
0.012075
50
5.182272
51
59.344830
0
LINE
8
0
62
6
10
-0.212469
20
-0.059343
30
0.0
11
-0.234580
21
-0.049847
31
0.0
0
ARC
8
0
62
6
10
-0.228423
20
-0.039459
30
0.0
40
0.012075
50
185.182404
51
239.344803
0
ARC
8
0
62
6
10
-0.225739
20
-0.041194
30
0.0
40
0.014723
50
91.261345
51
177.491959
0
LINE
8
0
62
6
10
-0.226064
20
-0.026475
30
0.0
11
-0.220352
21
-0.026469
31
0.0
0
ARC
8
0
62
6
10
-0.220862
20
-0.042143
30
0.0
40
0.015682
50
29.271709
51
88.136147
0
LINE
8
0
62
6
10
-0.394956
20
0.463019
30
0.0
11
-0.394956
21
0.517494
31
0.0
0
LINE
8
0
62
6
10
-0.412913
20
0.519198
30
0.0
11
-0.376998
21
0.519198
31
0.0
0
LINE
8
0
62
6
10
-0.371380
20
0.519198
30
0.0
11
-0.353689
21
0.492566
31
0.0
0
LINE
8
0
62
6
10
-0.352721
20
0.463019
30
0.0
11
-0.352721
21
0.491108
31
0.0
0
LINE
8
0
62
6
10
-0.352721
20
0.491108
30
0.0
11
-0.334061
21
0.519198
31
0.0
0
LINE
8
0
62
6
10
-0.327039
20
0.463019
30
0.0
11
-0.327039
21
0.519198
31
0.0
0
LINE
8
0
62
6
10
-0.327039
20
0.519198
30
0.0
11
-0.306654
21
0.519198
31
0.0
0
ARC
8
0
62
6
10
-0.307489
20
0.505153
30
0.0
40
0.014070
50
273.401001
51
86.599007
0
LINE
8
0
62
6
10
-0.306654
20
0.491108
30
0.0
11
-0.326196
21
0.491108
31
0.0
0
LINE
8
0
62
6
10
-0.253441
20
0.463018
30
0.0
11
-0.286386
21
0.463018
31
0.0
0
LINE
8
0
62
6
10
-0.286386
20
0.463018
30
0.0
11
-0.286406
21
0.491108
31
0.0
0
LINE
8
0
62
6
10
-0.286406
20
0.491108
30
0.0
11
-0.260664
21
0.491108
31
0.0
0
LINE
8
0
62
6
10
-0.286407
20
0.491950
30
0.0
11
-0.286426
21
0.519197
31
0.0
0
LINE
8
0
62
6
10
-0.286426
20
0.519197
30
0.0
11
-0.256250
21
0.519197
31
0.0
0
LINE
8
0
62
6
10
-0.394956
20
-0.410052
30
0.0
11
-0.394956
21
-0.355577
31
0.0
0
LINE
8
0
62
6
10
-0.412913
20
-0.353873
30
0.0
11
-0.376998
21
-0.353873
31
0.0
0
LINE
8
0
62
6
10
-0.371380
20
-0.353873
30
0.0
11
-0.353689
21
-0.380505
31
0.0
0
LINE
8
0
62
6
10
-0.352721
20
-0.410052
30
0.0
11
-0.352721
21
-0.381963
31
0.0
0
LINE
8
0
62
6
10
-0.352721
20
-0.381963
30
0.0
11
-0.334061
21
-0.353873
31
0.0
0
LINE
8
0
62
6
10
-0.327039
20
-0.410052
30
0.0
11
-0.327039
21
-0.353873
31
0.0
0
LINE
8
0
62
6
10
-0.327039
20
-0.353873
30
0.0
11
-0.306654
21
-0.353873
31
0.0
0
ARC
8
0
62
6
10
-0.307489
20
-0.367918
30
0.0
40
0.014070
50
273.401001
51
86.599007
0
LINE
8
0
62
6
10
-0.306654
20
-0.381963
30
0.0
11
-0.326196
21
-0.381963
31
0.0
0
LINE
8
0
62
6
10
-0.253441
20
-0.410053
30
0.0
11
-0.286386
21
-0.410053
31
0.0
0
LINE
8
0
62
6
10
-0.286386
20
-0.410053
30
0.0
11
-0.286406
21
-0.381963
31
0.0
0
LINE
8
0
62
6
10
-0.286406
20
-0.381963
30
0.0
11
-0.260664
21
-0.381963
31
0.0
0
LINE
8
0
62
6
10
-0.286407
20
-0.381121
30
0.0
11
-0.286426
21
-0.353873
31
0.0
0
LINE
8
0
62
6
10
-0.286426
20
-0.353873
30
0.0
11
-0.256250
21
-0.353873
31
0.0
0
ARC
8
0
62
6
10
-0.391453
20
0.265229
30
0.0
40
0.020660
50
204.386841
51
324.320007
0
ARC
8
0
62
6
10
-0.362864
20
0.272750
30
0.0
40
0.050049
50
161.294128
51
198.705872
0
ARC
8
0
62
6
10
-0.391453
20
0.280270
30
0.0
40
0.020660
50
35.680031
51
155.613174
0
LINE
8
0
62
6
10
-0.369053
20
0.300930
30
0.0
11
-0.369053
21
0.244751
31
0.0
0
LINE
8
0
62
6
10
-0.369053
20
0.244751
30
0.0
11
-0.336108
21
0.244751
31
0.0
0
LINE
8
0
62
6
10
-0.326181
20
0.244751
30
0.0
11
-0.310130
21
0.244751
31
0.0
0
LINE
8
0
62
6
10
-0.318156
20
0.246436
30
0.0
11
-0.318156
21
0.299245
31
0.0
0
LINE
8
0
62
6
10
-0.326181
20
0.300930
30
0.0
11
-0.310215
21
0.300930
31
0.0
0
ARC
8
0
62
6
10
-0.282989
20
0.265229
30
0.0
40
0.020660
50
204.386841
51
324.320007
0
ARC
8
0
62
6
10
-0.254400
20
0.272750
30
0.0
40
0.050049
50
161.294128
51
198.705872
0
ARC
8
0
62
6
10
-0.282989
20
0.280270
30
0.0
40
0.020660
50
35.680031
51
155.613174
0
LINE
8
0
62
6
10
-0.260589
20
0.300930
30
0.0
11
-0.260589
21
0.244751
31
0.0
0
LINE
8
0
62
6
10
-0.229169
20
0.244751
30
0.0
11
-0.245615
21
0.279231
31
0.0
0
LINE
8
0
62
6
10
-0.258941
20
0.266072
30
0.0
11
-0.229169
21
0.300930
31
0.0
0
ARC
8
0
62
6
10
-0.391453
20
-0.280441
30
0.0
40
0.020660
50
204.386841
51
324.320007
0
ARC
8
0
62
6
10
-0.362864
20
-0.272920
30
0.0
40
0.050049
50
161.294128
51
198.705872
0
ARC
8
0
62
6
10
-0.391453
20
-0.265399
30
0.0
40
0.020660
50
35.680031
51
155.613174
0
LINE
8
0
62
6
10
-0.369053
20
-0.244739
30
0.0
11
-0.369053
21
-0.300918
31
0.0
0
LINE
8
0
62
6
10
-0.369053
20
-0.300918
30
0.0
11
-0.336108
21
-0.300918
31
0.0
0
LINE
8
0
62
6
10
-0.326181
20
-0.300918
30
0.0
11
-0.310130
21
-0.300918
31
0.0
0
LINE
8
0
62
6
10
-0.318156
20
-0.299233
30
0.0
11
-0.318156
21
-0.246424
31
0.0
0
LINE
8
0
62
6
10
-0.326181
20
-0.244739
30
0.0
11
-0.310215
21
-0.244739
31
0.0
0
ARC
8
0
62
6
10
-0.282989
20
-0.280441
30
0.0
40
0.020660
50
204.386841
51
324.320007
0
ARC
8
0
62
6
10
-0.254400
20
-0.272920
30
0.0
40
0.050049
50
161.294128
51
198.705872
0
ARC
8
0
62
6
10
-0.282989
20
-0.265399
30
0.0
40
0.020660
50
35.680031
51
155.613174
0
LINE
8
0
62
6
10
-0.260589
20
-0.244739
30
0.0
11
-0.260589
21
-0.300918
31
0.0
0
LINE
8
0
62
6
10
-0.229169
20
-0.300918
30
0.0
11
-0.245615
21
-0.266438
31
0.0
0
LINE
8
0
62
6
10
-0.258941
20
-0.279598
30
0.0
11
-0.229169
21
-0.244739
31
0.0
0
ARC
8
0
62
6
10
-0.391453
20
-0.162697
30
0.0
40
0.020660
50
204.386841
51
324.320007
0
ARC
8
0
62
6
10
-0.362864
20
-0.155176
30
0.0
40
0.050049
50
161.294128
51
198.705872
0
ARC
8
0
62
6
10
-0.391453
20
-0.147655
30
0.0
40
0.020660
50
35.680031
51
155.613174
0
LINE
8
0
62
6
10
-0.369053
20
-0.126995
30
0.0
11
-0.369053
21
-0.183175
31
0.0
0
LINE
8
0
62
6
10
-0.369053
20
-0.183175
30
0.0
11
-0.336108
21
-0.183175
31
0.0
0
LINE
8
0
62
6
10
-0.326181
20
-0.183175
30
0.0
11
-0.310130
21
-0.183175
31
0.0
0
LINE
8
0
62
6
10
-0.318156
20
-0.181489
30
0.0
11
-0.318156
21
-0.128681
31
0.0
0
LINE
8
0
62
6
10
-0.326181
20
-0.126995
30
0.0
11
-0.310215
21
-0.126995
31
0.0
0
ARC
8
0
62
6
10
-0.282989
20
-0.162697
30
0.0
40
0.020660
50
204.386841
51
324.320007
0
ARC
8
0
62
6
10
-0.254400
20
-0.155176
30
0.0
40
0.050049
50
161.294128
51
198.705872
0
ARC
8
0
62
6
10
-0.282989
20
-0.147655
30
0.0
40
0.020660
50
35.680031
51
155.613174
0
LINE
8
0
62
6
10
-0.260589
20
-0.126995
30
0.0
11
-0.260589
21
-0.183175
31
0.0
0
LINE
8
0
62
6
10
-0.229169
20
-0.183175
30
0.0
11
-0.245615
21
-0.148694
31
0.0
0
LINE
8
0
62
6
10
-0.258941
20
-0.161854
30
0.0
11
-0.229169
21
-0.126995
31
0.0
0
LINE
8
0
62
6
10
-0.394956
20
-0.519186
30
0.0
11
-0.394956
21
-0.464711
31
0.0
0
LINE
8
0
62
6
10
-0.412913
20
-0.463007
30
0.0
11
-0.376998
21
-0.463007
31
0.0
0
LINE
8
0
62
6
10
-0.371380
20
-0.463007
30
0.0
11
-0.353689
21
-0.489639
31
0.0
0
LINE
8
0
62
6
10
-0.352721
20
-0.519186
30
0.0
11
-0.352721
21
-0.491096
31
0.0
0
LINE
8
0
62
6
10
-0.352721
20
-0.491096
30
0.0
11
-0.334061
21
-0.463007
31
0.0
0
LINE
8
0
62
6
10
-0.327039
20
-0.519186
30
0.0
11
-0.327039
21
-0.463007
31
0.0
0
LINE
8
0
62
6
10
-0.327039
20
-0.463007
30
0.0
11
-0.306654
21
-0.463007
31
0.0
0
ARC
8
0
62
6
10
-0.307489
20
-0.477052
30
0.0
40
0.014070
50
273.401001
51
86.599007
0
LINE
8
0
62
6
10
-0.306654
20
-0.491096
30
0.0
11
-0.326196
21
-0.491096
31
0.0
0
LINE
8
0
62
6
10
-0.253441
20
-0.519187
30
0.0
11
-0.286386
21
-0.519187
31
0.0
0
LINE
8
0
62
6
10
-0.286386
20
-0.519187
30
0.0
11
-0.286406
21
-0.491097
31
0.0
0
LINE
8
0
62
6
10
-0.286406
20
-0.491097
30
0.0
11
-0.260664
21
-0.491097
31
0.0
0
LINE
8
0
62
6
10
-0.286407
20
-0.490255
30
0.0
11
-0.286426
21
-0.463007
31
0.0
0
LINE
8
0
62
6
10
-0.286426
20
-0.463007
30
0.0
11
-0.256250
21
-0.463007
31
0.0
0
LINE
8
0
62
6
10
-0.099399
20
0.463022
30
0.0
11
-0.099399
21
0.517497
31
0.0
0
LINE
8
0
62
6
10
-0.117356
20
0.519201
30
0.0
11
-0.081441
21
0.519201
31
0.0
0
LINE
8
0
62
6
10
-0.075823
20
0.519201
30
0.0
11
-0.075823
21
0.463022
31
0.0
0
LINE
8
0
62
6
10
-0.074138
20
0.491112
30
0.0
11
-0.043464
21
0.491112
31
0.0
0
LINE
8
0
62
6
10
-0.041715
20
0.463022
30
0.0
11
-0.041715
21
0.519201
31
0.0
0
LINE
8
0
62
6
10
-0.002547
20
0.463021
30
0.0
11
-0.035492
21
0.463021
31
0.0
0
LINE
8
0
62
6
10
-0.035492
20
0.463021
30
0.0
11
-0.035512
21
0.491111
31
0.0
0
LINE
8
0
62
6
10
-0.035512
20
0.491111
30
0.0
11
-0.009770
21
0.491111
31
0.0
0
LINE
8
0
62
6
10
-0.035513
20
0.491953
30
0.0
11
-0.035532
21
0.519201
31
0.0
0
LINE
8
0
62
6
10
-0.035532
20
0.519201
30
0.0
11
-0.005356
21
0.519201
31
0.0
0
LINE
8
0
62
6
10
0.001002
20
0.463022
30
0.0
11
0.001002
21
0.519201
31
0.0
0
LINE
8
0
62
6
10
0.001002
20
0.519201
30
0.0
11
0.035498
21
0.463022
31
0.0
0
LINE
8
0
62
6
10
0.035498
20
0.463022
30
0.0
11
0.035498
21
0.519201
31
0.0
0
LINE
8
0
62
6
10
-0.394956
20
0.572153
30
0.0
11
-0.394956
21
0.626628
31
0.0
0
LINE
8
0
62
6
10
-0.412913
20
0.628332
30
0.0
11
-0.376998
21
0.628332
31
0.0
0
LINE
8
0
62
6
10
-0.371380
20
0.628332
30
0.0
11
-0.353689
21
0.601700
31
0.0
0
LINE
8
0
62
6
10
-0.352721
20
0.572153
30
0.0
11
-0.352721
21
0.600242
31
0.0
0
LINE
8
0
62
6
10
-0.352721
20
0.600242
30
0.0
11
-0.334061
21
0.628332
31
0.0
0
LINE
8
0
62
6
10
-0.327039
20
0.572153
30
0.0
11
-0.327039
21
0.628332
31
0.0
0
LINE
8
0
62
6
10
-0.327039
20
0.628332
30
0.0
11
-0.306654
21
0.628332
31
0.0
0
ARC
8
0
62
6
10
-0.307489
20
0.614287
30
0.0
40
0.014070
50
273.401001
51
86.599007
0
LINE
8
0
62
6
10
-0.306654
20
0.600242
30
0.0
11
-0.326196
21
0.600242
31
0.0
0
LINE
8
0
62
6
10
-0.253441
20
0.572152
30
0.0
11
-0.286386
21
0.572152
31
0.0
0
LINE
8
0
62
6
10
-0.286386
20
0.572152
30
0.0
11
-0.286406
21
0.600242
31
0.0
0
LINE
8
0
62
6
10
-0.286406
20
0.600242
30
0.0
11
-0.260664
21
0.600242
31
0.0
0
LINE
8
0
62
6
10
-0.286407
20
0.601084
30
0.0
11
-0.286426
21
0.628331
31
0.0
0
LINE
8
0
62
6
10
-0.286426
20
0.628331
30
0.0
11
-0.256250
21
0.628331
31
0.0
0
LINE
8
0
62
6
10
-0.394956
20
0.135617
30
0.0
11
-0.394956
21
0.190092
31
0.0
0
LINE
8
0
62
6
10
-0.412913
20
0.191796
30
0.0
11
-0.376998
21
0.191796
31
0.0
0
LINE
8
0
62
6
10
-0.371380
20
0.191796
30
0.0
11
-0.353689
21
0.165164
31
0.0
0
LINE
8
0
62
6
10
-0.352721
20
0.135617
30
0.0
11
-0.352721
21
0.163707
31
0.0
0
LINE
8
0
62
6
10
-0.352721
20
0.163707
30
0.0
11
-0.334061
21
0.191796
31
0.0
0
LINE
8
0
62
6
10
-0.327039
20
0.135617
30
0.0
11
-0.327039
21
0.191796
31
0.0
0
LINE
8
0
62
6
10
-0.327039
20
0.191796
30
0.0
11
-0.306654
21
0.191796
31
0.0
0
ARC
8
0
62
6
10
-0.307489
20
0.177752
30
0.0
40
0.014070
50
273.401001
51
86.599007
0
LINE
8
0
62
6
10
-0.306654
20
0.163707
30
0.0
11
-0.326196
21
0.163707
31
0.0
0
LINE
8
0
62
6
10
-0.253441
20
0.135617
30
0.0
11
-0.286386
21
0.135617
31
0.0
0
LINE
8
0
62
6
10
-0.286386
20
0.135617
30
0.0
11
-0.286406
21
0.163706
31
0.0
0
LINE
8
0
62
6
10
-0.286406
20
0.163706
30
0.0
11
-0.260664
21
0.163706
31
0.0
0
LINE
8
0
62
6
10
-0.286407
20
0.164548
30
0.0
11
-0.286426
21
0.191796
31
0.0
0
LINE
8
0
62
6
10
-0.286426
20
0.191796
30
0.0
11
-0.256250
21
0.191796
31
0.0
0
LINE
8
0
62
6
10
0.685720
20
0.890029
30
0.0
11
0.685720
21
1.029892
31
0.0
0
LINE
8
0
62
6
10
0.399662
20
0.890029
30
0.0
11
0.399662
21
1.071769
31
0.0
0
LINE
8
0
62
6
10
0.231447
20
0.890029
30
0.0
11
0.239883
21
0.929263
31
0.0
0
LINE
8
0
62
6
10
-0.046108
20
1.011065
30
0.0
11
-0.046108
21
1.070592
31
0.0
0
LINE
8
0
62
6
10
-0.046108
20
0.890029
30
0.0
11
-0.046108
21
0.975506
31
0.0
0
ARC
8
0
62
6
10
-0.014043
20
1.045752
30
0.0
40
0.060399
50
308.383118
51
315.000000
0
LINE
8
0
62
6
10
-0.164069
20
0.914567
30
0.0
11
-0.164069
21
0.978339
31
0.0
0
LINE
8
0
62
6
10
-0.164069
20
1.012718
30
0.0
11
-0.164069
21
1.071769
31
0.0
0
LINE
8
0
62
6
10
-0.467943
20
0.890029
30
0.0
11
-0.467943
21
1.029892
31
0.0
0
ARC
8
0
62
6
10
-0.710667
20
1.047912
30
0.0
40
0.030675
50
508.113800
51
540.000000
0
ARC
8
0
62
6
10
-0.710668
20
0.948284
30
0.0
40
0.058238
50
308.136444
51
315.000000
0
ARC
8
0
62
6
10
0.124746
20
1.047912
30
0.0
40
0.030675
50
508.113800
51
540.000000
0
ARC
8
0
62
6
10
0.124745
20
0.948284
30
0.0
40
0.058238
50
308.136444
51
315.000000
0
ARC
8
0
62
6
10
0.579022
20
1.047912
30
0.0
40
0.030675
50
508.113831
51
540.000000
0
ARC
8
0
62
6
10
0.579021
20
0.948284
30
0.0
40
0.058238
50
308.136475
51
315.000000
0
ARC
8
0
62
6
10
-0.574642
20
1.047912
30
0.0
40
0.030675
50
508.113831
51
540.000000
0
ARC
8
0
62
6
10
-0.574643
20
0.948284
30
0.0
40
0.058238
50
308.136475
51
315.000000
0
ARC
8
0
62
6
10
-0.710668
20
1.047912
30
0.0
40
0.058238
50
495.000000
51
501.863525
0
ARC
8
0
62
6
10
-0.574643
20
1.047912
30
0.0
40
0.058238
50
495.000000
51
501.863525
0
ARC
8
0
62
6
10
-0.710668
20
0.948284
30
0.0
40
0.058238
50
315.000000
51
360.000000
0
ARC
8
0
62
6
10
-0.574643
20
0.948284
30
0.0
40
0.058238
50
315.000000
51
360.000000
0
ARC
8
0
62
6
10
-0.014043
20
1.045752
30
0.0
40
0.060399
50
315.000000
51
450.000305
0
ARC
8
0
62
6
10
0.124745
20
1.047912
30
0.0
40
0.058238
50
495.000000
51
501.863525
0
ARC
8
0
62
6
10
0.579021
20
0.948284
30
0.0
40
0.058238
50
315.000000
51
360.000000
0
ARC
8
0
62
6
10
0.579021
20
1.047912
30
0.0
40
0.058238
50
495.000000
51
501.863525
0
ARC
8
0
62
9
10
0.303540
20
-0.284718
30
0.0
40
0.016195
50
210.522003
51
269.441071
0
LINE
8
0
62
9
10
0.309107
20
-0.300967
30
0.0
11
0.303382
21
-0.300911
31
0.0
0
ARC
8
0
62
9
10
0.309251
20
-0.286184
30
0.0
40
0.014784
50
269.441071
51
357.350677
0
ARC
8
0
62
9
10
0.311994
20
-0.287958
30
0.0
40
0.012075
50
5.182272
51
59.344830
0
LINE
8
0
62
9
10
0.296040
20
-0.268074
30
0.0
11
0.318150
21
-0.277571
31
0.0
0
ARC
8
0
62
9
10
0.302197
20
-0.257687
30
0.0
40
0.012075
50
185.182404
51
239.344803
0
ARC
8
0
62
9
10
0.304880
20
-0.259422
30
0.0
40
0.014723
50
91.261345
51
177.491959
0
LINE
8
0
62
9
10
0.310267
20
-0.244697
30
0.0
11
0.304556
21
-0.244703
31
0.0
0
ARC
8
0
62
9
10
0.309757
20
-0.260371
30
0.0
40
0.015682
50
29.271709
51
88.136147
0
LINE
8
0
62
9
10
0.333634
20
-0.300878
30
0.0
11
0.333634
21
-0.244699
31
0.0
0
LINE
8
0
62
9
10
0.365993
20
-0.272789
30
0.0
11
0.335319
21
-0.272789
31
0.0
0
LINE
8
0
62
9
10
0.367742
20
-0.244699
30
0.0
11
0.367742
21
-0.300878
31
0.0
0
LINE
8
0
62
9
10
0.394428
20
-0.244699
30
0.0
11
0.373360
21
-0.300878
31
0.0
0
LINE
8
0
62
9
10
0.415495
20
-0.300878
30
0.0
11
0.394428
21
-0.244699
31
0.0
0
LINE
8
0
62
9
10
0.409295
20
-0.288840
30
0.0
11
0.379560
21
-0.288840
31
0.0
0
LINE
8
0
62
9
10
0.422517
20
-0.244699
30
0.0
11
0.422517
21
-0.300878
31
0.0
0
LINE
8
0
62
9
10
0.442902
20
-0.244699
30
0.0
11
0.422517
21
-0.244699
31
0.0
0
ARC
8
0
62
9
10
0.442068
20
-0.258744
30
0.0
40
0.014070
50
273.401001
51
86.599007
0
LINE
8
0
62
9
10
0.423360
20
-0.272789
30
0.0
11
0.442902
21
-0.272789
31
0.0
0
LINE
8
0
62
9
10
0.463170
20
-0.300879
30
0.0
11
0.496115
21
-0.300879
31
0.0
0
LINE
8
0
62
9
10
0.463150
20
-0.272789
30
0.0
11
0.463170
21
-0.300879
31
0.0
0
LINE
8
0
62
9
10
0.488892
20
-0.272789
30
0.0
11
0.463150
21
-0.272789
31
0.0
0
LINE
8
0
62
9
10
0.463130
20
-0.244700
30
0.0
11
0.463149
21
-0.271947
31
0.0
0
LINE
8
0
62
9
10
0.493306
20
-0.244700
30
0.0
11
0.463130
21
-0.244700
31
0.0
0
LINE
8
0
62
9
10
-0.167797
20
-0.272794
30
0.0
11
-0.188111
21
-0.272794
31
0.0
0
ARC
8
0
62
9
10
-0.167801
20
-0.286856
30
0.0
40
0.014062
50
270.000000
51
89.981880
0
LINE
8
0
62
9
10
-0.189799
20
-0.300918
30
0.0
11
-0.167801
21
-0.300918
31
0.0
0
LINE
8
0
62
9
10
-0.189799
20
-0.244739
30
0.0
11
-0.189799
21
-0.300918
31
0.0
0
LINE
8
0
62
9
10
-0.170312
20
-0.244739
30
0.0
11
-0.189799
21
-0.244739
31
0.0
0
ARC
8
0
62
9
10
-0.170425
20
-0.258858
30
0.0
40
0.014119
50
296.191833
51
89.543999
0
LINE
8
0
62
9
10
-0.128934
20
-0.300988
30
0.0
11
-0.145006
21
-0.300988
31
0.0
0
LINE
8
0
62
9
10
-0.136970
20
-0.246427
30
0.0
11
-0.136970
21
-0.299301
31
0.0
0
LINE
8
0
62
9
10
-0.129019
20
-0.244739
30
0.0
11
-0.145006
21
-0.244739
31
0.0
0
LINE
8
0
62
9
10
-0.083315
20
-0.276119
30
0.0
11
-0.107050
21
-0.276119
31
0.0
0
ARC
8
0
62
9
10
-0.083315
20
-0.277806
30
0.0
40
0.001687
50
0.000000
51
90.000000
0
LINE
8
0
62
9
10
-0.081628
20
-0.282053
30
0.0
11
-0.081628
21
-0.277806
31
0.0
0
ARC
8
0
62
9
10
-0.100779
20
-0.282200
30
0.0
40
0.019152
50
200.855255
51
0.439684
0
ARC
8
0
62
9
10
-0.071216
20
-0.272951
30
0.0
40
0.050106
50
161.293991
51
198.703979
0
ARC
8
0
62
9
10
-0.099838
20
-0.265421
30
0.0
40
0.020684
50
35.680031
51
155.613174
0
ARC
8
0
62
9
10
-0.629921
20
-0.629921
30
0.0
40
0.157480
50
360.000000
51
90.000000
0
ARC
8
0
62
9
10
-0.629921
20
0.629921
30
0.0
40
0.157480
50
270.000000
51
0.000000
0
ARC
8
0
62
9
10
0.629921
20
0.629921
30
0.0
40
0.157480
50
180.000000
51
270.000000
0
LINE
8
0
62
9
10
-0.692913
20
-0.409449
30
0.0
11
-0.692913
21
0.409449
31
0.0
0
LINE
8
0
62
9
10
-0.409449
20
0.692913
30
0.0
11
0.409449
21
0.692913
31
0.0
0
ARC
8
0
62
9
10
0.629921
20
0.409449
30
0.0
40
0.062992
50
360.000000
51
90.000000
0
ARC
8
0
62
9
10
0.409449
20
0.629921
30
0.0
40
0.062992
50
360.000000
51
90.000000
0
ARC
8
0
62
9
10
-0.409449
20
0.629921
30
0.0
40
0.062992
50
90.000000
51
180.000000
0
ARC
8
0
62
9
10
-0.629921
20
0.409449
30
0.0
40
0.062992
50
90.000000
51
180.000000
0
ARC
8
0
62
9
10
-0.629921
20
-0.409449
30
0.0
40
0.062992
50
180.000000
51
270.000000
0
ARC
8
0
62
9
10
-0.409449
20
-0.629921
30
0.0
40
0.062992
50
180.000000
51
270.000000
0
ARC
8
0
62
9
10
0.629921
20
-0.629921
30
0.0
40
0.157480
50
90.000000
51
180.000000
0
ARC
8
0
62
9
10
0.629921
20
-0.409449
30
0.0
40
0.062992
50
270.000000
51
360.000000
0
ARC
8
0
62
9
10
0.409449
20
-0.629921
30
0.0
40
0.062992
50
270.000000
51
0.000000
0
LINE
8
0
62
9
10
-0.409449
20
-0.692913
30
0.0
11
0.409449
21
-0.692913
31
0.0
0
LINE
8
0
62
9
10
0.692913
20
0.409449
30
0.0
11
0.692913
21
-0.409449
31
0.0
0
ARC
8
0
62
9
10
-0.009019
20
-0.284271
30
0.0
40
0.016716
50
196.004822
51
267.948395
0
ARC
8
0
62
9
10
0.022319
20
-0.272829
30
0.0
40
0.050049
50
161.294113
51
198.705887
0
ARC
8
0
62
9
10
-0.009019
20
-0.261424
30
0.0
40
0.016726
50
16.128889
51
163.872177
0
ARC
8
0
62
9
10
-0.040356
20
-0.272829
30
0.0
40
0.050049
50
341.293762
51
18.706244
0
ARC
8
0
62
9
10
-0.009019
20
-0.284271
30
0.0
40
0.016716
50
272.763977
51
343.994110
0
LINE
8
0
62
9
10
0.019283
20
-0.244699
30
0.0
11
0.019283
21
-0.300878
31
0.0
0
LINE
8
0
62
9
10
0.039668
20
-0.244699
30
0.0
11
0.019283
21
-0.244699
31
0.0
0
ARC
8
0
62
9
10
0.039397
20
-0.258744
30
0.0
40
0.014047
50
271.095276
51
88.895920
0
LINE
8
0
62
9
10
0.021127
20
-0.272789
30
0.0
11
0.039666
21
-0.272789
31
0.0
0
LINE
8
0
62
9
10
0.053713
20
-0.300878
30
0.0
11
0.040466
21
-0.274389
31
0.0
0
LINE
8
0
62
9
10
0.080398
20
-0.244699
30
0.0
11
0.059331
21
-0.300878
31
0.0
0
LINE
8
0
62
9
10
0.101465
20
-0.300878
30
0.0
11
0.080398
21
-0.244699
31
0.0
0
LINE
8
0
62
9
10
0.095265
20
-0.288840
30
0.0
11
0.065531
21
-0.288840
31
0.0
0
LINE
8
0
62
9
10
0.107822
20
-0.244699
30
0.0
11
0.107822
21
-0.300878
31
0.0
0
LINE
8
0
62
9
10
0.142319
20
-0.300878
30
0.0
11
0.107822
21
-0.244699
31
0.0
0
LINE
8
0
62
9
10
0.142319
20
-0.244699
30
0.0
11
0.142319
21
-0.300878
31
0.0
0
LINE
8
0
62
9
10
0.187818
20
-0.276040
30
0.0
11
0.164113
21
-0.276040
31
0.0
0
ARC
8
0
62
9
10
0.187818
20
-0.277725
30
0.0
40
0.001685
50
0.000000
51
90.000000
0
LINE
8
0
62
9
10
0.189503
20
-0.281967
30
0.0
11
0.189503
21
-0.277725
31
0.0
0
ARC
8
0
62
9
10
0.170376
20
-0.282114
30
0.0
40
0.019128
50
200.855255
51
0.439684
0
ARC
8
0
62
9
10
0.199902
20
-0.272876
30
0.0
40
0.050044
50
161.293991
51
198.703979
0
ARC
8
0
62
9
10
0.171316
20
-0.265356
30
0.0
40
0.020658
50
35.680031
51
155.613174
0
LINE
8
0
62
9
10
0.195968
20
-0.300879
30
0.0
11
0.228913
21
-0.300879
31
0.0
0
LINE
8
0
62
9
10
0.195948
20
-0.272789
30
0.0
11
0.195968
21
-0.300879
31
0.0
0
LINE
8
0
62
9
10
0.221690
20
-0.272789
30
0.0
11
0.195948
21
-0.272789
31
0.0
0
LINE
8
0
62
9
10
0.195928
20
-0.244700
30
0.0
11
0.195947
21
-0.271947
31
0.0
0
LINE
8
0
62
9
10
0.226104
20
-0.244700
30
0.0
11
0.195928
21
-0.244700
31
0.0
0
ENDSEC
0
EOF
