999
File generated by Conversation
0
SECTION
2
HEADER
0
SECTION
2
HEADER
9
$ACADVER
1
AC1021
9
$INSBASE
10
0.0
20
0.0
30
0.0
9
$INSUNITS
70
4
9
$EXTMIN
10
0.0
20
0.0
30
0.0
9
$EXTMAX
10
1000.0
20
1000.0
30
0.0
0
ENDSEC
0
SECTION
2
TABLES
0
TABLE
2
LTYPE
70
1
0
LTYPE
2
CONTINUOUS
70
64
3
Solid line
72
65
73
0
40
0.0
0
ENDTAB
0
TABLE
2
LAYER
70
1
0
LAYER
2
0
70
64
62
7
6
CONTINUOUS
0
ENDTAB
0
TABLE
2
STYLE
70
1
0
STYLE
2
STANDARD
70
0
40
0.0
41
1.0
50
0.0
71
0
42
0.2
3
txt
4

0
ENDTAB
0
ENDSEC
0
SECTION
2
ENTITIES
0
LINE
8
0
62
0
10
20.030199
20
28.096222
30
0.0
11
19.780199
21
27.846222
31
0.0
0
LINE
8
0
62
0
10
19.311129
20
28.096222
30
0.0
11
19.061127
21
27.846222
31
0.0
0
LINE
8
0
62
0
10
20.030199
20
22.606728
30
0.0
11
19.780199
21
22.356728
31
0.0
0
LINE
8
0
62
0
10
17.872782
20
28.096222
30
0.0
11
17.622782
21
27.846222
31
0.0
0
LINE
8
0
62
0
10
16.698177
20
28.096222
30
0.0
11
16.448177
21
27.846222
31
0.0
0
LINE
8
0
62
0
10
17.417299
20
22.606728
30
0.0
11
17.167299
21
22.356728
31
0.0
0
LINE
8
0
62
0
10
11.722980
20
27.846222
30
0.0
11
11.972980
21
28.096222
31
0.0
0
LINE
8
0
62
0
10
12.466078
20
27.846222
30
0.0
11
12.716078
21
28.096222
31
0.0
0
LINE
8
0
62
0
10
12.466078
20
22.356728
30
0.0
11
12.716078
21
22.606728
31
0.0
0
LINE
8
0
62
0
10
7.887805
20
27.846222
30
0.0
11
8.137805
21
28.096222
31
0.0
0
LINE
8
0
62
0
10
11.195888
20
27.846222
30
0.0
11
11.445889
21
28.096222
31
0.0
0
LINE
8
0
62
0
10
11.195888
20
27.222939
30
0.0
11
11.445889
21
27.472940
31
0.0
0
LINE
8
0
62
0
10
9.901426
20
22.356728
30
0.0
11
10.151426
21
22.606728
31
0.0
0
LINE
8
0
62
0
10
6.180110
20
27.846222
30
0.0
11
6.430110
21
28.096222
31
0.0
0
LINE
8
0
62
0
10
7.186908
20
27.846222
30
0.0
11
7.436908
21
28.096222
31
0.0
0
LINE
8
0
62
0
10
5.628763
20
22.356728
30
0.0
11
5.878763
21
22.606728
31
0.0
0
LINE
8
0
62
0
10
8.457416
20
22.356728
30
0.0
11
8.707416
21
22.606728
31
0.0
0
LINE
8
0
62
0
10
6.030765
20
24.226519
30
0.0
11
6.280764
21
24.476519
31
0.0
0
LINE
8
0
62
0
10
-2.164263
20
27.846222
30
0.0
11
-1.914263
21
28.096222
31
0.0
0
LINE
8
0
62
0
10
-1.421144
20
25.431038
30
0.0
11
-1.171144
21
25.681038
31
0.0
0
LINE
8
0
62
0
10
-1.421144
20
22.356728
30
0.0
11
-1.171144
21
22.606728
31
0.0
0
LINE
8
0
62
0
10
0.927447
20
22.356728
30
0.0
11
1.177447
21
22.606728
31
0.0
0
LINE
8
0
62
0
10
-5.160475
20
27.846222
30
0.0
11
-4.910475
21
28.096222
31
0.0
0
LINE
8
0
62
0
10
-2.691404
20
27.846222
30
0.0
11
-2.441404
21
28.096222
31
0.0
0
LINE
8
0
62
0
10
-2.691404
20
27.222939
30
0.0
11
-2.441404
21
27.472940
31
0.0
0
LINE
8
0
62
0
10
-2.787287
20
25.473030
30
0.0
11
-2.537287
21
25.723030
31
0.0
0
LINE
8
0
62
0
10
-2.787287
20
24.849802
30
0.0
11
-2.537287
21
25.099802
31
0.0
0
LINE
8
0
62
0
10
-2.643452
20
22.980009
30
0.0
11
-2.393452
21
23.230011
31
0.0
0
LINE
8
0
62
0
10
-2.643452
20
22.356728
30
0.0
11
-2.393452
21
22.606728
31
0.0
0
LINE
8
0
62
0
10
-4.417345
20
25.473030
30
0.0
11
-4.167345
21
25.723030
31
0.0
0
LINE
8
0
62
0
10
-4.167345
20
23.230011
30
0.0
11
-4.417345
21
22.980009
31
0.0
0
LINE
8
0
62
0
10
-6.886201
20
22.356728
30
0.0
11
-6.636201
21
22.606728
31
0.0
0
LINE
8
0
62
0
10
-6.180747
20
28.096222
30
0.0
11
-6.430747
21
27.846222
31
0.0
0
LINE
8
0
62
0
10
-5.687605
20
27.846222
30
0.0
11
-5.437605
21
28.096222
31
0.0
0
LINE
8
0
62
0
10
-8.204617
20
27.846222
30
0.0
11
-7.954617
21
28.096222
31
0.0
0
LINE
8
0
62
0
10
-8.995699
20
27.846222
30
0.0
11
-8.745699
21
28.096222
31
0.0
0
LINE
8
0
62
0
10
-10.241923
20
27.846222
30
0.0
11
-9.991923
21
28.096222
31
0.0
0
LINE
8
0
62
0
10
-9.522852
20
27.846222
30
0.0
11
-9.272852
21
28.096222
31
0.0
0
LINE
8
0
62
0
10
-9.522852
20
22.356728
30
0.0
11
-9.272852
21
22.606728
31
0.0
0
LINE
8
0
62
0
10
-11.680269
20
27.846222
30
0.0
11
-11.430270
21
28.096222
31
0.0
0
LINE
8
0
62
0
10
-12.854873
20
27.846222
30
0.0
11
-12.604873
21
28.096222
31
0.0
0
LINE
8
0
62
0
10
-12.135752
20
22.356728
30
0.0
11
-11.885752
21
22.606728
31
0.0
0
LINE
8
0
62
0
10
-16.821720
20
26.366976
30
0.0
11
-16.571720
21
26.616976
31
0.0
0
LINE
8
0
62
0
10
-16.821732
20
23.836412
30
0.0
11
-16.571732
21
24.086412
31
0.0
0
LINE
8
0
62
0
10
-17.521799
20
23.836412
30
0.0
11
-17.271801
21
24.086412
31
0.0
0
LINE
8
0
62
0
10
2.139387
20
23.836412
30
0.0
11
2.389387
21
24.086412
31
0.0
0
LINE
8
0
62
0
10
1.439291
20
23.836412
30
0.0
11
1.689291
21
24.086412
31
0.0
0
LINE
8
0
62
0
10
4.397771
20
26.366976
30
0.0
11
4.647770
21
26.616976
31
0.0
0
LINE
8
0
62
0
10
13.678006
20
23.836412
30
0.0
11
13.928006
21
24.086412
31
0.0
0
LINE
8
0
62
0
10
15.936368
20
26.366976
30
0.0
11
16.186367
21
26.616976
31
0.0
0
LINE
8
0
62
0
10
15.936368
20
23.836412
30
0.0
11
16.186367
21
24.086412
31
0.0
0
LINE
8
0
62
0
10
13.678006
20
26.366976
30
0.0
11
13.928006
21
26.616976
31
0.0
0
LINE
8
0
62
0
10
-15.625046
20
23.836412
30
0.0
11
-15.375046
21
24.086412
31
0.0
0
LINE
8
0
62
0
10
-15.625046
20
26.366976
30
0.0
11
-15.375046
21
26.616976
31
0.0
0
LINE
8
0
62
0
10
-13.366683
20
26.366976
30
0.0
11
-13.116683
21
26.616976
31
0.0
0
LINE
8
0
62
0
10
-13.366683
20
23.836412
30
0.0
11
-13.116683
21
24.086412
31
0.0
0
LINE
8
0
62
0
10
-19.080086
20
23.836412
30
0.0
11
-18.830088
21
24.086412
31
0.0
0
LINE
8
0
62
0
10
-19.080086
20
26.366976
30
0.0
11
-18.830088
21
26.616976
31
0.0
0
LINE
8
0
62
0
10
3.585907
20
25.156586
30
0.0
11
3.835907
21
25.406586
31
0.0
0
LINE
8
0
62
0
10
2.567050
20
25.671568
30
0.0
11
2.817050
21
25.921568
31
0.0
0
LINE
8
0
62
0
10
-0.606705
20
27.846222
30
0.0
11
-0.356705
21
28.096222
31
0.0
0
LINE
8
0
62
0
10
0.647571
20
24.203575
30
0.0
11
0.897571
21
24.453575
31
0.0
0
LINE
8
0
62
0
10
-19.346939
20
27.412958
30
0.0
11
-19.096939
21
27.662958
31
0.0
0
LINE
8
0
62
0
10
-15.891910
20
27.412958
30
0.0
11
-15.641910
21
27.662958
31
0.0
0
LINE
8
0
62
0
10
-17.254990
20
22.790432
30
0.0
11
-17.004990
21
23.040434
31
0.0
0
LINE
8
0
62
0
10
-13.799943
20
22.790430
30
0.0
11
-13.549943
21
23.040430
31
0.0
0
LINE
8
0
62
0
10
0.478093
20
25.227306
30
0.0
11
0.728094
21
25.477308
31
0.0
0
LINE
8
0
62
0
10
3.964502
20
22.790436
30
0.0
11
4.214502
21
23.040436
31
0.0
0
LINE
8
0
62
0
10
1.872545
20
27.412958
30
0.0
11
2.122545
21
27.662958
31
0.0
0
LINE
8
0
62
0
10
15.503108
20
22.790430
30
0.0
11
15.753108
21
23.040430
31
0.0
0
LINE
8
0
62
0
10
13.411142
20
27.412958
30
0.0
11
13.661142
21
27.662958
31
0.0
0
LINE
8
0
62
0
10
-0.356694
20
25.681038
30
0.0
11
-0.606694
21
25.431038
31
0.0
0
LINE
8
0
62
1
10
-10.241923
20
24.194635
30
0.0
11
-10.241923
21
23.123833
31
0.0
0
LINE
8
0
62
1
10
-10.241923
20
27.846222
30
0.0
11
-9.522852
21
27.846222
31
0.0
0
LINE
8
0
62
1
10
-9.522852
20
27.846222
30
0.0
11
-9.522852
21
22.356728
31
0.0
0
LINE
8
0
62
1
10
-9.522852
20
22.356728
30
0.0
11
-10.697454
21
22.356728
31
0.0
0
LINE
8
0
62
1
10
-10.697454
20
22.356728
30
0.0
11
-11.885752
21
26.159252
31
0.0
0
LINE
8
0
62
1
10
-12.135752
20
26.959246
30
0.0
11
-12.135752
21
22.356728
31
0.0
0
LINE
8
0
62
1
10
-12.135752
20
22.356728
30
0.0
11
-12.854873
21
22.356728
31
0.0
0
LINE
8
0
62
1
10
-12.854873
20
22.356728
30
0.0
11
-12.854873
21
27.846222
31
0.0
0
LINE
8
0
62
1
10
-12.854873
20
27.846222
30
0.0
11
-11.680269
21
27.846222
31
0.0
0
LINE
8
0
62
1
10
-11.680269
20
27.846222
30
0.0
11
-10.241923
21
23.123833
31
0.0
0
LINE
8
0
62
1
10
-19.080086
20
26.366976
30
0.0
11
-19.080086
21
23.836412
31
0.0
0
ARC
8
0
62
1
10
-18.300943
20
23.836412
30
0.0
40
0.779144
50
180.000000
51
328.113800
0
LINE
8
0
62
1
10
-17.521799
20
23.836412
30
0.0
11
-16.821732
21
23.836412
31
0.0
0
ARC
8
0
62
1
10
-18.300968
20
23.836412
30
0.0
40
1.479237
50
180.000000
51
315.000000
0
LINE
8
0
62
1
10
-19.780207
20
23.836412
30
0.0
11
-19.780199
21
26.366976
31
0.0
0
ARC
8
0
62
1
10
-18.300961
20
26.366976
30
0.0
40
1.479240
50
0.000000
51
128.136475
0
LINE
8
0
62
1
10
-16.821720
20
26.366976
30
0.0
11
-17.521799
21
26.366976
31
0.0
0
ARC
8
0
62
1
10
-18.300943
20
26.366976
30
0.0
40
0.779144
50
0.000000
51
121.886200
0
ARC
8
0
62
1
10
-14.845903
20
26.366976
30
0.0
40
0.779141
50
0.000000
51
121.886169
0
ARC
8
0
62
1
10
-14.845926
20
26.366976
30
0.0
40
1.479243
50
0.000000
51
128.136475
0
ARC
8
0
62
1
10
-14.845903
20
23.836412
30
0.0
40
0.779141
50
180.000000
51
328.113831
0
LINE
8
0
62
1
10
-15.625046
20
23.836412
30
0.0
11
-15.625046
21
26.366976
31
0.0
0
ARC
8
0
62
1
10
-14.845926
20
23.836412
30
0.0
40
1.479243
50
180.000000
51
315.000000
0
LINE
8
0
62
1
10
-13.366683
20
23.836412
30
0.0
11
-13.366683
21
26.366976
31
0.0
0
LINE
8
0
62
1
10
-16.325169
20
23.836412
30
0.0
11
-16.325169
21
26.366976
31
0.0
0
LINE
8
0
62
1
10
-14.066763
20
23.836412
30
0.0
11
-14.066763
21
26.366976
31
0.0
0
LINE
8
0
62
1
10
-11.885752
20
26.159252
30
0.0
11
-12.135752
21
26.959246
31
0.0
0
LINE
8
0
62
1
10
-10.241923
20
24.194635
30
0.0
11
-10.241923
21
27.846222
31
0.0
0
ARC
8
0
62
1
10
-18.300943
20
23.836412
30
0.0
40
0.779144
50
328.113800
51
0.000000
0
ARC
8
0
62
1
10
-18.300943
20
26.366976
30
0.0
40
0.779144
50
121.886200
51
180.000000
0
ARC
8
0
62
1
10
-18.300961
20
26.366976
30
0.0
40
1.479240
50
128.136475
51
135.000000
0
ARC
8
0
62
1
10
-18.300968
20
23.836412
30
0.0
40
1.479237
50
321.863556
51
0.000000
0
ARC
8
0
62
1
10
-14.845903
20
26.366976
30
0.0
40
0.779141
50
121.886169
51
180.000000
0
ARC
8
0
62
1
10
-14.845903
20
23.836412
30
0.0
40
0.779141
50
328.113831
51
0.000000
0
ARC
8
0
62
1
10
-14.845926
20
26.366976
30
0.0
40
1.479243
50
128.136475
51
135.000000
0
ARC
8
0
62
1
10
-14.845926
20
23.836412
30
0.0
40
1.479243
50
321.863525
51
0.000000
0
ARC
8
0
62
1
10
-18.300961
20
26.366976
30
0.0
40
1.479240
50
135.000000
51
180.000000
0
ARC
8
0
62
1
10
-14.845926
20
26.366976
30
0.0
40
1.479243
50
135.000000
51
180.000000
0
ARC
8
0
62
1
10
-18.300968
20
23.836412
30
0.0
40
1.479237
50
315.000000
51
321.863556
0
ARC
8
0
62
1
10
-14.845926
20
23.836412
30
0.0
40
1.479243
50
315.000000
51
321.863525
0
LINE
8
0
62
2
10
-7.305701
20
23.195774
30
0.0
11
-7.158555
21
23.977873
31
0.0
0
LINE
8
0
62
2
10
-6.430747
20
27.846222
30
0.0
11
-5.687605
21
27.846222
31
0.0
0
LINE
8
0
62
2
10
-5.687605
20
27.846222
30
0.0
11
-6.886201
21
22.356728
31
0.0
0
LINE
8
0
62
2
10
-6.886201
20
22.356728
30
0.0
11
-7.821080
21
22.356728
31
0.0
0
LINE
8
0
62
2
10
-7.821080
20
22.356728
30
0.0
11
-8.995699
21
27.846222
31
0.0
0
LINE
8
0
62
2
10
-8.995699
20
27.846222
30
0.0
11
-8.204617
21
27.846222
31
0.0
0
LINE
8
0
62
2
10
-8.204617
20
27.846222
30
0.0
11
-7.305701
21
23.195774
31
0.0
0
LINE
8
0
62
2
10
-4.417345
20
27.222939
30
0.0
11
-4.417345
21
25.473030
31
0.0
0
LINE
8
0
62
2
10
-4.417345
20
25.473030
30
0.0
11
-2.787287
21
25.473030
31
0.0
0
LINE
8
0
62
2
10
-2.787287
20
25.473030
30
0.0
11
-2.787287
21
24.849802
31
0.0
0
LINE
8
0
62
2
10
-2.787287
20
24.849802
30
0.0
11
-4.167345
21
24.849802
31
0.0
0
LINE
8
0
62
2
10
-4.417345
20
24.849802
30
0.0
11
-4.417345
21
22.980009
31
0.0
0
LINE
8
0
62
2
10
-4.417345
20
22.980009
30
0.0
11
-2.643452
21
22.980009
31
0.0
0
LINE
8
0
62
2
10
-2.643452
20
22.980009
30
0.0
11
-2.643452
21
22.356728
31
0.0
0
LINE
8
0
62
2
10
-2.643452
20
22.356728
30
0.0
11
-5.160475
21
22.356728
31
0.0
0
LINE
8
0
62
2
10
-5.160475
20
22.356728
30
0.0
11
-5.160475
21
27.846222
31
0.0
0
LINE
8
0
62
2
10
-5.160475
20
27.846222
30
0.0
11
-2.691404
21
27.846222
31
0.0
0
LINE
8
0
62
2
10
-2.691404
20
27.846222
30
0.0
11
-2.691404
21
27.222939
31
0.0
0
LINE
8
0
62
2
10
-2.691404
20
27.222939
30
0.0
11
-4.167345
21
27.222939
31
0.0
0
LINE
8
0
62
2
10
-1.421144
20
27.193026
30
0.0
11
-1.421144
21
25.431038
31
0.0
0
LINE
8
0
62
2
10
-2.164263
20
27.846222
30
0.0
11
-0.606705
21
27.846222
31
0.0
0
ARC
8
0
62
2
10
-0.606696
20
26.312096
30
0.0
40
1.534125
50
302.855255
51
315.000000
0
ARC
8
0
62
2
10
-0.779988
20
23.987255
30
0.0
40
1.443856
50
8.616516
51
45.856628
0
LINE
8
0
62
2
10
0.647571
20
24.203575
30
0.0
11
0.927447
21
22.356728
31
0.0
0
LINE
8
0
62
2
10
0.927447
20
22.356728
30
0.0
11
0.274310
21
22.356728
31
0.0
0
LINE
8
0
62
2
10
0.274310
20
22.356728
30
0.0
11
0.001323
21
24.108944
31
0.0
0
ARC
8
0
62
2
10
-0.779931
20
23.987213
30
0.0
40
0.790681
50
8.856232
51
90.007751
0
LINE
8
0
62
2
10
-0.780039
20
24.777895
30
0.0
11
-1.171144
21
24.777861
31
0.0
0
LINE
8
0
62
2
10
-1.421144
20
24.777840
30
0.0
11
-1.421144
21
22.356728
31
0.0
0
LINE
8
0
62
2
10
-1.421144
20
22.356728
30
0.0
11
-2.164263
21
22.356728
31
0.0
0
LINE
8
0
62
2
10
-2.164263
20
22.356728
30
0.0
11
-2.164263
21
27.846222
31
0.0
0
ARC
8
0
62
2
10
-0.606694
20
26.312033
30
0.0
40
0.880993
50
270.000000
51
326.575317
0
LINE
8
0
62
2
10
-0.606694
20
27.193026
30
0.0
11
-1.171144
21
27.193026
31
0.0
0
ARC
8
0
62
3
10
-4.740031
20
-2.604240
30
0.0
40
0.479609
50
213.433289
51
270.015991
0
ARC
8
0
62
3
10
-4.681527
20
-2.601209
30
0.0
40
0.486157
50
263.104156
51
34.097916
0
ARC
8
0
62
3
10
-4.755353
20
-2.743145
30
0.0
40
0.631471
50
41.023712
51
127.558533
0
LINE
8
0
62
3
10
-5.140282
20
-1.575000
30
0.0
11
-5.140282
21
-2.242558
31
0.0
0
LINE
8
0
62
3
10
-4.228953
20
-1.575000
30
0.0
11
-5.140282
21
-1.575000
31
0.0
0
ARC
8
0
62
3
10
-3.652598
20
-2.709989
30
0.0
40
0.369648
50
199.465439
51
268.514557
0
ARC
8
0
62
3
10
-2.611527
20
-2.327927
30
0.0
40
1.478592
50
160.019180
51
199.980820
0
ARC
8
0
62
3
10
-3.650892
20
-1.946296
30
0.0
40
0.371400
50
19.447348
51
160.559586
0
ARC
8
0
62
3
10
-4.690257
20
-2.327927
30
0.0
40
1.478592
50
340.017426
51
19.982561
0
ARC
8
0
62
3
10
-3.647980
20
-2.711994
30
0.0
40
0.367846
50
271.354980
51
340.759247
0
LINE
8
0
62
3
10
-4.506526
20
-13.627361
30
0.0
11
-4.506526
21
-15.134692
31
0.0
0
LINE
8
0
62
3
10
-5.287108
20
-14.779393
30
0.0
11
-4.506526
21
-13.627361
31
0.0
0
LINE
8
0
62
3
10
-4.285808
20
-14.779393
30
0.0
11
-5.287108
21
-14.779393
31
0.0
0
LINE
8
0
62
3
10
-3.230677
20
-13.627361
30
0.0
11
-4.135075
21
-13.627361
31
0.0
0
ARC
8
0
62
3
10
-0.943701
20
-15.134946
30
0.0
40
2.739173
50
146.606873
51
179.994705
0
LINE
8
0
62
2
10
-1.421144
20
25.431038
30
0.0
11
-0.606694
21
25.431038
31
0.0
0
LINE
8
0
62
2
10
-1.171144
20
27.193026
30
0.0
11
-1.421144
21
27.193026
31
0.0
0
ARC
8
0
62
2
10
-0.606694
20
26.312033
30
0.0
40
0.880993
50
326.575317
51
90.000000
0
LINE
8
0
62
2
10
-1.171144
20
24.777861
30
0.0
11
-1.421144
21
24.777840
31
0.0
0
ARC
8
0
62
2
10
-0.606696
20
26.312096
30
0.0
40
1.534125
50
321.616882
51
90.000305
0
ARC
8
0
62
2
10
-0.606696
20
26.312096
30
0.0
40
1.534125
50
316.154449
51
321.616882
0
LINE
8
0
62
2
10
-4.167345
20
24.849802
30
0.0
11
-4.417345
21
24.849802
31
0.0
0
LINE
8
0
62
2
10
-4.167345
20
27.222939
30
0.0
11
-4.417345
21
27.222939
31
0.0
0
LINE
8
0
62
2
10
-7.158555
20
23.977873
30
0.0
11
-6.430747
21
27.846222
31
0.0
0
ARC
8
0
62
2
10
-0.606696
20
26.312096
30
0.0
40
1.534125
50
315.000000
51
316.154449
0
ARC
8
0
62
3
10
2.918495
20
26.366991
30
0.0
40
1.479210
50
180.000610
51
243.183960
0
ARC
8
0
62
3
10
2.918528
20
26.366976
30
0.0
40
1.479243
50
0.000000
51
128.136475
0
LINE
8
0
62
3
10
4.397771
20
26.366976
30
0.0
11
3.697680
21
26.366976
31
0.0
0
ARC
8
0
62
3
10
2.918536
20
26.366976
30
0.0
40
0.779144
50
0.000000
51
121.886200
0
ARC
8
0
62
3
10
2.918584
20
26.366955
30
0.0
40
0.779192
50
179.998413
51
243.182373
0
LINE
8
0
62
3
10
2.567050
20
25.671568
30
0.0
11
3.585907
21
25.156586
31
0.0
0
ARC
8
0
62
3
10
2.918516
20
23.836437
30
0.0
40
1.479257
50
321.863037
51
63.181458
0
ARC
8
0
62
3
10
2.918525
20
23.836412
30
0.0
40
1.479234
50
180.000000
51
315.000000
0
LINE
8
0
62
3
10
1.439291
20
23.836412
30
0.0
11
2.139387
21
23.836412
31
0.0
0
ARC
8
0
62
3
10
2.918528
20
23.836412
30
0.0
40
0.779141
50
180.000000
51
328.113831
0
ARC
8
0
62
3
10
2.918536
20
23.836416
30
0.0
40
0.779138
50
328.113220
51
63.183777
0
LINE
8
0
62
3
10
3.270028
20
24.531765
30
0.0
11
2.251183
21
25.046858
31
0.0
0
LINE
8
0
62
3
10
7.272103
20
24.226519
30
0.0
11
7.219739
21
24.476519
31
0.0
0
LINE
8
0
62
3
10
6.030765
20
24.226519
30
0.0
11
6.659541
21
27.151089
31
0.0
0
LINE
8
0
62
3
10
5.628763
20
22.356728
30
0.0
11
4.909619
21
22.356728
31
0.0
0
LINE
8
0
62
3
10
4.909619
20
22.356728
30
0.0
11
6.180110
21
27.846222
31
0.0
0
LINE
8
0
62
3
10
6.180110
20
27.846222
30
0.0
11
7.186908
21
27.846222
31
0.0
0
LINE
8
0
62
3
10
7.186908
20
27.846222
30
0.0
11
8.457416
21
22.356728
31
0.0
0
LINE
8
0
62
3
10
8.457416
20
22.356728
30
0.0
11
7.666344
21
22.356728
31
0.0
0
LINE
8
0
62
3
10
7.666344
20
22.356728
30
0.0
11
7.402655
21
23.603292
31
0.0
0
LINE
8
0
62
3
10
7.402655
20
23.603292
30
0.0
11
6.093022
21
23.603292
31
0.0
0
LINE
8
0
62
3
10
6.030765
20
24.226519
30
0.0
11
7.272103
21
24.226519
31
0.0
0
LINE
8
0
62
3
10
9.901426
20
27.222939
30
0.0
11
9.901426
21
22.606728
31
0.0
0
LINE
8
0
62
3
10
9.901426
20
22.356728
30
0.0
11
9.158307
21
22.356728
31
0.0
0
LINE
8
0
62
3
10
9.158307
20
22.356728
30
0.0
11
9.158307
21
27.222939
31
0.0
0
LINE
8
0
62
3
10
9.158307
20
27.222939
30
0.0
11
7.887805
21
27.222939
31
0.0
0
LINE
8
0
62
3
10
7.887805
20
27.222939
30
0.0
11
7.887805
21
27.846222
31
0.0
0
LINE
8
0
62
3
10
7.887805
20
27.846222
30
0.0
11
8.137805
21
27.846222
31
0.0
0
LINE
8
0
62
3
10
11.195888
20
27.846222
30
0.0
11
11.195888
21
27.222939
31
0.0
0
LINE
8
0
62
3
10
11.195888
20
27.222939
30
0.0
11
10.151426
21
27.222939
31
0.0
0
LINE
8
0
62
3
10
-4.665610
20
15.285510
30
0.0
11
-5.140282
21
16.000072
31
0.0
0
LINE
8
0
62
3
10
-4.639630
20
15.246407
30
0.0
11
-4.639630
21
14.492740
31
0.0
0
LINE
8
0
62
3
10
-4.138981
20
16.000072
30
0.0
11
-4.639630
21
15.246407
31
0.0
0
ARC
8
0
62
3
10
-4.722405
20
-11.772935
30
0.0
40
0.434512
50
210.522003
51
269.441071
0
LINE
8
0
62
3
10
-4.573039
20
-12.208929
30
0.0
11
-4.726643
21
-12.207428
31
0.0
0
ARC
8
0
62
3
10
-4.569168
20
-11.812282
30
0.0
40
0.396665
50
269.441071
51
357.350677
0
ARC
8
0
62
3
10
-4.495581
20
-11.859879
30
0.0
40
0.323975
50
5.182272
51
59.344830
0
LINE
8
0
62
3
10
-4.923630
20
-11.326388
30
0.0
11
-4.330395
21
-11.581179
31
0.0
0
ARC
8
0
62
3
10
-4.758445
20
-11.047687
30
0.0
40
0.323975
50
185.182404
51
239.344803
0
ARC
8
0
62
3
10
-4.686442
20
-11.094235
30
0.0
40
0.395031
50
91.261345
51
177.491959
0
LINE
8
0
62
3
10
-4.541901
20
-10.699141
30
0.0
11
-4.695138
21
-10.699302
31
0.0
0
ARC
8
0
62
3
10
-4.555584
20
-11.119692
30
0.0
40
0.420773
50
29.271709
51
88.136147
0
LINE
8
0
62
3
10
-3.914966
20
-12.206546
30
0.0
11
-3.914966
21
-10.699211
31
0.0
0
LINE
8
0
62
3
10
-3.046742
20
-11.452879
30
0.0
11
-3.869745
21
-11.452879
31
0.0
0
LINE
8
0
62
3
10
-2.999800
20
-10.699211
30
0.0
11
-2.999800
21
-12.206546
31
0.0
0
LINE
8
0
62
3
10
-2.335101
20
-12.206546
30
0.0
11
-2.765767
21
-12.206546
31
0.0
0
LINE
8
0
62
3
10
-2.550435
20
-10.744432
30
0.0
11
-2.550435
21
-12.161325
31
0.0
0
LINE
8
0
62
3
10
-2.337368
20
-10.699211
30
0.0
11
-2.765767
21
-10.699211
31
0.0
0
LINE
8
0
62
3
10
-2.062140
20
-11.452845
30
0.0
11
-1.417001
21
-11.452845
31
0.0
0
LINE
8
0
62
3
10
-2.107144
20
-10.699180
30
0.0
11
-2.107144
21
-12.206512
31
0.0
0
LINE
8
0
62
3
10
-1.298569
20
-10.699180
30
0.0
11
-2.107144
21
-10.699180
31
0.0
0
LINE
8
0
62
3
10
-0.519260
20
-10.744931
30
0.0
11
-0.519260
21
-12.206542
31
0.0
0
LINE
8
0
62
3
10
-0.037453
20
-10.699211
30
0.0
11
-1.001069
21
-10.699211
31
0.0
0
LINE
8
0
62
4
10
3.394122
20
-3.082330
30
0.0
11
4.278063
21
-3.082330
31
0.0
0
LINE
8
0
62
4
10
3.393583
20
-2.328665
30
0.0
11
3.394122
21
-3.082330
31
0.0
0
LINE
8
0
62
4
10
4.084265
20
-2.328665
30
0.0
11
3.393583
21
-2.328665
31
0.0
0
LINE
8
0
62
4
10
3.393046
20
-1.574998
30
0.0
11
3.393551
21
-2.306067
31
0.0
0
LINE
8
0
62
4
10
4.202698
20
-1.574998
30
0.0
11
3.393046
21
-1.574998
31
0.0
0
LINE
8
0
62
4
10
4.373263
20
-1.574983
30
0.0
11
4.373263
21
-3.082314
31
0.0
0
LINE
8
0
62
4
10
5.298839
20
-3.082314
30
0.0
11
4.373263
21
-1.574983
31
0.0
0
LINE
8
0
62
4
10
5.298839
20
-1.574983
30
0.0
11
5.298839
21
-3.082314
31
0.0
0
LINE
8
0
62
4
10
6.078145
20
-1.620701
30
0.0
11
6.078145
21
-3.082314
31
0.0
0
LINE
8
0
62
4
10
6.559953
20
-1.574982
30
0.0
11
5.596337
21
-1.574982
31
0.0
0
LINE
8
0
62
4
10
6.726920
20
-3.082330
30
0.0
11
7.610864
21
-3.082330
31
0.0
0
LINE
8
0
62
4
10
6.726383
20
-2.328665
30
0.0
11
6.726920
21
-3.082330
31
0.0
0
LINE
8
0
62
4
10
7.417063
20
-2.328665
30
0.0
11
6.726383
21
-2.328665
31
0.0
0
LINE
8
0
62
4
10
6.725845
20
-1.574998
30
0.0
11
6.726351
21
-2.306067
31
0.0
0
LINE
8
0
62
4
10
7.535497
20
-1.574998
30
0.0
11
6.725845
21
-1.574998
31
0.0
0
LINE
8
0
62
4
10
7.761596
20
-1.574982
30
0.0
11
7.761596
21
-3.082314
31
0.0
0
LINE
8
0
62
4
10
8.308544
20
-1.574982
30
0.0
11
7.761596
21
-1.574982
31
0.0
0
ARC
8
0
62
4
10
8.301281
20
-1.951815
30
0.0
40
0.376903
50
271.095276
51
88.895920
0
LINE
8
0
62
4
10
7.811065
20
-2.328649
30
0.0
11
8.308485
21
-2.328649
31
0.0
0
LINE
8
0
62
4
10
8.685376
20
-3.082314
30
0.0
11
8.329961
21
-2.371592
31
0.0
0
ARC
8
0
62
3
10
-4.722405
20
11.998218
30
0.0
40
0.434512
50
210.522003
51
269.441071
0
LINE
8
0
62
3
10
-4.573039
20
11.562227
30
0.0
11
-4.726643
21
11.563727
31
0.0
0
ARC
8
0
62
3
10
-4.569168
20
11.958873
30
0.0
40
0.396665
50
269.441071
51
357.350677
0
ARC
8
0
62
3
10
-4.495581
20
11.911274
30
0.0
40
0.323975
50
5.182272
51
59.344830
0
LINE
8
0
62
3
10
-4.923630
20
12.444766
30
0.0
11
-4.330395
21
12.189974
31
0.0
0
ARC
8
0
62
3
10
-4.758445
20
12.723466
30
0.0
40
0.323975
50
185.182404
51
212.263611
0
ARC
8
0
62
3
10
-4.686442
20
12.676917
30
0.0
40
0.395031
50
91.261345
51
177.491959
0
LINE
8
0
62
3
10
-4.541901
20
13.072013
30
0.0
11
-4.695138
21
13.071855
31
0.0
0
ARC
8
0
62
3
10
-4.555584
20
12.651463
30
0.0
40
0.420773
50
29.271709
51
88.136147
0
ARC
8
0
62
3
10
-4.758445
20
12.723466
30
0.0
40
0.323975
50
212.263611
51
239.344803
0
LINE
8
0
62
3
10
5.896771
20
23.603292
30
0.0
11
5.628763
21
22.356728
31
0.0
0
LINE
8
0
62
3
10
9.901426
20
22.606728
30
0.0
11
9.901426
21
22.356728
31
0.0
0
LINE
8
0
62
3
10
8.137805
20
27.846222
30
0.0
11
11.195888
21
27.846222
31
0.0
0
LINE
8
0
62
3
10
10.151426
20
27.222939
30
0.0
11
9.901426
21
27.222939
31
0.0
0
LINE
8
0
62
3
10
6.756385
20
26.688726
30
0.0
11
6.659541
21
27.151089
31
0.0
0
LINE
8
0
62
3
10
7.219739
20
24.476519
30
0.0
11
6.756385
21
26.688726
31
0.0
0
LINE
8
0
62
3
10
6.093022
20
23.603292
30
0.0
11
5.896771
21
23.603292
31
0.0
0
ARC
8
0
62
3
10
2.918536
20
26.366976
30
0.0
40
0.779144
50
121.886200
51
180.000000
0
ARC
8
0
62
3
10
2.918528
20
26.366976
30
0.0
40
1.479243
50
128.136475
51
135.000000
0
ARC
8
0
62
3
10
2.918525
20
23.836412
30
0.0
40
1.479234
50
315.000000
51
321.863556
0
ARC
8
0
62
3
10
2.918528
20
26.366976
30
0.0
40
1.479243
50
135.000000
51
180.000000
0
LINE
8
0
62
3
10
-4.612117
20
1.353236
30
0.0
11
-5.140282
21
1.353236
31
0.0
0
LINE
8
0
62
3
10
-4.612117
20
-0.154096
30
0.0
11
-5.140282
21
-0.154096
31
0.0
0
LINE
8
0
62
3
10
-5.140282
20
-0.154096
30
0.0
11
-5.140282
21
1.353236
31
0.0
0
LINE
8
0
62
3
10
2.831708
20
-10.699228
30
0.0
11
2.303544
21
-10.699228
31
0.0
0
LINE
8
0
62
3
10
2.831708
20
-12.206559
30
0.0
11
2.303544
21
-12.206559
31
0.0
0
LINE
8
0
62
3
10
2.303544
20
-12.206559
30
0.0
11
2.303544
21
-10.699228
31
0.0
0
LINE
8
0
62
4
10
12.466078
20
27.846222
30
0.0
11
11.722980
21
27.846222
31
0.0
0
LINE
8
0
62
4
10
11.722980
20
22.356728
30
0.0
11
12.466078
21
22.356728
31
0.0
0
LINE
8
0
62
7
10
-16.000000
20
-20.000000
30
0.0
11
16.000000
21
-20.000000
31
0.0
0
LINE
8
0
62
7
10
20.000000
20
16.000000
30
0.0
11
20.000000
21
-16.000000
31
0.0
0
LINE
8
0
62
4
10
12.466078
20
22.356728
30
0.0
11
12.466078
21
27.846222
31
0.0
0
LINE
8
0
62
4
10
11.722980
20
22.356728
30
0.0
11
11.722980
21
27.846222
31
0.0
0
ARC
8
0
62
7
10
-16.000000
20
16.000000
30
0.0
40
4.000000
50
90.000000
51
180.000000
0
ARC
8
0
62
7
10
16.000000
20
16.000000
30
0.0
40
4.000000
50
0.000000
51
90.000000
0
ARC
8
0
62
7
10
16.000000
20
-16.000000
30
0.0
40
4.000000
50
270.000000
51
0.000000
0
ARC
8
0
62
7
10
-16.000000
20
-16.000000
30
0.0
40
4.000000
50
180.000000
51
270.000000
0
LINE
8
0
62
7
10
-20.000000
20
-16.000000
30
0.0
11
-20.000000
21
16.000000
31
0.0
0
LINE
8
0
62
7
10
16.000000
20
20.000000
30
0.0
11
-16.000000
21
20.000000
31
0.0
0
ARC
8
0
62
4
10
14.457148
20
26.366976
30
0.0
40
0.779141
50
0.000000
51
121.886169
0
LINE
8
0
62
4
10
13.678006
20
26.366976
30
0.0
11
13.678006
21
23.836412
31
0.0
0
ARC
8
0
62
4
10
14.457125
20
26.366976
30
0.0
40
1.479243
50
0.000000
51
128.136475
0
LINE
8
0
62
4
10
15.936368
20
26.366976
30
0.0
11
15.936368
21
23.836412
31
0.0
0
LINE
8
0
62
4
10
19.061127
20
23.123833
30
0.0
11
19.061127
21
24.194635
31
0.0
0
LINE
8
0
62
4
10
19.780199
20
22.356728
30
0.0
11
18.605597
21
22.356728
31
0.0
0
LINE
8
0
62
4
10
18.605597
20
22.356728
30
0.0
11
17.417299
21
26.159252
31
0.0
0
LINE
8
0
62
4
10
17.167299
20
26.959246
30
0.0
11
17.167299
21
22.606728
31
0.0
0
LINE
8
0
62
4
10
17.167299
20
22.356728
30
0.0
11
16.448177
21
22.356728
31
0.0
0
LINE
8
0
62
4
10
16.448177
20
22.356728
30
0.0
11
16.448177
21
27.846222
31
0.0
0
LINE
8
0
62
4
10
16.448177
20
27.846222
30
0.0
11
17.622782
21
27.846222
31
0.0
0
LINE
8
0
62
4
10
17.622782
20
27.846222
30
0.0
11
19.061127
21
23.123833
31
0.0
0
LINE
8
0
62
7
10
-0.065245
20
2.773977
30
0.0
11
-0.065245
21
3.280135
31
0.0
0
LINE
8
0
62
7
10
-0.065245
20
4.281311
30
0.0
11
0.481701
21
4.281311
31
0.0
0
ARC
8
0
62
7
10
0.459306
20
3.904477
30
0.0
40
0.377497
50
273.401001
51
86.599007
0
LINE
8
0
62
7
10
0.481701
20
3.527643
30
0.0
11
-0.042635
21
3.527643
31
0.0
0
LINE
8
0
62
7
10
1.009268
20
4.281311
30
0.0
11
1.009268
21
3.204652
31
0.0
0
ARC
8
0
62
7
10
1.450680
20
3.211771
30
0.0
40
0.441468
50
180.923920
51
0.472477
0
LINE
8
0
62
7
10
1.892134
20
3.215411
30
0.0
11
1.892134
21
4.281311
31
0.0
0
LINE
8
0
62
7
10
2.118235
20
2.773977
30
0.0
11
2.118235
21
4.281311
31
0.0
0
LINE
8
0
62
7
10
2.118235
20
4.281311
30
0.0
11
2.665181
21
4.281311
31
0.0
0
ARC
8
0
62
7
10
2.657917
20
3.904478
30
0.0
40
0.376903
50
271.095276
51
88.895920
0
LINE
8
0
62
7
10
2.665121
20
3.527643
30
0.0
11
2.167703
21
3.527643
31
0.0
0
LINE
8
0
62
7
10
2.686596
20
3.484699
30
0.0
11
3.042013
21
2.773977
31
0.0
0
LINE
8
0
62
7
10
3.230431
20
2.773977
30
0.0
11
3.230431
21
4.281311
31
0.0
0
LINE
8
0
62
7
10
3.230431
20
4.281311
30
0.0
11
3.777376
21
4.281311
31
0.0
0
ARC
8
0
62
7
10
3.754982
20
3.904477
30
0.0
40
0.377497
50
273.401001
51
86.599007
0
LINE
8
0
62
7
10
3.777376
20
3.527643
30
0.0
11
3.253040
21
3.527643
31
0.0
0
LINE
8
0
62
7
10
4.304942
20
4.281311
30
0.0
11
4.304942
21
2.773977
31
0.0
0
LINE
8
0
62
7
10
4.304942
20
2.773977
30
0.0
11
5.188884
21
2.773977
31
0.0
0
LINE
8
0
62
7
10
6.272097
20
2.773962
30
0.0
11
5.388153
21
2.773962
31
0.0
0
LINE
8
0
62
7
10
5.388153
20
2.773962
30
0.0
11
5.387614
21
3.527627
31
0.0
0
LINE
8
0
62
7
10
5.387614
20
3.527627
30
0.0
11
6.078296
21
3.527627
31
0.0
0
LINE
8
0
62
7
10
5.387584
20
3.550226
30
0.0
11
5.387076
21
4.281295
31
0.0
0
LINE
8
0
62
7
10
5.387076
20
4.281295
30
0.0
11
6.196730
21
4.281295
31
0.0
0
LINE
8
0
62
4
10
19.061079
20
27.846222
30
0.0
11
19.780199
21
27.846222
31
0.0
0
LINE
8
0
62
4
10
19.780199
20
27.846222
30
0.0
11
19.780199
21
22.356728
31
0.0
0
LINE
8
0
62
7
10
-4.368397
20
3.528581
30
0.0
11
-3.823346
21
3.528581
31
0.0
0
ARC
8
0
62
7
10
-3.823465
20
3.151280
30
0.0
40
0.377302
50
270.000000
51
89.981880
0
LINE
8
0
62
7
10
-3.823465
20
2.773978
30
0.0
11
-4.413674
21
2.773978
31
0.0
0
LINE
8
0
62
7
10
-4.413674
20
2.773978
30
0.0
11
-4.413674
21
4.281311
31
0.0
0
LINE
8
0
62
7
10
-4.413674
20
4.281311
30
0.0
11
-3.890840
21
4.281311
31
0.0
0
ARC
8
0
62
7
10
-3.893855
20
3.902494
30
0.0
40
0.378826
50
296.191833
51
89.543999
0
LINE
8
0
62
7
10
-3.211837
20
2.772102
30
0.0
11
-2.780635
21
2.772102
31
0.0
0
LINE
8
0
62
7
10
-2.996238
20
2.817378
30
0.0
11
-2.996238
21
4.236034
31
0.0
0
LINE
8
0
62
7
10
-3.211837
20
4.281311
30
0.0
11
-2.782903
21
4.281311
31
0.0
0
LINE
8
0
62
7
10
-2.193452
20
3.439364
30
0.0
11
-1.556636
21
3.439364
31
0.0
0
ARC
8
0
62
7
10
-1.556636
20
3.394092
30
0.0
40
0.045272
50
0.000000
51
90.000000
0
LINE
8
0
62
7
10
-1.511366
20
3.394092
30
0.0
11
-1.511366
21
3.280135
31
0.0
0
ARC
8
0
62
7
10
-2.025210
20
3.276192
30
0.0
40
0.513861
50
200.855255
51
0.439684
0
ARC
8
0
62
7
10
-1.232013
20
3.524371
30
0.0
40
1.344391
50
161.293991
51
198.703979
0
ARC
8
0
62
7
10
-1.999948
20
3.726394
30
0.0
40
0.554955
50
35.680031
51
155.613174
0
LINE
8
0
62
7
10
-0.065245
20
3.280135
30
0.0
11
-0.065245
21
4.281311
31
0.0
0
LINE
8
0
62
4
10
12.977882
20
26.366976
30
0.0
11
12.977882
21
23.836412
31
0.0
0
ARC
8
0
62
4
10
14.457148
20
23.836412
30
0.0
40
0.779141
50
180.000000
51
328.113831
0
ARC
8
0
62
4
10
14.457125
20
23.836412
30
0.0
40
1.479243
50
180.000000
51
315.000000
0
LINE
8
0
62
4
10
15.236288
20
23.836412
30
0.0
11
15.236288
21
26.366976
31
0.0
0
LINE
8
0
62
4
10
19.061127
20
24.194635
30
0.0
11
19.061127
21
27.846222
31
0.0
0
LINE
8
0
62
4
10
17.417299
20
26.159252
30
0.0
11
17.167299
21
26.959246
31
0.0
0
LINE
8
0
62
4
10
17.167299
20
22.606728
30
0.0
11
17.167299
21
22.356728
31
0.0
0
ARC
8
0
62
4
10
14.457148
20
26.366976
30
0.0
40
0.779141
50
121.886169
51
180.000000
0
ARC
8
0
62
4
10
14.457148
20
23.836412
30
0.0
40
0.779141
50
328.113831
51
0.000000
0
ARC
8
0
62
4
10
14.457125
20
23.836412
30
0.0
40
1.479243
50
321.863525
51
0.000000
0
ARC
8
0
62
4
10
14.457125
20
26.366976
30
0.0
40
1.479243
50
128.136475
51
135.000000
0
ARC
8
0
62
4
10
14.457125
20
23.836412
30
0.0
40
1.479243
50
315.000000
51
321.863525
0
ARC
8
0
62
4
10
14.457125
20
26.366976
30
0.0
40
1.479243
50
135.000000
51
180.000000
0
ARC
8
0
62
7
10
7.768116
20
3.207585
30
0.0
40
0.434512
50
210.522003
51
269.441071
0
LINE
8
0
62
7
10
7.763876
20
2.773094
30
0.0
11
7.917483
21
2.771595
31
0.0
0
ARC
8
0
62
7
10
7.921351
20
3.168243
30
0.0
40
0.396665
50
269.441071
51
357.350677
0
ARC
8
0
62
7
10
7.994942
20
3.120646
30
0.0
40
0.323975
50
5.182272
51
59.344830
0
LINE
8
0
62
7
10
8.160126
20
3.399344
30
0.0
11
7.566892
21
3.654136
31
0.0
0
ARC
8
0
62
7
10
7.732077
20
3.932836
30
0.0
40
0.323975
50
185.182404
51
239.344803
0
ARC
8
0
62
7
10
7.804080
20
3.886286
30
0.0
40
0.395031
50
91.261345
51
177.491959
0
LINE
8
0
62
7
10
7.795383
20
4.281222
30
0.0
11
7.948623
21
4.281383
31
0.0
0
ARC
8
0
62
7
10
7.934935
20
3.860831
30
0.0
40
0.420773
50
29.271709
51
88.136147
0
LINE
8
0
62
7
10
9.221299
20
3.159735
30
0.0
11
9.699468
21
2.794722
31
0.0
0
ARC
8
0
62
7
10
9.159720
20
3.216959
30
0.0
40
0.448265
50
195.902084
51
315.740295
0
ARC
8
0
62
7
10
10.000529
20
3.524805
30
0.0
40
1.342854
50
161.294113
51
198.705887
0
ARC
8
0
62
7
10
9.159720
20
3.833221
30
0.0
40
0.448109
50
15.832771
51
164.168289
0
ARC
8
0
62
7
10
8.336691
20
3.532647
30
0.0
40
1.323499
50
335.052795
51
18.631470
0
LINE
8
0
62
7
10
9.838315
20
4.281311
30
0.0
11
9.838315
21
3.204652
31
0.0
0
ARC
8
0
62
7
10
10.279726
20
3.211771
30
0.0
40
0.441468
50
180.923920
51
0.472477
0
LINE
8
0
62
7
10
10.721179
20
3.215411
30
0.0
11
10.721179
21
4.281311
31
0.0
0
LINE
8
0
62
7
10
10.871913
20
2.773977
30
0.0
11
11.437165
21
4.281311
31
0.0
0
LINE
8
0
62
7
10
11.437165
20
4.281311
30
0.0
11
12.002414
21
2.773977
31
0.0
0
LINE
8
0
62
7
10
11.038259
20
3.096977
30
0.0
11
11.836068
21
3.096977
31
0.0
0
LINE
8
0
62
7
10
12.228513
20
2.773977
30
0.0
11
12.228513
21
4.281311
31
0.0
0
LINE
8
0
62
7
10
12.228513
20
4.281311
30
0.0
11
12.775458
21
4.281311
31
0.0
0
ARC
8
0
62
7
10
12.768197
20
3.904478
30
0.0
40
0.376903
50
271.095276
51
88.895920
0
LINE
8
0
62
7
10
12.775401
20
3.527643
30
0.0
11
12.277982
21
3.527643
31
0.0
0
LINE
8
0
62
7
10
12.796876
20
3.484699
30
0.0
11
13.152293
21
2.773977
31
0.0
0
LINE
8
0
62
7
10
14.203204
20
2.773962
30
0.0
11
13.319261
21
2.773962
31
0.0
0
LINE
8
0
62
7
10
13.319261
20
2.773962
30
0.0
11
13.318723
21
3.527627
31
0.0
0
LINE
8
0
62
7
10
13.318723
20
3.527627
30
0.0
11
14.009404
21
3.527627
31
0.0
0
LINE
8
0
62
7
10
13.318690
20
3.550226
30
0.0
11
13.318183
21
4.281295
31
0.0
0
LINE
8
0
62
7
10
13.318183
20
4.281295
30
0.0
11
14.127837
21
4.281295
31
0.0
0
LINE
8
0
62
5
10
-4.544808
20
9.621016
30
0.0
11
-4.000435
21
9.621016
31
0.0
0
ARC
8
0
62
5
10
-4.000555
20
9.244184
30
0.0
40
0.376832
50
270.000000
51
89.981880
0
LINE
8
0
62
5
10
-4.000555
20
8.867351
30
0.0
11
-4.590028
21
8.867351
31
0.0
0
LINE
8
0
62
5
10
-4.590028
20
8.867351
30
0.0
11
-4.590028
21
10.372808
31
0.0
0
LINE
8
0
62
5
10
-4.590028
20
10.372808
30
0.0
11
-4.067846
21
10.372808
31
0.0
0
ARC
8
0
62
5
10
-4.070857
20
9.994464
30
0.0
40
0.378355
50
296.191833
51
89.543999
0
LINE
8
0
62
5
10
-3.472988
20
10.372808
30
0.0
11
-3.472988
21
8.865475
31
0.0
0
LINE
8
0
62
5
10
-3.472988
20
8.865475
30
0.0
11
-2.589045
21
8.865475
31
0.0
0
LINE
8
0
62
5
10
-2.406012
20
10.372808
30
0.0
11
-2.406012
21
9.296149
31
0.0
0
ARC
8
0
62
5
10
-1.964600
20
9.303268
30
0.0
40
0.441468
50
180.923920
51
0.472477
0
LINE
8
0
62
5
10
-1.523146
20
9.306910
30
0.0
11
-1.523146
21
10.372808
31
0.0
0
LINE
8
0
62
5
10
-0.472237
20
8.865458
30
0.0
11
-1.356178
21
8.865458
31
0.0
0
LINE
8
0
62
5
10
-1.356178
20
8.865458
30
0.0
11
-1.356716
21
9.619124
31
0.0
0
LINE
8
0
62
5
10
-1.356716
20
9.619124
30
0.0
11
-0.666036
21
9.619124
31
0.0
0
LINE
8
0
62
5
10
-1.356747
20
9.641722
30
0.0
11
-1.357254
21
10.372789
31
0.0
0
LINE
8
0
62
5
10
-1.357254
20
10.372789
30
0.0
11
-0.547602
21
10.372789
31
0.0
0
ARC
8
0
62
5
10
0.966092
20
9.417333
30
0.0
40
0.554319
50
204.386841
51
324.320007
0
ARC
8
0
62
5
10
1.733150
20
9.619124
30
0.0
40
1.342854
50
161.294128
51
198.705872
0
ARC
8
0
62
5
10
0.966092
20
9.820916
30
0.0
40
0.554319
50
35.680031
51
155.613174
0
LINE
8
0
62
5
10
2.081054
20
8.867901
30
0.0
11
1.650392
21
8.867901
31
0.0
0
LINE
8
0
62
5
10
1.865724
20
10.330016
30
0.0
11
1.865724
21
8.913121
31
0.0
0
LINE
8
0
62
5
10
2.078790
20
10.375233
30
0.0
11
1.650392
21
10.375233
31
0.0
0
LINE
8
0
62
5
10
2.308858
20
10.375233
30
0.0
11
2.308858
21
8.867901
31
0.0
0
LINE
8
0
62
5
10
2.855802
20
10.375233
30
0.0
11
2.308858
21
10.375233
31
0.0
0
ARC
8
0
62
5
10
2.848540
20
9.998401
30
0.0
40
0.376903
50
271.095276
51
88.895920
0
LINE
8
0
62
5
10
2.358327
20
9.621569
30
0.0
11
2.855746
21
9.621569
31
0.0
0
LINE
8
0
62
5
10
3.232636
20
8.867901
30
0.0
11
2.877221
21
9.578626
31
0.0
0
ARC
8
0
62
5
10
3.959167
20
9.417333
30
0.0
40
0.554319
50
204.386841
51
324.320007
0
ARC
8
0
62
5
10
4.726222
20
9.619124
30
0.0
40
1.342854
50
161.294128
51
198.705872
0
ARC
8
0
62
5
10
3.959167
20
9.820916
30
0.0
40
0.554319
50
35.680031
51
155.613174
0
LINE
8
0
62
5
10
4.560166
20
8.867901
30
0.0
11
4.560166
21
10.375233
31
0.0
0
LINE
8
0
62
5
10
5.444106
20
8.867901
30
0.0
11
4.560166
21
8.867901
31
0.0
0
LINE
8
0
62
5
10
5.643374
20
8.867887
30
0.0
11
6.527317
21
8.867887
31
0.0
0
LINE
8
0
62
5
10
5.642838
20
9.621553
30
0.0
11
5.643374
21
8.867887
31
0.0
0
LINE
8
0
62
5
10
6.333516
20
9.621553
30
0.0
11
5.642838
21
9.621553
31
0.0
0
LINE
8
0
62
5
10
5.642301
20
10.375218
30
0.0
11
5.642804
21
9.644150
31
0.0
0
LINE
8
0
62
5
10
6.451949
20
10.375218
30
0.0
11
5.642301
21
10.375218
31
0.0
0
ARC
8
0
62
5
10
7.092022
20
9.301511
30
0.0
40
0.434512
50
210.522003
51
269.441071
0
LINE
8
0
62
5
10
7.241386
20
8.865523
30
0.0
11
7.087780
21
8.867020
31
0.0
0
ARC
8
0
62
5
10
7.245258
20
9.262166
30
0.0
40
0.396665
50
269.441071
51
357.350677
0
ARC
8
0
62
5
10
7.318844
20
9.214570
30
0.0
40
0.323975
50
5.182272
51
59.344830
0
LINE
8
0
62
5
10
6.890793
20
9.748062
30
0.0
11
7.484032
21
9.493270
31
0.0
0
ARC
8
0
62
5
10
7.055981
20
10.026761
30
0.0
40
0.323975
50
185.182404
51
239.344803
0
ARC
8
0
62
5
10
7.127979
20
9.980210
30
0.0
40
0.395031
50
91.261345
51
177.491959
0
LINE
8
0
62
5
10
7.272522
20
10.375307
30
0.0
11
7.119286
21
10.375146
31
0.0
0
ARC
8
0
62
5
10
7.258839
20
9.954759
30
0.0
40
0.420773
50
29.271709
51
88.136147
0
LINE
8
0
62
0
10
-9.991923
20
28.096222
30
0.0
11
-9.272852
21
28.096222
31
0.0
0
LINE
8
0
62
0
10
-9.272852
20
28.096222
30
0.0
11
-9.272852
21
22.606728
31
0.0
0
LINE
8
0
62
0
10
-12.604873
20
28.096222
30
0.0
11
-11.430270
21
28.096222
31
0.0
0
LINE
8
0
62
0
10
-11.430270
20
28.096222
30
0.0
11
-10.241923
21
24.194635
31
0.0
0
LINE
8
0
62
0
10
-18.830088
20
26.616976
30
0.0
11
-18.830088
21
24.086412
31
0.0
0
ARC
8
0
62
0
10
-18.050943
20
24.086412
30
0.0
40
0.779144
50
180.000000
51
301.886200
0
LINE
8
0
62
0
10
-17.271801
20
24.086412
30
0.0
11
-16.571732
21
24.086412
31
0.0
0
ARC
8
0
62
0
10
-18.050961
20
26.616976
30
0.0
40
1.479240
50
0.000000
51
135.000000
0
ARC
8
0
62
0
10
-14.595926
20
26.616976
30
0.0
40
1.479243
50
0.000000
51
135.000000
0
ARC
8
0
62
0
10
-14.595903
20
24.086412
30
0.0
40
0.779141
50
180.000000
51
301.886169
0
LINE
8
0
62
0
10
-15.375046
20
24.086412
30
0.0
11
-15.375046
21
26.616976
31
0.0
0
LINE
8
0
62
0
10
-13.116683
20
24.086412
30
0.0
11
-13.116683
21
26.616976
31
0.0
0
LINE
8
0
62
0
10
-6.180747
20
28.096222
30
0.0
11
-5.437605
21
28.096222
31
0.0
0
LINE
8
0
62
0
10
-5.437605
20
28.096222
30
0.0
11
-6.636201
21
22.606728
31
0.0
0
LINE
8
0
62
0
10
-8.745699
20
28.096222
30
0.0
11
-7.954617
21
28.096222
31
0.0
0
LINE
8
0
62
0
10
-7.954617
20
28.096222
30
0.0
11
-7.158555
21
23.977873
31
0.0
0
LINE
8
0
62
0
10
-4.167345
20
25.723030
30
0.0
11
-2.537287
21
25.723030
31
0.0
0
LINE
8
0
62
0
10
-2.537287
20
25.723030
30
0.0
11
-2.537287
21
25.099802
31
0.0
0
LINE
8
0
62
0
10
-4.167345
20
23.230011
30
0.0
11
-2.393452
21
23.230011
31
0.0
0
LINE
8
0
62
0
10
-2.393452
20
23.230011
30
0.0
11
-2.393452
21
22.606728
31
0.0
0
LINE
8
0
62
0
10
-4.910475
20
28.096222
30
0.0
11
-2.441404
21
28.096222
31
0.0
0
LINE
8
0
62
0
10
-2.441404
20
28.096222
30
0.0
11
-2.441404
21
27.472940
31
0.0
0
LINE
8
0
62
0
10
-1.914263
20
28.096222
30
0.0
11
-0.356705
21
28.096222
31
0.0
0
ARC
8
0
62
0
10
-0.529988
20
24.237255
30
0.0
40
1.443856
50
8.616516
51
44.506439
0
LINE
8
0
62
0
10
0.897571
20
24.453575
30
0.0
11
1.177447
21
22.606728
31
0.0
0
ARC
8
0
62
0
10
-0.356694
20
26.562033
30
0.0
40
0.880993
50
270.000000
51
303.424683
0
LINE
8
0
62
0
10
-1.171144
20
25.681038
30
0.0
11
-0.356694
21
25.681038
31
0.0
0
ARC
8
0
62
0
10
3.168528
20
26.616976
30
0.0
40
1.479243
50
0.000000
51
135.000000
0
ARC
8
0
62
0
10
3.168584
20
26.616955
30
0.0
40
0.779192
50
179.998413
51
243.182373
0
LINE
8
0
62
0
10
2.817050
20
25.921568
30
0.0
11
3.835907
21
25.406586
31
0.0
0
ARC
8
0
62
0
10
3.168516
20
24.086435
30
0.0
40
1.479258
50
314.999603
51
63.181519
0
LINE
8
0
62
0
10
1.689291
20
24.086412
30
0.0
11
2.389387
21
24.086412
31
0.0
0
ARC
8
0
62
0
10
3.168528
20
24.086412
30
0.0
40
0.779141
50
180.000000
51
301.886169
0
LINE
8
0
62
0
10
6.280764
20
24.476519
30
0.0
11
6.756385
21
26.688726
31
0.0
0
LINE
8
0
62
0
10
6.430110
20
28.096222
30
0.0
11
7.436908
21
28.096222
31
0.0
0
LINE
8
0
62
0
10
7.436908
20
28.096222
30
0.0
11
8.707416
21
22.606728
31
0.0
0
LINE
8
0
62
0
10
6.280764
20
24.476519
30
0.0
11
7.219739
21
24.476519
31
0.0
0
LINE
8
0
62
0
10
10.151426
20
22.606728
30
0.0
11
9.901426
21
22.606728
31
0.0
0
LINE
8
0
62
9
10
8.137805
20
28.096222
30
0.0
11
11.445889
21
28.096222
31
0.0
0
LINE
8
0
62
0
10
11.445889
20
28.096222
30
0.0
11
11.445889
21
27.472940
31
0.0
0
LINE
8
0
62
0
10
12.716078
20
28.096222
30
0.0
11
11.972980
21
28.096222
31
0.0
0
LINE
8
0
62
0
10
12.716078
20
22.606728
30
0.0
11
12.716078
21
28.096222
31
0.0
0
LINE
8
0
62
0
10
13.928006
20
26.616976
30
0.0
11
13.928006
21
24.086412
31
0.0
0
ARC
8
0
62
0
10
14.707125
20
26.616976
30
0.0
40
1.479243
50
0.000000
51
135.000000
0
LINE
8
0
62
0
10
16.186367
20
26.616976
30
0.0
11
16.186367
21
24.086412
31
0.0
0
LINE
8
0
62
0
10
16.698177
20
28.096222
30
0.0
11
17.872782
21
28.096222
31
0.0
0
LINE
8
0
62
0
10
17.872782
20
28.096222
30
0.0
11
19.061127
21
24.194635
31
0.0
0
LINE
8
0
62
0
10
19.311079
20
28.096222
30
0.0
11
20.030199
21
28.096222
31
0.0
0
LINE
8
0
62
0
10
20.030199
20
28.096222
30
0.0
11
20.030199
21
22.606728
31
0.0
0
ARC
8
0
62
0
10
14.707148
20
24.086412
30
0.0
40
0.779141
50
180.000000
51
301.886169
0
LINE
8
0
62
0
10
1.502778
20
-11.452879
30
0.0
11
0.641444
21
-11.452879
31
0.0
0
LINE
8
0
62
0
10
1.072111
20
-11.022212
30
0.0
11
1.072111
21
-11.883543
31
0.0
0
LINE
8
0
62
0
10
-3.931866
20
-4.657716
30
0.0
11
-3.931866
21
-6.119332
31
0.0
0
LINE
8
0
62
0
10
-3.450057
20
-4.612000
30
0.0
11
-4.413674
21
-4.612000
31
0.0
0
ARC
8
0
62
0
10
-2.793313
20
-5.673739
30
0.0
40
0.448495
50
196.004822
51
267.948395
0
ARC
8
0
62
0
10
-1.952506
20
-5.366732
30
0.0
40
1.342854
50
161.294113
51
198.705887
0
ARC
8
0
62
0
10
-2.793313
20
-5.060726
30
0.0
40
0.448773
50
16.128889
51
163.872177
0
ARC
8
0
62
0
10
-3.634122
20
-5.366732
30
0.0
40
1.342854
50
341.293762
51
18.706244
0
ARC
8
0
62
0
10
-2.793313
20
-5.673739
30
0.0
40
0.448495
50
272.763977
51
343.994110
0
LINE
8
0
62
0
10
-2.071642
20
-4.612000
30
0.0
11
-2.071642
21
-6.119332
31
0.0
0
LINE
8
0
62
0
10
-1.524696
20
-4.612000
30
0.0
11
-2.071642
21
-4.612000
31
0.0
0
ARC
8
0
62
0
10
-1.547090
20
-4.988832
30
0.0
40
0.377497
50
273.401001
51
86.599007
0
LINE
8
0
62
0
10
-2.049032
20
-5.365666
30
0.0
11
-1.524696
21
-5.365666
31
0.0
0
ARC
8
0
62
0
10
0.508066
20
-5.673739
30
0.0
40
0.448495
50
196.004822
51
267.948395
0
ARC
8
0
62
0
10
1.348874
20
-5.366732
30
0.0
40
1.342854
50
161.294113
51
198.705887
0
ARC
8
0
62
0
10
0.508066
20
-5.060726
30
0.0
40
0.448773
50
16.128889
51
163.872177
0
ARC
8
0
62
0
10
-0.332744
20
-5.366732
30
0.0
40
1.342854
50
341.293762
51
18.706244
0
ARC
8
0
62
0
10
0.508066
20
-5.673739
30
0.0
40
0.448495
50
272.763977
51
343.994110
0
LINE
8
0
62
0
10
1.312581
20
-5.365632
30
0.0
11
1.957719
21
-5.365632
31
0.0
0
LINE
8
0
62
0
10
1.267576
20
-4.611966
30
0.0
11
1.267576
21
-6.119297
31
0.0
0
LINE
8
0
62
0
10
2.076152
20
-4.611966
30
0.0
11
1.267576
21
-4.611966
31
0.0
0
ARC
8
0
62
0
10
3.638757
20
-5.102017
30
0.0
40
0.495427
50
48.941696
51
146.027985
0
ARC
8
0
62
0
10
3.739626
20
-4.985064
30
0.0
40
0.340988
50
0.000001
51
48.814072
0
ARC
8
0
62
0
10
3.704218
20
-4.985064
30
0.0
40
0.376396
50
279.088104
51
0.000000
0
ARC
8
0
62
0
10
3.724928
20
-5.732542
30
0.0
40
0.377799
50
19.434425
51
84.114273
0
ARC
8
0
62
0
10
3.747567
20
-5.727135
30
0.0
40
0.354659
50
307.790497
51
19.827772
0
ARC
8
0
62
0
10
3.644315
20
-5.567368
30
0.0
40
0.544431
50
216.483002
51
306.074036
0
LINE
8
0
62
0
10
4.445846
20
-4.612000
30
0.0
11
4.445846
21
-6.119332
31
0.0
0
LINE
8
0
62
0
10
4.866286
20
-4.612000
30
0.0
11
4.445846
21
-4.612000
31
0.0
0
ARC
8
0
62
0
10
4.814286
20
-5.163876
30
0.0
40
0.554319
50
24.386383
51
84.617409
0
ARC
8
0
62
0
10
4.047230
20
-5.365666
30
0.0
40
1.342854
50
341.294312
51
18.705687
0
ARC
8
0
62
0
10
4.814286
20
-5.567456
30
0.0
40
0.554319
50
275.382446
51
335.613617
0
LINE
8
0
62
0
10
4.483529
20
-6.119332
30
0.0
11
4.866283
21
-6.119332
31
0.0
0
LINE
8
0
62
0
10
7.300515
20
-5.363790
30
0.0
11
6.756141
21
-5.363790
31
0.0
0
ARC
8
0
62
0
10
7.300394
20
-5.740623
30
0.0
40
0.376832
50
270.000000
51
89.981880
0
LINE
8
0
62
0
10
6.710921
20
-6.117455
30
0.0
11
7.300394
21
-6.117455
31
0.0
0
LINE
8
0
62
0
10
6.710921
20
-4.612000
30
0.0
11
6.710921
21
-6.117455
31
0.0
0
LINE
8
0
62
0
10
7.233104
20
-4.612000
30
0.0
11
6.710921
21
-4.612000
31
0.0
0
ARC
8
0
62
0
10
7.230093
20
-4.990342
30
0.0
40
0.378355
50
296.191833
51
89.543999
0
ARC
8
0
62
0
10
8.333972
20
-5.673739
30
0.0
40
0.448495
50
196.004822
51
267.948395
0
ARC
8
0
62
0
10
9.174781
20
-5.366732
30
0.0
40
1.342854
50
161.294113
51
198.705887
0
ARC
8
0
62
0
10
8.333972
20
-5.060726
30
0.0
40
0.448773
50
16.128889
51
163.872177
0
ARC
8
0
62
0
10
7.493163
20
-5.366732
30
0.0
40
1.342854
50
341.293762
51
18.706244
0
ARC
8
0
62
0
10
8.333972
20
-5.673739
30
0.0
40
0.448495
50
272.763977
51
343.994110
0
LINE
8
0
62
0
10
9.954659
20
-6.119332
30
0.0
11
9.017959
21
-4.612000
31
0.0
0
LINE
8
0
62
0
10
9.890059
20
-4.612000
30
0.0
11
8.953360
21
-6.119332
31
0.0
0
ARC
8
0
62
0
10
-9.824204
20
9.416815
30
0.0
40
0.554319
50
204.386841
51
324.320007
0
ARC
8
0
62
0
10
-9.057145
20
9.618605
30
0.0
40
1.342854
50
161.294128
51
198.705872
0
ARC
8
0
62
0
10
-9.824204
20
9.820393
30
0.0
40
0.554319
50
35.680031
51
155.613174
0
LINE
8
0
62
0
10
-9.223205
20
8.867382
30
0.0
11
-9.223205
21
10.374715
31
0.0
0
LINE
8
0
62
0
10
-8.339261
20
8.867382
30
0.0
11
-9.223205
21
8.867382
31
0.0
0
LINE
8
0
62
0
10
-7.642261
20
8.867382
30
0.0
11
-8.072928
21
8.867382
31
0.0
0
LINE
8
0
62
0
10
-7.857594
20
10.329494
30
0.0
11
-7.857594
21
8.912605
31
0.0
0
LINE
8
0
62
0
10
-7.644526
20
10.374715
30
0.0
11
-8.072928
21
10.374715
31
0.0
0
ARC
8
0
62
0
10
-6.914033
20
9.416815
30
0.0
40
0.554319
50
204.386841
51
324.320007
0
ARC
8
0
62
0
10
-6.146978
20
9.618605
30
0.0
40
1.342854
50
161.294128
51
198.705872
0
ARC
8
0
62
0
10
-6.914033
20
9.820393
30
0.0
40
0.554319
50
35.680031
51
155.613174
0
LINE
8
0
62
0
10
-6.313033
20
8.867382
30
0.0
11
-6.313033
21
10.374715
31
0.0
0
LINE
8
0
62
0
10
-5.911270
20
9.792521
30
0.0
11
-5.470003
21
8.867382
31
0.0
0
LINE
8
0
62
0
10
-5.470003
20
10.374715
30
0.0
11
-6.268813
21
9.439429
31
0.0
0
LINE
8
0
62
0
10
-9.918191
20
-1.620703
30
0.0
11
-9.918191
21
-3.082315
31
0.0
0
LINE
8
0
62
0
10
-9.436383
20
-1.574985
30
0.0
11
-10.400001
21
-1.574985
31
0.0
0
LINE
8
0
62
0
10
-8.810977
20
-2.289545
30
0.0
11
-9.285649
21
-1.574985
31
0.0
0
LINE
8
0
62
0
10
-8.784999
20
-2.328650
30
0.0
11
-8.784999
21
-3.082315
31
0.0
0
LINE
8
0
62
0
10
-8.284350
20
-1.574985
30
0.0
11
-8.784999
21
-2.328650
31
0.0
0
LINE
8
0
62
0
10
-8.095933
20
-1.574985
30
0.0
11
-8.095933
21
-3.082315
31
0.0
0
LINE
8
0
62
0
10
-7.548987
20
-1.574985
30
0.0
11
-8.095933
21
-1.574985
31
0.0
0
ARC
8
0
62
0
10
-7.571383
20
-1.951817
30
0.0
40
0.377497
50
273.401001
51
86.599007
0
LINE
8
0
62
0
10
-8.073323
20
-2.328650
30
0.0
11
-7.548987
21
-2.328650
31
0.0
0
LINE
8
0
62
0
10
-7.005188
20
-3.082332
30
0.0
11
-6.121244
21
-3.082332
31
0.0
0
LINE
8
0
62
0
10
-7.005725
20
-2.328666
30
0.0
11
-7.005188
21
-3.082332
31
0.0
0
LINE
8
0
62
0
10
-6.315043
20
-2.328666
30
0.0
11
-7.005725
21
-2.328666
31
0.0
0
LINE
8
0
62
0
10
-7.006264
20
-1.575000
30
0.0
11
-7.005757
21
-2.306069
31
0.0
0
LINE
8
0
62
0
10
-6.196611
20
-1.575000
30
0.0
11
-7.006264
21
-1.575000
31
0.0
0
LINE
8
0
62
0
10
-9.918191
20
13.026135
30
0.0
11
-9.918191
21
11.564522
31
0.0
0
LINE
8
0
62
0
10
-9.436383
20
13.071855
30
0.0
11
-10.400001
21
13.071855
31
0.0
0
LINE
8
0
62
0
10
-8.810977
20
12.357292
30
0.0
11
-9.285649
21
13.071855
31
0.0
0
LINE
8
0
62
0
10
-8.784999
20
12.318188
30
0.0
11
-8.784999
21
11.564522
31
0.0
0
LINE
8
0
62
0
10
-8.284350
20
13.071855
30
0.0
11
-8.784999
21
12.318188
31
0.0
0
LINE
8
0
62
0
10
-8.095933
20
13.071855
30
0.0
11
-8.095933
21
11.564522
31
0.0
0
LINE
8
0
62
0
10
-7.548987
20
13.071855
30
0.0
11
-8.095933
21
13.071855
31
0.0
0
ARC
8
0
62
0
10
-7.571383
20
12.695022
30
0.0
40
0.377497
50
273.401001
51
86.599007
0
LINE
8
0
62
0
10
-8.073323
20
12.318188
30
0.0
11
-7.548987
21
12.318188
31
0.0
0
LINE
8
0
62
0
10
-7.005188
20
11.564505
30
0.0
11
-6.121244
21
11.564505
31
0.0
0
LINE
8
0
62
0
10
-7.005725
20
12.318172
30
0.0
11
-7.005188
21
11.564505
31
0.0
0
LINE
8
0
62
0
10
-6.315043
20
12.318172
30
0.0
11
-7.005725
21
12.318172
31
0.0
0
LINE
8
0
62
0
10
-7.006264
20
13.071839
30
0.0
11
-7.005757
21
12.340769
31
0.0
0
LINE
8
0
62
0
10
-6.196611
20
13.071839
30
0.0
11
-7.006264
21
13.071839
31
0.0
0
LINE
8
0
62
0
10
-9.918191
20
-10.745017
30
0.0
11
-9.918191
21
-12.206633
31
0.0
0
LINE
8
0
62
0
10
-9.436383
20
-10.699302
30
0.0
11
-10.400001
21
-10.699302
31
0.0
0
LINE
8
0
62
0
10
-8.810977
20
-11.413864
30
0.0
11
-9.285649
21
-10.699302
31
0.0
0
LINE
8
0
62
0
10
-8.784999
20
-11.452967
30
0.0
11
-8.784999
21
-12.206633
31
0.0
0
LINE
8
0
62
0
10
-8.284350
20
-10.699302
30
0.0
11
-8.784999
21
-11.452967
31
0.0
0
LINE
8
0
62
0
10
-8.095933
20
-10.699302
30
0.0
11
-8.095933
21
-12.206633
31
0.0
0
LINE
8
0
62
0
10
-7.548987
20
-10.699302
30
0.0
11
-8.095933
21
-10.699302
31
0.0
0
ARC
8
0
62
0
10
-7.571383
20
-11.076134
30
0.0
40
0.377497
50
273.401001
51
86.599007
0
LINE
8
0
62
0
10
-8.073323
20
-11.452967
30
0.0
11
-7.548987
21
-11.452967
31
0.0
0
LINE
8
0
62
0
10
-7.005188
20
-12.206652
30
0.0
11
-6.121244
21
-12.206652
31
0.0
0
LINE
8
0
62
0
10
-7.005725
20
-11.452981
30
0.0
11
-7.005188
21
-12.206652
31
0.0
0
LINE
8
0
62
0
10
-6.315043
20
-11.452981
30
0.0
11
-7.005725
21
-11.452981
31
0.0
0
LINE
8
0
62
0
10
-7.006264
20
-10.699315
30
0.0
11
-7.005757
21
-11.430386
31
0.0
0
LINE
8
0
62
0
10
-6.196611
20
-10.699315
30
0.0
11
-7.006264
21
-10.699315
31
0.0
0
ARC
8
0
62
0
10
-9.824204
20
3.323410
30
0.0
40
0.554319
50
204.386841
51
324.320007
0
ARC
8
0
62
0
10
-9.057145
20
3.525199
30
0.0
40
1.342854
50
161.294128
51
198.705872
0
ARC
8
0
62
0
10
-9.824204
20
3.726990
30
0.0
40
0.554319
50
35.680031
51
155.613174
0
LINE
8
0
62
0
10
-9.223205
20
2.773978
30
0.0
11
-9.223205
21
4.281311
31
0.0
0
LINE
8
0
62
0
10
-8.339261
20
2.773978
30
0.0
11
-9.223205
21
2.773978
31
0.0
0
LINE
8
0
62
0
10
-7.642261
20
2.773978
30
0.0
11
-8.072928
21
2.773978
31
0.0
0
LINE
8
0
62
0
10
-7.857594
20
4.236091
30
0.0
11
-7.857594
21
2.819198
31
0.0
0
LINE
8
0
62
0
10
-7.644526
20
4.281309
30
0.0
11
-8.072928
21
4.281309
31
0.0
0
ARC
8
0
62
0
10
-6.914033
20
3.323410
30
0.0
40
0.554319
50
204.386841
51
324.320007
0
ARC
8
0
62
0
10
-6.146978
20
3.525199
30
0.0
40
1.342854
50
161.294128
51
198.705872
0
ARC
8
0
62
0
10
-6.914033
20
3.726990
30
0.0
40
0.554319
50
35.680031
51
155.613174
0
LINE
8
0
62
0
10
-6.313033
20
2.773978
30
0.0
11
-6.313033
21
4.281311
31
0.0
0
LINE
8
0
62
0
10
-5.911270
20
3.699116
30
0.0
11
-5.470003
21
2.773978
31
0.0
0
LINE
8
0
62
0
10
-5.470003
20
4.281311
30
0.0
11
-6.268813
21
3.346024
31
0.0
0
ARC
8
0
62
0
10
-9.824204
20
-8.729053
30
0.0
40
0.554319
50
204.386841
51
324.320007
0
ARC
8
0
62
0
10
-9.057145
20
-8.527263
30
0.0
40
1.342854
50
161.294128
51
198.705872
0
ARC
8
0
62
0
10
-9.824204
20
-8.325475
30
0.0
40
0.554319
50
35.680031
51
155.613174
0
LINE
8
0
62
0
10
-9.223205
20
-9.278486
30
0.0
11
-9.223205
21
-7.771154
31
0.0
0
LINE
8
0
62
0
10
-8.339261
20
-9.278486
30
0.0
11
-9.223205
21
-9.278486
31
0.0
0
LINE
8
0
62
0
10
-7.642261
20
-9.278486
30
0.0
11
-8.072928
21
-9.278486
31
0.0
0
LINE
8
0
62
0
10
-7.857594
20
-7.816375
30
0.0
11
-7.857594
21
-9.233268
31
0.0
0
LINE
8
0
62
0
10
-7.644526
20
-7.771154
30
0.0
11
-8.072928
21
-7.771154
31
0.0
0
ARC
8
0
62
0
10
-6.914033
20
-8.729053
30
0.0
40
0.554319
50
204.386841
51
324.320007
0
ARC
8
0
62
0
10
-6.146978
20
-8.527263
30
0.0
40
1.342854
50
161.294128
51
198.705872
0
ARC
8
0
62
0
10
-6.914033
20
-8.325475
30
0.0
40
0.554319
50
35.680031
51
155.613174
0
LINE
8
0
62
0
10
-6.313033
20
-9.278486
30
0.0
11
-6.313033
21
-7.771154
31
0.0
0
LINE
8
0
62
0
10
-5.911270
20
-8.353348
30
0.0
11
-5.470003
21
-9.278486
31
0.0
0
LINE
8
0
62
0
10
-5.470003
20
-7.771154
30
0.0
11
-6.268813
21
-8.706440
31
0.0
0
ARC
8
0
62
0
10
-9.824204
20
-5.569899
30
0.0
40
0.554319
50
204.386841
51
324.320007
0
ARC
8
0
62
0
10
-9.057145
20
-5.368108
30
0.0
40
1.342854
50
161.294128
51
198.705872
0
ARC
8
0
62
0
10
-9.824204
20
-5.166318
30
0.0
40
0.554319
50
35.680031
51
155.613174
0
LINE
8
0
62
0
10
-9.223205
20
-6.119332
30
0.0
11
-9.223205
21
-4.612000
31
0.0
0
LINE
8
0
62
0
10
-8.339261
20
-6.119332
30
0.0
11
-9.223205
21
-6.119332
31
0.0
0
LINE
8
0
62
0
10
-7.642261
20
-6.119332
30
0.0
11
-8.072928
21
-6.119332
31
0.0
0
LINE
8
0
62
0
10
-7.857594
20
-4.657218
30
0.0
11
-7.857594
21
-6.074111
31
0.0
0
LINE
8
0
62
0
10
-7.644526
20
-4.612000
30
0.0
11
-8.072928
21
-4.612000
31
0.0
0
ARC
8
0
62
0
10
-6.914033
20
-5.569899
30
0.0
40
0.554319
50
204.386841
51
324.320007
0
ARC
8
0
62
0
10
-6.146978
20
-5.368108
30
0.0
40
1.342854
50
161.294128
51
198.705872
0
ARC
8
0
62
0
10
-6.914033
20
-5.166318
30
0.0
40
0.554319
50
35.680031
51
155.613174
0
LINE
8
0
62
0
10
-6.313033
20
-6.119332
30
0.0
11
-6.313033
21
-4.612000
31
0.0
0
LINE
8
0
62
0
10
-5.911270
20
-5.194193
30
0.0
11
-5.470003
21
-6.119332
31
0.0
0
LINE
8
0
62
0
10
-5.470003
20
-4.612000
30
0.0
11
-6.268813
21
-5.547284
31
0.0
0
LINE
8
0
62
0
10
-9.918191
20
-13.673164
30
0.0
11
-9.918191
21
-15.134781
31
0.0
0
LINE
8
0
62
0
10
-9.436383
20
-13.627448
30
0.0
11
-10.400001
21
-13.627448
31
0.0
0
LINE
8
0
62
0
10
-8.810977
20
-14.342009
30
0.0
11
-9.285649
21
-13.627448
31
0.0
0
LINE
8
0
62
0
10
-8.784999
20
-14.381114
30
0.0
11
-8.784999
21
-15.134781
31
0.0
0
LINE
8
0
62
0
10
-8.284350
20
-13.627448
30
0.0
11
-8.784999
21
-14.381114
31
0.0
0
LINE
8
0
62
0
10
-8.095933
20
-13.627448
30
0.0
11
-8.095933
21
-15.134781
31
0.0
0
LINE
8
0
62
0
10
-7.548987
20
-13.627448
30
0.0
11
-8.095933
21
-13.627448
31
0.0
0
ARC
8
0
62
0
10
-7.571383
20
-14.004280
30
0.0
40
0.377497
50
273.401001
51
86.599007
0
LINE
8
0
62
0
10
-8.073323
20
-14.381114
30
0.0
11
-7.548987
21
-14.381114
31
0.0
0
LINE
8
0
62
0
10
-7.005188
20
-15.134793
30
0.0
11
-6.121244
21
-15.134793
31
0.0
0
LINE
8
0
62
0
10
-7.005725
20
-14.381129
30
0.0
11
-7.005188
21
-15.134793
31
0.0
0
LINE
8
0
62
0
10
-6.315043
20
-14.381129
30
0.0
11
-7.005725
21
-14.381129
31
0.0
0
LINE
8
0
62
0
10
-7.006264
20
-13.627462
30
0.0
11
-7.005757
21
-14.358532
31
0.0
0
LINE
8
0
62
0
10
-6.196611
20
-13.627462
30
0.0
11
-7.006264
21
-13.627462
31
0.0
0
LINE
8
0
62
0
10
-9.436383
20
16.000000
30
0.0
11
-10.400001
21
16.000000
31
0.0
0
LINE
8
0
62
0
10
-8.810977
20
15.285440
30
0.0
11
-9.285649
21
16.000000
31
0.0
0
LINE
8
0
62
0
10
-8.784999
20
15.246334
30
0.0
11
-8.784999
21
14.492667
31
0.0
0
LINE
8
0
62
0
10
-8.284350
20
16.000000
30
0.0
11
-8.784999
21
15.246334
31
0.0
0
LINE
8
0
62
0
10
-8.095933
20
16.000000
30
0.0
11
-8.095933
21
14.492667
31
0.0
0
LINE
8
0
62
0
10
-7.548987
20
16.000000
30
0.0
11
-8.095933
21
16.000000
31
0.0
0
ARC
8
0
62
0
10
-7.571383
20
15.623166
30
0.0
40
0.377497
50
273.401001
51
86.599007
0
LINE
8
0
62
0
10
-8.073323
20
15.246334
30
0.0
11
-7.548987
21
15.246334
31
0.0
0
LINE
8
0
62
0
10
-7.005188
20
14.492653
30
0.0
11
-6.121244
21
14.492653
31
0.0
0
LINE
8
0
62
0
10
-7.005725
20
15.246319
30
0.0
11
-7.005188
21
14.492653
31
0.0
0
LINE
8
0
62
0
10
-6.315043
20
15.246319
30
0.0
11
-7.005725
21
15.246319
31
0.0
0
LINE
8
0
62
0
10
-7.006264
20
15.999986
30
0.0
11
-7.005757
21
15.268918
31
0.0
0
LINE
8
0
62
0
10
-6.196611
20
15.999986
30
0.0
11
-7.006264
21
15.999986
31
0.0
0
LINE
8
0
62
0
10
-9.918191
20
1.307446
30
0.0
11
-9.918191
21
-0.154167
31
0.0
0
LINE
8
0
62
0
10
-9.436383
20
1.353163
30
0.0
11
-10.400001
21
1.353163
31
0.0
0
LINE
8
0
62
0
10
-8.810977
20
0.638602
30
0.0
11
-9.285649
21
1.353163
31
0.0
0
LINE
8
0
62
0
10
-8.784999
20
0.599497
30
0.0
11
-8.784999
21
-0.154169
31
0.0
0
LINE
8
0
62
0
10
-8.284350
20
1.353163
30
0.0
11
-8.784999
21
0.599497
31
0.0
0
LINE
8
0
62
0
10
-8.095933
20
1.353163
30
0.0
11
-8.095933
21
-0.154169
31
0.0
0
LINE
8
0
62
0
10
-7.548987
20
1.353163
30
0.0
11
-8.095933
21
1.353163
31
0.0
0
ARC
8
0
62
0
10
-7.571383
20
0.976331
30
0.0
40
0.377497
50
273.401001
51
86.599007
0
LINE
8
0
62
0
10
-8.073323
20
0.599497
30
0.0
11
-7.548987
21
0.599497
31
0.0
0
LINE
8
0
62
0
10
-7.005188
20
-0.154184
30
0.0
11
-6.121244
21
-0.154184
31
0.0
0
LINE
8
0
62
0
10
-7.005725
20
0.599480
30
0.0
11
-7.005188
21
-0.154184
31
0.0
0
LINE
8
0
62
0
10
-6.315043
20
0.599480
30
0.0
11
-7.005725
21
0.599480
31
0.0
0
LINE
8
0
62
0
10
-7.006264
20
1.353146
30
0.0
11
-7.005757
21
0.622079
31
0.0
0
LINE
8
0
62
0
10
-6.196611
20
1.353146
30
0.0
11
-7.006264
21
1.353146
31
0.0
0
LINE
8
0
62
0
10
17.417299
20
26.159252
30
0.0
11
17.417299
21
22.606728
31
0.0
0
LINE
8
0
62
0
10
10.151426
20
27.222939
30
0.0
11
10.151426
21
22.606728
31
0.0
0
LINE
8
0
62
0
10
6.093022
20
23.603292
30
0.0
11
5.878763
21
22.606728
31
0.0
0
LINE
8
0
62
0
10
-1.171144
20
27.193026
30
0.0
11
-1.171144
21
25.681038
31
0.0
0
LINE
8
0
62
0
10
-1.171144
20
24.777861
30
0.0
11
-1.171144
21
22.606728
31
0.0
0
ARC
8
0
62
0
10
-0.356696
20
26.562099
30
0.0
40
1.534125
50
308.383118
51
315.000000
0
LINE
8
0
62
0
10
-4.167345
20
24.849802
30
0.0
11
-4.167345
21
23.230011
31
0.0
0
LINE
8
0
62
0
10
-4.167345
20
27.222939
30
0.0
11
-4.167345
21
25.723030
31
0.0
0
LINE
8
0
62
0
10
-11.885752
20
26.159252
30
0.0
11
-11.885752
21
22.606728
31
0.0
0
ARC
8
0
62
0
10
-18.050943
20
26.616976
30
0.0
40
0.779144
50
148.113800
51
180.000000
0
ARC
8
0
62
0
10
-18.050968
20
24.086412
30
0.0
40
1.479237
50
308.136444
51
315.000000
0
ARC
8
0
62
0
10
3.168536
20
26.616976
30
0.0
40
0.779144
50
148.113800
51
180.000000
0
ARC
8
0
62
0
10
3.168525
20
24.086412
30
0.0
40
1.479234
50
308.136444
51
315.000000
0
ARC
8
0
62
0
10
14.707148
20
26.616976
30
0.0
40
0.779141
50
148.113831
51
180.000000
0
ARC
8
0
62
0
10
14.707125
20
24.086412
30
0.0
40
1.479243
50
308.136475
51
315.000000
0
ARC
8
0
62
0
10
-14.595903
20
26.616976
30
0.0
40
0.779141
50
148.113831
51
180.000000
0
ARC
8
0
62
0
10
-14.595926
20
24.086412
30
0.0
40
1.479243
50
308.136475
51
315.000000
0
ARC
8
0
62
0
10
-18.050961
20
26.616976
30
0.0
40
1.479240
50
135.000000
51
141.863525
0
ARC
8
0
62
0
10
-14.595926
20
26.616976
30
0.0
40
1.479243
50
135.000000
51
141.863525
0
ARC
8
0
62
0
10
-18.050968
20
24.086412
30
0.0
40
1.479237
50
315.000000
51
0.000000
0
ARC
8
0
62
0
10
-14.595926
20
24.086412
30
0.0
40
1.479243
50
315.000000
51
0.000000
0
ARC
8
0
62
0
10
-0.356696
20
26.562099
30
0.0
40
1.534125
50
315.000000
51
90.000305
0
ARC
8
0
62
0
10
3.168528
20
26.616976
30
0.0
40
1.479243
50
135.000000
51
141.863525
0
ARC
8
0
62
0
10
14.707125
20
24.086412
30
0.0
40
1.479243
50
315.000000
51
0.000000
0
ARC
8
0
62
0
10
14.707125
20
26.616976
30
0.0
40
1.479243
50
135.000000
51
141.863525
0
ARC
8
0
62
2
10
8.822987
20
-8.843810
30
0.0
40
0.434512
50
210.522003
51
269.441071
0
LINE
8
0
62
2
10
8.818748
20
-9.278299
30
0.0
11
8.972353
21
-9.279802
31
0.0
0
ARC
8
0
62
2
10
8.976222
20
-8.883155
30
0.0
40
0.396665
50
269.441071
51
357.350677
0
ARC
8
0
62
2
10
9.049812
20
-8.930751
30
0.0
40
0.323975
50
5.182272
51
59.344830
0
LINE
8
0
62
2
10
9.214997
20
-8.652053
30
0.0
11
8.621762
21
-8.397263
31
0.0
0
ARC
8
0
62
2
10
8.786945
20
-8.118562
30
0.0
40
0.323975
50
185.182404
51
239.344803
0
ARC
8
0
62
2
10
8.858949
20
-8.165112
30
0.0
40
0.395031
50
91.261345
51
177.491959
0
LINE
8
0
62
2
10
8.850252
20
-7.770175
30
0.0
11
9.003492
21
-7.770015
31
0.0
0
ARC
8
0
62
2
10
8.989807
20
-8.190565
30
0.0
40
0.420773
50
29.271709
51
88.136147
0
LINE
8
0
62
2
10
9.630425
20
-7.770087
30
0.0
11
9.630425
21
-9.277419
31
0.0
0
LINE
8
0
62
2
10
9.675646
20
-8.523754
30
0.0
11
10.498651
21
-8.523754
31
0.0
0
LINE
8
0
62
2
10
10.545592
20
-9.277419
30
0.0
11
10.545592
21
-7.770087
31
0.0
0
LINE
8
0
62
2
10
10.696326
20
-9.277419
30
0.0
11
11.261575
21
-7.770087
31
0.0
0
LINE
8
0
62
2
10
11.261575
20
-7.770087
30
0.0
11
11.826825
21
-9.277419
31
0.0
0
LINE
8
0
62
2
10
10.862672
20
-8.954420
30
0.0
11
11.660480
21
-8.954420
31
0.0
0
LINE
8
0
62
2
10
12.015243
20
-9.277419
30
0.0
11
12.015243
21
-7.770087
31
0.0
0
LINE
8
0
62
2
10
12.015243
20
-7.770087
30
0.0
11
12.562186
21
-7.770087
31
0.0
0
ARC
8
0
62
2
10
12.539794
20
-8.146919
30
0.0
40
0.377497
50
273.401001
51
86.599007
0
LINE
8
0
62
2
10
12.562186
20
-8.523754
30
0.0
11
12.037852
21
-8.523754
31
0.0
0
LINE
8
0
62
2
10
13.989932
20
-9.277434
30
0.0
11
13.105990
21
-9.277434
31
0.0
0
LINE
8
0
62
2
10
13.105990
20
-9.277434
30
0.0
11
13.105451
21
-8.523768
31
0.0
0
LINE
8
0
62
2
10
13.105451
20
-8.523768
30
0.0
11
13.796132
21
-8.523768
31
0.0
0
LINE
8
0
62
2
10
13.105418
20
-8.501171
30
0.0
11
13.104913
21
-7.770103
31
0.0
0
LINE
8
0
62
2
10
13.104913
20
-7.770103
30
0.0
11
13.914565
21
-7.770103
31
0.0
0
LINE
8
0
62
2
10
-4.368397
20
-8.523880
30
0.0
11
-3.823346
21
-8.523880
31
0.0
0
ARC
8
0
62
2
10
-3.823465
20
-8.901182
30
0.0
40
0.377302
50
270.000000
51
89.981880
0
LINE
8
0
62
2
10
-3.823465
20
-9.278486
30
0.0
11
-4.413674
21
-9.278486
31
0.0
0
LINE
8
0
62
2
10
-4.413674
20
-9.278486
30
0.0
11
-4.413674
21
-7.771154
31
0.0
0
LINE
8
0
62
2
10
-4.413674
20
-7.771154
30
0.0
11
-3.890840
21
-7.771154
31
0.0
0
ARC
8
0
62
2
10
-3.893855
20
-8.149967
30
0.0
40
0.378826
50
296.191833
51
89.543999
0
LINE
8
0
62
2
10
-3.211837
20
-9.280364
30
0.0
11
-2.780635
21
-9.280364
31
0.0
0
LINE
8
0
62
2
10
-2.996238
20
-9.235086
30
0.0
11
-2.996238
21
-7.816429
31
0.0
0
LINE
8
0
62
2
10
-3.211837
20
-7.771154
30
0.0
11
-2.782903
21
-7.771154
31
0.0
0
LINE
8
0
62
2
10
-2.193452
20
-8.613101
30
0.0
11
-1.556636
21
-8.613101
31
0.0
0
ARC
8
0
62
2
10
-1.556636
20
-8.658374
30
0.0
40
0.045272
50
0.000000
51
90.000000
0
LINE
8
0
62
2
10
-1.511366
20
-8.658374
30
0.0
11
-1.511366
21
-8.772330
31
0.0
0
ARC
8
0
62
2
10
-2.025210
20
-8.776275
30
0.0
40
0.513861
50
200.855255
51
0.439684
0
ARC
8
0
62
2
10
-1.232013
20
-8.528095
30
0.0
40
1.344391
50
161.293991
51
198.703979
0
ARC
8
0
62
2
10
-1.999948
20
-8.326071
30
0.0
40
0.554955
50
35.680031
51
155.613174
0
ARC
8
0
62
2
10
-16.000000
20
-16.000000
30
0.0
40
4.000000
50
0.000000
51
90.000000
0
ARC
8
0
62
2
10
-16.000000
20
16.000000
30
0.0
40
4.000000
50
270.000000
51
0.000000
0
ARC
8
0
62
2
10
16.000000
20
16.000000
30
0.0
40
4.000000
50
180.000000
51
270.000000
0
LINE
8
0
62
2
10
-17.600000
20
10.400001
30
0.0
11
-17.600000
21
-10.400001
31
0.0
0
LINE
8
0
62
2
10
10.400001
20
17.600000
30
0.0
11
-10.400001
21
17.600000
31
0.0
0
ARC
8
0
62
2
10
16.000000
20
10.400001
30
0.0
40
1.600000
50
0.000000
51
90.000000
0
ARC
8
0
62
2
10
10.400001
20
16.000000
30
0.0
40
1.600000
50
0.000000
51
90.000000
0
ARC
8
0
62
2
10
-10.400001
20
16.000000
30
0.0
40
1.600000
50
90.000000
51
180.000000
0
ARC
8
0
62
2
10
-16.000000
20
10.400001
30
0.0
40
1.600000
50
90.000000
51
180.000000
0
ARC
8
0
62
2
10
-16.000000
20
-10.400001
30
0.0
40
1.600000
50
180.000000
51
270.000000
0
ARC
8
0
62
2
10
-10.400001
20
-16.000000
30
0.0
40
1.600000
50
180.000000
51
270.000000
0
ARC
8
0
62
2
10
16.000000
20
-16.000000
30
0.0
40
4.000000
50
90.000000
51
180.000000
0
ARC
8
0
62
2
10
16.000000
20
-10.400001
30
0.0
40
1.600000
50
270.000000
51
0.000000
0
ARC
8
0
62
2
10
10.400001
20
-16.000000
30
0.0
40
1.600000
50
270.000000
51
0.000000
0
LINE
8
0
62
2
10
10.400001
20
-17.600000
30
0.0
11
-10.400001
21
-17.600000
31
0.0
0
LINE
8
0
62
2
10
17.600000
20
-10.400001
30
0.0
11
17.600000
21
10.400001
31
0.0
0
ARC
8
0
62
2
10
0.436800
20
-8.831829
30
0.0
40
0.448495
50
196.004822
51
267.948395
0
ARC
8
0
62
2
10
1.277609
20
-8.524820
30
0.0
40
1.342854
50
161.294113
51
198.705887
0
ARC
8
0
62
2
10
0.436800
20
-8.218815
30
0.0
40
0.448774
50
16.128889
51
163.872177
0
ARC
8
0
62
2
10
-0.404010
20
-8.524820
30
0.0
40
1.342854
50
341.293762
51
18.706244
0
ARC
8
0
62
2
10
0.436800
20
-8.831829
30
0.0
40
0.448495
50
272.763977
51
343.994110
0
LINE
8
0
62
2
10
1.196155
20
-9.277419
30
0.0
11
1.196155
21
-7.770087
31
0.0
0
LINE
8
0
62
2
10
1.196155
20
-7.770087
30
0.0
11
1.743101
21
-7.770087
31
0.0
0
ARC
8
0
62
2
10
1.735839
20
-8.146919
30
0.0
40
0.376903
50
271.095276
51
88.895920
0
LINE
8
0
62
2
10
1.743042
20
-8.523754
30
0.0
11
1.245624
21
-8.523754
31
0.0
0
LINE
8
0
62
2
10
1.764518
20
-8.566696
30
0.0
11
2.119934
21
-9.277419
31
0.0
0
LINE
8
0
62
2
10
2.270666
20
-9.277419
30
0.0
11
2.835917
21
-7.770087
31
0.0
0
LINE
8
0
62
2
10
2.835917
20
-7.770087
30
0.0
11
3.401165
21
-9.277419
31
0.0
0
LINE
8
0
62
2
10
2.437011
20
-8.954420
30
0.0
11
3.234821
21
-8.954420
31
0.0
0
LINE
8
0
62
2
10
3.571733
20
-9.277419
30
0.0
11
3.571733
21
-7.770087
31
0.0
0
LINE
8
0
62
2
10
3.571733
20
-7.770087
30
0.0
11
4.497306
21
-9.277419
31
0.0
0
LINE
8
0
62
2
10
4.497306
20
-9.277419
30
0.0
11
4.497306
21
-7.770087
31
0.0
0
LINE
8
0
62
2
10
5.082060
20
-8.610987
30
0.0
11
5.718082
21
-8.610987
31
0.0
0
ARC
8
0
62
2
10
5.718082
20
-8.656201
30
0.0
40
0.045215
50
0.000000
51
90.000000
0
LINE
8
0
62
2
10
5.763298
20
-8.656201
30
0.0
11
5.763298
21
-8.770016
31
0.0
0
ARC
8
0
62
2
10
5.250092
20
-8.773954
30
0.0
40
0.513223
50
200.855255
51
0.439684
0
ARC
8
0
62
2
10
6.042302
20
-8.526087
30
0.0
40
1.342718
50
161.293991
51
198.703979
0
ARC
8
0
62
2
10
5.275322
20
-8.324312
30
0.0
40
0.554265
50
35.680031
51
155.613174
0
LINE
8
0
62
2
10
6.820695
20
-9.277434
30
0.0
11
5.936752
21
-9.277434
31
0.0
0
LINE
8
0
62
2
10
5.936752
20
-9.277434
30
0.0
11
5.936214
21
-8.523768
31
0.0
0
LINE
8
0
62
2
10
5.936214
20
-8.523768
30
0.0
11
6.626893
21
-8.523768
31
0.0
0
LINE
8
0
62
2
10
5.936181
20
-8.501171
30
0.0
11
5.935676
21
-7.770103
31
0.0
0
LINE
8
0
62
2
10
5.935676
20
-7.770103
30
0.0
11
6.745330
21
-7.770103
31
0.0
0
CIRCLE
8
0
62
5
10
16.000000
20
16.000000
30
0.0
40
1.700001
0
CIRCLE
8
0
62
5
10
-16.000000
20
15.999999
30
0.0
40
1.700001
0
CIRCLE
8
0
62
5
10
-15.999999
20
-16.000002
30
0.0
40
1.700001
0
CIRCLE
8
0
62
5
10
16.000000
20
-16.000000
30
0.0
40
1.700001
0
ARC
8
0
62
3
10
-4.557126
20
6.122067
30
0.0
40
0.554319
50
204.386841
51
324.320007
0
ARC
8
0
62
3
10
-3.790067
20
6.323857
30
0.0
40
1.342854
50
161.294128
51
198.705872
0
ARC
8
0
62
3
10
-4.557126
20
6.525649
30
0.0
40
0.554319
50
35.680031
51
155.613174
0
LINE
8
0
62
0
10
-9.918191
20
7.034161
30
0.0
11
-9.918191
21
5.572547
31
0.0
0
LINE
8
0
62
0
10
-9.436383
20
7.079879
30
0.0
11
-10.400001
21
7.079879
31
0.0
0
LINE
8
0
62
0
10
-8.810977
20
6.365317
30
0.0
11
-9.285649
21
7.079879
31
0.0
0
LINE
8
0
62
0
10
-8.784999
20
6.326215
30
0.0
11
-8.784999
21
5.572547
31
0.0
0
LINE
8
0
62
0
10
-8.284350
20
7.079879
30
0.0
11
-8.784999
21
6.326215
31
0.0
0
LINE
8
0
62
0
10
-8.095933
20
7.079879
30
0.0
11
-8.095933
21
5.572547
31
0.0
0
LINE
8
0
62
0
10
-7.548987
20
7.079879
30
0.0
11
-8.095933
21
7.079879
31
0.0
0
ARC
8
0
62
0
10
-7.571383
20
6.703046
30
0.0
40
0.377497
50
273.401001
51
86.599007
0
LINE
8
0
62
0
10
-8.073323
20
6.326215
30
0.0
11
-7.548987
21
6.326215
31
0.0
0
LINE
8
0
62
0
10
-7.005188
20
5.572531
30
0.0
11
-6.121244
21
5.572531
31
0.0
0
LINE
8
0
62
0
10
-7.005725
20
6.326196
30
0.0
11
-7.005188
21
5.572531
31
0.0
0
LINE
8
0
62
0
10
-6.315043
20
6.326196
30
0.0
11
-7.005725
21
6.326196
31
0.0
0
LINE
8
0
62
0
10
-7.006264
20
7.079863
30
0.0
11
-7.005757
21
6.348794
31
0.0
0
LINE
8
0
62
0
10
-6.196611
20
7.079863
30
0.0
11
-7.006264
21
7.079863
31
0.0
0
LINE
8
0
62
0
10
-9.918191
20
15.954280
30
0.0
11
-9.918191
21
14.492667
31
0.0
0
LINE
8
0
62
0
10
-1.422577
20
-1.574985
30
0.0
11
-2.386195
21
-1.574985
31
0.0
0
LINE
8
0
62
0
10
-1.904386
20
-1.620703
30
0.0
11
-1.904386
21
-3.082315
31
0.0
0
LINE
8
0
62
0
10
0.131734
20
-3.082315
30
0.0
11
1.015676
21
-3.082315
31
0.0
0
LINE
8
0
62
0
10
0.131197
20
-2.328645
30
0.0
11
0.131734
21
-3.082315
31
0.0
0
LINE
8
0
62
0
10
0.821876
20
-2.328645
30
0.0
11
0.131197
21
-2.328645
31
0.0
0
LINE
8
0
62
0
10
0.130658
20
-1.574979
30
0.0
11
0.131165
21
-2.306050
31
0.0
0
LINE
8
0
62
0
10
0.940311
20
-1.574979
30
0.0
11
0.130658
21
-1.574979
31
0.0
0
LINE
8
0
62
0
10
1.288085
20
-3.106054
30
0.0
11
1.288085
21
-1.598722
31
0.0
0
LINE
8
0
62
0
10
1.288085
20
-1.598722
30
0.0
11
2.213659
21
-3.106054
31
0.0
0
LINE
8
0
62
0
10
2.213659
20
-3.106054
30
0.0
11
2.213659
21
-1.598722
31
0.0
0
LINE
8
0
62
0
10
-1.196052
20
-3.082315
30
0.0
11
-1.196052
21
-1.574983
31
0.0
0
LINE
8
0
62
0
10
-0.327828
20
-2.328650
30
0.0
11
-1.150832
21
-2.328650
31
0.0
0
LINE
8
0
62
0
10
-0.280886
20
-1.574983
30
0.0
11
-0.280886
21
-3.082315
31
0.0
0
LINE
8
0
62
4
10
4.339512
20
-15.134797
30
0.0
11
5.223454
21
-15.134797
31
0.0
0
LINE
8
0
62
4
10
4.338973
20
-14.381129
30
0.0
11
4.339512
21
-15.134797
31
0.0
0
LINE
8
0
62
4
10
5.029654
20
-14.381129
30
0.0
11
4.338973
21
-14.381129
31
0.0
0
LINE
8
0
62
4
10
4.338435
20
-13.627462
30
0.0
11
4.338942
21
-14.358532
31
0.0
0
LINE
8
0
62
4
10
5.148088
20
-13.627462
30
0.0
11
4.338435
21
-13.627462
31
0.0
0
LINE
8
0
62
4
10
5.318653
20
-13.627448
30
0.0
11
5.318653
21
-15.134779
31
0.0
0
LINE
8
0
62
4
10
6.244228
20
-15.134779
30
0.0
11
5.318653
21
-13.627448
31
0.0
0
LINE
8
0
62
4
10
6.244228
20
-13.627448
30
0.0
11
6.244228
21
-15.134779
31
0.0
0
LINE
8
0
62
4
10
7.023536
20
-13.673164
30
0.0
11
7.023536
21
-15.134779
31
0.0
0
LINE
8
0
62
4
10
7.505344
20
-13.627448
30
0.0
11
6.541728
21
-13.627448
31
0.0
0
LINE
8
0
62
4
10
7.672311
20
-15.134797
30
0.0
11
8.556254
21
-15.134797
31
0.0
0
LINE
8
0
62
4
10
7.671772
20
-14.381129
30
0.0
11
7.672311
21
-15.134797
31
0.0
0
LINE
8
0
62
4
10
8.362453
20
-14.381129
30
0.0
11
7.671772
21
-14.381129
31
0.0
0
LINE
8
0
62
4
10
7.671235
20
-13.627462
30
0.0
11
7.671740
21
-14.358532
31
0.0
0
LINE
8
0
62
4
10
8.480886
20
-13.627462
30
0.0
11
7.671235
21
-13.627462
31
0.0
0
LINE
8
0
62
4
10
8.706986
20
-13.627448
30
0.0
11
8.706986
21
-15.134779
31
0.0
0
LINE
8
0
62
4
10
9.253934
20
-13.627448
30
0.0
11
8.706986
21
-13.627448
31
0.0
0
ARC
8
0
62
4
10
9.246670
20
-14.004280
30
0.0
40
0.376903
50
271.095276
51
88.895920
0
LINE
8
0
62
4
10
8.756454
20
-14.381114
30
0.0
11
9.253875
21
-14.381114
31
0.0
0
LINE
8
0
62
4
10
9.630765
20
-15.134779
30
0.0
11
9.275351
21
-14.424058
31
0.0
0
LINE
8
0
62
0
10
-0.477187
20
-13.627450
30
0.0
11
-1.440805
21
-13.627450
31
0.0
0
LINE
8
0
62
0
10
-0.958996
20
-13.673170
30
0.0
11
-0.958996
21
-15.134781
31
0.0
0
LINE
8
0
62
0
10
1.077124
20
-15.134781
30
0.0
11
1.961066
21
-15.134781
31
0.0
0
LINE
8
0
62
0
10
1.076586
20
-14.381109
30
0.0
11
1.077124
21
-15.134781
31
0.0
0
LINE
8
0
62
0
10
1.767266
20
-14.381109
30
0.0
11
1.076586
21
-14.381109
31
0.0
0
LINE
8
0
62
0
10
1.076049
20
-13.627446
30
0.0
11
1.076555
21
-14.358515
31
0.0
0
LINE
8
0
62
0
10
1.885701
20
-13.627446
30
0.0
11
1.076049
21
-13.627446
31
0.0
0
LINE
8
0
62
0
10
2.233475
20
-15.158518
30
0.0
11
2.233475
21
-13.651189
31
0.0
0
LINE
8
0
62
0
10
2.233475
20
-13.651189
30
0.0
11
3.159048
21
-15.158518
31
0.0
0
LINE
8
0
62
0
10
3.159048
20
-15.158518
30
0.0
11
3.159048
21
-13.651189
31
0.0
0
LINE
8
0
62
0
10
-0.250662
20
-15.134781
30
0.0
11
-0.250662
21
-13.627448
31
0.0
0
LINE
8
0
62
0
10
0.617561
20
-14.381116
30
0.0
11
-0.205442
21
-14.381116
31
0.0
0
LINE
8
0
62
0
10
0.664503
20
-13.627448
30
0.0
11
0.664503
21
-15.134781
31
0.0
0
ENDSEC
0
EOF
