999
File generated by Conversation
0
SECTION
2
HEADER
0
SECTION
2
HEADER
9
$ACADVER
1
AC1021
9
$INSBASE
10
0.0
20
0.0
30
0.0
9
$INSUNITS
70
4
9
$EXTMIN
10
0.0
20
0.0
30
0.0
9
$EXTMAX
10
1000.0
20
1000.0
30
0.0
0
ENDSEC
0
SECTION
2
TABLES
0
TABLE
2
LTYPE
70
1
0
LTYPE
2
CONTINUOUS
70
64
3
Solid line
72
65
73
0
40
0.0
0
ENDTAB
0
TABLE
2
LAYER
70
1
0
LAYER
2
0
70
64
62
7
6
CONTINUOUS
0
ENDTAB
0
TABLE
2
STYLE
70
1
0
STYLE
2
STANDARD
70
0
40
0.0
41
1.0
50
0.0
71
0
42
0.2
3
txt
4

0
ENDTAB
0
ENDSEC
0
SECTION
2
ENTITIES
0
LINE
8
0
62
0
10
20.030188
20
28.096228
30
0.0
11
19.780188
21
27.846228
31
0.0
0
LINE
8
0
62
0
10
19.311117
20
28.096228
30
0.0
11
19.061115
21
27.846228
31
0.0
0
LINE
8
0
62
0
10
20.030190
20
22.606733
30
0.0
11
19.780190
21
22.356733
31
0.0
0
LINE
8
0
62
0
10
17.872770
20
28.096228
30
0.0
11
17.622770
21
27.846228
31
0.0
0
LINE
8
0
62
0
10
16.698166
20
28.096228
30
0.0
11
16.448166
21
27.846228
31
0.0
0
LINE
8
0
62
0
10
17.417290
20
22.606733
30
0.0
11
17.167290
21
22.356733
31
0.0
0
LINE
8
0
62
0
10
11.722969
20
27.846226
30
0.0
11
11.972970
21
28.096226
31
0.0
0
LINE
8
0
62
0
10
12.466067
20
27.846226
30
0.0
11
12.716067
21
28.096226
31
0.0
0
LINE
8
0
62
0
10
12.466069
20
22.356731
30
0.0
11
12.716069
21
22.606731
31
0.0
0
LINE
8
0
62
0
10
7.887794
20
27.846224
30
0.0
11
8.137794
21
28.096224
31
0.0
0
LINE
8
0
62
0
10
11.195877
20
27.846226
30
0.0
11
11.445878
21
28.096226
31
0.0
0
LINE
8
0
62
0
10
11.195878
20
27.222942
30
0.0
11
11.445879
21
27.472944
31
0.0
0
LINE
8
0
62
0
10
9.901418
20
22.356731
30
0.0
11
10.151418
21
22.606731
31
0.0
0
LINE
8
0
62
0
10
6.180100
20
27.846224
30
0.0
11
6.430100
21
28.096224
31
0.0
0
LINE
8
0
62
0
10
7.186898
20
27.846224
30
0.0
11
7.436898
21
28.096224
31
0.0
0
LINE
8
0
62
0
10
5.628755
20
22.356730
30
0.0
11
5.878755
21
22.606730
31
0.0
0
LINE
8
0
62
0
10
8.457407
20
22.356730
30
0.0
11
8.707407
21
22.606730
31
0.0
0
LINE
8
0
62
0
10
6.030756
20
24.226521
30
0.0
11
6.280756
21
24.476521
31
0.0
0
LINE
8
0
62
0
10
-2.164273
20
27.846222
30
0.0
11
-1.914273
21
28.096222
31
0.0
0
LINE
8
0
62
0
10
-1.421153
20
25.431038
30
0.0
11
-1.171153
21
25.681038
31
0.0
0
LINE
8
0
62
0
10
-1.421152
20
22.356728
30
0.0
11
-1.171152
21
22.606728
31
0.0
0
LINE
8
0
62
0
10
0.927440
20
22.356728
30
0.0
11
1.177439
21
22.606728
31
0.0
0
LINE
8
0
62
0
10
-5.160485
20
27.846220
30
0.0
11
-4.910485
21
28.096220
31
0.0
0
LINE
8
0
62
0
10
-2.691414
20
27.846222
30
0.0
11
-2.441414
21
28.096222
31
0.0
0
LINE
8
0
62
0
10
-2.691414
20
27.222939
30
0.0
11
-2.441414
21
27.472940
31
0.0
0
LINE
8
0
62
0
10
-2.787296
20
25.473030
30
0.0
11
-2.537297
21
25.723030
31
0.0
0
LINE
8
0
62
0
10
-2.787296
20
24.849802
30
0.0
11
-2.537296
21
25.099802
31
0.0
0
LINE
8
0
62
0
10
-2.643460
20
22.980009
30
0.0
11
-2.393460
21
23.230011
31
0.0
0
LINE
8
0
62
0
10
-2.643460
20
22.356728
30
0.0
11
-2.393460
21
22.606728
31
0.0
0
LINE
8
0
62
0
10
-4.417353
20
25.473028
30
0.0
11
-4.167354
21
25.723028
31
0.0
0
LINE
8
0
62
0
10
-4.167353
20
23.230009
30
0.0
11
-4.417353
21
22.980007
31
0.0
0
LINE
8
0
62
0
10
-6.886209
20
22.356726
30
0.0
11
-6.636209
21
22.606726
31
0.0
0
LINE
8
0
62
0
10
-6.180757
20
28.096220
30
0.0
11
-6.430757
21
27.846220
31
0.0
0
LINE
8
0
62
0
10
-5.687615
20
27.846220
30
0.0
11
-5.437615
21
28.096220
31
0.0
0
LINE
8
0
62
0
10
-8.204627
20
27.846220
30
0.0
11
-7.954627
21
28.096220
31
0.0
0
LINE
8
0
62
0
10
-8.995709
20
27.846218
30
0.0
11
-8.745709
21
28.096220
31
0.0
0
LINE
8
0
62
0
10
-10.241934
20
27.846218
30
0.0
11
-9.991934
21
28.096218
31
0.0
0
LINE
8
0
62
0
10
-9.522862
20
27.846218
30
0.0
11
-9.272862
21
28.096218
31
0.0
0
LINE
8
0
62
0
10
-9.522861
20
22.356724
30
0.0
11
-9.272861
21
22.606724
31
0.0
0
LINE
8
0
62
0
10
-11.680280
20
27.846218
30
0.0
11
-11.430281
21
28.096218
31
0.0
0
LINE
8
0
62
0
10
-12.854883
20
27.846218
30
0.0
11
-12.604883
21
28.096218
31
0.0
0
LINE
8
0
62
0
10
-12.135760
20
22.356724
30
0.0
11
-11.885760
21
22.606724
31
0.0
0
LINE
8
0
62
0
10
-16.821732
20
26.366970
30
0.0
11
-16.571732
21
26.616970
31
0.0
0
LINE
8
0
62
0
10
-16.821741
20
23.836407
30
0.0
11
-16.571741
21
24.086407
31
0.0
0
LINE
8
0
62
0
10
-17.521809
20
23.836407
30
0.0
11
-17.271811
21
24.086407
31
0.0
0
LINE
8
0
62
0
10
2.139378
20
23.836412
30
0.0
11
2.389378
21
24.086412
31
0.0
0
LINE
8
0
62
0
10
1.439282
20
23.836412
30
0.0
11
1.689282
21
24.086412
31
0.0
0
LINE
8
0
62
0
10
4.397762
20
26.366978
30
0.0
11
4.647761
21
26.616978
31
0.0
0
LINE
8
0
62
0
10
13.677998
20
23.836416
30
0.0
11
13.927998
21
24.086416
31
0.0
0
LINE
8
0
62
0
10
15.936358
20
26.366982
30
0.0
11
16.186356
21
26.616982
31
0.0
0
LINE
8
0
62
0
10
15.936359
20
23.836418
30
0.0
11
16.186357
21
24.086418
31
0.0
0
LINE
8
0
62
0
10
13.677997
20
26.366980
30
0.0
11
13.927997
21
26.616980
31
0.0
0
LINE
8
0
62
0
10
-15.625054
20
23.836407
30
0.0
11
-15.375054
21
24.086407
31
0.0
0
LINE
8
0
62
0
10
-15.625055
20
26.366970
30
0.0
11
-15.375055
21
26.616970
31
0.0
0
LINE
8
0
62
0
10
-13.366693
20
26.366972
30
0.0
11
-13.116693
21
26.616972
31
0.0
0
LINE
8
0
62
0
10
-13.366692
20
23.836409
30
0.0
11
-13.116692
21
24.086409
31
0.0
0
LINE
8
0
62
0
10
-19.080095
20
23.836407
30
0.0
11
-18.830097
21
24.086407
31
0.0
0
LINE
8
0
62
0
10
-19.080097
20
26.366970
30
0.0
11
-18.830099
21
26.616970
31
0.0
0
LINE
8
0
62
0
10
3.585898
20
25.156588
30
0.0
11
3.835897
21
25.406588
31
0.0
0
LINE
8
0
62
0
10
2.567041
20
25.671568
30
0.0
11
2.817041
21
25.921568
31
0.0
0
LINE
8
0
62
0
10
-0.606715
20
27.846222
30
0.0
11
-0.356715
21
28.096222
31
0.0
0
LINE
8
0
62
0
10
0.647563
20
24.203575
30
0.0
11
0.897563
21
24.453575
31
0.0
0
LINE
8
0
62
0
10
-19.346951
20
27.412952
30
0.0
11
-19.096951
21
27.662952
31
0.0
0
LINE
8
0
62
0
10
-15.891919
20
27.412952
30
0.0
11
-15.641919
21
27.662952
31
0.0
0
LINE
8
0
62
0
10
-17.254999
20
22.790426
30
0.0
11
-17.004999
21
23.040428
31
0.0
0
LINE
8
0
62
0
10
-13.799952
20
22.790426
30
0.0
11
-13.549952
21
23.040426
31
0.0
0
LINE
8
0
62
0
10
0.478084
20
25.227306
30
0.0
11
0.728084
21
25.477308
31
0.0
0
LINE
8
0
62
0
10
3.964494
20
22.790438
30
0.0
11
4.214494
21
23.040438
31
0.0
0
LINE
8
0
62
0
10
1.872536
20
27.412958
30
0.0
11
2.122535
21
27.662958
31
0.0
0
LINE
8
0
62
0
10
15.503099
20
22.790436
30
0.0
11
15.753099
21
23.040436
31
0.0
0
LINE
8
0
62
0
10
13.411133
20
27.412962
30
0.0
11
13.661133
21
27.662962
31
0.0
0
LINE
8
0
62
0
10
-0.356703
20
25.681038
30
0.0
11
-0.606703
21
25.431038
31
0.0
0
LINE
8
0
62
1
10
-10.241932
20
24.194632
30
0.0
11
-10.241932
21
23.123829
31
0.0
0
LINE
8
0
62
1
10
-10.241934
20
27.846218
30
0.0
11
-9.522862
21
27.846218
31
0.0
0
LINE
8
0
62
1
10
-9.522862
20
27.846218
30
0.0
11
-9.522861
21
22.356724
31
0.0
0
LINE
8
0
62
1
10
-9.522861
20
22.356724
30
0.0
11
-10.697463
21
22.356724
31
0.0
0
LINE
8
0
62
1
10
-10.697463
20
22.356724
30
0.0
11
-11.885761
21
26.159248
31
0.0
0
LINE
8
0
62
1
10
-12.135761
20
26.959242
30
0.0
11
-12.135760
21
22.356724
31
0.0
0
LINE
8
0
62
1
10
-12.135760
20
22.356724
30
0.0
11
-12.854881
21
22.356724
31
0.0
0
LINE
8
0
62
1
10
-12.854881
20
22.356724
30
0.0
11
-12.854883
21
27.846218
31
0.0
0
LINE
8
0
62
1
10
-12.854883
20
27.846218
30
0.0
11
-11.680280
21
27.846218
31
0.0
0
LINE
8
0
62
1
10
-11.680280
20
27.846218
30
0.0
11
-10.241932
21
23.123829
31
0.0
0
LINE
8
0
62
1
10
-19.080097
20
26.366970
30
0.0
11
-19.080095
21
23.836407
31
0.0
0
ARC
8
0
62
1
10
-18.300953
20
23.836407
30
0.0
40
0.779144
50
540.000000
51
328.113831
0
LINE
8
0
62
1
10
-17.521809
20
23.836407
30
0.0
11
-16.821741
21
23.836407
31
0.0
0
ARC
8
0
62
1
10
-18.300978
20
23.836407
30
0.0
40
1.479237
50
540.000000
51
315.000000
0
LINE
8
0
62
1
10
-19.780216
20
23.836407
30
0.0
11
-19.780210
21
26.366970
31
0.0
0
ARC
8
0
62
1
10
-18.300972
20
26.366970
30
0.0
40
1.479240
50
360.000000
51
488.136475
0
LINE
8
0
62
1
10
-16.821732
20
26.366970
30
0.0
11
-17.521811
21
26.366970
31
0.0
0
ARC
8
0
62
1
10
-18.300955
20
26.366970
30
0.0
40
0.779144
50
360.000000
51
481.886230
0
ARC
8
0
62
1
10
-14.845913
20
26.366970
30
0.0
40
0.779141
50
360.000000
51
481.886169
0
ARC
8
0
62
1
10
-14.845936
20
26.366970
30
0.0
40
1.479243
50
360.000000
51
488.136475
0
ARC
8
0
62
1
10
-14.845912
20
23.836407
30
0.0
40
0.779141
50
540.000000
51
328.113861
0
LINE
8
0
62
1
10
-15.625054
20
23.836407
30
0.0
11
-15.625055
21
26.366970
31
0.0
0
ARC
8
0
62
1
10
-14.845935
20
23.836407
30
0.0
40
1.479243
50
540.000000
51
315.000000
0
LINE
8
0
62
1
10
-13.366692
20
23.836409
30
0.0
11
-13.366693
21
26.366972
31
0.0
0
LINE
8
0
62
1
10
-16.325178
20
23.836407
30
0.0
11
-16.325180
21
26.366970
31
0.0
0
LINE
8
0
62
1
10
-14.066772
20
23.836409
30
0.0
11
-14.066772
21
26.366972
31
0.0
0
LINE
8
0
62
1
10
-11.885761
20
26.159248
30
0.0
11
-12.135761
21
26.959242
31
0.0
0
LINE
8
0
62
1
10
-10.241932
20
24.194632
30
0.0
11
-10.241934
21
27.846218
31
0.0
0
ARC
8
0
62
1
10
-18.300953
20
23.836407
30
0.0
40
0.779144
50
328.113831
51
360.000000
0
ARC
8
0
62
1
10
-18.300955
20
26.366970
30
0.0
40
0.779144
50
481.886230
51
540.000000
0
ARC
8
0
62
1
10
-18.300972
20
26.366970
30
0.0
40
1.479240
50
488.136475
51
495.000000
0
ARC
8
0
62
1
10
-18.300978
20
23.836407
30
0.0
40
1.479237
50
321.863586
51
360.000000
0
ARC
8
0
62
1
10
-14.845913
20
26.366970
30
0.0
40
0.779141
50
481.886169
51
540.000000
0
ARC
8
0
62
1
10
-14.845912
20
23.836407
30
0.0
40
0.779141
50
328.113861
51
360.000000
0
ARC
8
0
62
1
10
-14.845936
20
26.366970
30
0.0
40
1.479243
50
488.136475
51
495.000000
0
ARC
8
0
62
1
10
-14.845935
20
23.836407
30
0.0
40
1.479243
50
321.863525
51
360.000000
0
ARC
8
0
62
1
10
-18.300972
20
26.366970
30
0.0
40
1.479240
50
495.000000
51
540.000000
0
ARC
8
0
62
1
10
-14.845936
20
26.366970
30
0.0
40
1.479243
50
495.000000
51
540.000000
0
ARC
8
0
62
1
10
-18.300978
20
23.836407
30
0.0
40
1.479237
50
315.000000
51
321.863586
0
ARC
8
0
62
1
10
-14.845935
20
23.836407
30
0.0
40
1.479243
50
315.000000
51
321.863525
0
LINE
8
0
62
2
10
-7.305709
20
23.195772
30
0.0
11
-7.158563
21
23.977871
31
0.0
0
LINE
8
0
62
2
10
-6.430757
20
27.846220
30
0.0
11
-5.687615
21
27.846220
31
0.0
0
LINE
8
0
62
2
10
-5.687615
20
27.846220
30
0.0
11
-6.886209
21
22.356726
31
0.0
0
LINE
8
0
62
2
10
-6.886209
20
22.356726
30
0.0
11
-7.821088
21
22.356726
31
0.0
0
LINE
8
0
62
2
10
-7.821088
20
22.356726
30
0.0
11
-8.995709
21
27.846218
31
0.0
0
LINE
8
0
62
2
10
-8.995709
20
27.846218
30
0.0
11
-8.204627
21
27.846220
31
0.0
0
LINE
8
0
62
2
10
-8.204627
20
27.846220
30
0.0
11
-7.305709
21
23.195772
31
0.0
0
LINE
8
0
62
2
10
-4.417354
20
27.222937
30
0.0
11
-4.417353
21
25.473028
31
0.0
0
LINE
8
0
62
2
10
-4.417353
20
25.473028
30
0.0
11
-2.787296
21
25.473030
31
0.0
0
LINE
8
0
62
2
10
-2.787296
20
25.473030
30
0.0
11
-2.787296
21
24.849802
31
0.0
0
LINE
8
0
62
2
10
-2.787296
20
24.849802
30
0.0
11
-4.167353
21
24.849800
31
0.0
0
LINE
8
0
62
2
10
-4.417353
20
24.849800
30
0.0
11
-4.417353
21
22.980007
31
0.0
0
LINE
8
0
62
2
10
-4.417353
20
22.980007
30
0.0
11
-2.643460
21
22.980009
31
0.0
0
LINE
8
0
62
2
10
-2.643460
20
22.980009
30
0.0
11
-2.643460
21
22.356728
31
0.0
0
LINE
8
0
62
2
10
-2.643460
20
22.356728
30
0.0
11
-5.160482
21
22.356726
31
0.0
0
LINE
8
0
62
2
10
-5.160482
20
22.356726
30
0.0
11
-5.160485
21
27.846220
31
0.0
0
LINE
8
0
62
2
10
-5.160485
20
27.846220
30
0.0
11
-2.691414
21
27.846222
31
0.0
0
LINE
8
0
62
2
10
-2.691414
20
27.846222
30
0.0
11
-2.691414
21
27.222939
31
0.0
0
LINE
8
0
62
2
10
-2.691414
20
27.222939
30
0.0
11
-4.167354
21
27.222937
31
0.0
0
LINE
8
0
62
2
10
-1.421153
20
27.193026
30
0.0
11
-1.421153
21
25.431038
31
0.0
0
LINE
8
0
62
2
10
-2.164273
20
27.846222
30
0.0
11
-0.606715
21
27.846222
31
0.0
0
ARC
8
0
62
2
10
-0.606706
20
26.312096
30
0.0
40
1.534125
50
302.855286
51
315.000000
0
ARC
8
0
62
2
10
-0.779996
20
23.987255
30
0.0
40
1.443856
50
368.616516
51
405.856628
0
LINE
8
0
62
2
10
0.647563
20
24.203575
30
0.0
11
0.927440
21
22.356728
31
0.0
0
LINE
8
0
62
2
10
0.927440
20
22.356728
30
0.0
11
0.274302
21
22.356728
31
0.0
0
LINE
8
0
62
2
10
0.274302
20
22.356728
30
0.0
11
0.001314
21
24.108944
31
0.0
0
ARC
8
0
62
2
10
-0.779940
20
23.987213
30
0.0
40
0.790681
50
368.856262
51
450.007751
0
LINE
8
0
62
2
10
-0.780047
20
24.777895
30
0.0
11
-1.171153
21
24.777861
31
0.0
0
LINE
8
0
62
2
10
-1.421153
20
24.777840
30
0.0
11
-1.421152
21
22.356728
31
0.0
0
LINE
8
0
62
2
10
-1.421152
20
22.356728
30
0.0
11
-2.164271
21
22.356728
31
0.0
0
LINE
8
0
62
2
10
-2.164271
20
22.356728
30
0.0
11
-2.164273
21
27.846222
31
0.0
0
ARC
8
0
62
2
10
-0.606704
20
26.312033
30
0.0
40
0.880993
50
630.000000
51
326.575348
0
LINE
8
0
62
2
10
-0.606704
20
27.193026
30
0.0
11
-1.171153
21
27.193026
31
0.0
0
ARC
8
0
62
2
10
-5.129841
20
1.125259
30
0.0
40
0.454033
50
213.433289
51
270.015991
0
ARC
8
0
62
2
10
-5.074456
20
1.128128
30
0.0
40
0.460232
50
263.104156
51
34.097916
0
ARC
8
0
62
2
10
-5.144348
20
0.993761
30
0.0
40
0.597797
50
41.023712
51
127.558533
0
LINE
8
0
62
2
10
-5.508749
20
2.099613
30
0.0
11
-5.508749
21
1.467653
31
0.0
0
LINE
8
0
62
2
10
-4.646017
20
2.099613
30
0.0
11
-5.508749
21
2.099613
31
0.0
0
ARC
8
0
62
2
10
-4.100397
20
1.025149
30
0.0
40
0.349937
50
199.465439
51
268.514557
0
ARC
8
0
62
2
10
-3.114843
20
1.386836
30
0.0
40
1.399744
50
160.019180
51
199.980820
0
ARC
8
0
62
2
10
-4.098783
20
1.748117
30
0.0
40
0.351594
50
19.447348
51
160.559586
0
ARC
8
0
62
2
10
-5.082723
20
1.386836
30
0.0
40
1.399744
50
340.017426
51
19.982561
0
ARC
8
0
62
2
10
-4.096027
20
1.023251
30
0.0
40
0.348230
50
271.354980
51
340.759247
0
LINE
8
0
62
2
10
-4.908788
20
-11.760287
30
0.0
11
-4.908788
21
-13.187240
31
0.0
0
LINE
8
0
62
2
10
-5.647745
20
-12.850887
30
0.0
11
-4.908788
21
-11.760287
31
0.0
0
LINE
8
0
62
2
10
-4.699841
20
-12.850887
30
0.0
11
-5.647745
21
-12.850887
31
0.0
0
LINE
8
0
62
2
10
-3.700975
20
-11.760288
30
0.0
11
-4.557146
21
-11.760288
31
0.0
0
ARC
8
0
62
2
10
-1.535957
20
-13.187482
30
0.0
40
2.593103
50
146.606873
51
179.994705
0
LINE
8
0
62
2
10
-1.421153
20
25.431038
30
0.0
11
-0.606703
21
25.431038
31
0.0
0
LINE
8
0
62
2
10
-1.171153
20
27.193026
30
0.0
11
-1.421153
21
27.193026
31
0.0
0
ARC
8
0
62
2
10
-0.606704
20
26.312033
30
0.0
40
0.880993
50
326.575348
51
450.000000
0
LINE
8
0
62
2
10
-1.171153
20
24.777861
30
0.0
11
-1.421153
21
24.777840
31
0.0
0
ARC
8
0
62
2
10
-0.606706
20
26.312096
30
0.0
40
1.534125
50
321.616882
51
450.000305
0
ARC
8
0
62
2
10
-0.606706
20
26.312096
30
0.0
40
1.534125
50
316.154480
51
321.616882
0
LINE
8
0
62
2
10
-4.167353
20
24.849800
30
0.0
11
-4.417353
21
24.849800
31
0.0
0
LINE
8
0
62
2
10
-4.167354
20
27.222937
30
0.0
11
-4.417354
21
27.222937
31
0.0
0
LINE
8
0
62
2
10
-7.158563
20
23.977871
30
0.0
11
-6.430757
21
27.846220
31
0.0
0
ARC
8
0
62
2
10
-0.606706
20
26.312096
30
0.0
40
1.534125
50
315.000000
51
316.154480
0
ARC
8
0
62
3
10
2.918486
20
26.366991
30
0.0
40
1.479210
50
540.000671
51
603.183960
0
ARC
8
0
62
3
10
2.918519
20
26.366976
30
0.0
40
1.479243
50
360.000000
51
488.136475
0
LINE
8
0
62
3
10
4.397762
20
26.366978
30
0.0
11
3.697671
21
26.366978
31
0.0
0
ARC
8
0
62
3
10
2.918527
20
26.366976
30
0.0
40
0.779144
50
360.000000
51
481.886230
0
ARC
8
0
62
3
10
2.918575
20
26.366955
30
0.0
40
0.779192
50
539.998474
51
603.182373
0
LINE
8
0
62
3
10
2.567041
20
25.671568
30
0.0
11
3.585898
21
25.156588
31
0.0
0
ARC
8
0
62
3
10
2.918507
20
23.836437
30
0.0
40
1.479257
50
321.863068
51
423.181488
0
ARC
8
0
62
3
10
2.918517
20
23.836412
30
0.0
40
1.479234
50
540.000000
51
315.000000
0
LINE
8
0
62
3
10
1.439282
20
23.836412
30
0.0
11
2.139378
21
23.836412
31
0.0
0
ARC
8
0
62
3
10
2.918519
20
23.836412
30
0.0
40
0.779141
50
540.000000
51
328.113861
0
ARC
8
0
62
3
10
2.918527
20
23.836416
30
0.0
40
0.779138
50
328.113220
51
423.183807
0
LINE
8
0
62
3
10
3.270019
20
24.531767
30
0.0
11
2.251173
21
25.046858
31
0.0
0
LINE
8
0
62
3
10
7.272094
20
24.226521
30
0.0
11
7.219731
21
24.476521
31
0.0
0
LINE
8
0
62
3
10
6.030756
20
24.226521
30
0.0
11
6.659532
21
27.151091
31
0.0
0
LINE
8
0
62
3
10
5.628755
20
22.356730
30
0.0
11
4.909612
21
22.356730
31
0.0
0
LINE
8
0
62
3
10
4.909612
20
22.356730
30
0.0
11
6.180100
21
27.846224
31
0.0
0
LINE
8
0
62
3
10
6.180100
20
27.846224
30
0.0
11
7.186898
21
27.846224
31
0.0
0
LINE
8
0
62
3
10
7.186898
20
27.846224
30
0.0
11
8.457407
21
22.356730
31
0.0
0
LINE
8
0
62
3
10
8.457407
20
22.356730
30
0.0
11
7.666336
21
22.356730
31
0.0
0
LINE
8
0
62
3
10
7.666336
20
22.356730
30
0.0
11
7.402647
21
23.603294
31
0.0
0
LINE
8
0
62
3
10
7.402647
20
23.603294
30
0.0
11
6.093014
21
23.603294
31
0.0
0
LINE
8
0
62
3
10
6.030756
20
24.226521
30
0.0
11
7.272094
21
24.226521
31
0.0
0
LINE
8
0
62
3
10
9.901417
20
27.222942
30
0.0
11
9.901418
21
22.606731
31
0.0
0
LINE
8
0
62
3
10
9.901418
20
22.356731
30
0.0
11
9.158298
21
22.356731
31
0.0
0
LINE
8
0
62
3
10
9.158298
20
22.356731
30
0.0
11
9.158298
21
27.222942
31
0.0
0
LINE
8
0
62
3
10
9.158298
20
27.222942
30
0.0
11
7.887795
21
27.222940
31
0.0
0
LINE
8
0
62
3
10
7.887795
20
27.222940
30
0.0
11
7.887794
21
27.846224
31
0.0
0
LINE
8
0
62
3
10
7.887794
20
27.846224
30
0.0
11
8.137794
21
27.846224
31
0.0
0
LINE
8
0
62
3
10
11.195877
20
27.846226
30
0.0
11
11.195878
21
27.222942
31
0.0
0
LINE
8
0
62
3
10
11.195878
20
27.222942
30
0.0
11
10.151417
21
27.222942
31
0.0
0
LINE
8
0
62
3
10
-5.059388
20
15.283240
30
0.0
11
-5.508749
21
15.959697
31
0.0
0
LINE
8
0
62
3
10
-5.034796
20
15.246220
30
0.0
11
-5.034796
21
14.532744
31
0.0
0
LINE
8
0
62
3
10
-4.560844
20
15.959697
30
0.0
11
-5.034796
21
15.246220
31
0.0
0
ARC
8
0
62
3
10
-5.113155
20
-10.004755
30
0.0
40
0.411341
50
210.522003
51
269.441071
0
LINE
8
0
62
3
10
-4.971754
20
-10.417495
30
0.0
11
-5.117167
21
-10.416076
31
0.0
0
ARC
8
0
62
3
10
-4.968091
20
-10.042001
30
0.0
40
0.375512
50
269.441071
51
357.350677
0
ARC
8
0
62
3
10
-4.898426
20
-10.087061
30
0.0
40
0.306699
50
5.182272
51
59.344830
0
LINE
8
0
62
3
10
-5.303650
20
-9.582018
30
0.0
11
-4.742049
21
-9.823222
31
0.0
0
ARC
8
0
62
3
10
-5.147274
20
-9.318180
30
0.0
40
0.306699
50
185.182404
51
239.344803
0
ARC
8
0
62
3
10
-5.079111
20
-9.362247
30
0.0
40
0.373966
50
91.261345
51
177.491959
0
LINE
8
0
62
3
10
-4.942276
20
-8.988220
30
0.0
11
-5.087343
21
-8.988372
31
0.0
0
ARC
8
0
62
3
10
-4.955231
20
-9.386344
30
0.0
40
0.398335
50
29.271709
51
88.136147
0
LINE
8
0
62
3
10
-4.348774
20
-10.415240
30
0.0
11
-4.348774
21
-8.988288
31
0.0
0
LINE
8
0
62
3
10
-3.526850
20
-9.701764
30
0.0
11
-4.305965
21
-9.701764
31
0.0
0
LINE
8
0
62
3
10
-3.482411
20
-8.988288
30
0.0
11
-3.482411
21
-10.415240
31
0.0
0
LINE
8
0
62
3
10
-2.853157
20
-10.415240
30
0.0
11
-3.260858
21
-10.415240
31
0.0
0
LINE
8
0
62
3
10
-3.057008
20
-9.031096
30
0.0
11
-3.057008
21
-10.372432
31
0.0
0
LINE
8
0
62
3
10
-2.855303
20
-8.988289
30
0.0
11
-3.260858
21
-8.988289
31
0.0
0
LINE
8
0
62
3
10
-2.594753
20
-9.701733
30
0.0
11
-1.984017
21
-9.701733
31
0.0
0
LINE
8
0
62
3
10
-2.637357
20
-8.988256
30
0.0
11
-2.637357
21
-10.415208
31
0.0
0
LINE
8
0
62
3
10
-1.871899
20
-8.988256
30
0.0
11
-2.637357
21
-8.988256
31
0.0
0
LINE
8
0
62
3
10
-1.134149
20
-9.031569
30
0.0
11
-1.134149
21
-10.415239
31
0.0
0
LINE
8
0
62
3
10
-0.678035
20
-8.988288
30
0.0
11
-1.590264
21
-8.988288
31
0.0
0
LINE
8
0
62
3
10
-4.198419
20
-15.959254
30
0.0
11
-3.361614
21
-15.959254
31
0.0
0
LINE
8
0
62
3
10
-4.198929
20
-15.245779
30
0.0
11
-4.198419
21
-15.959254
31
0.0
0
LINE
8
0
62
3
10
-3.545079
20
-15.245779
30
0.0
11
-4.198929
21
-15.245779
31
0.0
0
LINE
8
0
62
3
10
-4.199438
20
-14.532304
30
0.0
11
-4.198959
21
-15.224387
31
0.0
0
LINE
8
0
62
3
10
-3.432961
20
-14.532304
30
0.0
11
-4.199438
21
-14.532304
31
0.0
0
LINE
8
0
62
3
10
-3.271491
20
-14.532289
30
0.0
11
-3.271491
21
-15.959239
31
0.0
0
LINE
8
0
62
3
10
-2.395274
20
-15.959239
30
0.0
11
-3.271491
21
-14.532289
31
0.0
0
LINE
8
0
62
3
10
-2.395274
20
-14.532289
30
0.0
11
-2.395274
21
-15.959239
31
0.0
0
LINE
8
0
62
3
10
-1.657524
20
-14.575568
30
0.0
11
-1.657524
21
-15.959239
31
0.0
0
LINE
8
0
62
3
10
-1.201409
20
-14.532289
30
0.0
11
-2.113639
21
-14.532289
31
0.0
0
LINE
8
0
62
3
10
-1.043345
20
-15.959254
30
0.0
11
-0.206540
21
-15.959254
31
0.0
0
LINE
8
0
62
3
10
-1.043854
20
-15.245779
30
0.0
11
-1.043345
21
-15.959254
31
0.0
0
LINE
8
0
62
3
10
-0.390005
20
-15.245779
30
0.0
11
-1.043854
21
-15.245779
31
0.0
0
LINE
8
0
62
3
10
-1.044364
20
-14.532304
30
0.0
11
-1.043885
21
-15.224387
31
0.0
0
LINE
8
0
62
3
10
-0.277887
20
-14.532304
30
0.0
11
-1.044364
21
-14.532304
31
0.0
0
LINE
8
0
62
3
10
-0.063844
20
-14.532289
30
0.0
11
-0.063844
21
-15.959239
31
0.0
0
LINE
8
0
62
3
10
0.453935
20
-14.532289
30
0.0
11
-0.063844
21
-14.532289
31
0.0
0
ARC
8
0
62
3
10
0.447060
20
-14.889026
30
0.0
40
0.356804
50
271.095276
51
88.895920
0
LINE
8
0
62
3
10
-0.017014
20
-15.245764
30
0.0
11
0.453880
21
-15.245764
31
0.0
0
LINE
8
0
62
3
10
0.810673
20
-15.959239
30
0.0
11
0.474210
21
-15.286418
31
0.0
0
LINE
8
0
62
3
10
-4.198419
20
-2.099255
30
0.0
11
-3.361614
21
-2.099255
31
0.0
0
LINE
8
0
62
3
10
-4.198929
20
-1.385779
30
0.0
11
-4.198419
21
-2.099255
31
0.0
0
LINE
8
0
62
3
10
-3.545079
20
-1.385779
30
0.0
11
-4.198929
21
-1.385779
31
0.0
0
LINE
8
0
62
3
10
-4.199438
20
-0.672303
30
0.0
11
-4.198959
21
-1.364387
31
0.0
0
LINE
8
0
62
3
10
-3.432961
20
-0.672303
30
0.0
11
-4.199438
21
-0.672303
31
0.0
0
LINE
8
0
62
3
10
-3.271491
20
-0.672289
30
0.0
11
-3.271491
21
-2.099240
31
0.0
0
LINE
8
0
62
3
10
-2.395274
20
-2.099240
30
0.0
11
-3.271491
21
-0.672289
31
0.0
0
LINE
8
0
62
3
10
-2.395274
20
-0.672289
30
0.0
11
-2.395274
21
-2.099240
31
0.0
0
LINE
8
0
62
3
10
-1.657524
20
-0.715569
30
0.0
11
-1.657524
21
-2.099240
31
0.0
0
LINE
8
0
62
3
10
-1.201409
20
-0.672288
30
0.0
11
-2.113639
21
-0.672288
31
0.0
0
LINE
8
0
62
3
10
-1.043345
20
-2.099255
30
0.0
11
-0.206540
21
-2.099255
31
0.0
0
LINE
8
0
62
3
10
-1.043854
20
-1.385779
30
0.0
11
-1.043345
21
-2.099255
31
0.0
0
LINE
8
0
62
3
10
-0.390005
20
-1.385779
30
0.0
11
-1.043854
21
-1.385779
31
0.0
0
LINE
8
0
62
3
10
-1.044364
20
-0.672303
30
0.0
11
-1.043885
21
-1.364387
31
0.0
0
LINE
8
0
62
3
10
-0.277887
20
-0.672303
30
0.0
11
-1.044364
21
-0.672303
31
0.0
0
LINE
8
0
62
3
10
-0.063844
20
-0.672288
30
0.0
11
-0.063844
21
-2.099240
31
0.0
0
LINE
8
0
62
3
10
0.453935
20
-0.672288
30
0.0
11
-0.063844
21
-0.672288
31
0.0
0
ARC
8
0
62
3
10
0.447060
20
-1.029026
30
0.0
40
0.356804
50
271.095276
51
88.895920
0
LINE
8
0
62
3
10
-0.017014
20
-1.385764
30
0.0
11
0.453880
21
-1.385764
31
0.0
0
LINE
8
0
62
3
10
0.810673
20
-2.099240
30
0.0
11
0.474210
21
-1.426418
31
0.0
0
ARC
8
0
62
3
10
-5.113155
20
12.171244
30
0.0
40
0.411341
50
210.522003
51
269.441071
0
LINE
8
0
62
3
10
-4.971754
20
11.758505
30
0.0
11
-5.117167
21
11.759924
31
0.0
0
ARC
8
0
62
3
10
-4.968091
20
12.133999
30
0.0
40
0.375512
50
269.441071
51
357.350677
0
ARC
8
0
62
3
10
-4.898426
20
12.088939
30
0.0
40
0.306699
50
5.182272
51
59.344830
0
LINE
8
0
62
3
10
-5.303650
20
12.593982
30
0.0
11
-4.742049
21
12.352777
31
0.0
0
ARC
8
0
62
3
10
-5.147274
20
12.857820
30
0.0
40
0.306699
50
185.182404
51
212.263611
0
ARC
8
0
62
3
10
-5.079111
20
12.813752
30
0.0
40
0.373966
50
91.261345
51
177.491959
0
LINE
8
0
62
3
10
-4.942276
20
13.187778
30
0.0
11
-5.087343
21
13.187628
31
0.0
0
ARC
8
0
62
3
10
-4.955231
20
12.789655
30
0.0
40
0.398335
50
29.271709
51
88.136147
0
ARC
8
0
62
3
10
3.145783
20
12.280891
30
0.0
40
0.524760
50
204.386841
51
324.320007
0
ARC
8
0
62
3
10
3.871936
20
12.471921
30
0.0
40
1.271244
50
161.294128
51
198.705872
0
ARC
8
0
62
3
10
3.145783
20
12.662951
30
0.0
40
0.524760
50
35.680031
51
155.613174
0
ARC
8
0
62
3
10
-5.147274
20
12.857820
30
0.0
40
0.306699
50
212.263611
51
239.344803
0
LINE
8
0
62
3
10
5.896763
20
23.603294
30
0.0
11
5.628755
21
22.356730
31
0.0
0
LINE
8
0
62
3
10
9.901418
20
22.606731
30
0.0
11
9.901418
21
22.356731
31
0.0
0
LINE
8
0
62
3
10
8.137794
20
27.846224
30
0.0
11
11.195877
21
27.846226
31
0.0
0
LINE
8
0
62
3
10
10.151417
20
27.222942
30
0.0
11
9.901417
21
27.222942
31
0.0
0
LINE
8
0
62
3
10
6.756376
20
26.688728
30
0.0
11
6.659532
21
27.151091
31
0.0
0
LINE
8
0
62
3
10
7.219731
20
24.476521
30
0.0
11
6.756376
21
26.688728
31
0.0
0
LINE
8
0
62
3
10
6.093014
20
23.603294
30
0.0
11
5.896763
21
23.603294
31
0.0
0
ARC
8
0
62
3
10
2.918527
20
26.366976
30
0.0
40
0.779144
50
481.886230
51
540.000000
0
ARC
8
0
62
3
10
2.918519
20
26.366976
30
0.0
40
1.479243
50
488.136475
51
495.000000
0
ARC
8
0
62
3
10
2.918517
20
23.836412
30
0.0
40
1.479234
50
315.000000
51
321.863586
0
ARC
8
0
62
3
10
2.918519
20
26.366976
30
0.0
40
1.479243
50
495.000000
51
540.000000
0
LINE
8
0
62
3
10
-5.008748
20
4.871696
30
0.0
11
-5.508749
21
4.871696
31
0.0
0
LINE
8
0
62
3
10
-5.008748
20
3.444745
30
0.0
11
-5.508749
21
3.444745
31
0.0
0
LINE
8
0
62
3
10
-5.508749
20
3.444745
30
0.0
11
-5.508749
21
4.871696
31
0.0
0
LINE
8
0
62
3
10
2.038126
20
-8.988303
30
0.0
11
1.538126
21
-8.988303
31
0.0
0
LINE
8
0
62
3
10
2.038126
20
-10.415255
30
0.0
11
1.538126
21
-10.415255
31
0.0
0
LINE
8
0
62
3
10
1.538126
20
-10.415255
30
0.0
11
1.538126
21
-8.988303
31
0.0
0
LINE
8
0
62
4
10
12.466067
20
27.846226
30
0.0
11
11.722969
21
27.846226
31
0.0
0
LINE
8
0
62
4
10
11.722971
20
22.356731
30
0.0
11
12.466069
21
22.356731
31
0.0
0
LINE
8
0
62
4
10
-16.000000
20
-20.000000
30
0.0
11
16.000000
21
-20.000000
31
0.0
0
LINE
8
0
62
4
10
20.000000
20
16.000000
30
0.0
11
20.000000
21
-16.000000
31
0.0
0
LINE
8
0
62
4
10
12.466069
20
22.356731
30
0.0
11
12.466067
21
27.846226
31
0.0
0
LINE
8
0
62
4
10
11.722971
20
22.356731
30
0.0
11
11.722969
21
27.846226
31
0.0
0
ARC
8
0
62
4
10
-16.000000
20
16.000000
30
0.0
40
4.000000
50
90.000000
51
180.000000
0
ARC
8
0
62
4
10
16.000000
20
16.000000
30
0.0
40
4.000000
50
360.000000
51
90.000000
0
ARC
8
0
62
4
10
16.000000
20
-16.000000
30
0.0
40
4.000000
50
270.000000
51
360.000000
0
ARC
8
0
62
4
10
-16.000000
20
-16.000000
30
0.0
40
4.000000
50
180.000000
51
270.000000
0
LINE
8
0
62
4
10
-20.000000
20
-16.000000
30
0.0
11
-20.000000
21
16.000000
31
0.0
0
LINE
8
0
62
4
10
16.000000
20
20.000000
30
0.0
11
-16.000000
21
20.000000
31
0.0
0
ARC
8
0
62
4
10
14.457138
20
26.366980
30
0.0
40
0.779141
50
360.000000
51
481.886169
0
LINE
8
0
62
4
10
13.677997
20
26.366980
30
0.0
11
13.677998
21
23.836416
31
0.0
0
ARC
8
0
62
4
10
14.457115
20
26.366980
30
0.0
40
1.479243
50
360.000000
51
488.136475
0
LINE
8
0
62
4
10
15.936358
20
26.366982
30
0.0
11
15.936359
21
23.836418
31
0.0
0
LINE
8
0
62
4
10
19.061117
20
23.123838
30
0.0
11
19.061117
21
24.194641
31
0.0
0
LINE
8
0
62
4
10
19.780190
20
22.356733
30
0.0
11
18.605587
21
22.356733
31
0.0
0
LINE
8
0
62
4
10
18.605587
20
22.356733
30
0.0
11
17.417290
21
26.159258
31
0.0
0
LINE
8
0
62
4
10
17.167288
20
26.959251
30
0.0
11
17.167290
21
22.606733
31
0.0
0
LINE
8
0
62
4
10
17.167290
20
22.356733
30
0.0
11
16.448168
21
22.356733
31
0.0
0
LINE
8
0
62
4
10
16.448168
20
22.356733
30
0.0
11
16.448166
21
27.846228
31
0.0
0
LINE
8
0
62
4
10
16.448166
20
27.846228
30
0.0
11
17.622770
21
27.846228
31
0.0
0
LINE
8
0
62
4
10
17.622770
20
27.846228
30
0.0
11
19.061117
21
23.123838
31
0.0
0
LINE
8
0
62
4
10
-0.704344
20
6.216676
30
0.0
11
-0.704344
21
6.695842
31
0.0
0
LINE
8
0
62
4
10
-0.704344
20
7.643629
30
0.0
11
-0.186565
21
7.643629
31
0.0
0
ARC
8
0
62
4
10
-0.207765
20
7.286890
30
0.0
40
0.357367
50
273.401001
51
86.599007
0
LINE
8
0
62
4
10
-0.186565
20
6.930152
30
0.0
11
-0.682940
21
6.930152
31
0.0
0
LINE
8
0
62
4
10
0.312869
20
7.643629
30
0.0
11
0.312869
21
6.624385
31
0.0
0
ARC
8
0
62
4
10
0.730742
20
6.631124
30
0.0
40
0.417927
50
180.923920
51
0.472477
0
LINE
8
0
62
4
10
1.148655
20
6.634570
30
0.0
11
1.148655
21
7.643629
31
0.0
0
LINE
8
0
62
4
10
1.362698
20
6.216676
30
0.0
11
1.362698
21
7.643629
31
0.0
0
LINE
8
0
62
4
10
1.362698
20
7.643629
30
0.0
11
1.880478
21
7.643629
31
0.0
0
ARC
8
0
62
4
10
1.873602
20
7.286891
30
0.0
40
0.356804
50
271.095276
51
88.895920
0
LINE
8
0
62
4
10
1.880422
20
6.930152
30
0.0
11
1.409528
21
6.930152
31
0.0
0
LINE
8
0
62
4
10
1.900752
20
6.889498
30
0.0
11
2.237216
21
6.216676
31
0.0
0
LINE
8
0
62
4
10
2.415585
20
6.216676
30
0.0
11
2.415585
21
7.643629
31
0.0
0
LINE
8
0
62
4
10
2.415585
20
7.643629
30
0.0
11
2.933364
21
7.643629
31
0.0
0
ARC
8
0
62
4
10
2.912164
20
7.286890
30
0.0
40
0.357367
50
273.401001
51
86.599007
0
LINE
8
0
62
4
10
2.933364
20
6.930152
30
0.0
11
2.436989
21
6.930152
31
0.0
0
LINE
8
0
62
4
10
3.432797
20
7.643629
30
0.0
11
3.432797
21
6.216676
31
0.0
0
LINE
8
0
62
4
10
3.432797
20
6.216676
30
0.0
11
4.269603
21
6.216676
31
0.0
0
LINE
8
0
62
4
10
5.295051
20
6.216661
30
0.0
11
4.458245
21
6.216661
31
0.0
0
LINE
8
0
62
4
10
4.458245
20
6.216661
30
0.0
11
4.457735
21
6.930137
31
0.0
0
LINE
8
0
62
4
10
4.457735
20
6.930137
30
0.0
11
5.111585
21
6.930137
31
0.0
0
LINE
8
0
62
4
10
4.457705
20
6.951530
30
0.0
11
4.457225
21
7.643613
31
0.0
0
LINE
8
0
62
4
10
4.457225
20
7.643613
30
0.0
11
5.223702
21
7.643613
31
0.0
0
LINE
8
0
62
4
10
19.061068
20
27.846228
30
0.0
11
19.780188
21
27.846228
31
0.0
0
LINE
8
0
62
4
10
19.780188
20
27.846228
30
0.0
11
19.780190
21
22.356733
31
0.0
0
LINE
8
0
62
4
10
-4.778026
20
6.931041
30
0.0
11
-4.262040
21
6.931041
31
0.0
0
ARC
8
0
62
4
10
-4.262153
20
6.573859
30
0.0
40
0.357182
50
270.000000
51
89.981880
0
LINE
8
0
62
4
10
-4.262153
20
6.216677
30
0.0
11
-4.820888
21
6.216677
31
0.0
0
LINE
8
0
62
4
10
-4.820888
20
6.216677
30
0.0
11
-4.820888
21
7.643629
31
0.0
0
LINE
8
0
62
4
10
-4.820888
20
7.643629
30
0.0
11
-4.325935
21
7.643629
31
0.0
0
ARC
8
0
62
4
10
-4.328789
20
7.285014
30
0.0
40
0.358625
50
296.191833
51
89.543999
0
LINE
8
0
62
4
10
-3.683141
20
6.214900
30
0.0
11
-3.274933
21
6.214900
31
0.0
0
LINE
8
0
62
4
10
-3.479038
20
6.257761
30
0.0
11
-3.479038
21
7.600767
31
0.0
0
LINE
8
0
62
4
10
-3.683141
20
7.643629
30
0.0
11
-3.277081
21
7.643629
31
0.0
0
LINE
8
0
62
4
10
-2.719062
20
6.846580
30
0.0
11
-2.116205
21
6.846580
31
0.0
0
ARC
8
0
62
4
10
-2.116205
20
6.803722
30
0.0
40
0.042858
50
0.000000
51
90.000000
0
LINE
8
0
62
4
10
-2.073348
20
6.803722
30
0.0
11
-2.073348
21
6.695842
31
0.0
0
ARC
8
0
62
4
10
-2.559792
20
6.692109
30
0.0
40
0.486459
50
200.855255
51
0.439684
0
ARC
8
0
62
4
10
-1.808893
20
6.927053
30
0.0
40
1.272700
50
161.293991
51
198.703979
0
ARC
8
0
62
4
10
-2.535877
20
7.118305
30
0.0
40
0.525361
50
35.680031
51
155.613174
0
LINE
8
0
62
4
10
-0.704344
20
6.695842
30
0.0
11
-0.704344
21
7.643629
31
0.0
0
LINE
8
0
62
4
10
12.977873
20
26.366980
30
0.0
11
12.977874
21
23.836416
31
0.0
0
ARC
8
0
62
4
10
14.457139
20
23.836416
30
0.0
40
0.779141
50
540.000000
51
328.113861
0
ARC
8
0
62
4
10
14.457116
20
23.836416
30
0.0
40
1.479243
50
540.000000
51
315.000000
0
LINE
8
0
62
4
10
15.236279
20
23.836418
30
0.0
11
15.236279
21
26.366982
31
0.0
0
LINE
8
0
62
4
10
19.061117
20
24.194641
30
0.0
11
19.061115
21
27.846228
31
0.0
0
LINE
8
0
62
4
10
17.417290
20
26.159258
30
0.0
11
17.167288
21
26.959251
31
0.0
0
LINE
8
0
62
4
10
17.167290
20
22.606733
30
0.0
11
17.167290
21
22.356733
31
0.0
0
ARC
8
0
62
4
10
14.457138
20
26.366980
30
0.0
40
0.779141
50
481.886169
51
540.000000
0
ARC
8
0
62
4
10
14.457139
20
23.836416
30
0.0
40
0.779141
50
328.113861
51
360.000000
0
ARC
8
0
62
4
10
14.457116
20
23.836416
30
0.0
40
1.479243
50
321.863525
51
360.000000
0
ARC
8
0
62
4
10
14.457115
20
26.366980
30
0.0
40
1.479243
50
488.136475
51
495.000000
0
ARC
8
0
62
4
10
14.457116
20
23.836416
30
0.0
40
1.479243
50
315.000000
51
321.863525
0
ARC
8
0
62
4
10
14.457115
20
26.366980
30
0.0
40
1.479243
50
495.000000
51
540.000000
0
ARC
8
0
62
4
10
6.711294
20
6.627161
30
0.0
40
0.411341
50
210.522003
51
269.441071
0
LINE
8
0
62
4
10
6.707281
20
6.215840
30
0.0
11
6.852695
21
6.214421
31
0.0
0
ARC
8
0
62
4
10
6.856358
20
6.589916
30
0.0
40
0.375512
50
269.441071
51
357.350677
0
ARC
8
0
62
4
10
6.926024
20
6.544856
30
0.0
40
0.306699
50
5.182272
51
59.344830
0
LINE
8
0
62
4
10
7.082400
20
6.808694
30
0.0
11
6.520799
21
7.049899
31
0.0
0
ARC
8
0
62
4
10
6.677176
20
7.313737
30
0.0
40
0.306699
50
185.182404
51
239.344803
0
ARC
8
0
62
4
10
6.745338
20
7.269669
30
0.0
40
0.373966
50
91.261345
51
177.491959
0
LINE
8
0
62
4
10
6.737106
20
7.643545
30
0.0
11
6.882174
21
7.643697
31
0.0
0
ARC
8
0
62
4
10
6.869218
20
7.245573
30
0.0
40
0.398335
50
29.271709
51
88.136147
0
LINE
8
0
62
4
10
8.086984
20
6.581863
30
0.0
11
8.539653
21
6.236314
31
0.0
0
ARC
8
0
62
4
10
8.028689
20
6.636036
30
0.0
40
0.424361
50
195.902084
51
315.740295
0
ARC
8
0
62
4
10
8.824661
20
6.927464
30
0.0
40
1.271244
50
161.294113
51
198.705887
0
ARC
8
0
62
4
10
8.028689
20
7.219435
30
0.0
40
0.424213
50
15.832771
51
164.168289
0
ARC
8
0
62
4
10
7.249548
20
6.934889
30
0.0
40
1.252922
50
335.052795
51
18.631470
0
LINE
8
0
62
4
10
8.671096
20
7.643629
30
0.0
11
8.671096
21
6.624385
31
0.0
0
ARC
8
0
62
4
10
9.088968
20
6.631124
30
0.0
40
0.417927
50
180.923920
51
0.472477
0
LINE
8
0
62
4
10
9.506882
20
6.634570
30
0.0
11
9.506882
21
7.643629
31
0.0
0
LINE
8
0
62
4
10
9.649576
20
6.216676
30
0.0
11
10.184685
21
7.643629
31
0.0
0
LINE
8
0
62
4
10
10.184685
20
7.643629
30
0.0
11
10.719791
21
6.216676
31
0.0
0
LINE
8
0
62
4
10
9.807052
20
6.522452
30
0.0
11
10.562317
21
6.522452
31
0.0
0
LINE
8
0
62
4
10
10.933834
20
6.216676
30
0.0
11
10.933834
21
7.643629
31
0.0
0
LINE
8
0
62
4
10
10.933834
20
7.643629
30
0.0
11
11.451613
21
7.643629
31
0.0
0
ARC
8
0
62
4
10
11.444738
20
7.286891
30
0.0
40
0.356804
50
271.095276
51
88.895920
0
LINE
8
0
62
4
10
11.451559
20
6.930152
30
0.0
11
10.980664
21
6.930152
31
0.0
0
LINE
8
0
62
4
10
11.471889
20
6.889498
30
0.0
11
11.808352
21
6.216676
31
0.0
0
LINE
8
0
62
4
10
12.803222
20
6.216661
30
0.0
11
11.966416
21
6.216661
31
0.0
0
LINE
8
0
62
4
10
11.966416
20
6.216661
30
0.0
11
11.965906
21
6.930137
31
0.0
0
LINE
8
0
62
4
10
11.965906
20
6.930137
30
0.0
11
12.619757
21
6.930137
31
0.0
0
LINE
8
0
62
4
10
11.965877
20
6.951530
30
0.0
11
11.965397
21
7.643613
31
0.0
0
LINE
8
0
62
4
10
11.965397
20
7.643613
30
0.0
11
12.731874
21
7.643613
31
0.0
0
ARC
8
0
62
5
10
-16.000000
20
-16.000000
30
0.0
40
1.700000
50
360.000000
51
180.000000
0
ARC
8
0
62
5
10
-16.000000
20
-16.000000
30
0.0
40
1.700000
50
180.000000
51
360.000000
0
ARC
8
0
62
5
10
16.000000
20
-16.000000
30
0.0
40
1.700000
50
360.000000
51
180.000000
0
ARC
8
0
62
5
10
16.000000
20
-16.000000
30
0.0
40
1.700000
50
180.000000
51
360.000000
0
ARC
8
0
62
5
10
16.000000
20
16.000000
30
0.0
40
1.700000
50
360.000000
51
180.000000
0
ARC
8
0
62
5
10
16.000000
20
16.000000
30
0.0
40
1.700000
50
180.000000
51
360.000000
0
ARC
8
0
62
5
10
-16.000000
20
16.000000
30
0.0
40
1.700000
50
360.000000
51
180.000000
0
ARC
8
0
62
5
10
-16.000000
20
16.000000
30
0.0
40
1.700000
50
180.000000
51
360.000000
0
LINE
8
0
62
5
10
4.232025
20
9.920810
30
0.0
11
4.747370
21
9.920810
31
0.0
0
ARC
8
0
62
5
10
4.747257
20
9.564072
30
0.0
40
0.356738
50
270.000000
51
89.981880
0
LINE
8
0
62
5
10
4.747257
20
9.207335
30
0.0
11
4.189217
21
9.207335
31
0.0
0
LINE
8
0
62
5
10
4.189217
20
9.207335
30
0.0
11
4.189217
21
10.632511
31
0.0
0
LINE
8
0
62
5
10
4.189217
20
10.632511
30
0.0
11
4.683553
21
10.632511
31
0.0
0
ARC
8
0
62
5
10
4.680703
20
10.274343
30
0.0
40
0.358179
50
296.191833
51
89.543999
0
LINE
8
0
62
5
10
5.246690
20
10.632511
30
0.0
11
5.246690
21
9.205560
31
0.0
0
LINE
8
0
62
5
10
5.246690
20
9.205560
30
0.0
11
6.083496
21
9.205560
31
0.0
0
LINE
8
0
62
5
10
6.256769
20
10.632511
30
0.0
11
6.256769
21
9.613268
31
0.0
0
ARC
8
0
62
5
10
6.674642
20
9.620007
30
0.0
40
0.417927
50
180.923920
51
0.472477
0
LINE
8
0
62
5
10
7.092555
20
9.623453
30
0.0
11
7.092555
21
10.632511
31
0.0
0
LINE
8
0
62
5
10
8.087424
20
9.205544
30
0.0
11
7.250618
21
9.205544
31
0.0
0
LINE
8
0
62
5
10
7.250618
20
9.205544
30
0.0
11
7.250109
21
9.919021
31
0.0
0
LINE
8
0
62
5
10
7.250109
20
9.919021
30
0.0
11
7.903959
21
9.919021
31
0.0
0
LINE
8
0
62
5
10
7.250079
20
9.940413
30
0.0
11
7.249600
21
10.632497
31
0.0
0
LINE
8
0
62
5
10
7.249600
20
10.632497
30
0.0
11
8.016077
21
10.632497
31
0.0
0
ARC
8
0
62
5
10
9.449050
20
9.727990
30
0.0
40
0.524760
50
204.386841
51
324.320007
0
ARC
8
0
62
5
10
10.175203
20
9.919021
30
0.0
40
1.271244
50
161.294128
51
198.705872
0
ARC
8
0
62
5
10
9.449050
20
10.110050
30
0.0
40
0.524760
50
35.680031
51
155.613174
0
LINE
8
0
62
5
10
10.504559
20
9.207858
30
0.0
11
10.096858
21
9.207858
31
0.0
0
LINE
8
0
62
5
10
10.300709
20
10.592002
30
0.0
11
10.300709
21
9.250667
31
0.0
0
LINE
8
0
62
5
10
10.502414
20
10.634810
30
0.0
11
10.096858
21
10.634810
31
0.0
0
LINE
8
0
62
5
10
10.720211
20
10.634810
30
0.0
11
10.720211
21
9.207858
31
0.0
0
LINE
8
0
62
5
10
11.237991
20
10.634810
30
0.0
11
10.720211
21
10.634810
31
0.0
0
ARC
8
0
62
5
10
11.231115
20
10.278072
30
0.0
40
0.356804
50
271.095276
51
88.895920
0
LINE
8
0
62
5
10
10.767042
20
9.921334
30
0.0
11
11.237936
21
9.921334
31
0.0
0
LINE
8
0
62
5
10
11.594728
20
9.207858
30
0.0
11
11.258266
21
9.880680
31
0.0
0
ARC
8
0
62
5
10
12.282515
20
9.727990
30
0.0
40
0.524760
50
204.386841
51
324.320007
0
ARC
8
0
62
5
10
13.008667
20
9.919021
30
0.0
40
1.271244
50
161.294128
51
198.705872
0
ARC
8
0
62
5
10
12.282515
20
10.110050
30
0.0
40
0.524760
50
35.680031
51
155.613174
0
LINE
8
0
62
5
10
12.851465
20
9.207858
30
0.0
11
12.851465
21
10.634810
31
0.0
0
LINE
8
0
62
5
10
13.688271
20
9.207858
30
0.0
11
12.851465
21
9.207858
31
0.0
0
LINE
8
0
62
5
10
13.876913
20
9.207844
30
0.0
11
14.713718
21
9.207844
31
0.0
0
LINE
8
0
62
5
10
13.876403
20
9.921319
30
0.0
11
13.876913
21
9.207844
31
0.0
0
LINE
8
0
62
5
10
14.530252
20
9.921319
30
0.0
11
13.876403
21
9.921319
31
0.0
0
LINE
8
0
62
5
10
13.875894
20
10.634795
30
0.0
11
13.876372
21
9.942712
31
0.0
0
LINE
8
0
62
5
10
14.642370
20
10.634795
30
0.0
11
13.875894
21
10.634795
31
0.0
0
ARC
8
0
62
5
10
15.248307
20
9.618343
30
0.0
40
0.411341
50
210.522003
51
269.441071
0
LINE
8
0
62
5
10
15.389709
20
9.205604
30
0.0
11
15.244294
21
9.207023
31
0.0
0
ARC
8
0
62
5
10
15.393372
20
9.581098
30
0.0
40
0.375512
50
269.441071
51
357.350677
0
ARC
8
0
62
5
10
15.463037
20
9.536039
30
0.0
40
0.306699
50
5.182272
51
59.344830
0
LINE
8
0
62
5
10
15.057812
20
10.041080
30
0.0
11
15.619413
21
9.799876
31
0.0
0
ARC
8
0
62
5
10
15.214189
20
10.304919
30
0.0
40
0.306699
50
185.182404
51
239.344803
0
ARC
8
0
62
5
10
15.282351
20
10.260851
30
0.0
40
0.373966
50
91.261345
51
177.491959
0
LINE
8
0
62
5
10
15.419187
20
10.634879
30
0.0
11
15.274119
21
10.634727
31
0.0
0
ARC
8
0
62
5
10
15.406232
20
10.236754
30
0.0
40
0.398335
50
29.271709
51
88.136147
0
LINE
8
0
62
5
10
-4.286446
20
10.632544
30
0.0
11
-4.820888
21
9.207366
31
0.0
0
LINE
8
0
62
5
10
-3.752005
20
9.207366
30
0.0
11
-4.286446
21
10.632544
31
0.0
0
LINE
8
0
62
5
10
-3.909283
20
9.512761
30
0.0
11
-4.663609
21
9.512761
31
0.0
0
LINE
8
0
62
5
10
-3.609487
20
9.207366
30
0.0
11
-3.609487
21
10.632544
31
0.0
0
LINE
8
0
62
5
10
-2.773722
20
9.207366
30
0.0
11
-3.609487
21
9.207366
31
0.0
0
LINE
8
0
62
5
10
-2.600665
20
9.207366
30
0.0
11
-2.600665
21
10.632544
31
0.0
0
LINE
8
0
62
5
10
-1.764900
20
9.207366
30
0.0
11
-2.600665
21
9.207366
31
0.0
0
LINE
8
0
62
5
10
-0.722349
20
9.919954
30
0.0
11
-0.112373
21
9.919954
31
0.0
0
LINE
8
0
62
5
10
-0.764900
20
10.632544
30
0.0
11
-0.764900
21
9.207366
31
0.0
0
LINE
8
0
62
5
10
-0.000394
20
10.632544
30
0.0
11
-0.764900
21
10.632544
31
0.0
0
ARC
8
0
62
5
10
0.620555
20
9.628638
30
0.0
40
0.424051
50
196.004822
51
267.948395
0
ARC
8
0
62
5
10
1.415537
20
9.918914
30
0.0
40
1.269663
50
161.294113
51
198.705887
0
ARC
8
0
62
5
10
0.620555
20
10.208241
30
0.0
40
0.424313
50
16.128889
51
163.872177
0
ARC
8
0
62
5
10
-0.174427
20
9.918914
30
0.0
40
1.269663
50
341.293762
51
18.706244
0
ARC
8
0
62
5
10
0.620555
20
9.628638
30
0.0
40
0.424051
50
272.763977
51
343.994110
0
LINE
8
0
62
5
10
1.267263
20
9.614535
30
0.0
11
1.267263
21
10.632511
31
0.0
0
ARC
8
0
62
5
10
1.684617
20
9.621266
30
0.0
40
0.417408
50
180.923920
51
0.472477
0
LINE
8
0
62
5
10
2.102010
20
10.632511
30
0.0
11
2.102010
21
9.624708
31
0.0
0
LINE
8
0
62
5
10
2.315787
20
10.632511
30
0.0
11
2.315787
21
9.207335
31
0.0
0
LINE
8
0
62
5
10
2.832922
20
10.632511
30
0.0
11
2.315787
21
10.632511
31
0.0
0
ARC
8
0
62
5
10
2.826056
20
10.276217
30
0.0
40
0.356360
50
271.095276
51
88.895920
0
LINE
8
0
62
5
10
2.362559
20
9.919923
30
0.0
11
2.832867
21
9.919923
31
0.0
0
LINE
8
0
62
5
10
3.189217
20
9.207335
30
0.0
11
2.853172
21
9.879319
31
0.0
0
LINE
8
0
62
6
10
-9.991934
20
28.096218
30
0.0
11
-9.272862
21
28.096218
31
0.0
0
LINE
8
0
62
6
10
-9.272862
20
28.096218
30
0.0
11
-9.272861
21
22.606724
31
0.0
0
LINE
8
0
62
6
10
-12.604883
20
28.096218
30
0.0
11
-11.430281
21
28.096218
31
0.0
0
LINE
8
0
62
6
10
-11.430281
20
28.096218
30
0.0
11
-10.241932
21
24.194632
31
0.0
0
LINE
8
0
62
6
10
-18.830099
20
26.616970
30
0.0
11
-18.830097
21
24.086407
31
0.0
0
ARC
8
0
62
6
10
-18.050953
20
24.086407
30
0.0
40
0.779144
50
540.000000
51
301.886230
0
LINE
8
0
62
6
10
-17.271811
20
24.086407
30
0.0
11
-16.571741
21
24.086407
31
0.0
0
ARC
8
0
62
6
10
-18.050972
20
26.616970
30
0.0
40
1.479240
50
360.000000
51
495.000000
0
ARC
8
0
62
6
10
-14.595936
20
26.616972
30
0.0
40
1.479243
50
360.000000
51
495.000000
0
ARC
8
0
62
6
10
-14.595912
20
24.086409
30
0.0
40
0.779141
50
540.000000
51
301.886169
0
LINE
8
0
62
6
10
-15.375054
20
24.086407
30
0.0
11
-15.375055
21
26.616970
31
0.0
0
LINE
8
0
62
6
10
-13.116692
20
24.086409
30
0.0
11
-13.116693
21
26.616972
31
0.0
0
LINE
8
0
62
6
10
-6.180757
20
28.096220
30
0.0
11
-5.437615
21
28.096220
31
0.0
0
LINE
8
0
62
6
10
-5.437615
20
28.096220
30
0.0
11
-6.636209
21
22.606726
31
0.0
0
LINE
8
0
62
6
10
-8.745709
20
28.096220
30
0.0
11
-7.954627
21
28.096220
31
0.0
0
LINE
8
0
62
6
10
-7.954627
20
28.096220
30
0.0
11
-7.158563
21
23.977871
31
0.0
0
LINE
8
0
62
6
10
-4.167354
20
25.723028
30
0.0
11
-2.537297
21
25.723030
31
0.0
0
LINE
8
0
62
6
10
-2.537297
20
25.723030
30
0.0
11
-2.537296
21
25.099802
31
0.0
0
LINE
8
0
62
6
10
-4.167353
20
23.230009
30
0.0
11
-2.393460
21
23.230011
31
0.0
0
LINE
8
0
62
6
10
-2.393460
20
23.230011
30
0.0
11
-2.393460
21
22.606728
31
0.0
0
LINE
8
0
62
6
10
-4.910485
20
28.096220
30
0.0
11
-2.441414
21
28.096222
31
0.0
0
LINE
8
0
62
6
10
-2.441414
20
28.096222
30
0.0
11
-2.441414
21
27.472940
31
0.0
0
LINE
8
0
62
6
10
-1.914273
20
28.096222
30
0.0
11
-0.356715
21
28.096222
31
0.0
0
ARC
8
0
62
6
10
-0.529996
20
24.237255
30
0.0
40
1.443856
50
368.616516
51
404.506470
0
LINE
8
0
62
6
10
0.897563
20
24.453575
30
0.0
11
1.177439
21
22.606728
31
0.0
0
ARC
8
0
62
6
10
-0.356704
20
26.562033
30
0.0
40
0.880993
50
630.000000
51
303.424683
0
LINE
8
0
62
6
10
-1.171153
20
25.681038
30
0.0
11
-0.356703
21
25.681038
31
0.0
0
ARC
8
0
62
6
10
3.168519
20
26.616978
30
0.0
40
1.479243
50
360.000000
51
495.000000
0
ARC
8
0
62
6
10
3.168575
20
26.616957
30
0.0
40
0.779192
50
539.998474
51
603.182373
0
LINE
8
0
62
6
10
2.817041
20
25.921568
30
0.0
11
3.835897
21
25.406588
31
0.0
0
ARC
8
0
62
6
10
3.168508
20
24.086437
30
0.0
40
1.479258
50
314.999634
51
423.181519
0
LINE
8
0
62
6
10
1.689282
20
24.086412
30
0.0
11
2.389378
21
24.086412
31
0.0
0
ARC
8
0
62
6
10
3.168519
20
24.086414
30
0.0
40
0.779141
50
540.000000
51
301.886169
0
LINE
8
0
62
6
10
6.280756
20
24.476521
30
0.0
11
6.756376
21
26.688728
31
0.0
0
LINE
8
0
62
6
10
6.430100
20
28.096224
30
0.0
11
7.436898
21
28.096224
31
0.0
0
LINE
8
0
62
6
10
7.436898
20
28.096224
30
0.0
11
8.707407
21
22.606730
31
0.0
0
LINE
8
0
62
6
10
6.280756
20
24.476521
30
0.0
11
7.219731
21
24.476521
31
0.0
0
LINE
8
0
62
6
10
10.151418
20
22.606731
30
0.0
11
9.901418
21
22.606731
31
0.0
0
LINE
8
0
62
6
10
8.137794
20
28.096224
30
0.0
11
11.445878
21
28.096226
31
0.0
0
LINE
8
0
62
6
10
11.445878
20
28.096226
30
0.0
11
11.445879
21
27.472944
31
0.0
0
LINE
8
0
62
6
10
12.716067
20
28.096226
30
0.0
11
11.972970
21
28.096226
31
0.0
0
LINE
8
0
62
6
10
12.716069
20
22.606731
30
0.0
11
12.716067
21
28.096226
31
0.0
0
LINE
8
0
62
6
10
13.927997
20
26.616980
30
0.0
11
13.927998
21
24.086416
31
0.0
0
ARC
8
0
62
6
10
14.707115
20
26.616982
30
0.0
40
1.479243
50
360.000000
51
495.000000
0
LINE
8
0
62
6
10
16.186356
20
26.616982
30
0.0
11
16.186357
21
24.086418
31
0.0
0
LINE
8
0
62
6
10
16.698166
20
28.096228
30
0.0
11
17.872770
21
28.096228
31
0.0
0
LINE
8
0
62
6
10
17.872770
20
28.096228
30
0.0
11
19.061117
21
24.194641
31
0.0
0
LINE
8
0
62
6
10
19.311068
20
28.096228
30
0.0
11
20.030188
21
28.096228
31
0.0
0
LINE
8
0
62
6
10
20.030188
20
28.096228
30
0.0
11
20.030190
21
22.606733
31
0.0
0
ARC
8
0
62
6
10
14.707139
20
24.086418
30
0.0
40
0.779141
50
540.000000
51
301.886169
0
LINE
8
0
62
6
10
0.780062
20
-9.701764
30
0.0
11
-0.035339
21
-9.701764
31
0.0
0
LINE
8
0
62
6
10
0.372361
20
-9.294064
30
0.0
11
0.372361
21
-10.109465
31
0.0
0
LINE
8
0
62
6
10
-4.364773
20
-3.268962
30
0.0
11
-4.364773
21
-4.652634
31
0.0
0
LINE
8
0
62
6
10
-3.908658
20
-3.225682
30
0.0
11
-4.820888
21
-3.225682
31
0.0
0
ARC
8
0
62
6
10
-3.286936
20
-4.230805
30
0.0
40
0.424579
50
196.004822
51
267.948395
0
ARC
8
0
62
6
10
-2.490964
20
-3.940169
30
0.0
40
1.271244
50
161.294113
51
198.705887
0
ARC
8
0
62
6
10
-3.286936
20
-3.650481
30
0.0
40
0.424841
50
16.128889
51
163.872177
0
ARC
8
0
62
6
10
-4.082907
20
-3.940169
30
0.0
40
1.271244
50
341.293762
51
18.706244
0
ARC
8
0
62
6
10
-3.286936
20
-4.230805
30
0.0
40
0.424579
50
272.763977
51
343.994110
0
LINE
8
0
62
6
10
-2.603748
20
-3.225682
30
0.0
11
-2.603748
21
-4.652634
31
0.0
0
LINE
8
0
62
6
10
-2.085968
20
-3.225682
30
0.0
11
-2.603748
21
-3.225682
31
0.0
0
ARC
8
0
62
6
10
-2.107169
20
-3.582420
30
0.0
40
0.357367
50
273.401001
51
86.599007
0
LINE
8
0
62
6
10
-2.582344
20
-3.939158
30
0.0
11
-2.085968
21
-3.939158
31
0.0
0
ARC
8
0
62
6
10
-0.161606
20
-4.230805
30
0.0
40
0.424579
50
196.004822
51
267.948395
0
ARC
8
0
62
6
10
0.634365
20
-3.940169
30
0.0
40
1.271244
50
161.294113
51
198.705887
0
ARC
8
0
62
6
10
-0.161606
20
-3.650481
30
0.0
40
0.424841
50
16.128889
51
163.872177
0
ARC
8
0
62
6
10
-0.957578
20
-3.940169
30
0.0
40
1.271244
50
341.293762
51
18.706244
0
ARC
8
0
62
6
10
-0.161606
20
-4.230805
30
0.0
40
0.424579
50
272.763977
51
343.994110
0
LINE
8
0
62
6
10
0.600007
20
-3.939126
30
0.0
11
1.210743
21
-3.939126
31
0.0
0
LINE
8
0
62
6
10
0.557403
20
-3.225650
30
0.0
11
0.557403
21
-4.652602
31
0.0
0
LINE
8
0
62
6
10
1.322860
20
-3.225650
30
0.0
11
0.557403
21
-3.225650
31
0.0
0
ARC
8
0
62
6
10
2.802137
20
-3.689570
30
0.0
40
0.469008
50
48.941696
51
146.027985
0
ARC
8
0
62
6
10
2.897627
20
-3.578853
30
0.0
40
0.322804
50
0.000001
51
48.814072
0
ARC
8
0
62
6
10
2.864107
20
-3.578853
30
0.0
40
0.356324
50
279.088104
51
360.000000
0
ARC
8
0
62
6
10
2.883714
20
-4.286470
30
0.0
40
0.357652
50
19.434425
51
84.114273
0
ARC
8
0
62
6
10
2.905145
20
-4.281353
30
0.0
40
0.335747
50
307.790497
51
19.827772
0
ARC
8
0
62
6
10
2.807400
20
-4.130105
30
0.0
40
0.515399
50
216.483002
51
306.074036
0
LINE
8
0
62
6
10
3.566187
20
-3.225682
30
0.0
11
3.566187
21
-4.652634
31
0.0
0
LINE
8
0
62
6
10
3.964206
20
-3.225682
30
0.0
11
3.566187
21
-3.225682
31
0.0
0
ARC
8
0
62
6
10
3.914980
20
-3.748129
30
0.0
40
0.524760
50
24.386383
51
84.617409
0
ARC
8
0
62
6
10
3.188827
20
-3.939158
30
0.0
40
1.271244
50
341.294312
51
18.705687
0
ARC
8
0
62
6
10
3.914980
20
-4.130188
30
0.0
40
0.524760
50
275.382446
51
335.613617
0
LINE
8
0
62
6
10
3.601861
20
-4.652634
30
0.0
11
3.964204
21
-4.652634
31
0.0
0
LINE
8
0
62
6
10
6.268627
20
-3.937383
30
0.0
11
5.753283
21
-3.937383
31
0.0
0
ARC
8
0
62
6
10
6.268514
20
-4.294121
30
0.0
40
0.356738
50
270.000000
51
89.981880
0
LINE
8
0
62
6
10
5.710474
20
-4.650859
30
0.0
11
6.268514
21
-4.650859
31
0.0
0
LINE
8
0
62
6
10
5.710474
20
-3.225682
30
0.0
11
5.710474
21
-4.650859
31
0.0
0
LINE
8
0
62
6
10
6.204811
20
-3.225682
30
0.0
11
5.710474
21
-3.225682
31
0.0
0
ARC
8
0
62
6
10
6.201960
20
-3.583850
30
0.0
40
0.358179
50
296.191833
51
89.543999
0
ARC
8
0
62
6
10
7.246974
20
-4.230805
30
0.0
40
0.424579
50
196.004822
51
267.948395
0
ARC
8
0
62
6
10
8.042946
20
-3.940169
30
0.0
40
1.271244
50
161.294113
51
198.705887
0
ARC
8
0
62
6
10
7.246974
20
-3.650481
30
0.0
40
0.424841
50
16.128889
51
163.872177
0
ARC
8
0
62
6
10
6.451003
20
-3.940169
30
0.0
40
1.271244
50
341.293762
51
18.706244
0
ARC
8
0
62
6
10
7.246974
20
-4.230805
30
0.0
40
0.424579
50
272.763977
51
343.994110
0
LINE
8
0
62
6
10
8.781237
20
-4.652634
30
0.0
11
7.894487
21
-3.225682
31
0.0
0
LINE
8
0
62
6
10
8.720081
20
-3.225682
30
0.0
11
7.833333
21
-4.652634
31
0.0
0
LINE
8
0
62
6
10
-10.487986
20
-14.532372
30
0.0
11
-10.487986
21
-15.959323
31
0.0
0
LINE
8
0
62
6
10
-9.970205
20
-14.532372
30
0.0
11
-10.487986
21
-14.532372
31
0.0
0
ARC
8
0
62
6
10
-9.991405
20
-14.889109
30
0.0
40
0.357367
50
273.401001
51
86.599007
0
LINE
8
0
62
6
10
-10.466581
20
-15.245848
30
0.0
11
-9.970205
21
-15.245848
31
0.0
0
LINE
8
0
62
6
10
-9.399425
20
-14.532372
30
0.0
11
-9.399425
21
-15.959323
31
0.0
0
LINE
8
0
62
6
10
-8.881646
20
-14.532372
30
0.0
11
-9.399425
21
-14.532372
31
0.0
0
ARC
8
0
62
6
10
-8.888520
20
-14.889109
30
0.0
40
0.356804
50
271.095276
51
88.895920
0
LINE
8
0
62
6
10
-9.352594
20
-15.245848
30
0.0
11
-8.881701
21
-15.245848
31
0.0
0
LINE
8
0
62
6
10
-8.524907
20
-15.959323
30
0.0
11
-8.861370
21
-15.286502
31
0.0
0
LINE
8
0
62
6
10
-8.366843
20
-15.959338
30
0.0
11
-7.530038
21
-15.959338
31
0.0
0
LINE
8
0
62
6
10
-8.367352
20
-15.245862
30
0.0
11
-8.366843
21
-15.959338
31
0.0
0
LINE
8
0
62
6
10
-7.713503
20
-15.245862
30
0.0
11
-8.367352
21
-15.245862
31
0.0
0
LINE
8
0
62
6
10
-8.367862
20
-14.532387
30
0.0
11
-8.367383
21
-15.224470
31
0.0
0
LINE
8
0
62
6
10
-7.601385
20
-14.532387
30
0.0
11
-8.367862
21
-14.532387
31
0.0
0
ARC
8
0
62
6
10
-6.995448
20
-15.548839
30
0.0
40
0.411341
50
210.522003
51
269.441071
0
LINE
8
0
62
6
10
-6.854047
20
-15.961578
30
0.0
11
-6.999461
21
-15.960160
31
0.0
0
ARC
8
0
62
6
10
-6.850384
20
-15.586083
30
0.0
40
0.375512
50
269.441071
51
357.350677
0
ARC
8
0
62
6
10
-6.780719
20
-15.631144
30
0.0
40
0.306699
50
5.182272
51
59.344830
0
LINE
8
0
62
6
10
-7.185943
20
-15.126101
30
0.0
11
-6.624342
21
-15.367305
31
0.0
0
ARC
8
0
62
6
10
-7.029567
20
-14.862264
30
0.0
40
0.306699
50
185.182404
51
239.344803
0
ARC
8
0
62
6
10
-6.961404
20
-14.906330
30
0.0
40
0.373966
50
91.261345
51
177.491959
0
LINE
8
0
62
6
10
-6.824569
20
-14.532302
30
0.0
11
-6.969636
21
-14.532455
31
0.0
0
ARC
8
0
62
6
10
-6.837524
20
-14.930427
30
0.0
40
0.398335
50
29.271709
51
88.136147
0
ARC
8
0
62
6
10
-5.767825
20
-15.548839
30
0.0
40
0.411341
50
210.522003
51
269.441071
0
LINE
8
0
62
6
10
-5.626424
20
-15.961578
30
0.0
11
-5.771838
21
-15.960160
31
0.0
0
ARC
8
0
62
6
10
-5.622761
20
-15.586083
30
0.0
40
0.375512
50
269.441071
51
357.350677
0
ARC
8
0
62
6
10
-5.553096
20
-15.631144
30
0.0
40
0.306699
50
5.182272
51
59.344830
0
LINE
8
0
62
6
10
-5.958321
20
-15.126101
30
0.0
11
-5.396719
21
-15.367305
31
0.0
0
ARC
8
0
62
6
10
-5.801944
20
-14.862264
30
0.0
40
0.306699
50
185.182404
51
239.344803
0
ARC
8
0
62
6
10
-5.733781
20
-14.906330
30
0.0
40
0.373966
50
91.261345
51
177.491959
0
LINE
8
0
62
6
10
-5.596945
20
-14.532302
30
0.0
11
-5.742013
21
-14.532455
31
0.0
0
ARC
8
0
62
6
10
-5.609901
20
-14.930427
30
0.0
40
0.398335
50
29.271709
51
88.136147
0
ARC
8
0
62
6
10
-9.942895
20
9.727499
30
0.0
40
0.524760
50
204.386841
51
324.320007
0
ARC
8
0
62
6
10
-9.216742
20
9.918529
30
0.0
40
1.271244
50
161.294128
51
198.705872
0
ARC
8
0
62
6
10
-9.942895
20
10.109557
30
0.0
40
0.524760
50
35.680031
51
155.613174
0
LINE
8
0
62
6
10
-9.373944
20
9.207366
30
0.0
11
-9.373944
21
10.634317
31
0.0
0
LINE
8
0
62
6
10
-8.537139
20
9.207366
30
0.0
11
-9.373944
21
9.207366
31
0.0
0
LINE
8
0
62
6
10
-7.877307
20
9.207366
30
0.0
11
-8.285007
21
9.207366
31
0.0
0
LINE
8
0
62
6
10
-8.081158
20
10.591509
30
0.0
11
-8.081158
21
9.250175
31
0.0
0
LINE
8
0
62
6
10
-7.879453
20
10.634317
30
0.0
11
-8.285007
21
10.634317
31
0.0
0
ARC
8
0
62
6
10
-7.187912
20
9.727499
30
0.0
40
0.524760
50
204.386841
51
324.320007
0
ARC
8
0
62
6
10
-6.461760
20
9.918529
30
0.0
40
1.271244
50
161.294128
51
198.705872
0
ARC
8
0
62
6
10
-7.187912
20
10.109557
30
0.0
40
0.524760
50
35.680031
51
155.613174
0
LINE
8
0
62
6
10
-6.618961
20
9.207366
30
0.0
11
-6.618961
21
10.634317
31
0.0
0
LINE
8
0
62
6
10
-6.238624
20
10.083169
30
0.0
11
-5.820888
21
9.207366
31
0.0
0
LINE
8
0
62
6
10
-5.820888
20
10.634317
30
0.0
11
-6.577100
21
9.748907
31
0.0
0
LINE
8
0
62
6
10
-10.031870
20
2.056348
30
0.0
11
-10.031870
21
0.672677
31
0.0
0
LINE
8
0
62
6
10
-9.575755
20
2.099628
30
0.0
11
-10.487986
21
2.099628
31
0.0
0
LINE
8
0
62
6
10
-8.983700
20
1.423172
30
0.0
11
-9.433061
21
2.099628
31
0.0
0
LINE
8
0
62
6
10
-8.959108
20
1.386152
30
0.0
11
-8.959108
21
0.672677
31
0.0
0
LINE
8
0
62
6
10
-8.485157
20
2.099628
30
0.0
11
-8.959108
21
1.386152
31
0.0
0
LINE
8
0
62
6
10
-8.306787
20
2.099628
30
0.0
11
-8.306787
21
0.672677
31
0.0
0
LINE
8
0
62
6
10
-7.789008
20
2.099628
30
0.0
11
-8.306787
21
2.099628
31
0.0
0
ARC
8
0
62
6
10
-7.810209
20
1.742890
30
0.0
40
0.357367
50
273.401001
51
86.599007
0
LINE
8
0
62
6
10
-8.285383
20
1.386152
30
0.0
11
-7.789008
21
1.386152
31
0.0
0
LINE
8
0
62
6
10
-7.274206
20
0.672662
30
0.0
11
-6.437401
21
0.672662
31
0.0
0
LINE
8
0
62
6
10
-7.274715
20
1.386137
30
0.0
11
-7.274206
21
0.672662
31
0.0
0
LINE
8
0
62
6
10
-6.620866
20
1.386137
30
0.0
11
-7.274715
21
1.386137
31
0.0
0
LINE
8
0
62
6
10
-7.275225
20
2.099613
30
0.0
11
-7.274746
21
1.407530
31
0.0
0
LINE
8
0
62
6
10
-6.508748
20
2.099613
30
0.0
11
-7.275225
21
2.099613
31
0.0
0
LINE
8
0
62
6
10
-10.487986
20
-0.672372
30
0.0
11
-10.487986
21
-2.099323
31
0.0
0
LINE
8
0
62
6
10
-9.970205
20
-0.672372
30
0.0
11
-10.487986
21
-0.672372
31
0.0
0
ARC
8
0
62
6
10
-9.991405
20
-1.029110
30
0.0
40
0.357367
50
273.401001
51
86.599007
0
LINE
8
0
62
6
10
-10.466581
20
-1.385847
30
0.0
11
-9.970205
21
-1.385847
31
0.0
0
LINE
8
0
62
6
10
-9.399425
20
-0.672372
30
0.0
11
-9.399425
21
-2.099323
31
0.0
0
LINE
8
0
62
6
10
-8.881646
20
-0.672372
30
0.0
11
-9.399425
21
-0.672372
31
0.0
0
ARC
8
0
62
6
10
-8.888520
20
-1.029109
30
0.0
40
0.356804
50
271.095276
51
88.895920
0
LINE
8
0
62
6
10
-9.352594
20
-1.385847
30
0.0
11
-8.881701
21
-1.385847
31
0.0
0
LINE
8
0
62
6
10
-8.524907
20
-2.099323
30
0.0
11
-8.861370
21
-1.426502
31
0.0
0
LINE
8
0
62
6
10
-8.366843
20
-2.099338
30
0.0
11
-7.530038
21
-2.099338
31
0.0
0
LINE
8
0
62
6
10
-8.367352
20
-1.385862
30
0.0
11
-8.366843
21
-2.099338
31
0.0
0
LINE
8
0
62
6
10
-7.713503
20
-1.385862
30
0.0
11
-8.367352
21
-1.385862
31
0.0
0
LINE
8
0
62
6
10
-8.367862
20
-0.672387
30
0.0
11
-8.367383
21
-1.364470
31
0.0
0
LINE
8
0
62
6
10
-7.601385
20
-0.672387
30
0.0
11
-8.367862
21
-0.672387
31
0.0
0
ARC
8
0
62
6
10
-6.995448
20
-1.688838
30
0.0
40
0.411341
50
210.522003
51
269.441071
0
LINE
8
0
62
6
10
-6.854047
20
-2.101578
30
0.0
11
-6.999461
21
-2.100159
31
0.0
0
ARC
8
0
62
6
10
-6.850384
20
-1.726084
30
0.0
40
0.375512
50
269.441071
51
357.350677
0
ARC
8
0
62
6
10
-6.780719
20
-1.771143
30
0.0
40
0.306699
50
5.182272
51
59.344830
0
LINE
8
0
62
6
10
-7.185943
20
-1.266101
30
0.0
11
-6.624342
21
-1.507305
31
0.0
0
ARC
8
0
62
6
10
-7.029567
20
-1.002263
30
0.0
40
0.306699
50
185.182404
51
239.344803
0
ARC
8
0
62
6
10
-6.961404
20
-1.046331
30
0.0
40
0.373966
50
91.261345
51
177.491959
0
LINE
8
0
62
6
10
-6.824569
20
-0.672303
30
0.0
11
-6.969636
21
-0.672456
31
0.0
0
ARC
8
0
62
6
10
-6.837524
20
-1.070427
30
0.0
40
0.398335
50
29.271709
51
88.136147
0
ARC
8
0
62
6
10
-5.767825
20
-1.688838
30
0.0
40
0.411341
50
210.522003
51
269.441071
0
LINE
8
0
62
6
10
-5.626424
20
-2.101578
30
0.0
11
-5.771838
21
-2.100159
31
0.0
0
ARC
8
0
62
6
10
-5.622761
20
-1.726084
30
0.0
40
0.375512
50
269.441071
51
357.350677
0
ARC
8
0
62
6
10
-5.553096
20
-1.771143
30
0.0
40
0.306699
50
5.182272
51
59.344830
0
LINE
8
0
62
6
10
-5.958321
20
-1.266101
30
0.0
11
-5.396719
21
-1.507305
31
0.0
0
ARC
8
0
62
6
10
-5.801944
20
-1.002263
30
0.0
40
0.306699
50
185.182404
51
239.344803
0
ARC
8
0
62
6
10
-5.733781
20
-1.046331
30
0.0
40
0.373966
50
91.261345
51
177.491959
0
LINE
8
0
62
6
10
-5.596945
20
-0.672303
30
0.0
11
-5.742013
21
-0.672456
31
0.0
0
ARC
8
0
62
6
10
-5.609901
20
-1.070427
30
0.0
40
0.398335
50
29.271709
51
88.136147
0
LINE
8
0
62
6
10
-10.031870
20
13.144348
30
0.0
11
-10.031870
21
11.760676
31
0.0
0
LINE
8
0
62
6
10
-9.575755
20
13.187628
30
0.0
11
-10.487986
21
13.187628
31
0.0
0
LINE
8
0
62
6
10
-8.983700
20
12.511171
30
0.0
11
-9.433061
21
13.187628
31
0.0
0
LINE
8
0
62
6
10
-8.959108
20
12.474153
30
0.0
11
-8.959108
21
11.760676
31
0.0
0
LINE
8
0
62
6
10
-8.485157
20
13.187628
30
0.0
11
-8.959108
21
12.474153
31
0.0
0
LINE
8
0
62
6
10
-8.306787
20
13.187628
30
0.0
11
-8.306787
21
11.760676
31
0.0
0
LINE
8
0
62
6
10
-7.789008
20
13.187628
30
0.0
11
-8.306787
21
13.187628
31
0.0
0
ARC
8
0
62
6
10
-7.810209
20
12.830891
30
0.0
40
0.357367
50
273.401001
51
86.599007
0
LINE
8
0
62
6
10
-8.285383
20
12.474153
30
0.0
11
-7.789008
21
12.474153
31
0.0
0
LINE
8
0
62
6
10
-7.274206
20
11.760661
30
0.0
11
-6.437401
21
11.760661
31
0.0
0
LINE
8
0
62
6
10
-7.274715
20
12.474137
30
0.0
11
-7.274206
21
11.760661
31
0.0
0
LINE
8
0
62
6
10
-6.620866
20
12.474137
30
0.0
11
-7.274715
21
12.474137
31
0.0
0
LINE
8
0
62
6
10
-7.275225
20
13.187613
30
0.0
11
-7.274746
21
12.495529
31
0.0
0
LINE
8
0
62
6
10
-6.508748
20
13.187613
30
0.0
11
-7.275225
21
13.187613
31
0.0
0
LINE
8
0
62
6
10
-10.031870
20
-9.031651
30
0.0
11
-10.031870
21
-10.415323
31
0.0
0
LINE
8
0
62
6
10
-9.575755
20
-8.988372
30
0.0
11
-10.487986
21
-8.988372
31
0.0
0
LINE
8
0
62
6
10
-8.983700
20
-9.664828
30
0.0
11
-9.433061
21
-8.988372
31
0.0
0
LINE
8
0
62
6
10
-8.959108
20
-9.701848
30
0.0
11
-8.959108
21
-10.415323
31
0.0
0
LINE
8
0
62
6
10
-8.485157
20
-8.988372
30
0.0
11
-8.959108
21
-9.701848
31
0.0
0
LINE
8
0
62
6
10
-8.306787
20
-8.988372
30
0.0
11
-8.306787
21
-10.415323
31
0.0
0
LINE
8
0
62
6
10
-7.789008
20
-8.988372
30
0.0
11
-8.306787
21
-8.988372
31
0.0
0
ARC
8
0
62
6
10
-7.810209
20
-9.345110
30
0.0
40
0.357367
50
273.401001
51
86.599007
0
LINE
8
0
62
6
10
-8.285383
20
-9.701848
30
0.0
11
-7.789008
21
-9.701848
31
0.0
0
LINE
8
0
62
6
10
-7.274206
20
-10.415339
30
0.0
11
-6.437401
21
-10.415339
31
0.0
0
LINE
8
0
62
6
10
-7.274715
20
-9.701862
30
0.0
11
-7.274206
21
-10.415339
31
0.0
0
LINE
8
0
62
6
10
-6.620866
20
-9.701862
30
0.0
11
-7.274715
21
-9.701862
31
0.0
0
LINE
8
0
62
6
10
-7.275225
20
-8.988386
30
0.0
11
-7.274746
21
-9.680470
31
0.0
0
LINE
8
0
62
6
10
-6.508748
20
-8.988386
30
0.0
11
-7.275225
21
-8.988386
31
0.0
0
ARC
8
0
62
6
10
-9.942895
20
6.736809
30
0.0
40
0.524760
50
204.386841
51
324.320007
0
ARC
8
0
62
6
10
-9.216742
20
6.927838
30
0.0
40
1.271244
50
161.294128
51
198.705872
0
ARC
8
0
62
6
10
-9.942895
20
7.118868
30
0.0
40
0.524760
50
35.680031
51
155.613174
0
LINE
8
0
62
6
10
-9.373944
20
6.216677
30
0.0
11
-9.373944
21
7.643629
31
0.0
0
LINE
8
0
62
6
10
-8.537139
20
6.216677
30
0.0
11
-9.373944
21
6.216677
31
0.0
0
LINE
8
0
62
6
10
-7.877307
20
6.216677
30
0.0
11
-8.285007
21
6.216677
31
0.0
0
LINE
8
0
62
6
10
-8.081158
20
7.600820
30
0.0
11
-8.081158
21
6.259485
31
0.0
0
LINE
8
0
62
6
10
-7.879453
20
7.643628
30
0.0
11
-8.285007
21
7.643628
31
0.0
0
ARC
8
0
62
6
10
-7.187912
20
6.736809
30
0.0
40
0.524760
50
204.386841
51
324.320007
0
ARC
8
0
62
6
10
-6.461760
20
6.927838
30
0.0
40
1.271244
50
161.294128
51
198.705872
0
ARC
8
0
62
6
10
-7.187912
20
7.118868
30
0.0
40
0.524760
50
35.680031
51
155.613174
0
LINE
8
0
62
6
10
-6.618961
20
6.216677
30
0.0
11
-6.618961
21
7.643629
31
0.0
0
LINE
8
0
62
6
10
-6.238624
20
7.092480
30
0.0
11
-5.820888
21
6.216677
31
0.0
0
LINE
8
0
62
6
10
-5.820888
20
7.643629
30
0.0
11
-6.577100
21
6.758217
31
0.0
0
ARC
8
0
62
6
10
-9.942895
20
-7.123191
30
0.0
40
0.524760
50
204.386841
51
324.320007
0
ARC
8
0
62
6
10
-9.216742
20
-6.932161
30
0.0
40
1.271244
50
161.294128
51
198.705872
0
ARC
8
0
62
6
10
-9.942895
20
-6.741132
30
0.0
40
0.524760
50
35.680031
51
155.613174
0
LINE
8
0
62
6
10
-9.373944
20
-7.643323
30
0.0
11
-9.373944
21
-6.216372
31
0.0
0
LINE
8
0
62
6
10
-8.537139
20
-7.643323
30
0.0
11
-9.373944
21
-7.643323
31
0.0
0
LINE
8
0
62
6
10
-7.877307
20
-7.643323
30
0.0
11
-8.285007
21
-7.643323
31
0.0
0
LINE
8
0
62
6
10
-8.081158
20
-6.259180
30
0.0
11
-8.081158
21
-7.600515
31
0.0
0
LINE
8
0
62
6
10
-7.879453
20
-6.216372
30
0.0
11
-8.285007
21
-6.216372
31
0.0
0
ARC
8
0
62
6
10
-7.187912
20
-7.123191
30
0.0
40
0.524760
50
204.386841
51
324.320007
0
ARC
8
0
62
6
10
-6.461760
20
-6.932161
30
0.0
40
1.271244
50
161.294128
51
198.705872
0
ARC
8
0
62
6
10
-7.187912
20
-6.741132
30
0.0
40
0.524760
50
35.680031
51
155.613174
0
LINE
8
0
62
6
10
-6.618961
20
-7.643323
30
0.0
11
-6.618961
21
-6.216372
31
0.0
0
LINE
8
0
62
6
10
-6.238624
20
-6.767520
30
0.0
11
-5.820888
21
-7.643323
31
0.0
0
LINE
8
0
62
6
10
-5.820888
20
-6.216372
30
0.0
11
-6.577100
21
-7.101783
31
0.0
0
ARC
8
0
62
6
10
-9.942895
20
-4.132502
30
0.0
40
0.524760
50
204.386841
51
324.320007
0
ARC
8
0
62
6
10
-9.216742
20
-3.941472
30
0.0
40
1.271244
50
161.294128
51
198.705872
0
ARC
8
0
62
6
10
-9.942895
20
-3.750442
30
0.0
40
0.524760
50
35.680031
51
155.613174
0
LINE
8
0
62
6
10
-9.373944
20
-4.652634
30
0.0
11
-9.373944
21
-3.225682
31
0.0
0
LINE
8
0
62
6
10
-8.537139
20
-4.652634
30
0.0
11
-9.373944
21
-4.652634
31
0.0
0
LINE
8
0
62
6
10
-7.877307
20
-4.652634
30
0.0
11
-8.285007
21
-4.652634
31
0.0
0
LINE
8
0
62
6
10
-8.081158
20
-3.268491
30
0.0
11
-8.081158
21
-4.609825
31
0.0
0
LINE
8
0
62
6
10
-7.879453
20
-3.225682
30
0.0
11
-8.285007
21
-3.225682
31
0.0
0
ARC
8
0
62
6
10
-7.187912
20
-4.132502
30
0.0
40
0.524760
50
204.386841
51
324.320007
0
ARC
8
0
62
6
10
-6.461760
20
-3.941472
30
0.0
40
1.271244
50
161.294128
51
198.705872
0
ARC
8
0
62
6
10
-7.187912
20
-3.750442
30
0.0
40
0.524760
50
35.680031
51
155.613174
0
LINE
8
0
62
6
10
-6.618961
20
-4.652634
30
0.0
11
-6.618961
21
-3.225682
31
0.0
0
LINE
8
0
62
6
10
-6.238624
20
-3.776831
30
0.0
11
-5.820888
21
-4.652634
31
0.0
0
LINE
8
0
62
6
10
-5.820888
20
-3.225682
30
0.0
11
-6.577100
21
-4.111093
31
0.0
0
LINE
8
0
62
6
10
-10.031870
20
-11.803652
30
0.0
11
-10.031870
21
-13.187324
31
0.0
0
LINE
8
0
62
6
10
-9.575755
20
-11.760371
30
0.0
11
-10.487986
21
-11.760371
31
0.0
0
LINE
8
0
62
6
10
-8.983700
20
-12.436828
30
0.0
11
-9.433061
21
-11.760371
31
0.0
0
LINE
8
0
62
6
10
-8.959108
20
-12.473847
30
0.0
11
-8.959108
21
-13.187324
31
0.0
0
LINE
8
0
62
6
10
-8.485157
20
-11.760371
30
0.0
11
-8.959108
21
-12.473847
31
0.0
0
LINE
8
0
62
6
10
-8.306787
20
-11.760371
30
0.0
11
-8.306787
21
-13.187324
31
0.0
0
LINE
8
0
62
6
10
-7.789008
20
-11.760371
30
0.0
11
-8.306787
21
-11.760371
31
0.0
0
ARC
8
0
62
6
10
-7.810209
20
-12.117109
30
0.0
40
0.357367
50
273.401001
51
86.599007
0
LINE
8
0
62
6
10
-8.285383
20
-12.473847
30
0.0
11
-7.789008
21
-12.473847
31
0.0
0
LINE
8
0
62
6
10
-7.274206
20
-13.187338
30
0.0
11
-6.437401
21
-13.187338
31
0.0
0
LINE
8
0
62
6
10
-7.274715
20
-12.473863
30
0.0
11
-7.274206
21
-13.187338
31
0.0
0
LINE
8
0
62
6
10
-6.620866
20
-12.473863
30
0.0
11
-7.274715
21
-12.473863
31
0.0
0
LINE
8
0
62
6
10
-7.275225
20
-11.760386
30
0.0
11
-7.274746
21
-12.452470
31
0.0
0
LINE
8
0
62
6
10
-6.508748
20
-11.760386
30
0.0
11
-7.275225
21
-11.760386
31
0.0
0
LINE
8
0
62
6
10
-2.524726
20
13.144431
30
0.0
11
-2.524726
21
11.760759
31
0.0
0
LINE
8
0
62
6
10
-2.068611
20
13.187713
30
0.0
11
-2.980841
21
13.187713
31
0.0
0
LINE
8
0
62
6
10
-1.925916
20
11.760759
30
0.0
11
-1.925916
21
13.187713
31
0.0
0
LINE
8
0
62
6
10
-1.103992
20
12.474236
30
0.0
11
-1.883107
21
12.474236
31
0.0
0
LINE
8
0
62
6
10
-1.059552
20
13.187713
30
0.0
11
-1.059552
21
11.760759
31
0.0
0
LINE
8
0
62
6
10
-0.901488
20
11.760745
30
0.0
11
-0.064682
21
11.760745
31
0.0
0
LINE
8
0
62
6
10
-0.901997
20
12.474221
30
0.0
11
-0.901488
21
11.760745
31
0.0
0
LINE
8
0
62
6
10
-0.248148
20
12.474221
30
0.0
11
-0.901997
21
12.474221
31
0.0
0
LINE
8
0
62
6
10
-0.902507
20
13.187697
30
0.0
11
-0.902028
21
12.495613
31
0.0
0
LINE
8
0
62
6
10
-0.136030
20
13.187697
30
0.0
11
-0.902507
21
13.187697
31
0.0
0
LINE
8
0
62
6
10
0.025441
20
13.187711
30
0.0
11
0.025441
21
11.760759
31
0.0
0
LINE
8
0
62
6
10
0.901658
20
11.760759
30
0.0
11
0.025441
21
13.187711
31
0.0
0
LINE
8
0
62
6
10
0.901658
20
13.187711
30
0.0
11
0.901658
21
11.760759
31
0.0
0
LINE
8
0
62
6
10
-10.031870
20
15.916348
30
0.0
11
-10.031870
21
14.532676
31
0.0
0
LINE
8
0
62
6
10
-9.575755
20
15.959628
30
0.0
11
-10.487986
21
15.959628
31
0.0
0
LINE
8
0
62
6
10
-8.983700
20
15.283171
30
0.0
11
-9.433061
21
15.959628
31
0.0
0
LINE
8
0
62
6
10
-8.959108
20
15.246152
30
0.0
11
-8.959108
21
14.532676
31
0.0
0
LINE
8
0
62
6
10
-8.485157
20
15.959628
30
0.0
11
-8.959108
21
15.246152
31
0.0
0
LINE
8
0
62
6
10
-8.306787
20
15.959628
30
0.0
11
-8.306787
21
14.532676
31
0.0
0
LINE
8
0
62
6
10
-7.789008
20
15.959628
30
0.0
11
-8.306787
21
15.959628
31
0.0
0
ARC
8
0
62
6
10
-7.810209
20
15.602890
30
0.0
40
0.357367
50
273.401001
51
86.599007
0
LINE
8
0
62
6
10
-8.285383
20
15.246152
30
0.0
11
-7.789008
21
15.246152
31
0.0
0
LINE
8
0
62
6
10
-7.274206
20
14.532661
30
0.0
11
-6.437401
21
14.532661
31
0.0
0
LINE
8
0
62
6
10
-7.274715
20
15.246138
30
0.0
11
-7.274206
21
14.532661
31
0.0
0
LINE
8
0
62
6
10
-6.620866
20
15.246138
30
0.0
11
-7.274715
21
15.246138
31
0.0
0
LINE
8
0
62
6
10
-7.275225
20
15.959614
30
0.0
11
-7.274746
21
15.267530
31
0.0
0
LINE
8
0
62
6
10
-6.508748
20
15.959614
30
0.0
11
-7.275225
21
15.959614
31
0.0
0
LINE
8
0
62
6
10
-10.031870
20
4.828348
30
0.0
11
-10.031870
21
3.444677
31
0.0
0
LINE
8
0
62
6
10
-9.575755
20
4.871628
30
0.0
11
-10.487986
21
4.871628
31
0.0
0
LINE
8
0
62
6
10
-8.983700
20
4.195172
30
0.0
11
-9.433061
21
4.871628
31
0.0
0
LINE
8
0
62
6
10
-8.959108
20
4.158152
30
0.0
11
-8.959108
21
3.444676
31
0.0
0
LINE
8
0
62
6
10
-8.485157
20
4.871628
30
0.0
11
-8.959108
21
4.158152
31
0.0
0
LINE
8
0
62
6
10
-8.306787
20
4.871628
30
0.0
11
-8.306787
21
3.444676
31
0.0
0
LINE
8
0
62
6
10
-7.789008
20
4.871628
30
0.0
11
-8.306787
21
4.871628
31
0.0
0
ARC
8
0
62
6
10
-7.810209
20
4.514890
30
0.0
40
0.357367
50
273.401001
51
86.599007
0
LINE
8
0
62
6
10
-8.285383
20
4.158152
30
0.0
11
-7.789008
21
4.158152
31
0.0
0
LINE
8
0
62
6
10
-7.274206
20
3.444662
30
0.0
11
-6.437401
21
3.444662
31
0.0
0
LINE
8
0
62
6
10
-7.274715
20
4.158137
30
0.0
11
-7.274206
21
3.444662
31
0.0
0
LINE
8
0
62
6
10
-6.620866
20
4.158137
30
0.0
11
-7.274715
21
4.158137
31
0.0
0
LINE
8
0
62
6
10
-7.275225
20
4.871613
30
0.0
11
-7.274746
21
4.179530
31
0.0
0
LINE
8
0
62
6
10
-6.508748
20
4.871613
30
0.0
11
-7.275225
21
4.871613
31
0.0
0
LINE
8
0
62
6
10
17.417290
20
26.159258
30
0.0
11
17.417290
21
22.606733
31
0.0
0
LINE
8
0
62
6
10
10.151417
20
27.222942
30
0.0
11
10.151418
21
22.606731
31
0.0
0
LINE
8
0
62
6
10
6.093014
20
23.603294
30
0.0
11
5.878755
21
22.606730
31
0.0
0
LINE
8
0
62
6
10
-1.171153
20
27.193026
30
0.0
11
-1.171153
21
25.681038
31
0.0
0
LINE
8
0
62
6
10
-1.171153
20
24.777861
30
0.0
11
-1.171152
21
22.606728
31
0.0
0
ARC
8
0
62
6
10
-0.356706
20
26.562099
30
0.0
40
1.534125
50
308.383118
51
315.000000
0
LINE
8
0
62
6
10
-4.167353
20
24.849800
30
0.0
11
-4.167353
21
23.230009
31
0.0
0
LINE
8
0
62
6
10
-4.167354
20
27.222937
30
0.0
11
-4.167354
21
25.723028
31
0.0
0
LINE
8
0
62
6
10
-11.885761
20
26.159248
30
0.0
11
-11.885760
21
22.606724
31
0.0
0
ARC
8
0
62
6
10
-18.050955
20
26.616970
30
0.0
40
0.779144
50
508.113831
51
540.000000
0
ARC
8
0
62
6
10
-18.050978
20
24.086407
30
0.0
40
1.479237
50
308.136475
51
315.000000
0
ARC
8
0
62
6
10
3.168527
20
26.616978
30
0.0
40
0.779144
50
508.113831
51
540.000000
0
ARC
8
0
62
6
10
3.168517
20
24.086414
30
0.0
40
1.479234
50
308.136444
51
315.000000
0
ARC
8
0
62
6
10
14.707138
20
26.616982
30
0.0
40
0.779141
50
508.113831
51
540.000000
0
ARC
8
0
62
6
10
14.707116
20
24.086418
30
0.0
40
1.479243
50
308.136475
51
315.000000
0
ARC
8
0
62
6
10
-14.595913
20
26.616972
30
0.0
40
0.779141
50
508.113831
51
540.000000
0
ARC
8
0
62
6
10
-14.595935
20
24.086409
30
0.0
40
1.479243
50
308.136475
51
315.000000
0
ARC
8
0
62
6
10
-18.050972
20
26.616970
30
0.0
40
1.479240
50
495.000000
51
501.863525
0
ARC
8
0
62
6
10
-14.595936
20
26.616972
30
0.0
40
1.479243
50
495.000000
51
501.863525
0
ARC
8
0
62
6
10
-18.050978
20
24.086407
30
0.0
40
1.479237
50
315.000000
51
360.000000
0
ARC
8
0
62
6
10
-14.595935
20
24.086409
30
0.0
40
1.479243
50
315.000000
51
360.000000
0
ARC
8
0
62
6
10
-0.356706
20
26.562099
30
0.0
40
1.534125
50
315.000000
51
450.000305
0
ARC
8
0
62
6
10
3.168519
20
26.616978
30
0.0
40
1.479243
50
495.000000
51
501.863525
0
ARC
8
0
62
6
10
14.707116
20
24.086418
30
0.0
40
1.479243
50
315.000000
51
360.000000
0
ARC
8
0
62
6
10
14.707115
20
26.616982
30
0.0
40
1.479243
50
495.000000
51
501.863525
0
ARC
8
0
62
9
10
7.709912
20
-7.231828
30
0.0
40
0.411341
50
210.522003
51
269.441071
0
LINE
8
0
62
9
10
7.705899
20
-7.643149
30
0.0
11
7.851313
21
-7.644568
31
0.0
0
ARC
8
0
62
9
10
7.854976
20
-7.269074
30
0.0
40
0.375512
50
269.441071
51
357.350677
0
ARC
8
0
62
9
10
7.924642
20
-7.314133
30
0.0
40
0.306699
50
5.182272
51
59.344830
0
LINE
8
0
62
9
10
8.081018
20
-7.050295
30
0.0
11
7.519417
21
-6.809091
31
0.0
0
ARC
8
0
62
9
10
7.675793
20
-6.545253
30
0.0
40
0.306699
50
185.182404
51
239.344803
0
ARC
8
0
62
9
10
7.743956
20
-6.589320
30
0.0
40
0.373966
50
91.261345
51
177.491959
0
LINE
8
0
62
9
10
7.735724
20
-6.215445
30
0.0
11
7.880792
21
-6.215292
31
0.0
0
ARC
8
0
62
9
10
7.867836
20
-6.613417
30
0.0
40
0.398335
50
29.271709
51
88.136147
0
LINE
8
0
62
9
10
8.474294
20
-6.215361
30
0.0
11
8.474294
21
-7.642313
31
0.0
0
LINE
8
0
62
9
10
8.517102
20
-6.928837
30
0.0
11
9.296218
21
-6.928837
31
0.0
0
LINE
8
0
62
9
10
9.340657
20
-7.642313
30
0.0
11
9.340657
21
-6.215361
31
0.0
0
LINE
8
0
62
9
10
9.483353
20
-7.642313
30
0.0
11
10.018459
21
-6.215361
31
0.0
0
LINE
8
0
62
9
10
10.018459
20
-6.215361
30
0.0
11
10.553567
21
-7.642313
31
0.0
0
LINE
8
0
62
9
10
9.640827
20
-7.336538
30
0.0
11
10.396092
21
-7.336538
31
0.0
0
LINE
8
0
62
9
10
10.731936
20
-7.642313
30
0.0
11
10.731936
21
-6.215361
31
0.0
0
LINE
8
0
62
9
10
10.731936
20
-6.215361
30
0.0
11
11.249716
21
-6.215361
31
0.0
0
ARC
8
0
62
9
10
11.228516
20
-6.572099
30
0.0
40
0.357367
50
273.401001
51
86.599007
0
LINE
8
0
62
9
10
11.249716
20
-6.928837
30
0.0
11
10.753340
21
-6.928837
31
0.0
0
LINE
8
0
62
9
10
12.601324
20
-7.642328
30
0.0
11
11.764519
21
-7.642328
31
0.0
0
LINE
8
0
62
9
10
11.764519
20
-7.642328
30
0.0
11
11.764009
21
-6.928852
31
0.0
0
LINE
8
0
62
9
10
11.764009
20
-6.928852
30
0.0
11
12.417859
21
-6.928852
31
0.0
0
LINE
8
0
62
9
10
11.763978
20
-6.907460
30
0.0
11
11.763498
21
-6.215376
31
0.0
0
LINE
8
0
62
9
10
11.763498
20
-6.215376
30
0.0
11
12.529976
21
-6.215376
31
0.0
0
LINE
8
0
62
9
10
-4.778026
20
-6.928959
30
0.0
11
-4.262040
21
-6.928959
31
0.0
0
ARC
8
0
62
9
10
-4.262153
20
-7.286141
30
0.0
40
0.357182
50
270.000000
51
89.981880
0
LINE
8
0
62
9
10
-4.262153
20
-7.643323
30
0.0
11
-4.820888
21
-7.643323
31
0.0
0
LINE
8
0
62
9
10
-4.820888
20
-7.643323
30
0.0
11
-4.820888
21
-6.216372
31
0.0
0
LINE
8
0
62
9
10
-4.820888
20
-6.216372
30
0.0
11
-4.325935
21
-6.216372
31
0.0
0
ARC
8
0
62
9
10
-4.328789
20
-6.574986
30
0.0
40
0.358625
50
296.191833
51
89.543999
0
LINE
8
0
62
9
10
-3.683141
20
-7.645101
30
0.0
11
-3.274933
21
-7.645101
31
0.0
0
LINE
8
0
62
9
10
-3.479038
20
-7.602239
30
0.0
11
-3.479038
21
-6.259233
31
0.0
0
LINE
8
0
62
9
10
-3.683141
20
-6.216372
30
0.0
11
-3.277081
21
-6.216372
31
0.0
0
LINE
8
0
62
9
10
-2.719062
20
-7.013420
30
0.0
11
-2.116205
21
-7.013420
31
0.0
0
ARC
8
0
62
9
10
-2.116205
20
-7.056278
30
0.0
40
0.042858
50
0.000000
51
90.000000
0
LINE
8
0
62
9
10
-2.073348
20
-7.056278
30
0.0
11
-2.073348
21
-7.164158
31
0.0
0
ARC
8
0
62
9
10
-2.559792
20
-7.167892
30
0.0
40
0.486459
50
200.855255
51
0.439684
0
ARC
8
0
62
9
10
-1.808893
20
-6.932947
30
0.0
40
1.272700
50
161.293991
51
198.703979
0
ARC
8
0
62
9
10
-2.535877
20
-6.741696
30
0.0
40
0.525361
50
35.680031
51
155.613174
0
ARC
8
0
62
9
10
-16.000000
20
-16.000000
30
0.0
40
4.000000
50
360.000000
51
90.000000
0
ARC
8
0
62
9
10
-16.000000
20
16.000000
30
0.0
40
4.000000
50
270.000000
51
0.000000
0
ARC
8
0
62
9
10
16.000000
20
16.000000
30
0.0
40
4.000000
50
180.000000
51
270.000000
0
LINE
8
0
62
9
10
-17.600000
20
10.400001
30
0.0
11
-17.600000
21
-10.400001
31
0.0
0
LINE
8
0
62
9
10
10.400001
20
17.600000
30
0.0
11
-10.400001
21
17.600000
31
0.0
0
ARC
8
0
62
9
10
16.000000
20
10.400001
30
0.0
40
1.600000
50
360.000000
51
90.000000
0
ARC
8
0
62
9
10
10.400001
20
16.000000
30
0.0
40
1.600000
50
360.000000
51
90.000000
0
ARC
8
0
62
9
10
-10.400001
20
16.000000
30
0.0
40
1.600000
50
90.000000
51
180.000000
0
ARC
8
0
62
9
10
-16.000000
20
10.400001
30
0.0
40
1.600000
50
90.000000
51
180.000000
0
ARC
8
0
62
9
10
-16.000000
20
-10.400001
30
0.0
40
1.600000
50
180.000000
51
270.000000
0
ARC
8
0
62
9
10
-10.400001
20
-16.000000
30
0.0
40
1.600000
50
180.000000
51
270.000000
0
ARC
8
0
62
9
10
16.000000
20
-16.000000
30
0.0
40
4.000000
50
90.000000
51
180.000000
0
ARC
8
0
62
9
10
16.000000
20
-10.400001
30
0.0
40
1.600000
50
270.000000
51
360.000000
0
ARC
8
0
62
9
10
10.400001
20
-16.000000
30
0.0
40
1.600000
50
270.000000
51
0.000000
0
LINE
8
0
62
9
10
10.400001
20
-17.600000
30
0.0
11
-10.400001
21
-17.600000
31
0.0
0
LINE
8
0
62
9
10
17.600000
20
-10.400001
30
0.0
11
17.600000
21
10.400001
31
0.0
0
ARC
8
0
62
9
10
-0.229072
20
-7.220485
30
0.0
40
0.424579
50
196.004822
51
267.948395
0
ARC
8
0
62
9
10
0.566900
20
-6.929848
30
0.0
40
1.271244
50
161.294113
51
198.705887
0
ARC
8
0
62
9
10
-0.229072
20
-6.640160
30
0.0
40
0.424842
50
16.128889
51
163.872177
0
ARC
8
0
62
9
10
-1.025044
20
-6.929848
30
0.0
40
1.271244
50
341.293762
51
18.706244
0
ARC
8
0
62
9
10
-0.229072
20
-7.220485
30
0.0
40
0.424579
50
272.763977
51
343.994110
0
LINE
8
0
62
9
10
0.489789
20
-7.642313
30
0.0
11
0.489789
21
-6.215361
31
0.0
0
LINE
8
0
62
9
10
0.489789
20
-6.215361
30
0.0
11
1.007569
21
-6.215361
31
0.0
0
ARC
8
0
62
9
10
1.000694
20
-6.572099
30
0.0
40
0.356804
50
271.095276
51
88.895920
0
LINE
8
0
62
9
10
1.007514
20
-6.928837
30
0.0
11
0.536620
21
-6.928837
31
0.0
0
LINE
8
0
62
9
10
1.027844
20
-6.969491
30
0.0
11
1.364307
21
-7.642313
31
0.0
0
LINE
8
0
62
9
10
1.507002
20
-7.642313
30
0.0
11
2.042109
21
-6.215361
31
0.0
0
LINE
8
0
62
9
10
2.042109
20
-6.215361
30
0.0
11
2.577216
21
-7.642313
31
0.0
0
LINE
8
0
62
9
10
1.664476
20
-7.336538
30
0.0
11
2.419742
21
-7.336538
31
0.0
0
LINE
8
0
62
9
10
2.738687
20
-7.642313
30
0.0
11
2.738687
21
-6.215361
31
0.0
0
LINE
8
0
62
9
10
2.738687
20
-6.215361
30
0.0
11
3.614904
21
-7.642313
31
0.0
0
LINE
8
0
62
9
10
3.614904
20
-7.642313
30
0.0
11
3.614904
21
-6.215361
31
0.0
0
LINE
8
0
62
9
10
4.168474
20
-7.011419
30
0.0
11
4.770581
21
-7.011419
31
0.0
0
ARC
8
0
62
9
10
4.770581
20
-7.054223
30
0.0
40
0.042804
50
0.000000
51
90.000000
0
LINE
8
0
62
9
10
4.813385
20
-7.054223
30
0.0
11
4.813385
21
-7.161970
31
0.0
0
ARC
8
0
62
9
10
4.327546
20
-7.165698
30
0.0
40
0.485854
50
200.855255
51
0.439684
0
ARC
8
0
62
9
10
5.077511
20
-6.931046
30
0.0
40
1.271117
50
161.293991
51
198.703979
0
ARC
8
0
62
9
10
4.351431
20
-6.740032
30
0.0
40
0.524708
50
35.680031
51
155.613174
0
LINE
8
0
62
9
10
5.814394
20
-7.642328
30
0.0
11
4.977589
21
-7.642328
31
0.0
0
LINE
8
0
62
9
10
4.977589
20
-7.642328
30
0.0
11
4.977079
21
-6.928852
31
0.0
0
LINE
8
0
62
9
10
4.977079
20
-6.928852
30
0.0
11
5.630929
21
-6.928852
31
0.0
0
LINE
8
0
62
9
10
4.977048
20
-6.907460
30
0.0
11
4.976570
21
-6.215376
31
0.0
0
LINE
8
0
62
9
10
4.976570
20
-6.215376
30
0.0
11
5.743047
21
-6.215376
31
0.0
0
ENDSEC
0
EOF
