  0
SECTION
  2
HEADER
  9
$ACADVER
  1
AC1003
  9
$EXTMIN
 10
-1.3682554174838
 20
0.985047490238493
  9
$EXTMAX
 10
0.984251968500003
 20
-0.984252167903958
  9
$INSUNITS
 70
1
  9
$INSBASE
 10
-0.1920017244919
 20
0.000397661167267527
999
Created with OMAX LAYOUT for Windows. (www.omax.com) 1/5/2024
  0
ENDSEC
  0
SECTION
  2
TABLES
  0
TABLE
  2
LAYER
 70
    10
  0
LAYER
  2
0
 70
     0
 62
     7
  6
CONTINUOUS
  0
LAYER
  2
1
 70
     0
 62
     7
  6
CONTINUOUS
  0
LAYER
  2
2
 70
     0
 62
     7
  6
CONTINUOUS
  0
LAYER
  2
3
 70
     0
 62
     7
  6
CONTINUOUS
  0
LAYER
  2
4
 70
     0
 62
     7
  6
CONTINUOUS
  0
LAYER
  2
5
 70
     0
 62
     7
  6
CONTINUOUS
  0
LAYER
  2
6
 70
     0
 62
     7
  6
CONTINUOUS
  0
LAYER
  2
7
 70
     0
 62
     7
  6
CONTINUOUS
  0
LAYER
  2
8
 70
     0
 62
     7
  6
CONTINUOUS
  0
LAYER
  2
9
 70
     0
 62
     7
  6
CONTINUOUS
  0
LAYER
  2
10
 70
     0
 62
     7
  6
CONTINUOUS
  0
LAYER
  2
11
 70
     0
 62
     7
  6
CONTINUOUS
  0
LAYER
  2
12
 70
     0
 62
     7
  6
CONTINUOUS
  0
LAYER
  2
13
 70
     0
 62
     7
  6
CONTINUOUS
  0
LAYER
  2
14
 70
     0
 62
     7
  6
CONTINUOUS
  0
LAYER
  2
15
 70
     0
 62
     7
  6
CONTINUOUS
  0
LAYER
  2
16
 70
     0
 62
     7
  6
CONTINUOUS
  0
LAYER
  2
17
 70
     0
 62
     7
  6
CONTINUOUS
  0
LAYER
  2
18
 70
     0
 62
     7
  6
CONTINUOUS
  0
LAYER
  2
19
 70
     0
 62
     7
  6
CONTINUOUS
  0
LAYER
  2
20
 70
     0
 62
     7
  6
CONTINUOUS
  0
LAYER
  2
21
 70
     0
 62
     7
  6
CONTINUOUS
  0
LAYER
  2
22
 70
     0
 62
     7
  6
CONTINUOUS
  0
LAYER
  2
23
 70
     0
 62
     7
  6
CONTINUOUS
  0
LAYER
  2
24
 70
     0
 62
     7
  6
CONTINUOUS
  0
LAYER
  2
25
 70
     0
 62
     7
  6
CONTINUOUS
  0
LAYER
  2
26
 70
     0
 62
     7
  6
CONTINUOUS
  0
LAYER
  2
27
 70
     0
 62
     7
  6
CONTINUOUS
  0
LAYER
  2
28
 70
     0
 62
     7
  6
CONTINUOUS
  0
LAYER
  2
29
 70
     0
 62
     7
  6
CONTINUOUS
  0
LAYER
  2
30
 70
     0
 62
     7
  6
CONTINUOUS
  0
LAYER
  2
31
 70
     0
 62
     7
  6
CONTINUOUS
  0
ENDTAB
  0
ENDSEC
  0
SECTION
  2
ENTITIES
  0
LINE
  8
0
  6
CONTINUOUS
 62
0
 10
0.0765126619957592
 20
-0.41338451243993
 30
0.0
 11
0.0417698048667994
 21
-0.41338451243993
 31
0.0
  0
LINE
  8
0
  6
CONTINUOUS
 62
0
 10
0.0591412334312791
 20
-0.39601308387545
 30
0.0
 11
0.0591412334312791
 21
-0.430755941004409
 31
0.0
  0
LINE
  8
0
  6
CONTINUOUS
 62
0
 10
0.0765126619957597
 20
-0.76771522043993
 30
0.0
 11
0.0417698048667994
 21
-0.76771522043993
 31
0.0
  0
LINE
  8
0
  6
CONTINUOUS
 62
0
 10
0.0591412334312795
 20
-0.75034379187545
 30
0.0
 11
0.0591412334312795
 21
-0.785086649004409
 31
0.0
  0
LINE
  8
1
  6
CONTINUOUS
 62
1
 10
-1.36825541748261
 20
-0.52224888500563
 30
0.0
 11
-1.13951829574712
 21
-0.52224888500563
 31
0.0
  0
LINE
  8
1
  6
CONTINUOUS
 62
1
 10
-1.36825541748261
 20
-0.48741939457093
 30
0.0
 11
-1.36825541748261
 21
-0.52224888500563
 31
0.0
  0
LINE
  8
1
  6
CONTINUOUS
 62
1
 10
-1.1023622045
 20
-0.48741939457093
 30
0.0
 11
-1.36825541748261
 21
-0.48741939457093
 31
0.0
  0
LINE
  8
1
  6
CONTINUOUS
 62
1
 10
-1.1023622045
 20
-0.544313331702108
 30
0.0
 11
-1.1023622045
 21
-0.48741939457093
 31
0.0
  0
LINE
  8
1
  6
CONTINUOUS
 62
1
 10
-1.32529317017653
 20
-0.613979756985917
 30
0.0
 11
-1.1023622045
 21
-0.544313331702108
 31
0.0
  0
LINE
  8
1
  6
CONTINUOUS
 62
1
 10
-1.1023622045
 20
-0.613979756985917
 30
0.0
 11
-1.32529317017653
 21
-0.613979756985917
 31
0.0
  0
LINE
  8
1
  6
CONTINUOUS
 62
1
 10
-1.1023622045
 20
-0.648811640268107
 30
0.0
 11
-1.1023622045
 21
-0.613979756985917
 31
0.0
  0
LINE
  8
1
  6
CONTINUOUS
 62
1
 10
-1.36825541748261
 20
-0.648811640268107
 30
0.0
 11
-1.1023622045
 21
-0.648811640268107
 31
0.0
  0
LINE
  8
1
  6
CONTINUOUS
 62
1
 10
-1.36825541748261
 20
-0.591917703136929
 30
0.0
 11
-1.36825541748261
 21
-0.648811640268107
 31
0.0
  0
LINE
  8
1
  6
CONTINUOUS
 62
1
 10
-1.13951829574712
 20
-0.52224888500563
 30
0.0
 11
-1.36825541748261
 21
-0.591917703136929
 31
0.0
  0
LINE
  8
1
  6
CONTINUOUS
 62
1
 10
-1.17403330423574
 20
-0.950340733289222
 30
0.0
 11
-1.29911010120752
 21
-0.950340733289222
 31
0.0
  0
ARC
  8
1
  6
CONTINUOUS
 62
1
 10
-1.17403330423574
 20
-0.912601540307844
 30
0.0
 40
0.0377391929813777
 50
270
 51
90
  0
LINE
  8
1
  6
CONTINUOUS
 62
1
 10
-1.17403330423574
 20
-0.840953305559219
 30
0.0
 11
-1.17403330423574
 21
-0.874862347326467
 31
0.0
  0
ARC
  8
1
  6
CONTINUOUS
 62
1
 10
-1.17403330423574
 20
-0.912602736731588
 30
0.0
 40
0.0716494311723698
 50
269.999999999999
 51
89.9999999999998
  0
LINE
  8
1
  6
CONTINUOUS
 62
1
 10
-1.23531944586903
 20
-0.984252034967987
 30
0.0
 11
-1.17403330423574
 21
-0.984252167903958
 31
0.0
  0
ARC
  8
1
  6
CONTINUOUS
 62
1
 10
-1.29660558750232
 20
-0.912602337923674
 30
0.0
 40
0.0716495641083414
 50
90
 51
270
  0
LINE
  8
1
  6
CONTINUOUS
 62
1
 10
-1.29660558750232
 20
-0.874862347326467
 30
0.0
 11
-1.29660558750232
 21
-0.840952773815332
 31
0.0
  0
ARC
  8
1
  6
CONTINUOUS
 62
1
 10
-1.29660558750232
 20
-0.912601540307844
 30
0.0
 40
0.0377391929813777
 50
90
 51
270
  0
LINE
  8
1
  6
CONTINUOUS
 62
1
 10
-1.29660558750232
 20
-0.707511645509626
 30
0.0
 11
-1.23531944586903
 21
-0.707511645509626
 31
0.0
  0
ARC
  8
1
  6
CONTINUOUS
 62
1
 10
-1.29660558750232
 20
-0.745250705555032
 30
0.0
 40
0.0377390600454064
 50
90
 51
270
  0
LINE
  8
1
  6
CONTINUOUS
 62
1
 10
-1.17403330423574
 20
-0.782989765600439
 30
0.0
 11
-1.29660558750232
 21
-0.782989765600439
 31
0.0
  0
ARC
  8
1
  6
CONTINUOUS
 62
1
 10
-1.17403285119372
 20
-0.74525028622273
 30
0.0
 40
0.0377394793804281
 50
269.999312195172
 51
345.521838354125
  0
LINE
  8
1
  6
CONTINUOUS
 62
1
 10
-1.10300561460261
 20
-0.754685570268362
 30
0.0
 11
-1.1374918643586
 21
-0.754685570268362
 31
0.0
  0
ARC
  8
1
  6
CONTINUOUS
 62
1
 10
-1.17403230273596
 20
-0.745250595347159
 30
0.0
 40
0.0716506048750147
 50
269.999199145476
 51
352.433297341487
  0
LINE
  8
1
  6
CONTINUOUS
 62
1
 10
-1.29660558750232
 20
-0.816901466087118
 30
0.0
 11
-1.17403330423574
 21
-0.816901200215175
 31
0.0
  0
ARC
  8
1
  6
CONTINUOUS
 62
1
 10
-1.29660558750232
 20
-0.745251769042805
 30
0.0
 40
0.0716496970443129
 50
90
 51
270
  0
LINE
  8
1
  6
CONTINUOUS
 62
1
 10
-1.17403330423574
 20
-0.673602071998492
 30
0.0
 11
-1.29660558750232
 21
-0.673602071998492
 31
0.0
  0
ARC
  8
1
  6
CONTINUOUS
 62
1
 10
-1.17403218199301
 20
-0.745252821289603
 30
0.0
 40
0.0716507492998998
 50
7.56830513434477
 51
90.0008974054403
  0
LINE
  8
1
  6
CONTINUOUS
 62
1
 10
-1.1374918643586
 20
-0.735815840841702
 30
0.0
 11
-1.10300561460261
 21
-0.735815840841702
 31
0.0
  0
ARC
  8
1
  6
CONTINUOUS
 62
1
 10
-1.17403264578754
 20
-0.745251214203416
 30
0.0
 40
0.0377393028275911
 50
14.4783709045356
 51
90.0009996555313
  0
LINE
  8
1
  6
CONTINUOUS
 62
1
 10
-1.23531944586903
 20
-0.707511645509626
 30
0.0
 11
-1.17403330423574
 21
-0.707511911381569
 31
0.0
  0
LINE
  8
1
  6
CONTINUOUS
 62
1
 10
-1.29660558750232
 20
-0.984251902032015
 30
0.0
 11
-1.23531944586903
 21
-0.984252034967987
 31
0.0
  0
ARC
  8
2
  6
CONTINUOUS
 62
2
 10
-0.153994141868718
 20
0.166046889641004
 30
0.0
 40
0.019345588274766
 50
213.433287883772
 51
270.015999253476
  0
ARC
  8
2
  6
CONTINUOUS
 62
2
 10
-0.151634303190127
 20
0.166169136797657
 30
0.0
 40
0.0196096904318124
 50
263.104148598818
 51
34.0979167513631
  0
ARC
  8
2
  6
CONTINUOUS
 62
2
 10
-0.154612275550678
 20
0.160443993330093
 30
0.0
 40
0.0254711169941974
 50
41.0237111689359
 51
127.558530040726
  0
LINE
  8
2
  6
CONTINUOUS
 62
2
 10
-0.170138743942584
 20
0.207562492198967
 30
0.0
 11
-0.170138743942584
 21
0.180635738678309
 31
0.0
  0
LINE
  8
2
  6
CONTINUOUS
 62
2
 10
-0.133379211614431
 20
0.207562492198967
 30
0.0
 11
-0.170138743942584
 21
0.207562492198967
 31
0.0
  0
ARC
  8
2
  6
CONTINUOUS
 62
2
 10
-0.110131272632232
 20
0.161781362470196
 30
0.0
 40
0.0149102119900529
 50
199.465441458889
 51
268.514572046556
  0
ARC
  8
2
  6
CONTINUOUS
 62
2
 10
-0.0681384885503473
 20
0.177192268929717
 30
0.0
 40
0.059640716170427
 50
160.019185139364
 51
199.980814860636
  0
ARC
  8
2
  6
CONTINUOUS
 62
2
 10
-0.110062523055071
 20
0.192585816151734
 30
0.0
 40
0.0149808182146631
 50
19.4473483225597
 51
160.559582801478
  0
ARC
  8
2
  6
CONTINUOUS
 62
2
 10
-0.151986539501502
 20
0.177192269044193
 30
0.0
 40
0.0596407161704224
 50
340.017438400847
 51
19.9825615991523
  0
ARC
  8
2
  6
CONTINUOUS
 62
2
 10
-0.109945085945471
 20
0.161700516303735
 30
0.0
 40
0.0148374838407186
 50
271.35498437542
 51
340.759261725191
  0
LINE
  8
2
  6
CONTINUOUS
 62
2
 10
-0.144575434127597
 20
-0.264874238255924
 30
0.0
 11
-0.144575434127597
 21
-0.325674238231604
 31
0.0
  0
LINE
  8
2
  6
CONTINUOUS
 62
2
 10
-0.176061148400717
 20
-0.311342809665908
 30
0.0
 11
-0.144575434127597
 21
-0.264874238255924
 31
0.0
  0
LINE
  8
2
  6
CONTINUOUS
 62
2
 10
-0.135672576988301
 20
-0.311342809665908
 30
0.0
 11
-0.176061148400717
 21
-0.311342809665908
 31
0.0
  0
LINE
  8
2
  6
CONTINUOUS
 62
2
 10
-0.0931125792876477
 20
-0.264874276452089
 30
0.0
 11
-0.129592576988301
 21
-0.264874276452089
 31
0.0
  0
ARC
  8
2
  6
CONTINUOUS
 62
2
 10
-0.000864819325498867
 20
-0.325684599399202
 30
0.0
 40
0.110487757670098
 50
146.60686951312
 51
179.994700000001
  0
LINE
  8
2
  6
CONTINUOUS
 62
2
 10
-1.36825541748261
 20
-0.337647879768322
 30
0.0
 11
-1.14300287354282
 21
-0.380027845461324
 31
0.0
  0
LINE
  8
2
  6
CONTINUOUS
 62
2
 10
-1.36825541748261
 20
-0.301652540862572
 30
0.0
 11
-1.36825541748261
 21
-0.337647879768322
 31
0.0
  0
LINE
  8
2
  6
CONTINUOUS
 62
2
 10
-1.1023622045
 20
-0.359708604257598
 30
0.0
 11
-1.36825541748261
 21
-0.301652540862572
 31
0.0
  0
LINE
  8
2
  6
CONTINUOUS
 62
2
 10
-1.1023622045
 20
-0.404991116012214
 30
0.0
 11
-1.1023622045
 21
-0.359708604257598
 31
0.0
  0
LINE
  8
2
  6
CONTINUOUS
 62
2
 10
-1.36825541748261
 20
-0.461885850759224
 30
0.0
 11
-1.1023622045
 21
-0.404991116012214
 31
0.0
  0
LINE
  8
2
  6
CONTINUOUS
 62
2
 10
-1.36825541748261
 20
-0.423568386301324
 30
0.0
 11
-1.36825541748261
 21
-0.461885850759224
 31
0.0
  0
LINE
  8
2
  6
CONTINUOUS
 62
2
 10
-1.14300287354282
 20
-0.380027845461324
 30
0.0
 11
-1.36825541748261
 21
-0.423568386301324
 31
0.0
  0
LINE
  8
2
  6
CONTINUOUS
 62
2
 10
-1.25330568282835
 20
-0.240125253376777
 30
0.0
 11
-1.33806565832916
 21
-0.240125253376777
 31
0.0
  0
LINE
  8
2
  6
CONTINUOUS
 62
2
 10
-1.25330568282835
 20
-0.161170591756326
 30
0.0
 11
-1.25330568282835
 21
-0.240125253376777
 31
0.0
  0
LINE
  8
2
  6
CONTINUOUS
 62
2
 10
-1.22311858239434
 20
-0.161170591756326
 30
0.0
 11
-1.25330568282835
 21
-0.161170591756326
 31
0.0
  0
LINE
  8
2
  6
CONTINUOUS
 62
2
 10
-1.22311858239434
 20
-0.240125253376777
 30
0.0
 11
-1.22311858239434
 21
-0.161170591756326
 31
0.0
  0
LINE
  8
2
  6
CONTINUOUS
 62
2
 10
-1.13255196365344
 20
-0.240125253376777
 30
0.0
 11
-1.22311858239434
 21
-0.240125253376777
 31
0.0
  0
LINE
  8
2
  6
CONTINUOUS
 62
2
 10
-1.13255196365344
 20
-0.154203683356
 30
0.0
 11
-1.13255196365344
 21
-0.240125253376777
 31
0.0
  0
LINE
  8
2
  6
CONTINUOUS
 62
2
 10
-1.1023622045
 20
-0.154203683356
 30
0.0
 11
-1.13255196365344
 21
-0.154203683356
 31
0.0
  0
LINE
  8
2
  6
CONTINUOUS
 62
2
 10
-1.1023622045
 20
-0.276120060538636
 30
0.0
 11
-1.1023622045
 21
-0.154203683356
 31
0.0
  0
LINE
  8
2
  6
CONTINUOUS
 62
2
 10
-1.36825541748261
 20
-0.276120060538636
 30
0.0
 11
-1.1023622045
 21
-0.276120060538636
 31
0.0
  0
LINE
  8
2
  6
CONTINUOUS
 62
2
 10
-1.36825541748261
 20
-0.156526340652032
 30
0.0
 11
-1.36825541748261
 21
-0.276120060538636
 31
0.0
  0
LINE
  8
2
  6
CONTINUOUS
 62
2
 10
-1.33806565832916
 20
-0.156526340652032
 30
0.0
 11
-1.36825541748261
 21
-0.156526340652032
 31
0.0
  0
LINE
  8
2
  6
CONTINUOUS
 62
2
 10
-1.33806565832916
 20
-0.240125253376777
 30
0.0
 11
-1.33806565832916
 21
-0.156526340652032
 31
0.0
  0
LINE
  8
2
  6
CONTINUOUS
 62
2
 10
-1.28291052370669
 20
-0.0949990531662341
 30
0.0
 11
-1.33661665623858
 21
-0.0949990531662341
 31
0.0
  0
LINE
  8
2
  6
CONTINUOUS
 62
2
 10
-1.28291052370669
 20
-0.130993328584212
 30
0.0
 11
-1.28291052370669
 21
-0.0949990531662341
 31
0.0
  0
LINE
  8
2
  6
CONTINUOUS
 62
2
 10
-1.36825541748261
 20
-0.130993328584212
 30
0.0
 11
-1.28291052370669
 21
-0.130993328584212
 31
0.0
  0
LINE
  8
2
  6
CONTINUOUS
 62
2
 10
-1.36825541748261
 20
-0.0555503035899059
 30
0.0
 11
-1.36825541748261
 21
-0.130993328584212
 31
0.0
  0
ARC
  8
2
  6
CONTINUOUS
 62
2
 10
-1.29394742108485
 20
-0.0555498816176088
 30
0.0
 40
0.0743079963989533
 50
32.8552603471072
 51
180.00032536514
  0
ARC
  8
2
  6
CONTINUOUS
 62
2
 10
-1.18133968803721
 20
-0.0639435473812622
 30
0.0
 40
0.0699356602974968
 50
98.6165201815968
 51
135.856609805123
  0
LINE
  8
2
  6
CONTINUOUS
 62
2
 10
-1.1023622045
 20
0.0187590434384794
 30
0.0
 11
-1.19181747851821
 21
0.00520276479721371
 31
0.0
  0
LINE
  8
2
  6
CONTINUOUS
 62
2
 10
-1.1023622045
 20
-0.0128767932141758
 30
0.0
 11
-1.1023622045
 21
0.0187590434384794
 31
0.0
  0
LINE
  8
2
  6
CONTINUOUS
 62
2
 10
-1.18723384621697
 20
-0.0260994025666912
 30
0.0
 11
-1.1023622045
 21
-0.0128767932141758
 31
0.0
  0
ARC
  8
2
  6
CONTINUOUS
 62
2
 10
-1.1813376462581
 20
-0.0639408177729485
 30
0.0
 40
0.0382980140316353
 50
98.856238943019
 51
180.007764564469
  0
LINE
  8
2
  6
CONTINUOUS
 62
2
 10
-1.21963300121863
 20
-0.0949990531662341
 30
0.0
 11
-1.21963565993806
 21
-0.0639460078131329
 31
0.0
  0
LINE
  8
2
  6
CONTINUOUS
 62
2
 10
-1.1023622045
 20
-0.0949990531662341
 30
0.0
 11
-1.21963300121863
 21
-0.0949990531662341
 31
0.0
  0
LINE
  8
2
  6
CONTINUOUS
 62
2
 10
-1.1023622045
 20
-0.130993328584212
 30
0.0
 11
-1.1023622045
 21
-0.0949990531662341
 31
0.0
  0
LINE
  8
2
  6
CONTINUOUS
 62
2
 10
-1.25127176246266
 20
-0.130993328584212
 30
0.0
 11
-1.1023622045
 21
-0.130993328584212
 31
0.0
  0
LINE
  8
2
  6
CONTINUOUS
 62
2
 10
-1.25127176246266
 20
-0.0555497718460223
 30
0.0
 11
-1.25127176246266
 21
-0.130993328584212
 31
0.0
  0
ARC
  8
2
  6
CONTINUOUS
 62
2
 10
-1.29394420935062
 20
-0.0555497718460212
 30
0.0
 40
0.0426724468879572
 50
359.999999999998
 51
89.9999999999997
  0
ARC
  8
2
  6
CONTINUOUS
 62
2
 10
-1.29394420935062
 20
-0.0555497718460223
 30
0.0
 40
0.0426724468879573
 50
89.9999999999992
 51
180
  0
LINE
  8
2
  6
CONTINUOUS
 62
2
 10
-1.33661665623858
 20
-0.0949990531662341
 30
0.0
 11
-1.33661665623858
 21
-0.0555497718460223
 31
0.0
  0
ARC
  8
3
  6
CONTINUOUS
 62
3
 10
-1.29660640242956
 20
0.115198903787696
 30
0.0
 40
0.0716480992637498
 50
270.000651683602
 51
333.183935420126
  0
ARC
  8
3
  6
CONTINUOUS
 62
3
 10
-1.29660558750232
 20
0.115200501572894
 30
0.0
 40
0.0716496970443132
 50
90
 51
270
  0
LINE
  8
3
  6
CONTINUOUS
 62
3
 10
-1.29660558750232
 20
0.152940093362187
 30
0.0
 11
-1.29660558750232
 21
0.186850198617207
 31
0.0
  0
ARC
  8
3
  6
CONTINUOUS
 62
3
 10
-1.29660558750232
 20
0.115200900380809
 30
0.0
 40
0.0377391929813776
 50
90
 51
270
  0
ARC
  8
3
  6
CONTINUOUS
 62
3
 10
-1.29660457061123
 20
0.115203215969691
 30
0.0
 40
0.0377415085839593
 50
269.998456246977
 51
333.182376586104
  0
LINE
  8
3
  6
CONTINUOUS
 62
3
 10
-1.2379781653013
 20
0.147526142982252
 30
0.0
 11
-1.26292227101487
 21
0.0981760563682017
 31
0.0
  0
ARC
  8
3
  6
CONTINUOUS
 62
3
 10
-1.17403500393958
 20
0.11519958499276
 30
0.0
 40
0.0716500819007205
 50
89.9986408130524
 51
153.181054524402
  0
ARC
  8
3
  6
CONTINUOUS
 62
3
 10
-1.17403330423574
 20
0.115200368636923
 30
0.0
 40
0.0716492982363981
 50
269.999999999999
 51
89.9999999999998
  0
LINE
  8
3
  6
CONTINUOUS
 62
3
 10
-1.17403330423574
 20
0.0774614415274879
 30
0.0
 11
-1.17403330423574
 21
0.0435510704005244
 31
0.0
  0
ARC
  8
3
  6
CONTINUOUS
 62
3
 10
-1.17403330423574
 20
0.115200501572894
 30
0.0
 40
0.0377390600454063
 50
270
 51
90
  0
ARC
  8
3
  6
CONTINUOUS
 62
3
 10
-1.17403398963823
 20
0.115201181533571
 30
0.0
 40
0.0377383800909533
 50
89.9989593970419
 51
153.183940738284
  0
LINE
  8
3
  6
CONTINUOUS
 62
3
 10
-1.23266338515619
 20
0.0828764553951955
 30
0.0
 11
-1.20771396200376
 21
0.132226010265359
 31
0.0
  0
LINE
  8
3
  6
CONTINUOUS
 62
3
 10
-1.33458539459232
 20
0.296402998695897
 30
0.0
 11
-1.1929288232409
 21
0.326073486458871
 31
0.0
  0
LINE
  8
3
  6
CONTINUOUS
 62
3
 10
-1.1023622045
 20
0.24647543822116
 30
0.0
 11
-1.33458539459232
 21
0.296402998695897
 31
0.0
  0
LINE
  8
3
  6
CONTINUOUS
 62
3
 10
-1.1023622045
 20
0.211642491451196
 30
0.0
 11
-1.1023622045
 21
0.24647543822116
 31
0.0
  0
LINE
  8
3
  6
CONTINUOUS
 62
3
 10
-1.36825541748261
 20
0.273180945558609
 30
0.0
 11
-1.1023622045
 21
0.211642491451196
 31
0.0
  0
LINE
  8
3
  6
CONTINUOUS
 62
3
 10
-1.36825541748261
 20
0.321946911513389
 30
0.0
 11
-1.36825541748261
 21
0.273180945558609
 31
0.0
  0
LINE
  8
3
  6
CONTINUOUS
 62
3
 10
-1.1023622045
 20
0.383486163236629
 30
0.0
 11
-1.36825541748261
 21
0.321946911513389
 31
0.0
  0
LINE
  8
3
  6
CONTINUOUS
 62
3
 10
-1.1023622045
 20
0.345169230522621
 30
0.0
 11
-1.1023622045
 21
0.383486163236629
 31
0.0
  0
LINE
  8
3
  6
CONTINUOUS
 62
3
 10
-1.16274172280689
 20
0.332397008241932
 30
0.0
 11
-1.1023622045
 21
0.345169230522621
 31
0.0
  0
LINE
  8
3
  6
CONTINUOUS
 62
3
 10
-1.16274172280689
 20
0.277825196662903
 30
0.0
 11
-1.16274172280689
 21
0.332397008241932
 31
0.0
  0
LINE
  8
3
  6
CONTINUOUS
 62
3
 10
-1.1929288232409
 20
0.284212504226989
 30
0.0
 11
-1.16274172280689
 21
0.277825196662903
 31
0.0
  0
LINE
  8
3
  6
CONTINUOUS
 62
3
 10
-1.1929288232409
 20
0.326073486458871
 30
0.0
 11
-1.1929288232409
 21
0.284212504226989
 31
0.0
  0
LINE
  8
3
  6
CONTINUOUS
 62
3
 10
-0.146640692357569
 20
0.769295189949678
 30
0.0
 11
-0.16578717486202
 21
0.798117851784332
 31
0.0
  0
LINE
  8
3
  6
CONTINUOUS
 62
3
 10
-0.145592889155813
 20
0.767717851796492
 30
0.0
 11
-0.145592889155813
 21
0.737317851808652
 31
0.0
  0
LINE
  8
3
  6
CONTINUOUS
 62
3
 10
-0.125398603449604
 20
0.798117851784332
 30
0.0
 11
-0.145592889155813
 21
0.767717851796492
 31
0.0
  0
LINE
  8
3
  6
CONTINUOUS
 62
3
 10
-0.170095315371172
 20
0.264876274963148
 30
0.0
 11
-0.134440458242578
 21
0.264876274963148
 31
0.0
  0
LINE
  8
3
  6
CONTINUOUS
 62
3
 10
-0.170117029656879
 20
0.295276274950988
 30
0.0
 11
-0.170095315371172
 21
0.264876274963148
 31
0.0
  0
LINE
  8
3
  6
CONTINUOUS
 62
3
 10
-0.142257601096593
 20
0.295276274950988
 30
0.0
 11
-0.170117029656879
 21
0.295276274950988
 31
0.0
  0
LINE
  8
3
  6
CONTINUOUS
 62
3
 10
-0.170138743942584
 20
0.325676274938828
 30
0.0
 11
-0.170118332147205
 21
0.29618776140878
 31
0.0
  0
LINE
  8
3
  6
CONTINUOUS
 62
3
 10
-0.137480458242578
 20
0.325676274938828
 30
0.0
 11
-0.170138743942584
 21
0.325676274938828
 31
0.0
  0
ARC
  8
3
  6
CONTINUOUS
 62
3
 10
-0.153283192084175
 20
-0.426294448700528
 30
0.0
 40
0.017526525021561
 50
210.521999666257
 51
269.441063338049
  0
LINE
  8
3
  6
CONTINUOUS
 62
3
 10
-0.147258345615115
 20
-0.443880583656791
 30
0.0
 11
-0.153454165620062
 21
-0.443820139767685
 31
0.0
  0
ARC
  8
3
  6
CONTINUOUS
 62
3
 10
-0.147102264197742
 20
-0.427881403720983
 30
0.0
 40
0.015999941250743
 50
269.441063677774
 51
357.350682656727
  0
ARC
  8
3
  6
CONTINUOUS
 62
3
 10
-0.1441339256254
 20
-0.429801318782615
 30
0.0
 40
0.0130679177090623
 50
5.18227244383478
 51
59.3448299999968
  0
LINE
  8
3
  6
CONTINUOUS
 62
3
 10
-0.161399874875635
 20
-0.408282322676934
 30
0.0
 11
-0.137470986598953
 21
-0.418559623324159
 31
0.0
  0
ARC
  8
3
  6
CONTINUOUS
 62
3
 10
-0.154736931490305
 20
-0.397040632896657
 30
0.0
 40
0.0130679150468652
 50
185.18240644022
 51
239.344800865821
  0
ARC
  8
3
  6
CONTINUOUS
 62
3
 10
-0.151832638909546
 20
-0.39891828485298
 30
0.0
 40
0.0159340518263758
 50
91.2613438550522
 51
177.491952931064
  0
LINE
  8
3
  6
CONTINUOUS
 62
3
 10
-0.146002305828457
 20
-0.382981594466795
 30
0.0
 11
-0.152183392405703
 21
-0.382988094032071
 31
0.0
  0
ARC
  8
3
  6
CONTINUOUS
 62
3
 10
-0.146554326034208
 20
-0.399944988236333
 30
0.0
 40
0.0169723732721139
 50
29.271708496625
 51
88.1361471074768
  0
LINE
  8
3
  6
CONTINUOUS
 62
3
 10
-0.120714208041836
 20
-0.44378451242777
 30
0.0
 11
-0.120714208041836
 21
-0.38298451245209
 31
0.0
  0
LINE
  8
3
  6
CONTINUOUS
 62
3
 10
-0.0856934080418355
 20
-0.41338451243993
 30
0.0
 11
-0.118890208041836
 21
-0.41338451243993
 31
0.0
  0
LINE
  8
3
  6
CONTINUOUS
 62
3
 10
-0.0837999223423158
 20
-0.38298451245209
 30
0.0
 11
-0.0837999223423158
 21
-0.44378451242777
 31
0.0
  0
LINE
  8
3
  6
CONTINUOUS
 62
3
 10
-0.0569885003205788
 20
-0.443784516373754
 30
0.0
 11
-0.0743599248151501
 21
-0.443784516373754
 31
0.0
  0
LINE
  8
3
  6
CONTINUOUS
 62
3
 10
-0.0656742146028182
 20
-0.384808516398074
 30
0.0
 11
-0.0656742146028182
 21
-0.441960516398074
 31
0.0
  0
LINE
  8
3
  6
CONTINUOUS
 62
3
 10
-0.0570799223423157
 20
-0.382984516398074
 30
0.0
 11
-0.0743599248151501
 21
-0.382984516398074
 31
0.0
  0
LINE
  8
3
  6
CONTINUOUS
 62
3
 10
-0.0459783070588258
 20
-0.413383146774374
 30
0.0
 11
-0.0199559070588258
 21
-0.413383146774374
 31
0.0
  0
LINE
  8
3
  6
CONTINUOUS
 62
3
 10
-0.0477936213334047
 20
-0.382983146786534
 30
0.0
 11
-0.0477936213334047
 21
-0.443783146762214
 31
0.0
  0
LINE
  8
3
  6
CONTINUOUS
 62
3
 10
-0.0151787642048071
 20
-0.382983146786534
 30
0.0
 11
-0.0477936213334047
 21
-0.382983146786534
 31
0.0
  0
LINE
  8
3
  6
CONTINUOUS
 62
3
 10
0.0162555235031441
 20
-0.384828601046011
 30
0.0
 11
0.0162555235031441
 21
-0.443784508191348
 31
0.0
  0
LINE
  8
3
  6
CONTINUOUS
 62
3
 10
0.0356898048667995
 20
-0.382984508215668
 30
0.0
 11
-0.0031787665462244
 21
-0.382984508215668
 31
0.0
  0
LINE
  8
3
  6
CONTINUOUS
 62
3
 10
0.0832475174692129
 20
-0.443785145273274
 30
0.0
 11
0.118902374597807
 21
-0.443785145273274
 31
0.0
  0
LINE
  8
3
  6
CONTINUOUS
 62
3
 10
0.0832258031835065
 20
-0.413385145285434
 30
0.0
 11
0.0832475174692129
 21
-0.443785145273274
 31
0.0
  0
LINE
  8
3
  6
CONTINUOUS
 62
3
 10
0.111085231743791
 20
-0.413385145285434
 30
0.0
 11
0.0832258031835065
 21
-0.413385145285434
 31
0.0
  0
LINE
  8
3
  6
CONTINUOUS
 62
3
 10
0.083204088897801
 20
-0.382985145297594
 30
0.0
 11
0.0832245006931802
 21
-0.412473658827642
 31
0.0
  0
LINE
  8
3
  6
CONTINUOUS
 62
3
 10
0.115862374597807
 20
-0.382985145297594
 30
0.0
 11
0.083204088897801
 21
-0.382985145297594
 31
0.0
  0
LINE
  8
3
  6
CONTINUOUS
 62
3
 10
-0.114307834040667
 20
-0.561895377036852
 30
0.0
 11
-0.0786529769120725
 21
-0.561895377036852
 31
0.0
  0
LINE
  8
3
  6
CONTINUOUS
 62
3
 10
-0.114329548326373
 20
-0.531495377049011
 30
0.0
 11
-0.114307834040667
 21
-0.561895377036852
 31
0.0
  0
LINE
  8
3
  6
CONTINUOUS
 62
3
 10
-0.0864701197660889
 20
-0.531495377049011
 30
0.0
 11
-0.114329548326373
 21
-0.531495377049011
 31
0.0
  0
LINE
  8
3
  6
CONTINUOUS
 62
3
 10
-0.114351262612079
 20
-0.501095377061172
 30
0.0
 11
-0.1143308508167
 21
-0.53058389059122
 31
0.0
  0
LINE
  8
3
  6
CONTINUOUS
 62
3
 10
-0.0816929769120729
 20
-0.501095377061172
 30
0.0
 11
-0.114351262612079
 21
-0.501095377061172
 31
0.0
  0
LINE
  8
3
  6
CONTINUOUS
 62
3
 10
-0.0748129698954405
 20
-0.501094751667963
 30
0.0
 11
-0.0748129769120727
 21
-0.561894744215668
 31
0.0
  0
LINE
  8
3
  6
CONTINUOUS
 62
3
 10
-0.0374788746722787
 20
-0.561894751643643
 30
0.0
 11
-0.0748129698954405
 21
-0.501094751667963
 31
0.0
  0
LINE
  8
3
  6
CONTINUOUS
 62
3
 10
-0.0374788746722787
 20
-0.501094751667963
 30
0.0
 11
-0.0374788746722787
 21
-0.561894751643643
 31
0.0
  0
LINE
  8
3
  6
CONTINUOUS
 62
3
 10
-0.00604458696432753
 20
-0.50293883280959
 30
0.0
 11
-0.00604458696432753
 21
-0.561894739954926
 31
0.0
  0
LINE
  8
3
  6
CONTINUOUS
 62
3
 10
0.0133896943993275
 20
-0.501094739979246
 30
0.0
 11
-0.0254788770136964
 21
-0.501094739979246
 31
0.0
  0
LINE
  8
3
  6
CONTINUOUS
 62
3
 10
0.0201245498727811
 20
-0.561895377036852
 30
0.0
 11
0.0557794070013755
 21
-0.561895377036852
 31
0.0
  0
LINE
  8
3
  6
CONTINUOUS
 62
3
 10
0.0201028355870747
 20
-0.531495377049011
 30
0.0
 11
0.0201245498727811
 21
-0.561895377036852
 31
0.0
  0
LINE
  8
3
  6
CONTINUOUS
 62
3
 10
0.0479622641473596
 20
-0.531495377049011
 30
0.0
 11
0.0201028355870747
 21
-0.531495377049011
 31
0.0
  0
LINE
  8
3
  6
CONTINUOUS
 62
3
 10
0.0200811213013692
 20
-0.501095377061172
 30
0.0
 11
0.0201015330967484
 21
-0.53058389059122
 31
0.0
  0
LINE
  8
3
  6
CONTINUOUS
 62
3
 10
0.0527394070013756
 20
-0.501095377061172
 30
0.0
 11
0.0200811213013692
 21
-0.501095377061172
 31
0.0
  0
LINE
  8
3
  6
CONTINUOUS
 62
3
 10
0.0618594070013754
 20
-0.501094744215668
 30
0.0
 11
0.0618594070013754
 21
-0.561894744191348
 31
0.0
  0
LINE
  8
3
  6
CONTINUOUS
 62
3
 10
0.0839211212782676
 20
-0.501094744215667
 30
0.0
 11
0.0618594070013754
 21
-0.501094744215668
 31
0.0
  0
ARC
  8
3
  6
CONTINUOUS
 62
3
 10
0.0836281829672083
 20
-0.516294721707742
 30
0.0
 40
0.0152028000254448
 50
271.095264000542
 51
88.89591603932
  0
LINE
  8
3
  6
CONTINUOUS
 62
3
 10
0.0638547814306372
 20
-0.531494744113868
 30
0.0
 11
0.0839187814306377
 21
-0.531494744113868
 31
0.0
  0
LINE
  8
3
  6
CONTINUOUS
 62
3
 10
0.0991211212721859
 20
-0.561894744191348
 30
0.0
 11
0.0847850089625406
 21
-0.533226942604308
 31
0.0
  0
LINE
  8
3
  6
CONTINUOUS
 62
3
 10
-0.17302115512418
 20
-0.662633213971782
 30
0.0
 11
-0.17302115512418
 21
-0.619204984452089
 31
0.0
  0
ARC
  8
3
  6
CONTINUOUS
 62
3
 10
-0.15521629570366
 20
-0.662346076782063
 30
0.0
 40
0.0178071745863907
 50
180.923923222651
 51
0.472476699575142
  0
LINE
  8
3
  6
CONTINUOUS
 62
3
 10
-0.137409726566995
 20
-0.619204984452089
 30
0.0
 11
-0.137409726566995
 21
-0.662199235604667
 31
0.0
  0
ARC
  8
3
  6
CONTINUOUS
 62
3
 10
-0.153283192084175
 20
-0.780625156700527
 30
0.0
 40
0.0175265250215614
 50
210.521999666259
 51
269.441063338051
  0
LINE
  8
3
  6
CONTINUOUS
 62
3
 10
-0.147258345615114
 20
-0.798211291656791
 30
0.0
 11
-0.153454165620062
 21
-0.798150847767684
 31
0.0
  0
ARC
  8
3
  6
CONTINUOUS
 62
3
 10
-0.147102264197742
 20
-0.782212111720983
 30
0.0
 40
0.0159999412507428
 50
269.441063677775
 51
357.350682656728
  0
ARC
  8
3
  6
CONTINUOUS
 62
3
 10
-0.1441339256254
 20
-0.784132026782614
 30
0.0
 40
0.0130679177090621
 50
5.18227244383264
 51
59.3448299999948
  0
LINE
  8
3
  6
CONTINUOUS
 62
3
 10
-0.161399874875634
 20
-0.762613030676934
 30
0.0
 11
-0.137470986598952
 21
-0.772890331324159
 31
0.0
  0
ARC
  8
3
  6
CONTINUOUS
 62
3
 10
-0.154736931490304
 20
-0.751371340896657
 30
0.0
 40
0.0130679150468656
 50
185.182406440222
 51
239.344800865823
  0
ARC
  8
3
  6
CONTINUOUS
 62
3
 10
-0.151832638909546
 20
-0.75324899285298
 30
0.0
 40
0.0159340518263758
 50
91.2613438550542
 51
177.491952931066
  0
LINE
  8
3
  6
CONTINUOUS
 62
3
 10
-0.146002305828457
 20
-0.737312302466795
 30
0.0
 11
-0.152183392405703
 21
-0.737318802032071
 31
0.0
  0
ARC
  8
3
  6
CONTINUOUS
 62
3
 10
-0.146554326034208
 20
-0.754275696236333
 30
0.0
 40
0.0169723732721139
 50
29.2717084966252
 51
88.1361471074769
  0
LINE
  8
3
  6
CONTINUOUS
 62
3
 10
-0.120714208041835
 20
-0.798115220427769
 30
0.0
 11
-0.120714208041835
 21
-0.73731522045209
 31
0.0
  0
LINE
  8
3
  6
CONTINUOUS
 62
3
 10
-0.085693408041835
 20
-0.76771522043993
 30
0.0
 11
-0.118890208041835
 21
-0.76771522043993
 31
0.0
  0
LINE
  8
3
  6
CONTINUOUS
 62
3
 10
-0.0837999223423154
 20
-0.73731522045209
 30
0.0
 11
-0.0837999223423154
 21
-0.798115220427769
 31
0.0
  0
LINE
  8
3
  6
CONTINUOUS
 62
3
 10
-0.0569885003205783
 20
-0.798115224373754
 30
0.0
 11
-0.0743599248151501
 21
-0.798115224373754
 31
0.0
  0
LINE
  8
3
  6
CONTINUOUS
 62
3
 10
-0.0656742146028173
 20
-0.739139224398074
 30
0.0
 11
-0.0656742146028173
 21
-0.796291224398074
 31
0.0
  0
LINE
  8
3
  6
CONTINUOUS
 62
3
 10
-0.0570799223423153
 20
-0.737315224398074
 30
0.0
 11
-0.0743599248151501
 21
-0.737315224398074
 31
0.0
  0
LINE
  8
3
  6
CONTINUOUS
 62
3
 10
-0.0459783070588253
 20
-0.767713854774375
 30
0.0
 11
-0.0199559070588253
 21
-0.767713854774375
 31
0.0
  0
LINE
  8
3
  6
CONTINUOUS
 62
3
 10
-0.0477936213334047
 20
-0.737313854786535
 30
0.0
 11
-0.0477936213334047
 21
-0.798113854762215
 31
0.0
  0
LINE
  8
3
  6
CONTINUOUS
 62
3
 10
-0.0151787642048071
 20
-0.737313854786535
 30
0.0
 11
-0.0477936213334047
 21
-0.737313854786535
 31
0.0
  0
LINE
  8
3
  6
CONTINUOUS
 62
3
 10
0.0162555235031445
 20
-0.739159309046012
 30
0.0
 11
0.0162555235031445
 21
-0.798115216191348
 31
0.0
  0
LINE
  8
3
  6
CONTINUOUS
 62
3
 10
0.0356898048667995
 20
-0.737315216215668
 30
0.0
 11
-0.00317876654622395
 21
-0.737315216215668
 31
0.0
  0
LINE
  8
3
  6
CONTINUOUS
 62
3
 10
0.0825926619957595
 20
-0.780743449971783
 30
0.0
 11
0.0825926619957595
 21
-0.73731522045209
 31
0.0
  0
ARC
  8
3
  6
CONTINUOUS
 62
3
 10
0.10039752141628
 20
-0.780456312782063
 30
0.0
 40
0.0178071745863907
 50
180.923923222651
 51
0.472476699575142
  0
LINE
  8
3
  6
CONTINUOUS
 62
3
 10
0.118204090552944
 20
-0.73731522045209
 30
0.0
 11
0.118204090552944
 21
-0.780309471604668
 31
0.0
  0
LINE
  8
3
  6
CONTINUOUS
 62
3
 10
-0.114307834040667
 20
0.0286558029631484
 30
0.0
 11
-0.0786529769120721
 21
0.0286558029631484
 31
0.0
  0
LINE
  8
3
  6
CONTINUOUS
 62
3
 10
-0.114329548326373
 20
0.0590558029509884
 30
0.0
 11
-0.114307834040667
 21
0.0286558029631484
 31
0.0
  0
LINE
  8
3
  6
CONTINUOUS
 62
3
 10
-0.0864701197660884
 20
0.0590558029509884
 30
0.0
 11
-0.114329548326373
 21
0.0590558029509884
 31
0.0
  0
LINE
  8
3
  6
CONTINUOUS
 62
3
 10
-0.114351262612079
 20
0.0894558029388283
 30
0.0
 11
-0.1143308508167
 21
0.0599672894087803
 31
0.0
  0
LINE
  8
3
  6
CONTINUOUS
 62
3
 10
-0.081692976912072
 20
0.0894558029388283
 30
0.0
 11
-0.114351262612079
 21
0.0894558029388283
 31
0.0
  0
LINE
  8
3
  6
CONTINUOUS
 62
3
 10
-0.0748129698954401
 20
0.0894564283320366
 30
0.0
 11
-0.0748129769120722
 21
0.0286564357843323
 31
0.0
  0
LINE
  8
3
  6
CONTINUOUS
 62
3
 10
-0.0374788746722783
 20
0.0286564283563573
 30
0.0
 11
-0.0748129698954401
 21
0.0894564283320366
 31
0.0
  0
LINE
  8
3
  6
CONTINUOUS
 62
3
 10
-0.0374788746722783
 20
0.0894564283320366
 30
0.0
 11
-0.0374788746722783
 21
0.0286564283563573
 31
0.0
  0
LINE
  8
3
  6
CONTINUOUS
 62
3
 10
-0.00604458696432708
 20
0.0876123471904104
 30
0.0
 11
-0.00604458696432708
 21
0.028656440045074
 31
0.0
  0
LINE
  8
3
  6
CONTINUOUS
 62
3
 10
0.0133896943993279
 20
0.089456440020754
 30
0.0
 11
-0.0254788770136956
 21
0.089456440020754
 31
0.0
  0
LINE
  8
3
  6
CONTINUOUS
 62
3
 10
0.0201245498727816
 20
0.0286558029631484
 30
0.0
 11
0.055779407001376
 21
0.0286558029631484
 31
0.0
  0
LINE
  8
3
  6
CONTINUOUS
 62
3
 10
0.0201028355870752
 20
0.0590558029509884
 30
0.0
 11
0.0201245498727816
 21
0.0286558029631484
 31
0.0
  0
LINE
  8
3
  6
CONTINUOUS
 62
3
 10
0.04796226414736
 20
0.0590558029509884
 30
0.0
 11
0.0201028355870752
 21
0.0590558029509884
 31
0.0
  0
LINE
  8
3
  6
CONTINUOUS
 62
3
 10
0.0200811213013696
 20
0.0894558029388283
 30
0.0
 11
0.0201015330967489
 21
0.0599672894087803
 31
0.0
  0
LINE
  8
3
  6
CONTINUOUS
 62
3
 10
0.052739407001376
 20
0.0894558029388283
 30
0.0
 11
0.0200811213013696
 21
0.0894558029388283
 31
0.0
  0
LINE
  8
3
  6
CONTINUOUS
 62
3
 10
0.0618594070013758
 20
0.0894564357843323
 30
0.0
 11
0.0618594070013758
 21
0.0286564358086522
 31
0.0
  0
LINE
  8
3
  6
CONTINUOUS
 62
3
 10
0.083921121278268
 20
0.0894564357843327
 30
0.0
 11
0.0618594070013758
 21
0.0894564357843323
 31
0.0
  0
ARC
  8
3
  6
CONTINUOUS
 62
3
 10
0.0836281829672088
 20
0.074256458292258
 30
0.0
 40
0.0152028000254448
 50
271.095264000542
 51
88.89591603932
  0
LINE
  8
3
  6
CONTINUOUS
 62
3
 10
0.0638547814306376
 20
0.0590564358861325
 30
0.0
 11
0.0839187814306381
 21
0.0590564358861325
 31
0.0
  0
LINE
  8
3
  6
CONTINUOUS
 62
3
 10
0.0991211212721863
 20
0.0286564358086522
 30
0.0
 11
0.0847850089625415
 21
0.0573242373956916
 31
0.0
  0
ARC
  8
3
  6
CONTINUOUS
 62
3
 10
-0.153283192084176
 20
0.636697675299473
 30
0.0
 40
0.0175265250215609
 50
210.521999666258
 51
269.44106333805
  0
LINE
  8
3
  6
CONTINUOUS
 62
3
 10
-0.147258345615115
 20
0.619111540343209
 30
0.0
 11
-0.153454165620062
 21
0.619171984232316
 31
0.0
  0
ARC
  8
3
  6
CONTINUOUS
 62
3
 10
-0.147102264197742
 20
0.635110720279017
 30
0.0
 40
0.0159999412507428
 50
269.441063677775
 51
357.350682656728
  0
ARC
  8
3
  6
CONTINUOUS
 62
3
 10
-0.1441339256254
 20
0.633190805217386
 30
0.0
 40
0.0130679177090624
 50
5.1822724438318
 51
59.3448299999939
  0
LINE
  8
3
  6
CONTINUOUS
 62
3
 10
-0.161399874875634
 20
0.654709801323067
 30
0.0
 11
-0.137470986598953
 21
0.644432500675842
 31
0.0
  0
ARC
  8
3
  6
CONTINUOUS
 62
3
 10
-0.154736931490305
 20
0.665951491103344
 30
0.0
 40
0.0130679150468653
 50
185.182406440222
 51
212.263603653023
  0
ARC
  8
3
  6
CONTINUOUS
 62
3
 10
-0.151832638909546
 20
0.664073839147021
 30
0.0
 40
0.0159340518263757
 50
91.2613438550537
 51
177.491952931065
  0
LINE
  8
3
  6
CONTINUOUS
 62
3
 10
-0.146002305828457
 20
0.680010529533206
 30
0.0
 11
-0.152183392405703
 21
0.680004029967929
 31
0.0
  0
ARC
  8
3
  6
CONTINUOUS
 62
3
 10
-0.146554326034208
 20
0.663047135763667
 30
0.0
 40
0.016972373272114
 50
29.2717084966245
 51
88.1361471074763
  0
ARC
  8
3
  6
CONTINUOUS
 62
3
 10
0.198616196030757
 20
0.641369567677655
 30
0.0
 40
0.0223591391910564
 50
204.38683723701
 51
324.320000000004
  0
ARC
  8
3
  6
CONTINUOUS
 62
3
 10
0.229556357021539
 20
0.649509016606438
 30
0.0
 40
0.0541655474069072
 50
161.294134617644
 51
198.705865382356
  0
ARC
  8
3
  6
CONTINUOUS
 62
3
 10
0.198616200373614
 20
0.657648468013998
 30
0.0
 40
0.0223591435339135
 50
35.68002999999
 51
155.613174782251
  0
LINE
  8
3
  6
CONTINUOUS
 62
3
 10
-1.1023622045
 20
0.506551904829839
 30
0.0
 11
-1.33806565832916
 21
0.506551904829839
 31
0.0
  0
LINE
  8
3
  6
CONTINUOUS
 62
3
 10
-1.1023622045
 20
0.470557629411864
 30
0.0
 11
-1.1023622045
 21
0.506551904829839
 31
0.0
  0
LINE
  8
3
  6
CONTINUOUS
 62
3
 10
-1.33806565832916
 20
0.470557629411864
 30
0.0
 11
-1.1023622045
 21
0.470557629411864
 31
0.0
  0
LINE
  8
3
  6
CONTINUOUS
 62
3
 10
-1.33806565832916
 20
0.409018643560564
 30
0.0
 11
-1.33806565832916
 21
0.470557629411864
 31
0.0
  0
LINE
  8
3
  6
CONTINUOUS
 62
3
 10
-1.36825541748261
 20
0.409018643560564
 30
0.0
 11
-1.33806565832916
 21
0.409018643560564
 31
0.0
  0
LINE
  8
3
  6
CONTINUOUS
 62
3
 10
-1.36825541748261
 20
0.569251421713325
 30
0.0
 11
-1.36825541748261
 21
0.409018643560564
 31
0.0
  0
LINE
  8
3
  6
CONTINUOUS
 62
3
 10
-1.33806565832916
 20
0.569251421713325
 30
0.0
 11
-1.36825541748261
 21
0.569251421713325
 31
0.0
  0
LINE
  8
3
  6
CONTINUOUS
 62
3
 10
-1.33806565832916
 20
0.506551904829839
 30
0.0
 11
-1.33806565832916
 21
0.569251421713325
 31
0.0
  0
ARC
  8
3
  6
CONTINUOUS
 62
3
 10
-0.154736931490305
 20
0.665951491103344
 30
0.0
 40
0.0130679150468656
 50
212.263603653022
 51
239.344800865823
  0
LINE
  8
4
  6
CONTINUOUS
 62
4
 10
-1.36825541748261
 20
0.594782040933657
 30
0.0
 11
-1.2353088109913
 21
0.594782040933657
 31
0.0
  0
LINE
  8
4
  6
CONTINUOUS
 62
4
 10
-1.36825541748261
 20
0.630775252863863
 30
0.0
 11
-1.36825541748261
 21
0.594782040933657
 31
0.0
  0
LINE
  8
4
  6
CONTINUOUS
 62
4
 10
-1.1023622045
 20
0.630775252863863
 30
0.0
 11
-1.36825541748261
 21
0.630775252863863
 31
0.0
  0
LINE
  8
4
  6
CONTINUOUS
 62
4
 10
-1.1023622045
 20
0.594782040933657
 30
0.0
 11
-1.1023622045
 21
0.630775252863863
 31
0.0
  0
LINE
  8
4
  6
CONTINUOUS
 62
4
 10
-1.2353088109913
 20
0.594782040933657
 30
0.0
 11
-1.1023622045
 21
0.594782040933657
 31
0.0
  0
LINE
  8
4
  6
CONTINUOUS
 62
4
 10
0.984251968499998
 20
0.787401574499998
 30
0.0
 11
0.984251968500001
 21
-0.787401574500001
 31
0.0
  0
ARC
  8
4
  6
CONTINUOUS
 62
4
 10
-0.787401574500001
 20
0.7874015745
 30
0.0
 40
0.196850394
 50
89.9999999999996
 51
180
  0
ARC
  8
4
  6
CONTINUOUS
 62
4
 10
0.787401574499998
 20
0.787401574500004
 30
0.0
 40
0.196850394
 50
359.999999999998
 51
89.9999999999996
  0
ARC
  8
4
  6
CONTINUOUS
 62
4
 10
0.787401574500005
 20
-0.7874015745
 30
0.0
 40
0.196850394
 50
269.999999999998
 51
359.999999999998
  0
ARC
  8
4
  6
CONTINUOUS
 62
4
 10
-0.787401574754692
 20
-0.787401575103523
 30
0.0
 40
0.196850393396481
 50
224.239167879734
 51
269.999999928599
  0
ARC
  8
4
  6
CONTINUOUS
 62
4
 10
-0.787401575103523
 20
-0.78740157474531
 30
0.0
 40
0.196850393396477
 50
180.00000007413
 51
224.239168025265
  0
LINE
  8
4
  6
CONTINUOUS
 62
4
 10
-0.984251968499999
 20
0.787401574499999
 30
0.0
 11
-0.984251968500001
 21
-0.787401574500002
 31
0.0
  0
LINE
  8
4
  6
CONTINUOUS
 62
4
 10
0.787401574500001
 20
-0.9842519685
 30
0.0
 11
-0.787401574500002
 21
-0.984251968500001
 31
0.0
  0
LINE
  8
4
  6
CONTINUOUS
 62
4
 10
-0.787401574499999
 20
0.9842519685
 30
0.0
 11
0.787401574499998
 21
0.9842519685
 31
0.0
  0
LINE
  8
4
  6
CONTINUOUS
 62
4
 10
-1.29660558750232
 20
0.764955239299797
 30
0.0
 11
-1.23531944586903
 21
0.764955239299797
 31
0.0
  0
ARC
  8
4
  6
CONTINUOUS
 62
4
 10
-1.29660558750232
 20
0.727216179254391
 30
0.0
 40
0.0377390600454062
 50
90
 51
270
  0
LINE
  8
4
  6
CONTINUOUS
 62
4
 10
-1.17403330423574
 20
0.689477119208985
 30
0.0
 11
-1.29660558750232
 21
0.689477119208985
 31
0.0
  0
ARC
  8
4
  6
CONTINUOUS
 62
4
 10
-1.17403285119372
 20
0.727216598586693
 30
0.0
 40
0.0377394793804281
 50
269.999312195172
 51
345.521838354125
  0
LINE
  8
4
  6
CONTINUOUS
 62
4
 10
-1.10300561460261
 20
0.717781314541061
 30
0.0
 11
-1.1374918643586
 21
0.717781314541061
 31
0.0
  0
ARC
  8
4
  6
CONTINUOUS
 62
4
 10
-1.17403230273596
 20
0.727216289462264
 30
0.0
 40
0.0716506048750145
 50
269.999199145476
 51
352.433297341487
  0
LINE
  8
4
  6
CONTINUOUS
 62
4
 10
-1.29660558750232
 20
0.655565418722305
 30
0.0
 11
-1.17403330423574
 21
0.655565684594249
 31
0.0
  0
ARC
  8
4
  6
CONTINUOUS
 62
4
 10
-1.29660558750232
 20
0.727215115766618
 30
0.0
 40
0.071649697044313
 50
90
 51
270
  0
LINE
  8
4
  6
CONTINUOUS
 62
4
 10
-1.17403330423574
 20
0.798864812810931
 30
0.0
 11
-1.29660558750232
 21
0.798864812810931
 31
0.0
  0
ARC
  8
4
  6
CONTINUOUS
 62
4
 10
-1.17403218199301
 20
0.72721406351982
 30
0.0
 40
0.0716507492999
 50
7.56830513434435
 51
90.0008974054399
  0
LINE
  8
4
  6
CONTINUOUS
 62
4
 10
-1.1374918643586
 20
0.736651043967721
 30
0.0
 11
-1.10300561460261
 21
0.736651043967721
 31
0.0
  0
ARC
  8
4
  6
CONTINUOUS
 62
4
 10
-1.17403264578754
 20
0.727215670606007
 30
0.0
 40
0.0377393028275913
 50
14.4783709045356
 51
90.0009996555312
  0
LINE
  8
4
  6
CONTINUOUS
 62
4
 10
-1.23531944586903
 20
0.764955239299797
 30
0.0
 11
-1.17403330423574
 21
0.764954973427854
 31
0.0
  0
LINE
  8
4
  6
CONTINUOUS
 62
4
 10
-1.36825541748261
 20
0.950217999803794
 30
0.0
 11
-1.13951829574712
 21
0.950217999803794
 31
0.0
  0
LINE
  8
4
  6
CONTINUOUS
 62
4
 10
-1.36825541748261
 20
0.985047490238493
 30
0.0
 11
-1.36825541748261
 21
0.950217999803794
 31
0.0
  0
LINE
  8
4
  6
CONTINUOUS
 62
4
 10
-1.2353088109913
 20
0.985047490238493
 30
0.0
 11
-1.36825541748261
 21
0.985047490238493
 31
0.0
  0
LINE
  8
4
  6
CONTINUOUS
 62
4
 10
-1.1023622045
 20
0.928153553107316
 30
0.0
 11
-1.1023622045
 21
0.985047490238493
 31
0.0
  0
LINE
  8
4
  6
CONTINUOUS
 62
4
 10
-1.32529317017653
 20
0.858487127823506
 30
0.0
 11
-1.1023622045
 21
0.928153553107316
 31
0.0
  0
LINE
  8
4
  6
CONTINUOUS
 62
4
 10
-1.1023622045
 20
0.858487127823506
 30
0.0
 11
-1.32529317017653
 21
0.858487127823506
 31
0.0
  0
LINE
  8
4
  6
CONTINUOUS
 62
4
 10
-1.1023622045
 20
0.823655244541317
 30
0.0
 11
-1.1023622045
 21
0.858487127823506
 31
0.0
  0
LINE
  8
4
  6
CONTINUOUS
 62
4
 10
-1.36825541748261
 20
0.823655244541317
 30
0.0
 11
-1.1023622045
 21
0.823655244541317
 31
0.0
  0
LINE
  8
4
  6
CONTINUOUS
 62
4
 10
-1.36825541748261
 20
0.880549181672495
 30
0.0
 11
-1.36825541748261
 21
0.823655244541317
 31
0.0
  0
LINE
  8
4
  6
CONTINUOUS
 62
4
 10
-1.13951829574712
 20
0.950217999803794
 30
0.0
 11
-1.36825541748261
 21
0.880549181672495
 31
0.0
  0
LINE
  8
4
  6
CONTINUOUS
 62
4
 10
-1.1023622045
 20
0.985047490238493
 30
0.0
 11
-1.2353088109913
 21
0.985047490238493
 31
0.0
  0
LINE
  8
4
  6
CONTINUOUS
 62
4
 10
-0.143712579575325
 20
0.510415353035484
 30
0.0
 11
-0.143712579575325
 21
0.571215371061164
 31
0.0
  0
LINE
  8
4
  6
CONTINUOUS
 62
4
 10
-0.143712579575325
 20
0.571215371061164
 30
0.0
 11
-0.121650858748863
 21
0.571215371061165
 31
0.0
  0
ARC
  8
4
  6
CONTINUOUS
 62
4
 10
-0.122554169424134
 20
0.556015366554745
 30
0.0
 40
0.015226821965573
 50
273.400991681353
 51
86.5990083186456
  0
LINE
  8
4
  6
CONTINUOUS
 62
4
 10
-0.121650858748863
 20
0.540815362048325
 30
0.0
 11
-0.142800579304575
 21
0.540815362048324
 31
0.0
  0
LINE
  8
4
  6
CONTINUOUS
 62
4
 10
-0.100370852437443
 20
0.571215371061164
 30
0.0
 11
-0.100370852437443
 21
0.527787128648716
 31
0.0
  0
ARC
  8
4
  6
CONTINUOUS
 62
4
 10
-0.0825659877311051
 20
0.528074265923679
 30
0.0
 40
0.0178071798728956
 50
180.923923222652
 51
0.472476699575231
  0
LINE
  8
4
  6
CONTINUOUS
 62
4
 10
-0.0647594133081152
 20
0.528221107144668
 30
0.0
 11
-0.0647594133081158
 21
0.571215371061164
 31
0.0
  0
LINE
  8
4
  6
CONTINUOUS
 62
4
 10
-0.0556394106006158
 20
0.510415353035484
 30
0.0
 11
-0.0556394106006158
 21
0.571215371061164
 31
0.0
  0
LINE
  8
4
  6
CONTINUOUS
 62
4
 10
-0.0556394106006158
 20
0.571215371061164
 30
0.0
 11
-0.0335776897741522
 21
0.571215371061165
 31
0.0
  0
ARC
  8
4
  6
CONTINUOUS
 62
4
 10
-0.0338706281721777
 20
0.556015389056597
 30
0.0
 40
0.0152028045387761
 50
271.095264000543
 51
88.8959160393196
  0
LINE
  8
4
  6
CONTINUOUS
 62
4
 10
-0.033580029622477
 20
0.540815362137964
 30
0.0
 11
-0.0536440355789776
 21
0.540815362137964
 31
0.0
  0
LINE
  8
4
  6
CONTINUOUS
 62
4
 10
-0.0327138018334123
 20
0.539083163133277
 30
0.0
 11
-0.0183776852677342
 21
0.510415353035484
 31
0.0
  0
LINE
  8
4
  6
CONTINUOUS
 62
4
 10
-0.0107776830114855
 20
0.510415353035484
 30
0.0
 11
-0.0107776830114855
 21
0.571215371061164
 31
0.0
  0
LINE
  8
4
  6
CONTINUOUS
 62
4
 10
-0.0107776830114855
 20
0.571215371061164
 30
0.0
 11
0.0112840378149762
 21
0.571215371061165
 31
0.0
  0
ARC
  8
4
  6
CONTINUOUS
 62
4
 10
0.0103807271397054
 20
0.556015366554745
 30
0.0
 40
0.015226821965573
 50
273.400991681353
 51
86.5990083186456
  0
LINE
  8
4
  6
CONTINUOUS
 62
4
 10
0.0112840378149768
 20
0.540815362048325
 30
0.0
 11
-0.00986568274073546
 21
0.540815362048324
 31
0.0
  0
LINE
  8
4
  6
CONTINUOUS
 62
4
 10
0.0325640441263968
 20
0.571215371061164
 30
0.0
 11
0.0325640441263968
 21
0.510415353035484
 31
0.0
  0
LINE
  8
4
  6
CONTINUOUS
 62
4
 10
0.0325640441263968
 20
0.510415353035484
 30
0.0
 11
0.0682189118400277
 21
0.510415353035484
 31
0.0
  0
LINE
  8
4
  6
CONTINUOUS
 62
4
 10
0.111911494554427
 20
0.510414720189792
 30
0.0
 11
0.0762566268407971
 21
0.510414720189792
 31
0.0
  0
LINE
  8
4
  6
CONTINUOUS
 62
4
 10
0.0762566268407971
 20
0.510414720189792
 30
0.0
 11
0.0762349125486444
 21
0.540814729202632
 31
0.0
  0
LINE
  8
4
  6
CONTINUOUS
 62
4
 10
0.0762349125486444
 20
0.540814729202632
 30
0.0
 11
0.104094349379697
 21
0.540814729202632
 31
0.0
  0
LINE
  8
4
  6
CONTINUOUS
 62
4
 10
0.0762336100579313
 20
0.541726215931022
 30
0.0
 11
0.0762131982564924
 21
0.571214738215472
 31
0.0
  0
LINE
  8
4
  6
CONTINUOUS
 62
4
 10
0.0762131982564924
 20
0.571214738215472
 30
0.0
 11
0.108871493651927
 21
0.571214738215472
 31
0.0
  0
ARC
  8
4
  6
CONTINUOUS
 62
4
 10
0.20508948525664
 20
0.527905421955089
 30
0.0
 40
0.0175265302247481
 50
210.521999666258
 51
269.44106333805
  0
LINE
  8
4
  6
CONTINUOUS
 62
4
 10
0.204918511669995
 20
0.510379725684992
 30
0.0
 11
0.211114333514327
 21
0.510319281777941
 31
0.0
  0
ARC
  8
4
  6
CONTINUOUS
 62
4
 10
0.211270414978036
 20
0.526318466463506
 30
0.0
 40
0.0159999460007254
 50
269.441063677776
 51
357.350682656729
  0
ARC
  8
4
  6
CONTINUOUS
 62
4
 10
0.214238754431604
 20
0.5243985508319
 30
0.0
 40
0.0130679215886
 50
5.18227244383246
 51
59.3448299999945
  0
LINE
  8
4
  6
CONTINUOUS
 62
4
 10
0.220901695436111
 20
0.535640249627734
 30
0.0
 11
0.19697280005554
 21
0.545917553326033
 31
0.0
  0
ARC
  8
4
  6
CONTINUOUS
 62
4
 10
0.203635745418931
 20
0.557159246443686
 30
0.0
 40
0.0130679189264028
 50
185.182406440223
 51
239.344800865824
  0
ARC
  8
4
  6
CONTINUOUS
 62
4
 10
0.206540038861902
 20
0.555281593929935
 30
0.0
 40
0.0159340565567974
 50
91.2613438550532
 51
177.491952931064
  0
LINE
  8
4
  6
CONTINUOUS
 62
4
 10
0.206189285261615
 20
0.571211789480119
 30
0.0
 11
0.212370373673871
 21
0.571218289047325
 31
0.0
  0
ARC
  8
4
  6
CONTINUOUS
 62
4
 10
0.211818353304239
 20
0.554254890241779
 30
0.0
 40
0.0169723783107871
 50
29.2717084966249
 51
88.1361471074766
  0
LINE
  8
4
  6
CONTINUOUS
 62
4
 10
0.263705276133444
 20
0.525975347866621
 30
0.0
 11
0.282992733501112
 21
0.511252096760117
 31
0.0
  0
ARC
  8
4
  6
CONTINUOUS
 62
4
 10
0.261221456425624
 20
0.528283564093806
 30
0.0
 40
0.0180813173606574
 50
195.902080827326
 51
315.740300551129
  0
ARC
  8
4
  6
CONTINUOUS
 62
4
 10
0.295136481526801
 20
0.540700840236018
 30
0.0
 40
0.0541655634873014
 50
161.294116943041
 51
198.705883056959
  0
ARC
  8
4
  6
CONTINUOUS
 62
4
 10
0.261221454192698
 20
0.553141200419916
 30
0.0
 40
0.0180750078363618
 50
15.8327716419908
 51
164.168294355361
  0
ARC
  8
4
  6
CONTINUOUS
 62
4
 10
0.228023588704026
 20
0.54101722221454
 30
0.0
 40
0.0533848827922645
 50
335.052800670303
 51
18.6314696013481
  0
LINE
  8
4
  6
CONTINUOUS
 62
4
 10
0.288593295295499
 20
0.571215371061164
 30
0.0
 11
0.288593295295499
 21
0.527787128648716
 31
0.0
  0
ARC
  8
4
  6
CONTINUOUS
 62
4
 10
0.306398160001836
 20
0.528074265923679
 30
0.0
 40
0.0178071798728956
 50
180.923923222652
 51
0.472476699575231
  0
LINE
  8
4
  6
CONTINUOUS
 62
4
 10
0.324204734424826
 20
0.528221107144668
 30
0.0
 11
0.324204734424825
 21
0.571215371061164
 31
0.0
  0
LINE
  8
4
  6
CONTINUOUS
 62
4
 10
0.330284736229825
 20
0.510415353035484
 30
0.0
 11
0.353084742989456
 21
0.571215371061164
 31
0.0
  0
LINE
  8
4
  6
CONTINUOUS
 62
4
 10
0.353084742989456
 20
0.571215371061164
 30
0.0
 11
0.375884749749086
 21
0.510415353035484
 31
0.0
  0
LINE
  8
4
  6
CONTINUOUS
 62
4
 10
0.336994452505532
 20
0.523443928326701
 30
0.0
 11
0.369175033473379
 21
0.523443928326701
 31
0.0
  0
LINE
  8
4
  6
CONTINUOUS
 62
4
 10
0.385004752456586
 20
0.510415353035484
 30
0.0
 11
0.385004752456586
 21
0.571215371061164
 31
0.0
  0
LINE
  8
4
  6
CONTINUOUS
 62
4
 10
0.385004752456586
 20
0.571215371061164
 30
0.0
 11
0.40706647328305
 21
0.571215371061165
 31
0.0
  0
ARC
  8
4
  6
CONTINUOUS
 62
4
 10
0.406773534885024
 20
0.556015389056597
 30
0.0
 40
0.0152028045387761
 50
271.095264000543
 51
88.8959160393196
  0
LINE
  8
4
  6
CONTINUOUS
 62
4
 10
0.407064133434725
 20
0.540815362137964
 30
0.0
 11
0.387000127478224
 21
0.540815362137964
 31
0.0
  0
LINE
  8
4
  6
CONTINUOUS
 62
4
 10
0.407930361223789
 20
0.539083163133277
 30
0.0
 11
0.422266477789468
 21
0.510415353035484
 31
0.0
  0
LINE
  8
4
  6
CONTINUOUS
 62
4
 10
0.464656202975961
 20
0.510414720189792
 30
0.0
 11
0.429001335262331
 21
0.510414720189792
 31
0.0
  0
LINE
  8
4
  6
CONTINUOUS
 62
4
 10
0.429001335262331
 20
0.510414720189792
 30
0.0
 11
0.428979620970178
 21
0.540814729202632
 31
0.0
  0
LINE
  8
4
  6
CONTINUOUS
 62
4
 10
0.428979620970178
 20
0.540814729202632
 30
0.0
 11
0.456839057801231
 21
0.540814729202632
 31
0.0
  0
LINE
  8
4
  6
CONTINUOUS
 62
4
 10
0.428978318479465
 20
0.541726215931022
 30
0.0
 11
0.428957906678026
 21
0.571214738215472
 31
0.0
  0
LINE
  8
4
  6
CONTINUOUS
 62
4
 10
0.428957906678026
 20
0.571214738215472
 30
0.0
 11
0.461616202073461
 21
0.571214738215472
 31
0.0
  0
LINE
  8
5
  6
CONTINUOUS
 62
5
 10
-0.143712578800741
 20
0.41328854884286
 30
0.0
 11
-0.121754622772561
 21
0.41328854884286
 31
0.0
  0
ARC
  8
5
  6
CONTINUOUS
 62
5
 10
-0.12175942943644
 20
0.39808854509644
 30
0.0
 40
0.0152000045064201
 50
270.000000002515
 51
89.981881481792
  0
LINE
  8
5
  6
CONTINUOUS
 62
5
 10
-0.121759429435773
 20
0.38288854059002
 30
0.0
 11
-0.145536579342241
 21
0.38288854059002
 31
0.0
  0
LINE
  8
5
  6
CONTINUOUS
 62
5
 10
-0.145536579342241
 20
0.38288854059002
 30
0.0
 11
-0.145536579342241
 21
0.443612938744098
 31
0.0
  0
LINE
  8
5
  6
CONTINUOUS
 62
5
 10
-0.145536579342241
 20
0.443612938744098
 30
0.0
 11
-0.124473715954772
 21
0.443612938744098
 31
0.0
  0
ARC
  8
5
  6
CONTINUOUS
 62
5
 10
-0.124595176921189
 20
0.42835201000806
 30
0.0
 40
0.0152614120792541
 50
296.191824756095
 51
89.5439953928139
  0
LINE
  8
5
  6
CONTINUOUS
 62
5
 10
-0.100479423125021
 20
0.443612938744098
 30
0.0
 11
-0.100479423125021
 21
0.382812920718419
 31
0.0
  0
LINE
  8
5
  6
CONTINUOUS
 62
5
 10
-0.100479423125021
 20
0.382812920718419
 30
0.0
 11
-0.0648245554113899
 21
0.382812920718419
 31
0.0
  0
LINE
  8
5
  6
CONTINUOUS
 62
5
 10
-0.0574416960784841
 20
0.443612938744098
 30
0.0
 11
-0.0574416960784841
 21
0.40018469633165
 31
0.0
  0
ARC
  8
5
  6
CONTINUOUS
 62
5
 10
-0.0396368313721465
 20
0.400471833606613
 30
0.0
 40
0.0178071798728956
 50
180.923923222651
 51
0.472476699575142
  0
LINE
  8
5
  6
CONTINUOUS
 62
5
 10
-0.0218302569491566
 20
0.400618674827602
 30
0.0
 11
-0.0218302569491573
 21
0.443612938744098
 31
0.0
  0
LINE
  8
5
  6
CONTINUOUS
 62
5
 10
0.0205594682373367
 20
0.382812287872727
 30
0.0
 11
-0.0150953994762937
 21
0.382812287872727
 31
0.0
  0
LINE
  8
5
  6
CONTINUOUS
 62
5
 10
-0.0150953994762937
 20
0.382812287872727
 30
0.0
 11
-0.0151171137684463
 21
0.413212296885567
 31
0.0
  0
LINE
  8
5
  6
CONTINUOUS
 62
5
 10
-0.0151171137684463
 20
0.413212296885567
 30
0.0
 11
0.0127423230626064
 21
0.413212296885567
 31
0.0
  0
LINE
  8
5
  6
CONTINUOUS
 62
5
 10
-0.0151184162591593
 20
0.414123783613956
 30
0.0
 11
-0.0151388280605984
 21
0.443612305898407
 31
0.0
  0
LINE
  8
5
  6
CONTINUOUS
 62
5
 10
-0.0151388280605984
 20
0.443612305898407
 30
0.0
 11
0.0175194673348367
 21
0.443612305898407
 31
0.0
  0
ARC
  8
5
  6
CONTINUOUS
 62
5
 10
-0.787401575
 20
-0.787401574999998
 30
0.0
 40
0.066929134
 50
359.999999999998
 51
180
  0
ARC
  8
5
  6
CONTINUOUS
 62
5
 10
-0.787401575
 20
-0.787401575000002
 30
0.0
 40
0.066929134
 50
179.999999999998
 51
359.999999999998
  0
ARC
  8
5
  6
CONTINUOUS
 62
5
 10
-0.787401575
 20
0.787401574999999
 30
0.0
 40
0.066929134
 50
179.999999999999
 51
360
  0
ARC
  8
5
  6
CONTINUOUS
 62
5
 10
-0.787401575
 20
0.787401575
 30
0.0
 40
0.066929134
 50
359.999999999998
 51
180
  0
ARC
  8
5
  6
CONTINUOUS
 62
5
 10
0.787401575
 20
-0.787401575
 30
0.0
 40
0.066929134
 50
359.999999999998
 51
180
  0
ARC
  8
5
  6
CONTINUOUS
 62
5
 10
0.787401575
 20
-0.787401575000001
 30
0.0
 40
0.066929134
 50
179.999999999999
 51
360
  0
ARC
  8
5
  6
CONTINUOUS
 62
5
 10
0.787401575
 20
0.787401574999998
 30
0.0
 40
0.066929134
 50
179.999999999998
 51
359.999999999998
  0
ARC
  8
5
  6
CONTINUOUS
 62
5
 10
0.787401575
 20
0.787401575000002
 30
0.0
 40
0.066929134
 50
359.999999999998
 51
180
  0
ARC
  8
5
  6
CONTINUOUS
 62
5
 10
0.113714068308169
 20
0.403874588003858
 30
0.0
 40
0.0223591391910567
 50
204.38683723701
 51
324.320000000004
  0
ARC
  8
5
  6
CONTINUOUS
 62
5
 10
0.14465422929895
 20
0.412014036932641
 30
0.0
 40
0.0541655474069066
 50
161.294134617644
 51
198.705865382356
  0
ARC
  8
5
  6
CONTINUOUS
 62
5
 10
0.113714072651026
 20
0.4201534883402
 30
0.0
 40
0.0223591435339135
 50
35.6800299999899
 51
155.613174782251
  0
LINE
  8
5
  6
CONTINUOUS
 62
5
 10
0.158687533307722
 20
0.381712627952449
 30
0.0
 11
0.14131610881315
 21
0.381712627952449
 31
0.0
  0
LINE
  8
5
  6
CONTINUOUS
 62
5
 10
0.150001819025483
 20
0.440688627928129
 30
0.0
 11
0.150001819025483
 21
0.383536627928129
 31
0.0
  0
LINE
  8
5
  6
CONTINUOUS
 62
5
 10
0.158596111285985
 20
0.442512627928129
 30
0.0
 11
0.14131610881315
 21
0.442512627928129
 31
0.0
  0
LINE
  8
5
  6
CONTINUOUS
 62
5
 10
0.167876111285985
 20
0.442512631874113
 30
0.0
 11
0.167876111285985
 21
0.381712631898433
 31
0.0
  0
LINE
  8
5
  6
CONTINUOUS
 62
5
 10
0.189937825562877
 20
0.442512631874114
 30
0.0
 11
0.167876111285985
 21
0.442512631874113
 31
0.0
  0
ARC
  8
5
  6
CONTINUOUS
 62
5
 10
0.189644887251818
 20
0.427312654382039
 30
0.0
 40
0.0152028000254448
 50
271.095264000542
 51
88.89591603932
  0
LINE
  8
5
  6
CONTINUOUS
 62
5
 10
0.169871485715246
 20
0.412112631975914
 30
0.0
 11
0.189935485715247
 21
0.412112631975914
 31
0.0
  0
LINE
  8
5
  6
CONTINUOUS
 62
5
 10
0.205137825556795
 20
0.381712631898433
 30
0.0
 11
0.19080171324715
 21
0.410380433485473
 31
0.0
  0
ARC
  8
5
  6
CONTINUOUS
 62
5
 10
0.234443212747504
 20
0.403874588003858
 30
0.0
 40
0.0223591391910564
 50
204.38683723701
 51
324.320000000003
  0
ARC
  8
5
  6
CONTINUOUS
 62
5
 10
0.265383373738285
 20
0.412014036932641
 30
0.0
 40
0.0541655474069066
 50
161.294134617644
 51
198.705865382356
  0
ARC
  8
5
  6
CONTINUOUS
 62
5
 10
0.234443217090361
 20
0.4201534883402
 30
0.0
 40
0.0223591435339135
 50
35.6800299999899
 51
155.613174782251
  0
LINE
  8
5
  6
CONTINUOUS
 62
5
 10
0.25868525572532
 20
0.381712631898433
 30
0.0
 11
0.25868525572532
 21
0.442512631874113
 31
0.0
  0
LINE
  8
5
  6
CONTINUOUS
 62
5
 10
0.294340112853915
 20
0.381712631898433
 30
0.0
 11
0.25868525572532
 21
0.381712631898433
 31
0.0
  0
LINE
  8
5
  6
CONTINUOUS
 62
5
 10
0.302377825468489
 20
0.381711999052929
 30
0.0
 11
0.338032682597084
 21
0.381711999052929
 31
0.0
  0
LINE
  8
5
  6
CONTINUOUS
 62
5
 10
0.302356111182782
 20
0.412111999040769
 30
0.0
 11
0.302377825468489
 21
0.381711999052929
 31
0.0
  0
LINE
  8
5
  6
CONTINUOUS
 62
5
 10
0.330215539743067
 20
0.412111999040769
 30
0.0
 11
0.302356111182782
 21
0.412111999040769
 31
0.0
  0
LINE
  8
5
  6
CONTINUOUS
 62
5
 10
0.302334396897077
 20
0.442511999028609
 30
0.0
 11
0.302354808692456
 21
0.413023485498561
 31
0.0
  0
LINE
  8
5
  6
CONTINUOUS
 62
5
 10
0.334992682597084
 20
0.442511999028609
 30
0.0
 11
0.302334396897077
 21
0.442511999028609
 31
0.0
  0
ARC
  8
5
  6
CONTINUOUS
 62
5
 10
0.360810645637088
 20
0.399202695625675
 30
0.0
 40
0.0175265250215609
 50
210.521999666258
 51
269.44106333805
  0
LINE
  8
5
  6
CONTINUOUS
 62
5
 10
0.366835492106149
 20
0.381616560669412
 30
0.0
 11
0.360639672101201
 21
0.381677004558519
 31
0.0
  0
ARC
  8
5
  6
CONTINUOUS
 62
5
 10
0.366991573523521
 20
0.39761574060522
 30
0.0
 40
0.0159999412507428
 50
269.441063677775
 51
357.350682656728
  0
ARC
  8
5
  6
CONTINUOUS
 62
5
 10
0.369959912095863
 20
0.395695825543589
 30
0.0
 40
0.013067917709062
 50
5.1822724438328
 51
59.3448299999949
  0
LINE
  8
5
  6
CONTINUOUS
 62
5
 10
0.352693962845629
 20
0.417214821649269
 30
0.0
 11
0.37662285112231
 21
0.406937521002044
 31
0.0
  0
ARC
  8
5
  6
CONTINUOUS
 62
5
 10
0.359356906230958
 20
0.428456511429546
 30
0.0
 40
0.0130679150468655
 50
185.182406440222
 51
239.344800865823
  0
ARC
  8
5
  6
CONTINUOUS
 62
5
 10
0.362261198811716
 20
0.426578859473223
 30
0.0
 40
0.0159340518263759
 50
91.2613438550529
 51
177.491952931064
  0
LINE
  8
5
  6
CONTINUOUS
 62
5
 10
0.368091531892806
 20
0.442515549859408
 30
0.0
 11
0.361910445315561
 21
0.442509050294132
 31
0.0
  0
ARC
  8
5
  6
CONTINUOUS
 62
5
 10
0.367539511687054
 20
0.42555215608987
 30
0.0
 40
0.0169723732721136
 50
29.2717084966243
 51
88.136147107476
  0
LINE
  8
6
  6
CONTINUOUS
 62
6
 10
-0.419049724822477
 20
-0.501094744215668
 30
0.0
 11
-0.419049724822477
 21
-0.561894744191348
 31
0.0
  0
LINE
  8
6
  6
CONTINUOUS
 62
6
 10
-0.396988010545587
 20
-0.501094744215666
 30
0.0
 11
-0.419049724822477
 21
-0.501094744215668
 31
0.0
  0
ARC
  8
6
  6
CONTINUOUS
 62
6
 10
-0.397891320952687
 20
-0.516294744209587
 30
0.0
 40
0.0152268174451115
 50
273.400991681353
 51
86.5990083186463
  0
LINE
  8
6
  6
CONTINUOUS
 62
6
 10
-0.418137724822477
 20
-0.531494744203507
 30
0.0
 11
-0.396988010545586
 21
-0.531494744203507
 31
0.0
  0
LINE
  8
6
  6
CONTINUOUS
 62
6
 10
-0.372668010551667
 20
-0.501094744215668
 30
0.0
 11
-0.372668010551667
 21
-0.561894744191348
 31
0.0
  0
LINE
  8
6
  6
CONTINUOUS
 62
6
 10
-0.350606296274774
 20
-0.501094744215667
 30
0.0
 11
-0.372668010551667
 21
-0.501094744215668
 31
0.0
  0
ARC
  8
6
  6
CONTINUOUS
 62
6
 10
-0.350899234585834
 20
-0.516294721707742
 30
0.0
 40
0.0152028000254448
 50
271.095264000542
 51
88.89591603932
  0
LINE
  8
6
  6
CONTINUOUS
 62
6
 10
-0.370672636122405
 20
-0.531494744113868
 30
0.0
 11
-0.350608636122404
 21
-0.531494744113868
 31
0.0
  0
LINE
  8
6
  6
CONTINUOUS
 62
6
 10
-0.335406296280857
 20
-0.561894744191348
 30
0.0
 11
-0.349742408590501
 21
-0.533226942604308
 31
0.0
  0
LINE
  8
6
  6
CONTINUOUS
 62
6
 10
-0.328671440807403
 20
-0.561895377036852
 30
0.0
 11
-0.293016583678809
 21
-0.561895377036852
 31
0.0
  0
LINE
  8
6
  6
CONTINUOUS
 62
6
 10
-0.32869315509311
 20
-0.531495377049011
 30
0.0
 11
-0.328671440807403
 21
-0.561895377036852
 31
0.0
  0
LINE
  8
6
  6
CONTINUOUS
 62
6
 10
-0.300833726532824
 20
-0.531495377049011
 30
0.0
 11
-0.32869315509311
 21
-0.531495377049011
 31
0.0
  0
LINE
  8
6
  6
CONTINUOUS
 62
6
 10
-0.328714869378815
 20
-0.501095377061172
 30
0.0
 11
-0.328694457583436
 21
-0.53058389059122
 31
0.0
  0
LINE
  8
6
  6
CONTINUOUS
 62
6
 10
-0.296056583678809
 20
-0.501095377061172
 30
0.0
 11
-0.328714869378815
 21
-0.501095377061172
 31
0.0
  0
ARC
  8
6
  6
CONTINUOUS
 62
6
 10
-0.270238620638805
 20
-0.544404680464106
 30
0.0
 40
0.017526525021561
 50
210.521999666257
 51
269.441063338049
  0
LINE
  8
6
  6
CONTINUOUS
 62
6
 10
-0.264213774169744
 20
-0.561990815420369
 30
0.0
 11
-0.270409594174692
 21
-0.561930371531263
 31
0.0
  0
ARC
  8
6
  6
CONTINUOUS
 62
6
 10
-0.264057692752372
 20
-0.545991635484561
 30
0.0
 40
0.0159999412507426
 50
269.441063677776
 51
357.350682656729
  0
ARC
  8
6
  6
CONTINUOUS
 62
6
 10
-0.261089354180029
 20
-0.547911550546192
 30
0.0
 40
0.0130679177090617
 50
5.18227244383093
 51
59.344829999993
  0
LINE
  8
6
  6
CONTINUOUS
 62
6
 10
-0.278355303430264
 20
-0.526392554440512
 30
0.0
 11
-0.254426415153582
 21
-0.536669855087737
 31
0.0
  0
ARC
  8
6
  6
CONTINUOUS
 62
6
 10
-0.271692360044934
 20
-0.515150864660235
 30
0.0
 40
0.0130679150468656
 50
185.182406440222
 51
239.344800865823
  0
ARC
  8
6
  6
CONTINUOUS
 62
6
 10
-0.268788067464176
 20
-0.517028516616558
 30
0.0
 40
0.0159340518263756
 50
91.2613438550533
 51
177.491952931065
  0
LINE
  8
6
  6
CONTINUOUS
 62
6
 10
-0.262957734383086
 20
-0.501091826230373
 30
0.0
 11
-0.269138820960332
 21
-0.501098325795649
 31
0.0
  0
ARC
  8
6
  6
CONTINUOUS
 62
6
 10
-0.263509754588838
 20
-0.518055219999911
 30
0.0
 40
0.0169723732721136
 50
29.271708496624
 51
88.1361471074758
  0
ARC
  8
6
  6
CONTINUOUS
 62
6
 10
-0.217931673556461
 20
-0.544404680464106
 30
0.0
 40
0.017526525021561
 50
210.521999666257
 51
269.441063338049
  0
LINE
  8
6
  6
CONTINUOUS
 62
6
 10
-0.2119068270874
 20
-0.561990815420369
 30
0.0
 11
-0.218102647092348
 21
-0.561930371531263
 31
0.0
  0
ARC
  8
6
  6
CONTINUOUS
 62
6
 10
-0.211750745670028
 20
-0.545991635484561
 30
0.0
 40
0.0159999412507429
 50
269.441063677775
 51
357.350682656728
  0
ARC
  8
6
  6
CONTINUOUS
 62
6
 10
-0.208782407097686
 20
-0.547911550546192
 30
0.0
 40
0.0130679177090621
 50
5.18227244383264
 51
59.3448299999948
  0
LINE
  8
6
  6
CONTINUOUS
 62
6
 10
-0.226048356347921
 20
-0.526392554440512
 30
0.0
 11
-0.202119468071238
 21
-0.536669855087737
 31
0.0
  0
ARC
  8
6
  6
CONTINUOUS
 62
6
 10
-0.219385412962591
 20
-0.515150864660235
 30
0.0
 40
0.0130679150468653
 50
185.18240644022
 51
239.344800865821
  0
ARC
  8
6
  6
CONTINUOUS
 62
6
 10
-0.216481120381832
 20
-0.517028516616558
 30
0.0
 40
0.0159340518263758
 50
91.2613438550526
 51
177.491952931064
  0
LINE
  8
6
  6
CONTINUOUS
 62
6
 10
-0.210650787300743
 20
-0.501091826230373
 30
0.0
 11
-0.216831873877988
 21
-0.501098325795649
 31
0.0
  0
ARC
  8
6
  6
CONTINUOUS
 62
6
 10
-0.211202807506494
 20
-0.518055219999911
 30
0.0
 40
0.016972373272114
 50
29.2717084966245
 51
88.1361471074763
  0
ARC
  8
6
  6
CONTINUOUS
 62
6
 10
-0.395824338406352
 20
0.532577327190909
 30
0.0
 40
0.0223591391910564
 50
204.38683723701
 51
324.320000000004
  0
ARC
  8
6
  6
CONTINUOUS
 62
6
 10
-0.36488417741557
 20
0.540716776119692
 30
0.0
 40
0.0541655474069068
 50
161.294134617644
 51
198.705865382356
  0
ARC
  8
6
  6
CONTINUOUS
 62
6
 10
-0.395824334063495
 20
0.548856227527251
 30
0.0
 40
0.0223591435339133
 50
35.6800299999899
 51
155.613174782252
  0
LINE
  8
6
  6
CONTINUOUS
 62
6
 10
-0.371582295428536
 20
0.510415371085484
 30
0.0
 11
-0.371582295428536
 21
0.571215371061164
 31
0.0
  0
LINE
  8
6
  6
CONTINUOUS
 62
6
 10
-0.335927438299941
 20
0.510415371085484
 30
0.0
 11
-0.371582295428536
 21
0.510415371085484
 31
0.0
  0
LINE
  8
6
  6
CONTINUOUS
 62
6
 10
-0.307813159137084
 20
0.5104153671395
 30
0.0
 11
-0.325184583631656
 21
0.5104153671395
 31
0.0
  0
LINE
  8
6
  6
CONTINUOUS
 62
6
 10
-0.316498873419323
 20
0.56939136711518
 30
0.0
 11
-0.316498873419323
 21
0.51223936711518
 31
0.0
  0
LINE
  8
6
  6
CONTINUOUS
 62
6
 10
-0.307904581158821
 20
0.57121536711518
 30
0.0
 11
-0.325184583631656
 21
0.57121536711518
 31
0.0
  0
ARC
  8
6
  6
CONTINUOUS
 62
6
 10
-0.278439193968111
 20
0.532577327190909
 30
0.0
 40
0.0223591391910567
 50
204.38683723701
 51
324.320000000004
  0
ARC
  8
6
  6
CONTINUOUS
 62
6
 10
-0.24749903297733
 20
0.540716776119692
 30
0.0
 40
0.0541655474069068
 50
161.294134617644
 51
198.705865382356
  0
ARC
  8
6
  6
CONTINUOUS
 62
6
 10
-0.278439189625254
 20
0.548856227527251
 30
0.0
 40
0.0223591435339135
 50
35.68002999999
 51
155.613174782251
  0
LINE
  8
6
  6
CONTINUOUS
 62
6
 10
-0.254197150990295
 20
0.510415371085484
 30
0.0
 11
-0.254197150990295
 21
0.571215371061164
 31
0.0
  0
LINE
  8
6
  6
CONTINUOUS
 62
6
 10
-0.237991630361768
 20
0.547731857081645
 30
0.0
 11
-0.220192579575326
 21
0.510415371085484
 31
0.0
  0
LINE
  8
6
  6
CONTINUOUS
 62
6
 10
-0.220192579575326
 20
0.571215371061164
 30
0.0
 11
-0.252413515707521
 21
0.533489501971043
 31
0.0
  0
LINE
  8
6
  6
CONTINUOUS
 62
6
 10
-0.399615434773109
 20
0.205722578953989
 30
0.0
 11
-0.399615434773109
 21
0.146766671808652
 31
0.0
  0
LINE
  8
6
  6
CONTINUOUS
 62
6
 10
-0.380181153409453
 20
0.207566671784332
 30
0.0
 11
-0.419049724822477
 21
0.207566671784332
 31
0.0
  0
LINE
  8
6
  6
CONTINUOUS
 62
6
 10
-0.354954670905003
 20
0.178744005713256
 30
0.0
 11
-0.374101153409454
 21
0.207566667547911
 31
0.0
  0
LINE
  8
6
  6
CONTINUOUS
 62
6
 10
-0.353906867703246
 20
0.177166667560071
 30
0.0
 11
-0.353906867703246
 21
0.146766667572231
 31
0.0
  0
LINE
  8
6
  6
CONTINUOUS
 62
6
 10
-0.333712581997038
 20
0.207566667547911
 30
0.0
 11
-0.353906867703246
 21
0.177166667560071
 31
0.0
  0
LINE
  8
6
  6
CONTINUOUS
 62
6
 10
-0.326112581997039
 20
0.207566667547911
 30
0.0
 11
-0.326112581997039
 21
0.146766667572231
 31
0.0
  0
LINE
  8
6
  6
CONTINUOUS
 62
6
 10
-0.304050867720149
 20
0.207566667547912
 30
0.0
 11
-0.326112581997039
 21
0.207566667547911
 31
0.0
  0
ARC
  8
6
  6
CONTINUOUS
 62
6
 10
-0.304954178127249
 20
0.192366667553992
 30
0.0
 40
0.0152268174451116
 50
273.400991681353
 51
86.5990083186463
  0
LINE
  8
6
  6
CONTINUOUS
 62
6
 10
-0.325200581997039
 20
0.177166667560071
 30
0.0
 11
-0.304050867720148
 21
0.177166667560071
 31
0.0
  0
LINE
  8
6
  6
CONTINUOUS
 62
6
 10
-0.282116012252775
 20
0.146766034726727
 30
0.0
 11
-0.24646115512418
 21
0.146766034726727
 31
0.0
  0
LINE
  8
6
  6
CONTINUOUS
 62
6
 10
-0.282137726538481
 20
0.177166034714567
 30
0.0
 11
-0.282116012252775
 21
0.146766034726727
 31
0.0
  0
LINE
  8
6
  6
CONTINUOUS
 62
6
 10
-0.254278297978196
 20
0.177166034714567
 30
0.0
 11
-0.282137726538481
 21
0.177166034714567
 31
0.0
  0
LINE
  8
6
  6
CONTINUOUS
 62
6
 10
-0.282159440824187
 20
0.207566034702407
 30
0.0
 11
-0.282139029028807
 21
0.178077521172359
 31
0.0
  0
LINE
  8
6
  6
CONTINUOUS
 62
6
 10
-0.24950115512418
 20
0.207566034702407
 30
0.0
 11
-0.282159440824187
 21
0.207566034702407
 31
0.0
  0
LINE
  8
6
  6
CONTINUOUS
 62
6
 10
-0.419049724822477
 20
0.0894564357843323
 30
0.0
 11
-0.419049724822477
 21
0.0286564358086522
 31
0.0
  0
LINE
  8
6
  6
CONTINUOUS
 62
6
 10
-0.396988010545586
 20
0.0894564357843336
 30
0.0
 11
-0.419049724822477
 21
0.0894564357843323
 31
0.0
  0
ARC
  8
6
  6
CONTINUOUS
 62
6
 10
-0.397891320952687
 20
0.0742564357904133
 30
0.0
 40
0.0152268174451116
 50
273.400991681353
 51
86.5990083186463
  0
LINE
  8
6
  6
CONTINUOUS
 62
6
 10
-0.418137724822477
 20
0.0590564357964924
 30
0.0
 11
-0.396988010545586
 21
0.0590564357964929
 31
0.0
  0
LINE
  8
6
  6
CONTINUOUS
 62
6
 10
-0.372668010551666
 20
0.0894564357843323
 30
0.0
 11
-0.372668010551666
 21
0.0286564358086522
 31
0.0
  0
LINE
  8
6
  6
CONTINUOUS
 62
6
 10
-0.350606296274774
 20
0.0894564357843327
 30
0.0
 11
-0.372668010551666
 21
0.0894564357843323
 31
0.0
  0
ARC
  8
6
  6
CONTINUOUS
 62
6
 10
-0.350899234585833
 20
0.074256458292258
 30
0.0
 40
0.0152028000254448
 50
271.095264000542
 51
88.89591603932
  0
LINE
  8
6
  6
CONTINUOUS
 62
6
 10
-0.370672636122404
 20
0.0590564358861325
 30
0.0
 11
-0.350608636122404
 21
0.0590564358861325
 31
0.0
  0
LINE
  8
6
  6
CONTINUOUS
 62
6
 10
-0.335406296280856
 20
0.0286564358086522
 30
0.0
 11
-0.349742408590501
 21
0.0573242373956916
 31
0.0
  0
LINE
  8
6
  6
CONTINUOUS
 62
6
 10
-0.328671440807403
 20
0.0286558029631484
 30
0.0
 11
-0.293016583678809
 21
0.0286558029631484
 31
0.0
  0
LINE
  8
6
  6
CONTINUOUS
 62
6
 10
-0.328693155093109
 20
0.0590558029509884
 30
0.0
 11
-0.328671440807403
 21
0.0286558029631484
 31
0.0
  0
LINE
  8
6
  6
CONTINUOUS
 62
6
 10
-0.300833726532824
 20
0.0590558029509884
 30
0.0
 11
-0.328693155093109
 21
0.0590558029509884
 31
0.0
  0
LINE
  8
6
  6
CONTINUOUS
 62
6
 10
-0.328714869378815
 20
0.0894558029388283
 30
0.0
 11
-0.328694457583436
 21
0.0599672894087803
 31
0.0
  0
LINE
  8
6
  6
CONTINUOUS
 62
6
 10
-0.296056583678809
 20
0.0894558029388283
 30
0.0
 11
-0.328714869378815
 21
0.0894558029388283
 31
0.0
  0
ARC
  8
6
  6
CONTINUOUS
 62
6
 10
-0.270238620638805
 20
0.0461464995358941
 30
0.0
 40
0.0175265250215609
 50
210.521999666257
 51
269.44106333805
  0
LINE
  8
6
  6
CONTINUOUS
 62
6
 10
-0.264213774169744
 20
0.0285603645796308
 30
0.0
 11
-0.270409594174691
 21
0.0286208084687374
 31
0.0
  0
ARC
  8
6
  6
CONTINUOUS
 62
6
 10
-0.264057692752371
 20
0.0445595445154391
 30
0.0
 40
0.0159999412507428
 50
269.441063677775
 51
357.350682656728
  0
ARC
  8
6
  6
CONTINUOUS
 62
6
 10
-0.261089354180029
 20
0.0426396294538075
 30
0.0
 40
0.0130679177090619
 50
5.18227244383319
 51
59.3448299999953
  0
LINE
  8
6
  6
CONTINUOUS
 62
6
 10
-0.278355303430264
 20
0.0641586255594881
 30
0.0
 11
-0.254426415153582
 21
0.0538813249122631
 31
0.0
  0
ARC
  8
6
  6
CONTINUOUS
 62
6
 10
-0.271692360044934
 20
0.075400315339765
 30
0.0
 40
0.0130679150468655
 50
185.182406440222
 51
239.344800865823
  0
ARC
  8
6
  6
CONTINUOUS
 62
6
 10
-0.268788067464175
 20
0.0735226633834416
 30
0.0
 40
0.0159340518263761
 50
91.2613438550518
 51
177.491952931063
  0
LINE
  8
6
  6
CONTINUOUS
 62
6
 10
-0.262957734383086
 20
0.089459353769627
 30
0.0
 11
-0.269138820960332
 21
0.0894528542043508
 31
0.0
  0
ARC
  8
6
  6
CONTINUOUS
 62
6
 10
-0.263509754588837
 20
0.0724959600000888
 30
0.0
 40
0.016972373272114
 50
29.2717084966247
 51
88.1361471074765
  0
ARC
  8
6
  6
CONTINUOUS
 62
6
 10
-0.217931673556461
 20
0.0461464995358942
 30
0.0
 40
0.0175265250215609
 50
210.521999666257
 51
269.44106333805
  0
LINE
  8
6
  6
CONTINUOUS
 62
6
 10
-0.2119068270874
 20
0.0285603645796308
 30
0.0
 11
-0.218102647092347
 21
0.0286208084687374
 31
0.0
  0
ARC
  8
6
  6
CONTINUOUS
 62
6
 10
-0.211750745670028
 20
0.0445595445154391
 30
0.0
 40
0.0159999412507428
 50
269.441063677775
 51
357.350682656728
  0
ARC
  8
6
  6
CONTINUOUS
 62
6
 10
-0.208782407097685
 20
0.0426396294538075
 30
0.0
 40
0.0130679177090619
 50
5.18227244383319
 51
59.3448299999953
  0
LINE
  8
6
  6
CONTINUOUS
 62
6
 10
-0.22604835634792
 20
0.0641586255594881
 30
0.0
 11
-0.202119468071238
 21
0.0538813249122631
 31
0.0
  0
ARC
  8
6
  6
CONTINUOUS
 62
6
 10
-0.21938541296259
 20
0.0754003153397655
 30
0.0
 40
0.0130679150468658
 50
185.182406440224
 51
239.344800865825
  0
ARC
  8
6
  6
CONTINUOUS
 62
6
 10
-0.216481120381832
 20
0.0735226633834419
 30
0.0
 40
0.0159340518263759
 50
91.2613438550527
 51
177.491952931064
  0
LINE
  8
6
  6
CONTINUOUS
 62
6
 10
-0.210650787300743
 20
0.089459353769627
 30
0.0
 11
-0.216831873877988
 21
0.0894528542043508
 31
0.0
  0
ARC
  8
6
  6
CONTINUOUS
 62
6
 10
-0.211202807506494
 20
0.0724959600000888
 30
0.0
 40
0.016972373272114
 50
29.2717084966247
 51
88.1361471074765
  0
LINE
  8
6
  6
CONTINUOUS
 62
6
 10
-0.399615434773109
 20
0.678163522953989
 30
0.0
 11
-0.399615434773109
 21
0.619207615808652
 31
0.0
  0
LINE
  8
6
  6
CONTINUOUS
 62
6
 10
-0.380181153409454
 20
0.680007615784332
 30
0.0
 11
-0.419049724822477
 21
0.680007615784332
 31
0.0
  0
LINE
  8
6
  6
CONTINUOUS
 62
6
 10
-0.354954670905003
 20
0.651184949713256
 30
0.0
 11
-0.374101153409454
 21
0.680007611547911
 31
0.0
  0
LINE
  8
6
  6
CONTINUOUS
 62
6
 10
-0.353906867703246
 20
0.649607611560071
 30
0.0
 11
-0.353906867703246
 21
0.619207611572231
 31
0.0
  0
LINE
  8
6
  6
CONTINUOUS
 62
6
 10
-0.333712581997038
 20
0.680007611547911
 30
0.0
 11
-0.353906867703246
 21
0.649607611560071
 31
0.0
  0
LINE
  8
6
  6
CONTINUOUS
 62
6
 10
-0.326112581997039
 20
0.680007611547911
 30
0.0
 11
-0.326112581997039
 21
0.619207611572231
 31
0.0
  0
LINE
  8
6
  6
CONTINUOUS
 62
6
 10
-0.304050867720149
 20
0.680007611547912
 30
0.0
 11
-0.326112581997039
 21
0.680007611547911
 31
0.0
  0
ARC
  8
6
  6
CONTINUOUS
 62
6
 10
-0.304954178127249
 20
0.664807611553992
 30
0.0
 40
0.0152268174451116
 50
273.400991681353
 51
86.5990083186463
  0
LINE
  8
6
  6
CONTINUOUS
 62
6
 10
-0.325200581997039
 20
0.649607611560071
 30
0.0
 11
-0.304050867720148
 21
0.649607611560071
 31
0.0
  0
LINE
  8
6
  6
CONTINUOUS
 62
6
 10
-0.282116012252775
 20
0.619206978726727
 30
0.0
 11
-0.24646115512418
 21
0.619206978726727
 31
0.0
  0
LINE
  8
6
  6
CONTINUOUS
 62
6
 10
-0.282137726538481
 20
0.649606978714567
 30
0.0
 11
-0.282116012252775
 21
0.619206978726727
 31
0.0
  0
LINE
  8
6
  6
CONTINUOUS
 62
6
 10
-0.254278297978196
 20
0.649606978714567
 30
0.0
 11
-0.282137726538481
 21
0.649606978714567
 31
0.0
  0
LINE
  8
6
  6
CONTINUOUS
 62
6
 10
-0.282159440824187
 20
0.680006978702407
 30
0.0
 11
-0.282139029028807
 21
0.650518465172359
 31
0.0
  0
LINE
  8
6
  6
CONTINUOUS
 62
6
 10
-0.24950115512418
 20
0.680006978702407
 30
0.0
 11
-0.282159440824187
 21
0.680006978702407
 31
0.0
  0
LINE
  8
6
  6
CONTINUOUS
 62
6
 10
-0.399615434773108
 20
-0.266718365046011
 30
0.0
 11
-0.399615434773108
 21
-0.325674272191348
 31
0.0
  0
LINE
  8
6
  6
CONTINUOUS
 62
6
 10
-0.380181153409453
 20
-0.264874272215668
 30
0.0
 11
-0.419049724822477
 21
-0.264874272215668
 31
0.0
  0
LINE
  8
6
  6
CONTINUOUS
 62
6
 10
-0.354954670905003
 20
-0.293696938286744
 30
0.0
 11
-0.374101153409454
 21
-0.26487427645209
 31
0.0
  0
LINE
  8
6
  6
CONTINUOUS
 62
6
 10
-0.353906867703246
 20
-0.29527427643993
 30
0.0
 11
-0.353906867703246
 21
-0.32567427642777
 31
0.0
  0
LINE
  8
6
  6
CONTINUOUS
 62
6
 10
-0.333712581997038
 20
-0.26487427645209
 30
0.0
 11
-0.353906867703246
 21
-0.29527427643993
 31
0.0
  0
LINE
  8
6
  6
CONTINUOUS
 62
6
 10
-0.326112581997039
 20
-0.26487427645209
 30
0.0
 11
-0.326112581997039
 21
-0.325674276427769
 31
0.0
  0
LINE
  8
6
  6
CONTINUOUS
 62
6
 10
-0.304050867720149
 20
-0.264874276452088
 30
0.0
 11
-0.326112581997039
 21
-0.26487427645209
 31
0.0
  0
ARC
  8
6
  6
CONTINUOUS
 62
6
 10
-0.304954178127249
 20
-0.280074276446009
 30
0.0
 40
0.0152268174451115
 50
273.400991681353
 51
86.5990083186463
  0
LINE
  8
6
  6
CONTINUOUS
 62
6
 10
-0.325200581997039
 20
-0.29527427643993
 30
0.0
 11
-0.304050867720148
 21
-0.295274276439929
 31
0.0
  0
LINE
  8
6
  6
CONTINUOUS
 62
6
 10
-0.282116012252775
 20
-0.325674909273273
 30
0.0
 11
-0.24646115512418
 21
-0.325674909273273
 31
0.0
  0
LINE
  8
6
  6
CONTINUOUS
 62
6
 10
-0.282137726538481
 20
-0.295274909285434
 30
0.0
 11
-0.282116012252775
 21
-0.325674909273273
 31
0.0
  0
LINE
  8
6
  6
CONTINUOUS
 62
6
 10
-0.254278297978196
 20
-0.295274909285434
 30
0.0
 11
-0.282137726538481
 21
-0.295274909285434
 31
0.0
  0
LINE
  8
6
  6
CONTINUOUS
 62
6
 10
-0.282159440824187
 20
-0.264874909297594
 30
0.0
 11
-0.282139029028807
 21
-0.294363422827641
 31
0.0
  0
LINE
  8
6
  6
CONTINUOUS
 62
6
 10
-0.24950115512418
 20
-0.264874909297594
 30
0.0
 11
-0.282159440824187
 21
-0.264874909297594
 31
0.0
  0
LINE
  8
6
  6
CONTINUOUS
 62
6
 10
-0.399615434773108
 20
-0.739159309046012
 30
0.0
 11
-0.399615434773108
 21
-0.798115216191348
 31
0.0
  0
LINE
  8
6
  6
CONTINUOUS
 62
6
 10
-0.380181153409453
 20
-0.737315216215668
 30
0.0
 11
-0.419049724822477
 21
-0.737315216215668
 31
0.0
  0
LINE
  8
6
  6
CONTINUOUS
 62
6
 10
-0.354954670905003
 20
-0.766137882286745
 30
0.0
 11
-0.374101153409454
 21
-0.73731522045209
 31
0.0
  0
LINE
  8
6
  6
CONTINUOUS
 62
6
 10
-0.353906867703246
 20
-0.76771522043993
 30
0.0
 11
-0.353906867703246
 21
-0.798115220427769
 31
0.0
  0
LINE
  8
6
  6
CONTINUOUS
 62
6
 10
-0.333712581997038
 20
-0.73731522045209
 30
0.0
 11
-0.353906867703246
 21
-0.76771522043993
 31
0.0
  0
LINE
  8
6
  6
CONTINUOUS
 62
6
 10
-0.326112581997039
 20
-0.73731522045209
 30
0.0
 11
-0.326112581997039
 21
-0.798115220427769
 31
0.0
  0
LINE
  8
6
  6
CONTINUOUS
 62
6
 10
-0.304050867720149
 20
-0.737315220452088
 30
0.0
 11
-0.326112581997039
 21
-0.73731522045209
 31
0.0
  0
ARC
  8
6
  6
CONTINUOUS
 62
6
 10
-0.304954178127249
 20
-0.752515220446009
 30
0.0
 40
0.0152268174451115
 50
273.400991681353
 51
86.5990083186463
  0
LINE
  8
6
  6
CONTINUOUS
 62
6
 10
-0.325200581997039
 20
-0.76771522043993
 30
0.0
 11
-0.304050867720148
 21
-0.767715220439929
 31
0.0
  0
LINE
  8
6
  6
CONTINUOUS
 62
6
 10
-0.282116012252774
 20
-0.798115853273273
 30
0.0
 11
-0.24646115512418
 21
-0.798115853273273
 31
0.0
  0
LINE
  8
6
  6
CONTINUOUS
 62
6
 10
-0.282137726538481
 20
-0.767715853285434
 30
0.0
 11
-0.282116012252774
 21
-0.798115853273273
 31
0.0
  0
LINE
  8
6
  6
CONTINUOUS
 62
6
 10
-0.254278297978196
 20
-0.767715853285434
 30
0.0
 11
-0.282137726538481
 21
-0.767715853285434
 31
0.0
  0
LINE
  8
6
  6
CONTINUOUS
 62
6
 10
-0.282159440824187
 20
-0.737315853297594
 30
0.0
 11
-0.282139029028807
 21
-0.766804366827642
 31
0.0
  0
LINE
  8
6
  6
CONTINUOUS
 62
6
 10
-0.24950115512418
 20
-0.737315853297594
 30
0.0
 11
-0.282159440824187
 21
-0.737315853297594
 31
0.0
  0
ARC
  8
6
  6
CONTINUOUS
 62
6
 10
-0.395824338406352
 20
0.405149099914077
 30
0.0
 40
0.0223591391910567
 50
204.38683723701
 51
324.320000000004
  0
ARC
  8
6
  6
CONTINUOUS
 62
6
 10
-0.364884177415571
 20
0.41328854884286
 30
0.0
 40
0.0541655474069066
 50
161.294134617644
 51
198.705865382356
  0
ARC
  8
6
  6
CONTINUOUS
 62
6
 10
-0.395824334063494
 20
0.421428000250419
 30
0.0
 40
0.0223591435339135
 50
35.6800299999899
 51
155.613174782251
  0
LINE
  8
6
  6
CONTINUOUS
 62
6
 10
-0.371582295428536
 20
0.382987143808652
 30
0.0
 11
-0.371582295428536
 21
0.443787143784332
 31
0.0
  0
LINE
  8
6
  6
CONTINUOUS
 62
6
 10
-0.335927438299941
 20
0.382987143808652
 30
0.0
 11
-0.371582295428536
 21
0.382987143808652
 31
0.0
  0
LINE
  8
6
  6
CONTINUOUS
 62
6
 10
-0.307813159137084
 20
0.382987139862668
 30
0.0
 11
-0.325184583631655
 21
0.382987139862668
 31
0.0
  0
LINE
  8
6
  6
CONTINUOUS
 62
6
 10
-0.316498873419323
 20
0.441963139838348
 30
0.0
 11
-0.316498873419323
 21
0.384811139838348
 31
0.0
  0
LINE
  8
6
  6
CONTINUOUS
 62
6
 10
-0.307904581158821
 20
0.443787139838348
 30
0.0
 11
-0.325184583631655
 21
0.443787139838348
 31
0.0
  0
ARC
  8
6
  6
CONTINUOUS
 62
6
 10
-0.278439193968111
 20
0.405149099914077
 30
0.0
 40
0.0223591391910564
 50
204.38683723701
 51
324.320000000003
  0
ARC
  8
6
  6
CONTINUOUS
 62
6
 10
-0.24749903297733
 20
0.41328854884286
 30
0.0
 40
0.0541655474069066
 50
161.294134617644
 51
198.705865382356
  0
ARC
  8
6
  6
CONTINUOUS
 62
6
 10
-0.278439189625254
 20
0.421428000250419
 30
0.0
 40
0.0223591435339135
 50
35.6800299999899
 51
155.613174782251
  0
LINE
  8
6
  6
CONTINUOUS
 62
6
 10
-0.254197150990295
 20
0.382987143808652
 30
0.0
 11
-0.254197150990295
 21
0.443787143784332
 31
0.0
  0
LINE
  8
6
  6
CONTINUOUS
 62
6
 10
-0.237991630361768
 20
0.420303629804814
 30
0.0
 11
-0.220192579575325
 21
0.382987143808652
 31
0.0
  0
LINE
  8
6
  6
CONTINUOUS
 62
6
 10
-0.220192579575325
 20
0.443787143784332
 30
0.0
 11
-0.252413515707521
 21
0.406061274694211
 31
0.0
  0
ARC
  8
6
  6
CONTINUOUS
 62
6
 10
-0.395824338406352
 20
-0.185402080085923
 30
0.0
 40
0.0223591391910564
 50
204.38683723701
 51
324.320000000004
  0
ARC
  8
6
  6
CONTINUOUS
 62
6
 10
-0.364884177415571
 20
-0.17726263115714
 30
0.0
 40
0.0541655474069066
 50
161.294134617644
 51
198.705865382356
  0
ARC
  8
6
  6
CONTINUOUS
 62
6
 10
-0.395824334063495
 20
-0.169123179749581
 30
0.0
 40
0.0223591435339133
 50
35.68002999999
 51
155.613174782252
  0
LINE
  8
6
  6
CONTINUOUS
 62
6
 10
-0.371582295428536
 20
-0.207564036191348
 30
0.0
 11
-0.371582295428536
 21
-0.146764036215668
 31
0.0
  0
LINE
  8
6
  6
CONTINUOUS
 62
6
 10
-0.335927438299941
 20
-0.207564036191348
 30
0.0
 11
-0.371582295428536
 21
-0.207564036191348
 31
0.0
  0
LINE
  8
6
  6
CONTINUOUS
 62
6
 10
-0.307813159137084
 20
-0.207564040137332
 30
0.0
 11
-0.325184583631656
 21
-0.207564040137332
 31
0.0
  0
LINE
  8
6
  6
CONTINUOUS
 62
6
 10
-0.316498873419323
 20
-0.148588040161652
 30
0.0
 11
-0.316498873419323
 21
-0.205740040161652
 31
0.0
  0
LINE
  8
6
  6
CONTINUOUS
 62
6
 10
-0.307904581158821
 20
-0.146764040161652
 30
0.0
 11
-0.325184583631656
 21
-0.146764040161652
 31
0.0
  0
ARC
  8
6
  6
CONTINUOUS
 62
6
 10
-0.278439193968111
 20
-0.185402080085923
 30
0.0
 40
0.0223591391910567
 50
204.38683723701
 51
324.320000000004
  0
ARC
  8
6
  6
CONTINUOUS
 62
6
 10
-0.24749903297733
 20
-0.17726263115714
 30
0.0
 40
0.0541655474069066
 50
161.294134617644
 51
198.705865382356
  0
ARC
  8
6
  6
CONTINUOUS
 62
6
 10
-0.278439189625254
 20
-0.169123179749581
 30
0.0
 40
0.0223591435339135
 50
35.6800299999899
 51
155.613174782251
  0
LINE
  8
6
  6
CONTINUOUS
 62
6
 10
-0.254197150990295
 20
-0.207564036191348
 30
0.0
 11
-0.254197150990295
 21
-0.146764036215668
 31
0.0
  0
LINE
  8
6
  6
CONTINUOUS
 62
6
 10
-0.237991630361768
 20
-0.170247550195186
 30
0.0
 11
-0.220192579575326
 21
-0.207564036191348
 31
0.0
  0
LINE
  8
6
  6
CONTINUOUS
 62
6
 10
-0.220192579575326
 20
-0.146764036215668
 30
0.0
 11
-0.252413515707521
 21
-0.184489905305789
 31
0.0
  0
ARC
  8
6
  6
CONTINUOUS
 62
6
 10
-0.395824338406352
 20
-0.0579738528090915
 30
0.0
 40
0.0223591391910567
 50
204.38683723701
 51
324.320000000004
  0
ARC
  8
6
  6
CONTINUOUS
 62
6
 10
-0.36488417741557
 20
-0.0498344038803082
 30
0.0
 40
0.0541655474069069
 50
161.294134617644
 51
198.705865382356
  0
ARC
  8
6
  6
CONTINUOUS
 62
6
 10
-0.395824334063495
 20
-0.0416949524727487
 30
0.0
 40
0.0223591435339133
 50
35.6800299999898
 51
155.613174782251
  0
LINE
  8
6
  6
CONTINUOUS
 62
6
 10
-0.371582295428536
 20
-0.0801358089145158
 30
0.0
 11
-0.371582295428536
 21
-0.0193358089388357
 31
0.0
  0
LINE
  8
6
  6
CONTINUOUS
 62
6
 10
-0.335927438299941
 20
-0.0801358089145158
 30
0.0
 11
-0.371582295428536
 21
-0.0801358089145158
 31
0.0
  0
LINE
  8
6
  6
CONTINUOUS
 62
6
 10
-0.307813159137084
 20
-0.0801358128605
 30
0.0
 11
-0.325184583631656
 21
-0.0801358128605
 31
0.0
  0
LINE
  8
6
  6
CONTINUOUS
 62
6
 10
-0.316498873419323
 20
-0.0211598128848198
 30
0.0
 11
-0.316498873419323
 21
-0.0783118128848198
 31
0.0
  0
LINE
  8
6
  6
CONTINUOUS
 62
6
 10
-0.307904581158821
 20
-0.0193358128848198
 30
0.0
 11
-0.325184583631656
 21
-0.0193358128848198
 31
0.0
  0
ARC
  8
6
  6
CONTINUOUS
 62
6
 10
-0.278439193968111
 20
-0.0579738528090916
 30
0.0
 40
0.0223591391910564
 50
204.38683723701
 51
324.320000000003
  0
ARC
  8
6
  6
CONTINUOUS
 62
6
 10
-0.24749903297733
 20
-0.0498344038803082
 30
0.0
 40
0.0541655474069069
 50
161.294134617644
 51
198.705865382356
  0
ARC
  8
6
  6
CONTINUOUS
 62
6
 10
-0.278439189625254
 20
-0.0416949524727487
 30
0.0
 40
0.0223591435339133
 50
35.6800299999898
 51
155.613174782251
  0
LINE
  8
6
  6
CONTINUOUS
 62
6
 10
-0.254197150990296
 20
-0.0801358089145158
 30
0.0
 11
-0.254197150990296
 21
-0.0193358089388357
 31
0.0
  0
LINE
  8
6
  6
CONTINUOUS
 62
6
 10
-0.237991630361768
 20
-0.0428193229183545
 30
0.0
 11
-0.220192579575326
 21
-0.0801358089145158
 31
0.0
  0
LINE
  8
6
  6
CONTINUOUS
 62
6
 10
-0.220192579575326
 20
-0.0193358089388357
 30
0.0
 11
-0.252413515707522
 21
-0.0570616780289573
 31
0.0
  0
LINE
  8
6
  6
CONTINUOUS
 62
6
 10
-0.118358291867374
 20
-0.0211798975327578
 30
0.0
 11
-0.118358291867374
 21
-0.0801358046780941
 31
0.0
  0
LINE
  8
6
  6
CONTINUOUS
 62
6
 10
-0.098924010503719
 20
-0.0193358047024141
 30
0.0
 11
-0.137792581916742
 21
-0.0193358047024141
 31
0.0
  0
ARC
  8
6
  6
CONTINUOUS
 62
6
 10
-0.072433471077471
 20
-0.0621624013914946
 30
0.0
 40
0.0180905857687474
 50
196.004825930422
 51
267.948379947904
  0
ARC
  8
6
  6
CONTINUOUS
 62
6
 10
-0.0385184583762619
 20
-0.0497788612136582
 30
0.0
 40
0.0541655474069045
 50
161.294116943038
 51
198.705883056962
  0
ARC
  8
6
  6
CONTINUOUS
 62
6
 10
-0.0724334686836119
 20
-0.0374357479467455
 30
0.0
 40
0.0181017762195814
 50
16.1288893758948
 51
163.872176621307
  0
ARC
  8
6
  6
CONTINUOUS
 62
6
 10
-0.106348462998871
 20
-0.0497788612154853
 30
0.0
 40
0.0541655474068987
 50
341.293755627023
 51
18.7062443729758
  0
ARC
  8
6
  6
CONTINUOUS
 62
6
 10
-0.0724334710774736
 20
-0.0621624013914921
 30
0.0
 40
0.0180905857687491
 50
272.763973435187
 51
343.994108060196
  0
LINE
  8
6
  6
CONTINUOUS
 62
6
 10
-0.0433240105037198
 20
-0.0193358089388357
 30
0.0
 11
-0.0433240105037198
 21
-0.0801358089145158
 31
0.0
  0
LINE
  8
6
  6
CONTINUOUS
 62
6
 10
-0.0212622962268294
 20
-0.0193358089388344
 30
0.0
 11
-0.0433240105037198
 21
-0.0193358089388357
 31
0.0
  0
ARC
  8
6
  6
CONTINUOUS
 62
6
 10
-0.02216560663393
 20
-0.0345358089327548
 30
0.0
 40
0.0152268174451116
 50
273.400991681353
 51
86.5990083186463
  0
LINE
  8
6
  6
CONTINUOUS
 62
6
 10
-0.0424120105037193
 20
-0.0497358089266758
 30
0.0
 11
-0.021262296226829
 21
-0.0497358089266751
 31
0.0
  0
LINE
  8
6
  6
CONTINUOUS
 62
6
 10
-0.399615434773109
 20
-0.384828601046011
 30
0.0
 11
-0.399615434773109
 21
-0.443784508191348
 31
0.0
  0
LINE
  8
6
  6
CONTINUOUS
 62
6
 10
-0.380181153409454
 20
-0.382984508215668
 30
0.0
 11
-0.419049724822477
 21
-0.382984508215668
 31
0.0
  0
LINE
  8
6
  6
CONTINUOUS
 62
6
 10
-0.354954670905003
 20
-0.411807174286744
 30
0.0
 11
-0.374101153409454
 21
-0.382984512452089
 31
0.0
  0
LINE
  8
6
  6
CONTINUOUS
 62
6
 10
-0.353906867703246
 20
-0.413384512439929
 30
0.0
 11
-0.353906867703246
 21
-0.44378451242777
 31
0.0
  0
LINE
  8
6
  6
CONTINUOUS
 62
6
 10
-0.333712581997038
 20
-0.382984512452089
 30
0.0
 11
-0.353906867703246
 21
-0.413384512439929
 31
0.0
  0
LINE
  8
6
  6
CONTINUOUS
 62
6
 10
-0.326112581997039
 20
-0.382984512452089
 30
0.0
 11
-0.326112581997039
 21
-0.443784512427769
 31
0.0
  0
LINE
  8
6
  6
CONTINUOUS
 62
6
 10
-0.304050867720149
 20
-0.382984512452088
 30
0.0
 11
-0.326112581997039
 21
-0.382984512452089
 31
0.0
  0
ARC
  8
6
  6
CONTINUOUS
 62
6
 10
-0.304954178127249
 20
-0.398184512446008
 30
0.0
 40
0.0152268174451115
 50
273.400991681353
 51
86.5990083186463
  0
LINE
  8
6
  6
CONTINUOUS
 62
6
 10
-0.325200581997039
 20
-0.413384512439929
 30
0.0
 11
-0.304050867720148
 21
-0.413384512439929
 31
0.0
  0
LINE
  8
6
  6
CONTINUOUS
 62
6
 10
-0.282116012252775
 20
-0.443785145273273
 30
0.0
 11
-0.24646115512418
 21
-0.443785145273273
 31
0.0
  0
LINE
  8
6
  6
CONTINUOUS
 62
6
 10
-0.282137726538481
 20
-0.413385145285433
 30
0.0
 11
-0.282116012252775
 21
-0.443785145273273
 31
0.0
  0
LINE
  8
6
  6
CONTINUOUS
 62
6
 10
-0.254278297978196
 20
-0.413385145285433
 30
0.0
 11
-0.282137726538481
 21
-0.413385145285433
 31
0.0
  0
LINE
  8
6
  6
CONTINUOUS
 62
6
 10
-0.282159440824187
 20
-0.382985145297593
 30
0.0
 11
-0.282139029028808
 21
-0.412473658827641
 31
0.0
  0
LINE
  8
6
  6
CONTINUOUS
 62
6
 10
-0.24950115512418
 20
-0.382985145297593
 30
0.0
 11
-0.282159440824187
 21
-0.382985145297593
 31
0.0
  0
LINE
  8
6
  6
CONTINUOUS
 62
6
 10
-0.399615434773109
 20
-0.621049073046011
 30
0.0
 11
-0.399615434773109
 21
-0.680004980191348
 31
0.0
  0
LINE
  8
6
  6
CONTINUOUS
 62
6
 10
-0.380181153409454
 20
-0.619204980215668
 30
0.0
 11
-0.419049724822477
 21
-0.619204980215668
 31
0.0
  0
LINE
  8
6
  6
CONTINUOUS
 62
6
 10
-0.354954670905003
 20
-0.648027646286744
 30
0.0
 11
-0.374101153409454
 21
-0.619204984452089
 31
0.0
  0
LINE
  8
6
  6
CONTINUOUS
 62
6
 10
-0.353906867703246
 20
-0.649604984439929
 30
0.0
 11
-0.353906867703246
 21
-0.680004984427769
 31
0.0
  0
LINE
  8
6
  6
CONTINUOUS
 62
6
 10
-0.333712581997038
 20
-0.619204984452089
 30
0.0
 11
-0.353906867703246
 21
-0.649604984439929
 31
0.0
  0
LINE
  8
6
  6
CONTINUOUS
 62
6
 10
-0.326112581997039
 20
-0.619204984452089
 30
0.0
 11
-0.326112581997039
 21
-0.680004984427769
 31
0.0
  0
LINE
  8
6
  6
CONTINUOUS
 62
6
 10
-0.304050867720149
 20
-0.619204984452088
 30
0.0
 11
-0.326112581997039
 21
-0.619204984452089
 31
0.0
  0
ARC
  8
6
  6
CONTINUOUS
 62
6
 10
-0.304954178127249
 20
-0.634404984446008
 30
0.0
 40
0.0152268174451118
 50
273.400991681353
 51
86.5990083186463
  0
LINE
  8
6
  6
CONTINUOUS
 62
6
 10
-0.325200581997039
 20
-0.649604984439929
 30
0.0
 11
-0.304050867720148
 21
-0.649604984439929
 31
0.0
  0
LINE
  8
6
  6
CONTINUOUS
 62
6
 10
-0.282116012252775
 20
-0.680005617273273
 30
0.0
 11
-0.24646115512418
 21
-0.680005617273273
 31
0.0
  0
LINE
  8
6
  6
CONTINUOUS
 62
6
 10
-0.282137726538481
 20
-0.649605617285433
 30
0.0
 11
-0.282116012252775
 21
-0.680005617273273
 31
0.0
  0
LINE
  8
6
  6
CONTINUOUS
 62
6
 10
-0.254278297978196
 20
-0.649605617285433
 30
0.0
 11
-0.282137726538481
 21
-0.649605617285433
 31
0.0
  0
LINE
  8
6
  6
CONTINUOUS
 62
6
 10
-0.282159440824187
 20
-0.619205617297594
 30
0.0
 11
-0.282139029028807
 21
-0.648694130827641
 31
0.0
  0
LINE
  8
6
  6
CONTINUOUS
 62
6
 10
-0.24950115512418
 20
-0.619205617297594
 30
0.0
 11
-0.282159440824187
 21
-0.619205617297594
 31
0.0
  0
ARC
  8
6
  6
CONTINUOUS
 62
6
 10
0.0908282431933398
 20
-0.0621624013914947
 30
0.0
 40
0.0180905857687473
 50
196.004825930422
 51
267.948379947904
  0
ARC
  8
6
  6
CONTINUOUS
 62
6
 10
0.124743255894549
 20
-0.0497788612136582
 30
0.0
 40
0.0541655474069043
 50
161.294116943038
 51
198.705883056962
  0
ARC
  8
6
  6
CONTINUOUS
 62
6
 10
0.0908282455871989
 20
-0.0374357479467455
 30
0.0
 40
0.0181017762195813
 50
16.128889375895
 51
163.872176621307
  0
ARC
  8
6
  6
CONTINUOUS
 62
6
 10
0.0569132512719402
 20
-0.0497788612154853
 30
0.0
 40
0.0541655474068986
 50
341.293755627023
 51
18.7062443729758
  0
ARC
  8
6
  6
CONTINUOUS
 62
6
 10
0.0908282431933371
 20
-0.0621624013914919
 30
0.0
 40
0.0180905857687493
 50
272.763973435187
 51
343.994108060196
  0
LINE
  8
6
  6
CONTINUOUS
 62
6
 10
0.123279319050581
 20
-0.0497344432611205
 30
0.0
 11
0.149301719050581
 21
-0.0497344432611205
 31
0.0
  0
LINE
  8
6
  6
CONTINUOUS
 62
6
 10
0.121464004776002
 20
-0.0193344432732806
 30
0.0
 11
0.121464004776002
 21
-0.0801344432489607
 31
0.0
  0
LINE
  8
6
  6
CONTINUOUS
 62
6
 10
0.1540788619046
 20
-0.0193344432732806
 30
0.0
 11
0.121464004776002
 21
-0.0193344432732806
 31
0.0
  0
ARC
  8
6
  6
CONTINUOUS
 62
6
 10
0.247101118229812
 20
-0.0391012863440645
 30
0.0
 40
0.0199836559080138
 50
48.9416968664116
 51
146.027978045882
  0
ARC
  8
6
  6
CONTINUOUS
 62
6
 10
0.251169759604597
 20
-0.0343838135478627
 30
0.0
 40
0.0137541271569777
 50
1.31476531232401E-6
 51
48.8140713147685
  0
ARC
  8
6
  6
CONTINUOUS
 62
6
 10
0.249741529624788
 20
-0.0343838132322434
 30
0.0
 40
0.0151823571367868
 50
279.088113900687
 51
359.999999999985
  0
ARC
  8
6
  6
CONTINUOUS
 62
6
 10
0.250576956504382
 20
-0.0645342019891678
 30
0.0
 40
0.0152389557338835
 50
19.4344258931595
 51
84.1142708141179
  0
ARC
  8
6
  6
CONTINUOUS
 62
6
 10
0.251490102245412
 20
-0.0643161593996055
 30
0.0
 40
0.0143056266629278
 50
307.790503302607
 51
19.8277712840454
  0
ARC
  8
6
  6
CONTINUOUS
 62
6
 10
0.247325372646631
 20
-0.0578717279776639
 30
0.0
 40
0.0219602814928684
 50
216.483006233949
 51
306.074034537003
  0
LINE
  8
6
  6
CONTINUOUS
 62
6
 10
0.279655993320958
 20
-0.0193358177892805
 30
0.0
 11
0.279655993320958
 21
-0.0801358177649605
 31
0.0
  0
LINE
  8
6
  6
CONTINUOUS
 62
6
 10
0.296614876165504
 20
-0.0193358185642117
 30
0.0
 11
0.279655993320958
 21
-0.0193358177892805
 31
0.0
  0
ARC
  8
6
  6
CONTINUOUS
 62
6
 10
0.294517458915013
 20
-0.0415963697803766
 30
0.0
 40
0.0223591435339139
 50
24.3863827720531
 51
84.6174099999931
  0
ARC
  8
6
  6
CONTINUOUS
 62
6
 10
0.263577320941057
 20
-0.0497358184725118
 30
0.0
 40
0.0541655474069042
 50
341.29431327019
 51
18.7056867298088
  0
ARC
  8
6
  6
CONTINUOUS
 62
6
 10
0.294517463257869
 20
-0.0578752657738671
 30
0.0
 40
0.0223591391910603
 50
275.382450717137
 51
335.613608269933
  0
LINE
  8
6
  6
CONTINUOUS
 62
6
 10
0.281175993320959
 20
-0.0801358177649605
 30
0.0
 11
0.296614825986811
 21
-0.0801358177649669
 31
0.0
  0
LINE
  8
6
  6
CONTINUOUS
 62
6
 10
0.427294531579558
 20
-0.0496601898375237
 30
0.0
 11
0.405336582070144
 21
-0.0496601898375237
 31
0.0
  0
ARC
  8
6
  6
CONTINUOUS
 62
6
 10
0.427289724917106
 20
-0.0648601890714437
 30
0.0
 40
0.0151999999939201
 50
270.000000002514
 51
89.9818814817917
  0
LINE
  8
6
  6
CONTINUOUS
 62
6
 10
0.403512582070143
 20
-0.0800601890653638
 30
0.0
 11
0.427289724917773
 21
-0.0800601890653638
 31
0.0
  0
LINE
  8
6
  6
CONTINUOUS
 62
6
 10
0.403512582070143
 20
-0.0193358089388358
 30
0.0
 11
0.403512582070143
 21
-0.0800601890653638
 31
0.0
  0
LINE
  8
6
  6
CONTINUOUS
 62
6
 10
0.424575439204577
 20
-0.0193358089388358
 30
0.0
 11
0.403512582070143
 21
-0.0193358089388358
 31
0.0
  0
ARC
  8
6
  6
CONTINUOUS
 62
6
 10
0.424453978274219
 20
-0.0345967331442872
 30
0.0
 40
0.0152614075485237
 50
296.191824756094
 51
89.5439953928134
  0
ARC
  8
6
  6
CONTINUOUS
 62
6
 10
0.468980264337273
 20
-0.0621624013914947
 30
0.0
 40
0.0180905857687473
 50
196.004825930422
 51
267.948379947904
  0
ARC
  8
6
  6
CONTINUOUS
 62
6
 10
0.502895277038482
 20
-0.0497788612136582
 30
0.0
 40
0.0541655474069043
 50
161.294116943038
 51
198.705883056962
  0
ARC
  8
6
  6
CONTINUOUS
 62
6
 10
0.468980266731132
 20
-0.0374357479467455
 30
0.0
 40
0.0181017762195812
 50
16.128889375895
 51
163.872176621307
  0
ARC
  8
6
  6
CONTINUOUS
 62
6
 10
0.435065272415873
 20
-0.0497788612154853
 30
0.0
 40
0.0541655474068986
 50
341.293755627023
 51
18.7062443729758
  0
ARC
  8
6
  6
CONTINUOUS
 62
6
 10
0.46898026433727
 20
-0.0621624013914918
 30
0.0
 40
0.0180905857687495
 50
272.763973435187
 51
343.994108060196
  0
LINE
  8
6
  6
CONTINUOUS
 62
6
 10
0.534352582038769
 20
-0.0801358089145158
 30
0.0
 11
0.496569724911025
 21
-0.0193358089388358
 31
0.0
  0
LINE
  8
6
  6
CONTINUOUS
 62
6
 10
0.531746867754097
 20
-0.0193358089388358
 30
0.0
 11
0.493964010626353
 21
-0.0801358089145158
 31
0.0
  0
LINE
  8
6
  6
CONTINUOUS
 62
6
 10
-0.0429946009547929
 20
0.678163540180168
 30
0.0
 11
-0.0429946009547929
 21
0.619207615808652
 31
0.0
  0
LINE
  8
6
  6
CONTINUOUS
 62
6
 10
-0.0235603139126838
 20
0.680007633549332
 30
0.0
 11
-0.0624288966826182
 21
0.680007633549332
 31
0.0
  0
LINE
  8
6
  6
CONTINUOUS
 62
6
 10
-0.0174803121361838
 20
0.619207611572229
 30
0.0
 11
-0.0174803121361838
 21
0.680007629312909
 31
0.0
  0
LINE
  8
6
  6
CONTINUOUS
 62
6
 10
0.0175404980964562
 20
0.649607620442569
 30
0.0
 11
-0.0156563116032338
 21
0.649607620442569
 31
0.0
  0
LINE
  8
6
  6
CONTINUOUS
 62
6
 10
0.0194339843492291
 20
0.680007629312909
 30
0.0
 11
0.0194339843492291
 21
0.619207611572229
 31
0.0
  0
LINE
  8
6
  6
CONTINUOUS
 62
6
 10
0.0261688417905232
 20
0.619206978726541
 30
0.0
 11
0.0618237093370213
 21
0.619206978726541
 31
0.0
  0
LINE
  8
6
  6
CONTINUOUS
 62
6
 10
0.0261471274984723
 20
0.649606987596881
 30
0.0
 11
0.0261688417905232
 21
0.619206978726541
 31
0.0
  0
LINE
  8
6
  6
CONTINUOUS
 62
6
 10
0.0540065641989338
 20
0.649606987596881
 30
0.0
 11
0.0261471274984723
 21
0.649606987596881
 31
0.0
  0
LINE
  8
6
  6
CONTINUOUS
 62
6
 10
0.026125413206422
 20
0.68000699646722
 30
0.0
 11
0.0261458250077653
 21
0.650518474320997
 31
0.0
  0
LINE
  8
6
  6
CONTINUOUS
 62
6
 10
0.0587837084487713
 20
0.68000699646722
 30
0.0
 11
0.026125413206422
 21
0.68000699646722
 31
0.0
  0
LINE
  8
6
  6
CONTINUOUS
 62
6
 10
0.0656637174756557
 20
0.680007621860612
 30
0.0
 11
0.0656637104590213
 21
0.619207611547909
 31
0.0
  0
LINE
  8
6
  6
CONTINUOUS
 62
6
 10
0.102997823607373
 20
0.619207604119932
 30
0.0
 11
0.0656637174756557
 21
0.680007621860612
 31
0.0
  0
LINE
  8
6
  6
CONTINUOUS
 62
6
 10
0.102997823607373
 20
0.680007621860612
 30
0.0
 11
0.102997823607373
 21
0.619207604119932
 31
0.0
  0
LINE
  8
6
  6
CONTINUOUS
 62
6
 10
-0.399615434773109
 20
0.796273758953989
 30
0.0
 11
-0.399615434773109
 21
0.737317851808652
 31
0.0
  0
LINE
  8
6
  6
CONTINUOUS
 62
6
 10
-0.380181153409454
 20
0.798117851784332
 30
0.0
 11
-0.419049724822477
 21
0.798117851784332
 31
0.0
  0
LINE
  8
6
  6
CONTINUOUS
 62
6
 10
-0.354954670905003
 20
0.769295185713256
 30
0.0
 11
-0.374101153409454
 21
0.798117847547911
 31
0.0
  0
LINE
  8
6
  6
CONTINUOUS
 62
6
 10
-0.353906867703246
 20
0.767717847560071
 30
0.0
 11
-0.353906867703246
 21
0.737317847572231
 31
0.0
  0
LINE
  8
6
  6
CONTINUOUS
 62
6
 10
-0.333712581997038
 20
0.798117847547911
 30
0.0
 11
-0.353906867703246
 21
0.767717847560071
 31
0.0
  0
LINE
  8
6
  6
CONTINUOUS
 62
6
 10
-0.326112581997039
 20
0.798117847547911
 30
0.0
 11
-0.326112581997039
 21
0.737317847572231
 31
0.0
  0
LINE
  8
6
  6
CONTINUOUS
 62
6
 10
-0.304050867720149
 20
0.798117847547912
 30
0.0
 11
-0.326112581997039
 21
0.798117847547911
 31
0.0
  0
ARC
  8
6
  6
CONTINUOUS
 62
6
 10
-0.304954178127249
 20
0.782917847553992
 30
0.0
 40
0.0152268174451116
 50
273.400991681353
 51
86.5990083186463
  0
LINE
  8
6
  6
CONTINUOUS
 62
6
 10
-0.325200581997039
 20
0.767717847560071
 30
0.0
 11
-0.304050867720148
 21
0.767717847560071
 31
0.0
  0
LINE
  8
6
  6
CONTINUOUS
 62
6
 10
-0.282116012252775
 20
0.737317214726727
 30
0.0
 11
-0.24646115512418
 21
0.737317214726727
 31
0.0
  0
LINE
  8
6
  6
CONTINUOUS
 62
6
 10
-0.282137726538481
 20
0.767717214714567
 30
0.0
 11
-0.282116012252775
 21
0.737317214726727
 31
0.0
  0
LINE
  8
6
  6
CONTINUOUS
 62
6
 10
-0.254278297978196
 20
0.767717214714567
 30
0.0
 11
-0.282137726538481
 21
0.767717214714567
 31
0.0
  0
LINE
  8
6
  6
CONTINUOUS
 62
6
 10
-0.282159440824187
 20
0.798117214702407
 30
0.0
 11
-0.282139029028807
 21
0.768628701172359
 31
0.0
  0
LINE
  8
6
  6
CONTINUOUS
 62
6
 10
-0.24950115512418
 20
0.798117214702407
 30
0.0
 11
-0.282159440824187
 21
0.798117214702407
 31
0.0
  0
LINE
  8
6
  6
CONTINUOUS
 62
6
 10
-0.399615434773109
 20
0.323832814953989
 30
0.0
 11
-0.399615434773109
 21
0.264876907808652
 31
0.0
  0
LINE
  8
6
  6
CONTINUOUS
 62
6
 10
-0.380181153409454
 20
0.325676907784332
 30
0.0
 11
-0.419049724822477
 21
0.325676907784332
 31
0.0
  0
LINE
  8
6
  6
CONTINUOUS
 62
6
 10
-0.354954670905003
 20
0.296854241713256
 30
0.0
 11
-0.374101153409454
 21
0.325676903547911
 31
0.0
  0
LINE
  8
6
  6
CONTINUOUS
 62
6
 10
-0.353906867703246
 20
0.295276903560071
 30
0.0
 11
-0.353906867703246
 21
0.264876903572231
 31
0.0
  0
LINE
  8
6
  6
CONTINUOUS
 62
6
 10
-0.333712581997038
 20
0.325676903547911
 30
0.0
 11
-0.353906867703246
 21
0.295276903560071
 31
0.0
  0
LINE
  8
6
  6
CONTINUOUS
 62
6
 10
-0.326112581997039
 20
0.325676903547911
 30
0.0
 11
-0.326112581997039
 21
0.264876903572231
 31
0.0
  0
LINE
  8
6
  6
CONTINUOUS
 62
6
 10
-0.304050867720149
 20
0.325676903547912
 30
0.0
 11
-0.326112581997039
 21
0.325676903547911
 31
0.0
  0
ARC
  8
6
  6
CONTINUOUS
 62
6
 10
-0.304954178127249
 20
0.310476903553992
 30
0.0
 40
0.0152268174451116
 50
273.400991681353
 51
86.5990083186463
  0
LINE
  8
6
  6
CONTINUOUS
 62
6
 10
-0.325200581997039
 20
0.295276903560071
 30
0.0
 11
-0.304050867720148
 21
0.295276903560071
 31
0.0
  0
LINE
  8
6
  6
CONTINUOUS
 62
6
 10
-0.282116012252775
 20
0.264876270726727
 30
0.0
 11
-0.24646115512418
 21
0.264876270726727
 31
0.0
  0
LINE
  8
6
  6
CONTINUOUS
 62
6
 10
-0.282137726538481
 20
0.295276270714567
 30
0.0
 11
-0.282116012252775
 21
0.264876270726727
 31
0.0
  0
LINE
  8
6
  6
CONTINUOUS
 62
6
 10
-0.254278297978196
 20
0.295276270714567
 30
0.0
 11
-0.282137726538481
 21
0.295276270714567
 31
0.0
  0
LINE
  8
6
  6
CONTINUOUS
 62
6
 10
-0.282159440824187
 20
0.325676270702407
 30
0.0
 11
-0.282139029028807
 21
0.296187757172359
 31
0.0
  0
LINE
  8
6
  6
CONTINUOUS
 62
6
 10
-0.24950115512418
 20
0.325676270702407
 30
0.0
 11
-0.282159440824187
 21
0.325676270702407
 31
0.0
  0
ARC
  8
9
  6
CONTINUOUS
 62
9
 10
-0.121638038857752
 20
-0.189547580057708
 30
0.0
 40
0.01809059113939
 50
196.004825930423
 51
267.948379947905
  0
ARC
  8
9
  6
CONTINUOUS
 62
9
 10
-0.0877230160880236
 20
-0.177164036203508
 30
0.0
 40
0.0541655634873013
 50
161.294116943038
 51
198.705883056962
  0
ARC
  8
9
  6
CONTINUOUS
 62
9
 10
-0.121638036463892
 20
-0.164820919272234
 30
0.0
 40
0.018101781593546
 50
16.1288893758952
 51
163.872176621307
  0
ARC
  8
9
  6
CONTINUOUS
 62
9
 10
-0.155553040847665
 20
-0.177164036205336
 30
0.0
 40
0.0541655634872956
 50
341.293755627024
 51
18.7062443729764
  0
ARC
  8
9
  6
CONTINUOUS
 62
9
 10
-0.121638038857755
 20
-0.189547580057706
 30
0.0
 40
0.018090591139392
 50
272.763973435188
 51
343.994108060197
  0
LINE
  8
9
  6
CONTINUOUS
 62
9
 10
-0.0910085691908789
 20
-0.207520992916585
 30
0.0
 11
-0.0910085691908789
 21
-0.146720974890905
 31
0.0
  0
LINE
  8
9
  6
CONTINUOUS
 62
9
 10
-0.0910085691908789
 20
-0.146720974890905
 30
0.0
 11
-0.0689468483644153
 21
-0.146720974890904
 31
0.0
  0
ARC
  8
9
  6
CONTINUOUS
 62
9
 10
-0.0692397867624408
 20
-0.161920956895472
 30
0.0
 40
0.0152028045387761
 50
271.095264000543
 51
88.8959160393196
  0
LINE
  8
9
  6
CONTINUOUS
 62
9
 10
-0.06894918821274
 20
-0.177120983814104
 30
0.0
 11
-0.0890131941692406
 21
-0.177120983814104
 31
0.0
  0
LINE
  8
9
  6
CONTINUOUS
 62
9
 10
-0.0680829604236754
 20
-0.178853182818792
 30
0.0
 11
-0.0537468438579973
 21
-0.207520992916585
 31
0.0
  0
LINE
  8
9
  6
CONTINUOUS
 62
9
 10
-0.0476668420529979
 20
-0.207520992916585
 30
0.0
 11
-0.0248668352933678
 21
-0.146720974890905
 31
0.0
  0
LINE
  8
9
  6
CONTINUOUS
 62
9
 10
-0.0248668352933678
 20
-0.146720974890905
 30
0.0
 11
-0.00206682853373752
 21
-0.207520992916585
 31
0.0
  0
LINE
  8
9
  6
CONTINUOUS
 62
9
 10
-0.0409571257772914
 20
-0.194492417625368
 30
0.0
 11
-0.00877654480944401
 21
-0.194492417625368
 31
0.0
  0
LINE
  8
9
  6
CONTINUOUS
 62
9
 10
0.00481317350876248
 20
-0.207520992940905
 30
0.0
 11
0.00481318052539687
 21
-0.146720982343203
 31
0.0
  0
LINE
  8
9
  6
CONTINUOUS
 62
9
 10
0.00481318052539687
 20
-0.146720982343203
 30
0.0
 11
0.042147286832118
 21
-0.207521000368882
 31
0.0
  0
LINE
  8
9
  6
CONTINUOUS
 62
9
 10
0.042147286832118
 20
-0.207521000368882
 30
0.0
 11
0.042147286832118
 21
-0.146720982343203
 31
0.0
  0
LINE
  8
9
  6
CONTINUOUS
 62
9
 10
0.0657339936599254
 20
-0.180639637466911
 30
0.0
 11
0.0913887532477031
 21
-0.180639637466911
 31
0.0
  0
ARC
  8
9
  6
CONTINUOUS
 62
9
 10
0.0913887532477063
 20
-0.182463455608354
 30
0.0
 40
0.00182381814144265
 50
1.0203219418135E-10
 51
90.0000000001016
  0
LINE
  8
9
  6
CONTINUOUS
 62
9
 10
0.093212571389149
 20
-0.182463455608351
 30
0.0
 11
0.093212571389149
 21
-0.187054343708409
 31
0.0
  0
ARC
  8
9
  6
CONTINUOUS
 62
9
 10
0.0725117808735809
 20
-0.187213203417151
 30
0.0
 40
0.0207014000583655
 50
200.855259280578
 51
0.439684280074246
  0
ARC
  8
9
  6
CONTINUOUS
 62
9
 10
0.104466520177018
 20
-0.177215063076738
 30
0.0
 40
0.0541601469309475
 50
161.293996529298
 51
198.703982620842
  0
ARC
  8
9
  6
CONTINUOUS
 62
9
 10
0.0735294917721262
 20
-0.16907629956205
 30
0.0
 40
0.0223569142567667
 50
35.6800300000038
 51
155.613174782207
  0
LINE
  8
9
  6
CONTINUOUS
 62
9
 10
0.13586386627511
 20
-0.207521625762277
 30
0.0
 11
0.10020899856148
 21
-0.207521625762277
 31
0.0
  0
LINE
  8
9
  6
CONTINUOUS
 62
9
 10
0.10020899856148
 20
-0.207521625762277
 30
0.0
 11
0.100187284269327
 21
-0.177121616749437
 31
0.0
  0
LINE
  8
9
  6
CONTINUOUS
 62
9
 10
0.100187284269327
 20
-0.177121616749437
 30
0.0
 11
0.12804672110038
 21
-0.177121616749437
 31
0.0
  0
LINE
  8
9
  6
CONTINUOUS
 62
9
 10
0.100185981778614
 20
-0.176210130021047
 30
0.0
 11
0.100165569977175
 21
-0.146721607736597
 31
0.0
  0
LINE
  8
9
  6
CONTINUOUS
 62
9
 10
0.100165569977175
 20
-0.146721607736597
 30
0.0
 11
0.13282386537261
 21
-0.146721607736597
 31
0.0
  0
ARC
  8
9
  6
CONTINUOUS
 62
9
 10
0.229041856977322
 20
-0.19003092399698
 30
0.0
 40
0.017526530224748
 50
210.521999666259
 51
269.441063338051
  0
LINE
  8
9
  6
CONTINUOUS
 62
9
 10
0.228870883390678
 20
-0.207556620267077
 30
0.0
 11
0.23506670523501
 21
-0.207617064174127
 31
0.0
  0
ARC
  8
9
  6
CONTINUOUS
 62
9
 10
0.235222786698719
 20
-0.191617879488563
 30
0.0
 40
0.0159999460007253
 50
269.441063677776
 51
357.350682656729
  0
ARC
  8
9
  6
CONTINUOUS
 62
9
 10
0.238191126152287
 20
-0.193537795120169
 30
0.0
 40
0.0130679215886
 50
5.18227244383246
 51
59.3448299999945
  0
LINE
  8
9
  6
CONTINUOUS
 62
9
 10
0.244854067156794
 20
-0.182296096324335
 30
0.0
 11
0.220925171776223
 21
-0.172018792626036
 31
0.0
  0
ARC
  8
9
  6
CONTINUOUS
 62
9
 10
0.227588117139614
 20
-0.160777099508383
 30
0.0
 40
0.0130679189264028
 50
185.182406440223
 51
239.344800865824
  0
ARC
  8
9
  6
CONTINUOUS
 62
9
 10
0.230492410582585
 20
-0.162654752022134
 30
0.0
 40
0.0159340565567974
 50
91.2613438550532
 51
177.491952931064
  0
LINE
  8
9
  6
CONTINUOUS
 62
9
 10
0.230141656982298
 20
-0.14672455647195
 30
0.0
 11
0.236322745394554
 21
-0.146718056904744
 31
0.0
  0
ARC
  8
9
  6
CONTINUOUS
 62
9
 10
0.235770725024922
 20
-0.163681455710289
 30
0.0
 40
0.0169723783107871
 50
29.2717084966249
 51
88.1361471074766
  0
LINE
  8
9
  6
CONTINUOUS
 62
9
 10
0.261610850688579
 20
-0.146720974890905
 30
0.0
 11
0.261610850688579
 21
-0.207520992916585
 31
0.0
  0
LINE
  8
9
  6
CONTINUOUS
 62
9
 10
0.263434851230079
 20
-0.177120983903745
 30
0.0
 11
0.296631661085379
 21
-0.177120983903745
 31
0.0
  0
LINE
  8
9
  6
CONTINUOUS
 62
9
 10
0.298525147347028
 20
-0.207520992916585
 30
0.0
 11
0.298525147347028
 21
-0.146720974890905
 31
0.0
  0
LINE
  8
9
  6
CONTINUOUS
 62
9
 10
0.304605149152028
 20
-0.207520992916585
 30
0.0
 11
0.327405155911658
 21
-0.146720974890905
 31
0.0
  0
LINE
  8
9
  6
CONTINUOUS
 62
9
 10
0.327405155911658
 20
-0.146720974890905
 30
0.0
 11
0.350205162671288
 21
-0.207520992916585
 31
0.0
  0
LINE
  8
9
  6
CONTINUOUS
 62
9
 10
0.311314865427735
 20
-0.194492417625368
 30
0.0
 11
0.343495446395582
 21
-0.194492417625368
 31
0.0
  0
LINE
  8
9
  6
CONTINUOUS
 62
9
 10
0.357805164927538
 20
-0.207520992916585
 30
0.0
 11
0.357805164927538
 21
-0.146720974890905
 31
0.0
  0
LINE
  8
9
  6
CONTINUOUS
 62
9
 10
0.357805164927538
 20
-0.146720974890905
 30
0.0
 11
0.379866885753999
 21
-0.146720974890904
 31
0.0
  0
ARC
  8
9
  6
CONTINUOUS
 62
9
 10
0.378963575078729
 20
-0.161920979397324
 30
0.0
 40
0.015226821965573
 50
273.400991681353
 51
86.5990083186456
  0
LINE
  8
9
  6
CONTINUOUS
 62
9
 10
0.379866885754
 20
-0.177120983903744
 30
0.0
 11
0.358717165198288
 21
-0.177120983903745
 31
0.0
  0
LINE
  8
9
  6
CONTINUOUS
 62
9
 10
0.437456615446914
 20
-0.207521625762277
 30
0.0
 11
0.401801747733284
 21
-0.207521625762277
 31
0.0
  0
LINE
  8
9
  6
CONTINUOUS
 62
9
 10
0.401801747733284
 20
-0.207521625762277
 30
0.0
 11
0.401780033441131
 21
-0.177121616749437
 31
0.0
  0
LINE
  8
9
  6
CONTINUOUS
 62
9
 10
0.401780033441131
 20
-0.177121616749437
 30
0.0
 11
0.429639470272184
 21
-0.177121616749437
 31
0.0
  0
LINE
  8
9
  6
CONTINUOUS
 62
9
 10
0.401778730950418
 20
-0.176210130021047
 30
0.0
 11
0.401758319148979
 21
-0.146721607736597
 31
0.0
  0
LINE
  8
9
  6
CONTINUOUS
 62
9
 10
0.401758319148979
 20
-0.146721607736597
 30
0.0
 11
0.434416614544414
 21
-0.146721607736597
 31
0.0
  0
ARC
  8
9
  6
CONTINUOUS
 62
9
 10
-0.787401575103522
 20
-0.787401575042074
 30
0.0
 40
0.19685039339648
 50
359.999999904795
 51
90.0000000824283
  0
ARC
  8
9
  6
CONTINUOUS
 62
9
 10
-0.787401575103519
 20
0.787401575042078
 30
0.0
 40
0.19685039339648
 50
269.99999991757
 51
315.760832061111
  0
ARC
  8
9
  6
CONTINUOUS
 62
9
 10
-0.787401575043684
 20
0.787401575103524
 30
0.0
 40
0.196850393396479
 50
315.760832036148
 51
8.24286004994388E-8
  0
ARC
  8
9
  6
CONTINUOUS
 62
9
 10
0.787401575103524
 20
0.787401575042074
 30
0.0
 40
0.19685039339648
 50
224.239167938886
 51
270.000000082427
  0
ARC
  8
9
  6
CONTINUOUS
 62
9
 10
0.787401575043686
 20
0.787401575103518
 30
0.0
 40
0.196850393396479
 50
179.99999991757
 51
224.239167963849
  0
LINE
  8
9
  6
CONTINUOUS
 62
9
 10
-0.866141732500001
 20
-0.511811024645598
 30
0.0
 11
-0.866141732500001
 21
0.511811024645598
 31
0.0
  0
LINE
  8
9
  6
CONTINUOUS
 62
9
 10
-0.511811024647208
 20
0.866141732500001
 30
0.0
 11
0.511811024647208
 21
0.866141732500001
 31
0.0
  0
ARC
  8
9
  6
CONTINUOUS
 62
9
 10
0.7874015755
 20
0.511811024645599
 30
0.0
 40
0.0787401570000001
 50
359.999999999998
 51
90.0000000824282
  0
ARC
  8
9
  6
CONTINUOUS
 62
9
 10
0.511811024647207
 20
0.787401575500003
 30
0.0
 40
0.0787401570000001
 50
359.99999991757
 51
89.9999999999995
  0
ARC
  8
9
  6
CONTINUOUS
 62
9
 10
-0.511811024647207
 20
0.787401575500001
 30
0.0
 40
0.078740157
 50
89.9999999999996
 51
180.000000082429
  0
ARC
  8
9
  6
CONTINUOUS
 62
9
 10
-0.787401575500001
 20
0.511811024645598
 30
0.0
 40
0.078740157
 50
89.9999999175709
 51
180
  0
ARC
  8
9
  6
CONTINUOUS
 62
9
 10
-0.787401575500001
 20
-0.511811024645599
 30
0.0
 40
0.078740157
 50
179.999999999999
 51
270.000000082428
  0
ARC
  8
9
  6
CONTINUOUS
 62
9
 10
-0.511811024707042
 20
-0.787401575500003
 30
0.0
 40
0.078740157
 50
179.999999904795
 51
269.999999999998
  0
ARC
  8
9
  6
CONTINUOUS
 62
9
 10
0.78740157510352
 20
-0.78740157504208
 30
0.0
 40
0.19685039339648
 50
89.9999999175709
 51
135.760832061112
  0
ARC
  8
9
  6
CONTINUOUS
 62
9
 10
0.787401575043686
 20
-0.787401575103526
 30
0.0
 40
0.196850393396479
 50
135.760832036149
 51
180.000000082428
  0
ARC
  8
9
  6
CONTINUOUS
 62
9
 10
0.787401575500003
 20
-0.5118110246456
 30
0.0
 40
0.0787401570000001
 50
269.99999991757
 51
359.999999999998
  0
ARC
  8
9
  6
CONTINUOUS
 62
9
 10
0.511811024647209
 20
-0.787401575500003
 30
0.0
 40
0.0787401570000001
 50
269.999999999998
 51
8.24283237911815E-8
  0
LINE
  8
9
  6
CONTINUOUS
 62
9
 10
-0.511811024707042
 20
-0.866141732500001
 30
0.0
 11
0.511811024647207
 21
-0.866141732500001
 31
0.0
  0
LINE
  8
9
  6
CONTINUOUS
 62
9
 10
0.866141732500001
 20
0.511811024645598
 30
0.0
 11
0.866141732500001
 21
-0.5118110246456
 31
0.0
  0
ENDSEC
  0
EOF
