999
File generated by Conversation
0
SECTION
2
HEADER
0
SECTION
2
HEADER
9
$ACADVER
1
AC1021
9
$INSBASE
10
0.0
20
0.0
30
0.0
9
$INSUNITS
70
4
9
$EXTMIN
10
0.0
20
0.0
30
0.0
9
$EXTMAX
10
1000.0
20
1000.0
30
0.0
0
ENDSEC
0
SECTION
2
TABLES
0
TABLE
2
LTYPE
70
1
0
LTYPE
2
CONTINUOUS
70
64
3
Solid line
72
65
73
0
40
0.0
0
ENDTAB
0
TABLE
2
LAYER
70
1
0
LAYER
2
0
70
64
62
7
6
CONTINUOUS
0
ENDTAB
0
TABLE
2
STYLE
70
1
0
STYLE
2
STANDARD
70
0
40
0.0
41
1.0
50
0.0
71
0
42
0.2
3
txt
4

0
ENDTAB
0
ENDSEC
0
SECTION
2
ENTITIES
0
LINE
8
0
62
3
10
23.000000
20
7.759766
30
0.0
11
15.999985
21
7.759766
31
0.0
0
ARC
8
0
62
3
10
15.999985
20
1.759766
30
0.0
40
6.000000
50
90.000000
51
180.000000
0
LINE
8
0
62
3
10
24.000015
20
9.259766
30
0.0
11
24.000015
21
8.759766
31
0.0
0
LINE
8
0
62
3
10
23.000000
20
-7.240234
30
0.0
11
15.999985
21
-7.240234
31
0.0
0
LINE
8
0
62
3
10
9.999985
20
-1.240234
30
0.0
11
9.999985
21
1.759766
31
0.0
0
ARC
8
0
62
3
10
15.999985
20
-1.240234
30
0.0
40
6.000000
50
180.000000
51
270.000000
0
LINE
8
0
62
3
10
24.000015
20
-8.240234
30
0.0
11
24.000015
21
-8.740356
31
0.0
0
LINE
8
0
62
3
10
23.000000
20
10.259644
30
0.0
11
8.499985
21
10.259644
31
0.0
0
LINE
8
0
62
3
10
23.000000
20
-9.740234
30
0.0
11
1.349991
21
-9.740234
31
0.0
0
LINE
8
0
62
3
10
4.000000
20
10.259644
30
0.0
11
3.500000
21
10.259644
31
0.0
0
LINE
8
0
62
3
10
2.499985
20
9.259766
30
0.0
11
2.499985
21
-6.090332
31
0.0
0
LINE
8
0
62
3
10
1.349991
20
-7.240234
30
0.0
11
1.349991
21
-9.740234
31
0.0
0
LINE
8
0
62
3
10
2.499985
20
-6.090332
30
0.0
11
1.349991
21
-7.240234
31
0.0
0
ARC
8
0
62
3
10
3.500000
20
9.259766
30
0.0
40
1.000000
50
90.000000
51
180.000000
0
ARC
8
0
62
3
10
4.000000
20
9.259766
30
0.0
40
1.000000
50
0.000000
51
90.000000
0
ARC
8
0
62
3
10
8.499985
20
9.259766
30
0.0
40
1.000000
50
90.000000
51
180.000000
0
LINE
8
0
62
3
10
6.000000
20
-2.240356
30
0.0
11
6.499985
21
-2.240356
31
0.0
0
ARC
8
0
62
3
10
6.499985
20
-1.240234
30
0.0
40
1.000000
50
270.000000
51
0.000000
0
ARC
8
0
62
3
10
6.000000
20
-1.240234
30
0.0
40
1.000000
50
180.000000
51
270.000000
0
LINE
8
0
62
3
10
5.000000
20
-1.240234
30
0.0
11
5.000000
21
9.259766
31
0.0
0
LINE
8
0
62
3
10
7.500000
20
-1.240234
30
0.0
11
7.500000
21
9.259766
31
0.0
0
ARC
8
0
62
3
10
23.000000
20
-8.740356
30
0.0
40
1.000000
50
270.000000
51
0.000000
0
ARC
8
0
62
3
10
23.000000
20
-8.240234
30
0.0
40
1.000000
50
0.000000
51
90.000000
0
ARC
8
0
62
3
10
23.000000
20
8.759766
30
0.0
40
1.000000
50
270.000000
51
0.000000
0
ARC
8
0
62
3
10
23.000000
20
9.259766
30
0.0
40
1.000000
50
0.000000
51
90.000000
0
ARC
8
0
62
5
10
0.000000
20
0.000000
30
0.0
40
1.240310
50
0.000000
51
45.000000
0
LINE
8
0
62
5
10
0.000000
20
1.754150
30
0.0
11
-0.877029
21
0.877075
31
0.0
0
ARC
8
0
62
5
10
0.000000
20
0.000000
30
0.0
40
1.240310
50
135.000000
51
180.000000
0
ARC
8
0
62
5
10
0.000000
20
0.000000
30
0.0
40
1.240310
50
180.000000
51
0.000000
0
LINE
8
0
62
5
10
0.000000
20
1.754150
30
0.0
11
0.877029
21
0.877075
31
0.0
0
ARC
8
0
62
4
10
19.899994
20
0.000000
30
0.0
40
1.600000
50
0.000000
51
180.000000
0
ARC
8
0
62
4
10
19.899994
20
0.000000
30
0.0
40
1.600000
50
180.000000
51
0.000000
0
ARC
8
0
62
4
10
19.899994
20
0.000000
30
0.0
40
3.000000
50
0.000000
51
180.000000
0
ARC
8
0
62
4
10
19.899994
20
0.000000
30
0.0
40
3.000000
50
180.000000
51
0.000000
0
CIRCLE
8
0
62
2
10
0.000000
20
0.000000
30
0.0
40
24.000000
0
LINE
8
0
62
8
10
0.000000
20
0.000000
30
0.0
11
0.000000
21
30.000000
31
0.0
0
ENDSEC
0
EOF
