  0
SECTION
  2
HEADER
  9
$ACADVER
  1
AC1003
  9
$EXTMIN
 10
-0.0488311053980599
 20
0.787401574000001
  9
$EXTMAX
 10
0.944881890000002
 20
0
  9
$INSUNITS
 70
1
  9
$INSBASE
 10
0.448025392300971
 20
0.393700787
999
Created with OMAX LAYOUT for Windows. (www.omax.com) 2/7/2024
  0
ENDSEC
  0
SECTION
  2
TABLES
  0
TABLE
  2
LAYER
 70
    10
  0
LAYER
  2
0
 70
     0
 62
     7
  6
CONTINUOUS
  0
LAYER
  2
1
 70
     0
 62
     7
  6
CONTINUOUS
  0
LAYER
  2
2
 70
     0
 62
     7
  6
CONTINUOUS
  0
LAYER
  2
3
 70
     0
 62
     7
  6
CONTINUOUS
  0
LAYER
  2
4
 70
     0
 62
     7
  6
CONTINUOUS
  0
LAYER
  2
5
 70
     0
 62
     7
  6
CONTINUOUS
  0
LAYER
  2
6
 70
     0
 62
     7
  6
CONTINUOUS
  0
LAYER
  2
7
 70
     0
 62
     7
  6
CONTINUOUS
  0
LAYER
  2
8
 70
     0
 62
     7
  6
CONTINUOUS
  0
LAYER
  2
9
 70
     0
 62
     7
  6
CONTINUOUS
  0
LAYER
  2
10
 70
     0
 62
     7
  6
CONTINUOUS
  0
LAYER
  2
11
 70
     0
 62
     7
  6
CONTINUOUS
  0
LAYER
  2
12
 70
     0
 62
     7
  6
CONTINUOUS
  0
LAYER
  2
13
 70
     0
 62
     7
  6
CONTINUOUS
  0
LAYER
  2
14
 70
     0
 62
     7
  6
CONTINUOUS
  0
LAYER
  2
15
 70
     0
 62
     7
  6
CONTINUOUS
  0
LAYER
  2
16
 70
     0
 62
     7
  6
CONTINUOUS
  0
LAYER
  2
17
 70
     0
 62
     7
  6
CONTINUOUS
  0
LAYER
  2
18
 70
     0
 62
     7
  6
CONTINUOUS
  0
LAYER
  2
19
 70
     0
 62
     7
  6
CONTINUOUS
  0
LAYER
  2
20
 70
     0
 62
     7
  6
CONTINUOUS
  0
LAYER
  2
21
 70
     0
 62
     7
  6
CONTINUOUS
  0
LAYER
  2
22
 70
     0
 62
     7
  6
CONTINUOUS
  0
LAYER
  2
23
 70
     0
 62
     7
  6
CONTINUOUS
  0
LAYER
  2
24
 70
     0
 62
     7
  6
CONTINUOUS
  0
LAYER
  2
25
 70
     0
 62
     7
  6
CONTINUOUS
  0
LAYER
  2
26
 70
     0
 62
     7
  6
CONTINUOUS
  0
LAYER
  2
27
 70
     0
 62
     7
  6
CONTINUOUS
  0
LAYER
  2
28
 70
     0
 62
     7
  6
CONTINUOUS
  0
LAYER
  2
29
 70
     0
 62
     7
  6
CONTINUOUS
  0
LAYER
  2
30
 70
     0
 62
     7
  6
CONTINUOUS
  0
LAYER
  2
31
 70
     0
 62
     7
  6
CONTINUOUS
  0
ENDTAB
  0
ENDSEC
  0
SECTION
  2
ENTITIES
  0
LINE
  8
0
  6
CONTINUOUS
 62
0
 10
0.62992126
 20
0.688976377000003
 30
0.0
 11
0.905511811
 21
0.688976377000003
 31
0.0
  0
ARC
  8
0
  6
CONTINUOUS
 62
0
 10
0.629921259999998
 20
0.452755905000004
 30
0.0
 40
0.236220471999999
 50
89.9999999999996
 51
180
  0
LINE
  8
0
  6
CONTINUOUS
 62
0
 10
0.944881890000001
 20
0.728346456000011
 30
0.0
 11
0.944881890000001
 21
0.748031495000006
 31
0.0
  0
LINE
  8
0
  6
CONTINUOUS
 62
0
 10
0.62992126
 20
0.0984251970000116
 30
0.0
 11
0.905511811
 21
0.0984251970000116
 31
0.0
  0
LINE
  8
0
  6
CONTINUOUS
 62
0
 10
0.393700788
 20
0.452755905000004
 30
0.0
 11
0.393700788
 21
0.334645669000011
 31
0.0
  0
ARC
  8
0
  6
CONTINUOUS
 62
0
 10
0.629921259999993
 20
0.334645669000002
 30
0.0
 40
0.236220471999993
 50
179.999999999998
 51
269.999999999999
  0
LINE
  8
0
  6
CONTINUOUS
 62
0
 10
0.944881890000001
 20
0.0393700790000082
 30
0.0
 11
0.944881890000001
 21
0.0590551180000034
 31
0.0
  0
LINE
  8
0
  6
CONTINUOUS
 62
0
 10
0.33464567
 20
0.787401574
 30
0.0
 11
0.905511811
 21
0.787401574
 31
0.0
  0
LINE
  8
0
  6
CONTINUOUS
 62
0
 10
0.0531496069999999
 20
0
 30
0.0
 11
0.905511811
 21
0
 31
0.0
  0
LINE
  8
0
  6
CONTINUOUS
 62
0
 10
0.137795276
 20
0.787401574
 30
0.0
 11
0.157480315000001
 21
0.787401574
 31
0.0
  0
LINE
  8
0
  6
CONTINUOUS
 62
0
 10
0.098425197000001
 20
0.143700787
 30
0.0
 11
0.098425197000001
 21
0.748031495000006
 31
0.0
  0
LINE
  8
0
  6
CONTINUOUS
 62
0
 10
0.0531496069999999
 20
0
 30
0.0
 11
0.0531496069999999
 21
0.0984251970000116
 31
0.0
  0
LINE
  8
0
  6
CONTINUOUS
 62
0
 10
0.0531496069999999
 20
0.0984251970000116
 30
0.0
 11
0.098425197000001
 21
0.143700787
 31
0.0
  0
LINE
  8
0
  6
CONTINUOUS
 62
0
 10
0
 20
0.787401574
 30
0.0
 11
0
 21
0
 31
0.0
  0
ARC
  8
0
  6
CONTINUOUS
 62
0
 10
0.137795275999997
 20
0.748031495000004
 30
0.0
 40
0.0393700789999964
 50
89.9999999999956
 51
179.999999999996
  0
ARC
  8
0
  6
CONTINUOUS
 62
0
 10
0.157480315000003
 20
0.748031495000004
 30
0.0
 40
0.0393700789999967
 50
3.7657767428528E-12
 51
90.0000000000036
  0
ARC
  8
0
  6
CONTINUOUS
 62
0
 10
0.334645669999997
 20
0.748031495000004
 30
0.0
 40
0.0393700789999964
 50
89.9999999999956
 51
179.999999999996
  0
LINE
  8
0
  6
CONTINUOUS
 62
0
 10
0.255905512
 20
0.295275590000003
 30
0.0
 11
0.236220473000001
 21
0.295275590000003
 31
0.0
  0
ARC
  8
0
  6
CONTINUOUS
 62
0
 10
0.255905511999997
 20
0.334645669000007
 30
0.0
 40
0.0393700790000047
 50
270.000000000005
 51
4.96166530308309E-12
  0
ARC
  8
0
  6
CONTINUOUS
 62
0
 10
0.236220473000005
 20
0.334645669000007
 30
0.0
 40
0.0393700790000047
 50
179.999999999994
 51
269.999999999994
  0
LINE
  8
0
  6
CONTINUOUS
 62
0
 10
0.196850394
 20
0.748031495000006
 30
0.0
 11
0.196850394
 21
0.334645669000011
 31
0.0
  0
LINE
  8
0
  6
CONTINUOUS
 62
0
 10
0.295275591000001
 20
0.748031495000006
 30
0.0
 11
0.295275591000001
 21
0.334645669000011
 31
0.0
  0
ARC
  8
0
  6
CONTINUOUS
 62
0
 10
0.905511810999997
 20
0.0393700790000047
 30
0.0
 40
0.0393700790000047
 50
270.000000000005
 51
4.96166530308309E-12
  0
ARC
  8
0
  6
CONTINUOUS
 62
0
 10
0.905511810999997
 20
0.0590551180000073
 30
0.0
 40
0.0393700790000047
 50
359.999999999994
 51
89.9999999999945
  0
ARC
  8
0
  6
CONTINUOUS
 62
0
 10
0.905511810999997
 20
0.728346456000008
 30
0.0
 40
0.0393700790000047
 50
270.000000000005
 51
4.96166530308309E-12
  0
ARC
  8
0
  6
CONTINUOUS
 62
0
 10
0.905511811000004
 20
0.748031495000003
 30
0.0
 40
0.0393700789999976
 50
5.06344305288992E-12
 51
90.0000000000049
  0
ARC
  8
0
  6
CONTINUOUS
 62
0
 10
5.09522979363908E-14
 20
0.383476774398073
 30
0.0
 40
0.0488311053979894
 50
3.73651563978334E-11
 51
44.9999999999743
  0
LINE
  8
0
  6
CONTINUOUS
 62
0
 10
-0.0345288057598001
 20
0.41800558015791
 30
0.0
 11
0
 21
0.452534385917701
 31
0.0
  0
ARC
  8
0
  6
CONTINUOUS
 62
0
 10
1.00246200229748E-13
 20
0.383476774398112
 30
0.0
 40
0.0488311053981603
 50
135.000000000126
 51
180.000000000125
  0
ARC
  8
0
  6
CONTINUOUS
 62
0
 10
0
 20
0.383476774398104
 30
0.0
 40
0.0488311053980297
 50
179.999999999999
 51
359.999999999999
  0
LINE
  8
0
  6
CONTINUOUS
 62
0
 10
0.0345288057598001
 20
0.41800558015791
 30
0.0
 11
0
 21
0.452534385917701
 31
0.0
  0
ENDSEC
  0
EOF
