999
File generated by Conversation
0
SECTION
2
HEADER
0
SECTION
2
HEADER
9
$ACADVER
1
AC1021
9
$INSBASE
10
0.0
20
0.0
30
0.0
9
$INSUNITS
70
4
9
$EXTMIN
10
0.0
20
0.0
30
0.0
9
$EXTMAX
10
1000.0
20
1000.0
30
0.0
0
ENDSEC
0
SECTION
2
TABLES
0
TABLE
2
LTYPE
70
1
0
LTYPE
2
CONTINUOUS
70
64
3
Solid line
72
65
73
0
40
0.0
0
ENDTAB
0
TABLE
2
LAYER
70
1
0
LAYER
2
0
70
64
62
7
6
CONTINUOUS
0
ENDTAB
0
TABLE
2
STYLE
70
1
0
STYLE
2
STANDARD
70
0
40
0.0
41
1.0
50
0.0
71
0
42
0.2
3
txt
4

0
ENDTAB
0
ENDSEC
0
SECTION
2
ENTITIES
0
CIRCLE
8
0
62
2
10
40.000000
20
-27.500000
30
0.0
40
2.250000
0
ARC
8
0
62
2
10
32.784599
20
-23.500000
30
0.0
40
2.000000
50
270.000000
51
330.997375
0
ARC
8
0
62
2
10
40.000000
20
-27.500000
30
0.0
40
6.250000
50
119.002502
51
150.997330
0
ARC
8
0
62
2
10
36.000000
20
-20.284554
30
0.0
40
2.000000
50
299.002502
51
0.000000
0
ARC
8
0
62
2
10
44.000000
20
-20.284554
30
0.0
40
2.000000
50
179.999985
51
240.997498
0
ARC
8
0
62
2
10
40.000000
20
-27.500000
30
0.0
40
6.250000
50
209.002670
51
60.997494
0
ARC
8
0
62
2
10
32.784599
20
-31.500000
30
0.0
40
2.000000
50
29.002634
51
90.000000
0
LINE
8
0
62
2
10
42.000000
20
0.000000
30
0.0
11
42.000000
21
-20.284554
31
0.0
0
LINE
8
0
62
2
10
37.999996
20
0.000000
30
0.0
11
38.000000
21
-20.284554
31
0.0
0
LINE
8
0
62
2
10
0.000000
20
-25.500000
30
0.0
11
32.784599
21
-25.500000
31
0.0
0
LINE
8
0
62
2
10
0.000000
20
-29.500000
30
0.0
11
32.784599
21
-29.500000
31
0.0
0
CIRCLE
8
0
62
2
10
-40.000000
20
-27.500000
30
0.0
40
2.250000
0
ARC
8
0
62
2
10
-32.784599
20
-23.500000
30
0.0
40
2.000000
50
209.002640
51
270.000000
0
ARC
8
0
62
2
10
-40.000000
20
-27.500000
30
0.0
40
6.250000
50
29.002670
51
60.997498
0
ARC
8
0
62
2
10
-36.000000
20
-20.284554
30
0.0
40
2.000000
50
180.000000
51
240.997482
0
ARC
8
0
62
2
10
-44.000000
20
-20.284554
30
0.0
40
2.000000
50
299.002502
51
0.000015
0
ARC
8
0
62
2
10
-40.000000
20
-27.500000
30
0.0
40
6.250000
50
119.002502
51
330.997314
0
ARC
8
0
62
2
10
-32.784599
20
-31.500000
30
0.0
40
2.000000
50
90.000000
51
150.997360
0
LINE
8
0
62
2
10
-42.000000
20
0.000000
30
0.0
11
-42.000000
21
-20.284554
31
0.0
0
LINE
8
0
62
2
10
-37.999996
20
0.000000
30
0.0
11
-38.000000
21
-20.284554
31
0.0
0
LINE
8
0
62
2
10
0.000000
20
-25.500000
30
0.0
11
-32.784599
21
-25.500000
31
0.0
0
LINE
8
0
62
2
10
0.000000
20
-29.500000
30
0.0
11
-32.784599
21
-29.500000
31
0.0
0
CIRCLE
8
0
62
2
10
-40.000000
20
27.500000
30
0.0
40
2.250000
0
ARC
8
0
62
2
10
-32.784599
20
23.500000
30
0.0
40
2.000000
50
90.000000
51
150.997360
0
ARC
8
0
62
2
10
-40.000000
20
27.500000
30
0.0
40
6.250000
50
299.002502
51
330.997314
0
ARC
8
0
62
2
10
-36.000000
20
20.284554
30
0.0
40
2.000000
50
119.002518
51
180.000000
0
ARC
8
0
62
2
10
-44.000000
20
20.284554
30
0.0
40
2.000000
50
360.000000
51
60.997498
0
ARC
8
0
62
2
10
-40.000000
20
27.500000
30
0.0
40
6.250000
50
29.002686
51
240.997498
0
ARC
8
0
62
2
10
-32.784599
20
31.500000
30
0.0
40
2.000000
50
209.002640
51
270.000000
0
LINE
8
0
62
2
10
-42.000000
20
0.000000
30
0.0
11
-42.000000
21
20.284554
31
0.0
0
LINE
8
0
62
2
10
-37.999996
20
0.000000
30
0.0
11
-38.000000
21
20.284554
31
0.0
0
LINE
8
0
62
2
10
0.000000
20
25.500000
30
0.0
11
-32.784599
21
25.500000
31
0.0
0
LINE
8
0
62
2
10
0.000000
20
29.500000
30
0.0
11
-32.784599
21
29.500000
31
0.0
0
CIRCLE
8
0
62
2
10
40.000000
20
27.500000
30
0.0
40
2.250000
0
ARC
8
0
62
2
10
32.784599
20
23.500000
30
0.0
40
2.000000
50
29.002625
51
90.000000
0
ARC
8
0
62
2
10
40.000000
20
27.500000
30
0.0
40
6.250000
50
209.002670
51
240.997498
0
ARC
8
0
62
2
10
36.000000
20
20.284554
30
0.0
40
2.000000
50
0.000000
51
60.997498
0
ARC
8
0
62
2
10
44.000000
20
20.284554
30
0.0
40
2.000000
50
119.002502
51
180.000015
0
ARC
8
0
62
2
10
40.000000
20
27.500000
30
0.0
40
6.250000
50
299.002502
51
150.997314
0
ARC
8
0
62
2
10
32.784599
20
31.500000
30
0.0
40
2.000000
50
270.000000
51
330.997375
0
LINE
8
0
62
2
10
42.000000
20
0.000000
30
0.0
11
42.000000
21
20.284554
31
0.0
0
LINE
8
0
62
2
10
37.999996
20
0.000000
30
0.0
11
38.000000
21
20.284554
31
0.0
0
LINE
8
0
62
2
10
0.000000
20
25.500000
30
0.0
11
32.784599
21
25.500000
31
0.0
0
LINE
8
0
62
2
10
0.000000
20
29.500000
30
0.0
11
32.784599
21
29.500000
31
0.0
0
CIRCLE
8
0
62
1
10
40.000000
20
-27.500000
30
0.0
40
3.750000
0
CIRCLE
8
0
62
1
10
-40.000000
20
-27.500000
30
0.0
40
3.750000
0
CIRCLE
8
0
62
1
10
-40.000000
20
27.500000
30
0.0
40
3.750000
0
CIRCLE
8
0
62
1
10
40.000000
20
27.500000
30
0.0
40
3.750000
0
ENDSEC
0
EOF
