999
File generated by Conversation
0
SECTION
2
HEADER
0
SECTION
2
HEADER
9
$ACADVER
1
AC1021
9
$INSBASE
10
0.0
20
0.0
30
0.0
9
$INSUNITS
70
4
9
$EXTMIN
10
0.0
20
0.0
30
0.0
9
$EXTMAX
10
1000.0
20
1000.0
30
0.0
0
ENDSEC
0
SECTION
2
TABLES
0
TABLE
2
LTYPE
70
1
0
LTYPE
2
CONTINUOUS
70
64
3
Solid line
72
65
73
0
40
0.0
0
ENDTAB
0
TABLE
2
LAYER
70
1
0
LAYER
2
0
70
64
62
7
6
CONTINUOUS
0
ENDTAB
0
TABLE
2
STYLE
70
1
0
STYLE
2
STANDARD
70
0
40
0.0
41
1.0
50
0.0
71
0
42
0.2
3
txt
4

0
ENDTAB
0
ENDSEC
0
SECTION
2
ENTITIES
0
CIRCLE
8
0
62
2
10
39.999992
20
0.000000
30
0.0
40
2.250000
0
CIRCLE
8
0
62
2
10
-40.000008
20
0.000000
30
0.0
40
2.250000
0
CIRCLE
8
0
62
2
10
-40.000008
20
55.000000
30
0.0
40
2.250000
0
CIRCLE
8
0
62
2
10
39.999992
20
55.000000
30
0.0
40
2.250000
0
ARC
8
0
62
2
10
33.362034
20
59.000000
30
0.0
40
2.000000
50
270.000000
51
328.927002
0
ARC
8
0
62
2
10
39.999992
20
55.000000
30
0.0
40
5.750000
50
301.072998
51
148.927032
0
ARC
8
0
62
2
10
43.999992
20
48.362049
30
0.0
40
2.000000
50
121.072937
51
179.999985
0
ARC
8
0
62
2
10
-40.000008
20
55.000000
30
0.0
40
5.750000
50
31.072899
51
238.927063
0
ARC
8
0
62
2
10
-33.362026
20
59.000008
30
0.0
40
2.000000
50
211.072891
51
270.000000
0
ARC
8
0
62
2
10
-44.000008
20
6.637951
30
0.0
40
2.000000
50
301.072937
51
0.000000
0
ARC
8
0
62
2
10
43.999992
20
6.637951
30
0.0
40
2.000000
50
179.999985
51
238.927063
0
ARC
8
0
62
2
10
39.999992
20
0.000000
30
0.0
40
5.750000
50
301.072937
51
58.927094
0
ARC
8
0
62
2
10
43.999992
20
-6.637960
30
0.0
40
2.000000
50
121.072929
51
180.000015
0
ARC
8
0
62
2
10
-44.000008
20
48.362038
30
0.0
40
2.000000
50
0.000000
51
58.927078
0
LINE
8
0
62
2
10
-42.000008
20
48.362038
30
0.0
11
-42.000008
21
6.637951
31
0.0
0
LINE
8
0
62
2
10
41.999992
20
6.637952
30
0.0
11
41.999992
21
48.362049
31
0.0
0
CIRCLE
8
0
62
2
10
-40.000008
20
-55.000000
30
0.0
40
2.250000
0
CIRCLE
8
0
62
2
10
39.999992
20
-55.000000
30
0.0
40
2.250000
0
ARC
8
0
62
2
10
33.362034
20
-59.000000
30
0.0
40
2.000000
50
31.072998
51
90.000000
0
ARC
8
0
62
2
10
39.999992
20
-55.000000
30
0.0
40
5.750000
50
211.072968
51
58.927002
0
ARC
8
0
62
2
10
43.999992
20
-48.362049
30
0.0
40
2.000000
50
180.000015
51
238.927063
0
ARC
8
0
62
2
10
-40.000008
20
-55.000000
30
0.0
40
5.750000
50
121.072937
51
328.927094
0
ARC
8
0
62
2
10
-44.000008
20
-48.362038
30
0.0
40
2.000000
50
301.072937
51
-0.000000
0
LINE
8
0
62
2
10
41.999992
20
-6.637952
30
0.0
11
41.999992
21
-48.362049
31
0.0
0
ARC
8
0
62
2
10
-33.362026
20
-59.000008
30
0.0
40
2.000000
50
90.000000
51
148.927109
0
ARC
8
0
62
2
10
-0.000008
20
-55.000000
30
0.0
40
11.000000
50
13.608971
51
166.391052
0
ARC
8
0
62
2
10
16.522707
20
-50.999996
30
0.0
40
6.000000
50
193.608978
51
270.000000
0
ARC
8
0
62
2
10
-16.522720
20
-51.000004
30
0.0
40
6.000000
50
270.000000
51
346.391022
0
LINE
8
0
62
2
10
-16.522720
20
-57.000004
30
0.0
11
-33.362026
21
-57.000008
31
0.0
0
LINE
8
0
62
2
10
16.522707
20
-56.999996
30
0.0
11
33.362034
21
-57.000000
31
0.0
0
ARC
8
0
62
2
10
-0.000008
20
55.000000
30
0.0
40
11.000000
50
193.608948
51
346.391022
0
ARC
8
0
62
2
10
16.522707
20
50.999996
30
0.0
40
6.000000
50
90.000000
51
166.391022
0
ARC
8
0
62
2
10
-16.522720
20
51.000004
30
0.0
40
6.000000
50
13.608971
51
90.000000
0
LINE
8
0
62
2
10
-16.522720
20
57.000004
30
0.0
11
-33.362026
21
57.000008
31
0.0
0
LINE
8
0
62
2
10
16.522707
20
56.999996
30
0.0
11
33.362034
21
57.000000
31
0.0
0
ARC
8
0
62
2
10
-40.000008
20
0.000000
30
0.0
40
5.750000
50
121.072922
51
238.927002
0
LINE
8
0
62
2
10
-42.000008
20
-48.362038
30
0.0
11
-42.000008
21
-6.637947
31
0.0
0
ARC
8
0
62
2
10
-44.000008
20
-6.637947
30
0.0
40
2.000000
50
0.000000
51
58.926964
0
ARC
8
0
62
4
10
29.999990
20
45.000000
30
0.0
40
4.000000
50
0.000000
51
90.000000
0
LINE
8
0
62
4
10
33.999992
20
10.151970
30
0.0
11
33.999992
21
45.000000
31
0.0
0
ARC
8
0
62
4
10
29.999992
20
10.151970
30
0.0
40
4.000000
50
314.567932
51
0.000000
0
LINE
8
0
62
4
10
20.712303
20
48.999996
30
0.0
11
29.999990
21
49.000000
31
0.0
0
ARC
8
0
62
4
10
20.712305
20
44.999996
30
0.0
40
4.000000
50
90.000023
51
154.228500
0
ARC
8
0
62
4
10
-0.000008
20
55.000000
30
0.0
40
19.000000
50
270.000000
51
334.228516
0
ARC
8
0
62
4
10
39.999992
20
0.000000
30
0.0
40
10.250000
50
134.567917
51
180.000015
0
ARC
8
0
62
4
10
-29.999990
20
45.000000
30
0.0
40
4.000000
50
90.000000
51
180.000000
0
LINE
8
0
62
4
10
-33.999992
20
10.151970
30
0.0
11
-33.999992
21
45.000000
31
0.0
0
ARC
8
0
62
4
10
-29.999992
20
10.151970
30
0.0
40
4.000000
50
180.000000
51
225.432068
0
LINE
8
0
62
4
10
-20.712303
20
48.999996
30
0.0
11
-29.999990
21
49.000000
31
0.0
0
ARC
8
0
62
4
10
-20.712305
20
44.999996
30
0.0
40
4.000000
50
25.771500
51
89.999977
0
ARC
8
0
62
4
10
0.000008
20
55.000000
30
0.0
40
19.000000
50
205.771469
51
270.000000
0
ARC
8
0
62
4
10
-39.999992
20
0.000000
30
0.0
40
10.250000
50
0.000000
51
45.432083
0
ARC
8
0
62
4
10
-29.999990
20
-45.000000
30
0.0
40
4.000000
50
180.000000
51
270.000000
0
LINE
8
0
62
4
10
-33.999992
20
-10.151970
30
0.0
11
-33.999992
21
-45.000000
31
0.0
0
ARC
8
0
62
4
10
-29.999992
20
-10.151970
30
0.0
40
4.000000
50
134.567932
51
180.000000
0
LINE
8
0
62
4
10
-20.712303
20
-48.999996
30
0.0
11
-29.999990
21
-49.000000
31
0.0
0
ARC
8
0
62
4
10
-20.712305
20
-44.999996
30
0.0
40
4.000000
50
270.000031
51
334.228516
0
ARC
8
0
62
4
10
0.000008
20
-55.000000
30
0.0
40
19.000000
50
90.000000
51
154.228531
0
ARC
8
0
62
4
10
-39.999992
20
0.000000
30
0.0
40
10.250000
50
314.567932
51
-0.000000
0
ARC
8
0
62
4
10
29.999990
20
-45.000000
30
0.0
40
4.000000
50
270.000000
51
0.000000
0
LINE
8
0
62
4
10
33.999992
20
-10.151970
30
0.0
11
33.999992
21
-45.000000
31
0.0
0
ARC
8
0
62
4
10
29.999992
20
-10.151970
30
0.0
40
4.000000
50
0.000000
51
45.432068
0
LINE
8
0
62
4
10
20.712303
20
-48.999996
30
0.0
11
29.999990
21
-49.000000
31
0.0
0
ARC
8
0
62
4
10
20.712305
20
-44.999996
30
0.0
40
4.000000
50
205.771500
51
269.999969
0
ARC
8
0
62
4
10
-0.000008
20
-55.000000
30
0.0
40
19.000000
50
25.771484
51
90.000000
0
ARC
8
0
62
4
10
39.999992
20
0.000000
30
0.0
40
10.250000
50
180.000000
51
225.432083
0
ENDSEC
0
EOF
