999
File generated by Conversation
0
SECTION
2
HEADER
0
SECTION
2
HEADER
9
$ACADVER
1
AC1021
9
$INSBASE
10
0.0
20
0.0
30
0.0
9
$INSUNITS
70
4
9
$EXTMIN
10
0.0
20
0.0
30
0.0
9
$EXTMAX
10
1000.0
20
1000.0
30
0.0
0
ENDSEC
0
SECTION
2
TABLES
0
TABLE
2
LTYPE
70
1
0
LTYPE
2
CONTINUOUS
70
64
3
Solid line
72
65
73
0
40
0.0
0
ENDTAB
0
TABLE
2
LAYER
70
1
0
LAYER
2
0
70
64
62
7
6
CONTINUOUS
0
ENDTAB
0
TABLE
2
STYLE
70
1
0
STYLE
2
STANDARD
70
0
40
0.0
41
1.0
50
0.0
71
0
42
0.2
3
txt
4

0
ENDTAB
0
ENDSEC
0
SECTION
2
ENTITIES
0
CIRCLE
8
0
62
2
10
39.999992
20
0.000000
30
0.0
40
2.250000
0
CIRCLE
8
0
62
2
10
-40.000008
20
0.000000
30
0.0
40
2.250000
0
CIRCLE
8
0
62
2
10
-40.000008
20
55.000000
30
0.0
40
2.250000
0
CIRCLE
8
0
62
2
10
39.999992
20
55.000000
30
0.0
40
2.250000
0
CIRCLE
8
0
62
1
10
39.999992
20
0.000000
30
0.0
40
3.750000
0
CIRCLE
8
0
62
1
10
-40.000008
20
0.000000
30
0.0
40
3.750000
0
CIRCLE
8
0
62
1
10
-40.000008
20
55.000000
30
0.0
40
3.750000
0
CIRCLE
8
0
62
1
10
39.999992
20
55.000000
30
0.0
40
3.750000
0
ARC
8
0
62
2
10
33.362034
20
59.000000
30
0.0
40
2.000000
50
270.000000
51
328.927002
0
ARC
8
0
62
2
10
39.999992
20
55.000000
30
0.0
40
5.750000
50
301.072998
51
148.927032
0
ARC
8
0
62
2
10
43.999992
20
48.362049
30
0.0
40
2.000000
50
121.072937
51
179.999985
0
ARC
8
0
62
2
10
33.362034
20
51.000000
30
0.0
40
2.000000
50
31.072990
51
90.000000
0
ARC
8
0
62
2
10
39.999992
20
55.000000
30
0.0
40
5.750000
50
211.072968
51
238.927063
0
ARC
8
0
62
2
10
-40.000008
20
55.000000
30
0.0
40
5.750000
50
31.072899
51
238.927063
0
ARC
8
0
62
2
10
-33.362026
20
59.000008
30
0.0
40
2.000000
50
211.072891
51
270.000000
0
ARC
8
0
62
2
10
-36.000008
20
48.362038
30
0.0
40
2.000000
50
121.072906
51
179.999985
0
ARC
8
0
62
2
10
-40.000008
20
55.000000
30
0.0
40
5.750000
50
301.072937
51
328.927185
0
ARC
8
0
62
2
10
-44.000008
20
6.637951
30
0.0
40
2.000000
50
301.072937
51
0.000000
0
ARC
8
0
62
2
10
-36.000008
20
6.637968
30
0.0
40
2.000000
50
179.999985
51
238.927094
0
ARC
8
0
62
2
10
35.999992
20
6.637968
30
0.0
40
2.000000
50
301.072937
51
0.000000
0
ARC
8
0
62
2
10
43.999992
20
6.637951
30
0.0
40
2.000000
50
179.999985
51
238.927063
0
ARC
8
0
62
2
10
-36.000008
20
-6.637951
30
0.0
40
2.000000
50
121.072937
51
180.000000
0
ARC
8
0
62
2
10
35.999992
20
-6.637960
30
0.0
40
2.000000
50
0.000000
51
58.927071
0
ARC
8
0
62
2
10
39.999992
20
0.000000
30
0.0
40
5.750000
50
301.072937
51
58.927094
0
ARC
8
0
62
2
10
43.999992
20
-6.637960
30
0.0
40
2.000000
50
121.072929
51
180.000015
0
ARC
8
0
62
2
10
-33.362026
20
51.000008
30
0.0
40
2.000000
50
90.000000
51
148.927139
0
ARC
8
0
62
2
10
-44.000008
20
48.362038
30
0.0
40
2.000000
50
0.000000
51
58.927078
0
LINE
8
0
62
2
10
-42.000008
20
48.362038
30
0.0
11
-42.000008
21
6.637951
31
0.0
0
LINE
8
0
62
2
10
-38.000008
20
6.637969
30
0.0
11
-38.000008
21
48.362038
31
0.0
0
ARC
8
0
62
2
10
35.999992
20
48.362038
30
0.0
40
2.000000
50
0.000000
51
58.927078
0
LINE
8
0
62
2
10
37.999992
20
48.362038
30
0.0
11
37.999992
21
6.637968
31
0.0
0
LINE
8
0
62
2
10
41.999992
20
6.637952
30
0.0
11
41.999992
21
48.362049
31
0.0
0
CIRCLE
8
0
62
2
10
-40.000008
20
-55.000000
30
0.0
40
2.250000
0
CIRCLE
8
0
62
2
10
39.999992
20
-55.000000
30
0.0
40
2.250000
0
CIRCLE
8
0
62
1
10
-40.000008
20
-55.000000
30
0.0
40
3.750000
0
CIRCLE
8
0
62
1
10
39.999992
20
-55.000000
30
0.0
40
3.750000
0
ARC
8
0
62
2
10
33.362034
20
-59.000000
30
0.0
40
2.000000
50
31.072998
51
90.000000
0
ARC
8
0
62
2
10
39.999992
20
-55.000000
30
0.0
40
5.750000
50
211.072968
51
58.927002
0
ARC
8
0
62
2
10
43.999992
20
-48.362049
30
0.0
40
2.000000
50
180.000015
51
238.927063
0
ARC
8
0
62
2
10
39.999992
20
-55.000000
30
0.0
40
5.750000
50
121.072937
51
148.927032
0
ARC
8
0
62
2
10
-40.000008
20
-55.000000
30
0.0
40
5.750000
50
121.072937
51
328.927094
0
ARC
8
0
62
2
10
-36.000008
20
-48.362038
30
0.0
40
2.000000
50
180.000015
51
238.927094
0
ARC
8
0
62
2
10
-40.000008
20
-55.000000
30
0.0
40
5.750000
50
31.072815
51
58.927063
0
ARC
8
0
62
2
10
-33.362026
20
-51.000008
30
0.0
40
2.000000
50
211.072861
51
270.000000
0
ARC
8
0
62
2
10
-44.000008
20
-48.362038
30
0.0
40
2.000000
50
301.072937
51
-0.000000
0
LINE
8
0
62
2
10
-38.000008
20
-6.637969
30
0.0
11
-38.000008
21
-48.362038
31
0.0
0
ARC
8
0
62
2
10
35.999992
20
-48.362038
30
0.0
40
2.000000
50
301.072937
51
-0.000000
0
LINE
8
0
62
2
10
37.999992
20
-48.362038
30
0.0
11
37.999992
21
-6.637968
31
0.0
0
LINE
8
0
62
2
10
41.999992
20
-6.637952
30
0.0
11
41.999992
21
-48.362049
31
0.0
0
ARC
8
0
62
2
10
-40.000008
20
0.000000
30
0.0
40
5.750000
50
31.072950
51
58.927078
0
ARC
8
0
62
2
10
-33.362049
20
4.000000
30
0.0
40
2.000000
50
211.072983
51
270.000000
0
LINE
8
0
62
2
10
-33.362049
20
2.000000
30
0.0
11
33.362034
21
2.000000
31
0.0
0
ARC
8
0
62
2
10
39.999992
20
0.000000
30
0.0
40
5.750000
50
121.072906
51
148.927032
0
ARC
8
0
62
2
10
33.362034
20
4.000000
30
0.0
40
2.000000
50
270.000000
51
328.927032
0
ARC
8
0
62
2
10
39.999992
20
0.000000
30
0.0
40
5.750000
50
211.072968
51
238.927094
0
ARC
8
0
62
2
10
33.362034
20
-4.000000
30
0.0
40
2.000000
50
31.072968
51
90.000000
0
LINE
8
0
62
2
10
-33.362049
20
-2.000000
30
0.0
11
33.362034
21
-2.000000
31
0.0
0
ARC
8
0
62
2
10
-33.362049
20
-4.000000
30
0.0
40
2.000000
50
90.000000
51
148.927017
0
LINE
8
0
62
2
10
-33.362026
20
-53.000008
30
0.0
11
-16.522720
21
-53.000004
31
0.0
0
ARC
8
0
62
2
10
-16.522720
20
-51.000004
30
0.0
40
2.000000
50
270.000000
51
346.391022
0
ARC
8
0
62
2
10
33.362034
20
-51.000000
30
0.0
40
2.000000
50
270.000000
51
328.927002
0
LINE
8
0
62
2
10
33.362034
20
-53.000000
30
0.0
11
16.522707
21
-52.999996
31
0.0
0
ARC
8
0
62
2
10
-0.000008
20
-55.000000
30
0.0
40
15.000000
50
13.608971
51
166.391052
0
ARC
8
0
62
2
10
16.522707
20
-50.999996
30
0.0
40
2.000000
50
193.608978
51
270.000000
0
ARC
8
0
62
2
10
-33.362026
20
-59.000008
30
0.0
40
2.000000
50
90.000000
51
148.927109
0
ARC
8
0
62
2
10
-0.000008
20
-55.000000
30
0.0
40
11.000000
50
13.608971
51
166.391052
0
ARC
8
0
62
2
10
16.522707
20
-50.999996
30
0.0
40
6.000000
50
193.608978
51
270.000000
0
ARC
8
0
62
2
10
-16.522720
20
-51.000004
30
0.0
40
6.000000
50
270.000000
51
346.391022
0
LINE
8
0
62
2
10
-16.522720
20
-57.000004
30
0.0
11
-33.362026
21
-57.000008
31
0.0
0
LINE
8
0
62
2
10
16.522707
20
-56.999996
30
0.0
11
33.362034
21
-57.000000
31
0.0
0
LINE
8
0
62
2
10
-33.362026
20
53.000008
30
0.0
11
-16.522720
21
53.000004
31
0.0
0
ARC
8
0
62
2
10
-16.522720
20
51.000004
30
0.0
40
2.000000
50
13.608971
51
90.000000
0
LINE
8
0
62
2
10
33.362034
20
53.000000
30
0.0
11
16.522707
21
52.999996
31
0.0
0
ARC
8
0
62
2
10
-0.000008
20
55.000000
30
0.0
40
15.000000
50
193.608948
51
346.391022
0
ARC
8
0
62
2
10
16.522707
20
50.999996
30
0.0
40
2.000000
50
90.000000
51
166.391022
0
ARC
8
0
62
2
10
-0.000008
20
55.000000
30
0.0
40
11.000000
50
193.608948
51
346.391022
0
ARC
8
0
62
2
10
16.522707
20
50.999996
30
0.0
40
6.000000
50
90.000000
51
166.391022
0
ARC
8
0
62
2
10
-16.522720
20
51.000004
30
0.0
40
6.000000
50
13.608971
51
90.000000
0
LINE
8
0
62
2
10
-16.522720
20
57.000004
30
0.0
11
-33.362026
21
57.000008
31
0.0
0
LINE
8
0
62
2
10
16.522707
20
56.999996
30
0.0
11
33.362034
21
57.000000
31
0.0
0
ARC
8
0
62
2
10
-40.000008
20
0.000000
30
0.0
40
5.750000
50
121.072922
51
238.927002
0
LINE
8
0
62
2
10
-42.000008
20
-48.362038
30
0.0
11
-42.000008
21
-6.637947
31
0.0
0
ARC
8
0
62
2
10
-44.000008
20
-6.637947
30
0.0
40
2.000000
50
0.000000
51
58.926964
0
ARC
8
0
62
2
10
-40.000008
20
0.000000
30
0.0
40
5.750001
50
301.120636
51
328.927063
0
ENDSEC
0
EOF
