  0
SECTION
  2
HEADER
  9
$ACADVER
  1
AC1003
  9
$EXTMIN
 10
-4.26366312830256
 20
1.72617545908938
  9
$EXTMAX
 10
4.2269168293086
 20
-5.04570204401943
  9
$INSUNITS
 70
1
  9
$INSBASE
 10
-0.0183731494969823
 20
-1.65976329246503
999
Created with OMAX LAYOUT for Windows. (www.omax.com) 2/24/2024
  0
ENDSEC
  0
SECTION
  2
TABLES
  0
TABLE
  2
LAYER
 70
    10
  0
LAYER
  2
0
 70
     0
 62
     7
  6
CONTINUOUS
  0
LAYER
  2
1
 70
     0
 62
     7
  6
CONTINUOUS
  0
LAYER
  2
2
 70
     0
 62
     7
  6
CONTINUOUS
  0
LAYER
  2
3
 70
     0
 62
     7
  6
CONTINUOUS
  0
LAYER
  2
4
 70
     0
 62
     7
  6
CONTINUOUS
  0
LAYER
  2
5
 70
     0
 62
     7
  6
CONTINUOUS
  0
LAYER
  2
6
 70
     0
 62
     7
  6
CONTINUOUS
  0
LAYER
  2
7
 70
     0
 62
     7
  6
CONTINUOUS
  0
LAYER
  2
8
 70
     0
 62
     7
  6
CONTINUOUS
  0
LAYER
  2
9
 70
     0
 62
     7
  6
CONTINUOUS
  0
LAYER
  2
10
 70
     0
 62
     7
  6
CONTINUOUS
  0
LAYER
  2
11
 70
     0
 62
     7
  6
CONTINUOUS
  0
LAYER
  2
12
 70
     0
 62
     7
  6
CONTINUOUS
  0
LAYER
  2
13
 70
     0
 62
     7
  6
CONTINUOUS
  0
LAYER
  2
14
 70
     0
 62
     7
  6
CONTINUOUS
  0
LAYER
  2
15
 70
     0
 62
     7
  6
CONTINUOUS
  0
LAYER
  2
16
 70
     0
 62
     7
  6
CONTINUOUS
  0
LAYER
  2
17
 70
     0
 62
     7
  6
CONTINUOUS
  0
LAYER
  2
18
 70
     0
 62
     7
  6
CONTINUOUS
  0
LAYER
  2
19
 70
     0
 62
     7
  6
CONTINUOUS
  0
LAYER
  2
20
 70
     0
 62
     7
  6
CONTINUOUS
  0
LAYER
  2
21
 70
     0
 62
     7
  6
CONTINUOUS
  0
LAYER
  2
22
 70
     0
 62
     7
  6
CONTINUOUS
  0
LAYER
  2
23
 70
     0
 62
     7
  6
CONTINUOUS
  0
LAYER
  2
24
 70
     0
 62
     7
  6
CONTINUOUS
  0
LAYER
  2
25
 70
     0
 62
     7
  6
CONTINUOUS
  0
LAYER
  2
26
 70
     0
 62
     7
  6
CONTINUOUS
  0
LAYER
  2
27
 70
     0
 62
     7
  6
CONTINUOUS
  0
LAYER
  2
28
 70
     0
 62
     7
  6
CONTINUOUS
  0
LAYER
  2
29
 70
     0
 62
     7
  6
CONTINUOUS
  0
LAYER
  2
30
 70
     0
 62
     7
  6
CONTINUOUS
  0
LAYER
  2
31
 70
     0
 62
     7
  6
CONTINUOUS
  0
ENDTAB
  0
ENDSEC
  0
SECTION
  2
ENTITIES
  0
LINE
  8
0
  6
CONTINUOUS
 62
0
 10
-4.13816134263848
 20
-2.68349732201943
 30
0.0
 11
-4.26351044973119
 21
-2.68349732201943
 31
0.0
  0
LINE
  8
0
  6
CONTINUOUS
 62
0
 10
-4.26351044973119
 20
-2.68349732201943
 30
0.0
 11
-4.26358678901688
 21
-2.57662232206218
 31
0.0
  0
LINE
  8
0
  6
CONTINUOUS
 62
0
 10
-4.26358678901688
 20
-2.57662232206218
 30
0.0
 11
-4.16564348548463
 21
-2.57662232206218
 31
0.0
  0
LINE
  8
0
  6
CONTINUOUS
 62
0
 10
-4.26359136808443
 20
-2.57341787748401
 30
0.0
 11
-4.26366312830256
 21
-2.46974732210493
 31
0.0
  0
LINE
  8
0
  6
CONTINUOUS
 62
0
 10
-4.26366312830256
 20
-2.46974732210493
 30
0.0
 11
-4.14884884263848
 21
-2.46974732210493
 31
0.0
  0
LINE
  8
0
  6
CONTINUOUS
 62
0
 10
-4.12466134263848
 20
-2.68349509725746
 30
0.0
 11
-4.12466131797063
 21
-2.46974512345694
 31
0.0
  0
LINE
  8
0
  6
CONTINUOUS
 62
0
 10
-4.12466131797063
 20
-2.46974512345694
 30
0.0
 11
-3.9934086394517
 21
-2.68349512337143
 31
0.0
  0
LINE
  8
0
  6
CONTINUOUS
 62
0
 10
-3.9934086394517
 20
-2.68349512337143
 30
0.0
 11
-3.9934086394517
 21
-2.46974512345694
 31
0.0
  0
LINE
  8
0
  6
CONTINUOUS
 62
0
 10
-3.88289747172844
 20
-2.68349508227829
 30
0.0
 11
-3.88289747172844
 21
-2.47622822122047
 31
0.0
  0
LINE
  8
0
  6
CONTINUOUS
 62
0
 10
-3.95122114768325
 20
-2.46974508236379
 30
0.0
 11
-3.81457382630934
 21
-2.46974508236379
 31
0.0
  0
LINE
  8
0
  6
CONTINUOUS
 62
0
 10
-3.66554749294276
 20
-2.68349732201943
 30
0.0
 11
-3.79089660003548
 21
-2.68349732201943
 31
0.0
  0
LINE
  8
0
  6
CONTINUOUS
 62
0
 10
-3.79089660003548
 20
-2.68349732201943
 30
0.0
 11
-3.79097293932116
 21
-2.57662232206218
 31
0.0
  0
LINE
  8
0
  6
CONTINUOUS
 62
0
 10
-3.79097293932116
 20
-2.57662232206218
 30
0.0
 11
-3.69302963578891
 21
-2.57662232206218
 31
0.0
  0
LINE
  8
0
  6
CONTINUOUS
 62
0
 10
-3.79097751838872
 20
-2.57341787748401
 30
0.0
 11
-3.79104927860685
 21
-2.46974732210493
 31
0.0
  0
LINE
  8
0
  6
CONTINUOUS
 62
0
 10
-3.79104927860685
 20
-2.46974732210493
 30
0.0
 11
-3.67623499294276
 21
-2.46974732210493
 31
0.0
  0
LINE
  8
0
  6
CONTINUOUS
 62
0
 10
-3.64417249294276
 20
-2.68349509717196
 30
0.0
 11
-3.64417249294276
 21
-2.46974509725746
 31
0.0
  0
LINE
  8
0
  6
CONTINUOUS
 62
0
 10
-3.64417249294276
 20
-2.46974509725746
 30
0.0
 11
-3.56661177868806
 21
-2.46974509725746
 31
0.0
  0
ARC
  8
0
  6
CONTINUOUS
 62
0
 10
-3.56764163993788
 20
-2.52318251812803
 30
0.0
 40
0.0534473438394547
 50
271.095264000543
 51
88.8959160393204
  0
LINE
  8
0
  6
CONTINUOUS
 62
0
 10
-3.56662000471489
 20
-2.57662009689957
 30
0.0
 11
-3.63715750471489
 21
-2.57662009689957
 31
0.0
  0
LINE
  8
0
  6
CONTINUOUS
 62
0
 10
-3.56357467354804
 20
-2.58270985721752
 30
0.0
 11
-3.51317427870944
 21
-2.68349509717196
 31
0.0
  0
LINE
  8
0
  6
CONTINUOUS
 62
0
 10
-4.13800866406711
 20
-3.47089889601943
 30
0.0
 11
-4.26335777115982
 21
-3.47089889601943
 31
0.0
  0
LINE
  8
0
  6
CONTINUOUS
 62
0
 10
-4.26335777115982
 20
-3.47089889601943
 30
0.0
 11
-4.26343411044551
 21
-3.36402389606218
 31
0.0
  0
LINE
  8
0
  6
CONTINUOUS
 62
0
 10
-4.26343411044551
 20
-3.36402389606218
 30
0.0
 11
-4.16549080691326
 21
-3.36402389606218
 31
0.0
  0
LINE
  8
0
  6
CONTINUOUS
 62
0
 10
-4.26343868951306
 20
-3.36081945148401
 30
0.0
 11
-4.26351044973119
 21
-3.25714889610493
 31
0.0
  0
LINE
  8
0
  6
CONTINUOUS
 62
0
 10
-4.26351044973119
 20
-3.25714889610493
 30
0.0
 11
-4.14869616406711
 21
-3.25714889610493
 31
0.0
  0
LINE
  8
0
  6
CONTINUOUS
 62
0
 10
-4.12450866406711
 20
-3.47089667125746
 30
0.0
 11
-4.12450863939926
 21
-3.25714669745694
 31
0.0
  0
LINE
  8
0
  6
CONTINUOUS
 62
0
 10
-4.12450863939926
 20
-3.25714669745694
 30
0.0
 11
-3.99325596088033
 21
-3.47089669737143
 31
0.0
  0
LINE
  8
0
  6
CONTINUOUS
 62
0
 10
-3.99325596088033
 20
-3.47089669737143
 30
0.0
 11
-3.99325596088033
 21
-3.25714669745694
 31
0.0
  0
LINE
  8
0
  6
CONTINUOUS
 62
0
 10
-3.88274479315707
 20
-3.47089665627829
 30
0.0
 11
-3.88274479315707
 21
-3.26362979522047
 31
0.0
  0
LINE
  8
0
  6
CONTINUOUS
 62
0
 10
-3.95106846911188
 20
-3.25714665636379
 30
0.0
 11
-3.81442114773797
 21
-3.25714665636379
 31
0.0
  0
LINE
  8
0
  6
CONTINUOUS
 62
0
 10
-3.66539481437139
 20
-3.47089889601943
 30
0.0
 11
-3.79074392146411
 21
-3.47089889601943
 31
0.0
  0
LINE
  8
0
  6
CONTINUOUS
 62
0
 10
-3.79074392146411
 20
-3.47089889601943
 30
0.0
 11
-3.79082026074979
 21
-3.36402389606218
 31
0.0
  0
LINE
  8
0
  6
CONTINUOUS
 62
0
 10
-3.79082026074979
 20
-3.36402389606218
 30
0.0
 11
-3.69287695721754
 21
-3.36402389606218
 31
0.0
  0
LINE
  8
0
  6
CONTINUOUS
 62
0
 10
-3.79082483981735
 20
-3.36081945148401
 30
0.0
 11
-3.79089660003548
 21
-3.25714889610493
 31
0.0
  0
LINE
  8
0
  6
CONTINUOUS
 62
0
 10
-3.79089660003548
 20
-3.25714889610493
 30
0.0
 11
-3.67608231437139
 21
-3.25714889610493
 31
0.0
  0
LINE
  8
0
  6
CONTINUOUS
 62
0
 10
-3.64401981437139
 20
-3.47089667117196
 30
0.0
 11
-3.64401981437139
 21
-3.25714667125746
 31
0.0
  0
LINE
  8
0
  6
CONTINUOUS
 62
0
 10
-3.64401981437139
 20
-3.25714667125746
 30
0.0
 11
-3.56645910011669
 21
-3.25714667125746
 31
0.0
  0
ARC
  8
0
  6
CONTINUOUS
 62
0
 10
-3.56748896136651
 20
-3.31058409212803
 30
0.0
 40
0.0534473438394547
 50
271.095264000543
 51
88.8959160393196
  0
LINE
  8
0
  6
CONTINUOUS
 62
0
 10
-3.56646732614352
 20
-3.36402167089957
 30
0.0
 11
-3.63700482614352
 21
-3.36402167089957
 31
0.0
  0
LINE
  8
0
  6
CONTINUOUS
 62
0
 10
-3.56342199497667
 20
-3.37011143121752
 30
0.0
 11
-3.51302160013808
 21
-3.47089667117196
 31
0.0
  0
LINE
  8
0
  6
CONTINUOUS
 62
0
 10
-4.13800866406711
 20
-4.25830047001943
 30
0.0
 11
-4.26335777115982
 21
-4.25830047001943
 31
0.0
  0
LINE
  8
0
  6
CONTINUOUS
 62
0
 10
-4.26335777115982
 20
-4.25830047001943
 30
0.0
 11
-4.26343411044551
 21
-4.15142547006218
 31
0.0
  0
LINE
  8
0
  6
CONTINUOUS
 62
0
 10
-4.26343411044551
 20
-4.15142547006218
 30
0.0
 11
-4.16549080691326
 21
-4.15142547006218
 31
0.0
  0
LINE
  8
0
  6
CONTINUOUS
 62
0
 10
-4.26343868951306
 20
-4.14822102548401
 30
0.0
 11
-4.26351044973119
 21
-4.04455047010493
 31
0.0
  0
LINE
  8
0
  6
CONTINUOUS
 62
0
 10
-4.26351044973119
 20
-4.04455047010493
 30
0.0
 11
-4.14869616406711
 21
-4.04455047010493
 31
0.0
  0
LINE
  8
0
  6
CONTINUOUS
 62
0
 10
-4.12450866406711
 20
-4.25829824525746
 30
0.0
 11
-4.12450863939926
 21
-4.04454827145694
 31
0.0
  0
LINE
  8
0
  6
CONTINUOUS
 62
0
 10
-4.12450863939926
 20
-4.04454827145694
 30
0.0
 11
-3.99325596088033
 21
-4.25829827137143
 31
0.0
  0
LINE
  8
0
  6
CONTINUOUS
 62
0
 10
-3.99325596088033
 20
-4.25829827137143
 30
0.0
 11
-3.99325596088033
 21
-4.04454827145694
 31
0.0
  0
LINE
  8
0
  6
CONTINUOUS
 62
0
 10
-3.88274479315707
 20
-4.25829823027829
 30
0.0
 11
-3.88274479315707
 21
-4.05103136922047
 31
0.0
  0
LINE
  8
0
  6
CONTINUOUS
 62
0
 10
-3.95106846911188
 20
-4.04454823036379
 30
0.0
 11
-3.81442114773797
 21
-4.04454823036379
 31
0.0
  0
LINE
  8
0
  6
CONTINUOUS
 62
0
 10
-3.66539481437139
 20
-4.25830047001943
 30
0.0
 11
-3.79074392146411
 21
-4.25830047001943
 31
0.0
  0
LINE
  8
0
  6
CONTINUOUS
 62
0
 10
-3.79074392146411
 20
-4.25830047001943
 30
0.0
 11
-3.79082026074979
 21
-4.15142547006218
 31
0.0
  0
LINE
  8
0
  6
CONTINUOUS
 62
0
 10
-3.79082026074979
 20
-4.15142547006218
 30
0.0
 11
-3.69287695721754
 21
-4.15142547006218
 31
0.0
  0
LINE
  8
0
  6
CONTINUOUS
 62
0
 10
-3.79082483981735
 20
-4.14822102548401
 30
0.0
 11
-3.79089660003548
 21
-4.04455047010493
 31
0.0
  0
LINE
  8
0
  6
CONTINUOUS
 62
0
 10
-3.79089660003548
 20
-4.04455047010493
 30
0.0
 11
-3.67608231437139
 21
-4.04455047010493
 31
0.0
  0
LINE
  8
0
  6
CONTINUOUS
 62
0
 10
-3.64401981437139
 20
-4.25829824517196
 30
0.0
 11
-3.64401981437139
 21
-4.04454824525746
 31
0.0
  0
LINE
  8
0
  6
CONTINUOUS
 62
0
 10
-3.64401981437139
 20
-4.04454824525746
 30
0.0
 11
-3.56645910011669
 21
-4.04454824525746
 31
0.0
  0
ARC
  8
0
  6
CONTINUOUS
 62
0
 10
-3.56748896136651
 20
-4.09798566612803
 30
0.0
 40
0.0534473438394547
 50
271.095264000543
 51
88.89591603932
  0
LINE
  8
0
  6
CONTINUOUS
 62
0
 10
-3.56646732614352
 20
-4.15142324489957
 30
0.0
 11
-3.63700482614352
 21
-4.15142324489957
 31
0.0
  0
LINE
  8
0
  6
CONTINUOUS
 62
0
 10
-3.56342199497667
 20
-4.15751300521753
 30
0.0
 11
-3.51302160013808
 21
-4.25829824517196
 31
0.0
  0
LINE
  8
0
  6
CONTINUOUS
 62
0
 10
-4.13800866406711
 20
-5.04570204401943
 30
0.0
 11
-4.26335777115982
 21
-5.04570204401943
 31
0.0
  0
LINE
  8
0
  6
CONTINUOUS
 62
0
 10
-4.26335777115982
 20
-5.04570204401943
 30
0.0
 11
-4.26343411044551
 21
-4.93882704406218
 31
0.0
  0
LINE
  8
0
  6
CONTINUOUS
 62
0
 10
-4.26343411044551
 20
-4.93882704406218
 30
0.0
 11
-4.16549080691326
 21
-4.93882704406218
 31
0.0
  0
LINE
  8
0
  6
CONTINUOUS
 62
0
 10
-4.26343868951306
 20
-4.93562259948401
 30
0.0
 11
-4.26351044973119
 21
-4.83195204410493
 31
0.0
  0
LINE
  8
0
  6
CONTINUOUS
 62
0
 10
-4.26351044973119
 20
-4.83195204410493
 30
0.0
 11
-4.14869616406711
 21
-4.83195204410493
 31
0.0
  0
LINE
  8
0
  6
CONTINUOUS
 62
0
 10
-4.12450866406711
 20
-5.04569981925746
 30
0.0
 11
-4.12450863939926
 21
-4.83194984545694
 31
0.0
  0
LINE
  8
0
  6
CONTINUOUS
 62
0
 10
-4.12450863939926
 20
-4.83194984545694
 30
0.0
 11
-3.99325596088033
 21
-5.04569984537143
 31
0.0
  0
LINE
  8
0
  6
CONTINUOUS
 62
0
 10
-3.99325596088033
 20
-5.04569984537143
 30
0.0
 11
-3.99325596088033
 21
-4.83194984545694
 31
0.0
  0
LINE
  8
0
  6
CONTINUOUS
 62
0
 10
-3.88274479315707
 20
-5.04569980427829
 30
0.0
 11
-3.88274479315707
 21
-4.83843294322047
 31
0.0
  0
LINE
  8
0
  6
CONTINUOUS
 62
0
 10
-3.95106846911188
 20
-4.83194980436379
 30
0.0
 11
-3.81442114773797
 21
-4.83194980436379
 31
0.0
  0
LINE
  8
0
  6
CONTINUOUS
 62
0
 10
-3.66539481437139
 20
-5.04570204401943
 30
0.0
 11
-3.79074392146411
 21
-5.04570204401943
 31
0.0
  0
LINE
  8
0
  6
CONTINUOUS
 62
0
 10
-3.79074392146411
 20
-5.04570204401943
 30
0.0
 11
-3.79082026074979
 21
-4.93882704406218
 31
0.0
  0
LINE
  8
0
  6
CONTINUOUS
 62
0
 10
-3.79082026074979
 20
-4.93882704406218
 30
0.0
 11
-3.69287695721754
 21
-4.93882704406218
 31
0.0
  0
LINE
  8
0
  6
CONTINUOUS
 62
0
 10
-3.79082483981735
 20
-4.93562259948401
 30
0.0
 11
-3.79089660003548
 21
-4.83195204410493
 31
0.0
  0
LINE
  8
0
  6
CONTINUOUS
 62
0
 10
-3.79089660003548
 20
-4.83195204410493
 30
0.0
 11
-3.67608231437139
 21
-4.83195204410493
 31
0.0
  0
LINE
  8
0
  6
CONTINUOUS
 62
0
 10
-3.64401981437139
 20
-5.04569981917196
 30
0.0
 11
-3.64401981437139
 21
-4.83194981925746
 31
0.0
  0
LINE
  8
0
  6
CONTINUOUS
 62
0
 10
-3.64401981437139
 20
-4.83194981925746
 30
0.0
 11
-3.56645910011669
 21
-4.83194981925746
 31
0.0
  0
ARC
  8
0
  6
CONTINUOUS
 62
0
 10
-3.56748896136651
 20
-4.88538724012803
 30
0.0
 40
0.0534473438394547
 50
271.095264000542
 51
88.8959160393194
  0
LINE
  8
0
  6
CONTINUOUS
 62
0
 10
-3.56646732614352
 20
-4.93882481889957
 30
0.0
 11
-3.63700482614352
 21
-4.93882481889957
 31
0.0
  0
LINE
  8
0
  6
CONTINUOUS
 62
0
 10
-3.56342199497667
 20
-4.94491457921753
 30
0.0
 11
-3.51302160013807
 21
-5.04569981917196
 31
0.0
  0
LINE
  8
1
  6
CONTINUOUS
 62
1
 10
-4.2269168293086
 20
1.72617545908938
 30
0.0
 11
4.2269168293086
 21
1.72617545908938
 31
0.0
  0
LINE
  8
1
  6
CONTINUOUS
 62
1
 10
-4.2269168293086
 20
-1.72617545908938
 30
0.0
 11
4.2269168293086
 21
-1.72617545908938
 31
0.0
  0
LINE
  8
1
  6
CONTINUOUS
 62
1
 10
-4.2269168293086
 20
1.72617545908938
 30
0.0
 11
-4.2269168293086
 21
-1.72617545908938
 31
0.0
  0
LINE
  8
1
  6
CONTINUOUS
 62
1
 10
4.2269168293086
 20
1.72617545908938
 30
0.0
 11
4.2269168293086
 21
-1.72617545908938
 31
0.0
  0
LINE
  8
3
  6
CONTINUOUS
 62
3
 10
-3.95751733634827
 20
0.882924172693684
 30
0.0
 11
-3.95751733634827
 21
-0.882924172693684
 31
0.0
  0
LINE
  8
3
  6
CONTINUOUS
 62
3
 10
-2.94846113898406
 20
0.882924172693684
 30
0.0
 11
-2.94846113898406
 21
-0.882924172693684
 31
0.0
  0
LINE
  8
3
  6
CONTINUOUS
 62
3
 10
-3.95751733634827
 20
0.882924172693684
 30
0.0
 11
-2.94846113898406
 21
0.882924172693684
 31
0.0
  0
LINE
  8
3
  6
CONTINUOUS
 62
3
 10
-3.95751733634827
 20
-0.882924172693684
 30
0.0
 11
-2.94846113898406
 21
-0.882924172693684
 31
0.0
  0
ARC
  8
3
  6
CONTINUOUS
 62
3
 10
-3.78325458067502
 20
-0.708661417020438
 30
0.0
 40
0.0673166614412719
 50
179.999999999999
 51
269.999999999998
  0
ARC
  8
3
  6
CONTINUOUS
 62
3
 10
-3.78325458067502
 20
0.708661417020434
 30
0.0
 40
0.0673166614412715
 50
179.999999999998
 51
359.999999999999
  0
ARC
  8
3
  6
CONTINUOUS
 62
3
 10
-3.78325458067502
 20
0.708661417020437
 30
0.0
 40
0.0673166614412715
 50
359.999999999997
 51
180
  0
ARC
  8
3
  6
CONTINUOUS
 62
3
 10
-3.78325458067502
 20
0.236220472620434
 30
0.0
 40
0.067316661441272
 50
179.999999999998
 51
269.999999999998
  0
ARC
  8
3
  6
CONTINUOUS
 62
3
 10
-3.78325458067502
 20
-0.236220471779567
 30
0.0
 40
0.067316661441272
 50
179.999999999998
 51
269.999999999998
  0
ARC
  8
3
  6
CONTINUOUS
 62
3
 10
-3.68876639227503
 20
-0.708661417020433
 30
0.0
 40
0.067316661441272
 50
359.999999999998
 51
89.999999999999
  0
ARC
  8
3
  6
CONTINUOUS
 62
3
 10
-3.68876639227503
 20
0.236220472620436
 30
0.0
 40
0.0673166614412715
 50
1.20861077895614E-13
 51
89.9999999999994
  0
ARC
  8
3
  6
CONTINUOUS
 62
3
 10
-3.68876639227503
 20
-0.236220471779562
 30
0.0
 40
0.0673166614412719
 50
360
 51
89.999999999999
  0
ARC
  8
3
  6
CONTINUOUS
 62
3
 10
-3.78325458067503
 20
0.236220472620436
 30
0.0
 40
0.0673166614412705
 50
89.9999999999986
 51
180
  0
LINE
  8
3
  6
CONTINUOUS
 62
3
 10
-3.78325458067502
 20
0.303537134061707
 30
0.0
 11
-3.68876639227503
 21
0.303537134061707
 31
0.0
  0
ARC
  8
3
  6
CONTINUOUS
 62
3
 10
-3.68876639227502
 20
0.236220472620436
 30
0.0
 40
0.0673166614412714
 50
269.999999999998
 51
1.7174995279903E-13
  0
LINE
  8
3
  6
CONTINUOUS
 62
3
 10
-3.78325458067502
 20
0.168903811179164
 30
0.0
 11
-3.68876639227503
 21
0.168903811179164
 31
0.0
  0
ARC
  8
3
  6
CONTINUOUS
 62
3
 10
-3.78325458067503
 20
-0.236220471779564
 30
0.0
 40
0.067316661441271
 50
89.999999999999
 51
180
  0
LINE
  8
3
  6
CONTINUOUS
 62
3
 10
-3.78325458067502
 20
-0.168903810338293
 30
0.0
 11
-3.68876639227503
 21
-0.168903810338293
 31
0.0
  0
ARC
  8
3
  6
CONTINUOUS
 62
3
 10
-3.68876639227502
 20
-0.236220471779565
 30
0.0
 40
0.0673166614412714
 50
269.999999999998
 51
1.7174995279903E-13
  0
LINE
  8
3
  6
CONTINUOUS
 62
3
 10
-3.78325458067502
 20
-0.303537133220837
 30
0.0
 11
-3.68876639227503
 21
-0.303537133220837
 31
0.0
  0
ARC
  8
3
  6
CONTINUOUS
 62
3
 10
-3.78325458067502
 20
-0.708661417020435
 30
0.0
 40
0.0673166614412716
 50
89.9999999999995
 51
180
  0
LINE
  8
3
  6
CONTINUOUS
 62
3
 10
-3.78325458067502
 20
-0.641344755579164
 30
0.0
 11
-3.68876639227503
 21
-0.641344755579164
 31
0.0
  0
ARC
  8
3
  6
CONTINUOUS
 62
3
 10
-3.68876639227502
 20
-0.708661417020437
 30
0.0
 40
0.067316661441271
 50
269.999999999998
 51
360
  0
LINE
  8
3
  6
CONTINUOUS
 62
3
 10
-3.78325458067502
 20
-0.775978078461708
 30
0.0
 11
-3.68876639227503
 21
-0.775978078461708
 31
0.0
  0
ARC
  8
3
  6
CONTINUOUS
 62
3
 10
-3.12272389466454
 20
0.708661417023807
 30
0.0
 40
0.0673166614412715
 50
5.84585950452994E-10
 51
90.0000000005841
  0
ARC
  8
3
  6
CONTINUOUS
 62
3
 10
-3.12272389465008
 20
-0.708661417017066
 30
0.0
 40
0.0673166614412715
 50
5.84153395016315E-10
 51
180.000000000585
  0
ARC
  8
3
  6
CONTINUOUS
 62
3
 10
-3.12272389465008
 20
-0.708661417017068
 30
0.0
 40
0.0673166614412715
 50
180.000000000583
 51
5.8444600604701E-10
  0
ARC
  8
3
  6
CONTINUOUS
 62
3
 10
-3.1227238946549
 20
-0.236220472617065
 30
0.0
 40
0.0673166614412722
 50
5.83599978501741E-10
 51
90.0000000005831
  0
ARC
  8
3
  6
CONTINUOUS
 62
3
 10
-3.12272389465972
 20
0.236220471782935
 30
0.0
 40
0.0673166614412729
 50
5.84172478344404E-10
 51
90.0000000005837
  0
ARC
  8
3
  6
CONTINUOUS
 62
3
 10
-3.21721208306454
 20
0.70866141702284
 30
0.0
 40
0.0673166614412719
 50
180.000000000582
 51
270.000000000582
  0
ARC
  8
3
  6
CONTINUOUS
 62
3
 10
-3.2172120830549
 20
-0.236220472618032
 30
0.0
 40
0.0673166614412718
 50
180.000000000583
 51
270.000000000582
  0
ARC
  8
3
  6
CONTINUOUS
 62
3
 10
-3.21721208305972
 20
0.236220471781969
 30
0.0
 40
0.0673166614412718
 50
180.000000000584
 51
270.000000000582
  0
ARC
  8
3
  6
CONTINUOUS
 62
3
 10
-3.1227238946549
 20
-0.236220472617066
 30
0.0
 40
0.0673166614412707
 50
270.000000000582
 51
5.84471450484462E-10
  0
LINE
  8
3
  6
CONTINUOUS
 62
3
 10
-3.12272389465421
 20
-0.303537134058336
 30
0.0
 11
-3.21721208305421
 21
-0.303537134059301
 31
0.0
  0
ARC
  8
3
  6
CONTINUOUS
 62
3
 10
-3.2172120830549
 20
-0.236220472618029
 30
0.0
 40
0.0673166614412718
 50
90.0000000005841
 51
180.000000000585
  0
LINE
  8
3
  6
CONTINUOUS
 62
3
 10
-3.12272389465559
 20
-0.168903811175793
 30
0.0
 11
-3.21721208305559
 21
-0.168903811176757
 31
0.0
  0
ARC
  8
3
  6
CONTINUOUS
 62
3
 10
-3.12272389465972
 20
0.236220471782935
 30
0.0
 40
0.0673166614412706
 50
270.000000000582
 51
5.83803534001354E-10
  0
LINE
  8
3
  6
CONTINUOUS
 62
3
 10
-3.12272389465903
 20
0.168903810341664
 30
0.0
 11
-3.21721208305903
 21
0.1689038103407
 31
0.0
  0
ARC
  8
3
  6
CONTINUOUS
 62
3
 10
-3.21721208305972
 20
0.236220471781971
 30
0.0
 40
0.067316661441271
 50
90.0000000005841
 51
180.000000000585
  0
LINE
  8
3
  6
CONTINUOUS
 62
3
 10
-3.12272389466041
 20
0.303537133224207
 30
0.0
 11
-3.21721208306041
 21
0.303537133223243
 31
0.0
  0
ARC
  8
3
  6
CONTINUOUS
 62
3
 10
-3.12272389466454
 20
0.708661417023807
 30
0.0
 40
0.0673166614412712
 50
270.000000000582
 51
5.84802228171334E-10
  0
LINE
  8
3
  6
CONTINUOUS
 62
3
 10
-3.12272389466386
 20
0.641344755582535
 30
0.0
 11
-3.21721208306386
 21
0.641344755581571
 31
0.0
  0
ARC
  8
3
  6
CONTINUOUS
 62
3
 10
-3.21721208306454
 20
0.708661417022843
 30
0.0
 40
0.067316661441271
 50
90.0000000005834
 51
180.000000000585
  0
LINE
  8
3
  6
CONTINUOUS
 62
3
 10
-3.12272389466523
 20
0.775978078465078
 30
0.0
 11
-3.21721208306523
 21
0.775978078464114
 31
0.0
  0
LINE
  8
3
  6
CONTINUOUS
 62
3
 10
3.95751733634827
 20
0.882924172693684
 30
0.0
 11
3.95751733634827
 21
-0.882924172693684
 31
0.0
  0
LINE
  8
3
  6
CONTINUOUS
 62
3
 10
2.94846113898406
 20
0.882924172693684
 30
0.0
 11
2.94846113898406
 21
-0.882924172693684
 31
0.0
  0
LINE
  8
3
  6
CONTINUOUS
 62
3
 10
3.95751733634827
 20
0.882924172693684
 30
0.0
 11
2.94846113898406
 21
0.882924172693684
 31
0.0
  0
LINE
  8
3
  6
CONTINUOUS
 62
3
 10
3.95751733634827
 20
-0.882924172693684
 30
0.0
 11
2.94846113898406
 21
-0.882924172693684
 31
0.0
  0
ARC
  8
3
  6
CONTINUOUS
 62
3
 10
3.78325458067502
 20
-0.708661417020436
 30
0.0
 40
0.0673166614412719
 50
269.999999999998
 51
359.999999999998
  0
ARC
  8
3
  6
CONTINUOUS
 62
3
 10
3.78325458067502
 20
0.708661417020433
 30
0.0
 40
0.0673166614412715
 50
179.999999999997
 51
359.999999999997
  0
ARC
  8
3
  6
CONTINUOUS
 62
3
 10
3.78325458067502
 20
0.708661417020439
 30
0.0
 40
0.0673166614412715
 50
359.999999999997
 51
180
  0
ARC
  8
3
  6
CONTINUOUS
 62
3
 10
3.78325458067502
 20
0.236220472620436
 30
0.0
 40
0.067316661441272
 50
269.999999999998
 51
4.45277655404892E-14
  0
ARC
  8
3
  6
CONTINUOUS
 62
3
 10
3.78325458067502
 20
-0.236220471779564
 30
0.0
 40
0.0673166614412721
 50
269.999999999998
 51
1.27222187258541E-14
  0
ARC
  8
3
  6
CONTINUOUS
 62
3
 10
3.68876639227503
 20
-0.708661417020436
 30
0.0
 40
0.0673166614412719
 50
89.9999999999998
 51
180
  0
ARC
  8
3
  6
CONTINUOUS
 62
3
 10
3.68876639227503
 20
0.236220472620435
 30
0.0
 40
0.0673166614412714
 50
89.9999999999994
 51
179.999999999999
  0
ARC
  8
3
  6
CONTINUOUS
 62
3
 10
3.68876639227503
 20
-0.236220471779565
 30
0.0
 40
0.0673166614412719
 50
89.9999999999998
 51
179.999999999999
  0
ARC
  8
3
  6
CONTINUOUS
 62
3
 10
3.78325458067503
 20
0.236220472620438
 30
0.0
 40
0.0673166614412706
 50
359.999999999997
 51
90.0000000000002
  0
LINE
  8
3
  6
CONTINUOUS
 62
3
 10
3.78325458067502
 20
0.303537134061707
 30
0.0
 11
3.68876639227503
 21
0.303537134061707
 31
0.0
  0
ARC
  8
3
  6
CONTINUOUS
 62
3
 10
3.68876639227503
 20
0.236220472620434
 30
0.0
 40
0.0673166614412714
 50
179.999999999997
 51
269.999999999998
  0
LINE
  8
3
  6
CONTINUOUS
 62
3
 10
3.78325458067502
 20
0.168903811179164
 30
0.0
 11
3.68876639227503
 21
0.168903811179164
 31
0.0
  0
ARC
  8
3
  6
CONTINUOUS
 62
3
 10
3.78325458067502
 20
-0.236220471779562
 30
0.0
 40
0.067316661441271
 50
359.999999999997
 51
89.9999999999998
  0
LINE
  8
3
  6
CONTINUOUS
 62
3
 10
3.78325458067502
 20
-0.168903810338293
 30
0.0
 11
3.68876639227503
 21
-0.168903810338293
 31
0.0
  0
ARC
  8
3
  6
CONTINUOUS
 62
3
 10
3.68876639227503
 20
-0.236220471779567
 30
0.0
 40
0.0673166614412714
 50
179.999999999997
 51
269.999999999998
  0
LINE
  8
3
  6
CONTINUOUS
 62
3
 10
3.78325458067502
 20
-0.303537133220837
 30
0.0
 11
3.68876639227503
 21
-0.303537133220837
 31
0.0
  0
ARC
  8
3
  6
CONTINUOUS
 62
3
 10
3.78325458067502
 20
-0.708661417020433
 30
0.0
 40
0.0673166614412715
 50
359.999999999997
 51
89.999999999999
  0
LINE
  8
3
  6
CONTINUOUS
 62
3
 10
3.78325458067502
 20
-0.641344755579164
 30
0.0
 11
3.68876639227503
 21
-0.641344755579164
 31
0.0
  0
ARC
  8
3
  6
CONTINUOUS
 62
3
 10
3.68876639227503
 20
-0.708661417020439
 30
0.0
 40
0.067316661441271
 50
179.999999999997
 51
269.999999999998
  0
LINE
  8
3
  6
CONTINUOUS
 62
3
 10
3.78325458067502
 20
-0.775978078461708
 30
0.0
 11
3.68876639227503
 21
-0.775978078461708
 31
0.0
  0
ARC
  8
3
  6
CONTINUOUS
 62
3
 10
3.12272389466454
 20
0.708661417023807
 30
0.0
 40
0.067316661441271
 50
89.999999999415
 51
179.999999999415
  0
ARC
  8
3
  6
CONTINUOUS
 62
3
 10
3.12272389465008
 20
-0.708661417017063
 30
0.0
 40
0.0673166614412715
 50
359.999999999413
 51
179.999999999415
  0
ARC
  8
3
  6
CONTINUOUS
 62
3
 10
3.12272389465008
 20
-0.708661417017069
 30
0.0
 40
0.0673166614412715
 50
179.999999999413
 51
359.999999999413
  0
ARC
  8
3
  6
CONTINUOUS
 62
3
 10
3.1227238946549
 20
-0.236220472617066
 30
0.0
 40
0.0673166614412728
 50
89.9999999994151
 51
179.999999999415
  0
ARC
  8
3
  6
CONTINUOUS
 62
3
 10
3.12272389465972
 20
0.236220471782934
 30
0.0
 40
0.0673166614412728
 50
89.9999999994151
 51
179.999999999415
  0
ARC
  8
3
  6
CONTINUOUS
 62
3
 10
3.21721208306454
 20
0.708661417022843
 30
0.0
 40
0.0673166614412719
 50
269.999999999414
 51
359.999999999414
  0
ARC
  8
3
  6
CONTINUOUS
 62
3
 10
3.2172120830549
 20
-0.236220472618029
 30
0.0
 40
0.0673166614412719
 50
269.999999999414
 51
359.999999999413
  0
ARC
  8
3
  6
CONTINUOUS
 62
3
 10
3.21721208305972
 20
0.236220471781972
 30
0.0
 40
0.0673166614412719
 50
269.999999999414
 51
359.999999999413
  0
ARC
  8
3
  6
CONTINUOUS
 62
3
 10
3.1227238946549
 20
-0.236220472617068
 30
0.0
 40
0.0673166614412706
 50
179.999999999414
 51
269.999999999414
  0
LINE
  8
3
  6
CONTINUOUS
 62
3
 10
3.12272389465421
 20
-0.303537134058336
 30
0.0
 11
3.21721208305421
 21
-0.303537134059301
 31
0.0
  0
ARC
  8
3
  6
CONTINUOUS
 62
3
 10
3.2172120830549
 20
-0.236220472618027
 30
0.0
 40
0.0673166614412715
 50
359.999999999413
 51
89.9999999994143
  0
LINE
  8
3
  6
CONTINUOUS
 62
3
 10
3.12272389465559
 20
-0.168903811175793
 30
0.0
 11
3.21721208305559
 21
-0.168903811176757
 31
0.0
  0
ARC
  8
3
  6
CONTINUOUS
 62
3
 10
3.12272389465972
 20
0.236220471782932
 30
0.0
 40
0.06731666144127
 50
179.999999999413
 51
269.999999999414
  0
LINE
  8
3
  6
CONTINUOUS
 62
3
 10
3.12272389465903
 20
0.168903810341664
 30
0.0
 11
3.21721208305903
 21
0.1689038103407
 31
0.0
  0
ARC
  8
3
  6
CONTINUOUS
 62
3
 10
3.21721208305972
 20
0.236220471781974
 30
0.0
 40
0.067316661441271
 50
359.999999999413
 51
89.9999999994147
  0
LINE
  8
3
  6
CONTINUOUS
 62
3
 10
3.12272389466041
 20
0.303537133224207
 30
0.0
 11
3.21721208306041
 21
0.303537133223243
 31
0.0
  0
ARC
  8
3
  6
CONTINUOUS
 62
3
 10
3.12272389466454
 20
0.708661417023805
 30
0.0
 40
0.0673166614412711
 50
179.999999999412
 51
269.999999999414
  0
LINE
  8
3
  6
CONTINUOUS
 62
3
 10
3.12272389466386
 20
0.641344755582535
 30
0.0
 11
3.21721208306386
 21
0.641344755581571
 31
0.0
  0
ARC
  8
3
  6
CONTINUOUS
 62
3
 10
3.21721208306454
 20
0.708661417022844
 30
0.0
 40
0.0673166614412715
 50
359.999999999414
 51
89.9999999994158
  0
LINE
  8
3
  6
CONTINUOUS
 62
3
 10
3.12272389466523
 20
0.775978078465078
 30
0.0
 11
3.21721208306523
 21
0.775978078464114
 31
0.0
  0
ARC
  8
5
  6
CONTINUOUS
 62
5
 10
3.45298923766617
 20
5.55111512312578E-17
 30
0.0
 40
0.161976254125961
 50
81.5445449931091
 51
261.54454499311
  0
ARC
  8
5
  6
CONTINUOUS
 62
5
 10
3.45298923766617
 20
-3.60822483003176E-16
 30
0.0
 40
0.161976254125961
 50
261.544544993108
 51
81.5445449931095
  0
ARC
  8
5
  6
CONTINUOUS
 62
5
 10
-3.45298923766617
 20
7.49400541621981E-16
 30
0.0
 40
0.161976254125961
 50
278.455455006887
 51
98.4554550068894
  0
ARC
  8
5
  6
CONTINUOUS
 62
5
 10
-3.45298923766617
 20
-6.93889390390723E-16
 30
0.0
 40
0.161976254125961
 50
98.4554550068882
 51
278.455455006887
  0
ARC
  8
6
  6
CONTINUOUS
 62
6
 10
1.5402999633318
 20
-3.85764553546693
 30
0.0
 40
0.0458035714102484
 50
289.052099999982
 51
9.01929999999368
  0
LINE
  8
9
  6
CONTINUOUS
 62
9
 10
-4.26351044973119
 20
-2.07604431025746
 30
0.0
 11
-4.19619859717648
 21
-2.17737398076992
 31
0.0
  0
LINE
  8
9
  6
CONTINUOUS
 62
9
 10
-4.19251491404531
 20
-2.28979431017196
 30
0.0
 11
-4.19251491404531
 21
-2.18291931021471
 31
0.0
  0
LINE
  8
9
  6
CONTINUOUS
 62
9
 10
-4.19251491404531
 20
-2.18291931021471
 30
0.0
 11
-4.12151937835942
 21
-2.07604431025746
 31
0.0
  0
ARC
  8
9
  6
CONTINUOUS
 62
9
 10
-4.03075310204691
 20
-2.22830580488087
 30
0.0
 40
0.0616166895289243
 50
210.521999666259
 51
269.441063338051
  0
LINE
  8
9
  6
CONTINUOUS
 62
9
 10
-4.03135418088401
 20
-2.28991956253885
 30
0.0
 11
-4.00957200117911
 21
-2.29013206058649
 31
0.0
  0
ARC
  8
9
  6
CONTINUOUS
 62
9
 10
-4.00902327744616
 20
-2.23388494362466
 30
0.0
 40
0.0562497934596428
 50
269.441063677776
 51
357.350682656729
  0
ARC
  8
9
  6
CONTINUOUS
 62
9
 10
-3.99858771215277
 20
-2.24063464501321
 30
0.0
 40
0.0459418981959212
 50
5.1822724438332
 51
59.3448299999953
  0
LINE
  8
9
  6
CONTINUOUS
 62
9
 10
-3.97516331713792
 20
-2.20111305941708
 30
0.0
 11
-4.05928831498563
 21
-2.16498192432918
 31
0.0
  0
ARC
  8
9
  6
CONTINUOUS
 62
9
 10
-4.03586390464658
 20
-2.12546035869539
 30
0.0
 40
0.0459418888366372
 50
185.182406440224
 51
239.344800865825
  0
ARC
  8
9
  6
CONTINUOUS
 62
9
 10
-4.02565350104235
 20
-2.13206147885434
 30
0.0
 40
0.0560181509521024
 50
91.2613438550531
 51
177.491952931064
  0
LINE
  8
9
  6
CONTINUOUS
 62
9
 10
-4.02688661880228
 20
-2.07605690174958
 30
0.0
 11
-4.00515623630415
 21
-2.07603405171541
 31
0.0
  0
ARC
  8
9
  6
CONTINUOUS
 62
9
 10
-4.00709693233999
 20
-2.13567098293644
 30
0.0
 40
0.0596684997847745
 50
29.2717084966247
 51
88.1361471074764
  0
LINE
  8
9
  6
CONTINUOUS
 62
9
 10
-3.82468202342299
 20
-2.23509121958372
 30
0.0
 11
-3.75687457624512
 21
-2.28685263388836
 31
0.0
  0
ARC
  8
9
  6
CONTINUOUS
 62
9
 10
-3.83341419949093
 20
-2.22697639931911
 30
0.0
 40
0.0635671124745748
 50
195.902080827326
 51
315.740300551129
  0
ARC
  8
9
  6
CONTINUOUS
 62
9
 10
-3.71418172476675
 20
-2.18332192584157
 30
0.0
 40
0.190425752602399
 50
161.294116943041
 51
198.705883056959
  0
ARC
  8
9
  6
CONTINUOUS
 62
9
 10
-3.83341420734106
 20
-2.13958629755407
 30
0.0
 40
0.0635449305598079
 50
15.8327716419905
 51
164.16829435536
  0
ARC
  8
9
  6
CONTINUOUS
 62
9
 10
-3.95012541855103
 20
-2.18220964577854
 30
0.0
 40
0.187681172848706
 50
335.052800670303
 51
18.6314696013482
  0
LINE
  8
9
  6
CONTINUOUS
 62
9
 10
-3.73718510703204
 20
-2.1065800092631
 30
0.0
 11
-3.7066494080264
 21
-2.07604431025746
 31
0.0
  0
LINE
  8
9
  6
CONTINUOUS
 62
9
 10
-3.7066494080264
 20
-2.07604431025746
 30
0.0
 11
-3.7066494080264
 21
-2.28338113916665
 31
0.0
  0
LINE
  8
9
  6
CONTINUOUS
 62
9
 10
-3.73718510703204
 20
-2.28979431017196
 30
0.0
 11
-3.67611367848504
 21
-2.28979431017196
 31
0.0
  0
LINE
  8
9
  6
CONTINUOUS
 62
9
 10
-3.52708734511847
 20
-2.28979653501943
 30
0.0
 11
-3.65243645221118
 21
-2.28979653501943
 31
0.0
  0
LINE
  8
9
  6
CONTINUOUS
 62
9
 10
-3.65243645221118
 20
-2.28979653501943
 30
0.0
 11
-3.65251279149687
 21
-2.18292153506218
 31
0.0
  0
LINE
  8
9
  6
CONTINUOUS
 62
9
 10
-3.65251279149687
 20
-2.18292153506218
 30
0.0
 11
-3.55456948796462
 21
-2.18292153506218
 31
0.0
  0
LINE
  8
9
  6
CONTINUOUS
 62
9
 10
-3.65251737056442
 20
-2.17971709048401
 30
0.0
 11
-3.65258913078255
 21
-2.07604653510493
 31
0.0
  0
LINE
  8
9
  6
CONTINUOUS
 62
9
 10
-3.65258913078255
 20
-2.07604653510493
 30
0.0
 11
-3.53777484511847
 21
-2.07604653510493
 31
0.0
  0
ARC
  8
9
  6
CONTINUOUS
 62
9
 10
-3.44950800164223
 20
-2.22201227946143
 30
0.0
 40
0.0680118337784724
 50
213.433287883773
 51
270.015999253477
  0
ARC
  8
9
  6
CONTINUOUS
 62
9
 10
-3.44121169378781
 20
-2.22158250430132
 30
0.0
 40
0.0689403179243416
 50
263.104148598818
 51
34.0979167513626
  0
ARC
  8
9
  6
CONTINUOUS
 62
9
 10
-3.45168112786788
 20
-2.24170996180448
 30
0.0
 40
0.089546895682727
 50
41.0237111689364
 51
127.558530040727
  0
LINE
  8
9
  6
CONTINUOUS
 62
9
 10
-3.50626636830817
 20
-2.17072335706465
 30
0.0
 11
-3.50626636830817
 21
-2.07605898921859
 31
0.0
  0
LINE
  8
9
  6
CONTINUOUS
 62
9
 10
-3.50626636830817
 20
-2.07605898921859
 30
0.0
 11
-3.37703363746701
 21
-2.07605898921859
 31
0.0
  0
LINE
  8
9
  6
CONTINUOUS
 62
9
 10
-4.26351044973119
 20
-2.86344588425746
 30
0.0
 11
-4.19619859717648
 21
-2.96477555476992
 31
0.0
  0
LINE
  8
9
  6
CONTINUOUS
 62
9
 10
-4.19251491404531
 20
-3.07719588417196
 30
0.0
 11
-4.19251491404531
 21
-2.97032088421471
 31
0.0
  0
LINE
  8
9
  6
CONTINUOUS
 62
9
 10
-4.19251491404531
 20
-2.97032088421471
 30
0.0
 11
-4.12151937835942
 21
-2.86344588425746
 31
0.0
  0
ARC
  8
9
  6
CONTINUOUS
 62
9
 10
-4.03075310204691
 20
-3.01570737888087
 30
0.0
 40
0.0616166895289243
 50
210.521999666259
 51
269.441063338051
  0
LINE
  8
9
  6
CONTINUOUS
 62
9
 10
-4.03135418088401
 20
-3.07732113653885
 30
0.0
 11
-4.00957200117911
 21
-3.07753363458649
 31
0.0
  0
ARC
  8
9
  6
CONTINUOUS
 62
9
 10
-4.00902327744616
 20
-3.02128651762466
 30
0.0
 40
0.0562497934596428
 50
269.441063677776
 51
357.350682656729
  0
ARC
  8
9
  6
CONTINUOUS
 62
9
 10
-3.99858771215277
 20
-3.02803621901321
 30
0.0
 40
0.0459418981959209
 50
5.18227244383269
 51
59.3448299999948
  0
LINE
  8
9
  6
CONTINUOUS
 62
9
 10
-3.97516331713792
 20
-2.98851463341708
 30
0.0
 11
-4.05928831498563
 21
-2.95238349832918
 31
0.0
  0
ARC
  8
9
  6
CONTINUOUS
 62
9
 10
-4.03586390464658
 20
-2.91286193269539
 30
0.0
 40
0.0459418888366372
 50
185.182406440224
 51
239.344800865825
  0
ARC
  8
9
  6
CONTINUOUS
 62
9
 10
-4.02565350104235
 20
-2.91946305285434
 30
0.0
 40
0.0560181509521028
 50
91.2613438550527
 51
177.491952931064
  0
LINE
  8
9
  6
CONTINUOUS
 62
9
 10
-4.02688661880228
 20
-2.86345847574958
 30
0.0
 11
-4.00515623630415
 21
-2.86343562571541
 31
0.0
  0
ARC
  8
9
  6
CONTINUOUS
 62
9
 10
-4.00709693233999
 20
-2.92307255693644
 30
0.0
 40
0.0596684997847753
 50
29.2717084966251
 51
88.1361471074769
  0
LINE
  8
9
  6
CONTINUOUS
 62
9
 10
-3.82468202342299
 20
-3.02249279358372
 30
0.0
 11
-3.75687457624512
 21
-3.07425420788836
 31
0.0
  0
ARC
  8
9
  6
CONTINUOUS
 62
9
 10
-3.83341419949093
 20
-3.01437797331911
 30
0.0
 40
0.0635671124745745
 50
195.902080827326
 51
315.740300551129
  0
ARC
  8
9
  6
CONTINUOUS
 62
9
 10
-3.71418172476675
 20
-2.97072349984157
 30
0.0
 40
0.190425752602399
 50
161.294116943041
 51
198.705883056959
  0
ARC
  8
9
  6
CONTINUOUS
 62
9
 10
-3.83341420734106
 20
-2.92698787155407
 30
0.0
 40
0.0635449305598082
 50
15.8327716419905
 51
164.16829435536
  0
ARC
  8
9
  6
CONTINUOUS
 62
9
 10
-3.95012541855103
 20
-2.96961121977854
 30
0.0
 40
0.187681172848706
 50
335.052800670303
 51
18.631469601348
  0
ARC
  8
9
  6
CONTINUOUS
 62
9
 10
-3.67029326355581
 20
-3.00941385346143
 30
0.0
 40
0.0680118337784732
 50
213.433287883773
 51
270.015999253477
  0
ARC
  8
9
  6
CONTINUOUS
 62
9
 10
-3.66199695570139
 20
-3.00898407830132
 30
0.0
 40
0.0689403179243413
 50
263.104148598818
 51
34.0979167513629
  0
ARC
  8
9
  6
CONTINUOUS
 62
9
 10
-3.67246638978145
 20
-3.02911153580448
 30
0.0
 40
0.089546895682727
 50
41.0237111689364
 51
127.558530040727
  0
LINE
  8
9
  6
CONTINUOUS
 62
9
 10
-3.72705163022175
 20
-2.95812493106465
 30
0.0
 11
-3.72705163022175
 21
-2.86346056321859
 31
0.0
  0
LINE
  8
9
  6
CONTINUOUS
 62
9
 10
-3.72705163022175
 20
-2.86346056321859
 30
0.0
 11
-3.59781889938058
 21
-2.86346056321859
 31
0.0
  0
LINE
  8
9
  6
CONTINUOUS
 62
9
 10
-3.44879256601401
 20
-3.07719810901943
 30
0.0
 11
-3.57414167310672
 21
-3.07719810901943
 31
0.0
  0
LINE
  8
9
  6
CONTINUOUS
 62
9
 10
-3.57414167310672
 20
-3.07719810901943
 30
0.0
 11
-3.57421801239241
 21
-2.97032310906218
 31
0.0
  0
LINE
  8
9
  6
CONTINUOUS
 62
9
 10
-3.57421801239241
 20
-2.97032310906218
 30
0.0
 11
-3.47627470886016
 21
-2.97032310906218
 31
0.0
  0
LINE
  8
9
  6
CONTINUOUS
 62
9
 10
-3.57422259145996
 20
-2.96711866448401
 30
0.0
 11
-3.57429435167809
 21
-2.86344810910493
 31
0.0
  0
LINE
  8
9
  6
CONTINUOUS
 62
9
 10
-3.57429435167809
 20
-2.86344810910493
 30
0.0
 11
-3.45948006601401
 21
-2.86344810910493
 31
0.0
  0
LINE
  8
9
  6
CONTINUOUS
 62
9
 10
-3.43810506601401
 20
-2.8939815832631
 30
0.0
 11
-3.40756936700836
 21
-2.86344588425746
 31
0.0
  0
LINE
  8
9
  6
CONTINUOUS
 62
9
 10
-3.40756936700836
 20
-2.86344588425746
 30
0.0
 11
-3.40756936700836
 21
-3.07078271316665
 31
0.0
  0
LINE
  8
9
  6
CONTINUOUS
 62
9
 10
-3.43810506601401
 20
-3.07719588417196
 30
0.0
 11
-3.37703363746701
 21
-3.07719588417196
 31
0.0
  0
ARC
  8
9
  6
CONTINUOUS
 62
9
 10
-3.29530260198271
 20
-3.0244098474213
 30
0.0
 40
0.0524187140275303
 50
199.46544145889
 51
268.514572046557
  0
ARC
  8
9
  6
CONTINUOUS
 62
9
 10
-3.14767172044484
 20
-2.97023087939954
 30
0.0
 40
0.209674392786657
 50
160.019185139364
 51
199.980814860636
  0
ARC
  8
9
  6
CONTINUOUS
 62
9
 10
-3.2950609042505
 20
-2.91611293994714
 30
0.0
 40
0.0526669390359255
 50
19.4473483225602
 51
160.559582801478
  0
ARC
  8
9
  6
CONTINUOUS
 62
9
 10
-3.44245002456999
 20
-2.97023087899709
 30
0.0
 40
0.209674392786641
 50
340.017438400847
 51
19.9825615991516
  0
ARC
  8
9
  6
CONTINUOUS
 62
9
 10
-3.29464803941207
 20
-3.02469407222526
 30
0.0
 40
0.0521630291275261
 50
271.354984375423
 51
340.759261725194
  0
ARC
  8
9
  6
CONTINUOUS
 62
9
 10
-3.15355260198271
 20
-3.0244098474213
 30
0.0
 40
0.0524187140275306
 50
199.465441458891
 51
268.514572046558
  0
ARC
  8
9
  6
CONTINUOUS
 62
9
 10
-3.00592172044484
 20
-2.97023087939954
 30
0.0
 40
0.209674392786657
 50
160.019185139364
 51
199.980814860636
  0
ARC
  8
9
  6
CONTINUOUS
 62
9
 10
-3.1533109042505
 20
-2.91611293994714
 30
0.0
 40
0.0526669390359255
 50
19.4473483225602
 51
160.559582801478
  0
ARC
  8
9
  6
CONTINUOUS
 62
9
 10
-3.30070002456999
 20
-2.97023087899709
 30
0.0
 40
0.209674392786641
 50
340.017438400847
 51
19.9825615991516
  0
ARC
  8
9
  6
CONTINUOUS
 62
9
 10
-3.15289803941207
 20
-3.02469407222526
 30
0.0
 40
0.0521630291275261
 50
271.354984375423
 51
340.759261725194
  0
LINE
  8
9
  6
CONTINUOUS
 62
9
 10
-2.96358202123599
 20
-2.97031608304674
 30
0.0
 11
-3.05506702123599
 21
-2.97031608304674
 31
0.0
  0
LINE
  8
9
  6
CONTINUOUS
 62
9
 10
-3.06144898548255
 20
-3.07719108300399
 30
0.0
 11
-3.06144898548255
 21
-2.86344108308949
 31
0.0
  0
LINE
  8
9
  6
CONTINUOUS
 62
9
 10
-3.06144898548255
 20
-2.86344108308949
 30
0.0
 11
-2.94678737838983
 21
-2.86344108308949
 31
0.0
  0
LINE
  8
9
  6
CONTINUOUS
 62
9
 10
-4.26351044973119
 20
-3.65084745825746
 30
0.0
 11
-4.13831402120985
 21
-3.65084745825746
 31
0.0
  0
LINE
  8
9
  6
CONTINUOUS
 62
9
 10
-4.13831402120985
 20
-3.65084745825746
 30
0.0
 11
-4.26351044973119
 21
-3.86459745817196
 31
0.0
  0
LINE
  8
9
  6
CONTINUOUS
 62
9
 10
-4.26351044973119
 20
-3.86459745817196
 30
0.0
 11
-4.13831402120985
 21
-3.86459745817196
 31
0.0
  0
ARC
  8
9
  6
CONTINUOUS
 62
9
 10
-4.03227988776058
 20
-3.80310895288087
 30
0.0
 40
0.0616166895289251
 50
210.521999666259
 51
269.441063338051
  0
LINE
  8
9
  6
CONTINUOUS
 62
9
 10
-4.03288096659768
 20
-3.86472271053885
 30
0.0
 11
-4.01109878689279
 21
-3.86493520858649
 31
0.0
  0
ARC
  8
9
  6
CONTINUOUS
 62
9
 10
-4.01055006315984
 20
-3.80868809162466
 30
0.0
 40
0.0562497934596426
 50
269.441063677776
 51
357.350682656729
  0
ARC
  8
9
  6
CONTINUOUS
 62
9
 10
-4.00011449786645
 20
-3.81543779301321
 30
0.0
 40
0.0459418981959207
 50
5.18227244383216
 51
59.3448299999942
  0
LINE
  8
9
  6
CONTINUOUS
 62
9
 10
-3.97669010285159
 20
-3.77591620741708
 30
0.0
 11
-4.0608151006993
 21
-3.73978507232918
 31
0.0
  0
ARC
  8
9
  6
CONTINUOUS
 62
9
 10
-4.03739069036026
 20
-3.70026350669539
 30
0.0
 40
0.0459418888366367
 50
185.182406440223
 51
239.344800865824
  0
ARC
  8
9
  6
CONTINUOUS
 62
9
 10
-4.02718028675602
 20
-3.70686462685434
 30
0.0
 40
0.0560181509521028
 50
91.2613438550527
 51
177.491952931064
  0
LINE
  8
9
  6
CONTINUOUS
 62
9
 10
-4.02841340451595
 20
-3.65086004974958
 30
0.0
 11
-4.00668302201782
 21
-3.65083719971541
 31
0.0
  0
ARC
  8
9
  6
CONTINUOUS
 62
9
 10
-4.00862371805367
 20
-3.71047413093644
 30
0.0
 40
0.0596684997847745
 50
29.2717084966247
 51
88.1361471074764
  0
LINE
  8
9
  6
CONTINUOUS
 62
9
 10
-3.82620880913667
 20
-3.80989436758373
 30
0.0
 11
-3.7584013619588
 21
-3.86165578188836
 31
0.0
  0
ARC
  8
9
  6
CONTINUOUS
 62
9
 10
-3.83494098520461
 20
-3.80177954731911
 30
0.0
 40
0.0635671124745748
 50
195.902080827326
 51
315.740300551129
  0
ARC
  8
9
  6
CONTINUOUS
 62
9
 10
-3.71570851048042
 20
-3.75812507384157
 30
0.0
 40
0.190425752602399
 50
161.294116943041
 51
198.705883056959
  0
ARC
  8
9
  6
CONTINUOUS
 62
9
 10
-3.83494099305473
 20
-3.71438944555407
 30
0.0
 40
0.0635449305598082
 50
15.8327716419905
 51
164.16829435536
  0
ARC
  8
9
  6
CONTINUOUS
 62
9
 10
-3.95165220426471
 20
-3.75701279377854
 30
0.0
 40
0.187681172848706
 50
335.052800670303
 51
18.6314696013482
  0
ARC
  8
9
  6
CONTINUOUS
 62
9
 10
-3.67182004926948
 20
-3.79681542746143
 30
0.0
 40
0.0680118337784737
 50
213.433287883773
 51
270.015999253477
  0
ARC
  8
9
  6
CONTINUOUS
 62
9
 10
-3.66352374141506
 20
-3.79638565230132
 30
0.0
 40
0.0689403179243413
 50
263.104148598818
 51
34.0979167513629
  0
ARC
  8
9
  6
CONTINUOUS
 62
9
 10
-3.67399317549513
 20
-3.81651310980448
 30
0.0
 40
0.089546895682727
 50
41.0237111689364
 51
127.558530040727
  0
LINE
  8
9
  6
CONTINUOUS
 62
9
 10
-3.72857841593542
 20
-3.74552650506465
 30
0.0
 11
-3.72857841593542
 21
-3.65086213721859
 31
0.0
  0
LINE
  8
9
  6
CONTINUOUS
 62
9
 10
-3.72857841593542
 20
-3.65086213721859
 30
0.0
 11
-3.59934568509426
 21
-3.65086213721859
 31
0.0
  0
LINE
  8
9
  6
CONTINUOUS
 62
9
 10
-3.57740818509426
 20
-3.86459745825746
 30
0.0
 11
-3.57740819166321
 21
-3.65084747946587
 31
0.0
  0
LINE
  8
9
  6
CONTINUOUS
 62
9
 10
-3.57740819166321
 20
-3.65084747946587
 30
0.0
 11
-3.48707337027078
 21
-3.8019992651197
 31
0.0
  0
LINE
  8
9
  6
CONTINUOUS
 62
9
 10
-3.48707337027078
 20
-3.8019992651197
 30
0.0
 11
-3.39699301316395
 21
-3.65084747946587
 31
0.0
  0
LINE
  8
9
  6
CONTINUOUS
 62
9
 10
-3.39699301316395
 20
-3.65084747946587
 30
0.0
 11
-3.39699301316395
 21
-3.86459747938037
 31
0.0
  0
ARC
  8
9
  6
CONTINUOUS
 62
9
 10
-3.31068162054291
 20
-3.8118114214213
 30
0.0
 40
0.0524187140275303
 50
199.46544145889
 51
268.514572046557
  0
ARC
  8
9
  6
CONTINUOUS
 62
9
 10
-3.16305073900503
 20
-3.75763245339955
 30
0.0
 40
0.209674392786657
 50
160.019185139364
 51
199.980814860636
  0
ARC
  8
9
  6
CONTINUOUS
 62
9
 10
-3.3104399228107
 20
-3.70351451394714
 30
0.0
 40
0.0526669390359255
 50
19.4473483225602
 51
160.559582801478
  0
ARC
  8
9
  6
CONTINUOUS
 62
9
 10
-3.45782904313018
 20
-3.75763245299709
 30
0.0
 40
0.209674392786641
 50
340.017438400847
 51
19.9825615991516
  0
ARC
  8
9
  6
CONTINUOUS
 62
9
 10
-3.31002705797226
 20
-3.81209564622526
 30
0.0
 40
0.0521630291275261
 50
271.354984375423
 51
340.759261725194
  0
ARC
  8
9
  6
CONTINUOUS
 62
9
 10
-3.21100292999306
 20
-3.85227767507518
 30
0.0
 40
0.012137071521582
 50
8.58908655555376
 51
108.640074453673
  0
ARC
  8
9
  6
CONTINUOUS
 62
9
 10
-3.2110652423604
 20
-3.8523798194869
 30
0.0
 40
0.0122142857094003
 50
108.209956864283
 51
251.790043135717
  0
ARC
  8
9
  6
CONTINUOUS
 62
9
 10
-3.2110652423604
 20
-3.8523798194869
 30
0.0
 40
0.0122142857093984
 50
251.790043135715
 51
320.406136494647
  0
LINE
  8
9
  6
CONTINUOUS
 62
9
 10
-3.17706064345474
 20
-3.6813831572631
 30
0.0
 11
-3.14652494444909
 21
-3.65084745825746
 31
0.0
  0
LINE
  8
9
  6
CONTINUOUS
 62
9
 10
-3.14652494444909
 20
-3.65084745825746
 30
0.0
 11
-3.14652494444909
 21
-3.85818428716665
 31
0.0
  0
LINE
  8
9
  6
CONTINUOUS
 62
9
 10
-3.17706064345474
 20
-3.86459745817196
 30
0.0
 11
-3.11598921490774
 21
-3.86459745817196
 31
0.0
  0
ARC
  8
9
  6
CONTINUOUS
 62
9
 10
-3.03425817942344
 20
-3.8118114214213
 30
0.0
 40
0.0524187140275306
 50
199.465441458891
 51
268.514572046558
  0
ARC
  8
9
  6
CONTINUOUS
 62
9
 10
-2.88662729788557
 20
-3.75763245339955
 30
0.0
 40
0.209674392786657
 50
160.019185139364
 51
199.980814860636
  0
ARC
  8
9
  6
CONTINUOUS
 62
9
 10
-3.03401648169123
 20
-3.70351451394714
 30
0.0
 40
0.0526669390359255
 50
19.4473483225602
 51
160.559582801478
  0
ARC
  8
9
  6
CONTINUOUS
 62
9
 10
-3.18140560201072
 20
-3.75763245299709
 30
0.0
 40
0.209674392786641
 50
340.017438400847
 51
19.9825615991516
  0
ARC
  8
9
  6
CONTINUOUS
 62
9
 10
-3.0336036168528
 20
-3.81209564622526
 30
0.0
 40
0.0521630291275261
 50
271.354984375423
 51
340.759261725194
  0
ARC
  8
9
  6
CONTINUOUS
 62
9
 10
-2.89250817942344
 20
-3.8118114214213
 30
0.0
 40
0.0524187140275306
 50
199.465441458891
 51
268.514572046558
  0
ARC
  8
9
  6
CONTINUOUS
 62
9
 10
-2.74487729788557
 20
-3.75763245339955
 30
0.0
 40
0.209674392786657
 50
160.019185139364
 51
199.980814860636
  0
ARC
  8
9
  6
CONTINUOUS
 62
9
 10
-2.89226648169123
 20
-3.70351451394714
 30
0.0
 40
0.0526669390359255
 50
19.4473483225602
 51
160.559582801478
  0
ARC
  8
9
  6
CONTINUOUS
 62
9
 10
-3.03965560201072
 20
-3.75763245299709
 30
0.0
 40
0.209674392786641
 50
340.017438400847
 51
19.9825615991516
  0
ARC
  8
9
  6
CONTINUOUS
 62
9
 10
-2.8918536168528
 20
-3.81209564622526
 30
0.0
 40
0.0521630291275261
 50
271.354984375423
 51
340.759261725194
  0
LINE
  8
9
  6
CONTINUOUS
 62
9
 10
-4.13800866406711
 20
-4.65200125701943
 30
0.0
 11
-4.26335777115982
 21
-4.65200125701943
 31
0.0
  0
LINE
  8
9
  6
CONTINUOUS
 62
9
 10
-4.26335777115982
 20
-4.65200125701943
 30
0.0
 11
-4.26343411044551
 21
-4.54512625706218
 31
0.0
  0
LINE
  8
9
  6
CONTINUOUS
 62
9
 10
-4.26343411044551
 20
-4.54512625706218
 30
0.0
 11
-4.16549080691326
 21
-4.54512625706218
 31
0.0
  0
LINE
  8
9
  6
CONTINUOUS
 62
9
 10
-4.26343868951306
 20
-4.54192181248401
 30
0.0
 11
-4.26351044973119
 21
-4.43825125710493
 31
0.0
  0
LINE
  8
9
  6
CONTINUOUS
 62
9
 10
-4.26351044973119
 20
-4.43825125710493
 30
0.0
 11
-4.14869616406711
 21
-4.43825125710493
 31
0.0
  0
ARC
  8
9
  6
CONTINUOUS
 62
9
 10
-4.06042932059088
 20
-4.58421700146143
 30
0.0
 40
0.0680118337784741
 50
213.433287883773
 51
270.015999253477
  0
ARC
  8
9
  6
CONTINUOUS
 62
9
 10
-4.05213301273646
 20
-4.58378722630132
 30
0.0
 40
0.0689403179243412
 50
263.104148598818
 51
34.0979167513631
  0
ARC
  8
9
  6
CONTINUOUS
 62
9
 10
-4.06260244681652
 20
-4.60391468380448
 30
0.0
 40
0.0895468956827266
 50
41.0237111689364
 51
127.558530040727
  0
LINE
  8
9
  6
CONTINUOUS
 62
9
 10
-4.11718768725682
 20
-4.53292807906465
 30
0.0
 11
-4.11718768725682
 21
-4.43826371121859
 31
0.0
  0
LINE
  8
9
  6
CONTINUOUS
 62
9
 10
-4.11718768725682
 20
-4.43826371121859
 30
0.0
 11
-3.98795495641565
 21
-4.43826371121859
 31
0.0
  0
ARC
  8
9
  6
CONTINUOUS
 62
9
 10
-3.90622392093136
 20
-4.5992129954213
 30
0.0
 40
0.0524187140275306
 50
199.465441458891
 51
268.514572046558
  0
ARC
  8
9
  6
CONTINUOUS
 62
9
 10
-3.75859303939348
 20
-4.54503402739955
 30
0.0
 40
0.209674392786657
 50
160.019185139364
 51
199.980814860636
  0
ARC
  8
9
  6
CONTINUOUS
 62
9
 10
-3.90598222319915
 20
-4.49091608794714
 30
0.0
 40
0.0526669390359253
 50
19.4473483225602
 51
160.559582801478
  0
ARC
  8
9
  6
CONTINUOUS
 62
9
 10
-4.05337134351863
 20
-4.54503402699709
 30
0.0
 40
0.209674392786641
 50
340.017438400847
 51
19.9825615991516
  0
ARC
  8
9
  6
CONTINUOUS
 62
9
 10
-3.90556935836071
 20
-4.59949722022526
 30
0.0
 40
0.0521630291275258
 50
271.354984375423
 51
340.759261725194
  0
ARC
  8
9
  6
CONTINUOUS
 62
9
 10
-3.83978151525343
 20
-4.64504710946693
 30
0.0
 40
0.0458035714102483
 50
289.052099999983
 51
9.01929999999385
  0
ARC
  8
9
  6
CONTINUOUS
 62
9
 10
-3.8065452303815
 20
-4.63967924907518
 30
0.0
 40
0.0121370715215818
 50
8.58908655555303
 51
108.640074453672
  0
ARC
  8
9
  6
CONTINUOUS
 62
9
 10
-3.80660754274885
 20
-4.6397813934869
 30
0.0
 40
0.0122142857094003
 50
108.209956864283
 51
251.790043135717
  0
ARC
  8
9
  6
CONTINUOUS
 62
9
 10
-3.80660754274885
 20
-4.6397813934869
 30
0.0
 40
0.0122142857093984
 50
251.790043135715
 51
320.406136494647
  0
ARC
  8
9
  6
CONTINUOUS
 62
9
 10
-3.70571110036695
 20
-4.58421700146143
 30
0.0
 40
0.0680118337784737
 50
213.433287883773
 51
270.015999253477
  0
ARC
  8
9
  6
CONTINUOUS
 62
9
 10
-3.69741479251253
 20
-4.58378722630132
 30
0.0
 40
0.0689403179243414
 50
263.104148598818
 51
34.0979167513627
  0
ARC
  8
9
  6
CONTINUOUS
 62
9
 10
-3.70788422659259
 20
-4.60391468380448
 30
0.0
 40
0.0895468956827273
 50
41.0237111689364
 51
127.558530040727
  0
LINE
  8
9
  6
CONTINUOUS
 62
9
 10
-3.76246946703289
 20
-4.53292807906465
 30
0.0
 11
-3.76246946703289
 21
-4.43826371121859
 31
0.0
  0
LINE
  8
9
  6
CONTINUOUS
 62
9
 10
-3.76246946703289
 20
-4.43826371121859
 30
0.0
 11
-3.63323673619172
 21
-4.43826371121859
 31
0.0
  0
ARC
  8
9
  6
CONTINUOUS
 62
9
 10
-3.55150570070743
 20
-4.5992129954213
 30
0.0
 40
0.0524187140275306
 50
199.465441458891
 51
268.514572046558
  0
ARC
  8
9
  6
CONTINUOUS
 62
9
 10
-3.40387481916956
 20
-4.54503402739955
 30
0.0
 40
0.209674392786657
 50
160.019185139364
 51
199.980814860636
  0
ARC
  8
9
  6
CONTINUOUS
 62
9
 10
-3.55126400297522
 20
-4.49091608794714
 30
0.0
 40
0.0526669390359255
 50
19.4473483225602
 51
160.559582801478
  0
ARC
  8
9
  6
CONTINUOUS
 62
9
 10
-3.69865312329471
 20
-4.54503402699709
 30
0.0
 40
0.209674392786641
 50
340.017438400847
 51
19.9825615991516
  0
ARC
  8
9
  6
CONTINUOUS
 62
9
 10
-3.55085113813679
 20
-4.59949722022526
 30
0.0
 40
0.0521630291275264
 50
271.354984375422
 51
340.759261725193
  0
ENDSEC
  0
EOF
