  0
SECTION
  2
HEADER
  9
$ACADVER
  1
AC1003
  9
$EXTMIN
 10
-4.2269168293086
 20
1.72617545908938
  9
$EXTMAX
 10
4.2269168293086
 20
-1.72617545908938
  9
$INSUNITS
 70
1
  9
$INSBASE
 10
0
 20
-2.22044604925031E-16
999
Created with OMAX LAYOUT for Windows. (www.omax.com) 2/24/2024
  0
ENDSEC
  0
SECTION
  2
TABLES
  0
TABLE
  2
LAYER
 70
    10
  0
LAYER
  2
0
 70
     0
 62
     7
  6
CONTINUOUS
  0
LAYER
  2
1
 70
     0
 62
     7
  6
CONTINUOUS
  0
LAYER
  2
2
 70
     0
 62
     7
  6
CONTINUOUS
  0
LAYER
  2
3
 70
     0
 62
     7
  6
CONTINUOUS
  0
LAYER
  2
4
 70
     0
 62
     7
  6
CONTINUOUS
  0
LAYER
  2
5
 70
     0
 62
     7
  6
CONTINUOUS
  0
LAYER
  2
6
 70
     0
 62
     7
  6
CONTINUOUS
  0
LAYER
  2
7
 70
     0
 62
     7
  6
CONTINUOUS
  0
LAYER
  2
8
 70
     0
 62
     7
  6
CONTINUOUS
  0
LAYER
  2
9
 70
     0
 62
     7
  6
CONTINUOUS
  0
LAYER
  2
10
 70
     0
 62
     7
  6
CONTINUOUS
  0
LAYER
  2
11
 70
     0
 62
     7
  6
CONTINUOUS
  0
LAYER
  2
12
 70
     0
 62
     7
  6
CONTINUOUS
  0
LAYER
  2
13
 70
     0
 62
     7
  6
CONTINUOUS
  0
LAYER
  2
14
 70
     0
 62
     7
  6
CONTINUOUS
  0
LAYER
  2
15
 70
     0
 62
     7
  6
CONTINUOUS
  0
LAYER
  2
16
 70
     0
 62
     7
  6
CONTINUOUS
  0
LAYER
  2
17
 70
     0
 62
     7
  6
CONTINUOUS
  0
LAYER
  2
18
 70
     0
 62
     7
  6
CONTINUOUS
  0
LAYER
  2
19
 70
     0
 62
     7
  6
CONTINUOUS
  0
LAYER
  2
20
 70
     0
 62
     7
  6
CONTINUOUS
  0
LAYER
  2
21
 70
     0
 62
     7
  6
CONTINUOUS
  0
LAYER
  2
22
 70
     0
 62
     7
  6
CONTINUOUS
  0
LAYER
  2
23
 70
     0
 62
     7
  6
CONTINUOUS
  0
LAYER
  2
24
 70
     0
 62
     7
  6
CONTINUOUS
  0
LAYER
  2
25
 70
     0
 62
     7
  6
CONTINUOUS
  0
LAYER
  2
26
 70
     0
 62
     7
  6
CONTINUOUS
  0
LAYER
  2
27
 70
     0
 62
     7
  6
CONTINUOUS
  0
LAYER
  2
28
 70
     0
 62
     7
  6
CONTINUOUS
  0
LAYER
  2
29
 70
     0
 62
     7
  6
CONTINUOUS
  0
LAYER
  2
30
 70
     0
 62
     7
  6
CONTINUOUS
  0
LAYER
  2
31
 70
     0
 62
     7
  6
CONTINUOUS
  0
ENDTAB
  0
ENDSEC
  0
SECTION
  2
ENTITIES
  0
LINE
  8
0
  6
CONTINUOUS
 62
0
 10
-4.2269168293086
 20
1.72617545908938
 30
0.0
 11
4.2269168293086
 21
1.72617545908938
 31
0.0
  0
LINE
  8
0
  6
CONTINUOUS
 62
0
 10
-4.2269168293086
 20
-1.72617545908938
 30
0.0
 11
4.2269168293086
 21
-1.72617545908938
 31
0.0
  0
LINE
  8
0
  6
CONTINUOUS
 62
0
 10
-4.2269168293086
 20
1.72617545908938
 30
0.0
 11
-4.2269168293086
 21
-1.72617545908938
 31
0.0
  0
LINE
  8
0
  6
CONTINUOUS
 62
0
 10
4.2269168293086
 20
1.72617545908938
 30
0.0
 11
4.2269168293086
 21
-1.72617545908938
 31
0.0
  0
LINE
  8
0
  6
CONTINUOUS
 62
0
 10
-3.95751733634827
 20
0.882924172693684
 30
0.0
 11
-3.95751733634827
 21
-0.882924172693684
 31
0.0
  0
LINE
  8
0
  6
CONTINUOUS
 62
0
 10
-2.94846113898406
 20
0.882924172693684
 30
0.0
 11
-2.94846113898406
 21
-0.882924172693684
 31
0.0
  0
LINE
  8
0
  6
CONTINUOUS
 62
0
 10
-3.95751733634827
 20
0.882924172693684
 30
0.0
 11
-2.94846113898406
 21
0.882924172693684
 31
0.0
  0
LINE
  8
0
  6
CONTINUOUS
 62
0
 10
-3.95751733634827
 20
-0.882924172693684
 30
0.0
 11
-2.94846113898406
 21
-0.882924172693684
 31
0.0
  0
ARC
  8
0
  6
CONTINUOUS
 62
0
 10
-3.78325458067502
 20
-0.708661417020437
 30
0.0
 40
0.0673166614412717
 50
180
 51
269.999999999999
  0
ARC
  8
0
  6
CONTINUOUS
 62
0
 10
-3.78325458067502
 20
0.708661417020436
 30
0.0
 40
0.0673166614412715
 50
180
 51
1.52666624710249E-13
  0
ARC
  8
0
  6
CONTINUOUS
 62
0
 10
-3.78325458067502
 20
0.708661417020435
 30
0.0
 40
0.0673166614412715
 50
359.999999999999
 51
180
  0
ARC
  8
0
  6
CONTINUOUS
 62
0
 10
-3.78325458067502
 20
0.236220472620436
 30
0.0
 40
0.0673166614412721
 50
179.999999999999
 51
269.999999999999
  0
ARC
  8
0
  6
CONTINUOUS
 62
0
 10
-3.78325458067502
 20
-0.236220471779565
 30
0.0
 40
0.0673166614412721
 50
179.999999999999
 51
269.999999999999
  0
ARC
  8
0
  6
CONTINUOUS
 62
0
 10
-3.68876639227503
 20
-0.708661417020435
 30
0.0
 40
0.0673166614412719
 50
359.999999999999
 51
89.9999999999994
  0
ARC
  8
0
  6
CONTINUOUS
 62
0
 10
-3.68876639227503
 20
0.236220472620436
 30
0.0
 40
0.0673166614412715
 50
5.59777623937579E-13
 51
89.9999999999998
  0
ARC
  8
0
  6
CONTINUOUS
 62
0
 10
-3.68876639227503
 20
-0.236220471779564
 30
0.0
 40
0.0673166614412719
 50
1.78111062161957E-13
 51
89.9999999999994
  0
ARC
  8
0
  6
CONTINUOUS
 62
0
 10
-3.78325458067503
 20
0.236220472620436
 30
0.0
 40
0.0673166614412706
 50
89.999999999999
 51
180
  0
LINE
  8
0
  6
CONTINUOUS
 62
0
 10
-3.78325458067502
 20
0.303537134061707
 30
0.0
 11
-3.68876639227503
 21
0.303537134061707
 31
0.0
  0
ARC
  8
0
  6
CONTINUOUS
 62
0
 10
-3.68876639227502
 20
0.236220472620436
 30
0.0
 40
0.0673166614412714
 50
269.999999999999
 51
5.66138733300506E-13
  0
LINE
  8
0
  6
CONTINUOUS
 62
0
 10
-3.78325458067502
 20
0.168903811179164
 30
0.0
 11
-3.68876639227503
 21
0.168903811179164
 31
0.0
  0
ARC
  8
0
  6
CONTINUOUS
 62
0
 10
-3.78325458067503
 20
-0.236220471779564
 30
0.0
 40
0.067316661441271
 50
89.9999999999994
 51
180
  0
LINE
  8
0
  6
CONTINUOUS
 62
0
 10
-3.78325458067502
 20
-0.168903810338293
 30
0.0
 11
-3.68876639227503
 21
-0.168903810338293
 31
0.0
  0
ARC
  8
0
  6
CONTINUOUS
 62
0
 10
-3.68876639227502
 20
-0.236220471779565
 30
0.0
 40
0.0673166614412714
 50
269.999999999999
 51
5.66138733300506E-13
  0
LINE
  8
0
  6
CONTINUOUS
 62
0
 10
-3.78325458067502
 20
-0.303537133220837
 30
0.0
 11
-3.68876639227503
 21
-0.303537133220837
 31
0.0
  0
ARC
  8
0
  6
CONTINUOUS
 62
0
 10
-3.78325458067502
 20
-0.708661417020435
 30
0.0
 40
0.0673166614412716
 50
89.9999999999999
 51
180
  0
LINE
  8
0
  6
CONTINUOUS
 62
0
 10
-3.78325458067502
 20
-0.641344755579164
 30
0.0
 11
-3.68876639227503
 21
-0.641344755579164
 31
0.0
  0
ARC
  8
0
  6
CONTINUOUS
 62
0
 10
-3.68876639227502
 20
-0.708661417020437
 30
0.0
 40
0.067316661441271
 50
269.999999999999
 51
1.90833280887811E-13
  0
LINE
  8
0
  6
CONTINUOUS
 62
0
 10
-3.78325458067502
 20
-0.775978078461708
 30
0.0
 11
-3.68876639227503
 21
-0.775978078461708
 31
0.0
  0
ARC
  8
0
  6
CONTINUOUS
 62
0
 10
-3.12272389466454
 20
0.708661417023807
 30
0.0
 40
0.0673166614412715
 50
5.84942172577318E-10
 51
90.0000000005845
  0
ARC
  8
0
  6
CONTINUOUS
 62
0
 10
-3.12272389465008
 20
-0.708661417017066
 30
0.0
 40
0.0673166614412715
 50
5.84560506015543E-10
 51
180.000000000585
  0
ARC
  8
0
  6
CONTINUOUS
 62
0
 10
-3.12272389465008
 20
-0.708661417017066
 30
0.0
 40
0.0673166614412715
 50
180.000000000585
 51
5.84865839264963E-10
  0
ARC
  8
0
  6
CONTINUOUS
 62
0
 10
-3.1227238946549
 20
-0.236220472617065
 30
0.0
 40
0.0673166614412724
 50
5.84153395016315E-10
 51
90.0000000005837
  0
ARC
  8
0
  6
CONTINUOUS
 62
0
 10
-3.12272389465972
 20
0.236220471782935
 30
0.0
 40
0.0673166614412726
 50
5.84356950515929E-10
 51
90.0000000005839
  0
ARC
  8
0
  6
CONTINUOUS
 62
0
 10
-3.21721208306454
 20
0.708661417022842
 30
0.0
 40
0.0673166614412719
 50
180.000000000584
 51
270.000000000584
  0
ARC
  8
0
  6
CONTINUOUS
 62
0
 10
-3.2172120830549
 20
-0.23622047261803
 30
0.0
 40
0.0673166614412719
 50
180.000000000585
 51
270.000000000584
  0
ARC
  8
0
  6
CONTINUOUS
 62
0
 10
-3.21721208305972
 20
0.236220471781971
 30
0.0
 40
0.0673166614412717
 50
180.000000000585
 51
270.000000000584
  0
ARC
  8
0
  6
CONTINUOUS
 62
0
 10
-3.1227238946549
 20
-0.236220472617066
 30
0.0
 40
0.0673166614412706
 50
270.000000000584
 51
5.84916728139867E-10
  0
LINE
  8
0
  6
CONTINUOUS
 62
0
 10
-3.12272389465421
 20
-0.303537134058336
 30
0.0
 11
-3.21721208305421
 21
-0.303537134059301
 31
0.0
  0
ARC
  8
0
  6
CONTINUOUS
 62
0
 10
-3.2172120830549
 20
-0.236220472618029
 30
0.0
 40
0.0673166614412719
 50
90.0000000005845
 51
180.000000000585
  0
LINE
  8
0
  6
CONTINUOUS
 62
0
 10
-3.12272389465559
 20
-0.168903811175793
 30
0.0
 11
-3.21721208305559
 21
-0.168903811176757
 31
0.0
  0
ARC
  8
0
  6
CONTINUOUS
 62
0
 10
-3.12272389465972
 20
0.236220471782935
 30
0.0
 40
0.0673166614412706
 50
270.000000000583
 51
5.84159756125678E-10
  0
LINE
  8
0
  6
CONTINUOUS
 62
0
 10
-3.12272389465903
 20
0.168903810341664
 30
0.0
 11
-3.21721208305903
 21
0.1689038103407
 31
0.0
  0
ARC
  8
0
  6
CONTINUOUS
 62
0
 10
-3.21721208305972
 20
0.236220471781971
 30
0.0
 40
0.0673166614412712
 50
90.0000000005843
 51
180.000000000585
  0
LINE
  8
0
  6
CONTINUOUS
 62
0
 10
-3.12272389466041
 20
0.303537133224207
 30
0.0
 11
-3.21721208306041
 21
0.303537133223243
 31
0.0
  0
ARC
  8
0
  6
CONTINUOUS
 62
0
 10
-3.12272389466454
 20
0.708661417023807
 30
0.0
 40
0.0673166614412712
 50
270.000000000584
 51
5.85139366967569E-10
  0
LINE
  8
0
  6
CONTINUOUS
 62
0
 10
-3.12272389466386
 20
0.641344755582535
 30
0.0
 11
-3.21721208306386
 21
0.641344755581571
 31
0.0
  0
ARC
  8
0
  6
CONTINUOUS
 62
0
 10
-3.21721208306454
 20
0.708661417022843
 30
0.0
 40
0.067316661441271
 50
90.0000000005838
 51
180.000000000585
  0
LINE
  8
0
  6
CONTINUOUS
 62
0
 10
-3.12272389466523
 20
0.775978078465078
 30
0.0
 11
-3.21721208306523
 21
0.775978078464114
 31
0.0
  0
ARC
  8
0
  6
CONTINUOUS
 62
0
 10
-3.45298923766617
 20
2.22044604925031E-16
 30
0.0
 40
0.161976254125961
 50
278.455455006889
 51
98.4554550068898
  0
ARC
  8
0
  6
CONTINUOUS
 62
0
 10
-3.45298923766617
 20
-2.22044604925031E-16
 30
0.0
 40
0.161976254125961
 50
98.4554550068894
 51
278.455455006889
  0
LINE
  8
0
  6
CONTINUOUS
 62
0
 10
3.95751733634827
 20
0.882924172693684
 30
0.0
 11
3.95751733634827
 21
-0.882924172693684
 31
0.0
  0
LINE
  8
0
  6
CONTINUOUS
 62
0
 10
2.94846113898406
 20
0.882924172693684
 30
0.0
 11
2.94846113898406
 21
-0.882924172693684
 31
0.0
  0
LINE
  8
0
  6
CONTINUOUS
 62
0
 10
3.95751733634827
 20
0.882924172693684
 30
0.0
 11
2.94846113898406
 21
0.882924172693684
 31
0.0
  0
LINE
  8
0
  6
CONTINUOUS
 62
0
 10
3.95751733634827
 20
-0.882924172693684
 30
0.0
 11
2.94846113898406
 21
-0.882924172693684
 31
0.0
  0
ARC
  8
0
  6
CONTINUOUS
 62
0
 10
3.78325458067502
 20
-0.708661417020436
 30
0.0
 40
0.0673166614412717
 50
270
 51
360
  0
ARC
  8
0
  6
CONTINUOUS
 62
0
 10
3.78325458067502
 20
0.708661417020435
 30
0.0
 40
0.0673166614412715
 50
179.999999999999
 51
359.999999999999
  0
ARC
  8
0
  6
CONTINUOUS
 62
0
 10
3.78325458067502
 20
0.708661417020437
 30
0.0
 40
0.0673166614412715
 50
359.999999999999
 51
180
  0
ARC
  8
0
  6
CONTINUOUS
 62
0
 10
3.78325458067502
 20
0.236220472620436
 30
0.0
 40
0.0673166614412721
 50
270
 51
3.56222124323914E-13
  0
ARC
  8
0
  6
CONTINUOUS
 62
0
 10
3.78325458067502
 20
-0.236220471779564
 30
0.0
 40
0.0673166614412721
 50
270
 51
3.56222124323914E-13
  0
ARC
  8
0
  6
CONTINUOUS
 62
0
 10
3.68876639227503
 20
-0.708661417020436
 30
0.0
 40
0.0673166614412719
 50
90.0000000000002
 51
180
  0
ARC
  8
0
  6
CONTINUOUS
 62
0
 10
3.68876639227503
 20
0.236220472620435
 30
0.0
 40
0.0673166614412715
 50
89.9999999999998
 51
179.999999999999
  0
ARC
  8
0
  6
CONTINUOUS
 62
0
 10
3.68876639227503
 20
-0.236220471779565
 30
0.0
 40
0.0673166614412719
 50
90.0000000000002
 51
179.999999999999
  0
ARC
  8
0
  6
CONTINUOUS
 62
0
 10
3.78325458067503
 20
0.236220472620436
 30
0.0
 40
0.0673166614412706
 50
359.999999999999
 51
90.0000000000006
  0
LINE
  8
0
  6
CONTINUOUS
 62
0
 10
3.78325458067502
 20
0.303537134061707
 30
0.0
 11
3.68876639227503
 21
0.303537134061707
 31
0.0
  0
ARC
  8
0
  6
CONTINUOUS
 62
0
 10
3.68876639227503
 20
0.236220472620436
 30
0.0
 40
0.0673166614412714
 50
179.999999999999
 51
270
  0
LINE
  8
0
  6
CONTINUOUS
 62
0
 10
3.78325458067502
 20
0.168903811179164
 30
0.0
 11
3.68876639227503
 21
0.168903811179164
 31
0.0
  0
ARC
  8
0
  6
CONTINUOUS
 62
0
 10
3.78325458067502
 20
-0.236220471779564
 30
0.0
 40
0.067316661441271
 50
359.999999999999
 51
90.0000000000002
  0
LINE
  8
0
  6
CONTINUOUS
 62
0
 10
3.78325458067502
 20
-0.168903810338293
 30
0.0
 11
3.68876639227503
 21
-0.168903810338293
 31
0.0
  0
ARC
  8
0
  6
CONTINUOUS
 62
0
 10
3.68876639227503
 20
-0.236220471779565
 30
0.0
 40
0.0673166614412714
 50
179.999999999999
 51
270
  0
LINE
  8
0
  6
CONTINUOUS
 62
0
 10
3.78325458067502
 20
-0.303537133220837
 30
0.0
 11
3.68876639227503
 21
-0.303537133220837
 31
0.0
  0
ARC
  8
0
  6
CONTINUOUS
 62
0
 10
3.78325458067502
 20
-0.708661417020435
 30
0.0
 40
0.0673166614412716
 50
359.999999999999
 51
89.9999999999996
  0
LINE
  8
0
  6
CONTINUOUS
 62
0
 10
3.78325458067502
 20
-0.641344755579164
 30
0.0
 11
3.68876639227503
 21
-0.641344755579164
 31
0.0
  0
ARC
  8
0
  6
CONTINUOUS
 62
0
 10
3.68876639227503
 20
-0.708661417020437
 30
0.0
 40
0.067316661441271
 50
179.999999999999
 51
270
  0
LINE
  8
0
  6
CONTINUOUS
 62
0
 10
3.78325458067502
 20
-0.775978078461708
 30
0.0
 11
3.68876639227503
 21
-0.775978078461708
 31
0.0
  0
ARC
  8
0
  6
CONTINUOUS
 62
0
 10
3.12272389466454
 20
0.708661417023807
 30
0.0
 40
0.0673166614412708
 50
89.9999999994157
 51
179.999999999415
  0
ARC
  8
0
  6
CONTINUOUS
 62
0
 10
3.12272389465008
 20
-0.708661417017065
 30
0.0
 40
0.0673166614412715
 50
359.999999999415
 51
179.999999999415
  0
ARC
  8
0
  6
CONTINUOUS
 62
0
 10
3.12272389465008
 20
-0.708661417017067
 30
0.0
 40
0.0673166614412715
 50
179.999999999415
 51
359.999999999415
  0
ARC
  8
0
  6
CONTINUOUS
 62
0
 10
3.1227238946549
 20
-0.236220472617066
 30
0.0
 40
0.0673166614412726
 50
89.9999999994157
 51
179.999999999415
  0
ARC
  8
0
  6
CONTINUOUS
 62
0
 10
3.12272389465972
 20
0.236220471782934
 30
0.0
 40
0.0673166614412726
 50
89.9999999994157
 51
179.999999999415
  0
ARC
  8
0
  6
CONTINUOUS
 62
0
 10
3.21721208306454
 20
0.708661417022843
 30
0.0
 40
0.0673166614412719
 50
269.999999999415
 51
359.999999999415
  0
ARC
  8
0
  6
CONTINUOUS
 62
0
 10
3.2172120830549
 20
-0.236220472618029
 30
0.0
 40
0.0673166614412719
 50
269.999999999415
 51
359.999999999414
  0
ARC
  8
0
  6
CONTINUOUS
 62
0
 10
3.21721208305972
 20
0.236220471781972
 30
0.0
 40
0.0673166614412719
 50
269.999999999415
 51
359.999999999414
  0
ARC
  8
0
  6
CONTINUOUS
 62
0
 10
3.1227238946549
 20
-0.236220472617066
 30
0.0
 40
0.0673166614412706
 50
179.999999999415
 51
269.999999999415
  0
LINE
  8
0
  6
CONTINUOUS
 62
0
 10
3.12272389465421
 20
-0.303537134058336
 30
0.0
 11
3.21721208305421
 21
-0.303537134059301
 31
0.0
  0
ARC
  8
0
  6
CONTINUOUS
 62
0
 10
3.2172120830549
 20
-0.236220472618029
 30
0.0
 40
0.0673166614412714
 50
359.999999999414
 51
89.9999999994147
  0
LINE
  8
0
  6
CONTINUOUS
 62
0
 10
3.12272389465559
 20
-0.168903811175793
 30
0.0
 11
3.21721208305559
 21
-0.168903811176757
 31
0.0
  0
ARC
  8
0
  6
CONTINUOUS
 62
0
 10
3.12272389465972
 20
0.236220471782934
 30
0.0
 40
0.0673166614412701
 50
179.999999999415
 51
269.999999999416
  0
LINE
  8
0
  6
CONTINUOUS
 62
0
 10
3.12272389465903
 20
0.168903810341664
 30
0.0
 11
3.21721208305903
 21
0.1689038103407
 31
0.0
  0
ARC
  8
0
  6
CONTINUOUS
 62
0
 10
3.21721208305972
 20
0.236220471781972
 30
0.0
 40
0.067316661441271
 50
359.999999999414
 51
89.9999999994151
  0
LINE
  8
0
  6
CONTINUOUS
 62
0
 10
3.12272389466041
 20
0.303537133224207
 30
0.0
 11
3.21721208306041
 21
0.303537133223243
 31
0.0
  0
ARC
  8
0
  6
CONTINUOUS
 62
0
 10
3.12272389466454
 20
0.708661417023807
 30
0.0
 40
0.0673166614412712
 50
179.999999999414
 51
269.999999999415
  0
LINE
  8
0
  6
CONTINUOUS
 62
0
 10
3.12272389466386
 20
0.641344755582535
 30
0.0
 11
3.21721208306386
 21
0.641344755581571
 31
0.0
  0
ARC
  8
0
  6
CONTINUOUS
 62
0
 10
3.21721208306454
 20
0.708661417022842
 30
0.0
 40
0.0673166614412714
 50
359.999999999415
 51
89.9999999994162
  0
LINE
  8
0
  6
CONTINUOUS
 62
0
 10
3.12272389466523
 20
0.775978078465078
 30
0.0
 11
3.21721208306523
 21
0.775978078464114
 31
0.0
  0
ARC
  8
0
  6
CONTINUOUS
 62
0
 10
3.45298923766617
 20
-1.11022302462516E-16
 30
0.0
 40
0.161976254125961
 50
81.5445449931095
 51
261.54454499311
  0
ARC
  8
0
  6
CONTINUOUS
 62
0
 10
3.45298923766617
 20
1.11022302462516E-16
 30
0.0
 40
0.161976254125961
 50
261.54454499311
 51
81.5445449931099
  0
ENDSEC
  0
EOF
