  0
SECTION
  2
HEADER
  9
$ACADVER
  1
AC1003
  9
$EXTMIN
 10
-4.2269168293086
 20
1.72617545908938
  9
$EXTMAX
 10
4.2269168293086
 20
-1.72617545908938
  9
$INSUNITS
 70
1
  9
$INSBASE
 10
0
 20
0
999
Created with OMAX LAYOUT for Windows. (www.omax.com) 2/24/2024
  0
ENDSEC
  0
SECTION
  2
TABLES
  0
TABLE
  2
LAYER
 70
    10
  0
LAYER
  2
0
 70
     0
 62
     7
  6
CONTINUOUS
  0
LAYER
  2
1
 70
     0
 62
     7
  6
CONTINUOUS
  0
LAYER
  2
2
 70
     0
 62
     7
  6
CONTINUOUS
  0
LAYER
  2
3
 70
     0
 62
     7
  6
CONTINUOUS
  0
LAYER
  2
4
 70
     0
 62
     7
  6
CONTINUOUS
  0
LAYER
  2
5
 70
     0
 62
     7
  6
CONTINUOUS
  0
LAYER
  2
6
 70
     0
 62
     7
  6
CONTINUOUS
  0
LAYER
  2
7
 70
     0
 62
     7
  6
CONTINUOUS
  0
LAYER
  2
8
 70
     0
 62
     7
  6
CONTINUOUS
  0
LAYER
  2
9
 70
     0
 62
     7
  6
CONTINUOUS
  0
LAYER
  2
10
 70
     0
 62
     7
  6
CONTINUOUS
  0
LAYER
  2
11
 70
     0
 62
     7
  6
CONTINUOUS
  0
LAYER
  2
12
 70
     0
 62
     7
  6
CONTINUOUS
  0
LAYER
  2
13
 70
     0
 62
     7
  6
CONTINUOUS
  0
LAYER
  2
14
 70
     0
 62
     7
  6
CONTINUOUS
  0
LAYER
  2
15
 70
     0
 62
     7
  6
CONTINUOUS
  0
LAYER
  2
16
 70
     0
 62
     7
  6
CONTINUOUS
  0
LAYER
  2
17
 70
     0
 62
     7
  6
CONTINUOUS
  0
LAYER
  2
18
 70
     0
 62
     7
  6
CONTINUOUS
  0
LAYER
  2
19
 70
     0
 62
     7
  6
CONTINUOUS
  0
LAYER
  2
20
 70
     0
 62
     7
  6
CONTINUOUS
  0
LAYER
  2
21
 70
     0
 62
     7
  6
CONTINUOUS
  0
LAYER
  2
22
 70
     0
 62
     7
  6
CONTINUOUS
  0
LAYER
  2
23
 70
     0
 62
     7
  6
CONTINUOUS
  0
LAYER
  2
24
 70
     0
 62
     7
  6
CONTINUOUS
  0
LAYER
  2
25
 70
     0
 62
     7
  6
CONTINUOUS
  0
LAYER
  2
26
 70
     0
 62
     7
  6
CONTINUOUS
  0
LAYER
  2
27
 70
     0
 62
     7
  6
CONTINUOUS
  0
LAYER
  2
28
 70
     0
 62
     7
  6
CONTINUOUS
  0
LAYER
  2
29
 70
     0
 62
     7
  6
CONTINUOUS
  0
LAYER
  2
30
 70
     0
 62
     7
  6
CONTINUOUS
  0
LAYER
  2
31
 70
     0
 62
     7
  6
CONTINUOUS
  0
ENDTAB
  0
ENDSEC
  0
SECTION
  2
ENTITIES
  0
LINE
  8
1
  6
CONTINUOUS
 62
1
 10
4.2269168293086
 20
1.72617545908938
 30
0.0
 11
-4.2269168293086
 21
1.72617545908938
 31
0.0
  0
LINE
  8
1
  6
CONTINUOUS
 62
1
 10
4.2269168293086
 20
-1.72617545908938
 30
0.0
 11
-4.2269168293086
 21
-1.72617545908938
 31
0.0
  0
LINE
  8
1
  6
CONTINUOUS
 62
1
 10
-4.2269168293086
 20
-1.72617545908938
 30
0.0
 11
-4.2269168293086
 21
1.72617545908938
 31
0.0
  0
LINE
  8
1
  6
CONTINUOUS
 62
1
 10
4.2269168293086
 20
-1.72617545908938
 30
0.0
 11
4.2269168293086
 21
1.72617545908938
 31
0.0
  0
LINE
  8
3
  6
CONTINUOUS
 62
3
 10
-3.95751733634827
 20
-0.882924172693684
 30
0.0
 11
-3.95751733634827
 21
0.882924172693684
 31
0.0
  0
LINE
  8
3
  6
CONTINUOUS
 62
3
 10
-2.94846113898406
 20
-0.882924172693684
 30
0.0
 11
-2.94846113898406
 21
0.882924172693684
 31
0.0
  0
LINE
  8
3
  6
CONTINUOUS
 62
3
 10
-2.94846113898406
 20
0.882924172693684
 30
0.0
 11
-3.95751733634827
 21
0.882924172693684
 31
0.0
  0
LINE
  8
3
  6
CONTINUOUS
 62
3
 10
-2.94846113898406
 20
-0.882924172693684
 30
0.0
 11
-3.95751733634827
 21
-0.882924172693684
 31
0.0
  0
ARC
  8
3
  6
CONTINUOUS
 62
3
 10
-3.78325458067502
 20
-0.708661417020438
 30
0.0
 40
0.0673166614412717
 50
179.999999999999
 51
269.999999999998
  0
ARC
  8
3
  6
CONTINUOUS
 62
3
 10
-3.78325458067502
 20
0.708661417020435
 30
0.0
 40
0.0673166614412715
 50
179.999999999999
 51
360
  0
ARC
  8
3
  6
CONTINUOUS
 62
3
 10
-3.78325458067502
 20
0.708661417020436
 30
0.0
 40
0.0673166614412715
 50
359.999999999998
 51
180
  0
ARC
  8
3
  6
CONTINUOUS
 62
3
 10
-3.78325458067502
 20
0.236220472620435
 30
0.0
 40
0.0673166614412719
 50
179.999999999998
 51
269.999999999998
  0
ARC
  8
3
  6
CONTINUOUS
 62
3
 10
-3.78325458067502
 20
-0.236220471779566
 30
0.0
 40
0.0673166614412719
 50
179.999999999998
 51
269.999999999998
  0
ARC
  8
3
  6
CONTINUOUS
 62
3
 10
-3.68876639227503
 20
-0.708661417020434
 30
0.0
 40
0.0673166614412718
 50
359.999999999998
 51
89.9999999999991
  0
ARC
  8
3
  6
CONTINUOUS
 62
3
 10
-3.68876639227503
 20
0.236220472620436
 30
0.0
 40
0.0673166614412714
 50
2.48083265154154E-13
 51
89.9999999999995
  0
ARC
  8
3
  6
CONTINUOUS
 62
3
 10
-3.68876639227503
 20
-0.236220471779563
 30
0.0
 40
0.0673166614412718
 50
360
 51
89.9999999999991
  0
ARC
  8
3
  6
CONTINUOUS
 62
3
 10
-3.78325458067503
 20
0.236220472620436
 30
0.0
 40
0.0673166614412706
 50
89.9999999999987
 51
180
  0
LINE
  8
3
  6
CONTINUOUS
 62
3
 10
-3.68876639227503
 20
0.303537134061707
 30
0.0
 11
-3.78325458067502
 21
0.303537134061707
 31
0.0
  0
ARC
  8
3
  6
CONTINUOUS
 62
3
 10
-3.68876639227502
 20
0.236220472620436
 30
0.0
 40
0.0673166614412715
 50
269.999999999998
 51
2.86249921331716E-13
  0
LINE
  8
3
  6
CONTINUOUS
 62
3
 10
-3.68876639227503
 20
0.168903811179164
 30
0.0
 11
-3.78325458067502
 21
0.168903811179164
 31
0.0
  0
ARC
  8
3
  6
CONTINUOUS
 62
3
 10
-3.78325458067503
 20
-0.236220471779564
 30
0.0
 40
0.0673166614412711
 50
89.9999999999991
 51
180
  0
LINE
  8
3
  6
CONTINUOUS
 62
3
 10
-3.68876639227503
 20
-0.168903810338293
 30
0.0
 11
-3.78325458067502
 21
-0.168903810338293
 31
0.0
  0
ARC
  8
3
  6
CONTINUOUS
 62
3
 10
-3.68876639227502
 20
-0.236220471779565
 30
0.0
 40
0.0673166614412715
 50
269.999999999998
 51
2.86249921331716E-13
  0
LINE
  8
3
  6
CONTINUOUS
 62
3
 10
-3.68876639227503
 20
-0.303537133220837
 30
0.0
 11
-3.78325458067502
 21
-0.303537133220837
 31
0.0
  0
ARC
  8
3
  6
CONTINUOUS
 62
3
 10
-3.78325458067502
 20
-0.708661417020435
 30
0.0
 40
0.0673166614412715
 50
89.9999999999998
 51
180
  0
LINE
  8
3
  6
CONTINUOUS
 62
3
 10
-3.68876639227503
 20
-0.641344755579164
 30
0.0
 11
-3.78325458067502
 21
-0.641344755579164
 31
0.0
  0
ARC
  8
3
  6
CONTINUOUS
 62
3
 10
-3.68876639227502
 20
-0.708661417020437
 30
0.0
 40
0.0673166614412711
 50
269.999999999998
 51
360
  0
LINE
  8
3
  6
CONTINUOUS
 62
3
 10
-3.68876639227503
 20
-0.775978078461708
 30
0.0
 11
-3.78325458067502
 21
-0.775978078461708
 31
0.0
  0
ARC
  8
3
  6
CONTINUOUS
 62
3
 10
-3.12272389466454
 20
0.708661417023807
 30
0.0
 40
0.0673166614412714
 50
5.84649561546624E-10
 51
90.0000000005842
  0
ARC
  8
3
  6
CONTINUOUS
 62
3
 10
-3.12272389465008
 20
-0.708661417017066
 30
0.0
 40
0.0673166614412715
 50
5.84356950515929E-10
 51
180.000000000585
  0
ARC
  8
3
  6
CONTINUOUS
 62
3
 10
-3.12272389465008
 20
-0.708661417017067
 30
0.0
 40
0.0673166614412715
 50
180.000000000584
 51
5.84649561546624E-10
  0
ARC
  8
3
  6
CONTINUOUS
 62
3
 10
-3.1227238946549
 20
-0.236220472617065
 30
0.0
 40
0.0673166614412723
 50
5.83873506204346E-10
 51
90.0000000005834
  0
ARC
  8
3
  6
CONTINUOUS
 62
3
 10
-3.12272389465972
 20
0.236220471782935
 30
0.0
 40
0.0673166614412728
 50
5.84286978312937E-10
 51
90.0000000005838
  0
ARC
  8
3
  6
CONTINUOUS
 62
3
 10
-3.21721208306454
 20
0.708661417022841
 30
0.0
 40
0.0673166614412719
 50
180.000000000583
 51
270.000000000583
  0
ARC
  8
3
  6
CONTINUOUS
 62
3
 10
-3.2172120830549
 20
-0.236220472618031
 30
0.0
 40
0.0673166614412719
 50
180.000000000584
 51
270.000000000583
  0
ARC
  8
3
  6
CONTINUOUS
 62
3
 10
-3.21721208305972
 20
0.23622047178197
 30
0.0
 40
0.0673166614412718
 50
180.000000000585
 51
270.000000000583
  0
ARC
  8
3
  6
CONTINUOUS
 62
3
 10
-3.1227238946549
 20
-0.236220472617066
 30
0.0
 40
0.0673166614412706
 50
270.000000000583
 51
5.84725894858979E-10
  0
LINE
  8
3
  6
CONTINUOUS
 62
3
 10
-3.21721208305421
 20
-0.303537134059301
 30
0.0
 11
-3.12272389465421
 21
-0.303537134058336
 31
0.0
  0
ARC
  8
3
  6
CONTINUOUS
 62
3
 10
-3.2172120830549
 20
-0.236220472618029
 30
0.0
 40
0.067316661441272
 50
90.0000000005842
 51
180.000000000585
  0
LINE
  8
3
  6
CONTINUOUS
 62
3
 10
-3.21721208305559
 20
-0.168903811176757
 30
0.0
 11
-3.12272389465559
 21
-0.168903811175793
 31
0.0
  0
ARC
  8
3
  6
CONTINUOUS
 62
3
 10
-3.12272389465972
 20
0.236220471782935
 30
0.0
 40
0.0673166614412707
 50
270.000000000582
 51
5.83905311751161E-10
  0
LINE
  8
3
  6
CONTINUOUS
 62
3
 10
-3.21721208305903
 20
0.1689038103407
 30
0.0
 11
-3.12272389465903
 21
0.168903810341664
 31
0.0
  0
ARC
  8
3
  6
CONTINUOUS
 62
3
 10
-3.21721208305972
 20
0.236220471781971
 30
0.0
 40
0.0673166614412711
 50
90.0000000005842
 51
180.000000000585
  0
LINE
  8
3
  6
CONTINUOUS
 62
3
 10
-3.21721208306041
 20
0.303537133223243
 30
0.0
 11
-3.12272389466041
 21
0.303537133224207
 31
0.0
  0
ARC
  8
3
  6
CONTINUOUS
 62
3
 10
-3.12272389466454
 20
0.708661417023807
 30
0.0
 40
0.0673166614412711
 50
270.000000000583
 51
5.85012144780311E-10
  0
LINE
  8
3
  6
CONTINUOUS
 62
3
 10
-3.21721208306386
 20
0.641344755581571
 30
0.0
 11
-3.12272389466386
 21
0.641344755582535
 31
0.0
  0
ARC
  8
3
  6
CONTINUOUS
 62
3
 10
-3.21721208306454
 20
0.708661417022843
 30
0.0
 40
0.0673166614412709
 50
90.0000000005837
 51
180.000000000585
  0
LINE
  8
3
  6
CONTINUOUS
 62
3
 10
-3.21721208306523
 20
0.775978078464114
 30
0.0
 11
-3.12272389466523
 21
0.775978078465078
 31
0.0
  0
LINE
  8
3
  6
CONTINUOUS
 62
3
 10
3.95751733634827
 20
-0.882924172693684
 30
0.0
 11
3.95751733634827
 21
0.882924172693684
 31
0.0
  0
LINE
  8
3
  6
CONTINUOUS
 62
3
 10
2.94846113898406
 20
-0.882924172693684
 30
0.0
 11
2.94846113898406
 21
0.882924172693684
 31
0.0
  0
LINE
  8
3
  6
CONTINUOUS
 62
3
 10
2.94846113898406
 20
0.882924172693684
 30
0.0
 11
3.95751733634827
 21
0.882924172693684
 31
0.0
  0
LINE
  8
3
  6
CONTINUOUS
 62
3
 10
2.94846113898406
 20
-0.882924172693684
 30
0.0
 11
3.95751733634827
 21
-0.882924172693684
 31
0.0
  0
ARC
  8
3
  6
CONTINUOUS
 62
3
 10
3.78325458067502
 20
-0.708661417020436
 30
0.0
 40
0.0673166614412718
 50
269.999999999999
 51
359.999999999999
  0
ARC
  8
3
  6
CONTINUOUS
 62
3
 10
3.78325458067502
 20
0.708661417020434
 30
0.0
 40
0.0673166614412715
 50
179.999999999998
 51
359.999999999998
  0
ARC
  8
3
  6
CONTINUOUS
 62
3
 10
3.78325458067502
 20
0.708661417020438
 30
0.0
 40
0.0673166614412715
 50
359.999999999998
 51
180
  0
ARC
  8
3
  6
CONTINUOUS
 62
3
 10
3.78325458067502
 20
0.236220472620436
 30
0.0
 40
0.067316661441272
 50
269.999999999999
 51
2.41722155791227E-13
  0
ARC
  8
3
  6
CONTINUOUS
 62
3
 10
3.78325458067502
 20
-0.236220471779564
 30
0.0
 40
0.067316661441272
 50
269.999999999999
 51
2.28999937065373E-13
  0
ARC
  8
3
  6
CONTINUOUS
 62
3
 10
3.68876639227503
 20
-0.708661417020436
 30
0.0
 40
0.0673166614412718
 50
90.0000000000001
 51
180
  0
ARC
  8
3
  6
CONTINUOUS
 62
3
 10
3.68876639227503
 20
0.236220472620435
 30
0.0
 40
0.0673166614412716
 50
89.9999999999995
 51
179.999999999999
  0
ARC
  8
3
  6
CONTINUOUS
 62
3
 10
3.68876639227503
 20
-0.236220471779565
 30
0.0
 40
0.0673166614412718
 50
90.0000000000001
 51
179.999999999999
  0
ARC
  8
3
  6
CONTINUOUS
 62
3
 10
3.78325458067503
 20
0.236220472620437
 30
0.0
 40
0.0673166614412707
 50
359.999999999998
 51
90.0000000000005
  0
LINE
  8
3
  6
CONTINUOUS
 62
3
 10
3.68876639227503
 20
0.303537134061707
 30
0.0
 11
3.78325458067502
 21
0.303537134061707
 31
0.0
  0
ARC
  8
3
  6
CONTINUOUS
 62
3
 10
3.68876639227503
 20
0.236220472620435
 30
0.0
 40
0.0673166614412714
 50
179.999999999998
 51
269.999999999999
  0
LINE
  8
3
  6
CONTINUOUS
 62
3
 10
3.68876639227503
 20
0.168903811179164
 30
0.0
 11
3.78325458067502
 21
0.168903811179164
 31
0.0
  0
ARC
  8
3
  6
CONTINUOUS
 62
3
 10
3.78325458067502
 20
-0.236220471779563
 30
0.0
 40
0.0673166614412711
 50
359.999999999998
 51
90.0000000000001
  0
LINE
  8
3
  6
CONTINUOUS
 62
3
 10
3.68876639227503
 20
-0.168903810338293
 30
0.0
 11
3.78325458067502
 21
-0.168903810338293
 31
0.0
  0
ARC
  8
3
  6
CONTINUOUS
 62
3
 10
3.68876639227503
 20
-0.236220471779566
 30
0.0
 40
0.0673166614412714
 50
179.999999999998
 51
269.999999999999
  0
LINE
  8
3
  6
CONTINUOUS
 62
3
 10
3.68876639227503
 20
-0.303537133220837
 30
0.0
 11
3.78325458067502
 21
-0.303537133220837
 31
0.0
  0
ARC
  8
3
  6
CONTINUOUS
 62
3
 10
3.78325458067502
 20
-0.708661417020434
 30
0.0
 40
0.0673166614412715
 50
359.999999999998
 51
89.9999999999993
  0
LINE
  8
3
  6
CONTINUOUS
 62
3
 10
3.68876639227503
 20
-0.641344755579164
 30
0.0
 11
3.78325458067502
 21
-0.641344755579164
 31
0.0
  0
ARC
  8
3
  6
CONTINUOUS
 62
3
 10
3.68876639227503
 20
-0.708661417020438
 30
0.0
 40
0.067316661441271
 50
179.999999999998
 51
269.999999999999
  0
LINE
  8
3
  6
CONTINUOUS
 62
3
 10
3.68876639227503
 20
-0.775978078461708
 30
0.0
 11
3.78325458067502
 21
-0.775978078461708
 31
0.0
  0
ARC
  8
3
  6
CONTINUOUS
 62
3
 10
3.12272389466454
 20
0.708661417023807
 30
0.0
 40
0.0673166614412709
 50
89.9999999994153
 51
179.999999999415
  0
ARC
  8
3
  6
CONTINUOUS
 62
3
 10
3.12272389465008
 20
-0.708661417017064
 30
0.0
 40
0.0673166614412715
 50
359.999999999414
 51
179.999999999415
  0
ARC
  8
3
  6
CONTINUOUS
 62
3
 10
3.12272389465008
 20
-0.708661417017068
 30
0.0
 40
0.0673166614412715
 50
179.999999999414
 51
359.999999999414
  0
ARC
  8
3
  6
CONTINUOUS
 62
3
 10
3.1227238946549
 20
-0.236220472617066
 30
0.0
 40
0.0673166614412727
 50
89.9999999994154
 51
179.999999999415
  0
ARC
  8
3
  6
CONTINUOUS
 62
3
 10
3.12272389465972
 20
0.236220471782934
 30
0.0
 40
0.0673166614412727
 50
89.9999999994154
 51
179.999999999415
  0
ARC
  8
3
  6
CONTINUOUS
 62
3
 10
3.21721208306454
 20
0.708661417022843
 30
0.0
 40
0.067316661441272
 50
269.999999999414
 51
359.999999999414
  0
ARC
  8
3
  6
CONTINUOUS
 62
3
 10
3.2172120830549
 20
-0.236220472618029
 30
0.0
 40
0.067316661441272
 50
269.999999999414
 51
359.999999999413
  0
ARC
  8
3
  6
CONTINUOUS
 62
3
 10
3.21721208305972
 20
0.236220471781972
 30
0.0
 40
0.067316661441272
 50
269.999999999414
 51
359.999999999413
  0
ARC
  8
3
  6
CONTINUOUS
 62
3
 10
3.1227238946549
 20
-0.236220472617067
 30
0.0
 40
0.0673166614412705
 50
179.999999999414
 51
269.999999999414
  0
LINE
  8
3
  6
CONTINUOUS
 62
3
 10
3.21721208305421
 20
-0.303537134059301
 30
0.0
 11
3.12272389465421
 21
-0.303537134058336
 31
0.0
  0
ARC
  8
3
  6
CONTINUOUS
 62
3
 10
3.2172120830549
 20
-0.236220472618028
 30
0.0
 40
0.0673166614412716
 50
359.999999999414
 51
89.9999999994146
  0
LINE
  8
3
  6
CONTINUOUS
 62
3
 10
3.21721208305559
 20
-0.168903811176757
 30
0.0
 11
3.12272389465559
 21
-0.168903811175793
 31
0.0
  0
ARC
  8
3
  6
CONTINUOUS
 62
3
 10
3.12272389465972
 20
0.236220471782933
 30
0.0
 40
0.0673166614412701
 50
179.999999999414
 51
269.999999999415
  0
LINE
  8
3
  6
CONTINUOUS
 62
3
 10
3.21721208305903
 20
0.1689038103407
 30
0.0
 11
3.12272389465903
 21
0.168903810341664
 31
0.0
  0
ARC
  8
3
  6
CONTINUOUS
 62
3
 10
3.21721208305972
 20
0.236220471781973
 30
0.0
 40
0.0673166614412711
 50
359.999999999414
 51
89.999999999415
  0
LINE
  8
3
  6
CONTINUOUS
 62
3
 10
3.21721208306041
 20
0.303537133223243
 30
0.0
 11
3.12272389466041
 21
0.303537133224207
 31
0.0
  0
ARC
  8
3
  6
CONTINUOUS
 62
3
 10
3.12272389466454
 20
0.708661417023806
 30
0.0
 40
0.067316661441271
 50
179.999999999413
 51
269.999999999414
  0
LINE
  8
3
  6
CONTINUOUS
 62
3
 10
3.21721208306386
 20
0.641344755581571
 30
0.0
 11
3.12272389466386
 21
0.641344755582535
 31
0.0
  0
ARC
  8
3
  6
CONTINUOUS
 62
3
 10
3.21721208306454
 20
0.708661417022843
 30
0.0
 40
0.0673166614412713
 50
359.999999999414
 51
89.9999999994159
  0
LINE
  8
3
  6
CONTINUOUS
 62
3
 10
3.21721208306523
 20
0.775978078464114
 30
0.0
 11
3.12272389466523
 21
0.775978078465078
 31
0.0
  0
ARC
  8
5
  6
CONTINUOUS
 62
5
 10
3.45298923766617
 20
-2.77555756156289E-17
 30
0.0
 40
0.161976254125961
 50
81.5445449931093
 51
261.54454499311
  0
ARC
  8
5
  6
CONTINUOUS
 62
5
 10
3.45298923766617
 20
-1.38777878078145E-16
 30
0.0
 40
0.161976254125961
 50
261.544544993109
 51
81.5445449931097
  0
ARC
  8
5
  6
CONTINUOUS
 62
5
 10
-3.45298923766617
 20
4.71844785465692E-16
 30
0.0
 40
0.161976254125961
 50
278.455455006888
 51
98.4554550068896
  0
ARC
  8
5
  6
CONTINUOUS
 62
5
 10
-3.45298923766617
 20
-4.71844785465692E-16
 30
0.0
 40
0.161976254125961
 50
98.4554550068888
 51
278.455455006888
  0
ENDSEC
  0
EOF
