  0
SECTION
  2
HEADER
  9
$ACADVER
  1
AC1003
  9
$EXTMIN
 10
-1.47637795082896
 20
4.45359528875479
  9
$EXTMAX
 10
1.47637795082896
 20
0
  9
$INSUNITS
 70
1
  9
$INSBASE
 10
0
 20
2.22679764437739
999
Created with OMAX LAYOUT for Windows. (www.omax.com) 2/2/2024
  0
ENDSEC
  0
SECTION
  2
TABLES
  0
TABLE
  2
LAYER
 70
    10
  0
LAYER
  2
0
 70
     0
 62
     7
  6
CONTINUOUS
  0
LAYER
  2
1
 70
     0
 62
     7
  6
CONTINUOUS
  0
LAYER
  2
2
 70
     0
 62
     7
  6
CONTINUOUS
  0
LAYER
  2
3
 70
     0
 62
     7
  6
CONTINUOUS
  0
LAYER
  2
4
 70
     0
 62
     7
  6
CONTINUOUS
  0
LAYER
  2
5
 70
     0
 62
     7
  6
CONTINUOUS
  0
LAYER
  2
6
 70
     0
 62
     7
  6
CONTINUOUS
  0
LAYER
  2
7
 70
     0
 62
     7
  6
CONTINUOUS
  0
LAYER
  2
8
 70
     0
 62
     7
  6
CONTINUOUS
  0
LAYER
  2
9
 70
     0
 62
     7
  6
CONTINUOUS
  0
LAYER
  2
10
 70
     0
 62
     7
  6
CONTINUOUS
  0
LAYER
  2
11
 70
     0
 62
     7
  6
CONTINUOUS
  0
LAYER
  2
12
 70
     0
 62
     7
  6
CONTINUOUS
  0
LAYER
  2
13
 70
     0
 62
     7
  6
CONTINUOUS
  0
LAYER
  2
14
 70
     0
 62
     7
  6
CONTINUOUS
  0
LAYER
  2
15
 70
     0
 62
     7
  6
CONTINUOUS
  0
LAYER
  2
16
 70
     0
 62
     7
  6
CONTINUOUS
  0
LAYER
  2
17
 70
     0
 62
     7
  6
CONTINUOUS
  0
LAYER
  2
18
 70
     0
 62
     7
  6
CONTINUOUS
  0
LAYER
  2
19
 70
     0
 62
     7
  6
CONTINUOUS
  0
LAYER
  2
20
 70
     0
 62
     7
  6
CONTINUOUS
  0
LAYER
  2
21
 70
     0
 62
     7
  6
CONTINUOUS
  0
LAYER
  2
22
 70
     0
 62
     7
  6
CONTINUOUS
  0
LAYER
  2
23
 70
     0
 62
     7
  6
CONTINUOUS
  0
LAYER
  2
24
 70
     0
 62
     7
  6
CONTINUOUS
  0
LAYER
  2
25
 70
     0
 62
     7
  6
CONTINUOUS
  0
LAYER
  2
26
 70
     0
 62
     7
  6
CONTINUOUS
  0
LAYER
  2
27
 70
     0
 62
     7
  6
CONTINUOUS
  0
LAYER
  2
28
 70
     0
 62
     7
  6
CONTINUOUS
  0
LAYER
  2
29
 70
     0
 62
     7
  6
CONTINUOUS
  0
LAYER
  2
30
 70
     0
 62
     7
  6
CONTINUOUS
  0
LAYER
  2
31
 70
     0
 62
     7
  6
CONTINUOUS
  0
ENDTAB
  0
ENDSEC
  0
SECTION
  2
ENTITIES
  0
LINE
  8
1
  6
CONTINUOUS
 62
1
 10
-0.531496062468504
 20
1.0629921265315
 30
0.0
 11
-0.531496062468504
 21
0
 31
0.0
  0
LINE
  8
1
  6
CONTINUOUS
 62
1
 10
0.531496062468504
 20
1.0629921265315
 30
0.0
 11
0.531496062468504
 21
0
 31
0.0
  0
ARC
  8
1
  6
CONTINUOUS
 62
1
 10
8.32667268468867E-15
 20
1.0629921265315
 30
0.0
 40
0.531496062468496
 50
359.999999999999
 51
45.0000000000003
  0
LINE
  8
1
  6
CONTINUOUS
 62
1
 10
0
 20
1.81464106642235
 30
0.0
 11
-0.375824469945427
 21
1.43881659647692
 31
0.0
  0
LINE
  8
1
  6
CONTINUOUS
 62
1
 10
0
 20
1.81464106642235
 30
0.0
 11
0.375824469945427
 21
1.43881659647692
 31
0.0
  0
ARC
  8
1
  6
CONTINUOUS
 62
1
 10
-4.16333634234434E-15
 20
1.06299212653149
 30
0.0
 40
0.531496062468501
 50
135
 51
180
  0
LINE
  8
1
  6
CONTINUOUS
 62
1
 10
0.531496062468504
 20
0
 30
0.0
 11
-0.531496062468504
 21
0
 31
0.0
  0
LINE
  8
2
  6
CONTINUOUS
 62
2
 10
-1.24015747891601
 20
3.5433070864895
 30
0.0
 11
-1.24015747891601
 21
3.188976378
 31
0.0
  0
LINE
  8
2
  6
CONTINUOUS
 62
2
 10
-0.885826770958005
 20
3.5433070864895
 30
0.0
 11
-0.885826770958005
 21
3.188976378
 31
0.0
  0
ARC
  8
2
  6
CONTINUOUS
 62
2
 10
-1.06299212493701
 20
3.5433070864895
 30
0.0
 40
0.177165353979001
 50
359.999999999999
 51
45.0000000000002
  0
LINE
  8
2
  6
CONTINUOUS
 62
2
 10
-1.06299212493701
 20
3.79385673286924
 30
0.0
 11
-1.18826694812688
 21
3.66858190967937
 31
0.0
  0
LINE
  8
2
  6
CONTINUOUS
 62
2
 10
-1.06299212493701
 20
3.79385673286924
 30
0.0
 11
-0.93771730174714
 21
3.66858190967937
 31
0.0
  0
ARC
  8
2
  6
CONTINUOUS
 62
2
 10
-1.06299212493701
 20
3.5433070864895
 30
0.0
 40
0.177165353979002
 50
135
 51
180
  0
LINE
  8
2
  6
CONTINUOUS
 62
2
 10
-0.885826770958005
 20
3.188976378
 30
0.0
 11
-1.24015747891601
 21
3.188976378
 31
0.0
  0
LINE
  8
2
  6
CONTINUOUS
 62
2
 10
1.24015747891601
 20
3.5433070864895
 30
0.0
 11
1.24015747891601
 21
3.188976378
 31
0.0
  0
LINE
  8
2
  6
CONTINUOUS
 62
2
 10
0.885826770958005
 20
3.5433070864895
 30
0.0
 11
0.885826770958005
 21
3.188976378
 31
0.0
  0
ARC
  8
2
  6
CONTINUOUS
 62
2
 10
1.06299212493701
 20
3.5433070864895
 30
0.0
 40
0.177165353979001
 50
134.999999999999
 51
180
  0
LINE
  8
2
  6
CONTINUOUS
 62
2
 10
1.06299212493701
 20
3.79385673286924
 30
0.0
 11
1.18826694812688
 21
3.66858190967937
 31
0.0
  0
LINE
  8
2
  6
CONTINUOUS
 62
2
 10
1.06299212493701
 20
3.79385673286924
 30
0.0
 11
0.93771730174714
 21
3.66858190967937
 31
0.0
  0
ARC
  8
2
  6
CONTINUOUS
 62
2
 10
1.06299212493701
 20
3.5433070864895
 30
0.0
 40
0.177165353979002
 50
359.999999999999
 51
44.9999999999999
  0
LINE
  8
2
  6
CONTINUOUS
 62
2
 10
0.885826770958005
 20
3.188976378
 30
0.0
 11
1.24015747891601
 21
3.188976378
 31
0.0
  0
LINE
  8
3
  6
CONTINUOUS
 62
3
 10
-1.47637795082896
 20
4.37007874004506
 30
0.0
 11
-1.47637795082896
 21
4.251968504
 31
0.0
  0
LINE
  8
3
  6
CONTINUOUS
 62
3
 10
-1.35826771496107
 20
4.37007874004506
 30
0.0
 11
-1.35826771496107
 21
4.251968504
 31
0.0
  0
ARC
  8
3
  6
CONTINUOUS
 62
3
 10
-1.41732283289501
 20
4.37007874004506
 30
0.0
 40
0.0590551179339454
 50
359.999999999999
 51
45
  0
LINE
  8
3
  6
CONTINUOUS
 62
3
 10
-1.41732283289501
 20
4.45359528875479
 30
0.0
 11
-1.45908110724988
 21
4.41183701439992
 31
0.0
  0
LINE
  8
3
  6
CONTINUOUS
 62
3
 10
-1.41732283289501
 20
4.45359528875479
 30
0.0
 11
-1.37556455854015
 21
4.41183701439992
 31
0.0
  0
ARC
  8
3
  6
CONTINUOUS
 62
3
 10
-1.41732283289501
 20
4.37007874004506
 30
0.0
 40
0.0590551179339463
 50
135
 51
180
  0
LINE
  8
3
  6
CONTINUOUS
 62
3
 10
-1.35826771496107
 20
4.251968504
 30
0.0
 11
-1.47637795082896
 21
4.251968504
 31
0.0
  0
LINE
  8
3
  6
CONTINUOUS
 62
3
 10
-0.649606299045057
 20
4.37007874004506
 30
0.0
 11
-0.649606299045057
 21
4.251968504
 31
0.0
  0
LINE
  8
3
  6
CONTINUOUS
 62
3
 10
-0.767716534912948
 20
4.37007874004506
 30
0.0
 11
-0.767716534912948
 21
4.251968504
 31
0.0
  0
ARC
  8
3
  6
CONTINUOUS
 62
3
 10
-0.708661416979003
 20
4.37007874004506
 30
0.0
 40
0.0590551179339454
 50
135
 51
180
  0
LINE
  8
3
  6
CONTINUOUS
 62
3
 10
-0.708661416979002
 20
4.45359528875479
 30
0.0
 11
-0.666903142624138
 21
4.41183701439992
 31
0.0
  0
LINE
  8
3
  6
CONTINUOUS
 62
3
 10
-0.708661416979002
 20
4.45359528875479
 30
0.0
 11
-0.750419691333867
 21
4.41183701439992
 31
0.0
  0
ARC
  8
3
  6
CONTINUOUS
 62
3
 10
-0.708661416979003
 20
4.37007874004506
 30
0.0
 40
0.0590551179339462
 50
359.999999999999
 51
44.9999999999997
  0
LINE
  8
3
  6
CONTINUOUS
 62
3
 10
-0.767716534912948
 20
4.251968504
 30
0.0
 11
-0.649606299045057
 21
4.251968504
 31
0.0
  0
LINE
  8
3
  6
CONTINUOUS
 62
3
 10
1.47637795082896
 20
4.37007874004506
 30
0.0
 11
1.47637795082896
 21
4.251968504
 31
0.0
  0
LINE
  8
3
  6
CONTINUOUS
 62
3
 10
1.35826771496107
 20
4.37007874004506
 30
0.0
 11
1.35826771496107
 21
4.251968504
 31
0.0
  0
ARC
  8
3
  6
CONTINUOUS
 62
3
 10
1.41732283289501
 20
4.37007874004506
 30
0.0
 40
0.0590551179339454
 50
135
 51
180
  0
LINE
  8
3
  6
CONTINUOUS
 62
3
 10
1.41732283289501
 20
4.45359528875479
 30
0.0
 11
1.45908110724988
 21
4.41183701439992
 31
0.0
  0
LINE
  8
3
  6
CONTINUOUS
 62
3
 10
1.41732283289501
 20
4.45359528875479
 30
0.0
 11
1.37556455854015
 21
4.41183701439992
 31
0.0
  0
ARC
  8
3
  6
CONTINUOUS
 62
3
 10
1.41732283289501
 20
4.37007874004506
 30
0.0
 40
0.0590551179339463
 50
359.999999999999
 51
44.9999999999999
  0
LINE
  8
3
  6
CONTINUOUS
 62
3
 10
1.35826771496107
 20
4.251968504
 30
0.0
 11
1.47637795082896
 21
4.251968504
 31
0.0
  0
LINE
  8
3
  6
CONTINUOUS
 62
3
 10
0.649606299045057
 20
4.37007874004506
 30
0.0
 11
0.649606299045057
 21
4.251968504
 31
0.0
  0
LINE
  8
3
  6
CONTINUOUS
 62
3
 10
0.767716534912948
 20
4.37007874004506
 30
0.0
 11
0.767716534912948
 21
4.251968504
 31
0.0
  0
ARC
  8
3
  6
CONTINUOUS
 62
3
 10
0.708661416979003
 20
4.37007874004506
 30
0.0
 40
0.0590551179339454
 50
359.999999999999
 51
45
  0
LINE
  8
3
  6
CONTINUOUS
 62
3
 10
0.708661416979002
 20
4.45359528875479
 30
0.0
 11
0.666903142624138
 21
4.41183701439992
 31
0.0
  0
LINE
  8
3
  6
CONTINUOUS
 62
3
 10
0.708661416979002
 20
4.45359528875479
 30
0.0
 11
0.750419691333867
 21
4.41183701439992
 31
0.0
  0
ARC
  8
3
  6
CONTINUOUS
 62
3
 10
0.708661416979003
 20
4.37007874004506
 30
0.0
 40
0.0590551179339462
 50
135
 51
180
  0
LINE
  8
3
  6
CONTINUOUS
 62
3
 10
0.767716534912948
 20
4.251968504
 30
0.0
 11
0.649606299045057
 21
4.251968504
 31
0.0
  0
ENDSEC
  0
EOF
