  0
SECTION
  2
HEADER
  9
$ACADVER
  1
AC1003
  9
$EXTMIN
 10
-1.47637795229058
 20
4.48818897609011
  9
$EXTMAX
 10
1.47637795229058
 20
-0.700840401315967
  9
$INSUNITS
 70
1
  9
$INSBASE
 10
0
 20
1.89367428738707
999
Created with OMAX LAYOUT for Windows. (www.omax.com) 2/2/2024
  0
ENDSEC
  0
SECTION
  2
TABLES
  0
TABLE
  2
LAYER
 70
    10
  0
LAYER
  2
0
 70
     0
 62
     7
  6
CONTINUOUS
  0
LAYER
  2
1
 70
     0
 62
     7
  6
CONTINUOUS
  0
LAYER
  2
2
 70
     0
 62
     7
  6
CONTINUOUS
  0
LAYER
  2
3
 70
     0
 62
     7
  6
CONTINUOUS
  0
LAYER
  2
4
 70
     0
 62
     7
  6
CONTINUOUS
  0
LAYER
  2
5
 70
     0
 62
     7
  6
CONTINUOUS
  0
LAYER
  2
6
 70
     0
 62
     7
  6
CONTINUOUS
  0
LAYER
  2
7
 70
     0
 62
     7
  6
CONTINUOUS
  0
LAYER
  2
8
 70
     0
 62
     7
  6
CONTINUOUS
  0
LAYER
  2
9
 70
     0
 62
     7
  6
CONTINUOUS
  0
LAYER
  2
10
 70
     0
 62
     7
  6
CONTINUOUS
  0
LAYER
  2
11
 70
     0
 62
     7
  6
CONTINUOUS
  0
LAYER
  2
12
 70
     0
 62
     7
  6
CONTINUOUS
  0
LAYER
  2
13
 70
     0
 62
     7
  6
CONTINUOUS
  0
LAYER
  2
14
 70
     0
 62
     7
  6
CONTINUOUS
  0
LAYER
  2
15
 70
     0
 62
     7
  6
CONTINUOUS
  0
LAYER
  2
16
 70
     0
 62
     7
  6
CONTINUOUS
  0
LAYER
  2
17
 70
     0
 62
     7
  6
CONTINUOUS
  0
LAYER
  2
18
 70
     0
 62
     7
  6
CONTINUOUS
  0
LAYER
  2
19
 70
     0
 62
     7
  6
CONTINUOUS
  0
LAYER
  2
20
 70
     0
 62
     7
  6
CONTINUOUS
  0
LAYER
  2
21
 70
     0
 62
     7
  6
CONTINUOUS
  0
LAYER
  2
22
 70
     0
 62
     7
  6
CONTINUOUS
  0
LAYER
  2
23
 70
     0
 62
     7
  6
CONTINUOUS
  0
LAYER
  2
24
 70
     0
 62
     7
  6
CONTINUOUS
  0
LAYER
  2
25
 70
     0
 62
     7
  6
CONTINUOUS
  0
LAYER
  2
26
 70
     0
 62
     7
  6
CONTINUOUS
  0
LAYER
  2
27
 70
     0
 62
     7
  6
CONTINUOUS
  0
LAYER
  2
28
 70
     0
 62
     7
  6
CONTINUOUS
  0
LAYER
  2
29
 70
     0
 62
     7
  6
CONTINUOUS
  0
LAYER
  2
30
 70
     0
 62
     7
  6
CONTINUOUS
  0
LAYER
  2
31
 70
     0
 62
     7
  6
CONTINUOUS
  0
ENDTAB
  0
ENDSEC
  0
SECTION
  2
ENTITIES
  0
LINE
  8
0
  6
CONTINUOUS
 62
0
 10
-0.531496062468504
 20
0
 30
0.0
 11
-0.531496062468504
 21
-0.700840401315967
 31
0.0
  0
LINE
  8
0
  6
CONTINUOUS
 62
0
 10
0.531496062468504
 20
-0.700840401315967
 30
0.0
 11
0.531496062468504
 21
0
 31
0.0
  0
LINE
  8
0
  6
CONTINUOUS
 62
0
 10
0.531496062468504
 20
-0.700840401315967
 30
0.0
 11
-0.531496062468504
 21
-0.700840401315967
 31
0.0
  0
LINE
  8
1
  6
CONTINUOUS
 62
1
 10
-0.531496062468505
 20
1.37433531317214
 30
0.0
 11
-0.531496062468504
 21
0
 31
0.0
  0
LINE
  8
1
  6
CONTINUOUS
 62
1
 10
0.531496062468504
 20
0
 30
0.0
 11
0.531496062468504
 21
1.37433531317214
 31
0.0
  0
ARC
  8
1
  6
CONTINUOUS
 62
1
 10
8.32667268468867E-15
 20
1.37433531317217
 30
0.0
 40
0.531496062468496
 50
359.999999999997
 51
44.9999999999999
  0
LINE
  8
1
  6
CONTINUOUS
 62
1
 10
8.32667268468867E-17
 20
2.125984253063
 30
0.0
 11
-0.375824469945427
 21
1.75015978311757
 31
0.0
  0
LINE
  8
1
  6
CONTINUOUS
 62
1
 10
8.32667268468867E-17
 20
2.125984253063
 30
0.0
 11
0.375824469945427
 21
1.75015978311757
 31
0.0
  0
ARC
  8
1
  6
CONTINUOUS
 62
1
 10
-6.49480469405717E-15
 20
1.37433531317214
 30
0.0
 40
0.531496062468502
 50
135
 51
180
  0
LINE
  8
1
  6
CONTINUOUS
 62
1
 10
0.531496062468504
 20
0
 30
0.0
 11
-0.531496062468504
 21
0
 31
0.0
  0
LINE
  8
2
  6
CONTINUOUS
 62
2
 10
1.24015747971326
 20
3.64708814859927
 30
0.0
 11
1.24015747971326
 21
3.188976378
 31
0.0
  0
LINE
  8
2
  6
CONTINUOUS
 62
2
 10
0.885826771755251
 20
3.188976378
 30
0.0
 11
0.885826771755251
 21
3.64708814859927
 31
0.0
  0
ARC
  8
2
  6
CONTINUOUS
 62
2
 10
1.06299212573425
 20
3.64708814859927
 30
0.0
 40
0.177165353979
 50
134.999999999999
 51
180.000000000001
  0
LINE
  8
2
  6
CONTINUOUS
 62
2
 10
1.06299212573425
 20
3.897637794979
 30
0.0
 11
1.18826694892412
 21
3.77236297178914
 31
0.0
  0
LINE
  8
2
  6
CONTINUOUS
 62
2
 10
1.06299212573425
 20
3.897637794979
 30
0.0
 11
0.937717302544386
 21
3.77236297178914
 31
0.0
  0
ARC
  8
2
  6
CONTINUOUS
 62
2
 10
1.06299212573425
 20
3.64708814859927
 30
0.0
 40
0.177165353979002
 50
359.999999999998
 51
44.9999999999995
  0
LINE
  8
2
  6
CONTINUOUS
 62
2
 10
0.885826771755251
 20
3.188976378
 30
0.0
 11
1.24015747971326
 21
3.188976378
 31
0.0
  0
LINE
  8
2
  6
CONTINUOUS
 62
2
 10
-1.24015747971326
 20
3.64708814859927
 30
0.0
 11
-1.24015747971326
 21
3.188976378
 31
0.0
  0
LINE
  8
2
  6
CONTINUOUS
 62
2
 10
-0.885826771755251
 20
3.188976378
 30
0.0
 11
-0.885826771755251
 21
3.64708814859927
 31
0.0
  0
ARC
  8
2
  6
CONTINUOUS
 62
2
 10
-1.06299212573425
 20
3.64708814859927
 30
0.0
 40
0.177165353979
 50
359.999999999997
 51
45
  0
LINE
  8
2
  6
CONTINUOUS
 62
2
 10
-1.06299212573425
 20
3.897637794979
 30
0.0
 11
-1.18826694892412
 21
3.77236297178914
 31
0.0
  0
LINE
  8
2
  6
CONTINUOUS
 62
2
 10
-1.06299212573425
 20
3.897637794979
 30
0.0
 11
-0.937717302544386
 21
3.77236297178914
 31
0.0
  0
ARC
  8
2
  6
CONTINUOUS
 62
2
 10
-1.06299212573425
 20
3.64708814859927
 30
0.0
 40
0.177165353979002
 50
135
 51
180
  0
LINE
  8
2
  6
CONTINUOUS
 62
2
 10
-0.885826771755251
 20
3.188976378
 30
0.0
 11
-1.24015747971326
 21
3.188976378
 31
0.0
  0
LINE
  8
3
  6
CONTINUOUS
 62
3
 10
-1.47637795229057
 20
4.40467242738039
 30
0.0
 11
-1.47637795229057
 21
4.251968504
 31
0.0
  0
LINE
  8
3
  6
CONTINUOUS
 62
3
 10
-1.35826771642268
 20
4.251968504
 30
0.0
 11
-1.35826771642268
 21
4.40467242738039
 31
0.0
  0
ARC
  8
3
  6
CONTINUOUS
 62
3
 10
-1.41732283435663
 20
4.40467242738039
 30
0.0
 40
0.059055117933945
 50
359.999999999998
 51
45.0000000000002
  0
LINE
  8
3
  6
CONTINUOUS
 62
3
 10
-1.41732283435663
 20
4.48818897609011
 30
0.0
 11
-1.45908110871149
 21
4.44643070173525
 31
0.0
  0
LINE
  8
3
  6
CONTINUOUS
 62
3
 10
-1.41732283435663
 20
4.48818897609011
 30
0.0
 11
-1.37556456000176
 21
4.44643070173525
 31
0.0
  0
ARC
  8
3
  6
CONTINUOUS
 62
3
 10
-1.41732283435663
 20
4.40467242738039
 30
0.0
 40
0.0590551179339451
 50
135
 51
180
  0
LINE
  8
3
  6
CONTINUOUS
 62
3
 10
-1.35826771642268
 20
4.251968504
 30
0.0
 11
-1.47637795229057
 21
4.251968504
 31
0.0
  0
LINE
  8
3
  6
CONTINUOUS
 62
3
 10
-0.649606299177933
 20
4.40467242738039
 30
0.0
 11
-0.649606299177933
 21
4.251968504
 31
0.0
  0
LINE
  8
3
  6
CONTINUOUS
 62
3
 10
-0.767716535045824
 20
4.251968504
 30
0.0
 11
-0.767716535045824
 21
4.40467242738039
 31
0.0
  0
ARC
  8
3
  6
CONTINUOUS
 62
3
 10
-0.70866141711188
 20
4.40467242738039
 30
0.0
 40
0.059055117933945
 50
135
 51
180.000000000001
  0
LINE
  8
3
  6
CONTINUOUS
 62
3
 10
-0.708661417111879
 20
4.48818897609011
 30
0.0
 11
-0.666903142757014
 21
4.44643070173525
 31
0.0
  0
LINE
  8
3
  6
CONTINUOUS
 62
3
 10
-0.708661417111879
 20
4.48818897609011
 30
0.0
 11
-0.750419691466743
 21
4.44643070173525
 31
0.0
  0
ARC
  8
3
  6
CONTINUOUS
 62
3
 10
-0.708661417111879
 20
4.40467242738039
 30
0.0
 40
0.0590551179339451
 50
360
 51
44.9999999999999
  0
LINE
  8
3
  6
CONTINUOUS
 62
3
 10
-0.767716535045824
 20
4.251968504
 30
0.0
 11
-0.649606299177933
 21
4.251968504
 31
0.0
  0
LINE
  8
3
  6
CONTINUOUS
 62
3
 10
1.47637795229057
 20
4.40467242738039
 30
0.0
 11
1.47637795229057
 21
4.251968504
 31
0.0
  0
LINE
  8
3
  6
CONTINUOUS
 62
3
 10
1.35826771642268
 20
4.251968504
 30
0.0
 11
1.35826771642268
 21
4.40467242738039
 31
0.0
  0
ARC
  8
3
  6
CONTINUOUS
 62
3
 10
1.41732283435663
 20
4.40467242738039
 30
0.0
 40
0.0590551179339451
 50
134.999999999999
 51
180
  0
LINE
  8
3
  6
CONTINUOUS
 62
3
 10
1.41732283435663
 20
4.48818897609011
 30
0.0
 11
1.45908110871149
 21
4.44643070173525
 31
0.0
  0
LINE
  8
3
  6
CONTINUOUS
 62
3
 10
1.41732283435663
 20
4.48818897609011
 30
0.0
 11
1.37556456000176
 21
4.44643070173525
 31
0.0
  0
ARC
  8
3
  6
CONTINUOUS
 62
3
 10
1.41732283435663
 20
4.40467242738039
 30
0.0
 40
0.0590551179339451
 50
359.999999999999
 51
44.9999999999998
  0
LINE
  8
3
  6
CONTINUOUS
 62
3
 10
1.35826771642268
 20
4.251968504
 30
0.0
 11
1.47637795229057
 21
4.251968504
 31
0.0
  0
LINE
  8
3
  6
CONTINUOUS
 62
3
 10
0.649606299177933
 20
4.40467242738039
 30
0.0
 11
0.649606299177933
 21
4.251968504
 31
0.0
  0
LINE
  8
3
  6
CONTINUOUS
 62
3
 10
0.767716535045824
 20
4.251968504
 30
0.0
 11
0.767716535045824
 21
4.40467242738039
 31
0.0
  0
ARC
  8
3
  6
CONTINUOUS
 62
3
 10
0.70866141711188
 20
4.40467242738039
 30
0.0
 40
0.0590551179339449
 50
359.999999999998
 51
45
  0
LINE
  8
3
  6
CONTINUOUS
 62
3
 10
0.708661417111879
 20
4.48818897609011
 30
0.0
 11
0.666903142757014
 21
4.44643070173525
 31
0.0
  0
LINE
  8
3
  6
CONTINUOUS
 62
3
 10
0.708661417111879
 20
4.48818897609011
 30
0.0
 11
0.750419691466743
 21
4.44643070173525
 31
0.0
  0
ARC
  8
3
  6
CONTINUOUS
 62
3
 10
0.708661417111878
 20
4.40467242738039
 30
0.0
 40
0.0590551179339452
 50
135
 51
180
  0
LINE
  8
3
  6
CONTINUOUS
 62
3
 10
0.767716535045824
 20
4.251968504
 30
0.0
 11
0.649606299177933
 21
4.251968504
 31
0.0
  0
ENDSEC
  0
EOF
