  0
SECTION
  2
HEADER
  9
$ACADVER
  1
AC1003
  9
$EXTMIN
 10
-9.30006542339865
 20
3.0941354418017
  9
$EXTMAX
 10
-3.3843561952617
 20
-0.58305629370673
  9
$INSUNITS
 70
1
  9
$INSBASE
 10
-6.34221080933017
 20
1.25553957404748
999
Created with OMAX LAYOUT for Windows. (www.omax.com) 3/23/2024
  0
ENDSEC
  0
SECTION
  2
TABLES
  0
TABLE
  2
LAYER
 70
    10
  0
LAYER
  2
0
 70
     0
 62
     7
  6
CONTINUOUS
  0
LAYER
  2
1
 70
     0
 62
     7
  6
CONTINUOUS
  0
LAYER
  2
2
 70
     0
 62
     7
  6
CONTINUOUS
  0
LAYER
  2
3
 70
     0
 62
     7
  6
CONTINUOUS
  0
LAYER
  2
4
 70
     0
 62
     7
  6
CONTINUOUS
  0
LAYER
  2
5
 70
     0
 62
     7
  6
CONTINUOUS
  0
LAYER
  2
6
 70
     0
 62
     7
  6
CONTINUOUS
  0
LAYER
  2
7
 70
     0
 62
     7
  6
CONTINUOUS
  0
LAYER
  2
8
 70
     0
 62
     7
  6
CONTINUOUS
  0
LAYER
  2
9
 70
     0
 62
     7
  6
CONTINUOUS
  0
LAYER
  2
10
 70
     0
 62
     7
  6
CONTINUOUS
  0
LAYER
  2
11
 70
     0
 62
     7
  6
CONTINUOUS
  0
LAYER
  2
12
 70
     0
 62
     7
  6
CONTINUOUS
  0
LAYER
  2
13
 70
     0
 62
     7
  6
CONTINUOUS
  0
LAYER
  2
14
 70
     0
 62
     7
  6
CONTINUOUS
  0
LAYER
  2
15
 70
     0
 62
     7
  6
CONTINUOUS
  0
LAYER
  2
16
 70
     0
 62
     7
  6
CONTINUOUS
  0
LAYER
  2
17
 70
     0
 62
     7
  6
CONTINUOUS
  0
LAYER
  2
18
 70
     0
 62
     7
  6
CONTINUOUS
  0
LAYER
  2
19
 70
     0
 62
     7
  6
CONTINUOUS
  0
LAYER
  2
20
 70
     0
 62
     7
  6
CONTINUOUS
  0
LAYER
  2
21
 70
     0
 62
     7
  6
CONTINUOUS
  0
LAYER
  2
22
 70
     0
 62
     7
  6
CONTINUOUS
  0
LAYER
  2
23
 70
     0
 62
     7
  6
CONTINUOUS
  0
LAYER
  2
24
 70
     0
 62
     7
  6
CONTINUOUS
  0
LAYER
  2
25
 70
     0
 62
     7
  6
CONTINUOUS
  0
LAYER
  2
26
 70
     0
 62
     7
  6
CONTINUOUS
  0
LAYER
  2
27
 70
     0
 62
     7
  6
CONTINUOUS
  0
LAYER
  2
28
 70
     0
 62
     7
  6
CONTINUOUS
  0
LAYER
  2
29
 70
     0
 62
     7
  6
CONTINUOUS
  0
LAYER
  2
30
 70
     0
 62
     7
  6
CONTINUOUS
  0
LAYER
  2
31
 70
     0
 62
     7
  6
CONTINUOUS
  0
ENDTAB
  0
ENDSEC
  0
SECTION
  2
ENTITIES
  0
ARC
  8
6
  6
CONTINUOUS
 62
6
 10
-6.83799012082334
 20
2.48700696722293
 30
0.0
 40
0.349361549860259
 50
204.386837237011
 51
324.320000000005
  0
ARC
  8
6
  6
CONTINUOUS
 62
6
 10
-6.35455010534239
 20
2.61418585673517
 30
0.0
 40
0.846336678232918
 50
161.294134617644
 51
198.705865382356
  0
ARC
  8
6
  6
CONTINUOUS
 62
6
 10
-6.8379900529662
 20
2.74136478497828
 30
0.0
 40
0.349361617717399
 50
35.6800299999898
 51
155.613174782251
  0
ARC
  8
6
  6
CONTINUOUS
 62
6
 10
-6.15080252679491
 20
2.41400864881383
 30
0.0
 40
0.273851953461892
 50
210.521999666259
 51
269.441063338051
  0
LINE
  8
6
  6
CONTINUOUS
 62
6
 10
-6.15347398829314
 20
2.1401697258895
 30
0.0
 11
-6.05666430071583
 21
2.13922529012221
 31
0.0
  0
ARC
  8
6
  6
CONTINUOUS
 62
6
 10
-6.05422552856939
 20
2.38921247661922
 30
0.0
 40
0.249999082042854
 50
269.441063677776
 51
357.350682656729
  0
ARC
  8
6
  6
CONTINUOUS
 62
6
 10
-6.00784523837654
 20
2.35921380378123
 30
0.0
 40
0.204186214204092
 50
5.18227244383226
 51
59.3448299999944
  0
LINE
  8
6
  6
CONTINUOUS
 62
6
 10
-5.9037368160883
 20
2.53486529531959
 30
0.0
 11
-6.27762569541145
 21
2.69544811793248
 31
0.0
  0
ARC
  8
6
  6
CONTINUOUS
 62
6
 10
-6.17351720501568
 20
2.87109952074932
 30
0.0
 40
0.204186172607274
 50
185.182406440224
 51
239.344800865825
  0
ARC
  8
6
  6
CONTINUOUS
 62
6
 10
-6.12813763344132
 20
2.84176120893176
 30
0.0
 40
0.248969559787123
 50
91.2613438550532
 51
177.491952931064
  0
LINE
  8
6
  6
CONTINUOUS
 62
6
 10
-6.13361815681877
 20
3.09067044050846
 30
0.0
 11
-6.03703867904931
 21
3.0907719962159
 31
0.0
  0
ARC
  8
6
  6
CONTINUOUS
 62
6
 10
-6.04566399476418
 20
2.82571896856687
 30
0.0
 40
0.265193332376777
 50
29.2717084966245
 51
88.1361471074762
  0
ARC
  8
6
  6
CONTINUOUS
 62
6
 10
-5.38343939605193
 20
2.78189081823898
 30
0.0
 40
0.312244623562714
 50
48.9416968664119
 51
146.027978045882
  0
ARC
  8
6
  6
CONTINUOUS
 62
6
 10
-5.31986687457091
 20
2.85560133067963
 30
0.0
 40
0.214908236827779
 50
1.31476553178229E-6
 51
48.8140713147687
  0
ARC
  8
6
  6
CONTINUOUS
 62
6
 10
-5.34218296800543
 20
2.85560133561118
 30
0.0
 40
0.237224330262296
 50
279.088113900687
 51
359.999999999986
  0
ARC
  8
6
  6
CONTINUOUS
 62
6
 10
-5.32912942301177
 20
2.38450151128423
 30
0.0
 40
0.238108683341931
 50
19.4344258931602
 51
84.1142708141186
  0
ARC
  8
6
  6
CONTINUOUS
 62
6
 10
-5.31486152080818
 20
2.38790842674615
 30
0.0
 40
0.223525416608246
 50
307.790503302608
 51
19.8277712840458
  0
ARC
  8
6
  6
CONTINUOUS
 62
6
 10
-5.37993542078913
 20
2.48860266771399
 30
0.0
 40
0.343129398326069
 50
216.48300623395
 51
306.074034537005
  0
LINE
  8
6
  6
CONTINUOUS
 62
6
 10
-4.55253353289118
 20
2.14072699989075
 30
0.0
 11
-4.55253353289118
 21
3.09072699951075
 31
0.0
  0
LINE
  8
6
  6
CONTINUOUS
 62
6
 10
-4.55253353289118
 20
3.09072699951075
 30
0.0
 11
-5.04449781840869
 21
2.36465557122975
 31
0.0
  0
LINE
  8
6
  6
CONTINUOUS
 62
6
 10
-5.04449781840869
 20
2.36465557122975
 30
0.0
 11
-4.41342639008968
 21
2.36465557122975
 31
0.0
  0
ARC
  8
6
  6
CONTINUOUS
 62
6
 10
-4.02112930797309
 20
2.44197987290026
 30
0.0
 40
0.302274816793212
 50
213.433287883773
 51
270.015999253477
  0
ARC
  8
6
  6
CONTINUOUS
 62
6
 10
-3.98425682862011
 20
2.44388998472296
 30
0.0
 40
0.306401412997072
 50
263.104148598818
 51
34.0979167513626
  0
ARC
  8
6
  6
CONTINUOUS
 62
6
 10
-4.03078764675372
 20
2.35443461804226
 30
0.0
 40
0.397986203034341
 50
41.0237111689364
 51
127.558530040727
  0
LINE
  8
6
  6
CONTINUOUS
 62
6
 10
-4.27338871537726
 20
2.66993063910815
 30
0.0
 11
-4.27338871537726
 21
3.09066116286843
 31
0.0
  0
LINE
  8
6
  6
CONTINUOUS
 62
6
 10
-4.27338871537726
 20
3.09066116286843
 30
0.0
 11
-3.69902102274986
 21
3.09066116286843
 31
0.0
  0
LINE
  8
6
  6
CONTINUOUS
 62
6
 10
-9.14823503238795
 20
-0.581515767753184
 30
0.0
 11
-9.14823503238795
 21
-0.120922743180244
 31
0.0
  0
LINE
  8
6
  6
CONTINUOUS
 62
6
 10
-9.30006542339865
 20
-0.106515767943184
 30
0.0
 11
-8.9964047092344
 21
-0.106515767943184
 31
0.0
  0
ARC
  8
6
  6
CONTINUOUS
 62
6
 10
-8.78944736996684
 20
-0.441098554576624
 30
0.0
 40
0.141332701318339
 50
196.004825930423
 51
267.948379947905
  0
ARC
  8
6
  6
CONTINUOUS
 62
6
 10
-8.52448633323864
 20
-0.344352146937279
 30
0.0
 40
0.42316833911644
 50
161.294116943038
 51
198.705883056962
  0
ARC
  8
6
  6
CONTINUOUS
 62
6
 10
-8.78944735126481
 20
-0.247921574539524
 30
0.0
 40
0.141420126715479
 50
16.1288893758952
 51
163.872176621307
  0
ARC
  8
6
  6
CONTINUOUS
 62
6
 10
-9.05440824435277
 20
-0.34435214695156
 30
0.0
 40
0.423168339116395
 50
341.293755627024
 51
18.7062443729764
  0
ARC
  8
6
  6
CONTINUOUS
 62
6
 10
-8.78944736996686
 20
-0.441098554576605
 30
0.0
 40
0.141332701318353
 50
272.763973435188
 51
343.994108060197
  0
LINE
  8
6
  6
CONTINUOUS
 62
6
 10
-8.51279048387939
 20
-0.581515869994329
 30
0.0
 11
-8.51279048387939
 21
-0.106515870184328
 31
0.0
  0
LINE
  8
6
  6
CONTINUOUS
 62
6
 10
-8.51279048387939
 20
-0.106515870184328
 30
0.0
 11
-8.38029921165638
 21
-0.106515876238478
 31
0.0
  0
ARC
  8
6
  6
CONTINUOUS
 62
6
 10
-8.39668528392584
 20
-0.280426432614767
 30
0.0
 40
0.174680808858701
 50
24.3863827720535
 51
84.6174099999935
  0
ARC
  8
6
  6
CONTINUOUS
 62
6
 10
-8.63840511184737
 20
-0.344015875522079
 30
0.0
 40
0.42316833911644
 50
341.294313270191
 51
18.7056867298093
  0
ARC
  8
6
  6
CONTINUOUS
 62
6
 10
-8.39668524999727
 20
-0.407605307563912
 30
0.0
 40
0.174680774930158
 50
275.382450717138
 51
335.613608269933
  0
LINE
  8
6
  6
CONTINUOUS
 62
6
 10
-8.38029960367741
 20
-0.581515869994378
 30
0.0
 11
-8.50091548387939
 21
-0.581515869994329
 31
0.0
  0
ARC
  8
6
  6
CONTINUOUS
 62
6
 10
-7.94757854500882
 20
-0.441098554576624
 30
0.0
 40
0.141332701318339
 50
196.004825930423
 51
267.948379947905
  0
ARC
  8
6
  6
CONTINUOUS
 62
6
 10
-7.68261750828062
 20
-0.344352146937279
 30
0.0
 40
0.42316833911644
 50
161.294116943038
 51
198.705883056962
  0
ARC
  8
6
  6
CONTINUOUS
 62
6
 10
-7.94757852630679
 20
-0.247921574539524
 30
0.0
 40
0.141420126715479
 50
16.1288893758952
 51
163.872176621307
  0
ARC
  8
6
  6
CONTINUOUS
 62
6
 10
-8.21253941939475
 20
-0.34435214695156
 30
0.0
 40
0.423168339116395
 50
341.293755627024
 51
18.7062443729764
  0
ARC
  8
6
  6
CONTINUOUS
 62
6
 10
-7.94757854500884
 20
-0.441098554576604
 30
0.0
 40
0.141332701318354
 50
272.763973435188
 51
343.994108060197
  0
ARC
  8
6
  6
CONTINUOUS
 62
6
 10
-7.68179401459854
 20
-0.441835004019268
 30
0.0
 40
0.0502473511865166
 50
94.0971338410908
 51
270.742363922663
  0
ARC
  8
6
  6
CONTINUOUS
 62
6
 10
-7.68045923449636
 20
-0.441836390290575
 30
0.0
 40
0.0502463998623276
 50
269.220288444467
 51
85.9402135153967
  0
ARC
  8
6
  6
CONTINUOUS
 62
6
 10
-7.6814765334205
 20
-0.238250160916498
 30
0.0
 40
0.0502576549971262
 50
94.4592456626604
 51
270.380252237626
  0
ARC
  8
6
  6
CONTINUOUS
 62
6
 10
-7.68012572829335
 20
-0.238279053560014
 30
0.0
 40
0.0502379558741404
 50
268.839742382769
 51
86.3207597169381
  0
LINE
  8
6
  6
CONTINUOUS
 62
6
 10
-7.03150013610279
 20
-0.581515801040228
 30
0.0
 11
-7.03150015070046
 21
-0.106515848170039
 31
0.0
  0
LINE
  8
6
  6
CONTINUOUS
 62
6
 10
-7.03150015070046
 20
-0.106515848170039
 30
0.0
 11
-6.83075610316173
 21
-0.442408705178539
 31
0.0
  0
LINE
  8
6
  6
CONTINUOUS
 62
6
 10
-6.83075610316173
 20
-0.442408705178539
 30
0.0
 11
-6.63057753181323
 21
-0.106515848170039
 31
0.0
  0
LINE
  8
6
  6
CONTINUOUS
 62
6
 10
-6.63057753181323
 20
-0.106515848170039
 30
0.0
 11
-6.63057753181323
 21
-0.581515847980039
 31
0.0
  0
ARC
  8
6
  6
CONTINUOUS
 62
6
 10
-6.44366258285752
 20
-0.260933593268577
 30
0.0
 40
0.156122311781357
 50
48.9416968664119
 51
146.027978045882
  0
ARC
  8
6
  6
CONTINUOUS
 62
6
 10
-6.41187632211701
 20
-0.224078337048254
 30
0.0
 40
0.10745411841389
 50
1.31476685489303E-6
 51
48.8140713147699
  0
ARC
  8
6
  6
CONTINUOUS
 62
6
 10
-6.42303436883427
 20
-0.224078334582474
 30
0.0
 40
0.118612165131148
 50
279.088113900687
 51
359.999999999986
  0
ARC
  8
6
  6
CONTINUOUS
 62
6
 10
-6.41650759633744
 20
-0.459628246745949
 30
0.0
 40
0.119054341670966
 50
19.4344258931602
 51
84.1142708141186
  0
ARC
  8
6
  6
CONTINUOUS
 62
6
 10
-6.40937364523564
 20
-0.457924789014992
 30
0.0
 40
0.111762708304124
 50
307.790503302607
 51
19.8277712840455
  0
ARC
  8
6
  6
CONTINUOUS
 62
6
 10
-6.44191059522612
 20
-0.407577668531072
 30
0.0
 40
0.171564699163034
 50
216.48300623395
 51
306.074034537005
  0
ARC
  8
6
  6
CONTINUOUS
 62
6
 10
-5.54623901031291
 20
-0.44487467798115
 30
0.0
 40
0.136925976730945
 50
210.521999666259
 51
269.441063338051
  0
LINE
  8
6
  6
CONTINUOUS
 62
6
 10
-5.54757474106203
 20
-0.581794139443314
 30
0.0
 11
-5.49916989727337
 21
-0.582266357326959
 31
0.0
  0
ARC
  8
6
  6
CONTINUOUS
 62
6
 10
-5.49795051120015
 20
-0.457272764078457
 30
0.0
 40
0.124999541021428
 50
269.441063677776
 51
357.350682656729
  0
ARC
  8
6
  6
CONTINUOUS
 62
6
 10
-5.47476036610373
 20
-0.472272100497452
 30
0.0
 40
0.102093107102046
 50
5.18227244383226
 51
59.3448299999944
  0
LINE
  8
6
  6
CONTINUOUS
 62
6
 10
-5.42270615495961
 20
-0.384446354728269
 30
0.0
 11
-5.60965059462119
 21
-0.304154943421824
 31
0.0
  0
ARC
  8
6
  6
CONTINUOUS
 62
6
 10
-5.5575963494233
 20
-0.216329242013409
 30
0.0
 40
0.102093086303637
 50
185.182406440223
 51
239.344800865824
  0
ARC
  8
6
  6
CONTINUOUS
 62
6
 10
-5.53490656363612
 20
-0.230998397922184
 30
0.0
 40
0.124484779893561
 50
91.2613438550531
 51
177.491952931064
  0
LINE
  8
6
  6
CONTINUOUS
 62
6
 10
-5.53764682532485
 20
-0.106543782133834
 30
0.0
 11
-5.48935708644012
 21
-0.106493004280114
 31
0.0
  0
ARC
  8
6
  6
CONTINUOUS
 62
6
 10
-5.49366974429755
 20
-0.23901951810463
 30
0.0
 40
0.132596666188389
 50
29.2717084966248
 51
88.1361471074766
  0
ARC
  8
6
  6
CONTINUOUS
 62
6
 10
-5.11034548505472
 20
-0.408375518776599
 30
0.0
 40
0.17468077493013
 50
204.386837237011
 51
324.320000000005
  0
ARC
  8
6
  6
CONTINUOUS
 62
6
 10
-4.86862547731424
 20
-0.344786074020482
 30
0.0
 40
0.423168339116459
 50
161.294134617644
 51
198.705865382356
  0
ARC
  8
6
  6
CONTINUOUS
 62
6
 10
-5.11034545112614
 20
-0.281196609898925
 30
0.0
 40
0.174680808858699
 50
35.6800299999898
 51
155.613174782251
  0
LINE
  8
6
  6
CONTINUOUS
 62
6
 10
-4.89720452429053
 20
-0.581515800850229
 30
0.0
 11
-4.89720452429053
 21
-0.106515801040229
 31
0.0
  0
LINE
  8
6
  6
CONTINUOUS
 62
6
 10
-4.89720452429053
 20
-0.106515801040229
 30
0.0
 11
-4.72484738150231
 21
-0.106515801040224
 31
0.0
  0
ARC
  8
6
  6
CONTINUOUS
 62
6
 10
-4.72713596205746
 20
-0.225265625197058
 30
0.0
 40
0.118771875198788
 50
271.095264000543
 51
88.8959160393197
  0
LINE
  8
6
  6
CONTINUOUS
 62
6
 10
-4.72486566156192
 20
-0.344015800244914
 30
0.0
 11
-4.88161566156192
 21
-0.344015800244914
 31
0.0
  0
LINE
  8
6
  6
CONTINUOUS
 62
6
 10
-4.71809825896892
 20
-0.357548600951484
 30
0.0
 11
-4.60609738154982
 21
-0.581515800850229
 31
0.0
  0
LINE
  8
6
  6
CONTINUOUS
 62
6
 10
-4.27492775184633
 20
-0.581520744955729
 30
0.0
 11
-4.55348132316347
 21
-0.581520744955729
 31
0.0
  0
LINE
  8
6
  6
CONTINUOUS
 62
6
 10
-4.55348132316347
 20
-0.581520744955729
 30
0.0
 11
-4.55365096602055
 21
-0.344020745050728
 31
0.0
  0
LINE
  8
6
  6
CONTINUOUS
 62
6
 10
-4.55365096602055
 20
-0.344020745050728
 30
0.0
 11
-4.33599918039333
 21
-0.344020745050728
 31
0.0
  0
LINE
  8
6
  6
CONTINUOUS
 62
6
 10
-4.55366114172623
 20
-0.336899757099228
 30
0.0
 11
-4.55382060887763
 21
-0.106520745145728
 31
0.0
  0
LINE
  8
6
  6
CONTINUOUS
 62
6
 10
-4.55382060887763
 20
-0.106520745145728
 30
0.0
 11
-4.29867775184633
 21
-0.106520745145728
 31
0.0
  0
LINE
  8
6
  6
CONTINUOUS
 62
6
 10
-4.25117775184633
 20
-0.106515801040229
 30
0.0
 11
-4.12818668046695
 21
-0.581515800850229
 31
0.0
  0
LINE
  8
6
  6
CONTINUOUS
 62
6
 10
-4.12818668046695
 20
-0.581515800850229
 30
0.0
 11
-4.00519560908758
 21
-0.185569372437174
 31
0.0
  0
LINE
  8
6
  6
CONTINUOUS
 62
6
 10
-4.00519560908758
 20
-0.185569372437174
 30
0.0
 11
-3.8822045377082
 21
-0.581515800850229
 31
0.0
  0
LINE
  8
6
  6
CONTINUOUS
 62
6
 10
-3.8822045377082
 20
-0.581515800850229
 30
0.0
 11
-3.75921346632883
 21
-0.106515801040229
 31
0.0
  0
ARC
  8
6
  6
CONTINUOUS
 62
6
 10
-3.5575106300788
 20
-0.44487467798115
 30
0.0
 40
0.136925976730945
 50
210.521999666259
 51
269.441063338051
  0
LINE
  8
6
  6
CONTINUOUS
 62
6
 10
-3.55884636082792
 20
-0.581794139443314
 30
0.0
 11
-3.51044151703926
 21
-0.582266357326959
 31
0.0
  0
ARC
  8
6
  6
CONTINUOUS
 62
6
 10
-3.50922213096604
 20
-0.457272764078457
 30
0.0
 40
0.124999541021428
 50
269.441063677776
 51
357.350682656729
  0
ARC
  8
6
  6
CONTINUOUS
 62
6
 10
-3.48603198586962
 20
-0.472272100497452
 30
0.0
 40
0.102093107102046
 50
5.18227244383226
 51
59.3448299999944
  0
LINE
  8
6
  6
CONTINUOUS
 62
6
 10
-3.4339777747255
 20
-0.384446354728269
 30
0.0
 11
-3.62092221438708
 21
-0.304154943421824
 31
0.0
  0
ARC
  8
6
  6
CONTINUOUS
 62
6
 10
-3.56886796918919
 20
-0.216329242013409
 30
0.0
 40
0.102093086303637
 50
185.182406440223
 51
239.344800865824
  0
ARC
  8
6
  6
CONTINUOUS
 62
6
 10
-3.54617818340201
 20
-0.230998397922184
 30
0.0
 40
0.124484779893561
 50
91.261343855053
 51
177.491952931064
  0
LINE
  8
6
  6
CONTINUOUS
 62
6
 10
-3.54891844509074
 20
-0.106543782133834
 30
0.0
 11
-3.50062870620601
 21
-0.106493004280114
 31
0.0
  0
ARC
  8
6
  6
CONTINUOUS
 62
6
 10
-3.50494136406344
 20
-0.23901951810463
 30
0.0
 40
0.132596666188389
 50
29.2717084966248
 51
88.1361471074766
  0
ENDSEC
  0
EOF
