  0
SECTION
  2
HEADER
  9
$ACADVER
  1
AC1003
  9
$EXTMIN
 10
-1.37795275550002
 20
0.984251968499969
  9
$EXTMAX
 10
1.37795275550001
 20
-0.984251968500072
  9
$INSUNITS
 70
1
  9
$INSBASE
 10
-5.6621374255883E-15
 20
-5.13478148889135E-14
999
Created with OMAX LAYOUT for Windows. (www.omax.com) 3/8/2024
  0
ENDSEC
  0
SECTION
  2
TABLES
  0
TABLE
  2
LAYER
 70
    10
  0
LAYER
  2
0
 70
     0
 62
     7
  6
CONTINUOUS
  0
LAYER
  2
1
 70
     0
 62
     7
  6
CONTINUOUS
  0
LAYER
  2
2
 70
     0
 62
     7
  6
CONTINUOUS
  0
LAYER
  2
3
 70
     0
 62
     7
  6
CONTINUOUS
  0
LAYER
  2
4
 70
     0
 62
     7
  6
CONTINUOUS
  0
LAYER
  2
5
 70
     0
 62
     7
  6
CONTINUOUS
  0
LAYER
  2
6
 70
     0
 62
     7
  6
CONTINUOUS
  0
LAYER
  2
7
 70
     0
 62
     7
  6
CONTINUOUS
  0
LAYER
  2
8
 70
     0
 62
     7
  6
CONTINUOUS
  0
LAYER
  2
9
 70
     0
 62
     7
  6
CONTINUOUS
  0
LAYER
  2
10
 70
     0
 62
     7
  6
CONTINUOUS
  0
LAYER
  2
11
 70
     0
 62
     7
  6
CONTINUOUS
  0
LAYER
  2
12
 70
     0
 62
     7
  6
CONTINUOUS
  0
LAYER
  2
13
 70
     0
 62
     7
  6
CONTINUOUS
  0
LAYER
  2
14
 70
     0
 62
     7
  6
CONTINUOUS
  0
LAYER
  2
15
 70
     0
 62
     7
  6
CONTINUOUS
  0
LAYER
  2
16
 70
     0
 62
     7
  6
CONTINUOUS
  0
LAYER
  2
17
 70
     0
 62
     7
  6
CONTINUOUS
  0
LAYER
  2
18
 70
     0
 62
     7
  6
CONTINUOUS
  0
LAYER
  2
19
 70
     0
 62
     7
  6
CONTINUOUS
  0
LAYER
  2
20
 70
     0
 62
     7
  6
CONTINUOUS
  0
LAYER
  2
21
 70
     0
 62
     7
  6
CONTINUOUS
  0
LAYER
  2
22
 70
     0
 62
     7
  6
CONTINUOUS
  0
LAYER
  2
23
 70
     0
 62
     7
  6
CONTINUOUS
  0
LAYER
  2
24
 70
     0
 62
     7
  6
CONTINUOUS
  0
LAYER
  2
25
 70
     0
 62
     7
  6
CONTINUOUS
  0
LAYER
  2
26
 70
     0
 62
     7
  6
CONTINUOUS
  0
LAYER
  2
27
 70
     0
 62
     7
  6
CONTINUOUS
  0
LAYER
  2
28
 70
     0
 62
     7
  6
CONTINUOUS
  0
LAYER
  2
29
 70
     0
 62
     7
  6
CONTINUOUS
  0
LAYER
  2
30
 70
     0
 62
     7
  6
CONTINUOUS
  0
LAYER
  2
31
 70
     0
 62
     7
  6
CONTINUOUS
  0
ENDTAB
  0
ENDSEC
  0
SECTION
  2
ENTITIES
  0
ARC
  8
2
  6
CONTINUOUS
 62
2
 10
-1.0826771645
 20
0.68897637750002
 30
0.0
 40
0.118110236
 50
359.999999999992
 51
180
  0
ARC
  8
2
  6
CONTINUOUS
 62
2
 10
-1.0826771645
 20
0.688976377500018
 30
0.0
 40
0.118110236
 50
179.999999999993
 51
359.999999999993
  0
ARC
  8
2
  6
CONTINUOUS
 62
2
 10
-1.0826771645
 20
-0.68897637749997
 30
0.0
 40
0.118110236
 50
359.999999999992
 51
180
  0
ARC
  8
2
  6
CONTINUOUS
 62
2
 10
-1.0826771645
 20
-0.688976377499972
 30
0.0
 40
0.118110236
 50
179.999999999993
 51
359.999999999993
  0
ARC
  8
2
  6
CONTINUOUS
 62
2
 10
1.08267716450001
 20
0.68897637750002
 30
0.0
 40
0.118110236000001
 50
359.999999999992
 51
180
  0
ARC
  8
2
  6
CONTINUOUS
 62
2
 10
1.08267716450001
 20
0.688976377500018
 30
0.0
 40
0.118110236000001
 50
179.999999999993
 51
359.999999999993
  0
LINE
  8
2
  6
CONTINUOUS
 62
2
 10
-0.932798506637885
 20
-0.0782890271682213
 30
0.0
 11
-0.846005562668235
 21
-0.165081971137852
 31
0.0
  0
LINE
  8
2
  6
CONTINUOUS
 62
2
 10
-1.05135987296964
 20
-0.110057449530341
 30
0.0
 11
-0.932798506637885
 21
-0.0782890271682213
 31
0.0
  0
LINE
  8
2
  6
CONTINUOUS
 62
2
 10
-1.08312829533176
 20
-0.228618815862111
 30
0.0
 11
-1.05135987296964
 21
-0.110057449530341
 31
0.0
  0
LINE
  8
2
  6
CONTINUOUS
 62
2
 10
-0.996335351362134
 20
-0.315411759831742
 30
0.0
 11
-1.08312829533176
 21
-0.228618815862111
 31
0.0
  0
LINE
  8
2
  6
CONTINUOUS
 62
2
 10
-0.877773985030374
 20
-0.283643337469622
 30
0.0
 11
-0.996335351362134
 21
-0.315411759831742
 31
0.0
  0
LINE
  8
2
  6
CONTINUOUS
 62
2
 10
-0.846005562668235
 20
-0.165081971137852
 30
0.0
 11
-0.877773985030374
 21
-0.283643337469622
 31
0.0
  0
LINE
  8
2
  6
CONTINUOUS
 62
2
 10
-0.932798506637885
 20
0.0782890271682497
 30
0.0
 11
-0.846005562668235
 21
0.165081971137889
 31
0.0
  0
LINE
  8
2
  6
CONTINUOUS
 62
2
 10
-1.05135987296964
 20
0.110057449530379
 30
0.0
 11
-0.932798506637885
 21
0.0782890271682497
 31
0.0
  0
LINE
  8
2
  6
CONTINUOUS
 62
2
 10
-1.08312829533176
 20
0.228618815862148
 30
0.0
 11
-1.05135987296964
 21
0.110057449530379
 31
0.0
  0
LINE
  8
2
  6
CONTINUOUS
 62
2
 10
-0.996335351362134
 20
0.315411759831779
 30
0.0
 11
-1.08312829533176
 21
0.228618815862148
 31
0.0
  0
LINE
  8
2
  6
CONTINUOUS
 62
2
 10
-0.877773985030374
 20
0.283643337469659
 30
0.0
 11
-0.996335351362134
 21
0.315411759831779
 31
0.0
  0
LINE
  8
2
  6
CONTINUOUS
 62
2
 10
-0.846005562668235
 20
0.165081971137889
 30
0.0
 11
-0.877773985030374
 21
0.283643337469659
 31
0.0
  0
LINE
  8
2
  6
CONTINUOUS
 62
2
 10
0.932798506637876
 20
0.0782890271682497
 30
0.0
 11
0.846005562668226
 21
0.165081971137889
 31
0.0
  0
LINE
  8
2
  6
CONTINUOUS
 62
2
 10
1.05135987296964
 20
0.110057449530379
 30
0.0
 11
0.932798506637876
 21
0.0782890271682497
 31
0.0
  0
LINE
  8
2
  6
CONTINUOUS
 62
2
 10
1.08312829533177
 20
0.228618815862148
 30
0.0
 11
1.05135987296964
 21
0.110057449530379
 31
0.0
  0
LINE
  8
2
  6
CONTINUOUS
 62
2
 10
0.996335351362116
 20
0.315411759831779
 30
0.0
 11
1.08312829533177
 21
0.228618815862148
 31
0.0
  0
LINE
  8
2
  6
CONTINUOUS
 62
2
 10
0.877773985030365
 20
0.283643337469659
 30
0.0
 11
0.996335351362116
 21
0.315411759831779
 31
0.0
  0
LINE
  8
2
  6
CONTINUOUS
 62
2
 10
0.846005562668226
 20
0.165081971137889
 30
0.0
 11
0.877773985030365
 21
0.283643337469659
 31
0.0
  0
LINE
  8
2
  6
CONTINUOUS
 62
2
 10
0.932798506637876
 20
-0.0782890271682213
 30
0.0
 11
0.846005562668226
 21
-0.165081971137852
 31
0.0
  0
LINE
  8
2
  6
CONTINUOUS
 62
2
 10
1.05135987296964
 20
-0.110057449530341
 30
0.0
 11
0.932798506637876
 21
-0.0782890271682213
 31
0.0
  0
LINE
  8
2
  6
CONTINUOUS
 62
2
 10
1.08312829533177
 20
-0.228618815862111
 30
0.0
 11
1.05135987296964
 21
-0.110057449530341
 31
0.0
  0
LINE
  8
2
  6
CONTINUOUS
 62
2
 10
0.996335351362116
 20
-0.315411759831742
 30
0.0
 11
1.08312829533177
 21
-0.228618815862111
 31
0.0
  0
LINE
  8
2
  6
CONTINUOUS
 62
2
 10
0.877773985030365
 20
-0.283643337469622
 30
0.0
 11
0.996335351362116
 21
-0.315411759831742
 31
0.0
  0
LINE
  8
2
  6
CONTINUOUS
 62
2
 10
0.846005562668226
 20
-0.165081971137852
 30
0.0
 11
0.877773985030365
 21
-0.283643337469622
 31
0.0
  0
ARC
  8
2
  6
CONTINUOUS
 62
2
 10
1.08267716450001
 20
-0.68897637749997
 30
0.0
 40
0.118110236000001
 50
359.999999999992
 51
180
  0
ARC
  8
2
  6
CONTINUOUS
 62
2
 10
1.08267716450001
 20
-0.688976377499972
 30
0.0
 40
0.118110236000001
 50
179.999999999993
 51
359.999999999993
  0
ARC
  8
4
  6
CONTINUOUS
 62
4
 10
0.964566929000005
 20
0.19685039350002
 30
0.0
 40
0.0669291339999996
 50
359.999999999992
 51
179.999999999998
  0
ARC
  8
4
  6
CONTINUOUS
 62
4
 10
0.964566929000005
 20
0.196850393500019
 30
0.0
 40
0.0669291339999996
 50
179.999999999997
 51
359.999999999998
  0
ARC
  8
4
  6
CONTINUOUS
 62
4
 10
0.964566929000005
 20
-0.196850393499981
 30
0.0
 40
0.0669291339999996
 50
179.999999999995
 51
359.999999999995
  0
ARC
  8
4
  6
CONTINUOUS
 62
4
 10
0.964566929000005
 20
-0.19685039349998
 30
0.0
 40
0.0669291339999996
 50
359.999999999998
 51
180
  0
LINE
  8
4
  6
CONTINUOUS
 62
4
 10
1.18110236150001
 20
-0.984251968500072
 30
0.0
 11
-1.18110236149999
 21
-0.984251968500072
 31
0.0
  0
LINE
  8
4
  6
CONTINUOUS
 62
4
 10
-1.18110236149999
 20
0.984251968499969
 30
0.0
 11
1.18110236150001
 21
0.984251968499969
 31
0.0
  0
LINE
  8
4
  6
CONTINUOUS
 62
4
 10
-1.37795275549999
 20
0.787401574499969
 30
0.0
 11
-1.37795275549999
 21
-0.787401574500072
 31
0.0
  0
LINE
  8
4
  6
CONTINUOUS
 62
4
 10
1.37795275550001
 20
0.787401574499969
 30
0.0
 11
1.37795275550001
 21
-0.787401574500072
 31
0.0
  0
ARC
  8
4
  6
CONTINUOUS
 62
4
 10
-1.18110236150002
 20
0.787401574499968
 30
0.0
 40
0.196850393999999
 50
89.9999999999979
 51
180
  0
ARC
  8
4
  6
CONTINUOUS
 62
4
 10
1.1811023615
 20
0.78740157449997
 30
0.0
 40
0.196850394000001
 50
359.999999999995
 51
89.9999999999986
  0
ARC
  8
4
  6
CONTINUOUS
 62
4
 10
1.18110236150001
 20
-0.787401574500072
 30
0.0
 40
0.196850393999996
 50
269.999999999996
 51
359.999999999996
  0
ARC
  8
4
  6
CONTINUOUS
 62
4
 10
-1.18110236150002
 20
-0.787401574500073
 30
0.0
 40
0.196850394000001
 50
179.999999999993
 51
269.999999999991
  0
LINE
  8
4
  6
CONTINUOUS
 62
4
 10
0.807086613999996
 20
0.0787401579999685
 30
0.0
 11
0.807086613999996
 21
0.370078738726509
 31
0.0
  0
LINE
  8
4
  6
CONTINUOUS
 62
4
 10
1.06496063000001
 20
0.0393700789999691
 30
0.0
 11
0.846456692999996
 21
0.0393700789999691
 31
0.0
  0
LINE
  8
4
  6
CONTINUOUS
 62
4
 10
1.06496063000001
 20
-0.0393700790000313
 30
0.0
 11
0.846456692999996
 21
-0.0393700790000313
 31
0.0
  0
ARC
  8
4
  6
CONTINUOUS
 62
4
 10
1.06496063000001
 20
-3.01980662698043E-14
 30
0.0
 40
0.0393700789999993
 50
270
 51
90
  0
ARC
  8
4
  6
CONTINUOUS
 62
4
 10
0.846456692999996
 20
-0.0787401580000305
 30
0.0
 40
0.039370079000001
 50
89.9999999999996
 51
180
  0
ARC
  8
4
  6
CONTINUOUS
 62
4
 10
0.846456692999996
 20
0.0787401579999689
 30
0.0
 40
0.0393700790000001
 50
179.999999999998
 51
269.999999999997
  0
ARC
  8
4
  6
CONTINUOUS
 62
4
 10
0.793167188728056
 20
0.395529393228039
 30
0.0
 40
0.0196850400000052
 50
334.471220414711
 51
115.528779585308
  0
ARC
  8
4
  6
CONTINUOUS
 62
4
 10
0.767716534226535
 20
0.448818897499969
 30
0.0
 40
0.0393700789999974
 50
269.999999999992
 51
295.528779585294
  0
ARC
  8
4
  6
CONTINUOUS
 62
4
 10
0.846456692999996
 20
0.370078738726508
 30
0.0
 40
0.0393700790000022
 50
154.471220414698
 51
179.999999999999
  0
LINE
  8
4
  6
CONTINUOUS
 62
4
 10
0.807086613999996
 20
-0.0787401580000306
 30
0.0
 11
0.807086613999996
 21
-0.370078738726571
 31
0.0
  0
ARC
  8
4
  6
CONTINUOUS
 62
4
 10
0.793167188728065
 20
-0.395529393228101
 30
0.0
 40
0.0196850399999989
 50
244.471220414695
 51
25.5287795853084
  0
ARC
  8
4
  6
CONTINUOUS
 62
4
 10
0.767716534226535
 20
-0.448818897500031
 30
0.0
 40
0.0393700789999993
 50
64.4712204147
 51
90.0000000000013
  0
ARC
  8
4
  6
CONTINUOUS
 62
4
 10
0.846456692999996
 20
-0.370078738726572
 30
0.0
 40
0.0393700789999978
 50
179.999999999999
 51
205.5287795853
  0
LINE
  8
4
  6
CONTINUOUS
 62
4
 10
-0.767716534226555
 20
0.409448818499969
 30
0.0
 11
0.767716534226525
 21
0.409448818499969
 31
0.0
  0
LINE
  8
4
  6
CONTINUOUS
 62
4
 10
-0.767716534226555
 20
-0.409448818500032
 30
0.0
 11
0.767716534226525
 21
-0.409448818500032
 31
0.0
  0
LINE
  8
4
  6
CONTINUOUS
 62
4
 10
-0.807086614000005
 20
0.0787401579999685
 30
0.0
 11
-0.807086614000005
 21
0.370078738726509
 31
0.0
  0
LINE
  8
4
  6
CONTINUOUS
 62
4
 10
-1.06496063
 20
0.0393700789999691
 30
0.0
 11
-0.846456693000015
 21
0.0393700789999691
 31
0.0
  0
LINE
  8
4
  6
CONTINUOUS
 62
4
 10
-1.06496063
 20
-0.0393700790000313
 30
0.0
 11
-0.846456693000015
 21
-0.0393700790000313
 31
0.0
  0
ARC
  8
4
  6
CONTINUOUS
 62
4
 10
-1.06496063
 20
-3.01980662698043E-14
 30
0.0
 40
0.0393700789999993
 50
90
 51
270
  0
ARC
  8
4
  6
CONTINUOUS
 62
4
 10
-0.846456693000005
 20
-0.0787401580000301
 30
0.0
 40
0.0393700789999992
 50
359.999999999997
 51
90
  0
ARC
  8
4
  6
CONTINUOUS
 62
4
 10
-0.846456693000005
 20
0.0787401579999679
 30
0.0
 40
0.0393700789999988
 50
269.999999999996
 51
359.999999999995
  0
ARC
  8
4
  6
CONTINUOUS
 62
4
 10
-0.793167188728084
 20
0.395529393228038
 30
0.0
 40
0.0196850399999982
 50
64.4712204146925
 51
205.528779585307
  0
ARC
  8
4
  6
CONTINUOUS
 62
4
 10
-0.767716534226545
 20
0.448818897499968
 30
0.0
 40
0.0393700790000041
 50
244.471220414695
 51
269.999999999995
  0
ARC
  8
4
  6
CONTINUOUS
 62
4
 10
-0.846456693000014
 20
0.370078738726509
 30
0.0
 40
0.0393700789999992
 50
359.999999999997
 51
25.5287795852996
  0
LINE
  8
4
  6
CONTINUOUS
 62
4
 10
-0.807086614000005
 20
-0.0787401580000306
 30
0.0
 11
-0.807086614000005
 21
-0.370078738726571
 31
0.0
  0
ARC
  8
4
  6
CONTINUOUS
 62
4
 10
-0.793167188728084
 20
-0.395529393228112
 30
0.0
 40
0.019685039999998
 50
154.471220414683
 51
295.5287795853
  0
ARC
  8
4
  6
CONTINUOUS
 62
4
 10
-0.767716534226554
 20
-0.448818897500041
 30
0.0
 40
0.0393700790000043
 50
90.0000000000028
 51
115.528779585304
  0
ARC
  8
4
  6
CONTINUOUS
 62
4
 10
-0.846456693000015
 20
-0.370078738726581
 30
0.0
 40
0.0393700790000006
 50
334.471220414697
 51
359.999999999999
  0
ARC
  8
4
  6
CONTINUOUS
 62
4
 10
-1.08267716450001
 20
0.68897637749997
 30
0.0
 40
0.0669291339999996
 50
359.999999999992
 51
179.999999999998
  0
ARC
  8
4
  6
CONTINUOUS
 62
4
 10
-1.08267716450001
 20
0.688976377499969
 30
0.0
 40
0.0669291339999996
 50
179.999999999995
 51
359.999999999995
  0
ARC
  8
4
  6
CONTINUOUS
 62
4
 10
1.08267716450001
 20
0.68897637749997
 30
0.0
 40
0.0669291339999996
 50
359.999999999992
 51
179.999999999998
  0
ARC
  8
4
  6
CONTINUOUS
 62
4
 10
1.08267716450001
 20
0.688976377499969
 30
0.0
 40
0.0669291339999996
 50
179.999999999998
 51
359.999999999998
  0
ARC
  8
4
  6
CONTINUOUS
 62
4
 10
1.08267716450001
 20
-0.688976377500071
 30
0.0
 40
0.0669291339999996
 50
179.999999999995
 51
359.999999999995
  0
ARC
  8
4
  6
CONTINUOUS
 62
4
 10
1.08267716450001
 20
-0.68897637750007
 30
0.0
 40
0.0669291339999996
 50
359.999999999992
 51
179.999999999998
  0
ARC
  8
4
  6
CONTINUOUS
 62
4
 10
-1.08267716450001
 20
-0.688976377500071
 30
0.0
 40
0.0669291339999996
 50
179.999999999997
 51
359.999999999998
  0
ARC
  8
4
  6
CONTINUOUS
 62
4
 10
-1.08267716450001
 20
-0.68897637750007
 30
0.0
 40
0.0669291339999996
 50
359.999999999992
 51
179.999999999998
  0
ARC
  8
4
  6
CONTINUOUS
 62
4
 10
-0.964566929000014
 20
0.196850393499971
 30
0.0
 40
0.0669291339999987
 50
359.999999999992
 51
179.999999999998
  0
ARC
  8
4
  6
CONTINUOUS
 62
4
 10
-0.964566929000014
 20
0.196850393499969
 30
0.0
 40
0.0669291339999987
 50
179.999999999995
 51
359.999999999995
  0
ARC
  8
4
  6
CONTINUOUS
 62
4
 10
-0.964566929000014
 20
-0.196850393500031
 30
0.0
 40
0.0669291339999987
 50
179.999999999998
 51
359.999999999998
  0
ARC
  8
4
  6
CONTINUOUS
 62
4
 10
-0.964566929000014
 20
-0.19685039350003
 30
0.0
 40
0.0669291339999987
 50
359.999999999992
 51
179.999999999998
  0
ENDSEC
  0
EOF
