  0
SECTION
  2
HEADER
  9
$ACADVER
  1
AC1003
  9
$EXTMIN
 10
1.48117416062908
 20
0.593221010709248
  9
$EXTMAX
 10
3.73602468345695
 20
-0.641562350257674
  9
$INSUNITS
 70
1
  9
$INSBASE
 10
2.60859942204301
 20
-0.0241706697742133
999
Created with OMAX LAYOUT for Windows. (www.omax.com) 3/8/2024
  0
ENDSEC
  0
SECTION
  2
TABLES
  0
TABLE
  2
LAYER
 70
    10
  0
LAYER
  2
0
 70
     0
 62
     7
  6
CONTINUOUS
  0
LAYER
  2
1
 70
     0
 62
     7
  6
CONTINUOUS
  0
LAYER
  2
2
 70
     0
 62
     7
  6
CONTINUOUS
  0
LAYER
  2
3
 70
     0
 62
     7
  6
CONTINUOUS
  0
LAYER
  2
4
 70
     0
 62
     7
  6
CONTINUOUS
  0
LAYER
  2
5
 70
     0
 62
     7
  6
CONTINUOUS
  0
LAYER
  2
6
 70
     0
 62
     7
  6
CONTINUOUS
  0
LAYER
  2
7
 70
     0
 62
     7
  6
CONTINUOUS
  0
LAYER
  2
8
 70
     0
 62
     7
  6
CONTINUOUS
  0
LAYER
  2
9
 70
     0
 62
     7
  6
CONTINUOUS
  0
LAYER
  2
10
 70
     0
 62
     7
  6
CONTINUOUS
  0
LAYER
  2
11
 70
     0
 62
     7
  6
CONTINUOUS
  0
LAYER
  2
12
 70
     0
 62
     7
  6
CONTINUOUS
  0
LAYER
  2
13
 70
     0
 62
     7
  6
CONTINUOUS
  0
LAYER
  2
14
 70
     0
 62
     7
  6
CONTINUOUS
  0
LAYER
  2
15
 70
     0
 62
     7
  6
CONTINUOUS
  0
LAYER
  2
16
 70
     0
 62
     7
  6
CONTINUOUS
  0
LAYER
  2
17
 70
     0
 62
     7
  6
CONTINUOUS
  0
LAYER
  2
18
 70
     0
 62
     7
  6
CONTINUOUS
  0
LAYER
  2
19
 70
     0
 62
     7
  6
CONTINUOUS
  0
LAYER
  2
20
 70
     0
 62
     7
  6
CONTINUOUS
  0
LAYER
  2
21
 70
     0
 62
     7
  6
CONTINUOUS
  0
LAYER
  2
22
 70
     0
 62
     7
  6
CONTINUOUS
  0
LAYER
  2
23
 70
     0
 62
     7
  6
CONTINUOUS
  0
LAYER
  2
24
 70
     0
 62
     7
  6
CONTINUOUS
  0
LAYER
  2
25
 70
     0
 62
     7
  6
CONTINUOUS
  0
LAYER
  2
26
 70
     0
 62
     7
  6
CONTINUOUS
  0
LAYER
  2
27
 70
     0
 62
     7
  6
CONTINUOUS
  0
LAYER
  2
28
 70
     0
 62
     7
  6
CONTINUOUS
  0
LAYER
  2
29
 70
     0
 62
     7
  6
CONTINUOUS
  0
LAYER
  2
30
 70
     0
 62
     7
  6
CONTINUOUS
  0
LAYER
  2
31
 70
     0
 62
     7
  6
CONTINUOUS
  0
ENDTAB
  0
ENDSEC
  0
SECTION
  2
ENTITIES
  0
LINE
  8
6
  6
CONTINUOUS
 62
6
 10
2.18602441517582
 20
0.063506134576766
 30
0.0
 11
2.31962550729678
 21
0.0635061345767256
 31
0.0
  0
LINE
  8
6
  6
CONTINUOUS
 62
6
 10
2.56551479480742
 20
0.0635061345767256
 30
0.0
 11
2.69911588692838
 21
0.0635061345766859
 31
0.0
  0
LINE
  8
6
  6
CONTINUOUS
 62
6
 10
2.18602441517586
 20
-0.015234023023234
 30
0.0
 11
2.31962550729686
 21
-0.0152340230232744
 31
0.0
  0
LINE
  8
6
  6
CONTINUOUS
 62
6
 10
2.69911588692834
 20
-0.0152340230231942
 30
0.0
 11
2.56551479480738
 21
-0.0152340230232744
 31
0.0
  0
ARC
  8
6
  6
CONTINUOUS
 62
6
 10
2.18602441517582
 20
-0.0546041018232344
 30
0.0
 40
0.0393700787999997
 50
89.9999999999804
 51
179.999999999999
  0
ARC
  8
6
  6
CONTINUOUS
 62
6
 10
2.31962550729678
 20
0.102876213376726
 30
0.0
 40
0.0393700787999994
 50
269.999999999976
 51
2.54444374517081E-13
  0
ARC
  8
6
  6
CONTINUOUS
 62
6
 10
2.69911588692838
 20
0.102876213376685
 30
0.0
 40
0.0393700787999994
 50
269.999999999971
 51
360
  0
ARC
  8
6
  6
CONTINUOUS
 62
6
 10
2.56551479480738
 20
-0.054604101823274
 30
0.0
 40
0.0393700787999997
 50
90.0000000000339
 51
179.999999999999
  0
LINE
  8
6
  6
CONTINUOUS
 62
6
 10
3.23922461866543
 20
-0.580835498358794
 30
0.0
 11
3.23529827633082
 21
-0.580835500634634
 31
0.0
  0
ARC
  8
6
  6
CONTINUOUS
 62
6
 10
3.2352982033065
 20
-0.454851248634635
 30
0.0
 40
0.125984252
 50
270.000033210384
 51
346.775434130484
  0
ARC
  8
6
  6
CONTINUOUS
 62
6
 10
1.81391424850246
 20
-0.308728426355757
 30
0.0
 40
0.332740087873384
 50
179.999999999998
 51
359.999999999998
  0
LINE
  8
6
  6
CONTINUOUS
 62
6
 10
1.48117416062911
 20
-0.308728426355714
 30
0.0
 11
1.48118094841154
 21
-0.230064198572674
 31
0.0
  0
LINE
  8
6
  6
CONTINUOUS
 62
6
 10
1.55992110571842
 20
-0.151330835306914
 30
0.0
 11
1.55991555262975
 21
-0.151330835306914
 31
0.0
  0
LINE
  8
6
  6
CONTINUOUS
 62
6
 10
1.63865571022974
 20
-0.308728426355714
 30
0.0
 11
1.63865571022974
 21
-0.230070992906914
 31
0.0
  0
ARC
  8
6
  6
CONTINUOUS
 62
6
 10
1.81391733521395
 20
-0.308728426355756
 30
0.0
 40
0.175261624984213
 50
179.999999999998
 51
359.999999999998
  0
LINE
  8
6
  6
CONTINUOUS
 62
6
 10
1.98917896019814
 20
-0.308728426355714
 30
0.0
 11
1.98917402145982
 21
0.514480853109206
 31
0.0
  0
LINE
  8
6
  6
CONTINUOUS
 62
6
 10
2.43773574369682
 20
0.593221010709246
 30
0.0
 11
2.44740455840734
 21
0.593221010709246
 31
0.0
  0
LINE
  8
6
  6
CONTINUOUS
 62
6
 10
2.43773574369686
 20
-0.641562350257674
 30
0.0
 11
2.4474045584075
 21
-0.641562350257674
 31
0.0
  0
LINE
  8
6
  6
CONTINUOUS
 62
6
 10
3.51211177724554
 20
0.172370669199806
 30
0.0
 11
3.35794146717862
 21
-0.483672448796794
 31
0.0
  0
LINE
  8
6
  6
CONTINUOUS
 62
6
 10
2.96241120812318
 20
0.172365306208126
 30
0.0
 11
3.11658132441886
 21
-0.483672628008514
 31
0.0
  0
LINE
  8
6
  6
CONTINUOUS
 62
6
 10
2.9002543402123
 20
-0.562822192657634
 30
0.0
 11
2.90025434021226
 21
0.165159960841446
 31
0.0
  0
LINE
  8
6
  6
CONTINUOUS
 62
6
 10
2.81722612332834
 20
-0.641562350257634
 30
0.0
 11
2.82151418261218
 21
-0.641562350257634
 31
0.0
  0
LINE
  8
6
  6
CONTINUOUS
 62
6
 10
2.73848596572838
 20
-0.0546041018231938
 30
0.0
 11
2.73848596572838
 21
-0.562822192657634
 31
0.0
  0
LINE
  8
6
  6
CONTINUOUS
 62
6
 10
2.86447021772838
 20
0.593221010709246
 30
0.0
 11
2.91756876811318
 21
0.593221010709246
 31
0.0
  0
LINE
  8
6
  6
CONTINUOUS
 62
6
 10
3.04061612379986
 20
0.494280797063686
 30
0.0
 11
3.20417549324778
 21
-0.249896076395594
 31
0.0
  0
LINE
  8
6
  6
CONTINUOUS
 62
6
 10
3.43349567658726
 20
0.494925026550166
 30
0.0
 11
3.26566333011102
 21
-0.250057133766154
 31
0.0
  0
LINE
  8
6
  6
CONTINUOUS
 62
6
 10
3.55639966991526
 20
0.593221010709246
 30
0.0
 11
3.61004043145695
 21
0.593221010709246
 31
0.0
  0
LINE
  8
6
  6
CONTINUOUS
 62
6
 10
3.73602468345695
 20
0.467236758709246
 30
0.0
 11
3.73602468345695
 21
-0.562822192657674
 31
0.0
  0
LINE
  8
6
  6
CONTINUOUS
 62
6
 10
3.65728452585695
 20
-0.641562350257674
 30
0.0
 11
3.65300881341894
 21
-0.641562350257674
 31
0.0
  0
LINE
  8
6
  6
CONTINUOUS
 62
6
 10
3.57426865581887
 20
-0.562822192657674
 30
0.0
 11
3.57426865581891
 21
0.165165369205046
 31
0.0
  0
LINE
  8
6
  6
CONTINUOUS
 62
6
 10
2.52614471600738
 20
0.514480853109246
 30
0.0
 11
2.52614471600742
 21
0.102876213376726
 31
0.0
  0
LINE
  8
6
  6
CONTINUOUS
 62
6
 10
2.35899558609682
 20
-0.562822192657674
 30
0.0
 11
2.35899558609686
 21
-0.0546041018232741
 31
0.0
  0
LINE
  8
6
  6
CONTINUOUS
 62
6
 10
2.14665433637587
 20
-0.308728426355714
 30
0.0
 11
2.14665433637583
 21
-0.0546041018232344
 31
0.0
  0
LINE
  8
6
  6
CONTINUOUS
 62
6
 10
2.35899558609682
 20
0.514480853109246
 30
0.0
 11
2.35899558609678
 21
0.102876213376726
 31
0.0
  0
LINE
  8
6
  6
CONTINUOUS
 62
6
 10
2.52614471600742
 20
-0.562822192657674
 30
0.0
 11
2.52614471600738
 21
-0.0546041018232741
 31
0.0
  0
LINE
  8
6
  6
CONTINUOUS
 62
6
 10
2.73848596572838
 20
0.102876213376685
 30
0.0
 11
2.73848596572838
 21
0.467236758709246
 31
0.0
  0
ARC
  8
6
  6
CONTINUOUS
 62
6
 10
1.55992110571838
 20
-0.230070992906914
 30
0.0
 40
0.0787401575999993
 50
89.999999999983
 51
179.995056059198
  0
ARC
  8
6
  6
CONTINUOUS
 62
6
 10
1.55991555262975
 20
-0.230070992906914
 30
0.0
 40
0.0787401576000006
 50
1.0813885916976E-13
 51
89.9999999999979
  0
ARC
  8
6
  6
CONTINUOUS
 62
6
 10
2.06791417905983
 20
0.514480853109207
 30
0.0
 40
0.078740157599999
 50
90.0000000000068
 51
180
  0
ARC
  8
6
  6
CONTINUOUS
 62
6
 10
2.06791417877587
 20
0.514480853109207
 30
0.0
 40
0.0787401575999995
 50
359.999999999999
 51
90.0000000000483
  0
ARC
  8
6
  6
CONTINUOUS
 62
6
 10
2.43773574369682
 20
-0.562822192657675
 30
0.0
 40
0.0787401575999999
 50
180
 51
270.000000000012
  0
ARC
  8
6
  6
CONTINUOUS
 62
6
 10
2.44740455840742
 20
-0.562822192657674
 30
0.0
 40
0.078740157599999
 50
270.000000000069
 51
5.72499842663433E-13
  0
ARC
  8
6
  6
CONTINUOUS
 62
6
 10
2.43773574369682
 20
0.514480853109246
 30
0.0
 40
0.0787401576000002
 50
89.999999999989
 51
179.999999999999
  0
ARC
  8
6
  6
CONTINUOUS
 62
6
 10
2.44740455840738
 20
0.514480853109247
 30
0.0
 40
0.0787401576000004
 50
359.999999999998
 51
90.0000000000311
  0
ARC
  8
6
  6
CONTINUOUS
 62
6
 10
2.31962550729687
 20
-0.0546041018232742
 30
0.0
 40
0.0393700788000007
 50
1.7174995279903E-13
 51
89.9999999999849
  0
ARC
  8
6
  6
CONTINUOUS
 62
6
 10
2.56551479480742
 20
0.102876213376726
 30
0.0
 40
0.039370078800001
 50
180
 51
269.999999999996
  0
ARC
  8
6
  6
CONTINUOUS
 62
6
 10
2.69911588692838
 20
-0.0546041018231922
 30
0.0
 40
0.039370078799999
 50
359.999999999996
 51
90.000000000037
  0
ARC
  8
6
  6
CONTINUOUS
 62
6
 10
2.81722612332838
 20
-0.562822192657635
 30
0.0
 40
0.0787401576000007
 50
179.999999999999
 51
269.99999999997
  0
ARC
  8
6
  6
CONTINUOUS
 62
6
 10
2.8215141826123
 20
-0.562822192657634
 30
0.0
 40
0.0787401576000007
 50
269.999999999935
 51
360
  0
ARC
  8
6
  6
CONTINUOUS
 62
6
 10
2.86447021772838
 20
0.467236758709246
 30
0.0
 40
0.125984252
 50
90.0000000000021
 51
179.999999999999
  0
ARC
  8
6
  6
CONTINUOUS
 62
6
 10
2.91756876811318
 20
0.467236758709247
 30
0.0
 40
0.125984252
 50
12.3957015401787
 51
90.0000000000002
  0
ARC
  8
6
  6
CONTINUOUS
 62
6
 10
3.55639966991526
 20
0.467236758709245
 30
0.0
 40
0.125984252000002
 50
89.999999999996
 51
167.304145227542
  0
ARC
  8
6
  6
CONTINUOUS
 62
6
 10
3.61004043145695
 20
0.467236758709247
 30
0.0
 40
0.125984252000001
 50
360
 51
90.000000000001
  0
ARC
  8
6
  6
CONTINUOUS
 62
6
 10
3.65728452585695
 20
-0.562822192657673
 30
0.0
 40
0.0787401576000008
 50
269.999999999983
 51
359.999999999999
  0
ARC
  8
6
  6
CONTINUOUS
 62
6
 10
3.65300881341886
 20
-0.562822192657674
 30
0.0
 40
0.0787401576000004
 50
180
 51
270.000000000033
  0
ARC
  8
6
  6
CONTINUOUS
 62
6
 10
2.93175040301226
 20
0.165159960841446
 30
0.0
 40
0.0314960628000003
 50
13.2246506558382
 51
179.999999999999
  0
ARC
  8
6
  6
CONTINUOUS
 62
6
 10
3.5427725930189
 20
0.165165369205046
 30
0.0
 40
0.0314960627999995
 50
360
 51
166.775434130484
  0
ARC
  8
6
  6
CONTINUOUS
 62
6
 10
3.2349373319741
 20
-0.243135066849914
 30
0.0
 40
0.0314960627999989
 50
192.395701540174
 51
269.999999999995
  0
ARC
  8
6
  6
CONTINUOUS
 62
6
 10
3.23922454564127
 20
-0.454851246358794
 30
0.0
 40
0.125984252000001
 50
193.224650655839
 51
270.000033210323
  0
LINE
  8
6
  6
CONTINUOUS
 62
6
 10
2.14665433637587
 20
0.514480853109206
 30
0.0
 11
2.14665433637583
 21
0.102876213376766
 31
0.0
  0
ARC
  8
6
  6
CONTINUOUS
 62
6
 10
2.18602441517582
 20
0.102876213376765
 30
0.0
 40
0.0393700787999998
 50
180
 51
269.999999999974
  0
ARC
  8
6
  6
CONTINUOUS
 62
6
 10
3.23493733197411
 20
-0.243135066849914
 30
0.0
 40
0.031496062800002
 50
269.999999999999
 51
347.304145227542
  0
ENDSEC
  0
EOF
