  0
SECTION
  2
HEADER
  9
$ACADVER
  1
AC1003
  9
$EXTMIN
 10
-0.984252156000001
 20
1.54733004455063
  9
$EXTMAX
 10
1.45435933961239
 20
-1.80425038511097
  9
$INSUNITS
 70
1
  9
$INSBASE
 10
0.235053591806194
 20
-0.128460170280168
999
Created with OMAX LAYOUT for Windows. (www.omax.com) 1/5/2024
  0
ENDSEC
  0
SECTION
  2
TABLES
  0
TABLE
  2
LAYER
 70
    10
  0
LAYER
  2
0
 70
     0
 62
     7
  6
CONTINUOUS
  0
LAYER
  2
1
 70
     0
 62
     7
  6
CONTINUOUS
  0
LAYER
  2
2
 70
     0
 62
     7
  6
CONTINUOUS
  0
LAYER
  2
3
 70
     0
 62
     7
  6
CONTINUOUS
  0
LAYER
  2
4
 70
     0
 62
     7
  6
CONTINUOUS
  0
LAYER
  2
5
 70
     0
 62
     7
  6
CONTINUOUS
  0
LAYER
  2
6
 70
     0
 62
     7
  6
CONTINUOUS
  0
LAYER
  2
7
 70
     0
 62
     7
  6
CONTINUOUS
  0
LAYER
  2
8
 70
     0
 62
     7
  6
CONTINUOUS
  0
LAYER
  2
9
 70
     0
 62
     7
  6
CONTINUOUS
  0
LAYER
  2
10
 70
     0
 62
     7
  6
CONTINUOUS
  0
LAYER
  2
11
 70
     0
 62
     7
  6
CONTINUOUS
  0
LAYER
  2
12
 70
     0
 62
     7
  6
CONTINUOUS
  0
LAYER
  2
13
 70
     0
 62
     7
  6
CONTINUOUS
  0
LAYER
  2
14
 70
     0
 62
     7
  6
CONTINUOUS
  0
LAYER
  2
15
 70
     0
 62
     7
  6
CONTINUOUS
  0
LAYER
  2
16
 70
     0
 62
     7
  6
CONTINUOUS
  0
LAYER
  2
17
 70
     0
 62
     7
  6
CONTINUOUS
  0
LAYER
  2
18
 70
     0
 62
     7
  6
CONTINUOUS
  0
LAYER
  2
19
 70
     0
 62
     7
  6
CONTINUOUS
  0
LAYER
  2
20
 70
     0
 62
     7
  6
CONTINUOUS
  0
LAYER
  2
21
 70
     0
 62
     7
  6
CONTINUOUS
  0
LAYER
  2
22
 70
     0
 62
     7
  6
CONTINUOUS
  0
LAYER
  2
23
 70
     0
 62
     7
  6
CONTINUOUS
  0
LAYER
  2
24
 70
     0
 62
     7
  6
CONTINUOUS
  0
LAYER
  2
25
 70
     0
 62
     7
  6
CONTINUOUS
  0
LAYER
  2
26
 70
     0
 62
     7
  6
CONTINUOUS
  0
LAYER
  2
27
 70
     0
 62
     7
  6
CONTINUOUS
  0
LAYER
  2
28
 70
     0
 62
     7
  6
CONTINUOUS
  0
LAYER
  2
29
 70
     0
 62
     7
  6
CONTINUOUS
  0
LAYER
  2
30
 70
     0
 62
     7
  6
CONTINUOUS
  0
LAYER
  2
31
 70
     0
 62
     7
  6
CONTINUOUS
  0
ENDTAB
  0
ENDSEC
  0
SECTION
  2
ENTITIES
  0
LINE
  8
1
  6
CONTINUOUS
 62
1
 10
-0.549829406000001
 20
1.54733004454951
 30
0.0
 11
-0.549829406000001
 21
1.33224800264705
 31
0.0
  0
LINE
  8
1
  6
CONTINUOUS
 62
1
 10
-0.517079156000001
 20
1.54733004454951
 30
0.0
 11
-0.549829406000001
 21
1.54733004454951
 31
0.0
  0
LINE
  8
1
  6
CONTINUOUS
 62
1
 10
-0.517079156000001
 20
1.29731004454951
 30
0.0
 11
-0.517079156000001
 21
1.54733004454951
 31
0.0
  0
LINE
  8
1
  6
CONTINUOUS
 62
1
 10
-0.570576656000001
 20
1.29731004454951
 30
0.0
 11
-0.517079156000001
 21
1.29731004454951
 31
0.0
  0
LINE
  8
1
  6
CONTINUOUS
 62
1
 10
-0.636084156000001
 20
1.50693254454951
 30
0.0
 11
-0.570576656000001
 21
1.29731004454951
 31
0.0
  0
LINE
  8
1
  6
CONTINUOUS
 62
1
 10
-0.636084156000001
 20
1.29731004454951
 30
0.0
 11
-0.636084156000001
 21
1.50693254454951
 31
0.0
  0
LINE
  8
1
  6
CONTINUOUS
 62
1
 10
-0.668836656000001
 20
1.29731004454951
 30
0.0
 11
-0.636084156000001
 21
1.29731004454951
 31
0.0
  0
LINE
  8
1
  6
CONTINUOUS
 62
1
 10
-0.668836656000001
 20
1.54733004454951
 30
0.0
 11
-0.668836656000001
 21
1.29731004454951
 31
0.0
  0
LINE
  8
1
  6
CONTINUOUS
 62
1
 10
-0.615339156000001
 20
1.54733004454951
 30
0.0
 11
-0.668836656000001
 21
1.54733004454951
 31
0.0
  0
LINE
  8
1
  6
CONTINUOUS
 62
1
 10
-0.549829406000001
 20
1.33224800264705
 30
0.0
 11
-0.615339156000001
 21
1.54733004454951
 31
0.0
  0
LINE
  8
1
  6
CONTINUOUS
 62
1
 10
-0.952365156000001
 20
1.36470254454951
 30
0.0
 11
-0.952365156000001
 21
1.48231254454951
 31
0.0
  0
ARC
  8
1
  6
CONTINUOUS
 62
1
 10
-0.916878906000001
 20
1.36470254454951
 30
0.0
 40
0.0354862499999999
 50
179.999999999996
 51
359.999999999996
  0
LINE
  8
1
  6
CONTINUOUS
 62
1
 10
-0.849507906000001
 20
1.36470254454951
 30
0.0
 11
-0.881392656000001
 21
1.36470254454951
 31
0.0
  0
ARC
  8
1
  6
CONTINUOUS
 62
1
 10
-0.916880031000001
 20
1.3647025445495
 30
0.0
 40
0.0673721250000003
 50
179.999999999998
 51
269.999999999996
  0
LINE
  8
1
  6
CONTINUOUS
 62
1
 10
-0.984251906000001
 20
1.47995754454951
 30
0.0
 11
-0.984252031000001
 21
1.42233004454951
 31
0.0
  0
ARC
  8
1
  6
CONTINUOUS
 62
1
 10
-0.916879656000001
 20
1.47995754454951
 30
0.0
 40
0.06737225
 50
359.999999999996
 51
180
  0
LINE
  8
1
  6
CONTINUOUS
 62
1
 10
-0.881392656000001
 20
1.47995754454951
 30
0.0
 11
-0.849507406000001
 21
1.47995754454951
 31
0.0
  0
ARC
  8
1
  6
CONTINUOUS
 62
1
 10
-0.916878906000001
 20
1.47995754454951
 30
0.0
 40
0.0354862499999999
 50
359.999999999996
 51
180
  0
LINE
  8
1
  6
CONTINUOUS
 62
1
 10
-0.724032406000001
 20
1.47995754454951
 30
0.0
 11
-0.724032406000001
 21
1.42233004454951
 31
0.0
  0
ARC
  8
1
  6
CONTINUOUS
 62
1
 10
-0.759518531000001
 20
1.47995754454951
 30
0.0
 40
0.035486125
 50
359.999999999996
 51
180
  0
LINE
  8
1
  6
CONTINUOUS
 62
1
 10
-0.795004656000001
 20
1.36470254454951
 30
0.0
 11
-0.795004656000001
 21
1.47995754454951
 31
0.0
  0
ARC
  8
1
  6
CONTINUOUS
 62
1
 10
-0.759518136700873
 20
1.36470211855305
 30
0.0
 40
0.0354865193016852
 50
179.99931219517
 51
255.521838354123
  0
LINE
  8
1
  6
CONTINUOUS
 62
1
 10
-0.768390156000001
 20
1.29791504454951
 30
0.0
 11
-0.768390156000001
 21
1.33034254454951
 31
0.0
  0
ARC
  8
1
  6
CONTINUOUS
 62
1
 10
-0.759518427371284
 20
1.36470160283695
 30
0.0
 40
0.0673732286352975
 50
179.999199145474
 51
262.433297341485
  0
LINE
  8
1
  6
CONTINUOUS
 62
1
 10
-0.826891906000001
 20
1.47995754454951
 30
0.0
 11
-0.826891656000001
 21
1.36470254454951
 31
0.0
  0
ARC
  8
1
  6
CONTINUOUS
 62
1
 10
-0.759519531000001
 20
1.47995754454951
 30
0.0
 40
0.067372375
 50
359.999999999996
 51
180
  0
LINE
  8
1
  6
CONTINUOUS
 62
1
 10
-0.692147156000001
 20
1.36470254454951
 30
0.0
 11
-0.692147156000001
 21
1.47995754454951
 31
0.0
  0
ARC
  8
1
  6
CONTINUOUS
 62
1
 10
-0.759520520430084
 20
1.36470148930208
 30
0.0
 40
0.0673733644383494
 50
277.568305134342
 51
0.000897405439901234
  0
LINE
  8
1
  6
CONTINUOUS
 62
1
 10
-0.750646906000001
 20
1.33034254454951
 30
0.0
 11
-0.750646906000001
 21
1.29791504454951
 31
0.0
  0
ARC
  8
1
  6
CONTINUOUS
 62
1
 10
-0.759519009283245
 20
1.36470192540915
 30
0.0
 40
0.0354863532886468
 50
284.478370904534
 51
0.000999655530544228
  0
LINE
  8
1
  6
CONTINUOUS
 62
1
 10
-0.724032406000001
 20
1.42233004454951
 30
0.0
 11
-0.724032656000001
 21
1.36470254454951
 31
0.0
  0
ARC
  8
1
  6
CONTINUOUS
 62
1
 10
-0.916880030999997
 20
1.36470254454951
 30
0.0
 40
0.0673721249999997
 50
269.999999999996
 51
359.999999999998
  0
LINE
  8
1
  6
CONTINUOUS
 62
1
 10
-0.984252031000001
 20
1.42233004454951
 30
0.0
 11
-0.984252156000001
 21
1.36470254454951
 31
0.0
  0
LINE
  8
2
  6
CONTINUOUS
 62
2
 10
-0.376248655999998
 20
1.54733004454951
 30
0.0
 11
-0.416098635259368
 21
1.33552455916652
 31
0.0
  0
LINE
  8
2
  6
CONTINUOUS
 62
2
 10
-0.342402155999998
 20
1.54733004454951
 30
0.0
 11
-0.376248655999998
 21
1.54733004454951
 31
0.0
  0
LINE
  8
2
  6
CONTINUOUS
 62
2
 10
-0.396992406000001
 20
1.29731004454951
 30
0.0
 11
-0.342402155999998
 21
1.54733004454951
 31
0.0
  0
LINE
  8
2
  6
CONTINUOUS
 62
2
 10
-0.439571655999998
 20
1.29731004454951
 30
0.0
 11
-0.396992406000001
 21
1.29731004454951
 31
0.0
  0
LINE
  8
2
  6
CONTINUOUS
 62
2
 10
-0.493069906000001
 20
1.54733004454951
 30
0.0
 11
-0.439571655999998
 21
1.29731004454951
 31
0.0
  0
LINE
  8
2
  6
CONTINUOUS
 62
2
 10
-0.457039905999998
 20
1.54733004454951
 30
0.0
 11
-0.493069906000001
 21
1.54733004454951
 31
0.0
  0
LINE
  8
2
  6
CONTINUOUS
 62
2
 10
-0.416098635259368
 20
1.33552455916652
 30
0.0
 11
-0.457039905999998
 21
1.54733004454951
 31
0.0
  0
LINE
  8
2
  6
CONTINUOUS
 62
2
 10
-0.284547906000001
 20
1.43924254454951
 30
0.0
 11
-0.284547906000001
 21
1.51894254454951
 31
0.0
  0
LINE
  8
2
  6
CONTINUOUS
 62
2
 10
-0.210306656000001
 20
1.43924254454951
 30
0.0
 11
-0.284547906000001
 21
1.43924254454951
 31
0.0
  0
LINE
  8
2
  6
CONTINUOUS
 62
2
 10
-0.210306656000001
 20
1.41085754454951
 30
0.0
 11
-0.210306656000001
 21
1.43924254454951
 31
0.0
  0
LINE
  8
2
  6
CONTINUOUS
 62
2
 10
-0.284547906000001
 20
1.41085754454951
 30
0.0
 11
-0.210306656000001
 21
1.41085754454951
 31
0.0
  0
LINE
  8
2
  6
CONTINUOUS
 62
2
 10
-0.284547906000001
 20
1.32569754454951
 30
0.0
 11
-0.284547906000001
 21
1.41085754454951
 31
0.0
  0
LINE
  8
2
  6
CONTINUOUS
 62
2
 10
-0.203755655999998
 20
1.32569754454951
 30
0.0
 11
-0.284547906000001
 21
1.32569754454951
 31
0.0
  0
LINE
  8
2
  6
CONTINUOUS
 62
2
 10
-0.203755655999998
 20
1.29731004454951
 30
0.0
 11
-0.203755655999998
 21
1.32569754454951
 31
0.0
  0
LINE
  8
2
  6
CONTINUOUS
 62
2
 10
-0.318393905999996
 20
1.29731004454951
 30
0.0
 11
-0.203755655999998
 21
1.29731004454951
 31
0.0
  0
LINE
  8
2
  6
CONTINUOUS
 62
2
 10
-0.318393905999996
 20
1.54733004454951
 30
0.0
 11
-0.318393905999996
 21
1.29731004454951
 31
0.0
  0
LINE
  8
2
  6
CONTINUOUS
 62
2
 10
-0.205939655999998
 20
1.54733004454951
 30
0.0
 11
-0.318393905999996
 21
1.54733004454951
 31
0.0
  0
LINE
  8
2
  6
CONTINUOUS
 62
2
 10
-0.205939655999998
 20
1.51894254454951
 30
0.0
 11
-0.205939655999998
 21
1.54733004454951
 31
0.0
  0
LINE
  8
2
  6
CONTINUOUS
 62
2
 10
-0.284547906000001
 20
1.51894254454951
 30
0.0
 11
-0.205939655999998
 21
1.51894254454951
 31
0.0
  0
LINE
  8
2
  6
CONTINUOUS
 62
2
 10
-0.148085405999998
 20
1.46708004454951
 30
0.0
 11
-0.148085405999998
 21
1.51758004454951
 31
0.0
  0
LINE
  8
2
  6
CONTINUOUS
 62
2
 10
-0.181930905999998
 20
1.46708004454951
 30
0.0
 11
-0.148085405999998
 21
1.46708004454951
 31
0.0
  0
LINE
  8
2
  6
CONTINUOUS
 62
2
 10
-0.181930905999998
 20
1.54733004454951
 30
0.0
 11
-0.181930905999998
 21
1.46708004454951
 31
0.0
  0
LINE
  8
2
  6
CONTINUOUS
 62
2
 10
-0.110991655999998
 20
1.54733004454951
 30
0.0
 11
-0.181930905999998
 21
1.54733004454951
 31
0.0
  0
ARC
  8
2
  6
CONTINUOUS
 62
2
 10
-0.110991259218475
 20
1.4774580645506
 30
0.0
 40
0.0698719800000368
 50
302.855260347104
 51
90.00032536514
  0
ARC
  8
2
  6
CONTINUOUS
 62
2
 10
-0.118883842450248
 20
1.37157275405035
 30
0.0
 40
0.0657606623028908
 50
8.61652018159662
 51
45.8566098051224
  0
LINE
  8
2
  6
CONTINUOUS
 62
2
 10
-0.0411184059999982
 20
1.29731004454951
 30
0.0
 11
-0.0538654059999982
 21
1.38142504454951
 31
0.0
  0
LINE
  8
2
  6
CONTINUOUS
 62
2
 10
-0.0708656559999984
 20
1.29731004454951
 30
0.0
 11
-0.0411184059999982
 21
1.29731004454951
 31
0.0
  0
LINE
  8
2
  6
CONTINUOUS
 62
2
 10
-0.0832989059999983
 20
1.37711504454951
 30
0.0
 11
-0.0708656559999984
 21
1.29731004454951
 31
0.0
  0
ARC
  8
2
  6
CONTINUOUS
 62
2
 10
-0.118881275793271
 20
1.37157083416075
 30
0.0
 40
0.0360117107194299
 50
8.85623894301868
 51
90.0077645644683
  0
LINE
  8
2
  6
CONTINUOUS
 62
2
 10
-0.148085405999998
 20
1.40758004454951
 30
0.0
 11
-0.118886155999998
 21
1.40758254454951
 31
0.0
  0
LINE
  8
2
  6
CONTINUOUS
 62
2
 10
-0.148085405999998
 20
1.29731004454951
 30
0.0
 11
-0.148085405999998
 21
1.40758004454951
 31
0.0
  0
LINE
  8
2
  6
CONTINUOUS
 62
2
 10
-0.181930905999998
 20
1.29731004454951
 30
0.0
 11
-0.148085405999998
 21
1.29731004454951
 31
0.0
  0
LINE
  8
2
  6
CONTINUOUS
 62
2
 10
-0.181930905999998
 20
1.43733004454951
 30
0.0
 11
-0.181930905999998
 21
1.29731004454951
 31
0.0
  0
LINE
  8
2
  6
CONTINUOUS
 62
2
 10
-0.110991156000001
 20
1.43733004454951
 30
0.0
 11
-0.181930905999998
 21
1.43733004454951
 31
0.0
  0
ARC
  8
2
  6
CONTINUOUS
 62
2
 10
-0.110991156
 20
1.47745504454951
 30
0.0
 40
0.0401249999999996
 50
269.999999999996
 51
359.999999999997
  0
ARC
  8
2
  6
CONTINUOUS
 62
2
 10
-0.110991156000001
 20
1.47745504454951
 30
0.0
 40
0.0401249999999996
 50
359.999999999996
 51
89.9999999999994
  0
LINE
  8
2
  6
CONTINUOUS
 62
2
 10
-0.148085405999998
 20
1.51758004454951
 30
0.0
 11
-0.110991156000001
 21
1.51758004454951
 31
0.0
  0
ARC
  8
3
  6
CONTINUOUS
 62
3
 10
0.0495642165989042
 20
1.47995831082746
 30
0.0
 40
0.0673708726032604
 50
180.000651683599
 51
243.183935420124
  0
ARC
  8
3
  6
CONTINUOUS
 62
3
 10
0.0495657190000017
 20
1.47995754454951
 30
0.0
 40
0.067372375
 50
359.999999999996
 51
180
  0
LINE
  8
3
  6
CONTINUOUS
 62
3
 10
0.0850523440000016
 20
1.47995754454951
 30
0.0
 11
0.116938094000002
 21
1.47995754454951
 31
0.0
  0
ARC
  8
3
  6
CONTINUOUS
 62
3
 10
0.0495660940000017
 20
1.47995754454951
 30
0.0
 40
0.0354862499999999
 50
359.999999999996
 51
180
  0
ARC
  8
3
  6
CONTINUOUS
 62
3
 10
0.0495682713535567
 20
1.47995658836447
 30
0.0
 40
0.0354884273664355
 50
179.998456246975
 51
243.182376586103
  0
LINE
  8
3
  6
CONTINUOUS
 62
3
 10
0.0799615940000017
 20
1.42483004454951
 30
0.0
 11
0.0335575940000018
 21
1.44828504454951
 31
0.0
  0
ARC
  8
3
  6
CONTINUOUS
 62
3
 10
0.0495648571375916
 20
1.36470414278494
 30
0.0
 40
0.0673727368813657
 50
359.99864081305
 51
63.1810545244014
  0
ARC
  8
3
  6
CONTINUOUS
 62
3
 10
0.0495655940000016
 20
1.36470254454951
 30
0.0
 40
0.067372
 50
179.999999999997
 51
359.999999999998
  0
LINE
  8
3
  6
CONTINUOUS
 62
3
 10
0.0140795940000017
 20
1.36470254454951
 30
0.0
 11
-0.0178064059999983
 21
1.36470254454951
 31
0.0
  0
ARC
  8
3
  6
CONTINUOUS
 62
3
 10
0.0495657190000017
 20
1.36470254454951
 30
0.0
 40
0.035486125
 50
179.999999999996
 51
359.999999999996
  0
ARC
  8
3
  6
CONTINUOUS
 62
3
 10
0.0495663583685917
 20
1.36470318903505
 30
0.0
 40
0.0354854856372635
 50
359.998959397038
 51
63.1839407382828
  0
LINE
  8
3
  6
CONTINUOUS
 62
3
 10
0.0191713440000018
 20
1.41983254454951
 30
0.0
 11
0.0655748440000018
 21
1.39637254454951
 31
0.0
  0
LINE
  8
3
  6
CONTINUOUS
 62
3
 10
0.219950844000002
 20
1.51567004454951
 30
0.0
 11
0.247850071916677
 21
1.38247004454951
 31
0.0
  0
LINE
  8
3
  6
CONTINUOUS
 62
3
 10
0.173003844000004
 20
1.29731004454951
 30
0.0
 11
0.219950844000002
 21
1.51567004454951
 31
0.0
  0
LINE
  8
3
  6
CONTINUOUS
 62
3
 10
0.140250344000002
 20
1.29731004454951
 30
0.0
 11
0.173003844000004
 21
1.29731004454951
 31
0.0
  0
LINE
  8
3
  6
CONTINUOUS
 62
3
 10
0.198115094000002
 20
1.54733004454951
 30
0.0
 11
0.140250344000002
 21
1.29731004454951
 31
0.0
  0
LINE
  8
3
  6
CONTINUOUS
 62
3
 10
0.243969844000002
 20
1.54733004454951
 30
0.0
 11
0.198115094000002
 21
1.54733004454951
 31
0.0
  0
LINE
  8
3
  6
CONTINUOUS
 62
3
 10
0.301835343999999
 20
1.29731004454951
 30
0.0
 11
0.243969844000002
 21
1.54733004454951
 31
0.0
  0
LINE
  8
3
  6
CONTINUOUS
 62
3
 10
0.265805844000002
 20
1.29731004454951
 30
0.0
 11
0.301835343999999
 21
1.29731004454951
 31
0.0
  0
LINE
  8
3
  6
CONTINUOUS
 62
3
 10
0.253796094000002
 20
1.35408504454951
 30
0.0
 11
0.265805844000002
 21
1.29731004454951
 31
0.0
  0
LINE
  8
3
  6
CONTINUOUS
 62
3
 10
0.202482094000004
 20
1.35408504454951
 30
0.0
 11
0.253796094000002
 21
1.35408504454951
 31
0.0
  0
LINE
  8
3
  6
CONTINUOUS
 62
3
 10
0.208488094000002
 20
1.38247004454951
 30
0.0
 11
0.202482094000004
 21
1.35408504454951
 31
0.0
  0
LINE
  8
3
  6
CONTINUOUS
 62
3
 10
0.247850071916677
 20
1.38247004454951
 30
0.0
 11
0.208488094000002
 21
1.38247004454951
 31
0.0
  0
LINE
  8
3
  6
CONTINUOUS
 62
3
 10
0.417554343999999
 20
1.29731004454951
 30
0.0
 11
0.417554343999999
 21
1.51894254454951
 31
0.0
  0
LINE
  8
3
  6
CONTINUOUS
 62
3
 10
0.383708844000002
 20
1.29731004454951
 30
0.0
 11
0.417554343999999
 21
1.29731004454951
 31
0.0
  0
LINE
  8
3
  6
CONTINUOUS
 62
3
 10
0.383708844000002
 20
1.51894254454951
 30
0.0
 11
0.383708844000002
 21
1.29731004454951
 31
0.0
  0
LINE
  8
3
  6
CONTINUOUS
 62
3
 10
0.325843594000002
 20
1.51894254454951
 30
0.0
 11
0.383708844000002
 21
1.51894254454951
 31
0.0
  0
LINE
  8
3
  6
CONTINUOUS
 62
3
 10
0.325843594000002
 20
1.54733004454951
 30
0.0
 11
0.325843594000002
 21
1.51894254454951
 31
0.0
  0
LINE
  8
3
  6
CONTINUOUS
 62
3
 10
0.476510843999999
 20
1.54733004454951
 30
0.0
 11
0.325843594000002
 21
1.54733004454951
 31
0.0
  0
LINE
  8
3
  6
CONTINUOUS
 62
3
 10
0.476510843999999
 20
1.51894254454951
 30
0.0
 11
0.476510843999999
 21
1.54733004454951
 31
0.0
  0
LINE
  8
3
  6
CONTINUOUS
 62
3
 10
0.417554343999999
 20
1.51894254454951
 30
0.0
 11
0.476510843999999
 21
1.51894254454951
 31
0.0
  0
LINE
  8
4
  6
CONTINUOUS
 62
4
 10
0.500517344000002
 20
1.54733004454951
 30
0.0
 11
0.500517344000002
 21
1.42232004454951
 31
0.0
  0
LINE
  8
4
  6
CONTINUOUS
 62
4
 10
0.534361844000002
 20
1.54733004454951
 30
0.0
 11
0.500517344000002
 21
1.54733004454951
 31
0.0
  0
LINE
  8
4
  6
CONTINUOUS
 62
4
 10
0.534361844000002
 20
1.29731004454951
 30
0.0
 11
0.534361844000002
 21
1.54733004454951
 31
0.0
  0
LINE
  8
4
  6
CONTINUOUS
 62
4
 10
0.500517344000002
 20
1.29731004454951
 30
0.0
 11
0.534361844000002
 21
1.29731004454951
 31
0.0
  0
LINE
  8
4
  6
CONTINUOUS
 62
4
 10
0.500517344000002
 20
1.42232004454951
 30
0.0
 11
0.500517344000002
 21
1.29731004454951
 31
0.0
  0
LINE
  8
4
  6
CONTINUOUS
 62
4
 10
0.660531594000002
 20
1.47995754454951
 30
0.0
 11
0.660531594000002
 21
1.42233004454951
 31
0.0
  0
ARC
  8
4
  6
CONTINUOUS
 62
4
 10
0.625045469000002
 20
1.47995754454951
 30
0.0
 40
0.035486125
 50
359.999999999996
 51
180
  0
LINE
  8
4
  6
CONTINUOUS
 62
4
 10
0.589559344000002
 20
1.36470254454951
 30
0.0
 11
0.589559344000002
 21
1.47995754454951
 31
0.0
  0
ARC
  8
4
  6
CONTINUOUS
 62
4
 10
0.625045863299129
 20
1.36470211855305
 30
0.0
 40
0.0354865193016853
 50
179.99931219517
 51
255.521838354123
  0
LINE
  8
4
  6
CONTINUOUS
 62
4
 10
0.616173844000002
 20
1.29791504454951
 30
0.0
 11
0.616173844000002
 21
1.33034254454951
 31
0.0
  0
ARC
  8
4
  6
CONTINUOUS
 62
4
 10
0.625045572628719
 20
1.36470160283695
 30
0.0
 40
0.0673732286352976
 50
179.999199145474
 51
262.433297341485
  0
LINE
  8
4
  6
CONTINUOUS
 62
4
 10
0.557672094000002
 20
1.47995754454951
 30
0.0
 11
0.557672344000002
 21
1.36470254454951
 31
0.0
  0
ARC
  8
4
  6
CONTINUOUS
 62
4
 10
0.625044469000002
 20
1.47995754454951
 30
0.0
 40
0.0673723749999999
 50
359.999999999996
 51
180
  0
LINE
  8
4
  6
CONTINUOUS
 62
4
 10
0.692416844000002
 20
1.36470254454951
 30
0.0
 11
0.692416844000002
 21
1.47995754454951
 31
0.0
  0
ARC
  8
4
  6
CONTINUOUS
 62
4
 10
0.625043479569917
 20
1.36470148930208
 30
0.0
 40
0.0673733644383494
 50
277.568305134342
 51
0.000897405439869429
  0
LINE
  8
4
  6
CONTINUOUS
 62
4
 10
0.633917094000002
 20
1.33034254454951
 30
0.0
 11
0.633917094000002
 21
1.29791504454951
 31
0.0
  0
ARC
  8
4
  6
CONTINUOUS
 62
4
 10
0.625044990716757
 20
1.36470192540915
 30
0.0
 40
0.0354863532886466
 50
284.478370904532
 51
0.000999655530054423
  0
LINE
  8
4
  6
CONTINUOUS
 62
4
 10
0.660531594000002
 20
1.42233004454951
 30
0.0
 11
0.660531344000002
 21
1.36470254454951
 31
0.0
  0
LINE
  8
4
  6
CONTINUOUS
 62
4
 10
0.834734594000002
 20
1.54733004454951
 30
0.0
 11
0.834734594000002
 21
1.33224800264705
 31
0.0
  0
LINE
  8
4
  6
CONTINUOUS
 62
4
 10
0.867484844000002
 20
1.54733004454951
 30
0.0
 11
0.834734594000002
 21
1.54733004454951
 31
0.0
  0
LINE
  8
4
  6
CONTINUOUS
 62
4
 10
0.867484844000002
 20
1.29731004454951
 30
0.0
 11
0.867484844000002
 21
1.54733004454951
 31
0.0
  0
LINE
  8
4
  6
CONTINUOUS
 62
4
 10
0.813987344000002
 20
1.29731004454951
 30
0.0
 11
0.867484844000002
 21
1.29731004454951
 31
0.0
  0
LINE
  8
4
  6
CONTINUOUS
 62
4
 10
0.748479844000002
 20
1.50693254454951
 30
0.0
 11
0.813987344000002
 21
1.29731004454951
 31
0.0
  0
LINE
  8
4
  6
CONTINUOUS
 62
4
 10
0.748479844000002
 20
1.29731004454951
 30
0.0
 11
0.748479844000002
 21
1.50693254454951
 31
0.0
  0
LINE
  8
4
  6
CONTINUOUS
 62
4
 10
0.715727344000002
 20
1.29731004454951
 30
0.0
 11
0.748479844000002
 21
1.29731004454951
 31
0.0
  0
LINE
  8
4
  6
CONTINUOUS
 62
4
 10
0.715727344000002
 20
1.54733004454951
 30
0.0
 11
0.715727344000002
 21
1.29731004454951
 31
0.0
  0
LINE
  8
4
  6
CONTINUOUS
 62
4
 10
0.769224844000002
 20
1.54733004454951
 30
0.0
 11
0.715727344000002
 21
1.54733004454951
 31
0.0
  0
LINE
  8
4
  6
CONTINUOUS
 62
4
 10
0.834734594000002
 20
1.33224800264705
 30
0.0
 11
0.769224844000002
 21
1.54733004454951
 31
0.0
  0
LINE
  8
5
  6
CONTINUOUS
 62
5
 10
1.20129858961238
 20
1.47995754454951
 30
0.0
 11
1.20129858961238
 21
1.42233004454951
 31
0.0
  0
ARC
  8
5
  6
CONTINUOUS
 62
5
 10
1.16581246461238
 20
1.47995754454951
 30
0.0
 40
0.0354861249999998
 50
359.999999999996
 51
180
  0
LINE
  8
5
  6
CONTINUOUS
 62
5
 10
1.13032633961238
 20
1.36470254454951
 30
0.0
 11
1.13032633961238
 21
1.47995754454951
 31
0.0
  0
ARC
  8
5
  6
CONTINUOUS
 62
5
 10
1.1658128671147
 20
1.36470212490706
 30
0.0
 40
0.0354865275047986
 50
179.999322454377
 51
255.521828094918
  0
LINE
  8
5
  6
CONTINUOUS
 62
5
 10
1.15694083961238
 20
1.29791754454951
 30
0.0
 11
1.15694083961238
 21
1.33034254454951
 31
0.0
  0
ARC
  8
5
  6
CONTINUOUS
 62
5
 10
1.1658112662346
 20
1.3647027101363
 30
0.0
 40
0.0673716766224201
 50
180.000140822151
 51
262.434239018162
  0
LINE
  8
5
  6
CONTINUOUS
 62
5
 10
1.09843908961238
 20
1.47995754454951
 30
0.0
 11
1.09843958961238
 21
1.36470254454951
 31
0.0
  0
ARC
  8
5
  6
CONTINUOUS
 62
5
 10
1.16581146461238
 20
1.47995754454951
 30
0.0
 40
0.0673723750000002
 50
359.999999999996
 51
180
  0
LINE
  8
5
  6
CONTINUOUS
 62
5
 10
1.23318383961238
 20
1.36470254454951
 30
0.0
 11
1.23318383961238
 21
1.47995754454951
 31
0.0
  0
ARC
  8
5
  6
CONTINUOUS
 62
5
 10
1.16581190222664
 20
1.36470273930208
 30
0.0
 40
0.0673719373860311
 50
277.567242103553
 51
359.999834374648
  0
LINE
  8
5
  6
CONTINUOUS
 62
5
 10
1.17468408961238
 20
1.33034254454951
 30
0.0
 11
1.17468408961238
 21
1.29791754454951
 31
0.0
  0
ARC
  8
5
  6
CONTINUOUS
 62
5
 10
1.16581196171962
 20
1.36470194447096
 30
0.0
 40
0.0354863778978356
 50
284.478401682145
 51
0.000968877919308648
  0
LINE
  8
5
  6
CONTINUOUS
 62
5
 10
1.20129858961238
 20
1.42233004454951
 30
0.0
 11
1.20129833961238
 21
1.36470254454951
 31
0.0
  0
LINE
  8
5
  6
CONTINUOUS
 62
5
 10
1.25651433961238
 20
1.33712004454951
 30
0.0
 11
1.25651433961238
 21
1.31722504454951
 31
0.0
  0
LINE
  8
5
  6
CONTINUOUS
 62
5
 10
1.29630458961238
 20
1.33712004454951
 30
0.0
 11
1.25651433961238
 21
1.33712004454951
 31
0.0
  0
LINE
  8
5
  6
CONTINUOUS
 62
5
 10
1.29630458961238
 20
1.29733004454951
 30
0.0
 11
1.29630458961238
 21
1.33712004454951
 31
0.0
  0
LINE
  8
5
  6
CONTINUOUS
 62
5
 10
1.25651433961238
 20
1.29733004454951
 30
0.0
 11
1.29630458961238
 21
1.29733004454951
 31
0.0
  0
LINE
  8
5
  6
CONTINUOUS
 62
5
 10
1.25651433961238
 20
1.31722504454951
 30
0.0
 11
1.25651433961238
 21
1.29733004454951
 31
0.0
  0
LINE
  8
5
  6
CONTINUOUS
 62
5
 10
1.42247408961238
 20
1.47995754454951
 30
0.0
 11
1.42247408961238
 21
1.42233004454951
 31
0.0
  0
ARC
  8
5
  6
CONTINUOUS
 62
5
 10
1.38698796461238
 20
1.47995754454951
 30
0.0
 40
0.0354861249999998
 50
359.999999999996
 51
180
  0
LINE
  8
5
  6
CONTINUOUS
 62
5
 10
1.35150183961238
 20
1.36470254454951
 30
0.0
 11
1.35150183961238
 21
1.47995754454951
 31
0.0
  0
ARC
  8
5
  6
CONTINUOUS
 62
5
 10
1.3869883671147
 20
1.36470212490706
 30
0.0
 40
0.0354865275047986
 50
179.999322454377
 51
255.521828094918
  0
LINE
  8
5
  6
CONTINUOUS
 62
5
 10
1.37811633961238
 20
1.29791754454951
 30
0.0
 11
1.37811633961238
 21
1.33034254454951
 31
0.0
  0
ARC
  8
5
  6
CONTINUOUS
 62
5
 10
1.3869867662346
 20
1.3647027101363
 30
0.0
 40
0.0673716766224201
 50
180.000140822151
 51
262.434239018162
  0
LINE
  8
5
  6
CONTINUOUS
 62
5
 10
1.31961458961238
 20
1.47995754454951
 30
0.0
 11
1.31961508961238
 21
1.36470254454951
 31
0.0
  0
ARC
  8
5
  6
CONTINUOUS
 62
5
 10
1.38698696461238
 20
1.47995754454951
 30
0.0
 40
0.0673723750000002
 50
359.999999999996
 51
180
  0
LINE
  8
5
  6
CONTINUOUS
 62
5
 10
1.45435933961238
 20
1.36470254454951
 30
0.0
 11
1.45435933961238
 21
1.42233004454951
 31
0.0
  0
ARC
  8
5
  6
CONTINUOUS
 62
5
 10
1.38698740222664
 20
1.36470273930208
 30
0.0
 40
0.0673719373860311
 50
277.567242103553
 51
359.999834374648
  0
LINE
  8
5
  6
CONTINUOUS
 62
5
 10
1.39585958961238
 20
1.33034254454951
 30
0.0
 11
1.39585958961238
 21
1.29791754454951
 31
0.0
  0
ARC
  8
5
  6
CONTINUOUS
 62
5
 10
1.38698746171962
 20
1.36470194447096
 30
0.0
 40
0.0354863778978356
 50
284.478401682145
 51
0.000968877919308648
  0
LINE
  8
5
  6
CONTINUOUS
 62
5
 10
1.42247408961238
 20
1.42233004454951
 30
0.0
 11
1.42247383961238
 21
1.36470254454951
 31
0.0
  0
LINE
  8
5
  6
CONTINUOUS
 62
5
 10
1.04471089309791
 20
1.42234041954951
 30
0.0
 11
1.02478590346823
 21
1.31643767685801
 31
0.0
  0
LINE
  8
5
  6
CONTINUOUS
 62
5
 10
1.06163414309791
 20
1.42234041954951
 30
0.0
 11
1.04471089309791
 21
1.42234041954951
 31
0.0
  0
LINE
  8
5
  6
CONTINUOUS
 62
5
 10
1.03433901809791
 20
1.29733041954951
 30
0.0
 11
1.06163414309791
 21
1.42234041954951
 31
0.0
  0
LINE
  8
5
  6
CONTINUOUS
 62
5
 10
1.01304939309791
 20
1.29733041954951
 30
0.0
 11
1.03433901809791
 21
1.29733041954951
 31
0.0
  0
LINE
  8
5
  6
CONTINUOUS
 62
5
 10
0.986300268097912
 20
1.42234041954951
 30
0.0
 11
1.01304939309791
 21
1.29733041954951
 31
0.0
  0
LINE
  8
5
  6
CONTINUOUS
 62
5
 10
1.00431526809791
 20
1.42234041954951
 30
0.0
 11
0.986300268097912
 21
1.42234041954951
 31
0.0
  0
LINE
  8
5
  6
CONTINUOUS
 62
5
 10
1.02478590346823
 20
1.31643767685801
 30
0.0
 11
1.00431526809791
 21
1.42234041954951
 31
0.0
  0
LINE
  8
5
  6
CONTINUOUS
 62
5
 10
1.45435933961238
 20
1.42233004454951
 30
0.0
 11
1.45435933961238
 21
1.47995754454951
 31
0.0
  0
ENDSEC
  0
EOF
