  0
SECTION
  2
HEADER
  9
$ACADVER
  1
AC1003
  9
$EXTMIN
 10
-2.84238141312868
 20
3.08731398441452
  9
$EXTMAX
 10
3.22998545438697
 20
-3.08731398436734
  9
$INSUNITS
 70
1
  9
$INSBASE
 10
0.193802020629145
 20
2.35911290502599E-11
999
Created with OMAX LAYOUT for Windows. (www.omax.com) 1/5/2024
  0
ENDSEC
  0
SECTION
  2
TABLES
  0
TABLE
  2
LAYER
 70
    10
  0
LAYER
  2
0
 70
     0
 62
     7
  6
CONTINUOUS
  0
LAYER
  2
1
 70
     0
 62
     7
  6
CONTINUOUS
  0
LAYER
  2
2
 70
     0
 62
     7
  6
CONTINUOUS
  0
LAYER
  2
3
 70
     0
 62
     7
  6
CONTINUOUS
  0
LAYER
  2
4
 70
     0
 62
     7
  6
CONTINUOUS
  0
LAYER
  2
5
 70
     0
 62
     7
  6
CONTINUOUS
  0
LAYER
  2
6
 70
     0
 62
     7
  6
CONTINUOUS
  0
LAYER
  2
7
 70
     0
 62
     7
  6
CONTINUOUS
  0
LAYER
  2
8
 70
     0
 62
     7
  6
CONTINUOUS
  0
LAYER
  2
9
 70
     0
 62
     7
  6
CONTINUOUS
  0
LAYER
  2
10
 70
     0
 62
     7
  6
CONTINUOUS
  0
LAYER
  2
11
 70
     0
 62
     7
  6
CONTINUOUS
  0
LAYER
  2
12
 70
     0
 62
     7
  6
CONTINUOUS
  0
LAYER
  2
13
 70
     0
 62
     7
  6
CONTINUOUS
  0
LAYER
  2
14
 70
     0
 62
     7
  6
CONTINUOUS
  0
LAYER
  2
15
 70
     0
 62
     7
  6
CONTINUOUS
  0
LAYER
  2
16
 70
     0
 62
     7
  6
CONTINUOUS
  0
LAYER
  2
17
 70
     0
 62
     7
  6
CONTINUOUS
  0
LAYER
  2
18
 70
     0
 62
     7
  6
CONTINUOUS
  0
LAYER
  2
19
 70
     0
 62
     7
  6
CONTINUOUS
  0
LAYER
  2
20
 70
     0
 62
     7
  6
CONTINUOUS
  0
LAYER
  2
21
 70
     0
 62
     7
  6
CONTINUOUS
  0
LAYER
  2
22
 70
     0
 62
     7
  6
CONTINUOUS
  0
LAYER
  2
23
 70
     0
 62
     7
  6
CONTINUOUS
  0
LAYER
  2
24
 70
     0
 62
     7
  6
CONTINUOUS
  0
LAYER
  2
25
 70
     0
 62
     7
  6
CONTINUOUS
  0
LAYER
  2
26
 70
     0
 62
     7
  6
CONTINUOUS
  0
LAYER
  2
27
 70
     0
 62
     7
  6
CONTINUOUS
  0
LAYER
  2
28
 70
     0
 62
     7
  6
CONTINUOUS
  0
LAYER
  2
29
 70
     0
 62
     7
  6
CONTINUOUS
  0
LAYER
  2
30
 70
     0
 62
     7
  6
CONTINUOUS
  0
LAYER
  2
31
 70
     0
 62
     7
  6
CONTINUOUS
  0
ENDTAB
  0
ENDSEC
  0
SECTION
  2
ENTITIES
  0
LINE
  8
0
  6
CONTINUOUS
 62
0
 10
-0.67584927605393
 20
0.905987681623681
 30
0.0
 11
-0.63237481710044
 21
0.631500750584521
 31
0.0
  0
ARC
  8
0
  6
CONTINUOUS
 62
0
 10
-0.826801655107598
 20
0.600706564659542
 30
0.0
 40
0.196850393
 50
279.000000000896
 51
9.00000000090365
  0
LINE
  8
0
  6
CONTINUOUS
 62
0
 10
-1.07049440021063
 20
0.362805267700631
 30
0.0
 11
-0.79600746918264
 21
0.406279726652351
 31
0.0
  0
LINE
  8
0
  6
CONTINUOUS
 62
0
 10
-1.12187885102528
 20
0.331316835742251
 30
0.0
 11
-1.32896856098921
 21
0.0462823030243307
 31
0.0
  0
LINE
  8
0
  6
CONTINUOUS
 62
0
 10
-1.12187885103117
 20
-0.331316835757969
 30
0.0
 11
-1.32896856098755
 21
-0.0462823030718393
 31
0.0
  0
ARC
  8
0
  6
CONTINUOUS
 62
0
 10
-1.26526643583667
 20
-2.37587796658723E-11
 30
0.0
 40
0.0787401570000007
 50
143.999999999737
 51
216.000000000263
  0
ARC
  8
0
  6
CONTINUOUS
 62
0
 10
-1.05817672587192
 20
0.285034532695301
 30
0.0
 40
0.078740156999999
 50
99.0000000009041
 51
144.00000000076
  0
LINE
  8
0
  6
CONTINUOUS
 62
0
 10
-1.07049440021539
 20
-0.362805267714519
 30
0.0
 11
-0.79600746918584
 21
-0.406279726656439
 31
0.0
  0
ARC
  8
0
  6
CONTINUOUS
 62
0
 10
-0.82680165510388
 20
-0.600706564664696
 30
0.0
 40
0.196850393
 50
351.000000001129
 51
81.0000000011379
  0
LINE
  8
0
  6
CONTINUOUS
 62
0
 10
-0.67584927603751
 20
-0.905987681612309
 30
0.0
 11
-0.6323748170956
 21
-0.631500750582769
 31
0.0
  0
LINE
  8
0
  6
CONTINUOUS
 62
0
 10
-0.66178066618368
 20
-0.964587658997139
 30
0.0
 11
-0.45469095621103
 21
-1.24962219170872
 31
0.0
  0
LINE
  8
0
  6
CONTINUOUS
 62
0
 10
-0.0315785949878
 20
-1.1693527245388
 30
0.0
 11
-0.36665678440435
 21
-1.27822622806813
 31
0.0
  0
ARC
  8
0
  6
CONTINUOUS
 62
0
 10
-0.390988831059076
 20
-1.20333988865982
 30
0.0
 40
0.0787401569999996
 50
216.000000000986
 51
288.00000000151
  0
ARC
  8
0
  6
CONTINUOUS
 62
0
 10
-0.59807854103173
 20
-0.918305355948254
 30
0.0
 40
0.0787401570000003
 50
171.000000001131
 51
216.000000000985
  0
LINE
  8
0
  6
CONTINUOUS
 62
0
 10
0.0142473519609299
 20
-1.13021366835481
 30
0.0
 11
0.14041514585099
 21
-0.882595430595089
 31
0.0
  0
ARC
  8
0
  6
CONTINUOUS
 62
0
 10
0.315810130305175
 20
-0.971963638882878
 30
0.0
 40
0.196850393
 50
63.0000000013721
 51
153.000000001374
  0
LINE
  8
0
  6
CONTINUOUS
 62
0
 10
0.65279657635268
 20
-0.922736448318749
 30
0.0
 11
0.40517833859297
 21
-0.796568654428689
 31
0.0
  0
LINE
  8
0
  6
CONTINUOUS
 62
0
 10
0.71287590623136
 20
-0.927464794123699
 30
0.0
 11
1.04795409567713
 21
-0.818591290586769
 31
0.0
  0
LINE
  8
0
  6
CONTINUOUS
 62
0
 10
1.10236220601099
 20
-0.391382892836649
 30
0.0
 11
1.10236220602277
 21
-0.743704951175929
 31
0.0
  0
ARC
  8
0
  6
CONTINUOUS
 62
0
 10
1.02362204902277
 20
-0.743704951178339
 30
0.0
 40
0.0787401570000002
 50
288.00000000122
 51
1.75123885205126E-9
  0
ARC
  8
0
  6
CONTINUOUS
 62
0
 10
0.688543859577016
 20
-0.85257845471527
 30
0.0
 40
0.0787401569999986
 50
243.000000001362
 51
288.000000001216
  0
LINE
  8
0
  6
CONTINUOUS
 62
0
 10
1.07929974797582
 20
-0.335705193868699
 30
0.0
 11
0.88278880185593
 21
-0.139194247759839
 31
0.0
  0
ARC
  8
0
  6
CONTINUOUS
 62
0
 10
1.02198304961765
 20
9.69102575965053E-12
 30
0.0
 40
0.196850393
 50
135
 51
225
  0
LINE
  8
0
  6
CONTINUOUS
 62
0
 10
1.07929974795797
 20
0.335705193900111
 30
0.0
 11
0.88278880184812
 21
0.139194247779231
 31
0.0
  0
LINE
  8
0
  6
CONTINUOUS
 62
0
 10
1.10236220599001
 20
0.391382892866951
 30
0.0
 11
1.10236220598102
 21
0.743704951237781
 31
0.0
  0
LINE
  8
0
  6
CONTINUOUS
 62
0
 10
0.71287590620796
 20
0.927464794154381
 30
0.0
 11
1.04795409563117
 21
0.818591290645571
 31
0.0
  0
ARC
  8
0
  6
CONTINUOUS
 62
0
 10
1.02362204898102
 20
0.743704951235781
 30
0.0
 40
0.0787401570000002
 50
1.45920668230865E-9
 51
72.0000000019851
  0
ARC
  8
0
  6
CONTINUOUS
 62
0
 10
1.02362204899001
 20
0.391382892864951
 30
0.0
 40
0.0787401570000007
 50
315.000000001602
 51
1.4592321267461E-9
  0
LINE
  8
0
  6
CONTINUOUS
 62
0
 10
0.65279657632955
 20
0.922736448346051
 30
0.0
 11
0.40517833857691
 21
0.796568654442091
 31
0.0
  0
ARC
  8
0
  6
CONTINUOUS
 62
0
 10
0.315810130279286
 20
0.971963638891241
 30
0.0
 40
0.196850393
 50
207.00000000183
 51
297.00000000183
  0
LINE
  8
0
  6
CONTINUOUS
 62
0
 10
0.0142473519261501
 20
1.13021366834626
 30
0.0
 11
0.14041514583011
 21
0.882595430593621
 31
0.0
  0
LINE
  8
0
  6
CONTINUOUS
 62
0
 10
-0.0315785950247798
 20
1.16935272452767
 30
0.0
 11
-0.36665678447611
 21
1.27822622804751
 31
0.0
  0
LINE
  8
0
  6
CONTINUOUS
 62
0
 10
-0.66178066620314
 20
0.964587659007721
 30
0.0
 11
-0.45469095628119
 21
1.24962219168316
 31
0.0
  0
ARC
  8
0
  6
CONTINUOUS
 62
0
 10
-0.39098883112664
 20
1.20333988863783
 30
0.0
 40
0.0787401570000002
 50
72.0000000016933
 51
144.000000002222
  0
ARC
  8
0
  6
CONTINUOUS
 62
0
 10
-0.0559106416753203
 20
1.094466385118
 30
0.0
 40
0.0787401569999994
 50
27.0000000018395
 51
72.0000000016936
  0
ARC
  8
0
  6
CONTINUOUS
 62
0
 10
-1.05817672587946
 20
-0.285034532708754
 30
0.0
 40
0.0787401569999999
 50
216.000000001276
 51
261.000000001132
  0
ARC
  8
0
  6
CONTINUOUS
 62
0
 10
-0.0559106416425361
 20
-1.09446638513049
 30
0.0
 40
0.0787401570000003
 50
288.000000001511
 51
333.000000001367
  0
ARC
  8
0
  6
CONTINUOUS
 62
0
 10
1.02362204901099
 20
-0.391382892836644
 30
0.0
 40
0.0787401570000001
 50
359.999999999991
 51
45.000000001606
  0
ARC
  8
0
  6
CONTINUOUS
 62
0
 10
0.68854385955781
 20
0.852578454744581
 30
0.0
 40
0.0787401570000014
 50
72.0000000019852
 51
117.000000001842
  0
ARC
  8
0
  6
CONTINUOUS
 62
0
 10
-0.59807854104859
 20
0.918305355962391
 30
0.0
 40
0.0787401570000007
 50
144.000000002222
 51
189.000000000906
  0
LINE
  8
0
  6
CONTINUOUS
 62
0
 10
1.74652933968738
 20
-1.27999790796379
 30
0.0
 11
1.75705759840065
 21
-1.26550700301627
 31
0.0
  0
LINE
  8
0
  6
CONTINUOUS
 62
0
 10
-0.66060802364275
 20
-2.06212424889466
 30
0.0
 11
-0.67764310408364
 21
-2.05658921573279
 31
0.0
  0
ARC
  8
0
  6
CONTINUOUS
 62
0
 10
-0.702284671351241
 20
-2.13137427765683
 30
0.0
 40
0.0787401569999993
 50
71.7630248736339
 51
148.011054346991
  0
ARC
  8
0
  6
CONTINUOUS
 62
0
 10
-0.68463013344362
 20
-2.1371105847506
 30
0.0
 40
0.0787401570000002
 50
355.988945652876
 51
72.2369751281478
  0
ARC
  8
0
  6
CONTINUOUS
 62
0
 10
-2.1489041571198
 20
-0.391306099861698
 30
0.0
 40
0.31496063
 50
103.988945652655
 51
171.000000001432
  0
ARC
  8
0
  6
CONTINUOUS
 62
0
 10
-1.03620211991365
 20
-1.92280906667957
 30
0.0
 40
0.31496063
 50
261.000000000842
 51
328.011054346985
  0
LINE
  8
0
  6
CONTINUOUS
 62
0
 10
-1.08547281757183
 20
-2.2338920086778
 30
0.0
 11
-1.31163920819503
 21
-2.19807077148216
 31
0.0
  0
LINE
  8
0
  6
CONTINUOUS
 62
0
 10
-1.55549241379795
 20
-2.34673373008983
 30
0.0
 11
-1.37023918557993
 21
-2.21213938133569
 31
0.0
  0
ARC
  8
0
  6
CONTINUOUS
 62
0
 10
-1.74062162716782
 20
-2.09192522786307
 30
0.0
 40
0.314960630000002
 50
216.000000000689
 51
306.000000000694
  0
LINE
  8
0
  6
CONTINUOUS
 62
0
 10
-1.9954301293946
 20
-2.27705444123292
 30
0.0
 11
-2.13002447814126
 21
-2.09180121302519
 31
0.0
  0
LINE
  8
0
  6
CONTINUOUS
 62
0
 10
-2.4075753195695
 20
-2.02449154387767
 30
0.0
 11
-2.1814089289583
 21
-2.06031278106786
 31
0.0
  0
ARC
  8
0
  6
CONTINUOUS
 62
0
 10
-2.35830462191608
 20
-1.71340860187869
 30
0.0
 40
0.314960630000001
 50
171.000000001714
 51
261.000000001713
  0
LINE
  8
0
  6
CONTINUOUS
 62
0
 10
-2.66938756391507
 20
-1.66413790422526
 30
0.0
 11
-2.63356632672288
 21
-1.43797151360152
 31
0.0
  0
LINE
  8
0
  6
CONTINUOUS
 62
0
 10
-2.78222928533429
 20
-1.19411830800088
 30
0.0
 11
-2.64763493657731
 21
-1.37937153621683
 31
0.0
  0
ARC
  8
0
  6
CONTINUOUS
 62
0
 10
-2.52742078311035
 20
-1.00898909462712
 30
0.0
 40
0.31496063
 50
126.000000001579
 51
216.000000001579
  0
LINE
  8
0
  6
CONTINUOUS
 62
0
 10
-2.71254999648412
 20
-0.754180592403179
 30
0.0
 11
-2.52729676826816
 21
-0.619586243646199
 31
0.0
  0
LINE
  8
0
  6
CONTINUOUS
 62
0
 10
-2.45998709911853
 20
-0.342035402206689
 30
0.0
 11
-2.49580833631187
 21
-0.568201792830258
 31
0.0
  0
ARC
  8
0
  6
CONTINUOUS
 62
0
 10
-1.32395688253136
 20
-2.27584150648787
 30
0.0
 40
0.0787401570000013
 50
81.0000000008459
 51
126.000000000701
  0
ARC
  8
0
  6
CONTINUOUS
 62
0
 10
-2.19372660329344
 20
-2.13808351607376
 30
0.0
 40
0.0787401569999984
 50
36.0000000006983
 51
81.0000000017227
  0
ARC
  8
0
  6
CONTINUOUS
 62
0
 10
-2.71133706172878
 20
-1.42565383926638
 30
0.0
 40
0.0787401569999992
 50
351.000000001715
 51
36.0000000015766
  0
ARC
  8
0
  6
CONTINUOUS
 62
0
 10
-2.57357907131771
 20
-0.555884118494714
 30
0.0
 40
0.0787401569999983
 50
306.000000001572
 51
351.000000001425
  0
ARC
  8
0
  6
CONTINUOUS
 62
0
 10
1.81003949709824
 20
-1.32654328614501
 30
0.0
 40
0.0787401569999997
 50
143.76302487386
 51
220.011054347216
  0
ARC
  8
0
  6
CONTINUOUS
 62
0
 10
-0.29189368768466
 20
-2.16464953638358
 30
0.0
 40
0.314960630000001
 50
175.988945652878
 51
243.000000001655
  0
ARC
  8
0
  6
CONTINUOUS
 62
0
 10
1.50849602780278
 20
-1.5796674568788
 30
0.0
 40
0.314960630000002
 50
333.00000000107
 51
40.0110543472235
  0
LINE
  8
0
  6
CONTINUOUS
 62
0
 10
1.78912800399795
 20
-1.72265659068549
 30
0.0
 11
1.68517072468311
 21
-1.92668423920207
 31
0.0
  0
LINE
  8
0
  6
CONTINUOUS
 62
0
 10
1.75120281553567
 20
-2.20454180005375
 30
0.0
 11
1.68044237887784
 21
-1.98676356908072
 31
0.0
  0
ARC
  8
0
  6
CONTINUOUS
 62
0
 10
1.45165745599934
 20
-2.30186998728768
 30
0.0
 40
0.314960630000001
 50
288.000000000926
 51
18.0000000009324
  0
LINE
  8
0
  6
CONTINUOUS
 62
0
 10
1.54898564323326
 20
-2.60141534682403
 30
0.0
 11
1.33120741227233
 21
-2.67217578347792
 31
0.0
  0
LINE
  8
0
  6
CONTINUOUS
 62
0
 10
1.1814241860165
 20
-2.91534248816973
 30
0.0
 11
1.28538146532246
 21
-2.71131483966287
 31
0.0
  0
ARC
  8
0
  6
CONTINUOUS
 62
0
 10
0.900792209819167
 20
-2.77235335436734
 30
0.0
 40
0.31496063
 50
243.000000001948
 51
333.000000001949
  0
LINE
  8
0
  6
CONTINUOUS
 62
0
 10
0.75780307601675
 20
-3.0529853305647
 30
0.0
 11
0.55377542749858
 21
-2.94902805125298
 31
0.0
  0
LINE
  8
0
  6
CONTINUOUS
 62
0
 10
0.27591786664791
 20
-3.0150601421098
 30
0.0
 11
0.49369609761985
 21
-2.94429970544863
 31
0.0
  0
ARC
  8
0
  6
CONTINUOUS
 62
0
 10
0.178589679409406
 20
-2.71551478257496
 30
0.0
 40
0.31496063
 50
198.000000001801
 51
288.000000001801
  0
LINE
  8
0
  6
CONTINUOUS
 62
0
 10
-0.12095568012545
 20
-2.81284296981347
 30
0.0
 11
-0.19171611678661
 21
-2.59506473884152
 31
0.0
  0
LINE
  8
0
  6
CONTINUOUS
 62
0
 10
-0.43488282148848
 20
-2.44528151258022
 30
0.0
 11
-0.23085517297084
 21
-2.54923879189299
 31
0.0
  0
ARC
  8
0
  6
CONTINUOUS
 62
0
 10
1.7553287182864
 20
-1.96243152242675
 30
0.0
 40
0.0787401570000002
 50
153.000000001081
 51
198.000000000935
  0
ARC
  8
0
  6
CONTINUOUS
 62
0
 10
1.3555394589263
 20
-2.74706212288648
 30
0.0
 40
0.0787401570000002
 50
108.000000000934
 51
153.000000001958
  0
ARC
  8
0
  6
CONTINUOUS
 62
0
 10
0.518028144274968
 20
-3.01918604485681
 30
0.0
 40
0.0787401569999982
 50
63.0000000019559
 51
108.000000001814
  0
ARC
  8
0
  6
CONTINUOUS
 62
0
 10
-0.266602456194801
 20
-2.61939678549664
 30
0.0
 40
0.0787401570000012
 50
18.0000000018103
 51
63.0000000016626
  0
LINE
  8
0
  6
CONTINUOUS
 62
0
 10
-0.67764310413077
 20
2.05658921571727
 30
0.0
 11
-0.66060802373207
 21
2.062124248866
 31
0.0
  0
LINE
  8
0
  6
CONTINUOUS
 62
0
 10
1.75705759834579
 20
1.26550700309233
 30
0.0
 11
1.74652933963197
 21
1.27999790803943
 31
0.0
  0
LINE
  8
0
  6
CONTINUOUS
 62
0
 10
-2.16533581024759
 20
-0.00895587180999868
 30
0.0
 11
-2.16533581024779
 21
0.00895587176037083
 31
0.0
  0
ARC
  8
0
  6
CONTINUOUS
 62
0
 10
-0.70228467140008
 20
2.13137427764073
 30
0.0
 40
0.0787401570000007
 50
211.988945652416
 51
288.236975127673
  0
ARC
  8
0
  6
CONTINUOUS
 62
0
 10
-0.684630133536184
 20
2.1371105847209
 30
0.0
 40
0.0787401570000002
 50
287.763024874333
 51
4.01105434769255
  0
ARC
  8
0
  6
CONTINUOUS
 62
0
 10
1.50849602774276
 20
1.57966745695415
 30
0.0
 40
0.31496063
 50
319.988945653346
 51
27.0000000021321
  0
ARC
  8
0
  6
CONTINUOUS
 62
0
 10
-0.291893687777526
 20
2.16464953635783
 30
0.0
 40
0.314960630000001
 50
117.000000001549
 51
184.011054347694
  0
LINE
  8
0
  6
CONTINUOUS
 62
0
 10
-0.23085517308528
 20
2.54923879187067
 30
0.0
 11
-0.43488282159709
 21
2.44528151254644
 31
0.0
  0
LINE
  8
0
  6
CONTINUOUS
 62
0
 10
-0.19171611690363
 20
2.5950647388214
 30
0.0
 11
-0.1209556802547
 21
2.81284296979732
 31
0.0
  0
ARC
  8
0
  6
CONTINUOUS
 62
0
 10
0.178589679285604
 20
2.71551478257562
 30
0.0
 40
0.31496063
 50
72.0000000014007
 51
162.000000001403
  0
LINE
  8
0
  6
CONTINUOUS
 62
0
 10
0.49369609747114
 20
2.94429970547092
 30
0.0
 11
0.27591786650733
 21
3.01506014211593
 31
0.0
  0
LINE
  8
0
  6
CONTINUOUS
 62
0
 10
0.55377542735103
 20
2.94902805127937
 30
0.0
 11
0.75780307584993
 21
3.05298533060094
 31
0.0
  0
ARC
  8
0
  6
CONTINUOUS
 62
0
 10
0.900792209673788
 20
2.77235335441452
 30
0.0
 40
0.314960630000002
 50
27.0000000024245
 51
117.000000002426
  0
LINE
  8
0
  6
CONTINUOUS
 62
0
 10
1.28538146518756
 20
2.71131483972817
 30
0.0
 11
1.18142418586022
 21
2.91534248823839
 31
0.0
  0
LINE
  8
0
  6
CONTINUOUS
 62
0
 10
1.33120741213889
 20
2.67217578354722
 30
0.0
 11
1.54898564311589
 21
2.60141534690162
 31
0.0
  0
ARC
  8
0
  6
CONTINUOUS
 62
0
 10
1.45165745589878
 20
2.30186998735984
 30
0.0
 40
0.31496063
 50
342.00000000227
 51
72.0000000022785
  0
LINE
  8
0
  6
CONTINUOUS
 62
0
 10
1.68044237879497
 20
1.98676356916571
 30
0.0
 11
1.75120281544057
 21
2.20454180014271
 31
0.0
  0
LINE
  8
0
  6
CONTINUOUS
 62
0
 10
1.68517072460361
 20
1.92668423928732
 30
0.0
 11
1.78912800392991
 21
1.72265659077658
 31
0.0
  0
ARC
  8
0
  6
CONTINUOUS
 62
0
 10
1.8100394970408
 20
1.32654328622341
 30
0.0
 40
0.0787401569999999
 50
139.988945653357
 51
216.236975128614
  0
ARC
  8
0
  6
CONTINUOUS
 62
0
 10
-0.266602456313175
 20
2.61939678547232
 30
0.0
 40
0.0787401570000006
 50
297.000000001541
 51
342.000000001395
  0
ARC
  8
0
  6
CONTINUOUS
 62
0
 10
0.518028144122066
 20
3.01918604488047
 30
0.0
 40
0.0787401569999998
 50
252.000000001393
 51
297.000000002418
  0
ARC
  8
0
  6
CONTINUOUS
 62
0
 10
1.35553945878866
 20
2.74706212295714
 30
0.0
 40
0.0787401570000005
 50
207.000000002417
 51
252.000000002274
  0
ARC
  8
0
  6
CONTINUOUS
 62
0
 10
1.7553287182049
 20
1.96243152251594
 30
0.0
 40
0.0787401569999996
 50
162.000000002272
 51
207.000000002125
  0
ARC
  8
0
  6
CONTINUOUS
 62
0
 10
-2.2440752937659
 20
0.00928153982236542
 30
0.0
 40
0.078740157
 50
359.763024873394
 51
76.0110543467566
  0
ARC
  8
0
  6
CONTINUOUS
 62
0
 10
-2.24407529376569
 20
-0.00928153987378734
 30
0.0
 40
0.0787401570000009
 50
283.988945652644
 51
0.236975127913159
  0
ARC
  8
0
  6
CONTINUOUS
 62
0
 10
-1.03620211996463
 20
1.9228090666669
 30
0.0
 40
0.314960629999999
 50
31.9889456524188
 51
99.0000000011961
  0
ARC
  8
0
  6
CONTINUOUS
 62
0
 10
-2.14890415711606
 20
0.391306099809243
 30
0.0
 40
0.314960630000001
 50
189.000000000602
 51
256.011054346749
  0
LINE
  8
0
  6
CONTINUOUS
 62
0
 10
-2.45998709911303
 20
0.342035402143151
 30
0.0
 11
-2.49580833631445
 21
0.568201792765441
 31
0.0
  0
LINE
  8
0
  6
CONTINUOUS
 62
0
 10
-2.71254999649334
 20
0.754180592330611
 30
0.0
 11
-2.52729676827257
 21
0.619586243580251
 31
0.0
  0
ARC
  8
0
  6
CONTINUOUS
 62
0
 10
-2.52742078312868
 20
1.00898909456115
 30
0.0
 40
0.31496063
 50
144.000000000456
 51
234.000000000457
  0
LINE
  8
0
  6
CONTINUOUS
 62
0
 10
-2.78222928535923
 20
1.19411830792584
 30
0.0
 11
-2.64763493661634
 21
1.37937153613631
 31
0.0
  0
LINE
  8
0
  6
CONTINUOUS
 62
0
 10
-2.66938756396715
 20
1.66413790413227
 30
0.0
 11
-2.63356632676426
 21
1.43797151352308
 31
0.0
  0
ARC
  8
0
  6
CONTINUOUS
 62
0
 10
-2.35830462197093
 20
1.71340860180315
 30
0.0
 40
0.31496063
 50
99.0000000014888
 51
189.000000001491
  0
LINE
  8
0
  6
CONTINUOUS
 62
0
 10
-2.40757531964181
 20
2.02449154379937
 30
0.0
 11
-2.18140892902007
 21
2.06031278100424
 31
0.0
  0
LINE
  8
0
  6
CONTINUOUS
 62
0
 10
-1.99543012945822
 20
2.27705444118598
 30
0.0
 11
-2.13002447820574
 21
2.09180121296316
 31
0.0
  0
ARC
  8
0
  6
CONTINUOUS
 62
0
 10
-1.74062162722484
 20
2.09192522782522
 30
0.0
 40
0.314960629999999
 50
54.0000000013428
 51
144.000000001345
  0
LINE
  8
0
  6
CONTINUOUS
 62
0
 10
-1.55549241386408
 20
2.3467337300586
 30
0.0
 11
-1.37023918564125
 21
2.21213938131108
 31
0.0
  0
LINE
  8
0
  6
CONTINUOUS
 62
0
 10
-1.08547281763392
 20
2.23389200866336
 30
0.0
 11
-1.31163920825584
 21
2.19807077145964
 31
0.0
  0
ARC
  8
0
  6
CONTINUOUS
 62
0
 10
-2.57357907131985
 20
0.555884118427125
 30
0.0
 40
0.0787401570000003
 50
9.0000000006127
 51
54.0000000004665
  0
ARC
  8
0
  6
CONTINUOUS
 62
0
 10
-2.71133706176947
 20
1.42565383918358
 30
0.0
 40
0.0787401569999992
 50
324.000000000459
 51
9.00000000148884
  0
ARC
  8
0
  6
CONTINUOUS
 62
0
 10
-2.19372660335958
 20
2.13808351600945
 30
0.0
 40
0.0787401570000009
 50
279.000000001481
 51
324.000000001337
  0
ARC
  8
0
  6
CONTINUOUS
 62
0
 10
-1.32395688259495
 20
2.27584150646492
 30
0.0
 40
0.0787401570000014
 50
234.000000001337
 51
279.000000001189
  0
ARC
  8
0
  6
CONTINUOUS
 62
0
 10
1.82095060152366
 20
1.31152543928151
 30
0.0
 40
0.0787401570000006
 50
215.763024874098
 51
292.011054347455
  0
ARC
  8
0
  6
CONTINUOUS
 62
0
 10
1.96850393703141
 20
-0.946520887338285
 30
0.0
 40
0.314960630000001
 50
247.988945653113
 51
315.00000000189
  0
ARC
  8
0
  6
CONTINUOUS
 62
0
 10
1.96850393697826
 20
0.946520887418617
 30
0.0
 40
0.314960630000001
 50
45.0000000013129
 51
112.01105434746
  0
LINE
  8
0
  6
CONTINUOUS
 62
0
 10
2.19121473425293
 20
1.1692316847035
 30
0.0
 11
2.35313199288239
 21
1.00731442608148
 31
0.0
  0
LINE
  8
0
  6
CONTINUOUS
 62
0
 10
2.63779527497991
 20
0.984251968053831
 30
0.0
 11
2.40880969184912
 21
0.984251968049151
 31
0.0
  0
ARC
  8
0
  6
CONTINUOUS
 62
0
 10
2.63779527498634
 20
0.669291338053847
 30
0.0
 40
0.31496063
 50
1.16625851281777E-9
 51
90.0000000011664
  0
LINE
  8
0
  6
CONTINUOUS
 62
0
 10
2.95275590498634
 20
0.669291338060251
 30
0.0
 11
2.95275590499101
 21
0.440305754942181
 31
0.0
  0
LINE
  8
0
  6
CONTINUOUS
 62
0
 10
3.1377356216497
 20
0.222710797364701
 30
0.0
 11
2.97581836302675
 21
0.384628055975261
 31
0.0
  0
ARC
  8
0
  6
CONTINUOUS
 62
0
 10
2.91502482438697
 20
8.4929785426624E-11
 30
0.0
 40
0.31496063
 50
314.999999999999
 51
45.000000000001
  0
LINE
  8
0
  6
CONTINUOUS
 62
0
 10
3.13773562166675
 20
-0.222710797194879
 30
0.0
 11
2.9758183630472
 21
-0.384628055826809
 31
0.0
  0
LINE
  8
0
  6
CONTINUOUS
 62
0
 10
2.95275590502391
 20
-0.669291337924679
 30
0.0
 11
2.95275590501573
 21
-0.440305754793889
 31
0.0
  0
ARC
  8
0
  6
CONTINUOUS
 62
0
 10
2.63779527502393
 20
-0.66929133793593
 30
0.0
 40
0.31496063
 50
270.000000002036
 51
2.04458141032264E-9
  0
LINE
  8
0
  6
CONTINUOUS
 62
0
 10
2.63779527503517
 20
-0.984251967935918
 30
0.0
 11
2.40880969190437
 21
-0.984251967944109
 31
0.0
  0
LINE
  8
0
  6
CONTINUOUS
 62
0
 10
2.19121473431857
 20
-1.16923168461067
 30
0.0
 11
2.35313199293895
 21
-1.00731442597956
 31
0.0
  0
ARC
  8
0
  6
CONTINUOUS
 62
0
 10
1.82095060158051
 20
-1.31152543920269
 30
0.0
 40
0.0787401569999997
 50
67.9889456531216
 51
144.23697512838
  0
ARC
  8
0
  6
CONTINUOUS
 62
0
 10
2.40880969184751
 20
1.06299212504915
 30
0.0
 40
0.0787401570000007
 50
225.000000001306
 51
270.00000000116
  0
ARC
  8
0
  6
CONTINUOUS
 62
0
 10
3.03149606199101
 20
0.440305754943775
 30
0.0
 40
0.0787401569999999
 50
180.000000001162
 51
225.000000002187
  0
ARC
  8
0
  6
CONTINUOUS
 62
0
 10
3.03149606201573
 20
-0.44030575479108
 30
0.0
 40
0.0787401569999995
 50
135.000000002191
 51
180.000000002047
  0
ARC
  8
0
  6
CONTINUOUS
 62
0
 10
2.40880969190719
 20
-1.06299212494411
 30
0.0
 40
0.0787401570000003
 50
90.0000000020457
 51
135.000000001898
  0
ARC
  8
1
  6
CONTINUOUS
 62
1
 10
-1.46190447208047
 20
-0.332174367570369
 30
0.0
 40
0.0393700779999999
 50
359.999999999996
 51
180
  0
ARC
  8
1
  6
CONTINUOUS
 62
1
 10
-1.46190447208047
 20
-0.33217436757037
 30
0.0
 40
0.0393700779999999
 50
179.999999999996
 51
359.999999999996
  0
ARC
  8
1
  6
CONTINUOUS
 62
1
 10
-5.00011171356007E-10
 20
-5.00010618951689E-10
 30
0.0
 40
0.196850394
 50
359.999999999996
 51
180
  0
ARC
  8
1
  6
CONTINUOUS
 62
1
 10
-5.00011171356007E-10
 20
-5.00026251879545E-10
 30
0.0
 40
0.196850394
 50
179.999999999996
 51
359.999999999996
  0
ARC
  8
1
  6
CONTINUOUS
 62
1
 10
-1.59255313851281
 20
-1.15705758326781
 30
0.0
 40
0.118110236
 50
359.999999999996
 51
180
  0
ARC
  8
1
  6
CONTINUOUS
 62
1
 10
-1.59255313851281
 20
-1.15705758326781
 30
0.0
 40
0.118110236
 50
179.999999999996
 51
359.999999999996
  0
ARC
  8
1
  6
CONTINUOUS
 62
1
 10
0.608301170057553
 20
-1.87215849662661
 30
0.0
 40
0.118110236
 50
72.0000000002331
 51
252.000000000234
  0
ARC
  8
1
  6
CONTINUOUS
 62
1
 10
0.608301170057557
 20
-1.87215849662661
 30
0.0
 40
0.118110236
 50
252.00000000023
 51
72.0000000002331
  0
ARC
  8
1
  6
CONTINUOUS
 62
1
 10
1.96850393699998
 20
4.0127373646115E-11
 30
0.0
 40
0.118110236
 50
144.000000000464
 51
324.000000000464
  0
ARC
  8
1
  6
CONTINUOUS
 62
1
 10
1.96850393699999
 20
4.01349786738336E-11
 30
0.0
 40
0.118110236
 50
324.000000000464
 51
144.000000000468
  0
ARC
  8
1
  6
CONTINUOUS
 62
1
 10
0.608301169981137
 20
1.87215849665135
 30
0.0
 40
0.118110236
 50
216.000000000698
 51
36.000000000701
  0
ARC
  8
1
  6
CONTINUOUS
 62
1
 10
0.608301169981133
 20
1.87215849665135
 30
0.0
 40
0.118110236
 50
36.000000000701
 51
216.000000000702
  0
ARC
  8
1
  6
CONTINUOUS
 62
1
 10
-1.59255313856004
 20
1.15705758320271
 30
0.0
 40
0.118110236
 50
288.000000000932
 51
108.000000000935
  0
ARC
  8
1
  6
CONTINUOUS
 62
1
 10
-1.59255313856004
 20
1.15705758320271
 30
0.0
 40
0.118110236
 50
108.000000000933
 51
288.000000000932
  0
ARC
  8
1
  6
CONTINUOUS
 62
1
 10
-2.08345109603387
 20
-0.481394509775149
 30
0.0
 40
0.039370078
 50
45.0000000001453
 51
225.000000000146
  0
ARC
  8
1
  6
CONTINUOUS
 62
1
 10
-2.08345109603387
 20
-0.481394509775149
 30
0.0
 40
0.0393700779999999
 50
225.000000000144
 51
45.0000000001453
  0
ARC
  8
1
  6
CONTINUOUS
 62
1
 10
-2.41743635421112
 20
-1.02640891683968
 30
0.0
 40
0.0393700779999999
 50
90.0000000000001
 51
270
  0
ARC
  8
1
  6
CONTINUOUS
 62
1
 10
-2.41743635421072
 20
-1.02640891683968
 30
0.0
 40
0.0393700779999999
 50
269.999999999999
 51
90.0000000000009
  0
ARC
  8
1
  6
CONTINUOUS
 62
1
 10
-2.26821621200297
 20
-1.64795554079232
 30
0.0
 40
0.0393700780000001
 50
135.000000000437
 51
315.000000000437
  0
ARC
  8
1
  6
CONTINUOUS
 62
1
 10
-2.26821621200297
 20
-1.64795554079232
 30
0.0
 40
0.0393700780000001
 50
315.000000000436
 51
135.000000000438
  0
ARC
  8
1
  6
CONTINUOUS
 62
1
 10
-1.72320180493673
 20
-1.98194079896658
 30
0.0
 40
0.0393700779999999
 50
180.000000000581
 51
5.84000728391605E-10
  0
ARC
  8
1
  6
CONTINUOUS
 62
1
 10
-1.72320180493673
 20
-1.98194079896658
 30
0.0
 40
0.0393700779999999
 50
5.83720839579636E-10
 51
180.000000000585
  0
ARC
  8
1
  6
CONTINUOUS
 62
1
 10
-1.10165518098485
 20
-1.83272065675546
 30
0.0
 40
0.0393700779999997
 50
225.000000000728
 51
45.0000000007304
  0
ARC
  8
1
  6
CONTINUOUS
 62
1
 10
-1.10165518098485
 20
-1.83272065675546
 30
0.0
 40
0.0393700779999998
 50
45.0000000007303
 51
225.000000000731
  0
ARC
  8
1
  6
CONTINUOUS
 62
1
 10
-0.767669922812768
 20
-1.28770624968752
 30
0.0
 40
0.0393700779999999
 50
269.999999999999
 51
90.0000000000009
  0
ARC
  8
1
  6
CONTINUOUS
 62
1
 10
-0.767669922813974
 20
-1.28770624968752
 30
0.0
 40
0.0393700779999999
 50
90.0000000000002
 51
270
  0
ARC
  8
1
  6
CONTINUOUS
 62
1
 10
-0.916890065027666
 20
-0.666159625736403
 30
0.0
 40
0.0393700779999999
 50
315.000000001023
 51
135.000000001023
  0
ARC
  8
1
  6
CONTINUOUS
 62
1
 10
-0.916890065027667
 20
-0.666159625736403
 30
0.0
 40
0.0393700779999999
 50
135.00000000102
 51
315.000000001021
  0
ARC
  8
1
  6
CONTINUOUS
 62
1
 10
-0.135836730016528
 20
-1.49300129891867
 30
0.0
 40
0.0393700780000001
 50
72.0000000002331
 51
252.000000000234
  0
ARC
  8
1
  6
CONTINUOUS
 62
1
 10
-0.135836730016527
 20
-1.49300129891867
 30
0.0
 40
0.0393700780000001
 50
252.00000000023
 51
72.0000000002331
  0
ARC
  8
1
  6
CONTINUOUS
 62
1
 10
-0.185988411005557
 20
-2.13023882565534
 30
0.0
 40
0.0393700780000002
 50
117.000000000377
 51
297.000000000377
  0
ARC
  8
1
  6
CONTINUOUS
 62
1
 10
-0.185988411005556
 20
-2.13023882565534
 30
0.0
 40
0.0393700780000001
 50
297.000000000377
 51
117.00000000038
  0
ARC
  8
1
  6
CONTINUOUS
 62
1
 10
0.229143971662476
 20
-2.61629639575156
 30
0.0
 40
0.0393700779999997
 50
162.000000000525
 51
342.000000000525
  0
ARC
  8
1
  6
CONTINUOUS
 62
1
 10
0.229143971662476
 20
-2.61629639575156
 30
0.0
 40
0.0393700779999998
 50
342.000000000523
 51
162.000000000526
  0
ARC
  8
1
  6
CONTINUOUS
 62
1
 10
0.866381498399397
 20
-2.66644807673734
 30
0.0
 40
0.0393700779999998
 50
207.000000000671
 51
27.0000000006717
  0
ARC
  8
1
  6
CONTINUOUS
 62
1
 10
0.866381498399396
 20
-2.66644807673734
 30
0.0
 40
0.0393700779999998
 50
27.0000000006715
 51
207.000000000672
  0
ARC
  8
1
  6
CONTINUOUS
 62
1
 10
1.35243906849351
 20
-2.25131569406683
 30
0.0
 40
0.0393700779999997
 50
252.000000000816
 51
72.0000000008182
  0
ARC
  8
1
  6
CONTINUOUS
 62
1
 10
1.35243906849351
 20
-2.25131569406683
 30
0.0
 40
0.0393700779999998
 50
72.0000000008183
 51
252.000000000819
  0
ARC
  8
1
  6
CONTINUOUS
 62
1
 10
1.40259074947603
 20
-1.61407816732965
 30
0.0
 40
0.0393700779999997
 50
297.000000000965
 51
117.000000000965
  0
ARC
  8
1
  6
CONTINUOUS
 62
1
 10
1.40259074947603
 20
-1.61407816732965
 30
0.0
 40
0.0393700779999997
 50
117.000000000961
 51
297.000000000962
  0
ARC
  8
1
  6
CONTINUOUS
 62
1
 10
0.987458366803038
 20
-1.12802059723766
 30
0.0
 40
0.0393700779999998
 50
342.000000001108
 51
162.000000001111
  0
ARC
  8
1
  6
CONTINUOUS
 62
1
 10
0.987458366803037
 20
-1.12802059723766
 30
0.0
 40
0.0393700779999999
 50
162.000000001108
 51
342.000000001108
  0
ARC
  8
1
  6
CONTINUOUS
 62
1
 10
0.350220840065605
 20
-1.07786891625839
 30
0.0
 40
0.039370078
 50
27.0000000012567
 51
207.000000001257
  0
ARC
  8
1
  6
CONTINUOUS
 62
1
 10
0.350220840065605
 20
-1.07786891625839
 30
0.0
 40
0.039370078
 50
207.000000001254
 51
27.0000000012566
  0
ARC
  8
1
  6
CONTINUOUS
 62
1
 10
1.37795275531967
 20
-0.590551181088522
 30
0.0
 40
0.0393700779999999
 50
144.000000000464
 51
324.000000000464
  0
ARC
  8
1
  6
CONTINUOUS
 62
1
 10
1.37795275531967
 20
-0.590551181088522
 30
0.0
 40
0.0393700779999999
 50
324.000000000464
 51
144.000000000468
  0
ARC
  8
1
  6
CONTINUOUS
 62
1
 10
1.9685039358293
 20
-0.835165489308973
 30
0.0
 40
0.0393700779999998
 50
189.00000000061
 51
9.00000000061305
  0
ARC
  8
1
  6
CONTINUOUS
 62
1
 10
1.9685039358293
 20
-0.835165489308973
 30
0.0
 40
0.0393700779999999
 50
9.00000000061324
 51
189.000000000614
  0
ARC
  8
1
  6
CONTINUOUS
 62
1
 10
2.55905511632269
 20
-0.590551181049323
 30
0.0
 40
0.0393700779999996
 50
234.000000000759
 51
54.0000000007599
  0
ARC
  8
1
  6
CONTINUOUS
 62
1
 10
2.55905511632269
 20
-0.590551181049322
 30
0.0
 40
0.0393700779999996
 50
54.0000000007599
 51
234.00000000076
  0
ARC
  8
1
  6
CONTINUOUS
 62
1
 10
2.80366942454013
 20
-5.38444198949772E-10
 30
0.0
 40
0.039370078
 50
279.000000000905
 51
99.0000000009057
  0
ARC
  8
1
  6
CONTINUOUS
 62
1
 10
2.80366942454013
 20
-5.38444663855664E-10
 30
0.0
 40
0.039370078
 50
99.0000000009042
 51
279.000000000904
  0
ARC
  8
1
  6
CONTINUOUS
 62
1
 10
2.55905511627747
 20
0.590551179953701
 30
0.0
 40
0.0393700780000002
 50
324.000000001052
 51
144.000000001053
  0
ARC
  8
1
  6
CONTINUOUS
 62
1
 10
2.55905511627746
 20
0.5905511799537
 30
0.0
 40
0.0393700780000002
 50
144.00000000105
 51
324.000000001052
  0
ARC
  8
1
  6
CONTINUOUS
 62
1
 10
1.96850393576534
 20
0.835165488168124
 30
0.0
 40
0.0393700779999999
 50
9.00000000119801
 51
189.000000001199
  0
ARC
  8
1
  6
CONTINUOUS
 62
1
 10
1.96850393576534
 20
0.835165488168121
 30
0.0
 40
0.0393700779999999
 50
189.000000001197
 51
9.00000000119805
  0
ARC
  8
1
  6
CONTINUOUS
 62
1
 10
1.37795275527444
 20
0.590551179902446
 30
0.0
 40
0.0393700779999999
 50
54.0000000013443
 51
234.000000001345
  0
ARC
  8
1
  6
CONTINUOUS
 62
1
 10
1.37795275527444
 20
0.590551179902446
 30
0.0
 40
0.0393700779999999
 50
234.000000001342
 51
54.0000000013443
  0
ARC
  8
1
  6
CONTINUOUS
 62
1
 10
1.13333844706303
 20
-6.10929307143238E-10
 30
0.0
 40
0.0393700779999999
 50
99.0000000014887
 51
279.000000001487
  0
ARC
  8
1
  6
CONTINUOUS
 62
1
 10
1.13333844706303
 20
-6.1092881448177E-10
 30
0.0
 40
0.0393700779999999
 50
279.000000001487
 51
99.0000000014903
  0
ARC
  8
1
  6
CONTINUOUS
 62
1
 10
0.987458366993952
 20
1.12802059622315
 30
0.0
 40
0.039370078
 50
216.000000000698
 51
36.0000000007009
  0
ARC
  8
1
  6
CONTINUOUS
 62
1
 10
0.987458366993952
 20
1.12802059622315
 30
0.0
 40
0.0393700779999998
 50
36.0000000007011
 51
216.000000000702
  0
ARC
  8
1
  6
CONTINUOUS
 62
1
 10
1.40259074962972
 20
1.61407816634693
 30
0.0
 40
0.039370078
 50
261.000000000846
 51
81.0000000008472
  0
ARC
  8
1
  6
CONTINUOUS
 62
1
 10
1.40259074962972
 20
1.61407816634693
 30
0.0
 40
0.0393700780000001
 50
81.0000000008471
 51
261.000000000848
  0
ARC
  8
1
  6
CONTINUOUS
 62
1
 10
1.35243906859839
 20
2.25131569308027
 30
0.0
 40
0.0393700779999998
 50
306.00000000099
 51
126.000000000994
  0
ARC
  8
1
  6
CONTINUOUS
 62
1
 10
1.35243906859839
 20
2.25131569308027
 30
0.0
 40
0.0393700779999996
 50
126.00000000099
 51
306.000000000991
  0
ARC
  8
1
  6
CONTINUOUS
 62
1
 10
0.866381498472492
 20
2.66644807571356
 30
0.0
 40
0.0393700779999997
 50
351.000000001138
 51
171.00000000114
  0
ARC
  8
1
  6
CONTINUOUS
 62
1
 10
0.866381498472492
 20
2.66644807571356
 30
0.0
 40
0.0393700779999997
 50
171.000000001138
 51
351.000000001138
  0
ARC
  8
1
  6
CONTINUOUS
 62
1
 10
0.229143971739411
 20
2.61629639467898
 30
0.0
 40
0.039370078
 50
36.0000000012861
 51
216.000000001286
  0
ARC
  8
1
  6
CONTINUOUS
 62
1
 10
0.229143971739412
 20
2.61629639467898
 30
0.0
 40
0.0393700779999999
 50
216.000000001283
 51
36.0000000012859
  0
ARC
  8
1
  6
CONTINUOUS
 62
1
 10
-0.185988410891397
 20
2.13023882455096
 30
0.0
 40
0.0393700779999998
 50
81.0000000014319
 51
261.000000001433
  0
ARC
  8
1
  6
CONTINUOUS
 62
1
 10
-0.185988410891397
 20
2.13023882455096
 30
0.0
 40
0.0393700779999998
 50
261.000000001429
 51
81.0000000014319
  0
ARC
  8
1
  6
CONTINUOUS
 62
1
 10
-0.135836729853565
 20
1.49300129781813
 30
0.0
 40
0.0393700779999999
 50
126.000000001575
 51
306.000000001575
  0
ARC
  8
1
  6
CONTINUOUS
 62
1
 10
-0.135836729853565
 20
1.49300129781813
 30
0.0
 40
0.0393700779999999
 50
306.000000001575
 51
126.000000001579
  0
ARC
  8
1
  6
CONTINUOUS
 62
1
 10
0.350220840276574
 20
1.07786891518981
 30
0.0
 40
0.0393700779999999
 50
171.000000001722
 51
351.000000001722
  0
ARC
  8
1
  6
CONTINUOUS
 62
1
 10
0.350220840276574
 20
1.07786891518981
 30
0.0
 40
0.0393700779999999
 50
351.000000001722
 51
171.000000001725
  0
ARC
  8
1
  6
CONTINUOUS
 62
1
 10
-0.767669922740607
 20
1.28770624886458
 30
0.0
 40
0.0393700779999999
 50
288.000000000932
 51
108.000000000935
  0
ARC
  8
1
  6
CONTINUOUS
 62
1
 10
-0.767669922740607
 20
1.28770624886458
 30
0.0
 40
0.0393700779999999
 50
108.000000000933
 51
288.000000000932
  0
ARC
  8
1
  6
CONTINUOUS
 62
1
 10
-1.10165518095383
 20
1.83272065590694
 30
0.0
 40
0.039370078
 50
333.000000001081
 51
153.000000001082
  0
ARC
  8
1
  6
CONTINUOUS
 62
1
 10
-1.10165518095383
 20
1.83272065590694
 30
0.0
 40
0.0393700779999999
 50
153.000000001079
 51
333.000000001079
  0
ARC
  8
1
  6
CONTINUOUS
 62
1
 10
-1.72320180491714
 20
1.98194079807047
 30
0.0
 40
0.0393700779999999
 50
18.0000000012271
 51
198.000000001228
  0
ARC
  8
1
  6
CONTINUOUS
 62
1
 10
-1.72320180491714
 20
1.98194079807047
 30
0.0
 40
0.0393700779999999
 50
198.000000001224
 51
18.000000001227
  0
ARC
  8
1
  6
CONTINUOUS
 62
1
 10
-2.26821621195779
 20
1.64795553985446
 30
0.0
 40
0.0393700779999998
 50
63.000000001374
 51
243.000000001374
  0
ARC
  8
1
  6
CONTINUOUS
 62
1
 10
-2.26821621195779
 20
1.64795553985446
 30
0.0
 40
0.0393700779999998
 50
243.000000001374
 51
63.0000000013741
  0
ARC
  8
1
  6
CONTINUOUS
 62
1
 10
-2.41743635411814
 20
1.02640891589039
 30
0.0
 40
0.0393700779999998
 50
108.00000000152
 51
288.00000000152
  0
ARC
  8
1
  6
CONTINUOUS
 62
1
 10
-2.41743635411814
 20
1.02640891589039
 30
0.0
 40
0.0393700779999998
 50
288.00000000152
 51
108.00000000152
  0
ARC
  8
1
  6
CONTINUOUS
 62
1
 10
-2.08345109589936
 20
0.481394508851444
 30
0.0
 40
0.0393700779999996
 50
153.000000001663
 51
333.000000001663
  0
ARC
  8
1
  6
CONTINUOUS
 62
1
 10
-2.08345109589936
 20
0.481394508851444
 30
0.0
 40
0.0393700779999997
 50
333.000000001663
 51
153.000000001666
  0
ARC
  8
1
  6
CONTINUOUS
 62
1
 10
-1.46190447193453
 20
0.332174366694265
 30
0.0
 40
0.039370078
 50
198.000000001809
 51
18.000000001812
  0
ARC
  8
1
  6
CONTINUOUS
 62
1
 10
-1.46190447193453
 20
0.332174366694266
 30
0.0
 40
0.0393700779999999
 50
18.0000000018119
 51
198.000000001813
  0
ARC
  8
1
  6
CONTINUOUS
 62
1
 10
-0.91689006489728
 20
0.666159624915831
 30
0.0
 40
0.0393700779999999
 50
243.000000001955
 51
63.0000000019582
  0
ARC
  8
1
  6
CONTINUOUS
 62
1
 10
-0.916890064897281
 20
0.666159624915831
 30
0.0
 40
0.0393700779999999
 50
63.0000000019582
 51
243.000000001959
  0
ARC
  8
2
  6
CONTINUOUS
 62
2
 10
-7.93809462606987E-15
 20
-8.73640058696756E-15
 30
0.0
 40
0.393700788000007
 50
359.999999999998
 51
180
  0
ARC
  8
2
  6
CONTINUOUS
 62
2
 10
1.63202784619898E-14
 20
-4.65132335746221E-14
 30
0.0
 40
0.393700788000018
 50
179.999999999991
 51
359.999999999991
  0
ARC
  8
2
  6
CONTINUOUS
 62
2
 10
1.96850393699787
 20
0.835165488738531
 30
0.0
 40
0.0787401569999996
 50
45.0000000001438
 51
225.000000000146
  0
ARC
  8
2
  6
CONTINUOUS
 62
2
 10
1.96850393699787
 20
0.835165488738519
 30
0.0
 40
0.0787401569999997
 50
225.000000000137
 51
45.0000000001441
  0
ARC
  8
2
  6
CONTINUOUS
 62
2
 10
1.37795275649658
 20
0.590551180496971
 30
0.0
 40
0.0787401570000004
 50
90.0000000000002
 51
270
  0
ARC
  8
2
  6
CONTINUOUS
 62
2
 10
1.37795275649739
 20
0.590551180496971
 30
0.0
 40
0.0787401570000004
 50
269.999999999999
 51
90.000000000001
  0
ARC
  8
2
  6
CONTINUOUS
 62
2
 10
1.13333844826146
 20
-6.42217529156497E-12
 30
0.0
 40
0.0787401570000006
 50
135.000000000426
 51
315.000000000427
  0
ARC
  8
2
  6
CONTINUOUS
 62
2
 10
1.13333844826146
 20
-6.40544561836265E-12
 30
0.0
 40
0.0787401570000001
 50
315.000000000426
 51
135.000000000438
  0
ARC
  8
2
  6
CONTINUOUS
 62
2
 10
1.37795275650603
 20
-0.590551180506054
 30
0.0
 40
0.0787401569999995
 50
180.000000000572
 51
5.82257784426163E-10
  0
ARC
  8
2
  6
CONTINUOUS
 62
2
 10
1.37795275650603
 20
-0.590551180506048
 30
0.0
 40
0.0787401569999995
 50
5.82003340051646E-10
 51
180.000000000585
  0
ARC
  8
2
  6
CONTINUOUS
 62
2
 10
1.96850393701066
 20
-0.83516548873857
 30
0.0
 40
0.0787401569999997
 50
225.000000000722
 51
45.0000000007286
  0
ARC
  8
2
  6
CONTINUOUS
 62
2
 10
1.96850393701066
 20
-0.835165488738559
 30
0.0
 40
0.0787401570000004
 50
45.0000000007287
 51
225.000000000731
  0
ARC
  8
2
  6
CONTINUOUS
 62
2
 10
2.55905511751025
 20
-0.590551180490979
 30
0.0
 40
0.0787401570000004
 50
269.999999999999
 51
90.000000000001
  0
ARC
  8
2
  6
CONTINUOUS
 62
2
 10
2.55905511750784
 20
-0.590551180490979
 30
0.0
 40
0.0787401570000004
 50
90.0000000000001
 51
270
  0
ARC
  8
2
  6
CONTINUOUS
 62
2
 10
2.80366942573854
 20
1.49040918495658E-11
 30
0.0
 40
0.078740157000001
 50
315.000000001014
 51
135.000000001023
  0
ARC
  8
2
  6
CONTINUOUS
 62
2
 10
2.80366942573854
 20
1.48975831670839E-11
 30
0.0
 40
0.0787401570000004
 50
135.000000001014
 51
315.000000001017
  0
ARC
  8
2
  6
CONTINUOUS
 62
2
 10
0.22914397241867
 20
2.61629639588044
 30
0.0
 40
0.0787401570000003
 50
72.0000000002318
 51
252.000000000234
  0
ARC
  8
2
  6
CONTINUOUS
 62
2
 10
0.229143972418686
 20
2.61629639588044
 30
0.0
 40
0.0787401570000007
 50
252.000000000223
 51
72.0000000002315
  0
ARC
  8
2
  6
CONTINUOUS
 62
2
 10
-0.185988410231995
 20
2.13023882576937
 30
0.0
 40
0.0787401569999994
 50
117.000000000372
 51
297.000000000371
  0
ARC
  8
2
  6
CONTINUOUS
 62
2
 10
-0.185988410231974
 20
2.13023882576938
 30
0.0
 40
0.0787401569999991
 50
297.000000000368
 51
117.00000000038
  0
ARC
  8
2
  6
CONTINUOUS
 62
2
 10
-0.13583672922018
 20
1.49300129903451
 30
0.0
 40
0.078740157
 50
162.000000000514
 51
342.000000000521
  0
ARC
  8
2
  6
CONTINUOUS
 62
2
 10
-0.13583672922018
 20
1.49300129903451
 30
0.0
 40
0.0787401569999996
 50
342.000000000521
 51
162.000000000526
  0
ARC
  8
2
  6
CONTINUOUS
 62
2
 10
0.350220840893
 20
1.07786891638633
 30
0.0
 40
0.0787401570000002
 50
207.00000000066
 51
27.0000000006699
  0
ARC
  8
2
  6
CONTINUOUS
 62
2
 10
0.350220840893
 20
1.07786891638633
 30
0.0
 40
0.0787401570000002
 50
27.0000000006698
 51
207.000000000672
  0
ARC
  8
2
  6
CONTINUOUS
 62
2
 10
0.987458367627626
 20
1.12802059740139
 30
0.0
 40
0.0787401569999998
 50
252.000000000808
 51
72.0000000008163
  0
ARC
  8
2
  6
CONTINUOUS
 62
2
 10
0.98745836762762
 20
1.12802059740139
 30
0.0
 40
0.0787401570000001
 50
72.000000000816
 51
252.000000000819
  0
ARC
  8
2
  6
CONTINUOUS
 62
2
 10
1.40259075027331
 20
1.61407816751669
 30
0.0
 40
0.0787401569999997
 50
297.000000000952
 51
117.000000000965
  0
ARC
  8
2
  6
CONTINUOUS
 62
2
 10
1.40259075027331
 20
1.61407816751669
 30
0.0
 40
0.0787401570000004
 50
117.000000000953
 51
297.000000000955
  0
ARC
  8
2
  6
CONTINUOUS
 62
2
 10
1.352439069255
 20
2.25131569425104
 30
0.0
 40
0.078740157
 50
342.000000001098
 51
162.000000001111
  0
ARC
  8
2
  6
CONTINUOUS
 62
2
 10
1.352439069255
 20
2.25131569425104
 30
0.0
 40
0.0787401570000002
 50
162.000000001102
 51
342.000000001102
  0
ARC
  8
2
  6
CONTINUOUS
 62
2
 10
0.86638149913758
 20
2.66644807689426
 30
0.0
 40
0.0787401570000006
 50
27.000000001255
 51
207.000000001257
  0
ARC
  8
2
  6
CONTINUOUS
 62
2
 10
0.86638149913759
 20
2.66644807689426
 30
0.0
 40
0.0787401570000005
 50
207.000000001248
 51
27.0000000012552
  0
ARC
  8
2
  6
CONTINUOUS
 62
2
 10
-2.41743635422987
 20
1.02640891677763
 30
0.0
 40
0.0787401570000004
 50
144.000000000456
 51
324.000000000456
  0
ARC
  8
2
  6
CONTINUOUS
 62
2
 10
-2.41743635422987
 20
1.02640891677763
 30
0.0
 40
0.0787401570000004
 50
324.000000000457
 51
144.000000000468
  0
ARC
  8
2
  6
CONTINUOUS
 62
2
 10
-2.08345109603335
 20
0.481394509725035
 30
0.0
 40
0.0787401569999997
 50
189.000000000602
 51
9.00000000061123
  0
ARC
  8
2
  6
CONTINUOUS
 62
2
 10
-2.08345109603335
 20
0.481394509725052
 30
0.0
 40
0.0787401570000002
 50
9.00000000061101
 51
189.000000000614
  0
ARC
  8
2
  6
CONTINUOUS
 62
2
 10
-1.46190447207461
 20
0.33217436754248
 30
0.0
 40
0.0787401570000004
 50
234.000000000749
 51
54.0000000007571
  0
ARC
  8
2
  6
CONTINUOUS
 62
2
 10
-1.46190447207462
 20
0.332174367542491
 30
0.0
 40
0.0787401569999997
 50
54.0000000007578
 51
234.00000000076
  0
ARC
  8
2
  6
CONTINUOUS
 62
2
 10
-0.916890065023724
 20
0.666159625741792
 30
0.0
 40
0.0787401570000003
 50
279.000000000897
 51
99.000000000904
  0
ARC
  8
2
  6
CONTINUOUS
 62
2
 10
-0.916890065023746
 20
0.666159625741791
 30
0.0
 40
0.0787401570000008
 50
99.000000000899
 51
279.000000000897
  0
ARC
  8
2
  6
CONTINUOUS
 62
2
 10
-0.767669922844338
 20
1.28770624970128
 30
0.0
 40
0.0787401569999993
 50
324.00000000104
 51
144.000000001052
  0
ARC
  8
2
  6
CONTINUOUS
 62
2
 10
-0.76766992284434
 20
1.28770624970128
 30
0.0
 40
0.0787401569999997
 50
144.00000000104
 51
324.00000000104
  0
ARC
  8
2
  6
CONTINUOUS
 62
2
 10
-1.10165518104643
 20
1.83272065675046
 30
0.0
 40
0.0787401569999998
 50
9.00000000119617
 51
189.000000001199
  0
ARC
  8
2
  6
CONTINUOUS
 62
2
 10
-1.10165518104643
 20
1.83272065675046
 30
0.0
 40
0.0787401569999994
 50
189.000000001187
 51
9.00000000119651
  0
ARC
  8
2
  6
CONTINUOUS
 62
2
 10
-1.72320180500668
 20
1.98194079892668
 30
0.0
 40
0.0787401570000005
 50
54.0000000013416
 51
234.000000001344
  0
ARC
  8
2
  6
CONTINUOUS
 62
2
 10
-1.72320180500668
 20
1.98194079892668
 30
0.0
 40
0.0787401570000005
 50
234.000000001334
 51
54.000000001342
  0
ARC
  8
2
  6
CONTINUOUS
 62
2
 10
-2.26821621205416
 20
1.64795554072181
 30
0.0
 40
0.0787401570000004
 50
99.0000000014839
 51
279.000000001482
  0
ARC
  8
2
  6
CONTINUOUS
 62
2
 10
-2.26821621205416
 20
1.64795554072181
 30
0.0
 40
0.0787401570000002
 50
279.00000000148
 51
99.0000000014882
  0
ARC
  8
2
  6
CONTINUOUS
 62
2
 10
-1.72320180495359
 20
-1.9819407989639
 30
0.0
 40
0.0787401569999992
 50
216.000000000692
 51
36.0000000006995
  0
ARC
  8
2
  6
CONTINUOUS
 62
2
 10
-1.72320180495359
 20
-1.9819407989639
 30
0.0
 40
0.0787401570000004
 50
36.0000000006987
 51
216.000000000702
  0
ARC
  8
2
  6
CONTINUOUS
 62
2
 10
-1.10165518099867
 20
-1.83272065676547
 30
0.0
 40
0.0787401569999996
 50
261.000000000838
 51
81.0000000008462
  0
ARC
  8
2
  6
CONTINUOUS
 62
2
 10
-1.10165518099867
 20
-1.83272065676547
 30
0.0
 40
0.0787401570000002
 50
81.000000000845
 51
261.000000000847
  0
ARC
  8
2
  6
CONTINUOUS
 62
2
 10
-0.767669922816044
 20
-1.28770624970436
 30
0.0
 40
0.0787401569999997
 50
306.000000000982
 51
126.000000000994
  0
ARC
  8
2
  6
CONTINUOUS
 62
2
 10
-0.767669922816066
 20
-1.28770624970436
 30
0.0
 40
0.0787401569999997
 50
126.000000000988
 51
306.000000000989
  0
ARC
  8
2
  6
CONTINUOUS
 62
2
 10
-0.91689006501765
 20
-0.666159625750183
 30
0.0
 40
0.0787401569999999
 50
351.000000001129
 51
171.00000000114
  0
ARC
  8
2
  6
CONTINUOUS
 62
2
 10
-0.91689006501765
 20
-0.666159625750205
 30
0.0
 40
0.0787401570000006
 50
171.000000001131
 51
351.000000001131
  0
ARC
  8
2
  6
CONTINUOUS
 62
2
 10
-1.46190447208047
 20
-0.332174367570359
 30
0.0
 40
0.0787401570000003
 50
36.0000000012835
 51
216.000000001286
  0
ARC
  8
2
  6
CONTINUOUS
 62
2
 10
-1.46190447208047
 20
-0.332174367570374
 30
0.0
 40
0.0787401569999988
 50
216.000000001276
 51
36.0000000012844
  0
ARC
  8
2
  6
CONTINUOUS
 62
2
 10
-2.08345109603387
 20
-0.481394509775129
 30
0.0
 40
0.0787401569999999
 50
81.0000000014307
 51
261.000000001433
  0
ARC
  8
2
  6
CONTINUOUS
 62
2
 10
-2.08345109603387
 20
-0.481394509775129
 30
0.0
 40
0.0787401569999999
 50
261.000000001428
 51
81.000000001431
  0
ARC
  8
2
  6
CONTINUOUS
 62
2
 10
-2.41743635421092
 20
-1.02640891683965
 30
0.0
 40
0.0787401570000013
 50
126.000000001572
 51
306.000000001573
  0
ARC
  8
2
  6
CONTINUOUS
 62
2
 10
-2.41743635421092
 20
-1.02640891683965
 30
0.0
 40
0.0787401569999999
 50
306.000000001574
 51
126.000000001579
  0
ARC
  8
2
  6
CONTINUOUS
 62
2
 10
-2.26821621200298
 20
-1.64795554079229
 30
0.0
 40
0.0787401570000004
 50
171.000000001714
 51
351.000000001713
  0
ARC
  8
2
  6
CONTINUOUS
 62
2
 10
-2.26821621200298
 20
-1.64795554079229
 30
0.0
 40
0.0787401569999998
 50
351.000000001713
 51
171.000000001725
  0
ARC
  8
2
  6
CONTINUOUS
 62
2
 10
1.35243906930677
 20
-2.25131569421208
 30
0.0
 40
0.0787401570000003
 50
288.00000000093
 51
108.000000000936
  0
ARC
  8
2
  6
CONTINUOUS
 62
2
 10
1.35243906930677
 20
-2.25131569421208
 30
0.0
 40
0.0787401570000004
 50
108.000000000923
 51
288.000000000924
  0
ARC
  8
2
  6
CONTINUOUS
 62
2
 10
1.40259075030231
 20
-1.61407816747593
 30
0.0
 40
0.0787401569999998
 50
333.00000000107
 51
153.000000001082
  0
ARC
  8
2
  6
CONTINUOUS
 62
2
 10
1.40259075030231
 20
-1.61407816747593
 30
0.0
 40
0.0787401569999991
 50
153.000000001074
 51
333.000000001075
  0
ARC
  8
2
  6
CONTINUOUS
 62
2
 10
0.98745836763925
 20
-1.12802059737546
 30
0.0
 40
0.078740157
 50
18.0000000012252
 51
198.000000001228
  0
ARC
  8
2
  6
CONTINUOUS
 62
2
 10
0.98745836763925
 20
-1.12802059737546
 30
0.0
 40
0.0787401569999997
 50
198.000000001215
 51
18.0000000012254
  0
ARC
  8
2
  6
CONTINUOUS
 62
2
 10
0.35022084090284
 20
-1.07786891638317
 30
0.0
 40
0.0787401569999999
 50
63.000000001372
 51
243.000000001374
  0
ARC
  8
2
  6
CONTINUOUS
 62
2
 10
0.350220840902856
 20
-1.07786891638317
 30
0.0
 40
0.0787401570000001
 50
243.000000001364
 51
63.0000000013721
  0
ARC
  8
2
  6
CONTINUOUS
 62
2
 10
-0.135836729195516
 20
-1.49300129904872
 30
0.0
 40
0.0787401570000004
 50
108.000000001509
 51
288.000000001509
  0
ARC
  8
2
  6
CONTINUOUS
 62
2
 10
-0.135836729195494
 20
-1.49300129904871
 30
0.0
 40
0.0787401570000002
 50
288.000000001509
 51
108.00000000152
  0
ARC
  8
2
  6
CONTINUOUS
 62
2
 10
-0.18598841018455
 20
-2.13023882578538
 30
0.0
 40
0.0787401570000006
 50
153.000000001657
 51
333.000000001658
  0
ARC
  8
2
  6
CONTINUOUS
 62
2
 10
-0.18598841018455
 20
-2.13023882578537
 30
0.0
 40
0.0787401570000003
 50
333.000000001663
 51
153.000000001666
  0
ARC
  8
2
  6
CONTINUOUS
 62
2
 10
0.22914397248348
 20
-2.61629639588161
 30
0.0
 40
0.0787401569999999
 50
198.000000001806
 51
18.0000000018106
  0
ARC
  8
2
  6
CONTINUOUS
 62
2
 10
0.22914397248348
 20
-2.61629639588161
 30
0.0
 40
0.0787401569999996
 50
18.0000000018094
 51
198.000000001813
  0
ARC
  8
2
  6
CONTINUOUS
 62
2
 10
0.866381499220406
 20
-2.66644807686739
 30
0.0
 40
0.078740157
 50
243.000000001946
 51
63.0000000019563
  0
ARC
  8
2
  6
CONTINUOUS
 62
2
 10
0.86638149922039
 20
-2.66644807686739
 30
0.0
 40
0.0787401569999997
 50
63.0000000019566
 51
243.000000001959
  0
ARC
  8
2
  6
CONTINUOUS
 62
2
 10
1.968503937
 20
1.26225829882758E-14
 30
0.0
 40
0.196850394
 50
359.999999999991
 51
180
  0
ARC
  8
2
  6
CONTINUOUS
 62
2
 10
1.968503937
 20
-4.11076043341177E-14
 30
0.0
 40
0.196850394
 50
179.999999999988
 51
359.999999999987
  0
ARC
  8
2
  6
CONTINUOUS
 62
2
 10
0.608301170019334
 20
1.87215849663898
 30
0.0
 40
0.196850394
 50
72.0000000002288
 51
252.000000000234
  0
ARC
  8
2
  6
CONTINUOUS
 62
2
 10
0.608301170019362
 20
1.87215849663897
 30
0.0
 40
0.196850394
 50
252.000000000221
 51
72.0000000002287
  0
ARC
  8
2
  6
CONTINUOUS
 62
2
 10
-1.59255313853645
 20
1.15705758323523
 30
0.0
 40
0.196850394
 50
144.000000000457
 51
324.00000000046
  0
ARC
  8
2
  6
CONTINUOUS
 62
2
 10
-1.59255313853644
 20
1.15705758323525
 30
0.0
 40
0.196850394
 50
324.000000000455
 51
144.000000000465
  0
ARC
  8
2
  6
CONTINUOUS
 62
2
 10
-1.59255313851281
 20
-1.15705758326781
 30
0.0
 40
0.196850394
 50
216.000000000691
 51
36.0000000006998
  0
ARC
  8
2
  6
CONTINUOUS
 62
2
 10
-1.59255313851282
 20
-1.1570575832678
 30
0.0
 40
0.196850393999999
 50
36.0000000006969
 51
216.000000000698
  0
ARC
  8
2
  6
CONTINUOUS
 62
2
 10
0.608301170057592
 20
-1.8721584966266
 30
0.0
 40
0.196850394
 50
288.000000000923
 51
108.000000000935
  0
ARC
  8
2
  6
CONTINUOUS
 62
2
 10
0.608301170057548
 20
-1.87215849662661
 30
0.0
 40
0.196850394
 50
108.000000000925
 51
288.000000000925
  0
ARC
  8
2
  6
CONTINUOUS
 62
2
 10
2.5590551175
 20
0.590551180499986
 30
0.0
 40
0.078740157000001
 50
315.000000001015
 51
135.000000001023
  0
ARC
  8
2
  6
CONTINUOUS
 62
2
 10
2.5590551175
 20
0.590551180499975
 30
0.0
 40
0.0787401570000004
 50
135.000000001014
 51
315.000000001017
  0
ARC
  8
3
  6
CONTINUOUS
 62
3
 10
1.968503937
 20
-5.72205144026758E-14
 30
0.0
 40
0.295275591
 50
179.999999999988
 51
359.999999999987
  0
ARC
  8
3
  6
CONTINUOUS
 62
3
 10
1.968503937
 20
1.83079534705039E-14
 30
0.0
 40
0.295275591
 50
359.999999999991
 51
180
  0
ARC
  8
3
  6
CONTINUOUS
 62
3
 10
-3.66373598126302E-15
 20
-1.13387343607094E-14
 30
0.0
 40
0.590551181000005
 50
359.999999999996
 51
179.999999999997
  0
ARC
  8
3
  6
CONTINUOUS
 62
3
 10
2.50910403565285E-14
 20
-6.70668505587157E-14
 30
0.0
 40
0.590551181000027
 50
179.999999999991
 51
359.999999999991
  0
ARC
  8
3
  6
CONTINUOUS
 62
3
 10
0.608301170019368
 20
1.87215849663897
 30
0.0
 40
0.295275591
 50
252.000000000221
 51
72.0000000002288
  0
ARC
  8
3
  6
CONTINUOUS
 62
3
 10
0.608301170019324
 20
1.87215849663898
 30
0.0
 40
0.295275591
 50
72.0000000002288
 51
252.000000000234
  0
ARC
  8
3
  6
CONTINUOUS
 62
3
 10
-1.59255313853644
 20
1.15705758323526
 30
0.0
 40
0.295275591
 50
324.000000000455
 51
144.000000000465
  0
ARC
  8
3
  6
CONTINUOUS
 62
3
 10
-1.59255313853645
 20
1.15705758323523
 30
0.0
 40
0.295275591
 50
144.000000000455
 51
324.000000000458
  0
ARC
  8
3
  6
CONTINUOUS
 62
3
 10
-1.59255313851282
 20
-1.1570575832678
 30
0.0
 40
0.295275591
 50
36.0000000006967
 51
216.000000000698
  0
ARC
  8
3
  6
CONTINUOUS
 62
3
 10
-1.59255313851281
 20
-1.15705758326782
 30
0.0
 40
0.295275591
 50
216.00000000069
 51
36.0000000006998
  0
ARC
  8
3
  6
CONTINUOUS
 62
3
 10
0.608301170057542
 20
-1.87215849662661
 30
0.0
 40
0.295275591
 50
108.000000000923
 51
288.000000000923
  0
ARC
  8
3
  6
CONTINUOUS
 62
3
 10
0.608301170057598
 20
-1.8721584966266
 30
0.0
 40
0.295275591000001
 50
288.000000000923
 51
108.000000000935
  0
LINE
  8
4
  6
CONTINUOUS
 62
4
 10
2.49744207965561
 20
-0.027838849836769
 30
0.0
 11
2.37373595316616
 21
-0.151544976326209
 31
0.0
  0
LINE
  8
4
  6
CONTINUOUS
 62
4
 10
2.49744207965561
 20
0.0278388498367308
 30
0.0
 11
2.37373595316283
 21
0.151544976329511
 31
0.0
  0
ARC
  8
4
  6
CONTINUOUS
 62
4
 10
2.46960322981886
 20
-1.76213210689724E-14
 30
0.0
 40
0.0393700789999996
 50
314.999999999999
 51
45.000000000001
  0
LINE
  8
4
  6
CONTINUOUS
 62
4
 10
2.36220472399909
 20
0.354330708000991
 30
0.0
 11
2.36220472399958
 21
0.179383826166261
 31
0.0
  0
LINE
  8
4
  6
CONTINUOUS
 62
4
 10
2.32283464499899
 20
0.393700787000881
 30
0.0
 11
2.1478877631642
 21
0.393700787000441
 31
0.0
  0
ARC
  8
4
  6
CONTINUOUS
 62
4
 10
2.32283464499909
 20
0.354330708000891
 30
0.0
 40
0.0393700789999998
 50
1.42946849603696E-10
 51
90.0000000001446
  0
LINE
  8
4
  6
CONTINUOUS
 62
4
 10
1.99634278683405
 20
0.528938142655731
 30
0.0
 11
2.12004891332749
 21
0.405232016163551
 31
0.0
  0
LINE
  8
4
  6
CONTINUOUS
 62
4
 10
1.94066508716055
 20
0.528938142655451
 30
0.0
 11
1.81695896066836
 21
0.405232016161991
 31
0.0
  0
ARC
  8
4
  6
CONTINUOUS
 62
4
 10
1.96850393699744
 20
0.501099292818841
 30
0.0
 40
0.039370079
 50
45.0000000002894
 51
135.000000000292
  0
LINE
  8
4
  6
CONTINUOUS
 62
4
 10
1.61417322899698
 20
0.393700786997261
 30
0.0
 11
1.78912011083177
 21
0.393700786998601
 31
0.0
  0
LINE
  8
4
  6
CONTINUOUS
 62
4
 10
1.57480314999729
 20
0.354330707996961
 30
0.0
 11
1.57480314999875
 21
0.179383826162001
 31
0.0
  0
ARC
  8
4
  6
CONTINUOUS
 62
4
 10
1.61417322899729
 20
0.354330707997261
 30
0.0
 40
0.0393700789999998
 50
90.0000000004357
 51
180.000000000439
  0
LINE
  8
4
  6
CONTINUOUS
 62
4
 10
1.43956579434411
 20
0.0278388498313307
 30
0.0
 11
1.56327192083578
 21
0.151544976325531
 31
0.0
  0
LINE
  8
4
  6
CONTINUOUS
 62
4
 10
1.43956579434467
 20
-0.0278388498421691
 30
0.0
 11
1.56327192083855
 21
-0.151544976333519
 31
0.0
  0
ARC
  8
4
  6
CONTINUOUS
 62
4
 10
1.46740464418086
 20
-5.41885286642341E-12
 30
0.0
 40
0.0393700790000009
 50
134.999999999999
 51
225.000000000001
  0
LINE
  8
4
  6
CONTINUOUS
 62
4
 10
1.57480315000452
 20
-0.354330708005049
 30
0.0
 11
1.57480315000208
 21
-0.179383826170559
 31
0.0
  0
LINE
  8
4
  6
CONTINUOUS
 62
4
 10
1.61417322900503
 20
-0.393700787004539
 30
0.0
 11
1.78912011083982
 21
-0.393700787002309
 31
0.0
  0
ARC
  8
4
  6
CONTINUOUS
 62
4
 10
1.61417322900452
 20
-0.354330708004539
 30
0.0
 40
0.0393700790000004
 50
180.000000000726
 51
270.000000000727
  0
LINE
  8
4
  6
CONTINUOUS
 62
4
 10
1.94066508717135
 20
-0.528938142656059
 30
0.0
 11
1.81695896067664
 21
-0.405232016165139
 31
0.0
  0
LINE
  8
4
  6
CONTINUOUS
 62
4
 10
1.99634278684485
 20
-0.528938142655199
 30
0.0
 11
2.12004891333578
 21
-0.405232016160489
 31
0.0
  0
ARC
  8
4
  6
CONTINUOUS
 62
4
 10
1.96850393700768
 20
-0.50109929281888
 30
0.0
 40
0.0393700790000003
 50
225.000000000868
 51
315.000000000871
  0
LINE
  8
4
  6
CONTINUOUS
 62
4
 10
2.32283464500703
 20
-0.393700786993689
 30
0.0
 11
2.14788776317225
 21
-0.393700786996809
 31
0.0
  0
LINE
  8
4
  6
CONTINUOUS
 62
4
 10
2.36220472400633
 20
-0.354330707992989
 30
0.0
 11
2.36220472400291
 21
-0.179383826162959
 31
0.0
  0
ARC
  8
4
  6
CONTINUOUS
 62
4
 10
2.32283464500633
 20
-0.354330707993689
 30
0.0
 40
0.0393700789999991
 50
270.000000001016
 51
1.02259285785606E-9
  0
ARC
  8
4
  6
CONTINUOUS
 62
4
 10
2.40157480299958
 20
0.179383826166261
 30
0.0
 40
0.0393700789999998
 50
179.999999999999
 51
224.999999999998
  0
ARC
  8
4
  6
CONTINUOUS
 62
4
 10
2.1478877631641
 20
0.43307086600044
 30
0.0
 40
0.0393700790000006
 50
225.000000000288
 51
270.000000000142
  0
ARC
  8
4
  6
CONTINUOUS
 62
4
 10
1.78912011083146
 20
0.433070865998601
 30
0.0
 40
0.0393700789999999
 50
270.000000000429
 51
315.000000000281
  0
ARC
  8
4
  6
CONTINUOUS
 62
4
 10
1.53543307099875
 20
0.179383826162001
 30
0.0
 40
0.0393700789999992
 50
315.000000000583
 51
359.999999999998
  0
ARC
  8
4
  6
CONTINUOUS
 62
4
 10
1.53543307100208
 20
-0.179383826170557
 30
0.0
 40
0.0393700789999996
 50
359.999999999996
 51
45.000000000584
  0
ARC
  8
4
  6
CONTINUOUS
 62
4
 10
1.78912011084032
 20
-0.433070866002309
 30
0.0
 40
0.0393700790000005
 50
45.0000000008766
 51
90.0000000007305
  0
ARC
  8
4
  6
CONTINUOUS
 62
4
 10
2.14788776317296
 20
-0.433070865996809
 30
0.0
 40
0.0393700789999987
 50
90.0000000010215
 51
135.000000000876
  0
ARC
  8
4
  6
CONTINUOUS
 62
4
 10
2.40157480300291
 20
-0.179383826162959
 30
0.0
 40
0.0393700790000001
 50
135
 51
179.999999999999
  0
ARC
  8
4
  6
CONTINUOUS
 62
4
 10
0
 20
8.69056469793751E-14
 30
0.0
 40
0.787401575
 50
359.999999999991
 51
180
  0
ARC
  8
4
  6
CONTINUOUS
 62
4
 10
0
 20
-1.16818459034186E-13
 30
0.0
 40
0.787401575
 50
179.999999999987
 51
359.999999999987
  0
LINE
  8
4
  6
CONTINUOUS
 62
4
 10
0.79822836461443
 20
2.36660588622602
 30
0.0
 11
0.87765258692495
 21
2.21072707312938
 31
0.0
  0
LINE
  8
4
  6
CONTINUOUS
 62
4
 10
0.74527572552755
 20
2.38381124163261
 30
0.0
 11
0.58939691242672
 21
2.30438701931995
 31
0.0
  0
ARC
  8
4
  6
CONTINUOUS
 62
4
 10
0.76314936736769
 20
2.34873224438588
 30
0.0
 40
0.039370079
 50
27.0000000002321
 51
117.000000000234
  0
LINE
  8
4
  6
CONTINUOUS
 62
4
 10
0.39297287513105
 20
2.35608440598533
 30
0.0
 11
0.55935724710585
 21
2.30202284638664
 31
0.0
  0
LINE
  8
4
  6
CONTINUOUS
 62
4
 10
0.34336368147033
 20
2.33080725928588
 30
0.0
 11
0.28930212187158
 21
2.16442288731103
 31
0.0
  0
ARC
  8
4
  6
CONTINUOUS
 62
4
 10
0.38080685165041
 20
2.31864123580524
 30
0.0
 40
0.0393700789999997
 50
72.0000000003769
 51
162.00000000038
  0
LINE
  8
4
  6
CONTINUOUS
 62
4
 10
0.11385378043133
 20
2.06208569123154
 30
0.0
 11
0.26973259353181
 21
2.14150991354501
 31
0.0
  0
LINE
  8
4
  6
CONTINUOUS
 62
4
 10
0.0966484250250002
 20
2.00913305214457
 30
0.0
 11
0.17607264733849
 21
1.85325423904409
 31
0.0
  0
ARC
  8
4
  6
CONTINUOUS
 62
4
 10
0.13172742227165
 20
2.02700669398489
 30
0.0
 40
0.0393700789999999
 50
117.000000000523
 51
207.000000000525
  0
LINE
  8
4
  6
CONTINUOUS
 62
4
 10
0.12437526067409
 20
1.65683020174821
 30
0.0
 11
0.17843682027199
 21
1.82321457372333
 31
0.0
  0
LINE
  8
4
  6
CONTINUOUS
 62
4
 10
0.14965240737379
 20
1.60722100808761
 30
0.0
 11
0.31603677934913
 21
1.55315944848978
 31
0.0
  0
ARC
  8
4
  6
CONTINUOUS
 62
4
 10
0.16181843085423
 20
1.64466417826776
 30
0.0
 40
0.0393700790000001
 50
162.000000000666
 51
252.000000000667
  0
LINE
  8
4
  6
CONTINUOUS
 62
4
 10
0.41837397542931
 20
1.37771110704999
 30
0.0
 11
0.33894975311495
 21
1.53358992015022
 31
0.0
  0
LINE
  8
4
  6
CONTINUOUS
 62
4
 10
0.47132661451636
 20
1.36050575164393
 30
0.0
 11
0.62720542761617
 21
1.43992997395808
 31
0.0
  0
ARC
  8
4
  6
CONTINUOUS
 62
4
 10
0.45345297267586
 20
1.39558474889049
 30
0.0
 40
0.039370079
 50
207.000000000814
 51
297.000000000816
  0
LINE
  8
4
  6
CONTINUOUS
 62
4
 10
0.82362946491258
 20
1.38823258729482
 30
0.0
 11
0.6572450929374
 21
1.44229414689158
 31
0.0
  0
LINE
  8
4
  6
CONTINUOUS
 62
4
 10
0.87323865857304
 20
1.41350973399477
 30
0.0
 11
0.9273002181701
 21
1.57989410597018
 31
0.0
  0
ARC
  8
4
  6
CONTINUOUS
 62
4
 10
0.83579548839284
 20
1.42567575747502
 30
0.0
 40
0.0393700790000005
 50
252.000000000957
 51
342.000000000959
  0
LINE
  8
4
  6
CONTINUOUS
 62
4
 10
1.10274855960929
 20
1.68223130205146
 30
0.0
 11
0.94686974650963
 21
1.60280707973639
 31
0.0
  0
LINE
  8
4
  6
CONTINUOUS
 62
4
 10
1.11995391501508
 20
1.7351839411386
 30
0.0
 11
1.04052969270001
 21
1.89106275423827
 31
0.0
  0
ARC
  8
4
  6
CONTINUOUS
 62
4
 10
1.08487491776862
 20
1.71731029929792
 30
0.0
 40
0.0393700789999996
 50
297.000000001103
 51
27.0000000011101
  0
LINE
  8
4
  6
CONTINUOUS
 62
4
 10
1.0922270793624
 20
2.08748679153468
 30
0.0
 11
1.0381655197662
 21
1.92110241955901
 31
0.0
  0
LINE
  8
4
  6
CONTINUOUS
 62
4
 10
1.0669499326622
 20
2.13709598519501
 30
0.0
 11
0.90056556069096
 21
2.19115754478947
 31
0.0
  0
ARC
  8
4
  6
CONTINUOUS
 62
4
 10
1.05478390918213
 20
2.09965281501474
 30
0.0
 40
0.039370079
 50
342.000000001254
 51
72.0000000012567
  0
ARC
  8
4
  6
CONTINUOUS
 62
4
 10
0.571523270586582
 20
2.33946601656669
 30
0.0
 40
0.0393700790000004
 50
252.000000000229
 51
297.000000000229
  0
ARC
  8
4
  6
CONTINUOUS
 62
4
 10
0.251858951691491
 20
2.17658891079166
 30
0.0
 40
0.0393700789999998
 50
297.000000000524
 51
342.000000000378
  0
ARC
  8
4
  6
CONTINUOUS
 62
4
 10
0.14099365009184
 20
1.83538059720377
 30
0.0
 40
0.039370079
 50
342.000000000665
 51
27.0000000005234
  0
ARC
  8
4
  6
CONTINUOUS
 62
4
 10
0.3038707558684
 20
1.51571627830972
 30
0.0
 40
0.0393700789999998
 50
27.0000000008169
 51
72.000000000232
  0
ARC
  8
4
  6
CONTINUOUS
 62
4
 10
0.64507906945667
 20
1.40485097671152
 30
0.0
 40
0.0393700789999992
 50
72.0000000002319
 51
117.000000000818
  0
ARC
  8
4
  6
CONTINUOUS
 62
4
 10
0.96474338835031
 20
1.56772808248992
 30
0.0
 40
0.0393700790000005
 50
117.000000001112
 51
162.000000000965
  0
ARC
  8
4
  6
CONTINUOUS
 62
4
 10
1.07560868994647
 20
1.90893639607894
 30
0.0
 40
0.0393700790000004
 50
162.000000001249
 51
207.000000001102
  0
ARC
  8
4
  6
CONTINUOUS
 62
4
 10
0.91273158417169
 20
2.22860071496952
 30
0.0
 40
0.0393700789999996
 50
207.000000000226
 51
252.000000000226
  0
LINE
  8
4
  6
CONTINUOUS
 62
4
 10
-2.00410981954585
 20
1.4904817254816
 30
0.0
 11
-1.83131682413909
 21
1.51784944735255
 31
0.0
  0
LINE
  8
4
  6
CONTINUOUS
 62
4
 10
-2.03683635029513
 20
1.44543752023777
 30
0.0
 11
-2.00946862842345
 21
1.27264452482635
 31
0.0
  0
ARC
  8
4
  6
CONTINUOUS
 62
4
 10
-1.99795098229857
 20
1.45159635748504
 30
0.0
 40
0.0393700789999991
 50
99.0000000004654
 51
189.000000000469
  0
LINE
  8
4
  6
CONTINUOUS
 62
4
 10
-2.11933413051439
 20
1.10180953524322
 30
0.0
 11
-2.01650293343894
 21
1.24334453576155
 31
0.0
  0
LINE
  8
4
  6
CONTINUOUS
 62
4
 10
-2.1106242193507
 20
1.04681732044464
 30
0.0
 11
-1.96908921883235
 21
0.943986123369121
 31
0.0
  0
ARC
  8
4
  6
CONTINUOUS
 62
4
 10
-2.08748306753326
 20
1.07866838342578
 30
0.0
 40
0.0393700789999999
 50
144.000000000605
 51
234.000000000607
  0
LINE
  8
4
  6
CONTINUOUS
 62
4
 10
-1.9259772807807
 20
0.745500902224131
 30
0.0
 11
-1.95334500265327
 21
0.918293897635461
 31
0.0
  0
LINE
  8
4
  6
CONTINUOUS
 62
4
 10
-1.8809330755367
 20
0.712774371475081
 30
0.0
 11
-1.70814008012537
 21
0.740142093347651
 31
0.0
  0
ARC
  8
4
  6
CONTINUOUS
 62
4
 10
-1.88709191278417
 20
0.751659739471601
 30
0.0
 40
0.0393700790000013
 50
189.00000000075
 51
279.000000000752
  0
LINE
  8
4
  6
CONTINUOUS
 62
4
 10
-1.53730509054174
 20
0.630276591257581
 30
0.0
 11
-1.67884009106061
 21
0.733107788332371
 31
0.0
  0
LINE
  8
4
  6
CONTINUOUS
 62
4
 10
-1.4823128757432
 20
0.638986502421541
 30
0.0
 11
-1.37948167866839
 21
0.780521502940631
 31
0.0
  0
ARC
  8
4
  6
CONTINUOUS
 62
4
 10
-1.51416393872445
 20
0.662127654238831
 30
0.0
 40
0.0393700790000007
 50
234.000000000897
 51
324.000000000898
  0
LINE
  8
4
  6
CONTINUOUS
 62
4
 10
-1.18099645752363
 20
0.823633440993081
 30
0.0
 11
-1.35378945293499
 21
0.796265719119601
 31
0.0
  0
LINE
  8
4
  6
CONTINUOUS
 62
4
 10
-1.1482699267748
 20
0.868677646237251
 30
0.0
 11
-1.17563764864821
 21
1.04147064164815
 31
0.0
  0
ARC
  8
4
  6
CONTINUOUS
 62
4
 10
-1.1871552947713
 20
0.862518808989581
 30
0.0
 40
0.0393700789999989
 50
279.00000000105
 51
9.00000000105321
  0
LINE
  8
4
  6
CONTINUOUS
 62
4
 10
-1.06577214655906
 20
1.21230563123263
 30
0.0
 11
-1.16860334363279
 21
1.07077063071335
 31
0.0
  0
LINE
  8
4
  6
CONTINUOUS
 62
4
 10
-1.0744820577233
 20
1.26729784603112
 30
0.0
 11
-1.2160170582427
 21
1.37012904310521
 31
0.0
  0
ARC
  8
4
  6
CONTINUOUS
 62
4
 10
-1.09762320954042
 20
1.23544678304976
 30
0.0
 40
0.039370079
 50
324.000000001191
 51
54.0000000011971
  0
LINE
  8
4
  6
CONTINUOUS
 62
4
 10
-1.25912899629638
 20
1.56861426424975
 30
0.0
 11
-1.23176127442204
 21
1.39582126883871
 31
0.0
  0
LINE
  8
4
  6
CONTINUOUS
 62
4
 10
-1.30417320154072
 20
1.60134079499835
 30
0.0
 11
-1.47696619695177
 21
1.57397307312401
 31
0.0
  0
ARC
  8
4
  6
CONTINUOUS
 62
4
 10
-1.29801436429285
 20
1.56245542700188
 30
0.0
 40
0.0393700789999991
 50
9.00000000134033
 51
99.000000001342
  0
LINE
  8
4
  6
CONTINUOUS
 62
4
 10
-1.64780118653652
 20
1.68383857521234
 30
0.0
 11
-1.5062661860166
 21
1.58100737813899
 31
0.0
  0
LINE
  8
4
  6
CONTINUOUS
 62
4
 10
-1.70279340133497
 20
1.67512866404782
 30
0.0
 11
-1.80562459840529
 21
1.53359366353158
 31
0.0
  0
ARC
  8
4
  6
CONTINUOUS
 62
4
 10
-1.67094233835348
 20
1.65198751223086
 30
0.0
 40
0.0393700789999995
 50
54.0000000014877
 51
144.000000001491
  0
ARC
  8
4
  6
CONTINUOUS
 62
4
 10
-2.04835399642001
 20
1.26648568757908
 30
0.0
 40
0.0393700790000006
 50
324.000000000463
 51
9.0000000004658
  0
ARC
  8
4
  6
CONTINUOUS
 62
4
 10
-1.9922303706498
 20
0.912135060387991
 30
0.0
 40
0.0393700790000003
 50
9.00000000075867
 51
54.0000000006125
  0
ARC
  8
4
  6
CONTINUOUS
 62
4
 10
-1.70198124287789
 20
0.701256725351132
 30
0.0
 40
0.0393700789999987
 50
54.000000000904
 51
99.0000000007577
  0
ARC
  8
4
  6
CONTINUOUS
 62
4
 10
-1.34763061568732
 20
0.7573803511231
 30
0.0
 40
0.039370079000001
 50
99.0000000010508
 51
144.000000000467
  0
ARC
  8
4
  6
CONTINUOUS
 62
4
 10
-1.13675228065172
 20
1.04762947889582
 30
0.0
 40
0.0393700789999996
 50
144.000000000466
 51
189.000000001052
  0
ARC
  8
4
  6
CONTINUOUS
 62
4
 10
-1.19287590642558
 20
1.40198010608658
 30
0.0
 40
0.039370079000001
 50
189.000000001341
 51
234.000000001193
  0
ARC
  8
4
  6
CONTINUOUS
 62
4
 10
-1.48312503419964
 20
1.61285844112048
 30
0.0
 40
0.0393700790000026
 50
234.000000001486
 51
279.00000000134
  0
ARC
  8
4
  6
CONTINUOUS
 62
4
 10
-1.83747566138636
 20
1.55673481534911
 30
0.0
 40
0.0393700790000004
 50
279.000000000462
 51
324.000000000462
  0
LINE
  8
4
  6
CONTINUOUS
 62
4
 10
-2.03683635026562
 20
-1.44543752027941
 30
0.0
 11
-2.0094686283982
 21
-1.27264452487209
 31
0.0
  0
LINE
  8
4
  6
CONTINUOUS
 62
4
 10
-2.00410981951541
 20
-1.49048172552257
 30
0.0
 11
-1.83131682410344
 21
-1.51784944739073
 31
0.0
  0
ARC
  8
4
  6
CONTINUOUS
 62
4
 10
-1.99795098226893
 20
-1.45159635752589
 30
0.0
 40
0.0393700790000001
 50
171.000000000696
 51
261.000000000697
  0
LINE
  8
4
  6
CONTINUOUS
 62
4
 10
-1.70279340129019
 20
-1.67512866408488
 30
0.0
 11
-1.80562459836932
 21
-1.53359366356923
 31
0.0
  0
LINE
  8
4
  6
CONTINUOUS
 62
4
 10
-1.64780118649138
 20
-1.68383857524716
 30
0.0
 11
-1.50626618597566
 21
-1.58100737816803
 31
0.0
  0
ARC
  8
4
  6
CONTINUOUS
 62
4
 10
-1.67094233830965
 20
-1.65198751226662
 30
0.0
 40
0.0393700790000001
 50
216.00000000084
 51
306.000000000843
  0
LINE
  8
4
  6
CONTINUOUS
 62
4
 10
-1.30417320149895
 20
-1.60134079501913
 30
0.0
 11
-1.47696619691111
 21
-1.57397307315185
 31
0.0
  0
LINE
  8
4
  6
CONTINUOUS
 62
4
 10
-1.25912899625595
 20
-1.5686142642687
 30
0.0
 11
-1.23176127438867
 21
-1.39582126885653
 31
0.0
  0
ARC
  8
4
  6
CONTINUOUS
 62
4
 10
-1.29801436425267
 20
-1.56245542702242
 30
0.0
 40
0.0393700789999999
 50
261.00000000099
 51
351.000000000992
  0
LINE
  8
4
  6
CONTINUOUS
 62
4
 10
-1.07448205769518
 20
-1.26729784604253
 30
0.0
 11
-1.21601705821037
 21
-1.37012904312239
 31
0.0
  0
LINE
  8
4
  6
CONTINUOUS
 62
4
 10
-1.06577214653318
 20
-1.21230563124368
 30
0.0
 11
-1.16860334361324
 21
-1.07077063072841
 31
0.0
  0
ARC
  8
4
  6
CONTINUOUS
 62
4
 10
-1.0976232095136
 20
-1.23544678306211
 30
0.0
 40
0.0393700789999998
 50
306.000000001131
 51
36.000000001139
  0
LINE
  8
4
  6
CONTINUOUS
 62
4
 10
-1.14826992676296
 20
-0.868677646251669
 30
0.0
 11
-1.17563764862939
 21
-1.04147064166415
 31
0.0
  0
LINE
  8
4
  6
CONTINUOUS
 62
4
 10
-1.18099645751362
 20
-0.823633441008839
 30
0.0
 11
-1.35378945292565
 21
-0.796265719142479
 31
0.0
  0
ARC
  8
4
  6
CONTINUOUS
 62
4
 10
-1.18715529475971
 20
-0.862518809005577
 30
0.0
 40
0.0393700790000002
 50
351.000000001281
 51
81.0000000012864
  0
LINE
  8
4
  6
CONTINUOUS
 62
4
 10
-1.48231287574074
 20
-0.638986502449599
 30
0.0
 11
-1.37948167866016
 21
-0.780521502963909
 31
0.0
  0
LINE
  8
4
  6
CONTINUOUS
 62
4
 10
-1.53730509053963
 20
-0.630276591287879
 30
0.0
 11
-1.67884009105431
 21
-0.733107788368459
 31
0.0
  0
ARC
  8
4
  6
CONTINUOUS
 62
4
 10
-1.51416393872104
 20
-0.662127654268179
 30
0.0
 40
0.0393700790000013
 50
36.0000000014303
 51
126.000000001433
  0
LINE
  8
4
  6
CONTINUOUS
 62
4
 10
-1.88093307553122
 20
-0.712774371519419
 30
0.0
 11
-1.70814008011878
 21
-0.740142093384929
 31
0.0
  0
LINE
  8
4
  6
CONTINUOUS
 62
4
 10
-1.92597728077389
 20
-0.745500902270309
 30
0.0
 11
-1.95334500263941
 21
-0.918293897682759
 31
0.0
  0
ARC
  8
4
  6
CONTINUOUS
 62
4
 10
-1.88709191277711
 20
-0.751659739516188
 30
0.0
 40
0.039370078999999
 50
81.0000000015761
 51
171.000000001579
  0
LINE
  8
4
  6
CONTINUOUS
 62
4
 10
-2.11062421933158
 20
-1.04681732049837
 30
0.0
 11
-1.96908921881744
 21
-0.943986123417059
 31
0.0
  0
LINE
  8
4
  6
CONTINUOUS
 62
4
 10
-2.11933413049302
 20
-1.1018095352973
 30
0.0
 11
-2.01650293341428
 21
-1.24334453580743
 31
0.0
  0
ARC
  8
4
  6
CONTINUOUS
 62
4
 10
-2.08748306751284
 20
-1.07866838347855
 30
0.0
 40
0.0393700790000005
 50
126.000000001722
 51
216.000000001724
  0
ARC
  8
4
  6
CONTINUOUS
 62
4
 10
-1.83747566134992
 20
-1.55673481538741
 30
0.0
 40
0.0393700790000003
 50
36.000000000702
 51
81.0000000007017
  0
ARC
  8
4
  6
CONTINUOUS
 62
4
 10
-1.48312503415739
 20
-1.61285844114857
 30
0.0
 40
0.0393700790000012
 50
81.0000000009899
 51
126.000000000845
  0
ARC
  8
4
  6
CONTINUOUS
 62
4
 10
-1.19287590639195
 20
-1.40198010610281
 30
0.0
 40
0.0393700790000001
 50
126.00000000114
 51
171.000000000994
  0
ARC
  8
4
  6
CONTINUOUS
 62
4
 10
-1.13675228063264
 20
-1.04762947891023
 30
0.0
 40
0.0393700789999998
 50
171.000000001276
 51
216.000000000692
  0
ARC
  8
4
  6
CONTINUOUS
 62
4
 10
-1.34763061567956
 20
-0.757380351145729
 30
0.0
 40
0.0393700790000017
 50
216.000000000698
 51
261.000000001284
  0
ARC
  8
4
  6
CONTINUOUS
 62
4
 10
-1.70198124287289
 20
-0.701256725388148
 30
0.0
 40
0.0393700790000019
 50
261.00000000157
 51
306.000000001424
  0
ARC
  8
4
  6
CONTINUOUS
 62
4
 10
-1.99223037063618
 20
-0.912135060436879
 30
0.0
 40
0.0393700789999976
 50
306.000000001724
 51
351.000000001578
  0
ARC
  8
4
  6
CONTINUOUS
 62
4
 10
-2.04835399639488
 20
-1.26648568762561
 30
0.0
 40
0.039370079000001
 50
351.000000000694
 51
36.000000000696
  0
LINE
  8
4
  6
CONTINUOUS
 62
4
 10
0.74527572557623
 20
-2.38381124161745
 30
0.0
 11
0.58939691247797
 21
-2.30438701931011
 31
0.0
  0
LINE
  8
4
  6
CONTINUOUS
 62
4
 10
0.79822836466275
 20
-2.36660588620977
 30
0.0
 11
0.87765258697223
 21
-2.21072707310731
 31
0.0
  0
ARC
  8
4
  6
CONTINUOUS
 62
4
 10
0.76314936741565
 20
-2.34873224437035
 30
0.0
 40
0.0393700790000002
 50
243.000000000928
 51
333.00000000093
  0
LINE
  8
4
  6
CONTINUOUS
 62
4
 10
1.06694993271124
 20
-2.13709598516391
 30
0.0
 11
0.90056556073784
 21
-2.19115754476693
 31
0.0
  0
LINE
  8
4
  6
CONTINUOUS
 62
4
 10
1.09222707940942
 20
-2.08748679150255
 30
0.0
 11
1.03816551980642
 21
-1.92110241952907
 31
0.0
  0
ARC
  8
4
  6
CONTINUOUS
 62
4
 10
1.05478390922965
 20
-2.09965281498414
 30
0.0
 40
0.0393700790000001
 50
288.000000001074
 51
18.0000000010806
  0
LINE
  8
4
  6
CONTINUOUS
 62
4
 10
1.11995391504771
 20
-1.73518394110533
 30
0.0
 11
1.040529692739
 21
-1.89106275420824
 31
0.0
  0
LINE
  8
4
  6
CONTINUOUS
 62
4
 10
1.10274855963976
 20
-1.6822313020189
 30
0.0
 11
0.94686974653685
 21
-1.60280707971019
 31
0.0
  0
ARC
  8
4
  6
CONTINUOUS
 62
4
 10
1.08487491780052
 20
-1.71731029926609
 30
0.0
 40
0.0393700789999997
 50
333.000000001221
 51
63.0000000012272
  0
LINE
  8
4
  6
CONTINUOUS
 62
4
 10
0.87323865859254
 20
-1.41350973397158
 30
0.0
 11
0.92730021819638
 21
-1.57989410594477
 31
0.0
  0
LINE
  8
4
  6
CONTINUOUS
 62
4
 10
0.82362946493104
 20
-1.38823258727365
 30
0.0
 11
0.65724509295771
 21
-1.44229414687767
 31
0.0
  0
ARC
  8
4
  6
CONTINUOUS
 62
4
 10
0.83579548841282
 20
-1.42567575745336
 30
0.0
 40
0.0393700790000001
 50
18.0000000013714
 51
108.000000001374
  0
LINE
  8
4
  6
CONTINUOUS
 62
4
 10
0.47132661453368
 20
-1.36050575163716
 30
0.0
 11
0.62720542763715
 21
-1.43992997394515
 31
0.0
  0
LINE
  8
4
  6
CONTINUOUS
 62
4
 10
0.41837397544734
 20
-1.37771110704538
 30
0.0
 11
0.33894975313955
 21
-1.53358992014843
 31
0.0
  0
ARC
  8
4
  6
CONTINUOUS
 62
4
 10
0.45345297269462
 20
-1.39558474888445
 30
0.0
 40
0.0393700789999996
 50
63.000000001517
 51
153.000000001521
  0
LINE
  8
4
  6
CONTINUOUS
 62
4
 10
0.14965240740119
 20
-1.60722100809398
 30
0.0
 11
0.31603677937376
 21
-1.55315944848918
 31
0.0
  0
LINE
  8
4
  6
CONTINUOUS
 62
4
 10
0.12437526070351
 20
-1.6568302017556
 30
0.0
 11
0.17843682030821
 21
-1.82321457372852
 31
0.0
  0
ARC
  8
4
  6
CONTINUOUS
 62
4
 10
0.16181843088317
 20
-1.64466417827363
 30
0.0
 40
0.0393700789999997
 50
108.000000001665
 51
198.000000001667
  0
LINE
  8
4
  6
CONTINUOUS
 62
4
 10
0.0966484250688202
 20
-2.0091330521531
 30
0.0
 11
0.17607264737594
 21
-1.85325423904938
 31
0.0
  0
LINE
  8
4
  6
CONTINUOUS
 62
4
 10
0.11385378047731
 20
-2.06208569123936
 30
0.0
 11
0.26973259358103
 21
-2.14150991354648
 31
0.0
  0
ARC
  8
4
  6
CONTINUOUS
 62
4
 10
0.1317274223162
 20
-2.02700669399198
 30
0.0
 40
0.0393700789999995
 50
153.000000001803
 51
243.000000001808
  0
LINE
  8
4
  6
CONTINUOUS
 62
4
 10
0.34336368152728
 20
-2.33080725928433
 30
0.0
 11
0.28930212192174
 21
-2.16442288731169
 31
0.0
  0
LINE
  8
4
  6
CONTINUOUS
 62
4
 10
0.39297287518903
 20
-2.35608440598176
 30
0.0
 11
0.55935724715706
 21
-2.30202284637741
 31
0.0
  0
ARC
  8
4
  6
CONTINUOUS
 62
4
 10
0.38080685170687
 20
-2.31864123580217
 30
0.0
 40
0.0393700789999988
 50
198.000000001955
 51
288.000000001957
  0
ARC
  8
4
  6
CONTINUOUS
 62
4
 10
0.91273158421934
 20
-2.22860071494674
 30
0.0
 40
0.039370078999999
 50
108.000000000936
 51
153.000000000935
  0
ARC
  8
4
  6
CONTINUOUS
 62
4
 10
1.0756086899862
 20
-1.90893639604748
 30
0.0
 40
0.0393700790000004
 50
153.000000001229
 51
198.000000001083
  0
ARC
  8
4
  6
CONTINUOUS
 62
4
 10
0.96474338837609
 20
-1.56772808246299
 30
0.0
 40
0.0393700789999996
 50
198.00000000137
 51
243.000000001222
  0
ARC
  8
4
  6
CONTINUOUS
 62
4
 10
0.645079069476221
 20
-1.40485097669787
 30
0.0
 40
0.0393700789999995
 50
243.000000001516
 51
288.00000000093
  0
ARC
  8
4
  6
CONTINUOUS
 62
4
 10
0.30387075589227
 20
-1.51571627830937
 30
0.0
 40
0.0393700790000008
 50
288.00000000093
 51
333.000000001516
  0
ARC
  8
4
  6
CONTINUOUS
 62
4
 10
0.140993650128561
 20
-1.8353805972105
 30
0.0
 40
0.0393700790000007
 50
333.000000001804
 51
18.0000000016652
  0
ARC
  8
4
  6
CONTINUOUS
 62
4
 10
0.25185895174215
 20
-2.17658891079386
 30
0.0
 40
0.0393700789999998
 50
18.0000000019574
 51
63.0000000018108
  0
ARC
  8
4
  6
CONTINUOUS
 62
4
 10
0.57152327063855
 20
-2.33946601655721
 30
0.0
 40
0.0393700790000008
 50
63.0000000009348
 51
108.000000000933
  0
LINE
  8
5
  6
CONTINUOUS
 62
5
 10
2.637795275
 20
0.787401573999981
 30
0.0
 11
2.362204724
 21
0.787401573999981
 31
0.0
  0
LINE
  8
5
  6
CONTINUOUS
 62
5
 10
2.755905511
 20
0.669291337999981
 30
0.0
 11
2.755905511
 21
0.393700786999981
 31
0.0
  0
LINE
  8
5
  6
CONTINUOUS
 62
5
 10
2.48031496
 20
0.393700786999981
 30
0.0
 11
2.755905511
 21
0.393700786999981
 31
0.0
  0
LINE
  8
5
  6
CONTINUOUS
 62
5
 10
2.362204724
 20
0.511811022999981
 30
0.0
 11
2.362204724
 21
0.787401573999981
 31
0.0
  0
ARC
  8
5
  6
CONTINUOUS
 62
5
 10
2.48031496
 20
0.511811022999975
 30
0.0
 40
0.118110236
 50
179.999999999996
 51
269.999999999996
  0
ARC
  8
5
  6
CONTINUOUS
 62
5
 10
2.637795275
 20
0.669291337999997
 30
0.0
 40
0.118110236
 50
359.999999999989
 51
89.9999999999973
  0
LINE
  8
5
  6
CONTINUOUS
 62
5
 10
1.88498738819423
 20
1.03003743618135
 30
0.0
 11
1.69011544075169
 21
0.835165488737811
 31
0.0
  0
LINE
  8
5
  6
CONTINUOUS
 62
5
 10
2.05202048580051
 20
1.03003743618177
 30
0.0
 11
2.24689243324405
 21
0.835165488739231
 31
0.0
  0
LINE
  8
5
  6
CONTINUOUS
 62
5
 10
2.05202048580151
 20
0.640293541295701
 30
0.0
 11
2.24689243324405
 21
0.835165488739231
 31
0.0
  0
LINE
  8
5
  6
CONTINUOUS
 62
5
 10
1.88498738819522
 20
0.640293541295272
 30
0.0
 11
1.69011544075169
 21
0.835165488737811
 31
0.0
  0
ARC
  8
5
  6
CONTINUOUS
 62
5
 10
1.96850393699815
 20
0.723810090098615
 30
0.0
 40
0.118110235999999
 50
225.000000000135
 51
315.000000000137
  0
ARC
  8
5
  6
CONTINUOUS
 62
5
 10
1.96850393699758
 20
0.946520887378421
 30
0.0
 40
0.118110235999998
 50
45.0000000001438
 51
135.000000000146
  0
LINE
  8
5
  6
CONTINUOUS
 62
5
 10
1.18110236299658
 20
0.669291337995961
 30
0.0
 11
1.18110236299799
 21
0.393700786995961
 31
0.0
  0
LINE
  8
5
  6
CONTINUOUS
 62
5
 10
1.29921259899598
 20
0.787401573996571
 30
0.0
 11
1.57480314999598
 21
0.787401573997971
 31
0.0
  0
LINE
  8
5
  6
CONTINUOUS
 62
5
 10
1.57480314999739
 20
0.511811022997971
 30
0.0
 11
1.57480314999598
 21
0.787401573997971
 31
0.0
  0
LINE
  8
5
  6
CONTINUOUS
 62
5
 10
1.45669291399799
 20
0.393700786997371
 30
0.0
 11
1.18110236299799
 21
0.393700786995961
 31
0.0
  0
ARC
  8
5
  6
CONTINUOUS
 62
5
 10
1.45669291399739
 20
0.511811022997371
 30
0.0
 40
0.118110235999999
 50
270.000000000282
 51
2.89926642543488E-10
  0
ARC
  8
5
  6
CONTINUOUS
 62
5
 10
1.29921259899658
 20
0.669291337996571
 30
0.0
 40
0.118110236
 50
90.0000000002907
 51
180.000000000292
  0
LINE
  8
5
  6
CONTINUOUS
 62
5
 10
0.93846650081906
 20
-0.0835165488110485
 30
0.0
 11
1.13333844826359
 21
-0.278388496252589
 31
0.0
  0
LINE
  8
5
  6
CONTINUOUS
 62
5
 10
0.93846650081778
 20
0.0835165487952407
 30
0.0
 11
1.13333844825933
 21
0.278388496239771
 31
0.0
  0
LINE
  8
5
  6
CONTINUOUS
 62
5
 10
1.32821039570385
 20
0.0835165487982215
 30
0.0
 11
1.13333844825933
 21
0.278388496239771
 31
0.0
  0
LINE
  8
5
  6
CONTINUOUS
 62
5
 10
1.32821039570513
 20
-0.0835165488080589
 30
0.0
 11
1.13333844826359
 21
-0.278388496252589
 31
0.0
  0
ARC
  8
5
  6
CONTINUOUS
 62
5
 10
1.24469384690199
 20
-4.91562346383034E-12
 30
0.0
 40
0.118110236
 50
314.999999999999
 51
45.000000000001
  0
ARC
  8
5
  6
CONTINUOUS
 62
5
 10
1.02198304962092
 20
-7.89865395312006E-12
 30
0.0
 40
0.118110236
 50
135
 51
225
  0
LINE
  8
5
  6
CONTINUOUS
 62
5
 10
1.29921259900804
 20
-0.787401574006849
 30
0.0
 11
1.57480315000804
 21
-0.787401574004039
 31
0.0
  0
LINE
  8
5
  6
CONTINUOUS
 62
5
 10
1.18110236300683
 20
-0.669291338008059
 30
0.0
 11
1.18110236300402
 21
-0.393700787008059
 31
0.0
  0
LINE
  8
5
  6
CONTINUOUS
 62
5
 10
1.45669291400402
 20
-0.393700787005239
 30
0.0
 11
1.18110236300402
 21
-0.393700787008059
 31
0.0
  0
LINE
  8
5
  6
CONTINUOUS
 62
5
 10
1.57480315000522
 20
-0.511811023004039
 30
0.0
 11
1.57480315000804
 21
-0.787401574004039
 31
0.0
  0
ARC
  8
5
  6
CONTINUOUS
 62
5
 10
1.45669291400522
 20
-0.511811023005238
 30
0.0
 40
0.118110236
 50
5.82187812223171E-10
 51
90.000000000582
  0
ARC
  8
5
  6
CONTINUOUS
 62
5
 10
1.29921259900683
 20
-0.669291338006866
 30
0.0
 40
0.118110236
 50
180.000000000573
 51
270.000000000573
  0
LINE
  8
5
  6
CONTINUOUS
 62
5
 10
2.05202048581629
 20
-1.03003743618054
 30
0.0
 11
2.24689243325684
 21
-0.835165488735009
 31
0.0
  0
LINE
  8
5
  6
CONTINUOUS
 62
5
 10
1.88498738821
 20
-1.03003743618267
 30
0.0
 11
1.69011544076448
 21
-0.835165488742109
 31
0.0
  0
LINE
  8
5
  6
CONTINUOUS
 62
5
 10
1.88498738820503
 20
-0.640293541296589
 30
0.0
 11
1.69011544076448
 21
-0.835165488742109
 31
0.0
  0
LINE
  8
5
  6
CONTINUOUS
 62
5
 10
2.05202048581131
 20
-0.640293541294459
 30
0.0
 11
2.24689243325684
 21
-0.835165488735009
 31
0.0
  0
ARC
  8
5
  6
CONTINUOUS
 62
5
 10
1.96850393700924
 20
-0.723810090098669
 30
0.0
 40
0.118110236
 50
45.0000000007288
 51
135.000000000731
  0
ARC
  8
5
  6
CONTINUOUS
 62
5
 10
1.96850393701208
 20
-0.946520887378465
 30
0.0
 40
0.118110236
 50
225.000000000721
 51
315.000000000724
  0
LINE
  8
5
  6
CONTINUOUS
 62
5
 10
2.75590551101025
 20
-0.669291337987959
 30
0.0
 11
2.75590551100603
 21
-0.393700786987959
 31
0.0
  0
LINE
  8
5
  6
CONTINUOUS
 62
5
 10
2.63779527501206
 20
-0.787401573989769
 30
0.0
 11
2.36220472401206
 21
-0.787401573993989
 31
0.0
  0
LINE
  8
5
  6
CONTINUOUS
 62
5
 10
2.36220472400784
 20
-0.511811022993989
 30
0.0
 11
2.36220472401206
 21
-0.787401573993989
 31
0.0
  0
LINE
  8
5
  6
CONTINUOUS
 62
5
 10
2.48031496000603
 20
-0.393700786992179
 30
0.0
 11
2.75590551100603
 21
-0.393700786987959
 31
0.0
  0
ARC
  8
5
  6
CONTINUOUS
 62
5
 10
2.48031496000784
 20
-0.511811022992178
 30
0.0
 40
0.118110236
 50
90.0000000008748
 51
180.000000000877
  0
ARC
  8
5
  6
CONTINUOUS
 62
5
 10
2.63779527501025
 20
-0.669291337989769
 30
0.0
 40
0.118110236
 50
270.000000000866
 51
8.74366287481135E-10
  0
LINE
  8
5
  6
CONTINUOUS
 62
5
 10
2.99854137318009
 20
0.083516548821521
 30
0.0
 11
2.80366942573357
 21
0.278388496261081
 31
0.0
  0
LINE
  8
5
  6
CONTINUOUS
 62
5
 10
2.99854137318307
 20
-0.0835165487847593
 30
0.0
 11
2.80366942574352
 21
-0.278388496231279
 31
0.0
  0
LINE
  8
5
  6
CONTINUOUS
 62
5
 10
2.608797478297
 20
-0.0835165487917191
 30
0.0
 11
2.80366942574352
 21
-0.278388496231279
 31
0.0
  0
LINE
  8
5
  6
CONTINUOUS
 62
5
 10
2.60879747829401
 20
0.0835165488145613
 30
0.0
 11
2.80366942573357
 21
0.278388496261081
 31
0.0
  0
ARC
  8
5
  6
CONTINUOUS
 62
5
 10
2.69231402709716
 20
1.14210030321971E-11
 30
0.0
 40
0.118110236
 50
135
 51
225
  0
ARC
  8
5
  6
CONTINUOUS
 62
5
 10
2.91502482437993
 20
1.8383961020163E-11
 30
0.0
 40
0.118110236
 50
314.999999999999
 51
45.000000000001
  0
LINE
  8
5
  6
CONTINUOUS
 62
5
 10
0.0662601697519398
 20
2.75201285270515
 30
0.0
 11
-0.01890199399514
 21
2.48991066334688
 31
0.0
  0
LINE
  8
5
  6
CONTINUOUS
 62
5
 10
0.21508774947422
 20
2.82784429216108
 30
0.0
 11
0.47718993883249
 21
2.74268212841399
 31
0.0
  0
LINE
  8
5
  6
CONTINUOUS
 62
5
 10
0.39202777508541
 20
2.48057993905572
 30
0.0
 11
0.47718993883249
 21
2.74268212841399
 31
0.0
  0
LINE
  8
5
  6
CONTINUOUS
 62
5
 10
0.24320019536312
 20
2.40474849959979
 30
0.0
 11
-0.01890199399514
 21
2.48991066334688
 31
0.0
  0
ARC
  8
5
  6
CONTINUOUS
 62
5
 10
0.279698265496316
 20
2.5170780091889
 30
0.0
 40
0.118110236
 50
252.000000000222
 51
342.000000000224
  0
ARC
  8
5
  6
CONTINUOUS
 62
5
 10
0.17858967934105
 20
2.71551478257197
 30
0.0
 40
0.118110236
 50
72.0000000002315
 51
162.000000000234
  0
LINE
  8
5
  6
CONTINUOUS
 62
5
 10
-0.3971306785824
 20
2.1110286112971
 30
0.0
 11
-0.27201518660878
 21
1.86547563235227
 31
0.0
  0
LINE
  8
5
  6
CONTINUOUS
 62
5
 10
-0.34551461280002
 20
2.26988652721287
 30
0.0
 11
-0.0999616338551799
 21
2.39500201918649
 31
0.0
  0
LINE
  8
5
  6
CONTINUOUS
 62
5
 10
0.0251538581184301
 20
2.14944904024165
 30
0.0
 11
-0.0999616338551799
 21
2.39500201918649
 31
0.0
  0
LINE
  8
5
  6
CONTINUOUS
 62
5
 10
-0.0264622076639398
 20
1.99059112432588
 30
0.0
 11
-0.27201518660878
 21
1.86547563235227
 31
0.0
  0
ARC
  8
5
  6
CONTINUOUS
 62
5
 10
-0.0800831327306232
 20
2.09582811517495
 30
0.0
 40
0.118110236
 50
297.00000000037
 51
27.0000000003779
  0
ARC
  8
5
  6
CONTINUOUS
 62
5
 10
-0.29189368773333
 20
2.1646495363638
 30
0.0
 40
0.118110236
 50
117.00000000038
 51
207.00000000038
  0
LINE
  8
5
  6
CONTINUOUS
 62
5
 10
-0.27155318604406
 20
1.33011749636708
 30
0.0
 11
-0.00945099668534999
 21
1.24495533262133
 31
0.0
  0
LINE
  8
5
  6
CONTINUOUS
 62
5
 10
-0.34738462550075
 20
1.47894507608898
 30
0.0
 11
-0.262222461755
 21
1.74104726544768
 31
0.0
  0
LINE
  8
5
  6
CONTINUOUS
 62
5
 10
-0.000120272396300081
 20
1.65588510170193
 30
0.0
 11
-0.262222461755
 21
1.74104726544768
 31
0.0
  0
LINE
  8
5
  6
CONTINUOUS
 62
5
 10
0.0757111670603901
 20
1.50705752198004
 30
0.0
 11
-0.00945099668534999
 21
1.24495533262133
 31
0.0
  0
ARC
  8
5
  6
CONTINUOUS
 62
5
 10
-0.0366183425288983
 20
1.54355559211265
 30
0.0
 40
0.118110236
 50
342.000000000515
 51
72.0000000005238
  0
ARC
  8
5
  6
CONTINUOUS
 62
5
 10
-0.23505511591146
 20
1.44244700595637
 30
0.0
 40
0.118110236
 50
162.000000000515
 51
252.000000000515
  0
LINE
  8
5
  6
CONTINUOUS
 62
5
 10
0.36943105536635
 20
0.866726648036011
 30
0.0
 11
0.61498403431055
 21
0.991842140010881
 31
0.0
  0
LINE
  8
5
  6
CONTINUOUS
 62
5
 10
0.21057313945032
 20
0.918342713817581
 30
0.0
 11
0.08545764747545
 21
1.16389569276178
 31
0.0
  0
LINE
  8
5
  6
CONTINUOUS
 62
5
 10
0.33101062641965
 20
1.28901118473665
 30
0.0
 11
0.08545764747545
 21
1.16389569276178
 31
0.0
  0
LINE
  8
5
  6
CONTINUOUS
 62
5
 10
0.48986854233568
 20
1.23739511895508
 30
0.0
 11
0.61498403431055
 21
0.991842140010881
 31
0.0
  0
ARC
  8
5
  6
CONTINUOUS
 62
5
 10
0.38463155148688
 20
1.18377419388785
 30
0.0
 40
0.118110236
 50
27.0000000006699
 51
117.000000000672
  0
ARC
  8
5
  6
CONTINUOUS
 62
5
 10
0.315810130299133
 20
0.971963638884805
 30
0.0
 40
0.118110236
 50
207.000000000661
 51
297.000000000661
  0
LINE
  8
5
  6
CONTINUOUS
 62
5
 10
1.15034217029574
 20
0.992304140578341
 30
0.0
 11
1.23550433404015
 21
1.25440632993748
 31
0.0
  0
LINE
  8
5
  6
CONTINUOUS
 62
5
 10
1.00151459057423
 20
0.916472701120891
 30
0.0
 11
0.73941240121509
 21
1.0016348648653
 31
0.0
  0
LINE
  8
5
  6
CONTINUOUS
 62
5
 10
0.8245745649595
 20
1.26373705422444
 30
0.0
 11
0.73941240121509
 21
1.0016348648653
 31
0.0
  0
LINE
  8
5
  6
CONTINUOUS
 62
5
 10
0.97340214468101
 20
1.33956849368189
 30
0.0
 11
1.23550433404015
 21
1.25440632993748
 31
0.0
  0
ARC
  8
5
  6
CONTINUOUS
 62
5
 10
0.936904074548969
 20
1.22723898409241
 30
0.0
 40
0.118110236
 50
72.0000000008159
 51
162.000000000818
  0
ARC
  8
5
  6
CONTINUOUS
 62
5
 10
1.03801266070626
 20
1.02880221071037
 30
0.0
 40
0.118110236
 50
252.000000000807
 51
342.000000000807
  0
LINE
  8
5
  6
CONTINUOUS
 62
5
 10
1.61373301862353
 20
1.63328838199111
 30
0.0
 11
1.48861752664741
 21
1.87884136093467
 31
0.0
  0
LINE
  8
5
  6
CONTINUOUS
 62
5
 10
1.56211695284278
 20
1.47443046607482
 30
0.0
 11
1.31656397389922
 21
1.3493149740987
 31
0.0
  0
LINE
  8
5
  6
CONTINUOUS
 62
5
 10
1.19144848192309
 20
1.59486795304226
 30
0.0
 11
1.31656397389922
 21
1.3493149740987
 31
0.0
  0
LINE
  8
5
  6
CONTINUOUS
 62
5
 10
1.24306454770385
 20
1.75372586895855
 30
0.0
 11
1.48861752664741
 21
1.87884136093467
 31
0.0
  0
ARC
  8
5
  6
CONTINUOUS
 62
5
 10
1.29668547277162
 20
1.64848887811003
 30
0.0
 40
0.118110236
 50
117.000000000965
 51
207.000000000965
  0
ARC
  8
5
  6
CONTINUOUS
 62
5
 10
1.50849602777501
 20
1.57966745692335
 30
0.0
 40
0.118110236
 50
297.000000000953
 51
27.000000000962
  0
LINE
  8
5
  6
CONTINUOUS
 62
5
 10
1.48815552607722
 20
2.41419949691985
 30
0.0
 11
1.22605333671765
 21
2.49936166066293
 31
0.0
  0
LINE
  8
5
  6
CONTINUOUS
 62
5
 10
1.56398696553543
 20
2.26537191719873
 30
0.0
 11
1.47882480179236
 21
2.00326972783916
 31
0.0
  0
LINE
  8
5
  6
CONTINUOUS
 62
5
 10
1.21672261243278
 20
2.08843189158223
 30
0.0
 11
1.47882480179236
 21
2.00326972783916
 31
0.0
  0
LINE
  8
5
  6
CONTINUOUS
 62
5
 10
1.14089117297458
 20
2.23725947130335
 30
0.0
 11
1.22605333671765
 21
2.49936166066293
 31
0.0
  0
ARC
  8
5
  6
CONTINUOUS
 62
5
 10
1.25322068256424
 20
2.2007614011719
 30
0.0
 40
0.118110236
 50
162.000000001099
 51
252.000000001099
  0
ARC
  8
5
  6
CONTINUOUS
 62
5
 10
1.45165745594577
 20
2.30186998733019
 30
0.0
 40
0.118110236
 50
342.000000001101
 51
72.0000000011085
  0
LINE
  8
5
  6
CONTINUOUS
 62
5
 10
0.84717128466208
 20
2.87759034524438
 30
0.0
 11
0.60161830571916
 21
2.75247485326701
 31
0.0
  0
LINE
  8
5
  6
CONTINUOUS
 62
5
 10
1.00602920057864
 20
2.82597427946444
 30
0.0
 11
1.13114469255601
 21
2.58042130052151
 31
0.0
  0
LINE
  8
5
  6
CONTINUOUS
 62
5
 10
0.88559171361309
 20
2.45530580854414
 30
0.0
 11
1.13114469255601
 21
2.58042130052151
 31
0.0
  0
LINE
  8
5
  6
CONTINUOUS
 62
5
 10
0.72673379769653
 20
2.50692187432408
 30
0.0
 11
0.60161830571916
 21
2.75247485326701
 31
0.0
  0
ARC
  8
5
  6
CONTINUOUS
 62
5
 10
0.831970788544795
 20
2.56054279939239
 30
0.0
 40
0.118110236
 50
207.000000001245
 51
297.000000001245
  0
ARC
  8
5
  6
CONTINUOUS
 62
5
 10
0.90079220973039
 20
2.77235335439613
 30
0.0
 40
0.118110235999999
 50
27.0000000012541
 51
117.000000001257
  0
LINE
  8
5
  6
CONTINUOUS
 62
5
 10
-2.59684423799348
 20
0.913435906426961
 30
0.0
 11
-2.373886798744
 21
0.751447844879831
 31
0.0
  0
LINE
  8
5
  6
CONTINUOUS
 62
5
 10
-2.62297397126288
 20
1.07841254942597
 30
0.0
 11
-2.46098590971574
 21
1.30136998867544
 31
0.0
  0
LINE
  8
5
  6
CONTINUOUS
 62
5
 10
-2.23802847046626
 20
1.13938192712831
 30
0.0
 11
-2.46098590971574
 21
1.30136998867544
 31
0.0
  0
LINE
  8
5
  6
CONTINUOUS
 62
5
 10
-2.21189873719686
 20
0.974405284129301
 30
0.0
 11
-2.373886798744
 21
0.751447844879831
 31
0.0
  0
ARC
  8
5
  6
CONTINUOUS
 62
5
 10
-2.30745192533106
 20
1.04382873899412
 30
0.0
 40
0.118110236
 50
324.000000000455
 51
54.0000000004645
  0
LINE
  8
5
  6
CONTINUOUS
 62
5
 10
-2.13042764553038
 20
0.274649996807331
 30
0.0
 11
-1.85823007152995
 21
0.317761857226081
 31
0.0
  0
LINE
  8
5
  6
CONTINUOUS
 62
5
 10
-2.265560260118
 20
0.372829588223591
 30
0.0
 11
-2.30867212053675
 21
0.645027162224021
 31
0.0
  0
LINE
  8
5
  6
CONTINUOUS
 62
5
 10
-2.03647454653632
 20
0.688139022642761
 30
0.0
 11
-2.30867212053675
 21
0.645027162224021
 31
0.0
  0
LINE
  8
5
  6
CONTINUOUS
 62
5
 10
-1.90134193194869
 20
0.589959431226511
 30
0.0
 11
-1.85823007152995
 21
0.317761857226081
 31
0.0
  0
ARC
  8
5
  6
CONTINUOUS
 62
5
 10
-2.01799803495063
 20
0.571482919640822
 30
0.0
 40
0.118110236
 50
9.00000000061122
 51
99.000000000611
  0
ARC
  8
5
  6
CONTINUOUS
 62
5
 10
-2.14890415711606
 20
0.391306099809265
 30
0.0
 40
0.118110236
 50
189.000000000602
 51
279.000000000601
  0
LINE
  8
5
  6
CONTINUOUS
 62
5
 10
-1.34893146172303
 20
0.152766483779451
 30
0.0
 11
-1.18694340017703
 21
0.375723923029761
 31
0.0
  0
LINE
  8
5
  6
CONTINUOUS
 62
5
 10
-1.5139081047219
 20
0.126636750509211
 30
0.0
 11
-1.7368655439722
 21
0.288624812055211
 31
0.0
  0
LINE
  8
5
  6
CONTINUOUS
 62
5
 10
-1.5748774824262
 20
0.511582251305521
 30
0.0
 11
-1.7368655439722
 21
0.288624812055211
 31
0.0
  0
LINE
  8
5
  6
CONTINUOUS
 62
5
 10
-1.40990083942733
 20
0.537711984575761
 30
0.0
 11
-1.18694340017703
 21
0.375723923029761
 31
0.0
  0
ARC
  8
5
  6
CONTINUOUS
 62
5
 10
-1.47932429429165
 20
0.442158796441201
 30
0.0
 40
0.118110236000001
 50
54.0000000007581
 51
144.00000000076
  0
ARC
  8
5
  6
CONTINUOUS
 62
5
 10
-1.44448464985758
 20
0.222189938643755
 30
0.0
 40
0.118110236
 50
234.000000000749
 51
324.000000000749
  0
LINE
  8
5
  6
CONTINUOUS
 62
5
 10
-0.71014555210578
 20
0.619183076245821
 30
0.0
 11
-0.75325741252591
 21
0.891380650246021
 31
0.0
  0
LINE
  8
5
  6
CONTINUOUS
 62
5
 10
-0.80832514352134
 20
0.484050461657692
 30
0.0
 11
-1.08052271752155
 21
0.440938601237551
 31
0.0
  0
LINE
  8
5
  6
CONTINUOUS
 62
5
 10
-1.12363457794169
 20
0.713136175237761
 30
0.0
 11
-1.08052271752155
 21
0.440938601237551
 31
0.0
  0
LINE
  8
5
  6
CONTINUOUS
 62
5
 10
-1.02545498652612
 20
0.848268789825891
 30
0.0
 11
-0.75325741252591
 21
0.891380650246021
 31
0.0
  0
ARC
  8
5
  6
CONTINUOUS
 62
5
 10
-1.00697847493984
 20
0.731612686824041
 30
0.0
 40
0.118110236
 50
99.000000000905
 51
189.000000000906
  0
ARC
  8
5
  6
CONTINUOUS
 62
5
 10
-0.826801655107614
 20
0.600706564659532
 30
0.0
 40
0.118110236
 50
279.000000000897
 51
9.00000000090444
  0
LINE
  8
5
  6
CONTINUOUS
 62
5
 10
-0.58826203908188
 20
1.40067926005379
 30
0.0
 11
-0.81121947833302
 21
1.56266732159865
 31
0.0
  0
LINE
  8
5
  6
CONTINUOUS
 62
5
 10
-0.5621323058108
 20
1.23570261705505
 30
0.0
 11
-0.72412036735566
 21
1.01274517780392
 31
0.0
  0
LINE
  8
5
  6
CONTINUOUS
 62
5
 10
-0.94707780660679
 20
1.17473323934878
 30
0.0
 11
-0.72412036735566
 21
1.01274517780392
 31
0.0
  0
LINE
  8
5
  6
CONTINUOUS
 62
5
 10
-0.97320753987788
 20
1.33970988234751
 30
0.0
 11
-0.81121947833302
 21
1.56266732159865
 31
0.0
  0
ARC
  8
5
  6
CONTINUOUS
 62
5
 10
-0.877654351742976
 20
1.27028642748369
 30
0.0
 40
0.118110236
 50
144.000000001042
 51
234.000000001042
  0
ARC
  8
5
  6
CONTINUOUS
 62
5
 10
-0.657685493945704
 20
1.30512607191888
 30
0.0
 40
0.118110236
 50
324.000000001042
 51
54.0000000010502
  0
LINE
  8
5
  6
CONTINUOUS
 62
5
 10
-1.05467863155151
 20
2.03946516966865
 30
0.0
 11
-1.3268762055515
 21
1.99635330924713
 31
0.0
  0
LINE
  8
5
  6
CONTINUOUS
 62
5
 10
-0.91954601696288
 20
1.94128557825378
 30
0.0
 11
-0.87643415654135
 21
1.66908800425379
 31
0.0
  0
LINE
  8
5
  6
CONTINUOUS
 62
5
 10
-1.14863173054134
 20
1.62597614383227
 30
0.0
 11
-0.87643415654135
 21
1.66908800425379
 31
0.0
  0
LINE
  8
5
  6
CONTINUOUS
 62
5
 10
-1.28376434512997
 20
1.72415573524714
 30
0.0
 11
-1.3268762055515
 21
1.99635330924713
 31
0.0
  0
ARC
  8
5
  6
CONTINUOUS
 62
5
 10
-1.16710824212822
 20
1.74263224683402
 30
0.0
 40
0.118110236000001
 50
189.000000001188
 51
279.000000001188
  0
ARC
  8
5
  6
CONTINUOUS
 62
5
 10
-1.03620211996463
 20
1.9228090666669
 30
0.0
 40
0.118110236
 50
9.00000000119644
 51
99.0000000011961
  0
LINE
  8
5
  6
CONTINUOUS
 62
5
 10
-1.8361748153601
 20
2.16134868268856
 30
0.0
 11
-1.99816287690382
 21
1.9383912434366
 31
0.0
  0
LINE
  8
5
  6
CONTINUOUS
 62
5
 10
-1.6711981723615
 20
2.18747841596048
 30
0.0
 11
-1.44824073310954
 21
2.02549035441676
 31
0.0
  0
LINE
  8
5
  6
CONTINUOUS
 62
5
 10
-1.61022879465326
 20
1.8025329151648
 30
0.0
 11
-1.44824073310954
 21
2.02549035441676
 31
0.0
  0
LINE
  8
5
  6
CONTINUOUS
 62
5
 10
-1.77520543765187
 20
1.77640318189288
 30
0.0
 11
-1.99816287690382
 21
1.9383912434366
 31
0.0
  0
ARC
  8
5
  6
CONTINUOUS
 62
5
 10
-1.70578198278852
 20
1.87195637002814
 30
0.0
 40
0.118110235999999
 50
234.000000001335
 51
324.000000001334
  0
LINE
  8
5
  6
CONTINUOUS
 62
5
 10
-2.47496072497259
 20
1.69493209021568
 30
0.0
 11
-2.43184886454968
 21
1.42273451621591
 31
0.0
  0
LINE
  8
5
  6
CONTINUOUS
 62
5
 10
-2.3767811335584
 20
1.83006470480481
 30
0.0
 11
-2.10458355955863
 21
1.87317656522772
 31
0.0
  0
LINE
  8
5
  6
CONTINUOUS
 62
5
 10
-2.06147169913572
 20
1.60097899122795
 30
0.0
 11
-2.10458355955863
 21
1.87317656522772
 31
0.0
  0
LINE
  8
5
  6
CONTINUOUS
 62
5
 10
-2.15965129054991
 20
1.46584637663882
 30
0.0
 11
-2.43184886454968
 21
1.42273451621591
 31
0.0
  0
ARC
  8
5
  6
CONTINUOUS
 62
5
 10
-2.17812780213738
 20
1.58250247964048
 30
0.0
 40
0.118110236
 50
279.000000001481
 51
9.00000000148911
  0
ARC
  8
5
  6
CONTINUOUS
 62
5
 10
-2.35830462197093
 20
1.71340860180315
 30
0.0
 40
0.118110236
 50
99.0000000014892
 51
189.000000001491
  0
LINE
  8
5
  6
CONTINUOUS
 62
5
 10
-1.67119817230106
 20
-2.18747841599584
 30
0.0
 11
-1.44824073305489
 21
-2.02549035444415
 31
0.0
  0
LINE
  8
5
  6
CONTINUOUS
 62
5
 10
-1.8361748153006
 20
-2.16134868272981
 30
0.0
 11
-1.99816287685229
 21
-1.93839124348364
 31
0.0
  0
LINE
  8
5
  6
CONTINUOUS
 62
5
 10
-1.77520543760612
 20
-1.77640318193195
 30
0.0
 11
-1.99816287685229
 21
-1.93839124348364
 31
0.0
  0
LINE
  8
5
  6
CONTINUOUS
 62
5
 10
-1.61022879460658
 20
-1.80253291519798
 30
0.0
 11
-1.44824073305489
 21
-2.02549035444415
 31
0.0
  0
ARC
  8
5
  6
CONTINUOUS
 62
5
 10
-1.70578198273937
 20
-1.87195637006474
 30
0.0
 40
0.118110236
 50
36.0000000006995
 51
126.000000000702
  0
ARC
  8
5
  6
CONTINUOUS
 62
5
 10
-1.74062162716782
 20
-2.09192522786306
 30
0.0
 40
0.118110236
 50
216.0000000007
 51
306.0000000007
  0
LINE
  8
5
  6
CONTINUOUS
 62
5
 10
-0.91954601691124
 20
-1.94128557826228
 30
0.0
 11
-0.87643415649944
 21
-1.66908800426075
 31
0.0
  0
LINE
  8
5
  6
CONTINUOUS
 62
5
 10
-1.05467863149636
 20
-2.03946516968199
 30
0.0
 11
-1.32687620549789
 21
-1.99635330927019
 31
0.0
  0
LINE
  8
5
  6
CONTINUOUS
 62
5
 10
-1.28376434508609
 20
-1.72415573526866
 30
0.0
 11
-1.32687620549789
 21
-1.99635330927019
 31
0.0
  0
LINE
  8
5
  6
CONTINUOUS
 62
5
 10
-1.14863173050097
 20
-1.62597614384895
 30
0.0
 11
-0.87643415649944
 21
-1.66908800426075
 31
0.0
  0
ARC
  8
5
  6
CONTINUOUS
 62
5
 10
-1.16710824208368
 20
-1.74263224685137
 30
0.0
 40
0.118110236
 50
81.0000000008463
 51
171.000000000848
  0
ARC
  8
5
  6
CONTINUOUS
 62
5
 10
-1.03620211991365
 20
-1.92280906667957
 30
0.0
 40
0.118110236
 50
261.000000000846
 51
351.000000000842
  0
LINE
  8
5
  6
CONTINUOUS
 62
5
 10
-0.56213230578437
 20
-1.23570261705078
 30
0.0
 11
-0.7241203673372
 21
-1.01274517780544
 31
0.0
  0
LINE
  8
5
  6
CONTINUOUS
 62
5
 10
-0.58826203904956
 20
-1.40067926005046
 30
0.0
 11
-0.81121947829491
 21
-1.56266732160328
 31
0.0
  0
LINE
  8
5
  6
CONTINUOUS
 62
5
 10
-0.97320753984773
 20
-1.33970988235794
 30
0.0
 11
-0.81121947829491
 21
-1.56266732160328
 31
0.0
  0
LINE
  8
5
  6
CONTINUOUS
 62
5
 10
-0.94707780658255
 20
-1.17473323935826
 30
0.0
 11
-0.7241203673372
 21
-1.01274517780544
 31
0.0
  0
ARC
  8
5
  6
CONTINUOUS
 62
5
 10
-0.8776543517153
 20
-1.27028642749069
 30
0.0
 40
0.118110236
 50
126.000000000994
 51
216.000000000994
  0
ARC
  8
5
  6
CONTINUOUS
 62
5
 10
-0.657685493916794
 20
-1.30512607191802
 30
0.0
 40
0.118110236
 50
306.000000000983
 51
36.0000000009917
  0
LINE
  8
5
  6
CONTINUOUS
 62
5
 10
-0.80832514352177
 20
-0.484050461662219
 30
0.0
 11
-1.08052271752352
 21
-0.440938601251809
 31
0.0
  0
LINE
  8
5
  6
CONTINUOUS
 62
5
 10
-0.71014555210137
 20
-0.619183076246839
 30
0.0
 11
-0.75325741251178
 21
-0.891380650248589
 31
0.0
  0
LINE
  8
5
  6
CONTINUOUS
 62
5
 10
-1.02545498651353
 20
-0.848268789838179
 30
0.0
 11
-0.75325741251178
 21
-0.891380650248589
 31
0.0
  0
LINE
  8
5
  6
CONTINUOUS
 62
5
 10
-1.12363457793393
 20
-0.713136175253549
 30
0.0
 11
-1.08052271752352
 21
-0.440938601251809
 31
0.0
  0
ARC
  8
5
  6
CONTINUOUS
 62
5
 10
-1.00697847493142
 20
-0.731612686835675
 30
0.0
 40
0.118110236
 50
171.00000000113
 51
261.000000001136
  0
ARC
  8
5
  6
CONTINUOUS
 62
5
 10
-0.82680165510388
 20
-0.600706564664713
 30
0.0
 40
0.118110236
 50
351.000000001132
 51
81.0000000011379
  0
LINE
  8
5
  6
CONTINUOUS
 62
5
 10
-1.51390810473509
 20
-0.126636750538949
 30
0.0
 11
-1.73686554397961
 21
-0.288624812092909
 31
0.0
  0
LINE
  8
5
  6
CONTINUOUS
 62
5
 10
-1.34893146173529
 20
-0.152766483803298
 30
0.0
 11
-1.18694340018132
 21
-0.375723923047809
 31
0.0
  0
LINE
  8
5
  6
CONTINUOUS
 62
5
 10
-1.40990083942584
 20
-0.537711984601779
 30
0.0
 11
-1.18694340018132
 21
-0.375723923047809
 31
0.0
  0
LINE
  8
5
  6
CONTINUOUS
 62
5
 10
-1.57487748242565
 20
-0.511582251337429
 30
0.0
 11
-1.73686554397961
 21
-0.288624812092909
 31
0.0
  0
ARC
  8
5
  6
CONTINUOUS
 62
5
 10
-1.47932429429357
 20
-0.442158796469715
 30
0.0
 40
0.118110235999999
 50
216.000000001274
 51
306.000000001274
  0
ARC
  8
5
  6
CONTINUOUS
 62
5
 10
-1.44448464986736
 20
-0.222189938671019
 30
0.0
 40
0.118110236
 50
36.0000000012841
 51
126.000000001286
  0
LINE
  8
5
  6
CONTINUOUS
 62
5
 10
-2.2655602601224
 20
-0.372829588280179
 30
0.0
 11
-2.30867212053142
 21
-0.645027162282149
 31
0.0
  0
LINE
  8
5
  6
CONTINUOUS
 62
5
 10
-2.13042764553828
 20
-0.274649996859089
 30
0.0
 11
-1.85823007153631
 21
-0.317761857268109
 31
0.0
  0
LINE
  8
5
  6
CONTINUOUS
 62
5
 10
-1.90134193194533
 20
-0.589959431270079
 30
0.0
 11
-1.85823007153631
 21
-0.317761857268109
 31
0.0
  0
LINE
  8
5
  6
CONTINUOUS
 62
5
 10
-2.03647454652945
 20
-0.688139022691169
 30
0.0
 11
-2.30867212053142
 21
-0.645027162282149
 31
0.0
  0
ARC
  8
5
  6
CONTINUOUS
 62
5
 10
-2.01799803494793
 20
-0.57148291968857
 30
0.0
 40
0.118110236
 50
261.000000001422
 51
351.000000001423
  0
ARC
  8
5
  6
CONTINUOUS
 62
5
 10
-2.1489041571198
 20
-0.391306099861698
 30
0.0
 40
0.118110236
 50
81.0000000014306
 51
171.000000001433
  0
LINE
  8
5
  6
CONTINUOUS
 62
5
 10
-2.62297397124207
 20
-1.07841254949533
 30
0.0
 11
-2.46098590968697
 21
-1.30136998873902
 31
0.0
  0
LINE
  8
5
  6
CONTINUOUS
 62
5
 10
-2.59684423797856
 20
-0.913435906495389
 30
0.0
 11
-2.37388679873487
 21
-0.751447844940279
 31
0.0
  0
LINE
  8
5
  6
CONTINUOUS
 62
5
 10
-2.21189873717977
 20
-0.974405284183978
 30
0.0
 11
-2.37388679873487
 21
-0.751447844940279
 31
0.0
  0
LINE
  8
5
  6
CONTINUOUS
 62
5
 10
-2.23802847044327
 20
-1.13938192718392
 30
0.0
 11
-2.46098590968697
 21
-1.30136998873902
 31
0.0
  0
ARC
  8
5
  6
CONTINUOUS
 62
5
 10
-2.30745192531149
 20
-1.04382873905219
 30
0.0
 40
0.118110236000001
 50
306.000000001569
 51
36.0000000015759
  0
ARC
  8
5
  6
CONTINUOUS
 62
5
 10
-2.52742078311035
 20
-1.00898909462711
 30
0.0
 40
0.118110236
 50
126.000000001579
 51
216.000000001579
  0
LINE
  8
5
  6
CONTINUOUS
 62
5
 10
-2.376781133497
 20
-1.83006470488138
 30
0.0
 11
-2.10458355949481
 21
-1.87317656528901
 31
0.0
  0
LINE
  8
5
  6
CONTINUOUS
 62
5
 10
-2.47496072491878
 20
-1.69493209029776
 30
0.0
 11
-2.43184886451114
 21
-1.42273451629557
 31
0.0
  0
LINE
  8
5
  6
CONTINUOUS
 62
5
 10
-2.15965129050896
 20
-1.4658463767032
 30
0.0
 11
-2.43184886451114
 21
-1.42273451629557
 31
0.0
  0
LINE
  8
5
  6
CONTINUOUS
 62
5
 10
-2.06147169908718
 20
-1.60097899128682
 30
0.0
 11
-2.10458355949481
 21
-1.87317656528901
 31
0.0
  0
ARC
  8
5
  6
CONTINUOUS
 62
5
 10
-2.17812780208988
 20
-1.5825024797059
 30
0.0
 40
0.118110236
 50
351.000000001714
 51
81.0000000017227
  0
ARC
  8
5
  6
CONTINUOUS
 62
5
 10
-2.35830462191608
 20
-1.71340860187868
 30
0.0
 40
0.118110236
 50
171.000000001718
 51
261.000000001717
  0
LINE
  8
5
  6
CONTINUOUS
 62
5
 10
1.5639869655877
 20
-2.26537191715221
 30
0.0
 11
1.47882480183526
 21
-2.00326972779568
 31
0.0
  0
LINE
  8
5
  6
CONTINUOUS
 62
5
 10
1.4881555261348
 20
-2.41419949687605
 30
0.0
 11
1.22605333677827
 21
-2.49936166062848
 31
0.0
  0
LINE
  8
5
  6
CONTINUOUS
 62
5
 10
1.14089117302584
 20
-2.23725947127195
 30
0.0
 11
1.22605333677827
 21
-2.49936166062848
 31
0.0
  0
LINE
  8
5
  6
CONTINUOUS
 62
5
 10
1.21672261247873
 20
-2.08843189154812
 30
0.0
 11
1.47882480183526
 21
-2.00326972779568
 31
0.0
  0
ARC
  8
5
  6
CONTINUOUS
 62
5
 10
1.2532206826142
 20
-2.20076140113648
 30
0.0
 40
0.118110236
 50
108.000000000936
 51
198.000000000935
  0
ARC
  8
5
  6
CONTINUOUS
 62
5
 10
1.45165745599933
 20
-2.30186998728768
 30
0.0
 40
0.118110236
 50
288.00000000093
 51
18.0000000009329
  0
LINE
  8
5
  6
CONTINUOUS
 62
5
 10
1.56211695286678
 20
-1.47443046602837
 30
0.0
 11
1.31656397391875
 21
-1.34931497406102
 31
0.0
  0
LINE
  8
5
  6
CONTINUOUS
 62
5
 10
1.61373301865322
 20
-1.63328838194282
 30
0.0
 11
1.48861752668586
 21
-1.87884136089085
 31
0.0
  0
LINE
  8
5
  6
CONTINUOUS
 62
5
 10
1.24306454773783
 20
-1.7537258689235
 30
0.0
 11
1.48861752668586
 21
-1.87884136089085
 31
0.0
  0
LINE
  8
5
  6
CONTINUOUS
 62
5
 10
1.1914484819514
 20
-1.59486795300905
 30
0.0
 11
1.31656397391875
 21
-1.34931497406102
 31
0.0
  0
ARC
  8
5
  6
CONTINUOUS
 62
5
 10
1.29668547280184
 20
-1.64848887807306
 30
0.0
 40
0.118110236
 50
153.000000001073
 51
243.000000001072
  0
ARC
  8
5
  6
CONTINUOUS
 62
5
 10
1.50849602780278
 20
-1.57966745687881
 30
0.0
 40
0.118110236000001
 50
333.000000001072
 51
63.0000000010794
  0
LINE
  8
5
  6
CONTINUOUS
 62
5
 10
1.0015145905783
 20
-0.916472701094459
 30
0.0
 11
0.7394124012222
 21
-1.00163486484824
 31
0.0
  0
LINE
  8
5
  6
CONTINUOUS
 62
5
 10
1.15034217030252
 20
-0.992304140546589
 30
0.0
 11
1.23550433405629
 21
-1.25440632990269
 31
0.0
  0
LINE
  8
5
  6
CONTINUOUS
 62
5
 10
0.97340214470019
 20
-1.33956849365647
 30
0.0
 11
1.23550433405629
 21
-1.25440632990269
 31
0.0
  0
LINE
  8
5
  6
CONTINUOUS
 62
5
 10
0.82457456497598
 20
-1.26373705420433
 30
0.0
 11
0.7394124012222
 21
-1.00163486484824
 31
0.0
  0
ARC
  8
5
  6
CONTINUOUS
 62
5
 10
0.936904074564151
 20
-1.22723898406829
 30
0.0
 40
0.118110236
 50
198.000000001218
 51
288.000000001218
  0
ARC
  8
5
  6
CONTINUOUS
 62
5
 10
1.03801266071434
 20
-1.02880221068264
 30
0.0
 40
0.118110236
 50
18.0000000012256
 51
108.000000001228
  0
LINE
  8
5
  6
CONTINUOUS
 62
5
 10
0.21057313945447
 20
-0.918342713819409
 30
0.0
 11
0.0854576474883699
 21
-1.16389569276808
 31
0.0
  0
LINE
  8
5
  6
CONTINUOUS
 62
5
 10
0.36943105536865
 20
-0.866726648032169
 30
0.0
 11
0.61498403431732
 21
-0.991842139998259
 31
0.0
  0
LINE
  8
5
  6
CONTINUOUS
 62
5
 10
0.48986854235122
 20
-1.23739511894693
 30
0.0
 11
0.61498403431732
 21
-0.991842139998259
 31
0.0
  0
LINE
  8
5
  6
CONTINUOUS
 62
5
 10
0.33101062643704
 20
-1.28901118473418
 30
0.0
 11
0.0854576474883699
 21
-1.16389569276808
 31
0.0
  0
ARC
  8
5
  6
CONTINUOUS
 62
5
 10
0.384631551500516
 20
-1.18377419388346
 30
0.0
 40
0.118110236
 50
243.000000001362
 51
333.000000001362
  0
ARC
  8
5
  6
CONTINUOUS
 62
5
 10
0.31581013030518
 20
-0.971963638882878
 30
0.0
 40
0.118110236
 50
63.0000000013719
 51
153.000000001374
  0
LINE
  8
5
  6
CONTINUOUS
 62
5
 10
-0.34738462547658
 20
-1.47894507611074
 30
0.0
 11
-0.26222246172147
 21
-1.7410472654664
 31
0.0
  0
LINE
  8
5
  6
CONTINUOUS
 62
5
 10
-0.27155318602521
 20
-1.33011749638614
 30
0.0
 11
-0.00945099666953997
 21
-1.24495533263103
 31
0.0
  0
LINE
  8
5
  6
CONTINUOUS
 62
5
 10
0.0757111670855699
 20
-1.50705752198669
 30
0.0
 11
-0.00945099666953997
 21
-1.24495533263103
 31
0.0
  0
LINE
  8
5
  6
CONTINUOUS
 62
5
 10
-0.000120272365809804
 20
-1.65588510171129
 30
0.0
 11
-0.26222246172147
 21
-1.7410472654664
 31
0.0
  0
ARC
  8
5
  6
CONTINUOUS
 62
5
 10
-0.0366183425024137
 20
-1.5435555921233
 30
0.0
 40
0.118110236
 50
288.000000001511
 51
18.0000000015186
  0
ARC
  8
5
  6
CONTINUOUS
 62
5
 10
-0.23505511588859
 20
-1.44244700597413
 30
0.0
 40
0.118110236
 50
108.00000000152
 51
198.00000000152
  0
LINE
  8
5
  6
CONTINUOUS
 62
5
 10
-0.3455146127476
 20
-2.26988652723457
 30
0.0
 11
-0.0999616337982898
 21
-2.39500201919941
 31
0.0
  0
LINE
  8
5
  6
CONTINUOUS
 62
5
 10
-0.39713067853565
 20
-2.11102861132065
 30
0.0
 11
-0.2720151865708
 21
-1.86547563237134
 31
0.0
  0
LINE
  8
5
  6
CONTINUOUS
 62
5
 10
-0.0264622076215
 20
-1.99059112433618
 30
0.0
 11
-0.2720151865708
 21
-1.86547563237134
 31
0.0
  0
LINE
  8
5
  6
CONTINUOUS
 62
5
 10
0.02515385816656
 20
-2.14944904025011
 30
0.0
 11
-0.0999616337982898
 21
-2.39500201919941
 31
0.0
  0
ARC
  8
5
  6
CONTINUOUS
 62
5
 10
-0.0800831326844266
 20
-2.09582811518717
 30
0.0
 40
0.118110236
 50
333.000000001656
 51
63.0000000016636
  0
ARC
  8
5
  6
CONTINUOUS
 62
5
 10
-0.291893687684663
 20
-2.16464953638358
 30
0.0
 40
0.118110236
 50
153.000000001654
 51
243.000000001654
  0
LINE
  8
5
  6
CONTINUOUS
 62
5
 10
0.21508774954658
 20
-2.82784429216275
 30
0.0
 11
0.47718993890181
 21
-2.7426821284063
 31
0.0
  0
LINE
  8
5
  6
CONTINUOUS
 62
5
 10
0.0662601698215899
 20
-2.75201285271214
 30
0.0
 11
-0.0189019939348598
 21
-2.48991066335691
 31
0.0
  0
LINE
  8
5
  6
CONTINUOUS
 62
5
 10
0.24320019542037
 20
-2.40474849960046
 30
0.0
 11
-0.0189019939348598
 21
-2.48991066335691
 31
0.0
  0
LINE
  8
5
  6
CONTINUOUS
 62
5
 10
0.39202777514536
 20
-2.48057993905107
 30
0.0
 11
0.47718993890181
 21
-2.7426821284063
 31
0.0
  0
ARC
  8
5
  6
CONTINUOUS
 62
5
 10
0.27969826555756
 20
-2.51707800918826
 30
0.0
 40
0.118110236
 50
18.0000000018109
 51
108.000000001813
  0
ARC
  8
5
  6
CONTINUOUS
 62
5
 10
0.178589679409391
 20
-2.71551478257495
 30
0.0
 40
0.118110236
 50
198.000000001808
 51
288.000000001806
  0
LINE
  8
5
  6
CONTINUOUS
 62
5
 10
1.0060292006704
 20
-2.82597427942973
 30
0.0
 11
1.13114469263399
 21
-2.58042130047979
 31
0.0
  0
LINE
  8
5
  6
CONTINUOUS
 62
5
 10
0.84717128475674
 20
-2.87759034521859
 30
0.0
 11
0.60161830580679
 21
-2.752474853255
 31
0.0
  0
LINE
  8
5
  6
CONTINUOUS
 62
5
 10
0.72673379777039
 20
-2.50692187430506
 30
0.0
 11
0.60161830580679
 21
-2.752474853255
 31
0.0
  0
LINE
  8
5
  6
CONTINUOUS
 62
5
 10
0.88559171368404
 20
-2.45530580851619
 30
0.0
 11
1.13114469263399
 21
-2.58042130047979
 31
0.0
  0
ARC
  8
5
  6
CONTINUOUS
 62
5
 10
0.83197078862164
 20
-2.56054279936745
 30
0.0
 40
0.118110236000001
 50
63.0000000019562
 51
153.000000001959
  0
ARC
  8
5
  6
CONTINUOUS
 62
5
 10
0.900792209819146
 20
-2.77235335436733
 30
0.0
 40
0.118110236
 50
243.000000001948
 51
333.000000001953
  0
ARC
  8
5
  6
CONTINUOUS
 62
5
 10
-2.52742078312868
 20
1.00898909456116
 30
0.0
 40
0.118110236
 50
144.000000000461
 51
234.000000000462
  0
ARC
  8
5
  6
CONTINUOUS
 62
5
 10
-1.74062162722484
 20
2.09192522782522
 30
0.0
 40
0.118110236000001
 50
54.0000000013422
 51
144.000000001345
  0
ENDSEC
  0
EOF
