  0
SECTION
  2
HEADER
  9
$ACADVER
  1
AC1003
  9
$EXTMIN
 10
-8.2380804541499
 20
3.24903817019331
  9
$EXTMAX
 10
2.16535433000199
 20
-3.57
  9
$INSUNITS
 70
1
  9
$INSBASE
 10
-3.03636306207396
 20
-0.160480914903345
999
Created with OMAX LAYOUT for Windows. (www.omax.com) 2/11/2024
  0
ENDSEC
  0
SECTION
  2
TABLES
  0
TABLE
  2
LAYER
 70
    10
  0
LAYER
  2
0
 70
     0
 62
     7
  6
CONTINUOUS
  0
LAYER
  2
1
 70
     0
 62
     7
  6
CONTINUOUS
  0
LAYER
  2
2
 70
     0
 62
     7
  6
CONTINUOUS
  0
LAYER
  2
3
 70
     0
 62
     7
  6
CONTINUOUS
  0
LAYER
  2
4
 70
     0
 62
     7
  6
CONTINUOUS
  0
LAYER
  2
5
 70
     0
 62
     7
  6
CONTINUOUS
  0
LAYER
  2
6
 70
     0
 62
     7
  6
CONTINUOUS
  0
LAYER
  2
7
 70
     0
 62
     7
  6
CONTINUOUS
  0
LAYER
  2
8
 70
     0
 62
     7
  6
CONTINUOUS
  0
LAYER
  2
9
 70
     0
 62
     7
  6
CONTINUOUS
  0
LAYER
  2
10
 70
     0
 62
     7
  6
CONTINUOUS
  0
LAYER
  2
11
 70
     0
 62
     7
  6
CONTINUOUS
  0
LAYER
  2
12
 70
     0
 62
     7
  6
CONTINUOUS
  0
LAYER
  2
13
 70
     0
 62
     7
  6
CONTINUOUS
  0
LAYER
  2
14
 70
     0
 62
     7
  6
CONTINUOUS
  0
LAYER
  2
15
 70
     0
 62
     7
  6
CONTINUOUS
  0
LAYER
  2
16
 70
     0
 62
     7
  6
CONTINUOUS
  0
LAYER
  2
17
 70
     0
 62
     7
  6
CONTINUOUS
  0
LAYER
  2
18
 70
     0
 62
     7
  6
CONTINUOUS
  0
LAYER
  2
19
 70
     0
 62
     7
  6
CONTINUOUS
  0
LAYER
  2
20
 70
     0
 62
     7
  6
CONTINUOUS
  0
LAYER
  2
21
 70
     0
 62
     7
  6
CONTINUOUS
  0
LAYER
  2
22
 70
     0
 62
     7
  6
CONTINUOUS
  0
LAYER
  2
23
 70
     0
 62
     7
  6
CONTINUOUS
  0
LAYER
  2
24
 70
     0
 62
     7
  6
CONTINUOUS
  0
LAYER
  2
25
 70
     0
 62
     7
  6
CONTINUOUS
  0
LAYER
  2
26
 70
     0
 62
     7
  6
CONTINUOUS
  0
LAYER
  2
27
 70
     0
 62
     7
  6
CONTINUOUS
  0
LAYER
  2
28
 70
     0
 62
     7
  6
CONTINUOUS
  0
LAYER
  2
29
 70
     0
 62
     7
  6
CONTINUOUS
  0
LAYER
  2
30
 70
     0
 62
     7
  6
CONTINUOUS
  0
LAYER
  2
31
 70
     0
 62
     7
  6
CONTINUOUS
  0
ENDTAB
  0
ENDSEC
  0
SECTION
  2
ENTITIES
  0
LINE
  8
0
  6
CONTINUOUS
 62
0
 10
-7.17508832814989
 20
1.12305391819331
 30
0.0
 11
-7.17508832814989
 21
2.18604604419331
 31
0.0
  0
ARC
  8
0
  6
CONTINUOUS
 62
0
 10
2.8421709430404E-14
 20
2.4757973449141E-14
 30
0.0
 40
1.37795275599998
 50
330.000000001363
 51
9.9999999995196
  0
ARC
  8
0
  6
CONTINUOUS
 62
0
 10
1.09334209191547
 20
-0.938976377991879
 30
0.0
 40
0.32393626351309
 50
262.31086810811
 51
82.3108681081115
  0
ARC
  8
0
  6
CONTINUOUS
 62
0
 10
1.09334209191547
 20
-0.938976377991878
 30
0.0
 40
0.32393626351309
 50
82.3108681081115
 51
262.310868108112
  0
LINE
  8
0
  6
CONTINUOUS
 62
0
 10
0.66
 20
-1.14
 30
0.0
 11
1.05
 21
-1.26
 31
0.0
  0
LINE
  8
0
  6
CONTINUOUS
 62
0
 10
0.82
 20
-0.89
 30
0.0
 11
0.66
 21
-1.14
 31
0.0
  0
LINE
  8
0
  6
CONTINUOUS
 62
0
 10
0.58
 20
-0.58
 30
0.0
 11
1.13668418383093
 21
-0.617952755983757
 31
0.0
  0
LINE
  8
0
  6
CONTINUOUS
 62
0
 10
0.83
 20
-0.73
 30
0.0
 11
0.58
 21
-0.58
 31
0.0
  0
LINE
  8
0
  6
CONTINUOUS
 62
0
 10
1.67572805620619
 20
0.571990568836865
 30
0.0
 11
1.35701855738912
 21
0.239278985028157
 31
0.0
  0
LINE
  8
0
  6
CONTINUOUS
 62
0
 10
1.99731143415582
 20
0.708314194912842
 30
0.0
 11
1.67572805620619
 21
0.571990568836865
 31
0.0
  0
LINE
  8
0
  6
CONTINUOUS
 62
0
 10
1.67968203978325
 20
0.430624497893826
 30
0.0
 11
1.481225309818
 21
0.191637204651071
 31
0.0
  0
LINE
  8
0
  6
CONTINUOUS
 62
0
 10
1.99241782157606
 20
0.630365156715318
 30
0.0
 11
1.67968203978325
 21
0.430624497893826
 31
0.0
  0
LINE
  8
0
  6
CONTINUOUS
 62
0
 10
2.1274575187958
 20
0.860504853801242
 30
0.0
 11
1.99241782157606
 21
0.630365156715318
 31
0.0
  0
LINE
  8
0
  6
CONTINUOUS
 62
0
 10
1.99731143415582
 20
0.708314194912842
 30
0.0
 11
2.1274575187958
 21
0.860504853801242
 31
0.0
  0
ARC
  8
0
  6
CONTINUOUS
 62
0
 10
-2.08721928629529E-14
 20
-1.63757896132211E-14
 30
0.0
 40
1.37795275599998
 50
170.000000000479
 51
209.999999998635
  0
ARC
  8
0
  6
CONTINUOUS
 62
0
 10
-1.09334209191547
 20
-0.938976377991878
 30
0.0
 40
0.32393626351309
 50
97.6891318918874
 51
277.689131891887
  0
ARC
  8
0
  6
CONTINUOUS
 62
0
 10
-1.09334209191548
 20
-0.938976377991879
 30
0.0
 40
0.32393626351309
 50
277.689131891887
 51
97.6891318918877
  0
LINE
  8
0
  6
CONTINUOUS
 62
0
 10
-0.660000000000006
 20
-1.14
 30
0.0
 11
-1.05000000000001
 21
-1.26
 31
0.0
  0
LINE
  8
0
  6
CONTINUOUS
 62
0
 10
-0.820000000000006
 20
-0.89
 30
0.0
 11
-0.660000000000006
 21
-1.14
 31
0.0
  0
LINE
  8
0
  6
CONTINUOUS
 62
0
 10
-0.580000000000006
 20
-0.58
 30
0.0
 11
-1.13668418383094
 21
-0.617952755983757
 31
0.0
  0
LINE
  8
0
  6
CONTINUOUS
 62
0
 10
-0.830000000000006
 20
-0.73
 30
0.0
 11
-0.580000000000006
 21
-0.58
 31
0.0
  0
LINE
  8
0
  6
CONTINUOUS
 62
0
 10
-1.6757280562062
 20
0.571990568836865
 30
0.0
 11
-1.35701855738913
 21
0.239278985028157
 31
0.0
  0
LINE
  8
0
  6
CONTINUOUS
 62
0
 10
-1.99731143415583
 20
0.708314194912842
 30
0.0
 11
-1.6757280562062
 21
0.571990568836865
 31
0.0
  0
LINE
  8
0
  6
CONTINUOUS
 62
0
 10
-1.67968203978326
 20
0.430624497893826
 30
0.0
 11
-1.481225309818
 21
0.191637204651071
 31
0.0
  0
LINE
  8
0
  6
CONTINUOUS
 62
0
 10
-1.99241782157606
 20
0.630365156715318
 30
0.0
 11
-1.67968203978326
 21
0.430624497893826
 31
0.0
  0
LINE
  8
0
  6
CONTINUOUS
 62
0
 10
-2.1274575187958
 20
0.860504853801242
 30
0.0
 11
-1.99241782157606
 21
0.630365156715318
 31
0.0
  0
LINE
  8
0
  6
CONTINUOUS
 62
0
 10
-1.99731143415583
 20
0.708314194912842
 30
0.0
 11
-2.1274575187958
 21
0.860504853801242
 31
0.0
  0
LINE
  8
0
  6
CONTINUOUS
 62
0
 10
-0.04
 20
0.63
 30
0.0
 11
-0.14
 21
1.09
 31
0.0
  0
LINE
  8
0
  6
CONTINUOUS
 62
0
 10
-0.13
 20
0.26
 30
0.0
 11
-0.04
 21
0.63
 31
0.0
  0
LINE
  8
0
  6
CONTINUOUS
 62
0
 10
0.15
 20
0.69
 30
0.0
 11
-0.13
 21
0.26
 31
0.0
  0
LINE
  8
0
  6
CONTINUOUS
 62
0
 10
0.04
 20
1.03
 30
0.0
 11
0.15
 21
0.69
 31
0.0
  0
LINE
  8
0
  6
CONTINUOUS
 62
0
 10
-0.14
 20
-0.35
 30
0.0
 11
-0.35
 21
-0.5
 31
0.0
  0
LINE
  8
0
  6
CONTINUOUS
 62
0
 10
0.02
 20
-0.37
 30
0.0
 11
-0.14
 21
-0.35
 31
0.0
  0
LINE
  8
0
  6
CONTINUOUS
 62
0
 10
0.16
 20
-0.27
 30
0.0
 11
0.02
 21
-0.37
 31
0.0
  0
LINE
  8
0
  6
CONTINUOUS
 62
0
 10
0.35
 20
-0.45
 30
0.0
 11
0.16
 21
-0.27
 31
0.0
  0
LINE
  8
0
  6
CONTINUOUS
 62
0
 10
0.35
 20
-0.51
 30
0.0
 11
-0.28
 21
-0.54
 31
0.0
  0
ARC
  8
0
  6
CONTINUOUS
 62
0
 10
1.09334209191547
 20
1.10102362200812
 30
0.0
 40
0.32393626351309
 50
277.689131891887
 51
97.6891318918877
  0
ARC
  8
0
  6
CONTINUOUS
 62
0
 10
1.09334209191547
 20
1.10102362200812
 30
0.0
 40
0.32393626351309
 50
97.6891318918874
 51
277.689131891887
  0
LINE
  8
0
  6
CONTINUOUS
 62
0
 10
0.660000000000002
 20
1.30204724401624
 30
0.0
 11
1.05
 21
1.42204724401624
 31
0.0
  0
LINE
  8
0
  6
CONTINUOUS
 62
0
 10
0.820000000000002
 20
1.05204724401624
 30
0.0
 11
0.660000000000002
 21
1.30204724401624
 31
0.0
  0
LINE
  8
0
  6
CONTINUOUS
 62
0
 10
0.580000000000002
 20
0.742047244016243
 30
0.0
 11
1.13668418383094
 21
0.779999999999999
 31
0.0
  0
LINE
  8
0
  6
CONTINUOUS
 62
0
 10
0.830000000000002
 20
0.892047244016243
 30
0.0
 11
0.580000000000002
 21
0.742047244016243
 31
0.0
  0
ARC
  8
0
  6
CONTINUOUS
 62
0
 10
-1.09334209191547
 20
1.10102362200812
 30
0.0
 40
0.32393626351309
 50
82.3108681081115
 51
262.310868108112
  0
ARC
  8
0
  6
CONTINUOUS
 62
0
 10
-1.09334209191547
 20
1.10102362200812
 30
0.0
 40
0.32393626351309
 50
262.31086810811
 51
82.3108681081115
  0
LINE
  8
0
  6
CONTINUOUS
 62
0
 10
-0.660000000000002
 20
1.30204724401624
 30
0.0
 11
-1.05
 21
1.42204724401624
 31
0.0
  0
LINE
  8
0
  6
CONTINUOUS
 62
0
 10
-0.820000000000002
 20
1.05204724401624
 30
0.0
 11
-0.660000000000002
 21
1.30204724401624
 31
0.0
  0
LINE
  8
0
  6
CONTINUOUS
 62
0
 10
-0.580000000000002
 20
0.742047244016243
 30
0.0
 11
-1.13668418383094
 21
0.779999999999999
 31
0.0
  0
LINE
  8
0
  6
CONTINUOUS
 62
0
 10
-0.830000000000002
 20
0.892047244016243
 30
0.0
 11
-0.580000000000002
 21
0.742047244016243
 31
0.0
  0
ARC
  8
0
  6
CONTINUOUS
 62
0
 10
-1.79686994450368E-14
 20
1.19904086659517E-14
 30
0.0
 40
1.37795275599998
 50
90.0975043845549
 51
130.097504382711
  0
ARC
  8
0
  6
CONTINUOUS
 62
0
 10
-5.55111512312578E-15
 20
2.75335310107039E-14
 30
0.0
 40
1.37795275599998
 50
49.9024956172886
 51
89.9024956154443
  0
LINE
  8
0
  6
CONTINUOUS
 62
0
 10
-0.54
 20
-1.48
 30
0.0
 11
-0.35
 21
-1.04
 31
0.0
  0
LINE
  8
0
  6
CONTINUOUS
 62
0
 10
-0.34
 20
-1.81
 30
0.0
 11
-0.54
 21
-1.48
 31
0.0
  0
LINE
  8
0
  6
CONTINUOUS
 62
0
 10
-0.09
 20
-1.81
 30
0.0
 11
-0.34
 21
-1.81
 31
0.0
  0
LINE
  8
0
  6
CONTINUOUS
 62
0
 10
0.0431169723399455
 20
-1.56869801613121
 30
0.0
 11
-0.111415133983453
 21
-1.69232370118993
 31
0.0
  0
LINE
  8
0
  6
CONTINUOUS
 62
0
 10
0.331576904143623
 20
-1.78504296498397
 30
0.0
 11
0.0431169723399455
 21
-1.56869801613121
 31
0.0
  0
LINE
  8
0
  6
CONTINUOUS
 62
0
 10
0.589130414682621
 20
-1.62020871823901
 30
0.0
 11
0.331576904143623
 21
-1.78504296498397
 31
0.0
  0
LINE
  8
0
  6
CONTINUOUS
 62
0
 10
0.66124539763354
 20
-1.40386376938625
 30
0.0
 11
0.589130414682621
 21
-1.62020871823901
 31
0.0
  0
LINE
  8
0
  6
CONTINUOUS
 62
0
 10
0.27
 20
-0.99
 30
0.0
 11
0.66124539763354
 21
-1.40386376938625
 31
0.0
  0
LINE
  8
0
  6
CONTINUOUS
 62
0
 10
-0.53380289126741
 20
-1.07419527589634
 30
0.0
 11
-0.35
 21
-1.04
 31
0.0
  0
LINE
  8
0
  6
CONTINUOUS
 62
0
 10
-0.564709312532089
 20
-2.73283988376748
 30
0.0
 11
-0.53380289126741
 21
-1.07419527589634
 31
0.0
  0
LINE
  8
0
  6
CONTINUOUS
 62
0
 10
0.568526133839501
 20
-1.02268457378854
 30
0.0
 11
0.27
 21
-0.99
 31
0.0
  0
LINE
  8
0
  6
CONTINUOUS
 62
0
 10
0.94
 20
-2.73
 30
0.0
 11
0.568526133839501
 21
-1.02268457378854
 31
0.0
  0
LINE
  8
0
  6
CONTINUOUS
 62
0
 10
-0.167798548182895
 20
2.15884298217164
 30
0.0
 11
-0.16
 21
1.4
 31
0.0
  0
LINE
  8
0
  6
CONTINUOUS
 62
0
 10
-0.22
 20
2.75
 30
0.0
 11
-0.167798548182895
 21
2.15884298217164
 31
0.0
  0
LINE
  8
0
  6
CONTINUOUS
 62
0
 10
1.53951511829797E-11
 20
2.16535433
 30
0.0
 11
-0.22
 21
2.75
 31
0.0
  0
LINE
  8
0
  6
CONTINUOUS
 62
0
 10
0.002344961037478
 20
1.37795076070436
 30
0.0
 11
1.53951511829797E-11
 21
2.16535433
 31
0.0
  0
LINE
  8
0
  6
CONTINUOUS
 62
0
 10
-1.574803148
 20
-3.543307083
 30
0.0
 11
-0.393700787
 21
-1.968503935
 31
0.0
  0
LINE
  8
0
  6
CONTINUOUS
 62
0
 10
1.968503935
 20
-3.543307083
 30
0.0
 11
-1.574803148
 21
-3.543307083
 31
0.0
  0
LINE
  8
0
  6
CONTINUOUS
 62
0
 10
0.787401574
 20
-1.968503935
 30
0.0
 11
1.968503935
 21
-3.543307083
 31
0.0
  0
ARC
  8
0
  6
CONTINUOUS
 62
0
 10
-0.754212257906645
 20
0.0965355028634254
 30
0.0
 40
0.193088829379013
 50
300.963756532072
 51
120.963756532073
  0
ARC
  8
0
  6
CONTINUOUS
 62
0
 10
-0.754212257906653
 20
0.0965355028634214
 30
0.0
 40
0.193088829379013
 50
120.963756532072
 51
300.963756532072
  0
ARC
  8
0
  6
CONTINUOUS
 62
0
 10
0.586923414428983
 20
0.162764424954076
 30
0.0
 40
0.357683676852397
 50
315.03535791531
 51
135.035357915311
  0
ARC
  8
0
  6
CONTINUOUS
 62
0
 10
0.586923414428973
 20
0.162764424954067
 30
0.0
 40
0.357683676852397
 50
135.03535791531
 51
315.03535791531
  0
LINE
  8
0
  6
CONTINUOUS
 62
0
 10
-5.0491040761499
 20
2.18604604419331
 30
0.0
 11
-5.0491040761499
 21
1.12305391819331
 31
0.0
  0
LINE
  8
0
  6
CONTINUOUS
 62
0
 10
-8.2380804541499
 20
3.24903817019331
 30
0.0
 11
-5.0491040761499
 21
3.24903817019331
 31
0.0
  0
LINE
  8
0
  6
CONTINUOUS
 62
0
 10
-6.11209620214989
 20
2.18604604419331
 30
0.0
 11
-5.0491040761499
 21
2.18604604419331
 31
0.0
  0
LINE
  8
0
  6
CONTINUOUS
 62
0
 10
-6.1120962021499
 20
3.24903817019331
 30
0.0
 11
-6.1120962021499
 21
2.1860460441933
 31
0.0
  0
LINE
  8
0
  6
CONTINUOUS
 62
0
 10
-8.23808045414989
 20
2.18604604419331
 30
0.0
 11
-7.17508832814989
 21
2.18604604419331
 31
0.0
  0
LINE
  8
0
  6
CONTINUOUS
 62
0
 10
-7.17508832814989
 20
2.18604604419331
 30
0.0
 11
-6.11209620214989
 21
2.18604604419331
 31
0.0
  0
LINE
  8
0
  6
CONTINUOUS
 62
0
 10
-8.23808045414989
 20
1.12305391819331
 30
0.0
 11
-7.17508832814989
 21
1.12305391819331
 31
0.0
  0
LINE
  8
0
  6
CONTINUOUS
 62
0
 10
-6.11209620214989
 20
1.12305391819331
 30
0.0
 11
-5.0491040761499
 21
1.12305391819331
 31
0.0
  0
LINE
  8
0
  6
CONTINUOUS
 62
0
 10
-8.2380804541499
 20
3.24903817019331
 30
0.0
 11
-8.23808045414989
 21
2.18604604419331
 31
0.0
  0
LINE
  8
0
  6
CONTINUOUS
 62
0
 10
-8.2380804541499
 20
3.24903817019331
 30
0.0
 11
-8.23808045414989
 21
2.18604604419331
 31
0.0
  0
LINE
  8
0
  6
CONTINUOUS
 62
0
 10
-5.0491040761499
 20
3.24903817019331
 30
0.0
 11
-5.0491040761499
 21
2.18604604419331
 31
0.0
  0
LINE
  8
0
  6
CONTINUOUS
 62
0
 10
-8.23808045414989
 20
2.18604604419331
 30
0.0
 11
-8.23808045414989
 21
1.12305391819331
 31
0.0
  0
LINE
  8
0
  6
CONTINUOUS
 62
0
 10
-7.17508832814989
 20
2.18604604419331
 30
0.0
 11
-7.1750883281499
 21
3.24903817019331
 31
0.0
  0
LINE
  8
0
  6
CONTINUOUS
 62
0
 10
-7.17508832814988
 20
0.0600617921933098
 30
0.0
 11
-7.17508832814989
 21
1.12305391819331
 31
0.0
  0
LINE
  8
0
  6
CONTINUOUS
 62
0
 10
-8.23808045414988
 20
0.0600617921933098
 30
0.0
 11
-7.88374974514989
 21
0.0600617921933098
 31
0.0
  0
LINE
  8
0
  6
CONTINUOUS
 62
0
 10
-8.23808045414988
 20
1.12305391819331
 30
0.0
 11
-8.23808045414988
 21
0.0600617921933098
 31
0.0
  0
LINE
  8
0
  6
CONTINUOUS
 62
0
 10
-7.88374974514988
 20
1.12305391819331
 30
0.0
 11
-7.88374974514988
 21
0.0600617921933098
 31
0.0
  0
LINE
  8
0
  6
CONTINUOUS
 62
0
 10
-7.52941903614988
 20
1.12305391819331
 30
0.0
 11
-7.52941903614988
 21
0.0600617921933098
 31
0.0
  0
LINE
  8
0
  6
CONTINUOUS
 62
0
 10
-7.52941903614988
 20
0.0600617921933097
 30
0.0
 11
-7.17508832814988
 21
0.0600617921933098
 31
0.0
  0
LINE
  8
0
  6
CONTINUOUS
 62
0
 10
-5.04910407614991
 20
1.12305391819331
 30
0.0
 11
-6.11209620214991
 21
1.12305391819331
 31
0.0
  0
LINE
  8
0
  6
CONTINUOUS
 62
0
 10
-6.11209620214992
 20
0.0600617921933098
 30
0.0
 11
-6.11209620214991
 21
1.12305391819331
 31
0.0
  0
LINE
  8
0
  6
CONTINUOUS
 62
0
 10
-5.04910407614992
 20
0.0600617921933098
 30
0.0
 11
-5.40343478514992
 21
0.0600617921933098
 31
0.0
  0
LINE
  8
0
  6
CONTINUOUS
 62
0
 10
-5.04910407614992
 20
1.12305391819331
 30
0.0
 11
-5.04910407614992
 21
0.0600617921933098
 31
0.0
  0
LINE
  8
0
  6
CONTINUOUS
 62
0
 10
-5.40343478514992
 20
1.12305391819331
 30
0.0
 11
-5.40343478514992
 21
0.0600617921933098
 31
0.0
  0
LINE
  8
0
  6
CONTINUOUS
 62
0
 10
-5.75776549414992
 20
1.12305391819331
 30
0.0
 11
-5.75776549414992
 21
0.0600617921933098
 31
0.0
  0
LINE
  8
0
  6
CONTINUOUS
 62
0
 10
-5.75776549414992
 20
0.0600617921933097
 30
0.0
 11
-6.11209620214992
 21
0.0600617921933098
 31
0.0
  0
ARC
  8
0
  6
CONTINUOUS
 62
0
 10
9.3718366400708E-12
 20
-5.44692069226471E-12
 30
0.0
 40
1.77165354300541
 50
183.333333328887
 51
196.66666666193
  0
ARC
  8
0
  6
CONTINUOUS
 62
0
 10
4.69446703732501E-12
 20
2.74003042477489E-12
 30
0.0
 40
1.7716535429973
 50
343.333333333237
 51
356.66666666628
  0
ARC
  8
0
  6
CONTINUOUS
 62
0
 10
1.53823620507865E-11
 20
-2.19422258140867E-11
 30
0.0
 40
1.77165354302194
 50
103.333333330628
 51
116.666666663672
  0
ARC
  8
0
  6
CONTINUOUS
 62
0
 10
7.69906360886807E-12
 20
1.10158548949357E-11
 30
0.0
 40
1.77165354298899
 50
63.3333333314978
 51
76.6666666645414
  0
LINE
  8
0
  6
CONTINUOUS
 62
0
 10
0.568526133839501
 20
-1.02268457378854
 30
0.0
 11
0.921474206583534
 21
-1.55913174607525
 31
0.0
  0
LINE
  8
0
  6
CONTINUOUS
 62
0
 10
0.787401574
 20
-1.574803148
 30
0.0
 11
0
 21
-1.968503935
 31
0.0
  0
LINE
  8
0
  6
CONTINUOUS
 62
0
 10
-0.393700787
 20
-1.968503935
 30
0.0
 11
0.787401574
 21
-2.362204722
 31
0.0
  0
LINE
  8
0
  6
CONTINUOUS
 62
0
 10
0.787401574
 20
-2.362204722
 30
0.0
 11
0.393700787
 21
-1.968503935
 31
0.0
  0
LINE
  8
0
  6
CONTINUOUS
 62
0
 10
-0.393700787
 20
-1.968503935
 30
0.0
 11
-0.787401574
 21
-1.968503935
 31
0.0
  0
LINE
  8
0
  6
CONTINUOUS
 62
0
 10
-0.787401574
 20
-1.968503935
 30
0.0
 11
-0.393700787
 21
-1.181102361
 31
0.0
  0
LINE
  8
0
  6
CONTINUOUS
 62
0
 10
-6.1120962021499
 20
2.1860460441933
 30
0.0
 11
-6.11209620214989
 21
1.12305391819331
 31
0.0
  0
LINE
  8
0
  6
CONTINUOUS
 62
0
 10
-7.88378517855408
 20
-1.00293033380669
 30
0.0
 11
-7.88378517855409
 21
0.0600617921933098
 31
0.0
  0
LINE
  8
0
  6
CONTINUOUS
 62
0
 10
-8.23808045414988
 20
-1.00293033380669
 30
0.0
 11
-8.11998202884019
 21
-1.00293033380669
 31
0.0
  0
LINE
  8
0
  6
CONTINUOUS
 62
0
 10
-8.23808045414988
 20
0.0600617921933098
 30
0.0
 11
-8.23808045414988
 21
-1.00293033380669
 31
0.0
  0
LINE
  8
0
  6
CONTINUOUS
 62
0
 10
-8.11998202884019
 20
0.0600617921933098
 30
0.0
 11
-8.11998202884019
 21
-1.00293033380669
 31
0.0
  0
LINE
  8
0
  6
CONTINUOUS
 62
0
 10
-8.00188360353049
 20
0.0600617921933098
 30
0.0
 11
-8.00188360353049
 21
-1.00293033380669
 31
0.0
  0
LINE
  8
0
  6
CONTINUOUS
 62
0
 10
-8.00188360353049
 20
-1.00293033380669
 30
0.0
 11
-7.88378517855409
 21
-1.00293033380669
 31
0.0
  0
LINE
  8
0
  6
CONTINUOUS
 62
0
 10
-7.5294899029583
 20
-1.00293033380669
 30
0.0
 11
-7.5294899029583
 21
0.0600617921933098
 31
0.0
  0
LINE
  8
0
  6
CONTINUOUS
 62
0
 10
-7.1751946273625
 20
-1.00293033380669
 30
0.0
 11
-7.2932930526722
 21
-1.00293033380669
 31
0.0
  0
LINE
  8
0
  6
CONTINUOUS
 62
0
 10
-7.1751946273625
 20
0.0600617921933098
 30
0.0
 11
-7.1751946273625
 21
-1.00293033380669
 31
0.0
  0
LINE
  8
0
  6
CONTINUOUS
 62
0
 10
-7.2932930526722
 20
0.0600617921933098
 30
0.0
 11
-7.2932930526722
 21
-1.00293033380669
 31
0.0
  0
LINE
  8
0
  6
CONTINUOUS
 62
0
 10
-7.4113914779819
 20
0.0600617921933098
 30
0.0
 11
-7.4113914779819
 21
-1.00293033380669
 31
0.0
  0
LINE
  8
0
  6
CONTINUOUS
 62
0
 10
-7.4113914779819
 20
-1.00293033380669
 30
0.0
 11
-7.5294899029583
 21
-1.00293033380669
 31
0.0
  0
LINE
  8
0
  6
CONTINUOUS
 62
0
 10
-5.40339935174569
 20
-1.00293033380669
 30
0.0
 11
-5.40339935174569
 21
0.0600617921933098
 31
0.0
  0
LINE
  8
0
  6
CONTINUOUS
 62
0
 10
-5.04910407614989
 20
-1.00293033380669
 30
0.0
 11
-5.16720250145959
 21
-1.00293033380669
 31
0.0
  0
LINE
  8
0
  6
CONTINUOUS
 62
0
 10
-5.04910407614989
 20
0.0600617921933098
 30
0.0
 11
-5.04910407614989
 21
-1.00293033380669
 31
0.0
  0
LINE
  8
0
  6
CONTINUOUS
 62
0
 10
-5.16720250145959
 20
0.0600617921933098
 30
0.0
 11
-5.16720250145959
 21
-1.00293033380669
 31
0.0
  0
LINE
  8
0
  6
CONTINUOUS
 62
0
 10
-5.28530092676929
 20
0.0600617921933098
 30
0.0
 11
-5.28530092676929
 21
-1.00293033380669
 31
0.0
  0
LINE
  8
0
  6
CONTINUOUS
 62
0
 10
-5.28530092676929
 20
-1.00293033380669
 30
0.0
 11
-5.40339935174569
 21
-1.00293033380669
 31
0.0
  0
LINE
  8
0
  6
CONTINUOUS
 62
0
 10
-5.75769462734148
 20
-1.00293033380669
 30
0.0
 11
-5.75769462734148
 21
0.0600617921933098
 31
0.0
  0
LINE
  8
0
  6
CONTINUOUS
 62
0
 10
-6.11198990293728
 20
-1.00293033380669
 30
0.0
 11
-5.99389147762758
 21
-1.00293033380669
 31
0.0
  0
LINE
  8
0
  6
CONTINUOUS
 62
0
 10
-6.11198990293728
 20
0.0600617921933098
 30
0.0
 11
-6.11198990293728
 21
-1.00293033380669
 31
0.0
  0
LINE
  8
0
  6
CONTINUOUS
 62
0
 10
-5.99389147762758
 20
0.0600617921933098
 30
0.0
 11
-5.99389147762758
 21
-1.00293033380669
 31
0.0
  0
LINE
  8
0
  6
CONTINUOUS
 62
0
 10
-5.87579305231788
 20
0.0600617921933098
 30
0.0
 11
-5.87579305231788
 21
-1.00293033380669
 31
0.0
  0
LINE
  8
0
  6
CONTINUOUS
 62
0
 10
-5.87579305231788
 20
-1.00293033380669
 30
0.0
 11
-5.75769462734148
 21
-1.00293033380669
 31
0.0
  0
LINE
  8
1
  6
CONTINUOUS
 62
1
 10
-7.17508832814989
 20
1.12305391819331
 30
0.0
 11
-6.11209620214989
 21
2.18604604419331
 31
0.0
  0
LINE
  8
1
  6
CONTINUOUS
 62
1
 10
-7.17508832814989
 20
2.18604604419331
 30
0.0
 11
-6.11209620214989
 21
1.12305391819331
 31
0.0
  0
LINE
  8
1
  6
CONTINUOUS
 62
1
 10
-7.17508832814989
 20
1.12305391819331
 30
0.0
 11
-6.11209620214991
 21
1.12305391819331
 31
0.0
  0
LINE
  8
1
  6
CONTINUOUS
 62
1
 10
-1.76865618561112
 20
-0.103012492014893
 30
0.0
 11
-1.06
 21
-0.08
 31
0.0
  0
LINE
  8
1
  6
CONTINUOUS
 62
1
 10
1.19334209191547
 20
-0.688976377991878
 30
0.0
 11
0.852387208878856
 21
-0.4921259845
 31
0.0
  0
LINE
  8
1
  6
CONTINUOUS
 62
1
 10
-1.1933420918967
 20
-0.688976378024355
 30
0.0
 11
-0.852387208872141
 21
-0.492125984511596
 31
0.0
  0
LINE
  8
1
  6
CONTINUOUS
 62
1
 10
1.53429697494806
 20
-0.885826771490718
 30
0.0
 11
1.19334209191547
 21
-0.688976377991878
 31
0.0
  0
LINE
  8
1
  6
CONTINUOUS
 62
1
 10
1.74473814480075
 20
0.307644409183172
 30
0.0
 11
1.35701855739534
 21
0.239278984979154
 31
0.0
  0
LINE
  8
1
  6
CONTINUOUS
 62
1
 10
1.13879694613066
 20
1.3571653517195
 30
0.0
 11
0.885730958315089
 21
1.05557305159341
 31
0.0
  0
LINE
  8
1
  6
CONTINUOUS
 62
1
 10
-1.13879694602344
 20
1.35716535180948
 30
0.0
 11
-0.885730958233292
 21
1.05557305166205
 31
0.0
  0
LINE
  8
1
  6
CONTINUOUS
 62
1
 10
-1.74473814477645
 20
0.307644409321022
 30
0.0
 11
-1.3570185573768
 21
0.239278985084317
 31
0.0
  0
LINE
  8
1
  6
CONTINUOUS
 62
1
 10
-1.53429697501806
 20
-0.885826771369495
 30
0.0
 11
-1.19334209196887
 21
-0.688976377899399
 31
0.0
  0
LINE
  8
1
  6
CONTINUOUS
 62
1
 10
1.95351213963276
 20
-0.93410368522835
 30
0.0
 11
1.5983281144914
 21
-0.76426665166735
 31
0.0
  0
LINE
  8
1
  6
CONTINUOUS
 62
1
 10
2.02002376942051
 20
-0.779912395994501
 30
0.0
 11
1.6527467206897
 21
-0.638110142274754
 31
0.0
  0
LINE
  8
1
  6
CONTINUOUS
 62
1
 10
2.07438673857641
 20
-0.621030621844111
 30
0.0
 11
1.69722551364221
 21
-0.508115963404402
 31
0.0
  0
LINE
  8
1
  6
CONTINUOUS
 62
1
 10
2.16169089318205
 20
-0.125904157133712
 30
0.0
 11
1.76865618560308
 21
-0.103012492215317
 31
0.0
  0
LINE
  8
1
  6
CONTINUOUS
 62
1
 10
2.16494717939847
 20
0.0419891041149057
 30
0.0
 11
1.7713204197805
 21
0.0343547215547003
 31
0.0
  0
LINE
  8
1
  6
CONTINUOUS
 62
1
 10
2.15518321854326
 20
0.209629837950802
 30
0.0
 11
1.76333172453403
 21
0.171515321986999
 31
0.0
  0
LINE
  8
1
  6
CONTINUOUS
 62
1
 10
2.13245773222586
 20
0.376009833275534
 30
0.0
 11
1.74473814481687
 21
0.307644409091817
 31
0.0
  0
LINE
  8
1
  6
CONTINUOUS
 62
1
 10
1.39186293411995
 20
1.65875765169984
 30
0.0
 11
1.13879694627279
 21
1.35716535160025
 31
0.0
  0
LINE
  8
1
  6
CONTINUOUS
 62
1
 10
1.25913637466559
 20
1.76162849785185
 30
0.0
 11
1.03020248852065
 21
1.4413324075557
 31
0.0
  0
LINE
  8
1
  6
CONTINUOUS
 62
1
 10
1.11883722089992
 20
1.85390470293883
 30
0.0
 11
0.915412271785574
 21
1.51683112082026
 31
0.0
  0
LINE
  8
1
  6
CONTINUOUS
 62
1
 10
0.971809248441721
 20
1.93503130700589
 30
0.0
 11
0.795116657937592
 21
1.58320743324892
 31
0.0
  0
LINE
  8
1
  6
CONTINUOUS
 62
1
 10
0.499365074646646
 20
2.10698692370715
 30
0.0
 11
0.408571424772958
 21
1.7238983923896
 31
0.0
  0
LINE
  8
1
  6
CONTINUOUS
 62
1
 10
0.334587937462317
 20
2.13934809849975
 30
0.0
 11
0.273753767055923
 21
1.75037571722392
 31
0.0
  0
LINE
  8
1
  6
CONTINUOUS
 62
1
 10
0.167798549053385
 20
2.15884298210531
 30
0.0
 11
0.137289721973055
 21
1.76632607653995
 31
0.0
  0
LINE
  8
1
  6
CONTINUOUS
 62
1
 10
-0.167798548202504
 20
2.15884298217145
 30
0.0
 11
-0.137289721278578
 21
1.76632607659393
 31
0.0
  0
LINE
  8
1
  6
CONTINUOUS
 62
1
 10
-0.33458793661912
 20
2.13934809863162
 30
0.0
 11
-0.273753766367718
 21
1.75037571733156
 31
0.0
  0
LINE
  8
1
  6
CONTINUOUS
 62
1
 10
-0.499365073816203
 20
2.10698692390397
 30
0.0
 11
-0.408571424095163
 21
1.72389839255024
 31
0.0
  0
LINE
  8
1
  6
CONTINUOUS
 62
1
 10
-0.971809247679053
 20
1.93503130738891
 30
0.0
 11
-0.795116657315113
 21
1.58320743356154
 31
0.0
  0
LINE
  8
1
  6
CONTINUOUS
 62
1
 10
-1.11883722016922
 20
1.85390470337981
 30
0.0
 11
-0.915412271189192
 21
1.51683112118018
 31
0.0
  0
LINE
  8
1
  6
CONTINUOUS
 62
1
 10
-1.25913637397127
 20
1.76162849834812
 30
0.0
 11
-1.03020248795396
 21
1.44133240796075
 31
0.0
  0
LINE
  8
1
  6
CONTINUOUS
 62
1
 10
-1.39186293346617
 20
1.65875765224843
 30
0.0
 11
-1.13879694573919
 21
1.357165352048
 31
0.0
  0
LINE
  8
1
  6
CONTINUOUS
 62
1
 10
-2.13245773207766
 20
0.376009834116015
 30
0.0
 11
-1.74473814469591
 21
0.307644409777806
 31
0.0
  0
LINE
  8
1
  6
CONTINUOUS
 62
1
 10
-2.15518321846063
 20
0.209629838800241
 30
0.0
 11
-1.76333172446659
 21
0.171515322680298
 31
0.0
  0
LINE
  8
1
  6
CONTINUOUS
 62
1
 10
-2.16494717938192
 20
0.041989104968193
 30
0.0
 11
-1.77132041976699
 21
0.0343547222511407
 31
0.0
  0
LINE
  8
1
  6
CONTINUOUS
 62
1
 10
-2.16169089323167
 20
-0.125904156281708
 30
0.0
 11
-1.76865618564358
 21
-0.103012491519923
 31
0.0
  0
LINE
  8
1
  6
CONTINUOUS
 62
1
 10
-2.07438673882118
 20
-0.621030621026518
 30
0.0
 11
-1.69722551384199
 21
-0.508115962737094
 31
0.0
  0
LINE
  8
1
  6
CONTINUOUS
 62
1
 10
-2.02002376972791
 20
-0.779912395198334
 30
0.0
 11
-1.65274672094058
 21
-0.638110141624934
 31
0.0
  0
LINE
  8
1
  6
CONTINUOUS
 62
1
 10
-1.95351214000092
 20
-0.934103684458398
 30
0.0
 11
-1.59832811479189
 21
-0.764266651038926
 31
0.0
  0
LINE
  8
1
  6
CONTINUOUS
 62
1
 10
-1.87525185840738
 20
-1.08267716425045
 30
0.0
 11
-1.53429697529635
 21
-0.88582677088747
 31
0.0
  0
LINE
  8
1
  6
CONTINUOUS
 62
1
 10
1.87525185798066
 20
-1.08267716498956
 30
0.0
 11
1.53429697494806
 21
-0.885826771490718
 31
0.0
  0
ARC
  8
1
  6
CONTINUOUS
 62
1
 10
1.14352971536391E-14
 20
-1.57651669496772E-14
 30
0.0
 40
0.984251969
 50
209.999999999998
 51
329.999999999998
  0
ARC
  8
1
  6
CONTINUOUS
 62
1
 10
4.69491112653486E-12
 20
2.72395994649344E-12
 30
0.0
 40
1.37795275599728
 50
10.0000000014938
 51
50.0000000016241
  0
ARC
  8
1
  6
CONTINUOUS
 62
1
 10
4.70357086612694E-12
 20
2.75290901186054E-12
 30
0.0
 40
2.1653543299973
 50
330.000000000193
 51
334.444444444208
  0
ARC
  8
1
  6
CONTINUOUS
 62
1
 10
4.70068428626291E-12
 20
2.74905098684997E-12
 30
0.0
 40
2.16535432999729
 50
356.66666666628
 51
1.11111110829563
  0
ARC
  8
1
  6
CONTINUOUS
 62
1
 10
7.83439979556988E-12
 20
1.11892717313822E-11
 30
0.0
 40
2.16535432998877
 50
50.0000000015262
 51
54.444444436469
  0
ARC
  8
1
  6
CONTINUOUS
 62
1
 10
9.5439212088877E-12
 20
2.67821320676376E-11
 30
0.0
 40
2.16535432997322
 50
76.6666666644928
 51
81.1111111005558
  0
ARC
  8
1
  6
CONTINUOUS
 62
1
 10
4.70645744599096E-12
 20
2.74447131687339E-12
 30
0.0
 40
2.16535432999729
 50
338.888888888222
 51
343.333333333237
  0
ARC
  8
1
  6
CONTINUOUS
 62
1
 10
4.50528503392889E-12
 20
2.69498312555072E-12
 30
0.0
 40
2.16535432999747
 50
5.55555555231032
 51
10.0000000014939
  0
ARC
  8
1
  6
CONTINUOUS
 62
1
 10
7.56483764519089E-12
 20
1.07611697330867E-11
 30
0.0
 40
2.16535432998928
 50
58.8888888804836
 51
63.3333333314977
  0
ARC
  8
1
  6
CONTINUOUS
 62
1
 10
9.48655043409019E-12
 20
2.63415955714663E-11
 30
0.0
 40
2.16535432997366
 50
85.5555555445701
 51
90.0000000000476
  0
ARC
  8
1
  6
CONTINUOUS
 62
1
 10
4.69779770639889E-12
 20
2.73903122405272E-12
 30
0.0
 40
1.7716535429973
 50
334.444444444209
 51
338.888888888223
  0
ARC
  8
1
  6
CONTINUOUS
 62
1
 10
4.83146855856376E-12
 20
2.73246703041963E-12
 30
0.0
 40
1.77165354299715
 50
1.1111111082953
 51
5.55555555231014
  0
ARC
  8
1
  6
CONTINUOUS
 62
1
 10
7.74780239964912E-12
 20
1.10698117339325E-11
 30
0.0
 40
1.77165354298892
 50
54.4444444364689
 51
58.8888888804835
  0
ARC
  8
1
  6
CONTINUOUS
 62
1
 10
1.02649000410793E-11
 20
3.31032978806434E-11
 30
0.0
 40
1.7716535429669
 50
81.1111111005554
 51
85.55555554457
  0
ARC
  8
1
  6
CONTINUOUS
 62
1
 10
9.35851396377529E-12
 20
-5.41744427096091E-12
 30
0.0
 40
1.3779527560054
 50
130.000000001884
 51
170.000000002014
  0
ARC
  8
1
  6
CONTINUOUS
 62
1
 10
1.5345280601764E-11
 20
-2.18833839937815E-11
 30
0.0
 40
2.16535433002186
 50
116.666666663671
 51
121.111111096686
  0
ARC
  8
1
  6
CONTINUOUS
 62
1
 10
1.90515424947201E-11
 20
-5.3220983176061E-11
 30
0.0
 40
2.16535433005322
 50
90.0000000000967
 51
94.4444444325989
  0
ARC
  8
1
  6
CONTINUOUS
 62
1
 10
9.06741348671858E-12
 20
-5.40639755186589E-12
 30
0.0
 40
2.16535433000511
 50
170.000000002013
 51
174.444444424859
  0
ARC
  8
1
  6
CONTINUOUS
 62
1
 10
9.25348686564575E-12
 20
-5.50615109062846E-12
 30
0.0
 40
2.16535433000527
 50
196.66666666193
 51
201.111111088944
  0
ARC
  8
1
  6
CONTINUOUS
 62
1
 10
1.9103107984364E-11
 20
-5.36481969959368E-11
 30
0.0
 40
2.16535433005365
 50
98.8888888766134
 51
103.33333333053
  0
ARC
  8
1
  6
CONTINUOUS
 62
1
 10
1.55828683290338E-11
 20
-2.22335483357483E-11
 30
0.0
 40
2.16535433002229
 50
125.5555555407
 51
130.000000001689
  0
ARC
  8
1
  6
CONTINUOUS
 62
1
 10
9.49906819869284E-12
 20
-5.46057736428031E-12
 30
0.0
 40
2.16535433000554
 50
179.999999999998
 51
183.333333328886
  0
ARC
  8
1
  6
CONTINUOUS
 62
1
 10
9.04298858017682E-12
 20
-5.40618938504878E-12
 30
0.0
 40
2.16535433000508
 50
178.888888868874
 51
180.000000000001
  0
ARC
  8
1
  6
CONTINUOUS
 62
1
 10
9.63917834440053E-12
 20
-5.32274224696039E-12
 30
0.0
 40
2.16535433000569
 50
205.555555532959
 51
210.000000000388
  0
ARC
  8
1
  6
CONTINUOUS
 62
1
 10
1.53786705592296E-11
 20
-2.18391971174015E-11
 30
0.0
 40
1.77165354302184
 50
94.4444444325989
 51
98.8888888766135
  0
ARC
  8
1
  6
CONTINUOUS
 62
1
 10
1.53824730730889E-11
 20
-2.19610996055053E-11
 30
0.0
 40
1.77165354302195
 50
121.111111096686
 51
125.5555555407
  0
ARC
  8
1
  6
CONTINUOUS
 62
1
 10
8.95927776412009E-12
 20
-5.41122702202301E-12
 30
0.0
 40
1.771653543005
 50
174.444444424859
 51
178.888888868874
  0
ARC
  8
1
  6
CONTINUOUS
 62
1
 10
9.12425690557939E-12
 20
-5.41026251577037E-12
 30
0.0
 40
1.77165354300516
 50
178.888888868873
 51
180
  0
ARC
  8
1
  6
CONTINUOUS
 62
1
 10
9.37694366598407E-12
 20
-5.44919664946519E-12
 30
0.0
 40
1.7716535430054
 50
201.111111088944
 51
205.555555532959
  0
LINE
  8
3
  6
CONTINUOUS
 62
3
 10
-0.79
 20
-3.49
 30
0.0
 11
-0.28
 21
-0.96
 31
0.0
  0
LINE
  8
3
  6
CONTINUOUS
 62
3
 10
1.23
 20
-3.31
 30
0.0
 11
0.27
 21
-0.99
 31
0.0
  0
LINE
  8
3
  6
CONTINUOUS
 62
3
 10
-0.76
 20
-3.57
 30
0.0
 11
1.23
 21
-3.31
 31
0.0
  0
LINE
  8
3
  6
CONTINUOUS
 62
3
 10
-0.69
 20
0.27
 30
0.0
 11
-1.06
 21
-0.08
 31
0.0
  0
LINE
  8
3
  6
CONTINUOUS
 62
3
 10
-0.34
 20
0.04
 30
0.0
 11
-0.69
 21
0.27
 31
0.0
  0
LINE
  8
3
  6
CONTINUOUS
 62
3
 10
0.6
 20
0.34
 30
0.0
 11
0.13
 21
-0.09
 31
0.0
  0
LINE
  8
3
  6
CONTINUOUS
 62
3
 10
0.84
 20
-0.09
 30
0.0
 11
0.6
 21
0.34
 31
0.0
  0
ENDSEC
  0
EOF
