  0
SECTION
  2
HEADER
  9
$ACADVER
  1
AC1003
  9
$EXTMIN
 10
-1.37795275550001
 20
0.984251968500003
  9
$EXTMAX
 10
1.37795275550001
 20
-0.984251968500009
  9
$INSUNITS
 70
1
  9
$INSBASE
 10
1.55431223447522E-15
 20
-2.66453525910038E-15
999
Created with OMAX LAYOUT for Windows. (www.omax.com) 3/8/2024
  0
ENDSEC
  0
SECTION
  2
TABLES
  0
TABLE
  2
LAYER
 70
    10
  0
LAYER
  2
0
 70
     0
 62
     7
  6
CONTINUOUS
  0
LAYER
  2
1
 70
     0
 62
     7
  6
CONTINUOUS
  0
LAYER
  2
2
 70
     0
 62
     7
  6
CONTINUOUS
  0
LAYER
  2
3
 70
     0
 62
     7
  6
CONTINUOUS
  0
LAYER
  2
4
 70
     0
 62
     7
  6
CONTINUOUS
  0
LAYER
  2
5
 70
     0
 62
     7
  6
CONTINUOUS
  0
LAYER
  2
6
 70
     0
 62
     7
  6
CONTINUOUS
  0
LAYER
  2
7
 70
     0
 62
     7
  6
CONTINUOUS
  0
LAYER
  2
8
 70
     0
 62
     7
  6
CONTINUOUS
  0
LAYER
  2
9
 70
     0
 62
     7
  6
CONTINUOUS
  0
LAYER
  2
10
 70
     0
 62
     7
  6
CONTINUOUS
  0
LAYER
  2
11
 70
     0
 62
     7
  6
CONTINUOUS
  0
LAYER
  2
12
 70
     0
 62
     7
  6
CONTINUOUS
  0
LAYER
  2
13
 70
     0
 62
     7
  6
CONTINUOUS
  0
LAYER
  2
14
 70
     0
 62
     7
  6
CONTINUOUS
  0
LAYER
  2
15
 70
     0
 62
     7
  6
CONTINUOUS
  0
LAYER
  2
16
 70
     0
 62
     7
  6
CONTINUOUS
  0
LAYER
  2
17
 70
     0
 62
     7
  6
CONTINUOUS
  0
LAYER
  2
18
 70
     0
 62
     7
  6
CONTINUOUS
  0
LAYER
  2
19
 70
     0
 62
     7
  6
CONTINUOUS
  0
LAYER
  2
20
 70
     0
 62
     7
  6
CONTINUOUS
  0
LAYER
  2
21
 70
     0
 62
     7
  6
CONTINUOUS
  0
LAYER
  2
22
 70
     0
 62
     7
  6
CONTINUOUS
  0
LAYER
  2
23
 70
     0
 62
     7
  6
CONTINUOUS
  0
LAYER
  2
24
 70
     0
 62
     7
  6
CONTINUOUS
  0
LAYER
  2
25
 70
     0
 62
     7
  6
CONTINUOUS
  0
LAYER
  2
26
 70
     0
 62
     7
  6
CONTINUOUS
  0
LAYER
  2
27
 70
     0
 62
     7
  6
CONTINUOUS
  0
LAYER
  2
28
 70
     0
 62
     7
  6
CONTINUOUS
  0
LAYER
  2
29
 70
     0
 62
     7
  6
CONTINUOUS
  0
LAYER
  2
30
 70
     0
 62
     7
  6
CONTINUOUS
  0
LAYER
  2
31
 70
     0
 62
     7
  6
CONTINUOUS
  0
ENDTAB
  0
ENDSEC
  0
SECTION
  2
ENTITIES
  0
LINE
  8
4
  6
CONTINUOUS
 62
4
 10
1.18110236150001
 20
-0.984251968499998
 30
0.0
 11
-1.18110236149999
 21
-0.984251968499998
 31
0.0
  0
LINE
  8
4
  6
CONTINUOUS
 62
4
 10
-1.18110236149999
 20
0.984251968500002
 30
0.0
 11
1.18110236150001
 21
0.984251968500002
 31
0.0
  0
LINE
  8
4
  6
CONTINUOUS
 62
4
 10
-1.37795275549999
 20
0.787401574500002
 30
0.0
 11
-1.37795275549999
 21
-0.787401574499998
 31
0.0
  0
LINE
  8
4
  6
CONTINUOUS
 62
4
 10
1.37795275550001
 20
0.787401574500002
 30
0.0
 11
1.37795275550001
 21
-0.787401574499998
 31
0.0
  0
ARC
  8
4
  6
CONTINUOUS
 62
4
 10
-1.1811023615
 20
0.787401574500003
 30
0.0
 40
0.196850394
 50
89.9999999999994
 51
180
  0
ARC
  8
4
  6
CONTINUOUS
 62
4
 10
1.18110236150001
 20
0.787401574500004
 30
0.0
 40
0.196850394
 50
359.999999999997
 51
89.9999999999992
  0
ARC
  8
4
  6
CONTINUOUS
 62
4
 10
1.18110236150001
 20
-0.787401574499998
 30
0.0
 40
0.196850394
 50
269.999999999996
 51
359.999999999997
  0
ARC
  8
4
  6
CONTINUOUS
 62
4
 10
-1.1811023615
 20
-0.78740157450001
 30
0.0
 40
0.196850394
 50
179.999999999998
 51
269.999999999997
  0
LINE
  8
4
  6
CONTINUOUS
 62
4
 10
0.807086614000006
 20
0.0787401580000022
 30
0.0
 11
0.807086614000006
 21
0.370078738726543
 31
0.0
  0
LINE
  8
4
  6
CONTINUOUS
 62
4
 10
1.06496063000001
 20
0.039370079000002
 30
0.0
 11
0.846456693000006
 21
0.039370079000002
 31
0.0
  0
LINE
  8
4
  6
CONTINUOUS
 62
4
 10
1.06496063000001
 20
-0.0393700789999976
 30
0.0
 11
0.846456693000006
 21
-0.0393700789999976
 31
0.0
  0
ARC
  8
4
  6
CONTINUOUS
 62
4
 10
1.06496063000001
 20
2.66453525910038E-15
 30
0.0
 40
0.0393700790000002
 50
270
 51
90
  0
ARC
  8
4
  6
CONTINUOUS
 62
4
 10
0.846456693000006
 20
-0.078740157999998
 30
0.0
 40
0.0393700790000004
 50
90.0000000000001
 51
180
  0
ARC
  8
4
  6
CONTINUOUS
 62
4
 10
0.846456693000006
 20
0.0787401580000017
 30
0.0
 40
0.0393700790000001
 50
179.999999999998
 51
269.999999999997
  0
ARC
  8
4
  6
CONTINUOUS
 62
4
 10
0.793167188728066
 20
0.395529393228072
 30
0.0
 40
0.0196850400000009
 50
44.9999999999994
 51
115.5287795853
  0
ARC
  8
4
  6
CONTINUOUS
 62
4
 10
0.793167188728076
 20
0.395529393228072
 30
0.0
 40
0.0196850400000005
 50
334.471220414696
 51
44.9999999999986
  0
ARC
  8
4
  6
CONTINUOUS
 62
4
 10
0.767716534226546
 20
0.448818897500002
 30
0.0
 40
0.0393700790000002
 50
269.999999999997
 51
295.528779585299
  0
ARC
  8
4
  6
CONTINUOUS
 62
4
 10
0.846456693000006
 20
0.37007873872654
 30
0.0
 40
0.0393700790000002
 50
154.471220414697
 51
179.999999999998
  0
LINE
  8
4
  6
CONTINUOUS
 62
4
 10
0.807086614000006
 20
-0.0787401579999978
 30
0.0
 11
0.807086614000006
 21
-0.370078738726538
 31
0.0
  0
ARC
  8
4
  6
CONTINUOUS
 62
4
 10
0.793167188728076
 20
-0.395529393228068
 30
0.0
 40
0.0196850400000007
 50
244.471220414697
 51
314.999999999998
  0
ARC
  8
4
  6
CONTINUOUS
 62
4
 10
0.793167188728076
 20
-0.395529393228068
 30
0.0
 40
0.0196850399999996
 50
315
 51
25.5287795853028
  0
ARC
  8
4
  6
CONTINUOUS
 62
4
 10
0.767716534226546
 20
-0.448818897499998
 30
0.0
 40
0.0393700790000013
 50
64.4712204147006
 51
90.0000000000019
  0
ARC
  8
4
  6
CONTINUOUS
 62
4
 10
0.846456693000005
 20
-0.370078738726538
 30
0.0
 40
0.0393700789999998
 50
179.999999999998
 51
205.528779585299
  0
LINE
  8
4
  6
CONTINUOUS
 62
4
 10
-3.5527136788005E-15
 20
0.409448818500002
 30
0.0
 11
0.767716534226536
 21
0.409448818500002
 31
0.0
  0
LINE
  8
4
  6
CONTINUOUS
 62
4
 10
-3.5527136788005E-15
 20
-0.409448818499998
 30
0.0
 11
0.767716534226536
 21
-0.409448818499998
 31
0.0
  0
LINE
  8
4
  6
CONTINUOUS
 62
4
 10
-0.807086613999994
 20
0.0787401580000022
 30
0.0
 11
-0.807086613999994
 21
0.370078738726543
 31
0.0
  0
LINE
  8
4
  6
CONTINUOUS
 62
4
 10
-1.06496062999999
 20
0.039370079000002
 30
0.0
 11
-0.846456693000004
 21
0.039370079000002
 31
0.0
  0
LINE
  8
4
  6
CONTINUOUS
 62
4
 10
-1.06496062999999
 20
-0.0393700789999976
 30
0.0
 11
-0.846456693000004
 21
-0.0393700789999976
 31
0.0
  0
ARC
  8
4
  6
CONTINUOUS
 62
4
 10
-1.06496062999999
 20
2.66453525910038E-15
 30
0.0
 40
0.0393700790000002
 50
90
 51
270
  0
ARC
  8
4
  6
CONTINUOUS
 62
4
 10
-0.846456692999994
 20
-0.0787401579999975
 30
0.0
 40
0.0393700790000003
 50
359.999999999997
 51
89.9999999999984
  0
ARC
  8
4
  6
CONTINUOUS
 62
4
 10
-0.846456692999993
 20
0.0787401580000018
 30
0.0
 40
0.0393700789999998
 50
269.999999999998
 51
359.999999999997
  0
ARC
  8
4
  6
CONTINUOUS
 62
4
 10
-0.793167188728073
 20
0.395529393228072
 30
0.0
 40
0.0196850399999993
 50
64.4712204147
 51
135.000000000001
  0
ARC
  8
4
  6
CONTINUOUS
 62
4
 10
-0.793167188728073
 20
0.395529393228072
 30
0.0
 40
0.0196850399999992
 50
135.000000000001
 51
205.528779585302
  0
ARC
  8
4
  6
CONTINUOUS
 62
4
 10
-0.767716534226533
 20
0.448818897500004
 30
0.0
 40
0.0393700790000002
 50
244.471220414694
 51
269.999999999994
  0
ARC
  8
4
  6
CONTINUOUS
 62
4
 10
-0.846456693000002
 20
0.370078738726543
 30
0.0
 40
0.0393700789999997
 50
359.999999999997
 51
25.5287795852995
  0
LINE
  8
4
  6
CONTINUOUS
 62
4
 10
-0.807086613999994
 20
-0.0787401579999978
 30
0.0
 11
-0.807086613999994
 21
-0.370078738726538
 31
0.0
  0
ARC
  8
4
  6
CONTINUOUS
 62
4
 10
-0.793167188728073
 20
-0.395529393228068
 30
0.0
 40
0.0196850399999991
 50
224.999999999998
 51
295.5287795853
  0
ARC
  8
4
  6
CONTINUOUS
 62
4
 10
-0.793167188728073
 20
-0.395529393228068
 30
0.0
 40
0.0196850399999997
 50
154.471220414693
 51
224.999999999994
  0
ARC
  8
4
  6
CONTINUOUS
 62
4
 10
-0.767716534226545
 20
-0.448818897499998
 30
0.0
 40
0.0393700789999978
 50
89.9999999999991
 51
115.5287795853
  0
ARC
  8
4
  6
CONTINUOUS
 62
4
 10
-0.846456693000004
 20
-0.370078738726538
 30
0.0
 40
0.0393700790000011
 50
334.471220414694
 51
359.999999999996
  0
LINE
  8
4
  6
CONTINUOUS
 62
4
 10
-3.5527136788005E-15
 20
0.409448818500002
 30
0.0
 11
-0.767716534226544
 21
0.409448818500002
 31
0.0
  0
LINE
  8
4
  6
CONTINUOUS
 62
4
 10
-3.5527136788005E-15
 20
-0.409448818499998
 30
0.0
 11
-0.767716534226544
 21
-0.409448818499998
 31
0.0
  0
ARC
  8
4
  6
CONTINUOUS
 62
4
 10
-1.0826771645
 20
0.688976377500003
 30
0.0
 40
0.0669291340000004
 50
359.999999999996
 51
180
  0
ARC
  8
4
  6
CONTINUOUS
 62
4
 10
-1.0826771645
 20
0.688976377500002
 30
0.0
 40
0.0669291340000004
 50
179.999999999996
 51
359.999999999996
  0
ARC
  8
4
  6
CONTINUOUS
 62
4
 10
1.08267716450001
 20
0.688976377500003
 30
0.0
 40
0.0669291339999996
 50
359.999999999996
 51
180
  0
ARC
  8
4
  6
CONTINUOUS
 62
4
 10
1.08267716450001
 20
0.688976377500002
 30
0.0
 40
0.0669291339999996
 50
179.999999999999
 51
359.999999999999
  0
ARC
  8
4
  6
CONTINUOUS
 62
4
 10
1.08267716450001
 20
-0.688976377499998
 30
0.0
 40
0.0669291339999996
 50
179.999999999997
 51
359.999999999997
  0
ARC
  8
4
  6
CONTINUOUS
 62
4
 10
1.08267716450001
 20
-0.688976377499997
 30
0.0
 40
0.0669291339999996
 50
359.999999999996
 51
180
  0
ARC
  8
4
  6
CONTINUOUS
 62
4
 10
-1.0826771645
 20
-0.688976377499998
 30
0.0
 40
0.0669291340000004
 50
179.999999999999
 51
360
  0
ARC
  8
4
  6
CONTINUOUS
 62
4
 10
-1.0826771645
 20
-0.688976377499997
 30
0.0
 40
0.0669291340000004
 50
359.999999999996
 51
180
  0
ARC
  8
4
  6
CONTINUOUS
 62
4
 10
0.964566929000006
 20
0.196850393500002
 30
0.0
 40
0.0669291339999996
 50
359.999999999997
 51
180
  0
ARC
  8
4
  6
CONTINUOUS
 62
4
 10
0.964566929000006
 20
0.196850393500002
 30
0.0
 40
0.0669291339999996
 50
179.999999999997
 51
359.999999999998
  0
ARC
  8
4
  6
CONTINUOUS
 62
4
 10
0.964566929000006
 20
-0.196850393499998
 30
0.0
 40
0.0669291339999996
 50
179.999999999997
 51
359.999999999997
  0
ARC
  8
4
  6
CONTINUOUS
 62
4
 10
0.964566929000006
 20
-0.196850393499997
 30
0.0
 40
0.0669291339999996
 50
359.999999999999
 51
180
  0
ARC
  8
4
  6
CONTINUOUS
 62
4
 10
-0.964566929000004
 20
0.196850393500002
 30
0.0
 40
0.0669291340000004
 50
359.999999999997
 51
180
  0
ARC
  8
4
  6
CONTINUOUS
 62
4
 10
-0.964566929000004
 20
0.196850393500001
 30
0.0
 40
0.0669291340000004
 50
179.999999999997
 51
359.999999999997
  0
ARC
  8
4
  6
CONTINUOUS
 62
4
 10
-0.964566929000004
 20
-0.196850393499998
 30
0.0
 40
0.0669291340000004
 50
179.999999999999
 51
359.999999999999
  0
ARC
  8
4
  6
CONTINUOUS
 62
4
 10
-0.964566929000004
 20
-0.196850393499997
 30
0.0
 40
0.0669291340000004
 50
359.999999999997
 51
180
  0
ENDSEC
  0
EOF
