  0
SECTION
  2
HEADER
  9
$ACADVER
  1
AC1003
  9
$EXTMIN
 10
-1.594488189
 20
1.594488189
  9
$EXTMAX
 10
1.594488189
 20
-1.594488189
  9
$INSUNITS
 70
1
  9
$INSBASE
 10
0
 20
0
999
Created with OMAX LAYOUT for Windows. (www.omax.com) 2/2/2024
  0
ENDSEC
  0
SECTION
  2
TABLES
  0
TABLE
  2
LAYER
 70
    10
  0
LAYER
  2
0
 70
     0
 62
     7
  6
CONTINUOUS
  0
LAYER
  2
1
 70
     0
 62
     7
  6
CONTINUOUS
  0
LAYER
  2
2
 70
     0
 62
     7
  6
CONTINUOUS
  0
LAYER
  2
3
 70
     0
 62
     7
  6
CONTINUOUS
  0
LAYER
  2
4
 70
     0
 62
     7
  6
CONTINUOUS
  0
LAYER
  2
5
 70
     0
 62
     7
  6
CONTINUOUS
  0
LAYER
  2
6
 70
     0
 62
     7
  6
CONTINUOUS
  0
LAYER
  2
7
 70
     0
 62
     7
  6
CONTINUOUS
  0
LAYER
  2
8
 70
     0
 62
     7
  6
CONTINUOUS
  0
LAYER
  2
9
 70
     0
 62
     7
  6
CONTINUOUS
  0
LAYER
  2
10
 70
     0
 62
     7
  6
CONTINUOUS
  0
LAYER
  2
11
 70
     0
 62
     7
  6
CONTINUOUS
  0
LAYER
  2
12
 70
     0
 62
     7
  6
CONTINUOUS
  0
LAYER
  2
13
 70
     0
 62
     7
  6
CONTINUOUS
  0
LAYER
  2
14
 70
     0
 62
     7
  6
CONTINUOUS
  0
LAYER
  2
15
 70
     0
 62
     7
  6
CONTINUOUS
  0
LAYER
  2
16
 70
     0
 62
     7
  6
CONTINUOUS
  0
LAYER
  2
17
 70
     0
 62
     7
  6
CONTINUOUS
  0
LAYER
  2
18
 70
     0
 62
     7
  6
CONTINUOUS
  0
LAYER
  2
19
 70
     0
 62
     7
  6
CONTINUOUS
  0
LAYER
  2
20
 70
     0
 62
     7
  6
CONTINUOUS
  0
LAYER
  2
21
 70
     0
 62
     7
  6
CONTINUOUS
  0
LAYER
  2
22
 70
     0
 62
     7
  6
CONTINUOUS
  0
LAYER
  2
23
 70
     0
 62
     7
  6
CONTINUOUS
  0
LAYER
  2
24
 70
     0
 62
     7
  6
CONTINUOUS
  0
LAYER
  2
25
 70
     0
 62
     7
  6
CONTINUOUS
  0
LAYER
  2
26
 70
     0
 62
     7
  6
CONTINUOUS
  0
LAYER
  2
27
 70
     0
 62
     7
  6
CONTINUOUS
  0
LAYER
  2
28
 70
     0
 62
     7
  6
CONTINUOUS
  0
LAYER
  2
29
 70
     0
 62
     7
  6
CONTINUOUS
  0
LAYER
  2
30
 70
     0
 62
     7
  6
CONTINUOUS
  0
LAYER
  2
31
 70
     0
 62
     7
  6
CONTINUOUS
  0
ENDTAB
  0
ENDSEC
  0
SECTION
  2
ENTITIES
  0
LINE
  8
3
  6
CONTINUOUS
 62
3
 10
-1.24015748068766
 20
-1.594488189
 30
0.0
 11
-1.594488189
 21
-1.594488189
 31
0.0
  0
LINE
  8
3
  6
CONTINUOUS
 62
3
 10
-1.594488189
 20
-0.531496064062992
 30
0.0
 11
-1.24015748068766
 21
-0.531496064062992
 31
0.0
  0
LINE
  8
3
  6
CONTINUOUS
 62
3
 10
-1.594488189
 20
-1.24015748068766
 30
0.0
 11
-1.594488189
 21
-1.594488189
 31
0.0
  0
LINE
  8
3
  6
CONTINUOUS
 62
3
 10
-0.531496064062992
 20
-1.24015748068766
 30
0.0
 11
-0.531496064062992
 21
-1.594488189
 31
0.0
  0
LINE
  8
3
  6
CONTINUOUS
 62
3
 10
-0.531496064062992
 20
-1.24015748068766
 30
0.0
 11
-0.885826772375328
 21
-1.24015748068766
 31
0.0
  0
LINE
  8
3
  6
CONTINUOUS
 62
3
 10
-0.531496064062992
 20
-0.885826772375328
 30
0.0
 11
-0.885826772375328
 21
-0.885826772375328
 31
0.0
  0
LINE
  8
3
  6
CONTINUOUS
 62
3
 10
-1.24015748068766
 20
-1.594488189
 30
0.0
 11
-1.24015748068766
 21
-1.24015748068766
 31
0.0
  0
LINE
  8
3
  6
CONTINUOUS
 62
3
 10
-0.885826772375328
 20
-1.594488189
 30
0.0
 11
-0.885826772375328
 21
-1.24015748068766
 31
0.0
  0
LINE
  8
3
  6
CONTINUOUS
 62
3
 10
-0.885826772375328
 20
-0.531496064062992
 30
0.0
 11
-0.531496064062992
 21
-0.531496064062992
 31
0.0
  0
LINE
  8
3
  6
CONTINUOUS
 62
3
 10
-0.531496064062992
 20
-0.885826772375328
 30
0.0
 11
-0.531496064062992
 21
-0.531496064062992
 31
0.0
  0
LINE
  8
3
  6
CONTINUOUS
 62
3
 10
-0.885826772375328
 20
-1.594488189
 30
0.0
 11
-0.531496064062992
 21
-1.594488189
 31
0.0
  0
LINE
  8
3
  6
CONTINUOUS
 62
3
 10
-1.594488189
 20
-0.885826772375328
 30
0.0
 11
-1.594488189
 21
-0.531496064062992
 31
0.0
  0
LINE
  8
3
  6
CONTINUOUS
 62
3
 10
-1.24015748068766
 20
-0.885826772375328
 30
0.0
 11
-1.24015748068766
 21
-0.531496064062992
 31
0.0
  0
LINE
  8
3
  6
CONTINUOUS
 62
3
 10
-1.24015748068766
 20
-0.885826772375328
 30
0.0
 11
-1.594488189
 21
-0.885826772375328
 31
0.0
  0
LINE
  8
3
  6
CONTINUOUS
 62
3
 10
-1.24015748068766
 20
-1.24015748068766
 30
0.0
 11
-1.594488189
 21
-1.24015748068766
 31
0.0
  0
LINE
  8
3
  6
CONTINUOUS
 62
3
 10
-0.885826772375328
 20
-0.885826772375328
 30
0.0
 11
-0.885826772375328
 21
-0.531496064062991
 31
0.0
  0
LINE
  8
3
  6
CONTINUOUS
 62
3
 10
1.24015748068766
 20
-1.594488189
 30
0.0
 11
1.594488189
 21
-1.594488189
 31
0.0
  0
LINE
  8
3
  6
CONTINUOUS
 62
3
 10
1.594488189
 20
-0.531496064062992
 30
0.0
 11
1.24015748068766
 21
-0.531496064062992
 31
0.0
  0
LINE
  8
3
  6
CONTINUOUS
 62
3
 10
1.594488189
 20
-1.24015748068766
 30
0.0
 11
1.594488189
 21
-1.594488189
 31
0.0
  0
LINE
  8
3
  6
CONTINUOUS
 62
3
 10
0.531496064062992
 20
-1.24015748068766
 30
0.0
 11
0.531496064062992
 21
-1.594488189
 31
0.0
  0
LINE
  8
3
  6
CONTINUOUS
 62
3
 10
0.531496064062992
 20
-1.24015748068766
 30
0.0
 11
0.885826772375328
 21
-1.24015748068766
 31
0.0
  0
LINE
  8
3
  6
CONTINUOUS
 62
3
 10
0.531496064062992
 20
-0.885826772375328
 30
0.0
 11
0.885826772375328
 21
-0.885826772375328
 31
0.0
  0
LINE
  8
3
  6
CONTINUOUS
 62
3
 10
1.24015748068766
 20
-1.594488189
 30
0.0
 11
1.24015748068766
 21
-1.24015748068766
 31
0.0
  0
LINE
  8
3
  6
CONTINUOUS
 62
3
 10
0.885826772375328
 20
-1.594488189
 30
0.0
 11
0.885826772375328
 21
-1.24015748068766
 31
0.0
  0
LINE
  8
3
  6
CONTINUOUS
 62
3
 10
0.885826772375328
 20
-0.531496064062992
 30
0.0
 11
0.531496064062992
 21
-0.531496064062992
 31
0.0
  0
LINE
  8
3
  6
CONTINUOUS
 62
3
 10
0.531496064062992
 20
-0.885826772375328
 30
0.0
 11
0.531496064062992
 21
-0.531496064062992
 31
0.0
  0
LINE
  8
3
  6
CONTINUOUS
 62
3
 10
0.885826772375328
 20
-1.594488189
 30
0.0
 11
0.531496064062992
 21
-1.594488189
 31
0.0
  0
LINE
  8
3
  6
CONTINUOUS
 62
3
 10
1.594488189
 20
-0.885826772375328
 30
0.0
 11
1.594488189
 21
-0.531496064062992
 31
0.0
  0
LINE
  8
3
  6
CONTINUOUS
 62
3
 10
1.24015748068766
 20
-0.885826772375328
 30
0.0
 11
1.24015748068766
 21
-0.531496064062992
 31
0.0
  0
LINE
  8
3
  6
CONTINUOUS
 62
3
 10
1.24015748068766
 20
-0.885826772375328
 30
0.0
 11
1.594488189
 21
-0.885826772375328
 31
0.0
  0
LINE
  8
3
  6
CONTINUOUS
 62
3
 10
1.24015748068766
 20
-1.24015748068766
 30
0.0
 11
1.594488189
 21
-1.24015748068766
 31
0.0
  0
LINE
  8
3
  6
CONTINUOUS
 62
3
 10
0.885826772375328
 20
-0.885826772375328
 30
0.0
 11
0.885826772375328
 21
-0.531496064062991
 31
0.0
  0
LINE
  8
3
  6
CONTINUOUS
 62
3
 10
-1.24015748068766
 20
1.594488189
 30
0.0
 11
-1.594488189
 21
1.594488189
 31
0.0
  0
LINE
  8
3
  6
CONTINUOUS
 62
3
 10
-1.594488189
 20
0.531496064062992
 30
0.0
 11
-1.24015748068766
 21
0.531496064062992
 31
0.0
  0
LINE
  8
3
  6
CONTINUOUS
 62
3
 10
-1.594488189
 20
1.24015748068766
 30
0.0
 11
-1.594488189
 21
1.594488189
 31
0.0
  0
LINE
  8
3
  6
CONTINUOUS
 62
3
 10
-0.531496064062992
 20
1.24015748068766
 30
0.0
 11
-0.531496064062992
 21
1.594488189
 31
0.0
  0
LINE
  8
3
  6
CONTINUOUS
 62
3
 10
-0.531496064062992
 20
1.24015748068766
 30
0.0
 11
-0.885826772375328
 21
1.24015748068766
 31
0.0
  0
LINE
  8
3
  6
CONTINUOUS
 62
3
 10
-0.531496064062992
 20
0.885826772375328
 30
0.0
 11
-0.885826772375328
 21
0.885826772375328
 31
0.0
  0
LINE
  8
3
  6
CONTINUOUS
 62
3
 10
-1.24015748068766
 20
1.594488189
 30
0.0
 11
-1.24015748068766
 21
1.24015748068766
 31
0.0
  0
LINE
  8
3
  6
CONTINUOUS
 62
3
 10
-0.885826772375328
 20
1.594488189
 30
0.0
 11
-0.885826772375328
 21
1.24015748068766
 31
0.0
  0
LINE
  8
3
  6
CONTINUOUS
 62
3
 10
-0.885826772375328
 20
0.531496064062992
 30
0.0
 11
-0.531496064062992
 21
0.531496064062992
 31
0.0
  0
LINE
  8
3
  6
CONTINUOUS
 62
3
 10
-0.531496064062992
 20
0.885826772375328
 30
0.0
 11
-0.531496064062992
 21
0.531496064062992
 31
0.0
  0
LINE
  8
3
  6
CONTINUOUS
 62
3
 10
-0.885826772375328
 20
1.594488189
 30
0.0
 11
-0.531496064062992
 21
1.594488189
 31
0.0
  0
LINE
  8
3
  6
CONTINUOUS
 62
3
 10
-1.594488189
 20
0.885826772375328
 30
0.0
 11
-1.594488189
 21
0.531496064062992
 31
0.0
  0
LINE
  8
3
  6
CONTINUOUS
 62
3
 10
-1.24015748068766
 20
0.885826772375328
 30
0.0
 11
-1.24015748068766
 21
0.531496064062992
 31
0.0
  0
LINE
  8
3
  6
CONTINUOUS
 62
3
 10
-1.24015748068766
 20
0.885826772375328
 30
0.0
 11
-1.594488189
 21
0.885826772375328
 31
0.0
  0
LINE
  8
3
  6
CONTINUOUS
 62
3
 10
-1.24015748068766
 20
1.24015748068766
 30
0.0
 11
-1.594488189
 21
1.24015748068766
 31
0.0
  0
LINE
  8
3
  6
CONTINUOUS
 62
3
 10
-0.885826772375328
 20
0.885826772375328
 30
0.0
 11
-0.885826772375328
 21
0.531496064062992
 31
0.0
  0
LINE
  8
3
  6
CONTINUOUS
 62
3
 10
1.24015748068766
 20
1.594488189
 30
0.0
 11
1.594488189
 21
1.594488189
 31
0.0
  0
LINE
  8
3
  6
CONTINUOUS
 62
3
 10
1.594488189
 20
0.531496064062992
 30
0.0
 11
1.24015748068766
 21
0.531496064062992
 31
0.0
  0
LINE
  8
3
  6
CONTINUOUS
 62
3
 10
1.594488189
 20
1.24015748068766
 30
0.0
 11
1.594488189
 21
1.594488189
 31
0.0
  0
LINE
  8
3
  6
CONTINUOUS
 62
3
 10
0.531496064062992
 20
1.24015748068766
 30
0.0
 11
0.531496064062992
 21
1.594488189
 31
0.0
  0
LINE
  8
3
  6
CONTINUOUS
 62
3
 10
0.531496064062992
 20
1.24015748068766
 30
0.0
 11
0.885826772375328
 21
1.24015748068766
 31
0.0
  0
LINE
  8
3
  6
CONTINUOUS
 62
3
 10
0.531496064062992
 20
0.885826772375328
 30
0.0
 11
0.885826772375328
 21
0.885826772375328
 31
0.0
  0
LINE
  8
3
  6
CONTINUOUS
 62
3
 10
1.24015748068766
 20
1.594488189
 30
0.0
 11
1.24015748068766
 21
1.24015748068766
 31
0.0
  0
LINE
  8
3
  6
CONTINUOUS
 62
3
 10
0.885826772375328
 20
1.594488189
 30
0.0
 11
0.885826772375328
 21
1.24015748068766
 31
0.0
  0
LINE
  8
3
  6
CONTINUOUS
 62
3
 10
0.885826772375328
 20
0.531496064062992
 30
0.0
 11
0.531496064062992
 21
0.531496064062992
 31
0.0
  0
LINE
  8
3
  6
CONTINUOUS
 62
3
 10
0.531496064062992
 20
0.885826772375328
 30
0.0
 11
0.531496064062992
 21
0.531496064062992
 31
0.0
  0
LINE
  8
3
  6
CONTINUOUS
 62
3
 10
0.885826772375328
 20
1.594488189
 30
0.0
 11
0.531496064062992
 21
1.594488189
 31
0.0
  0
LINE
  8
3
  6
CONTINUOUS
 62
3
 10
1.594488189
 20
0.885826772375328
 30
0.0
 11
1.594488189
 21
0.531496064062992
 31
0.0
  0
LINE
  8
3
  6
CONTINUOUS
 62
3
 10
1.24015748068766
 20
0.885826772375328
 30
0.0
 11
1.24015748068766
 21
0.531496064062992
 31
0.0
  0
LINE
  8
3
  6
CONTINUOUS
 62
3
 10
1.24015748068766
 20
0.885826772375328
 30
0.0
 11
1.594488189
 21
0.885826772375328
 31
0.0
  0
LINE
  8
3
  6
CONTINUOUS
 62
3
 10
1.24015748068766
 20
1.24015748068766
 30
0.0
 11
1.594488189
 21
1.24015748068766
 31
0.0
  0
LINE
  8
3
  6
CONTINUOUS
 62
3
 10
0.885826772375328
 20
0.885826772375328
 30
0.0
 11
0.885826772375328
 21
0.531496064062992
 31
0.0
  0
ENDSEC
  0
EOF
