  0
SECTION
  2
HEADER
  9
$ACADVER
  1
AC1003
  9
$EXTMIN
 10
-1.476377953
 20
1.41732283500003
  9
$EXTMAX
 10
1.476377953
 20
-1.4173228350001
  9
$INSUNITS
 70
1
  9
$INSBASE
 10
1.11022302462516E-16
 20
-3.27515792264421E-14
999
Created with OMAX LAYOUT for Windows. (www.omax.com) 4/22/2024
  0
ENDSEC
  0
SECTION
  2
TABLES
  0
TABLE
  2
LAYER
 70
    10
  0
LAYER
  2
0
 70
     0
 62
     7
  6
CONTINUOUS
  0
LAYER
  2
1
 70
     0
 62
     7
  6
CONTINUOUS
  0
LAYER
  2
2
 70
     0
 62
     7
  6
CONTINUOUS
  0
LAYER
  2
3
 70
     0
 62
     7
  6
CONTINUOUS
  0
LAYER
  2
4
 70
     0
 62
     7
  6
CONTINUOUS
  0
LAYER
  2
5
 70
     0
 62
     7
  6
CONTINUOUS
  0
LAYER
  2
6
 70
     0
 62
     7
  6
CONTINUOUS
  0
LAYER
  2
7
 70
     0
 62
     7
  6
CONTINUOUS
  0
LAYER
  2
8
 70
     0
 62
     7
  6
CONTINUOUS
  0
LAYER
  2
9
 70
     0
 62
     7
  6
CONTINUOUS
  0
LAYER
  2
10
 70
     0
 62
     7
  6
CONTINUOUS
  0
LAYER
  2
11
 70
     0
 62
     7
  6
CONTINUOUS
  0
LAYER
  2
12
 70
     0
 62
     7
  6
CONTINUOUS
  0
LAYER
  2
13
 70
     0
 62
     7
  6
CONTINUOUS
  0
LAYER
  2
14
 70
     0
 62
     7
  6
CONTINUOUS
  0
LAYER
  2
15
 70
     0
 62
     7
  6
CONTINUOUS
  0
LAYER
  2
16
 70
     0
 62
     7
  6
CONTINUOUS
  0
LAYER
  2
17
 70
     0
 62
     7
  6
CONTINUOUS
  0
LAYER
  2
18
 70
     0
 62
     7
  6
CONTINUOUS
  0
LAYER
  2
19
 70
     0
 62
     7
  6
CONTINUOUS
  0
LAYER
  2
20
 70
     0
 62
     7
  6
CONTINUOUS
  0
LAYER
  2
21
 70
     0
 62
     7
  6
CONTINUOUS
  0
LAYER
  2
22
 70
     0
 62
     7
  6
CONTINUOUS
  0
LAYER
  2
23
 70
     0
 62
     7
  6
CONTINUOUS
  0
LAYER
  2
24
 70
     0
 62
     7
  6
CONTINUOUS
  0
LAYER
  2
25
 70
     0
 62
     7
  6
CONTINUOUS
  0
LAYER
  2
26
 70
     0
 62
     7
  6
CONTINUOUS
  0
LAYER
  2
27
 70
     0
 62
     7
  6
CONTINUOUS
  0
LAYER
  2
28
 70
     0
 62
     7
  6
CONTINUOUS
  0
LAYER
  2
29
 70
     0
 62
     7
  6
CONTINUOUS
  0
LAYER
  2
30
 70
     0
 62
     7
  6
CONTINUOUS
  0
LAYER
  2
31
 70
     0
 62
     7
  6
CONTINUOUS
  0
ENDTAB
  0
ENDSEC
  0
SECTION
  2
ENTITIES
  0
LINE
  8
0
  6
CONTINUOUS
 62
0
 10
0.0613718792401001
 20
-0.106299212999787
 30
0.0
 11
0.122743758480099
 21
-9.10382880192628E-15
 31
0.0
  0
LINE
  8
0
  6
CONTINUOUS
 62
0
 10
0.122743758480099
 20
-9.10382880192628E-15
 30
0.0
 11
0.0613718792401001
 21
0.106299212999781
 31
0.0
  0
LINE
  8
0
  6
CONTINUOUS
 62
0
 10
0.0613718792401001
 20
0.106299212999781
 30
0.0
 11
-0.0613718792401001
 21
0.106299212999792
 31
0.0
  0
LINE
  8
0
  6
CONTINUOUS
 62
0
 10
-0.0613718792401001
 20
0.106299212999792
 30
0.0
 11
-0.1227437584801
 21
-1.79856129989275E-14
 31
0.0
  0
LINE
  8
0
  6
CONTINUOUS
 62
0
 10
-0.1227437584801
 20
-1.79856129989275E-14
 30
0.0
 11
-0.0613718792401001
 21
-0.106299212999787
 31
0.0
  0
LINE
  8
0
  6
CONTINUOUS
 62
0
 10
-0.0613718792401001
 20
-0.106299212999787
 30
0.0
 11
0.0613718792401001
 21
-0.106299212999787
 31
0.0
  0
LINE
  8
1
  6
CONTINUOUS
 62
1
 10
-0.472440945000004
 20
0.0039370080000003
 30
0.0
 11
-0.452755904999999
 21
0.0039370080000003
 31
0.0
  0
LINE
  8
1
  6
CONTINUOUS
 62
1
 10
-0.472440945000003
 20
-0.0039370080000003
 30
0.0
 11
-0.452755904999999
 21
-0.0039370080000003
 31
0.0
  0
LINE
  8
1
  6
CONTINUOUS
 62
1
 10
-0.492125984000003
 20
-0.10146361836805
 30
0.0
 11
-0.492125984000002
 21
-0.0236220469999999
 31
0.0
  0
LINE
  8
1
  6
CONTINUOUS
 62
1
 10
-1.40067621663548
 20
0.11811023673257
 30
0.0
 11
-0.50877260236452
 21
0.11811023673257
 31
0.0
  0
LINE
  8
1
  6
CONTINUOUS
 62
1
 10
-1.417322835
 20
-0.10146361836805
 30
0.0
 11
-1.417322835
 21
-0.0236220469999999
 31
0.0
  0
LINE
  8
1
  6
CONTINUOUS
 62
1
 10
-0.50877260236452
 20
-0.11811023673257
 30
0.0
 11
-1.40067621663548
 21
-0.11811023673257
 31
0.0
  0
LINE
  8
1
  6
CONTINUOUS
 62
1
 10
-0.492125984000003
 20
0.10146361836805
 30
0.0
 11
-0.492125984000003
 21
0.0236220469999999
 31
0.0
  0
LINE
  8
1
  6
CONTINUOUS
 62
1
 10
-1.456692914
 20
0.0039370080000003
 30
0.0
 11
-1.43700787400001
 21
0.00393700799998964
 31
0.0
  0
LINE
  8
1
  6
CONTINUOUS
 62
1
 10
-1.417322835
 20
0.10146361836805
 30
0.0
 11
-1.417322835
 21
0.0236220469999902
 31
0.0
  0
LINE
  8
1
  6
CONTINUOUS
 62
1
 10
-1.456692914
 20
-0.0039370080000003
 30
0.0
 11
-1.437007874
 21
-0.0039370080000003
 31
0.0
  0
ARC
  8
1
  6
CONTINUOUS
 62
1
 10
-1.437007874
 20
0.0236220469999895
 30
0.0
 40
0.0196850389999999
 50
269.999999999983
 51
359.999999999995
  0
ARC
  8
1
  6
CONTINUOUS
 62
1
 10
-1.437007874
 20
-0.0236220469999993
 30
0.0
 40
0.0196850389999994
 50
359.999999999995
 51
90.0000000000017
  0
ARC
  8
1
  6
CONTINUOUS
 62
1
 10
-0.472440945000003
 20
0.0236220469999996
 30
0.0
 40
0.0196850389999997
 50
179.999999999996
 51
269.999999999995
  0
ARC
  8
1
  6
CONTINUOUS
 62
1
 10
-0.452755904999999
 20
0.0236220470000003
 30
0.0
 40
0.019685039
 50
269.999999999998
 51
359.999999999995
  0
ARC
  8
1
  6
CONTINUOUS
 62
1
 10
-0.472440945000003
 20
-0.0236220470000001
 30
0.0
 40
0.0196850389999998
 50
89.9999999999983
 51
179.999999999999
  0
ARC
  8
1
  6
CONTINUOUS
 62
1
 10
-0.452755904999998
 20
-0.0236220469999997
 30
0.0
 40
0.0196850389999998
 50
359.999999999996
 51
89.9999999999979
  0
LINE
  8
1
  6
CONTINUOUS
 62
1
 10
-0.433070866
 20
-0.12114865713548
 30
0.0
 11
-0.433070865999999
 21
-0.0236220469999999
 31
0.0
  0
LINE
  8
1
  6
CONTINUOUS
 62
1
 10
-0.416424247635483
 20
-0.1377952755
 30
0.0
 11
-0.393700787
 21
-0.1377952765
 31
0.0
  0
LINE
  8
1
  6
CONTINUOUS
 62
1
 10
-1.476377953
 20
0.137795275499999
 30
0.0
 11
-1.476377953
 21
0.0236220469999999
 31
0.0
  0
ARC
  8
1
  6
CONTINUOUS
 62
1
 10
-0.426111153364035
 20
-0.13083556286403
 30
0.0
 40
0.00984252000000037
 50
146.854161078921
 51
224.999999999994
  0
ARC
  8
1
  6
CONTINUOUS
 62
1
 10
-0.426111153364035
 20
-0.13083556286403
 30
0.0
 40
0.00984252
 50
224.999999999997
 51
303.145838921071
  0
ARC
  8
1
  6
CONTINUOUS
 62
1
 10
-0.416424247635483
 20
-0.1456692915
 30
0.0
 40
0.00787401599999976
 50
89.9999999999894
 51
123.145838921063
  0
ARC
  8
1
  6
CONTINUOUS
 62
1
 10
-0.440944882
 20
-0.12114865713548
 30
0.0
 40
0.00787401600000012
 50
326.854161078925
 51
359.999999999996
  0
ARC
  8
1
  6
CONTINUOUS
 62
1
 10
-1.437007874
 20
0.1377952755
 30
0.0
 40
0.0393700790000007
 50
89.9999999999992
 51
180
  0
ARC
  8
1
  6
CONTINUOUS
 62
1
 10
-1.437007874
 20
-0.137795275500001
 30
0.0
 40
0.0393700790000005
 50
179.999999999997
 51
269.999999999994
  0
ARC
  8
1
  6
CONTINUOUS
 62
1
 10
-0.393700786999999
 20
-0.1574803155
 30
0.0
 40
0.0196850390000003
 50
269.999999999998
 51
3.88027671138549E-13
  0
ARC
  8
1
  6
CONTINUOUS
 62
1
 10
-0.393700787
 20
-0.1574803155
 30
0.0
 40
0.019685039
 50
359.999999999994
 51
89.9999999999987
  0
LINE
  8
1
  6
CONTINUOUS
 62
1
 10
-0.393700786999999
 20
-0.1771653545
 30
0.0
 11
-1.437007874
 21
-0.1771653545
 31
0.0
  0
ARC
  8
1
  6
CONTINUOUS
 62
1
 10
-0.426111153364036
 20
0.13083556286403
 30
0.0
 40
0.00984251999999973
 50
135
 51
213.145838921073
  0
ARC
  8
1
  6
CONTINUOUS
 62
1
 10
-0.426111153364035
 20
0.13083556286403
 30
0.0
 40
0.00984252
 50
56.8541610789269
 51
135.000000000001
  0
ARC
  8
1
  6
CONTINUOUS
 62
1
 10
-0.416424247635483
 20
0.1456692915
 30
0.0
 40
0.00787401599999966
 50
236.854161078935
 51
270.000000000009
  0
ARC
  8
1
  6
CONTINUOUS
 62
1
 10
-0.440944882
 20
0.121148657135481
 30
0.0
 40
0.00787401600000009
 50
1.76838840289372E-12
 51
33.1458389210727
  0
ARC
  8
1
  6
CONTINUOUS
 62
1
 10
-0.393700786999999
 20
0.1574803155
 30
0.0
 40
0.0196850390000002
 50
359.999999999995
 51
89.9999999999991
  0
ARC
  8
1
  6
CONTINUOUS
 62
1
 10
-0.393700786999999
 20
0.1574803155
 30
0.0
 40
0.0196850390000001
 50
269.999999999998
 51
8.39666435906369E-13
  0
LINE
  8
1
  6
CONTINUOUS
 62
1
 10
-0.393700786999999
 20
0.1771653545
 30
0.0
 11
-1.437007874
 21
0.1771653545
 31
0.0
  0
ARC
  8
1
  6
CONTINUOUS
 62
1
 10
-1.41036312236404
 20
0.1111505240966
 30
0.0
 40
0.00984252000000045
 50
134.999999999999
 51
213.145838921072
  0
ARC
  8
1
  6
CONTINUOUS
 62
1
 10
-1.41036312236404
 20
0.1111505240966
 30
0.0
 40
0.00984252000000001
 50
56.854161078927
 51
135.000000000001
  0
ARC
  8
1
  6
CONTINUOUS
 62
1
 10
-1.40067621663548
 20
0.12598425273257
 30
0.0
 40
0.00787401599999984
 50
236.854161078935
 51
270.000000000007
  0
ARC
  8
1
  6
CONTINUOUS
 62
1
 10
-1.425196851
 20
0.10146361836805
 30
0.0
 40
0.00787401600000015
 50
3.24098522041132E-12
 51
33.1458389210741
  0
ARC
  8
1
  6
CONTINUOUS
 62
1
 10
-1.41036312236404
 20
-0.1111505240966
 30
0.0
 40
0.00984251999999969
 50
146.854161078923
 51
224.999999999996
  0
ARC
  8
1
  6
CONTINUOUS
 62
1
 10
-1.41036312236404
 20
-0.1111505240966
 30
0.0
 40
0.00984251999999993
 50
225.000000000001
 51
303.145838921075
  0
ARC
  8
1
  6
CONTINUOUS
 62
1
 10
-1.40067621663548
 20
-0.12598425273257
 30
0.0
 40
0.00787401599999992
 50
89.9999999999898
 51
123.145838921063
  0
ARC
  8
1
  6
CONTINUOUS
 62
1
 10
-1.425196851
 20
-0.10146361836805
 30
0.0
 40
0.0078740160000001
 50
326.854161078925
 51
359.999999999996
  0
ARC
  8
1
  6
CONTINUOUS
 62
1
 10
-0.499085696635967
 20
-0.1111505240966
 30
0.0
 40
0.00984252000000024
 50
314.999999999998
 51
33.1458389210737
  0
ARC
  8
1
  6
CONTINUOUS
 62
1
 10
-0.499085696635966
 20
-0.1111505240966
 30
0.0
 40
0.00984251999999995
 50
236.854161078922
 51
314.999999999996
  0
ARC
  8
1
  6
CONTINUOUS
 62
1
 10
-0.508772602364519
 20
-0.12598425273257
 30
0.0
 40
0.00787401600000011
 50
56.8541610789252
 51
89.9999999999979
  0
ARC
  8
1
  6
CONTINUOUS
 62
1
 10
-0.484251968000003
 20
-0.10146361836805
 30
0.0
 40
0.00787401599999999
 50
179.999999999999
 51
213.14583892107
  0
ARC
  8
1
  6
CONTINUOUS
 62
1
 10
-0.499085696635966
 20
0.1111505240966
 30
0.0
 40
0.00984252000000007
 50
326.85416107892
 51
44.9999999999973
  0
ARC
  8
1
  6
CONTINUOUS
 62
1
 10
-0.499085696635967
 20
0.1111505240966
 30
0.0
 40
0.00984252000000009
 50
44.9999999999987
 51
123.145838921072
  0
ARC
  8
1
  6
CONTINUOUS
 62
1
 10
-0.508772602364518
 20
0.12598425273257
 30
0.0
 40
0.00787401599999966
 50
269.999999999991
 51
303.145838921062
  0
ARC
  8
1
  6
CONTINUOUS
 62
1
 10
-0.484251968000003
 20
0.101463618368049
 30
0.0
 40
0.0078740160000001
 50
146.854161078925
 51
179.999999999996
  0
LINE
  8
1
  6
CONTINUOUS
 62
1
 10
-0.433070866
 20
0.12114865713548
 30
0.0
 11
-0.433070866
 21
0.0236220469999999
 31
0.0
  0
LINE
  8
1
  6
CONTINUOUS
 62
1
 10
-0.393700787
 20
0.137795276499999
 30
0.0
 11
-0.416424247635483
 21
0.13779527476743
 31
0.0
  0
LINE
  8
1
  6
CONTINUOUS
 62
1
 10
-1.476377953
 20
-0.1377952755
 30
0.0
 11
-1.476377953
 21
-0.0236220469999999
 31
0.0
  0
ARC
  8
1
  6
CONTINUOUS
 62
1
 10
-1.456692914
 20
0.0236220469999994
 30
0.0
 40
0.0196850390000004
 50
179.999999999996
 51
269.999999999997
  0
ARC
  8
1
  6
CONTINUOUS
 62
1
 10
-1.456692914
 20
-0.0236220470000002
 30
0.0
 40
0.0196850389999999
 50
89.9999999999941
 51
179.999999999999
  0
LINE
  8
1
  6
CONTINUOUS
 62
1
 10
0.472440945000004
 20
0.0039370080000003
 30
0.0
 11
0.452755904999999
 21
0.0039370080000003
 31
0.0
  0
LINE
  8
1
  6
CONTINUOUS
 62
1
 10
0.472440945000003
 20
-0.0039370080000003
 30
0.0
 11
0.452755904999999
 21
-0.0039370080000003
 31
0.0
  0
LINE
  8
1
  6
CONTINUOUS
 62
1
 10
0.492125984000003
 20
-0.10146361836805
 30
0.0
 11
0.492125984000002
 21
-0.0236220469999999
 31
0.0
  0
LINE
  8
1
  6
CONTINUOUS
 62
1
 10
1.40067621663548
 20
0.11811023673257
 30
0.0
 11
0.508772602364521
 21
0.11811023673257
 31
0.0
  0
LINE
  8
1
  6
CONTINUOUS
 62
1
 10
1.417322835
 20
-0.10146361836805
 30
0.0
 11
1.417322835
 21
-0.0236220469999999
 31
0.0
  0
LINE
  8
1
  6
CONTINUOUS
 62
1
 10
0.508772602364521
 20
-0.11811023673257
 30
0.0
 11
1.40067621663548
 21
-0.11811023673257
 31
0.0
  0
LINE
  8
1
  6
CONTINUOUS
 62
1
 10
0.492125984000003
 20
0.10146361836805
 30
0.0
 11
0.492125984000003
 21
0.0236220469999999
 31
0.0
  0
LINE
  8
1
  6
CONTINUOUS
 62
1
 10
1.456692914
 20
0.0039370080000003
 30
0.0
 11
1.43700787400001
 21
0.00393700799998964
 31
0.0
  0
LINE
  8
1
  6
CONTINUOUS
 62
1
 10
1.417322835
 20
0.10146361836805
 30
0.0
 11
1.417322835
 21
0.0236220469999902
 31
0.0
  0
LINE
  8
1
  6
CONTINUOUS
 62
1
 10
1.456692914
 20
-0.0039370080000003
 30
0.0
 11
1.437007874
 21
-0.0039370080000003
 31
0.0
  0
ARC
  8
1
  6
CONTINUOUS
 62
1
 10
1.437007874
 20
0.0236220469999893
 30
0.0
 40
0.0196850390000001
 50
179.999999999998
 51
270.000000000009
  0
ARC
  8
1
  6
CONTINUOUS
 62
1
 10
1.437007874
 20
-0.0236220470000004
 30
0.0
 40
0.0196850390000001
 50
89.9999999999972
 51
180.000000000001
  0
ARC
  8
1
  6
CONTINUOUS
 62
1
 10
0.472440945000004
 20
0.0236220470000004
 30
0.0
 40
0.0196850390000001
 50
270
 51
7.31527576736609E-13
  0
ARC
  8
1
  6
CONTINUOUS
 62
1
 10
0.452755905
 20
0.0236220469999994
 30
0.0
 40
0.0196850389999996
 50
180.000000000001
 51
269.999999999998
  0
ARC
  8
1
  6
CONTINUOUS
 62
1
 10
0.472440945000004
 20
-0.0236220469999997
 30
0.0
 40
0.0196850389999998
 50
359.999999999996
 51
89.9999999999996
  0
ARC
  8
1
  6
CONTINUOUS
 62
1
 10
0.452755904999999
 20
-0.0236220470000002
 30
0.0
 40
0.0196850389999999
 50
90.0000000000002
 51
179.999999999999
  0
LINE
  8
1
  6
CONTINUOUS
 62
1
 10
0.433070866
 20
-0.12114865713548
 30
0.0
 11
0.433070865999999
 21
-0.0236220469999999
 31
0.0
  0
LINE
  8
1
  6
CONTINUOUS
 62
1
 10
0.416424247635483
 20
-0.1377952755
 30
0.0
 11
0.393700787
 21
-0.1377952765
 31
0.0
  0
LINE
  8
1
  6
CONTINUOUS
 62
1
 10
1.476377953
 20
0.137795275499999
 30
0.0
 11
1.476377953
 21
0.0236220469999999
 31
0.0
  0
ARC
  8
1
  6
CONTINUOUS
 62
1
 10
0.426111153364037
 20
-0.13083556286403
 30
0.0
 40
0.00984251999999962
 50
314.999999999998
 51
33.1458389210736
  0
ARC
  8
1
  6
CONTINUOUS
 62
1
 10
0.426111153364036
 20
-0.13083556286403
 30
0.0
 40
0.00984251999999998
 50
236.854161078926
 51
315
  0
ARC
  8
1
  6
CONTINUOUS
 62
1
 10
0.416424247635483
 20
-0.1456692915
 30
0.0
 40
0.00787401600000007
 50
56.8541610789249
 51
89.9999999999978
  0
ARC
  8
1
  6
CONTINUOUS
 62
1
 10
0.440944882
 20
-0.12114865713548
 30
0.0
 40
0.007874016
 50
179.999999999999
 51
213.14583892107
  0
ARC
  8
1
  6
CONTINUOUS
 62
1
 10
1.437007874
 20
0.1377952755
 30
0.0
 40
0.0393700790000005
 50
359.999999999995
 51
89.9999999999985
  0
ARC
  8
1
  6
CONTINUOUS
 62
1
 10
1.437007874
 20
-0.1377952755
 30
0.0
 40
0.0393700790000003
 50
270.000000000001
 51
7.63333123551244E-13
  0
ARC
  8
1
  6
CONTINUOUS
 62
1
 10
0.393700786999999
 20
-0.157480315500001
 30
0.0
 40
0.019685039
 50
179.999999999997
 51
269.999999999998
  0
ARC
  8
1
  6
CONTINUOUS
 62
1
 10
0.393700787
 20
-0.1574803155
 30
0.0
 40
0.0196850389999999
 50
89.9999999999988
 51
180.000000000001
  0
LINE
  8
1
  6
CONTINUOUS
 62
1
 10
0.393700786999999
 20
-0.1771653545
 30
0.0
 11
1.437007874
 21
-0.1771653545
 31
0.0
  0
ARC
  8
1
  6
CONTINUOUS
 62
1
 10
0.426111153364037
 20
0.13083556286403
 30
0.0
 40
0.00984251999999955
 50
326.854161078924
 51
44.9999999999992
  0
ARC
  8
1
  6
CONTINUOUS
 62
1
 10
0.426111153364036
 20
0.13083556286403
 30
0.0
 40
0.00984252000000005
 50
44.9999999999988
 51
123.145838921072
  0
ARC
  8
1
  6
CONTINUOUS
 62
1
 10
0.416424247635484
 20
0.1456692915
 30
0.0
 40
0.00787401599999966
 50
269.999999999989
 51
303.145838921062
  0
ARC
  8
1
  6
CONTINUOUS
 62
1
 10
0.440944882
 20
0.121148657135481
 30
0.0
 40
0.00787401600000004
 50
146.854161078927
 51
179.999999999998
  0
ARC
  8
1
  6
CONTINUOUS
 62
1
 10
0.393700786999999
 20
0.1574803155
 30
0.0
 40
0.0196850390000001
 50
89.9999999999992
 51
180.000000000001
  0
ARC
  8
1
  6
CONTINUOUS
 62
1
 10
0.393700787000001
 20
0.1574803155
 30
0.0
 40
0.0196850390000003
 50
179.999999999995
 51
269.999999999996
  0
LINE
  8
1
  6
CONTINUOUS
 62
1
 10
0.393700786999999
 20
0.1771653545
 30
0.0
 11
1.437007874
 21
0.1771653545
 31
0.0
  0
ARC
  8
1
  6
CONTINUOUS
 62
1
 10
1.41036312236404
 20
0.111150524096599
 30
0.0
 40
0.00984251999999959
 50
326.854161078924
 51
44.9999999999984
  0
ARC
  8
1
  6
CONTINUOUS
 62
1
 10
1.41036312236404
 20
0.1111505240966
 30
0.0
 40
0.00984252000000009
 50
44.9999999999987
 51
123.145838921072
  0
ARC
  8
1
  6
CONTINUOUS
 62
1
 10
1.40067621663548
 20
0.12598425273257
 30
0.0
 40
0.00787401599999981
 50
269.99999999999
 51
303.145838921062
  0
ARC
  8
1
  6
CONTINUOUS
 62
1
 10
1.425196851
 20
0.101463618368049
 30
0.0
 40
0.0078740160000001
 50
146.854161078925
 51
179.999999999996
  0
ARC
  8
1
  6
CONTINUOUS
 62
1
 10
1.41036312236404
 20
-0.1111505240966
 30
0.0
 40
0.00984251999999957
 50
314.999999999999
 51
33.1458389210736
  0
ARC
  8
1
  6
CONTINUOUS
 62
1
 10
1.41036312236404
 20
-0.1111505240966
 30
0.0
 40
0.00984251999999991
 50
236.854161078922
 51
314.999999999996
  0
ARC
  8
1
  6
CONTINUOUS
 62
1
 10
1.40067621663548
 20
-0.12598425273257
 30
0.0
 40
0.00787401600000007
 50
56.8541610789249
 51
89.9999999999978
  0
ARC
  8
1
  6
CONTINUOUS
 62
1
 10
1.425196851
 20
-0.10146361836805
 30
0.0
 40
0.00787401600000013
 50
180.000000000003
 51
213.145838921074
  0
ARC
  8
1
  6
CONTINUOUS
 62
1
 10
0.499085696635967
 20
-0.1111505240966
 30
0.0
 40
0.00984251999999967
 50
146.854161078923
 51
224.999999999996
  0
ARC
  8
1
  6
CONTINUOUS
 62
1
 10
0.499085696635967
 20
-0.1111505240966
 30
0.0
 40
0.00984251999999985
 50
225.000000000002
 51
303.145838921075
  0
ARC
  8
1
  6
CONTINUOUS
 62
1
 10
0.508772602364519
 20
-0.12598425273257
 30
0.0
 40
0.00787401599999957
 50
89.9999999999908
 51
123.145838921063
  0
ARC
  8
1
  6
CONTINUOUS
 62
1
 10
0.484251968000003
 20
-0.10146361836805
 30
0.0
 40
0.0078740160000001
 50
326.854161078926
 51
359.999999999997
  0
ARC
  8
1
  6
CONTINUOUS
 62
1
 10
0.499085696635968
 20
0.1111505240966
 30
0.0
 40
0.0098425200000003
 50
135.000000000001
 51
213.145838921075
  0
ARC
  8
1
  6
CONTINUOUS
 62
1
 10
0.499085696635967
 20
0.1111505240966
 30
0.0
 40
0.00984251999999998
 50
56.8541610789271
 51
135.000000000001
  0
ARC
  8
1
  6
CONTINUOUS
 62
1
 10
0.50877260236452
 20
0.12598425273257
 30
0.0
 40
0.00787401599999972
 50
236.854161078923
 51
269.999999999996
  0
ARC
  8
1
  6
CONTINUOUS
 62
1
 10
0.484251968000003
 20
0.10146361836805
 30
0.0
 40
0.00787401600000008
 50
1.24041632577077E-12
 51
33.145838921072
  0
LINE
  8
1
  6
CONTINUOUS
 62
1
 10
0.433070866
 20
0.12114865713548
 30
0.0
 11
0.433070866
 21
0.0236220469999999
 31
0.0
  0
LINE
  8
1
  6
CONTINUOUS
 62
1
 10
0.393700787
 20
0.137795276499999
 30
0.0
 11
0.416424247635483
 21
0.13779527476743
 31
0.0
  0
LINE
  8
1
  6
CONTINUOUS
 62
1
 10
1.476377953
 20
-0.1377952755
 30
0.0
 11
1.476377953
 21
-0.0236220469999999
 31
0.0
  0
ARC
  8
1
  6
CONTINUOUS
 62
1
 10
1.456692914
 20
0.0236220470000002
 30
0.0
 40
0.0196850390000008
 50
269.999999999998
 51
1.58391623136883E-12
  0
ARC
  8
1
  6
CONTINUOUS
 62
1
 10
1.456692914
 20
-0.0236220469999995
 30
0.0
 40
0.0196850389999996
 50
359.999999999996
 51
90.000000000003
  0
LINE
  8
4
  6
CONTINUOUS
 62
4
 10
1.01909584875292
 20
0.14356088993518
 30
0.0
 11
1.09207039231774
 21
0.2165354335
 31
0.0
  0
LINE
  8
4
  6
CONTINUOUS
 62
4
 10
0.800731808317741
 20
0.2165354335
 30
0.0
 11
1.09207039231774
 21
0.2165354335
 31
0.0
  0
LINE
  8
4
  6
CONTINUOUS
 62
4
 10
0.873706351882563
 20
0.14356088993518
 30
0.0
 11
0.800731808317741
 21
0.2165354335
 31
0.0
  0
LINE
  8
4
  6
CONTINUOUS
 62
4
 10
1.01909584875292
 20
-0.14356088993518
 30
0.0
 11
1.09207039231774
 21
-0.2165354335
 31
0.0
  0
LINE
  8
4
  6
CONTINUOUS
 62
4
 10
0.800731808317741
 20
-0.2165354335
 30
0.0
 11
1.09207039231774
 21
-0.2165354335
 31
0.0
  0
LINE
  8
4
  6
CONTINUOUS
 62
4
 10
0.873706351882563
 20
-0.14356088993518
 30
0.0
 11
0.800731808317741
 21
-0.2165354335
 31
0.0
  0
LINE
  8
4
  6
CONTINUOUS
 62
4
 10
0.879471966317742
 20
-0.12964146537036
 30
0.0
 11
0.879471966317742
 21
0.129641465370359
 31
0.0
  0
LINE
  8
4
  6
CONTINUOUS
 62
4
 10
1.01333023431774
 20
0.129641465370359
 30
0.0
 11
1.01333023431774
 21
-0.12964146537036
 31
0.0
  0
ARC
  8
4
  6
CONTINUOUS
 62
4
 10
0.859786927317743
 20
0.12964146537036
 30
0.0
 40
0.019685038999999
 50
359.999999999996
 51
45.0000000000004
  0
ARC
  8
4
  6
CONTINUOUS
 62
4
 10
0.859786927317742
 20
-0.12964146537036
 30
0.0
 40
0.0196850390000005
 50
314.999999999998
 51
359.999999999998
  0
ARC
  8
4
  6
CONTINUOUS
 62
4
 10
1.03301527331774
 20
-0.12964146537036
 30
0.0
 40
0.0196850390000003
 50
179.999999999997
 51
224.999999999997
  0
ARC
  8
4
  6
CONTINUOUS
 62
4
 10
1.03301527331774
 20
0.12964146537036
 30
0.0
 40
0.0196850389999985
 50
134.999999999995
 51
179.999999999995
  0
LINE
  8
4
  6
CONTINUOUS
 62
4
 10
-0.873706351882562
 20
0.14356088993518
 30
0.0
 11
-0.800731808317741
 21
0.2165354335
 31
0.0
  0
LINE
  8
4
  6
CONTINUOUS
 62
4
 10
-1.09207039231774
 20
0.2165354335
 30
0.0
 11
-0.800731808317741
 21
0.2165354335
 31
0.0
  0
LINE
  8
4
  6
CONTINUOUS
 62
4
 10
-1.01909584875292
 20
0.14356088993518
 30
0.0
 11
-1.09207039231774
 21
0.2165354335
 31
0.0
  0
LINE
  8
4
  6
CONTINUOUS
 62
4
 10
-0.873706351882562
 20
-0.14356088993518
 30
0.0
 11
-0.800731808317741
 21
-0.2165354335
 31
0.0
  0
LINE
  8
4
  6
CONTINUOUS
 62
4
 10
-1.09207039231774
 20
-0.2165354335
 30
0.0
 11
-0.800731808317741
 21
-0.2165354335
 31
0.0
  0
LINE
  8
4
  6
CONTINUOUS
 62
4
 10
-1.01909584875292
 20
-0.14356088993518
 30
0.0
 11
-1.09207039231774
 21
-0.2165354335
 31
0.0
  0
LINE
  8
4
  6
CONTINUOUS
 62
4
 10
-1.01333023431774
 20
-0.12964146537036
 30
0.0
 11
-1.01333023431774
 21
0.129641465370359
 31
0.0
  0
LINE
  8
4
  6
CONTINUOUS
 62
4
 10
-0.87947196631774
 20
0.129641465370359
 30
0.0
 11
-0.87947196631774
 21
-0.12964146537036
 31
0.0
  0
ARC
  8
4
  6
CONTINUOUS
 62
4
 10
-1.03301527331774
 20
0.12964146537036
 30
0.0
 40
0.0196850390000002
 50
359.999999999995
 51
44.9999999999985
  0
ARC
  8
4
  6
CONTINUOUS
 62
4
 10
-1.03301527331774
 20
-0.12964146537036
 30
0.0
 40
0.0196850389999994
 50
314.999999999997
 51
359.999999999997
  0
ARC
  8
4
  6
CONTINUOUS
 62
4
 10
-0.859786927317739
 20
-0.129641465370361
 30
0.0
 40
0.0196850390000001
 50
179.999999999996
 51
224.999999999996
  0
ARC
  8
4
  6
CONTINUOUS
 62
4
 10
-0.859786927317741
 20
0.12964146537036
 30
0.0
 40
0.0196850389999994
 50
134.999999999999
 51
179.999999999999
  0
LINE
  8
4
  6
CONTINUOUS
 62
4
 10
0.0726947484351794
 20
0.143560889915902
 30
0.0
 11
0.145669291999999
 21
0.216535433480722
 31
0.0
  0
LINE
  8
4
  6
CONTINUOUS
 62
4
 10
-0.145669292
 20
0.216535433480722
 30
0.0
 11
0.145669291999999
 21
0.216535433480722
 31
0.0
  0
LINE
  8
4
  6
CONTINUOUS
 62
4
 10
-0.0726947484351777
 20
0.143560889915902
 30
0.0
 11
-0.145669292
 21
0.216535433480722
 31
0.0
  0
LINE
  8
4
  6
CONTINUOUS
 62
4
 10
0.0726947484351794
 20
-0.143560889954458
 30
0.0
 11
0.145669291999999
 21
-0.216535433519278
 31
0.0
  0
LINE
  8
4
  6
CONTINUOUS
 62
4
 10
-0.145669292
 20
-0.216535433519278
 30
0.0
 11
0.145669291999999
 21
-0.216535433519278
 31
0.0
  0
LINE
  8
4
  6
CONTINUOUS
 62
4
 10
-0.0726947484351777
 20
-0.143560889954458
 30
0.0
 11
-0.145669292
 21
-0.216535433519278
 31
0.0
  0
LINE
  8
4
  6
CONTINUOUS
 62
4
 10
-0.0669291339999986
 20
-0.129641465389638
 30
0.0
 11
-0.0669291339999986
 21
0.129641465351082
 31
0.0
  0
LINE
  8
4
  6
CONTINUOUS
 62
4
 10
0.0669291339999993
 20
0.129641465351082
 30
0.0
 11
0.0669291339999993
 21
-0.129641465389638
 31
0.0
  0
ARC
  8
4
  6
CONTINUOUS
 62
4
 10
-0.0866141729999978
 20
0.129641465351083
 30
0.0
 40
0.019685038999999
 50
359.999999999996
 51
45.0000000000006
  0
ARC
  8
4
  6
CONTINUOUS
 62
4
 10
-0.0866141729999989
 20
-0.129641465389638
 30
0.0
 40
0.0196850390000005
 50
314.999999999998
 51
359.999999999998
  0
ARC
  8
4
  6
CONTINUOUS
 62
4
 10
0.0866141729999995
 20
-0.129641465389638
 30
0.0
 40
0.0196850390000002
 50
179.999999999996
 51
224.999999999996
  0
ARC
  8
4
  6
CONTINUOUS
 62
4
 10
0.0866141729999987
 20
0.129641465351082
 30
0.0
 40
0.0196850389999985
 50
134.999999999996
 51
179.999999999996
  0
LINE
  8
5
  6
CONTINUOUS
 62
5
 10
0.137795276
 20
0.0039370080000003
 30
0.0
 11
-0.137795275
 21
0.0039370080000003
 31
0.0
  0
LINE
  8
5
  6
CONTINUOUS
 62
5
 10
-0.137795275999999
 20
-0.0039370080000003
 30
0.0
 11
0.137795276
 21
-0.0039370080000003
 31
0.0
  0
ARC
  8
5
  6
CONTINUOUS
 62
5
 10
-0.137795276
 20
-0.0236220470000001
 30
0.0
 40
0.0196850389999998
 50
89.9999999999987
 51
179.999999999999
  0
LINE
  8
5
  6
CONTINUOUS
 62
5
 10
-0.33464567
 20
-0.1377952755
 30
0.0
 11
-0.177165354773462
 21
-0.1377952755
 31
0.0
  0
LINE
  8
5
  6
CONTINUOUS
 62
5
 10
-0.157480315
 20
-0.0236220469999999
 30
0.0
 11
-0.157480315
 21
-0.11811023572654
 31
0.0
  0
ARC
  8
5
  6
CONTINUOUS
 62
5
 10
-0.33464567
 20
-0.1574803145
 30
0.0
 40
0.0196850390000001
 50
89.9999999999998
 51
180.000000000001
  0
ARC
  8
5
  6
CONTINUOUS
 62
5
 10
-0.33464567
 20
-0.157480314500001
 30
0.0
 40
0.019685039
 50
179.999999999997
 51
269.999999999997
  0
LINE
  8
5
  6
CONTINUOUS
 62
5
 10
0.334645670000002
 20
-0.1771653545
 30
0.0
 11
-0.33464567
 21
-0.1771653545
 31
0.0
  0
ARC
  8
5
  6
CONTINUOUS
 62
5
 10
-0.164440027635963
 20
-0.13083556286404
 30
0.0
 40
0.0098425199999999
 50
244.471220194897
 51
314.999999999998
  0
ARC
  8
5
  6
CONTINUOUS
 62
5
 10
-0.164440027635963
 20
-0.13083556286404
 30
0.0
 40
0.00984251999999992
 50
314.999999999997
 51
25.5287798050941
  0
ARC
  8
5
  6
CONTINUOUS
 62
5
 10
-0.177165354773462
 20
-0.1574803145
 30
0.0
 40
0.019685039
 50
64.4712201948993
 51
89.9999999999992
  0
ARC
  8
5
  6
CONTINUOUS
 62
5
 10
-0.137795276
 20
-0.11811023572654
 30
0.0
 40
0.0196850389999996
 50
180
 51
205.528779805093
  0
LINE
  8
5
  6
CONTINUOUS
 62
5
 10
0.33464567
 20
-0.1377952755
 30
0.0
 11
0.177165354773462
 21
-0.1377952755
 31
0.0
  0
ARC
  8
5
  6
CONTINUOUS
 62
5
 10
0.334645670000003
 20
-0.1574803155
 30
0.0
 40
0.0196850390000001
 50
269.999999999998
 51
8.39666435906369E-13
  0
ARC
  8
5
  6
CONTINUOUS
 62
5
 10
0.334645670000002
 20
-0.1574803145
 30
0.0
 40
0.019685039
 50
359.999999999994
 51
89.9999999999995
  0
ARC
  8
5
  6
CONTINUOUS
 62
5
 10
0.164440027635965
 20
-0.13083556286404
 30
0.0
 40
0.00984251999999996
 50
224.999999999995
 51
295.528779805095
  0
ARC
  8
5
  6
CONTINUOUS
 62
5
 10
0.164440027635965
 20
-0.13083556286404
 30
0.0
 40
0.00984252000000086
 50
154.471220194902
 51
224.999999999996
  0
ARC
  8
5
  6
CONTINUOUS
 62
5
 10
0.177165354773462
 20
-0.1574803145
 30
0.0
 40
0.0196850390000001
 50
89.9999999999984
 51
115.5287798051
  0
ARC
  8
5
  6
CONTINUOUS
 62
5
 10
0.137795276000001
 20
-0.11811023572654
 30
0.0
 40
0.019685038999999
 50
334.471220194903
 51
359.999999999996
  0
ARC
  8
5
  6
CONTINUOUS
 62
5
 10
0.137795276000001
 20
-0.0236220469999998
 30
0.0
 40
0.0196850389999998
 50
359.999999999997
 51
89.9999999999997
  0
LINE
  8
5
  6
CONTINUOUS
 62
5
 10
0.157480315
 20
-0.0236220469999999
 30
0.0
 11
0.157480315
 21
-0.11811023572654
 31
0.0
  0
ARC
  8
5
  6
CONTINUOUS
 62
5
 10
-0.137795276
 20
0.0236220469999998
 30
0.0
 40
0.0196850389999998
 50
179.999999999997
 51
269.999999999997
  0
LINE
  8
5
  6
CONTINUOUS
 62
5
 10
-0.33464567
 20
0.137795275499999
 30
0.0
 11
-0.177165354773462
 21
0.137795275499999
 31
0.0
  0
LINE
  8
5
  6
CONTINUOUS
 62
5
 10
-0.157480315
 20
0.0236220469999999
 30
0.0
 11
-0.157480315
 21
0.118110235726539
 31
0.0
  0
ARC
  8
5
  6
CONTINUOUS
 62
5
 10
-0.334645669999999
 20
0.157480314499999
 30
0.0
 40
0.0196850390000003
 50
179.999999999995
 51
269.999999999996
  0
ARC
  8
5
  6
CONTINUOUS
 62
5
 10
-0.33464567
 20
0.1574803145
 30
0.0
 40
0.0196850390000005
 50
90.0000000000002
 51
180
  0
ARC
  8
5
  6
CONTINUOUS
 62
5
 10
-0.164440027635963
 20
0.13083556286404
 30
0.0
 40
0.00984251999999991
 50
45.0000000000003
 51
115.528779805101
  0
ARC
  8
5
  6
CONTINUOUS
 62
5
 10
-0.164440027635963
 20
0.130835562864041
 30
0.0
 40
0.00984251999999985
 50
334.471220194902
 51
44.9999999999992
  0
ARC
  8
5
  6
CONTINUOUS
 62
5
 10
-0.177165354773463
 20
0.1574803145
 30
0.0
 40
0.0196850390000004
 50
270.000000000005
 51
295.528779805104
  0
ARC
  8
5
  6
CONTINUOUS
 62
5
 10
-0.137795276
 20
0.11811023572654
 30
0.0
 40
0.0196850389999996
 50
154.471220194906
 51
179.999999999999
  0
LINE
  8
5
  6
CONTINUOUS
 62
5
 10
0.33464567
 20
0.137795275499999
 30
0.0
 11
0.177165354773462
 21
0.137795275499999
 31
0.0
  0
ARC
  8
5
  6
CONTINUOUS
 62
5
 10
0.334645670000002
 20
0.1574803155
 30
0.0
 40
0.0196850390000002
 50
359.999999999995
 51
89.9999999999986
  0
ARC
  8
5
  6
CONTINUOUS
 62
5
 10
0.334645670000002
 20
0.157480314499999
 30
0.0
 40
0.0196850390000001
 50
269.999999999998
 51
9.03277529535639E-13
  0
ARC
  8
5
  6
CONTINUOUS
 62
5
 10
0.164440027635964
 20
0.13083556286404
 30
0.0
 40
0.00984251999999996
 50
64.4712201948986
 51
134.999999999999
  0
ARC
  8
5
  6
CONTINUOUS
 62
5
 10
0.164440027635965
 20
0.13083556286404
 30
0.0
 40
0.00984252000000018
 50
135
 51
205.528779805094
  0
ARC
  8
5
  6
CONTINUOUS
 62
5
 10
0.177165354773463
 20
0.1574803145
 30
0.0
 40
0.0196850390000003
 50
244.471220194893
 51
269.999999999993
  0
ARC
  8
5
  6
CONTINUOUS
 62
5
 10
0.137795276000002
 20
0.11811023572654
 30
0.0
 40
0.0196850389999988
 50
359.999999999996
 51
25.5287798050938
  0
ARC
  8
5
  6
CONTINUOUS
 62
5
 10
0.137795276000001
 20
0.0236220470000001
 30
0.0
 40
0.0196850389999998
 50
269.999999999996
 51
359.999999999998
  0
LINE
  8
5
  6
CONTINUOUS
 62
5
 10
0.157480315
 20
0.0236220469999999
 30
0.0
 11
0.157480315
 21
0.118110235726539
 31
0.0
  0
LINE
  8
5
  6
CONTINUOUS
 62
5
 10
0.334645670000002
 20
0.1771653545
 30
0.0
 11
-0.33464567
 21
0.1771653545
 31
0.0
  0
ARC
  8
9
  6
CONTINUOUS
 62
9
 10
-0.946401100317741
 20
-9.70209817482482E-12
 30
0.0
 40
0.049212598
 50
179.999999999995
 51
359.999999999995
  0
ARC
  8
9
  6
CONTINUOUS
 62
9
 10
0
 20
-1.08283068870881E-13
 30
0.0
 40
1.417322835
 50
179.999999999995
 51
359.999999999995
  0
ARC
  8
9
  6
CONTINUOUS
 62
9
 10
0
 20
3.33321323197899E-14
 30
0.0
 40
1.417322835
 50
359.999999999995
 51
180
  0
ARC
  8
9
  6
CONTINUOUS
 62
9
 10
-0.946401100317741
 20
-9.6970447522504E-12
 30
0.0
 40
0.049212598
 50
359.999999999995
 51
180
  0
ARC
  8
9
  6
CONTINUOUS
 62
9
 10
0
 20
-6.43308166711241E-14
 30
0.0
 40
0.492125984000003
 50
179.999999999995
 51
359.999999999995
  0
ARC
  8
9
  6
CONTINUOUS
 62
9
 10
0.946401100317741
 20
1.92763846013208E-11
 30
0.0
 40
0.049212598
 50
180.000000000581
 51
5.83949839516702E-10
  0
ARC
  8
9
  6
CONTINUOUS
 62
9
 10
0.946401100317741
 20
1.92797497170614E-11
 30
0.0
 40
0.049212598
 50
5.83657228486007E-10
 51
180.000000000585
  0
ARC
  8
9
  6
CONTINUOUS
 62
9
 10
0
 20
-1.55589601129539E-14
 30
0.0
 40
0.492125984000003
 50
359.999999999995
 51
180
  0
ARC
  8
9
  6
CONTINUOUS
 62
9
 10
-2.33975894214922E-11
 20
-0.946401100317751
 30
0.0
 40
0.068897638
 50
359.999999999998
 51
180
  0
ARC
  8
9
  6
CONTINUOUS
 62
9
 10
-2.33975894214922E-11
 20
-0.946401100317754
 30
0.0
 40
0.068897638
 50
179.999999999998
 51
359.999999999998
  0
ARC
  8
9
  6
CONTINUOUS
 62
9
 10
-2.33982555553069E-11
 20
0.9464011003177
 30
0.0
 40
0.068897638
 50
359.999999999998
 51
180
  0
ARC
  8
9
  6
CONTINUOUS
 62
9
 10
-2.33982555553069E-11
 20
0.946401100317696
 30
0.0
 40
0.068897638
 50
179.999999999998
 51
359.999999999998
  0
ENDSEC
  0
EOF
