  0
SECTION
  2
HEADER
  9
$ACADVER
  1
AC1003
  9
$EXTMIN
 10
-1.181102362
 20
1.181102362
  9
$EXTMAX
 10
1.181102362
 20
-1.181102362
  9
$INSUNITS
 70
1
  9
$INSBASE
 10
0
 20
-1.11022302462516E-16
999
Created with OMAX LAYOUT for Windows. (www.omax.com) 2/19/2024
  0
ENDSEC
  0
SECTION
  2
TABLES
  0
TABLE
  2
LAYER
 70
    10
  0
LAYER
  2
0
 70
     0
 62
     7
  6
CONTINUOUS
  0
LAYER
  2
1
 70
     0
 62
     7
  6
CONTINUOUS
  0
LAYER
  2
2
 70
     0
 62
     7
  6
CONTINUOUS
  0
LAYER
  2
3
 70
     0
 62
     7
  6
CONTINUOUS
  0
LAYER
  2
4
 70
     0
 62
     7
  6
CONTINUOUS
  0
LAYER
  2
5
 70
     0
 62
     7
  6
CONTINUOUS
  0
LAYER
  2
6
 70
     0
 62
     7
  6
CONTINUOUS
  0
LAYER
  2
7
 70
     0
 62
     7
  6
CONTINUOUS
  0
LAYER
  2
8
 70
     0
 62
     7
  6
CONTINUOUS
  0
LAYER
  2
9
 70
     0
 62
     7
  6
CONTINUOUS
  0
LAYER
  2
10
 70
     0
 62
     7
  6
CONTINUOUS
  0
LAYER
  2
11
 70
     0
 62
     7
  6
CONTINUOUS
  0
LAYER
  2
12
 70
     0
 62
     7
  6
CONTINUOUS
  0
LAYER
  2
13
 70
     0
 62
     7
  6
CONTINUOUS
  0
LAYER
  2
14
 70
     0
 62
     7
  6
CONTINUOUS
  0
LAYER
  2
15
 70
     0
 62
     7
  6
CONTINUOUS
  0
LAYER
  2
16
 70
     0
 62
     7
  6
CONTINUOUS
  0
LAYER
  2
17
 70
     0
 62
     7
  6
CONTINUOUS
  0
LAYER
  2
18
 70
     0
 62
     7
  6
CONTINUOUS
  0
LAYER
  2
19
 70
     0
 62
     7
  6
CONTINUOUS
  0
LAYER
  2
20
 70
     0
 62
     7
  6
CONTINUOUS
  0
LAYER
  2
21
 70
     0
 62
     7
  6
CONTINUOUS
  0
LAYER
  2
22
 70
     0
 62
     7
  6
CONTINUOUS
  0
LAYER
  2
23
 70
     0
 62
     7
  6
CONTINUOUS
  0
LAYER
  2
24
 70
     0
 62
     7
  6
CONTINUOUS
  0
LAYER
  2
25
 70
     0
 62
     7
  6
CONTINUOUS
  0
LAYER
  2
26
 70
     0
 62
     7
  6
CONTINUOUS
  0
LAYER
  2
27
 70
     0
 62
     7
  6
CONTINUOUS
  0
LAYER
  2
28
 70
     0
 62
     7
  6
CONTINUOUS
  0
LAYER
  2
29
 70
     0
 62
     7
  6
CONTINUOUS
  0
LAYER
  2
30
 70
     0
 62
     7
  6
CONTINUOUS
  0
LAYER
  2
31
 70
     0
 62
     7
  6
CONTINUOUS
  0
ENDTAB
  0
ENDSEC
  0
SECTION
  2
ENTITIES
  0
ARC
  8
0
  6
CONTINUOUS
 62
0
 10
0.590551181000001
 20
-0.590551181
 30
0.0
 40
0.196850393999999
 50
289.11156313055
 51
9.54166404439055E-14
  0
ARC
  8
0
  6
CONTINUOUS
 62
0
 10
0.590551180999996
 20
-0.590551181000001
 30
0.0
 40
0.196850394000001
 50
109.11156313055
 51
269.999999999999
  0
ARC
  8
0
  6
CONTINUOUS
 62
0
 10
-0.590551180999998
 20
-0.590551181
 30
0.0
 40
0.196850394000001
 50
70.888436869449
 51
180
  0
ARC
  8
0
  6
CONTINUOUS
 62
0
 10
-0.590551180999995
 20
-0.590551181000001
 30
0.0
 40
0.196850394000001
 50
250.888436869448
 51
269.999999999999
  0
ARC
  8
0
  6
CONTINUOUS
 62
0
 10
-0.590551180999998
 20
0.590551181
 30
0.0
 40
0.196850394000001
 50
109.111563130551
 51
180
  0
ARC
  8
0
  6
CONTINUOUS
 62
0
 10
-0.590551180999994
 20
0.590551181000001
 30
0.0
 40
0.196850394000001
 50
289.11156313055
 51
90.0000000000002
  0
ARC
  8
0
  6
CONTINUOUS
 62
0
 10
0.590551181
 20
0.590551180999999
 30
0.0
 40
0.196850394
 50
250.888436869448
 51
360
  0
ARC
  8
0
  6
CONTINUOUS
 62
0
 10
0.590551180999997
 20
0.590551181
 30
0.0
 40
0.196850394000001
 50
70.8884368694488
 51
89.9999999999997
  0
ARC
  8
0
  6
CONTINUOUS
 62
0
 10
0.590551180999998
 20
-0.590551181
 30
0.0
 40
0.196850394000001
 50
270
 51
289.111563130551
  0
ARC
  8
0
  6
CONTINUOUS
 62
0
 10
-0.590551180999995
 20
-0.590551181
 30
0.0
 40
0.196850394000001
 50
269.999999999999
 51
70.888436869449
  0
ARC
  8
0
  6
CONTINUOUS
 62
0
 10
-0.590551180999998
 20
-0.590551181000003
 30
0.0
 40
0.196850394
 50
179.999999999999
 51
250.888436869449
  0
ARC
  8
0
  6
CONTINUOUS
 62
0
 10
-0.590551180999998
 20
0.590551180999998
 30
0.0
 40
0.196850394000001
 50
179.999999999999
 51
289.11156313055
  0
ARC
  8
0
  6
CONTINUOUS
 62
0
 10
-0.590551180999997
 20
0.590551180999996
 30
0.0
 40
0.196850394000005
 50
90
 51
109.111563130551
  0
ARC
  8
0
  6
CONTINUOUS
 62
0
 10
0.590551180999997
 20
0.590551181
 30
0.0
 40
0.196850394000001
 50
89.9999999999998
 51
250.888436869449
  0
ARC
  8
0
  6
CONTINUOUS
 62
0
 10
0.590551180999997
 20
0.590551181000002
 30
0.0
 40
0.196850394000001
 50
359.999999999999
 51
70.8884368694488
  0
ARC
  8
0
  6
CONTINUOUS
 62
0
 10
0.590551180999997
 20
-0.590551180999998
 30
0.0
 40
0.196850394000001
 50
360
 51
109.111563130551
  0
LINE
  8
1
  6
CONTINUOUS
 62
1
 10
-0.590551180999997
 20
-0.787401575000001
 30
0.0
 11
0.590551180999997
 21
-0.787401575000001
 31
0.0
  0
LINE
  8
1
  6
CONTINUOUS
 62
1
 10
-0.787401574999998
 20
-0.590551181
 30
0.0
 11
-0.787401574999998
 21
0.590551181
 31
0.0
  0
LINE
  8
1
  6
CONTINUOUS
 62
1
 10
-0.590551180999997
 20
0.787401575000001
 30
0.0
 11
0.590551180999997
 21
0.787401575000001
 31
0.0
  0
LINE
  8
1
  6
CONTINUOUS
 62
1
 10
0.787401574999998
 20
0.590551181
 30
0.0
 11
0.787401574999998
 21
-0.590551181
 31
0.0
  0
ARC
  8
2
  6
CONTINUOUS
 62
2
 10
0.590551180999997
 20
-0.590551181
 30
0.0
 40
0.066929134
 50
359.999999999999
 51
180
  0
ARC
  8
2
  6
CONTINUOUS
 62
2
 10
0.590551180999997
 20
-0.590551181000001
 30
0.0
 40
0.066929134
 50
179.999999999999
 51
359.999999999999
  0
ARC
  8
2
  6
CONTINUOUS
 62
2
 10
-0.590551180999997
 20
-0.590551181000001
 30
0.0
 40
0.066929134
 50
359.999999999999
 51
180
  0
ARC
  8
2
  6
CONTINUOUS
 62
2
 10
-0.590551180999997
 20
-0.590551181
 30
0.0
 40
0.066929134
 50
180
 51
1.52666624710249E-13
  0
ARC
  8
2
  6
CONTINUOUS
 62
2
 10
-0.590551180999997
 20
0.590551181
 30
0.0
 40
0.066929134
 50
179.999999999999
 51
359.999999999999
  0
ARC
  8
2
  6
CONTINUOUS
 62
2
 10
-0.590551180999997
 20
0.590551181000001
 30
0.0
 40
0.066929134
 50
359.999999999999
 51
180
  0
ARC
  8
2
  6
CONTINUOUS
 62
2
 10
0.590551180999997
 20
0.590551181000001
 30
0.0
 40
0.066929134
 50
180
 51
1.52666624710249E-13
  0
ARC
  8
2
  6
CONTINUOUS
 62
2
 10
0.590551180999997
 20
0.590551181
 30
0.0
 40
0.066929134
 50
359.999999999999
 51
180
  0
LINE
  8
3
  6
CONTINUOUS
 62
3
 10
1.181102362
 20
1.181102362
 30
0.0
 11
-1.181102362
 21
1.181102362
 31
0.0
  0
LINE
  8
3
  6
CONTINUOUS
 62
3
 10
1.181102362
 20
-1.181102362
 30
0.0
 11
1.181102362
 21
1.181102362
 31
0.0
  0
LINE
  8
3
  6
CONTINUOUS
 62
3
 10
1.181102362
 20
-1.181102362
 30
0.0
 11
-1.181102362
 21
-1.181102362
 31
0.0
  0
LINE
  8
3
  6
CONTINUOUS
 62
3
 10
-1.181102362
 20
1.181102362
 30
0.0
 11
-1.181102362
 21
-1.181102362
 31
0.0
  0
ENDSEC
  0
EOF
