  0
SECTION
  2
HEADER
  9
$ACADVER
  1
AC1003
  9
$EXTMIN
 10
-0.98425196901507
 20
0.984251969024109
  9
$EXTMAX
 10
0.984251969025115
 20
-0.984251969016073
  9
$INSUNITS
 70
1
  9
$INSBASE
 10
5.02214936304313E-12
 20
4.01823019302583E-12
999
Created with OMAX LAYOUT for Windows. (www.omax.com) 6/12/2024
  0
ENDSEC
  0
SECTION
  2
TABLES
  0
TABLE
  2
LAYER
 70
    10
  0
LAYER
  2
0
 70
     0
 62
     7
  6
CONTINUOUS
  0
LAYER
  2
1
 70
     0
 62
     7
  6
CONTINUOUS
  0
LAYER
  2
2
 70
     0
 62
     7
  6
CONTINUOUS
  0
LAYER
  2
3
 70
     0
 62
     7
  6
CONTINUOUS
  0
LAYER
  2
4
 70
     0
 62
     7
  6
CONTINUOUS
  0
LAYER
  2
5
 70
     0
 62
     7
  6
CONTINUOUS
  0
LAYER
  2
6
 70
     0
 62
     7
  6
CONTINUOUS
  0
LAYER
  2
7
 70
     0
 62
     7
  6
CONTINUOUS
  0
LAYER
  2
8
 70
     0
 62
     7
  6
CONTINUOUS
  0
LAYER
  2
9
 70
     0
 62
     7
  6
CONTINUOUS
  0
LAYER
  2
10
 70
     0
 62
     7
  6
CONTINUOUS
  0
LAYER
  2
11
 70
     0
 62
     7
  6
CONTINUOUS
  0
LAYER
  2
12
 70
     0
 62
     7
  6
CONTINUOUS
  0
LAYER
  2
13
 70
     0
 62
     7
  6
CONTINUOUS
  0
LAYER
  2
14
 70
     0
 62
     7
  6
CONTINUOUS
  0
LAYER
  2
15
 70
     0
 62
     7
  6
CONTINUOUS
  0
LAYER
  2
16
 70
     0
 62
     7
  6
CONTINUOUS
  0
LAYER
  2
17
 70
     0
 62
     7
  6
CONTINUOUS
  0
LAYER
  2
18
 70
     0
 62
     7
  6
CONTINUOUS
  0
LAYER
  2
19
 70
     0
 62
     7
  6
CONTINUOUS
  0
LAYER
  2
20
 70
     0
 62
     7
  6
CONTINUOUS
  0
LAYER
  2
21
 70
     0
 62
     7
  6
CONTINUOUS
  0
LAYER
  2
22
 70
     0
 62
     7
  6
CONTINUOUS
  0
LAYER
  2
23
 70
     0
 62
     7
  6
CONTINUOUS
  0
LAYER
  2
24
 70
     0
 62
     7
  6
CONTINUOUS
  0
LAYER
  2
25
 70
     0
 62
     7
  6
CONTINUOUS
  0
LAYER
  2
26
 70
     0
 62
     7
  6
CONTINUOUS
  0
LAYER
  2
27
 70
     0
 62
     7
  6
CONTINUOUS
  0
LAYER
  2
28
 70
     0
 62
     7
  6
CONTINUOUS
  0
LAYER
  2
29
 70
     0
 62
     7
  6
CONTINUOUS
  0
LAYER
  2
30
 70
     0
 62
     7
  6
CONTINUOUS
  0
LAYER
  2
31
 70
     0
 62
     7
  6
CONTINUOUS
  0
ENDTAB
  0
ENDSEC
  0
SECTION
  2
ENTITIES
  0
ARC
  8
0
  6
CONTINUOUS
 62
0
 10
-0.787401574409041
 20
0.787401575192969
 30
0.0
 40
0.066929134
 50
359.999999999999
 51
180
  0
ARC
  8
0
  6
CONTINUOUS
 62
0
 10
-0.787401574409041
 20
0.787401575192968
 30
0.0
 40
0.066929134
 50
179.999999999999
 51
359.999999999999
  0
ARC
  8
0
  6
CONTINUOUS
 62
0
 10
-0.787401575189292
 20
-0.787401574413059
 30
0.0
 40
0.066929134
 50
89.9999999999992
 51
269.999999999999
  0
ARC
  8
0
  6
CONTINUOUS
 62
0
 10
-0.787401575188607
 20
-0.787401574413059
 30
0.0
 40
0.066929134
 50
269.999999999999
 51
89.9999999999996
  0
ARC
  8
0
  6
CONTINUOUS
 62
0
 10
0.787401574417078
 20
-0.787401575184932
 30
0.0
 40
0.066929134
 50
180.000000000584
 51
5.84547783796817E-10
  0
ARC
  8
0
  6
CONTINUOUS
 62
0
 10
0.787401574417078
 20
-0.787401575184931
 30
0.0
 40
0.066929134
 50
5.84535061578091E-10
 51
180.000000000585
  0
ARC
  8
0
  6
CONTINUOUS
 62
0
 10
0.787401575181939
 20
0.787401574421096
 30
0.0
 40
0.066929134
 50
269.999999999999
 51
89.9999999999996
  0
ARC
  8
0
  6
CONTINUOUS
 62
0
 10
0.787401575179888
 20
0.787401574421096
 30
0.0
 40
0.066929134
 50
89.9999999999992
 51
269.999999999999
  0
LINE
  8
1
  6
CONTINUOUS
 62
1
 10
-0.984251968984931
 20
-0.787401575016072
 30
0.0
 11
-0.98425196901507
 21
0.787401574975893
 31
0.0
  0
LINE
  8
1
  6
CONTINUOUS
 62
1
 10
-0.787401574980913
 20
-0.984251969016073
 30
0.0
 11
0.787401575029133
 21
-0.984251968983927
 31
0.0
  0
LINE
  8
1
  6
CONTINUOUS
 62
1
 10
0.984251969025115
 20
-0.787401574983928
 30
0.0
 11
0.984251968974884
 21
0.787401575024108
 31
0.0
  0
LINE
  8
1
  6
CONTINUOUS
 62
1
 10
0.787401574968857
 20
0.984251969024109
 30
0.0
 11
-0.787401575021098
 21
0.984251968975891
 31
0.0
  0
ARC
  8
1
  6
CONTINUOUS
 62
1
 10
-0.787401575015071
 20
0.787401574975891
 30
0.0
 40
0.196850394
 50
90.0000000017541
 51
179.999999999999
  0
ARC
  8
1
  6
CONTINUOUS
 62
1
 10
0.787401574974884
 20
0.787401575024111
 30
0.0
 40
0.196850394
 50
359.999999999999
 51
90.0000000017541
  0
ARC
  8
1
  6
CONTINUOUS
 62
1
 10
0.787401575025117
 20
-0.787401574983927
 30
0.0
 40
0.196850394
 50
270.000000001169
 51
359.999999999999
  0
ARC
  8
1
  6
CONTINUOUS
 62
1
 10
-0.787401574984931
 20
-0.787401575016075
 30
0.0
 40
0.196850394
 50
179.999999999999
 51
270.000000001169
  0
LINE
  8
3
  6
CONTINUOUS
 62
3
 10
-0.668840208077277
 20
0.755633152830842
 30
0.0
 11
-0.755633152046915
 21
0.668840208861204
 31
0.0
  0
LINE
  8
3
  6
CONTINUOUS
 62
3
 10
-0.755633152046915
 20
0.668840208861204
 30
0.0
 11
-0.874194518378679
 21
0.700608631223331
 31
0.0
  0
LINE
  8
3
  6
CONTINUOUS
 62
3
 10
-0.874194518378679
 20
0.700608631223331
 30
0.0
 11
-0.905962940740806
 21
0.819169997555096
 31
0.0
  0
LINE
  8
3
  6
CONTINUOUS
 62
3
 10
-0.905962940740806
 20
0.819169997555096
 30
0.0
 11
-0.819169996771168
 21
0.905962941524733
 31
0.0
  0
LINE
  8
3
  6
CONTINUOUS
 62
3
 10
-0.819169996771168
 20
0.905962941524733
 30
0.0
 11
-0.700608630439404
 21
0.874194519162606
 31
0.0
  0
LINE
  8
3
  6
CONTINUOUS
 62
3
 10
-0.700608630439404
 20
0.874194519162606
 30
0.0
 11
-0.668840208077277
 21
0.755633152830842
 31
0.0
  0
LINE
  8
3
  6
CONTINUOUS
 62
3
 10
-0.755633152827429
 20
-0.668840208081133
 30
0.0
 11
-0.668840208857348
 21
-0.755633152050328
 31
0.0
  0
LINE
  8
3
  6
CONTINUOUS
 62
3
 10
-0.668840208857348
 20
-0.755633152050328
 30
0.0
 11
-0.70060863121887
 21
-0.874194518382254
 31
0.0
  0
LINE
  8
3
  6
CONTINUOUS
 62
3
 10
-0.70060863121887
 20
-0.874194518382254
 30
0.0
 11
-0.819169997550472
 21
-0.905962940744986
 31
0.0
  0
LINE
  8
3
  6
CONTINUOUS
 62
3
 10
-0.819169997550472
 20
-0.905962940744986
 30
0.0
 11
-0.905962941520553
 21
-0.819169996775791
 31
0.0
  0
LINE
  8
3
  6
CONTINUOUS
 62
3
 10
-0.905962941520553
 20
-0.819169996775791
 30
0.0
 11
-0.874194519159031
 21
-0.700608630443865
 31
0.0
  0
LINE
  8
3
  6
CONTINUOUS
 62
3
 10
-0.874194519159031
 20
-0.700608630443865
 30
0.0
 11
-0.755633152827429
 21
-0.668840208081133
 31
0.0
  0
LINE
  8
3
  6
CONTINUOUS
 62
3
 10
0.668840208084989
 20
-0.755633152824016
 30
0.0
 11
0.755633152053741
 21
-0.668840208853492
 31
0.0
  0
LINE
  8
3
  6
CONTINUOUS
 62
3
 10
0.755633152053741
 20
-0.668840208853492
 30
0.0
 11
0.87419451838583
 21
-0.700608631214409
 31
0.0
  0
LINE
  8
3
  6
CONTINUOUS
 62
3
 10
0.87419451838583
 20
-0.700608631214409
 30
0.0
 11
0.905962940749166
 21
-0.819169997545849
 31
0.0
  0
LINE
  8
3
  6
CONTINUOUS
 62
3
 10
0.905962940749166
 20
-0.819169997545849
 30
0.0
 11
0.819169996780415
 21
-0.905962941516372
 31
0.0
  0
LINE
  8
3
  6
CONTINUOUS
 62
3
 10
0.819169996780415
 20
-0.905962941516372
 30
0.0
 11
0.700608630448326
 21
-0.874194519155456
 31
0.0
  0
LINE
  8
3
  6
CONTINUOUS
 62
3
 10
0.700608630448326
 20
-0.874194519155456
 30
0.0
 11
0.668840208084989
 21
-0.755633152824016
 31
0.0
  0
LINE
  8
3
  6
CONTINUOUS
 62
3
 10
0.755633152820603
 20
0.668840208088845
 30
0.0
 11
0.668840208849636
 21
0.755633152057154
 31
0.0
  0
LINE
  8
3
  6
CONTINUOUS
 62
3
 10
0.668840208849636
 20
0.755633152057154
 30
0.0
 11
0.700608631209948
 21
0.874194518389405
 31
0.0
  0
LINE
  8
3
  6
CONTINUOUS
 62
3
 10
0.700608631209948
 20
0.874194518389405
 30
0.0
 11
0.819169997541226
 21
0.905962940753347
 31
0.0
  0
LINE
  8
3
  6
CONTINUOUS
 62
3
 10
0.819169997541226
 20
0.905962940753347
 30
0.0
 11
0.905962941512192
 21
0.819169996785038
 31
0.0
  0
LINE
  8
3
  6
CONTINUOUS
 62
3
 10
0.905962941512192
 20
0.819169996785038
 30
0.0
 11
0.87419451915188
 21
0.700608630452787
 31
0.0
  0
LINE
  8
3
  6
CONTINUOUS
 62
3
 10
0.87419451915188
 20
0.700608630452787
 30
0.0
 11
0.755633152820603
 21
0.668840208088845
 31
0.0
  0
ARC
  8
5
  6
CONTINUOUS
 62
5
 10
-0.787401574409038
 20
0.787401575192967
 30
0.0
 40
0.196850393999999
 50
261.786788907219
 51
8.21321093634081
  0
ARC
  8
5
  6
CONTINUOUS
 62
5
 10
-0.826771654984931
 20
0.514637668937153
 30
0.0
 40
0.078740157
 50
81.7867889072199
 51
180
  0
ARC
  8
5
  6
CONTINUOUS
 62
5
 10
-0.51463766804573
 20
0.826771655024109
 30
0.0
 40
0.078740157
 50
89.9999999999997
 51
188.21321093634
  0
LINE
  8
5
  6
CONTINUOUS
 62
5
 10
-0.905511811984931
 20
0.514637668937153
 30
0.0
 11
-0.905511812021483
 21
-0.514637668050351
 31
0.0
  0
ARC
  8
5
  6
CONTINUOUS
 62
5
 10
-0.787401575188949
 20
-0.787401574413056
 30
0.0
 40
0.196850393999999
 50
351.786788907511
 51
98.2132109366333
  0
ARC
  8
5
  6
CONTINUOUS
 62
5
 10
-0.514637668932934
 20
-0.826771654987558
 30
0.0
 40
0.078740157
 50
171.786788907512
 51
270.000000000292
  0
ARC
  8
5
  6
CONTINUOUS
 62
5
 10
-0.826771655021483
 20
-0.514637668049949
 30
0.0
 40
0.078740157
 50
180.000000000292
 51
278.213210936633
  0
LINE
  8
5
  6
CONTINUOUS
 62
5
 10
-0.514637668932532
 20
-0.905511811987557
 30
0.0
 11
0.514637668054972
 21
-0.905511812018857
 31
0.0
  0
ARC
  8
5
  6
CONTINUOUS
 62
5
 10
0.787401574417075
 20
-0.787401575184931
 30
0.0
 40
0.196850393999999
 50
81.7867889078042
 51
188.213210936926
  0
ARC
  8
5
  6
CONTINUOUS
 62
5
 10
0.826771654990184
 20
-0.514637668928715
 30
0.0
 40
0.078740157
 50
261.786788907804
 51
5.84605033781083E-10
  0
ARC
  8
5
  6
CONTINUOUS
 62
5
 10
0.514637668054168
 20
-0.826771655018857
 30
0.0
 40
0.078740157
 50
270.000000000585
 51
8.21321093692558
  0
LINE
  8
5
  6
CONTINUOUS
 62
5
 10
0.905511811990184
 20
-0.514637668927911
 30
0.0
 11
0.905511812016231
 21
0.514637668059593
 31
0.0
  0
ARC
  8
5
  6
CONTINUOUS
 62
5
 10
0.787401575180913
 20
0.787401574421093
 30
0.0
 40
0.196850393999999
 50
171.786788908096
 51
278.213210937218
  0
ARC
  8
5
  6
CONTINUOUS
 62
5
 10
0.514637668924496
 20
0.82677165499281
 30
0.0
 40
0.078740157
 50
351.786788908097
 51
90.0000000008769
  0
ARC
  8
5
  6
CONTINUOUS
 62
5
 10
0.82677165501623
 20
0.514637668058387
 30
0.0
 40
0.0787401569999999
 50
8.76866203460766E-10
 51
98.2132109372176
  0
LINE
  8
5
  6
CONTINUOUS
 62
5
 10
0.51463766892329
 20
0.90551181199281
 30
0.0
 11
-0.51463766804573
 21
0.905511812024109
 31
0.0
  0
ARC
  8
9
  6
CONTINUOUS
 62
9
 10
-0.787401575188608
 20
-0.787401574413058
 30
0.0
 40
0.118110236
 50
359.999999999999
 51
180
  0
ARC
  8
9
  6
CONTINUOUS
 62
9
 10
-0.787401575188608
 20
-0.787401574413061
 30
0.0
 40
0.118110236
 50
179.999999999999
 51
359.999999999999
  0
ARC
  8
9
  6
CONTINUOUS
 62
9
 10
0.787401575188608
 20
-0.787401574413061
 30
0.0
 40
0.118110236
 50
359.999999999999
 51
180
  0
ARC
  8
9
  6
CONTINUOUS
 62
9
 10
0.787401575188608
 20
-0.787401574413059
 30
0.0
 40
0.118110236
 50
180
 51
1.52666624710249E-13
  0
ARC
  8
9
  6
CONTINUOUS
 62
9
 10
0.787401575188608
 20
0.787401574413058
 30
0.0
 40
0.118110236
 50
179.999999999999
 51
359.999999999999
  0
ARC
  8
9
  6
CONTINUOUS
 62
9
 10
0.787401575188608
 20
0.787401574413061
 30
0.0
 40
0.118110236
 50
359.999999999999
 51
180
  0
ARC
  8
9
  6
CONTINUOUS
 62
9
 10
-0.787401575188608
 20
0.78740157441306
 30
0.0
 40
0.118110236
 50
180
 51
1.52666624710249E-13
  0
ARC
  8
9
  6
CONTINUOUS
 62
9
 10
-0.787401575188608
 20
0.787401574413058
 30
0.0
 40
0.118110236
 50
359.999999999999
 51
180
  0
ENDSEC
  0
EOF
