999
File generated by Conversation
0
SECTION
2
HEADER
0
SECTION
2
HEADER
9
$ACADVER
1
AC1021
9
$INSBASE
10
0.0
20
0.0
30
0.0
9
$INSUNITS
70
4
9
$EXTMIN
10
0.0
20
0.0
30
0.0
9
$EXTMAX
10
1000.0
20
1000.0
30
0.0
0
ENDSEC
0
SECTION
2
TABLES
0
TABLE
2
LTYPE
70
1
0
LTYPE
2
CONTINUOUS
70
64
3
Solid line
72
65
73
0
40
0.0
0
ENDTAB
0
TABLE
2
LAYER
70
1
0
LAYER
2
0
70
64
62
7
6
CONTINUOUS
0
ENDTAB
0
TABLE
2
STYLE
70
1
0
STYLE
2
STANDARD
70
0
40
0.0
41
1.0
50
0.0
71
0
42
0.2
3
txt
4

0
ENDTAB
0
ENDSEC
0
SECTION
2
ENTITIES
0
LINE
8
0
62
2
10
33.500000
20
-4.500885
30
0.0
11
33.500000
21
4.500883
31
0.0
0
ARC
8
0
62
2
10
31.750885
20
-7.250000
30
0.0
40
1.000000
50
58.600266
51
90.000000
0
ARC
8
0
62
2
10
34.500000
20
-4.500885
30
0.0
40
1.000000
50
179.999985
51
211.399673
0
ARC
8
0
62
2
10
32.792892
20
-5.542892
30
0.0
40
1.000000
50
238.600281
51
314.999969
0
ARC
8
0
62
2
10
32.792892
20
-5.542892
30
0.0
40
1.000000
50
314.999969
51
31.399672
0
ARC
8
0
62
1
10
-31.750900
20
-7.250000
30
0.0
40
1.000000
50
90.000000
51
121.399353
0
ARC
8
0
62
1
10
-34.500000
20
-4.500885
30
0.0
40
1.000000
50
328.600342
51
0.000000
0
ARC
8
0
62
1
10
-32.792892
20
-5.542892
30
0.0
40
1.000000
50
148.600327
51
224.999878
0
ARC
8
0
62
1
10
-32.792892
20
-5.542892
30
0.0
40
1.000000
50
224.999878
51
301.399414
0
ARC
8
0
62
2
10
30.001770
20
8.250000
30
0.0
40
2.000000
50
270.000000
51
270.000000
0
ARC
8
0
62
2
10
34.500000
20
4.500883
30
0.0
40
1.000000
50
148.600311
51
179.999985
0
ARC
8
0
62
2
10
31.750927
20
7.250000
30
0.0
40
1.000000
50
270.000000
51
301.398590
0
ARC
8
0
62
2
10
32.792892
20
5.542893
30
0.0
40
1.000000
50
44.999458
51
121.398598
0
LINE
8
0
62
1
10
-41.500000
20
14.799191
30
0.0
11
-41.500000
21
-8.249998
31
0.0
0
ARC
8
0
62
2
10
32.792892
20
5.542893
30
0.0
40
1.000000
50
44.999382
51
44.999458
0
ARC
8
0
62
2
10
32.792892
20
5.542893
30
0.0
40
1.000000
50
328.600311
51
44.999344
0
ARC
8
0
62
2
10
32.792892
20
5.542893
30
0.0
40
1.000000
50
44.999344
51
44.999382
0
LINE
8
0
62
1
10
-33.500000
20
6.249992
30
0.0
11
-33.500000
21
-4.500885
31
0.0
0
LINE
8
0
62
1
10
-12.500000
20
-6.250000
30
0.0
11
-31.750900
21
-6.250000
31
0.0
0
LINE
8
0
62
1
10
-12.500000
20
-10.250000
30
0.0
11
-39.500000
21
-10.249998
31
0.0
0
LINE
8
0
62
1
10
-10.500000
20
-8.250000
30
0.0
11
-10.500000
21
-8.250000
31
0.0
0
LINE
8
0
62
2
10
31.750885
20
-6.250000
30
0.0
11
12.500000
21
-6.250000
31
0.0
0
LINE
8
0
62
2
10
10.500000
20
-8.250000
30
0.0
11
10.500000
21
-8.250000
31
0.0
0
LINE
8
0
62
1
10
-33.500000
20
8.388442
30
0.0
11
-33.500000
21
6.249992
31
0.0
0
LINE
8
0
62
1
10
35.499992
20
16.799191
30
0.0
11
-39.500000
21
16.799191
31
0.0
0
LINE
8
0
62
2
10
-26.500002
20
6.250000
30
0.0
11
31.750927
21
6.250000
31
0.0
0
LINE
8
0
62
2
10
-28.500002
20
8.563044
30
0.0
11
-28.500002
21
8.249998
31
0.0
0
LINE
8
0
62
2
10
35.500000
20
-10.250000
30
0.0
11
12.500000
21
-10.250000
31
0.0
0
LINE
8
0
62
1
10
37.499992
20
14.730569
30
0.0
11
37.499992
21
14.799187
31
0.0
0
LINE
8
0
62
2
10
37.499992
20
10.728133
30
0.0
11
37.500000
21
-8.249998
31
0.0
0
LINE
8
0
62
5
10
33.000000
20
6.250000
30
0.0
11
33.000000
21
-6.250000
31
0.0
0
LINE
8
0
62
5
10
-33.000000
20
-6.250000
30
0.0
11
-33.000000
21
6.250000
31
0.0
0
ARC
8
0
62
2
10
-26.500004
20
8.563046
30
0.0
40
2.000000
50
91.999954
51
180.000046
0
ARC
8
0
62
2
10
-26.500002
20
8.250000
30
0.0
40
2.000000
50
180.000046
51
270.000000
0
ARC
8
0
62
2
10
35.499996
20
10.728133
30
0.0
40
2.000000
50
0.000000
51
92.000061
0
ARC
8
0
62
1
10
35.499992
20
14.730569
30
0.0
40
2.000000
50
272.000061
51
0.000000
0
ARC
8
0
62
1
10
35.499992
20
14.799191
30
0.0
40
2.000000
50
359.999878
51
90.000000
0
ARC
8
0
62
1
10
-39.500000
20
14.799191
30
0.0
40
2.000000
50
90.000000
51
179.999985
0
ARC
8
0
62
1
10
-39.500000
20
-8.249998
30
0.0
40
2.000000
50
179.999985
51
270.000000
0
ARC
8
0
62
1
10
-31.500002
20
8.388442
30
0.0
40
2.000000
50
91.999954
51
179.999985
0
LINE
8
0
62
1
10
-28.500004
20
10.494423
30
0.0
11
-31.569799
21
10.387223
31
0.0
0
LINE
8
0
62
1
10
-28.500004
20
10.494423
30
0.0
11
-26.569801
21
10.561827
31
0.0
0
ARC
8
0
62
2
10
35.500000
20
-8.249998
30
0.0
40
2.000000
50
270.000000
51
0.000000
0
ARC
8
0
62
2
10
12.500000
20
-8.250000
30
0.0
40
2.000000
50
179.999985
51
270.000000
0
ARC
8
0
62
2
10
12.500000
20
-8.250000
30
0.0
40
2.000000
50
90.000000
51
179.999985
0
ARC
8
0
62
1
10
-12.500000
20
-8.250000
30
0.0
40
2.000000
50
0.000000
51
90.000000
0
ARC
8
0
62
1
10
-12.500000
20
-8.250000
30
0.0
40
2.000000
50
270.000000
51
0.000000
0
LINE
8
0
62
3
10
35.418972
20
12.726522
30
0.0
11
-26.569801
21
10.561827
31
0.0
0
LINE
8
0
62
1
10
35.418972
20
12.726522
30
0.0
11
35.569794
21
12.731790
31
0.0
0
LINE
8
0
62
2
10
33.321815
20
-50.451908
30
0.0
11
33.321815
21
-41.450138
31
0.0
0
ARC
8
0
62
2
10
31.572701
20
-53.201023
30
0.0
40
1.000000
50
58.600266
51
90.000000
0
ARC
8
0
62
2
10
34.321815
20
-50.451908
30
0.0
40
1.000000
50
179.999985
51
211.399673
0
ARC
8
0
62
2
10
32.614708
20
-51.493916
30
0.0
40
1.000000
50
238.600281
51
314.999969
0
ARC
8
0
62
2
10
32.614708
20
-51.493916
30
0.0
40
1.000000
50
314.999969
51
31.399672
0
ARC
8
0
62
1
10
-32.115494
20
-47.892029
30
0.0
40
1.000000
50
90.000000
51
121.399353
0
ARC
8
0
62
1
10
-34.864594
20
-45.142914
30
0.0
40
1.000000
50
328.600342
51
0.000000
0
ARC
8
0
62
1
10
-33.157486
20
-46.184921
30
0.0
40
1.000000
50
148.600327
51
224.999878
0
ARC
8
0
62
1
10
-33.157486
20
-46.184921
30
0.0
40
1.000000
50
224.999878
51
301.399414
0
ARC
8
0
62
2
10
29.823586
20
-37.701023
30
0.0
40
2.000000
50
270.000000
51
270.000000
0
ARC
8
0
62
2
10
34.321815
20
-41.450138
30
0.0
40
1.000000
50
148.600311
51
179.999985
0
ARC
8
0
62
2
10
31.572746
20
-38.701023
30
0.0
40
1.000000
50
270.000000
51
301.398590
0
ARC
8
0
62
2
10
32.614708
20
-40.408131
30
0.0
40
1.000000
50
44.999458
51
121.398598
0
LINE
8
0
62
1
10
-41.864594
20
-25.842838
30
0.0
11
-41.864594
21
-48.892029
31
0.0
0
ARC
8
0
62
2
10
32.614708
20
-40.408131
30
0.0
40
1.000000
50
44.999382
51
44.999458
0
ARC
8
0
62
2
10
32.614708
20
-40.408131
30
0.0
40
1.000000
50
328.600311
51
44.999344
0
ARC
8
0
62
2
10
32.614708
20
-40.408131
30
0.0
40
1.000000
50
44.999344
51
44.999382
0
LINE
8
0
62
1
10
-33.864594
20
-34.392036
30
0.0
11
-33.864594
21
-45.142914
31
0.0
0
LINE
8
0
62
1
10
-12.864592
20
-46.892029
30
0.0
11
-32.115494
21
-46.892029
31
0.0
0
LINE
8
0
62
1
10
-12.864592
20
-50.892029
30
0.0
11
-39.864594
21
-50.892029
31
0.0
0
LINE
8
0
62
1
10
-10.864592
20
-48.892029
30
0.0
11
-10.864592
21
-48.892029
31
0.0
0
LINE
8
0
62
2
10
31.572701
20
-52.201023
30
0.0
11
12.321815
21
-52.201023
31
0.0
0
LINE
8
0
62
2
10
10.321815
20
-54.201023
30
0.0
11
10.321815
21
-54.201023
31
0.0
0
LINE
8
0
62
1
10
-33.864594
20
-32.253586
30
0.0
11
-33.864594
21
-34.392036
31
0.0
0
LINE
8
0
62
1
10
35.135399
20
-23.842838
30
0.0
11
-39.864594
21
-23.842838
31
0.0
0
LINE
8
0
62
2
10
-26.678185
20
-39.701023
30
0.0
11
31.572746
21
-39.701023
31
0.0
0
LINE
8
0
62
2
10
-28.678185
20
-37.387981
30
0.0
11
-28.678185
21
-37.701023
31
0.0
0
LINE
8
0
62
2
10
35.321815
20
-56.201019
30
0.0
11
12.321815
21
-56.201019
31
0.0
0
LINE
8
0
62
1
10
37.135399
20
-25.911461
30
0.0
11
37.135399
21
-25.842842
31
0.0
0
LINE
8
0
62
2
10
37.321808
20
-35.222889
30
0.0
11
37.321815
21
-54.201023
31
0.0
0
ARC
8
0
62
2
10
-26.678186
20
-37.387978
30
0.0
40
2.000000
50
91.999954
51
180.000046
0
ARC
8
0
62
2
10
-26.678185
20
-37.701023
30
0.0
40
2.000000
50
180.000046
51
270.000000
0
ARC
8
0
62
2
10
35.321815
20
-35.222889
30
0.0
40
2.000000
50
0.000000
51
92.000061
0
ARC
8
0
62
1
10
35.135399
20
-25.911461
30
0.0
40
2.000000
50
272.000061
51
0.000000
0
ARC
8
0
62
1
10
35.135399
20
-25.842838
30
0.0
40
2.000000
50
359.999878
51
90.000000
0
ARC
8
0
62
1
10
-39.864594
20
-25.842838
30
0.0
40
2.000000
50
90.000000
51
179.999985
0
ARC
8
0
62
1
10
-39.864594
20
-48.892029
30
0.0
40
2.000000
50
179.999985
51
270.000000
0
ARC
8
0
62
2
10
35.321815
20
-54.201023
30
0.0
40
2.000000
50
270.000000
51
0.000000
0
ARC
8
0
62
2
10
12.321815
20
-54.201023
30
0.0
40
2.000000
50
179.999985
51
270.000000
0
ARC
8
0
62
2
10
12.321815
20
-54.201023
30
0.0
40
2.000000
50
90.000000
51
179.999985
0
ARC
8
0
62
1
10
-12.864592
20
-48.892029
30
0.0
40
2.000000
50
0.000000
51
90.000000
0
ARC
8
0
62
1
10
-12.864592
20
-48.892029
30
0.0
40
2.000000
50
270.000000
51
0.000000
0
ARC
8
0
62
1
10
-31.864594
20
-32.253586
30
0.0
40
2.000000
50
91.999954
51
179.999985
0
LINE
8
0
62
1
10
35.054382
20
-27.915506
30
0.0
11
35.205200
21
-27.910240
31
0.0
0
LINE
8
0
62
1
10
-31.934391
20
-30.254805
30
0.0
11
35.054382
21
-27.915506
31
0.0
0
LINE
8
0
62
2
10
-26.747984
20
-35.389194
30
0.0
11
35.252014
21
-33.224106
31
0.0
0
ENDSEC
0
EOF
