999
File generated by Conversation
0
SECTION
2
HEADER
0
SECTION
2
HEADER
9
$ACADVER
1
AC1021
9
$INSBASE
10
0.0
20
0.0
30
0.0
9
$EXTMIN
10
0.0
20
0.0
30
0.0
9
$EXTMAX
10
1000.0
20
1000.0
30
0.0
0
ENDSEC
0
SECTION
2
TABLES
0
TABLE
2
LTYPE
70
1
0
LTYPE
2
CONTINUOUS
70
64
3
Solid line
72
65
73
0
40
0.0
0
ENDTAB
0
TABLE
2
LAYER
70
1
0
LAYER
2
0
70
64
62
7
6
CONTINUOUS
0
ENDTAB
0
TABLE
2
STYLE
70
1
0
STYLE
2
STANDARD
70
0
40
0.0
41
1.0
50
0.0
71
0
42
0.2
3
txt
4

0
ENDTAB
0
ENDSEC
0
SECTION
2
ENTITIES
0
LINE
8
0
62
0
10
-0.787402
20
0.393701
30
0.0
11
-0.787402
21
-0.393701
31
0.0
0
LINE
8
0
62
0
10
-0.787402
20
0.393701
30
0.0
11
0.787402
21
0.393701
31
0.0
0
LINE
8
0
62
0
10
0.787402
20
-0.393701
30
0.0
11
-0.787402
21
-0.393701
31
0.0
0
LINE
8
0
62
0
10
0.787402
20
-0.393701
30
0.0
11
0.787402
21
0.393701
31
0.0
0
LINE
8
0
62
0
10
-0.000000
20
1.327059
30
0.0
11
-1.149267
21
0.663530
31
0.0
0
LINE
8
0
62
0
10
-1.149267
20
0.663530
30
0.0
11
-1.149267
21
-0.663530
31
0.0
0
LINE
8
0
62
0
10
-1.149267
20
-0.663530
30
0.0
11
0.000000
21
-1.327059
31
0.0
0
LINE
8
0
62
0
10
0.000000
20
-1.327059
30
0.0
11
1.149267
21
-0.663529
31
0.0
0
LINE
8
0
62
0
10
1.149267
20
-0.663529
30
0.0
11
1.149267
21
0.663530
31
0.0
0
LINE
8
0
62
0
10
1.149267
20
0.663530
30
0.0
11
-0.000000
21
1.327059
31
0.0
0
LINE
8
0
62
4
10
0.787401
20
0.049387
30
0.0
11
0.787401
21
-0.049387
31
0.0
0
LINE
8
0
62
4
10
0.443087
20
-0.393701
30
0.0
11
-0.443088
21
-0.393701
31
0.0
0
LINE
8
0
62
4
10
-0.787402
20
-0.049387
30
0.0
11
-0.787402
21
0.049387
31
0.0
0
LINE
8
0
62
4
10
-0.443087
20
0.393701
30
0.0
11
0.443087
21
0.393701
31
0.0
0
ARC
8
0
62
4
10
0.443087
20
0.590551
30
0.0
40
0.196850
50
-90.000000
51
-58.600296
0
ARC
8
0
62
4
10
0.984252
20
0.049387
30
0.0
40
0.196850
50
148.600281
51
179.999985
0
ARC
8
0
62
4
10
0.648207
20
0.254507
30
0.0
40
0.196850
50
-31.399706
51
44.999992
0
ARC
8
0
62
4
10
0.648207
20
0.254507
30
0.0
40
0.196850
50
44.999992
51
121.399696
0
ARC
8
0
62
4
10
-0.443088
20
-0.590551
30
0.0
40
0.196850
50
90.000000
51
121.399696
0
ARC
8
0
62
4
10
-0.984252
20
-0.049387
30
0.0
40
0.196850
50
-31.399706
51
0.000000
0
ARC
8
0
62
4
10
-0.648208
20
-0.254507
30
0.0
40
0.196850
50
148.600281
51
-135.000015
0
ARC
8
0
62
4
10
-0.648208
20
-0.254507
30
0.0
40
0.196850
50
-135.000015
51
-58.600300
0
ARC
8
0
62
4
10
0.443087
20
-0.590551
30
0.0
40
0.196850
50
58.600281
51
90.000000
0
ARC
8
0
62
4
10
0.984252
20
-0.049387
30
0.0
40
0.196850
50
179.999985
51
-148.600281
0
ARC
8
0
62
4
10
0.648207
20
-0.254507
30
0.0
40
0.196850
50
-121.399704
51
-44.999992
0
ARC
8
0
62
4
10
0.648207
20
-0.254507
30
0.0
40
0.196850
50
-44.999992
51
31.399710
0
ARC
8
0
62
4
10
-0.443087
20
0.590551
30
0.0
40
0.196850
50
-121.399704
51
-90.000000
0
ARC
8
0
62
4
10
-0.984252
20
0.049387
30
0.0
40
0.196850
50
0.000000
51
31.399710
0
ARC
8
0
62
4
10
-0.648208
20
0.254507
30
0.0
40
0.196850
50
58.600288
51
-225.000000
0
ARC
8
0
62
4
10
-0.648208
20
0.254507
30
0.0
40
0.196850
50
-225.000000
51
-148.600281
0
LINE
8
0
62
4
10
-0.415859
20
1.086963
30
0.0
11
-0.733409
21
0.903625
31
0.0
0
LINE
8
0
62
4
10
-1.149267
20
0.183338
30
0.0
11
-1.149267
21
-0.183338
31
0.0
0
LINE
8
0
62
4
10
-0.733409
20
-0.903626
30
0.0
11
-0.415859
21
-1.086963
31
0.0
0
LINE
8
0
62
4
10
0.415858
20
-1.086963
30
0.0
11
0.733408
21
-0.903625
31
0.0
0
LINE
8
0
62
4
10
1.149267
20
-0.183338
30
0.0
11
1.149267
21
0.183338
31
0.0
0
LINE
8
0
62
4
10
0.733408
20
0.903625
30
0.0
11
0.415858
21
1.086963
31
0.0
0
ARC
8
0
62
4
10
-0.612709
20
1.427918
30
0.0
40
0.393701
50
-60.000000
51
-38.909435
0
ARC
8
0
62
4
10
0.612708
20
1.427918
30
0.0
40
0.393701
50
-141.090561
51
-119.999985
0
ARC
8
0
62
4
10
-0.000001
20
0.933358
30
0.0
40
0.393701
50
38.909424
51
89.999992
0
ARC
8
0
62
4
10
-0.000001
20
0.933358
30
0.0
40
0.393701
50
89.999992
51
141.090561
0
ARC
8
0
62
4
10
0.930259
20
1.244580
30
0.0
40
0.393701
50
-119.999969
51
-98.909401
0
ARC
8
0
62
4
10
1.542967
20
0.183338
30
0.0
40
0.393701
50
158.909439
51
-179.999985
0
ARC
8
0
62
4
10
0.808312
20
0.466679
30
0.0
40
0.393701
50
-21.090549
51
30.000023
0
ARC
8
0
62
4
10
0.808312
20
0.466679
30
0.0
40
0.393701
50
30.000023
51
81.090591
0
ARC
8
0
62
4
10
1.542967
20
-0.183338
30
0.0
40
0.393701
50
-179.999985
51
-158.909409
0
ARC
8
0
62
4
10
0.930259
20
-1.244580
30
0.0
40
0.393701
50
98.909409
51
120.000008
0
ARC
8
0
62
4
10
0.808312
20
-0.466679
30
0.0
40
0.393701
50
-81.090591
51
-30.000002
0
ARC
8
0
62
4
10
0.808312
20
-0.466679
30
0.0
40
0.393701
50
-30.000002
51
21.090586
0
ARC
8
0
62
4
10
0.612708
20
-1.427918
30
0.0
40
0.393701
50
120.000008
51
141.090591
0
ARC
8
0
62
4
10
-0.612709
20
-1.427918
30
0.0
40
0.393701
50
38.909416
51
60.000004
0
ARC
8
0
62
4
10
-0.000000
20
-0.933358
30
0.0
40
0.393701
50
-141.090561
51
-89.999969
0
ARC
8
0
62
4
10
-0.000000
20
-0.933358
30
0.0
40
0.393701
50
-89.999969
51
-38.909389
0
ARC
8
0
62
4
10
-1.542968
20
-0.183338
30
0.0
40
0.393701
50
-21.090580
51
0.000003
0
ARC
8
0
62
4
10
-0.930259
20
-1.244581
30
0.0
40
0.393701
50
60.000000
51
81.090584
0
ARC
8
0
62
4
10
-0.808312
20
-0.466680
30
0.0
40
0.393701
50
158.909409
51
-150.000000
0
ARC
8
0
62
4
10
-0.808312
20
-0.466680
30
0.0
40
0.393701
50
-150.000000
51
-98.909409
0
ARC
8
0
62
4
10
-0.930259
20
1.244580
30
0.0
40
0.393701
50
-81.090584
51
-60.000000
0
ARC
8
0
62
4
10
-1.542968
20
0.183338
30
0.0
40
0.393701
50
0.000011
51
21.090586
0
ARC
8
0
62
4
10
-0.808312
20
0.466679
30
0.0
40
0.393701
50
98.909409
51
-210.000000
0
ARC
8
0
62
4
10
-0.808312
20
0.466679
30
0.0
40
0.393701
50
-210.000000
51
-158.909409
0
ENDSEC
0
EOF
