  0
SECTION
  2
HEADER
  9
$ACADVER
  1
AC1003
  9
$EXTMIN
 10
0
 20
1.17735283849978
  9
$EXTMAX
 10
4.724409448
 20
0
  9
$INSUNITS
 70
1
  9
$INSBASE
 10
2.362204724
 20
0.588676419249888
999
Created with OMAX LAYOUT for Windows. (www.omax.com) 5/30/2024
  0
ENDSEC
  0
SECTION
  2
TABLES
  0
TABLE
  2
LAYER
 70
    10
  0
LAYER
  2
0
 70
     0
 62
     7
  6
CONTINUOUS
  0
LAYER
  2
1
 70
     0
 62
     7
  6
CONTINUOUS
  0
LAYER
  2
2
 70
     0
 62
     7
  6
CONTINUOUS
  0
LAYER
  2
3
 70
     0
 62
     7
  6
CONTINUOUS
  0
LAYER
  2
4
 70
     0
 62
     7
  6
CONTINUOUS
  0
LAYER
  2
5
 70
     0
 62
     7
  6
CONTINUOUS
  0
LAYER
  2
6
 70
     0
 62
     7
  6
CONTINUOUS
  0
LAYER
  2
7
 70
     0
 62
     7
  6
CONTINUOUS
  0
LAYER
  2
8
 70
     0
 62
     7
  6
CONTINUOUS
  0
LAYER
  2
9
 70
     0
 62
     7
  6
CONTINUOUS
  0
LAYER
  2
10
 70
     0
 62
     7
  6
CONTINUOUS
  0
LAYER
  2
11
 70
     0
 62
     7
  6
CONTINUOUS
  0
LAYER
  2
12
 70
     0
 62
     7
  6
CONTINUOUS
  0
LAYER
  2
13
 70
     0
 62
     7
  6
CONTINUOUS
  0
LAYER
  2
14
 70
     0
 62
     7
  6
CONTINUOUS
  0
LAYER
  2
15
 70
     0
 62
     7
  6
CONTINUOUS
  0
LAYER
  2
16
 70
     0
 62
     7
  6
CONTINUOUS
  0
LAYER
  2
17
 70
     0
 62
     7
  6
CONTINUOUS
  0
LAYER
  2
18
 70
     0
 62
     7
  6
CONTINUOUS
  0
LAYER
  2
19
 70
     0
 62
     7
  6
CONTINUOUS
  0
LAYER
  2
20
 70
     0
 62
     7
  6
CONTINUOUS
  0
LAYER
  2
21
 70
     0
 62
     7
  6
CONTINUOUS
  0
LAYER
  2
22
 70
     0
 62
     7
  6
CONTINUOUS
  0
LAYER
  2
23
 70
     0
 62
     7
  6
CONTINUOUS
  0
LAYER
  2
24
 70
     0
 62
     7
  6
CONTINUOUS
  0
LAYER
  2
25
 70
     0
 62
     7
  6
CONTINUOUS
  0
LAYER
  2
26
 70
     0
 62
     7
  6
CONTINUOUS
  0
LAYER
  2
27
 70
     0
 62
     7
  6
CONTINUOUS
  0
LAYER
  2
28
 70
     0
 62
     7
  6
CONTINUOUS
  0
LAYER
  2
29
 70
     0
 62
     7
  6
CONTINUOUS
  0
LAYER
  2
30
 70
     0
 62
     7
  6
CONTINUOUS
  0
LAYER
  2
31
 70
     0
 62
     7
  6
CONTINUOUS
  0
ENDTAB
  0
ENDSEC
  0
SECTION
  2
ENTITIES
  0
LINE
  8
1
  6
CONTINUOUS
 62
1
 10
0.440944882000002
 20
0.0708661414999999
 30
0.0
 11
0.440944882000002
 21
1.05211778151447E-18
 31
0.0
  0
LINE
  8
1
  6
CONTINUOUS
 62
1
 10
0.425196850000002
 20
0.0708661415
 30
0.0
 11
0.425196850000002
 21
1.05211778151447E-18
 31
0.0
  0
ARC
  8
1
  6
CONTINUOUS
 62
1
 10
0.433070866000002
 20
0.0708661414999999
 30
0.0
 40
0.007874016
 50
89.9999999999999
 51
179.999999999999
  0
ARC
  8
1
  6
CONTINUOUS
 62
1
 10
0.433070866000002
 20
0.0708661414999999
 30
0.0
 40
0.00787401600000002
 50
5.08888749034163E-14
 51
89.9999999999999
  0
LINE
  8
1
  6
CONTINUOUS
 62
1
 10
0.425196850000002
 20
1.05211778151447E-18
 30
0.0
 11
0.440944882000002
 21
1.05211778151447E-18
 31
0.0
  0
LINE
  8
1
  6
CONTINUOUS
 62
1
 10
0.480314961000002
 20
0.0708661414999999
 30
0.0
 11
0.480314961000002
 21
1.05211778151447E-18
 31
0.0
  0
LINE
  8
1
  6
CONTINUOUS
 62
1
 10
0.464566929000002
 20
0.0708661415
 30
0.0
 11
0.464566929000002
 21
1.05211778151447E-18
 31
0.0
  0
ARC
  8
1
  6
CONTINUOUS
 62
1
 10
0.472440945000002
 20
0.0708661414999999
 30
0.0
 40
0.00787401600000002
 50
89.9999999999997
 51
179.999999999999
  0
ARC
  8
1
  6
CONTINUOUS
 62
1
 10
0.472440945000002
 20
0.0708661414999999
 30
0.0
 40
0.00787401600000002
 50
5.08888749034163E-14
 51
89.9999999999999
  0
LINE
  8
1
  6
CONTINUOUS
 62
1
 10
0.464566929000002
 20
1.05211778151447E-18
 30
0.0
 11
0.480314961000002
 21
1.05211778151447E-18
 31
0.0
  0
LINE
  8
1
  6
CONTINUOUS
 62
1
 10
0.519685040000002
 20
0.0708661414999999
 30
0.0
 11
0.519685040000002
 21
1.05211778151447E-18
 31
0.0
  0
LINE
  8
1
  6
CONTINUOUS
 62
1
 10
0.503937008000002
 20
0.0708661415
 30
0.0
 11
0.503937008000002
 21
1.05211778151447E-18
 31
0.0
  0
ARC
  8
1
  6
CONTINUOUS
 62
1
 10
0.511811024000002
 20
0.0708661415
 30
0.0
 40
0.00787401599999997
 50
90.0000000000001
 51
180
  0
ARC
  8
1
  6
CONTINUOUS
 62
1
 10
0.511811024000002
 20
0.0708661415000001
 30
0.0
 40
0.00787401599999996
 50
359.999999999999
 51
89.9999999999995
  0
LINE
  8
1
  6
CONTINUOUS
 62
1
 10
0.503937008000002
 20
1.05211778151447E-18
 30
0.0
 11
0.519685040000002
 21
1.05211778151447E-18
 31
0.0
  0
LINE
  8
1
  6
CONTINUOUS
 62
1
 10
0.559055119000002
 20
0.0708661414999999
 30
0.0
 11
0.559055119000002
 21
1.05211778151447E-18
 31
0.0
  0
LINE
  8
1
  6
CONTINUOUS
 62
1
 10
0.543307087000002
 20
0.0708661415
 30
0.0
 11
0.543307087000002
 21
1.05211778151447E-18
 31
0.0
  0
ARC
  8
1
  6
CONTINUOUS
 62
1
 10
0.551181103000002
 20
0.0708661414999999
 30
0.0
 40
0.00787401600000002
 50
89.9999999999997
 51
179.999999999999
  0
ARC
  8
1
  6
CONTINUOUS
 62
1
 10
0.551181103000002
 20
0.0708661415000001
 30
0.0
 40
0.00787401599999996
 50
359.999999999999
 51
89.9999999999995
  0
LINE
  8
1
  6
CONTINUOUS
 62
1
 10
0.543307087000002
 20
1.05211778151447E-18
 30
0.0
 11
0.559055119000002
 21
1.05211778151447E-18
 31
0.0
  0
LINE
  8
1
  6
CONTINUOUS
 62
1
 10
0.598425198000002
 20
0.0708661414999999
 30
0.0
 11
0.598425198000002
 21
1.05211778151447E-18
 31
0.0
  0
LINE
  8
1
  6
CONTINUOUS
 62
1
 10
0.582677166000002
 20
0.0708661415
 30
0.0
 11
0.582677166000002
 21
1.05211778151447E-18
 31
0.0
  0
ARC
  8
1
  6
CONTINUOUS
 62
1
 10
0.590551182000002
 20
0.0708661414999999
 30
0.0
 40
0.00787401600000008
 50
89.9999999999993
 51
179.999999999999
  0
ARC
  8
1
  6
CONTINUOUS
 62
1
 10
0.590551182000002
 20
0.0708661414999999
 30
0.0
 40
0.00787401600000002
 50
5.08888749034163E-14
 51
89.9999999999999
  0
LINE
  8
1
  6
CONTINUOUS
 62
1
 10
0.582677166000002
 20
1.05211778151447E-18
 30
0.0
 11
0.598425198000002
 21
1.05211778151447E-18
 31
0.0
  0
LINE
  8
1
  6
CONTINUOUS
 62
1
 10
0.637795277000002
 20
0.0708661414999999
 30
0.0
 11
0.637795277000002
 21
1.05211778151447E-18
 31
0.0
  0
LINE
  8
1
  6
CONTINUOUS
 62
1
 10
0.622047245000002
 20
0.0708661415
 30
0.0
 11
0.622047245000002
 21
1.05211778151447E-18
 31
0.0
  0
ARC
  8
1
  6
CONTINUOUS
 62
1
 10
0.629921261000002
 20
0.0708661414999999
 30
0.0
 40
0.00787401600000008
 50
89.9999999999993
 51
179.999999999999
  0
ARC
  8
1
  6
CONTINUOUS
 62
1
 10
0.629921261000002
 20
0.0708661414999999
 30
0.0
 40
0.00787401600000002
 50
5.08888749034163E-14
 51
89.9999999999999
  0
LINE
  8
1
  6
CONTINUOUS
 62
1
 10
0.622047245000002
 20
1.05211778151447E-18
 30
0.0
 11
0.637795277000002
 21
1.05211778151447E-18
 31
0.0
  0
LINE
  8
1
  6
CONTINUOUS
 62
1
 10
0.677165356000002
 20
0.0708661414999999
 30
0.0
 11
0.677165356000002
 21
1.05211778151447E-18
 31
0.0
  0
LINE
  8
1
  6
CONTINUOUS
 62
1
 10
0.661417324000002
 20
0.0708661415
 30
0.0
 11
0.661417324000002
 21
1.05211778151447E-18
 31
0.0
  0
ARC
  8
1
  6
CONTINUOUS
 62
1
 10
0.669291340000002
 20
0.0708661415
 30
0.0
 40
0.00787401599999997
 50
90.0000000000001
 51
180
  0
ARC
  8
1
  6
CONTINUOUS
 62
1
 10
0.669291340000002
 20
0.0708661414999999
 30
0.0
 40
0.00787401600000007
 50
4.57999874130746E-13
 51
90.0000000000004
  0
LINE
  8
1
  6
CONTINUOUS
 62
1
 10
0.661417324000002
 20
1.05211778151447E-18
 30
0.0
 11
0.677165356000002
 21
1.05211778151447E-18
 31
0.0
  0
LINE
  8
1
  6
CONTINUOUS
 62
1
 10
0.716535435000002
 20
0.0708661414999999
 30
0.0
 11
0.716535435000002
 21
1.05211778151447E-18
 31
0.0
  0
LINE
  8
1
  6
CONTINUOUS
 62
1
 10
0.700787403000002
 20
0.0708661415
 30
0.0
 11
0.700787403000002
 21
1.05211778151447E-18
 31
0.0
  0
ARC
  8
1
  6
CONTINUOUS
 62
1
 10
0.708661419000002
 20
0.0708661415
 30
0.0
 40
0.00787401599999997
 50
90.0000000000001
 51
180
  0
ARC
  8
1
  6
CONTINUOUS
 62
1
 10
0.708661419000002
 20
0.0708661415000001
 30
0.0
 40
0.00787401599999996
 50
359.999999999999
 51
89.9999999999995
  0
LINE
  8
1
  6
CONTINUOUS
 62
1
 10
0.700787403000002
 20
1.05211778151447E-18
 30
0.0
 11
0.716535435000002
 21
1.05211778151447E-18
 31
0.0
  0
LINE
  8
1
  6
CONTINUOUS
 62
1
 10
0.755905514000002
 20
0.0708661414999999
 30
0.0
 11
0.755905514000002
 21
1.05211778151447E-18
 31
0.0
  0
LINE
  8
1
  6
CONTINUOUS
 62
1
 10
0.740157482000002
 20
0.0708661415
 30
0.0
 11
0.740157482000002
 21
1.05211778151447E-18
 31
0.0
  0
ARC
  8
1
  6
CONTINUOUS
 62
1
 10
0.748031498000002
 20
0.0708661415
 30
0.0
 40
0.00787401599999997
 50
90.0000000000001
 51
180
  0
ARC
  8
1
  6
CONTINUOUS
 62
1
 10
0.748031498000002
 20
0.0708661415000001
 30
0.0
 40
0.00787401599999996
 50
359.999999999999
 51
89.9999999999995
  0
LINE
  8
1
  6
CONTINUOUS
 62
1
 10
0.740157482000002
 20
1.05211778151447E-18
 30
0.0
 11
0.755905514000002
 21
1.05211778151447E-18
 31
0.0
  0
LINE
  8
1
  6
CONTINUOUS
 62
1
 10
0.834645669000002
 20
0.0708661414999999
 30
0.0
 11
0.834645669000002
 21
1.05211778151447E-18
 31
0.0
  0
LINE
  8
1
  6
CONTINUOUS
 62
1
 10
0.818897637000002
 20
0.0708661415
 30
0.0
 11
0.818897637000002
 21
1.05211778151447E-18
 31
0.0
  0
ARC
  8
1
  6
CONTINUOUS
 62
1
 10
0.826771653000002
 20
0.0708661414999999
 30
0.0
 40
0.00787401600000008
 50
89.9999999999993
 51
179.999999999999
  0
ARC
  8
1
  6
CONTINUOUS
 62
1
 10
0.826771653000002
 20
0.0708661414999999
 30
0.0
 40
0.00787401600000007
 50
4.57999874130746E-13
 51
90.0000000000004
  0
LINE
  8
1
  6
CONTINUOUS
 62
1
 10
0.818897637000002
 20
1.05211778151447E-18
 30
0.0
 11
0.834645669000002
 21
1.05211778151447E-18
 31
0.0
  0
LINE
  8
1
  6
CONTINUOUS
 62
1
 10
0.874015748000002
 20
0.0708661414999999
 30
0.0
 11
0.874015748000002
 21
1.05211778151447E-18
 31
0.0
  0
LINE
  8
1
  6
CONTINUOUS
 62
1
 10
0.858267716000002
 20
0.0708661415
 30
0.0
 11
0.858267716000002
 21
1.05211778151447E-18
 31
0.0
  0
ARC
  8
1
  6
CONTINUOUS
 62
1
 10
0.866141732000002
 20
0.0708661414999999
 30
0.0
 40
0.00787401600000008
 50
89.9999999999993
 51
179.999999999999
  0
ARC
  8
1
  6
CONTINUOUS
 62
1
 10
0.866141732000002
 20
0.0708661414999999
 30
0.0
 40
0.00787401600000007
 50
4.57999874130746E-13
 51
90.0000000000004
  0
LINE
  8
1
  6
CONTINUOUS
 62
1
 10
0.858267716000002
 20
1.05211778151447E-18
 30
0.0
 11
0.874015748000002
 21
1.05211778151447E-18
 31
0.0
  0
LINE
  8
1
  6
CONTINUOUS
 62
1
 10
0.913385827000002
 20
0.0708661414999999
 30
0.0
 11
0.913385827000002
 21
1.05211778151447E-18
 31
0.0
  0
LINE
  8
1
  6
CONTINUOUS
 62
1
 10
0.897637795000002
 20
0.0708661415
 30
0.0
 11
0.897637795000002
 21
1.05211778151447E-18
 31
0.0
  0
ARC
  8
1
  6
CONTINUOUS
 62
1
 10
0.905511811000002
 20
0.0708661415
 30
0.0
 40
0.00787401599999997
 50
90.0000000000001
 51
180
  0
ARC
  8
1
  6
CONTINUOUS
 62
1
 10
0.905511811000002
 20
0.0708661414999999
 30
0.0
 40
0.00787401600000007
 50
4.57999874130746E-13
 51
90.0000000000004
  0
LINE
  8
1
  6
CONTINUOUS
 62
1
 10
0.897637795000002
 20
1.05211778151447E-18
 30
0.0
 11
0.913385827000002
 21
1.05211778151447E-18
 31
0.0
  0
LINE
  8
1
  6
CONTINUOUS
 62
1
 10
0.952755906000002
 20
0.0708661414999999
 30
0.0
 11
0.952755906000002
 21
1.05211778151447E-18
 31
0.0
  0
LINE
  8
1
  6
CONTINUOUS
 62
1
 10
0.937007874000002
 20
0.0708661415
 30
0.0
 11
0.937007874000002
 21
1.05211778151447E-18
 31
0.0
  0
ARC
  8
1
  6
CONTINUOUS
 62
1
 10
0.944881890000002
 20
0.0708661415
 30
0.0
 40
0.00787401599999997
 50
90.0000000000001
 51
180
  0
ARC
  8
1
  6
CONTINUOUS
 62
1
 10
0.944881890000002
 20
0.0708661415000001
 30
0.0
 40
0.00787401599999996
 50
359.999999999999
 51
89.9999999999995
  0
LINE
  8
1
  6
CONTINUOUS
 62
1
 10
0.937007874000002
 20
1.05211778151447E-18
 30
0.0
 11
0.952755906000002
 21
1.05211778151447E-18
 31
0.0
  0
LINE
  8
1
  6
CONTINUOUS
 62
1
 10
0.992125985000002
 20
0.0708661414999999
 30
0.0
 11
0.992125985000002
 21
1.05211778151447E-18
 31
0.0
  0
LINE
  8
1
  6
CONTINUOUS
 62
1
 10
0.976377953000002
 20
0.0708661415
 30
0.0
 11
0.976377953000002
 21
1.05211778151447E-18
 31
0.0
  0
ARC
  8
1
  6
CONTINUOUS
 62
1
 10
0.984251969000002
 20
0.0708661415
 30
0.0
 40
0.00787401599999997
 50
90.0000000000001
 51
180
  0
ARC
  8
1
  6
CONTINUOUS
 62
1
 10
0.984251969000002
 20
0.0708661415000001
 30
0.0
 40
0.00787401599999996
 50
359.999999999999
 51
89.9999999999995
  0
LINE
  8
1
  6
CONTINUOUS
 62
1
 10
0.976377953000002
 20
1.05211778151447E-18
 30
0.0
 11
0.992125985000002
 21
1.05211778151447E-18
 31
0.0
  0
LINE
  8
1
  6
CONTINUOUS
 62
1
 10
1.031496064
 20
0.0708661414999999
 30
0.0
 11
1.031496064
 21
1.05211778151447E-18
 31
0.0
  0
LINE
  8
1
  6
CONTINUOUS
 62
1
 10
1.015748032
 20
0.0708661415
 30
0.0
 11
1.015748032
 21
1.05211778151447E-18
 31
0.0
  0
ARC
  8
1
  6
CONTINUOUS
 62
1
 10
1.023622048
 20
0.0708661415
 30
0.0
 40
0.00787401599999997
 50
90.0000000000001
 51
180
  0
ARC
  8
1
  6
CONTINUOUS
 62
1
 10
1.023622048
 20
0.0708661415000001
 30
0.0
 40
0.00787401599999996
 50
359.999999999999
 51
89.9999999999995
  0
LINE
  8
1
  6
CONTINUOUS
 62
1
 10
1.015748032
 20
1.05211778151447E-18
 30
0.0
 11
1.031496064
 21
1.05211778151447E-18
 31
0.0
  0
LINE
  8
1
  6
CONTINUOUS
 62
1
 10
1.070866143
 20
0.0708661414999999
 30
0.0
 11
1.070866143
 21
1.05211778151447E-18
 31
0.0
  0
LINE
  8
1
  6
CONTINUOUS
 62
1
 10
1.055118111
 20
0.0708661415
 30
0.0
 11
1.055118111
 21
1.05211778151447E-18
 31
0.0
  0
ARC
  8
1
  6
CONTINUOUS
 62
1
 10
1.062992127
 20
0.0708661415
 30
0.0
 40
0.00787401599999997
 50
90.0000000000001
 51
180
  0
ARC
  8
1
  6
CONTINUOUS
 62
1
 10
1.062992127
 20
0.0708661415000001
 30
0.0
 40
0.00787401599999996
 50
359.999999999999
 51
89.9999999999995
  0
LINE
  8
1
  6
CONTINUOUS
 62
1
 10
1.055118111
 20
1.05211778151447E-18
 30
0.0
 11
1.070866143
 21
1.05211778151447E-18
 31
0.0
  0
LINE
  8
1
  6
CONTINUOUS
 62
1
 10
1.110236222
 20
0.0708661414999999
 30
0.0
 11
1.110236222
 21
1.05211778151447E-18
 31
0.0
  0
LINE
  8
1
  6
CONTINUOUS
 62
1
 10
1.09448819
 20
0.0708661415
 30
0.0
 11
1.09448819
 21
1.05211778151447E-18
 31
0.0
  0
ARC
  8
1
  6
CONTINUOUS
 62
1
 10
1.102362206
 20
0.0708661414999999
 30
0.0
 40
0.00787401600000008
 50
89.9999999999993
 51
179.999999999999
  0
ARC
  8
1
  6
CONTINUOUS
 62
1
 10
1.102362206
 20
0.0708661415000001
 30
0.0
 40
0.00787401599999996
 50
359.999999999999
 51
89.9999999999995
  0
LINE
  8
1
  6
CONTINUOUS
 62
1
 10
1.09448819
 20
1.05211778151447E-18
 30
0.0
 11
1.110236222
 21
1.05211778151447E-18
 31
0.0
  0
LINE
  8
1
  6
CONTINUOUS
 62
1
 10
1.149606301
 20
0.0708661414999999
 30
0.0
 11
1.149606301
 21
1.05211778151447E-18
 31
0.0
  0
LINE
  8
1
  6
CONTINUOUS
 62
1
 10
1.133858269
 20
0.0708661415
 30
0.0
 11
1.133858269
 21
1.05211778151447E-18
 31
0.0
  0
ARC
  8
1
  6
CONTINUOUS
 62
1
 10
1.141732285
 20
0.0708661414999999
 30
0.0
 40
0.00787401600000008
 50
89.9999999999993
 51
179.999999999999
  0
ARC
  8
1
  6
CONTINUOUS
 62
1
 10
1.141732285
 20
0.0708661415000001
 30
0.0
 40
0.00787401599999996
 50
359.999999999999
 51
89.9999999999995
  0
LINE
  8
1
  6
CONTINUOUS
 62
1
 10
1.133858269
 20
1.05211778151447E-18
 30
0.0
 11
1.149606301
 21
1.05211778151447E-18
 31
0.0
  0
LINE
  8
1
  6
CONTINUOUS
 62
1
 10
1.228346456
 20
0.0708661414999999
 30
0.0
 11
1.228346456
 21
1.05211778151447E-18
 31
0.0
  0
LINE
  8
1
  6
CONTINUOUS
 62
1
 10
1.212598424
 20
0.0708661415
 30
0.0
 11
1.212598424
 21
1.05211778151447E-18
 31
0.0
  0
ARC
  8
1
  6
CONTINUOUS
 62
1
 10
1.22047244
 20
0.0708661415
 30
0.0
 40
0.00787401599999997
 50
90.0000000000001
 51
180
  0
ARC
  8
1
  6
CONTINUOUS
 62
1
 10
1.22047244
 20
0.0708661415000001
 30
0.0
 40
0.00787401599999996
 50
359.999999999999
 51
89.9999999999995
  0
LINE
  8
1
  6
CONTINUOUS
 62
1
 10
1.212598424
 20
1.05211778151447E-18
 30
0.0
 11
1.228346456
 21
1.05211778151447E-18
 31
0.0
  0
LINE
  8
1
  6
CONTINUOUS
 62
1
 10
1.267716535
 20
0.0708661414999999
 30
0.0
 11
1.267716535
 21
1.05211778151447E-18
 31
0.0
  0
LINE
  8
1
  6
CONTINUOUS
 62
1
 10
1.251968503
 20
0.0708661415
 30
0.0
 11
1.251968503
 21
1.05211778151447E-18
 31
0.0
  0
ARC
  8
1
  6
CONTINUOUS
 62
1
 10
1.259842519
 20
0.0708661415
 30
0.0
 40
0.00787401599999997
 50
90.0000000000001
 51
180
  0
ARC
  8
1
  6
CONTINUOUS
 62
1
 10
1.259842519
 20
0.0708661415000001
 30
0.0
 40
0.00787401599999996
 50
359.999999999999
 51
89.9999999999995
  0
LINE
  8
1
  6
CONTINUOUS
 62
1
 10
1.251968503
 20
1.05211778151447E-18
 30
0.0
 11
1.267716535
 21
1.05211778151447E-18
 31
0.0
  0
LINE
  8
1
  6
CONTINUOUS
 62
1
 10
1.307086614
 20
0.0708661414999999
 30
0.0
 11
1.307086614
 21
1.05211778151447E-18
 31
0.0
  0
LINE
  8
1
  6
CONTINUOUS
 62
1
 10
1.291338582
 20
0.0708661415
 30
0.0
 11
1.291338582
 21
1.05211778151447E-18
 31
0.0
  0
ARC
  8
1
  6
CONTINUOUS
 62
1
 10
1.299212598
 20
0.0708661414999999
 30
0.0
 40
0.00787401600000008
 50
89.9999999999993
 51
179.999999999999
  0
ARC
  8
1
  6
CONTINUOUS
 62
1
 10
1.299212598
 20
0.0708661414999999
 30
0.0
 40
0.00787401600000007
 50
4.57999874130746E-13
 51
90.0000000000004
  0
LINE
  8
1
  6
CONTINUOUS
 62
1
 10
1.291338582
 20
1.05211778151447E-18
 30
0.0
 11
1.307086614
 21
1.05211778151447E-18
 31
0.0
  0
LINE
  8
1
  6
CONTINUOUS
 62
1
 10
1.346456693
 20
0.0708661414999999
 30
0.0
 11
1.346456693
 21
1.05211778151447E-18
 31
0.0
  0
LINE
  8
1
  6
CONTINUOUS
 62
1
 10
1.330708661
 20
0.0708661415
 30
0.0
 11
1.330708661
 21
1.05211778151447E-18
 31
0.0
  0
ARC
  8
1
  6
CONTINUOUS
 62
1
 10
1.338582677
 20
0.0708661415
 30
0.0
 40
0.00787401599999997
 50
90.0000000000001
 51
180
  0
ARC
  8
1
  6
CONTINUOUS
 62
1
 10
1.338582677
 20
0.0708661415000001
 30
0.0
 40
0.00787401599999996
 50
359.999999999999
 51
89.9999999999995
  0
LINE
  8
1
  6
CONTINUOUS
 62
1
 10
1.330708661
 20
1.05211778151447E-18
 30
0.0
 11
1.346456693
 21
1.05211778151447E-18
 31
0.0
  0
LINE
  8
1
  6
CONTINUOUS
 62
1
 10
1.385826772
 20
0.0708661414999999
 30
0.0
 11
1.385826772
 21
1.05211778151447E-18
 31
0.0
  0
LINE
  8
1
  6
CONTINUOUS
 62
1
 10
1.37007874
 20
0.0708661415
 30
0.0
 11
1.37007874
 21
1.05211778151447E-18
 31
0.0
  0
ARC
  8
1
  6
CONTINUOUS
 62
1
 10
1.377952756
 20
0.0708661414999999
 30
0.0
 40
0.00787401600000008
 50
89.9999999999993
 51
179.999999999999
  0
ARC
  8
1
  6
CONTINUOUS
 62
1
 10
1.377952756
 20
0.0708661414999999
 30
0.0
 40
0.00787401600000007
 50
4.57999874130746E-13
 51
90.0000000000004
  0
LINE
  8
1
  6
CONTINUOUS
 62
1
 10
1.37007874
 20
1.05211778151447E-18
 30
0.0
 11
1.385826772
 21
1.05211778151447E-18
 31
0.0
  0
LINE
  8
1
  6
CONTINUOUS
 62
1
 10
1.425196851
 20
0.0708661414999999
 30
0.0
 11
1.425196851
 21
1.05211778151447E-18
 31
0.0
  0
LINE
  8
1
  6
CONTINUOUS
 62
1
 10
1.409448819
 20
0.0708661415
 30
0.0
 11
1.409448819
 21
1.05211778151447E-18
 31
0.0
  0
ARC
  8
1
  6
CONTINUOUS
 62
1
 10
1.417322835
 20
0.0708661415
 30
0.0
 40
0.00787401599999997
 50
90.0000000000001
 51
180
  0
ARC
  8
1
  6
CONTINUOUS
 62
1
 10
1.417322835
 20
0.0708661415000001
 30
0.0
 40
0.00787401599999996
 50
359.999999999999
 51
89.9999999999995
  0
LINE
  8
1
  6
CONTINUOUS
 62
1
 10
1.409448819
 20
1.05211778151447E-18
 30
0.0
 11
1.425196851
 21
1.05211778151447E-18
 31
0.0
  0
LINE
  8
1
  6
CONTINUOUS
 62
1
 10
1.46456693
 20
0.0708661414999999
 30
0.0
 11
1.46456693
 21
1.05211778151447E-18
 31
0.0
  0
LINE
  8
1
  6
CONTINUOUS
 62
1
 10
1.448818898
 20
0.0708661415
 30
0.0
 11
1.448818898
 21
1.05211778151447E-18
 31
0.0
  0
ARC
  8
1
  6
CONTINUOUS
 62
1
 10
1.456692914
 20
0.0708661415
 30
0.0
 40
0.00787401599999997
 50
90.0000000000001
 51
180
  0
ARC
  8
1
  6
CONTINUOUS
 62
1
 10
1.456692914
 20
0.0708661414999999
 30
0.0
 40
0.00787401600000007
 50
4.57999874130746E-13
 51
90.0000000000004
  0
LINE
  8
1
  6
CONTINUOUS
 62
1
 10
1.448818898
 20
1.05211778151447E-18
 30
0.0
 11
1.46456693
 21
1.05211778151447E-18
 31
0.0
  0
LINE
  8
1
  6
CONTINUOUS
 62
1
 10
1.503937009
 20
0.0708661414999999
 30
0.0
 11
1.503937009
 21
1.05211778151447E-18
 31
0.0
  0
LINE
  8
1
  6
CONTINUOUS
 62
1
 10
1.488188977
 20
0.0708661415
 30
0.0
 11
1.488188977
 21
1.05211778151447E-18
 31
0.0
  0
ARC
  8
1
  6
CONTINUOUS
 62
1
 10
1.496062993
 20
0.0708661414999999
 30
0.0
 40
0.00787401600000008
 50
89.9999999999993
 51
179.999999999999
  0
ARC
  8
1
  6
CONTINUOUS
 62
1
 10
1.496062993
 20
0.0708661415000001
 30
0.0
 40
0.00787401599999996
 50
359.999999999999
 51
89.9999999999995
  0
LINE
  8
1
  6
CONTINUOUS
 62
1
 10
1.488188977
 20
1.05211778151447E-18
 30
0.0
 11
1.503937009
 21
1.05211778151447E-18
 31
0.0
  0
LINE
  8
1
  6
CONTINUOUS
 62
1
 10
1.543307088
 20
0.0708661414999999
 30
0.0
 11
1.543307088
 21
1.05211778151447E-18
 31
0.0
  0
LINE
  8
1
  6
CONTINUOUS
 62
1
 10
1.527559056
 20
0.0708661415
 30
0.0
 11
1.527559056
 21
1.05211778151447E-18
 31
0.0
  0
ARC
  8
1
  6
CONTINUOUS
 62
1
 10
1.535433072
 20
0.0708661415
 30
0.0
 40
0.00787401599999997
 50
90.0000000000001
 51
180
  0
ARC
  8
1
  6
CONTINUOUS
 62
1
 10
1.535433072
 20
0.0708661415000001
 30
0.0
 40
0.00787401599999996
 50
359.999999999999
 51
89.9999999999995
  0
LINE
  8
1
  6
CONTINUOUS
 62
1
 10
1.527559056
 20
1.05211778151447E-18
 30
0.0
 11
1.543307088
 21
1.05211778151447E-18
 31
0.0
  0
LINE
  8
1
  6
CONTINUOUS
 62
1
 10
1.622047243
 20
0.0708661414999999
 30
0.0
 11
1.622047243
 21
1.05211778151447E-18
 31
0.0
  0
LINE
  8
1
  6
CONTINUOUS
 62
1
 10
1.606299211
 20
0.0708661415
 30
0.0
 11
1.606299211
 21
1.05211778151447E-18
 31
0.0
  0
ARC
  8
1
  6
CONTINUOUS
 62
1
 10
1.614173227
 20
0.0708661415
 30
0.0
 40
0.00787401599999997
 50
90.0000000000001
 51
180
  0
ARC
  8
1
  6
CONTINUOUS
 62
1
 10
1.614173227
 20
0.0708661415000001
 30
0.0
 40
0.00787401599999996
 50
359.999999999999
 51
89.9999999999995
  0
LINE
  8
1
  6
CONTINUOUS
 62
1
 10
1.606299211
 20
1.05211778151447E-18
 30
0.0
 11
1.622047243
 21
1.05211778151447E-18
 31
0.0
  0
LINE
  8
1
  6
CONTINUOUS
 62
1
 10
1.661417322
 20
0.0708661414999999
 30
0.0
 11
1.661417322
 21
1.05211778151447E-18
 31
0.0
  0
LINE
  8
1
  6
CONTINUOUS
 62
1
 10
1.64566929
 20
0.0708661415
 30
0.0
 11
1.64566929
 21
1.05211778151447E-18
 31
0.0
  0
ARC
  8
1
  6
CONTINUOUS
 62
1
 10
1.653543306
 20
0.0708661414999999
 30
0.0
 40
0.00787401600000008
 50
89.9999999999993
 51
179.999999999999
  0
ARC
  8
1
  6
CONTINUOUS
 62
1
 10
1.653543306
 20
0.0708661414999999
 30
0.0
 40
0.00787401600000007
 50
4.57999874130746E-13
 51
90.0000000000004
  0
LINE
  8
1
  6
CONTINUOUS
 62
1
 10
1.64566929
 20
1.05211778151447E-18
 30
0.0
 11
1.661417322
 21
1.05211778151447E-18
 31
0.0
  0
LINE
  8
1
  6
CONTINUOUS
 62
1
 10
1.700787401
 20
0.0708661414999999
 30
0.0
 11
1.700787401
 21
1.05211778151447E-18
 31
0.0
  0
LINE
  8
1
  6
CONTINUOUS
 62
1
 10
1.685039369
 20
0.0708661415
 30
0.0
 11
1.685039369
 21
1.05211778151447E-18
 31
0.0
  0
ARC
  8
1
  6
CONTINUOUS
 62
1
 10
1.692913385
 20
0.0708661415
 30
0.0
 40
0.00787401599999997
 50
90.0000000000001
 51
180
  0
ARC
  8
1
  6
CONTINUOUS
 62
1
 10
1.692913385
 20
0.0708661415000001
 30
0.0
 40
0.00787401599999996
 50
359.999999999999
 51
89.9999999999995
  0
LINE
  8
1
  6
CONTINUOUS
 62
1
 10
1.685039369
 20
1.05211778151447E-18
 30
0.0
 11
1.700787401
 21
1.05211778151447E-18
 31
0.0
  0
LINE
  8
1
  6
CONTINUOUS
 62
1
 10
1.74015748
 20
0.0708661414999999
 30
0.0
 11
1.74015748
 21
1.05211778151447E-18
 31
0.0
  0
LINE
  8
1
  6
CONTINUOUS
 62
1
 10
1.724409448
 20
0.0708661415
 30
0.0
 11
1.724409448
 21
1.05211778151447E-18
 31
0.0
  0
ARC
  8
1
  6
CONTINUOUS
 62
1
 10
1.732283464
 20
0.0708661414999999
 30
0.0
 40
0.00787401600000008
 50
89.9999999999993
 51
179.999999999999
  0
ARC
  8
1
  6
CONTINUOUS
 62
1
 10
1.732283464
 20
0.0708661414999999
 30
0.0
 40
0.00787401600000007
 50
4.57999874130746E-13
 51
90.0000000000004
  0
LINE
  8
1
  6
CONTINUOUS
 62
1
 10
1.724409448
 20
1.05211778151447E-18
 30
0.0
 11
1.74015748
 21
1.05211778151447E-18
 31
0.0
  0
LINE
  8
1
  6
CONTINUOUS
 62
1
 10
1.779527559
 20
0.0708661414999999
 30
0.0
 11
1.779527559
 21
1.05211778151447E-18
 31
0.0
  0
LINE
  8
1
  6
CONTINUOUS
 62
1
 10
1.763779527
 20
0.0708661415
 30
0.0
 11
1.763779527
 21
1.05211778151447E-18
 31
0.0
  0
ARC
  8
1
  6
CONTINUOUS
 62
1
 10
1.771653543
 20
0.0708661415
 30
0.0
 40
0.00787401599999997
 50
90.0000000000001
 51
180
  0
ARC
  8
1
  6
CONTINUOUS
 62
1
 10
1.771653543
 20
0.0708661415000001
 30
0.0
 40
0.00787401599999996
 50
359.999999999999
 51
89.9999999999995
  0
LINE
  8
1
  6
CONTINUOUS
 62
1
 10
1.763779527
 20
1.05211778151447E-18
 30
0.0
 11
1.779527559
 21
1.05211778151447E-18
 31
0.0
  0
LINE
  8
1
  6
CONTINUOUS
 62
1
 10
1.818897638
 20
0.0708661414999999
 30
0.0
 11
1.818897638
 21
1.05211778151447E-18
 31
0.0
  0
LINE
  8
1
  6
CONTINUOUS
 62
1
 10
1.803149606
 20
0.0708661415
 30
0.0
 11
1.803149606
 21
1.05211778151447E-18
 31
0.0
  0
ARC
  8
1
  6
CONTINUOUS
 62
1
 10
1.811023622
 20
0.0708661414999999
 30
0.0
 40
0.00787401600000008
 50
89.9999999999993
 51
179.999999999999
  0
ARC
  8
1
  6
CONTINUOUS
 62
1
 10
1.811023622
 20
0.0708661414999999
 30
0.0
 40
0.00787401600000007
 50
4.57999874130746E-13
 51
90.0000000000004
  0
LINE
  8
1
  6
CONTINUOUS
 62
1
 10
1.803149606
 20
1.05211778151447E-18
 30
0.0
 11
1.818897638
 21
1.05211778151447E-18
 31
0.0
  0
LINE
  8
1
  6
CONTINUOUS
 62
1
 10
1.858267717
 20
0.0708661414999999
 30
0.0
 11
1.858267717
 21
1.05211778151447E-18
 31
0.0
  0
LINE
  8
1
  6
CONTINUOUS
 62
1
 10
1.842519685
 20
0.0708661415
 30
0.0
 11
1.842519685
 21
1.05211778151447E-18
 31
0.0
  0
ARC
  8
1
  6
CONTINUOUS
 62
1
 10
1.850393701
 20
0.0708661415
 30
0.0
 40
0.00787401599999997
 50
90.0000000000001
 51
180
  0
ARC
  8
1
  6
CONTINUOUS
 62
1
 10
1.850393701
 20
0.0708661415000001
 30
0.0
 40
0.00787401599999996
 50
359.999999999999
 51
89.9999999999995
  0
LINE
  8
1
  6
CONTINUOUS
 62
1
 10
1.842519685
 20
1.05211778151447E-18
 30
0.0
 11
1.858267717
 21
1.05211778151447E-18
 31
0.0
  0
LINE
  8
1
  6
CONTINUOUS
 62
1
 10
1.897637796
 20
0.0708661414999999
 30
0.0
 11
1.897637796
 21
1.05211778151447E-18
 31
0.0
  0
LINE
  8
1
  6
CONTINUOUS
 62
1
 10
1.881889764
 20
0.0708661415
 30
0.0
 11
1.881889764
 21
1.05211778151447E-18
 31
0.0
  0
ARC
  8
1
  6
CONTINUOUS
 62
1
 10
1.88976378
 20
0.0708661415
 30
0.0
 40
0.00787401599999997
 50
90.0000000000001
 51
180
  0
ARC
  8
1
  6
CONTINUOUS
 62
1
 10
1.88976378
 20
0.0708661415000001
 30
0.0
 40
0.00787401599999996
 50
359.999999999999
 51
89.9999999999995
  0
LINE
  8
1
  6
CONTINUOUS
 62
1
 10
1.881889764
 20
1.05211778151447E-18
 30
0.0
 11
1.897637796
 21
1.05211778151447E-18
 31
0.0
  0
LINE
  8
1
  6
CONTINUOUS
 62
1
 10
1.937007875
 20
0.0708661414999999
 30
0.0
 11
1.937007875
 21
1.05211778151447E-18
 31
0.0
  0
LINE
  8
1
  6
CONTINUOUS
 62
1
 10
1.921259843
 20
0.0708661415
 30
0.0
 11
1.921259843
 21
1.05211778151447E-18
 31
0.0
  0
ARC
  8
1
  6
CONTINUOUS
 62
1
 10
1.929133859
 20
0.0708661414999999
 30
0.0
 40
0.00787401600000008
 50
89.9999999999993
 51
179.999999999999
  0
ARC
  8
1
  6
CONTINUOUS
 62
1
 10
1.929133859
 20
0.0708661415000001
 30
0.0
 40
0.00787401599999996
 50
359.999999999999
 51
89.9999999999995
  0
LINE
  8
1
  6
CONTINUOUS
 62
1
 10
1.921259843
 20
1.05211778151447E-18
 30
0.0
 11
1.937007875
 21
1.05211778151447E-18
 31
0.0
  0
LINE
  8
1
  6
CONTINUOUS
 62
1
 10
2.01574803
 20
0.0708661414999999
 30
0.0
 11
2.01574803
 21
1.05211778151447E-18
 31
0.0
  0
LINE
  8
1
  6
CONTINUOUS
 62
1
 10
1.999999998
 20
0.0708661415
 30
0.0
 11
1.999999998
 21
1.05211778151447E-18
 31
0.0
  0
ARC
  8
1
  6
CONTINUOUS
 62
1
 10
2.007874014
 20
0.0708661415
 30
0.0
 40
0.00787401599999997
 50
90.0000000000001
 51
180
  0
ARC
  8
1
  6
CONTINUOUS
 62
1
 10
2.007874014
 20
0.0708661415000002
 30
0.0
 40
0.00787401599999985
 50
359.999999999998
 51
89.9999999999987
  0
LINE
  8
1
  6
CONTINUOUS
 62
1
 10
1.999999998
 20
1.05211778151447E-18
 30
0.0
 11
2.01574803
 21
1.05211778151447E-18
 31
0.0
  0
LINE
  8
1
  6
CONTINUOUS
 62
1
 10
2.055118109
 20
0.0708661414999999
 30
0.0
 11
2.055118109
 21
1.05211778151447E-18
 31
0.0
  0
LINE
  8
1
  6
CONTINUOUS
 62
1
 10
2.039370077
 20
0.0708661415
 30
0.0
 11
2.039370077
 21
1.05211778151447E-18
 31
0.0
  0
ARC
  8
1
  6
CONTINUOUS
 62
1
 10
2.047244093
 20
0.0708661414999999
 30
0.0
 40
0.00787401600000008
 50
89.9999999999993
 51
179.999999999999
  0
ARC
  8
1
  6
CONTINUOUS
 62
1
 10
2.047244093
 20
0.0708661414999999
 30
0.0
 40
0.00787401600000007
 50
4.57999874130746E-13
 51
90.0000000000004
  0
LINE
  8
1
  6
CONTINUOUS
 62
1
 10
2.039370077
 20
1.05211778151447E-18
 30
0.0
 11
2.055118109
 21
1.05211778151447E-18
 31
0.0
  0
LINE
  8
1
  6
CONTINUOUS
 62
1
 10
2.094488188
 20
0.0708661414999999
 30
0.0
 11
2.094488188
 21
1.05211778151447E-18
 31
0.0
  0
LINE
  8
1
  6
CONTINUOUS
 62
1
 10
2.078740156
 20
0.0708661415
 30
0.0
 11
2.078740156
 21
1.05211778151447E-18
 31
0.0
  0
ARC
  8
1
  6
CONTINUOUS
 62
1
 10
2.086614172
 20
0.0708661415000001
 30
0.0
 40
0.00787401599999986
 50
90.0000000000009
 51
180
  0
ARC
  8
1
  6
CONTINUOUS
 62
1
 10
2.086614172
 20
0.0708661415000002
 30
0.0
 40
0.00787401599999985
 50
359.999999999998
 51
89.9999999999987
  0
LINE
  8
1
  6
CONTINUOUS
 62
1
 10
2.078740156
 20
1.05211778151447E-18
 30
0.0
 11
2.094488188
 21
1.05211778151447E-18
 31
0.0
  0
LINE
  8
1
  6
CONTINUOUS
 62
1
 10
2.133858267
 20
0.0708661414999999
 30
0.0
 11
2.133858267
 21
1.05211778151447E-18
 31
0.0
  0
LINE
  8
1
  6
CONTINUOUS
 62
1
 10
2.118110235
 20
0.0708661415
 30
0.0
 11
2.118110235
 21
1.05211778151447E-18
 31
0.0
  0
ARC
  8
1
  6
CONTINUOUS
 62
1
 10
2.125984251
 20
0.0708661414999999
 30
0.0
 40
0.00787401600000008
 50
89.9999999999993
 51
179.999999999999
  0
ARC
  8
1
  6
CONTINUOUS
 62
1
 10
2.125984251
 20
0.0708661414999999
 30
0.0
 40
0.00787401600000007
 50
4.57999874130746E-13
 51
90.0000000000004
  0
LINE
  8
1
  6
CONTINUOUS
 62
1
 10
2.118110235
 20
1.05211778151447E-18
 30
0.0
 11
2.133858267
 21
1.05211778151447E-18
 31
0.0
  0
LINE
  8
1
  6
CONTINUOUS
 62
1
 10
2.173228346
 20
0.0708661414999999
 30
0.0
 11
2.173228346
 21
1.05211778151447E-18
 31
0.0
  0
LINE
  8
1
  6
CONTINUOUS
 62
1
 10
2.157480314
 20
0.0708661415
 30
0.0
 11
2.157480314
 21
1.05211778151447E-18
 31
0.0
  0
ARC
  8
1
  6
CONTINUOUS
 62
1
 10
2.16535433
 20
0.0708661414999999
 30
0.0
 40
0.00787401600000008
 50
89.9999999999993
 51
179.999999999999
  0
ARC
  8
1
  6
CONTINUOUS
 62
1
 10
2.16535433
 20
0.0708661414999999
 30
0.0
 40
0.00787401600000007
 50
4.57999874130746E-13
 51
90.0000000000004
  0
LINE
  8
1
  6
CONTINUOUS
 62
1
 10
2.157480314
 20
1.05211778151447E-18
 30
0.0
 11
2.173228346
 21
1.05211778151447E-18
 31
0.0
  0
LINE
  8
1
  6
CONTINUOUS
 62
1
 10
2.212598425
 20
0.0708661414999999
 30
0.0
 11
2.212598425
 21
1.05211778151447E-18
 31
0.0
  0
LINE
  8
1
  6
CONTINUOUS
 62
1
 10
2.196850393
 20
0.0708661415
 30
0.0
 11
2.196850393
 21
1.05211778151447E-18
 31
0.0
  0
ARC
  8
1
  6
CONTINUOUS
 62
1
 10
2.204724409
 20
0.0708661414999999
 30
0.0
 40
0.00787401600000008
 50
89.9999999999993
 51
179.999999999999
  0
ARC
  8
1
  6
CONTINUOUS
 62
1
 10
2.204724409
 20
0.0708661414999999
 30
0.0
 40
0.00787401600000007
 50
4.57999874130746E-13
 51
90.0000000000004
  0
LINE
  8
1
  6
CONTINUOUS
 62
1
 10
2.196850393
 20
1.05211778151447E-18
 30
0.0
 11
2.212598425
 21
1.05211778151447E-18
 31
0.0
  0
LINE
  8
1
  6
CONTINUOUS
 62
1
 10
2.251968504
 20
0.0708661414999999
 30
0.0
 11
2.251968504
 21
1.05211778151447E-18
 31
0.0
  0
LINE
  8
1
  6
CONTINUOUS
 62
1
 10
2.236220472
 20
0.0708661415
 30
0.0
 11
2.236220472
 21
1.05211778151447E-18
 31
0.0
  0
ARC
  8
1
  6
CONTINUOUS
 62
1
 10
2.244094488
 20
0.0708661414999999
 30
0.0
 40
0.00787401600000008
 50
89.9999999999993
 51
179.999999999999
  0
ARC
  8
1
  6
CONTINUOUS
 62
1
 10
2.244094488
 20
0.0708661415000002
 30
0.0
 40
0.00787401599999985
 50
359.999999999998
 51
89.9999999999987
  0
LINE
  8
1
  6
CONTINUOUS
 62
1
 10
2.236220472
 20
1.05211778151447E-18
 30
0.0
 11
2.251968504
 21
1.05211778151447E-18
 31
0.0
  0
LINE
  8
1
  6
CONTINUOUS
 62
1
 10
2.291338583
 20
0.0708661414999999
 30
0.0
 11
2.291338583
 21
1.05211778151447E-18
 31
0.0
  0
LINE
  8
1
  6
CONTINUOUS
 62
1
 10
2.275590551
 20
0.0708661415
 30
0.0
 11
2.275590551
 21
1.05211778151447E-18
 31
0.0
  0
ARC
  8
1
  6
CONTINUOUS
 62
1
 10
2.283464567
 20
0.0708661415000001
 30
0.0
 40
0.00787401599999986
 50
90.0000000000009
 51
180
  0
ARC
  8
1
  6
CONTINUOUS
 62
1
 10
2.283464567
 20
0.0708661414999999
 30
0.0
 40
0.00787401600000007
 50
4.57999874130746E-13
 51
90.0000000000004
  0
LINE
  8
1
  6
CONTINUOUS
 62
1
 10
2.275590551
 20
1.05211778151447E-18
 30
0.0
 11
2.291338583
 21
1.05211778151447E-18
 31
0.0
  0
LINE
  8
1
  6
CONTINUOUS
 62
1
 10
2.330708662
 20
0.0708661414999999
 30
0.0
 11
2.330708662
 21
1.05211778151447E-18
 31
0.0
  0
LINE
  8
1
  6
CONTINUOUS
 62
1
 10
2.31496063
 20
0.0708661415
 30
0.0
 11
2.31496063
 21
1.05211778151447E-18
 31
0.0
  0
ARC
  8
1
  6
CONTINUOUS
 62
1
 10
2.322834646
 20
0.0708661414999999
 30
0.0
 40
0.00787401600000008
 50
89.9999999999993
 51
179.999999999999
  0
ARC
  8
1
  6
CONTINUOUS
 62
1
 10
2.322834646
 20
0.0708661414999999
 30
0.0
 40
0.00787401600000007
 50
4.57999874130746E-13
 51
90.0000000000004
  0
LINE
  8
1
  6
CONTINUOUS
 62
1
 10
2.31496063
 20
1.05211778151447E-18
 30
0.0
 11
2.330708662
 21
1.05211778151447E-18
 31
0.0
  0
LINE
  8
1
  6
CONTINUOUS
 62
1
 10
2.409448817
 20
0.0708661414999999
 30
0.0
 11
2.409448817
 21
1.05211778151447E-18
 31
0.0
  0
LINE
  8
1
  6
CONTINUOUS
 62
1
 10
2.393700785
 20
0.0708661415
 30
0.0
 11
2.393700785
 21
1.05211778151447E-18
 31
0.0
  0
ARC
  8
1
  6
CONTINUOUS
 62
1
 10
2.401574801
 20
0.0708661415000003
 30
0.0
 40
0.00787401599999963
 50
90.0000000000025
 51
180.000000000002
  0
ARC
  8
1
  6
CONTINUOUS
 62
1
 10
2.401574801
 20
0.0708661414999999
 30
0.0
 40
0.00787401600000007
 50
4.57999874130746E-13
 51
90.0000000000004
  0
LINE
  8
1
  6
CONTINUOUS
 62
1
 10
2.393700785
 20
1.05211778151447E-18
 30
0.0
 11
2.409448817
 21
1.05211778151447E-18
 31
0.0
  0
LINE
  8
1
  6
CONTINUOUS
 62
1
 10
2.448818896
 20
0.0708661414999999
 30
0.0
 11
2.448818896
 21
1.05211778151447E-18
 31
0.0
  0
LINE
  8
1
  6
CONTINUOUS
 62
1
 10
2.433070864
 20
0.0708661415
 30
0.0
 11
2.433070864
 21
1.05211778151447E-18
 31
0.0
  0
ARC
  8
1
  6
CONTINUOUS
 62
1
 10
2.44094488
 20
0.0708661414999999
 30
0.0
 40
0.00787401600000008
 50
89.9999999999993
 51
179.999999999999
  0
ARC
  8
1
  6
CONTINUOUS
 62
1
 10
2.44094488
 20
0.0708661414999999
 30
0.0
 40
0.00787401600000007
 50
4.57999874130746E-13
 51
90.0000000000004
  0
LINE
  8
1
  6
CONTINUOUS
 62
1
 10
2.433070864
 20
1.05211778151447E-18
 30
0.0
 11
2.448818896
 21
1.05211778151447E-18
 31
0.0
  0
LINE
  8
1
  6
CONTINUOUS
 62
1
 10
2.488188975
 20
0.0708661414999999
 30
0.0
 11
2.488188975
 21
1.05211778151447E-18
 31
0.0
  0
LINE
  8
1
  6
CONTINUOUS
 62
1
 10
2.472440943
 20
0.0708661415
 30
0.0
 11
2.472440943
 21
1.05211778151447E-18
 31
0.0
  0
ARC
  8
1
  6
CONTINUOUS
 62
1
 10
2.480314959
 20
0.0708661415000001
 30
0.0
 40
0.00787401599999986
 50
90.0000000000009
 51
180
  0
ARC
  8
1
  6
CONTINUOUS
 62
1
 10
2.480314959
 20
0.0708661415000002
 30
0.0
 40
0.00787401599999985
 50
359.999999999998
 51
89.9999999999987
  0
LINE
  8
1
  6
CONTINUOUS
 62
1
 10
2.472440943
 20
1.05211778151447E-18
 30
0.0
 11
2.488188975
 21
1.05211778151447E-18
 31
0.0
  0
LINE
  8
1
  6
CONTINUOUS
 62
1
 10
2.527559054
 20
0.0708661414999999
 30
0.0
 11
2.527559054
 21
1.05211778151447E-18
 31
0.0
  0
LINE
  8
1
  6
CONTINUOUS
 62
1
 10
2.511811022
 20
0.0708661415
 30
0.0
 11
2.511811022
 21
1.05211778151447E-18
 31
0.0
  0
ARC
  8
1
  6
CONTINUOUS
 62
1
 10
2.519685038
 20
0.0708661414999999
 30
0.0
 40
0.00787401600000008
 50
89.9999999999993
 51
179.999999999999
  0
ARC
  8
1
  6
CONTINUOUS
 62
1
 10
2.519685038
 20
0.0708661414999999
 30
0.0
 40
0.00787401600000007
 50
4.57999874130746E-13
 51
90.0000000000004
  0
LINE
  8
1
  6
CONTINUOUS
 62
1
 10
2.511811022
 20
1.05211778151447E-18
 30
0.0
 11
2.527559054
 21
1.05211778151447E-18
 31
0.0
  0
LINE
  8
1
  6
CONTINUOUS
 62
1
 10
2.566929133
 20
0.0708661414999999
 30
0.0
 11
2.566929133
 21
1.05211778151447E-18
 31
0.0
  0
LINE
  8
1
  6
CONTINUOUS
 62
1
 10
2.551181101
 20
0.0708661415
 30
0.0
 11
2.551181101
 21
1.05211778151447E-18
 31
0.0
  0
ARC
  8
1
  6
CONTINUOUS
 62
1
 10
2.559055117
 20
0.0708661415000001
 30
0.0
 40
0.00787401599999986
 50
90.0000000000009
 51
180
  0
ARC
  8
1
  6
CONTINUOUS
 62
1
 10
2.559055117
 20
0.0708661415000002
 30
0.0
 40
0.00787401599999985
 50
359.999999999998
 51
89.9999999999987
  0
LINE
  8
1
  6
CONTINUOUS
 62
1
 10
2.551181101
 20
1.05211778151447E-18
 30
0.0
 11
2.566929133
 21
1.05211778151447E-18
 31
0.0
  0
LINE
  8
1
  6
CONTINUOUS
 62
1
 10
2.606299212
 20
0.0708661414999999
 30
0.0
 11
2.606299212
 21
1.05211778151447E-18
 31
0.0
  0
LINE
  8
1
  6
CONTINUOUS
 62
1
 10
2.59055118
 20
0.0708661415
 30
0.0
 11
2.59055118
 21
1.05211778151447E-18
 31
0.0
  0
ARC
  8
1
  6
CONTINUOUS
 62
1
 10
2.598425196
 20
0.0708661414999999
 30
0.0
 40
0.00787401600000008
 50
89.9999999999993
 51
179.999999999999
  0
ARC
  8
1
  6
CONTINUOUS
 62
1
 10
2.598425196
 20
0.0708661414999999
 30
0.0
 40
0.00787401600000007
 50
4.57999874130746E-13
 51
90.0000000000004
  0
LINE
  8
1
  6
CONTINUOUS
 62
1
 10
2.59055118
 20
1.05211778151447E-18
 30
0.0
 11
2.606299212
 21
1.05211778151447E-18
 31
0.0
  0
LINE
  8
1
  6
CONTINUOUS
 62
1
 10
2.645669291
 20
0.0708661414999999
 30
0.0
 11
2.645669291
 21
1.05211778151447E-18
 31
0.0
  0
LINE
  8
1
  6
CONTINUOUS
 62
1
 10
2.629921259
 20
0.0708661415
 30
0.0
 11
2.629921259
 21
1.05211778151447E-18
 31
0.0
  0
ARC
  8
1
  6
CONTINUOUS
 62
1
 10
2.637795275
 20
0.0708661414999999
 30
0.0
 40
0.00787401600000008
 50
89.9999999999993
 51
179.999999999999
  0
ARC
  8
1
  6
CONTINUOUS
 62
1
 10
2.637795275
 20
0.0708661415000002
 30
0.0
 40
0.00787401599999985
 50
359.999999999998
 51
89.9999999999987
  0
LINE
  8
1
  6
CONTINUOUS
 62
1
 10
2.629921259
 20
1.05211778151447E-18
 30
0.0
 11
2.645669291
 21
1.05211778151447E-18
 31
0.0
  0
LINE
  8
1
  6
CONTINUOUS
 62
1
 10
2.68503937
 20
0.0708661414999999
 30
0.0
 11
2.68503937
 21
1.05211778151447E-18
 31
0.0
  0
LINE
  8
1
  6
CONTINUOUS
 62
1
 10
2.669291338
 20
0.0708661415
 30
0.0
 11
2.669291338
 21
1.05211778151447E-18
 31
0.0
  0
ARC
  8
1
  6
CONTINUOUS
 62
1
 10
2.677165354
 20
0.0708661415000001
 30
0.0
 40
0.00787401599999986
 50
90.0000000000009
 51
180
  0
ARC
  8
1
  6
CONTINUOUS
 62
1
 10
2.677165354
 20
0.0708661414999999
 30
0.0
 40
0.00787401600000007
 50
4.57999874130746E-13
 51
90.0000000000004
  0
LINE
  8
1
  6
CONTINUOUS
 62
1
 10
2.669291338
 20
1.05211778151447E-18
 30
0.0
 11
2.68503937
 21
1.05211778151447E-18
 31
0.0
  0
LINE
  8
1
  6
CONTINUOUS
 62
1
 10
2.724409449
 20
0.0708661414999999
 30
0.0
 11
2.724409449
 21
1.05211778151447E-18
 31
0.0
  0
LINE
  8
1
  6
CONTINUOUS
 62
1
 10
2.708661417
 20
0.0708661415
 30
0.0
 11
2.708661417
 21
1.05211778151447E-18
 31
0.0
  0
ARC
  8
1
  6
CONTINUOUS
 62
1
 10
2.716535433
 20
0.0708661414999999
 30
0.0
 40
0.00787401600000008
 50
89.9999999999993
 51
179.999999999999
  0
ARC
  8
1
  6
CONTINUOUS
 62
1
 10
2.716535433
 20
0.0708661414999999
 30
0.0
 40
0.00787401600000007
 50
4.57999874130746E-13
 51
90.0000000000004
  0
LINE
  8
1
  6
CONTINUOUS
 62
1
 10
2.708661417
 20
1.05211778151447E-18
 30
0.0
 11
2.724409449
 21
1.05211778151447E-18
 31
0.0
  0
LINE
  8
1
  6
CONTINUOUS
 62
1
 10
2.803149604
 20
0.0708661414999999
 30
0.0
 11
2.803149604
 21
1.05211778151447E-18
 31
0.0
  0
LINE
  8
1
  6
CONTINUOUS
 62
1
 10
2.787401572
 20
0.0708661415
 30
0.0
 11
2.787401572
 21
1.05211778151447E-18
 31
0.0
  0
ARC
  8
1
  6
CONTINUOUS
 62
1
 10
2.795275588
 20
0.0708661414999999
 30
0.0
 40
0.00787401600000008
 50
89.9999999999993
 51
179.999999999999
  0
ARC
  8
1
  6
CONTINUOUS
 62
1
 10
2.795275588
 20
0.0708661414999999
 30
0.0
 40
0.00787401600000007
 50
4.57999874130746E-13
 51
90.0000000000004
  0
LINE
  8
1
  6
CONTINUOUS
 62
1
 10
2.787401572
 20
1.05211778151447E-18
 30
0.0
 11
2.803149604
 21
1.05211778151447E-18
 31
0.0
  0
LINE
  8
1
  6
CONTINUOUS
 62
1
 10
2.842519683
 20
0.0708661414999999
 30
0.0
 11
2.842519683
 21
1.05211778151447E-18
 31
0.0
  0
LINE
  8
1
  6
CONTINUOUS
 62
1
 10
2.826771651
 20
0.0708661415
 30
0.0
 11
2.826771651
 21
1.05211778151447E-18
 31
0.0
  0
ARC
  8
1
  6
CONTINUOUS
 62
1
 10
2.834645667
 20
0.0708661414999999
 30
0.0
 40
0.00787401600000008
 50
89.9999999999993
 51
179.999999999999
  0
ARC
  8
1
  6
CONTINUOUS
 62
1
 10
2.834645667
 20
0.0708661414999999
 30
0.0
 40
0.00787401600000007
 50
4.57999874130746E-13
 51
90.0000000000004
  0
LINE
  8
1
  6
CONTINUOUS
 62
1
 10
2.826771651
 20
1.05211778151447E-18
 30
0.0
 11
2.842519683
 21
1.05211778151447E-18
 31
0.0
  0
LINE
  8
1
  6
CONTINUOUS
 62
1
 10
2.881889762
 20
0.0708661414999999
 30
0.0
 11
2.881889762
 21
1.05211778151447E-18
 31
0.0
  0
LINE
  8
1
  6
CONTINUOUS
 62
1
 10
2.86614173
 20
0.0708661415
 30
0.0
 11
2.86614173
 21
1.05211778151447E-18
 31
0.0
  0
ARC
  8
1
  6
CONTINUOUS
 62
1
 10
2.874015746
 20
0.0708661415000001
 30
0.0
 40
0.00787401599999986
 50
90.0000000000009
 51
180
  0
ARC
  8
1
  6
CONTINUOUS
 62
1
 10
2.874015746
 20
0.0708661414999999
 30
0.0
 40
0.00787401600000007
 50
4.57999874130746E-13
 51
90.0000000000004
  0
LINE
  8
1
  6
CONTINUOUS
 62
1
 10
2.86614173
 20
1.05211778151447E-18
 30
0.0
 11
2.881889762
 21
1.05211778151447E-18
 31
0.0
  0
LINE
  8
1
  6
CONTINUOUS
 62
1
 10
2.921259841
 20
0.0708661414999999
 30
0.0
 11
2.921259841
 21
1.05211778151447E-18
 31
0.0
  0
LINE
  8
1
  6
CONTINUOUS
 62
1
 10
2.905511809
 20
0.0708661415
 30
0.0
 11
2.905511809
 21
1.05211778151447E-18
 31
0.0
  0
ARC
  8
1
  6
CONTINUOUS
 62
1
 10
2.913385825
 20
0.0708661414999999
 30
0.0
 40
0.00787401600000008
 50
89.9999999999993
 51
179.999999999999
  0
ARC
  8
1
  6
CONTINUOUS
 62
1
 10
2.913385825
 20
0.0708661414999999
 30
0.0
 40
0.00787401600000007
 50
4.57999874130746E-13
 51
90.0000000000004
  0
LINE
  8
1
  6
CONTINUOUS
 62
1
 10
2.905511809
 20
1.05211778151447E-18
 30
0.0
 11
2.921259841
 21
1.05211778151447E-18
 31
0.0
  0
LINE
  8
1
  6
CONTINUOUS
 62
1
 10
2.96062992
 20
0.0708661414999999
 30
0.0
 11
2.96062992
 21
1.05211778151447E-18
 31
0.0
  0
LINE
  8
1
  6
CONTINUOUS
 62
1
 10
2.944881888
 20
0.0708661415
 30
0.0
 11
2.944881888
 21
1.05211778151447E-18
 31
0.0
  0
ARC
  8
1
  6
CONTINUOUS
 62
1
 10
2.952755904
 20
0.0708661414999999
 30
0.0
 40
0.00787401600000008
 50
89.9999999999993
 51
179.999999999999
  0
ARC
  8
1
  6
CONTINUOUS
 62
1
 10
2.952755904
 20
0.0708661415000002
 30
0.0
 40
0.00787401599999985
 50
359.999999999998
 51
89.9999999999987
  0
LINE
  8
1
  6
CONTINUOUS
 62
1
 10
2.944881888
 20
1.05211778151447E-18
 30
0.0
 11
2.96062992
 21
1.05211778151447E-18
 31
0.0
  0
LINE
  8
1
  6
CONTINUOUS
 62
1
 10
2.999999999
 20
0.0708661414999999
 30
0.0
 11
2.999999999
 21
1.05211778151447E-18
 31
0.0
  0
LINE
  8
1
  6
CONTINUOUS
 62
1
 10
2.984251967
 20
0.0708661415
 30
0.0
 11
2.984251967
 21
1.05211778151447E-18
 31
0.0
  0
ARC
  8
1
  6
CONTINUOUS
 62
1
 10
2.992125983
 20
0.0708661414999999
 30
0.0
 40
0.00787401600000008
 50
89.9999999999993
 51
179.999999999999
  0
ARC
  8
1
  6
CONTINUOUS
 62
1
 10
2.992125983
 20
0.0708661414999999
 30
0.0
 40
0.00787401600000007
 50
4.57999874130746E-13
 51
90.0000000000004
  0
LINE
  8
1
  6
CONTINUOUS
 62
1
 10
2.984251967
 20
1.05211778151447E-18
 30
0.0
 11
2.999999999
 21
1.05211778151447E-18
 31
0.0
  0
LINE
  8
1
  6
CONTINUOUS
 62
1
 10
3.039370078
 20
0.0708661414999999
 30
0.0
 11
3.039370078
 21
1.05211778151447E-18
 31
0.0
  0
LINE
  8
1
  6
CONTINUOUS
 62
1
 10
3.023622046
 20
0.0708661415
 30
0.0
 11
3.023622046
 21
1.05211778151447E-18
 31
0.0
  0
ARC
  8
1
  6
CONTINUOUS
 62
1
 10
3.031496062
 20
0.0708661415000001
 30
0.0
 40
0.00787401599999986
 50
90.0000000000009
 51
180
  0
ARC
  8
1
  6
CONTINUOUS
 62
1
 10
3.031496062
 20
0.0708661414999999
 30
0.0
 40
0.00787401600000007
 50
4.57999874130746E-13
 51
90.0000000000004
  0
LINE
  8
1
  6
CONTINUOUS
 62
1
 10
3.023622046
 20
1.05211778151447E-18
 30
0.0
 11
3.039370078
 21
1.05211778151447E-18
 31
0.0
  0
LINE
  8
1
  6
CONTINUOUS
 62
1
 10
3.078740157
 20
0.0708661414999999
 30
0.0
 11
3.078740157
 21
1.05211778151447E-18
 31
0.0
  0
LINE
  8
1
  6
CONTINUOUS
 62
1
 10
3.062992125
 20
0.0708661415
 30
0.0
 11
3.062992125
 21
1.05211778151447E-18
 31
0.0
  0
ARC
  8
1
  6
CONTINUOUS
 62
1
 10
3.070866141
 20
0.0708661414999999
 30
0.0
 40
0.00787401600000008
 50
89.9999999999993
 51
179.999999999999
  0
ARC
  8
1
  6
CONTINUOUS
 62
1
 10
3.070866141
 20
0.0708661415000002
 30
0.0
 40
0.00787401599999985
 50
359.999999999998
 51
89.9999999999987
  0
LINE
  8
1
  6
CONTINUOUS
 62
1
 10
3.062992125
 20
1.05211778151447E-18
 30
0.0
 11
3.078740157
 21
1.05211778151447E-18
 31
0.0
  0
LINE
  8
1
  6
CONTINUOUS
 62
1
 10
3.118110236
 20
0.0708661414999999
 30
0.0
 11
3.118110236
 21
1.05211778151447E-18
 31
0.0
  0
LINE
  8
1
  6
CONTINUOUS
 62
1
 10
3.102362204
 20
0.0708661415
 30
0.0
 11
3.102362204
 21
1.05211778151447E-18
 31
0.0
  0
ARC
  8
1
  6
CONTINUOUS
 62
1
 10
3.11023622
 20
0.0708661414999999
 30
0.0
 40
0.00787401600000008
 50
89.9999999999993
 51
179.999999999999
  0
ARC
  8
1
  6
CONTINUOUS
 62
1
 10
3.11023622
 20
0.0708661415000002
 30
0.0
 40
0.00787401599999985
 50
359.999999999998
 51
89.9999999999987
  0
LINE
  8
1
  6
CONTINUOUS
 62
1
 10
3.102362204
 20
1.05211778151447E-18
 30
0.0
 11
3.118110236
 21
1.05211778151447E-18
 31
0.0
  0
LINE
  8
1
  6
CONTINUOUS
 62
1
 10
3.196850391
 20
0.0708661414999999
 30
0.0
 11
3.196850391
 21
1.05211778151447E-18
 31
0.0
  0
LINE
  8
1
  6
CONTINUOUS
 62
1
 10
3.181102359
 20
0.0708661415
 30
0.0
 11
3.181102359
 21
1.05211778151447E-18
 31
0.0
  0
ARC
  8
1
  6
CONTINUOUS
 62
1
 10
3.188976375
 20
0.0708661414999999
 30
0.0
 40
0.00787401600000008
 50
89.9999999999993
 51
179.999999999999
  0
ARC
  8
1
  6
CONTINUOUS
 62
1
 10
3.188976375
 20
0.0708661414999999
 30
0.0
 40
0.00787401600000007
 50
4.57999874130746E-13
 51
90.0000000000004
  0
LINE
  8
1
  6
CONTINUOUS
 62
1
 10
3.181102359
 20
1.05211778151447E-18
 30
0.0
 11
3.196850391
 21
1.05211778151447E-18
 31
0.0
  0
LINE
  8
1
  6
CONTINUOUS
 62
1
 10
3.23622047
 20
0.0708661414999999
 30
0.0
 11
3.23622047
 21
1.05211778151447E-18
 31
0.0
  0
LINE
  8
1
  6
CONTINUOUS
 62
1
 10
3.220472438
 20
0.0708661415
 30
0.0
 11
3.220472438
 21
1.05211778151447E-18
 31
0.0
  0
ARC
  8
1
  6
CONTINUOUS
 62
1
 10
3.228346454
 20
0.0708661414999999
 30
0.0
 40
0.00787401600000008
 50
89.9999999999993
 51
179.999999999999
  0
ARC
  8
1
  6
CONTINUOUS
 62
1
 10
3.228346454
 20
0.0708661414999999
 30
0.0
 40
0.00787401600000007
 50
4.57999874130746E-13
 51
90.0000000000004
  0
LINE
  8
1
  6
CONTINUOUS
 62
1
 10
3.220472438
 20
1.05211778151447E-18
 30
0.0
 11
3.23622047
 21
1.05211778151447E-18
 31
0.0
  0
LINE
  8
1
  6
CONTINUOUS
 62
1
 10
3.275590549
 20
0.0708661414999999
 30
0.0
 11
3.275590549
 21
1.05211778151447E-18
 31
0.0
  0
LINE
  8
1
  6
CONTINUOUS
 62
1
 10
3.259842517
 20
0.0708661415
 30
0.0
 11
3.259842517
 21
1.05211778151447E-18
 31
0.0
  0
ARC
  8
1
  6
CONTINUOUS
 62
1
 10
3.267716533
 20
0.0708661415000001
 30
0.0
 40
0.00787401599999986
 50
90.0000000000009
 51
180
  0
ARC
  8
1
  6
CONTINUOUS
 62
1
 10
3.267716533
 20
0.0708661414999999
 30
0.0
 40
0.00787401600000007
 50
4.57999874130746E-13
 51
90.0000000000004
  0
LINE
  8
1
  6
CONTINUOUS
 62
1
 10
3.259842517
 20
1.05211778151447E-18
 30
0.0
 11
3.275590549
 21
1.05211778151447E-18
 31
0.0
  0
LINE
  8
1
  6
CONTINUOUS
 62
1
 10
3.314960628
 20
0.0708661414999999
 30
0.0
 11
3.314960628
 21
1.05211778151447E-18
 31
0.0
  0
LINE
  8
1
  6
CONTINUOUS
 62
1
 10
3.299212596
 20
0.0708661415
 30
0.0
 11
3.299212596
 21
1.05211778151447E-18
 31
0.0
  0
ARC
  8
1
  6
CONTINUOUS
 62
1
 10
3.307086612
 20
0.0708661414999999
 30
0.0
 40
0.00787401600000008
 50
89.9999999999993
 51
179.999999999999
  0
ARC
  8
1
  6
CONTINUOUS
 62
1
 10
3.307086612
 20
0.0708661414999999
 30
0.0
 40
0.00787401600000007
 50
4.57999874130746E-13
 51
90.0000000000004
  0
LINE
  8
1
  6
CONTINUOUS
 62
1
 10
3.299212596
 20
1.05211778151447E-18
 30
0.0
 11
3.314960628
 21
1.05211778151447E-18
 31
0.0
  0
LINE
  8
1
  6
CONTINUOUS
 62
1
 10
3.354330707
 20
0.0708661414999999
 30
0.0
 11
3.354330707
 21
1.05211778151447E-18
 31
0.0
  0
LINE
  8
1
  6
CONTINUOUS
 62
1
 10
3.338582675
 20
0.0708661415
 30
0.0
 11
3.338582675
 21
1.05211778151447E-18
 31
0.0
  0
ARC
  8
1
  6
CONTINUOUS
 62
1
 10
3.346456691
 20
0.0708661414999999
 30
0.0
 40
0.00787401600000008
 50
89.9999999999993
 51
179.999999999999
  0
ARC
  8
1
  6
CONTINUOUS
 62
1
 10
3.346456691
 20
0.0708661415000002
 30
0.0
 40
0.00787401599999985
 50
359.999999999998
 51
89.9999999999987
  0
LINE
  8
1
  6
CONTINUOUS
 62
1
 10
3.338582675
 20
1.05211778151447E-18
 30
0.0
 11
3.354330707
 21
1.05211778151447E-18
 31
0.0
  0
LINE
  8
1
  6
CONTINUOUS
 62
1
 10
3.393700786
 20
0.0708661414999999
 30
0.0
 11
3.393700786
 21
1.05211778151447E-18
 31
0.0
  0
LINE
  8
1
  6
CONTINUOUS
 62
1
 10
3.377952754
 20
0.0708661415
 30
0.0
 11
3.377952754
 21
1.05211778151447E-18
 31
0.0
  0
ARC
  8
1
  6
CONTINUOUS
 62
1
 10
3.38582677
 20
0.0708661414999999
 30
0.0
 40
0.00787401600000008
 50
89.9999999999993
 51
179.999999999999
  0
ARC
  8
1
  6
CONTINUOUS
 62
1
 10
3.38582677
 20
0.0708661414999999
 30
0.0
 40
0.00787401600000007
 50
4.57999874130746E-13
 51
90.0000000000004
  0
LINE
  8
1
  6
CONTINUOUS
 62
1
 10
3.377952754
 20
1.05211778151447E-18
 30
0.0
 11
3.393700786
 21
1.05211778151447E-18
 31
0.0
  0
LINE
  8
1
  6
CONTINUOUS
 62
1
 10
3.433070865
 20
0.0708661414999999
 30
0.0
 11
3.433070865
 21
1.05211778151447E-18
 31
0.0
  0
LINE
  8
1
  6
CONTINUOUS
 62
1
 10
3.417322833
 20
0.0708661415
 30
0.0
 11
3.417322833
 21
1.05211778151447E-18
 31
0.0
  0
ARC
  8
1
  6
CONTINUOUS
 62
1
 10
3.425196849
 20
0.0708661415000001
 30
0.0
 40
0.00787401599999986
 50
90.0000000000009
 51
180
  0
ARC
  8
1
  6
CONTINUOUS
 62
1
 10
3.425196849
 20
0.0708661414999999
 30
0.0
 40
0.00787401600000007
 50
4.57999874130746E-13
 51
90.0000000000004
  0
LINE
  8
1
  6
CONTINUOUS
 62
1
 10
3.417322833
 20
1.05211778151447E-18
 30
0.0
 11
3.433070865
 21
1.05211778151447E-18
 31
0.0
  0
LINE
  8
1
  6
CONTINUOUS
 62
1
 10
3.472440944
 20
0.0708661414999999
 30
0.0
 11
3.472440944
 21
1.05211778151447E-18
 31
0.0
  0
LINE
  8
1
  6
CONTINUOUS
 62
1
 10
3.456692912
 20
0.0708661415
 30
0.0
 11
3.456692912
 21
1.05211778151447E-18
 31
0.0
  0
ARC
  8
1
  6
CONTINUOUS
 62
1
 10
3.464566928
 20
0.0708661414999999
 30
0.0
 40
0.00787401600000008
 50
89.9999999999993
 51
179.999999999999
  0
ARC
  8
1
  6
CONTINUOUS
 62
1
 10
3.464566928
 20
0.0708661415000002
 30
0.0
 40
0.00787401599999985
 50
359.999999999998
 51
89.9999999999987
  0
LINE
  8
1
  6
CONTINUOUS
 62
1
 10
3.456692912
 20
1.05211778151447E-18
 30
0.0
 11
3.472440944
 21
1.05211778151447E-18
 31
0.0
  0
LINE
  8
1
  6
CONTINUOUS
 62
1
 10
3.511811023
 20
0.0708661414999999
 30
0.0
 11
3.511811023
 21
1.05211778151447E-18
 31
0.0
  0
LINE
  8
1
  6
CONTINUOUS
 62
1
 10
3.496062991
 20
0.0708661415
 30
0.0
 11
3.496062991
 21
1.05211778151447E-18
 31
0.0
  0
ARC
  8
1
  6
CONTINUOUS
 62
1
 10
3.503937007
 20
0.0708661414999999
 30
0.0
 40
0.00787401600000008
 50
89.9999999999993
 51
179.999999999999
  0
ARC
  8
1
  6
CONTINUOUS
 62
1
 10
3.503937007
 20
0.0708661415000002
 30
0.0
 40
0.00787401599999985
 50
359.999999999998
 51
89.9999999999987
  0
LINE
  8
1
  6
CONTINUOUS
 62
1
 10
3.496062991
 20
1.05211778151447E-18
 30
0.0
 11
3.511811023
 21
1.05211778151447E-18
 31
0.0
  0
LINE
  8
1
  6
CONTINUOUS
 62
1
 10
3.590551178
 20
0.0708661414999999
 30
0.0
 11
3.590551178
 21
1.05211778151447E-18
 31
0.0
  0
LINE
  8
1
  6
CONTINUOUS
 62
1
 10
3.574803146
 20
0.0708661415
 30
0.0
 11
3.574803146
 21
1.05211778151447E-18
 31
0.0
  0
ARC
  8
1
  6
CONTINUOUS
 62
1
 10
3.582677162
 20
0.0708661414999999
 30
0.0
 40
0.00787401600000008
 50
89.9999999999993
 51
179.999999999999
  0
ARC
  8
1
  6
CONTINUOUS
 62
1
 10
3.582677162
 20
0.0708661414999999
 30
0.0
 40
0.00787401600000007
 50
4.57999874130746E-13
 51
90.0000000000004
  0
LINE
  8
1
  6
CONTINUOUS
 62
1
 10
3.574803146
 20
1.05211778151447E-18
 30
0.0
 11
3.590551178
 21
1.05211778151447E-18
 31
0.0
  0
LINE
  8
1
  6
CONTINUOUS
 62
1
 10
3.629921257
 20
0.0708661414999999
 30
0.0
 11
3.629921257
 21
1.05211778151447E-18
 31
0.0
  0
LINE
  8
1
  6
CONTINUOUS
 62
1
 10
3.614173225
 20
0.0708661415
 30
0.0
 11
3.614173225
 21
1.05211778151447E-18
 31
0.0
  0
ARC
  8
1
  6
CONTINUOUS
 62
1
 10
3.622047241
 20
0.0708661414999999
 30
0.0
 40
0.00787401600000008
 50
89.9999999999993
 51
179.999999999999
  0
ARC
  8
1
  6
CONTINUOUS
 62
1
 10
3.622047241
 20
0.0708661414999999
 30
0.0
 40
0.00787401600000007
 50
4.57999874130746E-13
 51
90.0000000000004
  0
LINE
  8
1
  6
CONTINUOUS
 62
1
 10
3.614173225
 20
1.05211778151447E-18
 30
0.0
 11
3.629921257
 21
1.05211778151447E-18
 31
0.0
  0
LINE
  8
1
  6
CONTINUOUS
 62
1
 10
3.669291336
 20
0.0708661414999999
 30
0.0
 11
3.669291336
 21
1.05211778151447E-18
 31
0.0
  0
LINE
  8
1
  6
CONTINUOUS
 62
1
 10
3.653543304
 20
0.0708661415
 30
0.0
 11
3.653543304
 21
1.05211778151447E-18
 31
0.0
  0
ARC
  8
1
  6
CONTINUOUS
 62
1
 10
3.66141732
 20
0.0708661415000001
 30
0.0
 40
0.00787401599999986
 50
90.0000000000009
 51
180
  0
ARC
  8
1
  6
CONTINUOUS
 62
1
 10
3.66141732
 20
0.0708661414999999
 30
0.0
 40
0.00787401600000007
 50
4.57999874130746E-13
 51
90.0000000000004
  0
LINE
  8
1
  6
CONTINUOUS
 62
1
 10
3.653543304
 20
1.05211778151447E-18
 30
0.0
 11
3.669291336
 21
1.05211778151447E-18
 31
0.0
  0
LINE
  8
1
  6
CONTINUOUS
 62
1
 10
3.708661415
 20
0.0708661414999999
 30
0.0
 11
3.708661415
 21
1.05211778151447E-18
 31
0.0
  0
LINE
  8
1
  6
CONTINUOUS
 62
1
 10
3.692913383
 20
0.0708661415
 30
0.0
 11
3.692913383
 21
1.05211778151447E-18
 31
0.0
  0
ARC
  8
1
  6
CONTINUOUS
 62
1
 10
3.700787399
 20
0.0708661414999999
 30
0.0
 40
0.00787401600000008
 50
89.9999999999993
 51
179.999999999999
  0
ARC
  8
1
  6
CONTINUOUS
 62
1
 10
3.700787399
 20
0.0708661414999999
 30
0.0
 40
0.00787401600000007
 50
4.57999874130746E-13
 51
90.0000000000004
  0
LINE
  8
1
  6
CONTINUOUS
 62
1
 10
3.692913383
 20
1.05211778151447E-18
 30
0.0
 11
3.708661415
 21
1.05211778151447E-18
 31
0.0
  0
LINE
  8
1
  6
CONTINUOUS
 62
1
 10
3.748031494
 20
0.0708661414999999
 30
0.0
 11
3.748031494
 21
1.05211778151447E-18
 31
0.0
  0
LINE
  8
1
  6
CONTINUOUS
 62
1
 10
3.732283462
 20
0.0708661415
 30
0.0
 11
3.732283462
 21
1.05211778151447E-18
 31
0.0
  0
ARC
  8
1
  6
CONTINUOUS
 62
1
 10
3.740157478
 20
0.0708661414999999
 30
0.0
 40
0.00787401600000008
 50
89.9999999999993
 51
179.999999999999
  0
ARC
  8
1
  6
CONTINUOUS
 62
1
 10
3.740157478
 20
0.0708661415000002
 30
0.0
 40
0.00787401599999985
 50
359.999999999998
 51
89.9999999999987
  0
LINE
  8
1
  6
CONTINUOUS
 62
1
 10
3.732283462
 20
1.05211778151447E-18
 30
0.0
 11
3.748031494
 21
1.05211778151447E-18
 31
0.0
  0
LINE
  8
1
  6
CONTINUOUS
 62
1
 10
3.787401573
 20
0.0708661414999999
 30
0.0
 11
3.787401573
 21
1.05211778151447E-18
 31
0.0
  0
LINE
  8
1
  6
CONTINUOUS
 62
1
 10
3.771653541
 20
0.0708661415
 30
0.0
 11
3.771653541
 21
1.05211778151447E-18
 31
0.0
  0
ARC
  8
1
  6
CONTINUOUS
 62
1
 10
3.779527557
 20
0.0708661414999999
 30
0.0
 40
0.00787401600000008
 50
89.9999999999993
 51
179.999999999999
  0
ARC
  8
1
  6
CONTINUOUS
 62
1
 10
3.779527557
 20
0.0708661414999999
 30
0.0
 40
0.00787401600000007
 50
4.57999874130746E-13
 51
90.0000000000004
  0
LINE
  8
1
  6
CONTINUOUS
 62
1
 10
3.771653541
 20
1.05211778151447E-18
 30
0.0
 11
3.787401573
 21
1.05211778151447E-18
 31
0.0
  0
LINE
  8
1
  6
CONTINUOUS
 62
1
 10
3.826771652
 20
0.0708661414999999
 30
0.0
 11
3.826771652
 21
1.05211778151447E-18
 31
0.0
  0
LINE
  8
1
  6
CONTINUOUS
 62
1
 10
3.81102362
 20
0.0708661415
 30
0.0
 11
3.81102362
 21
1.05211778151447E-18
 31
0.0
  0
ARC
  8
1
  6
CONTINUOUS
 62
1
 10
3.818897636
 20
0.0708661415000001
 30
0.0
 40
0.00787401599999986
 50
90.0000000000009
 51
180
  0
ARC
  8
1
  6
CONTINUOUS
 62
1
 10
3.818897636
 20
0.0708661414999999
 30
0.0
 40
0.00787401600000007
 50
4.57999874130746E-13
 51
90.0000000000004
  0
LINE
  8
1
  6
CONTINUOUS
 62
1
 10
3.81102362
 20
1.05211778151447E-18
 30
0.0
 11
3.826771652
 21
1.05211778151447E-18
 31
0.0
  0
LINE
  8
1
  6
CONTINUOUS
 62
1
 10
3.866141731
 20
0.0708661414999999
 30
0.0
 11
3.866141731
 21
1.05211778151447E-18
 31
0.0
  0
LINE
  8
1
  6
CONTINUOUS
 62
1
 10
3.850393699
 20
0.0708661415
 30
0.0
 11
3.850393699
 21
1.05211778151447E-18
 31
0.0
  0
ARC
  8
1
  6
CONTINUOUS
 62
1
 10
3.858267715
 20
0.0708661414999999
 30
0.0
 40
0.00787401600000008
 50
89.9999999999993
 51
179.999999999999
  0
ARC
  8
1
  6
CONTINUOUS
 62
1
 10
3.858267715
 20
0.0708661415000002
 30
0.0
 40
0.00787401599999985
 50
359.999999999998
 51
89.9999999999987
  0
LINE
  8
1
  6
CONTINUOUS
 62
1
 10
3.850393699
 20
1.05211778151447E-18
 30
0.0
 11
3.866141731
 21
1.05211778151447E-18
 31
0.0
  0
LINE
  8
1
  6
CONTINUOUS
 62
1
 10
3.90551181
 20
0.0708661414999999
 30
0.0
 11
3.90551181
 21
1.05211778151447E-18
 31
0.0
  0
LINE
  8
1
  6
CONTINUOUS
 62
1
 10
3.889763778
 20
0.0708661415
 30
0.0
 11
3.889763778
 21
1.05211778151447E-18
 31
0.0
  0
ARC
  8
1
  6
CONTINUOUS
 62
1
 10
3.897637794
 20
0.0708661414999999
 30
0.0
 40
0.00787401600000008
 50
89.9999999999993
 51
179.999999999999
  0
ARC
  8
1
  6
CONTINUOUS
 62
1
 10
3.897637794
 20
0.0708661415000002
 30
0.0
 40
0.00787401599999985
 50
359.999999999998
 51
89.9999999999987
  0
LINE
  8
1
  6
CONTINUOUS
 62
1
 10
3.889763778
 20
1.05211778151447E-18
 30
0.0
 11
3.90551181
 21
1.05211778151447E-18
 31
0.0
  0
LINE
  8
1
  6
CONTINUOUS
 62
1
 10
3.984251965
 20
0.0708661414999999
 30
0.0
 11
3.984251965
 21
1.05211778151447E-18
 31
0.0
  0
LINE
  8
1
  6
CONTINUOUS
 62
1
 10
3.968503933
 20
0.0708661415
 30
0.0
 11
3.968503933
 21
1.05211778151447E-18
 31
0.0
  0
ARC
  8
1
  6
CONTINUOUS
 62
1
 10
3.976377949
 20
0.0708661414999999
 30
0.0
 40
0.00787401600000008
 50
89.9999999999993
 51
179.999999999999
  0
ARC
  8
1
  6
CONTINUOUS
 62
1
 10
3.976377949
 20
0.0708661414999999
 30
0.0
 40
0.00787401600000007
 50
4.57999874130746E-13
 51
90.0000000000004
  0
LINE
  8
1
  6
CONTINUOUS
 62
1
 10
3.968503933
 20
1.05211778151447E-18
 30
0.0
 11
3.984251965
 21
1.05211778151447E-18
 31
0.0
  0
LINE
  8
1
  6
CONTINUOUS
 62
1
 10
4.023622044
 20
0.0708661414999999
 30
0.0
 11
4.023622044
 21
1.05211778151447E-18
 31
0.0
  0
LINE
  8
1
  6
CONTINUOUS
 62
1
 10
4.007874012
 20
0.0708661415
 30
0.0
 11
4.007874012
 21
1.05211778151447E-18
 31
0.0
  0
ARC
  8
1
  6
CONTINUOUS
 62
1
 10
4.015748028
 20
0.0708661415000001
 30
0.0
 40
0.00787401599999986
 50
90.0000000000009
 51
180
  0
ARC
  8
1
  6
CONTINUOUS
 62
1
 10
4.015748028
 20
0.0708661414999997
 30
0.0
 40
0.0078740160000003
 50
2.06099943358836E-12
 51
90.000000000002
  0
LINE
  8
1
  6
CONTINUOUS
 62
1
 10
4.007874012
 20
1.05211778151447E-18
 30
0.0
 11
4.023622044
 21
1.05211778151447E-18
 31
0.0
  0
LINE
  8
1
  6
CONTINUOUS
 62
1
 10
4.062992123
 20
0.0708661414999999
 30
0.0
 11
4.062992123
 21
1.05211778151447E-18
 31
0.0
  0
LINE
  8
1
  6
CONTINUOUS
 62
1
 10
4.047244091
 20
0.0708661415
 30
0.0
 11
4.047244091
 21
1.05211778151447E-18
 31
0.0
  0
ARC
  8
1
  6
CONTINUOUS
 62
1
 10
4.055118107
 20
0.0708661415000001
 30
0.0
 40
0.00787401599999986
 50
90.0000000000009
 51
180
  0
ARC
  8
1
  6
CONTINUOUS
 62
1
 10
4.055118107
 20
0.0708661414999997
 30
0.0
 40
0.0078740160000003
 50
2.06099943358836E-12
 51
90.000000000002
  0
LINE
  8
1
  6
CONTINUOUS
 62
1
 10
4.047244091
 20
1.05211778151447E-18
 30
0.0
 11
4.062992123
 21
1.05211778151447E-18
 31
0.0
  0
LINE
  8
1
  6
CONTINUOUS
 62
1
 10
4.102362202
 20
0.0708661414999999
 30
0.0
 11
4.102362202
 21
1.05211778151447E-18
 31
0.0
  0
LINE
  8
1
  6
CONTINUOUS
 62
1
 10
4.08661417
 20
0.0708661415
 30
0.0
 11
4.08661417
 21
1.05211778151447E-18
 31
0.0
  0
ARC
  8
1
  6
CONTINUOUS
 62
1
 10
4.094488186
 20
0.0708661414999996
 30
0.0
 40
0.0078740160000003
 50
89.9999999999977
 51
179.999999999997
  0
ARC
  8
1
  6
CONTINUOUS
 62
1
 10
4.094488186
 20
0.0708661415000002
 30
0.0
 40
0.00787401599999985
 50
359.999999999998
 51
89.9999999999987
  0
LINE
  8
1
  6
CONTINUOUS
 62
1
 10
4.08661417
 20
1.05211778151447E-18
 30
0.0
 11
4.102362202
 21
1.05211778151447E-18
 31
0.0
  0
LINE
  8
1
  6
CONTINUOUS
 62
1
 10
4.141732281
 20
0.0708661414999999
 30
0.0
 11
4.141732281
 21
1.05211778151447E-18
 31
0.0
  0
LINE
  8
1
  6
CONTINUOUS
 62
1
 10
4.125984249
 20
0.0708661415
 30
0.0
 11
4.125984249
 21
1.05211778151447E-18
 31
0.0
  0
ARC
  8
1
  6
CONTINUOUS
 62
1
 10
4.133858265
 20
0.0708661415000001
 30
0.0
 40
0.00787401599999986
 50
90.0000000000009
 51
180
  0
ARC
  8
1
  6
CONTINUOUS
 62
1
 10
4.133858265
 20
0.0708661415000002
 30
0.0
 40
0.00787401599999985
 50
359.999999999998
 51
89.9999999999987
  0
LINE
  8
1
  6
CONTINUOUS
 62
1
 10
4.125984249
 20
1.05211778151447E-18
 30
0.0
 11
4.141732281
 21
1.05211778151447E-18
 31
0.0
  0
LINE
  8
1
  6
CONTINUOUS
 62
1
 10
4.18110236
 20
0.0708661414999999
 30
0.0
 11
4.18110236
 21
1.05211778151447E-18
 31
0.0
  0
LINE
  8
1
  6
CONTINUOUS
 62
1
 10
4.165354328
 20
0.0708661415
 30
0.0
 11
4.165354328
 21
1.05211778151447E-18
 31
0.0
  0
ARC
  8
1
  6
CONTINUOUS
 62
1
 10
4.173228344
 20
0.0708661415000001
 30
0.0
 40
0.00787401599999986
 50
90.0000000000009
 51
180
  0
ARC
  8
1
  6
CONTINUOUS
 62
1
 10
4.173228344
 20
0.0708661414999997
 30
0.0
 40
0.0078740160000003
 50
2.06099943358836E-12
 51
90.000000000002
  0
LINE
  8
1
  6
CONTINUOUS
 62
1
 10
4.165354328
 20
1.05211778151447E-18
 30
0.0
 11
4.18110236
 21
1.05211778151447E-18
 31
0.0
  0
LINE
  8
1
  6
CONTINUOUS
 62
1
 10
4.220472439
 20
0.0708661414999999
 30
0.0
 11
4.220472439
 21
1.05211778151447E-18
 31
0.0
  0
LINE
  8
1
  6
CONTINUOUS
 62
1
 10
4.204724407
 20
0.0708661415
 30
0.0
 11
4.204724407
 21
1.05211778151447E-18
 31
0.0
  0
ARC
  8
1
  6
CONTINUOUS
 62
1
 10
4.212598423
 20
0.0708661415000001
 30
0.0
 40
0.00787401599999986
 50
90.0000000000009
 51
180
  0
ARC
  8
1
  6
CONTINUOUS
 62
1
 10
4.212598423
 20
0.0708661414999997
 30
0.0
 40
0.0078740160000003
 50
2.06099943358836E-12
 51
90.000000000002
  0
LINE
  8
1
  6
CONTINUOUS
 62
1
 10
4.204724407
 20
1.05211778151447E-18
 30
0.0
 11
4.220472439
 21
1.05211778151447E-18
 31
0.0
  0
LINE
  8
1
  6
CONTINUOUS
 62
1
 10
4.259842518
 20
0.0708661414999999
 30
0.0
 11
4.259842518
 21
1.05211778151447E-18
 31
0.0
  0
LINE
  8
1
  6
CONTINUOUS
 62
1
 10
4.244094486
 20
0.0708661415
 30
0.0
 11
4.244094486
 21
1.05211778151447E-18
 31
0.0
  0
ARC
  8
1
  6
CONTINUOUS
 62
1
 10
4.251968502
 20
0.0708661414999996
 30
0.0
 40
0.0078740160000003
 50
89.9999999999977
 51
179.999999999997
  0
ARC
  8
1
  6
CONTINUOUS
 62
1
 10
4.251968502
 20
0.0708661415000002
 30
0.0
 40
0.00787401599999985
 50
359.999999999998
 51
89.9999999999987
  0
LINE
  8
1
  6
CONTINUOUS
 62
1
 10
4.244094486
 20
1.05211778151447E-18
 30
0.0
 11
4.259842518
 21
1.05211778151447E-18
 31
0.0
  0
LINE
  8
1
  6
CONTINUOUS
 62
1
 10
4.299212597
 20
0.0708661414999999
 30
0.0
 11
4.299212597
 21
1.05211778151447E-18
 31
0.0
  0
LINE
  8
1
  6
CONTINUOUS
 62
1
 10
4.283464565
 20
0.0708661415
 30
0.0
 11
4.283464565
 21
1.05211778151447E-18
 31
0.0
  0
ARC
  8
1
  6
CONTINUOUS
 62
1
 10
4.291338581
 20
0.0708661414999996
 30
0.0
 40
0.0078740160000003
 50
89.9999999999977
 51
179.999999999997
  0
ARC
  8
1
  6
CONTINUOUS
 62
1
 10
4.291338581
 20
0.0708661415000002
 30
0.0
 40
0.00787401599999985
 50
359.999999999998
 51
89.9999999999987
  0
LINE
  8
1
  6
CONTINUOUS
 62
1
 10
4.283464565
 20
1.05211778151447E-18
 30
0.0
 11
4.299212597
 21
1.05211778151447E-18
 31
0.0
  0
LINE
  8
3
  6
CONTINUOUS
 62
3
 10
0.381889764000002
 20
1.53426220605623E-18
 30
0.0
 11
0.405511810000002
 21
5.69973356972721E-19
 31
0.0
  0
LINE
  8
3
  6
CONTINUOUS
 62
3
 10
0.381889764000002
 20
0.145669291
 30
0.0
 11
0.381889764000002
 21
1.53426220605623E-18
 31
0.0
  0
LINE
  8
3
  6
CONTINUOUS
 62
3
 10
0.405511810000002
 20
0.145669291
 30
0.0
 11
0.405511810000002
 21
5.69973356972721E-19
 31
0.0
  0
ARC
  8
3
  6
CONTINUOUS
 62
3
 10
0.393700788000002
 20
0.145669291
 30
0.0
 40
0.011811024
 50
89.999999999999
 51
180
  0
ARC
  8
3
  6
CONTINUOUS
 62
3
 10
0.393700786000002
 20
0.145669291
 30
0.0
 40
0.011811024
 50
2.54444374517081E-14
 51
90.0000000000019
  0
ARC
  8
3
  6
CONTINUOUS
 62
3
 10
0.331212573886137
 20
0.34763256488035
 30
0.0
 40
0.110373752100681
 50
326.104482007983
 51
346.031951098017
  0
ARC
  8
3
  6
CONTINUOUS
 62
3
 10
0.354335522219545
 20
0.351142899400293
 30
0.0
 40
0.0892356612851051
 50
340.251218349569
 51
11.7146871287667
  0
ARC
  8
3
  6
CONTINUOUS
 62
3
 10
0.405140775708811
 20
0.362681601666442
 30
0.0
 40
0.0371588453024254
 50
10.1988882244745
 51
58.1676624401925
  0
ARC
  8
3
  6
CONTINUOUS
 62
3
 10
0.41327394978061
 20
0.366147560314482
 30
0.0
 40
0.0303528969493871
 50
67.8058033636071
 51
116.899999037667
  0
ARC
  8
3
  6
CONTINUOUS
 62
3
 10
0.413533462589375
 20
0.35807439768147
 30
0.0
 40
0.0378249696063364
 50
111.710689603313
 51
154.918471773836
  0
ARC
  8
3
  6
CONTINUOUS
 62
3
 10
0.482986119892465
 20
0.322114980250045
 30
0.0
 40
0.116014242538293
 50
153.373886994157
 51
173.240146249723
  0
ARC
  8
3
  6
CONTINUOUS
 62
3
 10
0.49824600640819
 20
0.315502493982376
 30
0.0
 40
0.132032592639464
 50
171.169613568353
 51
185.413425796251
  0
ARC
  8
3
  6
CONTINUOUS
 62
3
 10
0.397899541586123
 20
0.303210214518812
 30
0.0
 40
0.0310976791690578
 50
180.301952306968
 51
229.891023658476
  0
ARC
  8
3
  6
CONTINUOUS
 62
3
 10
0.397020443255347
 20
0.30523429992162
 30
0.0
 40
0.0321402100881611
 50
233.416462734367
 51
323.417326827852
  0
ARC
  8
3
  6
CONTINUOUS
 62
3
 10
0.392812822888408
 20
0.334702481814714
 30
0.0
 40
0.0988834213841831
 50
243.947443326121
 51
302.804485452542
  0
ARC
  8
3
  6
CONTINUOUS
 62
3
 10
0.383071673696571
 20
0.303597082683753
 30
0.0
 40
0.066840907463501
 50
175.411125325402
 51
239.734830061824
  0
ARC
  8
3
  6
CONTINUOUS
 62
3
 10
0.483715108061459
 20
0.311060740938444
 30
0.0
 40
0.167283462476612
 50
158.935481437309
 51
180.724773471631
  0
ARC
  8
3
  6
CONTINUOUS
 62
3
 10
0.414543883418436
 20
0.345643398196928
 30
0.0
 40
0.0906083786825726
 50
111.635306561338
 51
163.626566198142
  0
ARC
  8
3
  6
CONTINUOUS
 62
3
 10
0.415947304211991
 20
0.330912479549631
 30
0.0
 40
0.104900136189241
 50
89.0789373225459
 51
109.380746301212
  0
ARC
  8
3
  6
CONTINUOUS
 62
3
 10
0.419490295026995
 20
0.349617573971681
 30
0.0
 40
0.0862014865288968
 50
53.3467168069843
 51
91.2342154840233
  0
ARC
  8
3
  6
CONTINUOUS
 62
3
 10
0.429388112376928
 20
0.371643990848507
 30
0.0
 40
0.0628380340446977
 50
5.71566653256634
 51
48.5921580582216
  0
ARC
  8
3
  6
CONTINUOUS
 62
3
 10
0.326459477637238
 20
0.360315922465097
 30
0.0
 40
0.166386261287098
 50
341.459588793852
 51
6.06721933123564
  0
ARC
  8
3
  6
CONTINUOUS
 62
3
 10
0.37313438400485
 20
0.34195005406527
 30
0.0
 40
0.116322364431338
 50
309.029713424545
 51
342.726208543432
  0
ARC
  8
3
  6
CONTINUOUS
 62
3
 10
0.827668686672857
 20
0.2892380849173
 30
0.0
 40
0.0530619545670205
 50
256.990589636458
 51
289.652705770094
  0
ARC
  8
3
  6
CONTINUOUS
 62
3
 10
0.783181093652829
 20
-0.0396635738342128
 30
0.0
 40
0.279105321086777
 50
83.3042712597658
 51
94.9628708573541
  0
ARC
  8
3
  6
CONTINUOUS
 62
3
 10
0.72978534651747
 20
0.443753645790849
 30
0.0
 40
0.207430953456929
 50
271.758549117475
 51
278.106423450113
  0
ARC
  8
3
  6
CONTINUOUS
 62
3
 10
0.734785936445579
 20
0.251476811950865
 30
0.0
 40
0.015118170682652
 50
200.934650809094
 51
275.180137323471
  0
ARC
  8
3
  6
CONTINUOUS
 62
3
 10
0.74161075284463
 20
0.252280036192044
 30
0.0
 40
0.0218448061604018
 50
134.319038465217
 51
196.501998356627
  0
ARC
  8
3
  6
CONTINUOUS
 62
3
 10
0.741810562289121
 20
0.252201723463584
 30
0.0
 40
0.0220406099590594
 50
88.5949917514906
 51
134.548429958332
  0
ARC
  8
3
  6
CONTINUOUS
 62
3
 10
0.740120139081993
 20
0.229806687533146
 30
0.0
 40
0.0444849913163406
 50
64.5552834569633
 51
87.1255049912042
  0
ARC
  8
3
  6
CONTINUOUS
 62
3
 10
0.760994195312547
 20
0.273678947078764
 30
0.0
 40
0.00409999999943889
 50
244.555283446766
 51
348.944894365578
  0
LINE
  8
3
  6
CONTINUOUS
 62
3
 10
0.765018112490188
 20
0.272892759732842
 30
0.0
 11
0.789110200858785
 21
0.396202513608503
 31
0.0
  0
ARC
  8
3
  6
CONTINUOUS
 62
3
 10
0.784988139359332
 20
0.397007876256495
 30
0.0
 40
0.00420000000000596
 50
348.944894353931
 51
100.545517543346
  0
LINE
  8
3
  6
CONTINUOUS
 62
3
 10
0.784219469655787
 20
0.401136937516261
 30
0.0
 11
0.768470716165586
 21
0.398205135609041
 31
0.0
  0
ARC
  8
3
  6
CONTINUOUS
 62
3
 10
0.762882442670849
 20
0.422127020622094
 30
0.0
 40
0.02456593949414
 50
248.785569229309
 51
283.148786593452
  0
ARC
  8
3
  6
CONTINUOUS
 62
3
 10
0.763395944380639
 20
0.412859871189449
 30
0.0
 40
0.016562047636174
 50
159.497581284868
 51
235.407303542495
  0
ARC
  8
3
  6
CONTINUOUS
 62
3
 10
0.770768004933286
 20
0.411470741546637
 30
0.0
 40
0.0239879042779575
 50
115.397426163713
 51
162.558509568786
  0
ARC
  8
3
  6
CONTINUOUS
 62
3
 10
0.776210701161006
 20
0.393900739132737
 30
0.0
 40
0.0422753912116028
 50
75.3761515043274
 51
111.845632983487
  0
ARC
  8
3
  6
CONTINUOUS
 62
3
 10
0.805174434621124
 20
0.535325467158671
 30
0.0
 40
0.102169387488813
 50
259.687310587788
 51
281.656190538366
  0
ARC
  8
3
  6
CONTINUOUS
 62
3
 10
0.833718326930854
 20
0.401301339346771
 30
0.0
 40
0.0348688396954642
 50
75.530380758131
 51
103.097763033794
  0
ARC
  8
3
  6
CONTINUOUS
 62
3
 10
0.840004287433554
 20
0.426827591291457
 30
0.0
 40
0.00858657432489991
 50
356.728951772259
 51
73.5843315654614
  0
ARC
  8
3
  6
CONTINUOUS
 62
3
 10
0.786253167545695
 20
0.432015137122143
 30
0.0
 40
0.0625817712286281
 50
341.809722664638
 51
354.794902791837
  0
ARC
  8
3
  6
CONTINUOUS
 62
3
 10
1.44268105180745
 20
0.238962307580308
 30
0.0
 40
0.621679561668062
 50
163.792957590255
 51
167.862367069105
  0
LINE
  8
3
  6
CONTINUOUS
 62
3
 10
0.834898922575183
 20
0.36967711462864
 30
0.0
 11
0.815221577912189
 21
0.27298306612244
 31
0.0
  0
ARC
  8
3
  6
CONTINUOUS
 62
3
 10
0.819239230897037
 20
0.272165469345333
 30
0.0
 40
0.00409999999958497
 50
168.49731543404
 51
303.623925121996
  0
ARC
  8
3
  6
CONTINUOUS
 62
3
 10
0.839372550151382
 20
0.241889823038459
 30
0.0
 40
0.0322588407890918
 50
73.6543622036527
 51
123.623925121743
  0
ARC
  8
3
  6
CONTINUOUS
 62
3
 10
0.844571467748052
 20
0.259129489596476
 30
0.0
 40
0.0142534981331702
 50
0.134950213134081
 51
74.205102743444
  0
ARC
  8
3
  6
CONTINUOUS
 62
3
 10
0.837093684295452
 20
0.259300986878003
 30
0.0
 40
0.0217316797445211
 50
292.79808111659
 51
359.636355185377
  0
ARC
  8
3
  6
CONTINUOUS
 62
3
 10
1.2187348210358
 20
0.288866597785896
 30
0.0
 40
0.0526455913593782
 50
245.600858593509
 51
307.300186008781
  0
ARC
  8
3
  6
CONTINUOUS
 62
3
 10
1.24206518058847
 20
0.321982874463006
 30
0.0
 40
0.0927509684163961
 50
216.893937223619
 51
240.921425855193
  0
ARC
  8
3
  6
CONTINUOUS
 62
3
 10
1.16460879411893
 20
0.263839789936731
 30
0.0
 40
0.00409999999976198
 50
36.8939372332978
 51
182.995392805822
  0
ARC
  8
3
  6
CONTINUOUS
 62
3
 10
1.1344637794616
 20
0.262262387294225
 30
0.0
 40
0.0260862569359223
 50
265.910954217819
 51
2.99539279975583
  0
ARC
  8
3
  6
CONTINUOUS
 62
3
 10
1.13116383622256
 20
0.262664248723332
 30
0.0
 40
0.0264609154854229
 50
222.203783016233
 51
273.11917437267
  0
ARC
  8
3
  6
CONTINUOUS
 62
3
 10
1.14255171186656
 20
0.270346858634508
 30
0.0
 40
0.0401054202486644
 50
176.917213165301
 51
219.403904602271
  0
ARC
  8
3
  6
CONTINUOUS
 62
3
 10
1.16985503685525
 20
0.271029029111487
 30
0.0
 40
0.0673668494649964
 50
120.879486554711
 51
178.745702419201
  0
ARC
  8
3
  6
CONTINUOUS
 62
3
 10
1.27210249073344
 20
0.086316481688905
 30
0.0
 40
0.278462209428848
 50
105.394376393556
 51
119.429353130739
  0
ARC
  8
3
  6
CONTINUOUS
 62
3
 10
1.18073948903889
 20
0.426580613160278
 30
0.0
 40
0.0738811272281396
 50
283.655415093138
 51
302.2994573697
  0
ARC
  8
3
  6
CONTINUOUS
 62
3
 10
1.20942479663672
 20
0.380203475831084
 30
0.0
 40
0.0193596197711839
 50
303.881894150925
 51
51.2527349195088
  0
ARC
  8
3
  6
CONTINUOUS
 62
3
 10
1.20156917395598
 20
0.360982315781039
 30
0.0
 40
0.0397085032206587
 50
59.8027158559951
 51
112.617834765977
  0
ARC
  8
3
  6
CONTINUOUS
 62
3
 10
1.18787476047473
 20
0.393852188629651
 30
0.0
 40
0.00409999999910571
 50
112.617834756867
 51
193.654772470531
  0
ARC
  8
3
  6
CONTINUOUS
 62
3
 10
1.16042838182824
 20
0.38718443112004
 30
0.0
 40
0.0241446931486979
 50
307.689168768724
 51
13.6547724642731
  0
ARC
  8
3
  6
CONTINUOUS
 62
3
 10
1.15411218655937
 20
0.391009188021396
 30
0.0
 40
0.0311467350284814
 50
270.138791529365
 51
312.588105314662
  0
ARC
  8
3
  6
CONTINUOUS
 62
3
 10
1.15510544436196
 20
0.389735897574604
 30
0.0
 40
0.029887448949332
 50
230.031458514176
 51
268.240236226214
  0
ARC
  8
3
  6
CONTINUOUS
 62
3
 10
1.15752070395733
 20
0.386868099549121
 30
0.0
 40
0.0294733688607039
 50
158.365641860497
 51
222.832958930444
  0
ARC
  8
3
  6
CONTINUOUS
 62
3
 10
1.18172742726703
 20
0.375589471612531
 30
0.0
 40
0.0561547505816462
 50
112.936481860416
 51
156.774221337754
  0
ARC
  8
3
  6
CONTINUOUS
 62
3
 10
1.20653329283952
 20
0.308879672749532
 30
0.0
 40
0.127296457602149
 50
79.8335689461654
 51
111.517246487749
  0
ARC
  8
3
  6
CONTINUOUS
 62
3
 10
1.21851818627314
 20
0.362475678162429
 30
0.0
 40
0.0724642035613932
 50
40.198621628561
 51
81.6813794818278
  0
ARC
  8
3
  6
CONTINUOUS
 62
3
 10
1.23577924395979
 20
0.384985166249348
 30
0.0
 40
0.0451588744007766
 50
332.372013450475
 51
32.4968591628269
  0
ARC
  8
3
  6
CONTINUOUS
 62
3
 10
1.2123974564458
 20
0.394508117428812
 30
0.0
 40
0.070331826882354
 50
288.886920730747
 51
334.332191416752
  0
ARC
  8
3
  6
CONTINUOUS
 62
3
 10
1.13910925876797
 20
0.592434240371605
 30
0.0
 40
0.281374378501627
 50
279.226155576061
 51
289.960784107068
  0
ARC
  8
3
  6
CONTINUOUS
 62
3
 10
1.19360418626814
 20
0.247530769224306
 30
0.0
 40
0.0678211977992608
 50
97.951188558977
 51
120.986527634587
  0
ARC
  8
3
  6
CONTINUOUS
 62
3
 10
1.16079818725506
 20
0.302158211757634
 30
0.0
 40
0.00409999999995399
 50
120.986527620983
 51
295.215042659566
  0
ARC
  8
3
  6
CONTINUOUS
 62
3
 10
1.17850457003574
 20
0.264555861345968
 30
0.0
 40
0.037462636437812
 50
88.2841690458017
 51
115.21504266525
  0
ARC
  8
3
  6
CONTINUOUS
 62
3
 10
1.18066369717553
 20
0.261944065359085
 30
0.0
 40
0.0400710661264475
 50
64.1960873935151
 51
91.4835035914774
  0
ARC
  8
3
  6
CONTINUOUS
 62
3
 10
1.17336449515303
 20
0.251728187060176
 30
0.0
 40
0.0524886104430591
 50
30.5431378582068
 51
61.8763861742967
  0
ARC
  8
3
  6
CONTINUOUS
 62
3
 10
1.22210125435069
 20
0.280485779705914
 30
0.0
 40
0.00409999999992788
 50
210.543137861502
 51
17.9012171172497
  0
ARC
  8
3
  6
CONTINUOUS
 62
3
 10
1.24898378360421
 20
0.289169230702163
 30
0.0
 40
0.0241501805352619
 50
74.6425174225881
 51
197.901217105195
  0
ARC
  8
3
  6
CONTINUOUS
 62
3
 10
1.24624706433581
 20
0.287191861719127
 30
0.0
 40
0.0268651436074295
 50
338.28878733417
 51
70.1264840715647
  0
ARC
  8
3
  6
CONTINUOUS
 62
3
 10
1.21610407034461
 20
0.292580293894482
 30
0.0
 40
0.0571941596499635
 50
307.142126353305
 51
344.456184863183
  0
ARC
  8
3
  6
CONTINUOUS
 62
3
 10
1.56815786173506
 20
0.345832193109953
 30
0.0
 40
0.109656062779516
 50
236.423555446627
 51
310.52508527467
  0
ARC
  8
3
  6
CONTINUOUS
 62
3
 10
1.53360494899015
 20
0.290920616423482
 30
0.0
 40
0.0448249917187253
 50
181.220344239984
 51
234.402179295581
  0
ARC
  8
3
  6
CONTINUOUS
 62
3
 10
1.52858028570119
 20
0.291920571386004
 30
0.0
 40
0.03983814066355
 50
126.002887371984
 51
182.812278947902
  0
ARC
  8
3
  6
CONTINUOUS
 62
3
 10
1.52250427746134
 20
0.299604057184792
 30
0.0
 40
0.0300533088430492
 50
60.7377797033945
 51
125.24244777855
  0
ARC
  8
3
  6
CONTINUOUS
 62
3
 10
1.52632973930277
 20
0.307317296133573
 30
0.0
 40
0.021458797645995
 50
325.659146552423
 51
59.5816120818171
  0
ARC
  8
3
  6
CONTINUOUS
 62
3
 10
1.55565071840417
 20
0.277841267848627
 30
0.0
 40
0.0208893128534059
 50
123.740267221175
 51
148.167675325549
  0
ARC
  8
3
  6
CONTINUOUS
 62
3
 10
1.54138659771767
 20
0.286696542387196
 30
0.0
 40
0.00409999999932123
 50
148.167675348186
 51
241.381553502506
  0
ARC
  8
3
  6
CONTINUOUS
 62
3
 10
1.5669080170772
 20
0.333470300053446
 30
0.0
 40
0.057383461339087
 50
241.381553479104
 51
289.498484730837
  0
ARC
  8
3
  6
CONTINUOUS
 62
3
 10
1.57793552630439
 20
0.307192823621046
 30
0.0
 40
0.0289777569506705
 50
286.285501080694
 51
357.384886402896
  0
ARC
  8
3
  6
CONTINUOUS
 62
3
 10
1.5858576741884
 20
0.30597678998964
 30
0.0
 40
0.0210256985384117
 50
359.710818226661
 51
83.2676104615242
  0
LINE
  8
3
  6
CONTINUOUS
 62
3
 10
1.58832256228262
 20
0.326857506589201
 30
0.0
 11
1.57121152979182
 21
0.33003969959782
 31
0.0
  0
ARC
  8
3
  6
CONTINUOUS
 62
3
 10
1.57217075348366
 20
0.339394950413226
 30
0.0
 40
0.00940429837415506
 50
172.429197720131
 51
264.145739248098
  0
ARC
  8
3
  6
CONTINUOUS
 62
3
 10
1.59065203482862
 20
0.340724384290473
 30
0.0
 40
0.0278037476338734
 50
121.923007990831
 51
180.186301459943
  0
LINE
  8
3
  6
CONTINUOUS
 62
3
 10
1.57594999113122
 20
0.364323076915441
 30
0.0
 11
1.60750122664622
 21
0.389931044168562
 31
0.0
  0
ARC
  8
3
  6
CONTINUOUS
 62
3
 10
1.60491746319187
 20
0.393114464720714
 30
0.0
 40
0.00409999999998676
 50
309.063861989011
 51
90.0000000202142
  0
LINE
  8
3
  6
CONTINUOUS
 62
3
 10
1.60491746319042
 20
0.397214464720701
 30
0.0
 11
1.55981460378682
 21
0.397214464720983
 31
0.0
  0
ARC
  8
3
  6
CONTINUOUS
 62
3
 10
1.55981460378767
 20
0.393114464721502
 30
0.0
 40
0.00409999999948061
 50
90.0000000119311
 51
199.436763338319
  0
ARC
  8
3
  6
CONTINUOUS
 62
3
 10
1.52740738983928
 20
0.381678705357465
 30
0.0
 40
0.0302657403261549
 50
309.86030842251
 51
19.4367633383107
  0
ARC
  8
3
  6
CONTINUOUS
 62
3
 10
1.53300939408492
 20
0.373909789961978
 30
0.0
 40
0.0207229526457395
 50
216.855268204526
 51
311.738216322193
  0
ARC
  8
3
  6
CONTINUOUS
 62
3
 10
1.53159812873577
 20
0.370049253576231
 30
0.0
 40
0.0174231143375324
 50
165.970587732497
 51
209.460145765294
  0
LINE
  8
3
  6
CONTINUOUS
 62
3
 10
1.51469472133181
 20
0.374272964190661
 30
0.0
 11
1.51857138509101
 21
0.38890948828714
 31
0.0
  0
ARC
  8
3
  6
CONTINUOUS
 62
3
 10
1.42804188764064
 20
0.418825083301289
 30
0.0
 40
0.095344285270106
 50
341.713792168267
 51
1.32100844531435
  0
ARC
  8
3
  6
CONTINUOUS
 62
3
 10
1.53842795686103
 20
0.420820367458064
 30
0.0
 40
0.0150684886341478
 50
119.279960349925
 51
179.228958028907
  0
ARC
  8
3
  6
CONTINUOUS
 62
3
 10
1.54366732226529
 20
0.399139229443591
 30
0.0
 40
0.0370369008592808
 50
83.8885178078907
 51
109.90398006781
  0
ARC
  8
3
  6
CONTINUOUS
 62
3
 10
1.60128065256915
 20
1.47149142125591
 30
0.0
 40
1.03691569034394
 50
267.033072198787
 51
272.91603927875
  0
ARC
  8
3
  6
CONTINUOUS
 62
3
 10
1.65924230152538
 20
0.364779502801294
 30
0.0
 40
0.0713294834389093
 50
82.1054881643892
 51
94.1896055505977
  0
ARC
  8
3
  6
CONTINUOUS
 62
3
 10
1.66789631273161
 20
0.427189510544784
 30
0.0
 40
0.00832233323752432
 50
5.79998705937197
 51
82.1054885021802
  0
ARC
  8
3
  6
CONTINUOUS
 62
3
 10
1.6158168807775
 20
0.421899486641311
 30
0.0
 40
0.0606697456431244
 50
339.003176331941
 51
5.79998706045
  0
ARC
  8
3
  6
CONTINUOUS
 62
3
 10
1.63366401400012
 20
0.421854637386617
 30
0.0
 40
0.044447957017771
 50
305.791808212342
 51
330.785618909751
  0
LINE
  8
3
  6
CONTINUOUS
 62
3
 10
1.65965903311022
 20
0.38580079064984
 30
0.0
 11
1.62815478287162
 21
0.360095880768781
 31
0.0
  0
ARC
  8
3
  6
CONTINUOUS
 62
3
 10
1.63074674910998
 20
0.356919135419161
 30
0.0
 40
0.00409999999965437
 50
129.211652050831
 51
256.106199609161
  0
ARC
  8
3
  6
CONTINUOUS
 62
3
 10
1.61994164610663
 20
0.313237471800942
 30
0.0
 40
0.0408981998239874
 50
32.7646626172226
 51
76.1061996172768
  0
ARC
  8
3
  6
CONTINUOUS
 62
3
 10
1.59680963095998
 20
0.30917471408102
 30
0.0
 40
0.0632074953163815
 50
312.375063831416
 51
24.4847799193937
  0
ARC
  8
3
  6
CONTINUOUS
 62
3
 10
1.96609714301885
 20
0.333198139273746
 30
0.0
 40
0.00409999999900368
 50
269.99999999382
 51
348.943154621033
  0
LINE
  8
3
  6
CONTINUOUS
 62
3
 10
1.97012103632221
 20
0.332411829744961
 30
0.0
 11
1.97913241437581
 21
0.37852703301608
 31
0.0
  0
ARC
  8
3
  6
CONTINUOUS
 62
3
 10
1.97510852107201
 20
0.379313342546756
 30
0.0
 40
0.00409999999979761
 50
348.943154596285
 51
134.481230482035
  0
LINE
  8
3
  6
CONTINUOUS
 62
3
 10
1.97223575122261
 20
0.382238610635441
 30
0.0
 11
1.92527781875601
 21
0.33612340736426
 31
0.0
  0
ARC
  8
3
  6
CONTINUOUS
 62
3
 10
1.92815058860499
 20
0.333198139275284
 30
0.0
 40
0.00409999999970304
 50
134.481230474898
 51
270.0000000031
  0
LINE
  8
3
  6
CONTINUOUS
 62
3
 10
1.92815058860521
 20
0.329098139275581
 30
0.0
 11
1.96609714301841
 21
0.329098139274743
 31
0.0
  0
ARC
  8
3
  6
CONTINUOUS
 62
3
 10
2.01485351363011
 20
0.276878947905472
 30
0.0
 40
0.0407028175622853
 50
257.667649728736
 51
291.750214939074
  0
ARC
  8
3
  6
CONTINUOUS
 62
3
 10
1.96970720061044
 20
-0.0932963171694312
 30
0.0
 40
0.332416426047855
 50
83.7042596102448
 51
96.7105345230369
  0
ARC
  8
3
  6
CONTINUOUS
 62
3
 10
1.92375399815277
 20
0.293127508661194
 30
0.0
 40
0.0567319256278372
 50
262.543371971244
 51
277.198815692673
  0
ARC
  8
3
  6
CONTINUOUS
 62
3
 10
1.91729213081173
 20
0.250522761600467
 30
0.0
 40
0.0136770987104897
 50
176.725006833621
 51
266.224684802223
  0
ARC
  8
3
  6
CONTINUOUS
 62
3
 10
1.92477955141056
 20
0.251536112231998
 30
0.0
 40
0.0211434553748019
 50
130.599535274906
 51
180.628703446245
  0
ARC
  8
3
  6
CONTINUOUS
 62
3
 10
1.92836222239615
 20
0.248332081772264
 30
0.0
 40
0.0259154731733197
 50
89.4236682454688
 51
132.003927499343
  0
ARC
  8
3
  6
CONTINUOUS
 62
3
 10
1.9234669829107
 20
0.155904644401376
 30
0.0
 40
0.11845386289717
 50
75.2767427389045
 51
87.5053107322645
  0
ARC
  8
3
  6
CONTINUOUS
 62
3
 10
1.95461411492745
 20
0.274434410612107
 30
0.0
 40
0.00409999999926924
 50
255.276742740585
 51
348.943154631423
  0
LINE
  8
3
  6
CONTINUOUS
 62
3
 10
1.95863800823121
 20
0.273648101084001
 30
0.0
 11
1.96136636128941
 21
0.28761028924992
 31
0.0
  0
ARC
  8
3
  6
CONTINUOUS
 62
3
 10
1.95734246798506
 20
0.288396598778883
 30
0.0
 40
0.0041000000000184
 50
348.94315462128
 51
90.0000000229964
  0
LINE
  8
3
  6
CONTINUOUS
 62
3
 10
1.95734246798341
 20
0.292496598778901
 30
0.0
 11
1.8845394060338
 21
0.2924965987791
 31
0.0
  0
ARC
  8
3
  6
CONTINUOUS
 62
3
 10
1.88352792510724
 20
0.351537522712115
 30
0.0
 40
0.0590495875728931
 50
262.014277043164
 51
270.981487339329
  0
ARC
  8
3
  6
CONTINUOUS
 62
3
 10
1.8767190108683
 20
0.307722977351955
 30
0.0
 40
0.0147285979956801
 50
181.315348028612
 51
264.566608625141
  0
ARC
  8
3
  6
CONTINUOUS
 62
3
 10
1.89553706856762
 20
0.307517541407873
 30
0.0
 40
0.0335430369871729
 50
150.336729473006
 51
180.226602556271
  0
ARC
  8
3
  6
CONTINUOUS
 62
3
 10
1.95398886983764
 20
0.266437211538083
 30
0.0
 40
0.104884039069245
 50
133.247572633471
 51
146.636508986226
  0
LINE
  8
3
  6
CONTINUOUS
 62
3
 10
1.88212734686881
 20
0.34283474532078
 30
0.0
 11
1.9646446628614
 21
0.422810812827123
 31
0.0
  0
ARC
  8
3
  6
CONTINUOUS
 62
3
 10
2.03859347726742
 20
0.35153907214779
 30
0.0
 40
0.102703885863765
 50
127.646996011062
 51
136.056101557944
  0
ARC
  8
3
  6
CONTINUOUS
 62
3
 10
1.98557961592365
 20
0.420358272031765
 30
0.0
 40
0.015833122803889
 50
92.5161141923162
 51
127.859138139397
  0
LINE
  8
3
  6
CONTINUOUS
 62
3
 10
1.9848845360746
 20
0.436176130348442
 30
0.0
 11
1.99275314245081
 21
0.436024788910161
 31
0.0
  0
ARC
  8
3
  6
CONTINUOUS
 62
3
 10
2.00489008991564
 20
0.590896034137157
 30
0.0
 40
0.155346091331337
 50
265.519003627301
 51
273.723340803262
  0
ARC
  8
3
  6
CONTINUOUS
 62
3
 10
2.01595327354668
 20
0.406967616743346
 30
0.0
 40
0.0289266660739225
 50
68.6273383246117
 51
91.9319507380946
  0
ARC
  8
3
  6
CONTINUOUS
 62
3
 10
2.02162912349381
 20
0.424152386241956
 30
0.0
 40
0.0108991249754752
 50
4.29857403289467
 51
63.48354304049
  0
ARC
  8
3
  6
CONTINUOUS
 62
3
 10
1.99929640752939
 20
0.422019517114219
 30
0.0
 40
0.0333319635284537
 50
346.427256464559
 51
5.07718510541745
  0
LINE
  8
3
  6
CONTINUOUS
 62
3
 10
2.03169750102061
 20
0.414197181578361
 30
0.0
 11
2.0281774504878
 21
0.39702336383984
 31
0.0
  0
LINE
  8
3
  6
CONTINUOUS
 62
3
 10
2.0281774504878
 20
0.39702336383984
 30
0.0
 11
2.01602123951101
 21
0.333974346977223
 31
0.0
  0
ARC
  8
3
  6
CONTINUOUS
 62
3
 10
2.02004709365686
 20
0.333198139278851
 30
0.0
 40
0.00409999999935131
 50
169.086958374296
 51
270.000000016084
  0
LINE
  8
3
  6
CONTINUOUS
 62
3
 10
2.02004709365801
 20
0.3290981392795
 30
0.0
 11
2.03951932764201
 21
0.32909813927726
 31
0.0
  0
ARC
  8
3
  6
CONTINUOUS
 62
3
 10
2.04046347475657
 20
0.306550810959109
 30
0.0
 40
0.0225670872746224
 50
68.2136733295976
 51
92.3978033968318
  0
ARC
  8
3
  6
CONTINUOUS
 62
3
 10
2.03952135151942
 20
0.31365429727254
 30
0.0
 40
0.0166940758234853
 50
350.034922005097
 51
56.0719855481477
  0
ARC
  8
3
  6
CONTINUOUS
 62
3
 10
2.03353786198079
 20
0.315390873765614
 30
0.0
 40
0.0228977555456861
 50
269.000987262846
 51
348.34579460091
  0
LINE
  8
3
  6
CONTINUOUS
 62
3
 10
2.03313863553541
 20
0.292496598776541
 30
0.0
 11
2.01140910046901
 21
0.29249659877956
 31
0.0
  0
ARC
  8
3
  6
CONTINUOUS
 62
3
 10
2.01140910046962
 20
0.288396598780463
 30
0.0
 40
0.00409999999909706
 50
90.0000000085217
 51
169.08695838948
  0
LINE
  8
3
  6
CONTINUOUS
 62
3
 10
2.00738324632381
 20
0.28917280647772
 30
0.0
 11
2.00475061321441
 21
0.275518475404881
 31
0.0
  0
ARC
  8
3
  6
CONTINUOUS
 62
3
 10
2.00877646736044
 20
0.274742267706463
 30
0.0
 40
0.00409999999954052
 50
169.086958374146
 51
282.197856016373
  0
LINE
  8
3
  6
CONTINUOUS
 62
3
 10
2.00964274906981
 20
0.270734830121641
 30
0.0
 11
2.02268305329581
 21
0.273553732917761
 31
0.0
  0
ARC
  8
3
  6
CONTINUOUS
 62
3
 10
2.02731488089802
 20
0.250928158524957
 30
0.0
 40
0.0230948142131724
 50
78.9769946752103
 51
101.569535159329
  0
ARC
  8
3
  6
CONTINUOUS
 62
3
 10
2.0293957108946
 20
0.261250460553967
 30
0.0
 40
0.0125652806620667
 50
13.2175252523668
 51
79.2906378444277
  0
ARC
  8
3
  6
CONTINUOUS
 62
3
 10
2.02089443945181
 20
0.259089676582803
 30
0.0
 40
0.0213360033295607
 50
343.572650213087
 51
13.646491375206
  0
ARC
  8
3
  6
CONTINUOUS
 62
3
 10
2.01963682430104
 20
0.259145683512548
 30
0.0
 40
0.0225601407441043
 50
297.163939567243
 51
344.339487169275
  0
ARC
  8
3
  6
CONTINUOUS
 62
3
 10
2.35160725756975
 20
0.341629670686322
 30
0.0
 40
0.105453540338557
 50
238.253138303346
 51
313.282115339453
  0
ARC
  8
3
  6
CONTINUOUS
 62
3
 10
2.31440166132559
 20
0.279945250620937
 30
0.0
 40
0.0334319027599555
 50
158.235988528876
 51
236.852144824689
  0
ARC
  8
3
  6
CONTINUOUS
 62
3
 10
2.31327855041936
 20
0.28032921975467
 30
0.0
 40
0.0322465341087983
 50
62.7702596939781
 51
158.129677305909
  0
ARC
  8
3
  6
CONTINUOUS
 62
3
 10
2.31943743380977
 20
0.291948123106912
 30
0.0
 40
0.0190978638951588
 50
327.297133337588
 51
63.2503128444051
  0
ARC
  8
3
  6
CONTINUOUS
 62
3
 10
2.34963407832016
 20
0.267892584692
 30
0.0
 40
0.019704317566603
 50
135.799449781862
 51
152.220112831444
  0
ARC
  8
3
  6
CONTINUOUS
 62
3
 10
2.33582824201124
 20
0.275165384053493
 30
0.0
 40
0.00409999999929987
 50
152.220112860458
 51
242.150443100242
  0
ARC
  8
3
  6
CONTINUOUS
 62
3
 10
2.35387908147915
 20
0.309330187784411
 30
0.0
 40
0.042740220229888
 50
242.150443063699
 51
308.505375136959
  0
ARC
  8
3
  6
CONTINUOUS
 62
3
 10
2.35829497870016
 20
0.300896546478176
 30
0.0
 40
0.0334394046250418
 50
311.582487828691
 51
47.4016169715424
  0
ARC
  8
3
  6
CONTINUOUS
 62
3
 10
2.3566671551817
 20
0.290441108313349
 30
0.0
 40
0.0426447432715292
 50
55.3250337741268
 51
98.1753015028523
  0
LINE
  8
3
  6
CONTINUOUS
 62
3
 10
2.35060297641659
 20
0.3326524795846
 30
0.0
 11
2.33162805976039
 21
0.329866843986339
 31
0.0
  0
ARC
  8
3
  6
CONTINUOUS
 62
3
 10
2.32426389957262
 20
0.362439392907768
 30
0.0
 40
0.0333946372717238
 50
250.666628116044
 51
282.739532553941
  0
ARC
  8
3
  6
CONTINUOUS
 62
3
 10
2.3197010871964
 20
0.35109023346063
 30
0.0
 40
0.0211819885038051
 50
150.107536315225
 51
252.149659795328
  0
ARC
  8
3
  6
CONTINUOUS
 62
3
 10
1.8770329164675
 20
0.51850287514087
 30
0.0
 40
0.452369181260185
 50
339.711735114132
 51
347.624680347599
  0
ARC
  8
3
  6
CONTINUOUS
 62
3
 10
2.35617421560849
 20
0.411644194336317
 30
0.0
 40
0.0385774781545433
 50
147.762791584342
 51
165.115637493971
  0
ARC
  8
3
  6
CONTINUOUS
 62
3
 10
2.33062256462585
 20
0.427758111089207
 30
0.0
 40
0.00836911538762251
 50
85.483105066254
 51
147.76279172483
  0
LINE
  8
3
  6
CONTINUOUS
 62
3
 10
2.33128165803479
 20
0.436101233301522
 30
0.0
 11
2.34507992857399
 21
0.435011191786182
 31
0.0
  0
ARC
  8
3
  6
CONTINUOUS
 62
3
 10
2.38478864470052
 20
0.796075854256207
 30
0.0
 40
0.363241617413273
 50
263.72401802686
 51
275.025240579466
  0
ARC
  8
3
  6
CONTINUOUS
 62
3
 10
2.44912912058015
 20
0.0417166816739594
 30
0.0
 40
0.393858832093508
 50
90.754718423609
 51
94.7365313439979
  0
ARC
  8
3
  6
CONTINUOUS
 62
3
 10
2.44405147297624
 20
0.427172955686926
 30
0.0
 40
0.0083691153938947
 50
344.173951694076
 51
90.7547184746308
  0
ARC
  8
3
  6
CONTINUOUS
 62
3
 10
2.54953131218654
 20
0.397273369015328
 30
0.0
 40
0.101266562024376
 50
164.173951641788
 51
176.829585262584
  0
ARC
  8
3
  6
CONTINUOUS
 62
3
 10
2.41404711783733
 20
0.402747306432393
 30
0.0
 40
0.0343728588780844
 50
327.073518690395
 51
0.211204185640188
  0
ARC
  8
3
  6
CONTINUOUS
 62
3
 10
2.42250386617133
 20
0.401163788443879
 30
0.0
 40
0.0266151366709695
 50
256.835146064501
 51
320.021361618438
  0
ARC
  8
3
  6
CONTINUOUS
 62
3
 10
2.42108578372541
 20
0.388551746397381
 30
0.0
 40
0.0140907538288228
 50
179.834855105662
 51
250.75852098149
  0
ARC
  8
3
  6
CONTINUOUS
 62
3
 10
2.40279510587421
 20
0.388604466169139
 30
0.0
 40
0.00420000000011417
 50
359.83485510741
 51
86.594431154897
  0
ARC
  8
3
  6
CONTINUOUS
 62
3
 10
2.38076741780117
 20
0.018444010516062
 30
0.0
 40
0.37501529360481
 50
86.5944311532351
 51
93.2317023237277
  0
ARC
  8
3
  6
CONTINUOUS
 62
3
 10
2.35985745995603
 20
0.388769446711984
 30
0.0
 40
0.0040999999988634
 50
93.2317023279508
 51
160.795360276091
  0
ARC
  8
3
  6
CONTINUOUS
 62
3
 10
2.51315525211361
 20
0.335371587608851
 30
0.0
 40
0.166431587920585
 50
160.795360228852
 51
168.937568688467
  0
ARC
  8
3
  6
CONTINUOUS
 62
3
 10
2.35383999788538
 20
0.366519528265213
 30
0.0
 40
0.00409999999963255
 50
168.937568699134
 51
283.826144360097
  0
ARC
  8
3
  6
CONTINUOUS
 62
3
 10
2.37915985666465
 20
0.263638209309823
 30
0.0
 40
0.101851220090571
 50
86.1779730777084
 51
103.826144362971
  0
ARC
  8
3
  6
CONTINUOUS
 62
3
 10
2.38280621661589
 20
0.301614045400673
 30
0.0
 40
0.0637264017324908
 50
34.4580657384227
 51
87.1732045369979
  0
ARC
  8
3
  6
CONTINUOUS
 62
3
 10
2.37953147032853
 20
0.309141144771015
 30
0.0
 40
0.0626879220821177
 50
315.060454623785
 51
27.0715853110775
  0
ARC
  8
3
  6
CONTINUOUS
 62
3
 10
2.75364119240273
 20
0.302511498514725
 30
0.0
 40
0.0267115840134072
 50
325.623232549169
 51
34.1851694955701
  0
ARC
  8
3
  6
CONTINUOUS
 62
3
 10
2.75153466298577
 20
0.294964389234345
 30
0.0
 40
0.0330838226626942
 50
42.9820411162231
 51
105.827274671348
  0
ARC
  8
3
  6
CONTINUOUS
 62
3
 10
2.74617211622748
 20
0.298862843196311
 30
0.0
 40
0.0281699683586198
 50
97.466682909136
 51
223.091236335958
  0
ARC
  8
3
  6
CONTINUOUS
 62
3
 10
2.74679226217849
 20
0.308221911613195
 30
0.0
 40
0.0355986335583032
 50
233.466236172536
 51
324.261603176232
  0
ARC
  8
3
  6
CONTINUOUS
 62
3
 10
2.74786938722229
 20
0.322206954662039
 30
0.0
 40
0.0862689050783548
 50
238.363992106524
 51
312.325939903738
  0
ARC
  8
3
  6
CONTINUOUS
 62
3
 10
2.74739599613684
 20
0.313891271864052
 30
0.0
 40
0.0790398483030267
 50
182.064706657657
 51
235.493134693714
  0
ARC
  8
3
  6
CONTINUOUS
 62
3
 10
2.79522049687572
 20
0.317683174885351
 30
0.0
 40
0.126986729567396
 50
154.237770229784
 51
182.997103452659
  0
ARC
  8
3
  6
CONTINUOUS
 62
3
 10
2.77760541878731
 20
0.330716996902566
 30
0.0
 40
0.105536484382829
 50
91.7440056462666
 51
156.454527715786
  0
ARC
  8
3
  6
CONTINUOUS
 62
3
 10
2.77693243573296
 20
0.354887005051949
 30
0.0
 40
0.0813572150584363
 50
55.8377355777888
 51
91.7883151131801
  0
ARC
  8
3
  6
CONTINUOUS
 62
3
 10
2.80599562605694
 20
0.399988572455843
 30
0.0
 40
0.027747238451452
 50
317.96422092111
 51
53.1980138088096
  0
ARC
  8
3
  6
CONTINUOUS
 62
3
 10
2.80533149973907
 20
0.404517600003658
 30
0.0
 40
0.0314090603414145
 50
260.243188014258
 51
312.631497422359
  0
ARC
  8
3
  6
CONTINUOUS
 62
3
 10
2.80093662831207
 20
0.390539298313441
 30
0.0
 40
0.0170017960783565
 50
164.176791334053
 51
266.871377888264
  0
ARC
  8
3
  6
CONTINUOUS
 62
3
 10
2.7769053691427
 20
0.398051576129702
 30
0.0
 40
0.00819508162015153
 50
339.45207094427
 51
82.4289915536574
  0
ARC
  8
3
  6
CONTINUOUS
 62
3
 10
2.7695705369461
 20
0.365237637641462
 30
0.0
 40
0.0417934247675768
 50
78.3848306434739
 51
131.871176376019
  0
ARC
  8
3
  6
CONTINUOUS
 62
3
 10
2.78014349394904
 20
0.356349603941441
 30
0.0
 40
0.0555028218557898
 50
133.875013815736
 51
178.698353696759
  0
ARC
  8
3
  6
CONTINUOUS
 62
3
 10
2.72875393622987
 20
0.357517273505345
 30
0.0
 40
0.00409999999957442
 50
178.69835369748
 51
296.667127001711
  0
ARC
  8
3
  6
CONTINUOUS
 62
3
 10
2.7649783089461
 20
0.285390062067154
 30
0.0
 40
0.0766126991780231
 50
75.1699720118422
 51
116.667126998564
  0
ARC
  8
3
  6
CONTINUOUS
 62
3
 10
2.77130289137651
 20
0.304218586304834
 30
0.0
 40
0.0568073282858573
 50
11.3205959379859
 51
76.4759176919038
  0
ARC
  8
3
  6
CONTINUOUS
 62
3
 10
2.7669685357398
 20
0.305198218096994
 30
0.0
 40
0.0608920035178011
 50
309.814972685266
 51
9.61592373518501
  0
ARC
  8
3
  6
CONTINUOUS
 62
3
 10
3.1332594424313
 20
0.26978767234409
 30
0.0
 40
0.0372688901340298
 50
323.752879698471
 51
341.227315578068
  0
ARC
  8
3
  6
CONTINUOUS
 62
3
 10
3.14046859301739
 20
0.264511227985876
 30
0.0
 40
0.0283350976324474
 50
253.888542336243
 51
323.738257644853
  0
ARC
  8
3
  6
CONTINUOUS
 62
3
 10
3.13844610593557
 20
0.258231783592954
 30
0.0
 40
0.0217419569995278
 50
202.36822000871
 51
254.416822184877
  0
ARC
  8
3
  6
CONTINUOUS
 62
3
 10
3.15452474743434
 20
0.265728400034245
 30
0.0
 40
0.0394720790521475
 50
178.5749131739
 51
203.549435677441
  0
ARC
  8
3
  6
CONTINUOUS
 62
3
 10
3.20170999870667
 20
0.265487312004031
 30
0.0
 40
0.0866537489233451
 50
141.286939695025
 51
179.191483428804
  0
ARC
  8
3
  6
CONTINUOUS
 62
3
 10
3.28430936888365
 20
0.196240823150622
 30
0.0
 40
0.194427691384165
 50
125.349705250414
 51
140.587667806037
  0
ARC
  8
3
  6
CONTINUOUS
 62
3
 10
3.46627073568358
 20
-0.0310504709782389
 30
0.0
 40
0.485385898004759
 50
122.254093147715
 51
127.346354425763
  0
ARC
  8
3
  6
CONTINUOUS
 62
3
 10
3.20499101465072
 20
0.38298727959785
 30
0.0
 40
0.00419999999998841
 50
302.254093147196
 51
109.352162699585
  0
ARC
  8
3
  6
CONTINUOUS
 62
3
 10
3.18522867883766
 20
0.439255378664607
 30
0.0
 40
0.0554376465781132
 50
252.512531901376
 51
289.352162700017
  0
ARC
  8
3
  6
CONTINUOUS
 62
3
 10
3.17705753036438
 20
0.423208759780047
 30
0.0
 40
0.0377942500901962
 50
229.077106822419
 51
257.022011022846
  0
ARC
  8
3
  6
CONTINUOUS
 62
3
 10
3.1454661437264
 20
0.378772983344875
 30
0.0
 40
0.0172871518686378
 50
66.7119760550901
 51
124.490751667567
  0
ARC
  8
3
  6
CONTINUOUS
 62
3
 10
3.13799861298273
 20
0.389642066057837
 30
0.0
 40
0.00409999999915444
 50
124.490751655226
 51
205.805329738232
  0
ARC
  8
3
  6
CONTINUOUS
 62
3
 10
3.10715327087428
 20
0.374727305106504
 30
0.0
 40
0.030162008465368
 50
298.906724425569
 51
25.8053297312769
  0
ARC
  8
3
  6
CONTINUOUS
 62
3
 10
3.10979520149823
 20
0.366274373916142
 30
0.0
 40
0.0215582291620417
 50
231.651223385203
 51
303.624872535038
  0
ARC
  8
3
  6
CONTINUOUS
 62
3
 10
3.10850695243211
 20
0.361787539084137
 30
0.0
 40
0.0173311295693221
 50
157.32965770077
 51
225.777729310698
  0
LINE
  8
3
  6
CONTINUOUS
 62
3
 10
3.09251486544327
 20
0.368467449704041
 30
0.0
 11
3.09620950863927
 21
0.379617916497361
 31
0.0
  0
ARC
  8
3
  6
CONTINUOUS
 62
3
 10
3.02836731103921
 20
0.408410203347126
 30
0.0
 40
0.0736991150370476
 50
337.003590661759
 51
3.47017682610912
  0
ARC
  8
3
  6
CONTINUOUS
 62
3
 10
3.12528735778383
 20
0.413047220639755
 30
0.0
 40
0.0233567272277768
 50
137.240247993229
 51
180.431951970605
  0
ARC
  8
3
  6
CONTINUOUS
 62
3
 10
3.12256988250202
 20
0.414676609024334
 30
0.0
 40
0.0202656878751889
 50
79.1764677713578
 51
135.406035638708
  0
ARC
  8
3
  6
CONTINUOUS
 62
3
 10
3.1249637360885
 20
0.42460549095093
 30
0.0
 40
0.010075674905008
 50
15.0989591390494
 51
81.9456132780838
  0
ARC
  8
3
  6
CONTINUOUS
 62
3
 10
3.13865002931648
 20
0.428298069545221
 30
0.0
 40
0.0040999999994621
 50
195.098959130139
 51
313.472219311692
  0
ARC
  8
3
  6
CONTINUOUS
 62
3
 10
3.16754786473706
 20
0.397816519123593
 30
0.0
 40
0.0379024976417631
 50
93.6475350569587
 51
133.472219316543
  0
ARC
  8
3
  6
CONTINUOUS
 62
3
 10
3.17310437983171
 20
0.370433688013514
 30
0.0
 40
0.0656935383902123
 50
62.7072627708032
 51
96.9664226884731
  0
ARC
  8
3
  6
CONTINUOUS
 62
3
 10
3.26002539924156
 20
0.530768989433945
 30
0.0
 40
0.116708447681779
 50
240.878276508419
 51
251.571891580482
  0
ARC
  8
3
  6
CONTINUOUS
 62
3
 10
3.22442823579568
 20
0.423934985277184
 30
0.0
 40
0.00409999999884604
 50
251.571891551228
 51
319.200909300407
  0
LINE
  8
3
  6
CONTINUOUS
 62
3
 10
3.22753195803947
 20
0.421256010058201
 30
0.0
 11
3.23398282490747
 21
0.428729651036542
 31
0.0
  0
ARC
  8
3
  6
CONTINUOUS
 62
3
 10
3.24651220444192
 20
0.417798545017407
 30
0.0
 40
0.0166275202697155
 50
87.0572873934895
 51
138.897321264795
  0
ARC
  8
3
  6
CONTINUOUS
 62
3
 10
3.24835831384856
 20
0.416936751547757
 30
0.0
 40
0.0174955620933951
 50
354.219710656311
 51
93.2520428242011
  0
ARC
  8
3
  6
CONTINUOUS
 62
3
 10
3.21775168439707
 20
0.416243185867616
 30
0.0
 40
0.0480251213706887
 50
325.510206496144
 51
358.725154331324
  0
ARC
  8
3
  6
CONTINUOUS
 62
3
 10
3.10313800582851
 20
0.501502260850236
 30
0.0
 40
0.1908471869293
 50
309.38850528977
 51
323.897293113546
  0
ARC
  8
3
  6
CONTINUOUS
 62
3
 10
3.37404423327257
 20
0.171072143707847
 30
0.0
 40
0.236439981098006
 50
129.313379532205
 51
144.888534036442
  0
ARC
  8
3
  6
CONTINUOUS
 62
3
 10
3.23023676603127
 20
0.273102344975431
 30
0.0
 40
0.0601205734055102
 50
145.603928815927
 51
178.104535000726
  0
ARC
  8
3
  6
CONTINUOUS
 62
3
 10
3.08726139109632
 20
0.274051519304041
 30
0.0
 40
0.0828942137116175
 50
348.689632142452
 51
0.71842813196106
  0
ARC
  8
3
  6
CONTINUOUS
 62
3
 10
3.56256975843881
 20
0.394456623271106
 30
0.0
 40
0.0306709939706824
 50
267.634244531482
 51
305.594673218489
  0
ARC
  8
3
  6
CONTINUOUS
 62
3
 10
3.56989732307069
 20
0.384025678231323
 30
0.0
 40
0.0179243856927225
 50
305.955433208957
 51
1.21050428463497
  0
ARC
  8
3
  6
CONTINUOUS
 62
3
 10
3.57286701996661
 20
0.385378884759862
 30
0.0
 40
0.0149824169878991
 50
356.270525616353
 51
60.7218145751656
  0
ARC
  8
3
  6
CONTINUOUS
 62
3
 10
3.56453750980451
 20
0.366759141392034
 30
0.0
 40
0.035345095061562
 50
63.7067378519185
 51
92.3025705295354
  0
ARC
  8
3
  6
CONTINUOUS
 62
3
 10
3.56122282345357
 20
0.373398192010515
 30
0.0
 40
0.0287400251283665
 50
86.2201267959045
 51
126.468293264584
  0
ARC
  8
3
  6
CONTINUOUS
 62
3
 10
3.55480987290198
 20
0.382443409786424
 30
0.0
 40
0.0176556319046673
 50
127.179242698034
 51
181.764461756871
  0
ARC
  8
3
  6
CONTINUOUS
 62
3
 10
3.552813751894
 20
0.381496785349039
 30
0.0
 40
0.0156563268738366
 50
178.525045356388
 51
234.497015519859
  0
ARC
  8
3
  6
CONTINUOUS
 62
3
 10
3.55990753494541
 20
0.392604491221305
 30
0.0
 40
0.0288265510045283
 50
235.840370344602
 51
272.77612201824
  0
ARC
  8
3
  6
CONTINUOUS
 62
3
 10
3.55485881464224
 20
0.303007661301662
 30
0.0
 40
0.0256322846111587
 50
312.757817994108
 51
358.484806003943
  0
ARC
  8
3
  6
CONTINUOUS
 62
3
 10
3.55752000562929
 20
0.302329980900113
 30
0.0
 40
0.0229621312468972
 50
359.999776580194
 51
51.6299661263262
  0
ARC
  8
3
  6
CONTINUOUS
 62
3
 10
3.54989516884953
 20
0.291697746532973
 30
0.0
 40
0.0360363864410272
 50
52.6186716581057
 51
90.9959662743902
  0
ARC
  8
3
  6
CONTINUOUS
 62
3
 10
3.54648019146445
 20
0.290155704828784
 30
0.0
 40
0.037676323603543
 50
85.7554029533531
 51
146.315495785124
  0
ARC
  8
3
  6
CONTINUOUS
 62
3
 10
3.53623761783385
 20
0.298707730128756
 30
0.0
 40
0.0244524855838421
 50
149.680891480555
 51
179.685905774133
  0
ARC
  8
3
  6
CONTINUOUS
 62
3
 10
3.53358321011847
 20
0.298396795673681
 30
0.0
 40
0.0218022519351054
 50
178.830517666692
 51
233.333529690169
  0
ARC
  8
3
  6
CONTINUOUS
 62
3
 10
3.54215298304906
 20
0.311074111345403
 30
0.0
 40
0.0370950724053819
 50
234.409077040084
 51
271.952819756877
  0
ARC
  8
3
  6
CONTINUOUS
 62
3
 10
3.54522576455627
 20
0.314806522728245
 30
0.0
 40
0.0408460055107542
 50
267.462044536719
 51
311.442807832481
  0
ARC
  8
3
  6
CONTINUOUS
 62
3
 10
3.54804698599794
 20
0.331288555973289
 30
0.0
 40
0.0944813185728451
 50
267.12439996374
 51
308.707892550694
  0
ARC
  8
3
  6
CONTINUOUS
 62
3
 10
3.53973082491982
 20
0.352412888943719
 30
0.0
 40
0.11554204125652
 50
246.079901814295
 51
271.773702659733
  0
ARC
  8
3
  6
CONTINUOUS
 62
3
 10
3.51184032673412
 20
0.293306141941836
 30
0.0
 40
0.0502266156816286
 50
207.327404511217
 51
247.82491609707
  0
ARC
  8
3
  6
CONTINUOUS
 62
3
 10
3.5107960422496
 20
0.292375636574346
 30
0.0
 40
0.0488729380548519
 50
179.788133099815
 51
206.920300207307
  0
ARC
  8
3
  6
CONTINUOUS
 62
3
 10
3.52105715647376
 20
0.292508170661878
 30
0.0
 40
0.0591337377794051
 50
154.612079031969
 51
179.953311073452
  0
ARC
  8
3
  6
CONTINUOUS
 62
3
 10
3.5250560575584
 20
0.290089381669126
 30
0.0
 40
0.0637852274075653
 50
131.30030437343
 51
154.18927403843
  0
ARC
  8
3
  6
CONTINUOUS
 62
3
 10
3.52665277384257
 20
0.280046542369517
 30
0.0
 40
0.0725871524124034
 50
113.400443809379
 51
127.011157915349
  0
ARC
  8
3
  6
CONTINUOUS
 62
3
 10
3.49615637236523
 20
0.350518070468011
 30
0.0
 40
0.00419999999998662
 50
293.400443811138
 51
53.8077323799535
  0
ARC
  8
3
  6
CONTINUOUS
 62
3
 10
3.51448737673724
 20
0.375571305295538
 30
0.0
 40
0.0268433615546153
 50
173.896104494801
 51
233.807732378617
  0
ARC
  8
3
  6
CONTINUOUS
 62
3
 10
3.54041520951951
 20
0.378095837348972
 30
0.0
 40
0.0526200450534012
 50
126.29311777075
 51
179.640927465641
  0
ARC
  8
3
  6
CONTINUOUS
 62
3
 10
3.55952746121721
 20
0.351172460386566
 30
0.0
 40
0.0856347770664359
 50
86.777639449434
 51
125.937220115287
  0
ARC
  8
3
  6
CONTINUOUS
 62
3
 10
3.56911599094656
 20
0.345738992404019
 30
0.0
 40
0.0910581272693463
 50
53.6875054575904
 51
93.0058507558471
  0
ARC
  8
3
  6
CONTINUOUS
 62
3
 10
3.59644035542499
 20
0.38759793276425
 30
0.0
 40
0.0412402048858727
 50
359.645258452149
 51
49.8355664448777
  0
ARC
  8
3
  6
CONTINUOUS
 62
3
 10
3.59384105230273
 20
0.387510071061575
 30
0.0
 40
0.0438390374535758
 50
322.342654381985
 51
359.781121124014
  0
ARC
  8
3
  6
CONTINUOUS
 62
3
 10
3.59686519904468
 20
0.387239515403759
 30
0.0
 40
0.041311895026672
 50
293.558176553465
 51
320.076727021885
  0
ARC
  8
3
  6
CONTINUOUS
 62
3
 10
3.61505539419144
 20
0.345520821878647
 30
0.0
 40
0.00420000000000758
 50
113.558176554353
 51
236.185282930625
  0
ARC
  8
3
  6
CONTINUOUS
 62
3
 10
3.59034575760039
 20
0.30863050899309
 30
0.0
 40
0.0402011410355109
 50
359.148277632682
 51
56.1852829299492
  0
ARC
  8
3
  6
CONTINUOUS
 62
3
 10
3.56514252450069
 20
0.308083192861734
 30
0.0
 40
0.0653999517319982
 50
334.847946742227
 51
359.955962568994
  0
ARC
  8
3
  6
CONTINUOUS
 62
3
 10
3.56038652497307
 20
0.310840036228644
 30
0.0
 40
0.0708783060577362
 50
311.261885985828
 51
334.464742016827
  0
ARC
  8
3
  6
CONTINUOUS
 62
3
 10
3.93839438423211
 20
0.378644274773171
 30
0.0
 40
0.0281699683633827
 50
277.466682876606
 51
43.0912363684569
  0
ARC
  8
3
  6
CONTINUOUS
 62
3
 10
3.93777423829433
 20
0.369285206353851
 30
0.0
 40
0.0355986335599487
 50
53.4662362158906
 51
144.261603219587
  0
ARC
  8
3
  6
CONTINUOUS
 62
3
 10
3.93092530804229
 20
0.374995619435608
 30
0.0
 40
0.0267115840021781
 50
145.623232543581
 51
214.185169438527
  0
ARC
  8
3
  6
CONTINUOUS
 62
3
 10
3.93303183746917
 20
0.382542728740394
 30
0.0
 40
0.0330838226714282
 50
222.982041092888
 51
285.827274648014
  0
ARC
  8
3
  6
CONTINUOUS
 62
3
 10
3.90368645349763
 20
0.341348279033374
 30
0.0
 40
0.105536484372613
 50
271.74400559648
 51
305.066209561488
  0
ARC
  8
3
  6
CONTINUOUS
 62
3
 10
3.90435943654353
 20
0.317178270779536
 30
0.0
 40
0.0813572149440072
 50
235.837735521459
 51
271.788315056849
  0
ARC
  8
3
  6
CONTINUOUS
 62
3
 10
3.87529624621172
 20
0.272076703505475
 30
0.0
 40
0.0277472384400974
 50
137.964220970243
 51
233.198013806489
  0
ARC
  8
3
  6
CONTINUOUS
 62
3
 10
3.8759603725465
 20
0.267547675930245
 30
0.0
 40
0.0314090603595186
 50
80.2431880443721
 51
132.631497452472
  0
ARC
  8
3
  6
CONTINUOUS
 62
3
 10
3.88035524396157
 20
0.281525977634944
 30
0.0
 40
0.0170017960844364
 50
344.17679128801
 51
86.8713778936774
  0
ARC
  8
3
  6
CONTINUOUS
 62
3
 10
3.90438650311664
 20
0.274013699806552
 30
0.0
 40
0.00819508160384004
 50
159.452070921467
 51
262.4289914794
  0
ARC
  8
3
  6
CONTINUOUS
 62
3
 10
3.91172133534151
 20
0.306827638304591
 30
0.0
 40
0.0417934247673452
 50
258.384830592118
 51
311.871176324664
  0
ARC
  8
3
  6
CONTINUOUS
 62
3
 10
3.90114837833511
 20
0.315715671963163
 30
0.0
 40
0.0555028218267662
 50
313.875013809326
 51
358.69835372507
  0
ARC
  8
3
  6
CONTINUOUS
 62
3
 10
3.95253793602533
 20
0.314548002425819
 30
0.0
 40
0.00410000000009211
 50
358.698353718863
 51
116.667126973885
  0
ARC
  8
3
  6
CONTINUOUS
 62
3
 10
3.916313563369
 20
0.386675213895709
 30
0.0
 40
0.0766126991789548
 50
255.169971957147
 51
296.667126949391
  0
ARC
  8
3
  6
CONTINUOUS
 62
3
 10
3.90998898090437
 20
0.367846689648832
 30
0.0
 40
0.0568073282681793
 50
191.320595895602
 51
256.475917649519
  0
ARC
  8
3
  6
CONTINUOUS
 62
3
 10
3.91432333645564
 20
0.366867057895029
 30
0.0
 40
0.0608920034235499
 50
129.81497269756
 51
189.61592374418
  0
ARC
  8
3
  6
CONTINUOUS
 62
3
 10
3.93342248508887
 20
0.349858321298704
 30
0.0
 40
0.0862689050858294
 50
58.3639921607607
 51
132.325939957974
  0
ARC
  8
3
  6
CONTINUOUS
 62
3
 10
3.933895876079
 20
0.358174004093239
 30
0.0
 40
0.0790398483632445
 50
2.06470669923661
 51
55.4931346975863
  0
ARC
  8
3
  6
CONTINUOUS
 62
3
 10
3.88607137520497
 20
0.35438210109151
 30
0.0
 40
0.126986729762487
 50
334.237770211687
 51
2.99710346608865
  0
ARC
  8
3
  6
CONTINUOUS
 62
3
 10
3.90368645349769
 20
0.341348279033407
 30
0.0
 40
0.105536484372593
 50
305.066209561461
 51
336.454527665971
  0
ARC
  8
3
  6
CONTINUOUS
 62
3
 10
4.28701142922338
 20
0.2892380849173
 30
0.0
 40
0.0530619545670205
 50
256.990589636458
 51
289.652705770094
  0
ARC
  8
3
  6
CONTINUOUS
 62
3
 10
4.24252383620335
 20
-0.0396635738342085
 30
0.0
 40
0.279105321086773
 50
83.3042712597658
 51
94.9628708573541
  0
ARC
  8
3
  6
CONTINUOUS
 62
3
 10
4.18912808906799
 20
0.443753645790849
 30
0.0
 40
0.207430953456929
 50
271.758549117475
 51
278.106423450113
  0
ARC
  8
3
  6
CONTINUOUS
 62
3
 10
4.1941286789961
 20
0.251476811950865
 30
0.0
 40
0.015118170682652
 50
200.934650809094
 51
275.180137323471
  0
ARC
  8
3
  6
CONTINUOUS
 62
3
 10
4.20095349539515
 20
0.252280036192044
 30
0.0
 40
0.0218448061604018
 50
134.319038465217
 51
196.501998356627
  0
ARC
  8
3
  6
CONTINUOUS
 62
3
 10
4.20115330483964
 20
0.252201723463584
 30
0.0
 40
0.0220406099590594
 50
88.5949917514906
 51
134.548429958332
  0
ARC
  8
3
  6
CONTINUOUS
 62
3
 10
4.19946288163251
 20
0.229806687533146
 30
0.0
 40
0.0444849913163406
 50
64.5552834569633
 51
87.1255049912042
  0
ARC
  8
3
  6
CONTINUOUS
 62
3
 10
4.22033693786307
 20
0.273678947078764
 30
0.0
 40
0.00409999999943889
 50
244.555283446766
 51
348.944894365578
  0
LINE
  8
3
  6
CONTINUOUS
 62
3
 10
4.22436085504071
 20
0.272892759732842
 30
0.0
 11
4.2484529434093
 21
0.396202513608503
 31
0.0
  0
ARC
  8
3
  6
CONTINUOUS
 62
3
 10
4.24433088190985
 20
0.397007876256495
 30
0.0
 40
0.00420000000000596
 50
348.944894353931
 51
100.545517543346
  0
LINE
  8
3
  6
CONTINUOUS
 62
3
 10
4.24356221220631
 20
0.401136937516261
 30
0.0
 11
4.22781345871611
 21
0.398205135609041
 31
0.0
  0
ARC
  8
3
  6
CONTINUOUS
 62
3
 10
4.22222518522137
 20
0.422127020622094
 30
0.0
 40
0.02456593949414
 50
248.785569229309
 51
283.148786593452
  0
ARC
  8
3
  6
CONTINUOUS
 62
3
 10
4.22273868693116
 20
0.412859871189449
 30
0.0
 40
0.016562047636174
 50
159.497581284868
 51
235.407303542495
  0
ARC
  8
3
  6
CONTINUOUS
 62
3
 10
4.23011074748381
 20
0.411470741546637
 30
0.0
 40
0.0239879042779575
 50
115.397426163713
 51
162.558509568786
  0
ARC
  8
3
  6
CONTINUOUS
 62
3
 10
4.23555344371153
 20
0.393900739132738
 30
0.0
 40
0.0422753912116014
 50
75.3761515043275
 51
111.845632983488
  0
ARC
  8
3
  6
CONTINUOUS
 62
3
 10
4.26451717717164
 20
0.535325467158671
 30
0.0
 40
0.102169387488813
 50
259.687310587788
 51
281.656190538366
  0
ARC
  8
3
  6
CONTINUOUS
 62
3
 10
4.29306106948137
 20
0.401301339346771
 30
0.0
 40
0.0348688396954642
 50
75.530380758131
 51
103.097763033794
  0
ARC
  8
3
  6
CONTINUOUS
 62
3
 10
4.29934702998407
 20
0.426827591291457
 30
0.0
 40
0.00858657432489991
 50
356.728951772259
 51
73.5843315654614
  0
ARC
  8
3
  6
CONTINUOUS
 62
3
 10
4.24559591009622
 20
0.432015137122143
 30
0.0
 40
0.0625817712286281
 50
341.809722664638
 51
354.794902791837
  0
ARC
  8
3
  6
CONTINUOUS
 62
3
 10
4.90202379435797
 20
0.238962307580308
 30
0.0
 40
0.621679561668062
 50
163.792957590255
 51
167.862367069105
  0
LINE
  8
3
  6
CONTINUOUS
 62
3
 10
4.2942416651257
 20
0.36967711462864
 30
0.0
 11
4.27456432046271
 21
0.27298306612244
 31
0.0
  0
ARC
  8
3
  6
CONTINUOUS
 62
3
 10
4.27858197344756
 20
0.272165469345333
 30
0.0
 40
0.00409999999958497
 50
168.49731543404
 51
303.623925121996
  0
ARC
  8
3
  6
CONTINUOUS
 62
3
 10
4.2987152927019
 20
0.241889823038459
 30
0.0
 40
0.0322588407890918
 50
73.6543622036527
 51
123.623925121743
  0
ARC
  8
3
  6
CONTINUOUS
 62
3
 10
4.30391421029857
 20
0.259129489596476
 30
0.0
 40
0.0142534981331702
 50
0.134950213134081
 51
74.205102743444
  0
ARC
  8
3
  6
CONTINUOUS
 62
3
 10
4.29643642684597
 20
0.259300986878003
 30
0.0
 40
0.0217316797445211
 50
292.79808111659
 51
359.636355185377
  0
ARC
  8
3
  6
CONTINUOUS
 62
3
 10
4.35801718969506
 20
0.34763256488035
 30
0.0
 40
0.110373752100681
 50
326.104482007983
 51
346.031951098017
  0
ARC
  8
3
  6
CONTINUOUS
 62
3
 10
4.38114013802847
 20
0.351142899400293
 30
0.0
 40
0.0892356612851051
 50
340.251218349569
 51
11.7146871287667
  0
ARC
  8
3
  6
CONTINUOUS
 62
3
 10
4.43194539151773
 20
0.362681601666442
 30
0.0
 40
0.0371588453024254
 50
10.1988882244745
 51
58.1676624401925
  0
ARC
  8
3
  6
CONTINUOUS
 62
3
 10
4.44007856558953
 20
0.366147560314482
 30
0.0
 40
0.0303528969493871
 50
67.8058033636071
 51
116.899999037667
  0
ARC
  8
3
  6
CONTINUOUS
 62
3
 10
4.4403380783983
 20
0.35807439768147
 30
0.0
 40
0.0378249696063364
 50
111.710689603313
 51
154.918471773836
  0
ARC
  8
3
  6
CONTINUOUS
 62
3
 10
4.50979073570139
 20
0.322114980250045
 30
0.0
 40
0.116014242538293
 50
153.373886994157
 51
173.240146249723
  0
ARC
  8
3
  6
CONTINUOUS
 62
3
 10
4.52505062221711
 20
0.315502493982376
 30
0.0
 40
0.132032592639464
 50
171.169613568353
 51
185.413425796251
  0
ARC
  8
3
  6
CONTINUOUS
 62
3
 10
4.42470415739504
 20
0.303210214518812
 30
0.0
 40
0.0310976791690578
 50
180.301952306968
 51
229.891023658476
  0
ARC
  8
3
  6
CONTINUOUS
 62
3
 10
4.42382505906427
 20
0.30523429992162
 30
0.0
 40
0.0321402100881611
 50
233.416462734367
 51
323.417326827852
  0
ARC
  8
3
  6
CONTINUOUS
 62
3
 10
4.41961743869733
 20
0.334702481814714
 30
0.0
 40
0.0988834213841831
 50
243.947443326121
 51
302.804485452542
  0
ARC
  8
3
  6
CONTINUOUS
 62
3
 10
4.40987628950549
 20
0.303597082683753
 30
0.0
 40
0.066840907463501
 50
175.411125325402
 51
239.734830061824
  0
ARC
  8
3
  6
CONTINUOUS
 62
3
 10
4.51051972387038
 20
0.311060740938444
 30
0.0
 40
0.167283462476612
 50
158.935481437309
 51
180.724773471631
  0
ARC
  8
3
  6
CONTINUOUS
 62
3
 10
4.44134849922736
 20
0.345643398196928
 30
0.0
 40
0.0906083786825726
 50
111.635306561338
 51
163.626566198142
  0
ARC
  8
3
  6
CONTINUOUS
 62
3
 10
4.44275192002091
 20
0.330912479549631
 30
0.0
 40
0.104900136189241
 50
89.0789373225459
 51
109.380746301212
  0
ARC
  8
3
  6
CONTINUOUS
 62
3
 10
4.44629491083591
 20
0.349617573971681
 30
0.0
 40
0.0862014865288968
 50
53.3467168069843
 51
91.2342154840233
  0
ARC
  8
3
  6
CONTINUOUS
 62
3
 10
4.45619272818585
 20
0.371643990848507
 30
0.0
 40
0.0628380340446977
 50
5.71566653256634
 51
48.5921580582216
  0
ARC
  8
3
  6
CONTINUOUS
 62
3
 10
4.35326409344616
 20
0.360315922465097
 30
0.0
 40
0.166386261287098
 50
341.459588793852
 51
6.06721933123564
  0
ARC
  8
3
  6
CONTINUOUS
 62
3
 10
4.39993899981377
 20
0.34195005406527
 30
0.0
 40
0.116322364431338
 50
309.029713424545
 51
342.726208543432
  0
LINE
  8
3
  6
CONTINUOUS
 62
3
 10
0.775590551000002
 20
1.53426220605623E-18
 30
0.0
 11
0.799212597000002
 21
5.69973356972721E-19
 31
0.0
  0
LINE
  8
3
  6
CONTINUOUS
 62
3
 10
0.775590551000002
 20
0.145669291
 30
0.0
 11
0.775590551000002
 21
1.53426220605623E-18
 31
0.0
  0
LINE
  8
3
  6
CONTINUOUS
 62
3
 10
0.799212597000002
 20
0.145669291
 30
0.0
 11
0.799212597000002
 21
5.69973356972721E-19
 31
0.0
  0
ARC
  8
3
  6
CONTINUOUS
 62
3
 10
0.787401575000002
 20
0.145669291
 30
0.0
 40
0.011811024
 50
89.9999999999991
 51
180
  0
ARC
  8
3
  6
CONTINUOUS
 62
3
 10
0.787401573000002
 20
0.145669291
 30
0.0
 40
0.011811024
 50
2.54444374517081E-14
 51
90.0000000000019
  0
LINE
  8
3
  6
CONTINUOUS
 62
3
 10
1.169291338
 20
1.53426220605623E-18
 30
0.0
 11
1.192913384
 21
5.69973356972721E-19
 31
0.0
  0
LINE
  8
3
  6
CONTINUOUS
 62
3
 10
1.169291338
 20
0.145669291
 30
0.0
 11
1.169291338
 21
1.53426220605623E-18
 31
0.0
  0
LINE
  8
3
  6
CONTINUOUS
 62
3
 10
1.192913384
 20
0.145669291
 30
0.0
 11
1.192913384
 21
5.69973356972721E-19
 31
0.0
  0
ARC
  8
3
  6
CONTINUOUS
 62
3
 10
1.181102362
 20
0.145669291
 30
0.0
 40
0.011811024
 50
89.9999999999988
 51
180
  0
ARC
  8
3
  6
CONTINUOUS
 62
3
 10
1.18110236
 20
0.145669291
 30
0.0
 40
0.011811024
 50
2.54444374517081E-14
 51
90.0000000000019
  0
LINE
  8
3
  6
CONTINUOUS
 62
3
 10
1.562992125
 20
1.53426220605623E-18
 30
0.0
 11
1.586614171
 21
5.69973356972721E-19
 31
0.0
  0
LINE
  8
3
  6
CONTINUOUS
 62
3
 10
1.562992125
 20
0.145669291
 30
0.0
 11
1.562992125
 21
1.53426220605623E-18
 31
0.0
  0
LINE
  8
3
  6
CONTINUOUS
 62
3
 10
1.586614171
 20
0.145669291
 30
0.0
 11
1.586614171
 21
5.69973356972721E-19
 31
0.0
  0
ARC
  8
3
  6
CONTINUOUS
 62
3
 10
1.574803149
 20
0.145669291
 30
0.0
 40
0.011811024
 50
89.9999999999988
 51
180
  0
ARC
  8
3
  6
CONTINUOUS
 62
3
 10
1.574803147
 20
0.145669291
 30
0.0
 40
0.011811024
 50
2.54444374517081E-14
 51
90.0000000000019
  0
LINE
  8
3
  6
CONTINUOUS
 62
3
 10
1.956692912
 20
1.53426220605623E-18
 30
0.0
 11
1.980314958
 21
5.69973356972721E-19
 31
0.0
  0
LINE
  8
3
  6
CONTINUOUS
 62
3
 10
1.956692912
 20
0.145669291
 30
0.0
 11
1.956692912
 21
1.53426220605623E-18
 31
0.0
  0
LINE
  8
3
  6
CONTINUOUS
 62
3
 10
1.980314958
 20
0.145669291
 30
0.0
 11
1.980314958
 21
5.69973356972721E-19
 31
0.0
  0
ARC
  8
3
  6
CONTINUOUS
 62
3
 10
1.968503936
 20
0.145669291
 30
0.0
 40
0.011811024
 50
89.9999999999988
 51
180
  0
ARC
  8
3
  6
CONTINUOUS
 62
3
 10
1.968503934
 20
0.145669291
 30
0.0
 40
0.011811024
 50
2.54444374517081E-14
 51
90.0000000000019
  0
LINE
  8
3
  6
CONTINUOUS
 62
3
 10
2.350393699
 20
1.53426220605623E-18
 30
0.0
 11
2.374015745
 21
5.69973356972721E-19
 31
0.0
  0
LINE
  8
3
  6
CONTINUOUS
 62
3
 10
2.350393699
 20
0.145669291
 30
0.0
 11
2.350393699
 21
1.53426220605623E-18
 31
0.0
  0
LINE
  8
3
  6
CONTINUOUS
 62
3
 10
2.374015745
 20
0.145669291
 30
0.0
 11
2.374015745
 21
5.69973356972721E-19
 31
0.0
  0
ARC
  8
3
  6
CONTINUOUS
 62
3
 10
2.362204723
 20
0.145669291
 30
0.0
 40
0.0118110239999999
 50
89.9999999999994
 51
180
  0
ARC
  8
3
  6
CONTINUOUS
 62
3
 10
2.362204721
 20
0.145669291
 30
0.0
 40
0.011811024
 50
2.54444374517081E-14
 51
90.0000000000019
  0
LINE
  8
3
  6
CONTINUOUS
 62
3
 10
2.744094486
 20
1.53426220605623E-18
 30
0.0
 11
2.767716532
 21
5.69973356972721E-19
 31
0.0
  0
LINE
  8
3
  6
CONTINUOUS
 62
3
 10
2.744094486
 20
0.145669291
 30
0.0
 11
2.744094486
 21
1.53426220605623E-18
 31
0.0
  0
LINE
  8
3
  6
CONTINUOUS
 62
3
 10
2.767716532
 20
0.145669291
 30
0.0
 11
2.767716532
 21
5.69973356972721E-19
 31
0.0
  0
ARC
  8
3
  6
CONTINUOUS
 62
3
 10
2.75590551
 20
0.145669291
 30
0.0
 40
0.0118110239999999
 50
89.9999999999994
 51
180
  0
ARC
  8
3
  6
CONTINUOUS
 62
3
 10
2.755905508
 20
0.145669291
 30
0.0
 40
0.011811024
 50
2.54444374517081E-14
 51
90.0000000000019
  0
LINE
  8
3
  6
CONTINUOUS
 62
3
 10
3.137795273
 20
1.53426220605623E-18
 30
0.0
 11
3.161417319
 21
5.69973356972721E-19
 31
0.0
  0
LINE
  8
3
  6
CONTINUOUS
 62
3
 10
3.137795273
 20
0.145669291
 30
0.0
 11
3.137795273
 21
1.53426220605623E-18
 31
0.0
  0
LINE
  8
3
  6
CONTINUOUS
 62
3
 10
3.161417319
 20
0.145669291
 30
0.0
 11
3.161417319
 21
5.69973356972721E-19
 31
0.0
  0
ARC
  8
3
  6
CONTINUOUS
 62
3
 10
3.149606297
 20
0.145669291
 30
0.0
 40
0.0118110239999999
 50
89.9999999999994
 51
180
  0
ARC
  8
3
  6
CONTINUOUS
 62
3
 10
3.149606295
 20
0.145669291
 30
0.0
 40
0.011811024
 50
2.54444374517081E-14
 51
90.0000000000019
  0
LINE
  8
3
  6
CONTINUOUS
 62
3
 10
3.53149606
 20
1.53426220605623E-18
 30
0.0
 11
3.555118106
 21
5.69973356972721E-19
 31
0.0
  0
LINE
  8
3
  6
CONTINUOUS
 62
3
 10
3.53149606
 20
0.145669291
 30
0.0
 11
3.53149606
 21
1.53426220605623E-18
 31
0.0
  0
LINE
  8
3
  6
CONTINUOUS
 62
3
 10
3.555118106
 20
0.145669291
 30
0.0
 11
3.555118106
 21
5.69973356972721E-19
 31
0.0
  0
ARC
  8
3
  6
CONTINUOUS
 62
3
 10
3.543307084
 20
0.145669291
 30
0.0
 40
0.0118110239999999
 50
89.9999999999994
 51
180
  0
ARC
  8
3
  6
CONTINUOUS
 62
3
 10
3.543307082
 20
0.145669291
 30
0.0
 40
0.011811024
 50
2.54444374517081E-14
 51
90.0000000000019
  0
LINE
  8
3
  6
CONTINUOUS
 62
3
 10
3.925196847
 20
1.53426220605623E-18
 30
0.0
 11
3.948818893
 21
5.69973356972721E-19
 31
0.0
  0
LINE
  8
3
  6
CONTINUOUS
 62
3
 10
3.925196847
 20
0.145669291
 30
0.0
 11
3.925196847
 21
1.53426220605623E-18
 31
0.0
  0
LINE
  8
3
  6
CONTINUOUS
 62
3
 10
3.948818893
 20
0.145669291
 30
0.0
 11
3.948818893
 21
5.69973356972721E-19
 31
0.0
  0
ARC
  8
3
  6
CONTINUOUS
 62
3
 10
3.937007871
 20
0.145669291
 30
0.0
 40
0.0118110239999999
 50
89.9999999999994
 51
180
  0
ARC
  8
3
  6
CONTINUOUS
 62
3
 10
3.937007869
 20
0.145669291
 30
0.0
 40
0.011811024
 50
2.54444374517081E-14
 51
90.0000000000019
  0
LINE
  8
3
  6
CONTINUOUS
 62
3
 10
4.318897634
 20
1.53426220605623E-18
 30
0.0
 11
4.34251968
 21
5.69973356972721E-19
 31
0.0
  0
LINE
  8
3
  6
CONTINUOUS
 62
3
 10
4.318897634
 20
0.145669291
 30
0.0
 11
4.318897634
 21
1.53426220605623E-18
 31
0.0
  0
LINE
  8
3
  6
CONTINUOUS
 62
3
 10
4.34251968
 20
0.145669291
 30
0.0
 11
4.34251968
 21
5.69973356972721E-19
 31
0.0
  0
ARC
  8
3
  6
CONTINUOUS
 62
3
 10
4.330708658
 20
0.145669291
 30
0.0
 40
0.0118110239999999
 50
89.9999999999994
 51
180
  0
ARC
  8
3
  6
CONTINUOUS
 62
3
 10
4.330708656
 20
0.145669291
 30
0.0
 40
0.0118110239999998
 50
359.999999999999
 51
90.0000000000008
  0
ARC
  8
4
  6
CONTINUOUS
 62
4
 10
1.48259123304297
 20
0.768115661716837
 30
0.0
 40
0.12462145530478
 50
221.90468464622
 51
270.41895010716
  0
ARC
  8
4
  6
CONTINUOUS
 62
4
 10
1.4883260902072
 20
0.756589050739263
 30
0.0
 40
0.121824753137932
 50
176.837373587915
 51
216.058413952634
  0
ARC
  8
4
  6
CONTINUOUS
 62
4
 10
1.59277243131224
 20
0.764840984869196
 30
0.0
 40
0.22609073334332
 50
154.986245641939
 51
180.387946497958
  0
ARC
  8
4
  6
CONTINUOUS
 62
4
 10
1.55982729585913
 20
0.783846378668131
 30
0.0
 40
0.188228279761327
 50
129.024878630488
 51
155.988494869511
  0
ARC
  8
4
  6
CONTINUOUS
 62
4
 10
1.54087917570889
 20
0.786398879315884
 30
0.0
 40
0.174807010336579
 50
88.1816645526764
 51
124.722818739884
  0
ARC
  8
4
  6
CONTINUOUS
 62
4
 10
1.55099175806945
 20
0.840701243855983
 30
0.0
 40
0.120503153775254
 50
53.8544263966671
 51
92.171449348386
  0
ARC
  8
4
  6
CONTINUOUS
 62
4
 10
1.5714797962838
 20
0.882086934348035
 30
0.0
 40
0.0754101099624609
 50
317.939987851621
 51
47.8667532003158
  0
ARC
  8
4
  6
CONTINUOUS
 62
4
 10
1.54216593417118
 20
0.902299702482457
 30
0.0
 40
0.11081150704927
 50
287.777414552734
 51
320.335053343769
  0
ARC
  8
4
  6
CONTINUOUS
 62
4
 10
1.46628881482598
 20
1.16364746862314
 30
0.0
 40
0.382920925103742
 50
280.200515551806
 51
286.649037574683
  0
ARC
  8
4
  6
CONTINUOUS
 62
4
 10
1.53075462481561
 20
0.815360621850616
 30
0.0
 40
0.0287769445273913
 50
113.078194412957
 51
276.67916408968
  0
ARC
  8
4
  6
CONTINUOUS
 62
4
 10
1.51080156844317
 20
0.92144141053626
 30
0.0
 40
0.080077886176572
 50
276.217638549335
 51
299.489099694733
  0
ARC
  8
4
  6
CONTINUOUS
 62
4
 10
1.5301443946348
 20
0.888577426640555
 30
0.0
 40
0.0419549740739991
 50
298.588563407301
 51
327.023875502905
  0
ARC
  8
4
  6
CONTINUOUS
 62
4
 10
1.54502459614781
 20
0.873682472606867
 30
0.0
 40
0.0218124536831167
 50
338.651224385142
 51
58.3190815293495
  0
ARC
  8
4
  6
CONTINUOUS
 62
4
 10
1.54213909632503
 20
0.853856260658978
 30
0.0
 40
0.0409796348258277
 50
69.5152632809419
 51
113.032311204752
  0
ARC
  8
4
  6
CONTINUOUS
 62
4
 10
1.58455417118814
 20
0.77521181613766
 30
0.0
 40
0.130212314470527
 50
116.671188935329
 51
183.322925320613
  0
ARC
  8
4
  6
CONTINUOUS
 62
4
 10
1.50558055738461
 20
0.767071322458446
 30
0.0
 40
0.0510232205564935
 50
179.334157730007
 51
319.441958772627
  0
LINE
  8
4
  6
CONTINUOUS
 62
4
 10
1.54434533071869
 20
0.733895105309498
 30
0.0
 11
1.56465361469349
 21
0.753619015950496
 31
0.0
  0
ARC
  8
4
  6
CONTINUOUS
 62
4
 10
1.5855057144829
 20
0.72975410713473
 30
0.0
 40
0.0316913858708052
 50
94.2215465400484
 51
131.145521409819
  0
ARC
  8
4
  6
CONTINUOUS
 62
4
 10
1.58873843906997
 20
0.704774448490343
 30
0.0
 40
0.0568581166123398
 50
61.0533694747452
 51
95.6174666951976
  0
ARC
  8
4
  6
CONTINUOUS
 62
4
 10
1.60151466715069
 20
0.728439485154926
 30
0.0
 40
0.0299671537715095
 50
356.067265479635
 51
60.5301614663776
  0
ARC
  8
4
  6
CONTINUOUS
 62
4
 10
1.56535285412556
 20
0.739520834172369
 30
0.0
 40
0.0673519424549485
 50
317.955996785552
 51
348.752651886043
  0
ARC
  8
4
  6
CONTINUOUS
 62
4
 10
1.51235642556193
 20
0.784555970775426
 30
0.0
 40
0.136884111474577
 50
305.663833636035
 51
318.81296722394
  0
ARC
  8
4
  6
CONTINUOUS
 62
4
 10
1.49367568000863
 20
0.819182501685169
 30
0.0
 40
0.175979262449079
 50
266.685930720107
 51
304.032102442252
  0
ARC
  8
4
  6
CONTINUOUS
 62
4
 10
1.81284082545426
 20
0.827678888200778
 30
0.0
 40
0.0568275216304039
 50
357.997082591119
 51
29.9629394951359
  0
ARC
  8
4
  6
CONTINUOUS
 62
4
 10
1.82945563313276
 20
0.836677762010129
 30
0.0
 40
0.0379422307303741
 50
30.7209201795252
 51
89.7072513160766
  0
ARC
  8
4
  6
CONTINUOUS
 62
4
 10
1.82995826501651
 20
0.823606568521048
 30
0.0
 40
0.0510138634031305
 50
90.3467940407853
 51
147.96360870622
  0
ARC
  8
4
  6
CONTINUOUS
 62
4
 10
1.93600658162814
 20
0.752859139377391
 30
0.0
 40
0.178479505873799
 50
146.769565032354
 51
178.136204470622
  0
ARC
  8
4
  6
CONTINUOUS
 62
4
 10
1.80693628750819
 20
0.755544475868157
 30
0.0
 40
0.0494133543902061
 50
176.380510285997
 51
212.537708191902
  0
ARC
  8
4
  6
CONTINUOUS
 62
4
 10
1.79335819026579
 20
0.749020401956618
 30
0.0
 40
0.0345046434550338
 50
215.532999155813
 51
272.347310604271
  0
ARC
  8
4
  6
CONTINUOUS
 62
4
 10
1.79021964936522
 20
0.774382937736426
 30
0.0
 40
0.0600110969868821
 50
274.349967410234
 51
321.207895294351
  0
ARC
  8
4
  6
CONTINUOUS
 62
4
 10
1.72585108613015
 20
0.828034263042541
 30
0.0
 40
0.143801606818583
 50
320.614026194689
 51
359.067012793431
  0
ARC
  8
4
  6
CONTINUOUS
 62
4
 10
1.93087116322782
 20
0.758995616824309
 30
0.0
 40
0.115792891440424
 50
268.972229861867
 51
324.430596290964
  0
ARC
  8
4
  6
CONTINUOUS
 62
4
 10
1.92798656903855
 20
0.733577602726309
 30
0.0
 40
0.0903598576675169
 50
221.871455636638
 51
270.512103450102
  0
ARC
  8
4
  6
CONTINUOUS
 62
4
 10
1.85459454627979
 20
0.667792676348736
 30
0.0
 40
0.00819999999839392
 50
41.8714556501994
 51
131.337485235828
  0
ARC
  8
4
  6
CONTINUOUS
 62
4
 10
1.76798293112464
 20
0.766250621944009
 30
0.0
 40
0.122931761717168
 50
270.901735158887
 51
311.337485214037
  0
ARC
  8
4
  6
CONTINUOUS
 62
4
 10
1.76638444538387
 20
0.736542154182943
 30
0.0
 40
0.0932750089679108
 50
219.226375794308
 51
272.170809139181
  0
ARC
  8
4
  6
CONTINUOUS
 62
4
 10
1.79073158832071
 20
0.747893086932225
 30
0.0
 40
0.1194963898393
 50
176.837373594127
 51
216.058413958847
  0
ARC
  8
4
  6
CONTINUOUS
 62
4
 10
1.89318170928853
 20
0.755987306791119
 30
0.0
 40
0.22176959703767
 50
154.986245641935
 51
180.387946497953
  0
ARC
  8
4
  6
CONTINUOUS
 62
4
 10
1.8608662344813
 20
0.774629461852639
 30
0.0
 40
0.184630785869077
 50
129.024878620302
 51
155.988494859326
  0
ARC
  8
4
  6
CONTINUOUS
 62
4
 10
1.81731140794464
 20
0.821112980598498
 30
0.0
 40
0.121180499107952
 50
90.1525440474798
 51
126.86462868055
  0
ARC
  8
4
  6
CONTINUOUS
 62
4
 10
1.81828007214171
 20
0.857697580474195
 30
0.0
 40
0.0846053245529654
 50
44.405653021326
 51
90.8745145221686
  0
ARC
  8
4
  6
CONTINUOUS
 62
4
 10
1.88458053424958
 20
0.922636605639746
 30
0.0
 40
0.0081999999988599
 50
224.405653004571
 51
349.202099814323
  0
ARC
  8
4
  6
CONTINUOUS
 62
4
 10
1.56949521591002
 20
0.982730377295726
 30
0.0
 40
0.32896474124232
 50
349.202099781048
 51
358.48588845581
  0
ARC
  8
4
  6
CONTINUOUS
 62
4
 10
1.8901479613279
 20
0.974254760493365
 30
0.0
 40
0.00820000000007738
 50
358.485888443715
 51
108.188264845809
  0
ARC
  8
4
  6
CONTINUOUS
 62
4
 10
1.86753608318457
 20
1.0430766828798
 30
0.0
 40
0.0642413834360054
 50
271.758619866495
 51
288.188264828564
  0
ARC
  8
4
  6
CONTINUOUS
 62
4
 10
1.86889555022368
 20
0.996819145783264
 30
0.0
 40
0.0179640165688939
 50
219.008822631692
 51
271.952430760963
  0
ARC
  8
4
  6
CONTINUOUS
 62
4
 10
1.87751376145546
 20
1.00225827353796
 30
0.0
 40
0.0281099418618202
 50
178.100974242806
 51
216.56586617542
  0
ARC
  8
4
  6
CONTINUOUS
 62
4
 10
1.89417919519468
 20
1.00422884709917
 30
0.0
 40
0.0447719958505373
 50
148.90676579484
 51
181.329830446412
  0
ARC
  8
4
  6
CONTINUOUS
 62
4
 10
1.88714872171465
 20
1.00413926304581
 30
0.0
 40
0.0389746065022088
 50
87.2103657416868
 51
143.448226512703
  0
ARC
  8
4
  6
CONTINUOUS
 62
4
 10
1.93147244637311
 20
1.34980735609998
 30
0.0
 40
0.309659920019233
 50
262.125067974318
 51
277.093161004211
  0
ARC
  8
4
  6
CONTINUOUS
 62
4
 10
1.97777034821536
 20
0.995500479453256
 30
0.0
 40
0.047702759937051
 50
76.2110822880483
 51
99.7277210223392
  0
ARC
  8
4
  6
CONTINUOUS
 62
4
 10
1.98501064269455
 20
1.02545224148239
 30
0.0
 40
0.0168888437630564
 50
359.838561255662
 51
75.8472690530992
  0
ARC
  8
4
  6
CONTINUOUS
 62
4
 10
1.85081171521072
 20
1.03762353042888
 30
0.0
 40
0.151580985883237
 50
341.526279529971
 51
355.376396285445
  0
ARC
  8
4
  6
CONTINUOUS
 62
4
 10
5.58180311881833
 20
0.0449032166840223
 30
0.0
 40
3.7095276483218
 50
165.246231682548
 51
169.221305046463
  0
ARC
  8
4
  6
CONTINUOUS
 62
4
 10
1.95400928856356
 20
0.734357376457139
 30
0.0
 40
0.0168408926335768
 50
165.252445050487
 51
322.234268374483
  0
ARC
  8
4
  6
CONTINUOUS
 62
4
 10
1.87829026039507
 20
0.783477688484029
 30
0.0
 40
0.107047409878766
 50
326.274523170794
 51
346.943932047156
  0
ARC
  8
4
  6
CONTINUOUS
 62
4
 10
2.0111565434479
 20
0.75313732800888
 30
0.0
 40
0.0292418342682502
 50
109.84999407574
 51
167.843395069129
  0
ARC
  8
4
  6
CONTINUOUS
 62
4
 10
2.01801350933893
 20
0.736022837308101
 30
0.0
 40
0.0476720795179283
 50
58.957982075892
 51
110.617031597995
  0
ARC
  8
4
  6
CONTINUOUS
 62
4
 10
2.03202637123797
 20
0.76065606816619
 30
0.0
 40
0.0193531610728725
 50
358.540509216086
 51
56.8956345197361
  0
ARC
  8
4
  6
CONTINUOUS
 62
4
 10
1.90914746048761
 20
0.775467720841795
 30
0.0
 40
0.143046868132068
 50
324.125317706864
 51
353.858170301656
  0
ARC
  8
4
  6
CONTINUOUS
 62
4
 10
2.09770971200069
 20
0.825640253934871
 30
0.0
 40
0.16973223417547
 50
326.76956497879
 51
358.136204421133
  0
ARC
  8
4
  6
CONTINUOUS
 62
4
 10
2.22045427718495
 20
0.823086525611654
 30
0.0
 40
0.0469916085986253
 50
356.380510175161
 51
32.5377081325205
  0
ARC
  8
4
  6
CONTINUOUS
 62
4
 10
2.23336691282745
 20
0.829290855033552
 30
0.0
 40
0.0328135725937109
 50
35.5329992541487
 51
92.3473107026067
  0
ARC
  8
4
  6
CONTINUOUS
 62
4
 10
2.23635163399728
 20
0.80517133574774
 30
0.0
 40
0.0570699562315126
 50
94.3499674601264
 51
141.207895344246
  0
ARC
  8
4
  6
CONTINUOUS
 62
4
 10
2.29756549714387
 20
0.754149459374622
 30
0.0
 40
0.136753897244782
 50
140.614026262485
 51
179.067012861226
  0
ARC
  8
4
  6
CONTINUOUS
 62
4
 10
2.21483912039031
 20
0.754487417161336
 30
0.0
 40
0.0540424074211412
 50
177.997082593939
 51
209.962939446501
  0
ARC
  8
4
  6
CONTINUOUS
 62
4
 10
2.19903860377369
 20
0.745929577846378
 30
0.0
 40
0.0360826838989306
 50
210.720920164354
 51
269.707251300907
  0
ARC
  8
4
  6
CONTINUOUS
 62
4
 10
2.19856060595878
 20
0.758360152679185
 30
0.0
 40
0.0485136763903007
 50
270.346793905928
 51
327.963608571362
  0
ARC
  8
4
  6
CONTINUOUS
 62
4
 10
2.19498914906633
 20
0.647568741762851
 30
0.0
 40
0.125957852375662
 50
286.921870244003
 51
314.913178243963
  0
ARC
  8
4
  6
CONTINUOUS
 62
4
 10
2.16066616039998
 20
0.762185547915409
 30
0.0
 40
0.245602905813993
 50
259.026970018317
 51
286.799552471659
  0
ARC
  8
4
  6
CONTINUOUS
 62
4
 10
2.13600027743217
 20
0.626790415375774
 30
0.0
 40
0.107999368554944
 50
222.979569127163
 51
258.200853045022
  0
ARC
  8
4
  6
CONTINUOUS
 62
4
 10
2.10860283785582
 20
0.587541084455469
 30
0.0
 40
0.0620153368220176
 50
168.143777359337
 51
213.665611343013
  0
ARC
  8
4
  6
CONTINUOUS
 62
4
 10
2.0955965885536
 20
0.591502028428295
 30
0.0
 40
0.0484877140855617
 50
125.150234729305
 51
169.566901621094
  0
ARC
  8
4
  6
CONTINUOUS
 62
4
 10
2.09446011260031
 20
0.589501888492464
 30
0.0
 40
0.0495125655651362
 50
77.8293177386352
 51
122.741677367958
  0
ARC
  8
4
  6
CONTINUOUS
 62
4
 10
2.09774809814323
 20
0.602085025267952
 30
0.0
 40
0.0365233728618804
 50
35.2861642820662
 51
78.7098081274913
  0
ARC
  8
4
  6
CONTINUOUS
 62
4
 10
2.10097963845431
 20
0.606159694884253
 30
0.0
 40
0.0315655162689292
 50
332.146743207856
 51
32.6363407201628
  0
ARC
  8
4
  6
CONTINUOUS
 62
4
 10
2.13613820369982
 20
0.587580901224729
 30
0.0
 40
0.00819999999788221
 50
152.146743248348
 51
244.312219760846
  0
ARC
  8
4
  6
CONTINUOUS
 62
4
 10
2.16110281400113
 20
0.639481854237635
 30
0.0
 40
0.0657928875027121
 50
244.312219723881
 51
271.171865677443
  0
ARC
  8
4
  6
CONTINUOUS
 62
4
 10
2.16290048733511
 20
0.651694707698724
 30
0.0
 40
0.0779932905541113
 50
269.667866446713
 51
299.243596313459
  0
ARC
  8
4
  6
CONTINUOUS
 62
4
 10
2.16833831668754
 20
0.6442107901538
 30
0.0
 40
0.068815297719805
 50
298.33709592072
 51
330.144105600665
  0
ARC
  8
4
  6
CONTINUOUS
 62
4
 10
2.01155069550966
 20
0.711970900162736
 30
0.0
 40
0.239304792486499
 50
334.766460135902
 51
345.762575490989
  0
ARC
  8
4
  6
CONTINUOUS
 62
4
 10
2.23536322720666
 20
0.655182046955444
 30
0.0
 40
0.00840000000002632
 50
345.762575490976
 51
117.202697050032
  0
ARC
  8
4
  6
CONTINUOUS
 62
4
 10
2.17808046496259
 20
0.766629343335603
 30
0.0
 40
0.116906882176325
 50
270.901735159414
 51
297.202697049783
  0
ARC
  8
4
  6
CONTINUOUS
 62
4
 10
2.17656546602141
 20
0.738241152823965
 30
0.0
 40
0.0885677746466645
 50
219.226375795188
 51
272.170809140059
  0
ARC
  8
4
  6
CONTINUOUS
 62
4
 10
2.19968390125198
 20
0.749019247270792
 30
0.0
 40
0.113465862211076
 50
176.837373654673
 51
216.058414019392
  0
ARC
  8
4
  6
CONTINUOUS
 62
4
 10
2.29696375525441
 20
0.756704982557883
 30
0.0
 40
0.210577730614689
 50
154.986245639263
 51
180.387946495283
  0
ARC
  8
4
  6
CONTINUOUS
 62
4
 10
2.26627911915351
 20
0.774406339202756
 30
0.0
 40
0.175313173527578
 50
129.024878627963
 51
155.988494866986
  0
ARC
  8
4
  6
CONTINUOUS
 62
4
 10
2.2249223388361
 20
0.818544011812718
 30
0.0
 40
0.115064981071121
 50
90.1525440717131
 51
126.864628704782
  0
ARC
  8
4
  6
CONTINUOUS
 62
4
 10
2.22584211819102
 20
0.853282326327735
 30
0.0
 40
0.0803356162166237
 50
44.4932953406194
 51
90.8745145202855
  0
ARC
  8
4
  6
CONTINUOUS
 62
4
 10
2.28899744741799
 20
0.915330370042281
 30
0.0
 40
0.00819999999836988
 50
224.493295326186
 51
334.557772353075
  0
ARC
  8
4
  6
CONTINUOUS
 62
4
 10
2.32617520462879
 20
0.897643482893941
 30
0.0
 40
0.0329705186797274
 50
115.96139719689
 51
154.557772368329
  0
ARC
  8
4
  6
CONTINUOUS
 62
4
 10
2.34262763221751
 20
0.856585100844324
 30
0.0
 40
0.0771536052383897
 50
75.9679437068534
 51
113.597902368975
  0
ARC
  8
4
  6
CONTINUOUS
 62
4
 10
2.35565148481181
 20
0.910462774936527
 30
0.0
 40
0.0217300237012375
 50
344.783174748493
 51
74.8388001591252
  0
ARC
  8
4
  6
CONTINUOUS
 62
4
 10
3.88441242937533
 20
0.442223695028208
 30
0.0
 40
1.57714242216695
 50
162.945906541056
 51
172.813673595882
  0
ARC
  8
4
  6
CONTINUOUS
 62
4
 10
2.16505427686233
 20
0.659162845361209
 30
0.0
 40
0.155847848255004
 50
319.702978532416
 51
352.758755543149
  0
ARC
  8
4
  6
CONTINUOUS
 62
4
 10
2.50886174794619
 20
0.768115661716837
 30
0.0
 40
0.12462145530478
 50
221.90468464622
 51
270.41895010716
  0
ARC
  8
4
  6
CONTINUOUS
 62
4
 10
2.51459660511042
 20
0.756589050739263
 30
0.0
 40
0.121824753137932
 50
176.837373587915
 51
216.058413952634
  0
ARC
  8
4
  6
CONTINUOUS
 62
4
 10
2.61904294621546
 20
0.764840984869196
 30
0.0
 40
0.22609073334332
 50
154.986245641939
 51
180.387946497958
  0
ARC
  8
4
  6
CONTINUOUS
 62
4
 10
2.58609781076235
 20
0.783846378668131
 30
0.0
 40
0.188228279761327
 50
129.024878630488
 51
155.988494869511
  0
ARC
  8
4
  6
CONTINUOUS
 62
4
 10
2.5671496906121
 20
0.786398879315884
 30
0.0
 40
0.174807010336579
 50
88.1816645526764
 51
124.722818739884
  0
ARC
  8
4
  6
CONTINUOUS
 62
4
 10
2.57726227297266
 20
0.840701243855983
 30
0.0
 40
0.120503153775254
 50
53.8544263966671
 51
92.171449348386
  0
ARC
  8
4
  6
CONTINUOUS
 62
4
 10
2.59775031118701
 20
0.882086934348035
 30
0.0
 40
0.0754101099624609
 50
317.939987851621
 51
47.8667532003158
  0
ARC
  8
4
  6
CONTINUOUS
 62
4
 10
2.56843644907439
 20
0.902299702482457
 30
0.0
 40
0.11081150704927
 50
287.777414552734
 51
320.335053343769
  0
ARC
  8
4
  6
CONTINUOUS
 62
4
 10
2.4925593297292
 20
1.16364746862314
 30
0.0
 40
0.382920925103742
 50
280.200515551806
 51
286.649037574683
  0
ARC
  8
4
  6
CONTINUOUS
 62
4
 10
2.55702513971882
 20
0.815360621850616
 30
0.0
 40
0.0287769445273913
 50
113.078194412957
 51
276.67916408968
  0
ARC
  8
4
  6
CONTINUOUS
 62
4
 10
2.53707208334638
 20
0.92144141053626
 30
0.0
 40
0.080077886176572
 50
276.217638549335
 51
299.489099694733
  0
ARC
  8
4
  6
CONTINUOUS
 62
4
 10
2.55641490953801
 20
0.888577426640555
 30
0.0
 40
0.0419549740739991
 50
298.588563407301
 51
327.023875502905
  0
ARC
  8
4
  6
CONTINUOUS
 62
4
 10
2.57129511105102
 20
0.873682472606867
 30
0.0
 40
0.0218124536831167
 50
338.651224385142
 51
58.3190815293495
  0
ARC
  8
4
  6
CONTINUOUS
 62
4
 10
2.56840961122825
 20
0.853856260658978
 30
0.0
 40
0.0409796348258277
 50
69.5152632809419
 51
113.032311204752
  0
ARC
  8
4
  6
CONTINUOUS
 62
4
 10
2.61082468609136
 20
0.77521181613766
 30
0.0
 40
0.130212314470527
 50
116.671188935329
 51
183.322925320613
  0
ARC
  8
4
  6
CONTINUOUS
 62
4
 10
2.53185107228783
 20
0.767071322458446
 30
0.0
 40
0.0510232205564935
 50
179.334157730007
 51
319.441958772627
  0
LINE
  8
4
  6
CONTINUOUS
 62
4
 10
2.57061584562191
 20
0.733895105309498
 30
0.0
 11
2.59092412959671
 21
0.753619015950496
 31
0.0
  0
ARC
  8
4
  6
CONTINUOUS
 62
4
 10
2.61177622938612
 20
0.72975410713473
 30
0.0
 40
0.0316913858708052
 50
94.2215465400484
 51
131.145521409819
  0
ARC
  8
4
  6
CONTINUOUS
 62
4
 10
2.61500895397319
 20
0.704774448490343
 30
0.0
 40
0.0568581166123398
 50
61.0533694747452
 51
95.6174666951976
  0
ARC
  8
4
  6
CONTINUOUS
 62
4
 10
2.6277851820539
 20
0.728439485154926
 30
0.0
 40
0.0299671537715095
 50
356.067265479635
 51
60.5301614663776
  0
ARC
  8
4
  6
CONTINUOUS
 62
4
 10
2.59162336902878
 20
0.739520834172369
 30
0.0
 40
0.0673519424549485
 50
317.955996785552
 51
348.752651886043
  0
ARC
  8
4
  6
CONTINUOUS
 62
4
 10
2.53862694046515
 20
0.784555970775426
 30
0.0
 40
0.136884111474577
 50
305.663833636035
 51
318.81296722394
  0
ARC
  8
4
  6
CONTINUOUS
 62
4
 10
2.51994619491185
 20
0.819182501685169
 30
0.0
 40
0.175979262449079
 50
266.685930720107
 51
304.032102442252
  0
ARC
  8
4
  6
CONTINUOUS
 62
4
 10
3.23295383488353
 20
0.748584174127244
 30
0.0
 40
0.105291182718756
 50
245.600858593509
 51
307.300186008781
  0
ARC
  8
4
  6
CONTINUOUS
 62
4
 10
3.27961455398887
 20
0.814816727481465
 30
0.0
 40
0.185501936832793
 50
216.893937223619
 51
240.921425855193
  0
ARC
  8
4
  6
CONTINUOUS
 62
4
 10
3.1247017810498
 20
0.698530558428914
 30
0.0
 40
0.00819999999952395
 50
36.8939372332978
 51
182.995392805822
  0
ARC
  8
4
  6
CONTINUOUS
 62
4
 10
3.06441175173514
 20
0.695375753143901
 30
0.0
 40
0.0521725138718446
 50
265.910954217819
 51
2.99539279975583
  0
ARC
  8
4
  6
CONTINUOUS
 62
4
 10
3.05781186525704
 20
0.696179476002116
 30
0.0
 40
0.0529218309708458
 50
222.203783016233
 51
273.11917437267
  0
ARC
  8
4
  6
CONTINUOUS
 62
4
 10
3.08058761654505
 20
0.711544695824467
 30
0.0
 40
0.0802108404973288
 50
176.917213165301
 51
219.403904602271
  0
ARC
  8
4
  6
CONTINUOUS
 62
4
 10
3.13519426652242
 20
0.712909036778426
 30
0.0
 40
0.134733698929993
 50
120.879486554711
 51
178.745702419201
  0
ARC
  8
4
  6
CONTINUOUS
 62
4
 10
3.33968917427881
 20
0.34348394193326
 30
0.0
 40
0.556924418857698
 50
105.394376393556
 51
119.429353130739
  0
ARC
  8
4
  6
CONTINUOUS
 62
4
 10
3.1569631708897
 20
1.02401220487601
 30
0.0
 40
0.147762254456279
 50
283.655415093138
 51
302.2994573697
  0
ARC
  8
4
  6
CONTINUOUS
 62
4
 10
3.21433378608537
 20
0.93125793021762
 30
0.0
 40
0.0387192395423679
 50
303.881894150925
 51
51.2527349195088
  0
ARC
  8
4
  6
CONTINUOUS
 62
4
 10
3.1986225407239
 20
0.892815610117529
 30
0.0
 40
0.0794170064413178
 50
59.8027158559952
 51
112.617834765977
  0
ARC
  8
4
  6
CONTINUOUS
 62
4
 10
3.1712337137614
 20
0.958555355814753
 30
0.0
 40
0.00819999999821142
 50
112.617834756867
 51
193.654772470531
  0
ARC
  8
4
  6
CONTINUOUS
 62
4
 10
3.11634095646841
 20
0.945219840795533
 30
0.0
 40
0.0482893862973958
 50
307.689168768724
 51
13.6547724642731
  0
ARC
  8
4
  6
CONTINUOUS
 62
4
 10
3.10370856593067
 20
0.952869354598244
 30
0.0
 40
0.0622934700569628
 50
270.138791529365
 51
312.588105314662
  0
ARC
  8
4
  6
CONTINUOUS
 62
4
 10
3.10569508153585
 20
0.950322773704659
 30
0.0
 40
0.0597748978986641
 50
230.031458514176
 51
268.240236226214
  0
ARC
  8
4
  6
CONTINUOUS
 62
4
 10
3.11052560072659
 20
0.944587177653694
 30
0.0
 40
0.0589467377214078
 50
158.365641860497
 51
222.832958930444
  0
ARC
  8
4
  6
CONTINUOUS
 62
4
 10
3.15893904734599
 20
0.922029921780514
 30
0.0
 40
0.112309501163293
 50
112.936481860417
 51
156.774221337755
  0
ARC
  8
4
  6
CONTINUOUS
 62
4
 10
3.20855077849097
 20
0.788610324054515
 30
0.0
 40
0.254592915204299
 50
79.8335689461653
 51
111.517246487749
  0
ARC
  8
4
  6
CONTINUOUS
 62
4
 10
3.23252056535821
 20
0.895802334880311
 30
0.0
 40
0.144928407122786
 50
40.198621628561
 51
81.6813794818278
  0
ARC
  8
4
  6
CONTINUOUS
 62
4
 10
3.26704268073151
 20
0.940821311054147
 30
0.0
 40
0.0903177488015534
 50
332.372013450475
 51
32.4968591628269
  0
ARC
  8
4
  6
CONTINUOUS
 62
4
 10
3.22027910570352
 20
0.959867213413075
 30
0.0
 40
0.140663653764708
 50
288.886920730747
 51
334.332191416752
  0
ARC
  8
4
  6
CONTINUOUS
 62
4
 10
3.07370271034786
 20
1.35571945929866
 30
0.0
 40
0.562748757003256
 50
279.22615557606
 51
289.960784107068
  0
ARC
  8
4
  6
CONTINUOUS
 62
4
 10
3.18269256534821
 20
0.665912517004065
 30
0.0
 40
0.135642395598522
 50
97.951188558977
 51
120.986527634587
  0
ARC
  8
4
  6
CONTINUOUS
 62
4
 10
3.11708056732204
 20
0.77516740207072
 30
0.0
 40
0.00819999999990798
 50
120.986527620983
 51
295.215042659566
  0
ARC
  8
4
  6
CONTINUOUS
 62
4
 10
3.15249333288342
 20
0.699962701247387
 30
0.0
 40
0.0749252728756241
 50
88.2841690458017
 51
115.21504266525
  0
ARC
  8
4
  6
CONTINUOUS
 62
4
 10
3.15681158716299
 20
0.694739109273622
 30
0.0
 40
0.080142132252896
 50
64.1960873935152
 51
91.4835035914775
  0
ARC
  8
4
  6
CONTINUOUS
 62
4
 10
3.142213183118
 20
0.674307352675803
 30
0.0
 40
0.104977220886118
 50
30.5431378582068
 51
61.8763861742967
  0
ARC
  8
4
  6
CONTINUOUS
 62
4
 10
3.2396867015133
 20
0.73182253796728
 30
0.0
 40
0.00819999999985575
 50
210.543137861502
 51
17.9012171172497
  0
ARC
  8
4
  6
CONTINUOUS
 62
4
 10
3.29345176002035
 20
0.749189439959778
 30
0.0
 40
0.0483003610705237
 50
74.6425174225881
 51
197.901217105195
  0
ARC
  8
4
  6
CONTINUOUS
 62
4
 10
3.28797832148356
 20
0.745234701993706
 30
0.0
 40
0.053730287214859
 50
338.28878733417
 51
70.1264840715647
  0
ARC
  8
4
  6
CONTINUOUS
 62
4
 10
3.22769233350116
 20
0.756011566344415
 30
0.0
 40
0.114388319299927
 50
307.142126353305
 51
344.456184863183
  0
ARC
  8
4
  6
CONTINUOUS
 62
4
 10
3.41314265538182
 20
0.866116108316151
 30
0.0
 40
0.220747504201362
 50
326.104482007983
 51
346.031951098017
  0
ARC
  8
4
  6
CONTINUOUS
 62
4
 10
3.45938855204863
 20
0.873136777356038
 30
0.0
 40
0.17847132257021
 50
340.251218349569
 51
11.7146871287667
  0
ARC
  8
4
  6
CONTINUOUS
 62
4
 10
3.56099905902717
 20
0.896214181888335
 30
0.0
 40
0.0743176906048507
 50
10.1988882244745
 51
58.1676624401925
  0
ARC
  8
4
  6
CONTINUOUS
 62
4
 10
3.57726540717076
 20
0.903146099184416
 30
0.0
 40
0.0607057938987742
 50
67.8058033636071
 51
116.899999037667
  0
ARC
  8
4
  6
CONTINUOUS
 62
4
 10
3.57778443278829
 20
0.886999773918392
 30
0.0
 40
0.0756499392126727
 50
111.710689603313
 51
154.918471773836
  0
ARC
  8
4
  6
CONTINUOUS
 62
4
 10
3.71668974739447
 20
0.815080939055542
 30
0.0
 40
0.232028485076587
 50
153.373886994157
 51
173.240146249723
  0
ARC
  8
4
  6
CONTINUOUS
 62
4
 10
3.74720952042592
 20
0.801855966520203
 30
0.0
 40
0.264065185278927
 50
171.169613568353
 51
185.413425796251
  0
ARC
  8
4
  6
CONTINUOUS
 62
4
 10
3.54651659078179
 20
0.777271407593075
 30
0.0
 40
0.0621953583381156
 50
180.301952306968
 51
229.891023658476
  0
ARC
  8
4
  6
CONTINUOUS
 62
4
 10
3.54475839412024
 20
0.781319578398692
 30
0.0
 40
0.0642804201763222
 50
233.416462734367
 51
323.417326827852
  0
ARC
  8
4
  6
CONTINUOUS
 62
4
 10
3.53634315338636
 20
0.840255942184879
 30
0.0
 40
0.197766842768366
 50
243.947443326121
 51
302.804485452542
  0
ARC
  8
4
  6
CONTINUOUS
 62
4
 10
3.51686085500268
 20
0.778045143922958
 30
0.0
 40
0.133681814927002
 50
175.411125325402
 51
239.734830061824
  0
ARC
  8
4
  6
CONTINUOUS
 62
4
 10
3.71814772373246
 20
0.79297246043234
 30
0.0
 40
0.334566924953223
 50
158.935481437309
 51
180.724773471631
  0
ARC
  8
4
  6
CONTINUOUS
 62
4
 10
3.57980527444641
 20
0.862137774949308
 30
0.0
 40
0.181216757365145
 50
111.635306561338
 51
163.626566198142
  0
ARC
  8
4
  6
CONTINUOUS
 62
4
 10
3.58261211603352
 20
0.832675937654715
 30
0.0
 40
0.209800272378481
 50
89.0789373225459
 51
109.380746301212
  0
ARC
  8
4
  6
CONTINUOUS
 62
4
 10
3.58969809766353
 20
0.870086126498814
 30
0.0
 40
0.172402973057794
 50
53.3467168069843
 51
91.2342154840233
  0
ARC
  8
4
  6
CONTINUOUS
 62
4
 10
3.6094937323634
 20
0.914138960252466
 30
0.0
 40
0.125676068089396
 50
5.71566653256634
 51
48.5921580582215
  0
ARC
  8
4
  6
CONTINUOUS
 62
4
 10
3.40363646288402
 20
0.891482823485645
 30
0.0
 40
0.332772522574197
 50
341.459588793852
 51
6.06721933123564
  0
ARC
  8
4
  6
CONTINUOUS
 62
4
 10
3.49698627561924
 20
0.854751086685992
 30
0.0
 40
0.232644728862677
 50
309.029713424545
 51
342.726208543432
  0
ARC
  8
4
  6
CONTINUOUS
 62
4
 10
3.98297446548193
 20
0.748584174127244
 30
0.0
 40
0.105291182718757
 50
245.600858593509
 51
307.300186008781
  0
ARC
  8
4
  6
CONTINUOUS
 62
4
 10
4.02963518458727
 20
0.814816727481465
 30
0.0
 40
0.185501936832793
 50
216.893937223619
 51
240.921425855193
  0
ARC
  8
4
  6
CONTINUOUS
 62
4
 10
3.87472241164819
 20
0.698530558428914
 30
0.0
 40
0.00819999999952395
 50
36.8939372332978
 51
182.995392805822
  0
ARC
  8
4
  6
CONTINUOUS
 62
4
 10
3.81443238233354
 20
0.695375753143901
 30
0.0
 40
0.0521725138718446
 50
265.910954217819
 51
2.99539279975583
  0
ARC
  8
4
  6
CONTINUOUS
 62
4
 10
3.80783249585544
 20
0.696179476002116
 30
0.0
 40
0.0529218309708458
 50
222.203783016233
 51
273.11917437267
  0
ARC
  8
4
  6
CONTINUOUS
 62
4
 10
3.83060824714345
 20
0.711544695824467
 30
0.0
 40
0.0802108404973288
 50
176.917213165301
 51
219.403904602271
  0
ARC
  8
4
  6
CONTINUOUS
 62
4
 10
3.88521489712082
 20
0.712909036778426
 30
0.0
 40
0.134733698929993
 50
120.879486554711
 51
178.745702419201
  0
ARC
  8
4
  6
CONTINUOUS
 62
4
 10
4.08970980487721
 20
0.34348394193326
 30
0.0
 40
0.556924418857698
 50
105.394376393556
 51
119.429353130739
  0
ARC
  8
4
  6
CONTINUOUS
 62
4
 10
3.9069838014881
 20
1.02401220487601
 30
0.0
 40
0.147762254456279
 50
283.655415093138
 51
302.2994573697
  0
ARC
  8
4
  6
CONTINUOUS
 62
4
 10
3.96435441668377
 20
0.93125793021762
 30
0.0
 40
0.0387192395423679
 50
303.881894150925
 51
51.2527349195088
  0
ARC
  8
4
  6
CONTINUOUS
 62
4
 10
3.9486431713223
 20
0.892815610117529
 30
0.0
 40
0.0794170064413178
 50
59.8027158559952
 51
112.617834765977
  0
ARC
  8
4
  6
CONTINUOUS
 62
4
 10
3.9212543443598
 20
0.958555355814753
 30
0.0
 40
0.00819999999821142
 50
112.617834756867
 51
193.654772470531
  0
ARC
  8
4
  6
CONTINUOUS
 62
4
 10
3.86636158706681
 20
0.945219840795533
 30
0.0
 40
0.0482893862973958
 50
307.689168768724
 51
13.6547724642731
  0
ARC
  8
4
  6
CONTINUOUS
 62
4
 10
3.85372919652907
 20
0.952869354598244
 30
0.0
 40
0.0622934700569628
 50
270.138791529365
 51
312.588105314662
  0
ARC
  8
4
  6
CONTINUOUS
 62
4
 10
3.85571571213425
 20
0.950322773704659
 30
0.0
 40
0.0597748978986641
 50
230.031458514176
 51
268.240236226214
  0
ARC
  8
4
  6
CONTINUOUS
 62
4
 10
3.86054623132499
 20
0.944587177653694
 30
0.0
 40
0.0589467377214078
 50
158.365641860497
 51
222.832958930444
  0
ARC
  8
4
  6
CONTINUOUS
 62
4
 10
3.90895967794439
 20
0.922029921780514
 30
0.0
 40
0.112309501163293
 50
112.936481860417
 51
156.774221337755
  0
ARC
  8
4
  6
CONTINUOUS
 62
4
 10
3.95857140908937
 20
0.788610324054514
 30
0.0
 40
0.2545929152043
 50
79.8335689461653
 51
111.517246487749
  0
ARC
  8
4
  6
CONTINUOUS
 62
4
 10
3.98254119595661
 20
0.895802334880311
 30
0.0
 40
0.144928407122786
 50
40.198621628561
 51
81.6813794818278
  0
ARC
  8
4
  6
CONTINUOUS
 62
4
 10
4.01706331132991
 20
0.940821311054147
 30
0.0
 40
0.0903177488015534
 50
332.372013450475
 51
32.4968591628269
  0
ARC
  8
4
  6
CONTINUOUS
 62
4
 10
3.97029973630192
 20
0.959867213413075
 30
0.0
 40
0.140663653764708
 50
288.886920730747
 51
334.332191416752
  0
ARC
  8
4
  6
CONTINUOUS
 62
4
 10
3.82372334094626
 20
1.35571945929867
 30
0.0
 40
0.562748757003258
 50
279.22615557606
 51
289.960784107068
  0
ARC
  8
4
  6
CONTINUOUS
 62
4
 10
3.93271319594661
 20
0.665912517004065
 30
0.0
 40
0.135642395598522
 50
97.951188558977
 51
120.986527634587
  0
ARC
  8
4
  6
CONTINUOUS
 62
4
 10
3.86710119792044
 20
0.77516740207072
 30
0.0
 40
0.00819999999990798
 50
120.986527620983
 51
295.215042659566
  0
ARC
  8
4
  6
CONTINUOUS
 62
4
 10
3.90251396348182
 20
0.699962701247387
 30
0.0
 40
0.0749252728756241
 50
88.2841690458017
 51
115.21504266525
  0
ARC
  8
4
  6
CONTINUOUS
 62
4
 10
3.90683221776139
 20
0.694739109273622
 30
0.0
 40
0.080142132252896
 50
64.1960873935152
 51
91.4835035914775
  0
ARC
  8
4
  6
CONTINUOUS
 62
4
 10
3.8922338137164
 20
0.674307352675803
 30
0.0
 40
0.104977220886118
 50
30.5431378582068
 51
61.8763861742967
  0
ARC
  8
4
  6
CONTINUOUS
 62
4
 10
3.9897073321117
 20
0.73182253796728
 30
0.0
 40
0.00819999999985575
 50
210.543137861502
 51
17.9012171172497
  0
ARC
  8
4
  6
CONTINUOUS
 62
4
 10
4.04347239061875
 20
0.749189439959778
 30
0.0
 40
0.0483003610705239
 50
74.6425174225879
 51
197.901217105195
  0
ARC
  8
4
  6
CONTINUOUS
 62
4
 10
4.03799895208196
 20
0.745234701993706
 30
0.0
 40
0.053730287214859
 50
338.28878733417
 51
70.1264840715647
  0
ARC
  8
4
  6
CONTINUOUS
 62
4
 10
3.97771296409956
 20
0.756011566344415
 30
0.0
 40
0.114388319299927
 50
307.142126353305
 51
344.456184863183
  0
ARC
  8
4
  6
CONTINUOUS
 62
4
 10
4.338973405718
 20
0.837247257102944
 30
0.0
 40
0.00819999999800736
 50
269.99999999382
 51
348.943154621033
  0
LINE
  8
4
  6
CONTINUOUS
 62
4
 10
4.34702119232471
 20
0.835674638045373
 30
0.0
 11
4.36504394843191
 21
0.927905044587612
 31
0.0
  0
ARC
  8
4
  6
CONTINUOUS
 62
4
 10
4.35699616182432
 20
0.929477663648964
 30
0.0
 40
0.00819999999959521
 50
348.943154596285
 51
134.481230482035
  0
LINE
  8
4
  6
CONTINUOUS
 62
4
 10
4.35125062212551
 20
0.935328199826334
 30
0.0
 11
4.25733475719232
 21
0.843097793283971
 31
0.0
  0
ARC
  8
4
  6
CONTINUOUS
 62
4
 10
4.26308029689027
 20
0.83724725710602
 30
0.0
 40
0.00819999999940607
 50
134.481230474898
 51
270.0000000031
  0
LINE
  8
4
  6
CONTINUOUS
 62
4
 10
4.26308029689071
 20
0.829047257106614
 30
0.0
 11
4.33897340571712
 21
0.829047257104937
 31
0.0
  0
ARC
  8
4
  6
CONTINUOUS
 62
4
 10
4.43648614694052
 20
0.724608874366396
 30
0.0
 40
0.0814056351245706
 50
257.667649728736
 51
291.750214939074
  0
ARC
  8
4
  6
CONTINUOUS
 62
4
 10
4.34619352090117
 20
-0.0157416557834069
 30
0.0
 40
0.664832852095706
 50
83.7042596102448
 51
96.7105345230369
  0
ARC
  8
4
  6
CONTINUOUS
 62
4
 10
4.25428711598584
 20
0.757105995877841
 30
0.0
 40
0.113463851255674
 50
262.543371971244
 51
277.198815692673
  0
ARC
  8
4
  6
CONTINUOUS
 62
4
 10
4.24136338130376
 20
0.671896501756386
 30
0.0
 40
0.0273541974209794
 50
176.725006833621
 51
266.224684802223
  0
ARC
  8
4
  6
CONTINUOUS
 62
4
 10
4.25633822250141
 20
0.673923203019447
 30
0.0
 40
0.0422869107496038
 50
130.599535274906
 51
180.628703446245
  0
ARC
  8
4
  6
CONTINUOUS
 62
4
 10
4.26350356447259
 20
0.66751514209998
 30
0.0
 40
0.0518309463466393
 50
89.4236682454688
 51
132.003927499343
  0
ARC
  8
4
  6
CONTINUOUS
 62
4
 10
4.2537130855017
 20
0.482660267358204
 30
0.0
 40
0.236907725794341
 50
75.2767427389045
 51
87.5053107322645
  0
ARC
  8
4
  6
CONTINUOUS
 62
4
 10
4.3160073495352
 20
0.719719799779667
 30
0.0
 40
0.00819999999853849
 50
255.276742740585
 51
348.943154631423
  0
LINE
  8
4
  6
CONTINUOUS
 62
4
 10
4.32405513614271
 20
0.718147180723453
 30
0.0
 11
4.32951184225911
 21
0.746071557055293
 31
0.0
  0
ARC
  8
4
  6
CONTINUOUS
 62
4
 10
4.32146405565041
 20
0.747644176113218
 30
0.0
 40
0.00820000000003681
 50
348.94315462128
 51
90.0000000229964
  0
LINE
  8
4
  6
CONTINUOUS
 62
4
 10
4.32146405564712
 20
0.755844176113255
 30
0.0
 11
4.17585793174791
 21
0.755844176113652
 31
0.0
  0
ARC
  8
4
  6
CONTINUOUS
 62
4
 10
4.17383496989478
 20
0.873926023979681
 30
0.0
 40
0.118099175145786
 50
262.014277043164
 51
270.981487339329
  0
ARC
  8
4
  6
CONTINUOUS
 62
4
 10
4.16021714141689
 20
0.786296933259361
 30
0.0
 40
0.0294571959913601
 50
181.315348028612
 51
264.566608625141
  0
ARC
  8
4
  6
CONTINUOUS
 62
4
 10
4.19785325681554
 20
0.785886061371198
 30
0.0
 40
0.0670860739743459
 50
150.336729473006
 51
180.226602556271
  0
ARC
  8
4
  6
CONTINUOUS
 62
4
 10
4.31475685935558
 20
0.703725401631617
 30
0.0
 40
0.209768078138489
 50
133.247572633471
 51
146.636508986226
  0
LINE
  8
4
  6
CONTINUOUS
 62
4
 10
4.17103381341791
 20
0.856520469197013
 30
0.0
 11
4.33606844540311
 21
1.0164726042097
 31
0.0
  0
ARC
  8
4
  6
CONTINUOUS
 62
4
 10
4.48396607421514
 20
0.873929122851031
 30
0.0
 40
0.205407771727531
 50
127.646996011062
 51
136.056101557944
  0
ARC
  8
4
  6
CONTINUOUS
 62
4
 10
4.3779383515276
 20
1.01156752261898
 30
0.0
 40
0.031666245607778
 50
92.5161141923162
 51
127.859138139397
  0
LINE
  8
4
  6
CONTINUOUS
 62
4
 10
4.37654819182951
 20
1.04320323925234
 30
0.0
 11
4.39228540458192
 21
1.04290055637577
 31
0.0
  0
ARC
  8
4
  6
CONTINUOUS
 62
4
 10
4.41655929951157
 20
1.35264304682976
 30
0.0
 40
0.310692182662668
 50
265.519003627301
 51
273.723340803262
  0
ARC
  8
4
  6
CONTINUOUS
 62
4
 10
4.43868566677365
 20
0.984786212042145
 30
0.0
 40
0.057853332147845
 50
68.6273383246117
 51
91.9319507380946
  0
ARC
  8
4
  6
CONTINUOUS
 62
4
 10
4.45003736666791
 20
1.01915575103936
 30
0.0
 40
0.0217982499509504
 50
4.29857403289467
 51
63.48354304049
  0
ARC
  8
4
  6
CONTINUOUS
 62
4
 10
4.40537193473908
 20
1.01489001278389
 30
0.0
 40
0.0666639270569076
 50
346.427256464559
 51
5.07718510541745
  0
LINE
  8
4
  6
CONTINUOUS
 62
4
 10
4.47017412172152
 20
0.999245341712173
 30
0.0
 11
4.46313402065591
 21
0.964897706235133
 31
0.0
  0
LINE
  8
4
  6
CONTINUOUS
 62
4
 10
4.46313402065591
 20
0.964897706235133
 30
0.0
 11
4.43882159870231
 21
0.838799672509898
 31
0.0
  0
ARC
  8
4
  6
CONTINUOUS
 62
4
 10
4.44687330699401
 20
0.837247257113154
 30
0.0
 40
0.00819999999870263
 50
169.086958374296
 51
270.000000016084
  0
LINE
  8
4
  6
CONTINUOUS
 62
4
 10
4.44687330699631
 20
0.829047257114451
 30
0.0
 11
4.48581777496431
 21
0.829047257109971
 31
0.0
  0
ARC
  8
4
  6
CONTINUOUS
 62
4
 10
4.48770606919344
 20
0.783952600473669
 30
0.0
 40
0.0451341745492449
 50
68.2136733295976
 51
92.3978033968318
  0
ARC
  8
4
  6
CONTINUOUS
 62
4
 10
4.48582182271914
 20
0.798159573100532
 30
0.0
 40
0.0333881516469707
 50
350.034922005097
 51
56.0719855481477
  0
ARC
  8
4
  6
CONTINUOUS
 62
4
 10
4.47385484364188
 20
0.80163272608668
 30
0.0
 40
0.0457955110913721
 50
269.000987262846
 51
348.34579460091
  0
LINE
  8
4
  6
CONTINUOUS
 62
4
 10
4.47305639075112
 20
0.755844176108533
 30
0.0
 11
4.42959732061832
 21
0.755844176114573
 31
0.0
  0
ARC
  8
4
  6
CONTINUOUS
 62
4
 10
4.42959732061954
 20
0.747644176116379
 30
0.0
 40
0.00819999999819413
 50
90.0000000085217
 51
169.08695838948
  0
LINE
  8
4
  6
CONTINUOUS
 62
4
 10
4.42154561232792
 20
0.749196591510892
 30
0.0
 11
4.41628034610911
 21
0.721887929365214
 31
0.0
  0
ARC
  8
4
  6
CONTINUOUS
 62
4
 10
4.42433205440118
 20
0.720335513968377
 30
0.0
 40
0.00819999999908104
 50
169.086958374146
 51
282.197856016373
  0
LINE
  8
4
  6
CONTINUOUS
 62
4
 10
4.42606461781992
 20
0.712320638798734
 30
0.0
 11
4.45214522627191
 21
0.717958444390974
 31
0.0
  0
ARC
  8
4
  6
CONTINUOUS
 62
4
 10
4.46140888147634
 20
0.672707295605366
 30
0.0
 40
0.0461896284263448
 50
78.9769946752103
 51
101.569535159329
  0
ARC
  8
4
  6
CONTINUOUS
 62
4
 10
4.4655705414695
 20
0.693351899663385
 30
0.0
 40
0.0251305613241334
 50
13.2175252523668
 51
79.2906378444277
  0
ARC
  8
4
  6
CONTINUOUS
 62
4
 10
4.44856799858391
 20
0.689030331721058
 30
0.0
 40
0.0426720066591215
 50
343.572650213087
 51
13.646491375206
  0
ARC
  8
4
  6
CONTINUOUS
 62
4
 10
4.44605276828237
 20
0.689142345580547
 30
0.0
 40
0.0451202814882085
 50
297.163939567243
 51
344.339487169275
  0
ARC
  8
5
  6
CONTINUOUS
 62
5
 10
0.196850394000001
 20
0.980502444499777
 30
0.0
 40
0.066929134
 50
359.999999999999
 51
180
  0
ARC
  8
5
  6
CONTINUOUS
 62
5
 10
0.196850394000001
 20
0.980502444499776
 30
0.0
 40
0.066929134
 50
179.999999999999
 51
359.999999999999
  0
LINE
  8
5
  6
CONTINUOUS
 62
5
 10
0.196850394000003
 20
0
 30
0.0
 11
4.527559054
 21
2.51593382738141E-17
 31
0.0
  0
LINE
  8
5
  6
CONTINUOUS
 62
5
 10
0.196850394
 20
1.17735283849978
 30
0.0
 11
4.527559054
 21
1.17735283849978
 31
0.0
  0
ARC
  8
5
  6
CONTINUOUS
 62
5
 10
4.527559054
 20
0.980502444499777
 30
0.0
 40
0.196850394
 50
2.54444374517081E-14
 51
89.9999999999998
  0
ARC
  8
5
  6
CONTINUOUS
 62
5
 10
4.527559054
 20
0.196850394
 30
0.0
 40
0.196850394
 50
269.999999999999
 51
360
  0
ARC
  8
5
  6
CONTINUOUS
 62
5
 10
0.196850393999999
 20
0.980502444499777
 30
0.0
 40
0.196850394
 50
89.9999999999998
 51
179.999999999999
  0
ARC
  8
5
  6
CONTINUOUS
 62
5
 10
0.196850394000003
 20
0.196850394
 30
0.0
 40
0.196850394
 50
180
 51
270
  0
LINE
  8
5
  6
CONTINUOUS
 62
5
 10
4.724409448
 20
0.980502444499777
 30
0.0
 11
4.724409448
 21
0.196850394000001
 31
0.0
  0
LINE
  8
5
  6
CONTINUOUS
 62
5
 10
0
 20
0.980502444499779
 30
0.0
 11
2.66453525910038E-15
 21
0.196850394000001
 31
0.0
  0
ENDSEC
  0
EOF
