999
File generated by Conversation
0
SECTION
2
HEADER
0
SECTION
2
HEADER
9
$ACADVER
1
AC1021
9
$INSBASE
10
0.0
20
0.0
30
0.0
9
$INSUNITS
70
4
9
$EXTMIN
10
0.0
20
0.0
30
0.0
9
$EXTMAX
10
1000.0
20
1000.0
30
0.0
0
ENDSEC
0
SECTION
2
TABLES
0
TABLE
2
LTYPE
70
1
0
LTYPE
2
CONTINUOUS
70
64
3
Solid line
72
65
73
0
40
0.0
0
ENDTAB
0
TABLE
2
LAYER
70
1
0
LAYER
2
0
70
64
62
7
6
CONTINUOUS
0
ENDTAB
0
TABLE
2
STYLE
70
1
0
STYLE
2
STANDARD
70
0
40
0.0
41
1.0
50
0.0
71
0
42
0.2
3
txt
4

0
ENDTAB
0
ENDSEC
0
SECTION
2
ENTITIES
0
LINE
8
0
62
3
10
25.000000
20
25.000000
30
0.0
11
24.000000
21
26.000000
31
0.0
0
LINE
8
0
62
3
10
25.000000
20
25.000000
30
0.0
11
26.000000
21
24.000000
31
0.0
0
LINE
8
0
62
3
10
25.000000
20
25.000000
30
0.0
11
26.000000
21
26.000000
31
0.0
0
LINE
8
0
62
3
10
25.000000
20
25.000000
30
0.0
11
24.000000
21
24.000000
31
0.0
0
LINE
8
0
62
3
10
-25.000000
20
25.000000
30
0.0
11
-24.000000
21
26.000000
31
0.0
0
LINE
8
0
62
3
10
25.000000
20
-25.000000
30
0.0
11
26.000000
21
-24.000000
31
0.0
0
LINE
8
0
62
3
10
25.000000
20
-25.000000
30
0.0
11
26.000000
21
-26.000000
31
0.0
0
LINE
8
0
62
3
10
25.000000
20
-25.000000
30
0.0
11
24.000000
21
-24.000000
31
0.0
0
LINE
8
0
62
3
10
-25.000000
20
-25.000000
30
0.0
11
-26.000000
21
-26.000000
31
0.0
0
LINE
8
0
62
3
10
-25.000000
20
-25.000000
30
0.0
11
-24.000000
21
-24.000000
31
0.0
0
LINE
8
0
62
3
10
-25.000000
20
-25.000000
30
0.0
11
-24.000000
21
-26.000000
31
0.0
0
LINE
8
0
62
3
10
-25.000000
20
-25.000000
30
0.0
11
-26.000000
21
-24.000000
31
0.0
0
LINE
8
0
62
3
10
20.000000
20
20.000000
30
0.0
11
19.000000
21
21.000000
31
0.0
0
LINE
8
0
62
3
10
20.000000
20
20.000000
30
0.0
11
21.000000
21
19.000000
31
0.0
0
LINE
8
0
62
3
10
20.000000
20
20.000000
30
0.0
11
21.000000
21
21.000000
31
0.0
0
LINE
8
0
62
3
10
20.000000
20
20.000000
30
0.0
11
19.000000
21
19.000000
31
0.0
0
LINE
8
0
62
3
10
-20.000000
20
-20.000000
30
0.0
11
-19.000000
21
-21.000000
31
0.0
0
LINE
8
0
62
3
10
20.000000
20
-20.000000
30
0.0
11
21.000000
21
-19.000000
31
0.0
0
LINE
8
0
62
3
10
-20.000000
20
20.000000
30
0.0
11
-19.000000
21
21.000000
31
0.0
0
LINE
8
0
62
3
10
-20.000000
20
-20.000000
30
0.0
11
-21.000000
21
-19.000000
31
0.0
0
LINE
8
0
62
3
10
20.000000
20
-20.000000
30
0.0
11
19.000000
21
-21.000000
31
0.0
0
LINE
8
0
62
3
10
-20.000000
20
20.000000
30
0.0
11
-21.000000
21
21.000000
31
0.0
0
LINE
8
0
62
3
10
-20.000000
20
-20.000000
30
0.0
11
-21.000000
21
-21.000000
31
0.0
0
LINE
8
0
62
3
10
20.000000
20
-20.000000
30
0.0
11
21.000000
21
-21.000000
31
0.0
0
LINE
8
0
62
3
10
-20.000000
20
20.000000
30
0.0
11
-19.000000
21
19.000000
31
0.0
0
LINE
8
0
62
3
10
-20.000000
20
-20.000000
30
0.0
11
-19.000000
21
-19.000000
31
0.0
0
LINE
8
0
62
3
10
20.000000
20
-20.000000
30
0.0
11
19.000000
21
-19.000000
31
0.0
0
LINE
8
0
62
3
10
-25.000000
20
25.000000
30
0.0
11
-26.000000
21
26.000000
31
0.0
0
LINE
8
0
62
3
10
-25.000000
20
25.000000
30
0.0
11
-26.000000
21
24.000000
31
0.0
0
LINE
8
0
62
3
10
-25.000000
20
25.000000
30
0.0
11
-24.000000
21
24.000000
31
0.0
0
LINE
8
0
62
3
10
25.000000
20
-25.000000
30
0.0
11
24.000000
21
-26.000000
31
0.0
0
LINE
8
0
62
0
10
-25.000000
20
25.000000
30
0.0
11
-25.000000
21
-25.000000
31
0.0
0
LINE
8
0
62
0
10
-25.000000
20
25.000000
30
0.0
11
25.000000
21
25.000000
31
0.0
0
LINE
8
0
62
0
10
25.000000
20
-25.000000
30
0.0
11
-25.000000
21
-25.000000
31
0.0
0
LINE
8
0
62
0
10
25.000000
20
-25.000000
30
0.0
11
25.000000
21
25.000000
31
0.0
0
LINE
8
0
62
3
10
-20.000000
20
20.000000
30
0.0
11
-21.000000
21
19.000000
31
0.0
0
ARC
8
0
62
0
10
-20.000000
20
20.000000
30
0.0
40
1.700001
50
0.000000
51
180.000000
0
ARC
8
0
62
0
10
-20.000000
20
20.000000
30
0.0
40
1.700001
50
180.000000
51
0.000000
0
ENDSEC
0
EOF
