999
File generated by Conversation
0
SECTION
2
HEADER
0
SECTION
2
HEADER
9
$ACADVER
1
AC1021
9
$INSBASE
10
0.0
20
0.0
30
0.0
9
$INSUNITS
70
4
9
$EXTMIN
10
0.0
20
0.0
30
0.0
9
$EXTMAX
10
1000.0
20
1000.0
30
0.0
0
ENDSEC
0
SECTION
2
TABLES
0
TABLE
2
LTYPE
70
1
0
LTYPE
2
CONTINUOUS
70
64
3
Solid line
72
65
73
0
40
0.0
0
ENDTAB
0
TABLE
2
LAYER
70
1
0
LAYER
2
0
70
64
62
7
6
CONTINUOUS
0
ENDTAB
0
TABLE
2
STYLE
70
1
0
STYLE
2
STANDARD
70
0
40
0.0
41
1.0
50
0.0
71
0
42
0.2
3
txt
4

0
ENDTAB
0
ENDSEC
0
SECTION
2
ENTITIES
0
LINE
8
0
62
0
10
-21.881599
20
12.633349
30
0.0
11
-21.881598
21
-12.633352
31
0.0
0
LINE
8
0
62
0
10
-21.881598
20
-12.633352
30
0.0
11
0.000000
21
-25.266695
31
0.0
0
LINE
8
0
62
0
10
0.000000
20
-25.266695
30
0.0
11
21.881603
21
-12.633342
31
0.0
0
LINE
8
0
62
0
10
21.881603
20
-12.633342
30
0.0
11
21.881598
21
12.633349
31
0.0
0
LINE
8
0
62
0
10
21.881598
20
12.633349
30
0.0
11
-0.000009
21
25.266695
31
0.0
0
LINE
8
0
62
0
10
-0.000001
20
25.266695
30
0.0
11
-10.940801
21
18.950022
31
0.0
0
LINE
8
0
62
0
10
-10.940801
20
18.950022
30
0.0
11
-21.881599
21
12.633349
31
0.0
0
LINE
8
0
62
0
10
-10.940802
20
18.950022
30
0.0
11
-21.881601
21
-0.000002
31
0.0
0
LINE
8
0
62
0
10
-21.881601
20
-0.000002
30
0.0
11
-10.940799
21
-18.950024
31
0.0
0
LINE
8
0
62
0
10
-10.940799
20
-18.950024
30
0.0
11
10.940800
21
-18.950024
31
0.0
0
LINE
8
0
62
0
10
10.940800
20
-18.950024
30
0.0
11
21.881601
21
0.000004
31
0.0
0
LINE
8
0
62
0
10
21.881601
20
0.000004
30
0.0
11
10.940792
21
18.950027
31
0.0
0
LINE
8
0
62
0
10
10.940792
20
18.950027
30
0.0
11
-0.000007
21
18.950024
31
0.0
0
LINE
8
0
62
0
10
-0.000007
20
18.950024
30
0.0
11
-10.940805
21
18.950020
31
0.0
0
LINE
8
0
62
0
10
-16.411205
20
9.475004
30
0.0
11
-16.411198
21
-9.475019
31
0.0
0
LINE
8
0
62
0
10
-16.411198
20
-9.475019
30
0.0
11
0.000009
21
-18.950024
31
0.0
0
LINE
8
0
62
0
10
0.000009
20
-18.950024
30
0.0
11
16.411209
21
-9.474999
31
0.0
0
LINE
8
0
62
0
10
16.411209
20
-9.474999
30
0.0
11
16.411196
21
9.475020
31
0.0
0
LINE
8
0
62
0
10
16.411196
20
9.475020
30
0.0
11
-0.000006
21
18.950024
31
0.0
0
LINE
8
0
62
0
10
-0.000008
20
18.950024
30
0.0
11
-8.205606
21
14.212514
31
0.0
0
LINE
8
0
62
0
10
-8.205606
20
14.212514
30
0.0
11
-16.411205
21
9.475004
31
0.0
0
LINE
8
0
62
0
10
-8.205605
20
14.212515
30
0.0
11
-16.411201
21
-0.000005
31
0.0
0
LINE
8
0
62
0
10
-16.411201
20
-0.000005
30
0.0
11
-8.205599
21
-14.212518
31
0.0
0
LINE
8
0
62
0
10
-8.205599
20
-14.212518
30
0.0
11
8.205606
21
-14.212514
31
0.0
0
LINE
8
0
62
0
10
8.205606
20
-14.212514
30
0.0
11
16.411201
21
0.000011
31
0.0
0
LINE
8
0
62
0
10
16.411201
20
0.000011
30
0.0
11
8.205594
21
14.212521
31
0.0
0
LINE
8
0
62
0
10
8.205594
20
14.212521
30
0.0
11
-0.000005
21
14.212518
31
0.0
0
LINE
8
0
62
0
10
-0.000005
20
14.212518
30
0.0
11
-8.205605
21
14.212515
31
0.0
0
LINE
8
0
62
0
10
-12.308405
20
7.106253
30
0.0
11
-12.308398
21
-7.106265
31
0.0
0
LINE
8
0
62
0
10
-12.308398
20
-7.106265
30
0.0
11
0.000007
21
-14.212518
31
0.0
0
LINE
8
0
62
0
10
0.000007
20
-14.212518
30
0.0
11
12.308406
21
-7.106249
31
0.0
0
LINE
8
0
62
0
10
12.308406
20
-7.106249
30
0.0
11
12.308397
21
7.106266
31
0.0
0
LINE
8
0
62
0
10
12.308397
20
7.106266
30
0.0
11
-0.000005
21
14.212518
31
0.0
0
LINE
8
0
62
0
10
-0.000006
20
14.212518
30
0.0
11
-6.154205
21
10.659386
31
0.0
0
LINE
8
0
62
0
10
-6.154205
20
10.659386
30
0.0
11
-12.308405
21
7.106253
31
0.0
0
LINE
8
0
62
0
10
-6.154207
20
10.659386
30
0.0
11
-12.308402
21
-0.000007
31
0.0
0
LINE
8
0
62
0
10
-12.308402
20
-0.000007
30
0.0
11
-6.154195
21
-10.659392
31
0.0
0
LINE
8
0
62
0
10
-6.154195
20
-10.659392
30
0.0
11
6.154211
21
-10.659384
31
0.0
0
LINE
8
0
62
0
10
6.154211
20
-10.659384
30
0.0
11
12.308402
21
0.000008
31
0.0
0
LINE
8
0
62
0
10
12.308402
20
0.000008
30
0.0
11
6.154196
21
10.659391
31
0.0
0
LINE
8
0
62
0
10
6.154196
20
10.659391
30
0.0
11
-0.000004
21
10.659389
31
0.0
0
LINE
8
0
62
0
10
-0.000004
20
10.659389
30
0.0
11
-6.154204
21
10.659388
31
0.0
0
LINE
8
0
62
0
10
-9.231304
20
5.329690
30
0.0
11
-9.231300
21
-5.329699
31
0.0
0
LINE
8
0
62
0
10
-9.231300
20
-5.329699
30
0.0
11
0.000005
21
-10.659389
31
0.0
0
LINE
8
0
62
0
10
0.000005
20
-10.659389
30
0.0
11
9.231306
21
-5.329688
31
0.0
0
LINE
8
0
62
0
10
9.231306
20
-5.329688
30
0.0
11
9.231298
21
5.329700
31
0.0
0
LINE
8
0
62
0
10
9.231298
20
5.329700
30
0.0
11
-0.000004
21
10.659389
31
0.0
0
LINE
8
0
62
0
10
-0.000004
20
10.659389
30
0.0
11
-4.615654
21
7.994540
31
0.0
0
LINE
8
0
62
0
10
-4.615654
20
7.994540
30
0.0
11
-9.231304
21
5.329690
31
0.0
0
LINE
8
0
62
0
10
-4.615654
20
7.994541
30
0.0
11
-9.231302
21
-0.000003
31
0.0
0
LINE
8
0
62
0
10
-9.231302
20
-0.000003
30
0.0
11
-4.615650
21
-7.994543
31
0.0
0
LINE
8
0
62
0
10
-4.615650
20
-7.994543
30
0.0
11
4.615654
21
-7.994541
31
0.0
0
LINE
8
0
62
0
10
4.615654
20
-7.994541
30
0.0
11
9.231302
21
0.000006
31
0.0
0
LINE
8
0
62
0
10
9.231302
20
0.000006
30
0.0
11
4.615647
21
7.994545
31
0.0
0
LINE
8
0
62
0
10
4.615647
20
7.994545
30
0.0
11
-0.000003
21
7.994543
31
0.0
0
LINE
8
0
62
0
10
-0.000003
20
7.994543
30
0.0
11
-4.615654
21
7.994541
31
0.0
0
LINE
8
0
62
0
10
-6.923479
20
3.997268
30
0.0
11
-6.923476
21
-3.997275
31
0.0
0
LINE
8
0
62
0
10
-6.923476
20
-3.997275
30
0.0
11
0.000004
21
-7.994543
31
0.0
0
LINE
8
0
62
0
10
0.000004
20
-7.994543
30
0.0
11
6.923480
21
-3.997266
31
0.0
0
LINE
8
0
62
0
10
6.923480
20
-3.997266
30
0.0
11
6.923475
21
3.997275
31
0.0
0
LINE
8
0
62
0
10
6.923475
20
3.997275
30
0.0
11
-0.000003
21
7.994543
31
0.0
0
LINE
8
0
62
0
10
-0.000003
20
7.994543
30
0.0
11
-3.461741
21
5.995906
31
0.0
0
LINE
8
0
62
0
10
-3.461741
20
5.995906
30
0.0
11
-6.923479
21
3.997268
31
0.0
0
LINE
8
0
62
0
10
-3.461740
20
5.995907
30
0.0
11
-6.923478
21
-0.000002
31
0.0
0
LINE
8
0
62
0
10
-6.923478
20
-0.000002
30
0.0
11
-3.461738
21
-5.995908
31
0.0
0
LINE
8
0
62
0
10
-3.461738
20
-5.995908
30
0.0
11
3.461741
21
-5.995906
31
0.0
0
LINE
8
0
62
0
10
3.461741
20
-5.995906
30
0.0
11
6.923478
21
0.000005
31
0.0
0
LINE
8
0
62
0
10
6.923478
20
0.000005
30
0.0
11
3.461736
21
5.995909
31
0.0
0
LINE
8
0
62
0
10
3.461736
20
5.995909
30
0.0
11
-0.000002
21
5.995908
31
0.0
0
LINE
8
0
62
0
10
-0.000002
20
5.995908
30
0.0
11
-3.461740
21
5.995907
31
0.0
0
LINE
8
0
62
0
10
-5.192610
20
2.997952
30
0.0
11
-5.192607
21
-2.997956
31
0.0
0
LINE
8
0
62
0
10
-5.192607
20
-2.997956
30
0.0
11
0.000003
21
-5.995908
31
0.0
0
LINE
8
0
62
0
10
0.000003
20
-5.995908
30
0.0
11
5.192611
21
-2.997950
31
0.0
0
LINE
8
0
62
0
10
5.192611
20
-2.997950
30
0.0
11
5.192606
21
2.997957
31
0.0
0
LINE
8
0
62
0
10
5.192606
20
2.997957
30
0.0
11
-0.000002
21
5.995908
31
0.0
0
LINE
8
0
62
0
10
-0.000002
20
5.995908
30
0.0
11
-2.596306
21
4.496930
31
0.0
0
LINE
8
0
62
0
10
-2.596306
20
4.496930
30
0.0
11
-5.192610
21
2.997952
31
0.0
0
LINE
8
0
62
0
10
-2.596307
20
4.496930
30
0.0
11
-5.192608
21
-0.000003
31
0.0
0
LINE
8
0
62
0
10
-5.192608
20
-0.000003
30
0.0
11
-2.596302
21
-4.496932
31
0.0
0
LINE
8
0
62
0
10
-2.596302
20
-4.496932
30
0.0
11
2.596308
21
-4.496929
31
0.0
0
LINE
8
0
62
0
10
2.596308
20
-4.496929
30
0.0
11
5.192608
21
0.000003
31
0.0
0
LINE
8
0
62
0
10
5.192608
20
0.000003
30
0.0
11
2.596302
21
4.496932
31
0.0
0
LINE
8
0
62
0
10
2.596302
20
4.496932
30
0.0
11
-0.000002
21
4.496931
31
0.0
0
LINE
8
0
62
0
10
-0.000002
20
4.496931
30
0.0
11
-2.596305
21
4.496930
31
0.0
0
LINE
8
0
62
0
10
-3.894458
20
2.248464
30
0.0
11
-3.894456
21
-2.248467
31
0.0
0
LINE
8
0
62
0
10
-3.894456
20
-2.248467
30
0.0
11
0.000002
21
-4.496931
31
0.0
0
LINE
8
0
62
0
10
0.000002
20
-4.496931
30
0.0
11
3.894458
21
-2.248463
31
0.0
0
LINE
8
0
62
0
10
3.894458
20
-2.248463
30
0.0
11
3.894455
21
2.248468
31
0.0
0
LINE
8
0
62
0
10
3.894455
20
2.248468
30
0.0
11
-0.000002
21
4.496931
31
0.0
0
LINE
8
0
62
0
10
-0.000002
20
4.496931
30
0.0
11
-1.947230
21
3.372697
31
0.0
0
LINE
8
0
62
0
10
-1.947230
20
3.372697
30
0.0
11
-3.894458
21
2.248464
31
0.0
0
LINE
8
0
62
0
10
-1.947230
20
3.372697
30
0.0
11
-3.894456
21
-0.000002
31
0.0
0
LINE
8
0
62
0
10
-3.894456
20
-0.000002
30
0.0
11
-1.947226
21
-3.372699
31
0.0
0
LINE
8
0
62
0
10
-1.947226
20
-3.372699
30
0.0
11
1.947231
21
-3.372696
31
0.0
0
LINE
8
0
62
0
10
1.947231
20
-3.372696
30
0.0
11
3.894456
21
0.000003
31
0.0
0
LINE
8
0
62
0
10
3.894456
20
0.000003
30
0.0
11
1.947227
21
3.372699
31
0.0
0
LINE
8
0
62
0
10
1.947227
20
3.372699
30
0.0
11
-0.000001
21
3.372698
31
0.0
0
LINE
8
0
62
0
10
-0.000001
20
3.372698
30
0.0
11
-1.947229
21
3.372698
31
0.0
0
LINE
8
0
62
0
10
-0.000001
20
3.372698
30
0.0
11
-2.920843
21
1.686348
31
0.0
0
LINE
8
0
62
0
10
-2.920842
20
-1.686351
30
0.0
11
0.000002
21
-3.372698
31
0.0
0
LINE
8
0
62
0
10
0.000002
20
-3.372698
30
0.0
11
2.920844
21
-1.686347
31
0.0
0
LINE
8
0
62
0
10
2.920844
20
-1.686347
30
0.0
11
2.920841
21
1.686351
31
0.0
0
LINE
8
0
62
0
10
2.920841
20
1.686351
30
0.0
11
-0.000001
21
3.372698
31
0.0
0
LINE
8
0
62
0
10
-2.920843
20
1.686348
30
0.0
11
-2.920842
21
-0.000001
31
0.0
0
LINE
8
0
62
0
10
-2.920842
20
-0.000001
30
0.0
11
-2.920842
21
-1.686351
31
0.0
0
LINE
8
0
62
0
10
-2.920842
20
-0.000001
30
0.0
11
-1.460420
21
-2.529524
31
0.0
0
LINE
8
0
62
0
10
-1.460420
20
-2.529524
30
0.0
11
1.460422
21
-2.529523
31
0.0
0
LINE
8
0
62
0
10
1.460422
20
-2.529523
30
0.0
11
2.920842
21
0.000001
31
0.0
0
LINE
8
0
62
0
10
2.920842
20
0.000001
30
0.0
11
1.460420
21
2.529525
31
0.0
0
LINE
8
0
62
0
10
1.460420
20
2.529525
30
0.0
11
-1.460423
21
2.529523
31
0.0
0
LINE
8
0
62
0
10
-1.460423
20
2.529523
30
0.0
11
-2.190633
21
1.264761
31
0.0
0
LINE
8
0
62
0
10
-2.190633
20
1.264761
30
0.0
11
-2.920842
21
-0.000002
31
0.0
0
LINE
8
0
62
0
10
-2.190631
20
-1.264763
30
0.0
11
0.000002
21
-2.529524
31
0.0
0
LINE
8
0
62
0
10
0.000002
20
-2.529524
30
0.0
11
2.190633
21
-1.264760
31
0.0
0
LINE
8
0
62
0
10
2.190633
20
-1.264760
30
0.0
11
2.190631
21
1.264763
31
0.0
0
LINE
8
0
62
0
10
2.190631
20
1.264763
30
0.0
11
-0.000002
21
2.529524
31
0.0
0
LINE
8
0
62
0
10
-0.000002
20
2.529524
30
0.0
11
-2.190633
21
1.264760
31
0.0
0
LINE
8
0
62
0
10
-2.190633
20
1.264760
30
0.0
11
-2.190632
21
-0.000002
31
0.0
0
LINE
8
0
62
0
10
-2.190632
20
-0.000002
30
0.0
11
-2.190631
21
-1.264763
31
0.0
0
LINE
8
0
62
0
10
-2.190632
20
-0.000001
30
0.0
11
-1.095315
21
-1.897144
31
0.0
0
LINE
8
0
62
0
10
-1.095315
20
-1.897144
30
0.0
11
1.095317
21
-1.897142
31
0.0
0
LINE
8
0
62
0
10
1.095317
20
-1.897142
30
0.0
11
2.190632
21
0.000002
31
0.0
0
LINE
8
0
62
0
10
2.190632
20
0.000002
30
0.0
11
1.095315
21
1.897144
31
0.0
0
LINE
8
0
62
0
10
1.095315
20
1.897144
30
0.0
11
-1.095317
21
1.897142
31
0.0
0
LINE
8
0
62
0
10
-1.095317
20
1.897142
30
0.0
11
-1.642975
21
0.948570
31
0.0
0
LINE
8
0
62
0
10
-1.642975
20
0.948570
30
0.0
11
-2.190632
21
-0.000002
31
0.0
0
LINE
8
0
62
0
10
-1.642973
20
-0.948573
30
0.0
11
0.000002
21
-1.897143
31
0.0
0
LINE
8
0
62
0
10
0.000002
20
-1.897143
30
0.0
11
1.642974
21
-0.948570
31
0.0
0
LINE
8
0
62
0
10
1.642974
20
-0.948570
30
0.0
11
1.642973
21
0.948572
31
0.0
0
LINE
8
0
62
0
10
1.642973
20
0.948572
30
0.0
11
-0.000002
21
1.897143
31
0.0
0
LINE
8
0
62
0
10
-0.000002
20
1.897143
30
0.0
11
-1.642975
21
0.948570
31
0.0
0
LINE
8
0
62
0
10
-1.642974
20
0.948570
30
0.0
11
-1.642974
21
-0.000001
31
0.0
0
LINE
8
0
62
0
10
-1.642974
20
-0.000001
30
0.0
11
-1.642973
21
-0.948573
31
0.0
0
LINE
8
0
62
0
10
-0.821486
20
-1.422858
30
0.0
11
0.821488
21
-1.422857
31
0.0
0
LINE
8
0
62
0
10
0.821488
20
-1.422857
30
0.0
11
1.642974
21
0.000001
31
0.0
0
LINE
8
0
62
0
10
1.642974
20
0.000001
30
0.0
11
0.821486
21
1.422858
31
0.0
0
LINE
8
0
62
0
10
0.821486
20
1.422858
30
0.0
11
-0.821488
21
1.422857
31
0.0
0
LINE
8
0
62
0
10
-0.821488
20
1.422857
30
0.0
11
-1.642974
21
-0.000001
31
0.0
0
LINE
8
0
62
0
10
-1.642974
20
-0.000001
30
0.0
11
-1.232230
21
-0.711429
31
0.0
0
LINE
8
0
62
0
10
-1.232230
20
-0.711429
30
0.0
11
-0.821486
21
-1.422858
31
0.0
0
LINE
8
0
62
0
10
0.000001
20
-1.422857
30
0.0
11
1.232231
21
-0.711428
31
0.0
0
LINE
8
0
62
0
10
1.232231
20
-0.711428
30
0.0
11
1.232230
21
0.711429
31
0.0
0
LINE
8
0
62
0
10
1.232230
20
0.711429
30
0.0
11
-0.000001
21
1.422857
31
0.0
0
LINE
8
0
62
0
10
-0.000001
20
1.422857
30
0.0
11
-1.232231
21
0.711428
31
0.0
0
LINE
8
0
62
0
10
-1.232231
20
0.711428
30
0.0
11
-1.232230
21
-0.711429
31
0.0
0
LINE
8
0
62
0
10
-1.232230
20
-0.711429
30
0.0
11
-0.616115
21
-1.067143
31
0.0
0
LINE
8
0
62
0
10
-0.616115
20
-1.067143
30
0.0
11
0.000001
21
-1.422857
31
0.0
0
LINE
8
0
62
0
10
0.616116
20
-1.067142
30
0.0
11
1.232230
21
0.000001
31
0.0
0
LINE
8
0
62
0
10
1.232230
20
0.000001
30
0.0
11
0.616114
21
1.067143
31
0.0
0
LINE
8
0
62
0
10
0.616114
20
1.067143
30
0.0
11
-0.616116
21
1.067142
31
0.0
0
LINE
8
0
62
0
10
-0.616116
20
1.067142
30
0.0
11
-1.232230
21
-0.000001
31
0.0
0
LINE
8
0
62
0
10
-1.232230
20
-0.000001
30
0.0
11
-0.616114
21
-1.067143
31
0.0
0
LINE
8
0
62
0
10
-0.616114
20
-1.067143
30
0.0
11
0.000001
21
-1.067143
31
0.0
0
LINE
8
0
62
0
10
0.000001
20
-1.067143
30
0.0
11
0.616116
21
-1.067142
31
0.0
0
LINE
8
0
62
0
10
0.924173
20
-0.533571
30
0.0
11
0.924172
21
0.533572
31
0.0
0
LINE
8
0
62
0
10
0.924172
20
0.533572
30
0.0
11
-0.000001
21
1.067143
31
0.0
0
LINE
8
0
62
0
10
-0.000001
20
1.067143
30
0.0
11
-0.924173
21
0.533571
31
0.0
0
LINE
8
0
62
0
10
-0.924173
20
0.533571
30
0.0
11
-0.924172
21
-0.533572
31
0.0
0
LINE
8
0
62
0
10
-0.924172
20
-0.533572
30
0.0
11
0.000001
21
-1.067143
31
0.0
0
LINE
8
0
62
0
10
0.000001
20
-1.067143
30
0.0
11
0.462087
21
-0.800357
31
0.0
0
LINE
8
0
62
0
10
0.462087
20
-0.800357
30
0.0
11
0.924173
21
-0.533571
31
0.0
0
LINE
8
0
62
0
10
0.462087
20
-0.800357
30
0.0
11
0.924173
21
0.000001
31
0.0
0
LINE
8
0
62
0
10
0.924173
20
0.000001
30
0.0
11
0.462086
21
0.800357
31
0.0
0
LINE
8
0
62
0
10
0.462086
20
0.800357
30
0.0
11
-0.462087
21
0.800357
31
0.0
0
LINE
8
0
62
0
10
-0.462087
20
0.800357
30
0.0
11
-0.924173
21
-0.000001
31
0.0
0
LINE
8
0
62
0
10
-0.924173
20
-0.000001
30
0.0
11
-0.462085
21
-0.800358
31
0.0
0
LINE
8
0
62
0
10
-0.462085
20
-0.800358
30
0.0
11
0.000001
21
-0.800357
31
0.0
0
LINE
8
0
62
0
10
0.000001
20
-0.800357
30
0.0
11
0.462087
21
-0.800357
31
0.0
0
LINE
8
0
62
0
10
0.693130
20
-0.400178
30
0.0
11
0.693129
21
0.400179
31
0.0
0
LINE
8
0
62
0
10
0.693129
20
0.400179
30
0.0
11
-0.000001
21
0.800357
31
0.0
0
LINE
8
0
62
0
10
-0.000001
20
0.800357
30
0.0
11
-0.693130
21
0.400178
31
0.0
0
LINE
8
0
62
0
10
-0.693130
20
0.400178
30
0.0
11
-0.693129
21
-0.400179
31
0.0
0
LINE
8
0
62
0
10
-0.693129
20
-0.400179
30
0.0
11
0.000001
21
-0.800357
31
0.0
0
LINE
8
0
62
0
10
0.000001
20
-0.800357
30
0.0
11
0.346565
21
-0.600267
31
0.0
0
LINE
8
0
62
0
10
0.346565
20
-0.600267
30
0.0
11
0.693130
21
-0.400178
31
0.0
0
LINE
8
0
62
0
10
0.346565
20
-0.600267
30
0.0
11
0.693130
21
0.000001
31
0.0
0
LINE
8
0
62
0
10
0.693130
20
0.000001
30
0.0
11
0.346564
21
0.600268
31
0.0
0
LINE
8
0
62
0
10
0.346564
20
0.600268
30
0.0
11
-0.346565
21
0.600267
31
0.0
0
LINE
8
0
62
0
10
-0.346565
20
0.600267
30
0.0
11
-0.693130
21
-0.000001
31
0.0
0
LINE
8
0
62
0
10
-0.693130
20
-0.000001
30
0.0
11
-0.346564
21
-0.600268
31
0.0
0
LINE
8
0
62
0
10
-0.346564
20
-0.600268
30
0.0
11
0.000001
21
-0.600268
31
0.0
0
LINE
8
0
62
0
10
0.000001
20
-0.600268
30
0.0
11
0.346566
21
-0.600267
31
0.0
0
LINE
8
0
62
0
10
0.519848
20
-0.300133
30
0.0
11
0.519847
21
0.300135
31
0.0
0
LINE
8
0
62
0
10
0.519847
20
0.300135
30
0.0
11
-0.000001
21
0.600268
31
0.0
0
LINE
8
0
62
0
10
-0.000001
20
0.600268
30
0.0
11
-0.519848
21
0.300133
31
0.0
0
LINE
8
0
62
0
10
-0.519848
20
0.300133
30
0.0
11
-0.519847
21
-0.300135
31
0.0
0
LINE
8
0
62
0
10
-0.519847
20
-0.300135
30
0.0
11
0.000001
21
-0.600268
31
0.0
0
LINE
8
0
62
0
10
0.000001
20
-0.600268
30
0.0
11
0.259924
21
-0.450200
31
0.0
0
LINE
8
0
62
0
10
0.259924
20
-0.450200
30
0.0
11
0.519848
21
-0.300133
31
0.0
0
LINE
8
0
62
0
10
0.259924
20
-0.450201
30
0.0
11
0.519847
21
0.000001
31
0.0
0
LINE
8
0
62
0
10
0.519847
20
0.000001
30
0.0
11
0.259923
21
0.450201
31
0.0
0
LINE
8
0
62
0
10
0.259923
20
0.450201
30
0.0
11
-0.259924
21
0.450200
31
0.0
0
LINE
8
0
62
0
10
-0.259924
20
0.450200
30
0.0
11
-0.519847
21
-0.000001
31
0.0
0
LINE
8
0
62
0
10
-0.519847
20
-0.000001
30
0.0
11
-0.259923
21
-0.450201
31
0.0
0
LINE
8
0
62
0
10
-0.259923
20
-0.450201
30
0.0
11
0.000001
21
-0.450201
31
0.0
0
LINE
8
0
62
0
10
0.000001
20
-0.450201
30
0.0
11
0.259924
21
-0.450200
31
0.0
0
LINE
8
0
62
0
10
0.000001
20
-0.450201
30
0.0
11
0.389886
21
-0.225100
31
0.0
0
LINE
8
0
62
0
10
0.389886
20
-0.225100
30
0.0
11
0.389885
21
0.225101
31
0.0
0
LINE
8
0
62
0
10
0.389885
20
0.225101
30
0.0
11
-0.000001
21
0.450201
31
0.0
0
LINE
8
0
62
0
10
-0.000001
20
0.450201
30
0.0
11
-0.389886
21
0.225100
31
0.0
0
LINE
8
0
62
0
10
-0.389886
20
0.225100
30
0.0
11
-0.389885
21
-0.225101
31
0.0
0
LINE
8
0
62
0
10
-0.389885
20
-0.225101
30
0.0
11
0.000001
21
-0.450201
31
0.0
0
ENDSEC
0
EOF
